<?xml version="1.0" standalone="no"?>
<!DOCTYPE svg PUBLIC "-//W3C//DTD SVG 20010904//EN"
 "http://www.w3.org/TR/2001/REC-SVG-20010904/DTD/svg10.dtd">
<svg version="1.0" xmlns="http://www.w3.org/2000/svg"
 width="96.000000pt" height="84.000000pt" viewBox="0 0 96.000000 84.000000"
 preserveAspectRatio="xMidYMid meet">
<metadata>
Created by potrace 1.16, written by Peter Selinger 2001-2019
</metadata>
<g transform="translate(0.000000,84.000000) scale(0.100000,-0.100000)"
fill="#000000" stroke="none">
<path d="M604 815 c5 -21 1 -26 -38 -43 -66 -30 -115 -107 -112 -175 1 -15 14
-44 30 -63 24 -30 26 -37 14 -51 -10 -13 -10 -17 0 -20 6 -3 12 -9 12 -14 0
-5 11 -28 25 -50 29 -44 48 -169 27 -169 -19 0 -52 76 -52 117 0 81 -58 106
-121 53 -24 -20 -31 -33 -31 -61 0 -40 24 -93 47 -106 11 -7 13 -16 5 -43 -5
-19 -13 -54 -19 -76 -6 -23 -11 -58 -11 -78 l0 -36 58 0 c56 0 59 1 75 33 l16
32 0 -32 1 -33 175 0 c167 0 176 1 197 22 27 27 8 37 -27 14 -13 -9 -26 -16
-28 -16 -8 0 -49 191 -43 197 3 4 6 0 6 -8 0 -8 8 -24 18 -36 17 -22 17 -21
16 55 l-2 77 14 -39 c19 -52 28 -60 20 -16 l-7 35 16 -27 c19 -34 23 -35 19
-5 -2 12 -8 87 -14 167 -11 155 -44 303 -78 350 -10 14 -31 26 -45 28 -15 2
-29 11 -32 23 -5 16 -16 19 -72 19 -64 0 -65 0 -59 -25z"/>
</g>
</svg>
