<?xml version="1.0" standalone="no"?>
<!DOCTYPE svg PUBLIC "-//W3C//DTD SVG 20010904//EN"
 "http://www.w3.org/TR/2001/REC-SVG-20010904/DTD/svg10.dtd">
<svg version="1.0" xmlns="http://www.w3.org/2000/svg"
 width="96.000000pt" height="84.000000pt" viewBox="0 0 96.000000 84.000000"
 preserveAspectRatio="xMidYMid meet">
<metadata>
Created by potrace 1.16, written by Peter Selinger 2001-2019
</metadata>
<g transform="translate(0.000000,84.000000) scale(0.100000,-0.100000)"
fill="#000000" stroke="none">
<path d="M318 768 c-11 -164 -133 -288 -273 -276 l-45 3 0 -247 0 -248 309 0
310 0 7 48 c4 26 10 57 15 69 11 28 39 203 39 240 0 14 -7 34 -15 43 -14 15
-13 22 6 64 22 51 20 59 -27 101 -7 5 -14 21 -16 35 -3 14 -7 32 -9 40 -5 20
85 27 108 9 24 -20 63 -106 63 -138 0 -16 4 -41 9 -55 6 -14 7 -62 2 -118 -8
-92 -8 -94 31 -203 22 -60 42 -116 44 -123 2 -7 20 -12 44 -12 l40 0 0 420 0
420 -319 0 -318 0 -5 -72z"/>
</g>
</svg>
