<?xml version="1.0" standalone="no"?>
<!DOCTYPE svg PUBLIC "-//W3C//DTD SVG 20010904//EN"
 "http://www.w3.org/TR/2001/REC-SVG-20010904/DTD/svg10.dtd">
<svg version="1.0" xmlns="http://www.w3.org/2000/svg"
 width="96.000000pt" height="84.000000pt" viewBox="0 0 96.000000 84.000000"
 preserveAspectRatio="xMidYMid meet">
<metadata>
Created by potrace 1.16, written by Peter Selinger 2001-2019
</metadata>
<g transform="translate(0.000000,84.000000) scale(0.100000,-0.100000)"
fill="#000000" stroke="none">
<path d="M318 768 c-11 -164 -133 -288 -273 -276 l-45 3 0 -247 0 -248 305 0
305 0 4 23 c2 12 11 56 20 97 8 41 21 114 27 162 10 75 10 90 -3 110 -14 21
-14 28 4 72 18 47 18 49 1 70 -10 11 -24 26 -32 32 -8 6 -12 18 -9 25 3 8 0
23 -8 33 -7 11 -11 23 -8 27 9 15 88 10 111 -6 28 -20 67 -106 77 -170 11 -66
8 -173 -5 -207 -9 -21 -6 -38 16 -90 15 -34 37 -89 49 -120 l21 -58 42 0 43 0
0 420 0 420 -319 0 -318 0 -5 -72z"/>
</g>
</svg>
