<?xml version="1.0" standalone="no"?>
<!DOCTYPE svg PUBLIC "-//W3C//DTD SVG 20010904//EN"
 "http://www.w3.org/TR/2001/REC-SVG-20010904/DTD/svg10.dtd">
<svg version="1.0" xmlns="http://www.w3.org/2000/svg"
 width="96.000000pt" height="84.000000pt" viewBox="0 0 96.000000 84.000000"
 preserveAspectRatio="xMidYMid meet">
<metadata>
Created by potrace 1.16, written by Peter Selinger 2001-2019
</metadata>
<g transform="translate(0.000000,84.000000) scale(0.100000,-0.100000)"
fill="#000000" stroke="none">
<path d="M318 768 c-11 -164 -133 -288 -273 -276 l-45 3 0 -248 0 -247 298 2
297 3 7 55 c4 30 16 104 26 164 19 108 19 132 0 172 -7 16 -5 31 11 62 26 51
26 52 -4 84 -15 16 -25 39 -25 57 0 16 -4 33 -10 36 -5 3 -10 11 -10 17 0 7
18 9 53 5 52 -6 97 -39 97 -71 0 -8 7 -27 15 -42 8 -16 15 -36 15 -45 0 -9 7
-33 15 -53 9 -20 16 -73 18 -120 2 -69 -1 -87 -16 -104 -18 -20 -18 -22 8 -84
15 -34 34 -80 42 -100 16 -37 17 -38 70 -38 l53 0 0 420 0 420 -319 0 -318 0
-5 -72z"/>
<path d="M717 379 c-6 -21 28 -118 37 -108 6 6 -14 113 -23 122 -5 5 -11 -2
-14 -14z"/>
<path d="M760 229 c0 -5 5 -7 10 -4 6 3 10 8 10 11 0 2 -4 4 -10 4 -5 0 -10
-5 -10 -11z"/>
</g>
</svg>
