<?xml version="1.0" standalone="no"?>
<!DOCTYPE svg PUBLIC "-//W3C//DTD SVG 20010904//EN"
 "http://www.w3.org/TR/2001/REC-SVG-20010904/DTD/svg10.dtd">
<svg version="1.0" xmlns="http://www.w3.org/2000/svg"
 width="96.000000pt" height="84.000000pt" viewBox="0 0 96.000000 84.000000"
 preserveAspectRatio="xMidYMid meet">
<metadata>
Created by potrace 1.16, written by Peter Selinger 2001-2019
</metadata>
<g transform="translate(0.000000,84.000000) scale(0.100000,-0.100000)"
fill="#000000" stroke="none">
<path d="M318 768 c-11 -164 -133 -288 -273 -276 l-45 3 0 -247 0 -248 285 0
285 0 0 39 c0 22 7 73 15 113 24 111 31 224 15 243 -11 13 -9 24 10 65 21 45
22 53 9 77 -8 16 -18 31 -22 34 -5 3 -9 27 -11 52 -3 53 6 58 66 33 51 -22 47
-13 104 -216 9 -30 22 -76 30 -101 21 -69 19 -108 -6 -106 -18 1 -23 11 -72
147 -8 22 -11 23 -19 8 -6 -11 -4 -31 7 -60 8 -24 24 -70 34 -102 11 -33 36
-97 57 -143 l37 -83 68 0 68 0 0 420 0 420 -319 0 -318 0 -5 -72z"/>
</g>
</svg>
