<?xml version="1.0" standalone="no"?>
<!DOCTYPE svg PUBLIC "-//W3C//DTD SVG 20010904//EN"
 "http://www.w3.org/TR/2001/REC-SVG-20010904/DTD/svg10.dtd">
<svg version="1.0" xmlns="http://www.w3.org/2000/svg"
 width="96.000000pt" height="84.000000pt" viewBox="0 0 96.000000 84.000000"
 preserveAspectRatio="xMidYMid meet">
<metadata>
Created by potrace 1.16, written by Peter Selinger 2001-2019
</metadata>
<g transform="translate(0.000000,84.000000) scale(0.100000,-0.100000)"
fill="#000000" stroke="none">
<path d="M318 768 c-11 -164 -133 -288 -273 -276 l-45 3 0 -247 0 -248 275 0
275 0 0 31 c0 17 9 65 19 107 36 141 45 210 32 251 -10 30 -10 42 5 76 21 48
25 65 15 65 -14 0 -33 55 -36 103 -3 53 -1 54 75 18 29 -13 37 -24 48 -66 16
-59 30 -124 38 -180 3 -22 12 -57 20 -78 8 -20 14 -53 14 -72 0 -31 -2 -34
-22 -26 -16 6 -29 26 -43 67 -12 36 -21 52 -23 40 -2 -10 3 -35 11 -55 9 -20
18 -49 22 -65 3 -16 22 -71 42 -123 l36 -93 78 0 79 0 0 420 0 420 -319 0
-318 0 -5 -72z"/>
</g>
</svg>
