<?xml version="1.0" standalone="no"?>
<!DOCTYPE svg PUBLIC "-//W3C//DTD SVG 20010904//EN"
 "http://www.w3.org/TR/2001/REC-SVG-20010904/DTD/svg10.dtd">
<svg version="1.0" xmlns="http://www.w3.org/2000/svg"
 width="96.000000pt" height="84.000000pt" viewBox="0 0 96.000000 84.000000"
 preserveAspectRatio="xMidYMid meet">
<metadata>
Created by potrace 1.16, written by Peter Selinger 2001-2019
</metadata>
<g transform="translate(0.000000,84.000000) scale(0.100000,-0.100000)"
fill="#000000" stroke="none">
<path d="M318 768 c-11 -164 -133 -288 -273 -276 l-45 3 0 -247 0 -248 264 0
264 0 7 33 c4 17 15 61 26 97 11 35 17 76 14 90 -3 14 1 45 10 69 18 52 19 85
3 111 -9 15 -9 24 0 44 7 14 17 36 23 49 8 19 6 31 -11 62 -12 21 -19 47 -16
58 3 11 1 28 -5 38 -14 27 4 31 56 11 37 -13 51 -25 62 -49 17 -43 31 -195 28
-313 -3 -83 1 -106 26 -181 16 -48 29 -94 29 -103 0 -14 13 -16 90 -16 l90 0
0 420 0 420 -319 0 -318 0 -5 -72z"/>
</g>
</svg>
