<?xml version="1.0" standalone="no"?>
<!DOCTYPE svg PUBLIC "-//W3C//DTD SVG 20010904//EN"
 "http://www.w3.org/TR/2001/REC-SVG-20010904/DTD/svg10.dtd">
<svg version="1.0" xmlns="http://www.w3.org/2000/svg"
 width="96.000000pt" height="84.000000pt" viewBox="0 0 96.000000 84.000000"
 preserveAspectRatio="xMidYMid meet">
<metadata>
Created by potrace 1.16, written by Peter Selinger 2001-2019
</metadata>
<g transform="translate(0.000000,84.000000) scale(0.100000,-0.100000)"
fill="#000000" stroke="none">
<path d="M318 768 c-11 -164 -133 -288 -273 -276 l-45 3 0 -247 0 -248 265 0
c204 0 266 3 269 13 22 82 46 193 52 237 6 52 5 54 -10 33 -9 -12 -15 -27 -14
-34 2 -6 -3 -14 -9 -16 -23 -8 -14 38 16 88 26 41 28 51 19 76 -9 23 -6 37 12
76 22 46 22 48 5 67 -10 11 -14 20 -9 20 5 0 3 4 -5 9 -8 5 -14 30 -16 60 -3
50 -3 51 24 45 35 -9 75 -30 87 -46 26 -33 40 -158 49 -408 1 -49 9 -91 22
-120 11 -25 23 -57 27 -72 6 -28 7 -28 91 -28 l85 0 0 420 0 420 -319 0 -318
0 -5 -72z"/>
</g>
</svg>
