<?xml version="1.0" standalone="no"?>
<!DOCTYPE svg PUBLIC "-//W3C//DTD SVG 20010904//EN"
 "http://www.w3.org/TR/2001/REC-SVG-20010904/DTD/svg10.dtd">
<svg version="1.0" xmlns="http://www.w3.org/2000/svg"
 width="96.000000pt" height="84.000000pt" viewBox="0 0 96.000000 84.000000"
 preserveAspectRatio="xMidYMid meet">
<metadata>
Created by potrace 1.16, written by Peter Selinger 2001-2019
</metadata>
<g transform="translate(0.000000,84.000000) scale(0.100000,-0.100000)"
fill="#000000" stroke="none">
<path d="M600 815 c9 -22 6 -26 -34 -44 -47 -20 -87 -66 -105 -120 -18 -56
-14 -85 20 -120 23 -25 28 -35 19 -46 -8 -9 -3 -25 20 -62 17 -27 34 -62 37
-79 10 -45 9 -99 -2 -103 -16 -6 -43 51 -44 91 -2 66 -16 88 -57 88 -48 0 -91
-27 -98 -60 -7 -37 9 -91 35 -118 20 -22 20 -24 5 -98 -9 -42 -16 -91 -16
-110 l0 -34 58 0 c56 0 59 1 75 33 l16 32 0 -32 1 -33 175 0 c167 0 176 1 197
22 28 28 8 37 -28 13 -14 -9 -27 -15 -29 -13 -6 6 -45 181 -42 185 3 2 12 -11
20 -29 l17 -33 2 40 c1 22 1 58 0 80 l-2 40 15 -39 c19 -50 30 -60 21 -21 -6
28 -5 29 9 11 18 -23 17 -35 5 151 -6 100 -17 172 -35 240 -31 111 -55 153
-90 153 -14 0 -29 9 -35 20 -9 17 -21 20 -75 20 -64 0 -64 0 -55 -25z"/>
</g>
</svg>
