<?xml version="1.0" standalone="no"?>
<!DOCTYPE svg PUBLIC "-//W3C//DTD SVG 20010904//EN"
 "http://www.w3.org/TR/2001/REC-SVG-20010904/DTD/svg10.dtd">
<svg version="1.0" xmlns="http://www.w3.org/2000/svg"
 width="96.000000pt" height="84.000000pt" viewBox="0 0 96.000000 84.000000"
 preserveAspectRatio="xMidYMid meet">
<metadata>
Created by potrace 1.16, written by Peter Selinger 2001-2019
</metadata>
<g transform="translate(0.000000,84.000000) scale(0.100000,-0.100000)"
fill="#000000" stroke="none">
<path d="M318 768 c-11 -162 -135 -287 -272 -276 l-46 3 0 -247 0 -248 268 0
267 0 19 93 c45 224 50 295 18 281 -9 -4 -34 -9 -55 -12 -27 -3 -41 -10 -46
-24 -7 -18 -8 -19 -21 -3 -13 15 -12 20 9 36 13 11 33 19 45 19 27 0 40 10 44
35 2 11 10 24 18 28 8 4 14 13 14 19 0 6 8 20 17 30 11 13 14 22 7 26 -21 13
-38 58 -40 105 -2 53 2 55 63 28 48 -22 55 -34 72 -116 8 -33 18 -76 24 -95 6
-19 12 -93 12 -165 1 -118 4 -137 31 -207 l29 -78 83 0 82 0 0 420 0 420 -319
0 -318 0 -5 -72z"/>
<path d="M671 334 c0 -11 3 -14 6 -6 3 7 2 16 -1 19 -3 4 -6 -2 -5 -13z"/>
</g>
</svg>
