<?xml version="1.0" standalone="no"?>
<!DOCTYPE svg PUBLIC "-//W3C//DTD SVG 20010904//EN"
 "http://www.w3.org/TR/2001/REC-SVG-20010904/DTD/svg10.dtd">
<svg version="1.0" xmlns="http://www.w3.org/2000/svg"
 width="96.000000pt" height="84.000000pt" viewBox="0 0 96.000000 84.000000"
 preserveAspectRatio="xMidYMid meet">
<metadata>
Created by potrace 1.16, written by Peter Selinger 2001-2019
</metadata>
<g transform="translate(0.000000,84.000000) scale(0.100000,-0.100000)"
fill="#000000" stroke="none">
<path d="M318 768 c-11 -162 -135 -287 -272 -276 l-46 3 0 -247 0 -248 270 0
270 0 0 33 c0 17 9 66 20 107 28 108 37 232 17 248 -20 17 -167 26 -167 10 0
-9 -3 -9 -11 -1 -7 7 -9 19 -5 29 5 14 16 16 61 11 46 -5 55 -3 60 12 3 9 23
25 45 35 42 18 50 35 25 56 -8 7 -13 16 -10 20 3 5 1 11 -4 14 -11 7 -10 106
1 106 15 0 84 -38 96 -53 7 -8 17 -39 22 -69 6 -30 19 -85 30 -123 21 -74 27
-203 10 -234 -7 -13 1 -42 28 -109 l36 -92 83 0 83 0 0 420 0 420 -319 0 -318
0 -5 -72z"/>
<path d="M660 350 c0 -8 5 -22 10 -30 9 -13 10 -13 10 0 0 8 -5 22 -10 30 -9
13 -10 13 -10 0z"/>
</g>
</svg>
