<?xml version="1.0" standalone="no"?>
<!DOCTYPE svg PUBLIC "-//W3C//DTD SVG 20010904//EN"
 "http://www.w3.org/TR/2001/REC-SVG-20010904/DTD/svg10.dtd">
<svg version="1.0" xmlns="http://www.w3.org/2000/svg"
 width="96.000000pt" height="84.000000pt" viewBox="0 0 96.000000 84.000000"
 preserveAspectRatio="xMidYMid meet">
<metadata>
Created by potrace 1.16, written by Peter Selinger 2001-2019
</metadata>
<g transform="translate(0.000000,84.000000) scale(0.100000,-0.100000)"
fill="#000000" stroke="none">
<path d="M318 768 c-11 -162 -135 -287 -272 -276 l-46 3 0 -247 0 -248 265 0
264 0 7 38 c3 20 14 70 25 110 10 40 21 107 25 149 6 66 5 78 -11 89 -11 8
-16 21 -12 34 5 20 -7 28 -18 10 -3 -6 -15 -6 -29 0 -13 5 -26 7 -29 4 -2 -3
-27 4 -55 15 -29 11 -59 18 -68 14 -12 -4 -15 -1 -12 13 4 21 18 22 90 3 42
-11 50 -10 66 4 10 10 33 17 50 17 31 0 45 21 23 34 -10 6 -25 66 -21 81 2 6
2 22 1 38 -2 33 11 34 64 4 41 -23 44 -29 66 -127 6 -30 15 -59 19 -65 27 -40
43 -248 20 -271 -8 -8 -2 -34 20 -88 16 -42 30 -83 30 -91 0 -12 17 -15 90
-15 l90 0 0 420 0 420 -319 0 -318 0 -5 -72z"/>
</g>
</svg>
