<?xml version="1.0" standalone="no"?>
<!DOCTYPE svg PUBLIC "-//W3C//DTD SVG 20010904//EN"
 "http://www.w3.org/TR/2001/REC-SVG-20010904/DTD/svg10.dtd">
<svg version="1.0" xmlns="http://www.w3.org/2000/svg"
 width="96.000000pt" height="84.000000pt" viewBox="0 0 96.000000 84.000000"
 preserveAspectRatio="xMidYMid meet">
<metadata>
Created by potrace 1.16, written by Peter Selinger 2001-2019
</metadata>
<g transform="translate(0.000000,84.000000) scale(0.100000,-0.100000)"
fill="#000000" stroke="none">
<path d="M320 785 c0 -161 -132 -303 -271 -293 l-49 3 0 -247 0 -248 264 0
264 0 7 42 c4 24 15 75 25 113 10 39 21 101 25 138 6 57 5 71 -10 87 -11 12
-16 29 -13 45 4 17 1 25 -6 22 -41 -17 -46 -18 -46 -8 0 6 -9 11 -20 11 -11 0
-46 10 -78 23 -31 13 -63 22 -70 19 -18 -6 -15 18 4 25 8 3 25 1 37 -5 46 -23
93 -30 111 -17 10 8 32 11 57 8 41 -6 47 2 30 35 -19 34 -25 58 -25 100 -1 41
0 43 23 37 35 -9 81 -44 90 -69 5 -11 11 -47 15 -78 4 -32 13 -61 20 -65 7 -5
16 -24 20 -43 12 -60 15 -214 6 -226 -7 -7 1 -43 23 -102 l32 -92 88 0 87 0 0
420 0 420 -320 0 -320 0 0 -55z"/>
</g>
</svg>
