<?xml version="1.0" standalone="no"?>
<!DOCTYPE svg PUBLIC "-//W3C//DTD SVG 20010904//EN"
 "http://www.w3.org/TR/2001/REC-SVG-20010904/DTD/svg10.dtd">
<svg version="1.0" xmlns="http://www.w3.org/2000/svg"
 width="96.000000pt" height="84.000000pt" viewBox="0 0 96.000000 84.000000"
 preserveAspectRatio="xMidYMid meet">
<metadata>
Created by potrace 1.16, written by Peter Selinger 2001-2019
</metadata>
<g transform="translate(0.000000,84.000000) scale(0.100000,-0.100000)"
fill="#000000" stroke="none">
<path d="M320 785 c0 -161 -132 -303 -271 -293 l-49 3 0 -247 0 -248 265 0
c249 0 265 1 265 18 0 10 9 52 19 93 11 41 25 109 31 151 10 67 9 82 -6 113
-9 19 -14 44 -11 55 6 23 -12 27 -32 8 -11 -10 -14 -10 -18 0 -3 6 -13 12 -24
12 -11 0 -45 11 -77 24 -31 12 -66 26 -77 30 -18 7 -19 8 -3 17 12 7 26 5 45
-5 52 -26 98 -35 117 -21 10 8 32 11 57 8 31 -5 39 -2 39 10 0 8 -5 17 -11 19
-5 2 -12 12 -14 23 -2 11 -5 22 -6 25 -6 14 -3 100 4 100 14 0 83 -38 93 -52
6 -7 16 -44 23 -83 7 -38 19 -77 27 -86 20 -22 41 -244 24 -264 -9 -10 -4 -34
22 -104 l33 -91 88 0 87 0 0 420 0 420 -320 0 -320 0 0 -55z"/>
<path d="M692 335 c0 -16 2 -22 5 -12 2 9 2 23 0 30 -3 6 -5 -1 -5 -18z"/>
</g>
</svg>
