<?xml version="1.0" standalone="no"?>
<!DOCTYPE svg PUBLIC "-//W3C//DTD SVG 20010904//EN"
 "http://www.w3.org/TR/2001/REC-SVG-20010904/DTD/svg10.dtd">
<svg version="1.0" xmlns="http://www.w3.org/2000/svg"
 width="96.000000pt" height="84.000000pt" viewBox="0 0 96.000000 84.000000"
 preserveAspectRatio="xMidYMid meet">
<metadata>
Created by potrace 1.16, written by Peter Selinger 2001-2019
</metadata>
<g transform="translate(0.000000,84.000000) scale(0.100000,-0.100000)"
fill="#000000" stroke="none">
<path d="M320 785 c0 -161 -132 -303 -271 -293 l-49 3 0 -247 0 -248 263 0
262 0 12 58 c6 31 19 91 28 132 24 104 24 174 1 198 -14 16 -15 24 -6 41 12
23 -2 29 -29 12 -8 -5 -21 -5 -30 -1 -9 4 -52 22 -96 38 -44 17 -81 35 -83 41
-5 16 24 14 57 -4 40 -20 107 -30 115 -16 5 7 22 9 45 5 38 -6 66 10 43 25 -6
3 -15 18 -20 32 -12 32 -12 119 0 119 19 0 88 -41 96 -58 5 -9 13 -44 17 -77
4 -36 14 -68 25 -80 25 -27 48 -236 30 -269 -9 -18 -6 -35 19 -98 17 -42 31
-81 31 -87 0 -7 32 -11 90 -11 l90 0 0 420 0 420 -320 0 -320 0 0 -55z"/>
<path d="M689 351 c-3 -18 -3 -48 0 -65 10 -45 17 -10 11 49 -5 47 -6 48 -11
16z"/>
</g>
</svg>
