<?xml version="1.0" standalone="no"?>
<!DOCTYPE svg PUBLIC "-//W3C//DTD SVG 20010904//EN"
 "http://www.w3.org/TR/2001/REC-SVG-20010904/DTD/svg10.dtd">
<svg version="1.0" xmlns="http://www.w3.org/2000/svg"
 width="96.000000pt" height="84.000000pt" viewBox="0 0 96.000000 84.000000"
 preserveAspectRatio="xMidYMid meet">
<metadata>
Created by potrace 1.16, written by Peter Selinger 2001-2019
</metadata>
<g transform="translate(0.000000,84.000000) scale(0.100000,-0.100000)"
fill="#000000" stroke="none">
<path d="M320 785 c0 -161 -132 -303 -271 -293 l-49 3 0 -247 0 -248 265 0
265 0 0 23 c0 12 7 50 16 82 23 90 43 221 37 247 -3 13 -12 30 -19 38 -7 9
-11 25 -8 36 5 18 1 21 -28 21 -18 0 -49 5 -68 10 -50 15 -140 57 -140 66 0
11 16 9 82 -14 49 -16 67 -18 86 -9 13 6 39 8 58 4 26 -5 34 -3 34 8 0 8 -3
18 -7 22 -14 14 -30 75 -22 88 5 7 6 23 2 35 -7 29 5 29 57 2 49 -26 55 -37
64 -114 4 -33 14 -67 23 -78 20 -22 21 -24 34 -155 8 -78 7 -107 -2 -118 -9
-11 -4 -33 22 -104 l34 -90 88 0 87 0 0 420 0 420 -320 0 -320 0 0 -55z"/>
<path d="M686 340 c-4 -19 -3 -46 2 -59 13 -35 18 -14 12 44 l-6 50 -8 -35z"/>
</g>
</svg>
