<?xml version="1.0" standalone="no"?>
<!DOCTYPE svg PUBLIC "-//W3C//DTD SVG 20010904//EN"
 "http://www.w3.org/TR/2001/REC-SVG-20010904/DTD/svg10.dtd">
<svg version="1.0" xmlns="http://www.w3.org/2000/svg"
 width="96.000000pt" height="84.000000pt" viewBox="0 0 96.000000 84.000000"
 preserveAspectRatio="xMidYMid meet">
<metadata>
Created by potrace 1.16, written by Peter Selinger 2001-2019
</metadata>
<g transform="translate(0.000000,84.000000) scale(0.100000,-0.100000)"
fill="#000000" stroke="none">
<path d="M320 785 c0 -161 -132 -303 -271 -293 l-49 3 0 -247 0 -248 265 0
265 0 0 26 c0 14 7 54 16 88 24 90 42 215 36 240 -3 11 -12 27 -20 35 -8 9
-11 23 -7 39 5 22 3 24 -16 19 -39 -10 -240 66 -222 84 6 6 28 1 57 -12 26
-11 62 -20 79 -19 18 0 53 1 80 1 48 0 54 6 38 37 -27 54 -33 71 -25 84 5 7 7
23 5 36 -1 12 3 22 9 22 24 0 90 -46 99 -70 5 -14 13 -47 16 -75 4 -27 13 -57
20 -65 14 -17 22 -52 35 -163 5 -43 12 -82 15 -86 2 -5 -2 -14 -10 -21 -20
-17 -20 -21 17 -116 l31 -84 89 0 88 0 0 420 0 420 -320 0 -320 0 0 -55z"/>
<path d="M689 336 c-7 -29 3 -88 12 -71 3 6 2 30 -1 55 -5 41 -6 42 -11 16z"/>
</g>
</svg>
