<?xml version="1.0" standalone="no"?>
<!DOCTYPE svg PUBLIC "-//W3C//DTD SVG 20010904//EN"
 "http://www.w3.org/TR/2001/REC-SVG-20010904/DTD/svg10.dtd">
<svg version="1.0" xmlns="http://www.w3.org/2000/svg"
 width="96.000000pt" height="84.000000pt" viewBox="0 0 96.000000 84.000000"
 preserveAspectRatio="xMidYMid meet">
<metadata>
Created by potrace 1.16, written by Peter Selinger 2001-2019
</metadata>
<g transform="translate(0.000000,84.000000) scale(0.100000,-0.100000)"
fill="#000000" stroke="none">
<path d="M320 785 c0 -161 -132 -303 -271 -293 l-49 3 0 -247 0 -248 265 0
265 0 0 33 c0 17 8 62 19 98 20 71 36 180 32 218 -2 13 -10 31 -18 39 -9 9
-12 24 -8 40 5 22 3 24 -18 18 -34 -8 -227 64 -227 85 0 12 8 10 79 -16 25 -9
56 -16 70 -15 14 1 47 1 74 1 26 0 47 4 47 8 0 4 -8 23 -17 42 -19 35 -25 129
-9 129 5 0 28 -10 52 -22 47 -23 57 -42 69 -133 4 -27 13 -57 20 -65 16 -19
24 -54 35 -153 5 -43 12 -82 15 -87 3 -5 -3 -15 -13 -22 -18 -12 -18 -17 16
-105 l35 -93 89 0 88 0 0 420 0 420 -320 0 -320 0 0 -55z"/>
<path d="M690 300 c0 -29 3 -50 7 -46 7 7 5 87 -3 95 -2 2 -4 -20 -4 -49z"/>
</g>
</svg>
