<?xml version="1.0" standalone="no"?>
<!DOCTYPE svg PUBLIC "-//W3C//DTD SVG 20010904//EN"
 "http://www.w3.org/TR/2001/REC-SVG-20010904/DTD/svg10.dtd">
<svg version="1.0" xmlns="http://www.w3.org/2000/svg"
 width="96.000000pt" height="84.000000pt" viewBox="0 0 96.000000 84.000000"
 preserveAspectRatio="xMidYMid meet">
<metadata>
Created by potrace 1.16, written by Peter Selinger 2001-2019
</metadata>
<g transform="translate(0.000000,84.000000) scale(0.100000,-0.100000)"
fill="#000000" stroke="none">
<path d="M590 826 c0 -8 5 -18 10 -21 15 -9 2 -25 -20 -25 -28 0 -90 -59 -111
-105 -29 -62 -25 -111 11 -147 22 -22 28 -34 21 -46 -8 -14 1 -44 19 -62 34
-34 61 -178 34 -187 -16 -5 -54 75 -54 116 0 20 -6 44 -12 53 -16 19 -70 28
-85 14 -6 -6 -20 -19 -32 -28 -34 -28 -24 -106 19 -153 17 -19 17 -25 4 -85
-7 -36 -14 -84 -14 -107 l0 -43 58 0 c56 0 58 1 72 33 l13 32 4 -32 4 -33 172
1 c180 0 209 5 213 32 3 21 -14 21 -40 2 -11 -8 -23 -15 -27 -15 -4 0 -15 35
-24 78 -9 42 -19 86 -21 97 -4 14 1 10 15 -10 l21 -30 1 35 c1 19 1 53 0 75
l-1 40 14 -38 c19 -52 30 -60 22 -17 -7 35 -7 35 8 10 14 -23 15 -17 10 75 -7
142 -22 243 -48 335 -29 99 -47 126 -86 135 -17 4 -34 13 -37 21 -8 20 -133
20 -133 0z"/>
</g>
</svg>
