<?xml version="1.0" standalone="no"?>
<!DOCTYPE svg PUBLIC "-//W3C//DTD SVG 20010904//EN"
 "http://www.w3.org/TR/2001/REC-SVG-20010904/DTD/svg10.dtd">
<svg version="1.0" xmlns="http://www.w3.org/2000/svg"
 width="96.000000pt" height="84.000000pt" viewBox="0 0 96.000000 84.000000"
 preserveAspectRatio="xMidYMid meet">
<metadata>
Created by potrace 1.16, written by Peter Selinger 2001-2019
</metadata>
<g transform="translate(0.000000,84.000000) scale(0.100000,-0.100000)"
fill="#000000" stroke="none">
<path d="M320 785 c0 -161 -132 -303 -271 -293 l-49 3 0 -247 0 -248 260 0
260 0 5 27 c4 16 15 66 26 112 12 46 23 117 26 158 5 63 3 75 -12 87 -13 10
-16 20 -11 41 6 25 5 27 -16 22 -33 -9 -228 63 -228 84 0 12 8 10 80 -16 24
-9 58 -16 75 -15 16 1 49 2 73 1 47 0 49 3 25 50 -18 34 -25 129 -10 129 14 0
83 -38 96 -53 7 -9 17 -46 23 -84 5 -37 16 -75 23 -83 14 -16 21 -48 35 -154
5 -38 11 -75 14 -82 3 -8 -3 -19 -13 -27 -18 -12 -18 -15 9 -87 15 -41 30 -83
34 -92 5 -15 19 -18 96 -18 l90 0 0 420 0 420 -320 0 -320 0 0 -55z"/>
<path d="M690 295 c0 -27 3 -45 7 -41 7 7 5 77 -2 85 -3 2 -5 -17 -5 -44z"/>
</g>
</svg>
