<?xml version="1.0" standalone="no"?>
<!DOCTYPE svg PUBLIC "-//W3C//DTD SVG 20010904//EN"
 "http://www.w3.org/TR/2001/REC-SVG-20010904/DTD/svg10.dtd">
<svg version="1.0" xmlns="http://www.w3.org/2000/svg"
 width="96.000000pt" height="84.000000pt" viewBox="0 0 96.000000 84.000000"
 preserveAspectRatio="xMidYMid meet">
<metadata>
Created by potrace 1.16, written by Peter Selinger 2001-2019
</metadata>
<g transform="translate(0.000000,84.000000) scale(0.100000,-0.100000)"
fill="#000000" stroke="none">
<path d="M320 785 c0 -161 -132 -303 -271 -293 l-49 3 0 -247 0 -248 260 0
259 0 7 38 c3 20 15 68 25 107 10 38 22 104 25 147 6 69 5 80 -11 92 -13 10
-16 20 -11 41 6 25 5 27 -15 22 -36 -10 -229 61 -229 83 0 13 2 13 60 -10 28
-11 65 -20 83 -19 18 0 53 0 80 0 26 0 47 4 47 8 0 4 -8 23 -17 42 -18 34 -25
129 -10 129 14 0 83 -38 96 -53 7 -9 17 -46 23 -84 6 -37 16 -75 23 -83 27
-34 52 -277 28 -272 -16 3 -18 12 21 -93 l35 -90 90 -3 91 -3 0 421 0 420
-320 0 -320 0 0 -55z"/>
<path d="M686 305 c4 -27 8 -52 10 -54 9 -10 3 76 -7 89 -7 11 -8 1 -3 -35z"/>
</g>
</svg>
