<?xml version="1.0" standalone="no"?>
<!DOCTYPE svg PUBLIC "-//W3C//DTD SVG 20010904//EN"
 "http://www.w3.org/TR/2001/REC-SVG-20010904/DTD/svg10.dtd">
<svg version="1.0" xmlns="http://www.w3.org/2000/svg"
 width="96.000000pt" height="84.000000pt" viewBox="0 0 96.000000 84.000000"
 preserveAspectRatio="xMidYMid meet">
<metadata>
Created by potrace 1.16, written by Peter Selinger 2001-2019
</metadata>
<g transform="translate(0.000000,84.000000) scale(0.100000,-0.100000)"
fill="#000000" stroke="none">
<path d="M320 785 c0 -161 -132 -303 -271 -293 l-49 3 0 -247 0 -248 260 0
259 0 7 38 c3 20 15 68 25 107 10 38 22 104 25 147 6 69 5 80 -11 92 -13 9
-16 20 -11 40 6 24 4 27 -13 21 -22 -7 -135 27 -196 58 -30 16 -35 22 -22 25
10 2 33 -4 52 -12 19 -9 51 -16 72 -16 21 0 59 0 86 0 52 0 55 5 29 52 -19 34
-26 128 -10 128 15 0 84 -38 97 -53 7 -9 17 -46 23 -84 6 -37 16 -75 23 -83
12 -16 29 -102 41 -207 5 -50 4 -64 -8 -68 -12 -5 -9 -21 18 -93 l33 -87 90
-3 91 -3 0 421 0 420 -320 0 -320 0 0 -55z"/>
<path d="M681 330 c1 -14 5 -38 9 -55 7 -29 8 -29 9 10 0 22 -4 47 -9 55 -8
12 -9 10 -9 -10z"/>
</g>
</svg>
