<?xml version="1.0" standalone="no"?>
<!DOCTYPE svg PUBLIC "-//W3C//DTD SVG 20010904//EN"
 "http://www.w3.org/TR/2001/REC-SVG-20010904/DTD/svg10.dtd">
<svg version="1.0" xmlns="http://www.w3.org/2000/svg"
 width="96.000000pt" height="84.000000pt" viewBox="0 0 96.000000 84.000000"
 preserveAspectRatio="xMidYMid meet">
<metadata>
Created by potrace 1.16, written by Peter Selinger 2001-2019
</metadata>
<g transform="translate(0.000000,84.000000) scale(0.100000,-0.100000)"
fill="#000000" stroke="none">
<path d="M320 785 c0 -161 -132 -303 -271 -293 l-49 3 0 -247 0 -248 259 0
258 0 27 114 c37 156 44 249 22 272 -11 10 -15 25 -12 39 5 19 1 22 -27 22
-53 1 -204 51 -211 71 -7 16 19 15 54 -3 15 -8 50 -15 77 -15 151 -1 146 -3
115 52 -19 33 -26 128 -11 128 5 0 29 -10 53 -22 50 -24 61 -44 71 -128 4 -30
13 -62 20 -70 11 -14 27 -92 40 -206 4 -32 2 -59 -5 -70 -9 -15 -5 -35 18 -99
l30 -80 91 -3 91 -3 0 421 0 420 -320 0 -320 0 0 -55z"/>
<path d="M686 298 c9 -57 14 -61 14 -10 0 22 -5 44 -10 47 -7 4 -8 -8 -4 -37z"/>
</g>
</svg>
