<?xml version="1.0" standalone="no"?>
<!DOCTYPE svg PUBLIC "-//W3C//DTD SVG 20010904//EN"
 "http://www.w3.org/TR/2001/REC-SVG-20010904/DTD/svg10.dtd">
<svg version="1.0" xmlns="http://www.w3.org/2000/svg"
 width="96.000000pt" height="84.000000pt" viewBox="0 0 96.000000 84.000000"
 preserveAspectRatio="xMidYMid meet">
<metadata>
Created by potrace 1.16, written by Peter Selinger 2001-2019
</metadata>
<g transform="translate(0.000000,84.000000) scale(0.100000,-0.100000)"
fill="#000000" stroke="none">
<path d="M320 785 c0 -161 -132 -303 -271 -293 l-49 3 0 -247 0 -248 260 0
260 0 5 27 c4 16 15 64 25 108 37 160 41 226 14 256 -10 11 -13 25 -9 38 7 23
-1 26 -25 11 -9 -5 -19 -5 -26 1 -6 5 -36 16 -65 24 -83 21 -133 45 -122 56 7
7 22 5 46 -5 51 -21 123 -30 131 -17 5 7 22 9 47 5 44 -7 47 -2 22 47 -17 33
-26 129 -12 129 3 0 28 -9 53 -21 52 -23 61 -37 71 -125 4 -32 13 -66 20 -74
11 -14 27 -92 40 -206 4 -32 2 -59 -5 -70 -9 -15 -5 -35 18 -99 l30 -80 91 -3
91 -3 0 421 0 420 -320 0 -320 0 0 -55z"/>
<path d="M688 323 c-2 -5 -1 -24 3 -43 l6 -35 2 43 c1 39 -3 52 -11 35z"/>
</g>
</svg>
