<?xml version="1.0" standalone="no"?>
<!DOCTYPE svg PUBLIC "-//W3C//DTD SVG 20010904//EN"
 "http://www.w3.org/TR/2001/REC-SVG-20010904/DTD/svg10.dtd">
<svg version="1.0" xmlns="http://www.w3.org/2000/svg"
 width="96.000000pt" height="84.000000pt" viewBox="0 0 96.000000 84.000000"
 preserveAspectRatio="xMidYMid meet">
<metadata>
Created by potrace 1.16, written by Peter Selinger 2001-2019
</metadata>
<g transform="translate(0.000000,84.000000) scale(0.100000,-0.100000)"
fill="#000000" stroke="none">
<path d="M320 785 c0 -161 -132 -303 -271 -293 l-49 3 0 -247 0 -248 260 0
260 0 5 27 c3 16 13 55 21 88 24 97 42 216 36 239 -2 11 -11 29 -19 38 -9 10
-12 25 -8 37 7 23 2 26 -25 11 -13 -7 -21 -6 -30 5 -7 8 -21 15 -32 15 -34 0
-132 31 -148 47 -17 17 -8 16 98 -8 38 -9 59 -9 76 -1 13 6 33 8 45 5 11 -3
27 -3 36 1 13 4 12 11 -7 41 -21 36 -32 135 -15 135 4 0 28 -9 53 -20 49 -23
56 -35 74 -125 7 -33 16 -69 20 -80 23 -55 42 -242 29 -268 -9 -15 -6 -34 14
-86 14 -36 27 -74 31 -83 5 -15 19 -18 96 -18 l90 0 0 420 0 420 -320 0 -320
0 0 -55z"/>
<path d="M692 290 c0 -19 2 -27 5 -17 2 9 2 25 0 35 -3 9 -5 1 -5 -18z"/>
</g>
</svg>
