<?xml version="1.0" standalone="no"?>
<!DOCTYPE svg PUBLIC "-//W3C//DTD SVG 20010904//EN"
 "http://www.w3.org/TR/2001/REC-SVG-20010904/DTD/svg10.dtd">
<svg version="1.0" xmlns="http://www.w3.org/2000/svg"
 width="96.000000pt" height="84.000000pt" viewBox="0 0 96.000000 84.000000"
 preserveAspectRatio="xMidYMid meet">
<metadata>
Created by potrace 1.16, written by Peter Selinger 2001-2019
</metadata>
<g transform="translate(0.000000,84.000000) scale(0.100000,-0.100000)"
fill="#000000" stroke="none">
<path d="M320 785 c0 -161 -132 -303 -271 -293 l-49 3 0 -247 0 -248 260 0
260 0 5 27 c3 16 13 55 21 88 26 99 43 211 37 236 -3 13 -12 31 -19 39 -7 9
-11 26 -7 38 5 20 3 22 -18 13 -17 -6 -28 -5 -37 5 -7 8 -25 14 -41 14 -15 0
-50 7 -77 16 -27 9 -55 18 -63 20 -10 3 -11 8 -4 15 6 6 31 4 73 -7 35 -9 74
-13 89 -9 14 4 45 6 69 5 47 -1 48 1 26 35 -9 14 -13 25 -10 25 4 0 0 10 -8
23 -10 14 -12 27 -6 37 5 8 5 22 -2 33 -15 28 -3 32 46 13 53 -21 72 -41 79
-86 13 -80 19 -106 27 -125 24 -58 41 -233 26 -267 -5 -11 2 -46 19 -90 15
-40 28 -79 31 -85 2 -9 30 -13 94 -13 l90 0 0 420 0 420 -320 0 -320 0 0 -55z"/>
</g>
</svg>
