<?xml version="1.0" standalone="no"?>
<!DOCTYPE svg PUBLIC "-//W3C//DTD SVG 20010904//EN"
 "http://www.w3.org/TR/2001/REC-SVG-20010904/DTD/svg10.dtd">
<svg version="1.0" xmlns="http://www.w3.org/2000/svg"
 width="96.000000pt" height="84.000000pt" viewBox="0 0 96.000000 84.000000"
 preserveAspectRatio="xMidYMid meet">
<metadata>
Created by potrace 1.16, written by Peter Selinger 2001-2019
</metadata>
<g transform="translate(0.000000,84.000000) scale(0.100000,-0.100000)"
fill="#000000" stroke="none">
<path d="M320 785 c0 -161 -132 -303 -271 -293 l-49 3 0 -248 0 -247 262 2
261 3 13 60 c7 33 20 94 29 135 21 93 23 163 6 184 -7 9 -11 27 -9 41 6 28 5
29 -24 14 -12 -7 -23 -7 -27 -2 -3 5 -46 18 -95 29 -51 12 -92 26 -94 34 -4
10 4 11 39 4 24 -4 67 -7 94 -7 28 1 69 2 93 2 48 0 50 6 21 57 -11 21 -18 46
-15 57 3 11 1 28 -5 38 -6 11 -6 20 1 24 12 7 91 -27 106 -46 14 -18 34 -98
34 -136 0 -16 4 -33 8 -38 22 -25 42 -231 27 -267 -4 -10 3 -45 18 -85 14 -38
28 -76 31 -85 5 -15 18 -18 96 -18 l90 0 0 420 0 420 -320 0 -320 0 0 -55z"/>
</g>
</svg>
