<?xml version="1.0" standalone="no"?>
<!DOCTYPE svg PUBLIC "-//W3C//DTD SVG 20010904//EN"
 "http://www.w3.org/TR/2001/REC-SVG-20010904/DTD/svg10.dtd">
<svg version="1.0" xmlns="http://www.w3.org/2000/svg"
 width="96.000000pt" height="84.000000pt" viewBox="0 0 96.000000 84.000000"
 preserveAspectRatio="xMidYMid meet">
<metadata>
Created by potrace 1.16, written by Peter Selinger 2001-2019
</metadata>
<g transform="translate(0.000000,84.000000) scale(0.100000,-0.100000)"
fill="#000000" stroke="none">
<path d="M320 785 c0 -161 -132 -303 -271 -293 l-49 3 0 -247 0 -248 260 0
c200 0 261 3 264 13 20 77 48 205 57 259 9 57 8 71 -6 102 -10 20 -15 45 -12
56 6 23 3 24 -25 9 -12 -6 -23 -7 -27 -2 -6 9 -122 35 -165 37 -10 1 -21 7
-24 14 -4 14 24 15 106 3 36 -5 58 -4 69 5 10 6 33 9 55 6 44 -5 47 2 18 52
-10 20 -19 48 -18 63 1 15 0 35 -3 43 -5 18 20 16 73 -7 42 -18 55 -44 64
-132 4 -31 10 -60 14 -66 14 -20 32 -162 27 -220 -3 -49 2 -77 26 -147 l30
-88 88 0 89 0 0 420 0 420 -320 0 -320 0 0 -55z"/>
</g>
</svg>
