<?xml version="1.0" standalone="no"?>
<!DOCTYPE svg PUBLIC "-//W3C//DTD SVG 20010904//EN"
 "http://www.w3.org/TR/2001/REC-SVG-20010904/DTD/svg10.dtd">
<svg version="1.0" xmlns="http://www.w3.org/2000/svg"
 width="96.000000pt" height="84.000000pt" viewBox="0 0 96.000000 84.000000"
 preserveAspectRatio="xMidYMid meet">
<metadata>
Created by potrace 1.16, written by Peter Selinger 2001-2019
</metadata>
<g transform="translate(0.000000,84.000000) scale(0.100000,-0.100000)"
fill="#000000" stroke="none">
<path d="M584 825 c3 -8 8 -21 12 -29 3 -9 -5 -15 -25 -19 -41 -8 -95 -66
-114 -120 -19 -56 -9 -113 26 -143 18 -15 22 -25 16 -37 -7 -11 -1 -29 20 -62
42 -67 64 -195 32 -195 -14 0 -51 78 -51 108 0 17 -4 42 -10 56 -19 50 -118
28 -141 -31 -13 -34 5 -95 35 -124 20 -19 22 -28 15 -48 -6 -13 -13 -60 -17
-103 l-8 -78 61 0 c59 0 61 1 75 33 l13 32 4 -32 4 -33 180 0 c166 0 180 1
199 20 38 38 22 53 -20 20 -39 -30 -48 -25 -60 38 -6 31 -15 72 -20 90 -10 37
1 43 18 10 10 -19 12 -11 9 49 -3 79 -2 80 24 25 l18 -37 -5 35 c-5 35 -5 35
10 10 14 -23 14 -19 10 55 -10 170 -26 276 -53 360 -31 92 -61 135 -97 135
-12 0 -24 7 -28 15 -4 11 -22 15 -72 15 -55 0 -65 -3 -60 -15z"/>
</g>
</svg>
