<?xml version="1.0" standalone="no"?>
<!DOCTYPE svg PUBLIC "-//W3C//DTD SVG 20010904//EN"
 "http://www.w3.org/TR/2001/REC-SVG-20010904/DTD/svg10.dtd">
<svg version="1.0" xmlns="http://www.w3.org/2000/svg"
 width="96.000000pt" height="84.000000pt" viewBox="0 0 96.000000 84.000000"
 preserveAspectRatio="xMidYMid meet">
<metadata>
Created by potrace 1.16, written by Peter Selinger 2001-2019
</metadata>
<g transform="translate(0.000000,84.000000) scale(0.100000,-0.100000)"
fill="#000000" stroke="none">
<path d="M320 785 c0 -161 -132 -303 -271 -293 l-49 3 0 -247 0 -248 265 0
c263 0 265 0 265 21 0 12 11 67 24 123 36 150 41 202 22 231 -9 13 -16 33 -16
44 0 13 -7 19 -22 19 -13 0 -54 7 -93 16 -38 9 -80 14 -92 11 -16 -4 -23 -1
-23 9 0 24 15 27 86 17 48 -7 73 -7 88 1 12 7 36 11 54 9 38 -3 39 5 11 55
-11 21 -18 46 -15 58 3 12 1 28 -4 36 -16 26 -1 29 53 11 51 -17 52 -19 74
-82 12 -35 21 -75 20 -89 -1 -14 1 -30 5 -35 10 -18 31 -222 25 -252 -4 -18 5
-58 25 -115 l31 -88 88 0 89 0 0 420 0 420 -320 0 -320 0 0 -55z"/>
</g>
</svg>
