<?xml version="1.0" standalone="no"?>
<!DOCTYPE svg PUBLIC "-//W3C//DTD SVG 20010904//EN"
 "http://www.w3.org/TR/2001/REC-SVG-20010904/DTD/svg10.dtd">
<svg version="1.0" xmlns="http://www.w3.org/2000/svg"
 width="96.000000pt" height="84.000000pt" viewBox="0 0 96.000000 84.000000"
 preserveAspectRatio="xMidYMid meet">
<metadata>
Created by potrace 1.16, written by Peter Selinger 2001-2019
</metadata>
<g transform="translate(0.000000,84.000000) scale(0.100000,-0.100000)"
fill="#000000" stroke="none">
<path d="M320 785 c0 -161 -132 -303 -271 -293 l-49 3 0 -247 0 -248 265 0
265 0 0 23 c0 12 9 54 19 92 11 39 25 107 32 153 12 76 11 87 -5 117 -10 18
-15 38 -12 44 4 6 -4 10 -21 10 -15 0 -63 6 -105 13 -47 9 -81 11 -87 5 -11
-11 -25 9 -15 24 4 7 32 9 84 4 52 -5 80 -3 84 4 4 6 25 11 46 11 38 0 60 13
40 25 -15 9 -40 67 -38 90 0 11 -3 28 -7 38 -9 21 10 22 67 5 42 -12 55 -31
77 -113 16 -61 31 -189 35 -300 3 -69 10 -114 24 -145 10 -25 22 -57 26 -72 6
-28 7 -28 96 -28 l90 0 0 420 0 420 -320 0 -320 0 0 -55z"/>
</g>
</svg>
