<?xml version="1.0" standalone="no"?>
<!DOCTYPE svg PUBLIC "-//W3C//DTD SVG 20010904//EN"
 "http://www.w3.org/TR/2001/REC-SVG-20010904/DTD/svg10.dtd">
<svg version="1.0" xmlns="http://www.w3.org/2000/svg"
 width="96.000000pt" height="84.000000pt" viewBox="0 0 96.000000 84.000000"
 preserveAspectRatio="xMidYMid meet">
<metadata>
Created by potrace 1.16, written by Peter Selinger 2001-2019
</metadata>
<g transform="translate(0.000000,84.000000) scale(0.100000,-0.100000)"
fill="#000000" stroke="none">
<path d="M320 785 c0 -161 -132 -303 -271 -293 l-49 3 0 -247 0 -248 265 0
c248 0 265 1 265 18 0 10 11 61 25 113 13 53 28 128 31 167 6 61 4 75 -11 92
-9 10 -15 26 -11 35 4 12 2 14 -13 6 -12 -7 -21 -7 -28 0 -5 5 -49 11 -97 12
-71 2 -86 5 -83 17 2 12 18 15 72 15 39 0 77 5 85 10 8 5 32 10 53 11 21 1 41
4 44 7 3 3 -7 21 -22 41 -15 19 -26 45 -24 58 1 13 -2 31 -6 41 -4 10 -5 20
-2 23 9 9 102 -18 114 -33 30 -38 63 -237 64 -388 1 -40 11 -91 32 -152 l32
-93 88 0 87 0 0 420 0 420 -320 0 -320 0 0 -55z"/>
</g>
</svg>
