<?xml version="1.0" standalone="no"?>
<!DOCTYPE svg PUBLIC "-//W3C//DTD SVG 20010904//EN"
 "http://www.w3.org/TR/2001/REC-SVG-20010904/DTD/svg10.dtd">
<svg version="1.0" xmlns="http://www.w3.org/2000/svg"
 width="96.000000pt" height="84.000000pt" viewBox="0 0 96.000000 84.000000"
 preserveAspectRatio="xMidYMid meet">
<metadata>
Created by potrace 1.16, written by Peter Selinger 2001-2019
</metadata>
<g transform="translate(0.000000,84.000000) scale(0.100000,-0.100000)"
fill="#000000" stroke="none">
<path d="M320 785 c0 -161 -132 -303 -271 -293 l-49 3 0 -247 0 -248 263 0
263 0 18 73 c50 200 63 317 35 317 -5 0 -9 9 -9 21 0 11 -4 18 -8 15 -4 -2
-45 0 -90 6 -59 7 -87 6 -96 -1 -10 -9 -15 -8 -19 3 -11 27 19 38 81 31 47 -5
61 -3 71 9 8 9 26 16 40 16 15 0 35 6 45 13 17 12 17 14 2 20 -9 4 -16 13 -16
21 0 7 -7 16 -15 20 -8 3 -15 18 -15 34 0 15 -5 33 -12 40 -19 19 -2 25 57 17
l57 -7 23 -52 c19 -44 25 -82 35 -227 9 -151 15 -187 43 -271 l32 -98 88 0 87
0 0 420 0 420 -320 0 -320 0 0 -55z"/>
</g>
</svg>
