<?xml version="1.0" standalone="no"?>
<!DOCTYPE svg PUBLIC "-//W3C//DTD SVG 20010904//EN"
 "http://www.w3.org/TR/2001/REC-SVG-20010904/DTD/svg10.dtd">
<svg version="1.0" xmlns="http://www.w3.org/2000/svg"
 width="96.000000pt" height="84.000000pt" viewBox="0 0 96.000000 84.000000"
 preserveAspectRatio="xMidYMid meet">
<metadata>
Created by potrace 1.16, written by Peter Selinger 2001-2019
</metadata>
<g transform="translate(0.000000,84.000000) scale(0.100000,-0.100000)"
fill="#000000" stroke="none">
<path d="M320 785 c0 -161 -132 -303 -271 -293 l-49 3 0 -247 0 -248 270 0
c250 0 270 1 270 18 0 9 14 64 31 122 35 118 44 235 20 249 -8 6 -24 5 -38 -2
-16 -7 -33 -7 -58 0 -29 9 -38 8 -51 -4 -19 -19 -32 -8 -17 15 7 12 24 17 58
17 40 0 50 4 58 23 6 12 13 22 17 22 3 0 20 11 38 23 l31 24 -28 29 c-15 16
-30 40 -33 54 -3 14 -9 33 -13 43 -6 15 -1 17 47 17 65 0 80 -12 107 -91 16
-44 19 -82 19 -205 -1 -145 1 -156 33 -253 l33 -101 83 0 83 0 0 420 0 420
-320 0 -320 0 0 -55z"/>
</g>
</svg>
