<?xml version="1.0" standalone="no"?>
<!DOCTYPE svg PUBLIC "-//W3C//DTD SVG 20010904//EN"
 "http://www.w3.org/TR/2001/REC-SVG-20010904/DTD/svg10.dtd">
<svg version="1.0" xmlns="http://www.w3.org/2000/svg"
 width="96.000000pt" height="84.000000pt" viewBox="0 0 96.000000 84.000000"
 preserveAspectRatio="xMidYMid meet">
<metadata>
Created by potrace 1.16, written by Peter Selinger 2001-2019
</metadata>
<g transform="translate(0.000000,84.000000) scale(0.100000,-0.100000)"
fill="#000000" stroke="none">
<path d="M318 768 c-11 -162 -135 -287 -272 -276 l-46 3 0 -247 0 -248 268 0
268 0 23 73 c58 184 73 272 52 305 -6 10 -10 10 -21 -3 -9 -11 -22 -14 -41
-10 -21 5 -28 2 -32 -12 -4 -17 -4 -17 -12 0 -12 28 2 47 35 47 16 0 31 5 31
10 1 6 2 14 3 19 0 5 16 25 34 45 31 35 32 37 16 61 -9 14 -21 25 -26 25 -6 0
-8 10 -5 22 3 12 1 30 -4 41 -16 30 1 39 57 30 48 -8 49 -10 66 -58 9 -28 17
-75 18 -106 0 -31 3 -59 6 -62 9 -9 9 -76 -1 -110 -8 -31 13 -152 44 -252 l19
-60 81 -3 81 -3 0 421 0 420 -319 0 -318 0 -5 -72z"/>
</g>
</svg>
