<?xml version="1.0" standalone="no"?>
<!DOCTYPE svg PUBLIC "-//W3C//DTD SVG 20010904//EN"
 "http://www.w3.org/TR/2001/REC-SVG-20010904/DTD/svg10.dtd">
<svg version="1.0" xmlns="http://www.w3.org/2000/svg"
 width="96.000000pt" height="84.000000pt" viewBox="0 0 96.000000 84.000000"
 preserveAspectRatio="xMidYMid meet">
<metadata>
Created by potrace 1.16, written by Peter Selinger 2001-2019
</metadata>
<g transform="translate(0.000000,84.000000) scale(0.100000,-0.100000)"
fill="#000000" stroke="none">
<path d="M318 768 c-11 -162 -135 -287 -272 -276 l-46 3 0 -247 0 -248 274 0
274 0 6 35 c4 19 16 56 28 82 37 82 68 205 57 223 -9 13 -10 12 -5 -2 7 -24
-16 -23 -37 0 -22 24 -6 82 36 135 23 29 27 41 17 47 -8 5 -13 31 -14 71 l-1
64 47 -1 c50 0 84 -19 69 -38 -18 -21 -16 -129 2 -163 21 -39 22 -116 3 -136
-12 -12 -12 -21 -1 -58 7 -24 18 -75 24 -114 6 -38 15 -87 21 -107 l11 -38 74
0 75 0 0 420 0 420 -319 0 -318 0 -5 -72z"/>
</g>
</svg>
