<?xml version="1.0" standalone="no"?>
<!DOCTYPE svg PUBLIC "-//W3C//DTD SVG 20010904//EN"
 "http://www.w3.org/TR/2001/REC-SVG-20010904/DTD/svg10.dtd">
<svg version="1.0" xmlns="http://www.w3.org/2000/svg"
 width="96.000000pt" height="84.000000pt" viewBox="0 0 96.000000 84.000000"
 preserveAspectRatio="xMidYMid meet">
<metadata>
Created by potrace 1.16, written by Peter Selinger 2001-2019
</metadata>
<g transform="translate(0.000000,84.000000) scale(0.100000,-0.100000)"
fill="#000000" stroke="none">
<path d="M570 828 c0 -7 4 -19 9 -27 7 -11 1 -19 -27 -32 -51 -23 -82 -59
-102 -121 -20 -63 -13 -102 25 -135 18 -16 24 -29 20 -45 -4 -16 2 -32 20 -52
14 -17 27 -39 30 -50 25 -122 26 -130 11 -144 -12 -12 -17 -8 -40 30 -14 25
-26 60 -26 79 0 48 -26 82 -56 75 -13 -4 -24 -2 -24 3 0 5 -16 -5 -35 -22 -27
-23 -35 -38 -35 -64 0 -41 23 -98 44 -110 12 -7 14 -16 7 -43 -5 -19 -12 -65
-15 -102 l-5 -68 62 0 c61 0 63 1 77 33 l13 32 4 -32 4 -33 177 0 c183 1 214
7 220 43 4 22 -3 22 -38 -5 -39 -29 -48 -19 -66 73 -17 91 -17 101 1 69 14
-23 14 -19 11 55 l-4 80 23 -50 c26 -56 30 -57 15 -5 l-10 35 21 -25 c17 -21
20 -22 15 -5 -2 11 -7 70 -11 130 -8 128 -24 213 -59 310 -27 74 -54 105 -91
105 -13 0 -25 7 -29 15 -7 20 -136 22 -136 3z"/>
</g>
</svg>
