<?xml version="1.0" standalone="no"?>
<!DOCTYPE svg PUBLIC "-//W3C//DTD SVG 20010904//EN"
 "http://www.w3.org/TR/2001/REC-SVG-20010904/DTD/svg10.dtd">
<svg version="1.0" xmlns="http://www.w3.org/2000/svg"
 width="96.000000pt" height="84.000000pt" viewBox="0 0 96.000000 84.000000"
 preserveAspectRatio="xMidYMid meet">
<metadata>
Created by potrace 1.16, written by Peter Selinger 2001-2019
</metadata>
<g transform="translate(0.000000,84.000000) scale(0.100000,-0.100000)"
fill="#000000" stroke="none">
<path d="M319 767 c-9 -165 -131 -287 -276 -275 l-43 3 0 -247 0 -248 312 0
c229 0 309 3 301 11 -8 8 -3 25 19 62 16 28 38 72 48 97 15 39 16 49 5 70 -21
38 -28 148 -15 220 23 127 74 190 155 190 34 0 49 -20 25 -35 -5 -3 -10 -19
-10 -35 0 -19 -10 -36 -30 -53 -34 -29 -37 -37 -15 -37 8 0 15 -1 15 -3 0 -2
11 -31 24 -66 25 -62 25 -62 5 -82 -20 -20 -20 -20 5 -82 14 -34 41 -98 61
-142 19 -44 35 -88 35 -97 0 -10 5 -18 10 -18 7 0 10 147 10 420 l0 420 -319
0 -319 0 -3 -73z"/>
<path d="M721 314 c0 -11 3 -14 6 -6 3 7 2 16 -1 19 -3 4 -6 -2 -5 -13z"/>
</g>
</svg>
