<?xml version="1.0" standalone="no"?>
<!DOCTYPE svg PUBLIC "-//W3C//DTD SVG 20010904//EN"
 "http://www.w3.org/TR/2001/REC-SVG-20010904/DTD/svg10.dtd">
<svg version="1.0" xmlns="http://www.w3.org/2000/svg"
 width="96.000000pt" height="84.000000pt" viewBox="0 0 96.000000 84.000000"
 preserveAspectRatio="xMidYMid meet">
<metadata>
Created by potrace 1.16, written by Peter Selinger 2001-2019
</metadata>
<g transform="translate(0.000000,84.000000) scale(0.100000,-0.100000)"
fill="#000000" stroke="none">
<path d="M334 776 c-3 -115 -64 -215 -160 -262 -47 -23 -63 -26 -114 -21 l-60
5 0 -249 0 -249 326 2 325 3 29 69 c53 124 54 132 31 165 -53 74 -1 347 74
393 37 22 105 25 105 4 0 -8 -4 -18 -10 -21 -5 -3 -10 -19 -10 -35 0 -19 -10
-36 -30 -53 -34 -29 -37 -37 -15 -37 8 0 15 -1 15 -3 0 -2 11 -31 24 -66 l25
-62 -20 -20 -21 -21 22 -51 c31 -72 79 -167 85 -167 3 0 5 167 5 370 l0 370
-312 0 -313 0 -1 -64z"/>
<path d="M740 303 c0 -28 3 -34 10 -23 13 20 13 47 0 55 -6 4 -10 -9 -10 -32z"/>
</g>
</svg>
