<?xml version="1.0" standalone="no"?>
<!DOCTYPE svg PUBLIC "-//W3C//DTD SVG 20010904//EN"
 "http://www.w3.org/TR/2001/REC-SVG-20010904/DTD/svg10.dtd">
<svg version="1.0" xmlns="http://www.w3.org/2000/svg"
 width="96.000000pt" height="84.000000pt" viewBox="0 0 96.000000 84.000000"
 preserveAspectRatio="xMidYMid meet">
<metadata>
Created by potrace 1.16, written by Peter Selinger 2001-2019
</metadata>
<g transform="translate(0.000000,84.000000) scale(0.100000,-0.100000)"
fill="#000000" stroke="none">
<path d="M350 773 c0 -73 -20 -130 -66 -190 -53 -69 -164 -108 -247 -85 l-37
10 0 -254 0 -254 353 0 352 0 50 153 c54 164 54 166 41 170 -5 1 -14 -16 -20
-37 -24 -85 -51 -43 -42 65 16 196 58 282 142 295 54 8 68 0 52 -29 -7 -12
-11 -28 -9 -36 1 -7 -12 -29 -30 -47 -30 -31 -31 -35 -16 -46 22 -17 59 -116
52 -138 -3 -10 -12 -21 -19 -23 -13 -5 1 -54 44 -152 5 -12 9 116 9 323 l1
342 -305 0 -305 0 0 -67z"/>
</g>
</svg>
