<?xml version="1.0" standalone="no"?>
<!DOCTYPE svg PUBLIC "-//W3C//DTD SVG 20010904//EN"
 "http://www.w3.org/TR/2001/REC-SVG-20010904/DTD/svg10.dtd">
<svg version="1.0" xmlns="http://www.w3.org/2000/svg"
 width="96.000000pt" height="84.000000pt" viewBox="0 0 96.000000 84.000000"
 preserveAspectRatio="xMidYMid meet">
<metadata>
Created by potrace 1.16, written by Peter Selinger 2001-2019
</metadata>
<g transform="translate(0.000000,84.000000) scale(0.100000,-0.100000)"
fill="#000000" stroke="none">
<path d="M380 784 c0 -87 -27 -150 -90 -214 -77 -78 -153 -98 -245 -65 -22 8
-41 15 -42 15 -2 0 -3 -117 -3 -260 l0 -260 380 0 c296 0 381 3 384 13 1 6 24
76 51 155 26 78 45 145 42 149 -6 5 -27 -39 -27 -57 0 -9 -31 -23 -37 -16 -18
18 16 260 44 323 27 59 33 65 83 73 l35 5 3 98 3 97 -291 0 -290 0 0 -56z"/>
<path d="M930 515 c-19 -20 -20 -25 -7 -25 9 0 21 -8 26 -17 8 -14 10 -9 11
25 0 23 -1 42 -3 42 -2 0 -14 -11 -27 -25z"/>
</g>
</svg>
