<?xml version="1.0" standalone="no"?>
<!DOCTYPE svg PUBLIC "-//W3C//DTD SVG 20010904//EN"
 "http://www.w3.org/TR/2001/REC-SVG-20010904/DTD/svg10.dtd">
<svg version="1.0" xmlns="http://www.w3.org/2000/svg"
 width="96.000000pt" height="84.000000pt" viewBox="0 0 96.000000 84.000000"
 preserveAspectRatio="xMidYMid meet">
<metadata>
Created by potrace 1.16, written by Peter Selinger 2001-2019
</metadata>
<g transform="translate(0.000000,84.000000) scale(0.100000,-0.100000)"
fill="#000000" stroke="none">
<path d="M425 787 c0 -73 -21 -136 -63 -193 -80 -106 -215 -134 -316 -66 l-46
31 0 -279 0 -280 413 0 413 0 42 108 c47 118 48 124 28 116 -22 -8 -25 30 -14
165 9 114 13 132 44 191 32 60 34 70 34 162 l0 98 -267 0 -268 0 0 -53z"/>
</g>
</svg>
