<?xml version="1.0" standalone="no"?>
<!DOCTYPE svg PUBLIC "-//W3C//DTD SVG 20010904//EN"
 "http://www.w3.org/TR/2001/REC-SVG-20010904/DTD/svg10.dtd">
<svg version="1.0" xmlns="http://www.w3.org/2000/svg"
 width="96.000000pt" height="84.000000pt" viewBox="0 0 96.000000 84.000000"
 preserveAspectRatio="xMidYMid meet">
<metadata>
Created by potrace 1.16, written by Peter Selinger 2001-2019
</metadata>
<g transform="translate(0.000000,84.000000) scale(0.100000,-0.100000)"
fill="#000000" stroke="none">
<path d="M550 829 c0 -6 5 -19 10 -29 9 -16 5 -22 -25 -36 -47 -22 -84 -71
-99 -131 -16 -65 -11 -88 29 -126 24 -23 31 -37 25 -47 -6 -10 -1 -25 16 -47
25 -33 54 -123 54 -167 0 -13 -7 -26 -15 -30 -20 -7 -65 71 -65 115 0 20 -6
42 -12 51 -15 18 -69 28 -85 15 -53 -44 -56 -48 -50 -100 5 -35 14 -59 32 -77
24 -25 25 -31 16 -71 -5 -24 -12 -68 -14 -96 l-4 -53 66 0 c66 0 67 0 81 33
l13 32 4 -32 4 -33 178 0 c183 0 201 4 214 43 8 23 -4 22 -36 -3 -44 -35 -44
-34 -72 94 -9 38 -13 71 -10 74 3 3 5 1 5 -4 0 -6 6 -19 14 -29 12 -17 13 -11
10 55 l-4 75 20 -40 20 -40 -5 35 -6 35 16 -25 c14 -23 15 -20 9 55 -10 160
-26 252 -57 343 -34 102 -63 142 -100 142 -14 0 -30 7 -37 15 -15 18 -140 22
-140 4z"/>
</g>
</svg>
