<?xml version="1.0" standalone="no"?>
<!DOCTYPE svg PUBLIC "-//W3C//DTD SVG 20010904//EN"
 "http://www.w3.org/TR/2001/REC-SVG-20010904/DTD/svg10.dtd">
<svg version="1.0" xmlns="http://www.w3.org/2000/svg"
 width="96.000000pt" height="84.000000pt" viewBox="0 0 96.000000 84.000000"
 preserveAspectRatio="xMidYMid meet">
<metadata>
Created by potrace 1.16, written by Peter Selinger 2001-2019
</metadata>
<g transform="translate(0.000000,84.000000) scale(0.100000,-0.100000)"
fill="#000000" stroke="none">
<path d="M0 720 c0 -106 2 -122 19 -139 11 -11 24 -37 30 -58 20 -75 42 -260
46 -368 1 -60 3 -120 4 -132 l1 -23 430 0 430 0 0 348 0 347 -24 -50 c-29 -64
-101 -128 -161 -145 -51 -14 -120 -8 -164 15 -84 43 -151 160 -151 263 l0 62
-230 0 -230 0 0 -120z"/>
</g>
</svg>
