<?xml version="1.0" standalone="no"?>
<!DOCTYPE svg PUBLIC "-//W3C//DTD SVG 20010904//EN"
 "http://www.w3.org/TR/2001/REC-SVG-20010904/DTD/svg10.dtd">
<svg version="1.0" xmlns="http://www.w3.org/2000/svg"
 width="96.000000pt" height="84.000000pt" viewBox="0 0 96.000000 84.000000"
 preserveAspectRatio="xMidYMid meet">
<metadata>
Created by potrace 1.16, written by Peter Selinger 2001-2019
</metadata>
<g transform="translate(0.000000,84.000000) scale(0.100000,-0.100000)"
fill="#000000" stroke="none">
<path d="M0 419 l0 -420 23 3 c24 3 25 14 31 303 1 50 6 109 10 132 7 36 5 43
-13 53 -31 16 -29 74 4 96 31 20 61 11 80 -27 22 -42 56 -275 59 -414 2 -66 4
-126 5 -132 1 -10 84 -13 381 -13 l380 0 0 285 0 286 -38 -29 c-74 -59 -157
-68 -240 -26 -95 47 -152 143 -152 257 l0 67 -265 0 -265 0 0 -421z"/>
</g>
</svg>
