<?xml version="1.0" standalone="no"?>
<!DOCTYPE svg PUBLIC "-//W3C//DTD SVG 20010904//EN"
 "http://www.w3.org/TR/2001/REC-SVG-20010904/DTD/svg10.dtd">
<svg version="1.0" xmlns="http://www.w3.org/2000/svg"
 width="96.000000pt" height="84.000000pt" viewBox="0 0 96.000000 84.000000"
 preserveAspectRatio="xMidYMid meet">
<metadata>
Created by potrace 1.16, written by Peter Selinger 2001-2019
</metadata>
<g transform="translate(0.000000,84.000000) scale(0.100000,-0.100000)"
fill="#000000" stroke="none">
<path d="M0 420 l0 -420 69 0 69 0 7 39 c3 21 6 68 6 102 -1 138 5 275 13 297
6 19 2 30 -19 52 -33 34 -29 71 10 96 32 21 64 10 80 -29 28 -68 73 -432 56
-450 -5 -4 -4 -27 0 -50 4 -23 8 -45 9 -49 0 -5 149 -8 330 -8 l330 0 0 259 0
260 -35 -15 c-81 -33 -169 -12 -239 59 -58 59 -85 122 -93 217 l-6 60 -293 0
-294 0 0 -420z"/>
</g>
</svg>
