<?xml version="1.0" standalone="no"?>
<!DOCTYPE svg PUBLIC "-//W3C//DTD SVG 20010904//EN"
 "http://www.w3.org/TR/2001/REC-SVG-20010904/DTD/svg10.dtd">
<svg version="1.0" xmlns="http://www.w3.org/2000/svg"
 width="96.000000pt" height="84.000000pt" viewBox="0 0 96.000000 84.000000"
 preserveAspectRatio="xMidYMid meet">
<metadata>
Created by potrace 1.16, written by Peter Selinger 2001-2019
</metadata>
<g transform="translate(0.000000,84.000000) scale(0.100000,-0.100000)"
fill="#000000" stroke="none">
<path d="M0 420 l0 -420 119 0 118 0 7 76 c4 49 2 82 -5 90 -7 9 -7 19 1 34 7
12 11 57 9 103 -1 45 2 103 6 129 7 41 5 48 -14 60 -28 17 -27 59 3 87 28 27
59 22 80 -12 28 -44 65 -323 63 -483 0 -33 3 -66 7 -72 5 -9 85 -12 287 -12
l279 0 0 245 0 245 -47 0 c-132 1 -241 121 -251 278 l-5 72 -328 0 -329 0 0
-420z"/>
</g>
</svg>
