<?xml version="1.0" standalone="no"?>
<!DOCTYPE svg PUBLIC "-//W3C//DTD SVG 20010904//EN"
 "http://www.w3.org/TR/2001/REC-SVG-20010904/DTD/svg10.dtd">
<svg version="1.0" xmlns="http://www.w3.org/2000/svg"
 width="96.000000pt" height="84.000000pt" viewBox="0 0 96.000000 84.000000"
 preserveAspectRatio="xMidYMid meet">
<metadata>
Created by potrace 1.16, written by Peter Selinger 2001-2019
</metadata>
<g transform="translate(0.000000,84.000000) scale(0.100000,-0.100000)"
fill="#000000" stroke="none">
<path d="M0 420 l0 -420 166 0 166 0 0 102 c0 171 4 281 12 330 7 41 6 47 -13
57 -28 16 -28 64 1 91 27 25 40 25 67 3 16 -13 27 -43 40 -113 22 -109 45
-345 36 -361 -4 -5 -4 -32 0 -59 l7 -50 239 0 239 0 0 244 0 243 -45 13 c-104
29 -185 141 -193 268 l-5 72 -358 0 -359 0 0 -420z"/>
</g>
</svg>
