<?xml version="1.0" standalone="no"?>
<!DOCTYPE svg PUBLIC "-//W3C//DTD SVG 20010904//EN"
 "http://www.w3.org/TR/2001/REC-SVG-20010904/DTD/svg10.dtd">
<svg version="1.0" xmlns="http://www.w3.org/2000/svg"
 width="96.000000pt" height="84.000000pt" viewBox="0 0 96.000000 84.000000"
 preserveAspectRatio="xMidYMid meet">
<metadata>
Created by potrace 1.16, written by Peter Selinger 2001-2019
</metadata>
<g transform="translate(0.000000,84.000000) scale(0.100000,-0.100000)"
fill="#000000" stroke="none">
<path d="M0 420 l0 -420 189 0 189 0 7 74 c4 45 3 82 -4 93 -6 12 -6 24 0 34
5 7 8 52 7 99 -1 48 4 102 12 124 12 38 12 41 -14 62 -34 30 -34 66 1 94 15
11 33 19 41 18 28 -6 52 -53 67 -133 13 -75 33 -298 32 -375 0 -19 3 -47 6
-62 l7 -28 210 0 210 0 0 248 0 248 -36 13 c-88 32 -165 154 -167 266 l-2 65
-377 0 -378 0 0 -420z"/>
</g>
</svg>
