<?xml version="1.0" standalone="no"?>
<!DOCTYPE svg PUBLIC "-//W3C//DTD SVG 20010904//EN"
 "http://www.w3.org/TR/2001/REC-SVG-20010904/DTD/svg10.dtd">
<svg version="1.0" xmlns="http://www.w3.org/2000/svg"
 width="96.000000pt" height="84.000000pt" viewBox="0 0 96.000000 84.000000"
 preserveAspectRatio="xMidYMid meet">
<metadata>
Created by potrace 1.16, written by Peter Selinger 2001-2019
</metadata>
<g transform="translate(0.000000,84.000000) scale(0.100000,-0.100000)"
fill="#000000" stroke="none">
<path d="M0 420 l0 -420 199 0 199 0 7 39 c3 21 6 68 5 102 -1 106 6 272 14
299 5 20 2 31 -18 50 -33 30 -33 54 -1 85 81 81 124 -43 139 -400 9 -195 -17
-175 217 -175 l199 0 0 248 0 247 -45 24 c-86 46 -146 149 -148 257 l-2 64
-382 0 -383 0 0 -420z"/>
</g>
</svg>
