<?xml version="1.0" standalone="no"?>
<!DOCTYPE svg PUBLIC "-//W3C//DTD SVG 20010904//EN"
 "http://www.w3.org/TR/2001/REC-SVG-20010904/DTD/svg10.dtd">
<svg version="1.0" xmlns="http://www.w3.org/2000/svg"
 width="96.000000pt" height="84.000000pt" viewBox="0 0 96.000000 84.000000"
 preserveAspectRatio="xMidYMid meet">
<metadata>
Created by potrace 1.16, written by Peter Selinger 2001-2019
</metadata>
<g transform="translate(0.000000,84.000000) scale(0.100000,-0.100000)"
fill="#000000" stroke="none">
<path d="M520 835 c0 -4 6 -18 14 -34 14 -26 13 -28 -19 -45 -42 -23 -70 -61
-88 -123 -22 -72 -6 -120 49 -151 13 -7 14 -13 5 -31 -7 -12 -8 -21 -2 -21 13
0 53 -67 57 -94 1 -11 7 -40 12 -63 7 -32 6 -47 -3 -60 -7 -10 -15 -16 -17
-13 -29 38 -57 93 -53 100 3 5 1 27 -5 49 -10 40 -38 60 -61 45 -6 -3 -15 0
-20 7 -7 11 -9 10 -9 -3 0 -10 -7 -18 -15 -18 -8 0 -22 -11 -31 -25 -24 -36
-11 -106 26 -143 20 -21 25 -33 19 -44 -5 -9 -13 -50 -17 -92 l-8 -76 72 0
c65 0 72 2 79 23 l8 22 4 -22 c4 -23 6 -23 186 -23 100 0 188 4 196 9 14 9 26
51 15 51 -3 0 -20 -12 -36 -26 -17 -14 -35 -21 -39 -17 -11 11 -51 184 -44
191 3 3 5 1 5 -4 0 -6 6 -19 14 -29 12 -17 13 -9 10 61 l-3 79 19 -40 c17 -35
18 -36 13 -10 -5 29 -5 29 11 10 18 -22 19 -38 -4 185 -21 202 -100 372 -165
356 -15 -4 -25 -1 -29 9 -4 11 -23 15 -76 15 -38 0 -70 -2 -70 -5z"/>
</g>
</svg>
