<?xml version="1.0" standalone="no"?>
<!DOCTYPE svg PUBLIC "-//W3C//DTD SVG 20010904//EN"
 "http://www.w3.org/TR/2001/REC-SVG-20010904/DTD/svg10.dtd">
<svg version="1.0" xmlns="http://www.w3.org/2000/svg"
 width="96.000000pt" height="84.000000pt" viewBox="0 0 96.000000 84.000000"
 preserveAspectRatio="xMidYMid meet">
<metadata>
Created by potrace 1.16, written by Peter Selinger 2001-2019
</metadata>
<g transform="translate(0.000000,84.000000) scale(0.100000,-0.100000)"
fill="#000000" stroke="none">
<path d="M0 420 l0 -420 209 0 208 0 6 78 c2 42 1 82 -4 88 -5 7 -4 24 2 43 6
18 9 60 6 94 -2 34 0 86 6 116 10 51 9 56 -11 69 -30 20 -29 62 2 91 28 27 59
22 81 -12 22 -35 45 -192 45 -309 0 -59 5 -141 11 -183 l11 -75 194 0 194 0 0
250 0 250 -32 13 c-44 19 -103 81 -129 137 -14 28 -24 73 -27 118 l-5 72 -383
0 -384 0 0 -420z"/>
</g>
</svg>
