<?xml version="1.0" standalone="no"?>
<!DOCTYPE svg PUBLIC "-//W3C//DTD SVG 20010904//EN"
 "http://www.w3.org/TR/2001/REC-SVG-20010904/DTD/svg10.dtd">
<svg version="1.0" xmlns="http://www.w3.org/2000/svg"
 width="96.000000pt" height="84.000000pt" viewBox="0 0 96.000000 84.000000"
 preserveAspectRatio="xMidYMid meet">
<metadata>
Created by potrace 1.16, written by Peter Selinger 2001-2019
</metadata>
<g transform="translate(0.000000,84.000000) scale(0.100000,-0.100000)"
fill="#000000" stroke="none">
<path d="M0 420 l0 -420 209 0 c191 0 210 2 215 18 9 31 11 137 3 150 -5 7 -3
29 4 49 7 22 9 59 5 95 -3 33 -1 80 4 105 10 41 8 48 -10 68 -26 27 -26 69 0
95 31 31 62 24 85 -19 23 -46 45 -200 45 -320 0 -62 5 -142 12 -177 l11 -64
189 0 188 0 0 250 0 249 -35 17 c-45 21 -102 85 -128 143 -11 25 -22 76 -25
113 l-5 68 -383 0 -384 0 0 -420z"/>
</g>
</svg>
