<?xml version="1.0" standalone="no"?>
<!DOCTYPE svg PUBLIC "-//W3C//DTD SVG 20010904//EN"
 "http://www.w3.org/TR/2001/REC-SVG-20010904/DTD/svg10.dtd">
<svg version="1.0" xmlns="http://www.w3.org/2000/svg"
 width="96.000000pt" height="84.000000pt" viewBox="0 0 96.000000 84.000000"
 preserveAspectRatio="xMidYMid meet">
<metadata>
Created by potrace 1.16, written by Peter Selinger 2001-2019
</metadata>
<g transform="translate(0.000000,84.000000) scale(0.100000,-0.100000)"
fill="#000000" stroke="none">
<path d="M0 420 l0 -420 214 0 214 0 7 75 c5 52 3 80 -5 90 -8 10 -9 19 0 35
6 11 10 57 9 103 -1 46 3 99 10 120 12 37 12 40 -13 66 -32 33 -33 52 -3 87
27 31 63 29 85 -6 22 -36 42 -176 51 -360 5 -96 12 -183 16 -192 6 -16 25 -18
191 -18 l184 0 0 250 0 249 -35 17 c-81 38 -144 143 -152 257 l-6 67 -383 0
-384 0 0 -420z"/>
</g>
</svg>
