<?xml version="1.0" standalone="no"?>
<!DOCTYPE svg PUBLIC "-//W3C//DTD SVG 20010904//EN"
 "http://www.w3.org/TR/2001/REC-SVG-20010904/DTD/svg10.dtd">
<svg version="1.0" xmlns="http://www.w3.org/2000/svg"
 width="96.000000pt" height="84.000000pt" viewBox="0 0 96.000000 84.000000"
 preserveAspectRatio="xMidYMid meet">
<metadata>
Created by potrace 1.16, written by Peter Selinger 2001-2019
</metadata>
<g transform="translate(0.000000,84.000000) scale(0.100000,-0.100000)"
fill="#000000" stroke="none">
<path d="M0 420 l0 -420 214 0 213 0 7 66 c4 42 3 71 -4 79 -8 9 -7 26 1 59 6
26 9 72 7 104 -3 33 0 75 8 102 18 58 18 53 -13 84 -22 22 -25 31 -17 53 12
34 55 66 77 57 46 -17 65 -114 77 -379 4 -104 11 -198 15 -207 6 -16 25 -18
191 -18 l184 0 0 260 c0 212 -2 260 -14 260 -7 0 -34 18 -59 40 -59 52 -98
134 -105 217 l-5 63 -388 0 -389 0 0 -420z"/>
</g>
</svg>
