<?xml version="1.0" standalone="no"?>
<!DOCTYPE svg PUBLIC "-//W3C//DTD SVG 20010904//EN"
 "http://www.w3.org/TR/2001/REC-SVG-20010904/DTD/svg10.dtd">
<svg version="1.0" xmlns="http://www.w3.org/2000/svg"
 width="96.000000pt" height="84.000000pt" viewBox="0 0 96.000000 84.000000"
 preserveAspectRatio="xMidYMid meet">
<metadata>
Created by potrace 1.16, written by Peter Selinger 2001-2019
</metadata>
<g transform="translate(0.000000,84.000000) scale(0.100000,-0.100000)"
fill="#000000" stroke="none">
<path d="M505 804 c14 -35 14 -35 -21 -66 -42 -38 -54 -58 -70 -124 -9 -41 -9
-57 1 -82 14 -32 47 -56 60 -44 4 4 5 -10 2 -30 -3 -21 -3 -38 1 -38 14 0 51
-66 50 -90 0 -14 5 -45 10 -70 8 -34 7 -48 -2 -58 -10 -10 -18 -4 -44 31 -20
28 -29 51 -26 64 3 11 -1 36 -9 56 -13 29 -21 36 -48 39 -35 3 -79 -28 -92
-65 -12 -34 5 -97 33 -125 19 -20 25 -33 20 -47 -4 -11 -10 -50 -13 -87 l-6
-68 270 0 270 0 8 23 c12 30 -5 34 -33 8 -12 -12 -27 -21 -32 -21 -5 0 -17 35
-26 77 -9 43 -20 87 -23 98 -6 18 -5 17 12 -3 23 -28 38 -18 18 12 -8 11 -15
32 -15 46 0 20 2 22 11 10 8 -11 9 -6 4 20 l-6 35 21 -35 20 -35 -6 30 c-6 29
-6 29 10 10 l17 -20 -5 20 c-3 11 -10 74 -16 140 -12 130 -18 160 -56 276 -31
94 -67 135 -114 126 -22 -5 -32 -3 -36 8 -5 11 -24 15 -80 15 l-74 0 15 -36z
m86 -481 c-9 -15 -10 -12 -10 17 0 29 1 32 10 18 7 -12 7 -24 0 -35z"/>
</g>
</svg>
