<?xml version="1.0" standalone="no"?>
<!DOCTYPE svg PUBLIC "-//W3C//DTD SVG 20010904//EN"
 "http://www.w3.org/TR/2001/REC-SVG-20010904/DTD/svg10.dtd">
<svg version="1.0" xmlns="http://www.w3.org/2000/svg"
 width="96.000000pt" height="84.000000pt" viewBox="0 0 96.000000 84.000000"
 preserveAspectRatio="xMidYMid meet">
<metadata>
Created by potrace 1.16, written by Peter Selinger 2001-2019
</metadata>
<g transform="translate(0.000000,84.000000) scale(0.100000,-0.100000)"
fill="#000000" stroke="none">
<path d="M0 420 l0 -420 214 0 213 0 6 62 c3 38 1 65 -5 69 -6 4 -5 27 3 68 6
33 9 82 6 108 -4 30 0 70 10 106 l16 58 -27 28 c-21 22 -26 34 -20 55 16 64
94 72 118 13 22 -53 38 -193 40 -357 2 -85 6 -167 11 -182 l7 -28 184 0 184 0
0 269 0 270 -29 17 c-66 39 -131 163 -131 251 l0 33 -400 0 -400 0 0 -420z"/>
</g>
</svg>
