<?xml version="1.0" standalone="no"?>
<!DOCTYPE svg PUBLIC "-//W3C//DTD SVG 20010904//EN"
 "http://www.w3.org/TR/2001/REC-SVG-20010904/DTD/svg10.dtd">
<svg version="1.0" xmlns="http://www.w3.org/2000/svg"
 width="96.000000pt" height="84.000000pt" viewBox="0 0 96.000000 84.000000"
 preserveAspectRatio="xMidYMid meet">
<metadata>
Created by potrace 1.16, written by Peter Selinger 2001-2019
</metadata>
<g transform="translate(0.000000,84.000000) scale(0.100000,-0.100000)"
fill="#000000" stroke="none">
<path d="M0 420 l0 -420 214 0 214 0 4 56 c1 30 -1 59 -6 64 -5 5 -3 31 4 61
8 31 10 77 7 115 -4 42 -1 79 8 111 20 64 19 66 -12 97 -22 22 -25 31 -17 53
13 36 56 67 83 58 12 -3 28 -20 36 -36 23 -43 45 -235 45 -385 0 -72 3 -146 6
-163 l7 -31 183 0 184 0 0 288 0 288 -47 50 c-49 51 -83 124 -85 183 l-1 31
-414 0 -413 0 0 -420z"/>
</g>
</svg>
