<?xml version="1.0" standalone="no"?>
<!DOCTYPE svg PUBLIC "-//W3C//DTD SVG 20010904//EN"
 "http://www.w3.org/TR/2001/REC-SVG-20010904/DTD/svg10.dtd">
<svg version="1.0" xmlns="http://www.w3.org/2000/svg"
 width="96.000000pt" height="84.000000pt" viewBox="0 0 96.000000 84.000000"
 preserveAspectRatio="xMidYMid meet">
<metadata>
Created by potrace 1.16, written by Peter Selinger 2001-2019
</metadata>
<g transform="translate(0.000000,84.000000) scale(0.100000,-0.100000)"
fill="#000000" stroke="none">
<path d="M0 420 l0 -420 216 0 215 0 0 78 c-1 173 6 309 19 349 12 41 12 44
-15 79 -33 43 -28 74 17 107 23 17 31 19 53 9 14 -7 32 -27 39 -45 22 -53 39
-201 42 -372 1 -88 3 -170 3 -182 1 -23 1 -23 186 -23 l185 0 0 316 0 315 -35
47 c-20 25 -44 72 -53 104 l-17 58 -427 0 -428 0 0 -420z"/>
</g>
</svg>
