<?xml version="1.0" standalone="no"?>
<!DOCTYPE svg PUBLIC "-//W3C//DTD SVG 20010904//EN"
 "http://www.w3.org/TR/2001/REC-SVG-20010904/DTD/svg10.dtd">
<svg version="1.0" xmlns="http://www.w3.org/2000/svg"
 width="96.000000pt" height="84.000000pt" viewBox="0 0 96.000000 84.000000"
 preserveAspectRatio="xMidYMid meet">
<metadata>
Created by potrace 1.16, written by Peter Selinger 2001-2019
</metadata>
<g transform="translate(0.000000,84.000000) scale(0.100000,-0.100000)"
fill="#000000" stroke="none">
<path d="M0 420 l0 -420 215 0 215 0 -1 33 c0 17 -4 41 -8 52 -5 12 -2 33 5
52 10 22 13 69 11 152 -1 85 2 124 11 132 19 20 14 55 -13 87 -29 35 -31 58
-9 90 36 51 99 48 123 -5 21 -46 43 -257 45 -423 l1 -165 183 -3 182 -2 0 356
c0 331 -1 358 -19 382 -10 15 -24 44 -30 65 l-13 37 -449 0 -449 0 0 -420z"/>
</g>
</svg>
