<?xml version="1.0" standalone="no"?>
<!DOCTYPE svg PUBLIC "-//W3C//DTD SVG 20010904//EN"
 "http://www.w3.org/TR/2001/REC-SVG-20010904/DTD/svg10.dtd">
<svg version="1.0" xmlns="http://www.w3.org/2000/svg"
 width="96.000000pt" height="84.000000pt" viewBox="0 0 96.000000 84.000000"
 preserveAspectRatio="xMidYMid meet">
<metadata>
Created by potrace 1.16, written by Peter Selinger 2001-2019
</metadata>
<g transform="translate(0.000000,84.000000) scale(0.100000,-0.100000)"
fill="#000000" stroke="none">
<path d="M0 420 l0 -420 215 0 c229 0 233 1 204 48 -9 14 -7 29 5 65 18 53 20
122 7 180 -9 38 -1 88 21 137 7 14 13 28 15 31 1 4 -11 25 -27 48 -36 49 -37
72 -7 105 54 61 119 33 135 -57 22 -118 34 -259 33 -404 l0 -153 179 0 180 0
0 404 c0 222 -3 411 -6 420 -5 14 -57 16 -480 16 l-474 0 0 -420z"/>
</g>
</svg>
