<?xml version="1.0" standalone="no"?>
<!DOCTYPE svg PUBLIC "-//W3C//DTD SVG 20010904//EN"
 "http://www.w3.org/TR/2001/REC-SVG-20010904/DTD/svg10.dtd">
<svg version="1.0" xmlns="http://www.w3.org/2000/svg"
 width="96.000000pt" height="84.000000pt" viewBox="0 0 96.000000 84.000000"
 preserveAspectRatio="xMidYMid meet">
<metadata>
Created by potrace 1.16, written by Peter Selinger 2001-2019
</metadata>
<g transform="translate(0.000000,84.000000) scale(0.100000,-0.100000)"
fill="#000000" stroke="none">
<path d="M0 420 l0 -420 196 0 195 0 20 44 c21 48 27 129 15 213 -8 57 8 146
31 174 18 22 16 38 -12 84 -38 61 -38 63 -25 96 13 31 55 59 89 59 81 0 93
-52 107 -477 l7 -193 168 0 169 0 0 420 0 420 -480 0 -480 0 0 -420z"/>
</g>
</svg>
