<?xml version="1.0" standalone="no"?>
<!DOCTYPE svg PUBLIC "-//W3C//DTD SVG 20010904//EN"
 "http://www.w3.org/TR/2001/REC-SVG-20010904/DTD/svg10.dtd">
<svg version="1.0" xmlns="http://www.w3.org/2000/svg"
 width="96.000000pt" height="84.000000pt" viewBox="0 0 96.000000 84.000000"
 preserveAspectRatio="xMidYMid meet">
<metadata>
Created by potrace 1.16, written by Peter Selinger 2001-2019
</metadata>
<g transform="translate(0.000000,84.000000) scale(0.100000,-0.100000)"
fill="#000000" stroke="none">
<path d="M0 420 l0 -420 200 0 c196 0 199 0 212 23 9 15 13 71 14 172 0 151 6
197 29 225 21 27 24 47 8 69 -8 12 -16 28 -17 34 -1 7 -10 24 -20 39 -16 24
-16 29 -2 57 34 65 117 84 155 35 32 -41 32 -37 47 -446 l7 -208 164 0 163 0
0 420 0 420 -480 0 -480 0 0 -420z"/>
</g>
</svg>
