<?xml version="1.0" standalone="no"?>
<!DOCTYPE svg PUBLIC "-//W3C//DTD SVG 20010904//EN"
 "http://www.w3.org/TR/2001/REC-SVG-20010904/DTD/svg10.dtd">
<svg version="1.0" xmlns="http://www.w3.org/2000/svg"
 width="96.000000pt" height="84.000000pt" viewBox="0 0 96.000000 84.000000"
 preserveAspectRatio="xMidYMid meet">
<metadata>
Created by potrace 1.16, written by Peter Selinger 2001-2019
</metadata>
<g transform="translate(0.000000,84.000000) scale(0.100000,-0.100000)"
fill="#000000" stroke="none">
<path d="M0 420 l0 -420 209 0 209 0 8 67 c4 39 2 99 -5 143 -9 62 -8 82 4
115 8 22 14 49 15 60 0 11 9 27 20 35 23 17 25 47 5 74 -8 11 -15 28 -15 38 0
10 -4 18 -8 18 -20 0 -30 46 -17 77 18 42 52 63 100 63 47 0 80 -27 94 -78 5
-17 12 -161 16 -321 l8 -291 158 0 159 0 0 420 0 420 -480 0 -480 0 0 -420z"/>
</g>
</svg>
