<?xml version="1.0" standalone="no"?>
<!DOCTYPE svg PUBLIC "-//W3C//DTD SVG 20010904//EN"
 "http://www.w3.org/TR/2001/REC-SVG-20010904/DTD/svg10.dtd">
<svg version="1.0" xmlns="http://www.w3.org/2000/svg"
 width="96.000000pt" height="84.000000pt" viewBox="0 0 96.000000 84.000000"
 preserveAspectRatio="xMidYMid meet">
<metadata>
Created by potrace 1.16, written by Peter Selinger 2001-2019
</metadata>
<g transform="translate(0.000000,84.000000) scale(0.100000,-0.100000)"
fill="#000000" stroke="none">
<path d="M0 420 l0 -420 210 0 209 0 7 36 c4 20 3 66 -2 102 -4 37 -8 87 -8
112 0 57 26 149 46 164 18 13 33 56 20 56 -11 0 -36 51 -33 68 1 6 -2 12 -7
12 -5 0 -14 12 -21 26 -15 34 12 93 52 113 71 33 138 4 157 -68 5 -20 12 -168
16 -328 l7 -293 154 0 153 0 0 420 0 420 -480 0 -480 0 0 -420z"/>
</g>
</svg>
