<?xml version="1.0" standalone="no"?>
<!DOCTYPE svg PUBLIC "-//W3C//DTD SVG 20010904//EN"
 "http://www.w3.org/TR/2001/REC-SVG-20010904/DTD/svg10.dtd">
<svg version="1.0" xmlns="http://www.w3.org/2000/svg"
 width="96.000000pt" height="84.000000pt" viewBox="0 0 96.000000 84.000000"
 preserveAspectRatio="xMidYMid meet">
<metadata>
Created by potrace 1.16, written by Peter Selinger 2001-2019
</metadata>
<g transform="translate(0.000000,84.000000) scale(0.100000,-0.100000)"
fill="#000000" stroke="none">
<path d="M480 822 c0 -10 7 -27 15 -38 13 -20 12 -24 -25 -62 -30 -32 -42 -55
-53 -104 -12 -56 -12 -67 2 -96 11 -23 24 -35 44 -39 24 -5 28 -9 23 -29 -4
-15 0 -34 11 -50 9 -15 18 -47 18 -73 1 -25 5 -68 10 -95 l8 -49 -32 19 c-39
22 -46 35 -56 91 -8 48 -32 74 -66 71 -34 -4 -76 -44 -83 -80 -8 -40 26 -118
55 -125 16 -4 19 -11 14 -27 -4 -11 -9 -47 -12 -79 l-5 -57 234 0 235 0 -14
73 c-7 39 -15 78 -18 86 -4 10 1 12 20 7 l25 -6 -20 37 c-21 39 -30 103 -10
73 5 -8 10 -11 10 -6 0 5 6 3 14 -3 21 -18 26 8 16 81 -5 34 -10 92 -10 128
-1 94 -44 269 -77 314 -25 34 -57 48 -87 36 -18 -6 -28 -5 -36 6 -9 10 -33 14
-81 14 -59 0 -69 -2 -69 -18z m99 -543 c-24 -50 -29 -56 -24 -29 4 19 7 43 7
53 -1 10 4 30 9 45 9 23 11 24 25 10 13 -13 11 -22 -17 -79z"/>
<path d="M844 15 c-18 -14 -18 -14 7 -15 15 0 29 7 33 15 7 19 -14 19 -40 0z"/>
</g>
</svg>
