<?xml version="1.0" standalone="no"?>
<!DOCTYPE svg PUBLIC "-//W3C//DTD SVG 20010904//EN"
 "http://www.w3.org/TR/2001/REC-SVG-20010904/DTD/svg10.dtd">
<svg version="1.0" xmlns="http://www.w3.org/2000/svg"
 width="96.000000pt" height="84.000000pt" viewBox="0 0 96.000000 84.000000"
 preserveAspectRatio="xMidYMid meet">
<metadata>
Created by potrace 1.16, written by Peter Selinger 2001-2019
</metadata>
<g transform="translate(0.000000,84.000000) scale(0.100000,-0.100000)"
fill="#000000" stroke="none">
<path d="M0 420 l0 -420 209 0 c132 0 212 4 216 10 4 6 1 62 -6 125 -11 103
-10 121 6 182 10 38 28 79 41 94 24 25 32 59 14 59 -13 0 -38 52 -33 68 3 6 0
12 -5 12 -5 0 -15 13 -22 29 -10 24 -8 35 8 68 23 45 56 63 113 63 32 0 46 -6
69 -31 15 -17 31 -46 34 -63 3 -17 8 -163 12 -323 l7 -293 149 0 148 0 0 420
0 420 -480 0 -480 0 0 -420z"/>
</g>
</svg>
