<?xml version="1.0" standalone="no"?>
<!DOCTYPE svg PUBLIC "-//W3C//DTD SVG 20010904//EN"
 "http://www.w3.org/TR/2001/REC-SVG-20010904/DTD/svg10.dtd">
<svg version="1.0" xmlns="http://www.w3.org/2000/svg"
 width="96.000000pt" height="84.000000pt" viewBox="0 0 96.000000 84.000000"
 preserveAspectRatio="xMidYMid meet">
<metadata>
Created by potrace 1.16, written by Peter Selinger 2001-2019
</metadata>
<g transform="translate(0.000000,84.000000) scale(0.100000,-0.100000)"
fill="#000000" stroke="none">
<path d="M0 420 l0 -420 210 0 210 0 0 59 c0 33 -5 82 -12 110 -9 42 -8 59 7
108 10 32 21 62 26 67 4 5 5 14 3 20 -3 7 7 23 21 36 24 23 34 60 16 60 -9 0
-37 60 -33 72 1 5 -7 17 -18 28 -61 61 36 174 134 156 23 -4 43 -18 62 -43
l28 -37 8 -236 c4 -129 10 -272 14 -317 l6 -83 139 0 139 0 0 420 0 420 -480
0 -480 0 0 -420z"/>
</g>
</svg>
