<?xml version="1.0" standalone="no"?>
<!DOCTYPE svg PUBLIC "-//W3C//DTD SVG 20010904//EN"
 "http://www.w3.org/TR/2001/REC-SVG-20010904/DTD/svg10.dtd">
<svg version="1.0" xmlns="http://www.w3.org/2000/svg"
 width="96.000000pt" height="84.000000pt" viewBox="0 0 96.000000 84.000000"
 preserveAspectRatio="xMidYMid meet">
<metadata>
Created by potrace 1.16, written by Peter Selinger 2001-2019
</metadata>
<g transform="translate(0.000000,84.000000) scale(0.100000,-0.100000)"
fill="#000000" stroke="none">
<path d="M0 420 l0 -420 210 0 210 0 0 54 c0 30 -5 77 -12 105 -10 44 -9 60 6
109 10 31 23 63 29 70 5 7 7 15 3 19 -3 4 2 16 13 27 28 30 29 56 3 98 -13 21
-20 43 -17 49 4 6 -2 17 -14 25 -41 29 -18 120 39 149 16 8 50 15 75 15 39 0
51 -5 75 -32 42 -46 49 -96 56 -410 l6 -278 139 0 139 0 0 420 0 420 -480 0
-480 0 0 -420z"/>
</g>
</svg>
