<?xml version="1.0" standalone="no"?>
<!DOCTYPE svg PUBLIC "-//W3C//DTD SVG 20010904//EN"
 "http://www.w3.org/TR/2001/REC-SVG-20010904/DTD/svg10.dtd">
<svg version="1.0" xmlns="http://www.w3.org/2000/svg"
 width="96.000000pt" height="84.000000pt" viewBox="0 0 96.000000 84.000000"
 preserveAspectRatio="xMidYMid meet">
<metadata>
Created by potrace 1.16, written by Peter Selinger 2001-2019
</metadata>
<g transform="translate(0.000000,84.000000) scale(0.100000,-0.100000)"
fill="#000000" stroke="none">
<path d="M0 420 l0 -420 213 0 212 0 -6 68 c-4 37 -10 84 -14 105 -8 37 15
139 36 162 5 5 9 17 9 26 0 9 7 22 15 29 21 17 19 53 -6 94 -11 19 -18 40 -14
46 3 5 0 13 -9 16 -8 3 -19 19 -25 36 -9 24 -7 37 9 69 24 47 52 66 105 74 30
4 48 1 72 -14 64 -40 66 -53 77 -398 l9 -313 138 0 139 0 0 420 0 420 -480 0
-480 0 0 -420z"/>
</g>
</svg>
