<?xml version="1.0" standalone="no"?>
<!DOCTYPE svg PUBLIC "-//W3C//DTD SVG 20010904//EN"
 "http://www.w3.org/TR/2001/REC-SVG-20010904/DTD/svg10.dtd">
<svg version="1.0" xmlns="http://www.w3.org/2000/svg"
 width="96.000000pt" height="84.000000pt" viewBox="0 0 96.000000 84.000000"
 preserveAspectRatio="xMidYMid meet">
<metadata>
Created by potrace 1.16, written by Peter Selinger 2001-2019
</metadata>
<g transform="translate(0.000000,84.000000) scale(0.100000,-0.100000)"
fill="#000000" stroke="none">
<path d="M0 420 l0 -420 214 0 c243 0 228 -6 214 85 -5 28 -11 69 -14 92 -8
49 9 125 42 193 29 61 29 62 1 108 -13 20 -22 43 -20 50 3 6 0 12 -6 12 -6 0
-17 12 -25 28 -12 24 -12 33 3 72 13 37 24 49 64 69 61 30 104 23 145 -23 40
-46 50 -113 57 -401 3 -126 8 -242 11 -258 l6 -27 134 0 134 0 0 420 0 420
-480 0 -480 0 0 -420z"/>
</g>
</svg>
