<?xml version="1.0" standalone="no"?>
<!DOCTYPE svg PUBLIC "-//W3C//DTD SVG 20010904//EN"
 "http://www.w3.org/TR/2001/REC-SVG-20010904/DTD/svg10.dtd">
<svg version="1.0" xmlns="http://www.w3.org/2000/svg"
 width="96.000000pt" height="84.000000pt" viewBox="0 0 96.000000 84.000000"
 preserveAspectRatio="xMidYMid meet">
<metadata>
Created by potrace 1.16, written by Peter Selinger 2001-2019
</metadata>
<g transform="translate(0.000000,84.000000) scale(0.100000,-0.100000)"
fill="#000000" stroke="none">
<path d="M0 420 l0 -420 210 0 210 0 6 26 c4 14 3 44 -1 67 -15 78 -9 216 9
235 13 12 36 73 36 94 0 21 -36 91 -62 122 -24 26 -23 73 2 113 40 67 136 85
190 36 45 -42 58 -112 65 -373 4 -159 11 -239 21 -272 l16 -48 129 0 129 0 0
420 0 420 -480 0 -480 0 0 -420z"/>
</g>
</svg>
