<?xml version="1.0" standalone="no"?>
<!DOCTYPE svg PUBLIC "-//W3C//DTD SVG 20010904//EN"
 "http://www.w3.org/TR/2001/REC-SVG-20010904/DTD/svg10.dtd">
<svg version="1.0" xmlns="http://www.w3.org/2000/svg"
 width="96.000000pt" height="84.000000pt" viewBox="0 0 96.000000 84.000000"
 preserveAspectRatio="xMidYMid meet">
<metadata>
Created by potrace 1.16, written by Peter Selinger 2001-2019
</metadata>
<g transform="translate(0.000000,84.000000) scale(0.100000,-0.100000)"
fill="#000000" stroke="none">
<path d="M0 420 l0 -420 203 2 202 3 5 50 c3 28 0 70 -6 94 -8 33 -8 57 2 97
6 29 10 55 7 57 -2 3 5 20 16 38 26 43 27 93 1 129 -11 15 -17 30 -14 33 3 2
-7 17 -22 32 -22 22 -25 33 -21 62 12 70 65 115 139 117 50 1 94 -41 112 -109
8 -27 17 -117 21 -200 4 -82 9 -179 11 -215 2 -39 13 -89 28 -125 l25 -60 125
-3 126 -3 0 421 0 420 -480 0 -480 0 0 -420z"/>
</g>
</svg>
