<?xml version="1.0" standalone="no"?>
<!DOCTYPE svg PUBLIC "-//W3C//DTD SVG 20010904//EN"
 "http://www.w3.org/TR/2001/REC-SVG-20010904/DTD/svg10.dtd">
<svg version="1.0" xmlns="http://www.w3.org/2000/svg"
 width="96.000000pt" height="84.000000pt" viewBox="0 0 96.000000 84.000000"
 preserveAspectRatio="xMidYMid meet">
<metadata>
Created by potrace 1.16, written by Peter Selinger 2001-2019
</metadata>
<g transform="translate(0.000000,84.000000) scale(0.100000,-0.100000)"
fill="#000000" stroke="none">
<path d="M0 420 l0 -420 183 2 182 3 11 101 c6 56 14 106 18 112 3 6 2 13 -3
16 -10 7 1 59 17 79 5 7 13 34 17 61 5 38 3 58 -12 87 -10 22 -21 39 -25 39
-4 0 -15 14 -23 30 -41 80 57 193 151 175 47 -8 90 -62 103 -127 6 -29 10
-126 10 -216 l0 -162 45 -73 c25 -39 49 -84 55 -99 l11 -28 110 0 110 0 0 420
0 420 -480 0 -480 0 0 -420z"/>
</g>
</svg>
