<?xml version="1.0" standalone="no"?>
<!DOCTYPE svg PUBLIC "-//W3C//DTD SVG 20010904//EN"
 "http://www.w3.org/TR/2001/REC-SVG-20010904/DTD/svg10.dtd">
<svg version="1.0" xmlns="http://www.w3.org/2000/svg"
 width="96.000000pt" height="84.000000pt" viewBox="0 0 96.000000 84.000000"
 preserveAspectRatio="xMidYMid meet">
<metadata>
Created by potrace 1.16, written by Peter Selinger 2001-2019
</metadata>
<g transform="translate(0.000000,84.000000) scale(0.100000,-0.100000)"
fill="#000000" stroke="none">
<path d="M455 818 c4 -13 14 -33 21 -46 14 -20 12 -25 -16 -60 -20 -26 -35
-60 -44 -103 -16 -73 -10 -91 42 -124 22 -13 31 -27 30 -41 -2 -12 3 -28 11
-37 8 -11 12 -36 9 -72 -1 -30 0 -55 5 -55 8 0 7 -73 -2 -115 -7 -28 -8 -29
-15 -8 -4 12 -20 32 -35 43 -19 13 -31 33 -36 57 -12 63 -22 75 -63 71 -48 -4
-82 -39 -82 -85 0 -54 25 -103 60 -116 21 -8 29 -16 24 -27 -3 -8 -9 -34 -11
-57 l-6 -43 230 0 230 0 -13 77 c-8 42 -13 87 -12 100 2 22 4 22 15 7 7 -9 14
-22 16 -28 2 -6 7 -9 10 -5 4 3 -3 23 -14 46 -11 22 -23 58 -26 79 l-6 39 26
-30 c31 -35 30 -42 27 132 -2 178 -38 327 -92 385 -22 24 -35 29 -75 28 -26 0
-86 3 -131 6 l-84 6 7 -24z m126 -551 c-20 -41 -38 -73 -40 -71 -7 6 33 159
43 166 6 4 16 1 22 -7 8 -11 2 -32 -25 -88z"/>
<path d="M828 3 c6 -2 18 -2 25 0 6 3 1 5 -13 5 -14 0 -19 -2 -12 -5z"/>
</g>
</svg>
