<?xml version="1.0" standalone="no"?>
<!DOCTYPE svg PUBLIC "-//W3C//DTD SVG 20010904//EN"
 "http://www.w3.org/TR/2001/REC-SVG-20010904/DTD/svg10.dtd">
<svg version="1.0" xmlns="http://www.w3.org/2000/svg"
 width="96.000000pt" height="84.000000pt" viewBox="0 0 96.000000 84.000000"
 preserveAspectRatio="xMidYMid meet">
<metadata>
Created by potrace 1.16, written by Peter Selinger 2001-2019
</metadata>
<g transform="translate(0.000000,84.000000) scale(0.100000,-0.100000)"
fill="#000000" stroke="none">
<path d="M0 420 l0 -420 38 0 c35 0 45 7 108 73 79 84 228 263 268 324 24 35
26 45 16 64 -7 12 -10 43 -8 71 16 162 238 218 311 78 16 -30 18 -50 13 -132
-3 -54 -11 -121 -17 -150 -10 -47 -10 -53 7 -67 11 -9 36 -38 56 -66 20 -27
66 -79 102 -115 l66 -64 0 412 0 412 -480 0 -480 0 0 -420z"/>
<path d="M229 33 l-24 -28 28 24 c15 14 27 26 27 28 0 8 -8 1 -31 -24z"/>
<path d="M690 15 c0 -8 9 -15 20 -15 11 0 20 2 20 5 0 2 -9 9 -20 15 -16 9
-20 8 -20 -5z"/>
</g>
</svg>
