<?xml version="1.0" standalone="no"?>
<!DOCTYPE svg PUBLIC "-//W3C//DTD SVG 20010904//EN"
 "http://www.w3.org/TR/2001/REC-SVG-20010904/DTD/svg10.dtd">
<svg version="1.0" xmlns="http://www.w3.org/2000/svg"
 width="96.000000pt" height="84.000000pt" viewBox="0 0 96.000000 84.000000"
 preserveAspectRatio="xMidYMid meet">
<metadata>
Created by potrace 1.16, written by Peter Selinger 2001-2019
</metadata>
<g transform="translate(0.000000,84.000000) scale(0.100000,-0.100000)"
fill="#000000" stroke="none">
<path d="M0 545 c0 -162 3 -295 6 -295 3 0 26 18 52 39 55 45 102 70 192 100
36 12 70 25 77 29 6 4 16 33 22 66 18 97 82 212 136 246 18 11 56 25 86 30 48
9 58 8 104 -15 63 -32 105 -85 105 -134 0 -37 -29 -133 -42 -139 -5 -2 -8 -13
-8 -25 0 -12 -7 -35 -15 -51 -8 -15 -15 -40 -16 -55 0 -14 -3 -20 -6 -13 -7
19 -22 14 -16 -6 3 -11 31 -28 79 -46 56 -22 74 -33 74 -47 0 -11 22 -59 49
-107 88 -154 80 -182 81 296 l0 422 -480 0 -480 0 0 -295z"/>
<path d="M270 289 c-57 -42 -107 -88 -80 -73 25 13 150 105 150 110 0 11 -20
1 -70 -37z"/>
<path d="M169 282 c-25 -15 -61 -39 -80 -54 -33 -27 -33 -28 -9 -27 16 0 46
19 84 54 33 30 57 55 55 55 -2 0 -25 -13 -50 -28z"/>
<path d="M287 263 c-43 -31 -47 -42 -11 -35 23 4 62 47 52 57 -2 2 -21 -7 -41
-22z"/>
<path d="M7 143 c-9 -8 -9 -53 -1 -53 8 0 43 43 44 53 0 9 -34 9 -43 0z"/>
<path d="M155 143 c-27 -5 -53 -43 -30 -43 32 0 105 23 116 36 9 12 5 14 -27
13 -22 -1 -48 -4 -59 -6z"/>
<path d="M138 83 c7 -3 16 -2 19 1 4 3 -2 6 -13 5 -11 0 -14 -3 -6 -6z"/>
<path d="M130 39 c-25 -4 -58 -13 -75 -20 -30 -14 -30 -14 27 -17 47 -2 62 1
80 17 27 26 23 29 -32 20z"/>
<path d="M710 15 c0 -9 9 -15 21 -15 18 0 19 2 9 15 -7 8 -16 15 -21 15 -5 0
-9 -7 -9 -15z"/>
</g>
</svg>
