<?xml version="1.0" standalone="no"?>
<!DOCTYPE svg PUBLIC "-//W3C//DTD SVG 20010904//EN"
 "http://www.w3.org/TR/2001/REC-SVG-20010904/DTD/svg10.dtd">
<svg version="1.0" xmlns="http://www.w3.org/2000/svg"
 width="96.000000pt" height="84.000000pt" viewBox="0 0 96.000000 84.000000"
 preserveAspectRatio="xMidYMid meet">
<metadata>
Created by potrace 1.16, written by Peter Selinger 2001-2019
</metadata>
<g transform="translate(0.000000,84.000000) scale(0.100000,-0.100000)"
fill="#000000" stroke="none">
<path d="M0 551 l0 -290 46 -7 c54 -8 120 0 169 20 32 14 35 19 35 56 0 60 29
229 45 259 17 33 92 104 133 125 39 20 84 20 147 -2 35 -12 51 -23 53 -37 1
-11 5 -36 8 -56 4 -22 2 -39 -5 -43 -18 -11 -13 -26 9 -26 14 0 20 -7 21 -22
2 -47 8 -102 13 -113 2 -7 -8 -22 -23 -33 -23 -17 -28 -28 -28 -65 -1 -38 2
-46 23 -56 14 -6 35 -11 47 -11 30 0 51 -15 52 -37 0 -10 24 -62 53 -116 l53
-97 55 0 54 0 0 420 0 420 -480 0 -480 0 0 -289z"/>
<path d="M0 90 l0 -90 103 0 102 0 22 42 c12 24 25 65 28 92 6 44 5 48 -12 42
-60 -24 -121 -28 -176 -12 -30 9 -58 16 -61 16 -3 0 -6 -40 -6 -90z"/>
</g>
</svg>
