<?xml version="1.0" standalone="no"?>
<!DOCTYPE svg PUBLIC "-//W3C//DTD SVG 20010904//EN"
 "http://www.w3.org/TR/2001/REC-SVG-20010904/DTD/svg10.dtd">
<svg version="1.0" xmlns="http://www.w3.org/2000/svg"
 width="96.000000pt" height="84.000000pt" viewBox="0 0 96.000000 84.000000"
 preserveAspectRatio="xMidYMid meet">
<metadata>
Created by potrace 1.16, written by Peter Selinger 2001-2019
</metadata>
<g transform="translate(0.000000,84.000000) scale(0.100000,-0.100000)"
fill="#000000" stroke="none">
<path d="M0 420 c0 -244 4 -420 9 -420 5 0 7 9 4 20 -7 28 6 92 18 85 5 -4 9
-21 9 -40 0 -44 9 -65 27 -65 12 0 14 9 9 42 -4 31 -3 37 3 23 5 -11 10 -30
10 -42 1 -19 7 -23 30 -23 17 0 33 6 38 13 4 6 8 111 9 232 0 186 3 226 18
260 21 49 77 108 134 142 37 22 52 25 100 20 66 -6 115 -25 108 -43 -2 -6 -1
-15 4 -20 14 -16 22 -72 11 -79 -18 -10 -12 -25 9 -25 15 0 20 -7 22 -27 1
-16 2 -36 3 -45 0 -9 4 -20 8 -24 17 -17 6 -62 -18 -78 -19 -13 -25 -25 -25
-55 0 -46 21 -68 70 -73 27 -2 35 -7 33 -22 -1 -11 4 -25 11 -31 7 -7 32 -42
57 -78 l44 -66 103 -1 102 0 0 420 0 420 -480 0 -480 0 0 -420z"/>
</g>
</svg>
