<?xml version="1.0" standalone="no"?>
<!DOCTYPE svg PUBLIC "-//W3C//DTD SVG 20010904//EN"
 "http://www.w3.org/TR/2001/REC-SVG-20010904/DTD/svg10.dtd">
<svg version="1.0" xmlns="http://www.w3.org/2000/svg"
 width="96.000000pt" height="84.000000pt" viewBox="0 0 96.000000 84.000000"
 preserveAspectRatio="xMidYMid meet">
<metadata>
Created by potrace 1.16, written by Peter Selinger 2001-2019
</metadata>
<g transform="translate(0.000000,84.000000) scale(0.100000,-0.100000)"
fill="#000000" stroke="none">
<path d="M0 420 l0 -420 23 0 22 0 1 188 c0 113 5 203 12 229 15 51 86 132
149 168 40 24 53 27 107 22 93 -7 111 -19 126 -83 10 -42 11 -57 2 -66 -17
-17 -15 -28 6 -28 15 0 22 -15 35 -73 l16 -72 -26 -21 c-18 -15 -27 -34 -30
-62 -4 -46 3 -54 62 -62 26 -3 40 -10 40 -20 0 -8 26 -38 57 -67 l58 -53 150
0 150 0 0 420 0 420 -480 0 -480 0 0 -420z"/>
</g>
</svg>
