<?xml version="1.0" standalone="no"?>
<!DOCTYPE svg PUBLIC "-//W3C//DTD SVG 20010904//EN"
 "http://www.w3.org/TR/2001/REC-SVG-20010904/DTD/svg10.dtd">
<svg version="1.0" xmlns="http://www.w3.org/2000/svg"
 width="96.000000pt" height="84.000000pt" viewBox="0 0 96.000000 84.000000"
 preserveAspectRatio="xMidYMid meet">
<metadata>
Created by potrace 1.16, written by Peter Selinger 2001-2019
</metadata>
<g transform="translate(0.000000,84.000000) scale(0.100000,-0.100000)"
fill="#000000" stroke="none">
<path d="M0 655 c0 -102 2 -185 4 -185 2 0 27 16 55 35 29 19 67 37 86 41 61
11 196 -30 180 -56 -3 -5 -1 -11 5 -15 14 -8 13 -92 -1 -101 -8 -5 -6 -10 5
-16 9 -5 20 -7 24 -4 8 5 32 -101 32 -142 0 -11 -11 -29 -24 -39 -14 -11 -26
-33 -29 -56 -5 -34 -3 -39 19 -48 14 -5 30 -7 35 -3 13 7 51 -5 44 -15 -2 -5
18 -18 47 -30 46 -19 69 -21 264 -21 l214 0 0 420 0 420 -480 0 -480 0 0 -185z"/>
</g>
</svg>
