<?xml version="1.0" standalone="no"?>
<!DOCTYPE svg PUBLIC "-//W3C//DTD SVG 20010904//EN"
 "http://www.w3.org/TR/2001/REC-SVG-20010904/DTD/svg10.dtd">
<svg version="1.0" xmlns="http://www.w3.org/2000/svg"
 width="96.000000pt" height="84.000000pt" viewBox="0 0 96.000000 84.000000"
 preserveAspectRatio="xMidYMid meet">
<metadata>
Created by potrace 1.16, written by Peter Selinger 2001-2019
</metadata>
<g transform="translate(0.000000,84.000000) scale(0.100000,-0.100000)"
fill="#000000" stroke="none">
<path d="M0 661 l0 -178 59 -6 c32 -2 78 -14 103 -24 36 -17 46 -27 57 -61 13
-39 12 -67 -4 -104 -5 -14 -2 -18 12 -18 16 0 22 -11 31 -64 17 -90 15 -114
-8 -126 -12 -6 -20 -21 -20 -35 0 -14 -5 -25 -11 -25 -5 0 -7 -5 -4 -10 4 -6
65 -10 151 -10 120 0 159 4 220 22 l75 21 45 -21 c37 -18 62 -22 149 -22 l105
0 0 420 0 420 -480 0 -480 0 0 -179z"/>
</g>
</svg>
