<?xml version="1.0" standalone="no"?>
<!DOCTYPE svg PUBLIC "-//W3C//DTD SVG 20010904//EN"
 "http://www.w3.org/TR/2001/REC-SVG-20010904/DTD/svg10.dtd">
<svg version="1.0" xmlns="http://www.w3.org/2000/svg"
 width="96.000000pt" height="84.000000pt" viewBox="0 0 96.000000 84.000000"
 preserveAspectRatio="xMidYMid meet">
<metadata>
Created by potrace 1.16, written by Peter Selinger 2001-2019
</metadata>
<g transform="translate(0.000000,84.000000) scale(0.100000,-0.100000)"
fill="#000000" stroke="none">
<path d="M0 617 l0 -223 46 -22 c26 -13 44 -25 41 -28 -2 -3 1 -24 8 -48 8
-26 10 -48 4 -57 -14 -23 -11 -59 6 -59 9 0 16 -10 17 -27 1 -28 5 -58 12
-103 2 -14 4 -31 5 -37 1 -10 37 -13 146 -13 l145 0 71 71 c101 101 185 132
257 95 32 -16 67 -76 77 -128 l7 -38 59 0 59 0 0 420 0 420 -480 0 -480 0 0
-223z"/>
</g>
</svg>
