<?xml version="1.0" standalone="no"?>
<!DOCTYPE svg PUBLIC "-//W3C//DTD SVG 20010904//EN"
 "http://www.w3.org/TR/2001/REC-SVG-20010904/DTD/svg10.dtd">
<svg version="1.0" xmlns="http://www.w3.org/2000/svg"
 width="96.000000pt" height="84.000000pt" viewBox="0 0 96.000000 84.000000"
 preserveAspectRatio="xMidYMid meet">
<metadata>
Created by potrace 1.16, written by Peter Selinger 2001-2019
</metadata>
<g transform="translate(0.000000,84.000000) scale(0.100000,-0.100000)"
fill="#000000" stroke="none">
<path d="M0 420 l0 -421 138 3 137 3 65 122 c36 68 74 134 85 149 27 34 86 47
137 30 44 -16 113 -72 122 -101 10 -33 7 -173 -4 -180 -30 -19 3 -25 135 -25
l145 0 0 395 c0 338 -2 396 -15 401 -8 3 -17 14 -20 25 -6 18 -23 19 -466 19
l-459 0 0 -420z"/>
</g>
</svg>
