<?xml version="1.0" standalone="no"?>
<!DOCTYPE svg PUBLIC "-//W3C//DTD SVG 20010904//EN"
 "http://www.w3.org/TR/2001/REC-SVG-20010904/DTD/svg10.dtd">
<svg version="1.0" xmlns="http://www.w3.org/2000/svg"
 width="96.000000pt" height="84.000000pt" viewBox="0 0 96.000000 84.000000"
 preserveAspectRatio="xMidYMid meet">
<metadata>
Created by potrace 1.16, written by Peter Selinger 2001-2019
</metadata>
<g transform="translate(0.000000,84.000000) scale(0.100000,-0.100000)"
fill="#000000" stroke="none">
<path d="M420 808 c5 -17 17 -39 27 -50 14 -15 15 -22 5 -36 -31 -44 -43 -76
-49 -131 -7 -70 7 -100 57 -121 25 -11 30 -17 26 -35 -4 -15 -1 -25 10 -29 11
-4 15 -21 15 -68 1 -35 3 -100 6 -145 2 -46 2 -83 -2 -83 -3 0 -28 19 -56 43
-35 30 -49 49 -49 67 0 72 -77 96 -124 39 -14 -17 -26 -41 -26 -54 0 -58 47
-125 87 -125 18 0 23 -4 19 -17 -2 -10 -7 -28 -11 -40 l-6 -23 226 0 c203 0
226 2 221 16 -9 24 -20 184 -12 184 3 0 11 -11 16 -25 5 -14 14 -25 20 -25 14
0 13 4 -11 50 -12 23 -23 62 -25 88 -2 26 -1 40 2 32 6 -14 23 -28 40 -33 10
-3 4 248 -7 308 -5 28 -20 73 -34 101 -14 28 -25 56 -25 62 0 6 -13 26 -29 45
l-30 33 -145 2 -144 1 8 -31z m194 -454 c3 -8 -8 -38 -24 -67 -38 -65 -38 -50
-4 71 5 17 21 15 28 -4z m-74 -161 c-11 -17 -11 -17 -6 0 3 10 7 26 7 35 1 15
2 15 6 0 2 -10 -1 -25 -7 -35z"/>
</g>
</svg>
