<?xml version="1.0" standalone="no"?>
<!DOCTYPE svg PUBLIC "-//W3C//DTD SVG 20010904//EN"
 "http://www.w3.org/TR/2001/REC-SVG-20010904/DTD/svg10.dtd">
<svg version="1.0" xmlns="http://www.w3.org/2000/svg"
 width="96.000000pt" height="84.000000pt" viewBox="0 0 96.000000 84.000000"
 preserveAspectRatio="xMidYMid meet">
<metadata>
Created by potrace 1.16, written by Peter Selinger 2001-2019
</metadata>
<g transform="translate(0.000000,84.000000) scale(0.100000,-0.100000)"
fill="#000000" stroke="none">
<path d="M0 420 l0 -420 94 0 95 0 37 62 c21 35 66 107 102 161 52 80 68 97
85 95 21 -3 22 1 23 87 1 50 2 100 3 113 1 28 29 29 39 1 6 -16 12 -2 25 59
19 87 50 141 62 110 8 -21 2 -79 -13 -125 -6 -18 -7 -33 -2 -33 5 0 11 8 14
18 10 31 73 92 95 92 17 0 21 -6 21 -35 0 -28 -5 -37 -30 -50 -16 -8 -35 -25
-41 -37 -10 -18 -5 -16 29 10 22 18 52 32 67 32 24 0 26 -3 23 -32 -2 -28 -8
-34 -33 -39 l-30 -6 30 -4 c22 -3 31 -10 33 -28 4 -29 -15 -52 -27 -33 -16 26
-56 -6 -69 -54 -7 -24 -27 -61 -45 -81 l-34 -36 39 -55 c32 -46 38 -64 38
-105 0 -38 -5 -53 -22 -68 -23 -18 -20 -18 165 -19 l187 0 0 359 0 360 -31 33
c-17 18 -35 45 -41 61 l-10 27 -439 0 -439 0 0 -420z"/>
</g>
</svg>
