<?xml version="1.0" standalone="no"?>
<!DOCTYPE svg PUBLIC "-//W3C//DTD SVG 20010904//EN"
 "http://www.w3.org/TR/2001/REC-SVG-20010904/DTD/svg10.dtd">
<svg version="1.0" xmlns="http://www.w3.org/2000/svg"
 width="96.000000pt" height="84.000000pt" viewBox="0 0 96.000000 84.000000"
 preserveAspectRatio="xMidYMid meet">
<metadata>
Created by potrace 1.16, written by Peter Selinger 2001-2019
</metadata>
<g transform="translate(0.000000,84.000000) scale(0.100000,-0.100000)"
fill="#000000" stroke="none">
<path d="M0 420 l0 -420 78 0 78 0 95 142 c79 120 99 144 125 150 28 7 32 13
41 56 7 35 6 58 -3 83 -19 53 -17 79 6 79 11 0 20 -5 20 -11 0 -5 5 -7 10 -4
6 3 10 43 10 88 0 79 11 120 27 104 4 -5 10 -45 13 -90 l5 -82 35 70 c33 66
60 94 60 63 0 -8 -11 -41 -24 -74 -44 -110 -43 -114 11 -56 47 50 73 65 73 41
0 -5 -18 -33 -39 -62 -22 -28 -39 -53 -37 -54 2 -2 19 4 39 12 81 34 91 9 13
-35 -46 -27 -54 -35 -60 -68 -3 -20 -19 -59 -36 -85 l-31 -49 40 -59 c34 -51
39 -66 37 -109 l-2 -50 188 0 188 0 0 336 0 336 -39 40 c-22 21 -47 59 -57 84
l-17 44 -423 0 -424 0 0 -420z"/>
</g>
</svg>
