<?xml version="1.0" standalone="no"?>
<!DOCTYPE svg PUBLIC "-//W3C//DTD SVG 20010904//EN"
 "http://www.w3.org/TR/2001/REC-SVG-20010904/DTD/svg10.dtd">
<svg version="1.0" xmlns="http://www.w3.org/2000/svg"
 width="96.000000pt" height="84.000000pt" viewBox="0 0 96.000000 84.000000"
 preserveAspectRatio="xMidYMid meet">
<metadata>
Created by potrace 1.16, written by Peter Selinger 2001-2019
</metadata>
<g transform="translate(0.000000,84.000000) scale(0.100000,-0.100000)"
fill="#000000" stroke="none">
<path d="M0 420 l0 -420 63 0 62 0 36 63 c68 115 125 185 155 189 24 3 29 9
40 56 8 38 9 65 2 93 -12 47 -5 69 21 69 18 0 20 8 23 83 2 65 6 82 18 82 12
0 16 -17 20 -75 l5 -75 28 57 c24 49 51 77 64 65 2 -3 -6 -29 -18 -58 -12 -30
-25 -67 -30 -83 -9 -29 -8 -29 34 12 39 39 67 53 67 35 0 -5 -16 -28 -35 -52
-39 -48 -44 -67 -17 -56 9 5 33 10 52 12 33 4 34 3 15 -12 -11 -9 -35 -26 -54
-38 -27 -17 -38 -33 -47 -69 -6 -25 -21 -60 -33 -77 l-21 -30 40 -62 c29 -45
40 -72 38 -94 l-3 -30 218 -3 217 -2 0 302 -1 303 -50 24 c-59 29 -104 89
-121 162 l-11 49 -389 0 -388 0 0 -420z"/>
</g>
</svg>
