<?xml version="1.0" standalone="no"?>
<!DOCTYPE svg PUBLIC "-//W3C//DTD SVG 20010904//EN"
 "http://www.w3.org/TR/2001/REC-SVG-20010904/DTD/svg10.dtd">
<svg version="1.0" xmlns="http://www.w3.org/2000/svg"
 width="96.000000pt" height="84.000000pt" viewBox="0 0 96.000000 84.000000"
 preserveAspectRatio="xMidYMid meet">
<metadata>
Created by potrace 1.16, written by Peter Selinger 2001-2019
</metadata>
<g transform="translate(0.000000,84.000000) scale(0.100000,-0.100000)"
fill="#000000" stroke="none">
<path d="M0 419 l0 -420 37 3 c34 3 41 10 93 86 60 89 73 102 105 102 28 0 49
91 33 147 -9 34 -8 39 15 58 22 17 25 30 29 92 6 120 47 127 48 8 l1 -60 25
52 c21 44 49 72 61 60 2 -2 -8 -34 -22 -71 -14 -36 -25 -71 -25 -76 0 -6 18 8
40 30 38 38 60 50 60 32 0 -5 -16 -31 -35 -58 -19 -27 -35 -52 -35 -56 0 -3
18 1 40 9 28 11 44 13 51 6 7 -7 -7 -20 -45 -42 -47 -26 -56 -36 -56 -59 0
-16 -11 -50 -24 -77 l-25 -48 24 -32 c14 -17 31 -48 40 -68 l15 -37 255 0 255
0 0 260 c0 237 -1 260 -17 260 -31 0 -106 43 -146 84 -48 50 -83 120 -92 186
l-7 50 -349 0 -349 0 0 -421z"/>
</g>
</svg>
