<?xml version="1.0" standalone="no"?>
<!DOCTYPE svg PUBLIC "-//W3C//DTD SVG 20010904//EN"
 "http://www.w3.org/TR/2001/REC-SVG-20010904/DTD/svg10.dtd">
<svg version="1.0" xmlns="http://www.w3.org/2000/svg"
 width="96.000000pt" height="84.000000pt" viewBox="0 0 96.000000 84.000000"
 preserveAspectRatio="xMidYMid meet">
<metadata>
Created by potrace 1.16, written by Peter Selinger 2001-2019
</metadata>
<g transform="translate(0.000000,84.000000) scale(0.100000,-0.100000)"
fill="#000000" stroke="none">
<path d="M0 420 c0 -231 2 -420 4 -420 2 0 21 22 41 50 25 33 47 53 68 58 27
7 33 15 42 53 8 29 8 57 2 82 -10 39 2 67 28 67 12 0 25 63 25 126 0 41 9 64
25 64 18 0 27 -44 19 -96 -3 -24 -4 -44 -1 -44 2 0 17 24 31 54 23 47 51 75
63 63 2 -2 -8 -34 -22 -71 -14 -36 -25 -70 -25 -75 0 -5 17 9 39 30 36 36 61
49 61 31 0 -4 -16 -29 -35 -56 -19 -27 -33 -51 -31 -53 2 -2 15 1 30 7 34 13
66 13 66 1 0 -6 -23 -22 -52 -38 -48 -26 -53 -31 -64 -81 -6 -30 -17 -59 -23
-65 -17 -17 -13 -35 16 -73 l28 -34 313 0 312 0 -2 171 -3 172 -40 12 c-77 23
-151 68 -213 132 -73 74 -118 158 -147 276 l-19 77 -268 0 -268 0 0 -420z"/>
</g>
</svg>
