<?xml version="1.0" standalone="no"?>
<!DOCTYPE svg PUBLIC "-//W3C//DTD SVG 20010904//EN"
 "http://www.w3.org/TR/2001/REC-SVG-20010904/DTD/svg10.dtd">
<svg version="1.0" xmlns="http://www.w3.org/2000/svg"
 width="96.000000pt" height="84.000000pt" viewBox="0 0 96.000000 84.000000"
 preserveAspectRatio="xMidYMid meet">
<metadata>
Created by potrace 1.16, written by Peter Selinger 2001-2019
</metadata>
<g transform="translate(0.000000,84.000000) scale(0.100000,-0.100000)"
fill="#000000" stroke="none">
<path d="M0 434 c0 -310 3 -405 12 -402 20 7 29 60 18 106 -12 48 -2 72 30 72
20 0 25 16 35 118 8 72 35 113 46 71 4 -13 4 -48 2 -76 -3 -29 -3 -53 0 -53 3
0 15 19 25 43 22 48 72 101 72 75 0 -8 -14 -48 -30 -88 -17 -40 -29 -75 -26
-77 2 -2 15 12 30 32 30 39 73 71 83 62 3 -3 -10 -28 -29 -54 -53 -73 -53 -73
-9 -56 41 16 78 12 66 -8 -4 -6 -26 -19 -49 -28 -51 -22 -59 -33 -76 -94 -7
-26 -17 -50 -21 -53 -34 -20 25 -24 386 -24 l395 0 0 74 0 73 -67 11 c-78 13
-210 74 -272 126 -46 39 -125 128 -146 166 -69 125 -100 214 -111 320 l-7 70
-178 0 -179 0 0 -406z"/>
</g>
</svg>
