<?xml version="1.0" standalone="no"?>
<!DOCTYPE svg PUBLIC "-//W3C//DTD SVG 20010904//EN"
 "http://www.w3.org/TR/2001/REC-SVG-20010904/DTD/svg10.dtd">
<svg version="1.0" xmlns="http://www.w3.org/2000/svg"
 width="96.000000pt" height="84.000000pt" viewBox="0 0 96.000000 84.000000"
 preserveAspectRatio="xMidYMid meet">
<metadata>
Created by potrace 1.16, written by Peter Selinger 2001-2019
</metadata>
<g transform="translate(0.000000,84.000000) scale(0.100000,-0.100000)"
fill="#000000" stroke="none">
<path d="M0 575 c0 -242 1 -264 17 -258 14 6 16 -2 10 -75 -3 -45 -3 -82 -1
-82 2 0 13 19 25 42 30 59 60 98 76 98 17 0 18 4 -22 -83 -19 -42 -35 -79 -35
-83 0 -4 24 16 54 45 51 47 76 62 76 43 0 -4 -20 -32 -45 -62 -46 -56 -50 -69
-17 -51 26 14 82 14 82 1 0 -5 -26 -22 -57 -37 -35 -17 -60 -37 -65 -50 l-7
-23 302 0 301 0 -78 40 c-155 79 -280 199 -333 316 -59 134 -101 266 -108 339
-3 39 -8 87 -11 108 l-6 37 -79 0 -79 0 0 -265z"/>
</g>
</svg>
