<?xml version="1.0" standalone="no"?>
<!DOCTYPE svg PUBLIC "-//W3C//DTD SVG 20010904//EN"
 "http://www.w3.org/TR/2001/REC-SVG-20010904/DTD/svg10.dtd">
<svg version="1.0" xmlns="http://www.w3.org/2000/svg"
 width="96.000000pt" height="84.000000pt" viewBox="0 0 96.000000 84.000000"
 preserveAspectRatio="xMidYMid meet">
<metadata>
Created by potrace 1.16, written by Peter Selinger 2001-2019
</metadata>
<g transform="translate(0.000000,84.000000) scale(0.100000,-0.100000)"
fill="#000000" stroke="none">
<path d="M1 336 c-1 -132 1 -147 14 -136 25 21 28 4 6 -39 -12 -22 -21 -52
-21 -67 l0 -26 35 31 c31 27 65 41 65 26 0 -2 -21 -27 -46 -56 -25 -28 -44
-53 -42 -55 2 -2 21 2 42 8 33 10 40 10 51 -5 10 -13 28 -17 90 -17 l77 0 -48
58 c-27 31 -54 60 -60 64 -20 13 -95 169 -130 268 l-33 95 0 -149z"/>
</g>
</svg>
