<?xml version="1.0" standalone="no"?>
<!DOCTYPE svg PUBLIC "-//W3C//DTD SVG 20010904//EN"
 "http://www.w3.org/TR/2001/REC-SVG-20010904/DTD/svg10.dtd">
<svg version="1.0" xmlns="http://www.w3.org/2000/svg"
 width="96.000000pt" height="84.000000pt" viewBox="0 0 96.000000 84.000000"
 preserveAspectRatio="xMidYMid meet">
<metadata>
Created by potrace 1.16, written by Peter Selinger 2001-2019
</metadata>
<g transform="translate(0.000000,84.000000) scale(0.100000,-0.100000)"
fill="#000000" stroke="none">
<path d="M360 824 c0 -20 18 -54 41 -80 19 -20 19 -22 -1 -65 -28 -62 -27
-157 1 -193 11 -14 25 -24 30 -20 6 3 16 0 24 -6 8 -7 15 -9 16 -4 2 18 20
-64 30 -136 5 -41 13 -97 17 -125 6 -41 -2 -119 -14 -133 -4 -6 -128 30 -141
41 -7 5 -13 21 -13 36 0 66 -59 91 -113 47 -31 -25 -38 -61 -24 -116 19 -72 8
-70 325 -70 l285 0 -7 51 c-4 29 -10 65 -13 80 -4 22 -2 29 11 29 21 0 20 7
-9 55 -19 30 -25 53 -24 95 0 46 2 51 10 31 5 -14 15 -31 21 -38 17 -20 28 3
18 37 -4 15 -6 47 -3 72 6 52 -10 167 -33 235 -16 49 -88 172 -108 185 -6 4
-82 7 -168 7 -135 0 -158 -2 -158 -15z m260 -483 c0 -3 -10 -17 -21 -31 l-21
-25 6 25 c3 14 6 36 6 50 1 24 1 24 15 6 8 -11 15 -22 15 -25z m148 -21 c0 -9
-3 -7 -8 5 -5 11 -8 29 -8 40 0 16 2 15 8 -5 4 -14 8 -32 8 -40z m-222 -111
c-9 -19 -14 -25 -12 -14 2 11 8 43 12 70 8 48 8 49 12 14 2 -20 -4 -52 -12
-70z"/>
</g>
</svg>
