<?xml version="1.0" standalone="no"?>
<!DOCTYPE svg PUBLIC "-//W3C//DTD SVG 20010904//EN"
 "http://www.w3.org/TR/2001/REC-SVG-20010904/DTD/svg10.dtd">
<svg version="1.0" xmlns="http://www.w3.org/2000/svg"
 width="96.000000pt" height="84.000000pt" viewBox="0 0 96.000000 84.000000"
 preserveAspectRatio="xMidYMid meet">
<metadata>
Created by potrace 1.16, written by Peter Selinger 2001-2019
</metadata>
<g transform="translate(0.000000,84.000000) scale(0.100000,-0.100000)"
fill="#000000" stroke="none">
<path d="M459 187 c-10 -14 -14 -35 -11 -58 2 -20 0 -39 -5 -42 -5 -3 -7 -24
-5 -46 4 -40 5 -41 42 -41 37 0 38 1 42 41 2 22 0 43 -5 46 -5 3 -7 22 -4 42
3 26 -1 43 -13 59 -22 27 -21 27 -41 -1z"/>
<path d="M163 173 c-4 -10 -14 -24 -24 -30 -18 -13 -16 -46 4 -71 8 -10 7 -16
-6 -23 -9 -6 -17 -19 -17 -29 0 -17 7 -20 49 -20 37 0 50 4 55 17 4 10 1 22
-8 28 -10 8 -12 20 -7 45 10 52 -30 125 -46 83z"/>
<path d="M768 152 c-21 -23 -24 -33 -17 -62 4 -19 3 -42 -2 -52 -17 -32 -10
-38 46 -38 58 0 63 5 41 35 -9 13 -11 29 -5 53 6 30 4 40 -15 63 l-24 28 -24
-27z"/>
</g>
</svg>
