<?xml version="1.0" standalone="no"?>
<!DOCTYPE svg PUBLIC "-//W3C//DTD SVG 20010904//EN"
 "http://www.w3.org/TR/2001/REC-SVG-20010904/DTD/svg10.dtd">
<svg version="1.0" xmlns="http://www.w3.org/2000/svg"
 width="96.000000pt" height="84.000000pt" viewBox="0 0 96.000000 84.000000"
 preserveAspectRatio="xMidYMid meet">
<metadata>
Created by potrace 1.16, written by Peter Selinger 2001-2019
</metadata>
<g transform="translate(0.000000,84.000000) scale(0.100000,-0.100000)"
fill="#000000" stroke="none">
<path d="M305 821 c-8 -25 7 -55 48 -98 27 -29 29 -35 19 -58 -7 -14 -12 -59
-12 -100 0 -84 16 -110 77 -121 25 -5 33 -11 34 -28 1 -62 10 -143 18 -161 5
-11 15 -40 22 -65 l14 -45 5 105 c5 106 10 115 28 48 7 -27 7 -43 -3 -61 -7
-13 -18 -70 -25 -125 l-12 -101 -42 -4 c-22 -2 46 -4 152 -5 180 -2 193 -1
189 16 -3 9 -8 40 -12 67 -3 28 -8 59 -11 70 -5 18 -4 19 6 2 6 -10 17 -48 24
-85 10 -57 15 -67 34 -70 14 -2 22 2 22 11 0 26 -51 190 -81 262 -33 80 -37
104 -10 59 27 -44 40 -50 35 -17 -5 27 -6 49 -3 76 6 73 -49 272 -95 342 -18
28 -41 63 -50 79 l-18 28 -82 -6 c-90 -8 -92 -8 -193 0 -65 5 -72 4 -78 -15z
m305 -485 c0 -7 -6 -20 -13 -30 -11 -15 -12 -12 -12 23 0 31 2 37 12 29 7 -6
13 -16 13 -22z"/>
<path d="M198 69 c-17 -13 -28 -30 -28 -45 0 -23 2 -24 74 -24 l74 0 -8 34
c-4 18 -10 39 -14 45 -11 18 -69 12 -98 -10z"/>
</g>
</svg>
