<?xml version="1.0" standalone="no"?>
<!DOCTYPE svg PUBLIC "-//W3C//DTD SVG 20010904//EN"
 "http://www.w3.org/TR/2001/REC-SVG-20010904/DTD/svg10.dtd">
<svg version="1.0" xmlns="http://www.w3.org/2000/svg"
 width="96.000000pt" height="84.000000pt" viewBox="0 0 96.000000 84.000000"
 preserveAspectRatio="xMidYMid meet">
<metadata>
Created by potrace 1.16, written by Peter Selinger 2001-2019
</metadata>
<g transform="translate(0.000000,84.000000) scale(0.100000,-0.100000)"
fill="#000000" stroke="none">
<path d="M459 187 c-10 -14 -14 -35 -11 -59 2 -21 0 -38 -5 -38 -5 0 -9 -20
-9 -45 l-1 -45 43 0 44 0 0 43 c0 24 -4 47 -10 53 -6 6 -6 21 -1 40 6 23 4 35
-9 52 -22 27 -21 27 -41 -1z"/>
<path d="M160 176 c0 -7 -7 -19 -15 -26 -16 -13 -16 -45 -1 -69 7 -10 3 -19
-11 -28 -14 -9 -19 -21 -16 -34 4 -15 14 -19 53 -19 39 0 49 4 53 20 3 13 -2
25 -16 35 -15 11 -18 18 -11 23 15 9 19 51 9 77 -14 33 -45 47 -45 21z"/>
<path d="M770 160 c-20 -15 -22 -23 -18 -64 3 -25 2 -49 -3 -52 -5 -3 -9 -14
-9 -25 0 -16 7 -19 55 -19 59 0 66 9 36 39 -10 10 -15 23 -11 28 17 17 14 60
-6 85 -20 25 -21 25 -44 8z"/>
</g>
</svg>
