<?xml version="1.0" standalone="no"?>
<!DOCTYPE svg PUBLIC "-//W3C//DTD SVG 20010904//EN"
 "http://www.w3.org/TR/2001/REC-SVG-20010904/DTD/svg10.dtd">
<svg version="1.0" xmlns="http://www.w3.org/2000/svg"
 width="96.000000pt" height="84.000000pt" viewBox="0 0 96.000000 84.000000"
 preserveAspectRatio="xMidYMid meet">
<metadata>
Created by potrace 1.16, written by Peter Selinger 2001-2019
</metadata>
<g transform="translate(0.000000,84.000000) scale(0.100000,-0.100000)"
fill="#000000" stroke="none">
<path d="M468 206 c-9 -13 -15 -37 -14 -56 2 -19 -1 -40 -6 -46 -5 -7 -6 -30
-2 -53 5 -33 12 -43 32 -48 39 -9 57 8 57 57 1 23 -4 44 -10 46 -6 3 -9 20 -7
39 3 23 -2 42 -15 58 l-18 24 -17 -21z"/>
<path d="M161 187 c-5 -14 -15 -28 -20 -32 -12 -7 -5 -53 10 -69 13 -15 11
-26 -6 -26 -10 0 -15 -10 -15 -30 0 -29 1 -30 50 -30 46 0 50 2 50 24 0 14 -4
27 -9 31 -6 3 -8 28 -6 55 2 28 -1 50 -6 50 -5 0 -9 6 -9 14 0 7 -7 19 -15 26
-12 10 -16 8 -24 -13z"/>
<path d="M779 176 c-21 -26 -24 -37 -19 -69 4 -21 3 -40 -2 -43 -4 -3 -8 -18
-8 -35 l0 -29 93 1 c61 1 84 4 67 9 -14 4 -21 8 -17 9 6 1 -48 51 -60 56 -1 0
2 17 6 37 7 29 5 40 -6 50 -8 7 -18 19 -22 28 -5 13 -11 10 -32 -14z"/>
</g>
</svg>
