<?xml version="1.0" standalone="no"?>
<!DOCTYPE svg PUBLIC "-//W3C//DTD SVG 20010904//EN"
 "http://www.w3.org/TR/2001/REC-SVG-20010904/DTD/svg10.dtd">
<svg version="1.0" xmlns="http://www.w3.org/2000/svg"
 width="96.000000pt" height="84.000000pt" viewBox="0 0 96.000000 84.000000"
 preserveAspectRatio="xMidYMid meet">
<metadata>
Created by potrace 1.16, written by Peter Selinger 2001-2019
</metadata>
<g transform="translate(0.000000,84.000000) scale(0.100000,-0.100000)"
fill="#000000" stroke="none">
<path d="M896 255 c-9 -26 -7 -32 5 -12 6 10 9 21 6 23 -2 3 -7 -2 -11 -11z"/>
<path d="M476 228 c-14 -47 -13 -123 2 -147 8 -14 12 -35 8 -52 -5 -27 -4 -29
28 -29 32 0 33 1 32 45 -1 41 0 44 22 38 17 -4 23 -1 21 8 -1 8 1 22 5 32 11
23 -1 54 -15 40 -19 -19 -49 -3 -49 27 0 23 -26 60 -42 60 -3 0 -9 -10 -12
-22z"/>
<path d="M177 196 c-26 -26 -28 -34 -22 -73 5 -37 4 -43 -11 -43 -10 0 -25 6
-33 14 -17 15 -71 11 -71 -6 0 -5 4 -6 10 -3 16 10 100 -45 100 -66 0 -15 7
-19 34 -19 29 0 34 4 39 28 3 15 1 32 -4 39 -7 7 -6 14 2 18 8 5 10 26 6 61
-8 77 -16 85 -50 50z"/>
<path d="M769 194 c-10 -22 -13 -36 -6 -43 5 -5 9 -31 9 -56 -2 -60 20 -95 59
-95 24 0 28 4 31 32 2 27 8 34 30 38 15 3 37 13 48 22 25 22 27 52 3 45 -10
-3 -33 -10 -50 -15 -27 -9 -33 -8 -33 4 0 8 -4 14 -10 14 -5 0 -10 14 -10 30
0 19 -5 30 -14 30 -8 0 -21 6 -28 13 -11 11 -16 8 -29 -19z"/>
</g>
</svg>
