<?xml version="1.0" standalone="no"?>
<!DOCTYPE svg PUBLIC "-//W3C//DTD SVG 20010904//EN"
 "http://www.w3.org/TR/2001/REC-SVG-20010904/DTD/svg10.dtd">
<svg version="1.0" xmlns="http://www.w3.org/2000/svg"
 width="96.000000pt" height="84.000000pt" viewBox="0 0 96.000000 84.000000"
 preserveAspectRatio="xMidYMid meet">
<metadata>
Created by potrace 1.16, written by Peter Selinger 2001-2019
</metadata>
<g transform="translate(0.000000,84.000000) scale(0.100000,-0.100000)"
fill="#000000" stroke="none">
<path d="M480 242 c0 -10 -3 -21 -6 -25 -11 -11 -10 -109 2 -126 16 -24 23
-60 13 -67 -20 -12 -7 -24 27 -24 l36 0 -4 50 c-3 49 -2 51 21 45 20 -5 23 -3
18 14 -3 12 -2 21 3 21 13 0 19 26 9 41 -6 10 -11 11 -19 3 -20 -20 -50 -4
-50 25 -1 16 -10 33 -25 44 -24 17 -25 17 -25 -1z"/>
<path d="M198 210 c-10 -11 -24 -20 -32 -20 -10 0 -13 -13 -10 -55 4 -59 3
-61 -43 -45 -18 7 -39 7 -54 2 -24 -9 -24 -9 8 -16 17 -4 37 -14 44 -22 6 -8
18 -14 25 -14 8 0 14 -9 14 -20 0 -16 7 -20 38 -20 l38 0 0 48 c0 26 1 63 3
82 1 19 -1 50 -6 68 -8 32 -8 32 -25 12z"/>
<path d="M767 191 c-10 -20 -10 -31 -1 -50 7 -13 10 -38 7 -55 -3 -22 0 -36
11 -45 9 -7 16 -20 16 -27 0 -9 12 -14 35 -14 34 0 36 1 33 34 -2 41 14 63 56
74 21 6 32 15 34 30 3 21 2 21 -32 7 -46 -19 -70 -19 -63 -1 4 10 1 13 -8 10
-8 -4 -15 5 -20 24 -9 42 -50 50 -68 13z"/>
</g>
</svg>
