<?xml version="1.0" standalone="no"?>
<!DOCTYPE svg PUBLIC "-//W3C//DTD SVG 20010904//EN"
 "http://www.w3.org/TR/2001/REC-SVG-20010904/DTD/svg10.dtd">
<svg version="1.0" xmlns="http://www.w3.org/2000/svg"
 width="96.000000pt" height="84.000000pt" viewBox="0 0 96.000000 84.000000"
 preserveAspectRatio="xMidYMid meet">
<metadata>
Created by potrace 1.16, written by Peter Selinger 2001-2019
</metadata>
<g transform="translate(0.000000,84.000000) scale(0.100000,-0.100000)"
fill="#000000" stroke="none">
<path d="M475 227 c-6 -12 -8 -39 -4 -59 3 -23 2 -39 -5 -41 -7 -3 -4 -17 8
-40 12 -23 16 -45 12 -61 -6 -24 -4 -26 27 -26 33 0 34 0 33 45 -1 43 0 46 22
40 16 -4 22 -1 21 7 -1 7 1 21 5 31 11 23 -1 54 -15 40 -20 -20 -49 -3 -49 30
0 17 -8 36 -17 43 -24 18 -26 17 -38 -9z"/>
<path d="M772 201 c-6 -18 -7 -42 -3 -58 5 -16 6 -42 4 -59 -3 -20 1 -35 11
-43 9 -8 16 -20 16 -27 0 -9 12 -14 35 -14 34 0 36 1 33 34 -2 38 15 66 42 66
29 0 50 11 50 26 0 16 -5 17 -47 5 -41 -12 -73 -4 -71 18 3 42 -3 61 -20 61
-10 0 -23 5 -29 11 -7 7 -14 2 -21 -20z"/>
<path d="M200 212 c0 -5 -10 -14 -23 -21 -25 -13 -32 -47 -18 -84 10 -27 -12
-47 -51 -47 -34 0 -68 -11 -68 -21 0 -5 3 -8 7 -8 5 1 31 0 58 -1 32 -2 40 -4
22 -7 -46 -7 -19 -23 39 -23 l54 0 0 38 c1 20 5 56 9 80 5 23 5 45 0 48 -5 3
-9 16 -9 30 0 13 -4 24 -10 24 -5 0 -10 -4 -10 -8z"/>
</g>
</svg>
