<?xml version="1.0" standalone="no"?>
<!DOCTYPE svg PUBLIC "-//W3C//DTD SVG 20010904//EN"
 "http://www.w3.org/TR/2001/REC-SVG-20010904/DTD/svg10.dtd">
<svg version="1.0" xmlns="http://www.w3.org/2000/svg"
 width="96.000000pt" height="84.000000pt" viewBox="0 0 96.000000 84.000000"
 preserveAspectRatio="xMidYMid meet">
<metadata>
Created by potrace 1.16, written by Peter Selinger 2001-2019
</metadata>
<g transform="translate(0.000000,84.000000) scale(0.100000,-0.100000)"
fill="#000000" stroke="none">
<path d="M475 228 c-10 -36 -12 -132 -2 -145 5 -7 7 -29 5 -48 -4 -34 -3 -35
29 -35 21 0 33 5 32 13 -1 6 -1 27 0 45 1 30 3 32 22 22 23 -13 22 -14 38 18
14 26 6 46 -15 38 -7 -3 -16 -1 -20 5 -3 5 -13 7 -23 4 -14 -4 -16 0 -13 29 3
25 -2 40 -17 55 -26 26 -27 26 -36 -1z"/>
<path d="M776 205 c-11 -16 -13 -32 -7 -52 4 -15 6 -44 4 -64 -3 -24 0 -39 11
-48 9 -8 16 -20 16 -27 0 -9 12 -14 36 -14 36 0 37 1 31 34 -7 42 7 56 55 56
30 0 38 4 38 18 0 14 -9 17 -60 15 -55 -1 -60 0 -55 17 9 30 -5 67 -30 78 -20
9 -26 7 -39 -13z"/>
<path d="M180 200 c-6 -11 -17 -20 -25 -20 -11 0 -14 -10 -11 -37 2 -21 5 -42
7 -48 7 -28 -26 -65 -70 -79 l-46 -14 92 0 91 -1 0 69 c0 38 3 73 6 79 4 5 2
12 -4 16 -5 3 -10 15 -10 25 0 28 -17 34 -30 10z"/>
</g>
</svg>
