<?xml version="1.0" standalone="no"?>
<!DOCTYPE svg PUBLIC "-//W3C//DTD SVG 20010904//EN"
 "http://www.w3.org/TR/2001/REC-SVG-20010904/DTD/svg10.dtd">
<svg version="1.0" xmlns="http://www.w3.org/2000/svg"
 width="96.000000pt" height="84.000000pt" viewBox="0 0 96.000000 84.000000"
 preserveAspectRatio="xMidYMid meet">
<metadata>
Created by potrace 1.16, written by Peter Selinger 2001-2019
</metadata>
<g transform="translate(0.000000,84.000000) scale(0.100000,-0.100000)"
fill="#000000" stroke="none">
<path d="M480 227 c-8 -12 -12 -39 -11 -61 2 -24 -2 -42 -11 -47 -10 -6 -10
-11 0 -21 6 -6 12 -31 12 -55 0 -41 1 -43 30 -43 26 0 30 3 30 29 0 30 24 59
34 42 3 -5 15 -7 26 -4 27 7 27 43 0 43 -11 0 -20 4 -20 9 0 5 -10 11 -22 13
-19 2 -22 8 -20 36 2 20 -4 41 -16 56 l-18 24 -14 -21z"/>
<path d="M779 221 c-9 -16 -12 -36 -8 -51 3 -14 4 -46 1 -72 -4 -38 -1 -49 12
-54 9 -3 16 -15 16 -25 0 -14 7 -19 29 -19 32 0 45 27 34 68 -6 24 -3 25 60
22 30 -1 37 2 37 17 0 14 -9 19 -38 21 -76 5 -76 6 -76 49 0 33 -5 43 -26 55
-25 14 -27 14 -41 -11z"/>
<path d="M162 195 c-7 -14 -16 -25 -21 -25 -13 0 -10 -41 5 -63 9 -14 8 -25
-7 -55 -11 -20 -27 -40 -37 -44 -9 -4 11 -7 46 -7 69 -1 83 11 64 54 -7 15 -8
27 -2 30 14 8 7 84 -7 90 -7 2 -13 11 -13 19 0 26 -17 26 -28 1z"/>
<path d="M0 10 c0 -5 7 -10 16 -10 8 0 12 5 9 10 -3 6 -10 10 -16 10 -5 0 -9
-4 -9 -10z"/>
</g>
</svg>
