<?xml version="1.0" standalone="no"?>
<!DOCTYPE svg PUBLIC "-//W3C//DTD SVG 20010904//EN"
 "http://www.w3.org/TR/2001/REC-SVG-20010904/DTD/svg10.dtd">
<svg version="1.0" xmlns="http://www.w3.org/2000/svg"
 width="96.000000pt" height="84.000000pt" viewBox="0 0 96.000000 84.000000"
 preserveAspectRatio="xMidYMid meet">
<metadata>
Created by potrace 1.16, written by Peter Selinger 2001-2019
</metadata>
<g transform="translate(0.000000,84.000000) scale(0.100000,-0.100000)"
fill="#000000" stroke="none">
<path d="M500 256 c0 -9 -7 -19 -15 -22 -10 -4 -15 -20 -15 -49 0 -24 -5 -47
-10 -50 -7 -4 -7 -13 0 -25 6 -11 9 -40 6 -65 l-4 -45 39 0 c38 0 38 1 28 27
-14 36 8 60 40 44 12 -7 26 -9 31 -6 14 9 12 35 -2 35 -7 0 -24 12 -37 25 -13
14 -27 25 -32 25 -6 0 -5 8 1 19 15 29 12 50 -10 78 -15 20 -20 22 -20 9z"/>
<path d="M772 236 c-7 -15 -8 -36 -3 -53 4 -15 6 -46 3 -67 -3 -30 0 -43 13
-52 12 -9 16 -20 11 -38 -6 -24 -4 -26 28 -26 31 0 34 3 40 35 4 20 4 45 1 55
-6 18 -1 20 44 20 44 0 51 3 51 20 0 17 -7 20 -45 20 -25 0 -45 4 -45 10 0 5
-8 6 -17 3 -13 -5 -15 -2 -10 11 11 28 -3 63 -29 75 -32 14 -29 15 -42 -13z"/>
<path d="M162 216 c-6 -14 -16 -26 -22 -26 -14 0 -13 -53 2 -68 10 -10 10 -17
0 -32 -6 -11 -12 -26 -12 -33 0 -15 -41 -37 -69 -37 -10 0 -24 7 -31 15 -18
22 -30 18 -30 -10 0 -23 3 -25 51 -25 28 0 59 5 70 10 13 7 19 7 19 0 0 -5 18
-10 40 -10 38 0 40 2 40 31 0 17 -5 39 -10 49 -7 13 -7 21 0 25 11 7 3 75 -9
85 -4 3 -11 16 -17 29 l-10 23 -12 -26z"/>
</g>
</svg>
