<?xml version="1.0" standalone="no"?>
<!DOCTYPE svg PUBLIC "-//W3C//DTD SVG 20010904//EN"
 "http://www.w3.org/TR/2001/REC-SVG-20010904/DTD/svg10.dtd">
<svg version="1.0" xmlns="http://www.w3.org/2000/svg"
 width="96.000000pt" height="84.000000pt" viewBox="0 0 96.000000 84.000000"
 preserveAspectRatio="xMidYMid meet">
<metadata>
Created by potrace 1.16, written by Peter Selinger 2001-2019
</metadata>
<g transform="translate(0.000000,84.000000) scale(0.100000,-0.100000)"
fill="#000000" stroke="none">
<path d="M499 269 c-21 -21 -31 -72 -34 -182 l-4 -87 44 0 c43 0 43 0 35 28
-16 54 -15 56 9 60 13 2 27 -2 32 -10 7 -11 10 -10 21 1 10 11 10 14 0 18 -7
3 -26 25 -43 50 -23 33 -28 48 -20 56 16 16 14 36 -6 61 -17 20 -19 20 -34 5z"/>
<path d="M773 259 c-7 -18 -8 -41 -3 -58 4 -15 5 -40 3 -55 -4 -17 1 -34 12
-46 17 -19 17 -43 0 -83 -6 -15 -1 -17 37 -17 l44 0 -1 65 -1 65 30 0 c33 1
66 20 66 39 0 7 -19 11 -50 11 -49 0 -50 1 -40 23 10 20 9 20 -9 -3 l-21 -25
0 49 c0 27 -3 46 -7 43 -3 -4 -16 -1 -28 7 -20 13 -22 12 -32 -15z"/>
<path d="M170 256 c0 -9 -9 -21 -20 -28 -22 -14 -26 -48 -9 -80 8 -14 8 -23 0
-31 -6 -6 -11 -18 -11 -27 0 -34 -82 -53 -98 -24 -14 25 -32 7 -32 -32 l0 -34
113 0 112 0 -4 52 c-1 29 -7 58 -13 65 -6 7 -5 13 1 17 19 12 -3 115 -28 131
-6 3 -11 -1 -11 -9z m-20 -220 c0 -20 -14 -28 -36 -19 -16 6 -16 7 2 20 23 17
34 17 34 -1z"/>
</g>
</svg>
