<?xml version="1.0" standalone="no"?>
<!DOCTYPE svg PUBLIC "-//W3C//DTD SVG 20010904//EN"
 "http://www.w3.org/TR/2001/REC-SVG-20010904/DTD/svg10.dtd">
<svg version="1.0" xmlns="http://www.w3.org/2000/svg"
 width="96.000000pt" height="84.000000pt" viewBox="0 0 96.000000 84.000000"
 preserveAspectRatio="xMidYMid meet">
<metadata>
Created by potrace 1.16, written by Peter Selinger 2001-2019
</metadata>
<g transform="translate(0.000000,84.000000) scale(0.100000,-0.100000)"
fill="#000000" stroke="none">
<path d="M490 325 c0 -9 -6 -18 -14 -21 -10 -4 -14 -17 -11 -42 2 -20 1 -41
-3 -46 -3 -6 -7 -57 -9 -113 l-3 -103 55 0 c31 0 55 4 55 10 0 6 -12 34 -26
62 -18 35 -22 54 -15 61 7 7 16 5 29 -6 17 -16 20 -16 32 -2 11 13 10 18 -2
28 -29 24 -49 69 -46 102 1 19 -3 40 -10 47 -6 6 -12 18 -12 25 0 7 -4 13 -10
13 -5 0 -10 -7 -10 -15z"/>
<path d="M777 299 c-10 -19 -12 -31 -5 -35 5 -3 8 -23 6 -43 -3 -20 -1 -49 4
-66 16 -53 18 -67 9 -84 -5 -9 -11 -28 -15 -43 -6 -28 -6 -28 49 -28 40 0 54
3 49 12 -4 6 -8 44 -8 85 -1 62 1 73 14 70 29 -8 35 -9 58 -8 14 1 22 7 22 19
0 14 -14 21 -59 31 l-58 13 3 42 c3 38 0 43 -25 52 -25 10 -29 8 -44 -17z"/>
<path d="M170 306 c0 -8 -9 -21 -20 -29 -17 -12 -18 -19 -10 -47 16 -54 2
-108 -31 -125 -32 -17 -69 -20 -69 -5 0 6 -9 10 -20 10 -17 0 -20 -7 -20 -41
0 -61 15 -68 143 -69 l107 0 -20 41 c-14 27 -19 50 -15 69 4 16 2 38 -4 49 -8
13 -8 22 -1 26 19 12 -4 114 -29 130 -6 3 -11 -1 -11 -9z m-20 -225 c0 -9 -24
-21 -41 -21 -16 0 -10 18 9 23 28 8 32 7 32 -2z"/>
<path d="M890 240 c-6 -11 -8 -20 -6 -20 3 0 10 9 16 20 6 11 8 20 6 20 -3 0
-10 -9 -16 -20z"/>
</g>
</svg>
