<?xml version="1.0" standalone="no"?>
<!DOCTYPE svg PUBLIC "-//W3C//DTD SVG 20010904//EN"
 "http://www.w3.org/TR/2001/REC-SVG-20010904/DTD/svg10.dtd">
<svg version="1.0" xmlns="http://www.w3.org/2000/svg"
 width="96.000000pt" height="84.000000pt" viewBox="0 0 96.000000 84.000000"
 preserveAspectRatio="xMidYMid meet">
<metadata>
Created by potrace 1.16, written by Peter Selinger 2001-2019
</metadata>
<g transform="translate(0.000000,84.000000) scale(0.100000,-0.100000)"
fill="#000000" stroke="none">
<path d="M544 830 c-6 -6 -26 -18 -45 -28 -30 -15 -40 -16 -65 -5 -66 28 -144
5 -144 -43 0 -16 16 -41 44 -68 34 -35 41 -47 34 -61 -6 -9 -8 -53 -6 -97 3
-71 6 -81 28 -98 14 -11 34 -20 45 -22 18 -3 20 -10 17 -88 -2 -69 2 -93 18
-125 11 -21 20 -45 20 -52 0 -6 3 -14 8 -16 4 -3 7 46 7 108 0 89 3 111 13
103 6 -6 12 -18 12 -27 0 -9 4 -21 9 -27 17 -19 33 -84 23 -97 -6 -7 -12 -51
-13 -100 l-4 -87 158 0 c172 0 165 -3 146 63 -16 61 -4 54 15 -8 15 -46 22
-55 41 -55 l24 0 -26 62 c-13 34 -45 103 -70 152 -33 66 -40 86 -25 72 21 -18
21 -18 18 10 -3 16 -8 38 -12 48 -6 15 -4 17 6 11 10 -6 12 -4 6 11 -5 10 -10
33 -11 49 -8 81 -64 249 -99 302 -15 21 -26 43 -26 50 0 6 -17 25 -37 42 -38
32 -89 41 -109 21z m67 -512 c9 -17 8 -28 -6 -55 -10 -18 -22 -33 -27 -33 -8
0 -9 88 -1 103 8 13 22 7 34 -15z"/>
</g>
</svg>
