<?xml version="1.0" standalone="no"?>
<!DOCTYPE svg PUBLIC "-//W3C//DTD SVG 20010904//EN"
 "http://www.w3.org/TR/2001/REC-SVG-20010904/DTD/svg10.dtd">
<svg version="1.0" xmlns="http://www.w3.org/2000/svg"
 width="96.000000pt" height="84.000000pt" viewBox="0 0 96.000000 84.000000"
 preserveAspectRatio="xMidYMid meet">
<metadata>
Created by potrace 1.16, written by Peter Selinger 2001-2019
</metadata>
<g transform="translate(0.000000,84.000000) scale(0.100000,-0.100000)"
fill="#000000" stroke="none">
<path d="M461 358 c-8 -13 -13 -40 -12 -60 1 -23 -2 -38 -9 -38 -6 0 -9 -11
-6 -27 2 -16 5 -74 5 -130 l1 -103 41 0 c47 0 79 14 79 36 0 9 -16 43 -35 76
-32 54 -38 87 -14 72 16 -9 5 147 -12 174 -7 12 -16 22 -19 22 -3 0 -12 -10
-19 -22z"/>
<path d="M170 356 c0 -7 -7 -19 -16 -27 -11 -9 -14 -22 -9 -43 17 -81 1 -130
-48 -151 -27 -11 -34 -11 -48 1 -27 24 -51 7 -47 -34 3 -32 10 -40 58 -69 49
-29 63 -33 128 -33 43 0 72 4 72 10 0 6 -12 34 -26 62 -21 40 -25 60 -20 91 4
23 2 45 -4 52 -8 9 -8 15 0 20 12 8 14 85 1 85 -5 0 -12 11 -15 25 -7 26 -26
35 -26 11z m-20 -235 c0 -5 -7 -12 -16 -15 -24 -9 -28 -7 -14 9 14 17 30 20
30 6z"/>
<path d="M783 327 c-7 -14 -8 -40 -3 -65 4 -25 3 -45 -3 -51 -7 -7 -6 -15 2
-25 13 -16 11 -53 -9 -131 -5 -22 -10 -43 -10 -47 0 -5 29 -8 65 -8 l65 0 -20
50 c-24 61 -18 146 9 134 9 -4 31 -9 49 -12 45 -6 43 23 -3 38 -34 11 -46 32
-25 45 5 3 15 16 20 28 11 22 11 22 -5 2 -9 -11 -22 -28 -29 -38 -23 -31 -44
-11 -39 37 4 36 2 44 -13 50 -11 3 -24 8 -30 11 -6 3 -15 -5 -21 -18z"/>
</g>
</svg>
