<?xml version="1.0" standalone="no"?>
<!DOCTYPE svg PUBLIC "-//W3C//DTD SVG 20010904//EN"
 "http://www.w3.org/TR/2001/REC-SVG-20010904/DTD/svg10.dtd">
<svg version="1.0" xmlns="http://www.w3.org/2000/svg"
 width="96.000000pt" height="84.000000pt" viewBox="0 0 96.000000 84.000000"
 preserveAspectRatio="xMidYMid meet">
<metadata>
Created by potrace 1.16, written by Peter Selinger 2001-2019
</metadata>
<g transform="translate(0.000000,84.000000) scale(0.100000,-0.100000)"
fill="#000000" stroke="none">
<path d="M473 405 c-14 -6 -23 -19 -23 -31 0 -17 -5 -21 -20 -17 -11 3 -20 9
-20 14 0 15 -18 10 -24 -8 -4 -9 -2 -21 4 -27 5 -5 10 -23 10 -38 0 -20 5 -28
18 -28 16 0 17 -7 10 -77 -5 -51 -4 -98 3 -135 11 -56 29 -79 29 -38 0 15 7
20 25 20 18 0 25 -5 25 -20 0 -11 7 -20 16 -20 11 0 13 6 9 19 -3 11 -1 28 5
38 9 15 6 29 -19 77 -35 66 -38 96 -14 132 12 19 13 28 5 33 -8 5 -9 17 -3 39
14 46 -5 81 -36 67z"/>
<path d="M180 398 c0 -10 -8 -23 -19 -29 -18 -12 -18 -41 0 -64 12 -16 -11
-97 -34 -122 -21 -24 -61 -31 -72 -13 -3 6 -17 10 -31 10 -21 0 -24 -5 -24
-33 0 -31 5 -36 76 -76 41 -24 78 -49 81 -57 7 -20 40 -17 62 5 10 10 24 20
30 22 9 3 6 20 -10 59 -22 54 -34 180 -16 180 16 0 1 77 -21 106 -16 22 -21
25 -22 12z m-30 -243 c-7 -8 -17 -15 -22 -15 -6 0 -5 7 2 15 7 8 17 15 22 15
6 0 5 -7 -2 -15z"/>
<path d="M786 345 c-9 -14 -14 -30 -11 -35 7 -11 8 -136 2 -175 -3 -17 -12
-50 -21 -75 -9 -25 -16 -48 -16 -52 0 -5 34 -8 75 -8 59 0 75 3 75 14 0 8 -4
17 -9 20 -5 4 -16 27 -25 53 -13 38 -14 52 -4 80 9 24 16 32 28 27 8 -4 30 -9
48 -12 29 -4 33 -2 30 14 -2 11 -16 23 -36 29 -37 11 -39 19 -12 60 11 17 20
35 20 40 0 6 -13 -10 -28 -35 -18 -32 -32 -45 -44 -42 -21 4 -21 4 -9 34 11
29 -2 63 -27 77 -17 9 -23 6 -36 -14z"/>
</g>
</svg>
