<?xml version="1.0" standalone="no"?>
<!DOCTYPE svg PUBLIC "-//W3C//DTD SVG 20010904//EN"
 "http://www.w3.org/TR/2001/REC-SVG-20010904/DTD/svg10.dtd">
<svg version="1.0" xmlns="http://www.w3.org/2000/svg"
 width="96.000000pt" height="84.000000pt" viewBox="0 0 96.000000 84.000000"
 preserveAspectRatio="xMidYMid meet">
<metadata>
Created by potrace 1.16, written by Peter Selinger 2001-2019
</metadata>
<g transform="translate(0.000000,84.000000) scale(0.100000,-0.100000)"
fill="#000000" stroke="none">
<path d="M190 426 c0 -9 -8 -21 -19 -27 -19 -12 -18 -41 1 -66 13 -16 -8 -81
-35 -110 -22 -25 -56 -30 -74 -12 -6 6 -21 9 -34 7 -17 -2 -25 -10 -27 -30 -3
-23 4 -31 60 -62 73 -41 98 -66 98 -101 0 -18 5 -25 20 -25 13 0 20 7 20 20 0
12 12 26 30 35 36 18 36 19 10 88 -19 51 -23 138 -6 165 10 17 3 81 -11 86 -7
3 -13 12 -13 20 0 8 -4 18 -10 21 -5 3 -10 -1 -10 -9z m-35 -235 c-3 -6 -11
-11 -17 -11 -6 0 -6 6 2 15 14 17 26 13 15 -4z"/>
<path d="M483 433 c-18 -3 -23 -11 -23 -34 0 -31 -17 -40 -26 -14 -4 8 -11 12
-16 9 -6 -4 -14 -1 -18 6 -4 7 -13 9 -19 6 -17 -11 -13 -36 5 -36 13 0 15 -7
10 -35 -6 -33 -5 -35 19 -35 22 0 25 -4 25 -39 0 -21 -7 -58 -15 -81 -8 -23
-15 -56 -15 -72 0 -16 6 -31 15 -34 8 -4 15 -14 15 -24 0 -10 3 -27 7 -37 6
-14 9 -10 13 17 7 48 40 49 54 3 5 -18 13 -33 17 -33 11 0 3 109 -9 140 -6 14
-16 46 -22 72 -10 39 -10 51 1 64 19 23 27 167 10 163 -3 -1 -16 -4 -28 -6z"/>
<path d="M811 413 c0 -12 -7 -28 -13 -35 -7 -7 -13 -35 -14 -63 -2 -95 -13
-171 -33 -222 -19 -50 -19 -51 -1 -68 10 -9 39 -19 63 -21 41 -4 45 -2 51 21
4 14 0 55 -9 91 -13 59 -13 68 1 95 15 29 16 30 34 14 13 -12 28 -15 45 -11
35 9 34 42 -2 50 -56 14 -83 30 -77 46 15 36 11 68 -12 81 -13 6 -25 19 -27
28 -3 11 -5 9 -6 -6z"/>
</g>
</svg>
