<?xml version="1.0" standalone="no"?>
<!DOCTYPE svg PUBLIC "-//W3C//DTD SVG 20010904//EN"
 "http://www.w3.org/TR/2001/REC-SVG-20010904/DTD/svg10.dtd">
<svg version="1.0" xmlns="http://www.w3.org/2000/svg"
 width="96.000000pt" height="84.000000pt" viewBox="0 0 96.000000 84.000000"
 preserveAspectRatio="xMidYMid meet">
<metadata>
Created by potrace 1.16, written by Peter Selinger 2001-2019
</metadata>
<g transform="translate(0.000000,84.000000) scale(0.100000,-0.100000)"
fill="#000000" stroke="none">
<path d="M493 475 c-12 -5 -25 -22 -28 -37 -7 -29 -19 -36 -30 -17 -4 6 -13 8
-20 5 -7 -2 -17 0 -23 6 -8 8 -13 7 -18 -5 -8 -21 3 -38 21 -31 11 5 13 -2 8
-31 -6 -35 -5 -36 20 -30 26 7 26 7 22 -49 -2 -32 -12 -74 -24 -96 -27 -52
-26 -58 4 -72 22 -10 25 -17 25 -65 0 -29 5 -53 10 -53 6 0 10 25 10 56 0 47
3 55 17 52 18 -3 37 -60 30 -90 -3 -11 0 -18 10 -18 10 0 13 8 9 33 -2 17 -7
55 -11 82 -3 28 -11 83 -17 122 -8 57 -8 76 2 88 14 17 21 105 11 138 -5 18
-10 20 -28 12z"/>
<path d="M182 450 c-21 -27 -22 -31 -8 -63 12 -31 12 -39 -3 -73 -22 -48 -86
-85 -109 -62 -6 6 -22 8 -36 4 -19 -5 -26 -13 -26 -31 0 -21 12 -31 75 -62 41
-21 75 -43 75 -50 0 -7 5 -13 11 -13 7 0 8 -11 4 -31 -8 -34 15 -69 46 -69 17
0 17 3 3 35 -19 45 -19 44 16 56 35 13 36 24 14 100 -18 57 -19 146 -2 166 5
7 7 22 3 35 -7 25 -35 88 -38 87 -1 0 -12 -13 -25 -29z m-17 -209 c-3 -6 -14
-11 -23 -11 -13 0 -13 2 4 14 21 15 30 14 19 -3z"/>
<path d="M789 437 c-10 -15 -14 -35 -11 -60 3 -31 0 -41 -17 -53 -24 -17 -27
-50 -7 -76 10 -14 10 -30 -2 -88 -13 -65 -12 -73 2 -89 12 -13 15 -27 10 -45
-5 -20 -2 -26 10 -26 10 0 19 11 23 30 7 37 27 34 31 -3 5 -37 22 -34 22 3 0
17 7 41 15 53 13 20 12 28 -10 76 -19 40 -23 62 -19 92 7 44 10 46 35 23 15
-14 23 -14 53 -3 20 7 35 17 33 22 -1 5 -22 16 -47 24 -44 15 -73 36 -64 46
10 10 10 67 0 67 -5 0 -17 6 -25 14 -14 12 -18 11 -32 -7z"/>
<path d="M879 370 c-13 -10 -19 -19 -13 -20 6 0 19 9 29 20 23 26 14 26 -16 0z"/>
</g>
</svg>
