<?xml version="1.0" standalone="no"?>
<!DOCTYPE svg PUBLIC "-//W3C//DTD SVG 20010904//EN"
 "http://www.w3.org/TR/2001/REC-SVG-20010904/DTD/svg10.dtd">
<svg version="1.0" xmlns="http://www.w3.org/2000/svg"
 width="96.000000pt" height="84.000000pt" viewBox="0 0 96.000000 84.000000"
 preserveAspectRatio="xMidYMid meet">
<metadata>
Created by potrace 1.16, written by Peter Selinger 2001-2019
</metadata>
<g transform="translate(0.000000,84.000000) scale(0.100000,-0.100000)"
fill="#000000" stroke="none">
<path d="M200 506 c0 -8 -9 -21 -19 -28 -17 -12 -18 -17 -6 -52 12 -33 11 -43
-2 -71 -16 -34 -91 -81 -106 -66 -4 4 -21 6 -37 3 -23 -3 -30 -10 -30 -26 0
-18 16 -30 80 -61 44 -21 80 -45 80 -52 0 -7 4 -13 9 -13 5 0 6 -12 2 -27 -9
-33 34 -112 61 -113 17 0 16 20 -2 45 -4 6 -11 25 -15 43 -6 30 -4 33 25 44
31 10 32 13 26 50 -4 22 -13 53 -22 69 -16 31 -17 116 -2 135 11 15 4 72 -10
86 -7 7 -12 18 -12 24 0 7 -4 16 -10 19 -5 3 -10 -1 -10 -9z m-22 -218 c-3 -7
-20 -16 -38 -19 l-34 -7 24 19 c28 21 54 25 48 7z"/>
<path d="M485 506 c-16 -9 -20 -19 -19 -48 3 -39 -11 -49 -34 -26 -9 9 -12 9
-12 -1 0 -8 -7 -11 -20 -8 -15 4 -20 0 -20 -15 0 -14 5 -18 15 -14 11 4 15 -1
15 -19 0 -27 9 -32 27 -14 7 7 12 0 17 -25 5 -26 0 -52 -18 -96 -23 -59 -24
-62 -6 -78 11 -10 22 -39 26 -70 5 -43 4 -52 -9 -52 -22 0 -32 -20 -16 -31 8
-5 34 -9 57 -9 l44 0 -6 143 c-3 78 -8 159 -11 179 -3 20 -1 39 5 43 14 9 12
105 -3 131 -10 17 -16 18 -32 10z m23 -424 c2 -40 0 -52 -11 -52 -19 0 -27 22
-27 72 0 32 3 39 18 36 13 -2 18 -15 20 -56z"/>
<path d="M774 486 c-16 -16 -19 -29 -14 -58 6 -32 4 -39 -12 -44 -11 -3 -30
-3 -44 0 -19 5 -24 2 -24 -11 0 -10 7 -27 16 -38 12 -17 17 -18 35 -7 19 12
20 11 15 -30 -18 -136 -18 -158 -7 -172 7 -9 11 -37 10 -67 -4 -70 16 -76 24
-8 4 28 9 54 11 57 13 12 36 -10 36 -35 0 -40 11 -73 23 -73 6 0 8 22 3 61 -5
52 -3 64 12 75 16 12 16 14 -1 41 -52 82 -59 153 -14 153 12 0 28 4 36 9 20
13 -3 41 -33 42 -19 1 -18 2 4 9 22 7 22 8 4 9 -17 1 -20 7 -18 39 1 28 -4 41
-20 53 -21 16 -23 16 -42 -5z"/>
</g>
</svg>
