<?xml version="1.0" standalone="no"?>
<!DOCTYPE svg PUBLIC "-//W3C//DTD SVG 20010904//EN"
 "http://www.w3.org/TR/2001/REC-SVG-20010904/DTD/svg10.dtd">
<svg version="1.0" xmlns="http://www.w3.org/2000/svg"
 width="96.000000pt" height="84.000000pt" viewBox="0 0 96.000000 84.000000"
 preserveAspectRatio="xMidYMid meet">
<metadata>
Created by potrace 1.16, written by Peter Selinger 2001-2019
</metadata>
<g transform="translate(0.000000,84.000000) scale(0.100000,-0.100000)"
fill="#000000" stroke="none">
<path d="M772 532 c-17 -11 -22 -24 -22 -54 0 -31 -4 -41 -20 -45 -11 -3 -20
-11 -20 -19 0 -7 -5 -16 -12 -20 -7 -5 -9 -2 -5 9 3 9 -1 18 -10 21 -27 11
-34 -5 -16 -35 18 -29 37 -37 48 -19 3 6 10 10 15 10 11 0 6 -35 -18 -132 -15
-65 -15 -69 3 -82 15 -11 20 -28 21 -77 2 -35 -2 -69 -8 -76 -8 -10 -2 -13 28
-12 22 1 31 3 22 6 -15 4 -18 16 -18 74 0 67 1 70 22 67 18 -2 24 -13 34 -62
7 -33 10 -66 7 -73 -3 -7 2 -13 11 -13 14 0 16 7 11 43 -3 23 -8 61 -11 83 -3
23 -2 44 4 48 6 3 0 31 -16 68 -26 65 -30 112 -11 135 6 7 9 22 6 34 -4 16 0
23 14 26 15 4 17 8 8 14 -7 4 -14 19 -14 32 -1 13 -8 33 -16 44 -13 19 -16 19
-37 5z"/>
<path d="M477 513 c-14 -18 -17 -33 -13 -59 6 -31 5 -34 -19 -34 -14 0 -25 -4
-25 -10 0 -5 -9 -10 -20 -10 -21 0 -28 -24 -10 -35 6 -3 10 -1 10 4 0 6 4 11
10 11 5 0 7 -7 4 -15 -7 -17 11 -21 21 -5 10 17 22 11 28 -12 4 -13 -5 -53
-19 -93 l-25 -70 20 -14 c26 -17 29 -78 4 -96 -18 -13 -10 -35 13 -35 8 0 12
-4 9 -10 -3 -5 -15 -10 -26 -10 -10 0 -19 -3 -19 -7 0 -10 108 -15 122 -7 5 3
5 11 -2 19 -8 10 -8 15 0 20 7 5 8 11 1 19 -14 17 -22 84 -10 91 12 8 11 51
-3 135 -9 53 -9 75 -1 89 8 12 9 31 3 57 -5 21 -7 41 -4 45 2 4 -1 11 -7 14
-6 4 -13 15 -17 25 -6 16 -9 16 -25 -7z m29 -387 c6 -37 -1 -60 -17 -51 -12 8
-12 85 1 85 5 0 12 -15 16 -34z"/>
<path d="M183 494 c-21 -23 -22 -27 -9 -63 10 -32 11 -43 0 -63 -16 -30 -65
-53 -95 -45 -37 10 -79 -3 -79 -24 0 -14 23 -31 83 -60 l83 -41 -3 -52 c-2
-43 2 -55 25 -79 25 -26 26 -29 10 -38 -32 -18 -19 -29 32 -29 l50 0 -41 62
-40 62 46 13 c25 8 45 18 45 24 0 5 -12 37 -26 72 -33 81 -46 154 -28 161 15
6 9 63 -7 81 -5 5 -9 17 -9 27 0 24 -10 21 -37 -8z m-3 -183 c0 -10 -25 -21
-48 -21 -12 1 -10 5 8 15 29 17 40 18 40 6z"/>
</g>
</svg>
