<?xml version="1.0" standalone="no"?>
<!DOCTYPE svg PUBLIC "-//W3C//DTD SVG 20010904//EN"
 "http://www.w3.org/TR/2001/REC-SVG-20010904/DTD/svg10.dtd">
<svg version="1.0" xmlns="http://www.w3.org/2000/svg"
 width="96.000000pt" height="84.000000pt" viewBox="0 0 96.000000 84.000000"
 preserveAspectRatio="xMidYMid meet">
<metadata>
Created by potrace 1.16, written by Peter Selinger 2001-2019
</metadata>
<g transform="translate(0.000000,84.000000) scale(0.100000,-0.100000)"
fill="#000000" stroke="none">
<path d="M778 557 c-16 -13 -28 -33 -28 -46 0 -28 -27 -56 -54 -56 -16 0 -20
-6 -18 -25 4 -45 10 -52 32 -40 19 10 20 8 20 -31 0 -26 -10 -60 -27 -91 l-27
-50 30 -27 c26 -23 29 -32 29 -86 0 -55 -2 -60 -23 -63 -16 -3 -22 -8 -18 -19
3 -8 6 -17 6 -19 0 -7 139 -4 143 4 8 13 -13 194 -30 257 -18 66 -19 121 -2
141 6 7 8 22 4 34 -4 13 -1 22 10 26 12 5 13 10 4 20 -6 8 -9 20 -6 28 3 8 -1
20 -9 27 -8 7 -13 18 -10 26 7 17 6 17 -26 -10z m26 -394 c4 -9 9 -43 13 -75
6 -62 3 -65 -41 -48 -24 9 -25 12 -20 67 3 31 8 61 10 65 9 14 32 9 38 -9z"/>
<path d="M467 534 c-13 -18 -15 -28 -7 -49 14 -38 13 -44 -15 -51 -14 -3 -25
-12 -25 -19 0 -8 -9 -15 -21 -17 -17 -3 -18 -5 -7 -20 12 -16 16 -16 40 -4 26
14 28 13 33 -7 3 -12 -3 -51 -14 -87 -18 -57 -18 -66 -6 -80 18 -20 20 -81 3
-99 -11 -10 -10 -15 5 -25 22 -17 22 -26 -2 -26 -13 0 -19 -6 -18 -19 1 -15 9
-19 41 -19 44 -1 87 25 64 39 -9 6 -9 11 2 24 10 12 10 19 2 27 -16 16 -15 63
0 88 9 14 9 30 0 67 -17 72 -22 134 -12 153 5 10 6 20 3 24 -4 3 -8 22 -10 42
-2 21 -12 47 -21 59 l-17 22 -18 -23z m41 -392 c2 -24 -1 -32 -12 -32 -12 0
-16 10 -16 36 0 45 24 42 28 -4z"/>
<path d="M200 538 c0 -7 -9 -19 -20 -26 -22 -14 -25 -39 -9 -74 17 -39 -3 -73
-49 -85 -22 -6 -44 -7 -49 -3 -4 4 -23 6 -41 3 -23 -4 -32 -10 -32 -25 0 -15
21 -29 89 -60 88 -40 89 -41 86 -74 -2 -18 -7 -38 -10 -45 -4 -6 7 -25 24 -43
l31 -32 -30 -29 c-16 -15 -27 -32 -24 -37 7 -11 95 -10 113 1 11 7 5 21 -28
68 -22 32 -41 64 -41 71 0 7 13 12 29 12 49 0 54 18 26 101 -34 98 -45 148
-34 154 11 7 9 74 -3 81 -4 3 -8 14 -8 24 0 10 -4 22 -10 25 -5 3 -10 0 -10
-7z m-25 -207 c-3 -6 -18 -11 -33 -10 l-27 1 30 13 c32 14 41 13 30 -4z"/>
<path d="M880 489 c0 -5 5 -7 10 -4 6 3 10 8 10 11 0 2 -4 4 -10 4 -5 0 -10
-5 -10 -11z"/>
<path d="M30 10 c-11 -7 -1 -10 35 -9 37 0 45 3 30 9 -27 12 -47 12 -65 0z"/>
</g>
</svg>
