<?xml version="1.0" standalone="no"?>
<!DOCTYPE svg PUBLIC "-//W3C//DTD SVG 20010904//EN"
 "http://www.w3.org/TR/2001/REC-SVG-20010904/DTD/svg10.dtd">
<svg version="1.0" xmlns="http://www.w3.org/2000/svg"
 width="96.000000pt" height="84.000000pt" viewBox="0 0 96.000000 84.000000"
 preserveAspectRatio="xMidYMid meet">
<metadata>
Created by potrace 1.16, written by Peter Selinger 2001-2019
</metadata>
<g transform="translate(0.000000,84.000000) scale(0.100000,-0.100000)"
fill="#000000" stroke="none">
<path d="M776 575 c-23 -18 -28 -29 -24 -54 4 -24 0 -32 -16 -38 -12 -4 -29
-6 -38 -4 -14 2 -18 -5 -18 -33 0 -35 20 -50 35 -26 13 21 25 8 25 -27 0 -21
-11 -62 -25 -91 -31 -67 -31 -76 -2 -89 22 -10 24 -17 22 -73 -1 -47 -6 -65
-18 -72 -9 -5 -17 -21 -17 -36 0 -27 1 -27 74 -30 l74 -3 -8 43 c-5 24 -9 73
-9 108 0 36 -7 97 -15 135 -18 83 -20 121 -5 130 5 4 9 17 8 28 -2 38 1 47 17
47 14 0 14 1 0 16 -9 8 -14 20 -10 25 3 6 1 15 -4 22 -5 7 -11 20 -13 29 -4
14 -8 14 -33 -7z m29 -394 c3 -10 5 -42 4 -70 -2 -50 -3 -52 -28 -49 -25 3
-26 6 -24 58 2 30 5 61 8 68 7 18 33 14 40 -7z"/>
<path d="M480 578 c0 -9 -7 -21 -14 -28 -11 -9 -13 -18 -5 -37 11 -31 3 -63
-17 -63 -8 0 -14 -7 -14 -15 0 -8 -7 -15 -15 -15 -17 0 -19 -9 -6 -29 8 -12
13 -12 35 3 38 24 43 1 17 -69 -25 -65 -26 -91 -7 -98 16 -6 11 -82 -6 -104
-6 -8 -2 -15 13 -24 22 -11 22 -12 3 -23 -30 -17 -19 -43 19 -43 52 -1 66 20
61 85 -2 31 -6 64 -9 73 -3 10 -1 20 5 24 7 4 9 26 5 58 -12 110 -14 151 -5
168 7 12 6 18 -3 22 -7 2 -12 21 -12 43 1 27 -6 46 -22 63 -17 18 -23 20 -23
9z m34 -384 c13 -34 7 -64 -14 -64 -14 0 -20 7 -20 24 0 30 9 56 20 56 4 0 11
-7 14 -16z"/>
<path d="M184 545 c-22 -23 -24 -45 -10 -78 5 -10 4 -32 -1 -50 -7 -25 -16
-34 -48 -43 -24 -7 -42 -7 -46 -2 -3 5 -22 6 -43 3 -60 -12 -47 -37 42 -78 43
-21 84 -37 91 -37 10 0 12 -13 9 -51 -5 -44 -2 -55 18 -76 13 -14 24 -27 24
-29 0 -2 -14 -17 -31 -33 -36 -35 -79 -47 -108 -31 -16 8 -28 7 -51 -5 -16 -9
-30 -20 -30 -25 0 -16 117 -12 123 4 3 7 15 16 27 19 16 4 24 1 27 -14 8 -28
63 -26 92 5 14 15 19 26 12 31 -6 3 -11 14 -11 23 0 10 -14 34 -31 55 -32 39
-31 57 4 57 12 0 28 4 35 9 14 9 14 13 -31 167 -8 29 -12 72 -10 101 3 31 1
53 -6 57 -6 4 -11 16 -11 27 0 24 -10 23 -36 -6z m6 -185 c0 -5 -4 -10 -9 -10
-5 0 -16 -3 -25 -6 -9 -3 -16 -1 -16 4 0 9 16 17 43 21 4 0 7 -3 7 -9z"/>
<path d="M415 20 c3 -5 10 -10 16 -10 5 0 9 5 9 10 0 6 -7 10 -16 10 -8 0 -12
-4 -9 -10z"/>
</g>
</svg>
