<?xml version="1.0" standalone="no"?>
<!DOCTYPE svg PUBLIC "-//W3C//DTD SVG 20010904//EN"
 "http://www.w3.org/TR/2001/REC-SVG-20010904/DTD/svg10.dtd">
<svg version="1.0" xmlns="http://www.w3.org/2000/svg"
 width="96.000000pt" height="84.000000pt" viewBox="0 0 96.000000 84.000000"
 preserveAspectRatio="xMidYMid meet">
<metadata>
Created by potrace 1.16, written by Peter Selinger 2001-2019
</metadata>
<g transform="translate(0.000000,84.000000) scale(0.100000,-0.100000)"
fill="#000000" stroke="none">
<path d="M493 593 c-6 -16 -14 -50 -17 -77 -3 -27 -11 -55 -17 -62 -14 -17 -3
-34 22 -34 10 0 19 -2 19 -5 0 -2 -15 -34 -32 -71 -32 -64 -33 -66 -14 -80 18
-13 19 -19 9 -76 -5 -35 -7 -64 -4 -66 28 -12 35 -22 24 -33 -9 -9 -9 -16 0
-31 10 -15 9 -21 -3 -28 -13 -8 -12 -10 3 -10 9 0 17 5 17 11 0 5 13 15 29 20
36 13 44 30 30 66 -11 30 -13 257 -3 334 5 35 3 49 -5 49 -8 0 -11 14 -8 40 2
22 0 40 -4 40 -4 0 -11 9 -14 20 -9 27 -18 25 -32 -7z m31 -365 c3 -13 6 -35
6 -50 0 -24 -4 -28 -26 -28 -25 0 -26 2 -20 42 10 63 28 79 40 36z"/>
<path d="M790 611 c0 -5 -8 -12 -18 -15 -14 -5 -17 -14 -14 -42 3 -24 0 -39
-9 -45 -19 -12 -76 -11 -84 1 -5 8 -11 7 -21 -1 -11 -9 -9 -15 13 -33 15 -11
39 -21 52 -21 41 0 47 -50 16 -121 -29 -66 -30 -73 -10 -88 20 -16 24 -154 4
-167 -12 -8 -12 -11 2 -22 9 -7 19 -22 23 -35 6 -19 14 -22 62 -22 51 0 71 11
40 23 -17 7 -16 2 -20 157 -2 63 -6 145 -11 181 -5 45 -4 72 4 88 10 17 10 26
0 37 -8 10 -8 14 0 14 14 0 14 62 -1 95 -11 24 -28 34 -28 16z m5 -456 c0 -63
-2 -70 -20 -70 -16 0 -21 8 -23 40 -5 62 6 107 26 103 14 -3 17 -16 17 -73z"/>
<path d="M195 576 c-23 -25 -25 -51 -7 -83 8 -14 9 -24 2 -28 -5 -3 -10 -19
-10 -35 0 -25 -5 -30 -36 -36 -26 -5 -32 -9 -22 -16 9 -6 5 -7 -12 -2 -14 3
-29 10 -35 14 -5 4 -25 5 -43 3 -58 -9 -40 -35 57 -83 84 -41 90 -46 96 -79 3
-20 13 -53 22 -74 15 -34 15 -39 1 -50 -9 -6 -18 -23 -21 -37 -4 -14 -16 -31
-27 -38 -19 -12 -26 -10 -55 13 -33 24 -36 25 -70 11 -63 -27 -37 -56 51 -56
46 0 63 4 68 15 3 8 13 15 22 15 10 0 14 -5 10 -15 -4 -12 3 -15 32 -14 29 0
42 7 60 30 l23 29 -20 29 c-12 16 -21 33 -21 39 0 5 -9 21 -21 36 -24 31 -19
42 21 51 16 4 33 11 36 17 7 10 -14 96 -27 114 -5 6 -6 13 -4 16 3 3 1 18 -5
34 -6 15 -12 62 -14 104 -3 103 -13 118 -51 76z m0 -226 c13 -5 14 -9 5 -9 -8
0 -24 4 -35 9 -13 5 -14 9 -5 9 8 0 24 -4 35 -9z"/>
<path d="M664 25 c-15 -11 -16 -14 -3 -15 8 0 19 4 25 9 5 5 18 11 29 14 16 4
15 5 -6 6 -14 0 -34 -6 -45 -14z"/>
</g>
</svg>
