<?xml version="1.0" standalone="no"?>
<!DOCTYPE svg PUBLIC "-//W3C//DTD SVG 20010904//EN"
 "http://www.w3.org/TR/2001/REC-SVG-20010904/DTD/svg10.dtd">
<svg version="1.0" xmlns="http://www.w3.org/2000/svg"
 width="96.000000pt" height="84.000000pt" viewBox="0 0 96.000000 84.000000"
 preserveAspectRatio="xMidYMid meet">
<metadata>
Created by potrace 1.16, written by Peter Selinger 2001-2019
</metadata>
<g transform="translate(0.000000,84.000000) scale(0.100000,-0.100000)"
fill="#000000" stroke="none">
<path d="M520 637 c0 -10 -6 -20 -12 -22 -17 -7 -17 -101 0 -141 12 -29 11
-36 -12 -80 -15 -27 -32 -57 -39 -67 -10 -15 -9 -20 5 -30 12 -10 15 -21 9
-52 -4 -22 -7 -56 -7 -75 1 -28 5 -36 23 -38 14 -2 20 -8 17 -17 -4 -9 10 -21
36 -35 39 -20 44 -20 58 -6 14 13 14 18 1 33 -39 48 -40 60 -33 224 6 126 10
157 20 149 15 -13 20 -5 19 35 0 23 -5 30 -20 30 -15 0 -21 8 -23 34 -4 37
-42 90 -42 58z m18 -415 l3 -52 -30 0 c-35 0 -38 11 -20 73 7 28 15 37 27 35
13 -2 18 -16 20 -56z m52 -132 c0 -5 -5 -10 -11 -10 -5 0 -7 5 -4 10 3 6 8 10
11 10 2 0 4 -4 4 -10z"/>
<path d="M212 603 c-19 -20 -23 -32 -17 -57 17 -81 4 -133 -38 -151 -27 -11
-36 -11 -59 1 -46 24 -107 13 -96 -18 3 -7 44 -31 91 -53 47 -22 88 -47 91
-55 41 -109 44 -124 26 -145 -12 -14 -15 -26 -10 -41 7 -17 2 -24 -21 -38 -29
-17 -30 -17 -65 13 -19 17 -36 31 -38 31 -13 0 -76 -32 -76 -38 0 -5 10 -18
23 -30 21 -20 34 -22 128 -21 102 1 105 1 137 32 37 35 39 43 14 51 -11 4 -24
29 -36 72 -16 56 -17 67 -5 75 8 5 19 9 25 9 6 0 17 7 24 15 10 12 8 25 -10
66 -25 60 -31 89 -34 179 -3 70 -15 131 -25 129 -3 -1 -17 -12 -29 -26z m38
-493 c0 -5 -5 -10 -11 -10 -5 0 -7 5 -4 10 3 6 8 10 11 10 2 0 4 -4 4 -10z
m-45 -80 c-3 -5 -13 -10 -21 -10 -8 0 -12 5 -9 10 3 6 13 10 21 10 8 0 12 -4
9 -10z"/>
<path d="M775 592 c-16 -14 -19 -25 -15 -59 l6 -41 -40 -6 c-30 -5 -42 -3 -48
8 -10 18 -38 10 -38 -10 0 -8 7 -14 15 -14 9 0 18 -7 22 -16 4 -11 13 -14 29
-10 20 5 24 3 24 -18 0 -13 6 -26 13 -29 8 -3 2 -22 -21 -65 l-32 -61 22 -21
c12 -11 25 -20 29 -20 5 0 6 -24 2 -52 -3 -36 -11 -57 -24 -67 -18 -13 -19
-15 -3 -32 14 -15 14 -19 3 -19 -8 0 -3 -6 11 -13 15 -8 24 -20 22 -30 -2 -14
6 -17 46 -17 53 0 77 21 45 39 -14 7 -15 12 -5 24 10 11 8 18 -9 32 -17 17
-19 26 -13 74 4 31 11 59 16 62 7 4 5 30 -4 70 -21 92 -12 164 20 172 12 3 10
5 -6 6 -18 1 -21 6 -18 24 11 46 10 63 -4 85 -17 26 -19 26 -45 4z m19 -388
c8 -21 -12 -96 -25 -92 -12 4 -13 9 -4 66 6 43 18 54 29 26z"/>
<path d="M665 50 c-8 -13 5 -13 25 0 13 8 13 10 -2 10 -9 0 -20 -4 -23 -10z"/>
<path d="M590 39 c0 -5 5 -7 10 -4 6 3 10 8 10 11 0 2 -4 4 -10 4 -5 0 -10 -5
-10 -11z"/>
</g>
</svg>
