<?xml version="1.0" standalone="no"?>
<!DOCTYPE svg PUBLIC "-//W3C//DTD SVG 20010904//EN"
 "http://www.w3.org/TR/2001/REC-SVG-20010904/DTD/svg10.dtd">
<svg version="1.0" xmlns="http://www.w3.org/2000/svg"
 width="96.000000pt" height="84.000000pt" viewBox="0 0 96.000000 84.000000"
 preserveAspectRatio="xMidYMid meet">
<metadata>
Created by potrace 1.16, written by Peter Selinger 2001-2019
</metadata>
<g transform="translate(0.000000,84.000000) scale(0.100000,-0.100000)"
fill="#000000" stroke="none">
<path d="M558 771 c-35 -17 -62 -24 -70 -19 -22 13 -97 9 -123 -8 -35 -23 -33
-64 5 -104 29 -31 29 -34 21 -93 -15 -108 0 -153 60 -178 18 -7 28 -17 25 -25
-17 -45 -35 -166 -27 -181 6 -10 13 -36 17 -58 l7 -40 12 61 c7 33 16 91 20
127 4 38 11 64 17 61 5 -3 8 -18 7 -32 -1 -15 1 -34 4 -42 3 -8 10 -28 15 -45
10 -30 10 -29 11 13 1 29 7 47 21 60 28 23 30 22 45 -21 12 -34 11 -41 -16
-93 -21 -39 -29 -70 -29 -105 l0 -49 170 0 c94 0 170 2 170 5 0 2 -11 34 -25
70 -13 36 -22 72 -19 80 4 8 2 15 -3 15 -6 0 -17 18 -26 40 -8 22 -11 38 -6
35 5 -4 9 -2 9 4 0 5 -4 13 -10 16 -5 3 -10 11 -10 16 0 6 5 7 12 3 8 -5 9 -2
3 12 -4 10 -8 28 -8 39 0 42 -57 277 -76 313 -11 20 -27 53 -36 72 -34 74 -87
91 -167 51z"/>
</g>
</svg>
