<?xml version="1.0" standalone="no"?>
<!DOCTYPE svg PUBLIC "-//W3C//DTD SVG 20010904//EN"
 "http://www.w3.org/TR/2001/REC-SVG-20010904/DTD/svg10.dtd">
<svg version="1.0" xmlns="http://www.w3.org/2000/svg"
 width="96.000000pt" height="84.000000pt" viewBox="0 0 96.000000 84.000000"
 preserveAspectRatio="xMidYMid meet">
<metadata>
Created by potrace 1.16, written by Peter Selinger 2001-2019
</metadata>
<g transform="translate(0.000000,84.000000) scale(0.100000,-0.100000)"
fill="#000000" stroke="none">
<path d="M503 630 c-7 -18 -7 -33 -1 -44 6 -10 7 -28 4 -42 -4 -13 0 -34 7
-47 8 -12 13 -26 12 -32 -5 -33 -20 -75 -38 -107 -15 -28 -17 -40 -9 -50 7 -9
8 -26 2 -53 -15 -65 -12 -96 9 -102 11 -3 21 -13 24 -22 3 -11 18 -20 38 -24
19 -3 44 -9 57 -13 18 -5 22 -2 22 14 0 11 -8 22 -21 25 -11 3 -19 11 -18 19
3 27 -1 38 -17 38 -14 0 -15 8 -9 48 4 26 11 52 17 59 5 6 8 57 6 115 -3 97
-2 103 17 103 16 0 19 6 17 27 -2 21 1 26 13 22 11 -5 15 1 15 20 0 14 -4 26
-10 26 -5 0 -10 -5 -10 -11 0 -6 -9 -9 -20 -6 -11 3 -23 1 -26 -4 -6 -11 -24
-12 -23 -1 5 27 -4 49 -25 58 -20 9 -24 8 -33 -16z m82 -70 c-3 -5 -10 -10
-16 -10 -5 0 -9 5 -9 10 0 6 7 10 16 10 8 0 12 -4 9 -10z m-35 -315 c0 -40 -3
-47 -26 -55 -37 -14 -37 -14 -30 36 7 56 12 64 37 64 16 0 19 -7 19 -45z m60
-131 c0 -2 -7 -4 -15 -4 -8 0 -15 4 -15 10 0 5 7 7 15 4 8 -4 15 -8 15 -10z"/>
<path d="M242 630 c-7 -11 -18 -20 -25 -20 -16 0 -13 -65 4 -86 7 -9 7 -14 1
-14 -5 0 -13 -17 -17 -37 -4 -21 -14 -46 -22 -55 -20 -22 -61 -23 -91 -3 -26
19 -92 11 -92 -11 0 -8 43 -36 99 -63 55 -27 98 -51 95 -54 -3 -2 5 -32 17
-66 19 -57 20 -64 5 -80 -9 -10 -13 -28 -11 -42 4 -21 -1 -28 -22 -38 -23 -11
-30 -9 -63 18 l-38 30 -41 -16 -42 -16 38 -39 c36 -37 39 -38 106 -38 64 0 68
1 56 17 -12 15 -12 16 6 9 43 -17 51 -16 93 15 34 25 40 34 31 45 -6 8 -18 14
-25 14 -8 0 -16 12 -20 28 -3 15 -10 40 -15 56 -14 46 -11 55 25 70 45 19 51
31 28 64 -33 48 -41 84 -45 192 -1 58 -7 113 -13 122 -9 16 -10 16 -22 -2z
m-22 -260 c0 -5 -2 -10 -4 -10 -3 0 -8 5 -11 10 -3 6 -1 10 4 10 6 0 11 -4 11
-10z m40 -250 c0 -5 -7 -10 -16 -10 -8 0 -12 5 -9 10 3 6 10 10 16 10 5 0 9
-4 9 -10z m-40 -70 c0 -5 -12 -10 -27 -10 -22 0 -25 2 -13 10 20 13 40 13 40
0z"/>
<path d="M781 596 c-18 -19 -22 -33 -19 -61 4 -31 1 -36 -20 -42 -14 -3 -33
-1 -43 6 -25 15 -39 14 -39 -4 0 -8 4 -15 9 -15 5 0 11 -9 14 -21 4 -16 11
-19 26 -14 18 5 21 2 21 -24 0 -23 4 -29 15 -25 21 8 19 2 -15 -56 -16 -28
-30 -56 -30 -63 0 -7 14 -21 30 -30 25 -15 28 -21 20 -37 -5 -10 -10 -30 -10
-45 0 -14 -7 -28 -15 -31 -20 -8 -19 -31 3 -43 15 -9 13 -10 -10 -11 -15 0
-30 -5 -33 -11 -11 -17 2 -21 23 -8 26 16 55 -4 47 -32 -7 -21 10 -33 33 -23
9 4 25 6 35 5 22 -3 33 25 17 44 -6 8 -9 23 -6 33 4 12 0 24 -10 33 -12 10
-14 23 -9 58 4 25 11 51 17 58 6 8 6 25 -1 50 -12 41 -14 135 -5 170 4 14 16
23 33 26 23 3 22 4 -7 6 -28 1 -31 4 -24 19 12 22 9 51 -9 85 l-15 28 -23 -25z
m12 -429 c-5 -34 -20 -47 -36 -31 -3 3 2 26 11 50 19 51 35 39 25 -19z"/>
</g>
</svg>
