<?xml version="1.0" standalone="no"?>
<!DOCTYPE svg PUBLIC "-//W3C//DTD SVG 20010904//EN"
 "http://www.w3.org/TR/2001/REC-SVG-20010904/DTD/svg10.dtd">
<svg version="1.0" xmlns="http://www.w3.org/2000/svg"
 width="96.000000pt" height="84.000000pt" viewBox="0 0 96.000000 84.000000"
 preserveAspectRatio="xMidYMid meet">
<metadata>
Created by potrace 1.16, written by Peter Selinger 2001-2019
</metadata>
<g transform="translate(0.000000,84.000000) scale(0.100000,-0.100000)"
fill="#000000" stroke="none">
<path d="M498 642 c0 -15 0 -34 1 -42 1 -8 2 -28 3 -45 0 -16 5 -35 9 -41 15
-18 13 -56 -4 -115 -9 -30 -16 -69 -15 -85 0 -16 -3 -51 -7 -77 -5 -28 -4 -52
1 -55 5 -4 14 -16 20 -27 12 -21 64 -34 64 -16 0 6 9 11 20 11 25 0 26 -17 3
-23 -11 -3 -7 -5 10 -6 33 -1 37 24 6 34 -15 5 -18 10 -10 18 18 18 13 35 -11
39 -20 3 -23 8 -20 42 3 25 12 46 25 56 l21 17 -20 62 c-11 35 -18 80 -16 102
4 34 7 39 26 37 18 -3 21 1 18 29 -3 26 0 32 11 27 17 -6 31 11 22 26 -5 8
-11 8 -20 0 -7 -6 -19 -8 -28 -4 -8 3 -18 1 -22 -5 -11 -19 -22 -12 -28 17 -4
16 -16 32 -31 39 -24 10 -26 9 -28 -15z m86 -74 c-3 -4 -9 -8 -15 -8 -5 0 -9
4 -9 8 0 5 7 9 15 9 8 0 12 -4 9 -9z m-34 -313 c0 -25 -4 -45 -9 -45 -5 0 -16
-3 -25 -6 -19 -7 -22 29 -6 70 16 44 40 33 40 -19z"/>
<path d="M235 626 c-21 -22 -24 -54 -11 -93 5 -14 3 -23 -3 -23 -6 0 -11 -13
-11 -29 0 -22 -8 -36 -32 -52 l-31 -23 -39 21 c-31 18 -44 20 -73 12 -19 -6
-35 -15 -35 -22 0 -16 188 -110 202 -101 6 4 8 -1 4 -15 -3 -11 -8 -29 -11
-39 -3 -10 6 -33 20 -52 21 -29 23 -36 11 -49 -13 -16 -29 -49 -30 -65 -1 -5
-8 -13 -17 -19 -13 -8 -25 -4 -55 20 -38 29 -40 29 -74 16 -19 -8 -37 -17 -39
-19 -3 -3 15 -25 39 -49 l44 -45 76 1 c71 0 74 1 52 16 -34 24 -27 33 21 28
34 -5 47 -1 71 19 25 21 28 27 17 40 -8 9 -19 16 -25 16 -12 0 -50 116 -41
130 3 5 21 14 40 20 19 6 35 15 35 19 0 4 -14 33 -30 64 -29 53 -30 60 -26
139 6 86 -2 150 -19 154 -6 1 -19 -8 -30 -20z m25 -486 c0 -5 -5 -10 -11 -10
-5 0 -7 5 -4 10 3 6 8 10 11 10 2 0 4 -4 4 -10z m-40 -69 c0 -11 -31 -24 -39
-16 -3 3 1 10 9 15 19 12 30 12 30 1z"/>
<path d="M788 615 c-22 -19 -26 -30 -23 -61 3 -38 -6 -54 -32 -54 -7 0 -13 7
-13 15 0 20 -16 19 -24 -1 -13 -34 -7 -54 18 -54 17 0 26 -7 30 -25 4 -14 11
-25 16 -25 5 0 -4 -23 -20 -50 -36 -62 -37 -77 -5 -92 30 -14 31 -22 4 -93
-12 -31 -19 -58 -17 -59 1 -2 12 -8 23 -15 18 -11 18 -12 -7 -8 -22 3 -28 0
-28 -14 0 -11 5 -19 10 -19 6 0 10 5 10 10 0 14 20 12 24 -3 3 -6 7 -24 10
-39 7 -30 30 -38 40 -13 3 8 14 15 25 15 29 0 34 16 14 46 -15 24 -17 51 -15
217 1 105 5 194 9 198 4 4 26 9 48 12 l40 4 -45 1 c-46 2 -46 2 -42 35 2 17
-3 46 -10 63 l-13 32 -27 -23z m12 -420 c0 -48 -3 -55 -19 -55 -11 0 -22 3
-24 8 -4 6 34 101 41 102 1 0 2 -25 2 -55z"/>
</g>
</svg>
