<?xml version="1.0" standalone="no"?>
<!DOCTYPE svg PUBLIC "-//W3C//DTD SVG 20010904//EN"
 "http://www.w3.org/TR/2001/REC-SVG-20010904/DTD/svg10.dtd">
<svg version="1.0" xmlns="http://www.w3.org/2000/svg"
 width="96.000000pt" height="84.000000pt" viewBox="0 0 96.000000 84.000000"
 preserveAspectRatio="xMidYMid meet">
<metadata>
Created by potrace 1.16, written by Peter Selinger 2001-2019
</metadata>
<g transform="translate(0.000000,84.000000) scale(0.100000,-0.100000)"
fill="#000000" stroke="none">
<path d="M510 671 c0 -11 -5 -23 -10 -26 -8 -5 -8 -11 0 -19 5 -7 8 -26 4 -42
-3 -17 0 -36 9 -48 11 -16 11 -29 0 -90 -8 -39 -13 -82 -12 -96 1 -14 -1 -51
-6 -83 -5 -40 -4 -62 4 -70 6 -6 11 -19 11 -28 0 -11 11 -19 33 -23 17 -3 44
-9 60 -12 22 -5 27 -3 27 14 0 12 -9 22 -22 25 -18 5 -19 9 -9 21 15 18 6 38
-17 34 -25 -4 -18 82 9 101 19 13 25 41 12 55 -13 13 -30 95 -25 126 3 24 9
30 29 30 17 0 23 5 21 18 -2 11 3 16 15 14 11 -2 17 4 17 16 0 16 -6 19 -32
16 -18 -1 -37 -3 -41 -3 -5 -1 -5 -7 -1 -13 5 -9 3 -9 -9 1 -11 8 -15 21 -11
36 4 16 -1 29 -17 44 -28 26 -39 27 -39 2z m38 -398 c-2 -36 -7 -49 -20 -51
-21 -4 -24 30 -8 72 16 43 31 31 28 -21z m55 -120 c-7 -2 -19 -2 -25 0 -7 3
-2 5 12 5 14 0 19 -2 13 -5z"/>
<path d="M231 648 c-22 -27 -23 -34 -14 -69 6 -22 6 -42 2 -45 -5 -3 -9 -16
-9 -29 0 -40 -81 -77 -117 -54 -20 12 -84 0 -90 -17 -4 -13 191 -117 201 -107
3 4 4 -10 1 -30 -5 -30 -1 -43 20 -71 22 -29 23 -35 10 -46 -8 -7 -15 -21 -15
-31 0 -19 -35 -49 -59 -49 -8 0 -25 10 -38 22 -21 19 -26 20 -63 9 -22 -6 -40
-15 -40 -19 0 -4 24 -31 53 -60 l53 -52 69 0 68 0 -24 26 c-24 26 -24 26 -2
20 17 -5 31 1 60 28 l38 35 -22 21 c-13 11 -23 32 -23 45 0 13 -5 36 -10 51
-14 36 -5 61 25 68 31 8 31 23 0 88 -22 47 -25 62 -21 145 2 51 0 96 -5 99 -5
3 -9 14 -9 24 0 30 -13 30 -39 -2z m-21 -213 c-7 -8 -20 -15 -29 -15 -13 1
-13 3 3 15 26 19 42 19 26 0z m40 -159 c0 -3 -4 -8 -10 -11 -5 -3 -10 -1 -10
4 0 6 5 11 10 11 6 0 10 -2 10 -4z m-28 -178 c13 -33 -19 -51 -41 -24 -10 11
-8 17 6 25 24 14 30 13 35 -1z"/>
<path d="M795 632 c-17 -14 -19 -25 -14 -59 3 -25 1 -43 -4 -43 -5 0 -15 -8
-22 -17 -11 -14 -16 -15 -28 -5 -22 19 -33 -4 -16 -34 14 -28 22 -30 39 -9 18
21 27 19 32 -9 3 -16 -8 -42 -34 -82 l-40 -58 21 -17 c12 -10 27 -19 33 -21 7
-3 9 -11 3 -24 -23 -54 -43 -119 -38 -127 3 -5 15 -12 27 -17 20 -8 19 -9 -5
-9 -15 -1 -30 -8 -33 -17 -9 -23 -7 -34 4 -34 6 0 10 7 10 15 0 39 71 19 85
-24 3 -10 13 -22 23 -25 9 -3 23 -9 31 -12 16 -7 10 28 -19 116 -12 36 -17 75
-15 110 2 30 4 88 4 128 1 59 5 75 21 89 21 18 26 39 11 45 -4 2 -11 13 -15
25 -6 18 -1 23 29 34 19 7 35 17 35 21 0 5 -13 2 -30 -7 -37 -19 -36 -20 -35
13 1 26 -21 72 -34 72 -3 -1 -15 -8 -26 -18z m16 -389 c1 -27 -1 -67 -4 -69
-1 -1 -12 -5 -24 -8 -28 -9 -29 3 -5 61 20 49 32 55 33 16z"/>
</g>
</svg>
