<?xml version="1.0" standalone="no"?>
<!DOCTYPE svg PUBLIC "-//W3C//DTD SVG 20010904//EN"
 "http://www.w3.org/TR/2001/REC-SVG-20010904/DTD/svg10.dtd">
<svg version="1.0" xmlns="http://www.w3.org/2000/svg"
 width="96.000000pt" height="84.000000pt" viewBox="0 0 96.000000 84.000000"
 preserveAspectRatio="xMidYMid meet">
<metadata>
Created by potrace 1.16, written by Peter Selinger 2001-2019
</metadata>
<g transform="translate(0.000000,84.000000) scale(0.100000,-0.100000)"
fill="#000000" stroke="none">
<path d="M521 673 c-16 -42 -23 -114 -10 -129 10 -12 8 -44 -10 -140 -5 -23
-4 -48 0 -56 5 -8 5 -37 1 -64 -7 -45 3 -102 21 -120 13 -14 90 -16 98 -3 11
18 2 29 -23 29 -21 0 -21 0 -3 20 18 20 18 21 -3 27 -19 4 -22 12 -22 52 0 35
5 49 19 58 19 12 19 13 0 75 -22 74 -18 122 12 113 10 -3 27 -1 39 5 23 12 28
45 5 36 -8 -3 -20 0 -27 7 -7 7 -22 12 -33 12 -17 0 -19 6 -17 35 2 25 -2 41
-16 53 -19 17 -20 17 -31 -10z m29 -388 c0 -33 -4 -45 -15 -45 -16 0 -19 28
-9 68 10 37 24 25 24 -23z"/>
<path d="M230 666 c0 -9 -9 -21 -20 -28 -20 -13 -19 -48 3 -76 7 -9 7 -20 -1
-35 -5 -12 -12 -29 -15 -37 -7 -24 -77 -43 -97 -26 -8 7 -19 12 -25 11 -5 -2
-22 -6 -37 -9 -16 -4 -28 -12 -28 -19 0 -13 162 -107 185 -107 13 0 14 -9 10
-43 -6 -39 -4 -44 25 -66 29 -21 30 -24 16 -40 -9 -10 -16 -22 -16 -28 0 -5
-18 -18 -40 -28 -40 -18 -40 -18 -65 5 -25 23 -25 23 -65 5 l-41 -18 63 -64
62 -63 68 0 c71 0 82 7 48 28 -24 14 -26 32 -5 32 8 0 20 9 27 20 7 11 18 20
24 20 6 0 18 7 25 16 11 14 9 19 -14 36 -15 11 -27 27 -27 36 0 10 -7 30 -15
45 -17 34 -5 67 24 67 10 0 24 7 31 15 11 13 7 24 -19 66 -28 46 -31 58 -33
145 -2 62 -7 99 -15 106 -7 6 -13 16 -13 24 0 7 -4 16 -10 19 -5 3 -10 -1 -10
-9z m-17 -221 c1 -6 -11 -11 -28 -13 -29 -2 -29 -2 -10 13 20 16 35 16 38 0z
m4 -331 c10 -26 -14 -41 -35 -21 -15 16 -15 19 -2 27 21 14 30 12 37 -6z"/>
<path d="M809 657 c-8 -12 -14 -38 -13 -57 1 -19 -4 -47 -12 -62 -21 -40 -18
-61 6 -53 32 10 25 -20 -19 -86 -40 -59 -40 -59 -20 -78 19 -18 20 -21 6 -62
-29 -85 -26 -117 13 -131 24 -8 28 -13 19 -24 -6 -7 -8 -22 -4 -34 6 -20 42
-46 52 -37 2 3 -5 10 -16 17 -12 6 -21 17 -21 25 0 20 2 19 53 -15 25 -16 51
-30 58 -30 7 0 21 -7 31 -17 15 -13 18 -14 18 -1 0 14 -52 71 -61 66 -2 -2 -3
-1 -2 1 1 2 -12 27 -28 56 l-30 53 15 114 c8 62 14 120 14 128 -1 8 0 32 0 52
l2 38 45 -7 c38 -5 45 -3 45 11 0 9 -7 16 -15 16 -13 0 -36 10 -64 28 -3 1 13
21 35 45 l39 42 -46 -43 -46 -43 6 38 c6 32 3 41 -15 56 -27 21 -26 21 -45 -6z
m15 -374 c4 -9 4 -35 0 -59 -5 -37 -10 -43 -35 -46 -36 -6 -38 13 -7 77 24 49
32 54 42 28z"/>
</g>
</svg>
