<?xml version="1.0" standalone="no"?>
<!DOCTYPE svg PUBLIC "-//W3C//DTD SVG 20010904//EN"
 "http://www.w3.org/TR/2001/REC-SVG-20010904/DTD/svg10.dtd">
<svg version="1.0" xmlns="http://www.w3.org/2000/svg"
 width="96.000000pt" height="84.000000pt" viewBox="0 0 96.000000 84.000000"
 preserveAspectRatio="xMidYMid meet">
<metadata>
Created by potrace 1.16, written by Peter Selinger 2001-2019
</metadata>
<g transform="translate(0.000000,84.000000) scale(0.100000,-0.100000)"
fill="#000000" stroke="none">
<path d="M526 673 c-13 -18 -18 -42 -18 -91 0 -37 -5 -102 -10 -145 -8 -61 -8
-84 2 -103 10 -18 11 -32 3 -59 -7 -20 -7 -37 -2 -41 5 -3 9 -13 9 -23 0 -30
33 -52 68 -45 40 8 49 30 14 39 -23 6 -25 8 -9 16 21 12 23 39 2 39 -23 0 -20
68 5 88 19 17 19 18 -6 76 -31 75 -25 97 23 93 22 -1 38 3 40 11 3 6 -2 12
-11 12 -8 0 -19 6 -23 14 -4 7 -18 18 -30 24 -19 10 -20 15 -10 41 9 24 7 33
-9 53 l-19 25 -19 -24z m24 -378 c0 -24 -5 -35 -15 -35 -18 0 -19 9 -5 44 13
36 20 32 20 -9z"/>
<path d="M819 677 c-15 -27 -22 -164 -9 -172 17 -10 11 -32 -20 -85 -20 -35
-28 -59 -24 -74 3 -13 -2 -45 -10 -70 -26 -77 -22 -104 19 -123 29 -14 35 -22
33 -42 -2 -19 5 -31 31 -48 35 -24 51 -29 51 -15 0 4 -15 13 -32 21 -18 7 -28
15 -21 18 7 2 33 -5 59 -16 26 -12 50 -21 55 -21 21 0 7 30 -23 51 -18 12 -35
24 -37 25 -2 2 -4 13 -5 25 0 12 -10 27 -21 33 -11 6 -22 12 -24 13 -9 6 24
119 36 126 10 6 12 21 7 53 -3 24 -3 73 1 109 l7 65 35 0 c27 0 34 4 31 17 -2
10 -15 20 -30 23 -22 4 -25 8 -18 20 5 8 10 20 9 25 0 6 -7 -2 -15 -17 -21
-40 -32 -34 -27 15 4 38 2 43 -21 54 -23 10 -28 9 -37 -10z m8 -418 c-6 -69
-5 -68 -38 -71 -18 -2 -25 2 -27 18 -4 31 35 114 54 114 14 0 16 -8 11 -61z"/>
<path d="M220 659 c0 -9 -7 -22 -15 -29 -20 -16 -19 -49 2 -72 13 -14 14 -21
5 -30 -7 -7 -12 -20 -12 -29 0 -9 -11 -19 -24 -23 -13 -3 -31 -8 -39 -12 -8
-3 -21 2 -30 10 -19 19 -92 8 -92 -13 0 -16 161 -111 188 -111 13 0 17 -5 13
-17 -19 -65 -18 -70 14 -93 29 -20 30 -24 16 -39 -9 -10 -16 -22 -16 -28 0 -5
-18 -15 -41 -22 -36 -11 -43 -10 -60 5 -17 15 -24 16 -59 5 -22 -6 -40 -15
-40 -19 0 -4 30 -38 68 -75 65 -65 69 -67 118 -67 66 0 81 15 46 45 l-27 23
27 11 c16 6 28 17 28 26 0 8 8 15 19 15 10 0 24 6 30 14 10 12 6 19 -18 37
-17 13 -31 30 -31 39 0 9 -9 26 -21 39 -25 27 -14 45 31 55 43 8 45 27 11 79
-21 30 -31 57 -31 83 0 22 -4 46 -10 54 -5 8 -5 19 -1 25 14 17 1 70 -25 101
-16 21 -23 24 -24 13z m-5 -208 c3 -5 1 -13 -5 -16 -15 -9 -43 3 -35 15 8 13
32 13 40 1z m1 -322 c11 -18 -13 -34 -31 -19 -8 7 -15 16 -15 21 0 13 38 11
46 -2z"/>
</g>
</svg>
