<?xml version="1.0" standalone="no"?>
<!DOCTYPE svg PUBLIC "-//W3C//DTD SVG 20010904//EN"
 "http://www.w3.org/TR/2001/REC-SVG-20010904/DTD/svg10.dtd">
<svg version="1.0" xmlns="http://www.w3.org/2000/svg"
 width="96.000000pt" height="84.000000pt" viewBox="0 0 96.000000 84.000000"
 preserveAspectRatio="xMidYMid meet">
<metadata>
Created by potrace 1.16, written by Peter Selinger 2001-2019
</metadata>
<g transform="translate(0.000000,84.000000) scale(0.100000,-0.100000)"
fill="#000000" stroke="none">
<path d="M539 689 c-18 -19 -34 -97 -30 -148 2 -18 -5 -67 -15 -108 -14 -61
-15 -76 -4 -83 9 -6 11 -22 6 -59 -4 -33 -3 -51 4 -51 5 0 10 -7 10 -16 0 -34
58 -66 85 -46 20 14 17 42 -5 42 -24 0 -27 15 -4 24 16 6 16 8 0 24 -20 23
-21 76 -1 92 9 8 13 20 9 29 -18 44 -32 117 -25 124 5 5 19 4 31 -3 29 -15 56
5 28 21 -10 6 -18 15 -18 21 0 6 -10 19 -21 29 -20 17 -20 22 -9 50 9 20 10
33 3 37 -5 4 -14 14 -19 23 -8 14 -11 13 -25 -2z m11 -378 c0 -16 -6 -31 -15
-35 -11 -4 -15 2 -15 23 0 15 3 31 7 34 14 15 23 6 23 -22z"/>
<path d="M808 671 c-9 -17 -12 -35 -7 -46 4 -11 5 -36 2 -56 -3 -22 -1 -39 6
-43 18 -12 13 -43 -18 -105 -27 -52 -28 -60 -16 -79 13 -18 12 -26 -10 -75
-28 -60 -26 -78 11 -102 16 -10 24 -25 24 -44 0 -29 33 -81 52 -81 7 0 2 10
-10 23 -23 24 -29 47 -13 47 5 0 32 -7 60 -17 67 -21 89 -6 37 27 -30 18 -35
26 -30 46 5 19 1 26 -22 36 -16 7 -30 13 -32 14 -9 5 26 102 41 114 17 14 18
21 8 58 -14 49 -11 161 4 163 6 0 21 2 35 2 18 2 26 9 28 25 3 19 -1 22 -33
22 -26 0 -34 3 -29 13 6 9 5 9 -8 -1 -13 -11 -15 -7 -13 26 2 34 -2 40 -25 49
-23 9 -28 7 -42 -16z m27 -387 c-11 -61 -23 -84 -45 -84 -26 0 -25 20 3 75 28
56 52 61 42 9z"/>
<path d="M220 667 c0 -9 -9 -22 -19 -29 -17 -12 -18 -17 -6 -51 15 -43 10 -76
-13 -94 -19 -16 -56 -17 -80 -2 -20 12 -83 0 -89 -18 -4 -12 171 -116 194
-116 7 0 11 -7 9 -16 -2 -9 -7 -26 -11 -37 -4 -16 1 -27 21 -41 26 -19 26 -22
13 -51 -7 -17 -28 -37 -48 -47 -33 -15 -36 -15 -61 3 -24 18 -29 19 -60 6 -19
-8 -36 -16 -37 -18 -2 -2 32 -37 74 -79 85 -83 118 -95 163 -59 l22 17 -21 19
c-26 24 -26 32 -1 39 12 3 20 14 20 25 0 12 9 23 20 27 11 3 20 12 20 19 0 7
-9 21 -20 31 -11 10 -20 26 -20 35 0 9 -9 25 -20 35 -24 22 -19 31 26 50 19 8
34 19 34 25 0 6 -11 33 -25 60 -14 27 -25 65 -25 84 0 19 -4 37 -8 40 -5 3 -7
28 -6 56 2 27 -1 50 -6 50 -6 0 -10 6 -10 14 0 7 -7 19 -15 26 -12 10 -15 10
-15 -3z m0 -213 c0 -16 -18 -18 -39 -5 -11 7 -10 11 5 19 21 12 34 7 34 -14z
m0 -317 c0 -21 -11 -27 -31 -16 -27 14 -23 29 6 29 14 0 25 -6 25 -13z"/>
<path d="M628 173 c7 -3 16 -2 19 1 4 3 -2 6 -13 5 -11 0 -14 -3 -6 -6z"/>
</g>
</svg>
