<?xml version="1.0" standalone="no"?>
<!DOCTYPE svg PUBLIC "-//W3C//DTD SVG 20010904//EN"
 "http://www.w3.org/TR/2001/REC-SVG-20010904/DTD/svg10.dtd">
<svg version="1.0" xmlns="http://www.w3.org/2000/svg"
 width="96.000000pt" height="84.000000pt" viewBox="0 0 96.000000 84.000000"
 preserveAspectRatio="xMidYMid meet">
<metadata>
Created by potrace 1.16, written by Peter Selinger 2001-2019
</metadata>
<g transform="translate(0.000000,84.000000) scale(0.100000,-0.100000)"
fill="#000000" stroke="none">
<path d="M528 708 c-11 -11 -18 -33 -18 -58 0 -22 -3 -40 -7 -40 -5 0 -9 -26
-9 -57 -1 -32 -3 -107 -4 -168 -3 -123 4 -162 33 -188 21 -18 33 -20 57 -9 19
9 22 42 4 42 -17 0 -18 12 -1 29 10 11 10 14 0 18 -17 6 -17 87 -1 112 9 15 7
30 -10 76 -12 31 -22 59 -22 61 0 10 49 3 53 -8 4 -10 7 -10 18 0 12 11 11 15
-3 23 -10 6 -18 17 -18 24 0 8 -4 15 -10 15 -5 0 -10 7 -10 15 0 8 -4 15 -9
15 -5 0 -5 16 0 37 4 21 4 40 0 43 -4 3 -12 12 -17 21 -8 13 -11 13 -26 -3z
m22 -382 c0 -20 -6 -36 -14 -39 -20 -8 -26 2 -26 40 0 26 4 33 20 33 16 0 20
-7 20 -34z"/>
<path d="M814 688 c-11 -33 -12 -106 -2 -153 8 -34 5 -49 -22 -104 -28 -58
-30 -66 -16 -77 21 -15 20 -23 -4 -75 -25 -56 -25 -62 5 -97 14 -17 25 -41 25
-55 0 -16 10 -34 26 -46 37 -29 51 -26 17 3 -40 34 -22 43 43 21 73 -25 91 -9
34 29 -32 21 -40 31 -35 46 5 15 0 23 -19 32 -14 6 -26 15 -26 19 0 25 27 105
37 114 10 7 11 26 5 70 -4 34 -3 78 3 102 9 39 12 42 40 40 24 -2 31 2 33 21
3 18 -1 22 -22 22 -29 0 -30 2 -16 33 10 22 10 22 -6 0 -26 -36 -44 -29 -37
12 4 28 1 39 -13 50 -27 20 -42 18 -50 -7z m15 -414 c-11 -46 -23 -63 -41 -64
-15 0 -8 35 14 81 28 58 43 48 27 -17z"/>
<path d="M204 671 c-20 -24 -21 -30 -9 -63 18 -54 9 -87 -31 -106 -28 -13 -38
-13 -57 -3 -26 14 -88 3 -94 -16 -4 -10 175 -123 194 -123 5 0 8 -14 5 -31 -3
-22 1 -36 17 -50 22 -20 28 -39 12 -39 -5 0 -11 -10 -15 -23 -3 -13 -20 -30
-38 -39 -30 -14 -35 -14 -59 4 -25 19 -27 19 -63 2 l-37 -18 83 -83 c45 -46
91 -83 101 -83 11 0 32 10 49 21 l29 21 -25 27 c-25 26 -25 27 -6 39 11 7 20
18 20 26 0 8 11 17 25 20 25 6 34 30 15 41 -12 8 -60 99 -60 115 0 6 16 18 35
26 19 8 35 18 35 22 0 4 -14 31 -30 61 -18 32 -30 69 -30 91 0 20 -5 41 -12
48 -9 9 -9 12 0 12 16 0 11 78 -5 85 -7 2 -13 11 -13 19 0 26 -14 24 -36 -3z
m11 -190 c7 -12 -31 -25 -46 -15 -8 4 -7 9 2 15 18 11 36 11 44 0z m0 -331 c0
-18 -16 -22 -35 -10 -13 9 -13 11 0 20 19 12 35 8 35 -10z"/>
<path d="M610 180 c0 -5 5 -10 10 -10 6 0 10 5 10 10 0 6 -4 10 -10 10 -5 0
-10 -4 -10 -10z"/>
</g>
</svg>
