<?xml version="1.0" standalone="no"?>
<!DOCTYPE svg PUBLIC "-//W3C//DTD SVG 20010904//EN"
 "http://www.w3.org/TR/2001/REC-SVG-20010904/DTD/svg10.dtd">
<svg version="1.0" xmlns="http://www.w3.org/2000/svg"
 width="96.000000pt" height="84.000000pt" viewBox="0 0 96.000000 84.000000"
 preserveAspectRatio="xMidYMid meet">
<metadata>
Created by potrace 1.16, written by Peter Selinger 2001-2019
</metadata>
<g transform="translate(0.000000,84.000000) scale(0.100000,-0.100000)"
fill="#000000" stroke="none">
<path d="M510 746 c0 -7 -6 -19 -14 -25 -7 -6 -11 -22 -8 -36 2 -14 1 -33 -3
-42 -8 -19 -8 -363 0 -402 5 -29 21 -49 46 -56 10 -4 19 -13 19 -21 0 -8 4
-14 9 -14 4 0 7 24 5 54 -2 42 1 56 13 60 11 4 12 10 5 19 -6 6 -13 34 -17 61
-7 42 -5 51 11 63 18 13 18 16 -13 73 -38 68 -41 84 -14 75 29 -9 35 11 16 51
-9 19 -15 50 -13 69 1 19 -3 40 -10 47 -6 6 -12 18 -12 25 0 7 -4 13 -10 13
-5 0 -10 -6 -10 -14z m34 -387 c11 -58 8 -71 -16 -67 -20 3 -23 10 -26 51 -3
41 -1 47 16 47 14 0 21 -9 26 -31z"/>
<path d="M210 717 c0 -8 -7 -20 -15 -27 -16 -14 -20 -56 -6 -64 5 -4 8 -25 8
-49 -2 -38 -6 -44 -39 -60 -29 -14 -41 -16 -55 -7 -21 13 -84 1 -90 -17 -4
-10 168 -123 187 -123 6 0 10 -10 10 -22 0 -13 9 -36 20 -53 15 -23 16 -32 7
-43 -6 -8 -16 -24 -22 -35 -16 -34 -60 -45 -85 -22 -20 18 -22 18 -61 -1 l-39
-19 89 -89 88 -88 42 23 c22 13 41 27 41 31 0 4 -13 17 -30 30 -32 23 -38 38
-17 38 7 0 23 11 35 25 12 14 26 25 32 25 16 0 12 19 -20 87 -16 34 -30 70
-30 78 0 8 14 21 30 30 l30 16 -30 60 c-18 34 -30 73 -29 92 1 18 -2 39 -5 48
-4 10 -3 19 1 22 12 7 4 77 -8 77 -5 0 -9 6 -9 14 0 7 -7 19 -15 26 -12 10
-15 10 -15 -3z m-2 -219 c-3 -7 -18 -14 -34 -16 l-29 -2 25 14 c31 19 43 20
38 4z m1 -345 c-11 -12 -39 -7 -39 8 0 4 8 12 17 18 21 12 37 -7 22 -26z"/>
<path d="M820 702 c-14 -32 -20 -130 -8 -154 8 -16 -16 -95 -42 -140 -15 -26
-12 -38 10 -56 l21 -17 -21 -42 c-25 -53 -26 -88 0 -106 11 -8 21 -28 23 -47
4 -29 10 -36 42 -47 49 -17 58 -9 14 12 l-34 15 40 -6 c22 -3 46 -10 52 -16
14 -11 43 -4 43 11 0 5 -19 20 -42 33 -33 18 -42 29 -40 45 2 13 -6 27 -19 37
-21 15 -22 18 -10 68 6 29 18 59 25 68 11 12 12 27 5 70 -5 30 -6 69 -2 85 4
17 6 36 4 44 -2 10 3 11 16 6 10 -4 28 -10 41 -12 33 -8 30 30 -4 43 l-26 9
22 28 c12 15 21 30 18 32 -2 2 -12 -9 -23 -26 -30 -44 -74 -35 -46 10 13 19 2
48 -24 65 -21 14 -23 13 -35 -12z m6 -416 c-7 -47 -29 -76 -41 -56 -7 11 36
111 44 104 2 -2 0 -23 -3 -48z"/>
</g>
</svg>
