<?xml version="1.0" standalone="no"?>
<!DOCTYPE svg PUBLIC "-//W3C//DTD SVG 20010904//EN"
 "http://www.w3.org/TR/2001/REC-SVG-20010904/DTD/svg10.dtd">
<svg version="1.0" xmlns="http://www.w3.org/2000/svg"
 width="96.000000pt" height="84.000000pt" viewBox="0 0 96.000000 84.000000"
 preserveAspectRatio="xMidYMid meet">
<metadata>
Created by potrace 1.16, written by Peter Selinger 2001-2019
</metadata>
<g transform="translate(0.000000,84.000000) scale(0.100000,-0.100000)"
fill="#000000" stroke="none">
<path d="M495 754 c-11 -8 -21 -20 -21 -27 -1 -7 -2 -17 -3 -23 0 -7 -9 -11
-18 -10 -14 1 -18 -7 -19 -41 0 -30 4 -43 13 -43 11 0 14 -18 13 -77 -1 -43 1
-123 4 -178 4 -64 1 -108 -6 -122 -8 -17 -8 -26 1 -37 7 -8 10 -21 6 -28 -4
-7 0 -5 8 5 8 9 17 17 21 17 15 0 56 45 52 57 -3 7 2 16 10 21 12 7 13 19 5
77 -9 60 -8 70 7 81 15 11 14 15 -9 50 -48 75 -50 81 -37 111 16 37 18 133 4
160 -10 20 -13 20 -31 7z m48 -411 c7 -36 0 -45 -31 -36 -18 4 -22 13 -22 48
0 33 4 44 18 47 18 4 25 -8 35 -59z m-43 -122 c0 -14 -18 -23 -30 -16 -6 4 -8
11 -5 16 8 12 35 12 35 0z"/>
<path d="M202 726 c-6 -14 -16 -26 -20 -26 -11 0 -3 -48 9 -56 15 -9 -2 -87
-24 -111 -22 -24 -56 -30 -74 -12 -15 15 -94 -7 -87 -24 2 -6 44 -36 92 -66
48 -29 92 -56 97 -60 6 -3 20 -27 32 -53 22 -45 22 -46 2 -64 -10 -9 -19 -23
-19 -30 0 -15 -31 -34 -56 -34 -10 0 -25 7 -34 15 -16 14 -21 14 -54 -1 -20
-10 -36 -20 -36 -24 0 -3 38 -44 85 -90 l85 -85 46 25 46 24 -40 37 -40 38 29
10 c16 5 32 18 36 28 4 10 12 23 19 28 11 8 9 21 -5 63 -10 29 -21 55 -25 59
-3 3 -6 19 -6 34 0 19 6 30 20 34 26 8 25 21 -6 84 -19 37 -25 62 -21 85 3 19
0 39 -6 45 -9 9 -9 14 0 19 12 8 13 82 1 82 -4 0 -13 12 -21 26 l-13 25 -12
-25z m-4 -223 c-2 -10 -11 -19 -21 -21 -16 -3 -17 -1 -5 17 16 25 31 27 26 4z
m12 -315 c0 -7 -5 -20 -10 -28 -8 -12 -11 -13 -22 -2 -11 11 -9 16 6 28 24 17
26 17 26 2z"/>
<path d="M814 682 c-10 -15 -18 -30 -17 -33 2 -6 3 -47 3 -109 0 -14 -12 -60
-27 -104 -26 -75 -27 -79 -9 -92 10 -7 23 -15 27 -16 5 -2 -4 -27 -18 -57
l-27 -54 24 -19 c14 -11 25 -25 26 -32 0 -6 2 -20 2 -31 2 -21 68 -50 78 -34
3 5 0 9 -7 9 -7 0 -10 3 -6 6 3 4 20 1 37 -4 30 -11 60 -7 60 7 0 4 -22 18
-50 30 -45 21 -65 41 -40 41 6 0 10 9 10 20 0 13 -9 22 -26 26 -18 5 -23 11
-19 23 4 9 9 29 12 46 4 16 15 37 26 46 20 16 20 16 -3 71 -21 52 -21 56 -6
86 17 33 30 40 41 22 3 -5 17 -10 31 -10 34 0 31 28 -6 44 -17 7 -27 16 -23
21 5 4 3 5 -4 2 -19 -12 -45 4 -37 22 16 39 12 66 -11 83 -22 17 -24 17 -41
-10z m-2 -434 c-20 -20 -33 2 -15 27 17 22 18 22 21 3 2 -11 -1 -25 -6 -30z"/>
</g>
</svg>
