<?xml version="1.0" standalone="no"?>
<!DOCTYPE svg PUBLIC "-//W3C//DTD SVG 20010904//EN"
 "http://www.w3.org/TR/2001/REC-SVG-20010904/DTD/svg10.dtd">
<svg version="1.0" xmlns="http://www.w3.org/2000/svg"
 width="96.000000pt" height="84.000000pt" viewBox="0 0 96.000000 84.000000"
 preserveAspectRatio="xMidYMid meet">
<metadata>
Created by potrace 1.16, written by Peter Selinger 2001-2019
</metadata>
<g transform="translate(0.000000,84.000000) scale(0.100000,-0.100000)"
fill="#000000" stroke="none">
<path d="M492 750 c-12 -12 -22 -30 -22 -42 0 -20 -1 -21 -20 -3 -11 10 -20
15 -20 10 0 -4 -6 -2 -13 4 -17 13 -27 5 -27 -22 0 -13 5 -17 15 -13 13 5 15
0 9 -30 -6 -33 -5 -35 18 -29 24 6 24 4 22 -37 -2 -24 -9 -69 -16 -101 -11
-52 -11 -60 3 -71 21 -14 30 -96 12 -96 -16 0 -17 -36 -2 -45 7 -5 5 -13 -7
-26 -9 -10 -14 -25 -11 -34 4 -8 2 -15 -3 -15 -6 0 -10 -5 -10 -12 0 -6 7 -4
18 5 10 10 25 17 33 18 20 1 72 33 71 44 0 6 4 18 9 28 6 11 6 38 0 74 -8 38
-8 60 -1 68 8 9 5 23 -10 48 -23 39 -39 137 -22 137 14 0 25 32 12 40 -6 4 -7
17 -1 37 9 31 4 83 -8 83 -4 0 -17 -9 -29 -20z m31 -357 c21 -75 18 -86 -21
-76 -18 4 -22 13 -22 42 0 21 3 41 7 44 12 13 32 7 36 -10z m-47 -165 c-9 -5
-21 -6 -28 -2 -8 5 -5 10 8 14 25 10 41 0 20 -12z"/>
<path d="M200 740 c0 -7 -7 -21 -16 -31 -14 -16 -15 -21 -1 -48 12 -24 13 -39
4 -73 -16 -66 -62 -95 -97 -63 -13 12 -23 12 -53 3 -20 -6 -37 -17 -37 -23 0
-13 170 -125 189 -125 6 0 11 -6 11 -13 0 -7 9 -30 20 -52 20 -39 20 -39 0
-57 -11 -10 -20 -25 -20 -32 0 -8 -14 -19 -30 -26 -26 -11 -33 -10 -50 5 -20
18 -51 16 -83 -7 -16 -12 -9 -21 72 -102 l90 -89 43 28 42 28 -42 36 c-37 32
-58 62 -33 47 16 -10 61 13 61 30 0 10 7 25 15 34 14 16 13 23 -15 73 -37 67
-38 90 -5 105 31 14 31 20 2 81 -23 47 -31 140 -14 158 13 12 -5 74 -29 100
-14 15 -24 20 -24 13z m-10 -229 c0 -12 -26 -32 -33 -25 -6 7 14 33 26 34 4 0
7 -4 7 -9z m14 -320 c3 -4 0 -16 -7 -25 -12 -17 -14 -17 -27 -1 -12 14 -12 18
1 26 18 11 26 11 33 0z"/>
<path d="M817 687 c-8 -13 -14 -41 -13 -63 1 -21 -1 -46 -5 -54 -4 -8 -14 -42
-22 -75 -8 -33 -21 -75 -28 -94 -13 -32 -13 -35 13 -54 27 -20 27 -21 9 -46
-33 -48 -34 -75 -1 -106 28 -27 29 -30 13 -47 -9 -10 -14 -20 -12 -21 22 -17
68 -47 73 -47 3 0 6 5 6 10 0 6 -6 10 -14 10 -7 0 -20 7 -27 16 -12 15 -11 16
16 10 52 -11 135 -15 135 -7 0 5 -25 20 -55 35 -49 23 -55 29 -49 50 4 17 1
27 -12 34 -16 9 -16 14 -4 58 7 27 17 54 22 60 5 7 2 37 -6 71 -12 55 -12 61
6 86 16 22 23 25 38 17 28 -15 60 -12 60 5 0 9 -12 21 -27 28 -16 6 -31 16
-35 22 -4 5 -8 6 -8 2 0 -4 -6 -2 -14 5 -9 9 -11 19 -5 30 14 26 11 53 -9 71
-24 22 -27 21 -45 -6z m-1 -402 c-4 -21 -13 -35 -21 -35 -19 0 -19 24 0 40 8
7 15 19 15 28 0 8 3 13 6 9 4 -3 3 -22 0 -42z"/>
</g>
</svg>
