<?xml version="1.0" standalone="no"?>
<!DOCTYPE svg PUBLIC "-//W3C//DTD SVG 20010904//EN"
 "http://www.w3.org/TR/2001/REC-SVG-20010904/DTD/svg10.dtd">
<svg version="1.0" xmlns="http://www.w3.org/2000/svg"
 width="96.000000pt" height="84.000000pt" viewBox="0 0 96.000000 84.000000"
 preserveAspectRatio="xMidYMid meet">
<metadata>
Created by potrace 1.16, written by Peter Selinger 2001-2019
</metadata>
<g transform="translate(0.000000,84.000000) scale(0.100000,-0.100000)"
fill="#000000" stroke="none">
<path d="M510 733 c-48 -19 -63 -60 -35 -100 14 -20 13 -25 -4 -60 -11 -21
-23 -64 -26 -95 -8 -67 6 -97 55 -123 33 -17 37 -36 16 -77 -26 -49 -38 -99
-41 -171 l-4 -72 28 60 c15 33 33 71 39 85 10 24 11 23 12 -15 l2 -40 15 57
c11 41 19 56 31 56 10 0 24 2 33 6 12 5 18 -4 28 -48 8 -38 9 -61 2 -74 -5
-10 -12 -30 -15 -43 -3 -13 -9 -36 -12 -51 l-6 -28 167 0 168 0 -6 37 c-4 20
-24 73 -47 118 l-40 82 -3 139 c-3 103 -8 151 -21 184 -10 25 -20 60 -23 78
-3 19 -20 49 -39 69 l-34 36 -62 -8 c-68 -9 -87 -9 -133 -1 -16 3 -37 3 -45
-1z"/>
</g>
</svg>
