<?xml version="1.0" standalone="no"?>
<!DOCTYPE svg PUBLIC "-//W3C//DTD SVG 20010904//EN"
 "http://www.w3.org/TR/2001/REC-SVG-20010904/DTD/svg10.dtd">
<svg version="1.0" xmlns="http://www.w3.org/2000/svg"
 width="96.000000pt" height="84.000000pt" viewBox="0 0 96.000000 84.000000"
 preserveAspectRatio="xMidYMid meet">
<metadata>
Created by potrace 1.16, written by Peter Selinger 2001-2019
</metadata>
<g transform="translate(0.000000,84.000000) scale(0.100000,-0.100000)"
fill="#000000" stroke="none">
<path d="M515 770 c-3 -5 -15 -10 -26 -10 -15 0 -19 -7 -19 -35 0 -34 -1 -35
-22 -24 -40 22 -68 20 -68 -3 0 -14 5 -18 16 -14 12 5 15 -1 12 -27 -3 -28 0
-32 20 -29 20 3 22 -1 22 -40 0 -24 -9 -63 -20 -87 -25 -54 -25 -66 -1 -83 11
-8 22 -31 26 -51 7 -34 5 -39 -14 -44 -28 -7 -27 -31 1 -42 l22 -8 -22 -12
c-51 -27 -13 -49 52 -30 l44 13 1 60 c0 34 -6 104 -14 156 -9 52 -17 105 -19
117 -2 13 3 28 10 34 12 9 16 40 15 109 -1 64 -3 70 -16 50z m-1 -382 c12 -48
7 -70 -16 -66 -34 5 -39 88 -4 88 7 0 16 -10 20 -22z m-44 -148 c-19 -13 -30
-13 -30 0 0 6 10 10 23 10 18 0 19 -2 7 -10z"/>
<path d="M190 735 c0 -9 -7 -18 -15 -21 -15 -6 -12 -47 6 -69 15 -20 -5 -82
-35 -107 -24 -20 -62 -24 -68 -7 -3 8 -16 10 -41 5 -61 -11 -49 -37 45 -101
46 -30 89 -55 96 -55 10 0 12 -7 8 -23 -4 -17 1 -30 19 -47 21 -20 23 -26 12
-39 -8 -9 -17 -24 -20 -34 -4 -9 -18 -22 -32 -29 -21 -10 -31 -9 -55 5 -27 16
-31 16 -64 0 -20 -9 -36 -19 -36 -23 0 -3 40 -45 89 -94 l90 -89 42 28 43 28
-42 39 c-23 21 -42 41 -42 43 0 3 9 5 21 5 39 0 58 18 64 63 6 38 3 50 -24 92
-17 27 -31 53 -31 57 0 5 11 13 25 18 36 14 39 30 14 86 -21 48 -32 154 -16
154 14 0 1 77 -16 95 -9 9 -17 21 -17 26 0 5 -4 9 -10 9 -5 0 -10 -7 -10 -15z
m-10 -219 c0 -15 -29 -30 -39 -20 -3 3 3 12 13 20 24 17 26 17 26 0z m20 -315
c0 -20 -13 -41 -25 -41 -23 0 -29 22 -10 37 22 15 35 17 35 4z"/>
<path d="M807 699 c-12 -13 -18 -34 -16 -57 1 -22 -6 -53 -19 -78 -14 -28 -18
-44 -11 -51 7 -7 3 -31 -11 -74 l-22 -63 22 -18 c21 -17 21 -20 7 -42 -26 -40
-25 -91 3 -122 14 -15 21 -28 15 -31 -37 -14 -40 -22 -15 -47 28 -30 52 -36
25 -6 -28 31 -11 35 46 11 28 -11 60 -21 70 -21 10 0 21 -4 24 -10 3 -5 10
-10 15 -10 20 0 -3 27 -54 64 -47 34 -53 42 -43 57 9 14 7 22 -6 37 -14 15
-16 25 -7 46 5 15 10 40 10 55 0 15 5 32 11 38 8 8 6 27 -6 68 -11 41 -13 61
-6 68 6 6 11 20 11 31 0 19 1 19 23 -2 18 -17 31 -21 55 -16 44 9 40 25 -14
49 l-45 20 27 40 26 40 -36 -40 c-19 -22 -35 -35 -36 -29 0 5 4 14 9 20 19 19
16 59 -6 77 -26 21 -25 21 -46 -4z m-1 -435 c-6 -16 -46 -19 -46 -3 0 5 10 28
23 49 l22 40 3 -36 c2 -20 1 -42 -2 -50z"/>
</g>
</svg>
