<?xml version="1.0" standalone="no"?>
<!DOCTYPE svg PUBLIC "-//W3C//DTD SVG 20010904//EN"
 "http://www.w3.org/TR/2001/REC-SVG-20010904/DTD/svg10.dtd">
<svg version="1.0" xmlns="http://www.w3.org/2000/svg"
 width="96.000000pt" height="84.000000pt" viewBox="0 0 96.000000 84.000000"
 preserveAspectRatio="xMidYMid meet">
<metadata>
Created by potrace 1.16, written by Peter Selinger 2001-2019
</metadata>
<g transform="translate(0.000000,84.000000) scale(0.100000,-0.100000)"
fill="#000000" stroke="none">
<path d="M481 779 c-16 -14 -24 -29 -23 -50 1 -28 -2 -30 -23 -25 -13 3 -27 1
-30 -4 -5 -8 -11 -7 -21 1 -11 9 -15 8 -20 -4 -8 -21 5 -40 22 -33 10 4 14 -2
14 -19 0 -27 9 -32 27 -14 7 7 12 1 17 -23 4 -23 -1 -53 -16 -96 -21 -61 -21
-65 -5 -77 11 -8 20 -32 24 -64 5 -47 4 -51 -16 -51 -27 0 -27 -15 2 -35 l22
-15 -22 -6 c-25 -7 -27 -12 -14 -33 6 -10 20 -11 52 -6 50 8 72 22 62 39 -4 6
-8 31 -9 56 -3 69 -14 231 -19 265 -2 16 1 35 7 43 15 17 16 109 3 143 l-10
27 -24 -19z m17 -412 c2 -37 0 -47 -12 -47 -9 0 -17 8 -17 18 -1 9 -3 28 -4
42 -3 30 3 42 18 37 7 -2 13 -25 15 -50z m-36 -129 c-9 -9 -15 -9 -24 0 -9 9
-7 12 12 12 19 0 21 -3 12 -12z"/>
<path d="M180 756 c0 -9 -8 -21 -19 -27 -19 -12 -18 -41 1 -66 15 -19 0 -68
-30 -95 -28 -27 -69 -42 -74 -28 -2 5 -15 6 -30 3 -23 -4 -28 -11 -28 -33 0
-24 12 -37 72 -79 40 -28 80 -51 90 -51 11 0 15 -6 11 -18 -2 -11 6 -31 21
-49 25 -30 25 -31 6 -48 -10 -9 -18 -22 -17 -28 3 -16 -81 -31 -98 -17 -9 8
-22 6 -49 -7 -20 -9 -36 -19 -36 -22 0 -3 37 -46 83 -95 88 -95 94 -97 147
-56 l25 19 -37 38 c-40 41 -48 56 -24 47 21 -8 56 14 56 36 0 10 4 22 10 25
17 11 11 48 -20 110 l-29 60 29 14 c32 16 33 31 2 101 -22 51 -31 134 -15 149
9 8 10 19 3 35 -5 13 -6 27 -2 31 4 3 -1 11 -11 16 -9 6 -17 16 -17 24 0 8 -4
17 -10 20 -5 3 -10 -1 -10 -9z m-10 -221 c0 -14 -29 -35 -47 -35 -5 0 -18 7
-29 16 -15 12 -15 14 -2 11 9 -3 24 1 35 8 24 19 43 19 43 0z m0 -55 c0 -5 -2
-10 -4 -10 -3 0 -8 5 -11 10 -3 6 -1 10 4 10 6 0 11 -4 11 -10z m10 -295 c0
-30 -20 -33 -43 -7 -20 22 -13 32 20 32 18 0 23 -5 23 -25z"/>
<path d="M783 726 c-15 -17 -20 -34 -17 -61 3 -44 -18 -68 -53 -60 -29 7 -36
-7 -17 -34 10 -14 22 -20 33 -16 17 5 17 1 2 -75 -11 -62 -12 -86 -4 -99 9
-14 9 -35 0 -84 -9 -56 -8 -68 6 -91 21 -32 21 -36 -1 -36 -10 0 -21 -3 -25
-6 -7 -8 13 -54 25 -54 12 0 10 14 -4 28 -9 9 -8 12 7 12 11 0 38 -16 59 -35
22 -19 44 -35 49 -35 5 0 18 -10 28 -22 l20 -23 -7 25 c-4 14 -15 36 -25 49
-11 13 -19 28 -19 34 0 6 -7 18 -16 28 -14 16 -14 18 5 24 25 8 27 18 6 35
-11 9 -15 32 -15 79 0 55 3 68 20 79 19 12 19 13 -9 69 -25 48 -27 60 -18 82
15 35 15 35 29 24 19 -15 78 -24 78 -12 0 5 -16 19 -35 30 -19 12 -32 25 -29
30 3 5 -5 9 -17 9 -18 0 -20 2 -9 15 22 26 19 72 -5 95 l-21 20 -21 -24z m12
-422 c0 -46 -2 -49 -25 -49 -21 0 -25 4 -22 25 4 39 24 81 36 77 6 -2 11 -26
11 -53z"/>
</g>
</svg>
