<?xml version="1.0" standalone="no"?>
<!DOCTYPE svg PUBLIC "-//W3C//DTD SVG 20010904//EN"
 "http://www.w3.org/TR/2001/REC-SVG-20010904/DTD/svg10.dtd">
<svg version="1.0" xmlns="http://www.w3.org/2000/svg"
 width="96.000000pt" height="84.000000pt" viewBox="0 0 96.000000 84.000000"
 preserveAspectRatio="xMidYMid meet">
<metadata>
Created by potrace 1.16, written by Peter Selinger 2001-2019
</metadata>
<g transform="translate(0.000000,84.000000) scale(0.100000,-0.100000)"
fill="#000000" stroke="none">
<path d="M454 764 c-22 -23 -27 -52 -12 -71 14 -17 -1 -36 -24 -30 -11 3 -21
0 -25 -9 -3 -8 -14 -14 -24 -14 -20 0 -26 -24 -9 -35 6 -3 10 -1 10 4 0 6 5
11 10 11 6 0 9 -3 9 -7 -3 -20 2 -24 17 -12 13 10 17 10 25 -2 12 -18 7 -50
-17 -111 -18 -47 -18 -47 4 -71 26 -27 31 -87 7 -87 -21 0 -19 -30 3 -46 16
-13 16 -14 -5 -20 -25 -7 -27 -12 -15 -32 11 -16 72 -13 93 5 17 14 17 35 3
115 -4 21 -2 50 5 65 8 21 7 47 -3 108 -10 53 -11 84 -5 92 13 15 8 114 -7
133 -6 8 -13 20 -15 25 -2 6 -13 0 -25 -11z m26 -411 c0 -29 -3 -33 -14 -24
-11 10 -13 26 -7 64 0 5 6 5 11 2 6 -3 10 -22 10 -42z m-35 -113 c-3 -5 -10
-10 -16 -10 -5 0 -9 5 -9 10 0 6 7 10 16 10 8 0 12 -4 9 -10z"/>
<path d="M768 750 c-22 -20 -28 -35 -28 -67 0 -40 -2 -42 -34 -49 -19 -3 -39
-3 -45 1 -22 13 -29 -6 -13 -35 19 -33 24 -35 53 -20 18 10 19 8 13 -32 -4
-24 -13 -60 -21 -82 -17 -50 -17 -75 2 -82 12 -5 13 -18 8 -67 -3 -34 -11 -65
-16 -69 -7 -4 -4 -16 7 -33 17 -25 17 -26 -1 -24 -24 5 -43 -8 -43 -29 1 -15
2 -15 15 2 12 16 19 18 40 8 17 -8 25 -20 25 -36 0 -14 5 -28 10 -31 6 -3 10
-15 10 -26 0 -33 25 -16 28 19 2 20 9 32 18 32 16 0 19 36 3 45 -6 5 -4 11 7
19 9 7 14 18 10 24 -4 7 -10 46 -13 87 -5 64 -3 78 12 88 15 12 15 16 -9 61
-30 56 -33 92 -10 124 9 13 13 31 9 42 -5 17 -2 20 22 21 15 1 31 1 36 0 4 0
7 3 7 9 0 5 -13 7 -28 4 -28 -6 -29 -4 -24 26 2 17 0 41 -6 53 -6 12 -12 27
-14 32 -2 6 -15 -1 -30 -15z m6 -397 c11 -39 15 -89 7 -101 -11 -18 -61 2 -61
25 0 64 41 121 54 76z"/>
<path d="M142 719 c-21 -25 -21 -31 -10 -66 7 -21 12 -47 10 -58 -4 -29 -97
-75 -104 -53 -3 7 -12 9 -21 5 -12 -4 -17 -18 -17 -44 1 -35 6 -42 66 -86 35
-26 70 -45 76 -41 8 5 9 -2 5 -24 -5 -25 -2 -34 19 -49 22 -16 23 -21 12 -44
-9 -20 -24 -29 -58 -37 -28 -7 -49 -7 -56 -1 -19 16 -64 -11 -64 -37 0 -23
133 -184 152 -184 4 0 27 12 49 27 l40 26 -41 42 -41 42 30 6 c21 5 35 15 41
32 5 14 17 28 25 31 21 9 19 38 -6 60 -22 20 -49 66 -49 84 0 5 8 10 18 10 23
0 42 19 42 42 0 10 -13 44 -29 76 -29 57 -41 117 -28 138 9 15 6 84 -4 84 -5
0 -14 11 -21 24 l-13 23 -23 -28z m3 -200 c0 -17 -43 -25 -58 -10 -7 7 -3 13
14 20 30 12 44 9 44 -10z m15 -323 c0 -32 -14 -40 -40 -24 -35 22 -23 42 28
47 6 0 12 -10 12 -23z"/>
<path d="M370 210 c0 -5 5 -10 11 -10 5 0 7 5 4 10 -3 6 -8 10 -11 10 -2 0 -4
-4 -4 -10z"/>
</g>
</svg>
