<?xml version="1.0" standalone="no"?>
<!DOCTYPE svg PUBLIC "-//W3C//DTD SVG 20010904//EN"
 "http://www.w3.org/TR/2001/REC-SVG-20010904/DTD/svg10.dtd">
<svg version="1.0" xmlns="http://www.w3.org/2000/svg"
 width="96.000000pt" height="84.000000pt" viewBox="0 0 96.000000 84.000000"
 preserveAspectRatio="xMidYMid meet">
<metadata>
Created by potrace 1.16, written by Peter Selinger 2001-2019
</metadata>
<g transform="translate(0.000000,84.000000) scale(0.100000,-0.100000)"
fill="#000000" stroke="none">
<path d="M757 764 c-10 -13 -23 -24 -30 -24 -8 0 -11 -14 -9 -45 3 -35 1 -45
-11 -45 -9 0 -22 -9 -30 -20 -12 -18 -15 -18 -20 -5 -4 8 -14 15 -23 15 -11 0
-14 -5 -9 -17 4 -10 10 -26 12 -35 6 -20 28 -24 38 -8 14 23 21 7 15 -32 -9
-51 -25 -94 -39 -103 -19 -11 -12 -53 12 -72 21 -16 23 -25 19 -75 -3 -50 -7
-58 -24 -58 -16 0 -19 -5 -14 -24 3 -14 2 -28 -4 -31 -5 -3 -10 -14 -10 -23 1
-15 2 -15 14 1 12 16 18 17 36 7 17 -9 21 -18 16 -40 -3 -18 -1 -30 7 -33 9
-3 9 -7 0 -18 -16 -16 -17 -29 -3 -29 6 0 20 16 31 35 12 19 27 35 35 35 21 0
29 27 14 45 -10 12 -10 19 2 33 13 14 14 31 7 97 -5 44 -7 85 -5 91 3 7 -4 40
-14 73 -19 63 -17 90 8 129 11 17 12 25 3 36 -9 11 -9 15 0 18 14 5 15 66 2
114 l-8 32 -18 -24z m7 -464 c8 -58 -2 -74 -37 -61 -28 11 -31 21 -21 83 4 23
13 38 23 40 21 5 28 -7 35 -62z"/>
<path d="M430 769 c0 -9 -7 -22 -15 -29 -18 -15 -20 -51 -4 -67 13 -13 -3 -34
-33 -46 -10 -3 -18 -11 -18 -17 0 -5 -7 -10 -15 -10 -8 0 -15 -6 -15 -13 0
-21 12 -28 27 -16 7 6 13 8 13 4 0 -4 6 -2 14 4 10 9 16 7 26 -5 11 -13 10
-26 -8 -82 l-22 -67 20 -17 c24 -19 27 -73 5 -82 -8 -3 -15 -12 -15 -20 0 -7
7 -16 15 -20 21 -8 19 -23 -4 -29 -13 -3 -19 -13 -18 -26 1 -18 8 -21 43 -21
43 0 87 31 64 45 -8 5 -6 13 6 26 12 13 14 22 7 31 -21 27 -25 70 -7 83 17 12
17 17 1 86 -9 41 -17 101 -16 134 1 33 -1 72 -3 86 -5 33 -47 92 -48 68z m32
-414 c2 -11 -1 -22 -7 -25 -5 -3 -11 11 -13 30 -4 37 15 33 20 -5z m-47 -114
c3 -5 1 -12 -5 -16 -5 -3 -10 1 -10 9 0 18 6 21 15 7z"/>
<path d="M120 728 c0 -10 -9 -22 -19 -28 -22 -11 -23 -42 -3 -78 19 -33 7 -57
-39 -77 -35 -16 -42 -17 -50 -4 -6 9 -9 -7 -9 -48 0 -62 0 -62 46 -97 27 -21
52 -32 61 -29 12 5 14 0 9 -24 -6 -26 -3 -34 20 -50 24 -18 25 -22 13 -41 -16
-26 -98 -53 -116 -39 -22 16 -33 -3 -33 -56 0 -48 4 -57 46 -105 37 -42 51
-52 77 -52 18 0 43 9 57 20 l25 19 -45 45 c-43 44 -43 46 -19 46 25 0 59 27
59 47 0 5 11 15 25 21 31 14 31 26 2 55 -25 25 -60 77 -55 81 2 1 18 8 36 15
17 8 32 20 32 29 0 8 -15 47 -34 86 -38 81 -52 131 -37 140 11 7 3 74 -11 91
-5 5 -15 19 -23 30 -13 17 -14 18 -15 3z m-17 -231 c-15 -9 -53 0 -53 12 0 4
12 12 28 17 21 8 28 7 33 -6 4 -8 0 -19 -8 -23z m23 -309 c-3 -13 -5 -26 -5
-30 -2 -15 -28 -8 -47 13 -16 17 -16 22 -4 29 8 6 25 10 37 10 18 0 22 -5 19
-22z"/>
<path d="M808 653 c7 -3 16 -2 19 1 4 3 -2 6 -13 5 -11 0 -14 -3 -6 -6z"/>
<path d="M350 200 c0 -5 5 -10 11 -10 5 0 7 5 4 10 -3 6 -8 10 -11 10 -2 0 -4
-4 -4 -10z"/>
</g>
</svg>
