<?xml version="1.0" standalone="no"?>
<!DOCTYPE svg PUBLIC "-//W3C//DTD SVG 20010904//EN"
 "http://www.w3.org/TR/2001/REC-SVG-20010904/DTD/svg10.dtd">
<svg version="1.0" xmlns="http://www.w3.org/2000/svg"
 width="96.000000pt" height="84.000000pt" viewBox="0 0 96.000000 84.000000"
 preserveAspectRatio="xMidYMid meet">
<metadata>
Created by potrace 1.16, written by Peter Selinger 2001-2019
</metadata>
<g transform="translate(0.000000,84.000000) scale(0.100000,-0.100000)"
fill="#000000" stroke="none">
<path d="M730 754 c-13 -13 -29 -24 -36 -24 -6 0 -9 -19 -7 -51 l3 -52 -34 6
c-41 7 -54 -5 -48 -43 4 -29 25 -40 37 -20 15 24 21 6 15 -42 -6 -48 -19 -81
-53 -131 -10 -16 -8 -22 19 -45 27 -23 31 -33 28 -67 -1 -22 -3 -48 -3 -57 -1
-11 -9 -18 -21 -18 -18 0 -20 -5 -18 -50 2 -32 8 -50 16 -50 6 0 12 5 12 10 0
11 29 14 31 3 5 -40 3 -93 -3 -93 -4 0 -8 -7 -8 -15 0 -8 4 -15 9 -15 12 0 51
49 51 64 0 6 10 16 23 21 21 10 22 13 19 145 -2 75 -10 170 -19 213 -16 74
-16 81 0 110 10 18 16 43 15 56 -2 19 3 26 22 32 17 5 19 7 7 8 -14 1 -18 8
-16 29 2 15 -2 37 -9 49 -7 12 -9 29 -6 37 8 21 4 19 -26 -10z m-4 -436 c8
-12 8 -107 1 -114 -2 -3 -15 0 -29 5 -25 9 -27 26 -12 99 5 23 28 30 40 10z"/>
<path d="M380 761 c0 -5 -7 -17 -16 -25 -13 -13 -14 -22 -4 -51 13 -39 0 -75
-26 -75 -10 0 -14 -6 -11 -14 4 -9 -3 -18 -18 -23 -22 -7 -22 -10 -9 -28 9
-12 18 -16 22 -10 19 27 42 37 56 26 12 -10 11 -21 -5 -72 -22 -72 -24 -95 -6
-102 18 -7 20 -65 5 -96 -11 -20 -10 -25 7 -37 17 -13 18 -16 5 -24 -8 -5 -20
-10 -26 -10 -7 0 -11 -10 -10 -23 1 -20 7 -23 43 -25 35 -1 45 3 55 21 7 12
11 28 9 35 -1 8 5 22 15 33 12 13 14 22 7 31 -21 27 -25 70 -8 89 14 14 15 24
6 51 -18 56 -29 152 -20 175 5 14 4 23 -3 25 -6 2 -12 24 -13 49 0 32 -7 51
-23 67 -24 24 -32 27 -32 13z m48 -416 c17 -36 15 -45 -8 -45 -16 0 -20 7 -20
35 0 41 12 45 28 10z"/>
<path d="M50 736 c0 -8 -10 -23 -23 -33 -24 -20 -25 -51 -2 -87 16 -25 8 -76
-11 -76 -8 0 -14 -7 -14 -15 0 -9 8 -14 22 -12 31 3 31 -27 0 -31 -20 -3 -22
-8 -22 -73 l0 -71 29 7 c29 6 30 6 24 -28 -5 -31 -2 -37 25 -52 l30 -18 -20
-28 c-12 -16 -34 -31 -49 -34 -16 -4 -31 -11 -34 -16 -4 -5 5 -5 20 1 35 13
35 13 35 -9 0 -48 -29 -68 -49 -33 -8 13 -10 -1 -11 -55 l0 -73 61 0 60 0 -21
30 c-11 16 -25 32 -31 35 -13 9 -1 25 19 25 10 0 35 20 55 45 31 36 36 49 31
72 -4 15 -10 30 -13 33 -11 9 -53 72 -49 74 1 1 17 6 33 12 41 13 42 39 7 116
-41 88 -50 125 -48 186 1 28 -1 52 -6 52 -4 0 -14 16 -22 35 -16 37 -26 45
-26 21z m20 -296 c0 -5 -2 -10 -4 -10 -3 0 -8 5 -11 10 -3 6 -1 10 4 10 6 0
11 -4 11 -10z"/>
<path d="M830 660 l-25 -8 28 -1 c15 -1 27 4 27 9 0 6 -1 10 -2 9 -2 -1 -14
-5 -28 -9z"/>
<path d="M310 160 c0 -5 5 -10 10 -10 6 0 10 5 10 10 0 6 -4 10 -10 10 -5 0
-10 -4 -10 -10z"/>
</g>
</svg>
