<?xml version="1.0" standalone="no"?>
<!DOCTYPE svg PUBLIC "-//W3C//DTD SVG 20010904//EN"
 "http://www.w3.org/TR/2001/REC-SVG-20010904/DTD/svg10.dtd">
<svg version="1.0" xmlns="http://www.w3.org/2000/svg"
 width="96.000000pt" height="84.000000pt" viewBox="0 0 96.000000 84.000000"
 preserveAspectRatio="xMidYMid meet">
<metadata>
Created by potrace 1.16, written by Peter Selinger 2001-2019
</metadata>
<g transform="translate(0.000000,84.000000) scale(0.100000,-0.100000)"
fill="#000000" stroke="none">
<path d="M326 764 c-4 -13 -13 -27 -21 -30 -11 -5 -12 -12 0 -50 12 -41 12
-45 -10 -66 -13 -12 -21 -28 -18 -36 3 -8 -3 -15 -16 -19 -25 -6 -27 -16 -6
-33 13 -11 20 -9 40 10 20 18 28 21 37 12 9 -9 7 -24 -11 -64 -32 -72 -37
-109 -19 -122 19 -14 19 -106 0 -128 -11 -14 -9 -19 13 -36 26 -21 26 -21 5
-32 -15 -8 -20 -19 -18 -38 2 -20 -3 -30 -19 -37 -26 -11 -29 -21 -9 -28 9 -4
21 5 31 19 12 19 22 24 39 20 17 -4 29 2 47 22 20 23 24 37 24 92 -1 36 -4 79
-8 97 -5 20 -4 34 3 38 8 5 9 28 5 71 -4 35 -8 96 -9 136 -1 39 -6 73 -11 75
-6 2 -9 23 -8 48 1 37 -4 51 -27 75 l-28 30 -6 -26z m49 -444 c23 -45 20 -70
-10 -70 -21 0 -25 5 -25 28 0 28 10 72 16 72 2 0 10 -13 19 -30z"/>
<path d="M677 763 c-33 -26 -35 -31 -33 -80 l2 -51 -42 -7 c-27 -4 -50 -1 -62
6 -21 13 -52 6 -52 -11 0 -5 6 -10 14 -10 7 0 21 -12 31 -26 11 -17 23 -24 36
-21 12 3 20 -1 24 -14 4 -11 10 -17 15 -14 4 3 10 -7 13 -22 3 -16 -6 -52 -25
-96 l-29 -69 20 -22 c17 -18 21 -35 21 -94 0 -55 -4 -74 -15 -78 -18 -7 -20
-35 -3 -52 9 -9 6 -12 -15 -12 -29 0 -79 -41 -59 -48 7 -2 20 6 30 18 16 19
21 20 45 9 20 -9 27 -19 27 -41 0 -27 2 -28 50 -28 44 0 52 3 62 25 8 18 8 28
-1 39 -10 12 -13 83 -8 281 0 11 -6 53 -13 94 -10 59 -10 82 0 112 7 21 10 44
7 53 -3 8 -2 16 4 18 16 5 19 91 2 116 -8 13 -12 30 -9 38 7 19 5 18 -37 -13z
m7 -485 c3 -13 6 -47 6 -76 0 -50 -2 -53 -22 -50 -21 3 -23 9 -26 76 -3 65 -1
72 16 72 12 0 22 -9 26 -22z"/>
<path d="M3 635 c0 -27 2 -38 4 -22 2 15 2 37 0 50 -2 12 -4 0 -4 -28z"/>
<path d="M755 630 c3 -5 8 -10 11 -10 2 0 4 5 4 10 0 6 -5 10 -11 10 -5 0 -7
-4 -4 -10z"/>
<path d="M1 290 c0 -148 3 -270 7 -270 4 0 27 23 50 50 32 37 42 56 36 68 -4
9 -6 21 -5 26 1 5 -2 12 -6 15 -5 3 -21 26 -35 51 l-26 45 39 18 c47 22 48 35
10 113 -16 32 -37 80 -46 107 -10 26 -19 47 -21 47 -2 0 -4 -121 -3 -270z"/>
</g>
</svg>
