<?xml version="1.0" standalone="no"?>
<!DOCTYPE svg PUBLIC "-//W3C//DTD SVG 20010904//EN"
 "http://www.w3.org/TR/2001/REC-SVG-20010904/DTD/svg10.dtd">
<svg version="1.0" xmlns="http://www.w3.org/2000/svg"
 width="96.000000pt" height="84.000000pt" viewBox="0 0 96.000000 84.000000"
 preserveAspectRatio="xMidYMid meet">
<metadata>
Created by potrace 1.16, written by Peter Selinger 2001-2019
</metadata>
<g transform="translate(0.000000,84.000000) scale(0.100000,-0.100000)"
fill="#000000" stroke="none">
<path d="M256 767 c-30 -51 -31 -227 -1 -227 29 0 24 -35 -17 -112 l-43 -80
23 -18 c15 -12 22 -29 22 -52 -1 -35 -13 -103 -24 -129 -5 -11 1 -19 18 -27
21 -9 25 -16 20 -39 -7 -35 34 -85 66 -80 42 7 50 35 39 148 -5 57 -9 120 -9
139 1 19 3 85 3 147 1 61 5 114 9 118 3 4 2 19 -2 35 -4 16 -6 31 -3 33 2 3
-4 8 -14 11 -15 5 -18 14 -15 49 3 32 -2 52 -20 80 -12 20 -25 36 -28 37 -3 0
-13 -15 -24 -33z m59 -491 c2 -11 6 -37 7 -56 3 -33 1 -35 -31 -38 l-34 -3 7
57 c3 31 9 60 12 65 8 14 34 -2 39 -25z"/>
<path d="M641 781 c-1 -14 -50 -61 -64 -61 -4 0 -5 -26 -3 -58 l5 -58 -33 -12
c-44 -16 -56 -15 -81 8 -19 18 -23 18 -43 4 -26 -18 -29 -34 -5 -34 9 0 27
-10 41 -22 13 -13 31 -23 40 -23 10 0 15 -6 13 -15 -8 -34 -9 -60 -1 -65 5 -3
11 -1 15 5 8 13 45 13 45 1 0 -5 -13 -39 -30 -74 -36 -79 -38 -109 -6 -130 21
-14 23 -22 22 -89 -2 -58 -5 -74 -18 -76 -24 -5 -30 -32 -13 -58 14 -21 23
-24 85 -24 59 0 69 3 75 20 3 10 -1 30 -9 43 -20 30 -20 154 0 175 18 17 18
36 -2 113 -25 97 -18 226 12 215 7 -3 16 -1 19 4 4 6 -6 10 -20 10 -22 0 -26
3 -19 18 14 32 16 102 4 117 -7 8 -16 30 -20 48 -4 17 -8 26 -9 18z m-16 -596
c9 -61 -2 -107 -23 -103 -14 3 -17 15 -14 63 1 33 4 66 7 73 9 26 23 10 30
-33z"/>
</g>
</svg>
