<?xml version="1.0" standalone="no"?>
<!DOCTYPE svg PUBLIC "-//W3C//DTD SVG 20010904//EN"
 "http://www.w3.org/TR/2001/REC-SVG-20010904/DTD/svg10.dtd">
<svg version="1.0" xmlns="http://www.w3.org/2000/svg"
 width="96.000000pt" height="84.000000pt" viewBox="0 0 96.000000 84.000000"
 preserveAspectRatio="xMidYMid meet">
<metadata>
Created by potrace 1.16, written by Peter Selinger 2001-2019
</metadata>
<g transform="translate(0.000000,84.000000) scale(0.100000,-0.100000)"
fill="#000000" stroke="none">
<path d="M155 790 c-3 -5 -3 -10 1 -10 4 0 -2 -11 -15 -24 -20 -21 -21 -26 -9
-70 10 -37 10 -51 0 -67 -14 -21 -2 -57 24 -72 38 -22 21 -130 -34 -226 l-26
-44 22 -18 c16 -13 21 -25 17 -46 -3 -15 -7 -46 -9 -68 -3 -22 -8 -56 -11 -76
-7 -34 -5 -38 25 -53 45 -22 119 -21 136 2 16 20 18 68 4 77 -16 10 -12 142 6
177 14 28 14 39 1 122 -9 50 -18 110 -20 133 -5 41 -4 43 18 37 29 -7 38 8 24
40 -9 20 -9 29 1 41 17 21 5 65 -20 65 -10 0 -22 -5 -25 -10 -10 -17 -35 8
-32 32 1 11 -7 25 -18 32 -11 6 -24 17 -28 24 -10 15 -24 16 -32 2z m63 -558
c17 -11 25 -132 9 -137 -7 -2 -25 -6 -41 -10 l-29 -6 6 70 c8 91 18 106 55 83z"/>
<path d="M550 758 c0 -9 -18 -31 -39 -50 -38 -33 -39 -34 -31 -83 5 -28 11
-57 15 -66 5 -14 -3 -18 -46 -24 -47 -7 -54 -5 -69 15 -18 24 -48 22 -71 -6
-10 -13 -10 -17 1 -24 7 -4 18 -6 24 -4 6 2 19 -9 29 -26 10 -16 25 -30 33
-30 16 0 19 -17 4 -22 -11 -4 -23 -78 -12 -78 5 0 13 5 19 11 7 7 28 13 47 15
47 4 47 -10 -4 -110 -44 -86 -43 -98 10 -136 24 -17 28 -26 25 -50 -3 -17 -7
-43 -10 -60 -4 -25 -1 -30 15 -30 14 0 20 7 20 23 0 12 5 40 12 62 l11 40 10
-40 c5 -22 10 -49 10 -60 1 -11 10 -21 20 -23 15 -3 17 5 17 54 0 48 4 60 26
81 19 17 24 30 20 46 -3 12 -14 54 -25 93 -13 48 -19 98 -18 155 2 82 3 84 26
81 15 -2 21 0 17 7 -4 6 -18 11 -32 11 -18 0 -23 4 -17 13 9 15 21 127 13 127
-10 0 -41 60 -36 68 2 4 1 14 -5 22 -7 13 -9 12 -9 -2z"/>
</g>
</svg>
