<?xml version="1.0" standalone="no"?>
<!DOCTYPE svg PUBLIC "-//W3C//DTD SVG 20010904//EN"
 "http://www.w3.org/TR/2001/REC-SVG-20010904/DTD/svg10.dtd">
<svg version="1.0" xmlns="http://www.w3.org/2000/svg"
 width="96.000000pt" height="84.000000pt" viewBox="0 0 96.000000 84.000000"
 preserveAspectRatio="xMidYMid meet">
<metadata>
Created by potrace 1.16, written by Peter Selinger 2001-2019
</metadata>
<g transform="translate(0.000000,84.000000) scale(0.100000,-0.100000)"
fill="#000000" stroke="none">
<path d="M440 774 c0 -19 -68 -84 -88 -84 -10 0 -10 -5 -2 -20 6 -12 8 -29 5
-39 -6 -19 22 -90 40 -103 6 -4 0 -8 -11 -8 -12 0 -35 -3 -52 -6 -25 -5 -31
-2 -37 15 -8 25 -32 27 -63 5 -27 -19 -28 -41 -2 -49 22 -7 29 -60 10 -67 -6
-2 -12 -15 -14 -29 -1 -13 -6 -30 -10 -37 -4 -7 -1 -15 9 -19 10 -3 20 -1 24
6 4 6 37 14 73 16 61 5 66 4 71 -17 4 -12 2 -27 -4 -34 -15 -18 -77 -207 -72
-219 2 -6 17 -19 33 -29 17 -9 30 -26 30 -37 0 -17 7 -19 60 -19 46 0 60 3 60
15 0 8 9 19 20 25 35 19 42 44 24 95 -25 74 -38 168 -47 340 -2 30 -2 30 56
33 70 4 67 22 -5 22 l-50 0 4 70 c2 39 1 70 -2 70 -14 0 -49 67 -44 87 3 11 1
24 -5 27 -6 4 -11 0 -11 -10z"/>
<path d="M6 733 c-3 -16 -5 -71 -4 -123 1 -74 6 -101 20 -120 24 -34 25 -78 3
-185 -10 -50 -20 -138 -22 -197 -4 -103 -3 -108 16 -108 18 0 20 7 23 68 3 60
5 67 25 70 28 4 42 -22 45 -85 3 -40 7 -49 23 -51 19 -3 20 2 17 68 -4 67 -3
70 21 79 29 11 57 47 57 73 0 10 -18 54 -40 98 -33 65 -41 92 -44 145 l-3 65
33 0 c40 0 48 19 23 56 -24 36 -24 41 0 49 27 8 34 34 16 61 -18 29 -39 31
-57 6 -16 -23 -53 -15 -53 11 0 13 -13 23 -40 33 -53 18 -53 18 -59 -13z"/>
</g>
</svg>
