<?xml version="1.0" standalone="no"?>
<!DOCTYPE svg PUBLIC "-//W3C//DTD SVG 20010904//EN"
 "http://www.w3.org/TR/2001/REC-SVG-20010904/DTD/svg10.dtd">
<svg version="1.0" xmlns="http://www.w3.org/2000/svg"
 width="96.000000pt" height="84.000000pt" viewBox="0 0 96.000000 84.000000"
 preserveAspectRatio="xMidYMid meet">
<metadata>
Created by potrace 1.16, written by Peter Selinger 2001-2019
</metadata>
<g transform="translate(0.000000,84.000000) scale(0.100000,-0.100000)"
fill="#000000" stroke="none">
<path d="M347 818 c3 -18 -5 -29 -33 -48 -21 -14 -45 -25 -53 -25 -13 0 -16
-12 -16 -59 0 -32 5 -66 12 -75 24 -31 14 -47 -46 -73 -70 -30 -102 -27 -137
15 l-25 30 28 22 c24 20 26 26 18 51 -12 33 -37 41 -71 23 l-24 -12 0 -334 c0
-283 2 -333 14 -333 11 0 13 9 9 34 -5 31 -3 34 29 45 32 11 65 38 82 68 4 7
-8 27 -27 45 -47 47 -91 165 -91 243 0 47 4 61 16 63 12 2 15 -2 11 -17 -5
-20 -2 -22 37 -25 8 -1 22 -21 31 -46 19 -51 48 -61 85 -28 14 13 24 16 29 9
3 -6 14 -11 24 -11 20 0 41 -21 45 -42 1 -7 5 -18 9 -24 3 -6 -20 -65 -52
-130 -32 -66 -61 -134 -64 -151 l-6 -33 139 0 c140 0 144 1 142 35 -1 6 -8 65
-17 133 -8 68 -13 127 -10 132 6 10 -23 190 -35 212 -6 10 -6 19 -1 23 5 3 12
19 16 35 4 16 14 35 23 41 15 9 14 10 -3 5 -20 -6 -20 -6 -1 9 21 16 40 20 32
7 -2 -4 4 -8 15 -8 10 0 19 6 19 13 0 21 -18 24 -49 8 -17 -8 -32 -15 -36 -15
-9 0 -6 35 4 46 6 5 -3 24 -25 49 -26 31 -33 46 -29 66 4 16 1 30 -8 37 -12
10 -14 8 -10 -10z m-142 -328 c-19 -21 -45 -27 -45 -10 0 11 30 29 49 30 11 0
10 -5 -4 -20z"/>
</g>
</svg>
