<?xml version="1.0" standalone="no"?>
<!DOCTYPE svg PUBLIC "-//W3C//DTD SVG 20010904//EN"
 "http://www.w3.org/TR/2001/REC-SVG-20010904/DTD/svg10.dtd">
<svg version="1.0" xmlns="http://www.w3.org/2000/svg"
 width="96.000000pt" height="84.000000pt" viewBox="0 0 96.000000 84.000000"
 preserveAspectRatio="xMidYMid meet">
<metadata>
Created by potrace 1.16, written by Peter Selinger 2001-2019
</metadata>
<g transform="translate(0.000000,84.000000) scale(0.100000,-0.100000)"
fill="#000000" stroke="none">
<path d="M658 734 c-21 -11 -28 -22 -28 -46 0 -24 -10 -41 -44 -74 -47 -45
-70 -99 -68 -163 2 -35 26 -71 48 -71 20 0 26 -18 14 -40 -9 -16 -8 -24 5 -36
19 -19 19 -31 -1 -85 -8 -24 -17 -55 -19 -69 -2 -14 -8 -38 -15 -54 -14 -38
-6 -44 17 -11 10 15 25 34 33 44 8 9 21 35 29 58 8 26 22 45 34 49 22 7 29 -1
47 -57 11 -32 10 -43 -4 -72 -17 -37 -20 -65 -10 -91 5 -13 27 -16 135 -16
l129 0 0 57 c0 32 -8 77 -17 101 -14 38 -15 55 -5 131 16 116 15 160 -3 256
-21 108 -52 148 -121 156 -27 3 -65 15 -84 27 -41 26 -37 25 -72 6z"/>
</g>
</svg>
