<?xml version="1.0" standalone="no"?>
<!DOCTYPE svg PUBLIC "-//W3C//DTD SVG 20010904//EN"
 "http://www.w3.org/TR/2001/REC-SVG-20010904/DTD/svg10.dtd">
<svg version="1.0" xmlns="http://www.w3.org/2000/svg"
 width="96.000000pt" height="84.000000pt" viewBox="0 0 96.000000 84.000000"
 preserveAspectRatio="xMidYMid meet">
<metadata>
Created by potrace 1.16, written by Peter Selinger 2001-2019
</metadata>
<g transform="translate(0.000000,84.000000) scale(0.100000,-0.100000)"
fill="#000000" stroke="none">
<path d="M260 829 c0 -7 -9 -9 -22 -6 -15 4 -30 -1 -45 -15 -22 -21 -31 -62
-15 -72 4 -2 9 -31 10 -63 l2 -58 -82 -45 c-46 -25 -89 -46 -95 -48 -8 -2 -13
-22 -13 -54 0 -86 60 -113 130 -58 24 19 44 28 54 24 21 -8 46 -56 46 -87 0
-12 5 -28 11 -34 8 -8 5 -22 -10 -49 -11 -22 -33 -67 -47 -102 -15 -35 -42
-82 -61 -105 -18 -23 -33 -45 -33 -49 0 -5 72 -8 161 -8 l161 0 -7 98 c-4 53
-11 114 -16 134 -5 20 -7 54 -3 75 3 21 1 65 -5 97 -6 35 -7 64 -2 70 5 6 12
35 16 64 5 41 4 57 -8 70 -9 9 -17 31 -19 47 -3 27 2 32 42 53 51 25 77 48 67
58 -10 10 -59 -14 -52 -25 3 -5 0 -13 -6 -17 -8 -4 -9 -3 -5 4 9 15 1 15 -25
2 -16 -9 -19 -7 -19 13 0 15 -15 37 -41 60 -40 37 -69 47 -69 26z m-100 -275
c0 -3 -19 -28 -41 -56 -40 -47 -42 -48 -60 -32 -11 9 -19 21 -19 25 0 8 99 68
113 69 4 0 7 -3 7 -6z"/>
<path d="M0 90 c0 -19 3 -21 12 -12 9 9 9 15 0 24 -9 9 -12 7 -12 -12z"/>
</g>
</svg>
