<?xml version="1.0" standalone="no"?>
<!DOCTYPE svg PUBLIC "-//W3C//DTD SVG 20010904//EN"
 "http://www.w3.org/TR/2001/REC-SVG-20010904/DTD/svg10.dtd">
<svg version="1.0" xmlns="http://www.w3.org/2000/svg"
 width="96.000000pt" height="84.000000pt" viewBox="0 0 96.000000 84.000000"
 preserveAspectRatio="xMidYMid meet">
<metadata>
Created by potrace 1.16, written by Peter Selinger 2001-2019
</metadata>
<g transform="translate(0.000000,84.000000) scale(0.100000,-0.100000)"
fill="#000000" stroke="none">
<path d="M162 815 c-10 -21 -9 -30 3 -48 20 -31 13 -103 -9 -99 -10 2 -20 -8
-27 -25 -16 -42 -39 -131 -39 -154 0 -25 25 -35 54 -21 36 16 76 -21 83 -78 3
-25 10 -50 15 -57 6 -7 1 -28 -15 -60 -13 -26 -30 -66 -37 -88 -7 -22 -28 -70
-46 -107 -19 -37 -34 -70 -34 -73 0 -3 75 -5 166 -5 153 0 165 1 160 18 -14
46 -38 259 -41 353 -1 59 -5 112 -9 118 -12 18 14 52 52 68 20 8 51 27 68 42
17 14 40 32 52 40 12 8 22 24 24 35 2 12 13 23 28 26 29 7 36 46 8 44 -10 -1
-18 3 -18 8 0 6 -7 5 -15 -2 -13 -11 -18 -10 -28 4 -16 21 -34 18 -65 -11 -12
-13 -26 -23 -30 -23 -4 0 -27 -6 -52 -14 -51 -15 -46 -22 -51 59 -4 78 0 75
-98 75 -84 0 -88 -1 -99 -25z"/>
<path d="M443 788 c-49 -35 -68 -55 -60 -60 7 -5 19 0 30 13 9 12 17 18 17 14
0 -3 27 13 60 36 33 23 60 43 60 45 0 17 -47 -5 -107 -48z"/>
</g>
</svg>
