<?xml version="1.0" standalone="no"?>
<!DOCTYPE svg PUBLIC "-//W3C//DTD SVG 20010904//EN"
 "http://www.w3.org/TR/2001/REC-SVG-20010904/DTD/svg10.dtd">
<svg version="1.0" xmlns="http://www.w3.org/2000/svg"
 width="96.000000pt" height="84.000000pt" viewBox="0 0 96.000000 84.000000"
 preserveAspectRatio="xMidYMid meet">
<metadata>
Created by potrace 1.16, written by Peter Selinger 2001-2019
</metadata>
<g transform="translate(0.000000,84.000000) scale(0.100000,-0.100000)"
fill="#000000" stroke="none">
<path d="M218 829 c-10 -5 -18 -7 -18 -2 0 4 -7 -3 -16 -15 -9 -13 -13 -30
-10 -38 4 -9 2 -12 -5 -8 -7 4 -9 0 -6 -12 3 -11 8 -29 11 -40 5 -18 1 -22
-24 -27 -16 -4 -42 -14 -56 -24 -28 -18 -28 -26 -7 -152 9 -50 33 -72 60 -55
13 8 25 6 49 -8 33 -20 44 -42 44 -95 0 -17 4 -35 10 -38 6 -4 4 -18 -6 -37
-9 -17 -30 -79 -46 -137 -16 -58 -32 -114 -35 -123 -5 -17 7 -18 166 -18 l171
0 -25 50 c-56 111 -77 196 -78 328 l-2 123 31 20 c17 10 38 19 45 19 20 0 90
98 96 135 4 24 10 31 27 31 15 -1 22 6 24 23 4 22 1 24 -32 18 -20 -3 -36 -2
-36 3 0 13 -51 5 -59 -9 -10 -16 -113 -43 -124 -32 -5 5 -10 31 -11 58 -2 27
-6 54 -9 60 -8 13 -107 15 -129 2z m269 -161 c-3 -8 -6 -5 -6 6 -1 11 2 17 5
13 3 -3 4 -12 1 -19z m-23 -43 c-4 -8 -18 -15 -33 -15 l-26 1 25 14 c32 18 41
18 34 0z m-255 -31 c11 -25 10 -26 -13 -20 -18 4 -28 1 -35 -11 -9 -15 -10
-13 -11 14 0 29 5 35 41 42 3 0 11 -11 18 -25z"/>
</g>
</svg>
