<?xml version="1.0" standalone="no"?>
<!DOCTYPE svg PUBLIC "-//W3C//DTD SVG 20010904//EN"
 "http://www.w3.org/TR/2001/REC-SVG-20010904/DTD/svg10.dtd">
<svg version="1.0" xmlns="http://www.w3.org/2000/svg"
 width="96.000000pt" height="84.000000pt" viewBox="0 0 96.000000 84.000000"
 preserveAspectRatio="xMidYMid meet">
<metadata>
Created by potrace 1.16, written by Peter Selinger 2001-2019
</metadata>
<g transform="translate(0.000000,84.000000) scale(0.100000,-0.100000)"
fill="#000000" stroke="none">
<path d="M246 825 c-3 -9 -10 -14 -14 -11 -11 7 -44 -32 -37 -44 3 -4 -1 -10
-7 -13 -10 -3 -10 -11 0 -41 18 -48 7 -58 -22 -22 -21 27 -25 28 -61 20 -28
-7 -44 -19 -58 -42 -18 -30 -18 -33 -1 -64 9 -18 28 -54 41 -80 25 -51 49 -70
79 -62 11 2 33 -7 53 -24 30 -25 34 -35 35 -78 1 -27 5 -55 9 -61 5 -7 1 -27
-7 -45 -9 -18 -27 -76 -40 -128 -14 -52 -28 -103 -31 -113 -7 -16 5 -17 154
-17 89 0 161 3 161 8 0 4 -7 17 -15 28 -19 27 -78 223 -75 249 1 11 3 62 4
114 1 104 5 109 73 110 28 1 35 8 63 59 17 31 34 71 37 88 4 23 10 30 27 30
15 -1 22 6 24 22 3 21 0 23 -30 20 -20 -2 -38 3 -45 12 -9 11 -12 12 -13 2 0
-8 -7 -11 -18 -8 -13 5 -22 -1 -29 -17 -7 -14 -27 -28 -49 -36 -22 -7 -44 -14
-50 -17 -14 -6 -25 44 -24 104 1 37 -2 43 -27 53 -51 19 -100 21 -107 4z m-32
-205 c20 -51 21 -50 -8 -50 -14 0 -28 -4 -31 -10 -12 -19 -22 -10 -34 31 -7
23 -11 42 -9 43 8 5 54 25 59 25 4 1 14 -17 23 -39z m276 -19 c-11 -22 -22
-24 -54 -12 -17 6 -14 10 20 23 45 19 50 17 34 -11z"/>
</g>
</svg>
