<?xml version="1.0" standalone="no"?>
<!DOCTYPE svg PUBLIC "-//W3C//DTD SVG 20010904//EN"
 "http://www.w3.org/TR/2001/REC-SVG-20010904/DTD/svg10.dtd">
<svg version="1.0" xmlns="http://www.w3.org/2000/svg"
 width="96.000000pt" height="84.000000pt" viewBox="0 0 96.000000 84.000000"
 preserveAspectRatio="xMidYMid meet">
<metadata>
Created by potrace 1.16, written by Peter Selinger 2001-2019
</metadata>
<g transform="translate(0.000000,84.000000) scale(0.100000,-0.100000)"
fill="#000000" stroke="none">
<path d="M241 826 c-7 -8 -10 -20 -6 -25 3 -6 0 -9 -8 -6 -10 4 -12 -3 -9 -30
2 -19 8 -35 13 -35 14 0 11 -48 -4 -57 -19 -13 -34 -53 -48 -132 -12 -69 -11
-74 6 -87 16 -12 22 -12 43 2 35 23 47 5 46 -69 0 -34 4 -65 9 -68 4 -3 1 -23
-7 -43 -9 -21 -23 -77 -32 -124 -9 -48 -22 -102 -29 -120 l-14 -32 155 0 c93
0 154 4 154 10 0 20 -63 236 -77 264 -12 23 -12 34 -3 57 7 16 13 61 14 101 2
81 7 87 70 70 30 -9 39 -7 67 14 18 13 37 24 42 24 14 0 37 27 37 44 0 19 5
20 30 6 13 -7 21 -6 30 5 18 22 6 42 -29 50 -17 4 -31 11 -31 16 0 5 -9 9 -19
9 -11 0 -21 4 -23 9 -2 5 -42 5 -97 0 -52 -5 -96 -7 -98 -5 -2 2 -5 39 -6 82
l-2 79 -81 3 c-62 2 -84 -1 -93 -12z m333 -164 c2 -4 -12 -6 -32 -4 -56 5 -62
10 -15 11 23 1 44 -3 47 -7z m-121 -9 c-7 -2 -21 -2 -30 0 -10 3 -4 5 12 5 17
0 24 -2 18 -5z m79 -75 c-9 -9 -15 -9 -24 0 -9 9 -7 12 12 12 19 0 21 -3 12
-12z"/>
</g>
</svg>
