<?xml version="1.0" standalone="no"?>
<!DOCTYPE svg PUBLIC "-//W3C//DTD SVG 20010904//EN"
 "http://www.w3.org/TR/2001/REC-SVG-20010904/DTD/svg10.dtd">
<svg version="1.0" xmlns="http://www.w3.org/2000/svg"
 width="96.000000pt" height="84.000000pt" viewBox="0 0 96.000000 84.000000"
 preserveAspectRatio="xMidYMid meet">
<metadata>
Created by potrace 1.16, written by Peter Selinger 2001-2019
</metadata>
<g transform="translate(0.000000,84.000000) scale(0.100000,-0.100000)"
fill="#000000" stroke="none">
<path d="M320 826 c0 -7 -13 -23 -29 -35 -18 -14 -27 -29 -24 -37 3 -9 0 -14
-8 -12 -19 4 -23 -31 -6 -50 8 -9 17 -44 20 -78 4 -52 2 -63 -14 -75 -10 -7
-19 -21 -19 -30 0 -9 -10 -40 -22 -68 l-21 -52 22 -22 21 -22 24 29 23 30 7
-35 c3 -20 1 -50 -5 -68 -8 -23 -8 -36 -1 -43 7 -7 7 -19 1 -35 -8 -21 -39
-192 -39 -215 0 -5 70 -8 155 -8 85 0 155 3 155 8 0 4 -8 18 -17 32 -9 13 -37
65 -62 115 -43 85 -45 93 -34 125 7 19 12 62 11 95 -2 71 8 77 73 45 39 -20
46 -21 101 -9 34 8 71 24 85 37 23 21 27 22 42 8 24 -22 51 -20 51 4 0 11 -18
31 -45 50 -25 17 -45 28 -45 23 0 -4 -5 -2 -11 4 -7 7 -20 8 -33 3 -26 -9
-170 21 -173 36 -1 7 3 11 10 11 18 -2 167 74 167 84 0 16 -18 10 -109 -35
-139 -69 -127 -73 -124 49 2 93 0 107 -15 111 -9 3 -25 10 -34 15 -10 5 -24 6
-33 3 -8 -4 -17 1 -21 10 -7 19 -24 21 -24 2z"/>
</g>
</svg>
