<?xml version="1.0" standalone="no"?>
<!DOCTYPE svg PUBLIC "-//W3C//DTD SVG 20010904//EN"
 "http://www.w3.org/TR/2001/REC-SVG-20010904/DTD/svg10.dtd">
<svg version="1.0" xmlns="http://www.w3.org/2000/svg"
 width="96.000000pt" height="84.000000pt" viewBox="0 0 96.000000 84.000000"
 preserveAspectRatio="xMidYMid meet">
<metadata>
Created by potrace 1.16, written by Peter Selinger 2001-2019
</metadata>
<g transform="translate(0.000000,84.000000) scale(0.100000,-0.100000)"
fill="#000000" stroke="none">
<path d="M383 818 c-1 -13 -16 -35 -33 -50 -17 -16 -27 -28 -23 -28 5 0 0 -5
-9 -11 -19 -11 -24 -39 -9 -55 5 -5 11 -43 14 -84 6 -68 4 -77 -13 -88 -11 -7
-20 -17 -20 -24 0 -6 -14 -33 -31 -60 -17 -26 -28 -55 -25 -63 11 -29 36 -29
66 0 26 25 30 26 36 11 4 -9 3 -36 -1 -59 -3 -23 -8 -62 -9 -87 -2 -25 -10
-83 -20 -130 -9 -47 -16 -86 -16 -87 0 -2 61 -3 136 -3 126 0 136 1 129 18 -4
9 -18 49 -31 87 -13 39 -29 80 -35 91 -9 17 -7 33 6 73 9 28 15 70 14 93 -3
39 -1 43 19 41 13 -2 40 -14 60 -28 20 -14 44 -25 53 -25 26 0 112 32 142 53
26 18 29 18 46 3 32 -29 68 -16 55 18 -4 11 -13 14 -25 11 -11 -4 -19 -2 -19
5 0 7 -10 20 -22 31 -18 14 -33 17 -63 13 -33 -5 -199 27 -213 41 -2 1 35 26
82 55 78 48 102 70 77 70 -5 0 -55 -27 -112 -60 -56 -33 -104 -59 -106 -56 -2
2 3 21 11 41 9 21 16 63 15 94 0 31 1 65 3 75 2 15 -8 23 -47 37 -29 10 -53
26 -59 38 -12 27 -21 27 -23 -1z m267 -388 c0 -5 -4 -10 -10 -10 -5 0 -10 5
-10 10 0 6 5 10 10 10 6 0 10 -4 10 -10z"/>
</g>
</svg>
