<?xml version="1.0" standalone="no"?>
<!DOCTYPE svg PUBLIC "-//W3C//DTD SVG 20010904//EN"
 "http://www.w3.org/TR/2001/REC-SVG-20010904/DTD/svg10.dtd">
<svg version="1.0" xmlns="http://www.w3.org/2000/svg"
 width="96.000000pt" height="84.000000pt" viewBox="0 0 96.000000 84.000000"
 preserveAspectRatio="xMidYMid meet">
<metadata>
Created by potrace 1.16, written by Peter Selinger 2001-2019
</metadata>
<g transform="translate(0.000000,84.000000) scale(0.100000,-0.100000)"
fill="#000000" stroke="none">
<path d="M459 833 c-1 -5 -1 -11 0 -15 0 -3 -13 -21 -29 -38 -17 -18 -30 -36
-30 -41 0 -5 -5 -8 -12 -6 -16 3 -22 -31 -8 -47 6 -8 12 -49 14 -91 3 -60 1
-75 -9 -71 -15 6 -40 -20 -88 -93 -28 -42 -34 -58 -26 -73 12 -23 30 -23 60 0
13 11 35 22 48 25 23 6 23 5 16 -46 -3 -29 -8 -74 -9 -102 -2 -27 -10 -90 -19
-140 -9 -49 -15 -91 -13 -92 2 -2 62 -2 134 -1 l131 3 -33 97 c-19 54 -39 104
-45 112 -9 11 -7 26 10 67 14 38 19 65 15 92 -4 20 -4 37 0 37 11 0 50 -23 74
-45 44 -39 54 -38 129 26 60 50 75 58 91 49 32 -17 52 -12 48 13 -2 14 -9 21
-21 21 -9 -1 -17 4 -17 12 0 8 -5 14 -12 14 -6 0 -20 8 -30 17 -17 15 -20 15
-28 3 -6 -10 -10 -11 -10 -3 0 8 -7 10 -22 4 -19 -7 -162 9 -172 20 -3 2 22
24 55 48 32 24 56 47 53 52 -3 5 -34 -12 -70 -37 -36 -26 -67 -44 -70 -42 -2
3 3 22 11 43 13 29 14 44 6 67 -7 21 -7 36 0 50 13 25 8 50 -11 53 -36 6 -90
35 -90 49 0 16 -19 23 -21 9z m256 -383 c-27 -29 -29 -29 -48 -12 -19 17 -19
17 4 20 13 2 28 8 34 13 5 5 16 9 24 9 10 0 6 -10 -14 -30z"/>
</g>
</svg>
