<?xml version="1.0" standalone="no"?>
<!DOCTYPE svg PUBLIC "-//W3C//DTD SVG 20010904//EN"
 "http://www.w3.org/TR/2001/REC-SVG-20010904/DTD/svg10.dtd">
<svg version="1.0" xmlns="http://www.w3.org/2000/svg"
 width="96.000000pt" height="84.000000pt" viewBox="0 0 96.000000 84.000000"
 preserveAspectRatio="xMidYMid meet">
<metadata>
Created by potrace 1.16, written by Peter Selinger 2001-2019
</metadata>
<g transform="translate(0.000000,84.000000) scale(0.100000,-0.100000)"
fill="#000000" stroke="none">
<path d="M490 825 c0 -8 -9 -19 -20 -25 -11 -6 -20 -7 -20 -3 0 4 -11 -5 -25
-21 -22 -26 -23 -31 -11 -55 7 -14 12 -46 11 -71 l-3 -45 -53 -8 c-43 -6 -60
-4 -86 10 -25 13 -38 15 -60 7 -25 -9 -28 -14 -26 -52 1 -23 11 -55 21 -70 11
-15 27 -44 35 -65 9 -20 23 -40 32 -43 9 -4 40 5 68 20 29 14 58 26 64 26 12
0 10 -31 -7 -114 -5 -24 -5 -47 1 -59 7 -12 7 -28 0 -49 -6 -17 -11 -71 -11
-119 l0 -89 151 0 151 0 -23 38 c-12 20 -45 77 -71 127 l-49 90 15 66 c9 37
16 76 16 87 0 26 24 34 54 20 22 -9 30 -6 75 33 28 24 54 52 57 62 4 12 14 17
32 15 21 -2 28 2 30 19 3 24 -30 53 -61 53 -15 0 -17 3 -9 13 6 7 8 18 4 24
-5 9 -26 8 -82 -3 -41 -8 -76 -14 -77 -14 -1 0 -1 18 -1 40 0 23 -2 44 -5 47
-4 3 -2 14 3 24 17 31 -5 69 -39 69 -15 0 -34 7 -41 15 -16 19 -40 19 -40 0z
m180 -205 c-14 -4 -34 -8 -45 -8 -16 0 -15 2 5 8 14 4 34 8 45 8 16 0 15 -2
-5 -8z m-253 -65 c0 -8 -5 -15 -11 -15 -6 0 -29 -16 -50 -35 -43 -38 -52 -36
-62 12 -6 29 -4 33 22 38 16 4 34 8 39 10 28 9 62 4 62 -10z m248 -25 c-3 -5
-10 -10 -16 -10 -5 0 -9 5 -9 10 0 6 7 10 16 10 8 0 12 -4 9 -10z"/>
<path d="M0 645 c0 -36 1 -38 16 -23 15 15 15 18 0 39 -16 23 -16 23 -16 -16z"/>
<path d="M2 25 c0 -17 2 -22 5 -12 2 9 2 23 0 30 -3 6 -5 -1 -5 -18z"/>
</g>
</svg>
