<?xml version="1.0" standalone="no"?>
<!DOCTYPE svg PUBLIC "-//W3C//DTD SVG 20010904//EN"
 "http://www.w3.org/TR/2001/REC-SVG-20010904/DTD/svg10.dtd">
<svg version="1.0" xmlns="http://www.w3.org/2000/svg"
 width="96.000000pt" height="84.000000pt" viewBox="0 0 96.000000 84.000000"
 preserveAspectRatio="xMidYMid meet">
<metadata>
Created by potrace 1.16, written by Peter Selinger 2001-2019
</metadata>
<g transform="translate(0.000000,84.000000) scale(0.100000,-0.100000)"
fill="#000000" stroke="none">
<path d="M486 813 c-29 -25 -30 -29 -20 -124 l6 -56 -101 -20 c-56 -11 -104
-16 -107 -12 -6 10 -45 12 -68 3 -22 -9 -20 -41 3 -49 11 -3 23 -15 26 -25 3
-11 22 -44 42 -75 39 -61 63 -69 104 -37 13 10 39 26 57 35 32 15 33 15 27 -3
-13 -41 -21 -160 -11 -170 6 -6 5 -23 -3 -49 -6 -22 -14 -83 -18 -135 l-6 -96
167 0 167 0 -35 43 c-19 23 -55 86 -80 140 l-46 99 14 80 c9 50 20 84 31 91
23 18 32 89 12 105 -12 10 -13 19 -4 47 6 19 14 35 19 35 5 0 6 5 3 11 -5 7 6
8 32 5 26 -4 31 -3 13 2 -24 8 -24 8 9 15 44 9 61 8 36 -3 -18 -8 -17 -9 7 -9
15 -1 30 4 34 10 14 22 -13 27 -75 13 -35 -8 -66 -13 -68 -10 -7 7 -6 46 2 79
6 23 2 34 -21 58 -24 25 -35 29 -74 28 -33 -2 -55 -9 -74 -26z m-26 -228 c0
-8 -16 -22 -35 -31 -20 -9 -40 -25 -46 -35 -5 -10 -18 -23 -29 -29 -17 -9 -22
-5 -40 31 -12 22 -20 42 -18 44 5 4 131 33 151 34 9 1 17 -6 17 -14z"/>
<path d="M7 754 c-4 -4 -7 -175 -7 -381 l0 -373 44 0 c37 0 44 3 41 17 -2 10
-11 61 -20 113 -9 52 -22 112 -30 132 -8 20 -10 38 -5 40 5 2 4 21 -3 45 -10
38 -8 46 20 104 29 58 30 65 17 90 -17 34 -18 61 -2 77 9 9 6 17 -12 37 -13
14 -26 43 -29 66 -3 22 -9 37 -14 33z"/>
</g>
</svg>
