<?xml version="1.0" standalone="no"?>
<!DOCTYPE svg PUBLIC "-//W3C//DTD SVG 20010904//EN"
 "http://www.w3.org/TR/2001/REC-SVG-20010904/DTD/svg10.dtd">
<svg version="1.0" xmlns="http://www.w3.org/2000/svg"
 width="96.000000pt" height="84.000000pt" viewBox="0 0 96.000000 84.000000"
 preserveAspectRatio="xMidYMid meet">
<metadata>
Created by potrace 1.16, written by Peter Selinger 2001-2019
</metadata>
<g transform="translate(0.000000,84.000000) scale(0.100000,-0.100000)"
fill="#000000" stroke="none">
<path d="M822 821 c-8 -5 -17 -23 -21 -41 -5 -28 -13 -36 -50 -48 -88 -29
-150 -124 -132 -203 11 -46 18 -59 37 -59 16 0 19 -21 4 -36 -7 -7 -5 -21 5
-42 13 -24 15 -51 11 -114 l-5 -83 17 39 c22 49 34 35 21 -23 -15 -66 -5 -72
23 -16 l26 49 -4 -122 -3 -122 105 0 104 0 0 370 0 370 -47 45 c-48 45 -66 52
-91 36z"/>
</g>
</svg>
