<?xml version="1.0" standalone="no"?>
<!DOCTYPE svg PUBLIC "-//W3C//DTD SVG 20010904//EN"
 "http://www.w3.org/TR/2001/REC-SVG-20010904/DTD/svg10.dtd">
<svg version="1.0" xmlns="http://www.w3.org/2000/svg"
 width="96.000000pt" height="84.000000pt" viewBox="0 0 96.000000 84.000000"
 preserveAspectRatio="xMidYMid meet">
<metadata>
Created by potrace 1.16, written by Peter Selinger 2001-2019
</metadata>
<g transform="translate(0.000000,84.000000) scale(0.100000,-0.100000)"
fill="#000000" stroke="none">
<path d="M585 833 c-43 -6 -65 -39 -58 -85 5 -43 -1 -47 -31 -19 -12 10 -33
21 -49 25 -23 5 -29 2 -36 -16 -6 -16 -5 -25 5 -31 8 -4 14 -14 14 -22 0 -8
10 -19 22 -26 19 -10 20 -12 4 -21 -10 -6 -15 -16 -11 -28 4 -14 -2 -21 -29
-30 -19 -6 -45 -8 -59 -5 -55 14 -98 -26 -52 -47 14 -6 25 -17 25 -23 0 -16
51 -108 64 -117 18 -13 27 -9 63 27 19 19 36 35 37 35 2 0 2 -48 1 -107 -2
-94 -29 -271 -51 -327 -5 -14 13 -16 155 -16 89 0 161 2 161 5 0 3 -8 22 -19
43 -10 20 -28 69 -41 107 -13 39 -31 87 -41 107 -11 20 -15 39 -10 42 4 3 11
33 14 67 4 38 14 70 27 86 22 28 28 99 9 105 -19 6 9 78 29 78 13 0 14 2 4 8
-18 12 60 34 92 26 13 -3 27 -1 31 5 12 20 -24 23 -76 6 -43 -15 -53 -15 -60
-4 -12 19 -11 36 1 44 7 4 7 12 0 24 -5 10 -7 21 -3 25 3 3 -9 19 -28 36 -33
29 -43 31 -104 23z m-111 -272 c3 -4 -3 -16 -14 -26 -11 -10 -20 -24 -20 -30
0 -7 -7 -18 -15 -25 -13 -11 -16 -8 -21 19 -4 17 -11 34 -17 38 -6 4 7 12 29
19 50 15 52 16 58 5z"/>
<path d="M12 706 c-9 -20 -12 -122 -12 -366 l0 -340 85 0 84 0 -14 39 c-7 22
-17 61 -21 88 -3 26 -14 66 -22 87 -11 29 -13 41 -4 44 8 2 8 13 -3 39 -20 47
-19 72 4 110 14 22 16 33 8 36 -9 3 -8 8 2 21 12 15 13 21 2 39 -22 34 -31 78
-21 97 8 14 4 22 -16 35 -14 9 -33 35 -43 57 l-17 40 -12 -26z"/>
</g>
</svg>
