<?xml version="1.0" standalone="no"?>
<!DOCTYPE svg PUBLIC "-//W3C//DTD SVG 20010904//EN"
 "http://www.w3.org/TR/2001/REC-SVG-20010904/DTD/svg10.dtd">
<svg version="1.0" xmlns="http://www.w3.org/2000/svg"
 width="96.000000pt" height="84.000000pt" viewBox="0 0 96.000000 84.000000"
 preserveAspectRatio="xMidYMid meet">
<metadata>
Created by potrace 1.16, written by Peter Selinger 2001-2019
</metadata>
<g transform="translate(0.000000,84.000000) scale(0.100000,-0.100000)"
fill="#000000" stroke="none">
<path d="M740 828 c0 -16 -46 -38 -78 -38 -17 0 -27 -8 -35 -30 -12 -31 -21
-37 -32 -20 -11 18 -63 12 -67 -7 -5 -26 22 -75 45 -81 17 -4 18 -7 4 -16 -8
-7 -17 -23 -19 -36 -3 -22 -8 -25 -51 -26 -59 -1 -77 -15 -57 -47 7 -12 16
-51 19 -87 5 -56 9 -65 27 -68 12 -2 35 8 52 22 16 15 32 26 35 26 2 0 7 -42
9 -92 4 -83 2 -102 -23 -177 -16 -46 -38 -99 -49 -117 l-19 -34 159 0 c121 0
160 3 160 13 0 24 -49 192 -64 222 -8 16 -12 32 -7 35 5 3 10 32 13 66 3 43
11 69 26 89 23 29 30 93 13 110 -6 6 -5 29 3 59 13 49 14 50 70 69 32 11 53
23 50 29 -4 6 2 8 17 3 17 -4 20 -3 10 3 -11 8 -11 10 0 15 8 3 9 6 3 6 -7 1
-42 -10 -79 -24 -63 -24 -66 -24 -60 -6 10 31 -4 65 -34 85 -20 14 -27 25 -23
42 2 14 -1 24 -7 24 -6 0 -11 -6 -11 -12z m-150 -278 c0 -5 -4 -10 -10 -10 -5
0 -10 -6 -10 -14 0 -15 -24 -28 -34 -19 -13 13 -5 34 17 43 30 12 37 12 37 0z"/>
<path d="M57 724 c-4 -4 -7 -14 -7 -22 0 -8 -11 -30 -25 -48 -33 -43 -35 -118
-5 -134 25 -14 25 -32 0 -48 -16 -10 -20 -23 -20 -72 0 -53 4 -65 35 -106 28
-36 33 -49 25 -64 -11 -21 -60 -198 -60 -217 0 -10 31 -13 120 -13 l120 0 -11
28 c-13 34 -40 174 -44 227 -2 22 -7 57 -13 77 -8 30 -6 42 9 68 l19 30 -25
10 c-26 10 -32 24 -16 35 5 3 7 22 3 43 -3 20 -6 54 -6 75 -1 20 -6 37 -12 37
-15 0 -56 46 -69 76 -5 14 -13 22 -18 18z m-7 -264 c-20 -13 -33 -13 -25 0 3
6 14 10 23 10 15 0 15 -2 2 -10z"/>
</g>
</svg>
