<?xml version="1.0" standalone="no"?>
<!DOCTYPE svg PUBLIC "-//W3C//DTD SVG 20010904//EN"
 "http://www.w3.org/TR/2001/REC-SVG-20010904/DTD/svg10.dtd">
<svg version="1.0" xmlns="http://www.w3.org/2000/svg"
 width="96.000000pt" height="84.000000pt" viewBox="0 0 96.000000 84.000000"
 preserveAspectRatio="xMidYMid meet">
<metadata>
Created by potrace 1.16, written by Peter Selinger 2001-2019
</metadata>
<g transform="translate(0.000000,84.000000) scale(0.100000,-0.100000)"
fill="#000000" stroke="none">
<path d="M820 820 c-14 -11 -34 -20 -46 -20 -11 0 -31 -11 -43 -24 -19 -20
-22 -31 -16 -63 6 -38 5 -39 -22 -38 -27 0 -28 -2 -26 -42 2 -41 0 -43 -35
-53 -47 -13 -69 -13 -77 0 -8 13 -46 3 -62 -17 -9 -11 -6 -19 12 -37 13 -13
29 -43 35 -67 7 -24 14 -50 16 -56 5 -19 48 -16 75 6 13 10 34 21 47 25 21 7
22 5 24 -76 1 -46 1 -92 1 -103 -2 -28 -51 -193 -69 -227 l-15 -28 156 0 155
0 -5 22 c-3 13 -12 55 -19 93 -8 39 -22 90 -31 114 -11 32 -12 47 -4 52 7 4 8
16 4 29 -11 33 3 105 25 131 24 27 26 87 5 103 -13 9 -13 16 -3 44 7 17 16 32
21 32 4 0 5 5 1 11 -4 7 0 9 13 5 14 -4 20 -2 20 9 0 10 -6 13 -19 9 -21 -6
-42 33 -27 52 17 21 4 59 -28 82 -20 14 -30 28 -27 37 8 20 -6 18 -36 -5z
m-145 -270 c7 -12 -65 -84 -74 -74 -5 5 -11 23 -13 39 -2 25 1 31 20 33 12 2
22 7 22 12 0 9 38 1 45 -10z"/>
<path d="M149 720 c-1 -5 -2 -14 -3 -20 0 -5 -16 -25 -35 -45 -27 -29 -31 -38
-21 -50 7 -8 10 -21 7 -29 -3 -8 2 -25 12 -38 13 -16 16 -30 10 -44 -8 -23
-65 -49 -74 -34 -3 4 -13 7 -23 6 -13 -2 -18 -14 -20 -51 -2 -27 1 -58 6 -69
6 -12 13 -29 16 -38 8 -27 31 -22 59 12 14 17 28 30 31 30 3 0 17 -21 30 -48
23 -46 24 -48 6 -82 -15 -31 -80 -204 -80 -216 0 -2 53 -4 118 -4 l117 0 -8
102 c-4 57 -9 126 -11 153 -2 28 -7 69 -11 92 -6 33 -4 49 10 69 9 14 15 27
13 28 -2 1 -18 8 -36 16 -32 12 -32 13 -17 37 9 13 13 32 10 42 -3 10 -6 36
-7 56 -1 30 -9 45 -35 68 -18 16 -33 38 -33 48 0 19 -29 28 -31 9z m-49 -284
c0 -3 -4 -8 -10 -11 -5 -3 -10 -1 -10 4 0 6 5 11 10 11 6 0 10 -2 10 -4z"/>
</g>
</svg>
