<?xml version="1.0" standalone="no"?>
<!DOCTYPE svg PUBLIC "-//W3C//DTD SVG 20010904//EN"
 "http://www.w3.org/TR/2001/REC-SVG-20010904/DTD/svg10.dtd">
<svg version="1.0" xmlns="http://www.w3.org/2000/svg"
 width="96.000000pt" height="84.000000pt" viewBox="0 0 96.000000 84.000000"
 preserveAspectRatio="xMidYMid meet">
<metadata>
Created by potrace 1.16, written by Peter Selinger 2001-2019
</metadata>
<g transform="translate(0.000000,84.000000) scale(0.100000,-0.100000)"
fill="#000000" stroke="none">
<path d="M920 833 c-8 -3 -19 -12 -23 -19 -4 -8 -16 -14 -25 -14 -9 -1 -28
-10 -41 -20 -19 -16 -22 -26 -16 -48 4 -15 9 -52 12 -84 5 -65 13 -60 -118
-78 -75 -10 -90 -10 -111 4 -23 15 -68 12 -68 -4 0 -5 -2 -14 -5 -22 -3 -8 8
-21 29 -32 19 -10 49 -36 66 -57 34 -42 48 -46 106 -26 22 8 50 11 64 7 22 -5
24 -10 21 -53 -1 -26 3 -63 9 -83 10 -28 9 -41 -3 -67 -18 -37 -87 -222 -87
-231 0 -3 52 -6 115 -6 l115 0 0 398 c0 218 -3 407 -6 420 -7 23 -9 24 -34 15z
m-160 -281 c0 -11 -28 -36 -59 -52 -20 -10 -26 -9 -45 9 -18 19 -19 23 -6 31
8 6 27 7 43 4 16 -3 27 -1 27 5 0 6 9 11 20 11 11 0 20 -4 20 -8z"/>
<path d="M257 697 c-34 -35 -45 -53 -38 -60 6 -6 11 -30 11 -53 0 -43 -11 -61
-56 -91 -29 -19 -31 -56 -5 -82 12 -12 17 -27 14 -45 -5 -23 -2 -26 20 -26 14
0 30 8 36 18 8 15 11 14 20 -11 24 -63 23 -70 -44 -199 -36 -70 -65 -132 -65
-138 0 -6 47 -10 125 -10 l125 0 2 68 c1 37 1 85 0 107 0 22 -2 72 -3 111 -1
39 0 75 3 80 4 5 8 31 9 58 3 46 2 49 -30 62 -27 12 -31 17 -21 28 6 8 12 43
14 78 2 58 0 65 -26 86 -15 13 -28 32 -28 42 0 33 -14 28 -63 -23z"/>
</g>
</svg>
