<?xml version="1.0" standalone="no"?>
<!DOCTYPE svg PUBLIC "-//W3C//DTD SVG 20010904//EN"
 "http://www.w3.org/TR/2001/REC-SVG-20010904/DTD/svg10.dtd">
<svg version="1.0" xmlns="http://www.w3.org/2000/svg"
 width="96.000000pt" height="84.000000pt" viewBox="0 0 96.000000 84.000000"
 preserveAspectRatio="xMidYMid meet">
<metadata>
Created by potrace 1.16, written by Peter Selinger 2001-2019
</metadata>
<g transform="translate(0.000000,84.000000) scale(0.100000,-0.100000)"
fill="#000000" stroke="none">
<path d="M380 715 c0 -9 -8 -19 -17 -22 -33 -13 -45 -31 -33 -52 13 -26 13
-100 -1 -140 -13 -38 -6 -74 21 -98 29 -28 44 -108 26 -141 -8 -15 -28 -57
-44 -93 -16 -36 -43 -85 -61 -109 -17 -24 -31 -47 -31 -52 0 -5 62 -7 138 -6
l137 3 -1 105 c-1 58 -4 153 -6 212 l-5 108 38 -6 c49 -8 58 10 35 66 -21 53
-21 57 12 72 30 15 40 54 22 88 -14 25 -40 26 -73 0 -26 -21 -73 -28 -62 -9
12 19 -4 59 -24 59 -11 0 -26 7 -35 15 -19 19 -36 19 -36 0z"/>
<path d="M933 706 c-25 -12 -28 -27 -12 -58 6 -11 12 -44 12 -74 1 -29 8 -59
15 -66 9 -10 12 10 12 100 0 62 -1 111 -2 111 -2 -1 -13 -6 -25 -13z"/>
<path d="M668 493 c-10 -2 -18 -8 -18 -13 0 -5 -3 -15 -6 -23 -3 -10 5 -18 25
-25 17 -6 41 -28 57 -51 30 -46 62 -53 115 -25 17 8 42 14 57 12 26 -3 27 -5
34 -93 4 -49 3 -94 -2 -100 -9 -11 -90 -165 -90 -171 0 -2 27 -4 60 -4 l60 0
0 240 0 240 -32 -1 c-18 0 -64 -4 -103 -8 -62 -7 -72 -6 -83 11 -13 17 -37 21
-74 11z m166 -52 c7 -10 -42 -33 -55 -26 -16 10 -10 23 14 28 12 2 25 5 29 6
4 0 9 -3 12 -8z"/>
</g>
</svg>
