<?xml version="1.0" standalone="no"?>
<!DOCTYPE svg PUBLIC "-//W3C//DTD SVG 20010904//EN"
 "http://www.w3.org/TR/2001/REC-SVG-20010904/DTD/svg10.dtd">
<svg version="1.0" xmlns="http://www.w3.org/2000/svg"
 width="96.000000pt" height="84.000000pt" viewBox="0 0 96.000000 84.000000"
 preserveAspectRatio="xMidYMid meet">
<metadata>
Created by potrace 1.16, written by Peter Selinger 2001-2019
</metadata>
<g transform="translate(0.000000,84.000000) scale(0.100000,-0.100000)"
fill="#000000" stroke="none">
<path d="M423 676 c3 -7 -4 -23 -14 -37 -22 -29 -24 -47 -4 -68 8 -9 17 -36
21 -59 5 -35 4 -42 -10 -42 -9 0 -16 -4 -16 -9 0 -23 24 -73 40 -81 21 -11 34
-103 19 -132 -6 -11 -20 -52 -30 -90 -11 -39 -28 -87 -39 -109 -11 -21 -20
-41 -20 -44 0 -3 61 -5 135 -5 74 0 135 3 135 6 0 3 -12 56 -26 117 -17 72
-27 145 -28 205 l-1 92 46 0 c62 0 73 15 52 69 -14 35 -14 46 -4 62 6 11 9 30
5 41 -5 18 -3 20 12 13 61 -24 75 -10 50 49 -15 35 -46 50 -46 21 0 -22 -42
-57 -54 -45 -15 15 -36 12 -43 -7 -7 -22 -33 -53 -44 -53 -6 0 -20 56 -23 92
-2 14 -16 19 -66 23 -39 3 -51 1 -47 -9z m182 -116 c-3 -5 -11 -10 -16 -10 -6
0 -7 5 -4 10 3 6 11 10 16 10 6 0 7 -4 4 -10z m-37 -21 c-2 -6 -8 -10 -13 -10
-5 0 -11 4 -13 10 -2 6 4 11 13 11 9 0 15 -5 13 -11z"/>
<path d="M846 491 c-26 -10 -37 -42 -21 -61 7 -8 17 -35 22 -60 8 -41 11 -45
40 -48 54 -5 73 12 73 65 0 46 0 46 -20 28 -22 -20 -36 -15 -27 10 4 8 16 15
27 15 11 0 20 6 20 14 0 9 -8 12 -24 9 -17 -4 -25 0 -29 16 -5 22 -26 26 -61
12z"/>
</g>
</svg>
