<?xml version="1.0" standalone="no"?>
<!DOCTYPE svg PUBLIC "-//W3C//DTD SVG 20010904//EN"
 "http://www.w3.org/TR/2001/REC-SVG-20010904/DTD/svg10.dtd">
<svg version="1.0" xmlns="http://www.w3.org/2000/svg"
 width="96.000000pt" height="84.000000pt" viewBox="0 0 96.000000 84.000000"
 preserveAspectRatio="xMidYMid meet">
<metadata>
Created by potrace 1.16, written by Peter Selinger 2001-2019
</metadata>
<g transform="translate(0.000000,84.000000) scale(0.100000,-0.100000)"
fill="#000000" stroke="none">
<path d="M489 673 c-1 -5 -1 -12 0 -17 1 -5 -6 -25 -16 -43 -17 -32 -17 -34 1
-64 14 -24 17 -42 12 -80 -7 -50 3 -84 32 -105 17 -12 26 -112 12 -129 -5 -7
-19 -58 -31 -115 -11 -57 -23 -108 -25 -112 -3 -4 54 -8 127 -8 106 0 129 2
121 13 -6 7 -24 62 -40 122 -24 90 -28 124 -24 185 2 41 9 78 16 82 6 4 30 8
53 8 50 0 56 13 32 62 -17 32 -17 37 -3 49 8 7 13 21 11 31 -4 14 1 18 18 18
13 0 27 -4 30 -10 16 -26 27 -7 22 36 -7 68 -21 76 -58 31 -30 -36 -32 -37
-50 -21 -15 14 -21 14 -34 4 -8 -7 -15 -18 -15 -24 0 -11 -49 -46 -64 -46 -4
0 -4 10 -1 23 3 12 -1 40 -9 62 -13 36 -18 40 -49 40 -19 0 -39 3 -43 8 -4 4
-11 7 -16 7 -4 0 -9 -3 -9 -7z m183 -145 c-7 -7 -12 -8 -12 -2 0 14 12 26 19
19 2 -3 -1 -11 -7 -17z m-32 -13 c0 -8 -2 -15 -4 -15 -2 0 -11 -3 -19 -6 -12
-4 -14 0 -10 15 6 24 33 29 33 6z"/>
<path d="M1 634 c0 -11 3 -14 6 -6 3 7 2 16 -1 19 -3 4 -6 -2 -5 -13z"/>
</g>
</svg>
