<?xml version="1.0" standalone="no"?>
<!DOCTYPE svg PUBLIC "-//W3C//DTD SVG 20010904//EN"
 "http://www.w3.org/TR/2001/REC-SVG-20010904/DTD/svg10.dtd">
<svg version="1.0" xmlns="http://www.w3.org/2000/svg"
 width="96.000000pt" height="84.000000pt" viewBox="0 0 96.000000 84.000000"
 preserveAspectRatio="xMidYMid meet">
<metadata>
Created by potrace 1.16, written by Peter Selinger 2001-2019
</metadata>
<g transform="translate(0.000000,84.000000) scale(0.100000,-0.100000)"
fill="#000000" stroke="none">
<path d="M0 416 l0 -416 55 0 c30 0 55 3 55 8 0 21 -60 164 -79 188 -14 18
-18 31 -12 37 5 5 7 31 4 58 -4 31 0 65 11 98 13 40 14 55 4 76 -10 21 -9 27
7 39 15 11 17 23 13 79 -4 50 -2 69 9 80 16 16 10 37 -10 37 -18 1 -45 63 -40
92 3 14 0 29 -6 32 -8 5 -11 -110 -11 -408z"/>
<path d="M587 714 c-4 -4 -7 -16 -7 -27 0 -11 -10 -35 -21 -54 -17 -27 -19
-37 -9 -43 9 -5 11 -26 8 -71 -5 -63 9 -114 35 -131 13 -8 18 -118 6 -140 -8
-15 -48 -215 -49 -240 0 -5 52 -8 115 -8 63 0 115 2 115 3 0 2 -12 55 -27 118
-16 69 -26 134 -24 164 2 28 4 65 5 83 l1 33 58 -6 c61 -7 62 -7 48 42 -7 24
-6 35 5 44 8 7 13 18 10 26 -7 18 15 16 43 -3 19 -14 25 -14 32 -3 12 19 11
56 -2 80 -10 19 -11 19 -40 -6 -35 -28 -54 -32 -63 -10 -8 22 -47 19 -53 -4
-3 -12 -17 -21 -40 -26 -44 -8 -48 -4 -34 35 7 21 7 38 1 49 -5 10 -6 27 -3
39 3 12 1 23 -3 23 -5 1 -24 3 -42 5 -19 1 -39 10 -46 19 -6 9 -15 13 -19 9z
m133 -213 c0 -14 -5 -18 -20 -14 -21 5 -25 15 -13 26 13 14 33 6 33 -12z m50
10 c0 -12 -28 -22 -34 -12 -3 5 -3 11 1 15 9 9 33 7 33 -3z m67 -13 c-3 -8 -6
-5 -6 6 -1 11 2 17 5 13 3 -3 4 -12 1 -19z"/>
</g>
</svg>
