<?xml version="1.0" standalone="no"?>
<!DOCTYPE svg PUBLIC "-//W3C//DTD SVG 20010904//EN"
 "http://www.w3.org/TR/2001/REC-SVG-20010904/DTD/svg10.dtd">
<svg version="1.0" xmlns="http://www.w3.org/2000/svg"
 width="96.000000pt" height="84.000000pt" viewBox="0 0 96.000000 84.000000"
 preserveAspectRatio="xMidYMid meet">
<metadata>
Created by potrace 1.16, written by Peter Selinger 2001-2019
</metadata>
<g transform="translate(0.000000,84.000000) scale(0.100000,-0.100000)"
fill="#000000" stroke="none">
<path d="M11 769 c-7 -21 -11 -159 -11 -400 l0 -369 95 0 c52 0 95 2 95 5 0
14 -61 125 -69 125 -14 0 -23 33 -11 40 8 5 8 18 3 40 -5 19 -5 63 -1 99 6 50
4 71 -8 95 -14 29 -14 32 5 45 24 15 27 53 10 112 -9 30 -9 42 1 54 10 13 6
21 -29 55 -25 24 -38 45 -35 54 6 16 -16 76 -27 76 -4 0 -12 -14 -18 -31z"/>
<path d="M686 692 c-4 -7 -5 -16 -2 -21 3 -5 -7 -23 -23 -40 -25 -27 -28 -37
-24 -71 4 -27 0 -47 -10 -63 -14 -21 -14 -27 -1 -45 10 -15 11 -21 2 -24 -8
-3 -5 -16 10 -42 19 -33 22 -48 18 -110 -3 -39 -9 -91 -14 -116 -6 -25 -13
-71 -17 -103 l-6 -57 115 0 c64 0 116 2 116 5 0 3 -18 54 -40 114 -39 106 -40
109 -25 151 8 23 15 51 15 61 0 24 11 24 55 -2 44 -26 65 -15 48 24 -9 19 -8
26 8 36 11 6 17 16 14 21 -9 14 9 12 23 -2 9 -9 12 -5 12 20 0 26 -4 32 -21
32 -11 0 -29 10 -39 23 -16 19 -22 20 -39 10 -11 -7 -37 -13 -56 -13 -28 0
-35 4 -35 19 0 11 5 23 10 26 6 4 10 21 9 38 -1 18 2 39 5 48 6 13 -1 19 -26
28 -18 6 -42 23 -54 38 -14 18 -23 23 -28 15z m99 -232 c3 -5 -3 -10 -14 -10
-12 0 -21 5 -21 10 0 6 6 10 14 10 8 0 18 -4 21 -10z m55 -21 c0 -11 -27 -12
-34 0 -3 4 -3 11 0 14 8 8 34 -3 34 -14z m70 -29 c0 -5 -2 -10 -4 -10 -3 0 -8
5 -11 10 -3 6 -1 10 4 10 6 0 11 -4 11 -10z"/>
</g>
</svg>
