<?xml version="1.0" standalone="no"?>
<!DOCTYPE svg PUBLIC "-//W3C//DTD SVG 20010904//EN"
 "http://www.w3.org/TR/2001/REC-SVG-20010904/DTD/svg10.dtd">
<svg version="1.0" xmlns="http://www.w3.org/2000/svg"
 width="96.000000pt" height="84.000000pt" viewBox="0 0 96.000000 84.000000"
 preserveAspectRatio="xMidYMid meet">
<metadata>
Created by potrace 1.16, written by Peter Selinger 2001-2019
</metadata>
<g transform="translate(0.000000,84.000000) scale(0.100000,-0.100000)"
fill="#000000" stroke="none">
<path d="M90 765 c-6 -8 -9 -19 -6 -24 8 -12 -30 -49 -61 -62 -21 -8 -23 -15
-23 -81 1 -48 6 -80 15 -92 8 -11 15 -28 15 -37 0 -10 9 -24 21 -33 l21 -14
-24 -16 c-42 -28 -48 -56 -48 -236 l0 -170 130 0 c83 0 130 4 130 10 0 19 -29
80 -50 107 -12 16 -17 30 -11 37 5 6 8 56 7 112 -1 75 -6 107 -18 126 -16 24
-15 26 4 42 18 15 19 25 14 69 -10 73 -10 90 -2 110 5 11 4 17 -3 17 -23 0
-61 54 -56 80 3 15 -3 34 -14 48 -23 26 -25 26 -41 7z"/>
<path d="M793 678 c-4 -7 -8 -20 -10 -28 -1 -8 -15 -26 -30 -40 -23 -20 -28
-34 -28 -67 0 -22 -7 -53 -15 -68 -11 -21 -12 -30 -2 -45 9 -16 9 -21 -4 -28
-14 -8 -13 -13 5 -43 25 -40 26 -70 6 -109 -11 -20 -12 -30 -4 -30 7 0 9 -9 6
-22 -3 -13 -10 -41 -15 -63 -6 -22 -13 -61 -17 -87 l-6 -48 105 0 c124 0 119
-8 76 120 l-28 85 19 41 c23 51 45 61 74 34 12 -11 24 -20 27 -20 3 0 6 41 7
90 0 81 -7 107 -23 81 -4 -5 -23 -3 -46 6 -41 16 -54 45 -25 57 9 3 15 18 15
40 0 19 5 38 11 42 6 3 -2 14 -21 25 -17 11 -38 35 -46 54 -16 38 -19 41 -31
23z m67 -248 c0 -5 -7 -10 -15 -10 -8 0 -15 5 -15 10 0 6 7 10 15 10 8 0 15
-4 15 -10z m35 -21 c11 -16 1 -19 -13 -3 -7 8 -8 14 -3 14 5 0 13 -5 16 -11z"/>
</g>
</svg>
