<?xml version="1.0" standalone="no"?>
<!DOCTYPE svg PUBLIC "-//W3C//DTD SVG 20010904//EN"
 "http://www.w3.org/TR/2001/REC-SVG-20010904/DTD/svg10.dtd">
<svg version="1.0" xmlns="http://www.w3.org/2000/svg"
 width="96.000000pt" height="84.000000pt" viewBox="0 0 96.000000 84.000000"
 preserveAspectRatio="xMidYMid meet">
<metadata>
Created by potrace 1.16, written by Peter Selinger 2001-2019
</metadata>
<g transform="translate(0.000000,84.000000) scale(0.100000,-0.100000)"
fill="#000000" stroke="none">
<path d="M175 757 c-18 -43 -59 -77 -93 -77 -21 0 -23 -3 -17 -22 5 -13 8 -44
7 -69 -1 -31 3 -51 13 -59 8 -7 15 -23 15 -36 0 -13 9 -33 20 -44 11 -11 20
-22 20 -24 0 -3 -13 -18 -30 -34 -26 -27 -30 -38 -30 -85 l0 -55 -40 -7 -40
-7 0 -119 0 -119 175 0 174 0 -14 39 c-7 22 -19 50 -26 62 -7 13 -12 75 -13
151 -2 115 -5 131 -23 150 -20 20 -20 21 -2 39 21 21 25 72 9 114 -7 18 -7 33
1 47 9 17 6 25 -20 52 -27 28 -30 36 -22 58 8 21 5 29 -20 52 l-29 28 -15 -35z
m-80 -567 c-3 -5 -18 -10 -33 -9 -24 0 -25 1 -7 9 28 12 47 12 40 0z"/>
<path d="M885 678 c-8 -27 -54 -78 -69 -78 -6 0 -12 -21 -13 -47 -1 -27 -2
-69 -3 -95 -1 -37 -5 -48 -20 -53 -18 -6 -19 -8 -4 -30 12 -18 14 -38 10 -72
-3 -27 -8 -66 -10 -88 -2 -22 -11 -76 -20 -120 -8 -44 -16 -83 -16 -87 0 -5
49 -8 109 -8 l109 0 -20 77 c-11 42 -26 89 -34 104 -17 35 -10 55 27 75 28 14
29 17 29 87 0 60 -3 75 -20 90 -11 9 -20 23 -20 32 0 8 9 19 20 25 30 16 28
91 -5 134 -14 18 -25 40 -25 49 0 26 -18 29 -25 5z"/>
</g>
</svg>
