<?xml version="1.0" standalone="no"?>
<!DOCTYPE svg PUBLIC "-//W3C//DTD SVG 20010904//EN"
 "http://www.w3.org/TR/2001/REC-SVG-20010904/DTD/svg10.dtd">
<svg version="1.0" xmlns="http://www.w3.org/2000/svg"
 width="96.000000pt" height="84.000000pt" viewBox="0 0 96.000000 84.000000"
 preserveAspectRatio="xMidYMid meet">
<metadata>
Created by potrace 1.16, written by Peter Selinger 2001-2019
</metadata>
<g transform="translate(0.000000,84.000000) scale(0.100000,-0.100000)"
fill="#000000" stroke="none">
<path d="M254 787 c-6 -7 -9 -18 -7 -24 7 -19 -43 -63 -70 -63 -31 0 -39 -19
-22 -50 8 -14 10 -34 5 -49 -5 -18 -1 -37 11 -61 11 -19 19 -42 19 -52 0 -9 8
-21 17 -26 15 -9 13 -13 -15 -36 -28 -24 -31 -33 -34 -89 -3 -56 -5 -62 -28
-69 -14 -3 -45 -13 -70 -20 -25 -7 -48 -12 -53 -10 -12 4 -8 -26 6 -32 9 -5 9
-7 0 -12 -9 -4 -13 -34 -13 -100 l0 -94 211 0 c191 0 211 2 205 16 -4 9 -1 22
4 30 6 7 10 32 8 56 -3 43 -3 43 -45 46 -42 3 -54 14 -32 27 5 4 10 37 9 73 0
37 2 84 6 106 7 42 -10 86 -33 86 -18 0 -17 17 2 24 27 10 36 52 23 106 -8 36
-8 54 -1 61 8 8 2 21 -22 46 -28 30 -32 38 -22 54 10 16 7 23 -15 44 -31 29
-30 28 -44 12z"/>
<path d="M900 683 c-1 -21 -44 -73 -60 -73 -6 0 -9 -8 -6 -17 2 -10 6 -47 8
-83 3 -59 1 -66 -19 -75 -27 -11 -27 -14 -9 -49 10 -20 11 -37 5 -64 -5 -20
-12 -91 -15 -157 -2 -66 -7 -130 -10 -143 -4 -21 -2 -22 81 -22 l85 0 0 81 c0
65 -4 88 -21 115 l-21 34 21 36 c19 32 21 51 21 196 0 133 -3 168 -17 199 -19
40 -43 52 -43 22z"/>
</g>
</svg>
