<?xml version="1.0" standalone="no"?>
<!DOCTYPE svg PUBLIC "-//W3C//DTD SVG 20010904//EN"
 "http://www.w3.org/TR/2001/REC-SVG-20010904/DTD/svg10.dtd">
<svg version="1.0" xmlns="http://www.w3.org/2000/svg"
 width="96.000000pt" height="84.000000pt" viewBox="0 0 96.000000 84.000000"
 preserveAspectRatio="xMidYMid meet">
<metadata>
Created by potrace 1.16, written by Peter Selinger 2001-2019
</metadata>
<g transform="translate(0.000000,84.000000) scale(0.100000,-0.100000)"
fill="#000000" stroke="none">
<path d="M321 807 c-6 -6 -11 -21 -11 -33 0 -25 -47 -64 -75 -64 -14 0 -16 -5
-10 -27 4 -16 6 -43 6 -62 -1 -19 6 -45 14 -57 8 -13 15 -33 15 -44 0 -11 7
-23 16 -27 13 -5 11 -10 -11 -33 -20 -21 -28 -41 -31 -79 -6 -81 -17 -98 -80
-126 -31 -14 -71 -25 -88 -25 -56 -1 -66 -18 -66 -106 l0 -79 55 -23 c50 -20
72 -22 236 -22 238 0 267 12 257 111 l-3 34 -63 0 c-55 0 -65 3 -82 25 -17 22
-17 25 -2 36 13 9 17 31 18 93 2 44 5 89 8 99 10 31 -10 72 -36 72 -22 1 -22
1 4 16 35 18 44 53 28 109 -9 32 -9 49 -2 57 7 9 6 19 -4 32 -8 11 -14 16 -14
12 0 -5 -8 2 -19 15 -14 18 -16 27 -8 41 9 13 6 22 -15 41 -19 18 -29 22 -37
14z m-71 -574 c0 -5 -11 -13 -25 -20 -14 -6 -25 -8 -25 -4 0 5 10 13 23 19 28
14 27 13 27 5z m-160 -33 c13 -9 13 -10 0 -10 -8 0 -22 5 -30 10 -13 9 -13 10
0 10 8 0 22 -5 30 -10z"/>
<path d="M892 684 c2 -9 -6 -21 -17 -28 -11 -6 -23 -15 -27 -21 -8 -10 -2 -67
12 -122 7 -29 5 -35 -21 -53 -27 -20 -28 -22 -13 -45 13 -21 14 -34 6 -82 -6
-32 -7 -62 -2 -67 4 -4 4 -22 -1 -39 -5 -18 -9 -76 -9 -129 l0 -98 71 0 70 0
-4 123 c-6 147 -6 104 0 335 4 191 4 193 -19 217 -26 28 -50 33 -46 9z"/>
</g>
</svg>
