<?xml version="1.0" standalone="no"?>
<!DOCTYPE svg PUBLIC "-//W3C//DTD SVG 20010904//EN"
 "http://www.w3.org/TR/2001/REC-SVG-20010904/DTD/svg10.dtd">
<svg version="1.0" xmlns="http://www.w3.org/2000/svg"
 width="96.000000pt" height="84.000000pt" viewBox="0 0 96.000000 84.000000"
 preserveAspectRatio="xMidYMid meet">
<metadata>
Created by potrace 1.16, written by Peter Selinger 2001-2019
</metadata>
<g transform="translate(0.000000,84.000000) scale(0.100000,-0.100000)"
fill="#000000" stroke="none">
<path d="M374 793 c-8 -36 -52 -83 -77 -83 -16 0 -18 -4 -12 -22 4 -13 9 -39
10 -58 2 -40 30 -109 52 -125 12 -9 9 -14 -17 -34 -18 -13 -29 -29 -26 -36 3
-8 -1 -31 -9 -52 -8 -21 -16 -49 -19 -63 -3 -15 -26 -41 -58 -64 -44 -34 -61
-40 -109 -43 -43 -2 -58 1 -63 12 -3 8 -15 15 -26 15 -18 0 -20 -6 -20 -77 l0
-78 114 -43 114 -42 178 0 c158 0 183 2 210 19 24 15 33 28 38 61 10 62 -4 74
-79 66 -33 -3 -69 -8 -80 -11 -16 -5 -26 3 -45 32 l-25 38 23 23 c18 18 23 33
23 75 -1 28 0 70 0 92 3 79 1 87 -21 80 -11 -4 -20 -2 -20 4 0 6 7 11 15 11 8
0 22 11 31 25 14 21 14 32 4 74 -6 28 -9 58 -6 68 4 13 -3 28 -24 48 -24 23
-27 31 -19 47 8 16 5 24 -16 44 -33 30 -33 30 -41 -3z m-77 -570 c0 -21 -15
-33 -41 -33 -18 0 -18 2 4 25 28 30 37 31 37 8z"/>
<path d="M862 704 c-28 -19 -29 -61 -1 -90 l21 -23 -31 -65 c-38 -80 -38 -93
-6 -108 20 -9 25 -17 21 -37 -14 -77 -16 -100 -8 -105 5 -3 3 -29 -5 -58 -7
-29 -16 -90 -20 -135 l-6 -83 67 0 66 0 0 338 0 339 -23 21 c-28 26 -45 27
-75 6z"/>
</g>
</svg>
