<?xml version="1.0" standalone="no"?>
<!DOCTYPE svg PUBLIC "-//W3C//DTD SVG 20010904//EN"
 "http://www.w3.org/TR/2001/REC-SVG-20010904/DTD/svg10.dtd">
<svg version="1.0" xmlns="http://www.w3.org/2000/svg"
 width="96.000000pt" height="84.000000pt" viewBox="0 0 96.000000 84.000000"
 preserveAspectRatio="xMidYMid meet">
<metadata>
Created by potrace 1.16, written by Peter Selinger 2001-2019
</metadata>
<g transform="translate(0.000000,84.000000) scale(0.100000,-0.100000)"
fill="#000000" stroke="none">
<path d="M432 783 c-7 -12 -12 -27 -12 -34 0 -20 -52 -69 -72 -69 -19 0 -24
-15 -8 -25 6 -3 10 -28 10 -54 0 -31 5 -53 15 -61 8 -7 15 -20 15 -30 0 -10 7
-20 15 -24 23 -8 18 -25 -10 -36 -15 -6 -25 -17 -25 -29 0 -11 -6 -35 -14 -53
-8 -18 -17 -45 -21 -61 -4 -18 -22 -38 -58 -62 -43 -29 -63 -35 -114 -37 -51
-3 -65 0 -76 15 -9 13 -23 18 -42 15 -30 -3 -30 -3 -30 -72 l0 -69 133 -48
134 -49 213 0 c243 0 239 -1 240 84 l0 51 -55 -2 c-30 -1 -79 -3 -109 -4 -46
-3 -56 0 -72 20 -22 28 -24 41 -5 41 26 0 36 28 37 101 3 147 1 157 -23 162
l-23 4 23 2 c34 2 47 43 33 110 -7 35 -7 60 -1 72 8 13 6 19 -8 24 -9 4 -30
23 -47 43 -16 20 -23 31 -14 25 9 -7 19 -10 22 -6 13 13 7 32 -12 38 -11 3
-21 14 -23 23 -3 14 -6 14 -16 -5z m-94 -580 c-2 -10 -13 -19 -26 -21 -26 -4
-28 6 -4 24 24 18 34 17 30 -3z"/>
<path d="M845 676 c-9 -14 -15 -35 -13 -48 2 -19 9 -23 34 -22 37 2 37 -8 -2
-93 -35 -75 -30 -97 25 -105 23 -3 24 -7 24 -83 1 -82 -5 -105 -65 -249 -15
-37 -28 -70 -28 -72 0 -2 32 -4 70 -4 l70 0 0 332 c0 268 -2 329 -12 315 -16
-21 -35 -10 -39 23 -5 35 -43 39 -64 6z m95 -172 c0 -18 -5 -24 -22 -24 -17 0
-19 3 -10 12 7 7 12 20 12 31 0 10 5 15 10 12 6 -3 10 -17 10 -31z"/>
</g>
</svg>
