<?xml version="1.0" standalone="no"?>
<!DOCTYPE svg PUBLIC "-//W3C//DTD SVG 20010904//EN"
 "http://www.w3.org/TR/2001/REC-SVG-20010904/DTD/svg10.dtd">
<svg version="1.0" xmlns="http://www.w3.org/2000/svg"
 width="96.000000pt" height="84.000000pt" viewBox="0 0 96.000000 84.000000"
 preserveAspectRatio="xMidYMid meet">
<metadata>
Created by potrace 1.16, written by Peter Selinger 2001-2019
</metadata>
<g transform="translate(0.000000,84.000000) scale(0.100000,-0.100000)"
fill="#000000" stroke="none">
<path d="M462 793 c-7 -7 -11 -17 -7 -22 8 -14 -44 -71 -65 -71 -22 0 -33 -23
-18 -38 6 -6 11 -31 10 -55 -1 -29 3 -49 13 -57 8 -7 15 -21 15 -31 0 -9 7
-24 15 -33 20 -20 19 -23 -10 -30 -16 -4 -25 -13 -25 -26 0 -11 -4 -28 -9 -38
-5 -9 -16 -35 -25 -57 -22 -52 -114 -115 -169 -115 -20 0 -39 -4 -42 -10 -9
-15 -42 -12 -49 5 -3 9 -18 15 -35 15 -56 0 -61 -7 -61 -75 l0 -63 118 -46
117 -46 270 2 270 3 3 52 c3 52 3 52 -31 58 -19 4 -53 1 -77 -5 -24 -6 -62 -9
-85 -6 -35 6 -44 12 -59 42 -16 35 -16 36 6 53 20 17 22 27 22 134 1 108 0
116 -19 122 -19 5 -18 6 6 20 33 18 39 48 23 111 -9 34 -9 53 -2 62 8 9 3 19
-18 37 -22 19 -28 31 -26 60 2 19 -2 35 -7 35 -5 0 -16 6 -23 13 -11 12 -16
12 -26 0z m-92 -573 c0 -23 -5 -31 -24 -36 -14 -3 -32 -2 -41 3 -14 8 -10 14
22 36 21 14 39 26 41 26 1 1 2 -12 2 -29z m-170 -30 c13 -9 13 -10 0 -10 -8 0
-22 5 -30 10 -13 9 -13 10 0 10 8 0 22 -5 30 -10z"/>
<path d="M876 678 c-32 -46 -7 -100 36 -77 26 14 23 -13 -8 -78 -33 -70 -29
-88 18 -89 l37 -2 0 103 c0 74 -4 112 -15 134 -18 37 -46 40 -68 9z"/>
<path d="M944 233 c-12 -49 -60 -147 -82 -167 -12 -11 -22 -30 -22 -43 0 -22
4 -23 60 -23 l60 0 0 130 c0 72 -2 130 -5 130 -2 0 -8 -12 -11 -27z"/>
</g>
</svg>
