<?xml version="1.0" standalone="no"?>
<!DOCTYPE svg PUBLIC "-//W3C//DTD SVG 20010904//EN"
 "http://www.w3.org/TR/2001/REC-SVG-20010904/DTD/svg10.dtd">
<svg version="1.0" xmlns="http://www.w3.org/2000/svg"
 width="96.000000pt" height="84.000000pt" viewBox="0 0 96.000000 84.000000"
 preserveAspectRatio="xMidYMid meet">
<metadata>
Created by potrace 1.16, written by Peter Selinger 2001-2019
</metadata>
<g transform="translate(0.000000,84.000000) scale(0.100000,-0.100000)"
fill="#000000" stroke="none">
<path d="M481 807 c-6 -6 -11 -21 -11 -33 0 -25 -43 -64 -71 -64 -22 0 -29
-19 -16 -45 6 -11 10 -37 8 -59 -1 -22 4 -45 12 -55 8 -9 17 -27 19 -41 3 -14
9 -33 13 -42 5 -13 2 -18 -9 -18 -9 0 -21 -12 -27 -27 -28 -75 -56 -118 -94
-141 -22 -14 -52 -33 -67 -44 -15 -10 -43 -18 -61 -18 -19 0 -40 -7 -47 -15
-11 -13 -14 -13 -27 1 -10 9 -25 13 -37 10 -12 -3 -31 -6 -44 -6 -22 0 -23 -3
-20 -71 l3 -72 75 -33 75 -33 333 -1 332 0 0 24 c0 47 -9 56 -60 56 -27 0 -60
-4 -73 -9 -15 -6 -39 -6 -63 0 -31 8 -44 19 -62 51 -21 38 -21 42 -4 54 15 11
17 29 16 141 -1 123 -2 128 -23 131 -20 3 -19 5 9 29 33 27 38 58 19 112 -8
24 -9 39 0 57 9 20 7 26 -12 39 -13 8 -34 29 -47 47 -13 18 -16 27 -7 19 14
-11 18 -11 23 3 9 22 -40 68 -55 53z m-88 -574 c7 -39 -15 -57 -63 -50 -25 3
-46 0 -57 -9 -10 -7 -29 -14 -42 -14 -27 0 -21 12 8 17 21 3 124 70 129 84 6
16 19 1 25 -28z m-194 -49 c11 -10 -11 -15 -40 -9 -23 5 -28 10 -18 16 12 7
46 3 58 -7z m191 -54 c0 -5 -2 -10 -4 -10 -3 0 -8 5 -11 10 -3 6 -1 10 4 10 6
0 11 -4 11 -10z"/>
<path d="M916 625 c-31 -31 -13 -105 25 -105 18 0 20 6 17 57 -3 60 -16 74
-42 48z"/>
<path d="M936 476 c-18 -35 -17 -66 4 -66 15 0 22 23 18 65 l-3 36 -19 -35z"/>
<path d="M952 174 c-1 -7 -18 -36 -38 -65 -30 -44 -34 -57 -25 -76 10 -21 56
-42 67 -30 3 2 3 44 1 93 -1 49 -4 84 -5 78z"/>
</g>
</svg>
