<?xml version="1.0" standalone="no"?>
<!DOCTYPE svg PUBLIC "-//W3C//DTD SVG 20010904//EN"
 "http://www.w3.org/TR/2001/REC-SVG-20010904/DTD/svg10.dtd">
<svg version="1.0" xmlns="http://www.w3.org/2000/svg"
 width="96.000000pt" height="84.000000pt" viewBox="0 0 96.000000 84.000000"
 preserveAspectRatio="xMidYMid meet">
<metadata>
Created by potrace 1.16, written by Peter Selinger 2001-2019
</metadata>
<g transform="translate(0.000000,84.000000) scale(0.100000,-0.100000)"
fill="#000000" stroke="none">
<path d="M481 737 c-6 -6 -11 -19 -11 -28 0 -22 -65 -73 -80 -64 -16 10 -24
-24 -12 -51 8 -16 8 -32 2 -50 -8 -19 -6 -33 5 -52 8 -15 21 -46 29 -70 12
-37 12 -44 0 -49 -8 -3 -27 -33 -43 -68 -27 -57 -33 -64 -78 -81 -26 -10 -57
-23 -68 -30 -32 -19 -113 -24 -119 -8 -4 9 -22 14 -56 14 l-50 0 0 -83 0 -83
35 -17 c32 -15 80 -17 421 -17 362 0 385 1 382 18 -4 21 -65 28 -111 12 -23
-8 -45 -7 -84 1 -64 15 -79 29 -62 60 7 14 9 40 5 73 -4 28 -8 82 -9 120 -2
60 -6 70 -24 77 -33 12 -34 24 -3 37 35 16 44 48 29 108 -9 35 -9 51 -1 65 10
15 5 25 -33 65 -25 25 -45 52 -45 58 0 6 7 3 14 -6 7 -10 16 -15 19 -11 10 10
8 43 -2 43 -5 0 -16 6 -24 14 -11 11 -17 12 -26 3z m-88 -554 c9 -47 1 -53
-74 -52 -38 1 -69 3 -69 6 0 2 24 15 54 28 30 13 57 29 61 34 11 19 22 12 28
-16z"/>
<path d="M930 505 c-8 -9 -10 -27 -6 -47 4 -18 8 -46 9 -62 1 -16 8 -31 15
-33 9 -4 12 16 12 76 0 81 -6 95 -30 66z"/>
<path d="M926 80 c-31 -57 -29 -80 9 -80 24 0 25 2 25 65 0 36 -2 65 -3 65 -2
0 -16 -23 -31 -50z"/>
</g>
</svg>
