<?xml version="1.0" standalone="no"?>
<!DOCTYPE svg PUBLIC "-//W3C//DTD SVG 20010904//EN"
 "http://www.w3.org/TR/2001/REC-SVG-20010904/DTD/svg10.dtd">
<svg version="1.0" xmlns="http://www.w3.org/2000/svg"
 width="96.000000pt" height="84.000000pt" viewBox="0 0 96.000000 84.000000"
 preserveAspectRatio="xMidYMid meet">
<metadata>
Created by potrace 1.16, written by Peter Selinger 2001-2019
</metadata>
<g transform="translate(0.000000,84.000000) scale(0.100000,-0.100000)"
fill="#000000" stroke="none">
<path d="M510 747 c-8 -7 -16 -23 -18 -37 -3 -28 -35 -60 -62 -60 -30 0 -41
-23 -25 -54 11 -20 12 -33 5 -46 -9 -18 5 -106 20 -120 3 -3 13 -15 23 -27 19
-21 18 -22 -12 -38 -17 -8 -31 -20 -31 -25 0 -5 -12 -30 -27 -55 -28 -45 -29
-45 -78 -44 -28 1 -60 -3 -72 -10 -12 -6 -31 -11 -42 -11 -11 0 -28 -11 -37
-25 -19 -30 -9 -49 11 -21 12 15 19 17 43 8 34 -12 152 -5 167 9 16 16 23 10
30 -27 5 -28 2 -39 -12 -50 -40 -31 -259 11 -293 56 -13 18 -22 20 -58 14
l-42 -7 0 -88 0 -89 300 0 c165 0 300 3 300 8 0 4 -7 16 -15 26 -13 17 -13 22
-1 35 11 12 16 51 18 142 l4 126 -29 17 -29 16 25 24 c32 30 41 64 33 123 -3
26 -2 51 4 58 12 15 3 45 -14 45 -14 0 -71 80 -57 80 6 0 15 -9 21 -20 13 -24
30 -18 30 10 0 11 -12 26 -29 35 -16 8 -31 19 -33 24 -2 6 -9 5 -18 -2z"/>
<path d="M948 408 c-2 -7 -1 -31 3 -53 6 -40 6 -39 8 13 1 51 -3 65 -11 40z"/>
<path d="M937 35 c-16 -34 -16 -35 3 -35 16 0 20 7 20 35 0 19 -1 35 -3 35 -2
0 -11 -16 -20 -35z"/>
</g>
</svg>
