<?xml version="1.0" standalone="no"?>
<!DOCTYPE svg PUBLIC "-//W3C//DTD SVG 20010904//EN"
 "http://www.w3.org/TR/2001/REC-SVG-20010904/DTD/svg10.dtd">
<svg version="1.0" xmlns="http://www.w3.org/2000/svg"
 width="96.000000pt" height="84.000000pt" viewBox="0 0 96.000000 84.000000"
 preserveAspectRatio="xMidYMid meet">
<metadata>
Created by potrace 1.16, written by Peter Selinger 2001-2019
</metadata>
<g transform="translate(0.000000,84.000000) scale(0.100000,-0.100000)"
fill="#000000" stroke="none">
<path d="M546 751 c-13 -5 -16 -10 -8 -15 25 -15 -39 -101 -70 -93 -22 6 -33
-25 -18 -53 6 -12 8 -44 4 -83 -6 -60 -5 -64 23 -94 31 -33 28 -53 -9 -53 -9
0 -21 -6 -25 -12 -5 -7 -25 -28 -45 -47 l-36 -33 -16 31 c-15 28 -21 31 -65
31 -30 0 -53 -6 -60 -14 -17 -20 -19 -68 -3 -73 6 -3 12 2 12 11 0 28 41 18
76 -19 37 -39 49 -42 82 -19 13 9 25 14 26 13 2 -2 6 -30 10 -62 6 -53 5 -59
-14 -64 -11 -3 -20 -9 -20 -14 0 -5 -29 -9 -64 -9 -74 0 -202 41 -225 71 -9
14 -26 19 -57 19 l-44 0 0 -85 0 -85 305 0 c296 0 305 1 293 19 -9 15 -8 26 5
52 8 19 19 59 23 89 4 30 11 60 16 66 4 7 8 25 7 40 0 16 2 38 6 49 5 15 -1
24 -26 39 l-32 19 22 16 c29 22 43 75 31 125 -7 31 -6 46 5 63 18 27 19 43 3
43 -14 0 -79 72 -72 80 3 3 14 -5 24 -17 19 -24 30 -21 30 8 0 10 -13 26 -30
36 -16 9 -30 21 -30 25 0 9 -8 9 -34 -1z"/>
</g>
</svg>
