<?xml version="1.0" standalone="no"?>
<!DOCTYPE svg PUBLIC "-//W3C//DTD SVG 20010904//EN"
 "http://www.w3.org/TR/2001/REC-SVG-20010904/DTD/svg10.dtd">
<svg version="1.0" xmlns="http://www.w3.org/2000/svg"
 width="96.000000pt" height="84.000000pt" viewBox="0 0 96.000000 84.000000"
 preserveAspectRatio="xMidYMid meet">
<metadata>
Created by potrace 1.16, written by Peter Selinger 2001-2019
</metadata>
<g transform="translate(0.000000,84.000000) scale(0.100000,-0.100000)"
fill="#000000" stroke="none">
<path d="M898 773 c-38 -31 -49 -47 -57 -86 -14 -62 -14 -63 5 -81 14 -15 14
-17 0 -22 -23 -9 -23 -122 0 -131 20 -7 11 -50 -17 -78 -10 -11 -28 -31 -39
-45 l-19 -25 -16 23 c-21 29 -31 28 -49 -7 -9 -16 -26 -31 -40 -35 -31 -8
-127 -50 -230 -101 -93 -46 -99 -57 -65 -134 l21 -51 284 0 284 0 0 405 c0
223 -3 405 -8 405 -4 0 -28 -17 -54 -37z m-172 -625 c-3 -13 -6 -41 -6 -63 -1
-40 -1 -40 -15 -15 -18 31 -19 72 -3 88 19 19 31 14 24 -10z"/>
<path d="M185 138 c-26 -21 -41 -73 -31 -113 6 -24 9 -25 90 -25 95 0 112 10
101 60 -4 16 -12 30 -19 30 -7 0 -25 13 -40 29 -36 37 -70 44 -101 19z"/>
</g>
</svg>
