<?xml version="1.0" standalone="no"?>
<!DOCTYPE svg PUBLIC "-//W3C//DTD SVG 20010904//EN"
 "http://www.w3.org/TR/2001/REC-SVG-20010904/DTD/svg10.dtd">
<svg version="1.0" xmlns="http://www.w3.org/2000/svg"
 width="96.000000pt" height="84.000000pt" viewBox="0 0 96.000000 84.000000"
 preserveAspectRatio="xMidYMid meet">
<metadata>
Created by potrace 1.16, written by Peter Selinger 2001-2019
</metadata>
<g transform="translate(0.000000,84.000000) scale(0.100000,-0.100000)"
fill="#000000" stroke="none">
<path d="M579 772 c-10 -2 -14 -12 -13 -32 2 -23 -6 -35 -33 -55 -18 -15 -39
-25 -46 -22 -25 10 -36 -18 -20 -51 13 -26 13 -40 4 -76 -16 -65 -14 -103 7
-118 38 -27 35 -37 -22 -63 -31 -14 -56 -29 -56 -34 0 -5 -6 -11 -12 -14 -16
-6 -23 119 -8 128 6 4 8 11 5 16 -4 5 1 9 11 9 13 0 14 3 4 14 -23 29 -70 -8
-70 -55 0 -14 -7 -32 -15 -39 -11 -9 -15 -32 -15 -80 0 -89 12 -100 79 -72
l48 20 6 -57 c3 -31 8 -63 12 -72 11 -29 -51 -64 -108 -62 -67 2 -225 59 -233
85 -5 16 -13 19 -52 16 l-47 -3 -3 -77 -3 -78 312 0 c264 0 310 2 306 14 -3 8
3 31 14 52 10 21 19 51 19 66 0 15 7 48 16 74 8 25 13 52 11 59 -3 7 1 24 8
39 14 25 13 28 -18 46 -18 11 -36 22 -42 25 -6 3 -6 7 1 10 44 22 49 32 49
112 0 43 6 87 12 99 10 18 6 26 -33 63 -24 24 -44 48 -44 54 0 6 11 0 25 -13
23 -21 25 -22 31 -5 5 13 0 24 -17 37 -13 11 -31 25 -39 31 -8 7 -22 11 -31 9z"/>
</g>
</svg>
