<?xml version="1.0" standalone="no"?>
<!DOCTYPE svg PUBLIC "-//W3C//DTD SVG 20010904//EN"
 "http://www.w3.org/TR/2001/REC-SVG-20010904/DTD/svg10.dtd">
<svg version="1.0" xmlns="http://www.w3.org/2000/svg"
 width="96.000000pt" height="84.000000pt" viewBox="0 0 96.000000 84.000000"
 preserveAspectRatio="xMidYMid meet">
<metadata>
Created by potrace 1.16, written by Peter Selinger 2001-2019
</metadata>
<g transform="translate(0.000000,84.000000) scale(0.100000,-0.100000)"
fill="#000000" stroke="none">
<path d="M580 802 c0 -7 -6 -12 -13 -12 -8 0 -12 -11 -11 -27 2 -32 -49 -93
-77 -93 -26 0 -31 -30 -10 -62 15 -25 17 -37 9 -71 -12 -54 -1 -115 23 -127
30 -16 23 -25 -38 -53 -32 -14 -68 -34 -80 -43 l-23 -16 0 55 c0 30 -4 57 -9
59 -12 4 -17 80 -7 96 10 16 7 19 -18 24 -36 6 -46 -34 -40 -176 3 -71 7 -133
10 -138 9 -14 58 -9 94 10 45 22 72 18 65 -11 -3 -12 1 -48 9 -79 11 -49 11
-60 0 -69 -8 -6 -14 -8 -14 -3 0 4 -6 0 -14 -11 -11 -16 -21 -17 -72 -11 -78
9 -232 65 -239 87 -8 23 -24 28 -78 22 l-47 -6 0 -73 0 -74 331 0 c223 0 328
3 324 10 -4 6 4 19 16 29 22 18 26 39 42 221 2 19 6 44 10 55 6 17 -1 25 -38
45 -43 24 -57 40 -34 40 20 0 49 42 49 72 0 16 -5 49 -11 72 -9 36 -8 49 5 74
15 29 14 30 -11 48 -51 37 -88 72 -81 79 4 4 18 -5 33 -19 21 -21 27 -23 31
-11 9 24 -3 44 -33 56 -16 5 -34 17 -40 26 -8 10 -13 12 -13 5z"/>
</g>
</svg>
