<?xml version="1.0" standalone="no"?>
<!DOCTYPE svg PUBLIC "-//W3C//DTD SVG 20010904//EN"
 "http://www.w3.org/TR/2001/REC-SVG-20010904/DTD/svg10.dtd">
<svg version="1.0" xmlns="http://www.w3.org/2000/svg"
 width="96.000000pt" height="84.000000pt" viewBox="0 0 96.000000 84.000000"
 preserveAspectRatio="xMidYMid meet">
<metadata>
Created by potrace 1.16, written by Peter Selinger 2001-2019
</metadata>
<g transform="translate(0.000000,84.000000) scale(0.100000,-0.100000)"
fill="#000000" stroke="none">
<path d="M570 810 c0 -5 -7 -10 -15 -10 -16 0 -20 -16 -6 -24 14 -9 4 -52 -20
-85 -21 -29 -30 -35 -45 -28 -4 1 -11 -9 -16 -22 -7 -19 -4 -29 13 -47 17 -18
21 -36 23 -97 1 -75 14 -107 42 -107 27 0 13 -19 -18 -25 -43 -10 -81 -29
-114 -60 -15 -14 -32 -24 -38 -22 -6 2 -16 24 -22 48 -18 71 -26 89 -36 83 -5
-3 -24 6 -43 20 -35 27 -70 37 -47 14 7 -7 12 -16 12 -21 0 -14 -43 4 -62 27
-13 15 -17 17 -18 6 0 -27 40 -82 68 -92 29 -11 50 -51 72 -135 14 -57 40 -63
112 -29 77 36 98 35 98 -7 0 -18 6 -55 13 -83 13 -48 12 -52 -7 -68 -36 -30
-147 -10 -318 55 -14 6 -28 19 -31 30 -6 21 -37 24 -121 13 l-46 -7 0 -69 0
-69 381 3 c358 3 381 4 394 22 10 14 14 56 13 168 l-1 150 -48 20 -48 21 29
34 c35 40 38 72 11 143 -15 39 -17 58 -10 83 12 43 12 47 -6 47 -8 0 -15 5
-15 10 0 6 -10 10 -22 10 -13 0 -36 11 -53 25 -33 27 -23 34 13 9 12 -8 27
-12 32 -9 21 13 8 37 -27 51 -21 8 -46 19 -55 24 -12 7 -18 7 -18 0z"/>
</g>
</svg>
