<?xml version="1.0" standalone="no"?>
<!DOCTYPE svg PUBLIC "-//W3C//DTD SVG 20010904//EN"
 "http://www.w3.org/TR/2001/REC-SVG-20010904/DTD/svg10.dtd">
<svg version="1.0" xmlns="http://www.w3.org/2000/svg"
 width="96.000000pt" height="84.000000pt" viewBox="0 0 96.000000 84.000000"
 preserveAspectRatio="xMidYMid meet">
<metadata>
Created by potrace 1.16, written by Peter Selinger 2001-2019
</metadata>
<g transform="translate(0.000000,84.000000) scale(0.100000,-0.100000)"
fill="#000000" stroke="none">
<path d="M655 799 c-16 -11 -25 -19 -19 -19 7 0 15 -11 18 -25 8 -30 -33 -100
-64 -110 -11 -4 -18 -11 -15 -16 4 -5 1 -9 -4 -9 -18 0 -12 -22 12 -48 18 -19
22 -35 22 -87 0 -59 3 -67 34 -99 l34 -35 -56 -16 c-30 -9 -75 -31 -98 -50
-24 -18 -46 -32 -50 -29 -4 2 -10 21 -13 41 -12 63 -29 103 -46 103 -8 0 -34
10 -57 22 -43 23 -65 20 -43 -7 11 -13 8 -15 -19 -15 -18 0 -41 5 -52 10 -14
8 -19 7 -19 -1 0 -15 23 -33 81 -63 45 -24 66 -56 84 -126 20 -74 54 -86 140
-47 28 12 61 22 75 22 21 0 25 -6 32 -45 4 -25 12 -69 19 -97 l12 -53 149 0
150 0 -6 73 c-3 39 -7 90 -10 112 -3 22 -7 59 -9 81 -5 51 -13 64 -37 64 -10
0 -22 5 -25 10 -3 6 -15 10 -26 10 -25 0 -24 24 1 48 32 30 35 80 10 161 -19
59 -21 76 -11 97 10 22 9 28 -6 40 -10 7 -29 14 -43 14 -24 0 -90 34 -90 45 0
3 13 -1 30 -10 40 -21 50 -19 50 10 0 19 -7 26 -37 34 -21 6 -43 11 -50 11 -6
0 -13 4 -15 8 -1 5 -16 1 -33 -9z"/>
<path d="M73 108 l-73 -10 0 -49 0 -49 248 1 247 1 -113 36 c-78 26 -117 44
-128 60 -17 25 -52 27 -181 10z"/>
</g>
</svg>
