<?xml version="1.0" standalone="no"?>
<!DOCTYPE svg PUBLIC "-//W3C//DTD SVG 20010904//EN"
 "http://www.w3.org/TR/2001/REC-SVG-20010904/DTD/svg10.dtd">
<svg version="1.0" xmlns="http://www.w3.org/2000/svg"
 width="96.000000pt" height="84.000000pt" viewBox="0 0 96.000000 84.000000"
 preserveAspectRatio="xMidYMid meet">
<metadata>
Created by potrace 1.16, written by Peter Selinger 2001-2019
</metadata>
<g transform="translate(0.000000,84.000000) scale(0.100000,-0.100000)"
fill="#000000" stroke="none">
<path d="M830 800 c0 -5 -11 -12 -25 -16 -24 -6 -25 -8 -10 -23 8 -10 15 -25
15 -35 0 -29 -41 -98 -61 -103 -10 -3 -19 -12 -19 -19 0 -8 -4 -14 -10 -14
-18 0 -10 -22 16 -43 24 -18 26 -25 20 -67 -8 -59 8 -108 47 -141 l30 -26 -49
-12 c-64 -17 -91 -30 -127 -64 -35 -32 -42 -26 -52 38 -10 59 -27 95 -48 95
-10 0 -35 9 -57 20 -22 11 -47 20 -56 20 -16 0 -16 -1 -1 -18 23 -25 13 -32
-44 -32 -86 0 -73 -25 28 -55 67 -19 71 -25 108 -142 22 -70 60 -82 137 -42
47 24 105 32 115 16 3 -6 11 -38 17 -71 l11 -61 73 -3 72 -3 0 348 0 348 -46
19 c-25 10 -43 20 -40 23 2 2 18 -3 35 -12 36 -18 51 -13 51 16 0 21 -35 39
-76 39 -14 0 -27 7 -30 15 -7 17 -24 20 -24 5z"/>
<path d="M200 59 c-144 -26 -150 -27 -150 -44 0 -13 30 -15 203 -14 170 0 197
2 169 13 -19 6 -41 21 -50 33 -24 31 -54 33 -172 12z"/>
</g>
</svg>
