<?xml version="1.0" standalone="no"?>
<!DOCTYPE svg PUBLIC "-//W3C//DTD SVG 20010904//EN"
 "http://www.w3.org/TR/2001/REC-SVG-20010904/DTD/svg10.dtd">
<svg version="1.0" xmlns="http://www.w3.org/2000/svg"
 width="96.000000pt" height="84.000000pt" viewBox="0 0 96.000000 84.000000"
 preserveAspectRatio="xMidYMid meet">
<metadata>
Created by potrace 1.16, written by Peter Selinger 2001-2019
</metadata>
<g transform="translate(0.000000,84.000000) scale(0.100000,-0.100000)"
fill="#000000" stroke="none">
<path d="M943 627 c-7 -15 -17 -27 -23 -27 -5 0 -10 -7 -10 -15 0 -8 -6 -15
-14 -15 -27 0 -25 -29 3 -49 26 -18 27 -24 23 -78 -3 -43 1 -69 14 -98 l19
-40 3 88 c1 48 1 126 0 174 -3 78 -4 84 -15 60z"/>
<path d="M590 374 c0 -4 7 -12 17 -19 24 -18 7 -35 -35 -36 -20 0 -46 -4 -57
-9 -18 -7 -17 -9 15 -23 19 -8 55 -21 79 -28 37 -11 47 -20 63 -55 10 -24 22
-64 27 -90 14 -74 53 -88 136 -50 31 14 72 26 91 28 l34 2 0 83 0 83 -27 -6
c-44 -9 -76 -27 -106 -58 -23 -24 -30 -27 -38 -15 -5 8 -9 27 -9 43 0 35 -21
98 -35 108 -5 4 -19 8 -30 8 -11 0 -37 9 -58 20 -37 20 -67 26 -67 14z"/>
<path d="M375 10 c-23 -6 -12 -8 43 -9 47 -1 71 3 67 9 -7 11 -65 11 -110 0z"/>
</g>
</svg>
