<?xml version="1.0" standalone="no"?>
<!DOCTYPE svg PUBLIC "-//W3C//DTD SVG 20010904//EN"
 "http://www.w3.org/TR/2001/REC-SVG-20010904/DTD/svg10.dtd">
<svg version="1.0" xmlns="http://www.w3.org/2000/svg"
 width="96.000000pt" height="84.000000pt" viewBox="0 0 96.000000 84.000000"
 preserveAspectRatio="xMidYMid meet">
<metadata>
Created by potrace 1.16, written by Peter Selinger 2001-2019
</metadata>
<g transform="translate(0.000000,84.000000) scale(0.100000,-0.100000)"
fill="#000000" stroke="none">
<path d="M730 340 c0 -5 9 -14 20 -20 31 -16 16 -28 -46 -36 -33 -4 -53 -11
-51 -17 2 -6 32 -20 68 -30 35 -10 70 -25 78 -32 7 -7 24 -53 37 -101 13 -48
29 -91 36 -96 7 -4 29 -7 48 -6 l35 3 3 68 c2 53 0 67 -11 67 -10 0 -16 16
-19 56 -3 31 -10 59 -17 63 -6 4 -9 15 -5 24 5 14 0 17 -24 17 -17 0 -52 11
-78 25 -49 26 -74 31 -74 15z"/>
</g>
</svg>
