<?xml version="1.0" standalone="no"?>
<!DOCTYPE svg PUBLIC "-//W3C//DTD SVG 20010904//EN"
 "http://www.w3.org/TR/2001/REC-SVG-20010904/DTD/svg10.dtd">
<svg version="1.0" xmlns="http://www.w3.org/2000/svg"
 width="96.000000pt" height="84.000000pt" viewBox="0 0 96.000000 84.000000"
 preserveAspectRatio="xMidYMid meet">
<metadata>
Created by potrace 1.16, written by Peter Selinger 2001-2019
</metadata>
<g transform="translate(0.000000,84.000000) scale(0.100000,-0.100000)"
fill="#000000" stroke="none">
<path d="M374 461 c-18 -11 -38 -28 -45 -38 -11 -16 -27 -20 -81 -20 -39 0
-74 -6 -83 -13 -32 -27 -13 -83 57 -173 26 -32 29 -44 25 -75 -5 -27 -4 -33 4
-22 8 11 9 4 6 -28 -5 -39 -4 -42 9 -25 14 16 14 14 9 -24 l-7 -43 216 0 216
0 0 53 c1 51 1 51 16 27 l15 -25 -6 25 c-17 74 -16 105 5 129 20 23 21 23 40
6 19 -17 20 -17 20 1 0 11 -5 25 -11 31 -7 7 -4 20 10 44 24 40 27 82 6 99 -8
7 -45 12 -87 12 -61 0 -75 3 -87 20 -38 54 -184 77 -247 39z"/>
</g>
</svg>
