<?xml version="1.0" standalone="no"?>
<!DOCTYPE svg PUBLIC "-//W3C//DTD SVG 20010904//EN"
 "http://www.w3.org/TR/2001/REC-SVG-20010904/DTD/svg10.dtd">
<svg version="1.0" xmlns="http://www.w3.org/2000/svg"
 width="96.000000pt" height="84.000000pt" viewBox="0 0 96.000000 84.000000"
 preserveAspectRatio="xMidYMid meet">
<metadata>
Created by potrace 1.16, written by Peter Selinger 2001-2019
</metadata>
<g transform="translate(0.000000,84.000000) scale(0.100000,-0.100000)"
fill="#000000" stroke="none">
<path d="M199 826 c11 -13 103 -33 124 -28 4 1 18 -4 30 -13 12 -8 34 -15 49
-15 16 0 28 -3 28 -7 0 -17 -118 -158 -185 -221 -72 -66 -75 -71 -74 -113 0
-42 4 -47 75 -109 153 -132 247 -176 288 -134 9 8 23 41 31 72 32 121 39 137
62 140 26 4 39 -28 23 -58 -7 -12 -9 -24 -7 -27 3 -2 10 5 17 16 12 24 37 27
64 6 18 -13 17 -17 -14 -112 -17 -54 -34 -126 -37 -160 l-6 -63 147 0 146 0 0
370 c0 204 -2 370 -5 370 -3 0 -24 -9 -46 -21 -45 -22 -69 -66 -69 -123 0 -19
-6 -36 -14 -39 -8 -3 -16 -29 -21 -62 -6 -51 -4 -59 14 -72 13 -8 21 -25 21
-41 l-1 -27 -33 39 c-23 27 -31 45 -28 62 4 24 1 27 -48 38 -50 11 -103 78
-155 195 -27 61 -54 111 -60 111 -7 0 -20 9 -30 20 -16 18 -31 20 -158 20
-119 0 -138 -2 -128 -14z"/>
</g>
</svg>
