<?xml version="1.0" standalone="no"?>
<!DOCTYPE svg PUBLIC "-//W3C//DTD SVG 20010904//EN"
 "http://www.w3.org/TR/2001/REC-SVG-20010904/DTD/svg10.dtd">
<svg version="1.0" xmlns="http://www.w3.org/2000/svg"
 width="96.000000pt" height="84.000000pt" viewBox="0 0 96.000000 84.000000"
 preserveAspectRatio="xMidYMid meet">
<metadata>
Created by potrace 1.16, written by Peter Selinger 2001-2019
</metadata>
<g transform="translate(0.000000,84.000000) scale(0.100000,-0.100000)"
fill="#000000" stroke="none">
<path d="M395 408 c-11 -6 -31 -21 -45 -34 -23 -20 -30 -22 -75 -13 -72 14
-81 2 -65 -92 7 -41 21 -88 31 -105 14 -22 17 -41 12 -64 -4 -24 -3 -31 6 -26
11 7 9 -18 -5 -63 -4 -11 -2 -12 11 -1 10 8 15 9 15 1 0 -8 61 -11 210 -11
l210 0 -7 33 -6 32 21 -25 c26 -30 26 -29 7 34 -12 39 -13 57 -4 83 9 29 13
32 40 26 26 -5 29 -3 29 19 0 13 -7 33 -15 45 -11 15 -14 34 -9 60 8 54 -6 64
-75 51 -47 -8 -56 -7 -75 10 -53 48 -159 69 -211 40z m365 -199 c0 -6 -4 -7
-10 -4 -5 3 -10 11 -10 16 0 6 5 7 10 4 6 -3 10 -11 10 -16z"/>
</g>
</svg>
