<?xml version="1.0" standalone="no"?>
<!DOCTYPE svg PUBLIC "-//W3C//DTD SVG 20010904//EN"
 "http://www.w3.org/TR/2001/REC-SVG-20010904/DTD/svg10.dtd">
<svg version="1.0" xmlns="http://www.w3.org/2000/svg"
 width="96.000000pt" height="84.000000pt" viewBox="0 0 96.000000 84.000000"
 preserveAspectRatio="xMidYMid meet">
<metadata>
Created by potrace 1.16, written by Peter Selinger 2001-2019
</metadata>
<g transform="translate(0.000000,84.000000) scale(0.100000,-0.100000)"
fill="#000000" stroke="none">
<path d="M411 409 c-34 -7 -91 -54 -91 -75 0 -7 -25 -13 -64 -16 -79 -7 -86
-11 -86 -53 0 -45 18 -83 57 -121 30 -28 32 -34 23 -65 -13 -43 -12 -58 0 -39
8 12 10 9 10 -13 l0 -28 234 1 233 1 -12 54 c-10 43 -10 56 -1 64 9 7 16 7 23
0 19 -19 34 0 27 36 -4 21 0 43 10 63 18 34 21 78 7 86 -5 4 -37 9 -71 13 -50
5 -64 11 -77 30 -9 13 -30 31 -47 41 -37 19 -129 30 -175 21z m339 -269 c0 -5
-2 -10 -4 -10 -3 0 -8 5 -11 10 -3 6 -1 10 4 10 6 0 11 -4 11 -10z"/>
</g>
</svg>
