<?xml version="1.0" standalone="no"?>
<!DOCTYPE svg PUBLIC "-//W3C//DTD SVG 20010904//EN"
 "http://www.w3.org/TR/2001/REC-SVG-20010904/DTD/svg10.dtd">
<svg version="1.0" xmlns="http://www.w3.org/2000/svg"
 width="96.000000pt" height="84.000000pt" viewBox="0 0 96.000000 84.000000"
 preserveAspectRatio="xMidYMid meet">
<metadata>
Created by potrace 1.16, written by Peter Selinger 2001-2019
</metadata>
<g transform="translate(0.000000,84.000000) scale(0.100000,-0.100000)"
fill="#000000" stroke="none">
<path d="M390 417 c-20 -7 -44 -27 -58 -47 -20 -29 -30 -35 -60 -35 -78 -2
-101 -6 -116 -21 -14 -14 -14 -19 -1 -52 9 -20 34 -60 56 -90 36 -47 41 -59
35 -91 -4 -27 -3 -32 5 -21 8 11 9 6 6 -22 l-6 -37 225 -1 c176 0 224 2 224
12 0 9 3 9 10 -2 16 -25 19 -7 8 48 -10 47 -9 55 9 75 55 63 97 146 87 172 -7
16 -60 29 -117 28 -30 0 -44 7 -75 37 -56 56 -150 75 -232 47z"/>
</g>
</svg>
