<?xml version="1.0" standalone="no"?>
<!DOCTYPE svg PUBLIC "-//W3C//DTD SVG 20010904//EN"
 "http://www.w3.org/TR/2001/REC-SVG-20010904/DTD/svg10.dtd">
<svg version="1.0" xmlns="http://www.w3.org/2000/svg"
 width="96.000000pt" height="84.000000pt" viewBox="0 0 96.000000 84.000000"
 preserveAspectRatio="xMidYMid meet">
<metadata>
Created by potrace 1.16, written by Peter Selinger 2001-2019
</metadata>
<g transform="translate(0.000000,84.000000) scale(0.100000,-0.100000)"
fill="#000000" stroke="none">
<path d="M412 430 c-35 -8 -78 -43 -87 -69 -4 -13 -20 -16 -79 -16 -43 0 -80
-5 -86 -12 -19 -18 -2 -68 47 -141 38 -57 44 -72 38 -102 -4 -27 -3 -32 5 -20
9 12 10 5 6 -27 l-6 -42 240 0 c267 -1 251 -5 230 69 -13 46 -4 73 21 65 20
-7 25 0 33 45 2 14 14 45 25 70 37 82 29 93 -69 96 -60 2 -69 6 -103 37 -51
49 -133 66 -215 47z"/>
</g>
</svg>
