<?xml version="1.0" standalone="no"?>
<!DOCTYPE svg PUBLIC "-//W3C//DTD SVG 20010904//EN"
 "http://www.w3.org/TR/2001/REC-SVG-20010904/DTD/svg10.dtd">
<svg version="1.0" xmlns="http://www.w3.org/2000/svg"
 width="96.000000pt" height="84.000000pt" viewBox="0 0 96.000000 84.000000"
 preserveAspectRatio="xMidYMid meet">
<metadata>
Created by potrace 1.16, written by Peter Selinger 2001-2019
</metadata>
<g transform="translate(0.000000,84.000000) scale(0.100000,-0.100000)"
fill="#000000" stroke="none">
<path d="M454 691 c-43 -19 -74 -54 -74 -81 0 -15 -50 -40 -81 -40 -14 0 -49
-33 -49 -47 0 -3 8 -11 17 -18 17 -12 17 -15 0 -49 -19 -40 -23 -81 -7 -71 6
4 10 -6 10 -22 1 -33 24 -68 47 -68 9 0 21 -8 27 -17 8 -13 6 -22 -8 -37 -17
-19 -17 -23 -4 -39 8 -9 21 -36 28 -60 8 -24 24 -52 36 -61 13 -10 20 -21 16
-25 -3 -4 1 -4 11 0 22 8 22 -13 0 -38 -16 -17 -11 -18 125 -18 120 0 142 2
142 15 0 8 5 15 10 15 6 0 10 -6 10 -14 0 -9 9 -14 20 -13 11 1 20 5 20 10 0
4 5 5 10 2 15 -9 17 65 4 196 -5 53 -3 78 5 83 6 4 11 2 11 -3 0 -17 30 -13
36 4 3 8 -5 28 -19 45 -33 38 -41 64 -28 89 16 30 13 91 -8 136 -21 46 -88
111 -137 131 -46 19 -121 17 -170 -5z"/>
</g>
</svg>
