<?xml version="1.0" standalone="no"?>
<!DOCTYPE svg PUBLIC "-//W3C//DTD SVG 20010904//EN"
 "http://www.w3.org/TR/2001/REC-SVG-20010904/DTD/svg10.dtd">
<svg version="1.0" xmlns="http://www.w3.org/2000/svg"
 width="96.000000pt" height="84.000000pt" viewBox="0 0 96.000000 84.000000"
 preserveAspectRatio="xMidYMid meet">
<metadata>
Created by potrace 1.16, written by Peter Selinger 2001-2019
</metadata>
<g transform="translate(0.000000,84.000000) scale(0.100000,-0.100000)"
fill="#000000" stroke="none">
<path d="M445 765 c-46 -25 -49 -25 -87 -10 -47 18 -82 19 -96 2 -10 -12 -3
-78 13 -119 4 -11 0 -18 -13 -22 -27 -9 -35 -33 -20 -59 7 -12 11 -28 10 -34
-2 -7 4 -13 13 -13 8 0 19 -10 24 -22 5 -13 18 -32 30 -42 12 -11 51 -68 88
-128 36 -59 69 -108 73 -108 4 0 37 49 74 110 37 60 77 118 90 128 13 10 25
27 28 37 2 11 12 21 22 23 20 4 38 -16 31 -35 -2 -6 6 -42 17 -80 16 -52 22
-100 24 -208 1 -77 3 -146 3 -152 2 -29 20 -10 26 27 4 22 11 38 15 35 5 -3 5
9 0 26 -8 26 -7 30 6 25 11 -4 8 4 -8 27 -19 27 -23 45 -23 107 l0 75 38 -3
c56 -5 59 20 7 66 -39 34 -41 39 -31 65 35 92 -33 218 -151 276 -78 40 -136
41 -203 6z"/>
<path d="M216 454 c-4 -10 -1 -14 6 -12 15 5 23 28 10 28 -5 0 -13 -7 -16 -16z"/>
</g>
</svg>
