<?xml version="1.0" standalone="no"?>
<!DOCTYPE svg PUBLIC "-//W3C//DTD SVG 20010904//EN"
 "http://www.w3.org/TR/2001/REC-SVG-20010904/DTD/svg10.dtd">
<svg version="1.0" xmlns="http://www.w3.org/2000/svg"
 width="96.000000pt" height="84.000000pt" viewBox="0 0 96.000000 84.000000"
 preserveAspectRatio="xMidYMid meet">
<metadata>
Created by potrace 1.16, written by Peter Selinger 2001-2019
</metadata>
<g transform="translate(0.000000,84.000000) scale(0.100000,-0.100000)"
fill="#000000" stroke="none">
<path d="M204 801 c6 -37 4 -40 -24 -49 -44 -16 -54 -89 -16 -124 12 -11 9
-22 -15 -70 -31 -62 -34 -73 -20 -63 6 3 13 -10 17 -30 3 -19 10 -38 15 -41 5
-3 9 -14 9 -25 0 -28 23 -19 32 12 29 99 40 166 41 239 2 63 7 93 20 113 9 15
21 27 26 27 5 0 15 2 23 5 11 4 12 -7 6 -57 -4 -35 -10 -77 -13 -95 -6 -26 -3
-33 15 -43 12 -6 51 -56 86 -111 35 -54 69 -99 74 -99 5 0 39 45 75 100 36 55
75 105 86 111 17 9 20 17 14 42 -7 36 -22 157 -18 157 1 0 13 -4 28 -10 38
-14 55 -64 50 -143 -3 -42 0 -78 9 -99 26 -63 36 -168 27 -278 -9 -113 -4
-131 36 -149 13 -6 32 -25 43 -43 l20 -33 0 30 c0 24 3 27 10 15 8 -11 9 -8 4
12 -3 16 -2 28 4 28 5 0 -1 21 -14 47 -18 35 -24 63 -24 115 0 72 3 75 53 53
10 -4 23 -2 32 5 17 14 20 76 5 85 -6 4 -20 26 -31 51 -12 24 -25 44 -30 44
-4 0 -6 28 -3 63 7 74 -17 150 -67 210 l-30 37 -281 0 -281 0 7 -39z"/>
</g>
</svg>
