<?xml version="1.0" standalone="no"?>
<!DOCTYPE svg PUBLIC "-//W3C//DTD SVG 20010904//EN"
 "http://www.w3.org/TR/2001/REC-SVG-20010904/DTD/svg10.dtd">
<svg version="1.0" xmlns="http://www.w3.org/2000/svg"
 width="96.000000pt" height="84.000000pt" viewBox="0 0 96.000000 84.000000"
 preserveAspectRatio="xMidYMid meet">
<metadata>
Created by potrace 1.16, written by Peter Selinger 2001-2019
</metadata>
<g transform="translate(0.000000,84.000000) scale(0.100000,-0.100000)"
fill="#000000" stroke="none">
<path d="M0 644 l0 -197 29 6 c26 5 30 2 47 -35 10 -22 20 -35 22 -29 5 16 22
14 22 -4 0 -9 6 -12 15 -9 27 11 16 -29 -17 -64 l-33 -33 27 -21 c17 -12 28
-29 28 -43 0 -13 5 -27 10 -30 6 -3 10 1 10 10 0 9 16 25 35 36 l35 21 0 106
c0 90 4 119 27 185 23 67 25 82 15 110 -10 27 -8 44 6 95 l18 63 18 -59 c11
-38 15 -72 11 -94 -6 -29 -3 -37 17 -50 13 -8 48 -50 78 -92 30 -42 57 -76 60
-76 4 0 32 36 64 80 31 44 66 85 77 91 17 9 20 17 14 46 -4 23 0 57 11 95 l18
59 18 -63 c14 -51 16 -68 6 -95 -10 -28 -8 -43 15 -110 23 -66 27 -95 27 -185
l0 -106 35 -21 c19 -11 35 -27 35 -34 0 -8 7 -20 15 -27 8 -7 15 -24 15 -38 0
-24 -1 -25 -20 -7 -11 10 -22 26 -25 36 -8 26 -27 24 -54 -5 -22 -23 -22 -23
-2 -29 11 -3 22 0 24 7 3 6 10 -1 17 -16 7 -16 17 -28 22 -28 5 0 17 -20 28
-45 l19 -45 61 0 60 0 0 69 c0 38 -5 82 -11 98 -6 15 -13 76 -16 136 -5 95 -4
107 11 107 14 0 16 14 16 95 0 68 -5 105 -16 126 -14 28 -14 35 0 77 9 25 16
65 16 89 l0 43 -480 0 -480 0 0 -196z"/>
<path d="M178 168 c0 -7 -2 -26 -2 -41 l-2 -28 18 23 c10 13 18 18 18 13 0
-11 40 -15 40 -5 0 11 -46 50 -58 50 -7 0 -13 -6 -14 -12z"/>
</g>
</svg>
