<?xml version="1.0" standalone="no"?>
<!DOCTYPE svg PUBLIC "-//W3C//DTD SVG 20010904//EN"
 "http://www.w3.org/TR/2001/REC-SVG-20010904/DTD/svg10.dtd">
<svg version="1.0" xmlns="http://www.w3.org/2000/svg"
 width="96.000000pt" height="84.000000pt" viewBox="0 0 96.000000 84.000000"
 preserveAspectRatio="xMidYMid meet">
<metadata>
Created by potrace 1.16, written by Peter Selinger 2001-2019
</metadata>
<g transform="translate(0.000000,84.000000) scale(0.100000,-0.100000)"
fill="#000000" stroke="none">
<path d="M0 420 l0 -420 124 0 c109 0 124 2 128 17 7 27 -23 68 -50 68 -12 0
-29 -11 -38 -23 -19 -27 -44 -29 -44 -3 0 18 35 53 94 94 25 17 26 22 26 118
0 76 5 113 21 157 12 31 23 67 26 80 3 12 10 25 15 28 12 7 99 -85 136 -143
15 -24 34 -43 42 -43 8 0 28 21 44 46 36 57 124 150 133 141 3 -4 19 -44 35
-89 23 -68 28 -98 28 -179 0 -94 1 -99 26 -116 59 -41 94 -76 94 -94 0 -26
-25 -24 -44 3 -31 44 -85 19 -86 -39 0 -23 2 -23 125 -23 l125 0 0 420 0 420
-480 0 -480 0 0 -420z"/>
</g>
</svg>
