<?xml version="1.0" standalone="no"?>
<!DOCTYPE svg PUBLIC "-//W3C//DTD SVG 20010904//EN"
 "http://www.w3.org/TR/2001/REC-SVG-20010904/DTD/svg10.dtd">
<svg version="1.0" xmlns="http://www.w3.org/2000/svg"
 width="96.000000pt" height="84.000000pt" viewBox="0 0 96.000000 84.000000"
 preserveAspectRatio="xMidYMid meet">
<metadata>
Created by potrace 1.16, written by Peter Selinger 2001-2019
</metadata>
<g transform="translate(0.000000,84.000000) scale(0.100000,-0.100000)"
fill="#000000" stroke="none">
<path d="M0 420 l0 -420 119 0 c125 0 131 2 131 50 0 27 -87 33 -105 7 -12
-17 -13 -17 -19 -1 -5 13 8 31 49 69 l55 51 0 120 c1 95 5 130 21 174 12 30
23 70 26 88 3 18 10 35 15 38 13 9 77 -64 136 -153 26 -40 49 -73 52 -73 3 1
29 35 57 78 60 87 127 157 143 147 5 -3 10 -16 10 -28 0 -12 10 -47 22 -77 20
-49 22 -71 20 -190 l-2 -134 57 -53 c42 -38 55 -55 46 -64 -8 -8 -15 -4 -27
13 -15 21 -18 21 -27 6 -7 -13 -17 -16 -39 -11 -28 5 -30 4 -30 -26 l0 -31
125 0 125 0 0 420 0 420 -480 0 -480 0 0 -420z"/>
</g>
</svg>
