<?xml version="1.0" standalone="no"?>
<!DOCTYPE svg PUBLIC "-//W3C//DTD SVG 20010904//EN"
 "http://www.w3.org/TR/2001/REC-SVG-20010904/DTD/svg10.dtd">
<svg version="1.0" xmlns="http://www.w3.org/2000/svg"
 width="96.000000pt" height="84.000000pt" viewBox="0 0 96.000000 84.000000"
 preserveAspectRatio="xMidYMid meet">
<metadata>
Created by potrace 1.16, written by Peter Selinger 2001-2019
</metadata>
<g transform="translate(0.000000,84.000000) scale(0.100000,-0.100000)"
fill="#000000" stroke="none">
<path d="M0 420 l0 -420 120 0 c89 0 120 3 120 13 0 6 3 22 6 34 6 21 3 23
-39 23 -25 0 -49 -5 -52 -10 -3 -6 -13 -10 -21 -10 -28 0 -13 29 39 73 l52 46
1 123 c0 102 5 133 23 183 12 33 23 73 24 89 2 36 29 55 51 37 9 -8 16 -21 16
-31 0 -9 9 -25 20 -35 10 -9 41 -50 67 -91 26 -41 50 -74 53 -74 3 1 25 31 50
68 25 36 56 80 70 97 14 16 31 42 38 58 6 15 18 27 26 27 18 0 37 -32 34 -57
-1 -10 8 -50 21 -90 20 -62 22 -85 18 -187 l-5 -116 28 -27 c16 -16 42 -41 59
-58 35 -34 36 -38 16 -55 -12 -10 -17 -7 -27 14 -10 22 -13 24 -20 11 -5 -8
-22 -15 -37 -15 -27 0 -47 -21 -34 -34 4 -3 60 -6 125 -6 l118 0 0 420 0 420
-480 0 -480 0 0 -420z"/>
</g>
</svg>
