<?xml version="1.0" standalone="no"?>
<!DOCTYPE svg PUBLIC "-//W3C//DTD SVG 20010904//EN"
 "http://www.w3.org/TR/2001/REC-SVG-20010904/DTD/svg10.dtd">
<svg version="1.0" xmlns="http://www.w3.org/2000/svg"
 width="96.000000pt" height="84.000000pt" viewBox="0 0 96.000000 84.000000"
 preserveAspectRatio="xMidYMid meet">
<metadata>
Created by potrace 1.16, written by Peter Selinger 2001-2019
</metadata>
<g transform="translate(0.000000,84.000000) scale(0.100000,-0.100000)"
fill="#000000" stroke="none">
<path d="M0 420 l0 -420 123 0 124 0 -5 58 c-2 31 -5 58 -7 60 -2 3 -66 -17
-86 -28 -9 -4 -22 -5 -29 0 -19 12 9 69 36 76 12 3 33 18 47 32 24 24 27 39
36 142 5 68 17 138 29 170 11 30 23 67 26 83 13 58 61 20 147 -117 23 -36 43
-66 44 -66 2 0 25 30 51 67 27 37 73 92 102 121 43 42 57 50 68 41 8 -6 14
-20 14 -31 0 -10 10 -47 21 -81 18 -53 20 -76 15 -157 -3 -52 -9 -114 -12
-138 -6 -40 -4 -45 33 -80 41 -37 63 -71 63 -93 0 -8 -7 -5 -20 6 -11 10 -20
14 -20 9 -1 -5 -11 4 -24 19 -28 35 -40 24 -50 -45 l-7 -48 120 0 121 0 0 420
0 420 -480 0 -480 0 0 -420z"/>
</g>
</svg>
