<?xml version="1.0" standalone="no"?>
<!DOCTYPE svg PUBLIC "-//W3C//DTD SVG 20010904//EN"
 "http://www.w3.org/TR/2001/REC-SVG-20010904/DTD/svg10.dtd">
<svg version="1.0" xmlns="http://www.w3.org/2000/svg"
 width="96.000000pt" height="84.000000pt" viewBox="0 0 96.000000 84.000000"
 preserveAspectRatio="xMidYMid meet">
<metadata>
Created by potrace 1.16, written by Peter Selinger 2001-2019
</metadata>
<g transform="translate(0.000000,84.000000) scale(0.100000,-0.100000)"
fill="#000000" stroke="none">
<path d="M0 420 l0 -420 181 0 181 0 -7 63 c-4 39 -12 66 -22 72 -51 33 -65
52 -70 98 -3 26 -10 50 -14 53 -5 3 -9 16 -9 30 0 19 -5 24 -25 24 -20 0 -25
5 -25 25 0 27 1 28 67 45 34 8 43 16 48 40 14 62 151 240 185 240 5 0 16 -13
25 -29 l15 -29 65 64 c40 39 78 67 95 71 17 3 30 9 30 14 0 4 7 15 16 24 15
15 18 15 34 0 15 -13 18 -37 19 -158 1 -124 -2 -154 -24 -235 -21 -80 -23 -99
-14 -137 11 -43 10 -55 -18 -242 l-5 -33 116 0 116 0 0 420 0 420 -480 0 -480
0 0 -420z"/>
</g>
</svg>
