<?xml version="1.0" standalone="no"?>
<!DOCTYPE svg PUBLIC "-//W3C//DTD SVG 20010904//EN"
 "http://www.w3.org/TR/2001/REC-SVG-20010904/DTD/svg10.dtd">
<svg version="1.0" xmlns="http://www.w3.org/2000/svg"
 width="96.000000pt" height="84.000000pt" viewBox="0 0 96.000000 84.000000"
 preserveAspectRatio="xMidYMid meet">
<metadata>
Created by potrace 1.16, written by Peter Selinger 2001-2019
</metadata>
<g transform="translate(0.000000,84.000000) scale(0.100000,-0.100000)"
fill="#000000" stroke="none">
<path d="M0 420 l0 -420 203 0 202 1 37 34 c21 20 38 42 38 50 0 17 -12 19
-26 5 -6 -6 -17 -8 -25 -5 -14 5 -59 90 -59 110 0 6 -10 19 -22 29 l-22 19 22
15 c30 20 27 33 -13 62 -34 24 -40 43 -37 105 0 11 -2 14 -4 8 -3 -7 -10 -13
-14 -13 -5 0 -2 16 6 35 14 34 14 35 -10 35 -13 0 -26 7 -30 15 -3 8 -17 15
-31 15 -22 0 -26 4 -23 23 3 20 8 22 53 19 72 -5 101 9 126 63 12 25 38 58 61
75 23 16 63 54 90 85 l50 55 -286 0 -286 0 0 -420z"/>
<path d="M811 826 c-15 -18 -28 -139 -36 -341 l-6 -160 31 -30 c29 -28 39 -55
20 -55 -5 0 -17 11 -26 26 -29 44 -44 -1 -31 -91 6 -38 6 -39 -8 -15 l-14 25
-11 -32 c-7 -18 -16 -33 -20 -33 -4 0 -11 -17 -15 -37 l-7 -38 -18 23 c-17 20
-20 21 -34 6 -31 -30 -13 -74 30 -74 12 0 24 8 26 18 3 9 22 23 42 30 35 13
39 12 60 -7 12 -12 34 -21 48 -21 15 0 28 -5 30 -11 5 -16 48 -1 48 16 0 8 -6
12 -13 9 -8 -3 -14 2 -14 10 0 9 15 20 34 27 l33 11 0 379 0 379 -69 0 c-46 0
-72 -4 -80 -14z"/>
</g>
</svg>
