<?xml version="1.0" standalone="no"?>
<!DOCTYPE svg PUBLIC "-//W3C//DTD SVG 20010904//EN"
 "http://www.w3.org/TR/2001/REC-SVG-20010904/DTD/svg10.dtd">
<svg version="1.0" xmlns="http://www.w3.org/2000/svg"
 width="96.000000pt" height="84.000000pt" viewBox="0 0 96.000000 84.000000"
 preserveAspectRatio="xMidYMid meet">
<metadata>
Created by potrace 1.16, written by Peter Selinger 2001-2019
</metadata>
<g transform="translate(0.000000,84.000000) scale(0.100000,-0.100000)"
fill="#000000" stroke="none">
<path d="M0 420 l0 -420 424 0 424 0 56 32 56 32 0 388 0 388 -64 0 c-63 0
-64 0 -68 -30 -3 -17 0 -33 5 -37 5 -3 3 -9 -4 -14 -11 -6 -14 -41 -15 -141
-1 -73 -5 -166 -8 -206 -7 -78 -6 -80 62 -134 24 -19 29 -48 10 -48 -7 0 -25
14 -40 32 -14 18 -30 29 -34 25 -4 -4 -8 -32 -8 -62 -1 -30 -3 -55 -5 -55 -2
0 -23 18 -46 39 -32 29 -55 41 -89 46 -25 4 -51 14 -58 22 -19 24 -85 53 -118
53 -34 0 -99 -30 -119 -54 -8 -9 -18 -16 -24 -16 -5 0 -2 9 7 19 14 15 15 24
7 38 -8 14 -11 15 -11 3 0 -11 -6 -9 -19 8 -11 12 -23 22 -28 22 -13 0 -33 68
-26 86 3 8 -1 14 -11 14 -15 0 -15 3 -1 30 19 37 19 50 0 50 -9 0 -18 7 -21
15 -4 9 -19 15 -35 15 -32 0 -39 19 -14 40 12 10 25 10 60 1 59 -15 78 -3 106
67 14 34 38 67 67 93 96 84 106 79 -172 79 l-246 0 0 -420z"/>
</g>
</svg>
