<?xml version="1.0" standalone="no"?>
<!DOCTYPE svg PUBLIC "-//W3C//DTD SVG 20010904//EN"
 "http://www.w3.org/TR/2001/REC-SVG-20010904/DTD/svg10.dtd">
<svg version="1.0" xmlns="http://www.w3.org/2000/svg"
 width="96.000000pt" height="84.000000pt" viewBox="0 0 96.000000 84.000000"
 preserveAspectRatio="xMidYMid meet">
<metadata>
Created by potrace 1.16, written by Peter Selinger 2001-2019
</metadata>
<g transform="translate(0.000000,84.000000) scale(0.100000,-0.100000)"
fill="#000000" stroke="none">
<path d="M0 420 l0 -420 405 0 c229 0 405 4 405 9 0 5 12 11 28 14 30 6 90 28
110 40 9 6 12 96 12 393 l0 384 -39 0 -39 0 -6 -152 c-3 -84 -9 -190 -12 -235
l-5 -82 45 -44 c44 -42 59 -77 34 -77 -7 0 -27 16 -44 37 l-31 36 -13 -62 c-9
-46 -10 -68 -2 -86 8 -18 8 -25 -1 -28 -8 -2 -6 -12 7 -31 9 -15 15 -30 12
-33 -6 -6 -66 87 -66 104 0 6 -9 33 -21 60 -48 113 -105 161 -169 143 -25 -7
-45 -5 -81 7 -45 16 -51 16 -101 0 -39 -12 -63 -14 -86 -8 -24 7 -39 5 -67 -9
-21 -11 -38 -14 -41 -8 -3 5 -12 7 -19 4 -14 -5 -25 14 -25 45 0 10 -4 19 -10
19 -5 0 -10 16 -10 36 0 28 -3 35 -15 30 -19 -7 -19 -3 6 45 l20 40 -28 29
c-17 18 -41 30 -62 32 -45 4 -62 30 -37 57 23 25 38 26 105 4 50 -16 53 -15
77 3 20 14 64 99 64 122 0 1 -67 2 -150 2 l-150 0 0 -420z"/>
</g>
</svg>
