<?xml version="1.0" standalone="no"?>
<!DOCTYPE svg PUBLIC "-//W3C//DTD SVG 20010904//EN"
 "http://www.w3.org/TR/2001/REC-SVG-20010904/DTD/svg10.dtd">
<svg version="1.0" xmlns="http://www.w3.org/2000/svg"
 width="96.000000pt" height="84.000000pt" viewBox="0 0 96.000000 84.000000"
 preserveAspectRatio="xMidYMid meet">
<metadata>
Created by potrace 1.16, written by Peter Selinger 2001-2019
</metadata>
<g transform="translate(0.000000,84.000000) scale(0.100000,-0.100000)"
fill="#000000" stroke="none">
<path d="M1 253 l-1 -253 96 0 c109 0 103 -9 60 98 l-21 53 75 79 c42 44 81
80 88 80 14 0 16 -12 3 -25 -10 -11 -51 -146 -51 -167 0 -10 3 -10 11 2 8 12
9 10 5 -10 -3 -14 -6 -33 -6 -43 0 -10 -11 -29 -25 -42 l-24 -25 254 0 c234 0
278 4 245 25 -5 3 -10 23 -10 43 l1 37 15 -25 c15 -25 15 -25 8 10 -3 19 -19
75 -35 124 -17 49 -28 91 -25 93 2 2 25 -20 50 -50 70 -80 133 -130 154 -121
9 4 24 8 32 8 38 2 14 108 -36 160 -77 79 -202 119 -258 83 -22 -15 -28 -15
-60 -2 -45 19 -87 19 -131 1 -30 -13 -38 -13 -66 1 -36 18 -90 12 -156 -17
l-43 -19 0 25 c0 26 -9 31 -27 13 -8 -8 -17 0 -33 31 -12 23 -24 39 -27 36 -4
-3 -12 -1 -20 5 -9 9 -13 8 -13 0 0 -23 -19 -10 -23 17 -2 15 -5 -87 -6 -225z"/>
<path d="M947 203 c-4 -20 -2 -43 3 -52 7 -11 9 -1 10 37 0 61 -5 67 -13 15z"/>
<path d="M946 105 c4 -8 8 -15 10 -15 2 0 4 7 4 15 0 8 -4 15 -10 15 -5 0 -7
-7 -4 -15z"/>
<path d="M906 64 c-25 -73 -21 -79 27 -40 l29 23 -20 32 -20 32 -16 -47z"/>
</g>
</svg>
