<?xml version="1.0" standalone="no"?>
<!DOCTYPE svg PUBLIC "-//W3C//DTD SVG 20010904//EN"
 "http://www.w3.org/TR/2001/REC-SVG-20010904/DTD/svg10.dtd">
<svg version="1.0" xmlns="http://www.w3.org/2000/svg"
 width="96.000000pt" height="84.000000pt" viewBox="0 0 96.000000 84.000000"
 preserveAspectRatio="xMidYMid meet">
<metadata>
Created by potrace 1.16, written by Peter Selinger 2001-2019
</metadata>
<g transform="translate(0.000000,84.000000) scale(0.100000,-0.100000)"
fill="#000000" stroke="none">
<path d="M17 420 c-12 -8 -17 -24 -17 -61 0 -59 2 -60 142 -84 51 -9 112 -25
136 -35 38 -17 42 -22 32 -39 -23 -44 -49 -145 -43 -173 l5 -28 214 0 c152 0
214 3 214 11 0 8 6 7 16 -2 15 -12 16 -10 9 20 -4 18 -17 63 -29 99 -13 37
-25 73 -27 81 -6 19 58 39 180 56 58 8 106 15 108 15 2 0 3 30 1 68 l-3 67
-72 -1 c-79 -2 -162 -34 -246 -94 -42 -30 -44 -30 -80 -15 -46 19 -95 19 -141
0 -35 -15 -36 -15 -83 21 -75 57 -165 96 -236 101 -35 2 -70 -1 -80 -7z"/>
</g>
</svg>
