<?xml version="1.0" standalone="no"?>
<!DOCTYPE svg PUBLIC "-//W3C//DTD SVG 20010904//EN"
 "http://www.w3.org/TR/2001/REC-SVG-20010904/DTD/svg10.dtd">
<svg version="1.0" xmlns="http://www.w3.org/2000/svg"
 width="96.000000pt" height="84.000000pt" viewBox="0 0 96.000000 84.000000"
 preserveAspectRatio="xMidYMid meet">
<metadata>
Created by potrace 1.16, written by Peter Selinger 2001-2019
</metadata>
<g transform="translate(0.000000,84.000000) scale(0.100000,-0.100000)"
fill="#000000" stroke="none">
<path d="M441 358 c-18 -5 -45 -16 -58 -25 -14 -9 -47 -17 -76 -17 -69 -2
-119 -28 -192 -101 -65 -64 -94 -114 -102 -176 l-6 -39 50 0 c44 0 53 4 85 38
19 20 61 72 93 115 32 43 59 76 61 75 1 -2 -8 -37 -22 -78 -26 -80 -30 -105
-14 -95 6 4 7 -6 4 -25 l-6 -30 225 0 c171 0 227 3 230 13 4 9 6 9 6 0 1 -7 5
-13 10 -13 14 0 -25 158 -50 203 -6 11 -8 21 -5 24 3 3 26 -28 52 -68 26 -41
63 -93 82 -116 34 -42 36 -43 94 -43 l61 0 -7 41 c-9 56 -36 106 -91 167 -68
76 -125 107 -195 105 -33 0 -61 5 -70 13 -17 15 -96 45 -114 43 -6 0 -26 -5
-45 -11z"/>
</g>
</svg>
