<?xml version="1.0" standalone="no"?>
<!DOCTYPE svg PUBLIC "-//W3C//DTD SVG 20010904//EN"
 "http://www.w3.org/TR/2001/REC-SVG-20010904/DTD/svg10.dtd">
<svg version="1.0" xmlns="http://www.w3.org/2000/svg"
 width="96.000000pt" height="84.000000pt" viewBox="0 0 96.000000 84.000000"
 preserveAspectRatio="xMidYMid meet">
<metadata>
Created by potrace 1.16, written by Peter Selinger 2001-2019
</metadata>
<g transform="translate(0.000000,84.000000) scale(0.100000,-0.100000)"
fill="#000000" stroke="none">
<path d="M544 648 c-12 -5 -28 -21 -35 -34 -12 -23 -35 -33 -113 -49 -38 -8
-136 -107 -164 -166 -28 -58 -30 -129 -4 -129 10 0 24 6 31 13 10 10 15 9 25
-5 7 -10 16 -15 19 -11 9 8 30 -48 28 -76 0 -13 4 -30 10 -37 6 -8 9 -31 7
-53 -3 -31 -1 -37 9 -29 9 7 15 3 23 -16 6 -16 17 -26 29 -26 10 0 21 -7 25
-15 4 -12 33 -15 169 -15 l164 0 -5 30 c-3 23 0 30 12 30 13 0 14 5 5 27 -6
17 -8 70 -4 138 5 92 3 121 -13 177 -24 83 -73 167 -129 219 -45 41 -55 44
-89 27z"/>
</g>
</svg>
