<?xml version="1.0" standalone="no"?>
<!DOCTYPE svg PUBLIC "-//W3C//DTD SVG 20010904//EN"
 "http://www.w3.org/TR/2001/REC-SVG-20010904/DTD/svg10.dtd">
<svg version="1.0" xmlns="http://www.w3.org/2000/svg"
 width="96.000000pt" height="84.000000pt" viewBox="0 0 96.000000 84.000000"
 preserveAspectRatio="xMidYMid meet">
<metadata>
Created by potrace 1.16, written by Peter Selinger 2001-2019
</metadata>
<g transform="translate(0.000000,84.000000) scale(0.100000,-0.100000)"
fill="#000000" stroke="none">
<path d="M324 736 c-85 -37 -164 -149 -164 -232 0 -34 5 -45 27 -59 21 -14 30
-15 45 -6 16 10 18 8 18 -17 0 -19 11 -39 35 -62 19 -19 35 -30 35 -26 0 5 7
3 15 -4 9 -7 14 -22 13 -34 -1 -11 8 -54 21 -94 19 -61 26 -72 40 -65 21 10
121 10 142 0 12 -6 19 4 32 52 29 105 98 158 196 149 36 -3 36 -3 33 32 -6 63
-24 114 -58 166 -67 101 -145 154 -225 154 -15 0 -32 7 -40 16 -35 42 -107 55
-165 30z"/>
<path d="M670 80 c-17 -72 -8 -80 89 -79 l77 1 -15 33 c-11 22 -35 43 -72 64
-31 17 -59 31 -62 31 -3 0 -10 -23 -17 -50z"/>
</g>
</svg>
