<?xml version="1.0" standalone="no"?>
<!DOCTYPE svg PUBLIC "-//W3C//DTD SVG 20010904//EN"
 "http://www.w3.org/TR/2001/REC-SVG-20010904/DTD/svg10.dtd">
<svg version="1.0" xmlns="http://www.w3.org/2000/svg"
 width="96.000000pt" height="84.000000pt" viewBox="0 0 96.000000 84.000000"
 preserveAspectRatio="xMidYMid meet">
<metadata>
Created by potrace 1.16, written by Peter Selinger 2001-2019
</metadata>
<g transform="translate(0.000000,84.000000) scale(0.100000,-0.100000)"
fill="#000000" stroke="none">
<path d="M318 819 c-21 -11 -38 -23 -38 -28 0 -4 11 -36 26 -70 31 -78 69
-221 85 -323 10 -70 13 -76 30 -68 23 13 95 13 119 0 16 -9 19 -2 30 73 6 45
21 103 32 129 19 44 87 119 118 130 20 6 8 20 -53 62 -39 27 -67 38 -107 43
-37 4 -63 13 -80 28 -56 50 -101 57 -162 24z"/>
<path d="M136 564 c-12 -31 -6 -134 10 -174 15 -38 32 -49 48 -33 10 10 46 14
46 5 0 -5 7 -17 16 -28 15 -18 15 -17 10 15 -10 58 -97 229 -117 231 -4 0 -10
-7 -13 -16z"/>
<path d="M701 472 c-6 -12 -22 -67 -35 -123 l-24 -101 32 -43 c28 -36 34 -54
39 -114 3 -39 9 -76 12 -81 8 -14 145 -13 145 1 0 6 -5 19 -10 30 -8 13 -7 19
0 19 7 0 7 6 0 21 -15 26 -7 34 18 20 36 -19 44 -13 27 19 -9 17 -13 30 -10
30 3 0 -2 15 -11 33 -12 22 -18 64 -21 139 -4 137 -12 158 -57 158 -18 0 -47
3 -64 6 -24 5 -32 2 -41 -14z"/>
<path d="M282 268 c-16 -16 -15 -35 3 -41 19 -8 27 6 17 32 -6 17 -10 19 -20
9z"/>
</g>
</svg>
