<?xml version="1.0" standalone="no"?>
<!DOCTYPE svg PUBLIC "-//W3C//DTD SVG 20010904//EN"
 "http://www.w3.org/TR/2001/REC-SVG-20010904/DTD/svg10.dtd">
<svg version="1.0" xmlns="http://www.w3.org/2000/svg"
 width="96.000000pt" height="84.000000pt" viewBox="0 0 96.000000 84.000000"
 preserveAspectRatio="xMidYMid meet">
<metadata>
Created by potrace 1.16, written by Peter Selinger 2001-2019
</metadata>
<g transform="translate(0.000000,84.000000) scale(0.100000,-0.100000)"
fill="#000000" stroke="none">
<path d="M0 648 c0 -189 0 -191 20 -173 27 24 50 13 50 -25 0 -27 3 -30 20
-25 16 5 25 -2 42 -31 18 -30 23 -34 28 -19 5 14 8 14 16 3 24 -29 23 -48 -3
-79 -27 -31 -27 -32 -7 -48 42 -35 68 -147 50 -218 -5 -24 -4 -33 5 -33 22 0
38 34 39 80 1 65 34 186 63 223 l24 32 -23 125 c-13 69 -42 182 -66 253 l-42
127 -108 0 -108 0 0 -192z"/>
<path d="M354 822 c19 -59 47 -214 57 -317 l13 -120 57 0 58 0 6 85 c9 119 30
192 80 288 l44 82 -160 0 c-148 0 -160 -1 -155 -18z"/>
<path d="M786 802 c-4 -11 -30 -56 -58 -99 -71 -108 -86 -147 -103 -263 -16
-102 -13 -122 19 -149 8 -7 25 -42 37 -78 17 -53 21 -80 16 -140 l-5 -73 119
0 c132 0 159 9 133 45 -18 25 -18 46 0 39 13 -5 15 22 15 183 -1 300 -21 373
-147 532 -19 24 -20 24 -26 3z"/>
</g>
</svg>
