<?xml version="1.0" standalone="no"?>
<!DOCTYPE svg PUBLIC "-//W3C//DTD SVG 20010904//EN"
 "http://www.w3.org/TR/2001/REC-SVG-20010904/DTD/svg10.dtd">
<svg version="1.0" xmlns="http://www.w3.org/2000/svg"
 width="96.000000pt" height="84.000000pt" viewBox="0 0 96.000000 84.000000"
 preserveAspectRatio="xMidYMid meet">
<metadata>
Created by potrace 1.16, written by Peter Selinger 2001-2019
</metadata>
<g transform="translate(0.000000,84.000000) scale(0.100000,-0.100000)"
fill="#000000" stroke="none">
<path d="M0 633 c0 -138 4 -203 10 -193 9 13 10 13 11 0 3 -37 -4 -86 -13 -98
-7 -8 -8 -33 -3 -70 11 -73 12 -198 3 -239 l-7 -33 134 0 135 0 0 54 c0 29 4
66 9 82 5 16 12 41 15 56 3 14 17 40 31 56 l24 29 -15 93 c-16 101 -36 155
-82 222 -37 56 -52 100 -52 159 0 62 7 79 34 79 28 0 90 -64 111 -114 44 -104
74 -245 75 -343 l0 -43 59 0 58 0 7 78 c11 123 50 185 155 253 56 36 131 41
131 9 0 -10 5 -31 12 -45 10 -23 8 -29 -22 -60 -20 -21 -61 -45 -102 -61 -81
-31 -93 -48 -103 -151 -7 -69 -6 -74 19 -104 34 -41 70 -159 63 -210 l-5 -39
134 0 134 0 0 420 0 420 -480 0 -480 0 0 -207z"/>
</g>
</svg>
