<?xml version="1.0" standalone="no"?>
<!DOCTYPE svg PUBLIC "-//W3C//DTD SVG 20010904//EN"
 "http://www.w3.org/TR/2001/REC-SVG-20010904/DTD/svg10.dtd">
<svg version="1.0" xmlns="http://www.w3.org/2000/svg"
 width="96.000000pt" height="84.000000pt" viewBox="0 0 96.000000 84.000000"
 preserveAspectRatio="xMidYMid meet">
<metadata>
Created by potrace 1.16, written by Peter Selinger 2001-2019
</metadata>
<g transform="translate(0.000000,84.000000) scale(0.100000,-0.100000)"
fill="#000000" stroke="none">
<path d="M0 420 l0 -420 128 0 127 0 18 93 c12 65 26 104 46 132 l28 40 -21
105 -21 105 -50 0 -50 0 -3 51 c-3 46 0 54 24 73 33 26 47 26 100 2 53 -24 69
-60 84 -186 l12 -100 63 -1 63 0 7 70 c4 39 13 85 20 103 44 104 236 28 261
-103 11 -61 1 -68 -54 -40 -27 14 -69 40 -94 59 l-46 35 -5 -26 c-3 -15 -9
-55 -13 -90 -6 -57 -4 -66 20 -102 36 -54 56 -116 56 -172 l0 -48 130 0 130 0
0 420 0 420 -480 0 -480 0 0 -420z"/>
</g>
</svg>
