<?xml version="1.0" standalone="no"?>
<!DOCTYPE svg PUBLIC "-//W3C//DTD SVG 20010904//EN"
 "http://www.w3.org/TR/2001/REC-SVG-20010904/DTD/svg10.dtd">
<svg version="1.0" xmlns="http://www.w3.org/2000/svg"
 width="96.000000pt" height="84.000000pt" viewBox="0 0 96.000000 84.000000"
 preserveAspectRatio="xMidYMid meet">
<metadata>
Created by potrace 1.16, written by Peter Selinger 2001-2019
</metadata>
<g transform="translate(0.000000,84.000000) scale(0.100000,-0.100000)"
fill="#000000" stroke="none">
<path d="M0 420 l0 -420 129 0 129 0 5 53 c10 89 23 135 51 177 31 46 31 53
10 156 -23 110 -35 129 -104 164 -37 18 -65 41 -74 58 -43 83 -21 151 45 138
50 -9 93 -39 138 -96 46 -58 66 -117 82 -239 l11 -86 63 0 63 0 6 80 c8 90 28
139 69 169 23 17 43 21 102 21 68 0 76 -2 105 -30 37 -35 53 -70 45 -96 -8
-24 -32 -24 -134 2 -45 11 -85 18 -88 16 -3 -3 -12 -53 -21 -111 l-16 -106 31
-42 c34 -48 65 -158 56 -201 l-5 -27 131 0 131 0 0 420 0 420 -480 0 -480 0 0
-420z"/>
</g>
</svg>
