<?xml version="1.0" standalone="no"?>
<!DOCTYPE svg PUBLIC "-//W3C//DTD SVG 20010904//EN"
 "http://www.w3.org/TR/2001/REC-SVG-20010904/DTD/svg10.dtd">
<svg version="1.0" xmlns="http://www.w3.org/2000/svg"
 width="96.000000pt" height="84.000000pt" viewBox="0 0 96.000000 84.000000"
 preserveAspectRatio="xMidYMid meet">
<metadata>
Created by potrace 1.16, written by Peter Selinger 2001-2019
</metadata>
<g transform="translate(0.000000,84.000000) scale(0.100000,-0.100000)"
fill="#000000" stroke="none">
<path d="M0 420 l0 -420 128 0 129 0 13 87 c13 94 27 132 61 175 21 25 21 30
10 110 -17 115 -36 179 -87 282 -24 49 -47 111 -50 137 l-7 49 -98 0 -99 0 0
-420z"/>
<path d="M345 823 c44 -100 73 -238 83 -383 l7 -103 56 -2 57 -3 7 67 c11 115
30 163 80 210 88 81 204 114 256 72 21 -17 22 -21 11 -43 -18 -33 -85 -75
-150 -94 -89 -26 -101 -43 -118 -162 l-14 -104 30 -41 c38 -54 63 -139 57
-194 l-5 -43 129 0 129 0 0 420 0 420 -311 0 c-293 0 -311 -1 -304 -17z"/>
</g>
</svg>
