<?xml version="1.0" standalone="no"?>
<!DOCTYPE svg PUBLIC "-//W3C//DTD SVG 20010904//EN"
 "http://www.w3.org/TR/2001/REC-SVG-20010904/DTD/svg10.dtd">
<svg version="1.0" xmlns="http://www.w3.org/2000/svg"
 width="96.000000pt" height="84.000000pt" viewBox="0 0 96.000000 84.000000"
 preserveAspectRatio="xMidYMid meet">
<metadata>
Created by potrace 1.16, written by Peter Selinger 2001-2019
</metadata>
<g transform="translate(0.000000,84.000000) scale(0.100000,-0.100000)"
fill="#000000" stroke="none">
<path d="M0 420 l0 -421 158 3 157 3 7 67 c7 62 6 70 -17 104 -14 20 -25 49
-25 63 0 37 51 140 90 181 l33 35 -12 97 c-11 89 -36 196 -60 261 l-11 27
-160 0 -160 0 0 -420z"/>
<path d="M464 798 c3 -24 8 -88 11 -143 3 -55 8 -119 11 -142 l5 -43 43 0 43
0 12 88 c16 131 34 172 96 231 l54 51 -141 0 -140 0 6 -42z"/>
<path d="M918 737 c-20 -18 -62 -41 -95 -51 -129 -39 -132 -41 -157 -178 l-17
-87 35 -48 c49 -69 69 -148 70 -270 l0 -103 103 0 103 0 0 385 c0 212 -1 385
-2 385 -2 -1 -20 -15 -40 -33z"/>
</g>
</svg>
