<?xml version="1.0" standalone="no"?>
<!DOCTYPE svg PUBLIC "-//W3C//DTD SVG 20010904//EN"
 "http://www.w3.org/TR/2001/REC-SVG-20010904/DTD/svg10.dtd">
<svg version="1.0" xmlns="http://www.w3.org/2000/svg"
 width="96.000000pt" height="84.000000pt" viewBox="0 0 96.000000 84.000000"
 preserveAspectRatio="xMidYMid meet">
<metadata>
Created by potrace 1.16, written by Peter Selinger 2001-2019
</metadata>
<g transform="translate(0.000000,84.000000) scale(0.100000,-0.100000)"
fill="#000000" stroke="none">
<path d="M0 420 l0 -420 175 0 c202 0 179 -15 193 129 7 70 6 89 -8 117 -13
24 -14 36 -6 44 8 8 6 14 -9 23 -11 6 -22 10 -25 10 -9 -3 -29 42 -30 65 0 13
-4 21 -9 17 -14 -8 8 63 36 118 14 29 38 56 58 68 l34 20 -16 37 c-28 69 -56
104 -116 148 l-59 44 -109 0 -109 0 0 -420z"/>
<path d="M400 804 c12 -19 33 -64 45 -100 21 -60 45 -104 32 -59 -3 11 -11 49
-17 85 -18 112 -17 110 -51 110 l-31 0 22 -36z"/>
<path d="M560 735 l0 -105 33 -14 c57 -24 124 -92 141 -144 23 -70 36 -173 36
-298 0 -61 3 -126 6 -143 l7 -31 88 0 89 0 0 420 0 420 -200 0 -200 0 0 -105z"/>
<path d="M442 159 c-21 -8 -40 -35 -31 -44 2 -2 17 8 33 21 32 28 32 36 -2 23z"/>
</g>
</svg>
