<?xml version="1.0" standalone="no"?>
<!DOCTYPE svg PUBLIC "-//W3C//DTD SVG 20010904//EN"
 "http://www.w3.org/TR/2001/REC-SVG-20010904/DTD/svg10.dtd">
<svg version="1.0" xmlns="http://www.w3.org/2000/svg"
 width="96.000000pt" height="84.000000pt" viewBox="0 0 96.000000 84.000000"
 preserveAspectRatio="xMidYMid meet">
<metadata>
Created by potrace 1.16, written by Peter Selinger 2001-2019
</metadata>
<g transform="translate(0.000000,84.000000) scale(0.100000,-0.100000)"
fill="#000000" stroke="none">
<path d="M0 420 l0 -420 174 0 174 0 12 34 c6 19 18 40 27 47 46 39 44 103 -6
178 -35 53 -36 59 -23 79 14 21 13 22 -11 22 -30 0 -42 14 -62 69 -13 39 -13
46 6 96 19 51 43 79 98 115 23 15 23 17 7 47 -16 32 -74 83 -93 83 -6 0 -34
16 -63 35 -50 34 -55 35 -146 35 l-94 0 0 -420z"/>
<path d="M370 836 c0 -2 7 -9 15 -16 13 -11 14 -10 9 4 -5 14 -24 23 -24 12z"/>
<path d="M484 823 c3 -10 10 -48 17 -85 10 -61 13 -68 34 -68 59 0 147 -61
171 -119 23 -53 50 -171 69 -296 10 -60 30 -141 45 -180 l28 -70 56 -3 56 -3
0 421 0 420 -241 0 c-224 0 -240 -1 -235 -17z"/>
</g>
</svg>
