<?xml version="1.0" standalone="no"?>
<!DOCTYPE svg PUBLIC "-//W3C//DTD SVG 20010904//EN"
 "http://www.w3.org/TR/2001/REC-SVG-20010904/DTD/svg10.dtd">
<svg version="1.0" xmlns="http://www.w3.org/2000/svg"
 width="96.000000pt" height="84.000000pt" viewBox="0 0 96.000000 84.000000"
 preserveAspectRatio="xMidYMid meet">
<metadata>
Created by potrace 1.16, written by Peter Selinger 2001-2019
</metadata>
<g transform="translate(0.000000,84.000000) scale(0.100000,-0.100000)"
fill="#000000" stroke="none">
<path d="M0 420 l0 -420 168 0 169 0 16 38 c9 20 21 53 26 72 5 19 21 62 35
95 31 74 33 131 5 185 -17 33 -19 43 -9 55 7 8 9 16 4 16 -5 1 -15 2 -22 3 -8
0 -20 15 -27 31 -10 25 -10 36 2 65 17 42 41 70 71 81 22 8 22 10 7 46 -21 50
-29 57 -89 91 -28 17 -58 37 -65 46 -11 13 -37 16 -152 16 l-139 0 0 -420z"/>
<path d="M510 814 c6 -14 10 -40 10 -58 0 -69 10 -92 46 -105 73 -26 103 -112
104 -289 0 -45 10 -112 25 -171 13 -54 26 -119 27 -144 l3 -47 118 0 117 0 0
420 0 420 -230 0 -230 0 10 -26z"/>
</g>
</svg>
