<?xml version="1.0" standalone="no"?>
<!DOCTYPE svg PUBLIC "-//W3C//DTD SVG 20010904//EN"
 "http://www.w3.org/TR/2001/REC-SVG-20010904/DTD/svg10.dtd">
<svg version="1.0" xmlns="http://www.w3.org/2000/svg"
 width="96.000000pt" height="84.000000pt" viewBox="0 0 96.000000 84.000000"
 preserveAspectRatio="xMidYMid meet">
<metadata>
Created by potrace 1.16, written by Peter Selinger 2001-2019
</metadata>
<g transform="translate(0.000000,84.000000) scale(0.100000,-0.100000)"
fill="#000000" stroke="none">
<path d="M0 420 l0 -420 164 0 163 0 12 58 c7 34 27 82 51 120 22 34 47 91 57
126 16 62 16 66 -3 107 -10 24 -19 47 -19 52 0 4 -5 11 -12 15 -22 14 -25 59
-8 96 10 20 20 36 24 36 3 0 12 4 19 9 27 16 -14 70 -71 96 -85 37 -112 85
-49 85 39 0 102 -40 130 -80 l24 -35 -7 35 c-4 19 -16 42 -27 51 -16 12 -19
23 -14 43 l6 26 -220 0 -220 0 0 -420z"/>
<path d="M506 814 c10 -15 19 -54 22 -97 4 -69 6 -73 35 -87 54 -27 66 -54 77
-180 6 -63 22 -161 36 -218 25 -100 26 -115 8 -204 l-6 -28 141 0 141 0 0 420
0 420 -235 0 -235 0 16 -26z"/>
</g>
</svg>
