<?xml version="1.0" standalone="no"?>
<!DOCTYPE svg PUBLIC "-//W3C//DTD SVG 20010904//EN"
 "http://www.w3.org/TR/2001/REC-SVG-20010904/DTD/svg10.dtd">
<svg version="1.0" xmlns="http://www.w3.org/2000/svg"
 width="96.000000pt" height="84.000000pt" viewBox="0 0 96.000000 84.000000"
 preserveAspectRatio="xMidYMid meet">
<metadata>
Created by potrace 1.16, written by Peter Selinger 2001-2019
</metadata>
<g transform="translate(0.000000,84.000000) scale(0.100000,-0.100000)"
fill="#000000" stroke="none">
<path d="M0 420 l0 -420 209 0 208 0 7 53 c3 28 6 72 6 97 l-1 45 -20 -27
c-27 -36 -43 -35 -70 5 -12 17 -29 38 -38 45 -15 12 -19 70 -6 91 11 19 43 12
64 -16 21 -25 22 -26 35 -7 8 10 27 42 41 71 26 48 26 53 11 74 -9 13 -16 31
-16 40 0 9 -7 22 -15 29 -24 20 -18 56 16 95 35 40 30 59 -21 70 -35 8 -82 43
-75 56 9 14 56 11 88 -5 15 -8 27 -11 27 -5 0 5 -16 17 -35 26 -39 18 -51 39
-34 59 18 22 36 17 75 -18 30 -28 36 -41 41 -90 5 -49 9 -58 25 -58 11 0 32
-13 48 -28 25 -25 29 -38 35 -118 3 -49 17 -123 30 -164 54 -166 56 -179 49
-251 l-7 -69 142 0 141 0 0 420 0 420 -480 0 -480 0 0 -420z"/>
</g>
</svg>
