<?xml version="1.0" standalone="no"?>
<!DOCTYPE svg PUBLIC "-//W3C//DTD SVG 20010904//EN"
 "http://www.w3.org/TR/2001/REC-SVG-20010904/DTD/svg10.dtd">
<svg version="1.0" xmlns="http://www.w3.org/2000/svg"
 width="96.000000pt" height="84.000000pt" viewBox="0 0 96.000000 84.000000"
 preserveAspectRatio="xMidYMid meet">
<metadata>
Created by potrace 1.16, written by Peter Selinger 2001-2019
</metadata>
<g transform="translate(0.000000,84.000000) scale(0.100000,-0.100000)"
fill="#000000" stroke="none">
<path d="M0 420 l0 -420 230 0 c127 0 230 3 230 8 0 4 -7 29 -15 56 -8 27 -15
65 -15 85 -1 34 -1 35 -16 16 -11 -14 -14 -32 -9 -60 l6 -40 -21 21 c-12 12
-24 39 -27 61 -4 33 2 54 42 132 l47 94 -38 -32 c-57 -46 -63 -38 -10 14 39
37 46 50 46 82 1 58 16 113 39 137 13 14 21 36 21 58 0 47 8 68 27 68 12 0 14
-9 8 -49 -8 -61 6 -73 33 -27 24 41 66 71 87 62 24 -9 17 -25 -20 -47 -49 -29
-59 -51 -44 -94 10 -27 10 -38 1 -47 -17 -17 -15 -44 4 -73 15 -23 15 -27 0
-50 -9 -14 -21 -25 -27 -25 -6 0 -9 -10 -8 -22 1 -13 -1 -36 -4 -53 -4 -16 -2
-46 4 -65 22 -72 38 -146 39 -177 l0 -33 175 0 175 0 0 420 0 420 -480 0 -480
0 0 -420z"/>
</g>
</svg>
