<?xml version="1.0" standalone="no"?>
<!DOCTYPE svg PUBLIC "-//W3C//DTD SVG 20010904//EN"
 "http://www.w3.org/TR/2001/REC-SVG-20010904/DTD/svg10.dtd">
<svg version="1.0" xmlns="http://www.w3.org/2000/svg"
 width="96.000000pt" height="84.000000pt" viewBox="0 0 96.000000 84.000000"
 preserveAspectRatio="xMidYMid meet">
<metadata>
Created by potrace 1.16, written by Peter Selinger 2001-2019
</metadata>
<g transform="translate(0.000000,84.000000) scale(0.100000,-0.100000)"
fill="#000000" stroke="none">
<path d="M0 420 l0 -420 250 0 250 0 0 23 c0 35 -15 51 -35 39 -10 -5 -27 -7
-38 -4 -18 5 -19 11 -13 96 4 50 3 105 -3 123 -8 29 -6 37 25 77 31 41 34 50
34 115 0 58 4 75 20 91 11 11 20 33 20 49 0 34 33 76 67 86 34 10 29 -20 -7
-47 -36 -26 -39 -59 -7 -73 20 -9 22 -16 19 -72 -1 -34 2 -64 7 -67 5 -4 21
-1 35 5 l26 12 -22 39 c-42 75 18 63 66 -13 22 -34 12 -55 -36 -80 l-39 -20
22 -35 c25 -42 20 -56 -9 -20 l-20 26 -12 -45 c-16 -55 -8 -85 30 -124 30 -29
30 -30 10 -41 -17 -9 -20 -21 -20 -75 l0 -65 170 0 170 0 0 420 0 420 -480 0
-480 0 0 -420z"/>
<path d="M551 53 c0 -10 4 -27 9 -38 7 -17 9 -15 9 12 1 17 -3 35 -9 38 -5 3
-10 -2 -9 -12z"/>
</g>
</svg>
