<?xml version="1.0" standalone="no"?>
<!DOCTYPE svg PUBLIC "-//W3C//DTD SVG 20010904//EN"
 "http://www.w3.org/TR/2001/REC-SVG-20010904/DTD/svg10.dtd">
<svg version="1.0" xmlns="http://www.w3.org/2000/svg"
 width="96.000000pt" height="84.000000pt" viewBox="0 0 96.000000 84.000000"
 preserveAspectRatio="xMidYMid meet">
<metadata>
Created by potrace 1.16, written by Peter Selinger 2001-2019
</metadata>
<g transform="translate(0.000000,84.000000) scale(0.100000,-0.100000)"
fill="#000000" stroke="none">
<path d="M0 420 l0 -420 285 0 285 0 0 66 c0 59 -2 65 -17 59 -43 -18 -61 -17
-77 6 -22 33 -20 74 10 165 38 117 55 249 38 291 -19 44 -18 83 1 83 9 0 15
-9 15 -24 0 -34 17 -76 31 -76 6 0 8 11 4 28 -6 31 25 82 51 82 19 0 18 -7 -6
-37 -26 -33 -25 -48 4 -105 l24 -47 16 39 c18 46 33 51 42 16 8 -35 -13 -92
-43 -114 -23 -17 -24 -20 -13 -61 6 -23 14 -49 17 -58 4 -10 2 -14 -4 -10 -6
4 -8 -11 -5 -43 2 -28 0 -56 -6 -63 -7 -8 -7 -18 -2 -27 6 -9 3 -18 -7 -25
-12 -9 -14 -24 -8 -78 l7 -67 159 0 159 0 0 420 0 420 -480 0 -480 0 0 -420z"/>
</g>
</svg>
