<?xml version="1.0" standalone="no"?>
<!DOCTYPE svg PUBLIC "-//W3C//DTD SVG 20010904//EN"
 "http://www.w3.org/TR/2001/REC-SVG-20010904/DTD/svg10.dtd">
<svg version="1.0" xmlns="http://www.w3.org/2000/svg"
 width="96.000000pt" height="84.000000pt" viewBox="0 0 96.000000 84.000000"
 preserveAspectRatio="xMidYMid meet">
<metadata>
Created by potrace 1.16, written by Peter Selinger 2001-2019
</metadata>
<g transform="translate(0.000000,84.000000) scale(0.100000,-0.100000)"
fill="#000000" stroke="none">
<path d="M0 420 l0 -420 290 0 290 0 5 22 c20 84 23 124 11 138 -22 25 -25 46
-14 91 6 24 12 55 13 69 1 14 6 38 10 54 5 19 4 27 -2 23 -6 -4 -14 -22 -17
-40 -3 -19 -13 -42 -21 -53 -13 -17 -13 -14 0 25 21 62 19 85 -10 101 -46 25
-41 71 13 117 l27 22 -17 45 c-10 27 -13 48 -7 51 14 9 26 -2 34 -32 3 -14 13
-36 21 -47 13 -20 14 -19 14 11 0 38 33 83 50 67 8 -8 7 -14 -5 -24 -19 -15
-20 -77 -1 -95 8 -8 16 -50 20 -101 4 -48 12 -97 18 -108 16 -29 17 -186 2
-186 -8 0 -13 -24 -16 -75 l-3 -75 128 0 127 0 0 420 0 420 -480 0 -480 0 0
-420z"/>
<path d="M575 489 c-10 -15 3 -25 16 -12 7 7 7 13 1 17 -6 3 -14 1 -17 -5z"/>
<path d="M638 52 c-15 -50 -15 -52 2 -52 26 0 28 8 21 59 l-6 45 -17 -52z"/>
</g>
</svg>
