<?xml version="1.0" standalone="no"?>
<!DOCTYPE svg PUBLIC "-//W3C//DTD SVG 20010904//EN"
 "http://www.w3.org/TR/2001/REC-SVG-20010904/DTD/svg10.dtd">
<svg version="1.0" xmlns="http://www.w3.org/2000/svg"
 width="96.000000pt" height="84.000000pt" viewBox="0 0 96.000000 84.000000"
 preserveAspectRatio="xMidYMid meet">
<metadata>
Created by potrace 1.16, written by Peter Selinger 2001-2019
</metadata>
<g transform="translate(0.000000,84.000000) scale(0.100000,-0.100000)"
fill="#000000" stroke="none">
<path d="M0 420 l0 -420 309 0 309 0 16 71 c20 88 20 89 0 89 -9 0 -14 3 -12
8 32 65 48 123 47 168 l-1 39 -18 -50 c-20 -53 -26 -36 -10 30 10 45 6 50 -49
60 -52 10 -128 61 -133 90 -3 13 -2 22 3 20 4 -3 11 0 14 6 5 7 12 3 21 -9 20
-28 72 -58 116 -66 43 -8 56 5 37 40 -10 20 -10 28 1 49 12 22 10 29 -15 65
-15 22 -25 43 -22 46 12 13 37 -6 56 -43 19 -36 20 -37 21 -11 0 37 10 58 26
58 14 0 13 -22 -2 -70 -3 -8 5 -21 16 -30 17 -13 24 -33 30 -93 5 -43 16 -87
24 -98 9 -13 12 -34 9 -54 -3 -18 0 -57 6 -86 11 -49 10 -55 -8 -70 -14 -12
-21 -34 -27 -87 l-7 -72 102 0 101 0 0 420 0 420 -480 0 -480 0 0 -420z"/>
<path d="M699 113 c-17 -43 -39 -105 -39 -109 0 -2 14 -4 30 -4 l30 0 0 70 c0
39 -2 70 -5 70 -3 0 -10 -12 -16 -27z"/>
</g>
</svg>
