<?xml version="1.0" standalone="no"?>
<!DOCTYPE svg PUBLIC "-//W3C//DTD SVG 20010904//EN"
 "http://www.w3.org/TR/2001/REC-SVG-20010904/DTD/svg10.dtd">
<svg version="1.0" xmlns="http://www.w3.org/2000/svg"
 width="96.000000pt" height="84.000000pt" viewBox="0 0 96.000000 84.000000"
 preserveAspectRatio="xMidYMid meet">
<metadata>
Created by potrace 1.16, written by Peter Selinger 2001-2019
</metadata>
<g transform="translate(0.000000,84.000000) scale(0.100000,-0.100000)"
fill="#000000" stroke="none">
<path d="M0 420 l0 -420 323 0 323 0 17 71 c11 45 14 76 8 83 -6 7 -4 31 6 66
20 70 28 159 15 172 -5 5 -54 13 -107 18 -98 8 -125 20 -102 45 7 7 15 11 19
9 4 -3 50 -7 103 -10 102 -5 111 0 83 45 -9 15 -9 26 1 48 12 26 11 29 -26 60
l-38 33 28 0 c20 0 32 -8 47 -32 11 -18 20 -27 20 -20 0 8 -8 27 -17 43 -9 15
-13 32 -9 36 12 12 46 -36 46 -64 0 -15 10 -33 24 -44 19 -15 26 -32 31 -77 3
-31 12 -75 20 -97 18 -55 38 -183 33 -220 -2 -22 -9 -31 -25 -33 -14 -2 -23
-10 -23 -21 0 -10 -3 -39 -6 -65 l-7 -46 87 0 86 0 0 420 0 420 -480 0 -480 0
0 -420z"/>
<path d="M732 120 c-6 -14 -20 -46 -31 -73 l-20 -47 34 0 c19 0 36 3 38 8 3 4
2 36 -2 72 -7 59 -8 63 -19 40z"/>
</g>
</svg>
