<?xml version="1.0" standalone="no"?>
<!DOCTYPE svg PUBLIC "-//W3C//DTD SVG 20010904//EN"
 "http://www.w3.org/TR/2001/REC-SVG-20010904/DTD/svg10.dtd">
<svg version="1.0" xmlns="http://www.w3.org/2000/svg"
 width="96.000000pt" height="84.000000pt" viewBox="0 0 96.000000 84.000000"
 preserveAspectRatio="xMidYMid meet">
<metadata>
Created by potrace 1.16, written by Peter Selinger 2001-2019
</metadata>
<g transform="translate(0.000000,84.000000) scale(0.100000,-0.100000)"
fill="#000000" stroke="none">
<path d="M0 420 l0 -420 334 0 333 0 17 71 c13 50 15 74 7 83 -7 8 -7 23 -2
42 5 16 15 46 21 67 12 39 16 124 6 134 -2 3 -51 9 -107 13 -102 8 -129 20
-106 45 7 7 15 11 19 9 4 -3 50 -7 103 -10 102 -5 111 0 83 45 -9 15 -9 26 0
45 14 32 8 49 -24 66 -26 14 -32 30 -11 30 17 0 42 -20 55 -45 6 -11 12 -15
12 -9 0 6 -9 23 -20 37 -24 30 -25 37 -6 37 18 0 46 -38 46 -63 0 -10 11 -28
25 -40 19 -17 27 -37 34 -87 5 -36 14 -78 21 -95 14 -37 25 -183 16 -219 -3
-14 -13 -26 -21 -26 -8 0 -15 -8 -15 -19 0 -10 -3 -39 -6 -65 l-7 -46 77 0 76
0 0 420 0 420 -480 0 -480 0 0 -420z"/>
<path d="M751 119 c-5 -13 -16 -41 -25 -63 -22 -53 -21 -56 19 -56 l34 0 -6
67 c-7 79 -9 84 -22 52z"/>
</g>
</svg>
