<?xml version="1.0" standalone="no"?>
<!DOCTYPE svg PUBLIC "-//W3C//DTD SVG 20010904//EN"
 "http://www.w3.org/TR/2001/REC-SVG-20010904/DTD/svg10.dtd">
<svg version="1.0" xmlns="http://www.w3.org/2000/svg"
 width="96.000000pt" height="84.000000pt" viewBox="0 0 96.000000 84.000000"
 preserveAspectRatio="xMidYMid meet">
<metadata>
Created by potrace 1.16, written by Peter Selinger 2001-2019
</metadata>
<g transform="translate(0.000000,84.000000) scale(0.100000,-0.100000)"
fill="#000000" stroke="none">
<path d="M0 420 l0 -420 340 0 339 0 21 72 c19 62 20 72 7 80 -13 7 -14 13 -2
46 37 108 45 161 26 190 -5 9 -43 17 -105 22 -96 8 -141 24 -114 42 7 4 59 5
115 3 110 -6 120 -1 91 44 -9 15 -8 24 6 45 16 26 16 27 -10 51 -15 14 -31 25
-35 25 -5 0 -9 5 -9 10 0 18 31 10 55 -15 14 -13 25 -20 25 -15 0 5 -9 18 -21
29 -14 13 -17 21 -9 26 16 10 50 -24 50 -49 0 -12 14 -33 30 -48 25 -21 30
-34 30 -70 1 -23 8 -65 18 -93 11 -31 18 -89 20 -152 3 -86 1 -103 -13 -110
-12 -7 -18 -29 -22 -71 l-6 -62 67 0 66 0 0 420 0 420 -480 0 -480 0 0 -420z"/>
<path d="M767 123 c-2 -10 -14 -42 -26 -70 l-21 -53 35 0 35 0 0 70 c0 66 -11
92 -23 53z"/>
</g>
</svg>
