<?xml version="1.0" standalone="no"?>
<!DOCTYPE svg PUBLIC "-//W3C//DTD SVG 20010904//EN"
 "http://www.w3.org/TR/2001/REC-SVG-20010904/DTD/svg10.dtd">
<svg version="1.0" xmlns="http://www.w3.org/2000/svg"
 width="96.000000pt" height="84.000000pt" viewBox="0 0 96.000000 84.000000"
 preserveAspectRatio="xMidYMid meet">
<metadata>
Created by potrace 1.16, written by Peter Selinger 2001-2019
</metadata>
<g transform="translate(0.000000,84.000000) scale(0.100000,-0.100000)"
fill="#000000" stroke="none">
<path d="M0 420 l0 -420 345 0 344 0 21 72 c19 62 20 72 7 80 -13 7 -14 13 -2
46 37 108 45 161 26 190 -5 9 -43 17 -105 22 -96 8 -141 24 -114 41 7 5 59 6
115 3 110 -4 119 0 91 45 -9 15 -8 24 6 45 17 26 16 27 -21 62 -35 33 -36 35
-13 32 14 -2 34 -17 48 -38 20 -29 23 -30 17 -10 -4 14 -14 33 -23 43 -17 19
-11 32 12 24 8 -3 19 -23 25 -44 6 -21 20 -45 31 -53 15 -11 24 -34 30 -82 5
-36 15 -79 21 -94 6 -16 13 -71 16 -122 4 -76 2 -97 -12 -118 -9 -15 -20 -53
-22 -85 l-6 -59 62 0 61 0 0 420 0 420 -480 0 -480 0 0 -420z"/>
<path d="M759 78 c-13 -35 -25 -66 -27 -70 -2 -5 12 -8 32 -8 l36 0 0 70 c0
39 -4 70 -9 70 -4 0 -19 -28 -32 -62z"/>
</g>
</svg>
