<?xml version="1.0" standalone="no"?>
<!DOCTYPE svg PUBLIC "-//W3C//DTD SVG 20010904//EN"
 "http://www.w3.org/TR/2001/REC-SVG-20010904/DTD/svg10.dtd">
<svg version="1.0" xmlns="http://www.w3.org/2000/svg"
 width="96.000000pt" height="84.000000pt" viewBox="0 0 96.000000 84.000000"
 preserveAspectRatio="xMidYMid meet">
<metadata>
Created by potrace 1.16, written by Peter Selinger 2001-2019
</metadata>
<g transform="translate(0.000000,84.000000) scale(0.100000,-0.100000)"
fill="#000000" stroke="none">
<path d="M0 420 l0 -420 353 0 354 0 20 73 c17 61 17 74 6 82 -11 8 -12 17 -5
35 27 70 42 142 36 174 -7 39 -4 38 -152 50 -70 6 -109 29 -70 41 11 4 65 4
120 0 86 -6 98 -5 98 9 0 9 -5 25 -12 35 -9 15 -9 26 1 48 12 26 11 29 -26 60
-32 28 -35 33 -17 33 12 0 34 -10 50 -22 l29 -23 -17 27 c-22 33 -22 38 -3 38
17 0 35 -30 35 -60 0 -12 11 -31 24 -41 18 -14 27 -33 31 -67 3 -26 13 -72 21
-103 23 -80 24 -231 2 -255 -9 -11 -19 -45 -23 -77 l-7 -57 56 0 56 0 0 420 0
420 -480 0 -480 0 0 -420z m505 30 c-3 -5 -17 -10 -30 -10 -13 0 -27 5 -30 10
-4 6 8 10 30 10 22 0 34 -4 30 -10z"/>
<path d="M795 125 c-19 -47 -45 -116 -45 -120 0 -3 16 -5 35 -5 35 0 35 0 34
43 -1 23 -5 56 -9 72 -6 27 -8 28 -15 10z"/>
</g>
</svg>
