<?xml version="1.0" standalone="no"?>
<!DOCTYPE svg PUBLIC "-//W3C//DTD SVG 20010904//EN"
 "http://www.w3.org/TR/2001/REC-SVG-20010904/DTD/svg10.dtd">
<svg version="1.0" xmlns="http://www.w3.org/2000/svg"
 width="96.000000pt" height="84.000000pt" viewBox="0 0 96.000000 84.000000"
 preserveAspectRatio="xMidYMid meet">
<metadata>
Created by potrace 1.16, written by Peter Selinger 2001-2019
</metadata>
<g transform="translate(0.000000,84.000000) scale(0.100000,-0.100000)"
fill="#000000" stroke="none">
<path d="M0 420 l0 -420 409 0 409 0 10 28 c6 15 17 48 26 74 14 45 14 49 -3
58 -18 9 -18 11 0 47 10 21 22 73 27 116 l8 77 -55 0 c-72 0 -171 37 -171 64
0 11 47 6 90 -9 57 -20 140 -11 140 15 0 10 -6 20 -12 23 -10 3 -10 11 -1 37
15 40 11 48 -34 66 -33 14 -37 38 -5 32 10 -2 22 3 29 12 10 13 13 13 31 -3
11 -10 23 -29 26 -42 3 -12 13 -25 21 -29 13 -5 15 14 15 134 l0 140 -480 0
-480 0 0 -420z m610 30 c0 -14 -397 -14 -405 0 -4 7 65 10 199 10 131 0 206
-4 206 -10z"/>
<path d="M870 616 c0 -2 7 -9 15 -16 9 -7 15 -8 15 -2 0 5 -7 12 -15 16 -8 3
-15 4 -15 2z"/>
<path d="M890 73 c-14 -31 -26 -60 -28 -65 -2 -4 12 -8 32 -8 l36 0 0 65 c0
36 -3 65 -7 65 -5 0 -19 -26 -33 -57z"/>
</g>
</svg>
