<?xml version="1.0" standalone="no"?>
<!DOCTYPE svg PUBLIC "-//W3C//DTD SVG 20010904//EN"
 "http://www.w3.org/TR/2001/REC-SVG-20010904/DTD/svg10.dtd">
<svg version="1.0" xmlns="http://www.w3.org/2000/svg"
 width="96.000000pt" height="84.000000pt" viewBox="0 0 96.000000 84.000000"
 preserveAspectRatio="xMidYMid meet">
<metadata>
Created by potrace 1.16, written by Peter Selinger 2001-2019
</metadata>
<g transform="translate(0.000000,84.000000) scale(0.100000,-0.100000)"
fill="#000000" stroke="none">
<path d="M0 650 l0 -190 355 0 c230 0 355 -4 355 -10 0 -6 -125 -10 -355 -10
l-355 0 0 -46 c0 -30 8 -60 24 -87 39 -67 49 -120 32 -162 -16 -38 -36 -47
-36 -15 0 11 -4 20 -10 20 -6 0 -10 -32 -10 -75 l0 -75 460 0 459 0 19 68 c14
48 20 104 22 201 l2 133 -40 -7 c-29 -5 -43 -2 -55 9 -17 17 -44 122 -34 132
15 15 35 -7 41 -46 7 -44 22 -56 61 -46 24 6 25 9 25 87 0 56 -5 87 -16 104
-15 23 -15 25 0 25 14 0 16 14 16 90 l0 90 -480 0 -480 0 0 -190z"/>
</g>
</svg>
