<?xml version="1.0" standalone="no"?>
<!DOCTYPE svg PUBLIC "-//W3C//DTD SVG 20010904//EN"
 "http://www.w3.org/TR/2001/REC-SVG-20010904/DTD/svg10.dtd">
<svg version="1.0" xmlns="http://www.w3.org/2000/svg"
 width="96.000000pt" height="84.000000pt" viewBox="0 0 96.000000 84.000000"
 preserveAspectRatio="xMidYMid meet">
<metadata>
Created by potrace 1.16, written by Peter Selinger 2001-2019
</metadata>
<g transform="translate(0.000000,84.000000) scale(0.100000,-0.100000)"
fill="#000000" stroke="none">
<path d="M0 817 c0 -13 5 -28 12 -35 9 -9 9 -12 0 -12 -7 0 -12 -13 -12 -31 0
-31 19 -59 41 -59 7 0 10 -3 6 -6 -6 -7 26 -51 116 -156 l49 -58 280 0 c183 0
277 -3 273 -10 -4 -6 -107 -10 -275 -10 l-269 0 24 -42 c26 -46 31 -87 15
-119 -16 -29 -27 -23 -34 19 -3 20 -17 61 -30 90 l-25 52 -56 0 c-64 0 -68 -9
-26 -61 31 -38 34 -46 32 -97 -1 -40 -31 -54 -85 -42 l-36 8 0 -124 0 -124
480 0 480 0 0 420 0 420 -480 0 -480 0 0 -23z"/>
<path d="M14 596 c4 -18 2 -44 -2 -57 -7 -19 -4 -29 19 -52 25 -24 35 -28 75
-25 l47 3 -62 83 c-66 89 -87 102 -77 48z"/>
</g>
</svg>
