<?xml version="1.0" standalone="no"?>
<!DOCTYPE svg PUBLIC "-//W3C//DTD SVG 20010904//EN"
 "http://www.w3.org/TR/2001/REC-SVG-20010904/DTD/svg10.dtd">
<svg version="1.0" xmlns="http://www.w3.org/2000/svg"
 width="96.000000pt" height="84.000000pt" viewBox="0 0 96.000000 84.000000"
 preserveAspectRatio="xMidYMid meet">
<metadata>
Created by potrace 1.16, written by Peter Selinger 2001-2019
</metadata>
<g transform="translate(0.000000,84.000000) scale(0.100000,-0.100000)"
fill="#000000" stroke="none">
<path d="M110 834 c0 -3 5 -14 10 -24 10 -18 8 -19 -20 -14 -33 7 -40 -6 -14
-27 12 -10 20 -10 34 -1 15 9 25 8 47 -3 15 -8 24 -15 20 -15 -5 0 36 -48 90
-107 54 -60 109 -125 122 -145 l23 -38 199 0 c126 0 199 -4 199 -10 0 -6 -73
-10 -200 -10 -186 0 -200 -1 -200 -18 0 -10 -6 -27 -14 -37 -12 -17 -14 -15
-20 18 l-7 37 -54 0 c-54 0 -54 0 -45 -25 18 -46 -10 -75 -74 -75 -19 0 -38
-4 -41 -10 -3 -5 -26 -10 -51 -10 -31 0 -44 -4 -44 -14 0 -8 7 -16 15 -20 8
-3 15 -18 15 -34 0 -15 5 -33 12 -40 9 -9 8 -12 -8 -12 -11 0 -25 -5 -31 -11
-5 -5 -22 -7 -37 -3 -25 6 -26 9 -20 49 4 27 2 45 -5 49 -8 5 -11 -35 -11
-138 l0 -146 480 0 480 0 0 420 0 420 -425 0 c-234 0 -425 -3 -425 -6z"/>
<path d="M0 768 c0 -29 2 -31 15 -17 9 9 13 23 9 32 -10 28 -24 19 -24 -15z"/>
<path d="M158 669 c3 -33 0 -43 -17 -55 -26 -19 -27 -31 -2 -39 11 -3 26 -19
33 -36 18 -42 85 -79 142 -79 25 0 46 3 46 8 0 27 -172 242 -194 242 -7 0 -10
-14 -8 -41z"/>
<path d="M0 625 c0 -54 1 -57 15 -39 8 10 14 28 14 39 0 11 -6 29 -14 39 -14
18 -15 15 -15 -39z"/>
</g>
</svg>
