<?xml version="1.0" standalone="no"?>
<!DOCTYPE svg PUBLIC "-//W3C//DTD SVG 20010904//EN"
 "http://www.w3.org/TR/2001/REC-SVG-20010904/DTD/svg10.dtd">
<svg version="1.0" xmlns="http://www.w3.org/2000/svg"
 width="96.000000pt" height="84.000000pt" viewBox="0 0 96.000000 84.000000"
 preserveAspectRatio="xMidYMid meet">
<metadata>
Created by potrace 1.16, written by Peter Selinger 2001-2019
</metadata>
<g transform="translate(0.000000,84.000000) scale(0.100000,-0.100000)"
fill="#000000" stroke="none">
<path d="M0 699 l0 -142 21 27 c13 17 30 26 49 26 45 0 54 20 43 95 -10 67 -6
79 27 80 8 0 16 8 18 17 5 24 -35 38 -104 38 l-54 0 0 -141z"/>
<path d="M240 833 c0 -3 18 -25 39 -47 137 -142 231 -268 231 -310 0 -14 22
-16 180 -16 113 0 180 -4 180 -10 0 -6 -67 -10 -180 -10 -151 0 -182 -2 -186
-15 -8 -19 -24 -19 -24 0 0 12 -13 15 -58 15 -32 0 -63 -5 -70 -12 -9 -9 -18
-9 -37 0 -14 7 -34 12 -45 12 -18 0 -18 -2 -4 -35 18 -44 19 -41 -14 -53 -24
-8 -29 -15 -27 -38 2 -16 6 -36 9 -46 6 -12 0 -18 -24 -23 -17 -4 -34 -13 -37
-21 -3 -8 -12 -14 -20 -14 -12 0 -14 8 -10 40 4 34 1 43 -29 75 -19 19 -40 35
-45 35 -6 0 -24 9 -40 21 l-29 20 0 -200 0 -201 480 0 480 0 0 420 0 420 -360
0 c-198 0 -360 -3 -360 -7z"/>
<path d="M206 805 c4 -8 10 -15 15 -15 5 0 9 7 9 15 0 8 -7 15 -15 15 -9 0
-12 -6 -9 -15z"/>
<path d="M283 689 c-8 -21 -20 -31 -42 -35 -20 -4 -31 -12 -31 -24 0 -21 71
-72 97 -70 36 4 52 0 78 -23 23 -19 25 -26 16 -50 -10 -27 -10 -27 29 -27 24
0 40 5 40 12 0 18 -49 98 -101 164 -68 86 -73 89 -86 53z"/>
<path d="M156 325 c4 -8 10 -15 15 -15 5 0 9 7 9 15 0 8 -7 15 -15 15 -9 0
-12 -6 -9 -15z"/>
</g>
</svg>
