<?xml version="1.0" standalone="no"?>
<!DOCTYPE svg PUBLIC "-//W3C//DTD SVG 20010904//EN"
 "http://www.w3.org/TR/2001/REC-SVG-20010904/DTD/svg10.dtd">
<svg version="1.0" xmlns="http://www.w3.org/2000/svg"
 width="96.000000pt" height="84.000000pt" viewBox="0 0 96.000000 84.000000"
 preserveAspectRatio="xMidYMid meet">
<metadata>
Created by potrace 1.16, written by Peter Selinger 2001-2019
</metadata>
<g transform="translate(0.000000,84.000000) scale(0.100000,-0.100000)"
fill="#000000" stroke="none">
<path d="M0 650 l0 -190 23 0 c19 0 26 8 36 43 17 55 47 87 83 87 15 0 28 2
28 4 0 19 23 162 27 169 3 4 11 3 19 -4 11 -9 15 -7 21 6 4 11 0 22 -11 30
-11 8 -13 15 -7 20 30 18 1 25 -104 25 l-115 0 0 -190z"/>
<path d="M327 823 c4 -10 14 -23 22 -30 9 -7 12 -13 7 -13 -5 0 32 -42 82 -94
93 -94 122 -141 122 -196 l0 -30 181 0 c117 0 178 -3 174 -10 -4 -6 -108 -10
-281 -10 -151 0 -274 -2 -274 -5 0 -4 6 -19 14 -34 15 -27 14 -28 -21 -45 -34
-16 -35 -19 -29 -56 6 -36 4 -40 -15 -40 -17 0 -20 -5 -16 -21 7 -25 -11 -69
-29 -69 -16 0 -25 27 -18 55 9 38 -27 81 -75 89 -49 8 -96 46 -111 91 -9 27
-17 35 -36 35 l-24 0 0 -220 0 -220 480 0 480 0 0 420 0 420 -278 0 c-209 0
-281 -3 -291 -12 -11 -10 -14 -10 -18 0 -3 6 -15 12 -29 12 -18 0 -22 -4 -17
-17z"/>
<path d="M378 668 c-2 -16 -11 -24 -28 -26 -98 -10 -116 -28 -59 -57 23 -12
38 -14 58 -7 29 10 78 5 97 -9 15 -12 6 -61 -13 -76 -25 -20 -4 -33 54 -33
l55 0 -7 28 c-10 44 -125 202 -147 202 -4 0 -8 -10 -10 -22z"/>
<path d="M250 311 c0 -6 5 -13 10 -16 6 -3 10 1 10 9 0 9 -4 16 -10 16 -5 0
-10 -4 -10 -9z"/>
</g>
</svg>
