<?xml version="1.0" standalone="no"?>
<!DOCTYPE svg PUBLIC "-//W3C//DTD SVG 20010904//EN"
 "http://www.w3.org/TR/2001/REC-SVG-20010904/DTD/svg10.dtd">
<svg version="1.0" xmlns="http://www.w3.org/2000/svg"
 width="96.000000pt" height="84.000000pt" viewBox="0 0 96.000000 84.000000"
 preserveAspectRatio="xMidYMid meet">
<metadata>
Created by potrace 1.16, written by Peter Selinger 2001-2019
</metadata>
<g transform="translate(0.000000,84.000000) scale(0.100000,-0.100000)"
fill="#000000" stroke="none">
<path d="M0 650 l0 -190 114 0 113 0 10 73 c17 120 19 167 8 210 -6 23 -4 29
13 34 13 3 22 15 24 34 l5 29 -144 0 -143 0 0 -190z"/>
<path d="M385 815 c6 -29 7 -67 2 -110 -1 -15 5 -21 26 -23 43 -5 71 -73 65
-158 l-4 -64 243 0 243 0 0 190 0 190 -270 0 c-248 0 -293 -4 -260 -25 6 -3
10 -14 10 -23 0 -12 -9 -7 -31 18 l-30 35 6 -30z m43 -64 c3 -8 -1 -12 -9 -9
-7 2 -15 10 -17 17 -3 8 1 12 9 9 7 -2 15 -10 17 -17z"/>
<path d="M320 588 c0 -18 18 -34 28 -24 3 4 -2 14 -11 23 -16 16 -17 16 -17 1z"/>
<path d="M0 220 l0 -220 480 0 480 0 0 220 0 220 -251 0 c-157 0 -258 -4 -270
-11 -19 -10 -19 -12 12 -47 l33 -37 -40 -3 c-47 -4 -59 -14 -46 -38 5 -11 12
-34 15 -51 5 -27 3 -33 -11 -33 -29 0 -41 20 -35 56 5 33 4 34 -26 34 -37 0
-38 -7 -7 -68 29 -60 38 -95 30 -127 -13 -54 -49 -18 -39 39 5 24 -2 43 -27
83 -31 49 -36 52 -74 53 -59 0 -78 18 -70 64 4 21 19 49 33 62 l26 24 -107 0
-106 0 0 -220z"/>
</g>
</svg>
