<?xml version="1.0" standalone="no"?>
<!DOCTYPE svg PUBLIC "-//W3C//DTD SVG 20010904//EN"
 "http://www.w3.org/TR/2001/REC-SVG-20010904/DTD/svg10.dtd">
<svg version="1.0" xmlns="http://www.w3.org/2000/svg"
 width="96.000000pt" height="84.000000pt" viewBox="0 0 96.000000 84.000000"
 preserveAspectRatio="xMidYMid meet">
<metadata>
Created by potrace 1.16, written by Peter Selinger 2001-2019
</metadata>
<g transform="translate(0.000000,84.000000) scale(0.100000,-0.100000)"
fill="#000000" stroke="none">
<path d="M0 650 l0 -190 154 0 154 0 6 31 c3 17 4 34 1 38 -5 9 -16 130 -20
221 -2 36 -3 71 -4 78 -1 9 -37 12 -146 12 l-145 0 0 -190z"/>
<path d="M338 800 c2 -22 8 -40 13 -40 5 0 9 5 9 10 0 15 15 12 40 -8 13 -10
25 -36 30 -60 6 -37 5 -45 -14 -57 -17 -13 -18 -15 -3 -15 9 0 24 -14 32 -30
10 -19 22 -30 32 -28 12 2 26 -15 46 -54 l30 -58 204 0 203 0 0 190 0 190
-313 0 -313 0 4 -40z"/>
<path d="M410 531 c0 -22 43 -58 48 -41 5 13 -25 60 -38 60 -6 0 -10 -9 -10
-19z"/>
<path d="M0 220 l0 -220 480 0 480 0 0 220 0 220 -204 0 c-188 0 -204 -1 -202
-17 1 -14 -6 -18 -28 -16 -17 1 -34 9 -38 18 -12 20 -25 19 -31 -4 -3 -11 8
-35 29 -61 19 -24 34 -47 34 -52 0 -18 -29 -76 -42 -84 -7 -5 -13 -20 -13 -34
0 -30 -31 -40 -39 -12 -5 13 -13 18 -29 15 l-23 -5 15 -74 c11 -55 12 -77 4
-85 -19 -19 -33 0 -34 49 -2 87 -13 104 -72 117 -37 7 -67 39 -67 70 0 13 13
39 29 57 35 41 51 71 51 97 0 20 -5 21 -150 21 l-150 0 0 -220z"/>
</g>
</svg>
