<?xml version="1.0" standalone="no"?>
<!DOCTYPE svg PUBLIC "-//W3C//DTD SVG 20010904//EN"
 "http://www.w3.org/TR/2001/REC-SVG-20010904/DTD/svg10.dtd">
<svg version="1.0" xmlns="http://www.w3.org/2000/svg"
 width="96.000000pt" height="84.000000pt" viewBox="0 0 96.000000 84.000000"
 preserveAspectRatio="xMidYMid meet">
<metadata>
Created by potrace 1.16, written by Peter Selinger 2001-2019
</metadata>
<g transform="translate(0.000000,84.000000) scale(0.100000,-0.100000)"
fill="#000000" stroke="none">
<path d="M0 650 l0 -190 178 2 177 3 -2 29 c-1 16 7 42 18 58 18 25 18 28 4
28 -15 0 -16 7 -11 43 4 29 -1 68 -17 127 l-23 85 -162 3 -162 2 0 -190z m344
-21 c-3 -5 -10 -7 -15 -3 -5 3 -7 10 -3 15 3 5 10 7 15 3 5 -3 7 -10 3 -15z"/>
<path d="M350 834 c0 -11 33 -149 36 -153 2 -3 11 4 19 15 14 18 16 18 29 1 8
-10 20 -16 27 -15 10 2 14 -9 14 -42 0 -42 2 -46 33 -57 36 -12 77 -46 94 -76
13 -24 5 -31 -20 -18 -19 10 -42 -1 -42 -21 0 -4 95 -8 210 -8 l210 0 0 190 0
190 -305 0 c-168 0 -305 -2 -305 -6z"/>
<path d="M468 515 c-3 -3 -3 -17 0 -30 5 -31 52 -37 52 -7 0 29 -35 54 -52 37z"/>
<path d="M0 220 l0 -220 480 0 480 0 0 220 0 220 -236 0 c-211 0 -235 -2 -224
-15 11 -13 11 -20 0 -39 -10 -20 -10 -28 4 -47 9 -13 16 -36 16 -52 0 -29 -28
-87 -42 -87 -4 0 -8 -11 -8 -24 0 -32 -19 -44 -35 -23 -7 10 -20 17 -29 17
-12 0 -16 -10 -16 -45 0 -33 -4 -45 -15 -45 -18 0 -29 40 -20 69 5 17 2 21
-17 21 -13 0 -37 9 -55 19 -64 39 -52 159 21 202 19 11 37 26 40 34 5 13 -21
15 -169 15 l-175 0 0 -220z"/>
</g>
</svg>
