<?xml version="1.0" standalone="no"?>
<!DOCTYPE svg PUBLIC "-//W3C//DTD SVG 20010904//EN"
 "http://www.w3.org/TR/2001/REC-SVG-20010904/DTD/svg10.dtd">
<svg version="1.0" xmlns="http://www.w3.org/2000/svg"
 width="96.000000pt" height="84.000000pt" viewBox="0 0 96.000000 84.000000"
 preserveAspectRatio="xMidYMid meet">
<metadata>
Created by potrace 1.16, written by Peter Selinger 2001-2019
</metadata>
<g transform="translate(0.000000,84.000000) scale(0.100000,-0.100000)"
fill="#000000" stroke="none">
<path d="M0 650 l0 -190 195 0 c175 0 195 2 203 18 13 25 3 92 -14 92 -16 0
-19 26 -5 32 6 2 -2 53 -17 118 l-27 115 -168 3 -167 2 0 -190z"/>
<path d="M352 828 c3 -7 15 -59 28 -116 13 -56 27 -98 31 -91 4 6 12 8 18 5 6
-4 11 0 11 8 0 18 21 21 36 7 5 -6 36 -11 69 -13 50 -3 61 -7 71 -25 6 -13 9
-36 6 -52 -3 -24 -9 -30 -31 -31 -77 -1 -81 -2 -81 -19 0 -38 18 -41 237 -41
l213 0 0 190 0 190 -306 0 c-241 0 -305 -3 -302 -12z"/>
<path d="M0 220 l0 -220 266 0 c212 0 265 3 261 13 -2 7 -10 39 -17 72 -15 74
-22 87 -30 55 -7 -31 -36 -38 -45 -11 -6 21 -45 30 -45 11 0 -17 -25 -11 -38
10 -7 11 -19 20 -27 20 -39 0 -60 131 -30 189 8 17 30 35 55 45 23 9 38 21 35
26 -4 6 -82 10 -196 10 l-189 0 0 -220z"/>
<path d="M527 433 c-4 -3 -7 -15 -7 -25 0 -10 -4 -18 -10 -18 -16 0 -12 -30 9
-58 28 -41 34 -69 20 -106 -11 -31 -9 -43 23 -128 l35 -93 182 -3 181 -2 0
220 0 220 -213 0 c-118 0 -217 -3 -220 -7z"/>
<path d="M511 162 c-1 -21 31 -146 40 -156 20 -23 17 6 -10 85 -16 46 -30 78
-30 71z"/>
</g>
</svg>
