<?xml version="1.0" standalone="no"?>
<!DOCTYPE svg PUBLIC "-//W3C//DTD SVG 20010904//EN"
 "http://www.w3.org/TR/2001/REC-SVG-20010904/DTD/svg10.dtd">
<svg version="1.0" xmlns="http://www.w3.org/2000/svg"
 width="96.000000pt" height="84.000000pt" viewBox="0 0 96.000000 84.000000"
 preserveAspectRatio="xMidYMid meet">
<metadata>
Created by potrace 1.16, written by Peter Selinger 2001-2019
</metadata>
<g transform="translate(0.000000,84.000000) scale(0.100000,-0.100000)"
fill="#000000" stroke="none">
<path d="M0 650 l0 -190 210 0 211 0 -6 33 c-4 17 -23 102 -44 187 l-37 155
-167 3 -167 2 0 -190z"/>
<path d="M355 818 c3 -13 20 -86 38 -162 18 -77 38 -141 45 -144 7 -2 12 5 12
17 0 14 8 23 25 27 14 3 25 10 25 15 0 5 12 9 28 8 15 0 44 3 65 7 43 8 83 -8
92 -37 8 -25 -5 -69 -21 -69 -8 0 -14 -4 -14 -10 0 -6 58 -10 155 -10 l155 0
0 190 0 190 -305 0 -305 0 5 -22z"/>
<path d="M580 470 c0 -6 7 -10 15 -10 8 0 15 2 15 4 0 2 -7 6 -15 10 -8 3 -15
1 -15 -4z"/>
<path d="M0 220 l0 -220 266 0 c239 0 266 2 260 16 -3 9 -6 22 -6 30 0 11 -6
13 -21 9 -16 -5 -22 -1 -31 23 -9 23 -20 32 -44 36 -39 8 -59 29 -79 85 -24
70 -20 118 14 152 16 16 39 29 50 29 17 0 21 6 21 30 l0 30 -215 0 -215 0 0
-220z"/>
<path d="M557 423 c-16 -16 -16 -18 1 -36 16 -18 16 -20 -2 -33 -18 -13 -18
-15 10 -56 25 -38 29 -52 29 -123 0 -54 7 -96 19 -127 l19 -48 163 0 164 0 0
220 0 220 -193 0 c-168 0 -195 -2 -210 -17z"/>
<path d="M526 83 c20 -78 19 -78 52 -81 18 -2 32 -2 32 0 0 2 -9 26 -19 53
-15 41 -24 51 -45 53 -25 3 -26 1 -20 -25z"/>
</g>
</svg>
