<?xml version="1.0" standalone="no"?>
<!DOCTYPE svg PUBLIC "-//W3C//DTD SVG 20010904//EN"
 "http://www.w3.org/TR/2001/REC-SVG-20010904/DTD/svg10.dtd">
<svg version="1.0" xmlns="http://www.w3.org/2000/svg"
 width="96.000000pt" height="84.000000pt" viewBox="0 0 96.000000 84.000000"
 preserveAspectRatio="xMidYMid meet">
<metadata>
Created by potrace 1.16, written by Peter Selinger 2001-2019
</metadata>
<g transform="translate(0.000000,84.000000) scale(0.100000,-0.100000)"
fill="#000000" stroke="none">
<path d="M0 657 l0 -183 200 0 c158 -1 200 1 200 12 0 7 -9 50 -20 96 -11 46
-20 97 -20 115 0 17 -10 56 -21 87 l-22 56 -158 0 -159 0 0 -183z"/>
<path d="M370 823 c0 -38 72 -313 81 -307 5 3 9 12 9 21 0 9 3 13 7 10 3 -4
12 -2 19 4 8 7 14 7 19 -1 3 -5 15 -10 25 -10 11 0 22 -11 28 -27 6 -16 11
-22 11 -15 1 6 10 12 21 12 10 0 35 8 55 17 34 16 37 16 72 -2 20 -11 38 -28
41 -37 5 -20 36 -23 141 -12 l61 7 0 178 0 179 -295 0 c-274 0 -295 -1 -295
-17z"/>
<path d="M13 433 c-10 -3 -13 -57 -13 -219 l0 -214 250 0 c193 0 250 3 250 13
0 30 -13 53 -33 62 -12 6 -39 34 -59 64 -50 72 -51 116 -5 168 29 34 32 43 27
83 l-5 45 -65 -3 c-36 -1 -87 -7 -113 -12 -37 -8 -64 -6 -113 5 -66 15 -99 17
-121 8z"/>
<path d="M740 418 c-14 -18 -20 -19 -53 -10 -32 9 -37 8 -37 -6 0 -8 -10 -26
-22 -39 -17 -18 -19 -26 -10 -35 17 -17 15 -48 -3 -48 -20 0 -19 -5 6 -39 25
-34 35 -100 20 -129 -8 -16 -8 -24 4 -35 8 -8 11 -17 8 -20 -3 -3 -3 -18 1
-32 l6 -25 150 0 150 0 0 215 0 215 -27 0 c-16 0 -62 2 -103 4 -66 4 -77 2
-90 -16z"/>
<path d="M578 63 c-23 -4 -28 -9 -28 -34 0 -28 2 -29 45 -29 44 0 60 15 30 26
-10 4 -13 13 -10 25 4 11 3 18 -2 18 -4 -1 -20 -4 -35 -6z"/>
</g>
</svg>
