<?xml version="1.0" standalone="no"?>
<!DOCTYPE svg PUBLIC "-//W3C//DTD SVG 20010904//EN"
 "http://www.w3.org/TR/2001/REC-SVG-20010904/DTD/svg10.dtd">
<svg version="1.0" xmlns="http://www.w3.org/2000/svg"
 width="96.000000pt" height="84.000000pt" viewBox="0 0 96.000000 84.000000"
 preserveAspectRatio="xMidYMid meet">
<metadata>
Created by potrace 1.16, written by Peter Selinger 2001-2019
</metadata>
<g transform="translate(0.000000,84.000000) scale(0.100000,-0.100000)"
fill="#000000" stroke="none">
<path d="M0 662 l0 -177 63 -3 c34 -2 78 -3 97 -2 19 0 76 2 127 3 50 1 94 5
98 9 4 4 -2 38 -14 77 -11 38 -21 91 -21 117 0 26 -8 71 -17 101 l-18 53 -157
0 -158 0 0 -178z"/>
<path d="M380 823 c0 -21 67 -289 75 -304 4 -5 14 -5 26 2 14 7 24 7 33 0 7
-6 16 -7 20 -3 4 4 14 -2 22 -13 12 -16 19 -18 43 -8 23 8 32 8 44 -4 12 -12
38 -15 118 -13 57 1 124 5 149 8 l45 7 3 161 2 162 -47 7 c-27 4 -157 9 -290
11 -230 5 -243 4 -243 -13z"/>
<path d="M27 427 l-27 -11 0 -207 0 -206 250 -2 250 -2 -11 27 c-5 15 -25 44
-43 65 -43 47 -50 69 -37 116 6 21 11 80 11 132 l0 94 -57 -6 c-32 -4 -83 -15
-115 -26 -31 -11 -58 -17 -61 -15 -4 4 -73 32 -117 47 -8 3 -27 0 -43 -6z"/>
<path d="M863 423 c-28 -4 -33 -9 -39 -39 -8 -43 -24 -51 -76 -37 -34 9 -38 8
-38 -9 0 -10 -11 -29 -25 -42 -21 -19 -23 -25 -10 -30 20 -7 20 -46 0 -46 -18
0 -18 -8 0 -40 9 -16 14 -54 15 -102 l0 -78 135 0 135 0 0 210 c0 200 -1 210
-19 210 -11 0 -25 2 -33 3 -7 2 -27 2 -45 0z"/>
<path d="M581 398 c-1 -15 4 -30 9 -33 12 -7 12 12 0 40 -8 18 -9 17 -9 -7z"/>
<path d="M578 3 c7 -3 16 -2 19 1 4 3 -2 6 -13 5 -11 0 -14 -3 -6 -6z"/>
</g>
</svg>
