<?xml version="1.0" standalone="no"?>
<!DOCTYPE svg PUBLIC "-//W3C//DTD SVG 20010904//EN"
 "http://www.w3.org/TR/2001/REC-SVG-20010904/DTD/svg10.dtd">
<svg version="1.0" xmlns="http://www.w3.org/2000/svg"
 width="96.000000pt" height="84.000000pt" viewBox="0 0 96.000000 84.000000"
 preserveAspectRatio="xMidYMid meet">
<metadata>
Created by potrace 1.16, written by Peter Selinger 2001-2019
</metadata>
<g transform="translate(0.000000,84.000000) scale(0.100000,-0.100000)"
fill="#000000" stroke="none">
<path d="M0 664 l0 -176 38 7 c26 4 52 1 81 -11 41 -16 43 -16 69 3 24 18 35
19 101 11 40 -5 76 -6 79 -3 3 3 0 31 -8 63 -7 31 -13 89 -14 127 -1 54 -6 77
-22 100 -12 17 -19 36 -17 43 4 9 -31 12 -151 12 l-156 0 0 -176z"/>
<path d="M394 803 c4 -21 21 -89 38 -152 28 -101 34 -115 62 -132 37 -23 99
-25 116 -4 17 20 24 19 35 -7 13 -29 75 -35 198 -17 72 10 90 16 99 33 7 12
14 75 16 141 l4 120 -91 28 c-85 25 -101 27 -287 27 l-196 0 6 -37z"/>
<path d="M706 420 c-23 -15 -40 -18 -74 -13 l-44 6 7 -34 c9 -38 44 -91 57
-83 11 7 10 41 -2 49 -18 11 -10 25 14 25 14 0 28 5 31 10 3 6 14 10 24 10 17
0 51 29 51 43 0 13 -35 6 -64 -13z"/>
<path d="M20 405 c-22 -23 -22 -27 -11 -82 7 -37 8 -59 1 -63 -6 -3 -9 -59 -8
-133 1 -113 3 -127 17 -121 32 14 59 16 65 5 10 -16 123 -14 129 2 4 9 7 9 18
0 13 -13 249 -20 249 -8 0 12 -44 92 -72 132 l-30 41 15 64 c23 94 30 188 14
188 -25 0 -163 -42 -184 -56 -31 -19 -34 -19 -94 21 -64 42 -78 43 -109 10z"/>
<path d="M870 410 c-12 -8 -13 -13 -2 -30 14 -23 16 -69 3 -89 -9 -14 -42 -12
-84 4 -13 6 -18 1 -23 -23 -4 -19 -14 -32 -28 -36 -19 -6 -20 -7 -3 -17 21
-12 22 -35 2 -47 -14 -7 -14 -12 1 -47 11 -27 14 -54 10 -82 l-6 -43 110 0
110 0 0 199 0 199 -31 11 c-38 13 -40 13 -59 1z"/>
</g>
</svg>
