<?xml version="1.0" standalone="no"?>
<!DOCTYPE svg PUBLIC "-//W3C//DTD SVG 20010904//EN"
 "http://www.w3.org/TR/2001/REC-SVG-20010904/DTD/svg10.dtd">
<svg version="1.0" xmlns="http://www.w3.org/2000/svg"
 width="96.000000pt" height="84.000000pt" viewBox="0 0 96.000000 84.000000"
 preserveAspectRatio="xMidYMid meet">
<metadata>
Created by potrace 1.16, written by Peter Selinger 2001-2019
</metadata>
<g transform="translate(0.000000,84.000000) scale(0.100000,-0.100000)"
fill="#000000" stroke="none">
<path d="M0 675 c0 -175 4 -190 47 -167 13 8 27 5 55 -9 47 -24 66 -24 93 1
19 18 26 19 84 9 84 -15 90 -8 63 75 -20 61 -20 66 -5 105 l16 41 -32 45 c-18
25 -29 49 -26 55 4 7 -46 10 -144 10 l-151 0 0 -165z"/>
<path d="M413 828 c-13 -22 5 -111 48 -229 16 -45 27 -59 55 -72 46 -23 81
-21 96 3 16 25 28 26 28 1 0 -31 27 -44 90 -44 59 1 150 18 181 34 22 11 49
113 49 183 0 50 -3 59 -20 63 -12 3 -53 21 -91 39 l-71 34 -178 0 c-132 0
-181 -3 -187 -12z"/>
<path d="M711 411 c-31 -25 -38 -27 -68 -18 -18 6 -35 8 -38 6 -9 -10 37 -114
66 -146 16 -19 29 -43 29 -55 0 -12 3 -19 6 -15 10 10 13 106 3 112 -19 12 -9
27 14 21 18 -4 34 3 65 30 l42 35 40 -22 c31 -18 43 -32 51 -63 17 -63 0 -79
-66 -62 -22 6 -26 3 -31 -24 -5 -21 -12 -30 -25 -30 -24 0 -24 -9 -1 -26 16
-12 16 -14 1 -29 -15 -15 -15 -20 -3 -44 8 -14 14 -38 14 -53 l0 -28 75 0 75
0 0 143 c0 206 -6 243 -40 257 -21 9 -34 9 -49 1 -17 -9 -30 -7 -70 14 -28 14
-52 25 -53 25 -2 0 -18 -13 -37 -29z"/>
<path d="M31 401 c-24 -33 -26 -61 -7 -113 12 -33 11 -37 -5 -41 -16 -4 -19
-15 -19 -65 0 -41 5 -63 15 -72 14 -12 14 -15 0 -36 -8 -13 -15 -35 -15 -48
l0 -26 36 17 c34 17 37 17 49 0 17 -23 125 -25 125 -2 0 8 4 15 9 15 5 0 14
-7 21 -15 10 -12 37 -15 122 -15 l109 0 -23 42 c-13 23 -42 62 -65 86 l-41 44
24 52 c25 55 48 154 42 186 -3 17 -6 17 -76 -5 -41 -13 -92 -36 -114 -51 l-40
-28 -16 21 c-20 25 -91 83 -103 83 -4 0 -17 -13 -28 -29z"/>
<path d="M530 190 c-16 -38 -11 -43 28 -29 31 11 31 11 14 35 -22 31 -27 30
-42 -6z"/>
</g>
</svg>
