<?xml version="1.0" standalone="no"?>
<!DOCTYPE svg PUBLIC "-//W3C//DTD SVG 20010904//EN"
 "http://www.w3.org/TR/2001/REC-SVG-20010904/DTD/svg10.dtd">
<svg version="1.0" xmlns="http://www.w3.org/2000/svg"
 width="96.000000pt" height="84.000000pt" viewBox="0 0 96.000000 84.000000"
 preserveAspectRatio="xMidYMid meet">
<metadata>
Created by potrace 1.16, written by Peter Selinger 2001-2019
</metadata>
<g transform="translate(0.000000,84.000000) scale(0.100000,-0.100000)"
fill="#000000" stroke="none">
<path d="M0 691 c0 -82 3 -156 6 -165 7 -18 35 -21 51 -5 8 8 22 3 52 -15 51
-32 55 -32 79 1 19 27 20 27 76 14 30 -7 60 -10 66 -6 15 9 12 39 -8 93 l-19
49 24 29 c12 16 23 32 23 36 0 3 -15 26 -33 50 -19 24 -32 49 -29 56 3 9 -32
12 -142 12 l-146 0 0 -149z"/>
<path d="M453 833 c-41 -5 -42 -23 -12 -133 25 -93 48 -134 91 -160 46 -28 65
-25 88 13 l20 32 0 -27 c0 -16 10 -38 21 -49 19 -19 29 -21 90 -16 38 3 88 14
112 25 36 16 47 28 65 70 12 28 25 71 28 96 l6 44 -53 28 c-30 14 -73 40 -96
55 -41 29 -42 29 -185 27 -79 0 -158 -3 -175 -5z"/>
<path d="M719 407 l-31 -35 -45 14 c-26 8 -61 14 -80 14 -30 0 -33 -3 -33 -28
0 -39 8 -44 31 -21 10 10 23 19 29 19 11 0 56 -68 71 -108 6 -15 25 -39 44
-55 18 -15 36 -41 40 -57 4 -17 10 -30 14 -30 14 0 23 111 10 126 -16 20 -3
30 17 13 14 -12 20 -9 49 25 36 43 54 43 99 1 20 -19 26 -21 26 -8 0 32 -24
93 -42 110 -18 16 -21 16 -48 1 -26 -15 -30 -15 -44 0 -8 10 -29 25 -46 35
l-30 18 -31 -34z"/>
<path d="M41 399 c-25 -40 -26 -77 -6 -126 19 -45 19 -44 -10 -37 -25 6 -25 5
-25 -54 0 -52 3 -62 20 -67 25 -8 25 -16 0 -48 -11 -14 -20 -35 -20 -47 l0
-21 29 20 c37 26 58 27 66 1 5 -17 15 -20 61 -20 54 0 54 0 48 27 l-7 28 32
-28 c30 -25 39 -27 127 -27 52 0 94 4 94 9 0 16 -91 131 -113 143 -12 6 -24
12 -26 14 -1 1 8 18 22 36 37 49 89 218 67 218 -30 0 -155 -57 -189 -87 l-41
-34 -9 23 c-5 13 -30 43 -54 67 l-46 44 -20 -34z"/>
<path d="M532 188 c-7 -7 -12 -18 -12 -26 0 -19 32 -72 43 -72 5 0 4 7 -3 15
-18 22 -6 29 29 17 41 -14 39 -4 -7 41 -30 29 -41 34 -50 25z"/>
<path d="M885 149 c-5 -21 -13 -29 -27 -29 -21 0 -21 -1 -3 -20 13 -14 15 -24
8 -31 -8 -8 -7 -19 0 -40 10 -25 16 -29 52 -29 l40 0 3 88 c2 48 1 84 -3 80
-4 -3 -19 -2 -35 2 -26 8 -29 6 -35 -21z"/>
</g>
</svg>
