<?xml version="1.0" standalone="no"?>
<!DOCTYPE svg PUBLIC "-//W3C//DTD SVG 20010904//EN"
 "http://www.w3.org/TR/2001/REC-SVG-20010904/DTD/svg10.dtd">
<svg version="1.0" xmlns="http://www.w3.org/2000/svg"
 width="96.000000pt" height="84.000000pt" viewBox="0 0 96.000000 84.000000"
 preserveAspectRatio="xMidYMid meet">
<metadata>
Created by potrace 1.16, written by Peter Selinger 2001-2019
</metadata>
<g transform="translate(0.000000,84.000000) scale(0.100000,-0.100000)"
fill="#000000" stroke="none">
<path d="M0 697 c0 -115 3 -147 16 -165 15 -22 17 -22 35 -6 20 18 14 20 86
-32 22 -15 23 -15 44 21 13 21 27 34 35 31 7 -3 32 -10 55 -16 62 -17 69 -4
41 73 l-22 62 30 28 30 28 -19 27 c-10 15 -28 35 -39 45 -11 11 -18 25 -15 33
4 12 -19 14 -136 14 l-141 0 0 -143z"/>
<path d="M483 831 c-24 -4 -46 -11 -50 -14 -11 -12 13 -111 43 -177 25 -56 80
-110 112 -110 7 0 23 17 35 38 l22 37 3 -47 c3 -54 14 -60 93 -60 99 0 194 78
206 170 5 37 4 39 -53 74 -33 20 -72 50 -88 67 l-30 31 -125 -1 c-69 -1 -145
-5 -168 -8z"/>
<path d="M719 395 c-12 -19 -22 -35 -23 -35 -1 0 -23 7 -49 16 -25 8 -58 14
-74 12 -25 -3 -28 -6 -25 -37 2 -19 8 -45 13 -58 8 -22 10 -23 25 -9 25 26 41
19 76 -30 31 -43 67 -83 99 -110 8 -6 22 -21 31 -33 23 -27 43 -27 44 2 1 12
3 31 4 42 2 11 -1 28 -5 38 -6 15 -4 17 19 11 21 -5 26 -3 26 13 0 11 6 28 14
38 13 18 15 18 40 2 l26 -17 0 30 c0 16 -4 30 -9 30 -5 0 -11 12 -14 28 -3 15
-13 36 -21 47 -14 19 -17 19 -44 4 -28 -16 -29 -15 -65 17 -20 19 -44 34 -52
34 -9 0 -25 -16 -36 -35z"/>
<path d="M41 383 c-16 -56 -13 -89 10 -134 20 -40 20 -40 0 -30 -41 22 -51 14
-51 -39 0 -45 3 -52 25 -60 14 -5 25 -13 25 -18 0 -5 -11 -19 -25 -32 -14 -13
-25 -35 -25 -48 l0 -25 23 20 c29 27 63 44 71 36 3 -3 6 -17 6 -30 0 -21 4
-23 55 -23 54 0 54 0 45 26 -14 37 -14 37 32 4 37 -27 48 -30 119 -30 43 0 80
4 84 9 9 15 -112 138 -143 146 l-27 7 26 21 c40 34 64 76 92 160 l26 78 -22
-7 c-70 -21 -155 -69 -189 -106 -36 -39 -38 -40 -38 -17 0 26 -72 122 -95 127
-8 2 -18 -12 -24 -35z"/>
<path d="M532 178 c-7 -7 -12 -17 -12 -23 0 -18 71 -96 81 -89 6 4 6 11 -1 19
-7 8 -9 19 -6 24 4 5 1 13 -5 16 -6 4 -18 20 -28 36 -13 22 -20 26 -29 17z"/>
<path d="M946 95 c-5 -18 -12 -25 -21 -21 -21 8 -29 -12 -11 -29 8 -9 13 -22
10 -30 -4 -9 0 -15 9 -15 11 0 17 15 22 55 8 59 2 84 -9 40z"/>
<path d="M585 10 c-3 -5 -1 -10 4 -10 6 0 11 5 11 10 0 6 -2 10 -4 10 -3 0 -8
-4 -11 -10z"/>
</g>
</svg>
