<?xml version="1.0" standalone="no"?>
<!DOCTYPE svg PUBLIC "-//W3C//DTD SVG 20010904//EN"
 "http://www.w3.org/TR/2001/REC-SVG-20010904/DTD/svg10.dtd">
<svg version="1.0" xmlns="http://www.w3.org/2000/svg"
 width="96.000000pt" height="84.000000pt" viewBox="0 0 96.000000 84.000000"
 preserveAspectRatio="xMidYMid meet">
<metadata>
Created by potrace 1.16, written by Peter Selinger 2001-2019
</metadata>
<g transform="translate(0.000000,84.000000) scale(0.100000,-0.100000)"
fill="#000000" stroke="none">
<path d="M0 710 c0 -98 4 -138 15 -160 17 -34 27 -37 45 -15 11 13 18 11 55
-19 46 -38 50 -37 70 11 l13 31 39 -13 c21 -8 48 -14 61 -15 28 0 29 29 2 89
l-21 44 37 30 36 30 -46 46 c-36 37 -44 49 -34 59 9 9 -19 12 -130 12 l-142 0
0 -130z"/>
<path d="M492 828 c-24 -5 -46 -16 -49 -25 -8 -20 14 -106 38 -155 25 -49 85
-108 110 -108 14 0 26 13 39 43 l19 42 0 -52 c1 -41 5 -55 20 -63 25 -13 102
-13 135 0 61 23 154 137 141 172 -3 8 -19 22 -35 32 -17 9 -57 42 -89 72 l-59
54 -113 -1 c-63 -1 -133 -5 -157 -11z"/>
<path d="M723 393 c-10 -21 -18 -39 -19 -41 -1 -2 -30 7 -64 18 -99 33 -106
13 -46 -131 5 -11 -5 -24 -34 -43 -22 -14 -40 -32 -40 -39 0 -7 22 -36 49 -64
l49 -51 -21 -21 -21 -21 51 0 c49 0 71 9 56 24 -3 3 -12 1 -19 -5 -17 -14 -33
-3 -27 19 2 10 -5 26 -16 36 -21 20 -30 53 -10 41 6 -4 6 1 -2 12 -13 22 -5
92 11 94 20 3 25 4 36 11 11 8 49 -28 77 -73 18 -30 121 -92 145 -87 18 4 33
50 21 69 -11 19 0 32 17 18 12 -9 14 -5 14 25 0 25 4 36 15 36 11 0 15 11 15
40 0 22 -4 40 -9 40 -5 0 -14 12 -19 28 -6 15 -17 36 -24 46 -15 19 -16 18
-38 -4 l-22 -22 -42 41 c-23 23 -47 41 -54 41 -7 0 -20 -17 -29 -37z"/>
<path d="M46 389 c-12 -61 -6 -123 14 -156 19 -31 16 -44 -6 -24 -5 5 -19 12
-32 16 -22 6 -23 5 -20 -46 3 -47 6 -54 27 -59 36 -8 36 -24 1 -53 -16 -14
-30 -33 -30 -41 0 -22 7 -20 42 9 40 34 58 32 58 -5 0 -30 1 -30 55 -30 54 0
54 0 45 26 -18 45 -11 49 25 14 33 -32 41 -35 111 -38 45 -3 80 0 86 6 14 14
-112 142 -139 142 -35 0 -32 11 12 51 31 29 52 61 74 117 17 42 31 82 31 89 0
15 -121 -38 -168 -74 -19 -14 -42 -39 -53 -57 -19 -30 -19 -30 -19 -6 0 28
-30 82 -68 123 -33 34 -38 34 -46 -4z"/>
</g>
</svg>
