<?xml version="1.0" standalone="no"?>
<!DOCTYPE svg PUBLIC "-//W3C//DTD SVG 20010904//EN"
 "http://www.w3.org/TR/2001/REC-SVG-20010904/DTD/svg10.dtd">
<svg version="1.0" xmlns="http://www.w3.org/2000/svg"
 width="96.000000pt" height="84.000000pt" viewBox="0 0 96.000000 84.000000"
 preserveAspectRatio="xMidYMid meet">
<metadata>
Created by potrace 1.16, written by Peter Selinger 2001-2019
</metadata>
<g transform="translate(0.000000,84.000000) scale(0.100000,-0.100000)"
fill="#000000" stroke="none">
<path d="M0 705 c0 -133 10 -185 35 -185 7 0 18 7 25 15 12 14 18 12 50 -20
20 -19 39 -35 43 -35 3 0 14 15 23 33 9 17 18 33 19 35 2 2 25 -4 51 -13 77
-26 91 -8 53 75 l-20 44 37 31 37 32 -41 45 c-28 30 -40 51 -36 62 5 14 -9 16
-135 16 l-141 0 0 -135z"/>
<path d="M506 826 c-68 -16 -73 -29 -48 -113 25 -80 68 -145 112 -168 36 -19
46 -14 64 28 l14 32 1 -33 c1 -49 16 -69 55 -76 50 -10 119 11 164 49 44 38
88 114 79 138 -3 9 -30 31 -59 50 -29 18 -67 50 -85 70 l-32 37 -108 -1 c-59
-1 -130 -7 -157 -13z"/>
<path d="M732 417 c-6 -7 -15 -25 -21 -40 -12 -31 -16 -32 -64 -12 -20 8 -50
15 -67 15 -38 0 -39 -21 -5 -104 13 -33 23 -60 22 -61 -19 -8 -77 -59 -77 -68
0 -6 21 -32 46 -58 40 -41 45 -49 35 -68 -11 -20 -10 -21 40 -21 40 0 49 3 42
13 -13 16 -14 89 -2 81 6 -3 7 5 4 19 -7 28 5 39 44 43 18 2 33 -6 53 -29 15
-18 27 -38 28 -44 0 -15 91 -63 119 -63 11 0 21 9 25 22 9 34 7 258 -2 258 -4
0 -18 20 -30 45 -24 51 -31 54 -57 25 -18 -20 -18 -19 -61 20 -47 43 -56 47
-72 27z"/>
<path d="M54 409 c-4 -7 -9 -42 -12 -80 -4 -58 -2 -72 17 -98 l22 -30 -35 14
c-20 8 -38 15 -41 15 -3 0 -5 -23 -3 -52 3 -46 6 -53 27 -58 36 -8 36 -26 2
-51 -20 -14 -31 -32 -31 -47 l0 -23 37 30 c47 39 63 39 63 1 0 -30 1 -30 55
-30 54 0 54 0 45 26 -15 40 -12 40 23 6 34 -33 34 -33 123 -30 l89 3 -65 68
c-39 42 -75 71 -92 74 l-28 5 44 39 c34 30 53 59 80 125 20 48 35 89 33 90 -2
2 -37 -10 -79 -27 -75 -30 -118 -62 -150 -109 l-17 -25 -1 30 c0 31 -16 59
-62 113 -30 35 -34 37 -44 21z"/>
</g>
</svg>
