<?xml version="1.0" standalone="no"?>
<!DOCTYPE svg PUBLIC "-//W3C//DTD SVG 20010904//EN"
 "http://www.w3.org/TR/2001/REC-SVG-20010904/DTD/svg10.dtd">
<svg version="1.0" xmlns="http://www.w3.org/2000/svg"
 width="96.000000pt" height="84.000000pt" viewBox="0 0 96.000000 84.000000"
 preserveAspectRatio="xMidYMid meet">
<metadata>
Created by potrace 1.16, written by Peter Selinger 2001-2019
</metadata>
<g transform="translate(0.000000,84.000000) scale(0.100000,-0.100000)"
fill="#000000" stroke="none">
<path d="M0 687 c0 -164 7 -192 41 -161 17 15 20 13 49 -20 18 -20 38 -36 44
-36 7 0 21 15 31 34 l18 34 41 -19 c60 -27 76 -25 76 11 0 17 -7 47 -16 68
-14 34 -14 38 3 49 66 44 65 37 9 107 -27 34 -28 37 -12 61 l16 25 -150 0
-150 0 0 -153z"/>
<path d="M580 820 c-19 -10 -52 -22 -72 -25 -51 -9 -59 -22 -47 -74 21 -92 90
-187 150 -206 24 -8 36 4 46 50 7 29 8 28 18 -20 10 -45 14 -51 45 -59 46 -11
110 7 151 41 51 43 89 102 89 139 0 29 -6 36 -57 65 -31 18 -74 50 -95 71 -38
38 -39 38 -115 38 -57 -1 -88 -6 -113 -20z"/>
<path d="M709 375 c-11 -25 -22 -45 -24 -45 -2 0 -29 7 -60 15 -93 24 -103 8
-56 -91 l28 -60 -38 -33 c-22 -18 -39 -37 -39 -43 0 -6 21 -31 48 -55 26 -24
46 -48 44 -54 -1 -5 29 -9 68 -9 57 0 70 3 70 16 0 8 4 12 10 9 6 -4 7 2 1 18
-9 24 -4 41 14 43 6 1 20 5 31 8 18 5 29 -3 59 -44 29 -39 43 -50 65 -50 l27
0 2 150 c2 124 0 150 -12 150 -8 0 -20 13 -27 30 -20 48 -37 57 -62 32 l-21
-21 -47 40 c-25 21 -50 39 -54 39 -4 0 -16 -20 -27 -45z"/>
<path d="M67 403 c-3 -5 -10 -33 -17 -63 -12 -56 -10 -68 28 -143 2 -4 -11 1
-30 13 -18 11 -36 20 -40 20 -5 0 -8 -24 -8 -53 0 -50 2 -53 33 -65 l32 -13
-32 -28 c-20 -16 -33 -37 -33 -51 l0 -23 23 20 c12 11 32 26 45 32 20 11 22
10 22 -19 0 -29 1 -30 51 -30 51 0 51 0 46 28 l-5 27 22 -27 c21 -27 26 -28
109 -28 83 0 87 1 78 19 -19 35 -99 109 -121 113 -19 3 -17 7 23 35 37 26 54
48 87 118 23 48 40 89 37 91 -2 2 -39 -8 -83 -23 -60 -20 -89 -36 -121 -68
-34 -34 -43 -38 -43 -23 0 23 -24 71 -58 116 -24 32 -37 39 -45 25z"/>
</g>
</svg>
