<?xml version="1.0" standalone="no"?>
<!DOCTYPE svg PUBLIC "-//W3C//DTD SVG 20010904//EN"
 "http://www.w3.org/TR/2001/REC-SVG-20010904/DTD/svg10.dtd">
<svg version="1.0" xmlns="http://www.w3.org/2000/svg"
 width="96.000000pt" height="84.000000pt" viewBox="0 0 96.000000 84.000000"
 preserveAspectRatio="xMidYMid meet">
<metadata>
Created by potrace 1.16, written by Peter Selinger 2001-2019
</metadata>
<g transform="translate(0.000000,84.000000) scale(0.100000,-0.100000)"
fill="#000000" stroke="none">
<path d="M0 674 c0 -154 1 -164 17 -155 15 9 25 3 56 -32 36 -41 37 -42 53
-22 8 11 19 27 24 35 7 12 14 11 48 -8 22 -12 50 -22 62 -22 20 0 22 4 17 38
-3 20 -8 51 -12 67 -6 27 -3 32 29 49 20 11 36 23 36 29 0 5 -16 31 -35 56
l-34 47 22 23 22 22 -25 19 c-22 18 -40 20 -152 19 l-128 -1 0 -164z"/>
<path d="M644 818 c-10 -11 -52 -36 -91 -55 -65 -30 -73 -37 -73 -61 0 -68 83
-184 151 -212 36 -15 53 -4 64 43 l7 32 11 -45 c11 -43 14 -45 52 -48 62 -5
108 13 154 63 40 43 41 47 41 113 l0 69 -45 17 c-24 10 -67 37 -94 62 -45 41
-53 44 -103 44 -44 0 -59 -4 -74 -22z"/>
<path d="M76 359 c-22 -55 -23 -107 -1 -149 l17 -33 -29 20 c-57 40 -63 38
-63 -21 0 -47 3 -54 25 -64 32 -15 32 -27 0 -48 -14 -9 -25 -25 -25 -35 0 -19
1 -19 37 1 41 22 54 19 46 -10 -5 -18 0 -20 46 -20 34 0 51 4 51 13 0 9 2 9 9
-1 5 -9 31 -12 90 -10 l82 3 -28 37 c-15 20 -41 44 -58 52 -27 14 -28 15 -10
22 44 15 86 57 130 130 25 42 44 78 41 81 -2 3 -38 -3 -78 -12 -77 -17 -150
-54 -167 -83 -9 -14 -10 -12 -11 13 0 31 -58 146 -77 152 -6 2 -18 -15 -27
-38z"/>
<path d="M694 355 c-7 -19 -14 -39 -14 -45 0 -7 -24 -8 -70 -4 -90 9 -97 -4
-50 -93 l33 -64 -36 -37 c-40 -41 -39 -49 13 -87 31 -23 43 -25 140 -25 96 0
106 2 118 21 7 11 19 18 26 16 8 -3 18 -1 23 4 6 6 18 0 33 -16 46 -49 50 -38
50 125 0 141 -1 150 -19 150 -11 0 -28 15 -41 35 -25 40 -43 44 -64 14 l-14
-21 -45 31 c-25 17 -51 31 -57 31 -6 0 -18 -16 -26 -35z"/>
</g>
</svg>
