<?xml version="1.0" standalone="no"?>
<!DOCTYPE svg PUBLIC "-//W3C//DTD SVG 20010904//EN"
 "http://www.w3.org/TR/2001/REC-SVG-20010904/DTD/svg10.dtd">
<svg version="1.0" xmlns="http://www.w3.org/2000/svg"
 width="96.000000pt" height="84.000000pt" viewBox="0 0 96.000000 84.000000"
 preserveAspectRatio="xMidYMid meet">
<metadata>
Created by potrace 1.16, written by Peter Selinger 2001-2019
</metadata>
<g transform="translate(0.000000,84.000000) scale(0.100000,-0.100000)"
fill="#000000" stroke="none">
<path d="M469 567 c-19 -13 -40 -22 -47 -19 -7 2 -10 -2 -6 -12 3 -9 1 -23 -6
-32 -7 -8 -14 -35 -14 -59 -1 -57 26 -94 89 -120 l48 -20 39 45 c47 55 54 80
38 133 -13 43 -68 107 -93 107 -8 0 -30 -10 -48 -23z"/>
</g>
</svg>
