<?xml version="1.0" standalone="no"?>
<!DOCTYPE svg PUBLIC "-//W3C//DTD SVG 20010904//EN"
 "http://www.w3.org/TR/2001/REC-SVG-20010904/DTD/svg10.dtd">
<svg version="1.0" xmlns="http://www.w3.org/2000/svg"
 width="96.000000pt" height="84.000000pt" viewBox="0 0 96.000000 84.000000"
 preserveAspectRatio="xMidYMid meet">
<metadata>
Created by potrace 1.16, written by Peter Selinger 2001-2019
</metadata>
<g transform="translate(0.000000,84.000000) scale(0.100000,-0.100000)"
fill="#000000" stroke="none">
<path d="M0 683 c0 -143 2 -156 22 -186 50 -71 48 -70 79 -41 l28 27 47 -32
c26 -17 51 -31 55 -31 15 0 19 35 10 88 -9 58 -13 53 57 77 18 6 15 22 -15 77
l-27 50 24 19 25 19 -38 33 c-20 17 -37 38 -37 45 0 10 -26 13 -115 11 l-115
-2 0 -154z"/>
<path d="M700 830 c0 -21 -86 -103 -137 -132 -63 -36 -66 -51 -23 -124 34 -60
91 -110 139 -124 42 -12 61 1 61 41 0 15 5 31 10 34 6 3 10 -5 10 -18 0 -14 8
-35 18 -47 16 -20 20 -21 66 -9 27 7 64 25 82 42 l34 29 0 103 0 102 -58 21
c-32 12 -76 37 -99 57 -40 34 -103 49 -103 25z"/>
<path d="M94 325 c-26 -56 -28 -89 -8 -140 7 -17 3 -16 -25 8 -49 41 -61 36
-61 -23 0 -42 4 -52 25 -66 14 -9 25 -20 25 -23 0 -4 -11 -14 -25 -21 -14 -7
-25 -22 -25 -32 0 -15 3 -17 19 -8 30 16 64 13 57 -5 -5 -13 12 -15 114 -15
67 0 120 4 120 9 0 5 -13 20 -28 33 l-29 23 51 25 c34 17 65 44 94 80 76 99
77 94 -21 87 -83 -6 -132 -21 -170 -55 -16 -14 -17 -12 -17 24 -1 42 -41 146
-59 152 -6 2 -23 -22 -37 -53z"/>
<path d="M818 335 c-14 -30 -18 -31 -68 -5 -65 33 -69 30 -85 -47 -7 -33 -7
-33 -69 -33 -95 0 -101 -16 -38 -103 l35 -48 -31 -43 c-17 -24 -28 -46 -25
-50 3 -3 100 -6 215 -6 l208 0 0 151 0 151 -29 -7 c-23 -5 -31 -1 -45 19 -9
14 -25 30 -36 36 -17 9 -22 7 -32 -15z"/>
</g>
</svg>
