<?xml version="1.0" standalone="no"?>
<!DOCTYPE svg PUBLIC "-//W3C//DTD SVG 20010904//EN"
 "http://www.w3.org/TR/2001/REC-SVG-20010904/DTD/svg10.dtd">
<svg version="1.0" xmlns="http://www.w3.org/2000/svg"
 width="96.000000pt" height="84.000000pt" viewBox="0 0 96.000000 84.000000"
 preserveAspectRatio="xMidYMid meet">
<metadata>
Created by potrace 1.16, written by Peter Selinger 2001-2019
</metadata>
<g transform="translate(0.000000,84.000000) scale(0.100000,-0.100000)"
fill="#000000" stroke="none">
<path d="M0 649 c0 -170 5 -213 26 -238 1 -2 17 7 34 19 l32 22 37 -36 c62
-61 80 -46 72 61 -2 31 0 33 39 39 22 4 43 10 45 15 3 4 -4 33 -16 64 l-21 57
21 14 c28 20 27 30 -9 65 -26 26 -28 33 -18 55 16 35 4 42 -85 50 -68 6 -80 4
-98 -12 -20 -18 -22 -18 -34 -1 -6 9 -15 17 -19 17 -3 0 -6 -86 -6 -191z"/>
<path d="M720 813 c0 -43 -53 -126 -115 -178 -30 -26 -55 -55 -55 -64 0 -21
61 -97 101 -126 16 -13 50 -28 76 -34 57 -15 73 -4 73 53 l1 41 20 -38 c26
-50 39 -53 94 -27 l45 22 0 139 0 139 -27 0 c-38 0 -149 54 -165 79 -19 31
-48 27 -48 -6z"/>
<path d="M131 309 c-35 -47 -45 -86 -36 -131 l7 -33 -22 28 c-12 15 -35 34
-51 42 l-29 16 0 -54 c0 -44 4 -58 25 -77 14 -13 25 -27 25 -32 0 -4 -11 -10
-25 -14 -15 -4 -25 -13 -25 -25 0 -15 5 -17 29 -13 16 4 32 1 35 -5 5 -7 44
-11 104 -11 58 0 92 4 84 9 -10 6 -2 11 24 16 21 3 50 13 64 20 34 18 130 108
130 122 0 7 -35 14 -89 18 -77 6 -95 4 -134 -13 l-45 -20 5 34 c6 38 -23 164
-38 164 -5 0 -22 -18 -38 -41z"/>
<path d="M788 304 c-10 -22 -16 -25 -42 -19 -17 3 -45 9 -63 12 l-31 5 -7 -56
c-7 -53 -9 -56 -35 -56 -33 0 -93 -20 -102 -34 -10 -15 18 -62 57 -93 24 -19
33 -33 29 -45 -5 -17 8 -18 180 -18 l186 0 0 119 c0 99 -11 181 -26 181 -1 0
-14 -5 -28 -11 -22 -10 -29 -8 -56 15 -39 32 -47 33 -62 0z"/>
</g>
</svg>
