<?xml version="1.0" standalone="no"?>
<!DOCTYPE svg PUBLIC "-//W3C//DTD SVG 20010904//EN"
 "http://www.w3.org/TR/2001/REC-SVG-20010904/DTD/svg10.dtd">
<svg version="1.0" xmlns="http://www.w3.org/2000/svg"
 width="96.000000pt" height="84.000000pt" viewBox="0 0 96.000000 84.000000"
 preserveAspectRatio="xMidYMid meet">
<metadata>
Created by potrace 1.16, written by Peter Selinger 2001-2019
</metadata>
<g transform="translate(0.000000,84.000000) scale(0.100000,-0.100000)"
fill="#000000" stroke="none">
<path d="M6 794 c-3 -26 -6 -125 -6 -221 l0 -174 22 15 c21 15 23 13 55 -34
18 -28 40 -50 48 -50 14 0 32 48 37 100 3 22 8 25 43 25 47 0 52 14 36 86 -6
24 -6 45 -2 47 5 1 16 9 27 16 17 13 17 15 -8 54 -24 35 -25 42 -13 58 23 30
18 41 -22 51 -28 6 -39 14 -41 31 -3 18 -10 22 -39 22 -19 0 -48 -9 -64 -21
l-29 -21 -11 31 c-15 43 -25 39 -33 -15z"/>
<path d="M715 823 c34 -84 20 -148 -52 -243 -27 -35 -52 -69 -58 -76 -12 -17
53 -87 108 -115 42 -22 131 -29 148 -12 6 6 9 30 7 53 l-4 42 28 -35 c20 -25
34 -34 48 -30 19 5 20 14 20 163 l0 157 -50 6 c-76 9 -134 39 -149 76 -9 20
-20 31 -33 31 -15 0 -18 -4 -13 -17z"/>
<path d="M162 266 c-41 -44 -58 -90 -47 -126 10 -32 -3 -23 -21 15 -14 29 -67
75 -88 75 -3 0 -6 -22 -6 -48 0 -36 7 -57 25 -82 31 -42 31 -48 0 -56 -35 -9
-31 -30 6 -38 52 -10 389 -7 389 4 0 5 14 17 31 25 16 9 29 21 27 27 -5 15
-135 57 -180 58 -20 0 -48 -4 -63 -10 -23 -9 -25 -8 -15 9 17 33 9 191 -10
191 -4 0 -26 -20 -48 -44z"/>
<path d="M753 259 c-6 -29 -8 -31 -52 -29 -88 4 -85 7 -77 -55 5 -42 3 -55 -7
-55 -7 0 -36 -12 -65 -26 -56 -28 -65 -49 -34 -77 16 -15 47 -17 230 -17 l212
0 0 90 c0 53 -4 90 -10 90 -5 0 -10 9 -10 20 0 17 -23 74 -35 88 -2 2 -15 -4
-28 -13 -23 -15 -28 -15 -56 -1 -45 24 -61 20 -68 -15z"/>
</g>
</svg>
