<?xml version="1.0" standalone="no"?>
<!DOCTYPE svg PUBLIC "-//W3C//DTD SVG 20010904//EN"
 "http://www.w3.org/TR/2001/REC-SVG-20010904/DTD/svg10.dtd">
<svg version="1.0" xmlns="http://www.w3.org/2000/svg"
 width="96.000000pt" height="84.000000pt" viewBox="0 0 96.000000 84.000000"
 preserveAspectRatio="xMidYMid meet">
<metadata>
Created by potrace 1.16, written by Peter Selinger 2001-2019
</metadata>
<g transform="translate(0.000000,84.000000) scale(0.100000,-0.100000)"
fill="#000000" stroke="none">
<path d="M680 834 c0 -3 18 -36 40 -73 23 -38 40 -80 40 -97 0 -45 -28 -132
-63 -197 l-32 -58 32 -29 c60 -54 173 -72 236 -38 20 10 20 44 1 93 -7 18 -6
18 9 6 16 -12 17 -3 17 131 l0 144 -60 -4 c-84 -6 -115 9 -152 75 -20 35 -36
53 -49 53 -10 0 -19 -3 -19 -6z"/>
<path d="M30 801 c0 -16 -7 -34 -15 -41 -12 -10 -15 -44 -15 -194 1 -166 3
-185 23 -226 31 -64 51 -63 75 2 21 55 22 55 82 47 24 -4 25 -2 26 61 1 55 4
66 20 68 32 6 36 18 18 61 -15 38 -15 43 0 60 23 26 20 36 -19 57 -26 14 -35
24 -31 37 7 27 -38 42 -89 29 -46 -12 -58 -2 -49 41 4 20 2 27 -10 27 -11 0
-16 -9 -16 -29z"/>
<path d="M828 239 c-12 -18 -17 -20 -35 -10 -12 6 -33 11 -47 11 -23 0 -26 -4
-26 -34 0 -33 -1 -34 -48 -41 -67 -9 -76 -17 -69 -56 3 -19 8 -41 12 -50 4
-11 -4 -23 -27 -37 l-33 -22 203 0 202 0 0 95 c0 93 -4 107 -28 83 -9 -9 -13
-7 -18 8 -12 32 -45 74 -58 74 -8 0 -20 -10 -28 -21z"/>
<path d="M198 217 c-31 -23 -47 -45 -57 -77 l-14 -45 -12 34 c-13 38 -72 104
-86 96 -16 -10 -9 -98 11 -142 20 -45 14 -59 -20 -48 -16 5 -20 2 -20 -14 0
-21 4 -21 205 -21 121 0 205 4 205 9 0 6 -8 10 -17 10 -10 -1 -36 6 -58 15
-22 8 -54 15 -72 16 l-32 0 15 35 c15 38 19 165 5 165 -5 0 -29 -15 -53 -33z"/>
<path d="M403 65 c0 -22 2 -30 4 -17 2 12 2 30 0 40 -3 9 -5 -1 -4 -23z"/>
<path d="M450 10 c-12 -8 -10 -10 8 -10 13 0 20 4 17 10 -7 12 -6 12 -25 0z"/>
</g>
</svg>
