<?xml version="1.0" standalone="no"?>
<!DOCTYPE svg PUBLIC "-//W3C//DTD SVG 20010904//EN"
 "http://www.w3.org/TR/2001/REC-SVG-20010904/DTD/svg10.dtd">
<svg version="1.0" xmlns="http://www.w3.org/2000/svg"
 width="96.000000pt" height="84.000000pt" viewBox="0 0 96.000000 84.000000"
 preserveAspectRatio="xMidYMid meet">
<metadata>
Created by potrace 1.16, written by Peter Selinger 2001-2019
</metadata>
<g transform="translate(0.000000,84.000000) scale(0.100000,-0.100000)"
fill="#000000" stroke="none">
<path d="M655 830 c-14 -23 8 -70 59 -126 29 -33 58 -69 64 -81 18 -34 14
-139 -9 -221 -17 -62 -19 -77 -7 -87 20 -19 76 -35 124 -35 78 0 74 -11 74
212 0 170 -2 199 -14 195 -46 -18 -101 -27 -125 -22 -39 8 -88 63 -110 121
-18 47 -42 66 -56 44z"/>
<path d="M52 758 c-7 -26 -14 -32 -30 -31 -22 3 -22 3 -22 -232 0 -129 2 -235
5 -235 3 0 17 19 31 43 15 23 28 44 30 46 2 2 19 -7 38 -19 l36 -22 9 24 c5
13 12 43 16 66 6 40 9 43 32 39 31 -6 38 10 24 60 -10 34 -9 40 9 52 26 18 25
33 -5 61 -15 14 -25 35 -25 51 0 22 -6 30 -34 39 -19 6 -47 10 -63 8 -27 -3
-28 -2 -25 40 4 50 -14 57 -26 10z"/>
<path d="M792 203 c-17 -24 -26 -29 -52 -25 -41 6 -63 -13 -55 -49 6 -25 2
-29 -50 -53 -47 -21 -56 -29 -53 -48 3 -23 4 -23 191 -26 l187 -2 0 60 c0 86
-34 147 -58 104 -8 -14 -15 -10 -49 26 l-40 43 -21 -30z"/>
<path d="M66 193 c-14 -53 -16 -86 -6 -123 14 -50 9 -58 -30 -43 -27 10 -30 9
-30 -8 0 -18 9 -19 129 -19 l130 0 19 53 c10 28 22 67 26 86 l6 34 -37 -6
c-47 -8 -83 -34 -104 -75 -18 -35 -29 -32 -29 8 0 25 -47 110 -62 110 -3 0 -9
-8 -12 -17z"/>
<path d="M384 83 l1 -83 58 0 c53 0 57 1 57 24 0 13 -8 34 -18 46 -17 21 -19
21 -35 5 -9 -9 -17 -24 -17 -33 0 -35 -24 9 -35 65 l-12 58 1 -82z"/>
</g>
</svg>
