<?xml version="1.0" standalone="no"?>
<!DOCTYPE svg PUBLIC "-//W3C//DTD SVG 20010904//EN"
 "http://www.w3.org/TR/2001/REC-SVG-20010904/DTD/svg10.dtd">
<svg version="1.0" xmlns="http://www.w3.org/2000/svg"
 width="96.000000pt" height="84.000000pt" viewBox="0 0 96.000000 84.000000"
 preserveAspectRatio="xMidYMid meet">
<metadata>
Created by potrace 1.16, written by Peter Selinger 2001-2019
</metadata>
<g transform="translate(0.000000,84.000000) scale(0.100000,-0.100000)"
fill="#000000" stroke="none">
<path d="M80 716 c0 -7 -7 -19 -15 -26 -12 -10 -20 -9 -40 4 l-25 16 0 -198 0
-198 35 -34 c40 -38 45 -36 70 33 17 45 20 47 46 42 24 -6 29 -3 34 18 4 14 5
35 3 48 -2 17 4 27 20 34 27 12 28 29 2 66 -17 22 -19 33 -10 48 8 17 5 24
-23 45 -19 15 -46 26 -60 26 -22 0 -27 5 -27 24 0 14 5 28 10 31 15 10 12 35
-5 35 -8 0 -15 -6 -15 -14z"/>
<path d="M650 715 c-17 -20 8 -56 71 -102 93 -69 106 -85 119 -147 8 -38 10
-88 6 -136 -8 -91 0 -103 66 -98 l43 3 3 208 c1 114 1 207 -2 207 -2 0 -24
-11 -47 -25 -24 -14 -58 -25 -74 -25 -40 0 -99 41 -130 90 -28 44 -36 48 -55
25z"/>
<path d="M360 197 c0 -3 7 -21 15 -40 8 -20 15 -54 15 -76 0 -25 5 -41 15 -45
8 -3 15 -12 15 -21 0 -11 11 -15 46 -15 l46 0 -7 67 c-4 38 -14 75 -22 83 -13
13 -16 12 -33 -8 -11 -13 -16 -30 -13 -37 8 -23 -15 -17 -31 8 -8 12 -18 34
-21 50 -6 22 -25 49 -25 34z m77 -179 c-3 -8 -6 -5 -6 6 -1 11 2 17 5 13 3 -3
4 -12 1 -19z"/>
<path d="M104 135 c-7 -19 -14 -57 -14 -85 l0 -50 113 0 113 0 17 35 c21 43
11 50 -61 42 -37 -4 -52 -12 -74 -38 l-28 -33 0 47 c0 52 -22 117 -40 117 -6
0 -18 -16 -26 -35z"/>
<path d="M744 140 c-5 -24 -13 -31 -40 -36 -43 -8 -53 -21 -51 -67 l2 -37 153
0 c119 0 152 3 152 13 0 22 -46 111 -68 130 -20 18 -21 18 -31 -2 -11 -20 -11
-20 -48 4 -47 33 -62 31 -69 -5z"/>
<path d="M0 25 c0 -20 5 -25 27 -25 l26 0 -23 25 c-13 14 -25 25 -27 25 -2 0
-3 -11 -3 -25z"/>
</g>
</svg>
