<?xml version="1.0" standalone="no"?>
<!DOCTYPE svg PUBLIC "-//W3C//DTD SVG 20010904//EN"
 "http://www.w3.org/TR/2001/REC-SVG-20010904/DTD/svg10.dtd">
<svg version="1.0" xmlns="http://www.w3.org/2000/svg"
 width="96.000000pt" height="84.000000pt" viewBox="0 0 96.000000 84.000000"
 preserveAspectRatio="xMidYMid meet">
<metadata>
Created by potrace 1.16, written by Peter Selinger 2001-2019
</metadata>
<g transform="translate(0.000000,84.000000) scale(0.100000,-0.100000)"
fill="#000000" stroke="none">
<path d="M0 442 c0 -133 1 -242 3 -242 2 0 18 21 36 46 32 44 34 45 52 28 24
-22 36 -12 47 41 7 34 12 40 36 43 25 3 27 6 20 30 -5 15 -8 48 -7 74 1 42 -2
51 -32 76 -18 17 -39 32 -47 34 -10 4 -9 13 6 42 21 40 12 64 -11 29 -20 -30
-31 -29 -70 9 l-33 32 0 -242z"/>
<path d="M656 584 c-10 -26 19 -61 61 -74 126 -41 143 -51 165 -93 25 -50 48
-130 48 -173 0 -16 7 -39 15 -50 13 -17 14 5 15 195 l0 214 -45 -42 c-35 -32
-52 -41 -80 -41 -40 0 -101 28 -129 59 -23 25 -42 27 -50 5z"/>
<path d="M350 246 c0 -3 9 -20 20 -39 11 -18 21 -47 22 -63 1 -16 13 -39 26
-52 20 -19 23 -30 19 -58 -6 -34 -5 -34 32 -34 38 0 38 1 44 44 6 42 -4 132
-18 169 -4 9 -15 17 -26 17 -22 0 -41 -32 -33 -55 5 -13 2 -16 -12 -14 -11 2
-28 23 -39 46 -17 35 -35 55 -35 39z"/>
<path d="M156 88 c-13 -18 -28 -45 -31 -60 -7 -28 -6 -28 39 -28 l46 0 0 38
c0 45 -9 82 -21 82 -4 0 -19 -15 -33 -32z"/>
<path d="M813 89 c-4 -14 -10 -18 -22 -13 -9 4 -33 9 -53 12 -36 4 -38 3 -38
-26 0 -19 -8 -35 -22 -45 -21 -15 -12 -16 130 -16 143 -1 152 0 152 18 0 14
-5 18 -20 14 -16 -4 -30 5 -56 36 -39 45 -63 52 -71 20z"/>
<path d="M27 33 c-14 -13 -6 -33 13 -33 22 0 23 1 14 24 -7 17 -16 20 -27 9z"/>
</g>
</svg>
