<?xml version="1.0" standalone="no"?>
<!DOCTYPE svg PUBLIC "-//W3C//DTD SVG 20010904//EN"
 "http://www.w3.org/TR/2001/REC-SVG-20010904/DTD/svg10.dtd">
<svg version="1.0" xmlns="http://www.w3.org/2000/svg"
 width="96.000000pt" height="84.000000pt" viewBox="0 0 96.000000 84.000000"
 preserveAspectRatio="xMidYMid meet">
<metadata>
Created by potrace 1.16, written by Peter Selinger 2001-2019
</metadata>
<g transform="translate(0.000000,84.000000) scale(0.100000,-0.100000)"
fill="#000000" stroke="none">
<path d="M0 430 c0 -175 2 -202 17 -220 25 -29 38 -25 57 15 14 29 22 35 48
35 30 0 31 0 25 46 -3 34 -1 47 10 51 22 9 8 61 -29 107 l-31 39 28 22 c35 29
25 52 -12 28 -28 -19 -29 -18 -65 46 -9 17 -24 31 -33 31 -13 0 -15 -26 -15
-200z"/>
<path d="M935 494 c-10 -20 -30 -44 -43 -55 -33 -25 -101 -25 -153 1 -43 22
-59 20 -59 -10 0 -35 38 -50 129 -50 82 0 86 -1 118 -32 l33 -32 0 107 c0 59
-1 107 -3 107 -1 0 -11 -16 -22 -36z"/>
<path d="M350 307 c0 -4 11 -29 25 -55 14 -26 25 -57 25 -69 0 -13 7 -23 18
-25 14 -3 17 -15 17 -78 l0 -75 47 -3 48 -3 -11 28 c-6 15 -7 48 -4 75 9 67
-12 186 -35 198 -22 12 -43 -9 -44 -47 -1 -38 -23 -40 -43 -3 -24 42 -42 67
-43 57z"/>
<path d="M915 30 c-15 -28 -14 -30 4 -30 19 0 31 18 31 46 0 24 -19 15 -35
-16z"/>
<path d="M213 25 l-28 -24 38 -1 c30 0 37 4 37 19 0 31 -16 33 -47 6z"/>
<path d="M767 44 c-4 -4 -7 -16 -7 -26 0 -15 8 -18 52 -18 52 0 52 0 33 19
-22 22 -67 36 -78 25z"/>
</g>
</svg>
