<?xml version="1.0" standalone="no"?>
<!DOCTYPE svg PUBLIC "-//W3C//DTD SVG 20010904//EN"
 "http://www.w3.org/TR/2001/REC-SVG-20010904/DTD/svg10.dtd">
<svg version="1.0" xmlns="http://www.w3.org/2000/svg"
 width="96.000000pt" height="84.000000pt" viewBox="0 0 96.000000 84.000000"
 preserveAspectRatio="xMidYMid meet">
<metadata>
Created by potrace 1.16, written by Peter Selinger 2001-2019
</metadata>
<g transform="translate(0.000000,84.000000) scale(0.100000,-0.100000)"
fill="#000000" stroke="none">
<path d="M13 553 c-10 -3 -13 -54 -13 -206 1 -174 3 -199 14 -184 12 15 18 17
35 7 28 -15 41 -5 41 31 0 17 8 36 20 46 25 22 25 56 0 112 -11 24 -20 45 -20
48 0 2 14 9 30 15 39 13 33 34 -7 30 -26 -3 -32 1 -37 25 -17 74 -31 90 -63
76z"/>
<path d="M937 371 c-21 -46 -74 -74 -138 -71 -69 3 -71 2 -67 -27 4 -39 33
-40 139 -6 l89 28 0 58 c0 31 -1 57 -2 57 -2 0 -11 -18 -21 -39z"/>
<path d="M350 377 c0 -4 8 -24 19 -45 10 -20 21 -50 25 -67 4 -16 16 -37 25
-47 16 -14 18 -30 15 -107 -2 -57 1 -89 6 -86 6 4 10 -1 10 -9 0 -13 12 -16
61 -16 l60 0 -24 32 c-27 36 -42 105 -29 126 8 12 -7 143 -23 191 -13 43 -66
14 -62 -33 3 -32 -22 -29 -40 4 -24 42 -42 67 -43 57z"/>
<path d="M867 15 c-5 -10 0 -15 14 -15 12 0 19 5 17 12 -6 18 -25 20 -31 3z"/>
</g>
</svg>
