<?xml version="1.0" standalone="no"?>
<!DOCTYPE svg PUBLIC "-//W3C//DTD SVG 20010904//EN"
 "http://www.w3.org/TR/2001/REC-SVG-20010904/DTD/svg10.dtd">
<svg version="1.0" xmlns="http://www.w3.org/2000/svg"
 width="96.000000pt" height="84.000000pt" viewBox="0 0 96.000000 84.000000"
 preserveAspectRatio="xMidYMid meet">
<metadata>
Created by potrace 1.16, written by Peter Selinger 2001-2019
</metadata>
<g transform="translate(0.000000,84.000000) scale(0.100000,-0.100000)"
fill="#000000" stroke="none">
<path d="M945 587 c-3 -12 -2 -34 4 -47 9 -22 10 -19 10 23 1 51 -5 61 -14 24z"/>
<path d="M2 300 l-1 -225 19 36 c11 20 29 39 41 42 20 5 21 11 18 79 l-4 73
30 5 c33 6 39 23 9 29 -32 6 -45 22 -39 50 8 42 -8 86 -31 83 -14 -2 -23 6
-31 25 -8 22 -11 -23 -11 -197z"/>
<path d="M350 466 c0 -2 9 -25 20 -51 11 -26 20 -59 20 -74 0 -16 10 -41 22
-57 18 -23 22 -40 22 -93 -1 -37 -3 -73 -5 -81 -2 -8 2 -14 9 -13 7 2 12 -8
12 -23 0 -17 6 -28 19 -31 12 -3 17 -11 14 -19 -6 -17 16 -26 56 -22 l31 3
-24 35 c-22 31 -26 48 -30 145 -7 172 -21 255 -44 255 -19 -1 -36 -22 -38 -47
-2 -45 -27 -33 -49 24 -11 29 -23 53 -27 53 -5 0 -8 -2 -8 -4z m87 -178 c-3
-8 -6 -5 -6 6 -1 11 2 17 5 13 3 -3 4 -12 1 -19z"/>
<path d="M932 207 c-24 -26 -54 -40 -103 -51 -32 -7 -42 -28 -25 -52 12 -16
15 -16 57 5 72 35 101 64 97 95 l-3 28 -23 -25z"/>
</g>
</svg>
