<?xml version="1.0" standalone="no"?>
<!DOCTYPE svg PUBLIC "-//W3C//DTD SVG 20010904//EN"
 "http://www.w3.org/TR/2001/REC-SVG-20010904/DTD/svg10.dtd">
<svg version="1.0" xmlns="http://www.w3.org/2000/svg"
 width="96.000000pt" height="84.000000pt" viewBox="0 0 96.000000 84.000000"
 preserveAspectRatio="xMidYMid meet">
<metadata>
Created by potrace 1.16, written by Peter Selinger 2001-2019
</metadata>
<g transform="translate(0.000000,84.000000) scale(0.100000,-0.100000)"
fill="#000000" stroke="none">
<path d="M370 533 c0 -4 5 -24 10 -43 6 -19 11 -55 11 -80 0 -25 4 -49 8 -55
21 -28 41 -151 27 -173 -4 -7 -3 -19 4 -27 7 -9 10 -41 8 -85 l-3 -70 38 0
c44 0 56 19 37 56 -11 20 -11 28 0 49 12 22 12 45 2 133 -7 60 -12 135 -12
169 0 44 -5 64 -16 74 -14 11 -19 10 -35 -9 -10 -13 -15 -30 -12 -37 3 -8 1
-15 -5 -15 -17 0 -31 25 -38 68 -4 23 -11 45 -15 48 -5 3 -9 2 -9 -3z m70
-183 c0 -5 -4 -10 -10 -10 -5 0 -10 5 -10 10 0 6 5 10 10 10 6 0 10 -4 10 -10z"/>
<path d="M933 505 c-13 -9 -23 -25 -23 -37 0 -11 10 -37 23 -57 l22 -36 3 38
c2 20 2 53 0 72 -3 35 -4 35 -25 20z"/>
<path d="M0 263 c0 -143 3 -194 11 -186 6 6 14 35 18 64 6 53 7 54 39 51 23
-1 32 2 32 13 0 8 -4 15 -9 15 -5 0 -16 7 -25 15 -12 12 -13 22 -6 41 16 40
13 94 -5 94 -9 0 -19 17 -26 45 -6 25 -15 45 -20 45 -5 0 -9 -89 -9 -197z"/>
<path d="M925 22 l-30 -17 28 -3 c33 -4 40 0 35 21 -3 13 -7 13 -33 -1z"/>
</g>
</svg>
