<?xml version="1.0" standalone="no"?>
<!DOCTYPE svg PUBLIC "-//W3C//DTD SVG 20010904//EN"
 "http://www.w3.org/TR/2001/REC-SVG-20010904/DTD/svg10.dtd">
<svg version="1.0" xmlns="http://www.w3.org/2000/svg"
 width="96.000000pt" height="84.000000pt" viewBox="0 0 96.000000 84.000000"
 preserveAspectRatio="xMidYMid meet">
<metadata>
Created by potrace 1.16, written by Peter Selinger 2001-2019
</metadata>
<g transform="translate(0.000000,84.000000) scale(0.100000,-0.100000)"
fill="#000000" stroke="none">
<path d="M387 510 c3 -52 9 -111 14 -130 15 -63 20 -187 9 -256 -14 -86 -1
-127 39 -122 32 4 43 46 25 100 -12 36 -12 37 14 40 24 3 27 8 30 45 2 22 -3
75 -11 116 -8 43 -11 93 -8 118 8 54 1 89 -21 103 -14 8 -21 6 -32 -9 -9 -11
-13 -26 -11 -32 2 -7 1 -13 -4 -13 -17 0 -29 26 -39 80 -9 49 -10 45 -5 -40z
m47 -121 c-3 -5 -10 -7 -15 -3 -5 3 -7 10 -3 15 3 5 10 7 15 3 5 -3 7 -10 3
-15z m-4 -93 c-7 -7 -10 4 -9 30 1 39 1 39 10 9 5 -18 5 -33 -1 -39z"/>
<path d="M923 385 c-18 -22 -33 -48 -33 -58 0 -11 15 -33 33 -49 l32 -31 3 41
c2 23 2 63 0 89 l-3 48 -32 -40z"/>
<path d="M0 228 c0 -134 6 -158 37 -158 18 0 16 27 -2 34 -21 8 -19 43 5 73
22 29 26 69 8 76 -8 2 -13 22 -13 53 0 38 -4 49 -17 52 -16 3 -18 -8 -18 -130z"/>
</g>
</svg>
