<?xml version="1.0" standalone="no"?>
<!DOCTYPE svg PUBLIC "-//W3C//DTD SVG 20010904//EN"
 "http://www.w3.org/TR/2001/REC-SVG-20010904/DTD/svg10.dtd">
<svg version="1.0" xmlns="http://www.w3.org/2000/svg"
 width="96.000000pt" height="84.000000pt" viewBox="0 0 96.000000 84.000000"
 preserveAspectRatio="xMidYMid meet">
<metadata>
Created by potrace 1.16, written by Peter Selinger 2001-2019
</metadata>
<g transform="translate(0.000000,84.000000) scale(0.100000,-0.100000)"
fill="#000000" stroke="none">
<path d="M386 527 c4 -118 8 -142 24 -132 8 5 30 -115 23 -124 -8 -11 -18 15
-24 62 l-6 52 -2 -70 c-1 -38 -8 -99 -16 -134 -14 -57 -14 -66 0 -87 33 -51
71 -18 61 53 -5 37 -4 45 6 35 7 -7 22 -12 35 -12 38 0 41 40 14 195 -6 32 -5
65 1 90 20 77 -37 142 -66 75 -11 -28 -14 -30 -21 -14 -5 11 -14 44 -21 74
-11 52 -11 48 -8 -63z m37 -95 c-22 -5 -27 6 -12 24 12 15 14 14 20 -3 4 -12
1 -19 -8 -21z m22 -212 c3 -5 1 -10 -4 -10 -6 0 -11 5 -11 10 0 6 2 10 4 10 3
0 8 -4 11 -10z"/>
<path d="M922 238 c-19 -37 -32 -75 -30 -85 3 -19 53 -51 63 -42 3 4 4 49 3
100 l-3 94 -33 -67z"/>
<path d="M0 159 c0 -82 2 -90 16 -78 11 9 14 22 10 42 -3 16 -1 47 6 69 10 33
9 41 -3 49 -26 17 -29 9 -29 -82z"/>
</g>
</svg>
