<?xml version="1.0" standalone="no"?>
<!DOCTYPE svg PUBLIC "-//W3C//DTD SVG 20010904//EN"
 "http://www.w3.org/TR/2001/REC-SVG-20010904/DTD/svg10.dtd">
<svg version="1.0" xmlns="http://www.w3.org/2000/svg"
 width="96.000000pt" height="84.000000pt" viewBox="0 0 96.000000 84.000000"
 preserveAspectRatio="xMidYMid meet">
<metadata>
Created by potrace 1.16, written by Peter Selinger 2001-2019
</metadata>
<g transform="translate(0.000000,84.000000) scale(0.100000,-0.100000)"
fill="#000000" stroke="none">
<path d="M384 465 c0 -164 -2 -207 -16 -242 -16 -40 -16 -41 8 -63 19 -19 26
-21 39 -10 8 7 15 26 15 42 l0 29 31 -23 c30 -23 31 -23 46 -3 15 20 14 56 -5
183 -5 29 -5 55 0 58 22 14 -1 127 -27 138 -17 6 -45 -19 -45 -40 0 -30 -19
-12 -26 24 -18 105 -21 92 -20 -93z m49 5 c4 -15 0 -20 -14 -20 -12 0 -19 7
-19 20 0 11 6 20 14 20 7 0 16 -9 19 -20z m-26 -72 c-3 -7 -5 -2 -5 12 0 14 2
19 5 13 2 -7 2 -19 0 -25z m21 -74 c-1 -51 -13 -58 -22 -13 -10 51 -8 69 9 63
10 -4 14 -20 13 -50z m6 -80 c3 -8 2 -12 -4 -9 -6 3 -10 10 -10 16 0 14 7 11
14 -7z"/>
<path d="M936 103 c-23 -66 -21 -103 4 -103 18 0 20 7 20 75 0 41 -2 75 -4 75
-2 0 -11 -21 -20 -47z"/>
<path d="M1 90 c0 -33 1 -34 11 -12 8 17 8 26 0 34 -9 9 -12 4 -11 -22z"/>
</g>
</svg>
