<?xml version="1.0" standalone="no"?>
<!DOCTYPE svg PUBLIC "-//W3C//DTD SVG 20010904//EN"
 "http://www.w3.org/TR/2001/REC-SVG-20010904/DTD/svg10.dtd">
<svg version="1.0" xmlns="http://www.w3.org/2000/svg"
 width="96.000000pt" height="84.000000pt" viewBox="0 0 96.000000 84.000000"
 preserveAspectRatio="xMidYMid meet">
<metadata>
Created by potrace 1.16, written by Peter Selinger 2001-2019
</metadata>
<g transform="translate(0.000000,84.000000) scale(0.100000,-0.100000)"
fill="#000000" stroke="none">
<path d="M382 558 c12 -157 11 -268 -2 -316 -10 -38 -9 -47 6 -63 22 -24 41
-24 54 1 9 16 15 18 30 10 44 -24 63 48 39 146 -7 28 -8 57 -2 82 11 47 -7
141 -29 156 -20 12 -48 -8 -48 -35 0 -11 -4 -19 -8 -19 -13 0 -32 63 -32 103
0 20 -3 37 -8 37 -4 0 -4 -46 0 -102z m58 -100 c0 -10 -11 -10 -29 1 -9 6 -11
16 -7 27 7 18 8 18 22 0 8 -11 14 -23 14 -28z m-10 -103 c0 -19 -4 -35 -10
-35 -5 0 -10 16 -10 35 0 19 5 35 10 35 6 0 10 -16 10 -35z m-3 -67 c-3 -8 -6
-5 -6 6 -1 11 2 17 5 13 3 -3 4 -12 1 -19z"/>
</g>
</svg>
