<?xml version="1.0" standalone="no"?>
<!DOCTYPE svg PUBLIC "-//W3C//DTD SVG 20010904//EN"
 "http://www.w3.org/TR/2001/REC-SVG-20010904/DTD/svg10.dtd">
<svg version="1.0" xmlns="http://www.w3.org/2000/svg"
 width="96.000000pt" height="84.000000pt" viewBox="0 0 96.000000 84.000000"
 preserveAspectRatio="xMidYMid meet">
<metadata>
Created by potrace 1.16, written by Peter Selinger 2001-2019
</metadata>
<g transform="translate(0.000000,84.000000) scale(0.100000,-0.100000)"
fill="#000000" stroke="none">
<path d="M376 625 c4 -22 8 -59 10 -82 1 -23 7 -57 13 -75 22 -71 30 -147 27
-235 -3 -80 -1 -94 15 -112 11 -12 23 -21 27 -21 17 0 32 25 32 51 0 15 5 31
10 34 13 8 3 351 -11 377 -17 32 -59 15 -59 -24 0 -10 -4 -18 -9 -18 -11 0
-41 62 -42 87 0 10 -5 27 -10 38 -7 14 -7 9 -3 -20z m64 -160 c0 -14 -4 -25
-9 -25 -12 0 -23 29 -15 41 10 18 24 9 24 -16z m-3 -97 c-3 -8 -6 -5 -6 6 -1
11 2 17 5 13 3 -3 4 -12 1 -19z"/>
</g>
</svg>
