<?xml version="1.0" standalone="no"?>
<!DOCTYPE svg PUBLIC "-//W3C//DTD SVG 20010904//EN"
 "http://www.w3.org/TR/2001/REC-SVG-20010904/DTD/svg10.dtd">
<svg version="1.0" xmlns="http://www.w3.org/2000/svg"
 width="96.000000pt" height="84.000000pt" viewBox="0 0 96.000000 84.000000"
 preserveAspectRatio="xMidYMid meet">
<metadata>
Created by potrace 1.16, written by Peter Selinger 2001-2019
</metadata>
<g transform="translate(0.000000,84.000000) scale(0.100000,-0.100000)"
fill="#000000" stroke="none">
<path d="M370 633 c0 -6 7 -30 15 -53 8 -23 15 -57 15 -75 0 -18 7 -38 15 -45
8 -7 15 -25 15 -41 0 -15 4 -30 9 -33 10 -7 2 -99 -10 -107 -5 -3 5 -31 21
-63 19 -35 30 -72 30 -97 0 -29 7 -47 24 -64 32 -32 53 -23 61 25 5 30 2 45
-14 67 -19 25 -21 48 -27 218 -6 180 -13 225 -34 225 -17 0 -40 -32 -40 -57 0
-26 0 -26 -20 -8 -11 10 -25 37 -32 59 -11 41 -28 70 -28 49z m79 -190 c0 -25
-1 -26 -9 -8 -12 27 -12 35 0 35 6 0 10 -12 9 -27z"/>
</g>
</svg>
