<?xml version="1.0" standalone="no"?>
<!DOCTYPE svg PUBLIC "-//W3C//DTD SVG 20010904//EN"
 "http://www.w3.org/TR/2001/REC-SVG-20010904/DTD/svg10.dtd">
<svg version="1.0" xmlns="http://www.w3.org/2000/svg"
 width="96.000000pt" height="84.000000pt" viewBox="0 0 96.000000 84.000000"
 preserveAspectRatio="xMidYMid meet">
<metadata>
Created by potrace 1.16, written by Peter Selinger 2001-2019
</metadata>
<g transform="translate(0.000000,84.000000) scale(0.100000,-0.100000)"
fill="#000000" stroke="none">
<path d="M386 565 c13 -31 24 -65 24 -76 0 -12 9 -32 19 -45 l20 -25 4 23 c2
13 2 -13 0 -57 -3 -44 -6 -100 -7 -125 -3 -68 34 -126 72 -113 6 3 12 -3 12
-12 0 -9 -5 -13 -11 -9 -6 3 -4 -7 4 -22 8 -16 17 -40 20 -54 7 -29 40 -52 61
-44 23 9 32 73 15 99 -8 12 -28 43 -45 69 -35 51 -37 68 -36 241 1 123 -10
175 -38 175 -26 0 -43 -26 -36 -56 6 -22 4 -25 -16 -22 -17 2 -30 18 -47 56
-33 70 -47 67 -15 -3z"/>
</g>
</svg>
