<?xml version="1.0" standalone="no"?>
<!DOCTYPE svg PUBLIC "-//W3C//DTD SVG 20010904//EN"
 "http://www.w3.org/TR/2001/REC-SVG-20010904/DTD/svg10.dtd">
<svg version="1.0" xmlns="http://www.w3.org/2000/svg"
 width="96.000000pt" height="84.000000pt" viewBox="0 0 96.000000 84.000000"
 preserveAspectRatio="xMidYMid meet">
<metadata>
Created by potrace 1.16, written by Peter Selinger 2001-2019
</metadata>
<g transform="translate(0.000000,84.000000) scale(0.100000,-0.100000)"
fill="#000000" stroke="none">
<path d="M370 605 c0 -3 11 -28 25 -55 14 -27 25 -61 25 -74 0 -14 12 -38 26
-53 22 -24 25 -34 20 -72 -3 -24 -6 -73 -6 -109 0 -59 -1 -63 -17 -51 -10 8
-2 -5 17 -28 18 -24 38 -44 44 -44 6 -1 22 -2 36 -3 15 -1 26 -8 28 -18 3 -14
-1 -16 -15 -11 -17 6 -17 5 -2 -13 9 -10 19 -31 23 -47 6 -24 11 -27 51 -27
45 0 45 0 45 34 0 23 -8 44 -25 62 -13 14 -38 47 -55 74 -31 48 -34 71 -29
215 2 68 -9 173 -21 195 -6 11 -17 20 -24 20 -23 0 -47 -36 -44 -66 2 -23 -1
-30 -18 -32 -18 -3 -26 7 -45 52 -12 31 -26 56 -31 56 -4 0 -8 -2 -8 -5z"/>
</g>
</svg>
