<?xml version="1.0" standalone="no"?>
<!DOCTYPE svg PUBLIC "-//W3C//DTD SVG 20010904//EN"
 "http://www.w3.org/TR/2001/REC-SVG-20010904/DTD/svg10.dtd">
<svg version="1.0" xmlns="http://www.w3.org/2000/svg"
 width="96.000000pt" height="84.000000pt" viewBox="0 0 96.000000 84.000000"
 preserveAspectRatio="xMidYMid meet">
<metadata>
Created by potrace 1.16, written by Peter Selinger 2001-2019
</metadata>
<g transform="translate(0.000000,84.000000) scale(0.100000,-0.100000)"
fill="#000000" stroke="none">
<path d="M411 545 c16 -36 29 -76 28 -88 -4 -49 1 -67 20 -67 26 0 31 -18 20
-73 -4 -25 -8 -80 -7 -122 0 -69 3 -79 27 -101 14 -13 38 -24 53 -24 18 0 28
-5 28 -15 0 -9 -6 -12 -16 -8 -15 5 -15 3 1 -20 15 -24 24 -27 71 -27 30 0 54
4 54 9 0 4 -11 20 -25 35 -66 72 -111 210 -83 256 13 21 -4 246 -21 278 -14
27 -42 28 -64 4 -20 -22 -22 -43 -5 -60 10 -10 10 -15 -2 -22 -27 -17 -41 -6
-65 50 -13 30 -28 56 -34 58 -6 2 3 -26 20 -63z m76 -137 c-3 -8 -6 -5 -6 6
-1 11 2 17 5 13 3 -3 4 -12 1 -19z"/>
</g>
</svg>
