<?xml version="1.0" standalone="no"?>
<!DOCTYPE svg PUBLIC "-//W3C//DTD SVG 20010904//EN"
 "http://www.w3.org/TR/2001/REC-SVG-20010904/DTD/svg10.dtd">
<svg version="1.0" xmlns="http://www.w3.org/2000/svg"
 width="96.000000pt" height="84.000000pt" viewBox="0 0 96.000000 84.000000"
 preserveAspectRatio="xMidYMid meet">
<metadata>
Created by potrace 1.16, written by Peter Selinger 2001-2019
</metadata>
<g transform="translate(0.000000,84.000000) scale(0.100000,-0.100000)"
fill="#000000" stroke="none">
<path d="M397 624 c-3 -3 6 -36 20 -72 14 -37 25 -83 24 -102 -1 -57 9 -89 24
-84 21 9 27 -32 21 -138 -3 -51 -5 -97 -6 -102 0 -4 -7 -5 -16 -2 -12 5 -14 3
-7 -6 5 -7 22 -32 38 -56 16 -24 34 -41 41 -38 7 3 18 -2 24 -10 7 -8 30 -14
52 -14 l40 0 -26 45 c-22 37 -26 57 -27 122 -1 43 2 85 5 94 10 24 -9 291 -23
317 -16 30 -56 29 -77 -3 -15 -23 -15 -27 -1 -49 14 -21 14 -26 2 -36 -28 -23
-51 -2 -74 70 -24 74 -24 73 -34 64z m113 -245 c0 -17 -4 -28 -10 -24 -5 3
-10 17 -10 31 0 13 5 24 10 24 6 0 10 -14 10 -31z"/>
</g>
</svg>
