<?xml version="1.0" standalone="no"?>
<!DOCTYPE svg PUBLIC "-//W3C//DTD SVG 20010904//EN"
 "http://www.w3.org/TR/2001/REC-SVG-20010904/DTD/svg10.dtd">
<svg version="1.0" xmlns="http://www.w3.org/2000/svg"
 width="96.000000pt" height="84.000000pt" viewBox="0 0 96.000000 84.000000"
 preserveAspectRatio="xMidYMid meet">
<metadata>
Created by potrace 1.16, written by Peter Selinger 2001-2019
</metadata>
<g transform="translate(0.000000,84.000000) scale(0.100000,-0.100000)"
fill="#000000" stroke="none">
<path d="M449 513 c-2 -334 -5 -427 -13 -470 -8 -41 -7 -43 16 -43 24 0 24 1
17 67 -12 101 -11 215 1 208 6 -3 10 -18 10 -33 0 -15 9 -41 19 -59 18 -29 19
-35 6 -90 -24 -97 -26 -93 65 -93 l79 0 -5 113 c-2 61 -4 144 -3 182 5 145 0
264 -11 284 -7 14 -21 21 -40 21 -52 0 -83 -53 -56 -95 30 -46 11 -49 -33 -4
-30 29 -31 34 -31 115 0 49 -4 84 -10 84 -6 0 -10 -70 -11 -187z m90 -181 c1
-22 -11 -24 -66 -6 -20 6 -15 34 6 34 10 0 25 7 32 16 12 14 14 14 20 -3 4
-10 8 -28 8 -41z"/>
</g>
</svg>
