<?xml version="1.0" standalone="no"?>
<!DOCTYPE svg PUBLIC "-//W3C//DTD SVG 20010904//EN"
 "http://www.w3.org/TR/2001/REC-SVG-20010904/DTD/svg10.dtd">
<svg version="1.0" xmlns="http://www.w3.org/2000/svg"
 width="96.000000pt" height="84.000000pt" viewBox="0 0 96.000000 84.000000"
 preserveAspectRatio="xMidYMid meet">
<metadata>
Created by potrace 1.16, written by Peter Selinger 2001-2019
</metadata>
<g transform="translate(0.000000,84.000000) scale(0.100000,-0.100000)"
fill="#000000" stroke="none">
<path d="M480 683 c0 -21 -9 -110 -21 -198 -11 -88 -24 -212 -30 -275 -5 -63
-16 -136 -24 -162 -14 -48 -14 -48 10 -48 22 0 23 3 23 78 0 43 3 102 8 132
l9 55 5 -60 5 -60 33 3 c37 4 36 6 17 -73 -8 -33 -15 -63 -15 -67 0 -5 38 -8
85 -8 l86 0 -7 88 c-7 97 -9 196 -5 353 3 147 -20 189 -86 157 -40 -19 -52
-60 -29 -99 21 -36 15 -48 -12 -23 -38 37 -45 62 -36 143 11 100 11 94 -3 99
-9 2 -13 -9 -13 -35z m2 -235 c-8 -8 -9 -4 -5 13 4 13 8 18 11 10 2 -7 -1 -18
-6 -23z m32 -99 c15 13 26 -4 26 -41 0 -17 -4 -19 -32 -13 -46 10 -48 12 -48
47 0 30 0 31 20 13 15 -14 23 -15 34 -6z"/>
</g>
</svg>
