<?xml version="1.0" standalone="no"?>
<!DOCTYPE svg PUBLIC "-//W3C//DTD SVG 20010904//EN"
 "http://www.w3.org/TR/2001/REC-SVG-20010904/DTD/svg10.dtd">
<svg version="1.0" xmlns="http://www.w3.org/2000/svg"
 width="96.000000pt" height="84.000000pt" viewBox="0 0 96.000000 84.000000"
 preserveAspectRatio="xMidYMid meet">
<metadata>
Created by potrace 1.16, written by Peter Selinger 2001-2019
</metadata>
<g transform="translate(0.000000,84.000000) scale(0.100000,-0.100000)"
fill="#000000" stroke="none">
<path d="M500 698 c-1 -18 -7 -69 -15 -113 -9 -44 -18 -102 -21 -130 -3 -27
-15 -83 -25 -124 -10 -41 -19 -91 -19 -111 0 -20 -5 -63 -10 -96 -21 -124 -21
-124 -8 -124 8 0 14 10 14 23 1 96 1 96 43 90 21 -3 48 0 60 6 26 14 26 7 7
-66 l-14 -53 84 0 84 0 0 58 c0 31 -5 86 -11 121 -7 46 -7 79 2 120 17 81 13
258 -6 288 -28 42 -104 22 -126 -34 -7 -18 -4 -34 11 -63 26 -51 25 -58 -3
-29 -47 50 -51 69 -33 167 19 109 19 102 1 102 -10 0 -15 -10 -15 -32z m3
-253 c-3 -8 -9 -15 -14 -15 -10 0 -12 24 -3 33 11 11 24 -3 17 -18z m-7 -110
c8 -11 20 -20 26 -20 13 0 30 -53 20 -59 -4 -2 -26 5 -48 14 l-42 18 9 44 c4
23 9 50 10 58 1 8 4 4 6 -10 3 -13 11 -34 19 -45z m-51 -160 c-4 -25 -10 -44
-12 -41 -3 3 -2 26 2 51 3 26 9 45 12 42 2 -3 1 -26 -2 -52z"/>
</g>
</svg>
