<?xml version="1.0" standalone="no"?>
<!DOCTYPE svg PUBLIC "-//W3C//DTD SVG 20010904//EN"
 "http://www.w3.org/TR/2001/REC-SVG-20010904/DTD/svg10.dtd">
<svg version="1.0" xmlns="http://www.w3.org/2000/svg"
 width="96.000000pt" height="84.000000pt" viewBox="0 0 96.000000 84.000000"
 preserveAspectRatio="xMidYMid meet">
<metadata>
Created by potrace 1.16, written by Peter Selinger 2001-2019
</metadata>
<g transform="translate(0.000000,84.000000) scale(0.100000,-0.100000)"
fill="#000000" stroke="none">
<path d="M519 738 c-2 -5 -39 -210 -49 -270 -16 -98 -42 -202 -52 -216 -6 -6
-10 -32 -10 -56 1 -25 -5 -78 -13 -118 -7 -40 -12 -74 -10 -76 9 -9 25 11 25
32 0 22 3 23 45 18 32 -3 52 0 70 12 26 17 26 17 19 -11 -3 -15 -7 -34 -10
-40 -2 -10 18 -13 83 -13 l86 0 -9 73 c-11 98 -10 149 5 235 19 107 12 264
-13 291 -29 32 -81 28 -117 -8 -34 -35 -35 -40 -9 -111 11 -30 20 -57 20 -59
0 -13 -42 37 -57 68 -18 36 -18 41 -2 122 21 99 23 129 9 129 -5 0 -10 -1 -11
-2z m-4 -297 c3 -5 -2 -16 -10 -24 -21 -21 -19 -75 4 -117 29 -51 42 -82 38
-86 -2 -3 -25 4 -50 13 -31 11 -47 23 -47 35 0 16 24 131 36 171 6 18 19 22
29 8z m-80 -301 c-9 -41 -17 -33 -9 9 4 17 9 30 11 27 3 -2 2 -19 -2 -36z"/>
</g>
</svg>
