<?xml version="1.0" standalone="no"?>
<!DOCTYPE svg PUBLIC "-//W3C//DTD SVG 20010904//EN"
 "http://www.w3.org/TR/2001/REC-SVG-20010904/DTD/svg10.dtd">
<svg version="1.0" xmlns="http://www.w3.org/2000/svg"
 width="96.000000pt" height="84.000000pt" viewBox="0 0 96.000000 84.000000"
 preserveAspectRatio="xMidYMid meet">
<metadata>
Created by potrace 1.16, written by Peter Selinger 2001-2019
</metadata>
<g transform="translate(0.000000,84.000000) scale(0.100000,-0.100000)"
fill="#000000" stroke="none">
<path d="M516 728 c-2 -7 -10 -53 -16 -102 -7 -50 -19 -104 -26 -121 -7 -17
-13 -45 -12 -61 0 -39 -42 -228 -53 -235 -5 -3 -11 -39 -13 -80 -2 -40 -7 -86
-11 -101 l-7 -28 172 0 172 0 -8 38 c-10 49 -10 57 15 270 29 258 13 322 -81
322 -49 0 -56 -4 -85 -45 -17 -24 -19 -35 -10 -55 6 -14 11 -36 12 -50 0 -14
4 -35 9 -47 12 -38 -20 -28 -34 10 -7 17 -17 42 -23 55 -8 17 -6 46 9 120 10
53 19 101 19 106 0 15 -25 19 -29 4z m4 -328 c0 -10 -7 -20 -15 -24 -8 -3 -15
-18 -15 -34 0 -31 27 -121 41 -137 5 -5 9 -17 9 -27 0 -16 -3 -16 -47 4 -27
13 -49 23 -50 23 -3 0 25 139 36 183 8 30 16 40 26 36 8 -4 15 -14 15 -24z
m-94 -326 c-4 -20 -10 -34 -12 -31 -3 3 -2 21 2 41 3 21 9 35 11 32 3 -3 2
-21 -1 -42z"/>
</g>
</svg>
