<?xml version="1.0" standalone="no"?>
<!DOCTYPE svg PUBLIC "-//W3C//DTD SVG 20010904//EN"
 "http://www.w3.org/TR/2001/REC-SVG-20010904/DTD/svg10.dtd">
<svg version="1.0" xmlns="http://www.w3.org/2000/svg"
 width="96.000000pt" height="84.000000pt" viewBox="0 0 96.000000 84.000000"
 preserveAspectRatio="xMidYMid meet">
<metadata>
Created by potrace 1.16, written by Peter Selinger 2001-2019
</metadata>
<g transform="translate(0.000000,84.000000) scale(0.100000,-0.100000)"
fill="#000000" stroke="none">
<path d="M509 728 c0 -2 -2 -12 -3 -23 -15 -118 -30 -201 -37 -206 -5 -3 -10
-25 -10 -50 -2 -54 -47 -269 -61 -286 -6 -7 -11 -47 -13 -88 -2 -58 1 -75 11
-75 9 0 14 11 14 29 0 17 5 33 11 37 9 5 10 -3 5 -30 l-7 -36 153 0 154 0 13
33 c13 31 33 283 35 442 2 126 -32 175 -120 175 -29 0 -44 -7 -71 -36 -28 -30
-33 -42 -28 -63 4 -14 9 -46 11 -70 3 -25 9 -50 14 -57 6 -6 8 -19 4 -28 -11
-29 -33 -17 -45 27 -7 23 -19 49 -26 58 -11 14 -10 32 7 120 24 125 24 129 5
129 -8 0 -15 -1 -16 -2z m9 -357 c14 -20 14 -22 -6 -28 -30 -7 -29 -66 2 -156
19 -57 20 -67 7 -61 -9 4 -31 12 -48 18 -23 7 -33 17 -33 31 0 42 44 225 53
222 6 -2 17 -13 25 -26z"/>
</g>
</svg>
