<?xml version="1.0" standalone="no"?>
<!DOCTYPE svg PUBLIC "-//W3C//DTD SVG 20010904//EN"
 "http://www.w3.org/TR/2001/REC-SVG-20010904/DTD/svg10.dtd">
<svg version="1.0" xmlns="http://www.w3.org/2000/svg"
 width="96.000000pt" height="84.000000pt" viewBox="0 0 96.000000 84.000000"
 preserveAspectRatio="xMidYMid meet">
<metadata>
Created by potrace 1.16, written by Peter Selinger 2001-2019
</metadata>
<g transform="translate(0.000000,84.000000) scale(0.100000,-0.100000)"
fill="#000000" stroke="none">
<path d="M483 609 c-7 -61 -17 -117 -23 -123 -5 -7 -12 -46 -14 -87 -5 -79
-43 -271 -56 -279 -13 -9 -22 -87 -11 -95 6 -3 9 -11 6 -16 -9 -13 19 -11 33
3 9 9 12 9 12 0 0 -18 359 -17 362 1 1 6 2 80 3 162 1 83 5 195 9 250 7 86 5
107 -11 149 -22 59 -56 87 -117 93 -42 5 -48 3 -81 -30 -37 -37 -46 -81 -22
-106 9 -10 9 -15 0 -18 -15 -5 -5 -75 13 -86 9 -5 10 -16 3 -39 -19 -69 -35
-58 -69 49 -22 72 -22 74 -6 168 20 119 20 115 -2 115 -15 0 -19 -16 -29 -111z
m37 -279 c0 -10 -9 -20 -20 -23 -14 -4 -20 -13 -20 -34 0 -27 22 -132 35 -164
6 -15 2 -15 -38 -2 -36 12 -43 18 -41 36 9 60 36 204 40 220 6 18 7 18 25 1
10 -9 19 -25 19 -34z"/>
</g>
</svg>
