<?xml version="1.0" standalone="no"?>
<!DOCTYPE svg PUBLIC "-//W3C//DTD SVG 20010904//EN"
 "http://www.w3.org/TR/2001/REC-SVG-20010904/DTD/svg10.dtd">
<svg version="1.0" xmlns="http://www.w3.org/2000/svg"
 width="96.000000pt" height="84.000000pt" viewBox="0 0 96.000000 84.000000"
 preserveAspectRatio="xMidYMid meet">
<metadata>
Created by potrace 1.16, written by Peter Selinger 2001-2019
</metadata>
<g transform="translate(0.000000,84.000000) scale(0.100000,-0.100000)"
fill="#000000" stroke="none">
<path d="M491 397 c-52 -18 -74 -55 -74 -124 1 -109 45 -163 109 -134 33 15
34 14 34 -8 0 -11 5 -23 12 -27 8 -5 9 2 5 23 -5 27 -2 32 29 46 45 22 57 55
43 112 -14 54 -72 125 -102 124 -12 0 -37 -5 -56 -12z"/>
</g>
</svg>
