<?xml version="1.0" standalone="no"?>
<!DOCTYPE svg PUBLIC "-//W3C//DTD SVG 20010904//EN"
 "http://www.w3.org/TR/2001/REC-SVG-20010904/DTD/svg10.dtd">
<svg version="1.0" xmlns="http://www.w3.org/2000/svg"
 width="96.000000pt" height="84.000000pt" viewBox="0 0 96.000000 84.000000"
 preserveAspectRatio="xMidYMid meet">
<metadata>
Created by potrace 1.16, written by Peter Selinger 2001-2019
</metadata>
<g transform="translate(0.000000,84.000000) scale(0.100000,-0.100000)"
fill="#000000" stroke="none">
<path d="M487 703 c-2 -4 -8 -51 -12 -103 -4 -52 -11 -103 -17 -113 -5 -10
-11 -49 -13 -86 -5 -92 -38 -280 -54 -306 -3 -5 -11 -29 -17 -53 l-11 -42 233
0 233 0 -5 38 c-8 63 -8 251 0 364 14 171 -15 246 -105 273 -43 12 -56 12 -82
1 -60 -25 -82 -72 -63 -134 4 -12 4 -22 -1 -22 -14 0 -2 -81 13 -87 18 -7 9
-58 -16 -90 l-19 -24 -16 58 c-9 32 -22 69 -29 83 -11 19 -11 42 -4 100 14
108 15 142 1 147 -6 2 -13 0 -16 -4z m23 -372 c13 -33 7 -51 -17 -51 -14 0
-15 -11 -10 -77 3 -43 8 -86 12 -95 6 -15 2 -18 -24 -18 -27 0 -31 3 -31 28 0
29 27 208 35 230 7 21 22 14 35 -17z"/>
</g>
</svg>
