<?xml version="1.0" standalone="no"?>
<!DOCTYPE svg PUBLIC "-//W3C//DTD SVG 20010904//EN"
 "http://www.w3.org/TR/2001/REC-SVG-20010904/DTD/svg10.dtd">
<svg version="1.0" xmlns="http://www.w3.org/2000/svg"
 width="96.000000pt" height="84.000000pt" viewBox="0 0 96.000000 84.000000"
 preserveAspectRatio="xMidYMid meet">
<metadata>
Created by potrace 1.16, written by Peter Selinger 2001-2019
</metadata>
<g transform="translate(0.000000,84.000000) scale(0.100000,-0.100000)"
fill="#000000" stroke="none">
<path d="M220 820 c6 -11 17 -20 24 -20 8 0 16 9 19 20 4 17 0 20 -24 20 -27
0 -29 -2 -19 -20z"/>
<path d="M487 702 c-3 -4 -8 -52 -11 -107 -4 -55 -12 -105 -18 -112 -5 -6 -11
-52 -13 -100 -3 -107 -32 -272 -51 -294 -8 -9 -12 -18 -9 -20 2 -3 1 -20 -4
-37 l-10 -32 230 0 229 0 -1 53 c0 28 -3 83 -8 121 -5 46 -3 94 5 140 26 145
9 272 -43 328 -50 53 -137 56 -190 6 -19 -18 -21 -31 -22 -115 0 -70 4 -95 14
-99 17 -7 11 -60 -8 -83 -8 -9 -16 -22 -19 -30 -2 -7 -10 6 -17 30 -7 24 -20
64 -28 88 -15 42 -14 113 3 222 5 27 2 38 -10 42 -8 3 -17 3 -19 -1z m33 -403
c0 -10 -7 -19 -15 -19 -26 0 -35 -43 -24 -115 10 -73 7 -87 -18 -78 -13 5 -15
17 -10 72 3 36 11 97 18 135 l12 70 18 -23 c11 -13 19 -32 19 -42z"/>
</g>
</svg>
