<?xml version="1.0" standalone="no"?>
<!DOCTYPE svg PUBLIC "-//W3C//DTD SVG 20010904//EN"
 "http://www.w3.org/TR/2001/REC-SVG-20010904/DTD/svg10.dtd">
<svg version="1.0" xmlns="http://www.w3.org/2000/svg"
 width="96.000000pt" height="84.000000pt" viewBox="0 0 96.000000 84.000000"
 preserveAspectRatio="xMidYMid meet">
<metadata>
Created by potrace 1.16, written by Peter Selinger 2001-2019
</metadata>
<g transform="translate(0.000000,84.000000) scale(0.100000,-0.100000)"
fill="#000000" stroke="none">
<path d="M245 800 c-3 -5 -12 -7 -20 -3 -17 6 -19 -10 -5 -38 13 -24 34 -8 36
27 2 26 -1 30 -11 14z"/>
<path d="M486 688 c-3 -7 -7 -53 -10 -103 -3 -55 -11 -103 -22 -123 -12 -25
-15 -47 -10 -83 7 -54 -17 -224 -38 -273 -8 -17 -17 -48 -21 -68 l-6 -38 228
0 228 0 -9 118 c-6 79 -5 145 3 203 15 117 14 172 -5 241 -33 116 -151 161
-230 87 -18 -17 -21 -32 -22 -114 -1 -74 2 -97 12 -101 19 -7 13 -52 -12 -93
l-19 -32 -10 28 c-42 116 -45 137 -35 228 6 50 11 95 12 100 5 22 -1 35 -15
35 -9 0 -17 -6 -19 -12z m29 -396 c5 -19 2 -25 -14 -29 -12 -3 -21 -12 -21
-21 0 -8 -3 -13 -6 -9 -3 3 -3 29 1 57 6 43 9 50 20 39 7 -8 16 -24 20 -37z
m-37 -144 c8 -54 8 -58 -11 -58 -13 0 -17 5 -13 16 3 9 6 39 7 67 1 61 5 54
17 -25z"/>
</g>
</svg>
