<?xml version="1.0" standalone="no"?>
<!DOCTYPE svg PUBLIC "-//W3C//DTD SVG 20010904//EN"
 "http://www.w3.org/TR/2001/REC-SVG-20010904/DTD/svg10.dtd">
<svg version="1.0" xmlns="http://www.w3.org/2000/svg"
 width="96.000000pt" height="84.000000pt" viewBox="0 0 96.000000 84.000000"
 preserveAspectRatio="xMidYMid meet">
<metadata>
Created by potrace 1.16, written by Peter Selinger 2001-2019
</metadata>
<g transform="translate(0.000000,84.000000) scale(0.100000,-0.100000)"
fill="#000000" stroke="none">
<path d="M216 772 c-4 -7 -12 -10 -17 -7 -5 4 -9 -3 -9 -13 0 -22 28 -38 42
-24 5 5 5 19 0 32 -6 16 -11 19 -16 12z"/>
<path d="M489 688 c-1 -7 -1 -16 0 -20 5 -35 -22 -201 -39 -235 -23 -49 -24
-57 -8 -82 14 -22 -17 -240 -37 -256 -6 -5 -12 -17 -12 -25 0 -9 -3 -28 -7
-43 l-6 -27 230 0 230 0 -6 42 c-10 62 -10 251 0 354 11 116 -10 211 -56 249
-60 51 -133 52 -185 3 -19 -18 -21 -31 -22 -115 0 -70 4 -95 14 -99 17 -7 11
-61 -10 -84 -8 -9 -15 -22 -15 -28 0 -24 -20 -11 -25 16 -3 15 -12 47 -21 72
-12 37 -12 62 -4 140 17 146 17 144 -2 148 -10 2 -19 -2 -19 -10z m21 -425 c0
-7 -10 -23 -21 -34 -18 -18 -21 -30 -17 -80 3 -42 1 -59 -8 -59 -13 0 -12 28
8 154 9 63 12 68 24 51 8 -10 14 -25 14 -32z"/>
</g>
</svg>
