<?xml version="1.0" standalone="no"?>
<!DOCTYPE svg PUBLIC "-//W3C//DTD SVG 20010904//EN"
 "http://www.w3.org/TR/2001/REC-SVG-20010904/DTD/svg10.dtd">
<svg version="1.0" xmlns="http://www.w3.org/2000/svg"
 width="96.000000pt" height="84.000000pt" viewBox="0 0 96.000000 84.000000"
 preserveAspectRatio="xMidYMid meet">
<metadata>
Created by potrace 1.16, written by Peter Selinger 2001-2019
</metadata>
<g transform="translate(0.000000,84.000000) scale(0.100000,-0.100000)"
fill="#000000" stroke="none">
<path d="M184 746 c-14 -16 0 -46 22 -46 8 0 13 4 10 9 -4 5 -1 11 6 13 9 3 8
9 -4 21 -20 20 -20 20 -34 3z"/>
<path d="M495 687 c-2 -6 -8 -62 -14 -123 -8 -72 -18 -124 -31 -149 -23 -44
-25 -66 -9 -82 14 -14 -16 -220 -36 -243 -7 -8 -15 -32 -18 -53 l-6 -37 231 0
230 0 -5 23 c-15 64 -18 227 -6 329 25 212 -28 326 -156 331 -38 2 -49 -3 -74
-28 -30 -31 -45 -82 -31 -106 5 -7 6 -18 2 -23 -10 -18 -2 -80 13 -92 16 -12
11 -61 -9 -84 -8 -8 -17 -26 -21 -39 -4 -12 -10 -19 -14 -15 -7 7 -26 85 -37
143 -3 16 11 162 21 213 5 27 3 37 -10 41 -9 4 -17 1 -20 -6z m-1 -434 c4 -9
0 -23 -9 -32 -13 -14 -15 -12 -15 17 0 34 14 43 24 15z"/>
</g>
</svg>
