<?xml version="1.0" standalone="no"?>
<!DOCTYPE svg PUBLIC "-//W3C//DTD SVG 20010904//EN"
 "http://www.w3.org/TR/2001/REC-SVG-20010904/DTD/svg10.dtd">
<svg version="1.0" xmlns="http://www.w3.org/2000/svg"
 width="96.000000pt" height="84.000000pt" viewBox="0 0 96.000000 84.000000"
 preserveAspectRatio="xMidYMid meet">
<metadata>
Created by potrace 1.16, written by Peter Selinger 2001-2019
</metadata>
<g transform="translate(0.000000,84.000000) scale(0.100000,-0.100000)"
fill="#000000" stroke="none">
<path d="M180 740 c0 -11 -4 -20 -10 -20 -5 0 -7 -7 -4 -15 8 -21 41 -19 46 3
2 9 -4 25 -14 35 -17 16 -18 16 -18 -3z"/>
<path d="M487 607 c-10 -119 -19 -177 -27 -172 -4 3 -15 -16 -25 -42 -17 -43
-17 -48 -1 -74 15 -26 15 -35 0 -126 -9 -54 -22 -105 -29 -113 -7 -8 -15 -30
-17 -47 l-5 -33 228 0 228 0 -5 48 c-18 170 -20 211 -12 252 27 137 3 309 -49
350 -63 49 -154 46 -191 -8 -21 -32 -28 -87 -12 -97 7 -5 8 -11 1 -19 -5 -6
-8 -21 -6 -31 2 -11 4 -30 4 -42 1 -13 7 -23 16 -23 11 0 13 -8 8 -32 -3 -18
-11 -40 -17 -48 -13 -16 -32 -55 -39 -80 -5 -16 -6 -10 -25 85 -11 55 -7 155
9 253 10 65 7 82 -15 82 -9 0 -15 -25 -19 -83z"/>
</g>
</svg>
