<?xml version="1.0" standalone="no"?>
<!DOCTYPE svg PUBLIC "-//W3C//DTD SVG 20010904//EN"
 "http://www.w3.org/TR/2001/REC-SVG-20010904/DTD/svg10.dtd">
<svg version="1.0" xmlns="http://www.w3.org/2000/svg"
 width="96.000000pt" height="84.000000pt" viewBox="0 0 96.000000 84.000000"
 preserveAspectRatio="xMidYMid meet">
<metadata>
Created by potrace 1.16, written by Peter Selinger 2001-2019
</metadata>
<g transform="translate(0.000000,84.000000) scale(0.100000,-0.100000)"
fill="#000000" stroke="none">
<path d="M168 715 c-6 -31 11 -48 33 -32 11 8 14 18 8 32 -4 11 -8 16 -8 11
-1 -5 -7 -3 -15 3 -11 9 -15 6 -18 -14z"/>
<path d="M630 683 c-8 -3 -27 -17 -42 -31 -22 -20 -28 -35 -28 -69 0 -24 5
-43 10 -43 6 0 6 -7 -1 -18 -14 -23 -4 -88 15 -95 15 -6 11 -52 -8 -77 -21
-28 -36 -60 -36 -75 0 -24 -29 -18 -35 7 -11 43 -3 204 15 322 10 62 7 76 -14
76 -9 0 -15 -26 -20 -87 -10 -134 -27 -219 -38 -199 -5 9 -6 21 -3 26 3 6 2
10 -4 10 -12 0 -41 -52 -41 -75 0 -8 12 -33 26 -55 26 -39 26 -40 10 -80 -9
-22 -16 -65 -16 -94 0 -31 -5 -58 -13 -64 -7 -6 -13 -22 -15 -36 l-2 -26 224
0 224 0 -4 38 c-21 186 -22 227 -13 280 6 31 9 98 7 147 -5 108 -31 176 -76
199 -34 18 -100 28 -122 19z"/>
</g>
</svg>
