<?xml version="1.0" standalone="no"?>
<!DOCTYPE svg PUBLIC "-//W3C//DTD SVG 20010904//EN"
 "http://www.w3.org/TR/2001/REC-SVG-20010904/DTD/svg10.dtd">
<svg version="1.0" xmlns="http://www.w3.org/2000/svg"
 width="96.000000pt" height="84.000000pt" viewBox="0 0 96.000000 84.000000"
 preserveAspectRatio="xMidYMid meet">
<metadata>
Created by potrace 1.16, written by Peter Selinger 2001-2019
</metadata>
<g transform="translate(0.000000,84.000000) scale(0.100000,-0.100000)"
fill="#000000" stroke="none">
<path d="M178 664 c6 -31 18 -39 36 -22 17 18 6 42 -20 45 -17 2 -20 -2 -16
-23z"/>
<path d="M592 655 c-41 -36 -53 -84 -30 -113 8 -9 8 -16 1 -23 -15 -15 2 -80
23 -96 11 -8 13 -13 5 -13 -7 0 -9 -5 -5 -11 4 -7 -5 -35 -19 -63 -14 -28 -29
-59 -32 -70 -5 -18 -6 -18 -26 0 -17 15 -20 26 -15 59 4 22 9 83 12 135 3 52
10 115 14 140 5 25 5 49 0 54 -14 14 -43 -2 -36 -20 6 -15 -10 -204 -20 -237
-5 -16 -7 -15 -25 5 l-20 23 6 -22 c4 -13 4 -23 1 -23 -3 0 -9 15 -14 33 l-9
32 -16 -32 c-24 -46 -21 -71 14 -110 29 -34 30 -36 12 -55 -18 -20 -19 -31
-12 -185 l2 -63 215 0 215 0 -9 103 c-10 123 -10 173 1 297 6 80 5 105 -11
159 -22 75 -48 106 -100 120 -62 17 -81 13 -122 -24z"/>
</g>
</svg>
