<?xml version="1.0" standalone="no"?>
<!DOCTYPE svg PUBLIC "-//W3C//DTD SVG 20010904//EN"
 "http://www.w3.org/TR/2001/REC-SVG-20010904/DTD/svg10.dtd">
<svg version="1.0" xmlns="http://www.w3.org/2000/svg"
 width="96.000000pt" height="84.000000pt" viewBox="0 0 96.000000 84.000000"
 preserveAspectRatio="xMidYMid meet">
<metadata>
Created by potrace 1.16, written by Peter Selinger 2001-2019
</metadata>
<g transform="translate(0.000000,84.000000) scale(0.100000,-0.100000)"
fill="#000000" stroke="none">
<path d="M609 676 c-14 -9 -34 -26 -43 -40 -18 -29 -21 -87 -5 -103 7 -7 7
-13 1 -17 -11 -6 3 -86 17 -96 22 -16 -31 -149 -61 -150 -9 0 -19 -6 -22 -12
-3 -7 -4 14 -1 47 7 84 18 263 19 305 1 25 -3 35 -14 35 -11 0 -16 -13 -17
-45 -5 -106 -26 -300 -32 -295 -3 4 -13 27 -22 53 -18 54 -64 96 -79 72 -5 -8
-13 -30 -16 -49 -6 -31 -3 -37 30 -64 36 -29 36 -30 19 -49 -24 -27 -24 -144
1 -215 l18 -53 214 0 214 0 0 31 c0 17 -5 74 -11 126 -9 73 -9 120 1 198 17
151 -8 262 -71 308 -35 25 -106 32 -140 13z m-219 -276 c0 -5 -2 -10 -4 -10
-3 0 -8 5 -11 10 -3 6 -1 10 4 10 6 0 11 -4 11 -10z m149 -377 c1 -7 -6 -13
-14 -13 -17 0 -18 4 -8 39 6 23 7 23 14 5 4 -10 8 -25 8 -31z"/>
<path d="M226 641 c-4 -6 -12 -8 -18 -5 -7 4 -8 -2 -3 -17 11 -34 28 -42 37
-18 9 24 -5 58 -16 40z"/>
</g>
</svg>
