<?xml version="1.0" standalone="no"?>
<!DOCTYPE svg PUBLIC "-//W3C//DTD SVG 20010904//EN"
 "http://www.w3.org/TR/2001/REC-SVG-20010904/DTD/svg10.dtd">
<svg version="1.0" xmlns="http://www.w3.org/2000/svg"
 width="96.000000pt" height="84.000000pt" viewBox="0 0 96.000000 84.000000"
 preserveAspectRatio="xMidYMid meet">
<metadata>
Created by potrace 1.16, written by Peter Selinger 2001-2019
</metadata>
<g transform="translate(0.000000,84.000000) scale(0.100000,-0.100000)"
fill="#000000" stroke="none">
<path d="M614 681 c-36 -16 -72 -70 -68 -103 2 -17 8 -36 14 -43 6 -7 6 -15 0
-21 -11 -11 4 -84 19 -93 24 -15 -32 -146 -58 -136 -8 3 -18 0 -22 -7 -9 -14
-3 112 11 256 10 92 8 106 -14 106 -9 0 -15 -29 -19 -104 -4 -58 -10 -136 -13
-174 l-7 -69 -22 21 c-12 12 -31 39 -43 62 -24 47 -64 71 -82 49 -6 -7 -10
-31 -8 -52 3 -36 15 -49 63 -66 6 -2 1 -14 -10 -27 -27 -30 -27 -141 -1 -222
l19 -58 43 0 c42 0 44 1 70 52 28 56 38 53 49 -14 l7 -38 144 0 c131 0 144 2
144 18 -1 9 -7 69 -14 132 -8 76 -9 133 -3 170 5 30 7 98 5 150 -5 105 -24
159 -69 193 -30 22 -103 31 -135 18z"/>
<path d="M242 604 c-11 -12 -10 -17 2 -29 21 -22 36 -18 36 9 0 29 -20 39 -38
20z"/>
</g>
</svg>
