<?xml version="1.0" standalone="no"?>
<!DOCTYPE svg PUBLIC "-//W3C//DTD SVG 20010904//EN"
 "http://www.w3.org/TR/2001/REC-SVG-20010904/DTD/svg10.dtd">
<svg version="1.0" xmlns="http://www.w3.org/2000/svg"
 width="96.000000pt" height="84.000000pt" viewBox="0 0 96.000000 84.000000"
 preserveAspectRatio="xMidYMid meet">
<metadata>
Created by potrace 1.16, written by Peter Selinger 2001-2019
</metadata>
<g transform="translate(0.000000,84.000000) scale(0.100000,-0.100000)"
fill="#000000" stroke="none">
<path d="M456 361 c-10 -11 -27 -46 -37 -77 -16 -49 -17 -60 -5 -88 15 -35 66
-83 105 -98 40 -15 69 -2 91 42 12 23 28 40 37 40 13 0 14 3 5 12 -7 7 -9 31
-6 67 6 53 4 58 -25 85 -25 24 -42 31 -89 34 -48 3 -60 1 -76 -17z"/>
</g>
</svg>
