<?xml version="1.0" standalone="no"?>
<!DOCTYPE svg PUBLIC "-//W3C//DTD SVG 20010904//EN"
 "http://www.w3.org/TR/2001/REC-SVG-20010904/DTD/svg10.dtd">
<svg version="1.0" xmlns="http://www.w3.org/2000/svg"
 width="96.000000pt" height="84.000000pt" viewBox="0 0 96.000000 84.000000"
 preserveAspectRatio="xMidYMid meet">
<metadata>
Created by potrace 1.16, written by Peter Selinger 2001-2019
</metadata>
<g transform="translate(0.000000,84.000000) scale(0.100000,-0.100000)"
fill="#000000" stroke="none">
<path d="M614 681 c-38 -17 -71 -69 -68 -108 1 -20 8 -39 14 -43 8 -5 9 -10 2
-14 -14 -8 -3 -78 14 -92 29 -24 -18 -128 -62 -137 -25 -4 -25 -3 -20 42 3 25
7 104 8 176 3 110 1 130 -12 130 -11 0 -15 -13 -16 -50 -2 -99 -16 -279 -23
-299 -7 -18 -9 -16 -19 12 -6 18 -18 32 -26 32 -8 0 -21 10 -27 23 -6 12 -29
39 -50 60 -36 35 -39 36 -49 18 -18 -35 -1 -80 36 -96 30 -12 48 -45 25 -45
-17 0 -34 -61 -32 -117 1 -63 5 -81 28 -135 16 -37 17 -38 70 -38 47 0 53 2
53 20 0 12 10 39 21 62 l21 42 14 -25 c7 -13 16 -41 19 -61 l7 -38 140 0 141
0 -8 108 c-10 122 -10 142 -1 307 6 111 5 124 -16 174 -13 30 -34 62 -48 73
-29 21 -106 32 -136 19z"/>
<path d="M263 584 c-9 -19 -8 -24 3 -24 8 0 14 -4 14 -10 0 -5 7 -7 15 -4 19
8 15 52 -5 57 -10 2 -20 -5 -27 -19z"/>
</g>
</svg>
