<?xml version="1.0" standalone="no"?>
<!DOCTYPE svg PUBLIC "-//W3C//DTD SVG 20010904//EN"
 "http://www.w3.org/TR/2001/REC-SVG-20010904/DTD/svg10.dtd">
<svg version="1.0" xmlns="http://www.w3.org/2000/svg"
 width="96.000000pt" height="84.000000pt" viewBox="0 0 96.000000 84.000000"
 preserveAspectRatio="xMidYMid meet">
<metadata>
Created by potrace 1.16, written by Peter Selinger 2001-2019
</metadata>
<g transform="translate(0.000000,84.000000) scale(0.100000,-0.100000)"
fill="#000000" stroke="none">
<path d="M582 653 c-41 -43 -52 -91 -27 -117 9 -8 11 -17 6 -21 -13 -8 -2 -78
15 -91 27 -22 -23 -141 -54 -129 -8 3 -21 0 -30 -7 -13 -11 -14 -10 -9 7 4 11
9 81 11 156 3 75 8 143 11 151 7 19 -20 44 -30 28 -4 -6 -8 -46 -10 -88 -1
-42 -6 -129 -10 -192 l-8 -115 -26 53 c-16 33 -30 51 -39 47 -7 -3 -21 10 -34
31 -14 23 -30 37 -50 41 -19 4 -27 10 -24 19 7 19 -10 26 -24 9 -21 -26 -3
-74 36 -90 42 -17 52 -40 30 -64 -43 -47 -39 -190 6 -252 20 -26 27 -29 80
-29 l58 0 0 35 c0 32 23 95 35 95 9 0 33 -57 40 -93 l7 -37 140 0 141 0 -9
103 c-5 56 -7 136 -4 177 19 309 -9 391 -139 407 -50 6 -52 5 -89 -34z"/>
<path d="M273 586 c3 -7 0 -19 -6 -26 -9 -10 -8 -12 5 -7 9 3 19 1 22 -6 3 -9
7 -8 14 2 14 20 2 51 -20 51 -13 0 -18 -5 -15 -14z"/>
</g>
</svg>
