<?xml version="1.0" standalone="no"?>
<!DOCTYPE svg PUBLIC "-//W3C//DTD SVG 20010904//EN"
 "http://www.w3.org/TR/2001/REC-SVG-20010904/DTD/svg10.dtd">
<svg version="1.0" xmlns="http://www.w3.org/2000/svg"
 width="96.000000pt" height="84.000000pt" viewBox="0 0 96.000000 84.000000"
 preserveAspectRatio="xMidYMid meet">
<metadata>
Created by potrace 1.16, written by Peter Selinger 2001-2019
</metadata>
<g transform="translate(0.000000,84.000000) scale(0.100000,-0.100000)"
fill="#000000" stroke="none">
<path d="M0 785 c0 -17 2 -18 24 -9 18 7 12 24 -10 24 -8 0 -14 -7 -14 -15z"/>
<path d="M5 740 c-4 -6 5 -10 19 -10 14 0 26 5 26 10 0 6 -9 10 -19 10 -11 0
-23 -4 -26 -10z"/>
<path d="M580 653 c-31 -32 -40 -48 -40 -75 0 -19 3 -38 7 -42 4 -4 8 -27 8
-53 1 -29 8 -50 17 -57 19 -14 13 -57 -14 -101 -13 -23 -25 -30 -49 -30 -28 0
-30 2 -25 30 9 51 11 290 2 303 -17 28 -23 -6 -30 -165 -4 -92 -9 -183 -13
-202 l-6 -35 -29 57 c-15 31 -35 57 -42 57 -8 0 -25 14 -38 30 -16 20 -34 31
-54 33 -22 1 -30 8 -34 27 l-6 25 -12 -22 c-19 -35 -5 -70 33 -83 55 -18 62
-34 35 -81 -20 -36 -22 -51 -18 -125 4 -76 7 -87 33 -114 31 -32 80 -41 103
-18 9 9 12 9 12 0 0 -7 9 -12 20 -12 17 0 20 7 20 45 0 26 7 60 16 77 l16 31
19 -42 c10 -23 21 -57 25 -76 l6 -35 140 0 141 0 -9 108 c-10 125 -10 150 0
297 6 100 5 116 -16 174 -27 77 -54 99 -125 108 -51 6 -54 5 -93 -34z"/>
<path d="M285 572 c-5 -4 -11 -17 -12 -28 -3 -25 26 -28 41 -5 10 16 -14 44
-29 33z"/>
<path d="M0 276 l0 -65 38 6 c88 14 92 40 15 90 l-53 34 0 -65z"/>
</g>
</svg>
