<?xml version="1.0" standalone="no"?>
<!DOCTYPE svg PUBLIC "-//W3C//DTD SVG 20010904//EN"
 "http://www.w3.org/TR/2001/REC-SVG-20010904/DTD/svg10.dtd">
<svg version="1.0" xmlns="http://www.w3.org/2000/svg"
 width="96.000000pt" height="84.000000pt" viewBox="0 0 96.000000 84.000000"
 preserveAspectRatio="xMidYMid meet">
<metadata>
Created by potrace 1.16, written by Peter Selinger 2001-2019
</metadata>
<g transform="translate(0.000000,84.000000) scale(0.100000,-0.100000)"
fill="#000000" stroke="none">
<path d="M0 472 l0 -370 40 10 c22 6 40 14 40 19 0 5 10 9 23 9 28 0 83 33
124 76 57 57 42 100 -50 145 -64 31 -129 86 -152 129 -14 26 -9 80 6 80 5 0 9
9 9 19 0 11 5 23 11 27 6 3 9 15 6 25 -4 16 0 19 30 19 20 0 32 4 28 10 -3 6
-19 10 -36 10 -44 0 -35 18 11 22 51 4 53 21 3 28 -53 8 -62 16 -69 61 -17
107 -24 19 -24 -319z"/>
<path d="M603 677 c-39 -22 -63 -63 -63 -106 0 -23 5 -41 11 -41 6 0 8 -8 4
-20 -9 -29 5 -90 21 -90 18 0 8 -52 -19 -97 -21 -36 -27 -39 -45 -21 -10 10
-15 10 -23 -2 -6 -10 -8 42 -6 158 4 163 3 172 -14 172 -17 0 -19 -9 -19 -102
0 -139 -11 -298 -21 -293 -4 3 -21 30 -38 60 -18 32 -36 53 -42 49 -6 -3 -25
10 -44 30 -31 35 -65 48 -65 25 0 -5 -4 -7 -10 -4 -5 3 -10 18 -10 31 0 34
-24 26 -28 -9 -4 -35 14 -67 39 -67 11 0 31 -11 45 -25 l25 -25 -20 -26 c-27
-35 -34 -75 -26 -152 6 -55 12 -70 37 -94 38 -36 90 -38 112 -6 l16 22 0 -22
c0 -15 6 -22 20 -22 18 0 20 7 20 59 0 49 4 65 24 88 22 24 24 25 20 7 -3 -12
1 -35 9 -51 9 -16 18 -45 22 -66 l7 -37 141 0 140 0 -8 107 c-5 60 -8 128 -8
153 1 25 3 99 5 165 3 113 1 123 -24 178 -21 45 -35 61 -62 72 -42 18 -93 19
-123 2z"/>
<path d="M259 538 c-10 -7 -11 -11 -2 -14 7 -3 9 -12 6 -20 -3 -8 0 -14 6 -14
6 0 11 5 11 11 0 5 5 7 10 4 6 -3 10 -4 10 -1 0 2 3 11 6 19 6 18 -28 29 -47
15z"/>
<path d="M2 30 c0 -14 2 -19 5 -12 2 6 2 18 0 25 -3 6 -5 1 -5 -13z"/>
</g>
</svg>
