<?xml version="1.0" standalone="no"?>
<!DOCTYPE svg PUBLIC "-//W3C//DTD SVG 20010904//EN"
 "http://www.w3.org/TR/2001/REC-SVG-20010904/DTD/svg10.dtd">
<svg version="1.0" xmlns="http://www.w3.org/2000/svg"
 width="96.000000pt" height="84.000000pt" viewBox="0 0 96.000000 84.000000"
 preserveAspectRatio="xMidYMid meet">
<metadata>
Created by potrace 1.16, written by Peter Selinger 2001-2019
</metadata>
<g transform="translate(0.000000,84.000000) scale(0.100000,-0.100000)"
fill="#000000" stroke="none">
<path d="M50 829 c0 -7 -10 -9 -25 -7 -25 5 -25 5 -25 -74 0 -76 8 -108 36
-135 7 -7 16 -38 19 -68 7 -52 5 -57 -24 -90 l-31 -36 0 -159 0 -160 25 -6
c29 -7 31 -21 9 -52 -21 -31 -10 -42 41 -42 41 0 45 3 51 28 12 56 20 65 67
77 49 13 57 8 57 -36 0 -35 48 -69 96 -69 37 0 46 4 58 28 l15 27 1 -27 c0
-21 5 -28 20 -28 18 0 20 7 20 68 0 61 3 71 26 93 l26 24 -7 -26 c-4 -17 -1
-38 8 -56 9 -16 18 -45 22 -66 l7 -37 141 0 140 0 -8 108 c-9 111 -9 147 -4
322 3 94 1 111 -22 164 -28 67 -68 96 -132 96 -49 0 -71 -12 -101 -56 -26 -38
-28 -91 -4 -105 10 -6 10 -11 2 -19 -13 -13 2 -80 21 -92 15 -9 7 -64 -11 -79
-8 -6 -14 -17 -14 -24 0 -17 -27 -27 -36 -14 -3 6 -13 8 -21 5 -13 -6 -15 14
-11 159 3 130 1 166 -10 170 -19 7 -20 -1 -26 -203 -3 -101 -9 -188 -12 -194
-4 -6 -24 17 -46 51 -23 37 -45 61 -56 61 -10 0 -28 14 -40 30 -22 29 -62 41
-62 19 0 -8 -5 -8 -15 1 -8 7 -15 21 -15 31 0 24 -16 25 -25 2 -6 -16 -8 -15
-20 7 -7 14 -16 44 -20 67 -5 34 -3 44 8 49 21 8 28 41 11 55 -8 7 -12 14 -9
17 3 3 -5 17 -17 30 -23 26 -22 26 27 6 9 -4 15 -1 15 9 0 8 -11 17 -23 21
-19 4 -26 17 -37 60 -7 30 -10 61 -7 70 5 12 0 16 -23 16 -17 0 -30 -5 -30
-11z m223 -511 c11 -12 14 -24 9 -26 -12 -4 -92 47 -92 59 0 15 65 -11 83 -33z"/>
<path d="M236 514 c-3 -8 1 -22 9 -30 8 -9 15 -11 15 -5 0 5 8 11 17 13 15 3
15 4 -1 21 -22 21 -32 22 -40 1z"/>
</g>
</svg>
