<?xml version="1.0" standalone="no"?>
<!DOCTYPE svg PUBLIC "-//W3C//DTD SVG 20010904//EN"
 "http://www.w3.org/TR/2001/REC-SVG-20010904/DTD/svg10.dtd">
<svg version="1.0" xmlns="http://www.w3.org/2000/svg"
 width="96.000000pt" height="84.000000pt" viewBox="0 0 96.000000 84.000000"
 preserveAspectRatio="xMidYMid meet">
<metadata>
Created by potrace 1.16, written by Peter Selinger 2001-2019
</metadata>
<g transform="translate(0.000000,84.000000) scale(0.100000,-0.100000)"
fill="#000000" stroke="none">
<path d="M130 820 c-6 -11 -9 -24 -6 -29 3 -5 -4 -17 -15 -27 -15 -13 -19 -26
-15 -46 4 -20 -2 -39 -19 -64 -28 -41 -36 -84 -9 -49 8 11 19 27 25 35 8 13
10 13 19 0 5 -8 15 -40 21 -70 11 -51 10 -58 -11 -95 -13 -22 -34 -62 -47 -89
-13 -26 -35 -65 -49 -87 -20 -33 -24 -51 -24 -122 0 -80 1 -84 25 -95 14 -7
48 -12 75 -12 l50 0 0 -35 c0 -30 3 -35 23 -35 19 0 22 5 22 42 0 37 3 43 23
46 17 3 22 -2 22 -18 0 -11 11 -32 25 -45 19 -20 34 -25 72 -25 42 0 51 4 65
28 l17 27 1 -27 c0 -21 5 -28 20 -28 18 0 20 7 20 68 0 45 5 75 16 90 21 30
38 28 30 -3 -4 -14 0 -37 8 -53 8 -15 17 -44 21 -65 l7 -37 141 0 140 0 -8
103 c-5 56 -9 183 -9 282 -1 169 -2 183 -25 228 -28 56 -62 77 -124 77 -86 0
-153 -94 -113 -156 9 -12 12 -25 7 -28 -12 -8 9 -87 24 -93 15 -5 10 -35 -13
-80 -17 -33 -35 -42 -47 -22 -5 7 -12 5 -23 -5 -16 -14 -17 -3 -12 147 5 157
0 201 -23 178 -6 -6 -9 -39 -8 -73 4 -96 -10 -318 -21 -318 -5 0 -25 27 -46
59 -25 41 -43 59 -56 58 -24 -2 -96 121 -77 133 9 5 8 11 -4 24 -11 10 -14 23
-10 34 4 9 6 62 5 117 -1 55 -2 111 -2 125 0 36 -16 50 -59 50 -28 0 -41 -5
-49 -20z"/>
</g>
</svg>
