<?xml version="1.0" standalone="no"?>
<!DOCTYPE svg PUBLIC "-//W3C//DTD SVG 20010904//EN"
 "http://www.w3.org/TR/2001/REC-SVG-20010904/DTD/svg10.dtd">
<svg version="1.0" xmlns="http://www.w3.org/2000/svg"
 width="96.000000pt" height="84.000000pt" viewBox="0 0 96.000000 84.000000"
 preserveAspectRatio="xMidYMid meet">
<metadata>
Created by potrace 1.16, written by Peter Selinger 2001-2019
</metadata>
<g transform="translate(0.000000,84.000000) scale(0.100000,-0.100000)"
fill="#000000" stroke="none">
<path d="M206 800 l7 -40 -55 0 c-60 0 -70 -4 -61 -27 4 -11 15 -13 44 -8 38
7 39 6 39 -24 0 -19 -5 -31 -13 -31 -7 0 -22 -7 -33 -15 -18 -15 -18 -15 -1
-29 13 -10 17 -21 12 -35 -5 -15 -2 -21 9 -21 24 0 21 -81 -4 -127 -11 -21
-20 -44 -20 -51 0 -21 -58 -151 -80 -179 -11 -14 -20 -29 -20 -33 0 -12 77
-50 103 -50 19 0 26 -7 31 -27 4 -16 12 -45 17 -65 l10 -38 93 0 94 0 22 33
21 32 -6 -32 c-6 -28 -4 -33 13 -33 17 0 20 8 24 69 2 50 9 75 22 90 26 29 33
26 28 -8 -2 -17 3 -39 12 -53 9 -12 16 -39 16 -60 l0 -38 140 0 c140 0 148 2
140 35 -2 6 -4 125 -5 265 -2 218 -4 261 -20 298 -26 63 -66 92 -126 92 -61 0
-82 -10 -112 -56 -27 -39 -28 -91 -1 -111 10 -7 11 -13 5 -18 -12 -7 -5 -50
14 -80 16 -25 11 -66 -10 -99 -19 -28 -30 -32 -40 -15 -5 7 -13 4 -26 -7 -18
-16 -18 -12 -16 157 2 149 0 174 -13 174 -13 0 -16 -30 -21 -190 -3 -104 -6
-192 -7 -195 -2 -3 -11 9 -20 26 -9 17 -35 46 -56 65 -21 18 -45 47 -53 64 -8
16 -25 45 -38 64 -27 37 -26 59 5 121 37 76 50 112 50 145 0 18 5 37 10 40 6
3 10 15 10 26 0 18 -4 20 -45 13 -38 -5 -45 -4 -45 10 0 10 -9 16 -25 16 -24
0 -25 -2 -19 -40z m11 -732 c-3 -8 -6 -5 -6 6 -1 11 2 17 5 13 3 -3 4 -12 1
-19z"/>
</g>
</svg>
