<?xml version="1.0" standalone="no"?>
<!DOCTYPE svg PUBLIC "-//W3C//DTD SVG 20010904//EN"
 "http://www.w3.org/TR/2001/REC-SVG-20010904/DTD/svg10.dtd">
<svg version="1.0" xmlns="http://www.w3.org/2000/svg"
 width="96.000000pt" height="84.000000pt" viewBox="0 0 96.000000 84.000000"
 preserveAspectRatio="xMidYMid meet">
<metadata>
Created by potrace 1.16, written by Peter Selinger 2001-2019
</metadata>
<g transform="translate(0.000000,84.000000) scale(0.100000,-0.100000)"
fill="#000000" stroke="none">
<path d="M223 825 c-19 -13 -21 -22 -18 -106 2 -50 -1 -105 -6 -122 -8 -27 -6
-34 11 -46 30 -20 24 -54 -20 -109 -46 -59 -76 -82 -106 -82 -11 0 -35 -5 -53
-11 -28 -10 -31 -15 -31 -53 0 -37 6 -48 60 -105 l61 -63 71 4 70 4 -6 -68 -6
-68 55 0 c52 0 57 2 75 32 l20 33 0 -32 c0 -26 4 -33 20 -33 18 0 20 7 20 68
0 45 5 75 16 90 23 33 34 27 34 -17 0 -22 4 -42 9 -45 5 -3 12 -26 15 -51 l7
-45 134 0 c121 0 134 2 139 18 4 10 1 63 -4 118 -6 56 -8 161 -4 244 6 132 4
151 -15 205 -29 82 -57 105 -129 105 -64 0 -94 -15 -117 -60 -21 -40 -19 -97
2 -109 13 -7 14 -12 6 -23 -8 -9 -7 -23 4 -50 8 -21 18 -38 22 -38 13 0 -1
-69 -18 -84 -15 -14 -20 -12 -49 11 l-33 26 2 127 c2 126 -3 154 -24 147 -8
-2 -11 -37 -9 -113 1 -60 -1 -115 -6 -122 -7 -10 -21 0 -56 40 l-48 53 5 65
c8 94 13 103 53 97 28 -5 34 -3 34 13 0 12 -8 20 -25 22 -14 2 -24 8 -23 13 3
11 11 11 106 0 50 -5 62 -4 62 8 0 10 -19 16 -76 20 -81 6 -124 26 -124 56 0
39 -11 51 -49 51 -20 0 -46 -7 -58 -15z"/>
</g>
</svg>
