<?xml version="1.0" standalone="no"?>
<!DOCTYPE svg PUBLIC "-//W3C//DTD SVG 20010904//EN"
 "http://www.w3.org/TR/2001/REC-SVG-20010904/DTD/svg10.dtd">
<svg version="1.0" xmlns="http://www.w3.org/2000/svg"
 width="96.000000pt" height="84.000000pt" viewBox="0 0 96.000000 84.000000"
 preserveAspectRatio="xMidYMid meet">
<metadata>
Created by potrace 1.16, written by Peter Selinger 2001-2019
</metadata>
<g transform="translate(0.000000,84.000000) scale(0.100000,-0.100000)"
fill="#000000" stroke="none">
<path d="M210 816 c0 -13 6 -26 14 -29 9 -4 12 -15 8 -32 -2 -14 3 -44 13 -65
16 -36 17 -42 2 -72 -16 -34 -13 -56 4 -25 17 29 24 20 38 -44 12 -60 12 -61
-16 -97 -57 -75 -98 -114 -146 -138 -49 -25 -77 -66 -77 -113 0 -36 105 -90
175 -91 72 -1 93 -23 59 -61 -30 -34 -11 -49 61 -48 l65 1 0 54 c0 53 0 54 30
54 35 0 50 -23 50 -74 l0 -36 138 0 139 0 -3 271 c-3 298 -10 342 -66 396 -23
22 -37 27 -79 26 -65 -1 -96 -18 -121 -66 -19 -38 -19 -107 0 -107 5 0 8 -16
9 -35 1 -20 8 -46 17 -59 14 -22 14 -65 0 -88 -9 -14 -84 36 -91 61 -3 13 -3
71 0 128 5 98 4 106 -14 110 -10 3 -19 9 -19 14 0 5 -7 9 -15 9 -8 0 -15 7
-15 15 0 18 5 18 31 5 25 -14 26 4 1 22 -22 15 -42 69 -42 109 0 26 -3 29 -33
29 -18 0 -38 -5 -44 -11 -8 -8 -13 -8 -17 0 -4 6 -18 11 -32 11 -19 0 -24 -5
-24 -24z m190 -313 c0 -41 -3 -54 -10 -43 -13 20 -13 100 0 100 6 0 10 -26 10
-57z"/>
</g>
</svg>
