<?xml version="1.0" standalone="no"?>
<!DOCTYPE svg PUBLIC "-//W3C//DTD SVG 20010904//EN"
 "http://www.w3.org/TR/2001/REC-SVG-20010904/DTD/svg10.dtd">
<svg version="1.0" xmlns="http://www.w3.org/2000/svg"
 width="96.000000pt" height="84.000000pt" viewBox="0 0 96.000000 84.000000"
 preserveAspectRatio="xMidYMid meet">
<metadata>
Created by potrace 1.16, written by Peter Selinger 2001-2019
</metadata>
<g transform="translate(0.000000,84.000000) scale(0.100000,-0.100000)"
fill="#000000" stroke="none">
<path d="M284 826 c-3 -8 -2 -22 3 -31 9 -16 2 -105 -12 -140 l-8 -20 16 20
c12 14 16 16 17 6 0 -8 -9 -24 -20 -36 -12 -13 -18 -29 -14 -38 7 -19 29 -23
39 -7 12 20 23 9 30 -31 6 -33 3 -47 -13 -68 -11 -15 -31 -50 -46 -79 -14 -29
-53 -82 -86 -118 -54 -59 -60 -71 -60 -109 0 -27 6 -47 16 -56 29 -24 110 -47
154 -43 l42 4 -4 -40 c-3 -38 -2 -40 24 -40 24 0 28 5 35 42 7 33 13 43 28 43
15 0 22 -10 29 -43 l9 -43 136 3 136 3 -2 55 c-1 30 -3 156 -5 280 -3 205 -5
229 -25 272 -27 60 -61 82 -124 81 -57 -1 -92 -21 -115 -65 -17 -33 -17 -33
-26 -9 -4 13 -6 38 -2 55 4 23 -2 46 -20 83 -14 28 -26 58 -26 67 0 22 -98 23
-106 2z m177 -297 c15 -15 18 -24 10 -32 -10 -10 10 -74 27 -87 4 -3 5 -18 1
-35 -5 -27 -7 -28 -14 -10 -4 11 -18 44 -31 74 -22 48 -32 111 -19 111 3 0 14
-9 26 -21z"/>
</g>
</svg>
