<?xml version="1.0" standalone="no"?>
<!DOCTYPE svg PUBLIC "-//W3C//DTD SVG 20010904//EN"
 "http://www.w3.org/TR/2001/REC-SVG-20010904/DTD/svg10.dtd">
<svg version="1.0" xmlns="http://www.w3.org/2000/svg"
 width="96.000000pt" height="84.000000pt" viewBox="0 0 96.000000 84.000000"
 preserveAspectRatio="xMidYMid meet">
<metadata>
Created by potrace 1.16, written by Peter Selinger 2001-2019
</metadata>
<g transform="translate(0.000000,84.000000) scale(0.100000,-0.100000)"
fill="#000000" stroke="none">
<path d="M478 385 c-38 -26 -78 -96 -77 -136 1 -41 51 -121 83 -132 54 -18
147 27 167 80 6 17 5 42 -5 78 -10 40 -11 55 -2 59 6 2 1 5 -11 5 -13 1 -23 5
-23 10 0 18 -50 61 -72 61 -13 0 -40 -11 -60 -25z"/>
</g>
</svg>
