<?xml version="1.0" standalone="no"?>
<!DOCTYPE svg PUBLIC "-//W3C//DTD SVG 20010904//EN"
 "http://www.w3.org/TR/2001/REC-SVG-20010904/DTD/svg10.dtd">
<svg version="1.0" xmlns="http://www.w3.org/2000/svg"
 width="96.000000pt" height="84.000000pt" viewBox="0 0 96.000000 84.000000"
 preserveAspectRatio="xMidYMid meet">
<metadata>
Created by potrace 1.16, written by Peter Selinger 2001-2019
</metadata>
<g transform="translate(0.000000,84.000000) scale(0.100000,-0.100000)"
fill="#000000" stroke="none">
<path d="M378 798 l-3 -43 -48 -7 c-58 -8 -66 -14 -46 -34 14 -13 19 -13 47 3
17 10 33 15 37 12 12 -13 -9 -39 -51 -64 -29 -17 -44 -33 -44 -46 0 -18 3 -18
44 11 51 34 56 36 56 15 0 -8 -6 -15 -13 -15 -7 0 -18 -13 -24 -29 -8 -24 -8
-32 5 -45 14 -14 14 -23 4 -68 -7 -29 -16 -74 -20 -99 -6 -34 -23 -65 -65
-119 -31 -40 -57 -79 -57 -86 0 -18 39 -42 81 -50 41 -8 59 -21 59 -43 0 -9 5
-33 11 -54 l10 -37 167 2 167 3 -2 55 c-1 30 -4 156 -5 280 -3 223 -3 225 -31
277 -32 61 -56 77 -117 76 l-45 -1 0 37 c0 20 6 41 14 47 20 16 6 48 -17 39
-44 -19 -62 -18 -62 4 0 16 -6 21 -24 21 -22 0 -25 -5 -28 -42z m62 -287 c0
-6 -4 -13 -10 -16 -5 -3 -10 1 -10 9 0 9 5 16 10 16 6 0 10 -4 10 -9z"/>
</g>
</svg>
