<?xml version="1.0" standalone="no"?>
<!DOCTYPE svg PUBLIC "-//W3C//DTD SVG 20010904//EN"
 "http://www.w3.org/TR/2001/REC-SVG-20010904/DTD/svg10.dtd">
<svg version="1.0" xmlns="http://www.w3.org/2000/svg"
 width="96.000000pt" height="84.000000pt" viewBox="0 0 96.000000 84.000000"
 preserveAspectRatio="xMidYMid meet">
<metadata>
Created by potrace 1.16, written by Peter Selinger 2001-2019
</metadata>
<g transform="translate(0.000000,84.000000) scale(0.100000,-0.100000)"
fill="#000000" stroke="none">
<path d="M420 829 c0 -6 -7 -9 -15 -5 -24 9 -32 -23 -31 -114 1 -51 -4 -96
-11 -112 -16 -34 -16 -38 2 -38 22 0 30 -62 11 -96 -33 -61 -54 -77 -114 -85
-43 -6 -62 -14 -79 -34 l-23 -26 26 -67 c14 -37 29 -71 33 -75 13 -13 132 -27
171 -21 l35 6 -3 -81 -4 -81 117 0 118 0 -6 106 c-6 98 -5 107 13 111 28 7 31
49 5 88 -21 29 -23 45 -23 137 1 85 -3 112 -21 153 -25 57 -56 93 -90 106 -40
16 -19 19 64 10 44 -5 83 -7 87 -5 22 14 1 23 -64 29 -115 10 -136 20 -148 66
-8 28 -16 39 -30 39 -11 0 -20 -5 -20 -11z"/>
</g>
</svg>
