<?xml version="1.0" standalone="no"?>
<!DOCTYPE svg PUBLIC "-//W3C//DTD SVG 20010904//EN"
 "http://www.w3.org/TR/2001/REC-SVG-20010904/DTD/svg10.dtd">
<svg version="1.0" xmlns="http://www.w3.org/2000/svg"
 width="96.000000pt" height="84.000000pt" viewBox="0 0 96.000000 84.000000"
 preserveAspectRatio="xMidYMid meet">
<metadata>
Created by potrace 1.16, written by Peter Selinger 2001-2019
</metadata>
<g transform="translate(0.000000,84.000000) scale(0.100000,-0.100000)"
fill="#000000" stroke="none">
<path d="M450 825 c0 -18 -5 -19 -29 -3 -37 23 -68 -13 -38 -44 6 -7 13 -29
14 -48 4 -72 15 -120 28 -120 11 0 25 -68 25 -126 0 -40 -80 -124 -148 -156
-68 -32 -90 -57 -99 -110 -5 -33 -2 -37 42 -66 26 -17 52 -29 57 -26 5 3 15 1
22 -5 7 -6 41 -14 75 -17 66 -7 75 -19 45 -62 -8 -12 -12 -27 -9 -32 3 -6 42
-10 85 -10 l79 0 3 57 3 58 63 6 c35 3 68 11 74 17 5 5 13 30 15 54 8 71 -28
124 -116 170 l-43 23 -2 85 c-2 52 -9 100 -19 124 -19 43 -16 53 19 66 37 15
31 40 -11 40 -40 0 -55 20 -55 74 0 54 -8 66 -46 66 -24 0 -34 -5 -34 -15z"/>
</g>
</svg>
