<?xml version="1.0" standalone="no"?>
<!DOCTYPE svg PUBLIC "-//W3C//DTD SVG 20010904//EN"
 "http://www.w3.org/TR/2001/REC-SVG-20010904/DTD/svg10.dtd">
<svg version="1.0" xmlns="http://www.w3.org/2000/svg"
 width="96.000000pt" height="84.000000pt" viewBox="0 0 96.000000 84.000000"
 preserveAspectRatio="xMidYMid meet">
<metadata>
Created by potrace 1.16, written by Peter Selinger 2001-2019
</metadata>
<g transform="translate(0.000000,84.000000) scale(0.100000,-0.100000)"
fill="#000000" stroke="none">
<path d="M450 820 c0 -34 -22 -113 -47 -164 -12 -27 -21 -51 -19 -54 10 -10
24 10 30 43 9 48 24 52 31 8 3 -21 10 -45 14 -53 8 -14 7 -45 -2 -117 -2 -12
-8 -27 -13 -35 -6 -7 -23 -34 -38 -61 -15 -26 -44 -58 -64 -71 -72 -46 -102
-94 -102 -165 0 -50 14 -64 90 -92 75 -27 70 -26 111 -28 23 -1 30 -5 25 -16
-4 -12 4 -15 38 -15 38 0 45 3 50 25 5 18 13 25 31 25 14 0 25 5 25 11 0 6 7
8 15 5 18 -6 79 29 112 65 11 13 23 37 25 54 3 26 -3 33 -52 66 -49 33 -61 48
-103 130 -45 90 -59 149 -36 149 7 0 9 13 5 38 -6 37 -7 51 -4 95 1 12 -2 46
-6 74 -5 41 -3 59 10 78 l16 25 -71 0 c-64 0 -71 -2 -71 -20z"/>
</g>
</svg>
