<?xml version="1.0" standalone="no"?>
<!DOCTYPE svg PUBLIC "-//W3C//DTD SVG 20010904//EN"
 "http://www.w3.org/TR/2001/REC-SVG-20010904/DTD/svg10.dtd">
<svg version="1.0" xmlns="http://www.w3.org/2000/svg"
 width="96.000000pt" height="84.000000pt" viewBox="0 0 96.000000 84.000000"
 preserveAspectRatio="xMidYMid meet">
<metadata>
Created by potrace 1.16, written by Peter Selinger 2001-2019
</metadata>
<g transform="translate(0.000000,84.000000) scale(0.100000,-0.100000)"
fill="#000000" stroke="none">
<path d="M477 812 c-18 -20 -23 -72 -7 -72 18 0 10 -29 -11 -41 -16 -8 -20
-18 -16 -42 3 -24 -2 -39 -19 -60 -34 -41 -30 -53 20 -61 8 -1 18 -4 20 -7 9
-9 -24 -219 -38 -246 -8 -16 -31 -43 -50 -61 -41 -38 -43 -47 -17 -82 15 -19
32 -26 73 -30 l53 -5 9 -53 9 -52 42 0 42 0 -5 55 -4 55 45 0 c50 0 167 40
181 62 9 15 8 17 -152 215 -60 74 -63 80 -57 118 3 22 13 43 20 48 15 8 21 58
8 71 -4 4 -8 23 -10 42 -2 35 1 37 61 46 37 6 11 23 -30 20 -35 -3 -43 0 -58
22 -9 14 -23 26 -31 26 -9 0 -20 11 -25 25 -11 30 -31 32 -53 7z m60 -724 c-3
-8 -6 -5 -6 6 -1 11 2 17 5 13 3 -3 4 -12 1 -19z"/>
</g>
</svg>
