<?xml version="1.0" standalone="no"?>
<!DOCTYPE svg PUBLIC "-//W3C//DTD SVG 20010904//EN"
 "http://www.w3.org/TR/2001/REC-SVG-20010904/DTD/svg10.dtd">
<svg version="1.0" xmlns="http://www.w3.org/2000/svg"
 width="96.000000pt" height="84.000000pt" viewBox="0 0 96.000000 84.000000"
 preserveAspectRatio="xMidYMid meet">
<metadata>
Created by potrace 1.16, written by Peter Selinger 2001-2019
</metadata>
<g transform="translate(0.000000,84.000000) scale(0.100000,-0.100000)"
fill="#000000" stroke="none">
<path d="M596 823 c-4 -5 -18 -8 -29 -8 -16 0 -23 -7 -25 -27 -4 -33 -70 -85
-119 -94 -18 -3 -33 -10 -33 -15 0 -18 28 -20 65 -4 21 8 39 14 40 13 1 -2 5
-23 9 -48 6 -48 1 -63 -26 -73 -13 -5 -18 -16 -17 -44 1 -21 -2 -71 -6 -111
-8 -79 -18 -90 -93 -107 -35 -7 -62 -45 -62 -88 0 -27 121 -163 174 -196 19
-12 50 -21 73 -21 41 0 107 22 118 39 3 6 12 8 19 5 16 -6 96 32 96 46 0 5 8
11 18 14 28 9 52 60 52 108 0 54 -24 80 -96 107 -34 13 -59 32 -83 62 -32 41
-33 44 -13 47 14 2 22 12 24 30 2 21 8 27 28 27 41 0 34 29 -19 84 -28 29 -48
57 -45 65 3 8 1 36 -4 64 -5 31 -5 56 1 67 18 33 -22 83 -47 58z m-68 -389
c-17 -37 -28 -29 -28 24 l1 47 19 -23 c16 -19 17 -27 8 -48z"/>
</g>
</svg>
