<?xml version="1.0" standalone="no"?>
<!DOCTYPE svg PUBLIC "-//W3C//DTD SVG 20010904//EN"
 "http://www.w3.org/TR/2001/REC-SVG-20010904/DTD/svg10.dtd">
<svg version="1.0" xmlns="http://www.w3.org/2000/svg"
 width="96.000000pt" height="84.000000pt" viewBox="0 0 96.000000 84.000000"
 preserveAspectRatio="xMidYMid meet">
<metadata>
Created by potrace 1.16, written by Peter Selinger 2001-2019
</metadata>
<g transform="translate(0.000000,84.000000) scale(0.100000,-0.100000)"
fill="#000000" stroke="none">
<path d="M540 815 c-8 -10 -11 -31 -6 -61 5 -43 3 -49 -28 -80 -30 -30 -40
-34 -84 -34 -59 0 -69 -9 -41 -34 28 -23 89 -13 130 21 29 25 30 25 44 7 17
-23 18 -26 6 -58 -6 -13 -12 -42 -14 -64 -4 -34 -31 -92 -43 -92 -2 0 -2 29 0
65 3 44 0 67 -9 75 -17 14 -37 -10 -25 -30 5 -8 5 -22 -1 -32 -6 -10 -8 -22
-5 -26 3 -5 1 -26 -4 -48 -5 -22 -10 -69 -12 -103 l-2 -62 -47 -21 c-60 -25
-81 -49 -77 -84 4 -34 78 -89 176 -128 55 -23 76 -26 181 -26 115 0 119 1 125
22 12 47 5 94 -20 138 -25 43 -60 168 -50 178 3 2 -1 17 -9 33 -19 35 -19 39
0 39 8 0 15 5 15 10 0 17 32 11 88 -15 69 -32 69 -10 -1 30 -28 16 -59 32 -67
34 -46 11 -64 22 -50 31 11 7 12 18 2 62 -6 29 -14 69 -17 89 -3 20 -20 56
-37 80 -18 24 -31 52 -30 61 6 33 -65 51 -88 23z m80 -361 c0 -29 -94 -141
-99 -118 -3 17 22 69 63 131 22 33 36 28 36 -13z"/>
</g>
</svg>
