<?xml version="1.0" standalone="no"?>
<!DOCTYPE svg PUBLIC "-//W3C//DTD SVG 20010904//EN"
 "http://www.w3.org/TR/2001/REC-SVG-20010904/DTD/svg10.dtd">
<svg version="1.0" xmlns="http://www.w3.org/2000/svg"
 width="96.000000pt" height="84.000000pt" viewBox="0 0 96.000000 84.000000"
 preserveAspectRatio="xMidYMid meet">
<metadata>
Created by potrace 1.16, written by Peter Selinger 2001-2019
</metadata>
<g transform="translate(0.000000,84.000000) scale(0.100000,-0.100000)"
fill="#000000" stroke="none">
<path d="M600 810 c0 -5 -6 -10 -14 -10 -23 0 -38 -74 -17 -82 12 -4 -4 -103
-24 -148 -12 -27 -14 -42 -6 -63 13 -35 31 -35 31 0 0 31 21 93 31 93 15 0 21
-21 10 -34 -6 -7 -12 -31 -14 -53 -1 -22 -7 -47 -14 -54 -6 -8 -20 -33 -32
-56 -12 -24 -25 -43 -30 -43 -13 0 -25 103 -18 148 7 41 -4 67 -24 60 -9 -3
-14 -25 -16 -64 -1 -32 -5 -97 -9 -143 -5 -65 -4 -85 7 -93 11 -7 11 -11 2
-15 -24 -9 -13 -23 17 -23 27 0 29 2 21 19 -9 15 -7 20 9 24 14 3 18 10 14 21
-4 11 8 32 35 61 23 25 47 56 53 70 12 26 17 29 42 19 22 -9 20 -20 -12 -62
-48 -64 -92 -205 -95 -307 l-2 -70 163 -3 c189 -3 191 -2 143 82 -29 49 -59
147 -75 236 -3 19 -9 50 -12 68 -7 36 -6 37 31 20 19 -8 28 -9 37 0 8 8 0 16
-35 31 -32 14 -47 26 -47 39 0 13 7 18 23 18 17 -1 23 5 25 28 6 52 -18 110
-70 171 -27 32 -54 70 -59 83 -6 15 -15 22 -24 18 -9 -3 -15 0 -15 9 0 8 -7
15 -15 15 -8 0 -15 -4 -15 -10z m156 -215 c7 -27 6 -29 -9 -16 -10 7 -17 25
-17 39 0 33 16 18 26 -23z m-91 -115 c3 -5 1 -10 -4 -10 -6 0 -11 5 -11 10 0
6 2 10 4 10 3 0 8 -4 11 -10z"/>
</g>
</svg>
