<?xml version="1.0" standalone="no"?>
<!DOCTYPE svg PUBLIC "-//W3C//DTD SVG 20010904//EN"
 "http://www.w3.org/TR/2001/REC-SVG-20010904/DTD/svg10.dtd">
<svg version="1.0" xmlns="http://www.w3.org/2000/svg"
 width="96.000000pt" height="84.000000pt" viewBox="0 0 96.000000 84.000000"
 preserveAspectRatio="xMidYMid meet">
<metadata>
Created by potrace 1.16, written by Peter Selinger 2001-2019
</metadata>
<g transform="translate(0.000000,84.000000) scale(0.100000,-0.100000)"
fill="#000000" stroke="none">
<path d="M653 822 c-4 -9 -13 -21 -21 -25 -14 -9 -9 -57 8 -67 4 -3 4 -25 0
-50 -5 -25 -9 -85 -10 -133 l0 -88 -37 6 c-21 4 -46 9 -55 12 -10 2 -18 0 -18
-5 0 -5 17 -13 38 -16 69 -13 74 -16 69 -43 -3 -15 1 -27 9 -30 20 -8 -2 -44
-47 -75 -41 -29 -50 -52 -23 -62 23 -9 34 -7 34 5 0 6 17 27 39 48 21 20 48
56 60 79 15 29 26 40 36 35 14 -5 14 -8 0 -27 -8 -11 -22 -31 -31 -43 -23 -32
-62 -152 -65 -198 -1 -22 -1 -64 0 -92 l1 -53 125 0 c69 0 125 3 125 8 0 4 -4
23 -9 42 -5 19 -12 93 -15 163 -3 70 -8 132 -10 136 -3 4 -9 34 -14 66 -8 47
-6 63 7 86 15 26 14 29 -8 59 -12 17 -20 34 -18 37 7 7 67 -77 67 -94 0 -7 9
-13 20 -13 37 0 21 33 -67 138 -29 34 -57 79 -62 100 -21 77 -110 143 -128 94z
m32 -236 c10 -10 12 -22 6 -42 -4 -16 -7 -39 -6 -51 2 -26 -10 -31 -19 -7 -8
20 -8 114 0 114 3 0 12 -6 19 -14z"/>
<path d="M463 533 c0 -21 -3 -84 -8 -140 -6 -78 -5 -106 5 -118 10 -12 10 -18
0 -30 -11 -13 -8 -15 19 -15 28 0 31 2 21 19 -8 16 -6 22 7 29 15 9 15 17 4
95 -7 47 -12 105 -11 129 4 62 2 68 -19 68 -15 0 -19 -7 -18 -37z"/>
</g>
</svg>
