<?xml version="1.0" standalone="no"?>
<!DOCTYPE svg PUBLIC "-//W3C//DTD SVG 20010904//EN"
 "http://www.w3.org/TR/2001/REC-SVG-20010904/DTD/svg10.dtd">
<svg version="1.0" xmlns="http://www.w3.org/2000/svg"
 width="96.000000pt" height="84.000000pt" viewBox="0 0 96.000000 84.000000"
 preserveAspectRatio="xMidYMid meet">
<metadata>
Created by potrace 1.16, written by Peter Selinger 2001-2019
</metadata>
<g transform="translate(0.000000,84.000000) scale(0.100000,-0.100000)"
fill="#000000" stroke="none">
<path d="M530 445 c0 -10 -10 -15 -34 -15 -60 0 -88 -44 -87 -136 0 -77 20
-122 59 -129 15 -3 41 -10 57 -15 24 -8 35 -6 55 8 59 43 90 169 54 220 -9 13
-33 30 -54 38 -26 11 -37 20 -33 30 3 8 0 14 -6 14 -6 0 -11 -7 -11 -15z"/>
</g>
</svg>
