<?xml version="1.0" standalone="no"?>
<!DOCTYPE svg PUBLIC "-//W3C//DTD SVG 20010904//EN"
 "http://www.w3.org/TR/2001/REC-SVG-20010904/DTD/svg10.dtd">
<svg version="1.0" xmlns="http://www.w3.org/2000/svg"
 width="96.000000pt" height="84.000000pt" viewBox="0 0 96.000000 84.000000"
 preserveAspectRatio="xMidYMid meet">
<metadata>
Created by potrace 1.16, written by Peter Selinger 2001-2019
</metadata>
<g transform="translate(0.000000,84.000000) scale(0.100000,-0.100000)"
fill="#000000" stroke="none">
<path d="M705 830 c-6 -10 4 -60 16 -75 4 -6 -1 -47 -13 -90 -11 -44 -21 -113
-22 -152 0 -42 -5 -73 -11 -73 -5 0 -3 -4 5 -10 27 -17 5 -18 -88 -2 l-94 15
2 51 c3 73 2 76 -21 76 -17 0 -20 -4 -16 -22 4 -12 2 -54 -3 -93 -19 -157 -20
-175 -5 -175 18 0 20 -21 3 -38 -9 -9 -5 -12 19 -12 27 0 30 3 26 21 -4 12 0
25 7 29 11 7 11 22 4 74 l-10 66 30 -1 c64 -1 158 -24 167 -42 14 -24 37 -21
41 5 4 28 38 38 38 11 0 -38 -28 -95 -63 -131 -40 -41 -46 -66 -22 -80 14 -7
11 -20 -20 -91 -19 -46 -35 -85 -35 -87 0 -2 72 -4 160 -4 l160 0 0 171 c0 95
-5 201 -12 237 -9 51 -9 67 0 70 19 6 14 73 -7 96 -21 23 -61 132 -61 168 0
12 -12 39 -26 60 -26 37 -29 38 -85 38 -32 0 -60 -4 -64 -10z m83 -250 c11 0
3 -109 -10 -133 -6 -11 -18 -17 -31 -15 -20 3 -22 8 -22 78 0 41 4 88 8 104
l8 29 19 -31 c11 -18 24 -32 28 -32z"/>
</g>
</svg>
