<?xml version="1.0" standalone="no"?>
<!DOCTYPE svg PUBLIC "-//W3C//DTD SVG 20010904//EN"
 "http://www.w3.org/TR/2001/REC-SVG-20010904/DTD/svg10.dtd">
<svg version="1.0" xmlns="http://www.w3.org/2000/svg"
 width="96.000000pt" height="84.000000pt" viewBox="0 0 96.000000 84.000000"
 preserveAspectRatio="xMidYMid meet">
<metadata>
Created by potrace 1.16, written by Peter Selinger 2001-2019
</metadata>
<g transform="translate(0.000000,84.000000) scale(0.100000,-0.100000)"
fill="#000000" stroke="none">
<path d="M790 834 c0 -3 7 -18 16 -33 15 -25 13 -33 -29 -166 -25 -77 -48
-166 -52 -197 l-7 -56 -47 14 c-53 16 -91 18 -91 5 0 -5 32 -17 70 -27 55 -15
70 -22 70 -37 0 -14 5 -17 23 -12 12 4 32 13 44 21 12 8 28 12 35 9 7 -3 18 7
25 23 7 15 26 43 41 62 l29 34 17 -36 c15 -32 16 -39 3 -69 -8 -19 -28 -47
-45 -63 -17 -16 -29 -33 -26 -37 2 -5 -6 -26 -20 -47 -13 -21 -45 -80 -70
-130 l-46 -92 115 0 115 0 0 420 0 420 -85 0 c-47 0 -85 -3 -85 -6z m78 -237
c8 -9 11 -21 8 -26 -4 -6 -7 -27 -8 -48 -1 -21 -9 -48 -19 -61 -10 -13 -20
-36 -24 -51 -6 -27 -36 -47 -49 -33 -15 14 -4 115 19 183 37 110 36 108 49 78
6 -14 17 -33 24 -42z"/>
<path d="M469 568 c0 -2 -2 -32 -4 -68 -1 -36 -8 -96 -14 -135 -14 -91 -14
-95 4 -95 18 0 19 -12 3 -28 -9 -9 -5 -12 20 -12 29 0 32 2 23 19 -8 15 -7 20
8 24 18 4 18 9 5 81 -7 43 -12 103 -10 134 3 54 -6 82 -25 82 -5 0 -9 -1 -10
-2z"/>
<path d="M568 333 c12 -2 32 -2 45 0 12 2 2 4 -23 4 -25 0 -35 -2 -22 -4z"/>
</g>
</svg>
