<?xml version="1.0" standalone="no"?>
<!DOCTYPE svg PUBLIC "-//W3C//DTD SVG 20010904//EN"
 "http://www.w3.org/TR/2001/REC-SVG-20010904/DTD/svg10.dtd">
<svg version="1.0" xmlns="http://www.w3.org/2000/svg"
 width="96.000000pt" height="84.000000pt" viewBox="0 0 96.000000 84.000000"
 preserveAspectRatio="xMidYMid meet">
<metadata>
Created by potrace 1.16, written by Peter Selinger 2001-2019
</metadata>
<g transform="translate(0.000000,84.000000) scale(0.100000,-0.100000)"
fill="#000000" stroke="none">
<path d="M906 824 c-3 -9 -6 -31 -6 -51 0 -47 -47 -185 -109 -317 -28 -60 -50
-110 -49 -112 2 -1 12 -4 22 -6 16 -2 27 11 52 62 30 60 77 171 104 245 l12
30 13 -25 c13 -23 14 -15 15 83 0 106 0 107 -24 107 -13 0 -27 -7 -30 -16z"/>
<path d="M952 558 c-1 -15 -7 -30 -13 -33 -6 -4 -8 -14 -5 -22 6 -15 -18 -51
-76 -114 -28 -31 -36 -63 -18 -74 6 -3 10 1 10 9 0 9 5 16 10 16 15 0 12 -16
-6 -34 -29 -30 -75 -32 -205 -10 -31 5 -37 3 -42 -15 -3 -12 -4 -21 -4 -22 1
0 43 -6 92 -13 l90 -13 -37 -16 c-21 -10 -57 -17 -82 -17 -45 0 -69 -16 -47
-30 19 -11 155 14 189 36 38 24 122 120 122 139 0 8 7 35 15 60 10 29 15 70
12 113 -2 37 -4 55 -5 40z"/>
<path d="M469 568 c0 -2 -2 -25 -4 -53 -3 -27 -8 -90 -13 -140 -8 -78 -7 -92
7 -103 13 -11 14 -14 2 -21 -18 -11 -5 -31 19 -31 22 0 35 16 20 25 -16 10
-12 25 6 25 14 0 16 7 9 53 -4 28 -9 91 -10 139 -2 47 -6 91 -10 97 -5 10 -24
15 -26 9z"/>
<path d="M907 100 l-48 -95 47 -3 c25 -2 48 -1 50 1 3 3 3 47 2 98 l-3 94 -48
-95z"/>
</g>
</svg>
