<?xml version="1.0" standalone="no"?>
<!DOCTYPE svg PUBLIC "-//W3C//DTD SVG 20010904//EN"
 "http://www.w3.org/TR/2001/REC-SVG-20010904/DTD/svg10.dtd">
<svg version="1.0" xmlns="http://www.w3.org/2000/svg"
 width="96.000000pt" height="84.000000pt" viewBox="0 0 96.000000 84.000000"
 preserveAspectRatio="xMidYMid meet">
<metadata>
Created by potrace 1.16, written by Peter Selinger 2001-2019
</metadata>
<g transform="translate(0.000000,84.000000) scale(0.100000,-0.100000)"
fill="#000000" stroke="none">
<path d="M461 538 c0 -18 -2 -46 -5 -63 -2 -16 -8 -67 -12 -113 -6 -74 -5 -84
12 -97 18 -13 18 -14 2 -20 -26 -10 -11 -25 25 -25 24 0 28 3 19 12 -17 17
-15 38 3 38 15 0 14 48 -5 130 -8 39 -7 111 4 128 10 17 -5 42 -25 42 -15 0
-19 -7 -18 -32z"/>
<path d="M926 506 c-16 -38 -51 -102 -78 -143 -26 -40 -48 -80 -48 -87 0 -25
37 -25 60 -1 12 13 30 25 41 28 17 5 19 -1 19 -43 0 -27 -4 -60 -10 -74 -13
-34 -72 -62 -150 -70 -73 -7 -82 -12 -73 -45 6 -22 9 -23 69 -17 35 4 72 9 81
12 10 3 4 -7 -14 -23 -18 -16 -33 -33 -33 -36 0 -4 17 -7 38 -7 47 0 71 23
107 103 25 57 25 62 23 265 l-3 207 -29 -69z"/>
</g>
</svg>
