<?xml version="1.0" standalone="no"?>
<!DOCTYPE svg PUBLIC "-//W3C//DTD SVG 20010904//EN"
 "http://www.w3.org/TR/2001/REC-SVG-20010904/DTD/svg10.dtd">
<svg version="1.0" xmlns="http://www.w3.org/2000/svg"
 width="96.000000pt" height="84.000000pt" viewBox="0 0 96.000000 84.000000"
 preserveAspectRatio="xMidYMid meet">
<metadata>
Created by potrace 1.16, written by Peter Selinger 2001-2019
</metadata>
<g transform="translate(0.000000,84.000000) scale(0.100000,-0.100000)"
fill="#000000" stroke="none">
<path d="M462 571 c-9 -5 -11 -17 -7 -34 4 -14 3 -32 -1 -39 -5 -7 -9 -24 -10
-38 0 -14 -6 -63 -12 -109 -12 -86 -11 -91 23 -105 6 -2 1 -10 -9 -19 -19 -14
-19 -15 1 -21 30 -10 55 3 44 22 -6 11 -4 20 6 27 14 10 14 22 3 100 -7 48
-10 114 -7 146 7 59 -5 86 -31 70z"/>
<path d="M890 306 c-71 -24 -85 -44 -49 -70 21 -14 24 -14 36 3 7 10 28 22 48
25 31 6 35 11 35 36 0 17 -1 30 -2 29 -2 0 -32 -10 -68 -23z"/>
<path d="M932 214 c-24 -49 -23 -56 8 -61 18 -3 20 3 20 52 0 30 -1 55 -3 55
-2 0 -13 -21 -25 -46z"/>
</g>
</svg>
