<?xml version="1.0" standalone="no"?>
<!DOCTYPE svg PUBLIC "-//W3C//DTD SVG 20010904//EN"
 "http://www.w3.org/TR/2001/REC-SVG-20010904/DTD/svg10.dtd">
<svg version="1.0" xmlns="http://www.w3.org/2000/svg"
 width="96.000000pt" height="84.000000pt" viewBox="0 0 96.000000 84.000000"
 preserveAspectRatio="xMidYMid meet">
<metadata>
Created by potrace 1.16, written by Peter Selinger 2001-2019
</metadata>
<g transform="translate(0.000000,84.000000) scale(0.100000,-0.100000)"
fill="#000000" stroke="none">
<path d="M454 572 c-6 -4 -11 -25 -12 -47 0 -22 -1 -51 -1 -64 -1 -13 -5 -29
-10 -35 -5 -6 -12 -50 -16 -97 -7 -83 -6 -87 14 -94 27 -8 27 -25 0 -25 -11 0
-17 -4 -14 -10 3 -5 24 -10 47 -10 36 0 39 2 27 16 -10 13 -10 17 1 24 10 6
11 25 5 87 -10 111 -11 196 -2 210 9 12 -8 53 -21 53 -4 0 -12 -4 -18 -8z"/>
<path d="M898 283 c-21 -8 -38 -20 -38 -27 1 -34 45 -54 60 -26 6 11 17 20 25
20 9 0 15 10 15 25 0 29 -10 30 -62 8z"/>
</g>
</svg>
