<?xml version="1.0" standalone="no"?>
<!DOCTYPE svg PUBLIC "-//W3C//DTD SVG 20010904//EN"
 "http://www.w3.org/TR/2001/REC-SVG-20010904/DTD/svg10.dtd">
<svg version="1.0" xmlns="http://www.w3.org/2000/svg"
 width="96.000000pt" height="84.000000pt" viewBox="0 0 96.000000 84.000000"
 preserveAspectRatio="xMidYMid meet">
<metadata>
Created by potrace 1.16, written by Peter Selinger 2001-2019
</metadata>
<g transform="translate(0.000000,84.000000) scale(0.100000,-0.100000)"
fill="#000000" stroke="none">
<path d="M431 543 c0 -43 -5 -82 -20 -168 -6 -33 -11 -81 -11 -107 0 -38 4
-48 20 -53 26 -8 25 -21 -2 -29 -19 -5 -21 -8 -8 -16 20 -13 67 -13 75 0 3 6
1 10 -4 10 -6 0 -11 7 -11 15 0 8 5 15 11 15 9 0 10 24 5 87 -10 119 -11 217
-2 231 11 17 -12 52 -34 52 -16 0 -19 -7 -19 -37z"/>
<path d="M933 280 c-34 -14 -28 -49 10 -63 14 -5 17 0 17 33 0 22 -1 40 -2 39
-2 0 -13 -4 -25 -9z"/>
</g>
</svg>
