<?xml version="1.0" standalone="no"?>
<!DOCTYPE svg PUBLIC "-//W3C//DTD SVG 20010904//EN"
 "http://www.w3.org/TR/2001/REC-SVG-20010904/DTD/svg10.dtd">
<svg version="1.0" xmlns="http://www.w3.org/2000/svg"
 width="96.000000pt" height="84.000000pt" viewBox="0 0 96.000000 84.000000"
 preserveAspectRatio="xMidYMid meet">
<metadata>
Created by potrace 1.16, written by Peter Selinger 2001-2019
</metadata>
<g transform="translate(0.000000,84.000000) scale(0.100000,-0.100000)"
fill="#000000" stroke="none">
<path d="M415 551 c4 -22 3 -46 -2 -53 -4 -7 -9 -26 -9 -43 -1 -16 -7 -57 -13
-90 -6 -33 -11 -84 -11 -113 0 -47 3 -53 26 -62 28 -11 24 -30 -7 -30 -23 0
-25 -15 -3 -24 20 -8 69 -8 77 0 3 3 0 15 -6 25 -10 16 -9 21 2 28 11 7 12 25
6 93 -4 45 -9 112 -10 148 -1 36 -3 70 -5 75 -2 6 1 18 5 29 11 24 -6 50 -35
54 -21 3 -22 1 -15 -37z"/>
<path d="M951 254 c0 -11 3 -14 6 -6 3 7 2 16 -1 19 -3 4 -6 -2 -5 -13z"/>
</g>
</svg>
