<?xml version="1.0" standalone="no"?>
<!DOCTYPE svg PUBLIC "-//W3C//DTD SVG 20010904//EN"
 "http://www.w3.org/TR/2001/REC-SVG-20010904/DTD/svg10.dtd">
<svg version="1.0" xmlns="http://www.w3.org/2000/svg"
 width="96.000000pt" height="84.000000pt" viewBox="0 0 96.000000 84.000000"
 preserveAspectRatio="xMidYMid meet">
<metadata>
Created by potrace 1.16, written by Peter Selinger 2001-2019
</metadata>
<g transform="translate(0.000000,84.000000) scale(0.100000,-0.100000)"
fill="#000000" stroke="none">
<path d="M384 586 c-3 -8 -1 -23 5 -35 8 -14 8 -28 1 -47 -6 -15 -8 -34 -5
-42 3 -7 -1 -39 -9 -70 -8 -32 -18 -93 -21 -138 l-7 -81 31 -13 c40 -16 39
-27 -1 -35 -30 -7 -31 -8 -13 -21 26 -19 95 -19 95 1 0 8 -4 15 -10 15 -16 0
-11 30 6 37 13 5 14 19 9 87 -4 44 -10 95 -14 111 -4 17 -4 43 0 58 5 17 3 45
-5 71 -10 34 -10 44 0 54 21 19 -3 62 -33 62 -13 0 -26 -6 -29 -14z"/>
</g>
</svg>
