<?xml version="1.0" standalone="no"?>
<!DOCTYPE svg PUBLIC "-//W3C//DTD SVG 20010904//EN"
 "http://www.w3.org/TR/2001/REC-SVG-20010904/DTD/svg10.dtd">
<svg version="1.0" xmlns="http://www.w3.org/2000/svg"
 width="96.000000pt" height="84.000000pt" viewBox="0 0 96.000000 84.000000"
 preserveAspectRatio="xMidYMid meet">
<metadata>
Created by potrace 1.16, written by Peter Selinger 2001-2019
</metadata>
<g transform="translate(0.000000,84.000000) scale(0.100000,-0.100000)"
fill="#000000" stroke="none">
<path d="M360 589 c0 -11 5 -29 10 -40 8 -14 7 -26 -4 -47 -8 -15 -12 -39 -9
-54 3 -15 -2 -55 -11 -90 -8 -35 -18 -100 -22 -144 l-7 -82 37 -13 c41 -15 47
-29 14 -29 -13 0 -30 -5 -38 -10 -21 -14 -1 -26 58 -34 53 -7 78 7 50 28 -22
16 -23 32 -2 40 15 6 16 19 9 114 -4 59 -8 141 -10 182 -1 42 -7 86 -14 98 -6
12 -8 22 -2 22 16 0 21 29 9 55 -15 33 -68 36 -68 4z"/>
</g>
</svg>
