<?xml version="1.0" standalone="no"?>
<!DOCTYPE svg PUBLIC "-//W3C//DTD SVG 20010904//EN"
 "http://www.w3.org/TR/2001/REC-SVG-20010904/DTD/svg10.dtd">
<svg version="1.0" xmlns="http://www.w3.org/2000/svg"
 width="96.000000pt" height="84.000000pt" viewBox="0 0 96.000000 84.000000"
 preserveAspectRatio="xMidYMid meet">
<metadata>
Created by potrace 1.16, written by Peter Selinger 2001-2019
</metadata>
<g transform="translate(0.000000,84.000000) scale(0.100000,-0.100000)"
fill="#000000" stroke="none">
<path d="M483 481 c-35 -26 -41 -27 -51 -12 -10 15 -11 15 -11 -1 -1 -9 4 -20
9 -23 6 -4 0 -20 -15 -39 -14 -18 -25 -46 -25 -63 0 -62 86 -153 145 -153 9 0
39 22 66 49 42 42 49 55 49 88 0 43 -37 129 -66 154 -36 31 -58 31 -101 0z"/>
</g>
</svg>
