<?xml version="1.0" standalone="no"?>
<!DOCTYPE svg PUBLIC "-//W3C//DTD SVG 20010904//EN"
 "http://www.w3.org/TR/2001/REC-SVG-20010904/DTD/svg10.dtd">
<svg version="1.0" xmlns="http://www.w3.org/2000/svg"
 width="96.000000pt" height="84.000000pt" viewBox="0 0 96.000000 84.000000"
 preserveAspectRatio="xMidYMid meet">
<metadata>
Created by potrace 1.16, written by Peter Selinger 2001-2019
</metadata>
<g transform="translate(0.000000,84.000000) scale(0.100000,-0.100000)"
fill="#000000" stroke="none">
<path d="M337 606 c-3 -8 1 -28 9 -45 13 -27 13 -33 -1 -62 -10 -18 -14 -41
-11 -55 4 -13 0 -52 -8 -87 -8 -34 -20 -106 -27 -161 -14 -108 -16 -103 47
-143 17 -10 14 -12 -19 -12 -31 -1 -38 -4 -35 -18 3 -14 15 -19 62 -21 32 -2
66 0 75 3 13 5 12 9 -9 25 l-25 19 23 17 c23 16 23 20 17 103 -3 47 -11 114
-16 147 -7 41 -7 68 -1 80 7 13 5 36 -4 72 -11 41 -11 57 -2 72 20 32 -1 74
-38 78 -21 2 -33 -2 -37 -12z"/>
</g>
</svg>
