<?xml version="1.0" standalone="no"?>
<!DOCTYPE svg PUBLIC "-//W3C//DTD SVG 20010904//EN"
 "http://www.w3.org/TR/2001/REC-SVG-20010904/DTD/svg10.dtd">
<svg version="1.0" xmlns="http://www.w3.org/2000/svg"
 width="96.000000pt" height="84.000000pt" viewBox="0 0 96.000000 84.000000"
 preserveAspectRatio="xMidYMid meet">
<metadata>
Created by potrace 1.16, written by Peter Selinger 2001-2019
</metadata>
<g transform="translate(0.000000,84.000000) scale(0.100000,-0.100000)"
fill="#000000" stroke="none">
<path d="M310 620 c0 -14 6 -37 14 -52 13 -24 12 -31 -6 -64 -16 -30 -18 -42
-9 -56 8 -13 7 -32 -4 -75 -18 -67 -41 -302 -33 -324 9 -23 76 -52 103 -45 47
12 53 28 48 123 -2 48 -11 121 -19 161 -9 40 -13 85 -10 100 3 15 2 54 -3 87
-7 47 -6 63 6 76 30 35 -10 99 -59 96 -23 -2 -28 -7 -28 -27z"/>
</g>
</svg>
