<?xml version="1.0" standalone="no"?>
<!DOCTYPE svg PUBLIC "-//W3C//DTD SVG 20010904//EN"
 "http://www.w3.org/TR/2001/REC-SVG-20010904/DTD/svg10.dtd">
<svg version="1.0" xmlns="http://www.w3.org/2000/svg"
 width="96.000000pt" height="84.000000pt" viewBox="0 0 96.000000 84.000000"
 preserveAspectRatio="xMidYMid meet">
<metadata>
Created by potrace 1.16, written by Peter Selinger 2001-2019
</metadata>
<g transform="translate(0.000000,84.000000) scale(0.100000,-0.100000)"
fill="#000000" stroke="none">
<path d="M275 665 c-2 -5 -5 -17 -8 -25 -2 -8 4 -31 13 -50 18 -37 17 -54 -6
-81 -9 -9 -13 -36 -12 -70 1 -30 -1 -65 -5 -79 -9 -32 -33 -204 -42 -293 l-7
-67 102 0 102 0 -6 28 c-3 15 -8 54 -11 87 -8 79 -35 207 -47 222 -6 7 -6 19
1 31 5 10 9 52 7 93 -3 60 0 79 15 101 16 22 17 31 8 55 -17 44 -39 63 -72 61
-16 -1 -31 -7 -32 -13z"/>
</g>
</svg>
