<?xml version="1.0" standalone="no"?>
<!DOCTYPE svg PUBLIC "-//W3C//DTD SVG 20010904//EN"
 "http://www.w3.org/TR/2001/REC-SVG-20010904/DTD/svg10.dtd">
<svg version="1.0" xmlns="http://www.w3.org/2000/svg"
 width="96.000000pt" height="84.000000pt" viewBox="0 0 96.000000 84.000000"
 preserveAspectRatio="xMidYMid meet">
<metadata>
Created by potrace 1.16, written by Peter Selinger 2001-2019
</metadata>
<g transform="translate(0.000000,84.000000) scale(0.100000,-0.100000)"
fill="#000000" stroke="none">
<path d="M258 653 c-2 -16 4 -44 14 -64 17 -35 16 -37 -8 -83 -20 -37 -23 -50
-13 -62 6 -7 9 -26 6 -41 -28 -142 -37 -197 -42 -276 -4 -51 -9 -100 -12 -109
-4 -16 5 -18 96 -18 56 0 101 1 101 3 0 26 -34 236 -46 280 -14 54 -14 61 1
84 9 14 14 32 10 41 -4 9 -10 41 -14 71 -7 46 -5 57 12 74 14 14 18 27 13 50
-11 56 -32 77 -76 77 -35 0 -39 -3 -42 -27z"/>
</g>
</svg>
