<?xml version="1.0" standalone="no"?>
<!DOCTYPE svg PUBLIC "-//W3C//DTD SVG 20010904//EN"
 "http://www.w3.org/TR/2001/REC-SVG-20010904/DTD/svg10.dtd">
<svg version="1.0" xmlns="http://www.w3.org/2000/svg"
 width="96.000000pt" height="84.000000pt" viewBox="0 0 96.000000 84.000000"
 preserveAspectRatio="xMidYMid meet">
<metadata>
Created by potrace 1.16, written by Peter Selinger 2001-2019
</metadata>
<g transform="translate(0.000000,84.000000) scale(0.100000,-0.100000)"
fill="#000000" stroke="none">
<path d="M255 681 c-9 -8 -5 -60 4 -65 21 -14 21 -58 0 -102 -20 -38 -21 -47
-9 -69 10 -19 11 -31 2 -49 -13 -28 -37 -191 -47 -314 l-7 -82 102 0 102 0 -6
27 c-3 16 -10 64 -15 108 -6 44 -17 109 -25 144 -13 58 -13 67 1 95 12 23 13
37 5 60 -16 48 -25 116 -14 116 5 0 14 11 20 25 12 27 -4 81 -31 104 -14 11
-72 12 -82 2z"/>
</g>
</svg>
