<?xml version="1.0" standalone="no"?>
<!DOCTYPE svg PUBLIC "-//W3C//DTD SVG 20010904//EN"
 "http://www.w3.org/TR/2001/REC-SVG-20010904/DTD/svg10.dtd">
<svg version="1.0" xmlns="http://www.w3.org/2000/svg"
 width="96.000000pt" height="84.000000pt" viewBox="0 0 96.000000 84.000000"
 preserveAspectRatio="xMidYMid meet">
<metadata>
Created by potrace 1.16, written by Peter Selinger 2001-2019
</metadata>
<g transform="translate(0.000000,84.000000) scale(0.100000,-0.100000)"
fill="#000000" stroke="none">
<path d="M269 683 c-25 -6 -28 -46 -8 -88 18 -37 18 -39 -3 -87 -18 -42 -19
-52 -8 -73 10 -18 10 -31 2 -52 -12 -30 -12 -32 -42 -218 -30 -182 -39 -165
85 -165 104 0 105 0 101 23 -3 12 -10 62 -16 112 -5 50 -17 114 -24 144 -13
47 -13 58 1 92 13 35 13 43 -1 81 -22 63 -23 81 -3 112 20 30 17 61 -10 102
-15 23 -36 28 -74 17z"/>
<path d="M802 48 c-7 -7 -12 -20 -12 -30 0 -15 8 -18 44 -18 37 0 46 4 51 21
5 14 2 25 -6 30 -20 13 -63 11 -77 -3z"/>
</g>
</svg>
