<?xml version="1.0" standalone="no"?>
<!DOCTYPE svg PUBLIC "-//W3C//DTD SVG 20010904//EN"
 "http://www.w3.org/TR/2001/REC-SVG-20010904/DTD/svg10.dtd">
<svg version="1.0" xmlns="http://www.w3.org/2000/svg"
 width="96.000000pt" height="84.000000pt" viewBox="0 0 96.000000 84.000000"
 preserveAspectRatio="xMidYMid meet">
<metadata>
Created by potrace 1.16, written by Peter Selinger 2001-2019
</metadata>
<g transform="translate(0.000000,84.000000) scale(0.100000,-0.100000)"
fill="#000000" stroke="none">
<path d="M430 532 c-18 -14 -24 -32 -28 -76 -3 -42 -8 -56 -18 -52 -7 3 -16 1
-19 -4 -3 -5 5 -10 17 -12 19 -2 24 -11 29 -47 7 -55 36 -81 91 -81 47 0 89
20 117 56 16 21 20 39 19 88 -2 79 -10 102 -50 126 -43 26 -127 27 -158 2z"/>
</g>
</svg>
