<?xml version="1.0" standalone="no"?>
<!DOCTYPE svg PUBLIC "-//W3C//DTD SVG 20010904//EN"
 "http://www.w3.org/TR/2001/REC-SVG-20010904/DTD/svg10.dtd">
<svg version="1.0" xmlns="http://www.w3.org/2000/svg"
 width="96.000000pt" height="84.000000pt" viewBox="0 0 96.000000 84.000000"
 preserveAspectRatio="xMidYMid meet">
<metadata>
Created by potrace 1.16, written by Peter Selinger 2001-2019
</metadata>
<g transform="translate(0.000000,84.000000) scale(0.100000,-0.100000)"
fill="#000000" stroke="none">
<path d="M259 685 c0 0 -3 -11 -5 -24 -2 -14 3 -40 12 -59 16 -33 15 -38 -6
-89 -18 -43 -20 -56 -10 -68 7 -8 10 -25 7 -37 -3 -13 -8 -33 -11 -46 -10 -43
-25 -166 -32 -264 l-7 -98 98 0 c96 0 97 0 92 23 -3 12 -8 49 -12 82 -9 84
-36 218 -48 232 -6 9 -4 21 7 38 9 14 14 30 10 36 -3 6 -8 36 -10 67 -2 30 -6
57 -9 60 -2 2 7 15 20 28 21 21 23 28 13 56 -17 51 -36 68 -74 65 -19 -1 -34
-2 -35 -2z"/>
</g>
</svg>
