<?xml version="1.0" standalone="no"?>
<!DOCTYPE svg PUBLIC "-//W3C//DTD SVG 20010904//EN"
 "http://www.w3.org/TR/2001/REC-SVG-20010904/DTD/svg10.dtd">
<svg version="1.0" xmlns="http://www.w3.org/2000/svg"
 width="96.000000pt" height="84.000000pt" viewBox="0 0 96.000000 84.000000"
 preserveAspectRatio="xMidYMid meet">
<metadata>
Created by potrace 1.16, written by Peter Selinger 2001-2019
</metadata>
<g transform="translate(0.000000,84.000000) scale(0.100000,-0.100000)"
fill="#000000" stroke="none">
<path d="M256 657 c-4 -17 2 -40 15 -64 15 -26 17 -38 9 -43 -7 -4 -11 -10
-11 -14 1 -3 -6 -20 -15 -37 -13 -27 -14 -36 -3 -56 10 -18 10 -31 1 -56 -12
-35 -38 -211 -46 -319 l-5 -68 96 0 95 0 -7 78 c-5 62 -20 151 -38 237 -2 6
-6 16 -10 23 -5 6 -6 16 -3 21 3 5 7 51 8 102 1 73 6 97 19 110 14 14 16 24 9
50 -14 48 -38 69 -76 66 -27 -2 -33 -7 -38 -30z"/>
<path d="M813 23 c-28 -11 -11 -23 32 -23 48 0 60 14 23 24 -26 7 -38 7 -55
-1z"/>
</g>
</svg>
