<?xml version="1.0" standalone="no"?>
<!DOCTYPE svg PUBLIC "-//W3C//DTD SVG 20010904//EN"
 "http://www.w3.org/TR/2001/REC-SVG-20010904/DTD/svg10.dtd">
<svg version="1.0" xmlns="http://www.w3.org/2000/svg"
 width="96.000000pt" height="84.000000pt" viewBox="0 0 96.000000 84.000000"
 preserveAspectRatio="xMidYMid meet">
<metadata>
Created by potrace 1.16, written by Peter Selinger 2001-2019
</metadata>
<g transform="translate(0.000000,84.000000) scale(0.100000,-0.100000)"
fill="#000000" stroke="none">
<path d="M258 640 c-2 -14 4 -41 13 -60 17 -37 16 -48 -15 -93 -16 -24 -17
-31 -6 -52 13 -24 12 -27 -16 -100 -4 -11 -9 -37 -10 -59 -2 -37 -19 -175 -30
-243 l-5 -33 101 0 c92 0 101 2 96 18 -2 9 -8 53 -11 97 -4 44 -14 110 -22
147 -10 49 -11 72 -4 87 11 19 7 123 -5 164 -4 12 2 26 15 38 27 25 26 38 -2
80 -19 28 -29 34 -59 34 -32 1 -38 -3 -40 -25z"/>
<path d="M693 103 c-7 -2 -13 -20 -13 -39 0 -26 -6 -37 -27 -48 -26 -14 -23
-15 67 -15 77 0 91 2 72 11 -18 9 -23 19 -21 42 2 17 0 37 -5 44 -7 12 -49 15
-73 5z"/>
</g>
</svg>
