<?xml version="1.0" standalone="no"?>
<!DOCTYPE svg PUBLIC "-//W3C//DTD SVG 20010904//EN"
 "http://www.w3.org/TR/2001/REC-SVG-20010904/DTD/svg10.dtd">
<svg version="1.0" xmlns="http://www.w3.org/2000/svg"
 width="96.000000pt" height="84.000000pt" viewBox="0 0 96.000000 84.000000"
 preserveAspectRatio="xMidYMid meet">
<metadata>
Created by potrace 1.16, written by Peter Selinger 2001-2019
</metadata>
<g transform="translate(0.000000,84.000000) scale(0.100000,-0.100000)"
fill="#000000" stroke="none">
<path d="M280 671 c-31 -8 -38 -47 -15 -91 15 -30 15 -34 -5 -72 -14 -28 -19
-49 -14 -73 3 -18 -1 -58 -10 -91 -15 -56 -36 -239 -36 -311 l0 -33 91 0 91 0
-7 87 c-3 49 -13 123 -22 166 -13 61 -13 83 -4 103 12 27 5 126 -12 158 -7 15
-5 23 13 36 19 14 22 23 16 52 -9 51 -44 79 -86 69z"/>
<path d="M626 45 c-14 -37 -7 -45 40 -45 44 0 45 1 42 28 -3 23 -8 27 -39 30
-26 2 -38 -1 -43 -13z"/>
</g>
</svg>
