<?xml version="1.0" standalone="no"?>
<!DOCTYPE svg PUBLIC "-//W3C//DTD SVG 20010904//EN"
 "http://www.w3.org/TR/2001/REC-SVG-20010904/DTD/svg10.dtd">
<svg version="1.0" xmlns="http://www.w3.org/2000/svg"
 width="96.000000pt" height="84.000000pt" viewBox="0 0 96.000000 84.000000"
 preserveAspectRatio="xMidYMid meet">
<metadata>
Created by potrace 1.16, written by Peter Selinger 2001-2019
</metadata>
<g transform="translate(0.000000,84.000000) scale(0.100000,-0.100000)"
fill="#000000" stroke="none">
<path d="M245 650 c-3 -14 1 -39 10 -57 18 -35 16 -55 -9 -102 -15 -28 -16
-38 -6 -56 10 -18 8 -38 -8 -106 -12 -46 -24 -124 -27 -174 -3 -50 -8 -105
-11 -122 l-5 -33 96 0 96 0 -6 88 c-4 48 -14 122 -22 165 -13 65 -14 85 -4
113 7 19 10 38 7 42 -3 5 -8 24 -11 43 -3 19 -8 48 -11 65 -4 23 -1 33 10 37
20 8 21 49 1 87 -16 30 -19 32 -67 34 -22 1 -29 -4 -33 -24z"/>
</g>
</svg>
