<?xml version="1.0" standalone="no"?>
<!DOCTYPE svg PUBLIC "-//W3C//DTD SVG 20010904//EN"
 "http://www.w3.org/TR/2001/REC-SVG-20010904/DTD/svg10.dtd">
<svg version="1.0" xmlns="http://www.w3.org/2000/svg"
 width="96.000000pt" height="84.000000pt" viewBox="0 0 96.000000 84.000000"
 preserveAspectRatio="xMidYMid meet">
<metadata>
Created by potrace 1.16, written by Peter Selinger 2001-2019
</metadata>
<g transform="translate(0.000000,84.000000) scale(0.100000,-0.100000)"
fill="#000000" stroke="none">
<path d="M263 673 c-17 -3 -23 -11 -23 -32 0 -15 5 -32 12 -39 7 -7 9 -12 5
-12 -4 0 -3 -9 3 -20 9 -16 6 -30 -11 -65 -19 -39 -21 -48 -10 -69 8 -14 10
-33 6 -47 -5 -13 -8 -25 -7 -26 0 -2 -4 -17 -9 -35 -14 -48 -39 -225 -39 -280
l0 -48 95 0 95 0 -6 83 c-3 45 -10 107 -16 137 -6 30 -12 102 -13 160 -2 58
-8 117 -14 133 -9 23 -7 31 9 47 26 26 25 39 -3 81 -23 35 -35 40 -74 32z"/>
</g>
</svg>
