<?xml version="1.0" standalone="no"?>
<!DOCTYPE svg PUBLIC "-//W3C//DTD SVG 20010904//EN"
 "http://www.w3.org/TR/2001/REC-SVG-20010904/DTD/svg10.dtd">
<svg version="1.0" xmlns="http://www.w3.org/2000/svg"
 width="96.000000pt" height="84.000000pt" viewBox="0 0 96.000000 84.000000"
 preserveAspectRatio="xMidYMid meet">
<metadata>
Created by potrace 1.16, written by Peter Selinger 2001-2019
</metadata>
<g transform="translate(0.000000,84.000000) scale(0.100000,-0.100000)"
fill="#000000" stroke="none">
<path d="M246 637 c-4 -17 1 -40 14 -61 10 -19 16 -37 12 -41 -4 -4 -7 -10 -8
-13 0 -4 -8 -22 -16 -41 -12 -26 -13 -41 -6 -57 8 -17 5 -47 -10 -116 -19 -83
-29 -146 -46 -270 l-5 -38 100 0 99 0 -6 98 c-4 53 -12 128 -19 165 -9 48 -10
78 -3 101 8 25 6 48 -9 103 -19 68 -19 71 -1 82 23 15 23 48 -2 89 -17 27 -25
32 -54 30 -29 -3 -35 -8 -40 -31z"/>
<path d="M667 34 c-20 -21 -5 -34 39 -34 38 0 45 3 42 18 -2 11 -14 18 -38 20
-20 2 -39 0 -43 -4z"/>
</g>
</svg>
