<?xml version="1.0" standalone="no"?>
<!DOCTYPE svg PUBLIC "-//W3C//DTD SVG 20010904//EN"
 "http://www.w3.org/TR/2001/REC-SVG-20010904/DTD/svg10.dtd">
<svg version="1.0" xmlns="http://www.w3.org/2000/svg"
 width="96.000000pt" height="84.000000pt" viewBox="0 0 96.000000 84.000000"
 preserveAspectRatio="xMidYMid meet">
<metadata>
Created by potrace 1.16, written by Peter Selinger 2001-2019
</metadata>
<g transform="translate(0.000000,84.000000) scale(0.100000,-0.100000)"
fill="#000000" stroke="none">
<path d="M273 673 c-18 -3 -23 -11 -23 -36 0 -18 7 -45 15 -61 14 -27 14 -32
-5 -68 -22 -43 -26 -78 -9 -78 7 0 9 -10 5 -27 -22 -91 -56 -317 -56 -375 l0
-28 90 0 90 0 0 78 c0 42 -9 120 -19 172 -13 64 -16 102 -10 119 5 13 7 31 5
40 -3 9 -7 33 -10 53 -2 20 -7 46 -11 57 -4 13 1 27 14 40 16 16 18 26 11 52
-11 36 -38 70 -54 68 -6 -1 -21 -4 -33 -6z"/>
<path d="M647 283 c-4 -3 -7 -21 -7 -40 0 -27 -5 -35 -26 -43 -18 -7 -24 -15
-20 -26 3 -9 6 -20 6 -25 0 -5 9 -9 20 -9 11 0 23 -6 26 -14 5 -12 -7 -72 -23
-112 -4 -11 9 -14 72 -14 76 0 77 0 70 22 -21 69 -32 114 -28 121 2 4 12 7 22
7 18 0 35 35 25 52 -3 4 -16 8 -29 8 -24 0 -35 17 -35 56 0 21 -5 24 -33 24
-19 0 -37 -3 -40 -7z"/>
</g>
</svg>
