<?xml version="1.0" standalone="no"?>
<!DOCTYPE svg PUBLIC "-//W3C//DTD SVG 20010904//EN"
 "http://www.w3.org/TR/2001/REC-SVG-20010904/DTD/svg10.dtd">
<svg version="1.0" xmlns="http://www.w3.org/2000/svg"
 width="96.000000pt" height="84.000000pt" viewBox="0 0 96.000000 84.000000"
 preserveAspectRatio="xMidYMid meet">
<metadata>
Created by potrace 1.16, written by Peter Selinger 2001-2019
</metadata>
<g transform="translate(0.000000,84.000000) scale(0.100000,-0.100000)"
fill="#000000" stroke="none">
<path d="M275 682 c-27 -9 -30 -36 -9 -80 16 -34 16 -37 -5 -88 -19 -44 -20
-56 -10 -72 10 -16 10 -29 1 -59 -19 -62 -32 -151 -39 -270 l-6 -113 93 0 92
0 -7 92 c-4 51 -13 122 -22 158 -21 93 -25 299 -5 323 28 32 -14 121 -55 116
-4 -1 -17 -4 -28 -7z"/>
<path d="M628 480 c-12 -8 -15 -19 -11 -44 4 -28 1 -36 -16 -45 -11 -7 -21
-21 -21 -31 0 -16 7 -20 30 -20 34 0 36 -7 20 -89 -6 -35 -6 -68 1 -102 10
-44 8 -53 -11 -86 -31 -53 -22 -63 55 -63 l65 0 0 64 c0 36 5 68 10 71 18 11
11 71 -15 128 -26 55 -25 87 2 87 8 0 13 6 10 13 -2 6 3 17 12 23 13 10 13 14
2 28 -7 9 -24 16 -37 16 -13 0 -25 5 -25 10 -1 6 -3 15 -4 20 -1 6 -3 15 -4
20 -1 13 -41 12 -63 0z"/>
</g>
</svg>
