<?xml version="1.0" standalone="no"?>
<!DOCTYPE svg PUBLIC "-//W3C//DTD SVG 20010904//EN"
 "http://www.w3.org/TR/2001/REC-SVG-20010904/DTD/svg10.dtd">
<svg version="1.0" xmlns="http://www.w3.org/2000/svg"
 width="96.000000pt" height="84.000000pt" viewBox="0 0 96.000000 84.000000"
 preserveAspectRatio="xMidYMid meet">
<metadata>
Created by potrace 1.16, written by Peter Selinger 2001-2019
</metadata>
<g transform="translate(0.000000,84.000000) scale(0.100000,-0.100000)"
fill="#000000" stroke="none">
<path d="M284 683 c-29 -5 -35 -42 -15 -84 18 -38 16 -66 -6 -91 -11 -13 -14
-29 -9 -57 3 -23 0 -67 -8 -103 -14 -61 -28 -158 -41 -285 l-6 -63 101 0 102
0 -6 38 c-3 20 -8 64 -12 97 -3 33 -13 87 -21 120 -9 35 -16 108 -17 175 -1
97 2 118 17 135 22 24 15 69 -16 103 -21 22 -24 23 -63 15z"/>
<path d="M616 515 c-13 -13 -13 -20 -3 -36 10 -17 8 -22 -17 -43 -34 -27 -30
-56 7 -56 46 0 50 -23 12 -60 -19 -19 -35 -43 -35 -55 0 -31 24 -59 44 -52 19
7 21 38 4 55 -9 10 -9 16 4 28 14 14 16 13 26 -16 9 -26 8 -43 -10 -93 -11
-34 -27 -74 -35 -90 -13 -26 -12 -28 12 -39 20 -9 26 -18 22 -35 -3 -17 0 -23
14 -23 10 0 19 9 22 22 l4 23 2 -22 c1 -31 29 -29 37 2 3 14 13 25 21 25 12 0
14 8 10 37 -4 21 -9 63 -13 94 -6 54 -6 56 17 55 42 -2 34 31 -20 83 -44 42
-49 50 -36 61 8 7 13 16 10 20 -3 4 6 15 20 24 33 22 32 44 -2 52 -49 10 -53
13 -53 34 0 25 -41 28 -64 5z"/>
</g>
</svg>
