<?xml version="1.0" standalone="no"?>
<!DOCTYPE svg PUBLIC "-//W3C//DTD SVG 20010904//EN"
 "http://www.w3.org/TR/2001/REC-SVG-20010904/DTD/svg10.dtd">
<svg version="1.0" xmlns="http://www.w3.org/2000/svg"
 width="96.000000pt" height="84.000000pt" viewBox="0 0 96.000000 84.000000"
 preserveAspectRatio="xMidYMid meet">
<metadata>
Created by potrace 1.16, written by Peter Selinger 2001-2019
</metadata>
<g transform="translate(0.000000,84.000000) scale(0.100000,-0.100000)"
fill="#000000" stroke="none">
<path d="M283 673 c-19 -4 -23 -11 -23 -39 0 -19 5 -34 12 -34 6 0 8 -3 5 -6
-3 -4 -2 -15 4 -26 8 -15 5 -29 -11 -59 -14 -29 -19 -50 -14 -73 3 -18 1 -51
-5 -74 -12 -44 -51 -302 -51 -339 0 -22 3 -23 100 -23 73 0 100 3 100 13 -1
38 -32 225 -45 272 -9 31 -13 65 -9 77 10 32 11 118 3 151 -5 19 -4 27 5 27 7
0 18 11 24 24 9 20 7 32 -11 68 -22 43 -37 51 -84 41z"/>
<path d="M621 509 c-19 -7 -22 -14 -17 -35 5 -20 1 -33 -14 -49 -29 -31 -23
-60 13 -60 16 1 27 -5 27 -12 0 -16 -66 -18 -75 -3 -11 17 -33 11 -40 -11 -10
-31 19 -58 45 -41 34 21 75 15 88 -13 17 -38 15 -63 -13 -149 -14 -42 -25 -79
-25 -82 0 -2 11 -9 25 -14 14 -5 25 -16 25 -25 0 -24 61 -20 67 5 3 11 11 20
19 20 21 0 26 18 15 53 -6 17 -17 74 -24 125 l-14 92 34 -6 c46 -9 83 2 83 25
0 22 -27 31 -55 20 -11 -4 -32 -8 -47 -8 -24 -1 -28 3 -28 25 0 16 11 37 26
51 21 19 24 26 14 38 -7 8 -25 15 -41 15 -16 0 -30 5 -30 10 -1 6 -2 16 -3 22
-1 16 -25 19 -55 7z"/>
</g>
</svg>
