<?xml version="1.0" standalone="no"?>
<!DOCTYPE svg PUBLIC "-//W3C//DTD SVG 20010904//EN"
 "http://www.w3.org/TR/2001/REC-SVG-20010904/DTD/svg10.dtd">
<svg version="1.0" xmlns="http://www.w3.org/2000/svg"
 width="96.000000pt" height="84.000000pt" viewBox="0 0 96.000000 84.000000"
 preserveAspectRatio="xMidYMid meet">
<metadata>
Created by potrace 1.16, written by Peter Selinger 2001-2019
</metadata>
<g transform="translate(0.000000,84.000000) scale(0.100000,-0.100000)"
fill="#000000" stroke="none">
<path d="M283 673 c-19 -4 -23 -11 -23 -39 0 -19 4 -34 9 -34 19 0 19 -56 0
-94 -14 -27 -19 -50 -15 -71 4 -18 0 -61 -8 -96 -8 -35 -19 -109 -25 -164 -6
-55 -13 -117 -16 -137 l-5 -38 101 0 101 0 -5 33 c-3 17 -9 59 -12 92 -4 33
-16 95 -26 138 -14 55 -17 83 -10 96 11 19 8 134 -4 164 -5 11 -2 17 7 17 8 0
20 10 25 23 17 36 -29 120 -62 115 -5 0 -20 -3 -32 -5z"/>
<path d="M626 498 c-24 -9 -27 -14 -23 -38 8 -38 -31 -77 -62 -61 -11 6 -32 9
-46 5 -27 -7 -34 -24 -10 -24 9 0 18 -7 21 -15 4 -8 15 -15 25 -15 10 0 38 -9
62 -21 36 -18 45 -28 56 -64 11 -38 10 -54 -8 -126 -26 -104 -26 -107 4 -115
14 -3 25 -10 25 -15 0 -5 14 -9 30 -9 20 0 30 5 30 15 0 8 7 15 15 15 12 0 15
7 10 33 -3 17 -12 81 -21 141 -17 122 -18 118 51 136 86 23 108 42 60 54 -17
4 -41 -2 -75 -19 -27 -14 -52 -25 -55 -25 -13 0 -3 28 15 45 11 10 20 27 20
37 0 19 -36 39 -57 31 -7 -3 -17 7 -23 21 -5 14 -11 26 -12 25 -2 0 -16 -5
-32 -11z"/>
</g>
</svg>
