<?xml version="1.0" standalone="no"?>
<!DOCTYPE svg PUBLIC "-//W3C//DTD SVG 20010904//EN"
 "http://www.w3.org/TR/2001/REC-SVG-20010904/DTD/svg10.dtd">
<svg version="1.0" xmlns="http://www.w3.org/2000/svg"
 width="96.000000pt" height="84.000000pt" viewBox="0 0 96.000000 84.000000"
 preserveAspectRatio="xMidYMid meet">
<metadata>
Created by potrace 1.16, written by Peter Selinger 2001-2019
</metadata>
<g transform="translate(0.000000,84.000000) scale(0.100000,-0.100000)"
fill="#000000" stroke="none">
<path d="M283 673 c-19 -4 -23 -11 -23 -39 0 -19 4 -34 9 -34 19 0 19 -56 0
-93 -14 -27 -17 -48 -13 -76 3 -22 1 -54 -5 -72 -14 -43 -41 -248 -41 -311 l0
-48 96 0 96 0 -6 38 c-3 20 -8 60 -11 87 -8 68 -36 188 -46 199 -4 5 -4 18 2
28 6 10 11 56 11 101 1 62 6 88 19 105 16 21 16 26 3 60 -16 38 -40 63 -58 61
-6 -1 -21 -4 -33 -6z"/>
<path d="M610 485 c-6 -8 -9 -22 -6 -33 4 -12 -2 -26 -17 -40 -21 -19 -25 -20
-42 -8 -14 10 -25 11 -38 5 -9 -6 -23 -7 -30 -3 -6 4 1 -5 16 -19 15 -15 33
-27 39 -27 5 0 31 -12 57 -27 64 -36 80 -83 58 -175 -31 -128 -31 -127 -3
-134 14 -3 26 -10 26 -15 0 -15 49 -10 68 7 16 13 17 24 10 77 -4 34 -10 80
-13 102 -3 22 -7 58 -11 80 -5 39 -4 41 31 58 19 9 42 17 51 17 8 0 26 7 40
16 l24 17 -26 13 c-24 13 -31 12 -75 -16 -27 -16 -51 -30 -54 -30 -13 0 -3 29
15 45 32 29 22 59 -19 63 -23 2 -35 9 -38 23 -6 23 -45 26 -63 4z"/>
</g>
</svg>
