<?xml version="1.0" standalone="no"?>
<!DOCTYPE svg PUBLIC "-//W3C//DTD SVG 20010904//EN"
 "http://www.w3.org/TR/2001/REC-SVG-20010904/DTD/svg10.dtd">
<svg version="1.0" xmlns="http://www.w3.org/2000/svg"
 width="96.000000pt" height="84.000000pt" viewBox="0 0 96.000000 84.000000"
 preserveAspectRatio="xMidYMid meet">
<metadata>
Created by potrace 1.16, written by Peter Selinger 2001-2019
</metadata>
<g transform="translate(0.000000,84.000000) scale(0.100000,-0.100000)"
fill="#000000" stroke="none">
<path d="M285 672 c-13 -5 -21 -18 -23 -39 -2 -18 1 -33 6 -33 20 0 21 -55 1
-93 -14 -27 -17 -49 -13 -76 3 -20 1 -55 -5 -77 -14 -48 -41 -253 -41 -311 l0
-43 95 0 c69 0 95 3 95 13 -1 42 -32 231 -45 275 -9 29 -14 61 -10 71 3 9 6
53 6 97 2 60 6 85 20 102 17 22 17 27 3 60 -22 55 -44 68 -89 54z"/>
<path d="M612 484 c-18 -13 -21 -19 -11 -30 10 -12 7 -19 -11 -39 -20 -21 -25
-22 -44 -11 -13 8 -32 10 -51 5 -28 -6 -29 -7 -7 -14 12 -4 22 -14 22 -21 0
-8 7 -14 16 -14 9 0 37 -11 63 -25 39 -22 49 -33 60 -70 11 -38 10 -53 -8
-126 -26 -104 -26 -107 4 -115 14 -3 25 -10 25 -15 0 -16 50 -10 69 9 16 15
18 25 11 72 -5 30 -11 75 -14 100 -3 25 -9 63 -12 86 -6 39 -4 42 29 57 19 10
40 17 47 17 35 0 82 42 52 46 -4 0 -14 4 -23 8 -11 5 -32 -4 -62 -23 -25 -17
-48 -31 -51 -31 -13 0 -5 25 15 46 31 33 18 64 -27 64 -27 0 -34 4 -34 20 0
24 -26 26 -58 4z"/>
</g>
</svg>
