<?xml version="1.0" standalone="no"?>
<!DOCTYPE svg PUBLIC "-//W3C//DTD SVG 20010904//EN"
 "http://www.w3.org/TR/2001/REC-SVG-20010904/DTD/svg10.dtd">
<svg version="1.0" xmlns="http://www.w3.org/2000/svg"
 width="96.000000pt" height="84.000000pt" viewBox="0 0 96.000000 84.000000"
 preserveAspectRatio="xMidYMid meet">
<metadata>
Created by potrace 1.16, written by Peter Selinger 2001-2019
</metadata>
<g transform="translate(0.000000,84.000000) scale(0.100000,-0.100000)"
fill="#000000" stroke="none">
<path d="M293 673 c-23 -5 -43 -60 -26 -72 21 -13 22 -58 3 -94 -15 -28 -19
-47 -14 -76 4 -24 0 -60 -9 -93 -14 -47 -37 -243 -37 -312 l0 -26 95 0 c92 0
95 1 95 23 0 41 -29 212 -45 265 -9 29 -14 61 -10 71 3 9 6 53 6 97 2 60 6 85
20 102 17 22 17 27 3 60 -13 34 -40 64 -53 61 -3 -1 -16 -4 -28 -6z"/>
<path d="M612 484 c-18 -13 -21 -19 -11 -30 10 -12 7 -20 -11 -39 -21 -23 -26
-24 -45 -11 -14 10 -27 11 -38 4 -10 -5 -22 -6 -29 -2 -7 4 -8 3 -4 -4 4 -7
14 -12 22 -12 8 0 14 -7 14 -15 0 -8 7 -15 16 -15 9 0 37 -12 63 -27 39 -22
50 -34 60 -70 12 -40 11 -53 -12 -135 l-25 -90 29 -11 c16 -6 29 -15 29 -19 0
-15 51 -8 70 10 17 16 19 25 10 78 -5 32 -11 75 -14 94 -2 19 -8 56 -11 81 -7
45 -6 46 28 62 19 10 40 17 47 17 6 0 25 7 42 16 l30 16 -27 14 c-26 13 -31
12 -76 -16 -27 -16 -51 -30 -54 -30 -12 0 -3 26 16 46 31 33 18 64 -27 64 -27
0 -34 4 -34 20 0 24 -26 26 -58 4z"/>
</g>
</svg>
