<?xml version="1.0" standalone="no"?>
<!DOCTYPE svg PUBLIC "-//W3C//DTD SVG 20010904//EN"
 "http://www.w3.org/TR/2001/REC-SVG-20010904/DTD/svg10.dtd">
<svg version="1.0" xmlns="http://www.w3.org/2000/svg"
 width="96.000000pt" height="84.000000pt" viewBox="0 0 96.000000 84.000000"
 preserveAspectRatio="xMidYMid meet">
<metadata>
Created by potrace 1.16, written by Peter Selinger 2001-2019
</metadata>
<g transform="translate(0.000000,84.000000) scale(0.100000,-0.100000)"
fill="#000000" stroke="none">
<path d="M290 671 c-19 -5 -26 -14 -28 -38 -2 -18 1 -33 6 -33 22 0 20 -56 -3
-100 -17 -35 -21 -50 -13 -64 11 -20 3 -87 -14 -120 -6 -11 -12 -50 -13 -86
-1 -36 -5 -102 -10 -148 l-8 -82 97 0 c110 0 103 -11 85 117 -11 85 -37 193
-50 207 -4 5 -4 17 1 26 11 20 17 156 7 166 -3 4 4 20 18 36 22 26 23 31 11
59 -15 35 -42 70 -53 68 -5 -1 -19 -4 -33 -8z"/>
<path d="M610 485 c-6 -8 -9 -22 -6 -33 4 -12 -2 -26 -19 -42 -22 -21 -26 -22
-42 -8 -15 13 -23 13 -47 3 -28 -12 -29 -13 -8 -19 12 -4 22 -12 22 -17 0 -5
6 -9 12 -9 7 0 36 -12 63 -26 44 -22 53 -31 64 -70 12 -39 11 -53 -8 -122 -27
-100 -26 -110 4 -118 14 -3 25 -10 25 -15 0 -16 50 -9 69 10 20 20 20 13 -14
252 l-7 46 41 17 c23 9 49 16 59 16 17 1 60 27 51 32 -46 28 -48 28 -97 -2
-27 -17 -52 -30 -56 -30 -14 0 -5 28 14 45 32 29 22 59 -19 63 -23 2 -35 9
-38 23 -6 23 -45 26 -63 4z"/>
</g>
</svg>
