<?xml version="1.0" standalone="no"?>
<!DOCTYPE svg PUBLIC "-//W3C//DTD SVG 20010904//EN"
 "http://www.w3.org/TR/2001/REC-SVG-20010904/DTD/svg10.dtd">
<svg version="1.0" xmlns="http://www.w3.org/2000/svg"
 width="96.000000pt" height="84.000000pt" viewBox="0 0 96.000000 84.000000"
 preserveAspectRatio="xMidYMid meet">
<metadata>
Created by potrace 1.16, written by Peter Selinger 2001-2019
</metadata>
<g transform="translate(0.000000,84.000000) scale(0.100000,-0.100000)"
fill="#000000" stroke="none">
<path d="M288 672 c-24 -3 -28 -8 -28 -37 0 -19 5 -37 10 -40 6 -4 8 -10 5
-15 -3 -5 -1 -12 5 -15 13 -8 4 -41 -23 -78 -17 -25 -18 -32 -7 -53 13 -23 9
-53 -18 -124 -3 -8 -6 -35 -7 -60 0 -25 -5 -91 -9 -148 l-9 -102 97 0 c80 0
96 3 96 16 0 59 -46 292 -61 308 -4 5 -3 18 3 29 6 12 9 54 6 102 -4 73 -2 84
15 95 15 9 18 19 14 47 -10 56 -39 82 -89 75z"/>
<path d="M626 498 c-24 -9 -27 -14 -23 -38 8 -40 -30 -75 -64 -60 -17 8 -32 8
-49 1 l-25 -10 23 -7 c12 -3 22 -10 22 -14 0 -5 10 -12 23 -15 12 -4 40 -16
63 -27 33 -16 42 -27 53 -64 12 -39 11 -53 -8 -122 -27 -100 -26 -110 4 -118
14 -3 25 -10 25 -15 0 -16 50 -9 69 10 20 20 20 13 -14 252 l-7 47 44 15 c23
8 56 18 72 23 40 12 43 31 8 39 -22 4 -42 -1 -75 -19 -25 -15 -48 -26 -51 -26
-14 0 -4 28 14 45 31 28 22 59 -18 63 -24 2 -35 10 -42 28 -5 13 -11 24 -12
23 -2 0 -16 -5 -32 -11z"/>
</g>
</svg>
