<?xml version="1.0" standalone="no"?>
<!DOCTYPE svg PUBLIC "-//W3C//DTD SVG 20010904//EN"
 "http://www.w3.org/TR/2001/REC-SVG-20010904/DTD/svg10.dtd">
<svg version="1.0" xmlns="http://www.w3.org/2000/svg"
 width="96.000000pt" height="84.000000pt" viewBox="0 0 96.000000 84.000000"
 preserveAspectRatio="xMidYMid meet">
<metadata>
Created by potrace 1.16, written by Peter Selinger 2001-2019
</metadata>
<g transform="translate(0.000000,84.000000) scale(0.100000,-0.100000)"
fill="#000000" stroke="none">
<path d="M290 671 c-8 -6 -18 -8 -22 -5 -17 11 -20 -49 -4 -76 22 -38 20 -65
-6 -100 -19 -26 -20 -33 -8 -55 11 -21 11 -32 -5 -77 -9 -29 -19 -78 -21 -108
-2 -30 -8 -99 -12 -152 l-7 -98 98 0 99 0 -6 28 c-4 15 -10 61 -16 102 -5 41
-18 105 -28 142 -12 41 -16 72 -10 80 5 7 8 51 6 98 -2 69 1 90 16 113 16 23
17 31 6 57 -11 27 -45 60 -60 60 -3 0 -12 -4 -20 -9z"/>
<path d="M626 498 c-24 -9 -27 -14 -23 -38 8 -38 -31 -77 -62 -61 -22 12 -71
5 -71 -10 0 -5 9 -9 20 -9 11 0 20 -7 20 -15 0 -9 9 -15 21 -15 12 0 41 -9 63
-21 35 -17 44 -28 55 -65 12 -39 11 -53 -8 -122 -27 -100 -26 -110 4 -118 14
-3 25 -10 25 -15 0 -15 44 -9 66 9 24 20 24 9 -11 253 l-7 46 39 15 c21 9 55
18 76 22 42 8 50 32 13 42 -15 3 -42 -4 -74 -20 -28 -14 -54 -26 -57 -26 -13
0 -3 29 15 45 31 28 22 59 -18 63 -24 2 -35 10 -42 28 -5 13 -11 24 -12 23 -2
0 -16 -5 -32 -11z"/>
</g>
</svg>
