<?xml version="1.0" standalone="no"?>
<!DOCTYPE svg PUBLIC "-//W3C//DTD SVG 20010904//EN"
 "http://www.w3.org/TR/2001/REC-SVG-20010904/DTD/svg10.dtd">
<svg version="1.0" xmlns="http://www.w3.org/2000/svg"
 width="96.000000pt" height="84.000000pt" viewBox="0 0 96.000000 84.000000"
 preserveAspectRatio="xMidYMid meet">
<metadata>
Created by potrace 1.16, written by Peter Selinger 2001-2019
</metadata>
<g transform="translate(0.000000,84.000000) scale(0.100000,-0.100000)"
fill="#000000" stroke="none">
<path d="M259 653 c-9 -24 -2 -80 12 -98 4 -6 -1 -31 -12 -55 -16 -35 -18 -49
-9 -63 8 -13 6 -34 -9 -85 -10 -37 -22 -107 -25 -157 -4 -49 -10 -114 -13
-142 l-6 -53 97 0 c85 0 96 2 96 18 0 37 -31 216 -45 264 -8 28 -12 55 -8 61
10 17 13 147 3 173 -7 18 -5 24 10 29 30 10 34 47 10 88 -12 20 -25 38 -28 38
-43 9 -65 3 -73 -18z"/>
<path d="M638 498 c-20 -7 -28 -17 -28 -32 0 -13 -9 -31 -20 -41 -31 -28 -23
-69 13 -73 34 -4 35 -19 2 -34 -19 -8 -31 -8 -50 0 -21 10 -28 9 -46 -9 -28
-28 -20 -43 24 -47 26 -2 45 3 63 17 35 28 39 27 51 -13 8 -27 6 -55 -10 -132
-16 -74 -18 -99 -9 -102 7 -2 19 -10 26 -18 20 -19 57 -17 83 5 25 21 26 -1
-13 231 -6 34 -5 34 14 17 28 -25 122 -14 122 15 0 25 -44 42 -69 26 -15 -9
-24 -8 -46 6 -38 25 -41 43 -11 71 14 13 26 27 26 30 0 20 -24 44 -50 50 -16
4 -30 13 -30 20 0 20 -12 24 -42 13z"/>
</g>
</svg>
