<?xml version="1.0" standalone="no"?>
<!DOCTYPE svg PUBLIC "-//W3C//DTD SVG 20010904//EN"
 "http://www.w3.org/TR/2001/REC-SVG-20010904/DTD/svg10.dtd">
<svg version="1.0" xmlns="http://www.w3.org/2000/svg"
 width="96.000000pt" height="84.000000pt" viewBox="0 0 96.000000 84.000000"
 preserveAspectRatio="xMidYMid meet">
<metadata>
Created by potrace 1.16, written by Peter Selinger 2001-2019
</metadata>
<g transform="translate(0.000000,84.000000) scale(0.100000,-0.100000)"
fill="#000000" stroke="none">
<path d="M272 668 c-7 -7 -12 -20 -12 -31 0 -10 -5 -28 -11 -39 -9 -18 -8 -24
10 -37 l21 -16 -21 -39 c-15 -29 -19 -48 -14 -76 4 -21 2 -47 -4 -58 -12 -22
-41 -252 -41 -324 l0 -48 95 0 c94 0 95 0 90 23 -3 12 -9 59 -15 104 -5 46
-17 110 -25 144 -9 33 -13 70 -9 82 9 28 9 133 -1 169 -6 23 -4 26 13 21 11
-2 23 1 27 7 8 13 -9 75 -28 101 -16 21 -61 31 -75 17z"/>
<path d="M637 474 c-61 -48 -65 -63 -27 -97 l31 -27 -18 -51 c-10 -28 -26 -55
-35 -60 -12 -6 -18 -22 -18 -44 0 -19 2 -35 5 -35 18 0 58 51 58 74 0 14 3 23
8 20 10 -6 6 -49 -15 -148 -13 -65 -13 -69 5 -73 10 -3 19 -12 19 -19 0 -20
66 -19 74 1 3 8 13 15 21 15 11 0 15 6 11 18 -10 31 -34 152 -30 152 2 0 20
-9 40 -20 20 -12 39 -19 41 -16 10 10 -21 63 -46 78 -16 8 -31 30 -38 54 -12
38 -11 40 20 66 30 26 31 28 17 51 -49 77 -63 97 -69 97 -4 0 -28 -16 -54 -36z"/>
</g>
</svg>
