<?xml version="1.0" standalone="no"?>
<!DOCTYPE svg PUBLIC "-//W3C//DTD SVG 20010904//EN"
 "http://www.w3.org/TR/2001/REC-SVG-20010904/DTD/svg10.dtd">
<svg version="1.0" xmlns="http://www.w3.org/2000/svg"
 width="96.000000pt" height="84.000000pt" viewBox="0 0 96.000000 84.000000"
 preserveAspectRatio="xMidYMid meet">
<metadata>
Created by potrace 1.16, written by Peter Selinger 2001-2019
</metadata>
<g transform="translate(0.000000,84.000000) scale(0.100000,-0.100000)"
fill="#000000" stroke="none">
<path d="M278 666 c-8 -6 -20 -29 -27 -50 -13 -37 -12 -41 7 -57 12 -9 18 -20
14 -24 -4 -3 -7 -10 -7 -13 0 -4 -9 -20 -19 -35 -16 -23 -17 -32 -7 -51 10
-19 10 -32 -3 -68 -16 -48 -21 -82 -31 -208 -3 -41 -8 -94 -11 -117 l-5 -43
95 0 c85 0 96 2 96 18 -1 35 -30 224 -37 235 -4 6 -7 73 -7 149 -1 123 1 138
16 138 25 0 28 12 17 56 -17 63 -61 96 -91 70z"/>
<path d="M678 490 c-7 -11 -22 -20 -34 -20 -12 0 -27 -7 -34 -15 -13 -15 -9
-25 27 -62 8 -10 8 -26 -4 -70 -8 -32 -19 -62 -24 -68 -12 -12 -12 -62 0 -69
5 -4 11 0 14 6 2 7 7 11 10 8 2 -3 -1 -34 -9 -70 -17 -83 -17 -90 1 -90 8 0
15 -9 15 -20 0 -22 20 -26 38 -8 9 9 12 9 12 0 0 -17 27 -15 34 3 3 8 12 15
20 15 12 0 12 7 1 53 -24 97 -26 107 -15 107 5 0 10 -7 10 -16 0 -8 5 -12 10
-9 12 8 13 62 1 69 -15 9 -41 97 -33 110 4 6 13 11 21 11 8 0 19 8 24 17 9 13
7 22 -7 37 -12 13 -15 27 -11 41 4 14 1 28 -11 41 -22 24 -41 24 -56 -1z"/>
</g>
</svg>
