<?xml version="1.0" standalone="no"?>
<!DOCTYPE svg PUBLIC "-//W3C//DTD SVG 20010904//EN"
 "http://www.w3.org/TR/2001/REC-SVG-20010904/DTD/svg10.dtd">
<svg version="1.0" xmlns="http://www.w3.org/2000/svg"
 width="96.000000pt" height="84.000000pt" viewBox="0 0 96.000000 84.000000"
 preserveAspectRatio="xMidYMid meet">
<metadata>
Created by potrace 1.16, written by Peter Selinger 2001-2019
</metadata>
<g transform="translate(0.000000,84.000000) scale(0.100000,-0.100000)"
fill="#000000" stroke="none">
<path d="M276 668 c-9 -5 -16 -16 -16 -24 0 -8 -7 -25 -16 -38 -14 -23 -14
-25 9 -42 l24 -19 -24 -38 c-19 -31 -23 -46 -18 -80 4 -23 2 -55 -4 -70 -13
-32 -41 -251 -41 -314 l0 -43 96 0 c86 0 95 2 90 18 -3 9 -10 60 -16 112 -5
52 -16 118 -24 145 -8 32 -10 59 -5 73 10 28 6 149 -6 175 -6 16 -4 18 16 15
22 -3 24 0 22 40 -3 71 -45 114 -87 90z"/>
<path d="M680 490 c-6 -11 -21 -20 -35 -20 -34 0 -40 -16 -16 -46 27 -34 26
-64 -1 -110 -22 -38 -26 -88 -7 -110 10 -12 -2 -112 -16 -135 -4 -5 0 -12 8
-15 9 -3 18 -16 21 -30 7 -28 36 -33 36 -6 1 16 1 16 11 0 12 -22 39 -24 39
-3 0 8 7 15 15 15 18 0 18 0 1 72 -11 43 -11 67 -4 91 8 25 7 47 -3 83 -20 68
-15 92 17 86 27 -5 34 18 10 37 -11 9 -12 20 -5 44 5 18 9 33 9 34 0 1 -7 9
-16 17 -21 22 -51 20 -64 -4z"/>
</g>
</svg>
