<?xml version="1.0" standalone="no"?>
<!DOCTYPE svg PUBLIC "-//W3C//DTD SVG 20010904//EN"
 "http://www.w3.org/TR/2001/REC-SVG-20010904/DTD/svg10.dtd">
<svg version="1.0" xmlns="http://www.w3.org/2000/svg"
 width="96.000000pt" height="84.000000pt" viewBox="0 0 96.000000 84.000000"
 preserveAspectRatio="xMidYMid meet">
<metadata>
Created by potrace 1.16, written by Peter Selinger 2001-2019
</metadata>
<g transform="translate(0.000000,84.000000) scale(0.100000,-0.100000)"
fill="#000000" stroke="none">
<path d="M251 628 c-18 -41 -18 -44 -1 -63 19 -22 17 -36 -13 -78 -17 -25 -18
-32 -6 -53 10 -19 10 -32 1 -57 -14 -41 -19 -68 -32 -191 -6 -56 -12 -120 -15
-144 l-5 -42 96 0 95 0 -7 78 c-3 42 -14 115 -23 162 -10 47 -15 96 -11 110 8
33 5 139 -4 169 -7 19 -5 23 7 18 24 -9 38 16 30 54 -10 53 -31 79 -65 79 -24
0 -32 -6 -47 -42z"/>
<path d="M684 495 c-12 -19 -22 -23 -40 -19 -28 7 -31 -6 -10 -39 22 -35 22
-69 -2 -107 -32 -50 -36 -74 -18 -112 13 -27 14 -44 6 -93 -6 -39 -6 -63 0
-69 6 -6 10 -20 10 -33 0 -14 6 -23 15 -23 8 0 15 9 15 20 0 11 5 20 10 20 6
0 10 -9 10 -20 0 -11 7 -20 15 -20 8 0 15 7 15 15 0 7 7 18 16 23 14 8 15 16
4 66 -9 44 -9 68 1 105 9 37 9 56 1 81 -7 18 -12 44 -12 58 0 21 3 23 25 18
18 -5 25 -2 25 8 0 8 -5 18 -11 22 -7 4 -8 22 -4 51 5 37 3 47 -12 59 -26 20
-40 17 -59 -11z"/>
</g>
</svg>
