<?xml version="1.0" standalone="no"?>
<!DOCTYPE svg PUBLIC "-//W3C//DTD SVG 20010904//EN"
 "http://www.w3.org/TR/2001/REC-SVG-20010904/DTD/svg10.dtd">
<svg version="1.0" xmlns="http://www.w3.org/2000/svg"
 width="96.000000pt" height="84.000000pt" viewBox="0 0 96.000000 84.000000"
 preserveAspectRatio="xMidYMid meet">
<metadata>
Created by potrace 1.16, written by Peter Selinger 2001-2019
</metadata>
<g transform="translate(0.000000,84.000000) scale(0.100000,-0.100000)"
fill="#000000" stroke="none">
<path d="M247 623 c-15 -45 -15 -49 2 -63 20 -16 18 -27 -13 -73 -16 -24 -17
-31 -6 -52 11 -20 10 -33 -3 -77 -14 -44 -47 -281 -47 -340 0 -16 11 -18 96
-18 l96 0 -6 38 c-3 20 -8 66 -12 102 -3 36 -12 93 -20 128 -8 35 -12 67 -10
71 9 13 8 164 0 185 -6 16 -4 18 9 13 25 -9 36 20 25 62 -13 48 -35 71 -68 71
-24 0 -30 -6 -43 -47z"/>
<path d="M690 495 c-13 -14 -30 -23 -38 -20 -24 9 -34 -6 -18 -24 18 -20 29
-98 15 -107 -5 -3 -18 -23 -29 -44 -19 -38 -19 -52 1 -95 6 -13 7 -42 1 -78
-5 -32 -5 -60 -1 -63 5 -3 9 -18 9 -35 0 -19 5 -29 15 -29 8 0 15 7 15 15 0 8
5 15 10 15 6 0 10 -7 10 -15 0 -8 7 -15 15 -15 8 0 15 5 15 11 0 7 7 17 15 23
13 9 13 20 3 72 -9 52 -9 68 5 102 15 37 15 45 2 83 -23 64 -20 82 10 75 28
-7 30 -4 14 25 -7 14 -7 30 2 56 11 33 10 38 -11 55 -29 23 -32 23 -60 -7z"/>
</g>
</svg>
