<?xml version="1.0" standalone="no"?>
<!DOCTYPE svg PUBLIC "-//W3C//DTD SVG 20010904//EN"
 "http://www.w3.org/TR/2001/REC-SVG-20010904/DTD/svg10.dtd">
<svg version="1.0" xmlns="http://www.w3.org/2000/svg"
 width="96.000000pt" height="84.000000pt" viewBox="0 0 96.000000 84.000000"
 preserveAspectRatio="xMidYMid meet">
<metadata>
Created by potrace 1.16, written by Peter Selinger 2001-2019
</metadata>
<g transform="translate(0.000000,84.000000) scale(0.100000,-0.100000)"
fill="#000000" stroke="none">
<path d="M256 658 c-2 -7 -8 -29 -15 -48 -10 -31 -9 -37 8 -50 20 -16 18 -27
-13 -73 -16 -23 -17 -32 -7 -51 10 -18 10 -33 -3 -77 -15 -52 -46 -275 -46
-331 l0 -28 96 0 96 0 -6 27 c-2 16 -8 60 -11 98 -3 39 -13 98 -22 133 -8 34
-12 69 -9 78 8 22 9 166 1 187 -6 14 -4 18 11 15 16 -3 19 3 18 44 0 31 -6 54
-19 68 -20 22 -74 27 -79 8z"/>
<path d="M695 490 c-11 -12 -28 -20 -39 -19 -36 2 -40 0 -24 -18 16 -19 33
-113 20 -113 -4 0 -16 -16 -27 -36 -19 -35 -21 -76 -6 -99 3 -5 7 -46 8 -90 2
-99 4 -115 16 -115 5 0 16 8 23 18 13 16 13 16 14 0 0 -19 30 -25 30 -7 0 7 6
17 14 23 11 9 12 23 3 73 -9 54 -8 68 7 99 16 34 16 40 0 86 -18 56 -13 88 11
68 21 -18 30 -5 17 24 -8 18 -8 34 1 61 10 33 9 39 -8 51 -26 19 -39 18 -60
-6z"/>
</g>
</svg>
