<?xml version="1.0" standalone="no"?>
<!DOCTYPE svg PUBLIC "-//W3C//DTD SVG 20010904//EN"
 "http://www.w3.org/TR/2001/REC-SVG-20010904/DTD/svg10.dtd">
<svg version="1.0" xmlns="http://www.w3.org/2000/svg"
 width="96.000000pt" height="84.000000pt" viewBox="0 0 96.000000 84.000000"
 preserveAspectRatio="xMidYMid meet">
<metadata>
Created by potrace 1.16, written by Peter Selinger 2001-2019
</metadata>
<g transform="translate(0.000000,84.000000) scale(0.100000,-0.100000)"
fill="#000000" stroke="none">
<path d="M256 658 c-2 -7 -8 -29 -15 -48 -10 -31 -9 -37 8 -50 20 -16 18 -27
-13 -73 -16 -23 -17 -32 -7 -51 10 -18 10 -33 -3 -77 -14 -49 -46 -281 -46
-336 0 -22 3 -23 95 -23 l96 0 -6 53 c-4 28 -11 84 -17 122 -7 39 -12 129 -13
200 -1 72 -5 139 -10 149 -7 16 -5 18 8 13 38 -14 38 72 -1 116 -17 20 -71 23
-76 5z"/>
<path d="M695 490 c-11 -12 -28 -20 -39 -19 -36 2 -40 0 -24 -18 16 -19 33
-113 20 -113 -4 0 -16 -16 -27 -36 -19 -35 -21 -76 -6 -99 3 -5 7 -46 8 -90 2
-102 4 -115 16 -115 5 0 16 8 23 18 13 16 13 16 14 0 0 -19 30 -25 30 -7 0 7
7 17 15 23 12 9 13 18 5 46 -14 50 -12 96 6 131 14 28 14 35 -1 80 -19 57 -14
89 10 69 21 -18 30 -5 17 24 -8 18 -8 34 1 61 10 33 9 39 -8 51 -26 19 -39 18
-60 -6z"/>
</g>
</svg>
