<?xml version="1.0" standalone="no"?>
<!DOCTYPE svg PUBLIC "-//W3C//DTD SVG 20010904//EN"
 "http://www.w3.org/TR/2001/REC-SVG-20010904/DTD/svg10.dtd">
<svg version="1.0" xmlns="http://www.w3.org/2000/svg"
 width="96.000000pt" height="84.000000pt" viewBox="0 0 96.000000 84.000000"
 preserveAspectRatio="xMidYMid meet">
<metadata>
Created by potrace 1.16, written by Peter Selinger 2001-2019
</metadata>
<g transform="translate(0.000000,84.000000) scale(0.100000,-0.100000)"
fill="#000000" stroke="none">
<path d="M256 658 c-2 -7 -8 -29 -15 -48 -10 -31 -9 -37 8 -50 20 -16 18 -27
-13 -73 -16 -23 -17 -32 -7 -51 10 -18 10 -33 -3 -77 -14 -49 -46 -281 -46
-336 0 -22 3 -23 96 -23 l95 0 -6 48 c-3 26 -13 98 -22 160 -11 78 -13 122 -7
145 10 33 3 137 -12 171 -6 16 -4 18 9 13 38 -14 38 72 -1 116 -17 20 -71 23
-76 5z"/>
<path d="M695 490 c-11 -12 -28 -20 -39 -19 -36 2 -40 0 -24 -18 17 -20 32
-110 20 -115 -4 -2 -17 -19 -29 -38 -17 -29 -19 -40 -10 -65 5 -16 11 -68 13
-115 4 -110 5 -120 17 -120 5 0 16 8 23 18 13 16 13 16 14 0 0 -19 30 -25 30
-7 0 7 6 17 14 23 11 9 12 23 3 73 -9 54 -8 68 7 99 16 34 16 40 0 86 -18 56
-13 88 11 68 21 -18 30 -5 17 24 -8 18 -8 34 1 61 10 33 9 39 -8 51 -26 19
-39 18 -60 -6z"/>
</g>
</svg>
