<?xml version="1.0" standalone="no"?>
<!DOCTYPE svg PUBLIC "-//W3C//DTD SVG 20010904//EN"
 "http://www.w3.org/TR/2001/REC-SVG-20010904/DTD/svg10.dtd">
<svg version="1.0" xmlns="http://www.w3.org/2000/svg"
 width="96.000000pt" height="84.000000pt" viewBox="0 0 96.000000 84.000000"
 preserveAspectRatio="xMidYMid meet">
<metadata>
Created by potrace 1.16, written by Peter Selinger 2001-2019
</metadata>
<g transform="translate(0.000000,84.000000) scale(0.100000,-0.100000)"
fill="#000000" stroke="none">
<path d="M247 623 c-15 -45 -15 -49 1 -61 20 -15 17 -37 -9 -70 -21 -28 -25
-58 -7 -64 9 -3 7 -19 -5 -64 -16 -57 -47 -280 -47 -336 l0 -28 95 0 95 0 -6
47 c-6 56 -23 181 -31 235 -3 20 -1 50 5 66 10 30 2 137 -14 176 -6 16 -4 18
9 13 25 -9 36 20 25 62 -13 48 -35 71 -68 71 -24 0 -30 -6 -43 -47z"/>
<path d="M695 490 c-11 -12 -28 -20 -39 -19 -36 2 -40 0 -24 -18 29 -33 28
-93 -3 -142 -23 -38 -25 -48 -16 -75 5 -17 11 -69 13 -116 4 -110 5 -120 17
-120 5 0 16 8 23 18 13 16 13 16 14 0 0 -19 30 -25 30 -7 0 7 6 17 14 23 11 9
12 23 3 73 -9 54 -8 68 7 99 16 34 16 40 0 86 -18 56 -13 88 11 68 21 -18 30
-5 17 24 -8 18 -8 34 1 61 10 33 9 39 -8 51 -26 19 -39 18 -60 -6z"/>
</g>
</svg>
