<?xml version="1.0" standalone="no"?>
<!DOCTYPE svg PUBLIC "-//W3C//DTD SVG 20010904//EN"
 "http://www.w3.org/TR/2001/REC-SVG-20010904/DTD/svg10.dtd">
<svg version="1.0" xmlns="http://www.w3.org/2000/svg"
 width="96.000000pt" height="84.000000pt" viewBox="0 0 96.000000 84.000000"
 preserveAspectRatio="xMidYMid meet">
<metadata>
Created by potrace 1.16, written by Peter Selinger 2001-2019
</metadata>
<g transform="translate(0.000000,84.000000) scale(0.100000,-0.100000)"
fill="#000000" stroke="none">
<path d="M445 641 c-29 -13 -49 -40 -69 -97 -16 -48 -16 -55 -1 -90 22 -53 82
-113 121 -120 41 -8 65 6 89 50 21 38 33 44 53 24 9 -9 12 -8 12 4 0 9 -6 18
-14 21 -11 4 -13 21 -9 69 4 55 2 67 -18 92 -37 47 -111 68 -164 47z"/>
</g>
</svg>
