<?xml version="1.0" standalone="no"?>
<!DOCTYPE svg PUBLIC "-//W3C//DTD SVG 20010904//EN"
 "http://www.w3.org/TR/2001/REC-SVG-20010904/DTD/svg10.dtd">
<svg version="1.0" xmlns="http://www.w3.org/2000/svg"
 width="96.000000pt" height="84.000000pt" viewBox="0 0 96.000000 84.000000"
 preserveAspectRatio="xMidYMid meet">
<metadata>
Created by potrace 1.16, written by Peter Selinger 2001-2019
</metadata>
<g transform="translate(0.000000,84.000000) scale(0.100000,-0.100000)"
fill="#000000" stroke="none">
<path d="M266 668 c-9 -5 -16 -18 -16 -29 0 -11 -5 -30 -11 -41 -9 -17 -7 -24
9 -41 l21 -20 -26 -44 c-22 -39 -24 -47 -13 -68 10 -18 10 -30 1 -52 -11 -28
-43 -209 -56 -316 l-6 -57 97 0 97 0 -7 98 c-3 53 -11 115 -16 137 -7 30 -6
54 6 94 9 32 12 65 8 85 -4 17 -8 41 -10 53 -1 12 -7 29 -12 39 -8 14 -6 20
11 29 18 9 21 18 19 49 -6 68 -52 108 -96 84z"/>
<path d="M696 494 c-11 -16 -25 -25 -39 -24 -37 3 -41 1 -25 -17 17 -20 31
-100 18 -108 -4 -3 -17 -23 -29 -45 -20 -38 -20 -42 -5 -86 10 -29 13 -60 9
-84 -9 -53 4 -130 21 -130 8 0 14 7 14 15 0 8 5 15 10 15 6 0 10 -7 10 -15 0
-8 7 -15 15 -15 8 0 15 5 15 11 0 7 7 17 15 23 13 9 13 19 3 67 -10 49 -9 63
5 101 16 41 16 48 1 91 -20 58 -14 83 16 67 23 -12 27 -1 10 29 -6 12 -5 31 2
55 11 35 10 39 -13 57 -31 24 -34 24 -53 -7z"/>
</g>
</svg>
