<?xml version="1.0" standalone="no"?>
<!DOCTYPE svg PUBLIC "-//W3C//DTD SVG 20010904//EN"
 "http://www.w3.org/TR/2001/REC-SVG-20010904/DTD/svg10.dtd">
<svg version="1.0" xmlns="http://www.w3.org/2000/svg"
 width="96.000000pt" height="84.000000pt" viewBox="0 0 96.000000 84.000000"
 preserveAspectRatio="xMidYMid meet">
<metadata>
Created by potrace 1.16, written by Peter Selinger 2001-2019
</metadata>
<g transform="translate(0.000000,84.000000) scale(0.100000,-0.100000)"
fill="#000000" stroke="none">
<path d="M263 668 c-10 -13 -22 -56 -26 -92 -1 -12 7 -25 21 -32 13 -6 20 -13
15 -15 -12 -6 -53 -84 -53 -103 0 -9 5 -16 11 -16 12 0 9 -21 -11 -100 -13
-50 -13 -47 -34 -175 -26 -146 -32 -135 79 -135 l95 0 0 68 c0 38 -5 95 -11
127 -7 37 -7 66 -1 79 45 99 44 95 26 145 -9 25 -22 58 -30 73 -18 33 -18 38
1 38 24 0 33 29 22 72 -15 59 -78 99 -104 66z m73 -300 c-3 -18 -11 -37 -18
-43 -8 -7 -9 -5 -4 8 3 10 6 30 6 43 0 13 5 24 11 24 8 0 9 -11 5 -32z"/>
<path d="M686 505 c-11 -17 -26 -25 -46 -25 -34 0 -37 -6 -14 -31 8 -9 16 -28
18 -41 1 -13 6 -30 11 -37 5 -9 2 -18 -7 -25 -38 -28 -55 -118 -30 -160 3 -6
4 -33 3 -62 -1 -28 1 -68 4 -88 7 -35 28 -48 39 -23 5 9 7 9 12 0 8 -18 25
-16 51 5 22 17 22 18 7 71 -14 47 -15 59 -2 105 12 42 13 57 2 86 -7 19 -13
48 -13 63 -1 27 1 28 29 22 34 -7 38 0 13 27 -14 15 -15 24 -5 56 11 34 10 39
-13 60 -33 28 -39 28 -59 -3z"/>
</g>
</svg>
