<?xml version="1.0" standalone="no"?>
<!DOCTYPE svg PUBLIC "-//W3C//DTD SVG 20010904//EN"
 "http://www.w3.org/TR/2001/REC-SVG-20010904/DTD/svg10.dtd">
<svg version="1.0" xmlns="http://www.w3.org/2000/svg"
 width="96.000000pt" height="84.000000pt" viewBox="0 0 96.000000 84.000000"
 preserveAspectRatio="xMidYMid meet">
<metadata>
Created by potrace 1.16, written by Peter Selinger 2001-2019
</metadata>
<g transform="translate(0.000000,84.000000) scale(0.100000,-0.100000)"
fill="#000000" stroke="none">
<path d="M262 678 c-7 -7 -12 -22 -12 -35 0 -12 -5 -34 -12 -49 -11 -24 -10
-29 15 -50 16 -13 24 -24 20 -24 -4 0 -19 -23 -32 -50 -22 -44 -23 -52 -11
-74 11 -22 10 -36 -8 -103 -18 -66 -52 -253 -52 -284 0 -5 45 -9 100 -9 l100
0 0 58 c0 32 -5 84 -11 115 -10 49 -9 60 3 75 9 9 26 41 38 69 l22 53 -28 57
c-15 32 -34 66 -42 75 -13 15 -13 18 2 24 29 11 38 40 25 85 -19 63 -84 100
-117 67z m108 -306 c0 -4 -12 -25 -26 -47 -20 -31 -24 -34 -20 -15 3 14 6 40
6 58 0 30 2 32 20 22 11 -6 20 -14 20 -18z"/>
<path d="M668 518 c-2 -19 -10 -24 -40 -26 -30 -3 -38 -7 -38 -22 0 -11 8 -24
19 -29 25 -14 37 -87 17 -106 -20 -20 -47 -105 -42 -132 3 -12 9 -31 15 -42 6
-11 11 -51 11 -90 l0 -71 75 0 c41 0 75 1 75 3 0 1 -9 29 -19 61 -16 51 -16
63 -5 85 18 34 18 68 -1 121 -8 23 -15 57 -15 75 0 29 2 31 30 27 24 -3 30 -1
30 14 0 9 -8 26 -17 36 -11 13 -16 32 -14 54 3 43 -13 64 -50 64 -21 0 -28 -5
-31 -22z"/>
</g>
</svg>
