<?xml version="1.0" standalone="no"?>
<!DOCTYPE svg PUBLIC "-//W3C//DTD SVG 20010904//EN"
 "http://www.w3.org/TR/2001/REC-SVG-20010904/DTD/svg10.dtd">
<svg version="1.0" xmlns="http://www.w3.org/2000/svg"
 width="96.000000pt" height="84.000000pt" viewBox="0 0 96.000000 84.000000"
 preserveAspectRatio="xMidYMid meet">
<metadata>
Created by potrace 1.16, written by Peter Selinger 2001-2019
</metadata>
<g transform="translate(0.000000,84.000000) scale(0.100000,-0.100000)"
fill="#000000" stroke="none">
<path d="M272 711 c-16 -11 -33 -51 -26 -62 3 -6 1 -29 -6 -50 -13 -37 -12
-41 8 -55 28 -20 28 -35 -3 -80 -27 -39 -32 -69 -14 -80 13 -8 7 -58 -15 -134
-9 -30 -18 -75 -21 -100 -3 -25 -9 -69 -14 -98 l-8 -52 108 0 c108 0 109 0
109 24 0 24 -16 118 -25 147 -3 9 5 29 17 45 22 28 68 129 68 150 0 17 -73
136 -87 141 -18 7 -16 23 2 23 8 0 22 11 30 24 21 32 2 107 -34 134 -28 21
-74 32 -89 23z m104 -331 c20 0 17 -23 -8 -75 -25 -49 -37 -56 -39 -22 -3 55
18 137 28 110 3 -7 11 -13 19 -13z"/>
<path d="M651 556 c-6 -8 -11 -18 -10 -22 4 -25 -4 -33 -38 -36 -48 -4 -57
-32 -20 -63 23 -19 44 -90 28 -97 -4 -2 -22 -40 -41 -85 -30 -73 -32 -85 -21
-112 13 -30 49 -56 38 -26 -4 8 -2 17 4 21 7 4 8 -17 3 -65 l-7 -71 82 0 c44
0 81 3 81 8 0 4 -9 36 -20 72 -11 36 -20 75 -20 88 0 22 0 22 20 2 11 -11 20
-25 20 -31 0 -24 25 0 31 30 6 27 3 37 -17 53 -28 25 -54 87 -54 129 0 28 3
31 23 25 13 -3 32 0 42 8 14 10 15 16 6 34 -6 12 -21 27 -32 33 -18 9 -20 17
-15 54 7 46 10 43 -55 61 -9 2 -21 -2 -28 -10z m-31 -322 c0 -21 -4 -33 -10
-29 -17 10 -11 65 7 65 2 0 3 -16 3 -36z"/>
</g>
</svg>
