<?xml version="1.0" standalone="no"?>
<!DOCTYPE svg PUBLIC "-//W3C//DTD SVG 20010904//EN"
 "http://www.w3.org/TR/2001/REC-SVG-20010904/DTD/svg10.dtd">
<svg version="1.0" xmlns="http://www.w3.org/2000/svg"
 width="96.000000pt" height="84.000000pt" viewBox="0 0 96.000000 84.000000"
 preserveAspectRatio="xMidYMid meet">
<metadata>
Created by potrace 1.16, written by Peter Selinger 2001-2019
</metadata>
<g transform="translate(0.000000,84.000000) scale(0.100000,-0.100000)"
fill="#000000" stroke="none">
<path d="M259 734 c-7 -9 -14 -40 -15 -68 -1 -28 -4 -62 -8 -76 -6 -20 -2 -27
16 -35 32 -14 29 -41 -9 -100 -38 -57 -38 -58 -18 -79 20 -20 19 -58 -5 -135
-11 -36 -17 -67 -15 -70 3 -2 1 -9 -4 -15 -5 -6 -12 -44 -15 -83 l-7 -73 115
0 c130 0 123 -6 101 85 -13 58 -13 61 10 97 21 31 53 108 72 170 3 9 -4 30
-14 45 -11 15 -27 45 -37 65 -9 21 -26 42 -36 48 -23 12 -26 30 -6 30 23 0 46
29 46 58 0 39 -28 105 -53 123 -35 25 -102 32 -118 13z m142 -364 c16 0 9 -34
-20 -90 l-29 -55 -7 36 c-9 49 11 123 31 115 9 -3 20 -6 25 -6z"/>
<path d="M626 579 c-2 -8 -7 -26 -10 -41 -5 -24 -12 -28 -39 -28 -62 0 -77
-48 -26 -79 46 -28 44 -72 -4 -189 -32 -77 -37 -101 -32 -134 5 -28 14 -42 31
-50 15 -7 24 -20 24 -35 0 -22 3 -23 85 -23 47 0 85 2 85 4 0 2 -7 23 -15 47
-9 24 -18 66 -20 94 l-4 50 22 -27 c13 -16 28 -28 35 -28 7 0 11 -5 10 -11 -4
-18 19 -22 25 -5 3 8 3 30 0 49 -4 25 -14 38 -38 51 -38 21 -60 77 -56 139 1
12 10 17 35 17 64 0 69 43 10 89 -22 18 -25 26 -20 54 8 40 -3 52 -56 62 -28
5 -39 4 -42 -6z m-23 -404 c-4 -11 -8 -26 -9 -33 -7 -37 -14 -19 -14 35 0 33
3 63 7 67 11 11 24 -46 16 -69z m-27 -112 c-11 -11 -19 6 -11 24 8 17 8 17 12
0 3 -10 2 -21 -1 -24z"/>
</g>
</svg>
