<?xml version="1.0" standalone="no"?>
<!DOCTYPE svg PUBLIC "-//W3C//DTD SVG 20010904//EN"
 "http://www.w3.org/TR/2001/REC-SVG-20010904/DTD/svg10.dtd">
<svg version="1.0" xmlns="http://www.w3.org/2000/svg"
 width="96.000000pt" height="84.000000pt" viewBox="0 0 96.000000 84.000000"
 preserveAspectRatio="xMidYMid meet">
<metadata>
Created by potrace 1.16, written by Peter Selinger 2001-2019
</metadata>
<g transform="translate(0.000000,84.000000) scale(0.100000,-0.100000)"
fill="#000000" stroke="none">
<path d="M260 754 c-8 -8 -15 -47 -17 -87 -2 -40 -4 -82 -6 -94 -1 -12 1 -21
4 -20 3 1 13 -4 22 -12 17 -14 24 -71 9 -71 -5 0 -21 -23 -37 -51 l-27 -51 21
-29 c25 -33 25 -41 5 -94 -8 -22 -16 -49 -18 -60 -2 -11 -9 -40 -16 -65 -6
-25 -13 -62 -15 -83 l-4 -37 120 0 c129 0 129 0 108 58 -8 24 -7 36 4 54 9 13
29 66 47 118 29 88 30 97 17 130 -8 19 -20 55 -28 80 -9 29 -22 49 -37 55 -27
12 -25 38 3 43 48 9 57 58 24 138 -24 56 -55 78 -125 88 -31 4 -45 2 -54 -10z
m148 -437 c5 -25 -40 -121 -49 -105 -8 13 -5 37 13 96 10 33 30 39 36 9z"/>
<path d="M597 603 c-4 -3 -7 -18 -7 -32 0 -37 -10 -47 -52 -55 -71 -13 -81
-68 -19 -100 41 -22 47 -86 15 -179 -25 -74 -31 -166 -14 -211 9 -25 12 -26
106 -26 l96 0 -6 25 c-20 84 -20 81 -4 68 8 -7 18 -10 21 -6 4 3 7 -3 7 -15 0
-12 6 -22 14 -22 39 0 27 101 -15 131 -40 28 -50 51 -54 123 l-4 63 47 9 c45
9 47 10 47 44 0 30 -5 38 -38 55 -37 19 -38 21 -32 63 6 41 5 43 -29 57 -38
16 -69 19 -79 8z m-13 -409 c3 -9 6 -30 6 -47 -1 -30 -1 -31 -15 -13 -16 22
-20 76 -6 76 5 0 12 -7 15 -16z"/>
</g>
</svg>
