<?xml version="1.0" standalone="no"?>
<!DOCTYPE svg PUBLIC "-//W3C//DTD SVG 20010904//EN"
 "http://www.w3.org/TR/2001/REC-SVG-20010904/DTD/svg10.dtd">
<svg version="1.0" xmlns="http://www.w3.org/2000/svg"
 width="96.000000pt" height="84.000000pt" viewBox="0 0 96.000000 84.000000"
 preserveAspectRatio="xMidYMid meet">
<metadata>
Created by potrace 1.16, written by Peter Selinger 2001-2019
</metadata>
<g transform="translate(0.000000,84.000000) scale(0.100000,-0.100000)"
fill="#000000" stroke="none">
<path d="M267 762 c-10 -10 -17 -26 -17 -35 0 -9 -4 -18 -9 -21 -5 -3 -5 -26
0 -52 5 -28 5 -61 0 -81 -11 -40 -5 -64 14 -57 30 12 41 -51 15 -81 -9 -11
-28 -39 -40 -62 -20 -36 -22 -47 -12 -68 6 -14 16 -25 22 -25 17 0 11 -74 -10
-115 -11 -22 -20 -50 -20 -62 0 -13 -7 -40 -15 -60 -8 -19 -15 -37 -15 -40 0
-2 55 -2 122 -1 l122 3 8 42 c3 22 21 75 38 117 21 51 30 86 27 104 -18 83
-26 136 -23 140 3 2 13 -1 24 -7 32 -17 34 -108 5 -211 -23 -77 -24 -90 -12
-137 l12 -53 118 0 118 0 -6 37 c-3 21 -14 50 -24 65 -11 14 -19 40 -19 57 0
18 -6 46 -14 64 -7 18 -12 46 -11 62 1 17 3 40 3 51 2 18 10 22 48 27 25 2 53
12 62 21 15 15 15 19 2 44 -9 15 -32 36 -53 47 -38 20 -38 20 -31 71 6 49 5
51 -23 62 -54 21 -89 24 -102 8 -6 -7 -11 -18 -9 -22 1 -5 -2 -23 -6 -41 -6
-27 -13 -32 -46 -38 -22 -4 -50 -15 -64 -26 -30 -24 -36 -24 -36 0 0 13 11 23
34 31 55 18 61 71 16 158 -23 47 -38 63 -69 77 -22 10 -49 15 -60 12 -12 -3
-24 -1 -27 4 -8 14 -19 11 -37 -9z m147 -491 c6 -10 -34 -114 -41 -107 -3 2 1
30 8 60 12 53 21 67 33 47z m166 -173 c0 -10 -5 -18 -10 -18 -16 0 -34 46 -26
67 7 16 9 16 21 -7 8 -14 14 -33 15 -42z"/>
</g>
</svg>
