<?xml version="1.0" standalone="no"?>
<!DOCTYPE svg PUBLIC "-//W3C//DTD SVG 20010904//EN"
 "http://www.w3.org/TR/2001/REC-SVG-20010904/DTD/svg10.dtd">
<svg version="1.0" xmlns="http://www.w3.org/2000/svg"
 width="96.000000pt" height="84.000000pt" viewBox="0 0 96.000000 84.000000"
 preserveAspectRatio="xMidYMid meet">
<metadata>
Created by potrace 1.16, written by Peter Selinger 2001-2019
</metadata>
<g transform="translate(0.000000,84.000000) scale(0.100000,-0.100000)"
fill="#000000" stroke="none">
<path d="M274 765 c-24 -16 -49 -90 -37 -108 4 -6 8 -46 8 -87 0 -58 3 -74 14
-72 36 7 49 -51 19 -85 -29 -34 -68 -103 -68 -121 0 -11 9 -27 20 -37 26 -23
26 -83 1 -133 -10 -20 -21 -56 -24 -79 l-5 -43 113 0 114 0 20 45 c11 25 21
45 23 45 2 0 3 -19 3 -42 l0 -43 107 -3 106 -3 -5 83 c-3 46 -12 97 -20 114
-16 36 -18 76 -5 119 8 28 12 30 66 33 62 3 73 13 62 57 -4 17 -21 33 -50 47
-34 16 -46 28 -50 51 -4 17 -2 33 2 36 17 12 20 39 6 59 -14 21 -104 48 -128
39 -7 -3 -16 -20 -19 -39 -9 -54 -25 -88 -43 -88 -11 0 -14 5 -9 18 19 45 17
67 -15 132 -38 76 -91 117 -137 105 -14 -3 -30 -1 -37 4 -9 7 -19 6 -32 -4z
m223 -397 c-3 -8 -6 -5 -6 6 -1 11 2 17 5 13 3 -3 4 -12 1 -19z m18 -108 c3
-5 1 -10 -4 -10 -6 0 -11 5 -11 10 0 6 2 10 4 10 3 0 8 -4 11 -10z m-95 -47
c-1 -22 -38 -103 -39 -85 -2 25 21 102 30 102 5 0 9 -8 9 -17z m147 -179 c-12
-13 -27 9 -26 39 l0 32 16 -32 c9 -18 14 -36 10 -39z"/>
</g>
</svg>
