<?xml version="1.0" standalone="no"?>
<!DOCTYPE svg PUBLIC "-//W3C//DTD SVG 20010904//EN"
 "http://www.w3.org/TR/2001/REC-SVG-20010904/DTD/svg10.dtd">
<svg version="1.0" xmlns="http://www.w3.org/2000/svg"
 width="96.000000pt" height="84.000000pt" viewBox="0 0 96.000000 84.000000"
 preserveAspectRatio="xMidYMid meet">
<metadata>
Created by potrace 1.16, written by Peter Selinger 2001-2019
</metadata>
<g transform="translate(0.000000,84.000000) scale(0.100000,-0.100000)"
fill="#000000" stroke="none">
<path d="M275 767 c-28 -21 -46 -86 -35 -128 5 -19 9 -59 7 -89 -2 -49 0 -54
22 -60 33 -8 36 -56 5 -88 -27 -27 -64 -96 -64 -117 0 -9 9 -23 20 -32 26 -23
26 -83 1 -137 -10 -23 -21 -58 -24 -79 l-6 -37 114 0 115 0 25 48 26 47 -6
-48 -6 -47 40 0 c40 0 40 0 35 33 -4 24 -3 28 5 17 6 -8 11 -23 11 -32 0 -15
10 -18 60 -18 l60 0 0 68 c0 49 -6 78 -21 106 -16 30 -19 49 -14 85 10 70 25
85 78 78 93 -13 102 52 13 95 -39 19 -45 25 -48 60 -2 24 2 43 11 52 26 27 6
62 -46 80 -82 28 -113 19 -113 -32 0 -9 -7 -35 -16 -59 -15 -39 -19 -42 -50
-41 -18 1 -31 5 -28 10 3 5 12 7 20 4 18 -7 44 32 44 66 0 15 -15 57 -32 92
-27 53 -41 69 -75 86 -26 13 -51 19 -63 15 -12 -4 -27 -2 -34 4 -9 8 -18 7
-31 -2z m148 -554 c3 -5 -6 -28 -19 -53 -26 -51 -29 -48 -13 16 11 41 22 54
32 37z"/>
</g>
</svg>
