<?xml version="1.0" standalone="no"?>
<!DOCTYPE svg PUBLIC "-//W3C//DTD SVG 20010904//EN"
 "http://www.w3.org/TR/2001/REC-SVG-20010904/DTD/svg10.dtd">
<svg version="1.0" xmlns="http://www.w3.org/2000/svg"
 width="96.000000pt" height="84.000000pt" viewBox="0 0 96.000000 84.000000"
 preserveAspectRatio="xMidYMid meet">
<metadata>
Created by potrace 1.16, written by Peter Selinger 2001-2019
</metadata>
<g transform="translate(0.000000,84.000000) scale(0.100000,-0.100000)"
fill="#000000" stroke="none">
<path d="M262 756 c-23 -29 -31 -79 -22 -123 6 -25 8 -60 4 -78 -7 -37 3 -78
16 -70 36 22 48 -49 14 -87 -33 -36 -64 -93 -64 -116 0 -12 9 -26 20 -32 26
-14 27 -87 1 -138 -10 -20 -21 -54 -24 -74 l-6 -38 114 0 115 0 24 47 25 48
-6 -47 -6 -48 40 0 c39 0 39 1 36 32 -3 25 -2 30 6 18 6 -8 11 -23 11 -32 0
-15 10 -18 60 -18 l60 0 0 63 c0 44 -6 75 -21 102 -16 32 -19 51 -14 90 9 73
20 83 90 81 50 -1 60 2 63 17 5 23 -23 54 -69 78 -31 15 -38 25 -41 56 -3 25
0 41 9 46 16 10 17 51 1 65 -7 5 -37 18 -67 28 -61 19 -84 12 -89 -27 -1 -13
-10 -43 -18 -66 -15 -41 -18 -43 -56 -43 -51 0 -41 13 14 19 4 1 13 19 19 41
12 38 10 45 -22 110 -26 53 -42 72 -69 85 -41 20 -136 27 -148 11z m160 -549
c0 -15 -33 -89 -38 -84 -8 8 18 98 28 95 5 -2 10 -7 10 -11z"/>
</g>
</svg>
