<?xml version="1.0" standalone="no"?>
<!DOCTYPE svg PUBLIC "-//W3C//DTD SVG 20010904//EN"
 "http://www.w3.org/TR/2001/REC-SVG-20010904/DTD/svg10.dtd">
<svg version="1.0" xmlns="http://www.w3.org/2000/svg"
 width="96.000000pt" height="84.000000pt" viewBox="0 0 96.000000 84.000000"
 preserveAspectRatio="xMidYMid meet">
<metadata>
Created by potrace 1.16, written by Peter Selinger 2001-2019
</metadata>
<g transform="translate(0.000000,84.000000) scale(0.100000,-0.100000)"
fill="#000000" stroke="none">
<path d="M475 638 c-32 -17 -76 -61 -91 -90 -19 -36 -18 -73 4 -133 13 -38 26
-54 52 -68 65 -33 177 2 198 62 6 16 9 31 8 33 -2 1 -6 24 -9 50 -6 41 -4 48
13 53 32 10 23 25 -10 19 -22 -5 -30 -3 -30 8 0 8 -14 29 -31 46 -33 34 -68
40 -104 20z"/>
</g>
</svg>
