<?xml version="1.0" standalone="no"?>
<!DOCTYPE svg PUBLIC "-//W3C//DTD SVG 20010904//EN"
 "http://www.w3.org/TR/2001/REC-SVG-20010904/DTD/svg10.dtd">
<svg version="1.0" xmlns="http://www.w3.org/2000/svg"
 width="96.000000pt" height="84.000000pt" viewBox="0 0 96.000000 84.000000"
 preserveAspectRatio="xMidYMid meet">
<metadata>
Created by potrace 1.16, written by Peter Selinger 2001-2019
</metadata>
<g transform="translate(0.000000,84.000000) scale(0.100000,-0.100000)"
fill="#000000" stroke="none">
<path d="M267 755 c-28 -27 -39 -80 -27 -124 7 -27 7 -54 1 -83 -11 -46 -7
-54 24 -60 29 -5 38 -62 14 -84 -27 -25 -69 -99 -69 -123 0 -12 9 -26 20 -33
26 -16 27 -85 3 -131 -9 -18 -20 -51 -23 -75 l-7 -42 113 0 114 0 24 47 25 48
-6 -47 -6 -48 40 0 c38 0 40 1 35 26 -3 19 -1 25 7 20 6 -4 11 -16 11 -27 0
-17 7 -19 60 -19 l60 0 0 58 c0 32 -9 83 -20 114 -20 58 -19 100 3 146 10 21
15 22 69 16 48 -5 59 -4 64 10 9 24 -19 60 -64 80 -36 16 -41 22 -44 60 -3 27
0 44 9 49 17 10 17 51 1 65 -7 5 -37 18 -67 28 -61 19 -84 12 -89 -27 -2 -13
-10 -43 -19 -66 -14 -37 -19 -41 -54 -45 -21 -2 -39 0 -39 4 0 5 8 8 18 8 24
0 48 27 57 62 5 21 -1 45 -24 93 -37 77 -76 107 -133 103 -20 -1 -40 1 -44 5
-11 11 -21 9 -37 -8z m156 -542 c6 -10 -32 -98 -39 -91 -3 3 0 26 7 52 11 43
22 56 32 39z"/>
</g>
</svg>
