<?xml version="1.0" standalone="no"?>
<!DOCTYPE svg PUBLIC "-//W3C//DTD SVG 20010904//EN"
 "http://www.w3.org/TR/2001/REC-SVG-20010904/DTD/svg10.dtd">
<svg version="1.0" xmlns="http://www.w3.org/2000/svg"
 width="96.000000pt" height="84.000000pt" viewBox="0 0 96.000000 84.000000"
 preserveAspectRatio="xMidYMid meet">
<metadata>
Created by potrace 1.16, written by Peter Selinger 2001-2019
</metadata>
<g transform="translate(0.000000,84.000000) scale(0.100000,-0.100000)"
fill="#000000" stroke="none">
<path d="M267 752 c-30 -33 -39 -76 -27 -121 8 -29 8 -52 0 -80 -11 -43 -5
-72 14 -65 31 12 52 -57 25 -82 -27 -25 -69 -99 -69 -123 0 -12 9 -26 20 -33
26 -16 27 -85 3 -131 -9 -18 -20 -51 -23 -75 l-7 -42 113 0 114 0 24 47 25 48
-6 -47 -6 -48 40 0 c38 0 40 1 35 26 -3 19 -1 25 7 20 6 -4 11 -16 11 -27 0
-17 7 -19 61 -19 l62 0 -6 74 c-3 41 -10 84 -17 96 -15 28 -15 113 1 148 12
28 14 28 61 20 90 -16 100 34 17 80 -42 24 -48 31 -51 67 -3 26 0 43 9 48 7 4
13 19 13 33 0 30 -43 59 -102 68 -45 7 -68 -5 -68 -37 0 -12 -7 -41 -16 -64
-15 -38 -20 -43 -48 -42 -17 1 -24 3 -14 6 16 4 48 60 48 85 0 7 -13 41 -30
75 -34 70 -82 106 -136 101 -18 -1 -36 1 -40 5 -11 11 -20 9 -37 -11z m156
-539 c5 -9 -31 -98 -37 -92 -3 2 1 25 7 52 10 44 20 57 30 40z"/>
</g>
</svg>
