<?xml version="1.0" standalone="no"?>
<!DOCTYPE svg PUBLIC "-//W3C//DTD SVG 20010904//EN"
 "http://www.w3.org/TR/2001/REC-SVG-20010904/DTD/svg10.dtd">
<svg version="1.0" xmlns="http://www.w3.org/2000/svg"
 width="96.000000pt" height="84.000000pt" viewBox="0 0 96.000000 84.000000"
 preserveAspectRatio="xMidYMid meet">
<metadata>
Created by potrace 1.16, written by Peter Selinger 2001-2019
</metadata>
<g transform="translate(0.000000,84.000000) scale(0.100000,-0.100000)"
fill="#000000" stroke="none">
<path d="M267 752 c-29 -32 -39 -72 -28 -122 6 -27 6 -61 1 -84 -9 -40 -4 -70
10 -61 34 21 60 -53 28 -82 -24 -21 -68 -101 -68 -123 0 -9 9 -25 20 -35 25
-23 27 -83 3 -128 -9 -18 -20 -51 -23 -75 l-7 -42 116 0 116 0 22 48 21 47 -5
-47 -6 -48 42 0 c40 0 41 1 36 28 l-5 27 12 -28 c11 -25 16 -27 71 -27 l60 0
-7 76 c-4 42 -14 87 -23 100 -16 26 -13 92 9 146 8 22 15 27 34 23 13 -3 36
-7 50 -10 14 -3 32 -1 39 5 22 19 4 49 -45 77 -43 24 -49 31 -52 68 -3 26 0
43 9 48 14 9 17 45 5 63 -9 14 -95 44 -126 44 -24 0 -36 -17 -36 -48 0 -9 -7
-35 -16 -58 -15 -38 -20 -42 -55 -46 -44 -4 -55 9 -11 14 22 2 30 11 41 44 14
39 13 43 -18 107 -39 79 -83 112 -143 104 -21 -3 -38 -1 -38 4 0 14 -16 10
-33 -9z m157 -540 c5 -9 -32 -97 -38 -91 -3 2 1 25 7 52 10 44 20 57 31 39z"/>
</g>
</svg>
