<?xml version="1.0" standalone="no"?>
<!DOCTYPE svg PUBLIC "-//W3C//DTD SVG 20010904//EN"
 "http://www.w3.org/TR/2001/REC-SVG-20010904/DTD/svg10.dtd">
<svg version="1.0" xmlns="http://www.w3.org/2000/svg"
 width="96.000000pt" height="84.000000pt" viewBox="0 0 96.000000 84.000000"
 preserveAspectRatio="xMidYMid meet">
<metadata>
Created by potrace 1.16, written by Peter Selinger 2001-2019
</metadata>
<g transform="translate(0.000000,84.000000) scale(0.100000,-0.100000)"
fill="#000000" stroke="none">
<path d="M246 801 c-14 -16 -27 -64 -26 -91 0 -8 2 -60 3 -115 2 -78 5 -99 16
-97 42 9 53 -64 17 -112 -30 -40 -66 -111 -66 -130 0 -8 11 -27 25 -42 23 -24
25 -33 19 -78 -4 -28 -15 -69 -25 -90 -11 -22 -19 -41 -19 -43 0 -2 60 -3 133
-3 90 0 137 4 145 12 9 9 12 9 12 0 0 -9 30 -12 105 -12 l105 0 0 43 c0 24 -9
59 -21 82 -17 32 -20 49 -15 95 4 30 12 67 19 83 12 26 13 27 73 21 38 -4 64
-3 68 4 13 21 -14 60 -63 91 -49 30 -51 32 -51 76 0 25 7 56 15 68 22 35 8 65
-40 86 -98 43 -128 34 -137 -44 -3 -22 -13 -57 -21 -77 -14 -34 -20 -38 -51
-38 -43 0 -48 15 -7 23 21 4 32 15 40 38 17 50 14 73 -23 151 -27 58 -42 77
-72 93 -47 25 -138 29 -158 6z m174 -639 c-1 -9 -10 -33 -21 -52 l-20 -35 6
40 c9 58 15 76 26 70 5 -4 9 -14 9 -23z"/>
</g>
</svg>
