<?xml version="1.0" standalone="no"?>
<!DOCTYPE svg PUBLIC "-//W3C//DTD SVG 20010904//EN"
 "http://www.w3.org/TR/2001/REC-SVG-20010904/DTD/svg10.dtd">
<svg version="1.0" xmlns="http://www.w3.org/2000/svg"
 width="96.000000pt" height="84.000000pt" viewBox="0 0 96.000000 84.000000"
 preserveAspectRatio="xMidYMid meet">
<metadata>
Created by potrace 1.16, written by Peter Selinger 2001-2019
</metadata>
<g transform="translate(0.000000,84.000000) scale(0.100000,-0.100000)"
fill="#000000" stroke="none">
<path d="M196 797 c-4 -24 -2 -66 4 -93 7 -34 8 -70 1 -110 -9 -55 -4 -77 17
-80 4 0 15 -4 25 -8 23 -11 24 -98 1 -117 -26 -21 -74 -133 -74 -171 0 -23 7
-41 21 -54 18 -17 20 -28 17 -91 l-3 -73 81 0 80 0 12 61 c13 68 19 80 32 59
5 -9 1 -33 -11 -64 -10 -28 -19 -52 -19 -53 0 -2 72 -3 160 -3 177 0 178 0
144 65 -22 40 -21 119 1 189 20 64 6 60 120 40 27 -5 36 -2 41 10 12 30 -7 66
-49 95 -73 51 -77 57 -77 110 0 28 7 62 17 79 34 58 -6 106 -110 134 -45 12
-50 11 -63 -7 -8 -10 -14 -30 -14 -43 0 -14 -9 -56 -20 -93 l-21 -69 -41 0
c-23 0 -38 3 -34 7 4 5 12 9 17 9 5 1 13 2 17 3 16 2 42 72 42 112 0 23 -13
70 -30 109 -16 38 -30 73 -30 79 0 7 -42 11 -124 11 l-124 0 -6 -43z"/>
</g>
</svg>
