<?xml version="1.0" standalone="no"?>
<!DOCTYPE svg PUBLIC "-//W3C//DTD SVG 20010904//EN"
 "http://www.w3.org/TR/2001/REC-SVG-20010904/DTD/svg10.dtd">
<svg version="1.0" xmlns="http://www.w3.org/2000/svg"
 width="96.000000pt" height="84.000000pt" viewBox="0 0 96.000000 84.000000"
 preserveAspectRatio="xMidYMid meet">
<metadata>
Created by potrace 1.16, written by Peter Selinger 2001-2019
</metadata>
<g transform="translate(0.000000,84.000000) scale(0.100000,-0.100000)"
fill="#000000" stroke="none">
<path d="M174 772 c-38 -31 -44 -54 -37 -161 5 -89 9 -104 28 -119 12 -10 27
-28 34 -40 14 -26 13 -28 -51 -104 -50 -59 -55 -85 -23 -127 31 -43 31 -72 0
-139 -14 -30 -25 -60 -25 -68 0 -12 54 -14 330 -14 l330 0 0 43 c0 24 -11 65
-25 95 -28 61 -26 115 7 157 17 22 27 25 88 25 109 0 122 42 26 86 -71 32 -80
44 -72 96 15 99 14 101 -29 123 -22 10 -67 21 -99 23 -59 5 -60 4 -92 -34 -30
-35 -34 -37 -40 -19 -4 11 -22 41 -41 68 -18 26 -33 50 -33 55 0 13 -64 50
-105 61 -62 17 -146 13 -171 -7z"/>
</g>
</svg>
