<?xml version="1.0" standalone="no"?>
<!DOCTYPE svg PUBLIC "-//W3C//DTD SVG 20010904//EN"
 "http://www.w3.org/TR/2001/REC-SVG-20010904/DTD/svg10.dtd">
<svg version="1.0" xmlns="http://www.w3.org/2000/svg"
 width="96.000000pt" height="84.000000pt" viewBox="0 0 96.000000 84.000000"
 preserveAspectRatio="xMidYMid meet">
<metadata>
Created by potrace 1.16, written by Peter Selinger 2001-2019
</metadata>
<g transform="translate(0.000000,84.000000) scale(0.100000,-0.100000)"
fill="#000000" stroke="none">
<path d="M125 571 c-61 -15 -78 -30 -71 -64 4 -17 18 -43 31 -57 14 -14 25
-31 25 -36 0 -6 -18 -20 -40 -33 -45 -25 -44 -23 -28 -67 9 -27 9 -37 -5 -57
-32 -50 -18 -52 357 -54 341 -1 412 4 423 33 3 9 -4 28 -16 44 -11 16 -21 34
-21 39 0 15 49 38 95 46 88 15 95 24 38 52 -20 10 -44 31 -53 47 -21 39 -51
46 -198 46 -101 0 -134 4 -180 21 -120 45 -269 61 -357 40z"/>
</g>
</svg>
