<?xml version="1.0" standalone="no"?>
<!DOCTYPE svg PUBLIC "-//W3C//DTD SVG 20010904//EN"
 "http://www.w3.org/TR/2001/REC-SVG-20010904/DTD/svg10.dtd">
<svg version="1.0" xmlns="http://www.w3.org/2000/svg"
 width="96.000000pt" height="84.000000pt" viewBox="0 0 96.000000 84.000000"
 preserveAspectRatio="xMidYMid meet">
<metadata>
Created by potrace 1.16, written by Peter Selinger 2001-2019
</metadata>
<g transform="translate(0.000000,84.000000) scale(0.100000,-0.100000)"
fill="#000000" stroke="none">
<path d="M840 403 c-14 -2 -68 -25 -122 -49 -53 -25 -125 -51 -160 -59 l-63
-15 55 5 c37 3 85 19 151 51 53 25 123 52 155 59 54 12 42 18 -16 8z"/>
<path d="M110 390 c20 -5 91 -29 158 -54 68 -25 131 -46 140 -46 27 1 -249 99
-293 105 l-40 5 35 -10z"/>
<path d="M438 283 c6 -2 18 -2 25 0 6 3 1 5 -13 5 -14 0 -19 -2 -12 -5z"/>
</g>
</svg>
