<?xml version="1.0" standalone="no"?>
<!DOCTYPE svg PUBLIC "-//W3C//DTD SVG 20010904//EN"
 "http://www.w3.org/TR/2001/REC-SVG-20010904/DTD/svg10.dtd">
<svg version="1.0" xmlns="http://www.w3.org/2000/svg"
 width="96.000000pt" height="84.000000pt" viewBox="0 0 96.000000 84.000000"
 preserveAspectRatio="xMidYMid meet">
<metadata>
Created by potrace 1.16, written by Peter Selinger 2001-2019
</metadata>
<g transform="translate(0.000000,84.000000) scale(0.100000,-0.100000)"
fill="#000000" stroke="none">
<path d="M429 631 c-45 -14 -73 -33 -152 -105 -87 -79 -105 -91 -162 -107
l-40 -11 36 -12 c19 -7 80 -44 135 -83 145 -102 177 -117 254 -117 80 0 105
12 213 108 93 83 114 96 154 96 27 0 27 1 -12 23 -22 13 -95 62 -163 110 -145
102 -192 119 -263 98z m109 -117 c93 -65 52 -225 -58 -224 -60 1 -100 49 -100
122 0 39 6 54 31 83 25 28 38 35 68 35 20 0 47 -7 59 -16z"/>
</g>
</svg>
