<?xml version="1.0" standalone="no"?>
<!DOCTYPE svg PUBLIC "-//W3C//DTD SVG 20010904//EN"
 "http://www.w3.org/TR/2001/REC-SVG-20010904/DTD/svg10.dtd">
<svg version="1.0" xmlns="http://www.w3.org/2000/svg"
 width="96.000000pt" height="84.000000pt" viewBox="0 0 96.000000 84.000000"
 preserveAspectRatio="xMidYMid meet">
<metadata>
Created by potrace 1.16, written by Peter Selinger 2001-2019
</metadata>
<g transform="translate(0.000000,84.000000) scale(0.100000,-0.100000)"
fill="#000000" stroke="none">
<path d="M394 611 c-22 -10 -74 -49 -115 -86 -79 -71 -122 -98 -179 -110 l-35
-8 41 -12 c23 -7 88 -43 145 -80 135 -89 181 -109 249 -109 70 -1 124 26 209
100 83 72 105 86 149 94 l37 6 -35 16 c-19 8 -80 47 -135 85 -181 128 -239
146 -331 104z m144 -97 c93 -65 52 -225 -58 -224 -60 1 -100 49 -100 122 0 39
6 54 31 83 25 28 38 35 68 35 20 0 47 -7 59 -16z"/>
</g>
</svg>
