<?xml version="1.0" standalone="no"?>
<!DOCTYPE svg PUBLIC "-//W3C//DTD SVG 20010904//EN"
 "http://www.w3.org/TR/2001/REC-SVG-20010904/DTD/svg10.dtd">
<svg version="1.0" xmlns="http://www.w3.org/2000/svg"
 width="96.000000pt" height="84.000000pt" viewBox="0 0 96.000000 84.000000"
 preserveAspectRatio="xMidYMid meet">
<metadata>
Created by potrace 1.16, written by Peter Selinger 2001-2019
</metadata>
<g transform="translate(0.000000,84.000000) scale(0.100000,-0.100000)"
fill="#000000" stroke="none">
<path d="M389 546 c-20 -8 -73 -36 -119 -62 -45 -27 -112 -56 -148 -65 l-65
-16 41 -6 c22 -4 95 -32 162 -62 215 -96 282 -96 451 1 62 35 116 58 146 63
l48 7 -51 16 c-28 10 -102 43 -165 75 -104 52 -120 57 -189 60 -46 1 -89 -3
-111 -11z m164 -56 c22 -24 27 -40 27 -79 0 -121 -134 -162 -184 -57 -20 43
-20 69 0 112 33 69 106 80 157 24z"/>
</g>
</svg>
