<?xml version="1.0" standalone="no"?>
<!DOCTYPE svg PUBLIC "-//W3C//DTD SVG 20010904//EN"
 "http://www.w3.org/TR/2001/REC-SVG-20010904/DTD/svg10.dtd">
<svg version="1.0" xmlns="http://www.w3.org/2000/svg"
 width="96.000000pt" height="84.000000pt" viewBox="0 0 96.000000 84.000000"
 preserveAspectRatio="xMidYMid meet">
<metadata>
Created by potrace 1.16, written by Peter Selinger 2001-2019
</metadata>
<g transform="translate(0.000000,84.000000) scale(0.100000,-0.100000)"
fill="#000000" stroke="none">
<path d="M415 529 c-22 -5 -83 -30 -135 -54 -53 -25 -125 -51 -160 -58 l-65
-13 42 -7 c23 -4 97 -27 165 -52 68 -25 143 -48 168 -51 l45 -5 -32 17 c-78
42 -72 174 10 209 63 26 127 -28 127 -108 0 -48 -25 -86 -68 -104 -48 -20 -36
-24 39 -12 38 6 102 28 160 55 55 27 118 49 150 53 l54 7 -38 8 c-21 4 -99 32
-172 62 -143 58 -217 71 -290 53z"/>
</g>
</svg>
