<?xml version="1.0" standalone="no"?>
<!DOCTYPE svg PUBLIC "-//W3C//DTD SVG 20010904//EN"
 "http://www.w3.org/TR/2001/REC-SVG-20010904/DTD/svg10.dtd">
<svg version="1.0" xmlns="http://www.w3.org/2000/svg"
 width="96.000000pt" height="84.000000pt" viewBox="0 0 96.000000 84.000000"
 preserveAspectRatio="xMidYMid meet">
<metadata>
Created by potrace 1.16, written by Peter Selinger 2001-2019
</metadata>
<g transform="translate(0.000000,84.000000) scale(0.100000,-0.100000)"
fill="#000000" stroke="none">
<path d="M463 599 c4 -16 -5 -31 -34 -58 -33 -32 -39 -44 -39 -80 0 -67 49
-144 113 -177 26 -14 31 -13 87 21 33 20 65 45 70 55 27 51 -2 195 -48 230
-27 22 -54 23 -109 5 -18 -6 -23 -3 -23 9 0 9 -5 16 -11 16 -7 0 -9 -9 -6 -21z"/>
</g>
</svg>
