<?xml version="1.0" standalone="no"?>
<!DOCTYPE svg PUBLIC "-//W3C//DTD SVG 20010904//EN"
 "http://www.w3.org/TR/2001/REC-SVG-20010904/DTD/svg10.dtd">
<svg version="1.0" xmlns="http://www.w3.org/2000/svg"
 width="96.000000pt" height="84.000000pt" viewBox="0 0 96.000000 84.000000"
 preserveAspectRatio="xMidYMid meet">
<metadata>
Created by potrace 1.16, written by Peter Selinger 2001-2019
</metadata>
<g transform="translate(0.000000,84.000000) scale(0.100000,-0.100000)"
fill="#000000" stroke="none">
<path d="M395 525 c-33 -7 -98 -30 -144 -50 -47 -21 -121 -45 -165 -53 l-81
-16 46 -7 c25 -4 109 -27 185 -52 76 -25 159 -47 184 -50 25 -2 37 -2 28 0
-49 12 -79 105 -53 163 32 71 108 81 161 21 42 -48 23 -144 -34 -176 l-27 -14
25 0 c45 -1 113 19 226 64 75 30 127 45 160 46 l49 1 -35 10 c-19 5 -98 32
-175 58 -212 75 -241 79 -350 55z"/>
</g>
</svg>
