<?xml version="1.0" standalone="no"?>
<!DOCTYPE svg PUBLIC "-//W3C//DTD SVG 20010904//EN"
 "http://www.w3.org/TR/2001/REC-SVG-20010904/DTD/svg10.dtd">
<svg version="1.0" xmlns="http://www.w3.org/2000/svg"
 width="96.000000pt" height="84.000000pt" viewBox="0 0 96.000000 84.000000"
 preserveAspectRatio="xMidYMid meet">
<metadata>
Created by potrace 1.16, written by Peter Selinger 2001-2019
</metadata>
<g transform="translate(0.000000,84.000000) scale(0.100000,-0.100000)"
fill="#000000" stroke="none">
<path d="M420 549 c-36 -4 -96 -19 -135 -34 -123 -47 -229 -84 -257 -90 -40
-8 -34 -23 15 -35 23 -6 96 -29 162 -50 127 -41 241 -65 272 -57 12 3 10 5 -8
6 -43 2 -89 62 -89 114 1 49 14 77 52 106 75 59 182 -50 142 -145 -8 -20 -27
-47 -42 -60 l-27 -25 54 7 c58 7 154 37 236 74 28 13 75 28 105 35 30 6 53 16
50 20 -8 14 -370 133 -420 137 -25 3 -74 1 -110 -3z"/>
</g>
</svg>
