<?xml version="1.0" standalone="no"?>
<!DOCTYPE svg PUBLIC "-//W3C//DTD SVG 20010904//EN"
 "http://www.w3.org/TR/2001/REC-SVG-20010904/DTD/svg10.dtd">
<svg version="1.0" xmlns="http://www.w3.org/2000/svg"
 width="96.000000pt" height="84.000000pt" viewBox="0 0 96.000000 84.000000"
 preserveAspectRatio="xMidYMid meet">
<metadata>
Created by potrace 1.16, written by Peter Selinger 2001-2019
</metadata>
<g transform="translate(0.000000,84.000000) scale(0.100000,-0.100000)"
fill="#000000" stroke="none">
<path d="M325 565 c-28 -7 -96 -31 -150 -53 -55 -22 -117 -45 -137 -51 -34
-11 -38 -16 -38 -46 l0 -34 128 -40 c211 -66 251 -73 392 -68 133 5 161 12
350 91 78 32 85 38 85 63 0 27 -4 29 -185 90 -182 62 -187 63 -290 62 -58 0
-128 -6 -155 -14z m215 -55 c62 -44 64 -159 5 -205 -46 -34 -93 -33 -127 3
-55 59 -56 137 -1 194 33 34 82 37 123 8z"/>
</g>
</svg>
