<?xml version="1.0" standalone="no"?>
<!DOCTYPE svg PUBLIC "-//W3C//DTD SVG 20010904//EN"
 "http://www.w3.org/TR/2001/REC-SVG-20010904/DTD/svg10.dtd">
<svg version="1.0" xmlns="http://www.w3.org/2000/svg"
 width="96.000000pt" height="84.000000pt" viewBox="0 0 96.000000 84.000000"
 preserveAspectRatio="xMidYMid meet">
<metadata>
Created by potrace 1.16, written by Peter Selinger 2001-2019
</metadata>
<g transform="translate(0.000000,84.000000) scale(0.100000,-0.100000)"
fill="#000000" stroke="none">
<path d="M397 620 c-81 -10 -166 -35 -297 -88 l-95 -39 -3 -71 -3 -70 103 -32
c239 -74 353 -91 501 -71 90 12 225 55 310 98 l48 24 -3 66 -3 67 -170 57
c-185 63 -261 74 -388 59z m145 -96 c97 -46 76 -230 -28 -250 -111 -21 -180
128 -103 224 35 45 76 53 131 26z"/>
</g>
</svg>
