<?xml version="1.0" standalone="no"?>
<!DOCTYPE svg PUBLIC "-//W3C//DTD SVG 20010904//EN"
 "http://www.w3.org/TR/2001/REC-SVG-20010904/DTD/svg10.dtd">
<svg version="1.0" xmlns="http://www.w3.org/2000/svg"
 width="96.000000pt" height="84.000000pt" viewBox="0 0 96.000000 84.000000"
 preserveAspectRatio="xMidYMid meet">
<metadata>
Created by potrace 1.16, written by Peter Selinger 2001-2019
</metadata>
<g transform="translate(0.000000,84.000000) scale(0.100000,-0.100000)"
fill="#000000" stroke="none">
<path d="M545 754 c-175 -21 -325 -64 -463 -133 l-82 -41 0 -189 c0 -172 2
-190 18 -195 52 -15 224 -30 342 -30 206 0 367 36 523 116 l77 40 0 183 0 182
-93 27 c-130 37 -235 50 -322 40z m56 -206 c21 -17 39 -40 39 -50 0 -11 5 -29
11 -40 21 -38 -5 -120 -51 -160 -35 -32 -44 -35 -87 -32 -26 2 -53 9 -58 16
-6 7 -19 18 -30 24 -39 21 -60 135 -35 186 7 13 28 38 48 55 51 45 107 46 163
1z"/>
</g>
</svg>
