<?xml version="1.0" standalone="no"?>
<!DOCTYPE svg PUBLIC "-//W3C//DTD SVG 20010904//EN"
 "http://www.w3.org/TR/2001/REC-SVG-20010904/DTD/svg10.dtd">
<svg version="1.0" xmlns="http://www.w3.org/2000/svg"
 width="96.000000pt" height="84.000000pt" viewBox="0 0 96.000000 84.000000"
 preserveAspectRatio="xMidYMid meet">
<metadata>
Created by potrace 1.16, written by Peter Selinger 2001-2019
</metadata>
<g transform="translate(0.000000,84.000000) scale(0.100000,-0.100000)"
fill="#000000" stroke="none">
<path d="M435 816 c-112 -29 -245 -83 -352 -144 l-83 -47 0 -277 0 -278 43 0
c93 0 313 21 405 39 174 34 367 111 467 188 l45 34 -2 237 -3 237 -70 17
c-111 26 -335 23 -450 -6z m133 -212 c64 -21 99 -76 103 -159 3 -51 -1 -67
-24 -107 -24 -40 -35 -49 -83 -64 -45 -14 -57 -15 -64 -4 -4 7 -20 14 -35 16
-16 1 -40 15 -54 30 -14 15 -20 24 -13 20 6 -4 12 -3 12 3 0 5 -7 14 -16 19
-8 5 -20 28 -25 52 -21 92 46 186 149 209 2 1 24 -6 50 -15z"/>
</g>
</svg>
