<?xml version="1.0" standalone="no"?>
<!DOCTYPE svg PUBLIC "-//W3C//DTD SVG 20010904//EN"
 "http://www.w3.org/TR/2001/REC-SVG-20010904/DTD/svg10.dtd">
<svg version="1.0" xmlns="http://www.w3.org/2000/svg"
 width="96.000000pt" height="84.000000pt" viewBox="0 0 96.000000 84.000000"
 preserveAspectRatio="xMidYMid meet">
<metadata>
Created by potrace 1.16, written by Peter Selinger 2001-2019
</metadata>
<g transform="translate(0.000000,84.000000) scale(0.100000,-0.100000)"
fill="#000000" stroke="none">
<path d="M211 795 c-46 -25 -111 -64 -145 -88 l-61 -43 -3 -332 -2 -332 169 0
c164 0 172 1 258 31 192 68 345 156 466 269 l67 62 0 239 0 239 -332 0 -333 0
-84 -45z m393 -187 c35 -27 48 -45 64 -93 14 -42 17 -66 11 -83 -5 -13 -9 -35
-9 -49 0 -18 -14 -40 -44 -68 -37 -36 -51 -43 -96 -47 -56 -6 -93 -1 -85 12 2
4 -5 16 -17 26 -21 19 -21 19 -15 -1 6 -18 6 -18 -6 -3 -7 9 -23 18 -36 20
-16 2 -32 18 -49 49 -29 55 -25 87 16 129 15 15 29 36 30 46 4 20 17 34 66 72
45 35 114 31 170 -10z"/>
</g>
</svg>
