<?xml version="1.0" standalone="no"?>
<!DOCTYPE svg PUBLIC "-//W3C//DTD SVG 20010904//EN"
 "http://www.w3.org/TR/2001/REC-SVG-20010904/DTD/svg10.dtd">
<svg version="1.0" xmlns="http://www.w3.org/2000/svg"
 width="96.000000pt" height="84.000000pt" viewBox="0 0 96.000000 84.000000"
 preserveAspectRatio="xMidYMid meet">
<metadata>
Created by potrace 1.16, written by Peter Selinger 2001-2019
</metadata>
<g transform="translate(0.000000,84.000000) scale(0.100000,-0.100000)"
fill="#000000" stroke="none">
<path d="M169 807 c-25 -18 -73 -54 -107 -81 l-62 -49 0 -338 0 -339 258 0
259 0 72 51 c153 107 268 236 333 375 33 68 33 71 36 242 l4 172 -374 -1 -373
0 -46 -32z m357 -185 c72 -24 118 -80 132 -162 10 -55 9 -66 -8 -98 -11 -20
-20 -44 -20 -53 0 -9 -16 -23 -37 -32 -21 -9 -45 -22 -54 -28 -13 -10 -24 -9
-52 4 -40 19 -51 21 -43 8 4 -5 -7 -4 -24 2 -16 6 -30 17 -30 24 0 21 -16 15
-30 -12 -28 -52 -76 -37 -125 38 -29 44 28 159 71 143 8 -3 11 4 9 20 -1 13 8
38 21 56 13 17 24 38 24 45 0 12 13 19 90 51 14 6 25 11 25 11 0 0 23 -7 51
-17z"/>
</g>
</svg>
