<?xml version="1.0" standalone="no"?>
<!DOCTYPE svg PUBLIC "-//W3C//DTD SVG 20010904//EN"
 "http://www.w3.org/TR/2001/REC-SVG-20010904/DTD/svg10.dtd">
<svg version="1.0" xmlns="http://www.w3.org/2000/svg"
 width="96.000000pt" height="84.000000pt" viewBox="0 0 96.000000 84.000000"
 preserveAspectRatio="xMidYMid meet">
<metadata>
Created by potrace 1.16, written by Peter Selinger 2001-2019
</metadata>
<g transform="translate(0.000000,84.000000) scale(0.100000,-0.100000)"
fill="#000000" stroke="none">
<path d="M153 804 c-26 -20 -72 -59 -100 -87 l-53 -51 0 -333 0 -333 299 0
299 0 68 78 c128 146 174 241 182 377 4 68 -1 99 -27 199 -18 65 -29 121 -26
124 3 3 -25 18 -62 34 l-67 28 -232 0 -232 0 -49 -36z m370 -250 c98 -54 141
-196 82 -266 -14 -16 -25 -36 -25 -44 0 -15 -8 -17 -52 -14 -14 1 -29 -3 -33
-9 -10 -17 -31 -13 -71 14 -42 29 -46 26 -89 -53 -40 -74 -78 -80 -134 -23
-27 28 -32 40 -30 75 3 55 24 94 51 98 27 4 81 101 74 132 -3 10 1 31 9 45 20
39 71 62 156 70 9 0 37 -11 62 -25z m14 -340 c-3 -3 -12 -4 -19 -1 -8 3 -5 6
6 6 11 1 17 -2 13 -5z"/>
</g>
</svg>
