<?xml version="1.0" standalone="no"?>
<!DOCTYPE svg PUBLIC "-//W3C//DTD SVG 20010904//EN"
 "http://www.w3.org/TR/2001/REC-SVG-20010904/DTD/svg10.dtd">
<svg version="1.0" xmlns="http://www.w3.org/2000/svg"
 width="96.000000pt" height="84.000000pt" viewBox="0 0 96.000000 84.000000"
 preserveAspectRatio="xMidYMid meet">
<metadata>
Created by potrace 1.16, written by Peter Selinger 2001-2019
</metadata>
<g transform="translate(0.000000,84.000000) scale(0.100000,-0.100000)"
fill="#000000" stroke="none">
<path d="M0 420 l0 -420 113 0 c89 1 108 3 92 12 -23 13 -35 29 -29 39 2 4 -1
20 -7 36 -13 38 3 83 32 90 18 5 45 47 41 65 -1 4 12 18 28 32 33 27 38 57 15
76 -20 16 -19 28 5 77 13 28 30 45 52 53 38 15 158 29 158 19 0 -4 16 -22 35
-41 61 -57 83 -105 78 -165 -4 -40 -10 -53 -22 -53 -9 0 -29 -13 -44 -30 -25
-26 -30 -28 -43 -15 -16 16 -64 21 -64 7 0 -4 6 -14 13 -22 6 -8 3 -7 -9 3
-45 37 -65 19 -83 -77 -6 -33 -18 -70 -26 -83 l-15 -23 240 0 c132 0 240 3
240 8 0 4 12 81 26 172 15 91 28 179 31 196 3 20 -3 47 -17 75 -28 55 -172
196 -314 305 l-108 84 -209 0 -209 0 0 -420z"/>
</g>
</svg>
