<?xml version="1.0" standalone="no"?>
<!DOCTYPE svg PUBLIC "-//W3C//DTD SVG 20010904//EN"
 "http://www.w3.org/TR/2001/REC-SVG-20010904/DTD/svg10.dtd">
<svg version="1.0" xmlns="http://www.w3.org/2000/svg"
 width="96.000000pt" height="84.000000pt" viewBox="0 0 96.000000 84.000000"
 preserveAspectRatio="xMidYMid meet">
<metadata>
Created by potrace 1.16, written by Peter Selinger 2001-2019
</metadata>
<g transform="translate(0.000000,84.000000) scale(0.100000,-0.100000)"
fill="#000000" stroke="none">
<path d="M0 420 l0 -420 105 0 c84 0 105 3 105 14 0 8 17 36 37 63 46 60 57
76 85 129 22 44 19 80 -7 70 -10 -3 -17 3 -21 20 -4 14 -4 28 0 31 3 3 1 12
-6 20 -16 20 35 70 87 85 39 12 85 35 95 50 3 4 16 -10 30 -30 13 -20 37 -48
52 -62 16 -14 37 -43 48 -64 18 -37 19 -41 3 -58 -9 -10 -13 -21 -10 -25 12
-11 -13 -31 -33 -26 -11 3 -28 2 -37 -2 -17 -6 -17 -7 1 -21 11 -8 15 -14 9
-14 -7 0 -15 5 -18 10 -4 6 -12 9 -18 8 -7 -1 -22 3 -34 10 -23 13 -37 3 -28
-20 3 -8 -3 -23 -15 -33 -16 -15 -20 -30 -20 -87 l0 -68 275 0 275 0 0 383 0
382 -29 -50 c-38 -66 -100 -122 -146 -131 -19 -3 -82 -3 -138 1 l-103 7 -69
89 c-39 50 -78 105 -88 124 l-17 35 -185 0 -185 0 0 -420z"/>
</g>
</svg>
