<?xml version="1.0" standalone="no"?>
<!DOCTYPE svg PUBLIC "-//W3C//DTD SVG 20010904//EN"
 "http://www.w3.org/TR/2001/REC-SVG-20010904/DTD/svg10.dtd">
<svg version="1.0" xmlns="http://www.w3.org/2000/svg"
 width="96.000000pt" height="84.000000pt" viewBox="0 0 96.000000 84.000000"
 preserveAspectRatio="xMidYMid meet">
<metadata>
Created by potrace 1.16, written by Peter Selinger 2001-2019
</metadata>
<g transform="translate(0.000000,84.000000) scale(0.100000,-0.100000)"
fill="#000000" stroke="none">
<path d="M0 420 l0 -420 145 0 146 0 44 92 c54 110 57 144 14 189 -30 33 -31
33 -15 67 11 21 29 39 53 49 21 8 52 30 68 48 l31 32 29 -39 c17 -22 45 -48
63 -60 37 -23 52 -46 52 -82 0 -19 -5 -26 -19 -26 -26 0 -35 -17 -16 -28 11
-6 -5 -8 -47 -8 l-63 1 -6 -45 c-4 -25 -12 -61 -18 -79 -7 -25 -8 -46 0 -73
l10 -38 244 0 245 0 0 420 0 420 -64 0 c-59 0 -64 -2 -70 -24 -10 -41 -87
-146 -125 -172 -20 -13 -65 -35 -100 -49 -35 -14 -72 -32 -83 -41 -13 -13 -18
-14 -18 -4 0 7 -27 59 -59 114 -33 56 -63 117 -68 136 l-9 35 -182 3 -182 2 0
-420z"/>
</g>
</svg>
