<?xml version="1.0" standalone="no"?>
<!DOCTYPE svg PUBLIC "-//W3C//DTD SVG 20010904//EN"
 "http://www.w3.org/TR/2001/REC-SVG-20010904/DTD/svg10.dtd">
<svg version="1.0" xmlns="http://www.w3.org/2000/svg"
 width="96.000000pt" height="84.000000pt" viewBox="0 0 96.000000 84.000000"
 preserveAspectRatio="xMidYMid meet">
<metadata>
Created by potrace 1.16, written by Peter Selinger 2001-2019
</metadata>
<g transform="translate(0.000000,84.000000) scale(0.100000,-0.100000)"
fill="#000000" stroke="none">
<path d="M0 420 l0 -420 174 0 174 0 29 72 c20 54 28 90 28 138 0 63 -1 65
-26 68 -21 2 -26 8 -27 33 -1 25 7 36 44 62 24 17 46 38 49 48 3 9 12 20 20
23 8 3 15 12 15 21 0 11 9 6 30 -15 17 -17 30 -35 30 -40 0 -5 11 -12 24 -16
13 -3 36 -18 51 -34 26 -27 26 -30 11 -51 -8 -13 -28 -25 -42 -26 -15 -2 -33
-10 -41 -18 -7 -8 -20 -12 -27 -9 -11 4 -14 -7 -14 -48 0 -29 -3 -68 -7 -86
-5 -22 -2 -48 10 -77 l17 -45 219 0 219 0 0 420 0 420 -119 0 -119 0 -16 -47
c-23 -68 -69 -130 -142 -191 -35 -29 -64 -61 -64 -70 -1 -27 -129 218 -138
263 l-8 40 -177 3 -177 2 0 -420z"/>
</g>
</svg>
