<?xml version="1.0" standalone="no"?>
<!DOCTYPE svg PUBLIC "-//W3C//DTD SVG 20010904//EN"
 "http://www.w3.org/TR/2001/REC-SVG-20010904/DTD/svg10.dtd">
<svg version="1.0" xmlns="http://www.w3.org/2000/svg"
 width="96.000000pt" height="84.000000pt" viewBox="0 0 96.000000 84.000000"
 preserveAspectRatio="xMidYMid meet">
<metadata>
Created by potrace 1.16, written by Peter Selinger 2001-2019
</metadata>
<g transform="translate(0.000000,84.000000) scale(0.100000,-0.100000)"
fill="#000000" stroke="none">
<path d="M0 420 l0 -420 193 0 194 0 16 57 c31 108 44 223 25 223 -5 0 -6 -6
-2 -12 4 -7 -6 -2 -22 12 -16 14 -31 26 -33 28 -11 6 26 55 51 68 15 8 28 23
28 33 0 10 7 24 15 31 8 7 15 20 15 29 1 14 2 14 14 -1 7 -10 18 -18 23 -18 5
0 15 -11 21 -25 6 -14 19 -25 27 -25 35 0 75 -30 75 -56 0 -14 -4 -23 -8 -20
-4 2 -14 0 -22 -5 -13 -8 -13 -10 0 -18 10 -7 4 -9 -20 -7 -19 1 -46 -1 -60
-4 l-25 -7 25 -11 c20 -8 21 -11 6 -11 -16 -1 -17 -6 -11 -47 4 -29 2 -50 -5
-59 -9 -11 -6 -30 11 -84 l23 -71 203 0 203 0 0 420 0 420 -164 0 -163 0 -7
-46 c-8 -63 -38 -127 -86 -184 -22 -26 -44 -58 -48 -71 -8 -20 -15 -11 -66 84
-43 80 -59 121 -63 162 l-6 55 -178 0 -179 0 0 -420z"/>
</g>
</svg>
