<?xml version="1.0" standalone="no"?>
<!DOCTYPE svg PUBLIC "-//W3C//DTD SVG 20010904//EN"
 "http://www.w3.org/TR/2001/REC-SVG-20010904/DTD/svg10.dtd">
<svg version="1.0" xmlns="http://www.w3.org/2000/svg"
 width="96.000000pt" height="84.000000pt" viewBox="0 0 96.000000 84.000000"
 preserveAspectRatio="xMidYMid meet">
<metadata>
Created by potrace 1.16, written by Peter Selinger 2001-2019
</metadata>
<g transform="translate(0.000000,84.000000) scale(0.100000,-0.100000)"
fill="#000000" stroke="none">
<path d="M0 420 l0 -420 203 0 203 0 13 48 c24 85 37 169 30 188 -3 10 -4 23
-2 27 8 13 -30 37 -49 31 -31 -9 -21 36 16 70 18 18 41 50 51 71 10 22 20 42
22 44 2 3 18 -12 37 -32 19 -20 42 -37 53 -37 11 0 30 -11 42 -24 22 -23 22
-25 5 -45 -10 -12 -27 -21 -37 -21 -10 0 -28 -7 -41 -15 -21 -14 -22 -18 -13
-77 8 -44 7 -63 -1 -66 -7 -2 -2 -25 13 -67 14 -36 22 -71 19 -80 -5 -13 19
-15 195 -15 l201 0 0 420 0 420 -195 0 -195 0 0 -69 c0 -70 1 -68 -79 -217
l-16 -30 -42 74 c-51 89 -67 142 -59 199 l6 43 -190 0 -190 0 0 -420z"/>
</g>
</svg>
