<?xml version="1.0" standalone="no"?>
<!DOCTYPE svg PUBLIC "-//W3C//DTD SVG 20010904//EN"
 "http://www.w3.org/TR/2001/REC-SVG-20010904/DTD/svg10.dtd">
<svg version="1.0" xmlns="http://www.w3.org/2000/svg"
 width="96.000000pt" height="84.000000pt" viewBox="0 0 96.000000 84.000000"
 preserveAspectRatio="xMidYMid meet">
<metadata>
Created by potrace 1.16, written by Peter Selinger 2001-2019
</metadata>
<g transform="translate(0.000000,84.000000) scale(0.100000,-0.100000)"
fill="#000000" stroke="none">
<path d="M0 420 l0 -420 208 0 208 0 18 88 c10 48 18 115 19 150 2 62 1 63
-22 59 -56 -11 -60 39 -7 81 14 10 32 38 42 61 9 22 20 41 24 41 5 0 22 -13
38 -30 17 -16 36 -30 44 -30 30 -1 63 -29 63 -54 1 -20 -4 -26 -21 -26 -12 0
-27 -7 -34 -15 -7 -8 -23 -15 -37 -15 -13 0 -22 -4 -19 -8 3 -5 8 -31 12 -58
3 -27 7 -50 9 -52 2 -2 0 -15 -5 -30 -5 -20 -1 -40 16 -73 13 -26 21 -56 19
-68 -4 -21 -2 -21 191 -21 l194 0 0 420 0 420 -208 0 -207 0 3 -78 c4 -81 -1
-100 -51 -188 l-24 -41 -41 71 c-49 83 -59 123 -45 188 l10 48 -199 0 -198 0
0 -420z"/>
</g>
</svg>
