<?xml version="1.0" standalone="no"?>
<!DOCTYPE svg PUBLIC "-//W3C//DTD SVG 20010904//EN"
 "http://www.w3.org/TR/2001/REC-SVG-20010904/DTD/svg10.dtd">
<svg version="1.0" xmlns="http://www.w3.org/2000/svg"
 width="96.000000pt" height="84.000000pt" viewBox="0 0 96.000000 84.000000"
 preserveAspectRatio="xMidYMid meet">
<metadata>
Created by potrace 1.16, written by Peter Selinger 2001-2019
</metadata>
<g transform="translate(0.000000,84.000000) scale(0.100000,-0.100000)"
fill="#000000" stroke="none">
<path d="M0 420 l0 -420 214 0 c210 0 214 0 209 20 -3 11 0 48 6 81 7 33 14
92 16 132 l5 72 -30 1 c-17 1 -33 4 -37 7 -10 11 18 65 43 82 13 8 24 21 24
28 0 6 8 25 19 40 l18 28 30 -29 c16 -16 43 -33 61 -37 43 -9 83 -65 47 -65
-9 0 -18 -7 -21 -15 -4 -8 -17 -15 -29 -15 -13 0 -31 -3 -40 -6 -13 -5 -14 -8
-3 -15 9 -6 9 -9 1 -9 -9 0 -9 -9 2 -39 17 -48 20 -90 10 -115 -6 -13 0 -33
16 -63 l24 -44 -24 -20 c-23 -19 -22 -19 188 -19 l211 0 0 420 0 420 -209 0
-209 0 5 -80 c6 -78 5 -81 -29 -137 -20 -32 -37 -64 -39 -71 -3 -8 -24 21 -48
63 -43 74 -44 77 -39 150 l5 75 -199 0 -198 0 0 -420z"/>
</g>
</svg>
