<?xml version="1.0" standalone="no"?>
<!DOCTYPE svg PUBLIC "-//W3C//DTD SVG 20010904//EN"
 "http://www.w3.org/TR/2001/REC-SVG-20010904/DTD/svg10.dtd">
<svg version="1.0" xmlns="http://www.w3.org/2000/svg"
 width="96.000000pt" height="84.000000pt" viewBox="0 0 96.000000 84.000000"
 preserveAspectRatio="xMidYMid meet">
<metadata>
Created by potrace 1.16, written by Peter Selinger 2001-2019
</metadata>
<g transform="translate(0.000000,84.000000) scale(0.100000,-0.100000)"
fill="#000000" stroke="none">
<path d="M0 420 l0 -420 225 0 c143 0 225 4 225 10 0 6 -9 10 -20 10 -26 0
-27 40 -4 142 27 117 16 166 -33 153 -37 -9 -30 34 12 75 19 19 35 41 35 49 0
19 39 71 40 54 0 -7 7 -13 15 -13 8 0 19 -8 24 -19 6 -10 23 -21 39 -24 15 -3
39 -14 52 -25 22 -18 23 -21 7 -36 -9 -9 -30 -22 -48 -28 -23 -8 -27 -13 -17
-19 9 -6 5 -9 -13 -9 -25 0 -26 -2 -19 -32 4 -18 15 -49 23 -69 12 -27 13 -39
5 -47 -7 -7 -9 -12 -5 -12 4 0 3 -9 -3 -20 -9 -16 -7 -26 8 -48 17 -25 19 -62
3 -62 -4 0 -16 -7 -27 -15 -17 -13 6 -14 209 -15 l227 0 0 420 0 420 -215 0
-215 0 10 -26 c6 -14 10 -49 10 -78 0 -42 -7 -64 -34 -109 -19 -31 -36 -61
-38 -66 -1 -6 -22 22 -45 62 -45 75 -55 134 -33 191 l10 26 -205 0 -205 0 0
-420z"/>
</g>
</svg>
