<?xml version="1.0" standalone="no"?>
<!DOCTYPE svg PUBLIC "-//W3C//DTD SVG 20010904//EN"
 "http://www.w3.org/TR/2001/REC-SVG-20010904/DTD/svg10.dtd">
<svg version="1.0" xmlns="http://www.w3.org/2000/svg"
 width="96.000000pt" height="84.000000pt" viewBox="0 0 96.000000 84.000000"
 preserveAspectRatio="xMidYMid meet">
<metadata>
Created by potrace 1.16, written by Peter Selinger 2001-2019
</metadata>
<g transform="translate(0.000000,84.000000) scale(0.100000,-0.100000)"
fill="#000000" stroke="none">
<path d="M0 420 l0 -420 225 0 c130 0 225 4 225 9 0 5 -14 15 -30 23 -17 7
-32 20 -35 28 -3 9 8 53 25 97 33 93 39 177 11 170 -9 -2 -15 -9 -13 -15 3
-16 -1 -15 -26 7 -29 25 -28 34 13 80 19 21 35 43 35 48 0 5 6 21 13 36 12 27
27 36 27 17 0 -5 7 -10 15 -10 8 0 20 -9 27 -20 7 -11 22 -20 33 -20 11 -1 31
-7 44 -14 29 -16 36 -56 11 -56 -9 0 -25 -9 -35 -20 -10 -11 -21 -17 -25 -15
-14 9 -40 -7 -33 -19 4 -6 8 -22 9 -36 2 -69 4 -76 15 -60 8 12 9 9 4 -10 -16
-65 -17 -98 -1 -128 16 -30 15 -33 -4 -52 -11 -11 -20 -24 -20 -30 0 -6 82
-10 225 -10 l225 0 0 420 0 420 -214 0 -215 0 11 -31 c19 -55 6 -129 -34 -187
l-36 -53 -38 63 c-32 51 -39 73 -39 113 0 28 4 60 8 73 l8 22 -205 0 -206 0 0
-420z"/>
<path d="M470 10 c-12 -8 -10 -10 8 -10 13 0 20 4 17 10 -7 12 -6 12 -25 0z"/>
</g>
</svg>
