<?xml version="1.0" standalone="no"?>
<!DOCTYPE svg PUBLIC "-//W3C//DTD SVG 20010904//EN"
 "http://www.w3.org/TR/2001/REC-SVG-20010904/DTD/svg10.dtd">
<svg version="1.0" xmlns="http://www.w3.org/2000/svg"
 width="96.000000pt" height="84.000000pt" viewBox="0 0 96.000000 84.000000"
 preserveAspectRatio="xMidYMid meet">
<metadata>
Created by potrace 1.16, written by Peter Selinger 2001-2019
</metadata>
<g transform="translate(0.000000,84.000000) scale(0.100000,-0.100000)"
fill="#000000" stroke="none">
<path d="M0 420 l0 -420 225 0 c203 0 225 2 225 17 0 9 -3 13 -6 10 -10 -10
-84 35 -84 51 0 7 12 34 27 59 17 29 30 73 37 122 l11 76 -37 0 c-35 0 -38 2
-38 26 0 18 10 36 30 52 17 14 30 29 30 34 1 4 8 24 18 44 18 37 17 37 61 -2
11 -10 33 -21 48 -25 50 -12 88 -64 47 -64 -12 0 -14 -3 -6 -12 8 -10 3 -14
-19 -15 -41 -3 -68 -20 -64 -40 2 -10 7 -35 10 -55 3 -21 10 -38 16 -38 6 0 7
5 3 12 -4 7 -3 8 5 4 9 -6 9 -11 0 -22 -15 -19 -18 -18 -29 9 -16 39 -12 -54
5 -109 17 -57 19 -94 5 -94 -5 0 -10 -9 -10 -20 0 -19 7 -20 225 -20 l225 0 0
420 0 420 -207 0 -208 0 0 -77 c0 -73 -2 -81 -36 -129 l-35 -51 -39 60 c-41
63 -49 108 -32 170 l7 27 -205 0 -205 0 0 -420z"/>
<path d="M465 21 c-7 -12 12 -24 25 -16 11 7 4 25 -10 25 -5 0 -11 -4 -15 -9z"/>
</g>
</svg>
