<?xml version="1.0" standalone="no"?>
<!DOCTYPE svg PUBLIC "-//W3C//DTD SVG 20010904//EN"
 "http://www.w3.org/TR/2001/REC-SVG-20010904/DTD/svg10.dtd">
<svg version="1.0" xmlns="http://www.w3.org/2000/svg"
 width="96.000000pt" height="84.000000pt" viewBox="0 0 96.000000 84.000000"
 preserveAspectRatio="xMidYMid meet">
<metadata>
Created by potrace 1.16, written by Peter Selinger 2001-2019
</metadata>
<g transform="translate(0.000000,84.000000) scale(0.100000,-0.100000)"
fill="#000000" stroke="none">
<path d="M0 420 l0 -420 225 0 225 0 0 26 c0 19 -5 24 -18 22 -23 -4 -72 28
-72 47 0 9 11 32 24 53 14 20 27 60 30 87 4 28 8 65 11 83 4 30 3 32 -24 32
-41 0 -55 20 -34 51 10 13 23 29 30 34 15 12 53 84 53 102 0 6 17 -4 38 -22
20 -19 44 -35 52 -35 32 -1 65 -28 65 -54 1 -20 -4 -26 -21 -26 -28 0 -42 -19
-23 -31 9 -5 0 -7 -24 -4 -34 5 -37 3 -33 -18 3 -12 8 -39 11 -60 5 -32 9 -36
21 -27 9 8 14 9 14 2 0 -20 -23 -25 -35 -9 -17 24 -26 21 -21 -5 20 -106 28
-169 21 -185 -4 -10 -7 -26 -6 -35 1 -10 -3 -18 -8 -18 -6 0 -11 9 -11 19 0
25 -16 36 -24 16 -3 -8 -1 -17 5 -20 5 -4 7 -11 4 -16 -4 -5 90 -9 239 -9
l246 0 0 420 0 420 -207 0 -208 0 0 -72 c0 -67 -3 -77 -35 -123 l-36 -51 -36
56 c-42 66 -53 106 -39 154 l9 36 -204 0 -204 0 0 -420z"/>
</g>
</svg>
