<?xml version="1.0" standalone="no"?>
<!DOCTYPE svg PUBLIC "-//W3C//DTD SVG 20010904//EN"
 "http://www.w3.org/TR/2001/REC-SVG-20010904/DTD/svg10.dtd">
<svg version="1.0" xmlns="http://www.w3.org/2000/svg"
 width="96.000000pt" height="84.000000pt" viewBox="0 0 96.000000 84.000000"
 preserveAspectRatio="xMidYMid meet">
<metadata>
Created by potrace 1.16, written by Peter Selinger 2001-2019
</metadata>
<g transform="translate(0.000000,84.000000) scale(0.100000,-0.100000)"
fill="#000000" stroke="none">
<path d="M0 420 l0 -420 480 0 480 0 0 420 0 420 -207 0 -208 0 0 -68 c0 -61
-3 -72 -35 -115 l-34 -48 -18 23 c-10 13 -30 47 -44 76 -23 46 -25 57 -16 92
l10 40 -204 0 -204 0 0 -420z m540 79 c14 -6 35 -15 48 -20 12 -5 22 -16 22
-24 0 -22 -50 -64 -76 -65 -30 0 -32 -5 -23 -61 9 -59 16 -70 29 -49 7 11 10
11 10 2 0 -19 -31 -27 -42 -11 -10 14 -7 -43 8 -143 5 -35 3 -48 -5 -48 -8 0
-11 -11 -9 -27 2 -22 -1 -27 -24 -30 -24 -3 -28 0 -28 23 0 19 -4 25 -16 20
-19 -7 -64 21 -64 42 0 8 11 38 24 66 17 34 26 75 29 124 4 67 3 72 -13 67
-10 -3 -21 -1 -25 5 -4 6 -13 9 -21 6 -8 -3 -14 -3 -14 0 0 14 31 62 54 83 14
14 26 30 26 36 0 6 6 23 12 37 l13 27 30 -25 c16 -13 41 -29 55 -35z"/>
<path d="M471 54 c0 -11 3 -14 6 -6 3 7 2 16 -1 19 -3 4 -6 -2 -5 -13z"/>
</g>
</svg>
