<?xml version="1.0" standalone="no"?>
<!DOCTYPE svg PUBLIC "-//W3C//DTD SVG 20010904//EN"
 "http://www.w3.org/TR/2001/REC-SVG-20010904/DTD/svg10.dtd">
<svg version="1.0" xmlns="http://www.w3.org/2000/svg"
 width="96.000000pt" height="84.000000pt" viewBox="0 0 96.000000 84.000000"
 preserveAspectRatio="xMidYMid meet">
<metadata>
Created by potrace 1.16, written by Peter Selinger 2001-2019
</metadata>
<g transform="translate(0.000000,84.000000) scale(0.100000,-0.100000)"
fill="#000000" stroke="none">
<path d="M0 420 l0 -420 480 0 480 0 0 420 0 420 -205 0 -205 0 0 -57 c0 -50
-5 -65 -36 -110 l-36 -53 -30 42 c-44 60 -60 103 -52 144 l6 34 -201 0 -201 0
0 -420z m498 120 c17 -16 37 -30 45 -30 9 0 30 -12 47 -27 27 -22 29 -28 16
-35 -9 -5 -14 -13 -11 -19 4 -5 -1 -9 -10 -9 -10 0 -32 -7 -51 -16 -30 -14
-34 -20 -30 -48 6 -48 17 -70 27 -54 7 10 9 10 9 -3 0 -23 -11 -30 -27 -17
-13 10 -14 4 -9 -43 4 -29 11 -69 17 -88 11 -31 9 -37 -10 -52 -12 -10 -20
-27 -19 -39 2 -17 -3 -24 -19 -26 -18 -3 -23 1 -23 19 0 15 -11 27 -33 37 -40
19 -44 38 -18 103 11 29 22 79 24 113 3 52 1 63 -15 73 -11 7 -27 9 -37 6 -32
-10 -13 52 25 83 19 15 34 32 34 38 0 15 24 64 32 64 3 0 20 -13 36 -30z"/>
<path d="M465 70 c3 -5 8 -10 11 -10 2 0 4 5 4 10 0 6 -5 10 -11 10 -5 0 -7
-4 -4 -10z"/>
</g>
</svg>
