<?xml version="1.0" standalone="no"?>
<!DOCTYPE svg PUBLIC "-//W3C//DTD SVG 20010904//EN"
 "http://www.w3.org/TR/2001/REC-SVG-20010904/DTD/svg10.dtd">
<svg version="1.0" xmlns="http://www.w3.org/2000/svg"
 width="96.000000pt" height="84.000000pt" viewBox="0 0 96.000000 84.000000"
 preserveAspectRatio="xMidYMid meet">
<metadata>
Created by potrace 1.16, written by Peter Selinger 2001-2019
</metadata>
<g transform="translate(0.000000,84.000000) scale(0.100000,-0.100000)"
fill="#000000" stroke="none">
<path d="M0 420 l0 -420 480 0 480 0 0 420 0 420 -202 0 -203 0 -1 -49 c0 -40
-8 -60 -39 -105 l-39 -56 -40 62 c-33 49 -41 70 -40 105 l1 43 -199 0 -198 0
0 -420z m552 100 c20 0 79 -49 59 -50 -11 0 -11 -3 -1 -15 10 -12 9 -15 -8
-15 -29 0 -53 -11 -46 -21 3 -5 -9 -9 -26 -9 -35 0 -34 7 -18 -97 2 -19 16
-16 21 5 4 15 5 15 6 0 2 -26 -20 -33 -36 -12 -12 16 -13 15 -7 -16 3 -19 13
-63 21 -98 16 -68 13 -92 -13 -92 -12 0 -15 -6 -10 -25 6 -22 3 -25 -19 -25
-17 0 -25 6 -25 18 0 9 -15 24 -33 32 -40 19 -44 44 -18 107 12 28 21 78 23
121 4 73 4 74 -21 69 -32 -6 -55 16 -42 40 5 10 21 29 35 42 14 13 35 44 47
68 l21 43 36 -35 c20 -19 45 -35 54 -35z"/>
</g>
</svg>
