<?xml version="1.0" standalone="no"?>
<!DOCTYPE svg PUBLIC "-//W3C//DTD SVG 20010904//EN"
 "http://www.w3.org/TR/2001/REC-SVG-20010904/DTD/svg10.dtd">
<svg version="1.0" xmlns="http://www.w3.org/2000/svg"
 width="96.000000pt" height="84.000000pt" viewBox="0 0 96.000000 84.000000"
 preserveAspectRatio="xMidYMid meet">
<metadata>
Created by potrace 1.16, written by Peter Selinger 2001-2019
</metadata>
<g transform="translate(0.000000,84.000000) scale(0.100000,-0.100000)"
fill="#000000" stroke="none">
<path d="M0 420 l0 -420 480 0 480 0 0 420 0 420 -202 0 -203 0 0 -44 c0 -35
-9 -56 -39 -101 l-39 -56 -40 61 c-28 43 -40 71 -41 100 l-1 40 -197 0 -198 0
0 -420z m514 135 c3 -8 23 -19 46 -25 47 -13 70 -48 41 -64 -9 -5 -20 -15 -24
-23 -4 -7 -18 -13 -30 -13 -26 0 -62 -19 -37 -20 11 0 12 -2 3 -8 -10 -6 -10
-17 -2 -47 8 -28 13 -35 20 -24 7 11 9 11 9 -3 0 -23 -20 -34 -31 -17 -12 18
0 -73 16 -127 13 -43 3 -80 -16 -68 -7 4 -9 -5 -7 -22 3 -25 -1 -29 -24 -31
-20 -1 -28 3 -28 15 0 9 -15 24 -33 32 -39 18 -46 54 -19 99 14 23 18 44 15
74 -3 23 0 61 5 85 9 40 9 42 -9 37 -11 -4 -19 -2 -19 4 0 6 -7 11 -15 11 -29
0 -6 61 31 81 13 7 24 19 24 27 0 7 7 27 17 42 15 26 18 27 39 14 12 -9 25
-21 28 -29z"/>
</g>
</svg>
