<?xml version="1.0" standalone="no"?>
<!DOCTYPE svg PUBLIC "-//W3C//DTD SVG 20010904//EN"
 "http://www.w3.org/TR/2001/REC-SVG-20010904/DTD/svg10.dtd">
<svg version="1.0" xmlns="http://www.w3.org/2000/svg"
 width="96.000000pt" height="84.000000pt" viewBox="0 0 96.000000 84.000000"
 preserveAspectRatio="xMidYMid meet">
<metadata>
Created by potrace 1.16, written by Peter Selinger 2001-2019
</metadata>
<g transform="translate(0.000000,84.000000) scale(0.100000,-0.100000)"
fill="#000000" stroke="none">
<path d="M0 420 l0 -420 480 0 480 0 0 420 0 420 -202 0 -203 0 -2 -41 c-1
-29 -12 -57 -39 -95 l-37 -55 -38 58 c-28 41 -39 69 -39 96 l0 37 -200 0 -200
0 0 -420z m501 160 c16 -16 41 -32 56 -36 38 -9 77 -45 61 -55 -7 -5 -13 -14
-13 -20 0 -7 -8 -13 -18 -15 -10 -1 -26 -5 -35 -9 -14 -5 -14 -7 -2 -16 11 -7
9 -8 -10 -7 -21 3 -25 -1 -26 -27 -2 -45 7 -70 18 -53 7 9 8 8 5 -7 -2 -11 -8
-19 -15 -18 -12 3 -10 -21 9 -105 10 -45 5 -82 -12 -82 -5 0 -9 -11 -9 -25 0
-14 -4 -25 -10 -25 -5 0 -10 12 -10 26 0 15 -4 23 -10 19 -6 -4 -10 -16 -8
-27 2 -12 -3 -23 -11 -26 -10 -3 -12 1 -8 17 4 17 -1 24 -29 36 -45 18 -51 37
-25 79 16 26 19 40 12 58 -9 23 -1 93 12 115 12 19 -4 43 -28 43 -38 0 -38 36
0 73 18 18 41 51 51 75 10 23 21 42 23 42 2 0 17 -13 32 -30z"/>
</g>
</svg>
