<?xml version="1.0" standalone="no"?>
<!DOCTYPE svg PUBLIC "-//W3C//DTD SVG 20010904//EN"
 "http://www.w3.org/TR/2001/REC-SVG-20010904/DTD/svg10.dtd">
<svg version="1.0" xmlns="http://www.w3.org/2000/svg"
 width="96.000000pt" height="84.000000pt" viewBox="0 0 96.000000 84.000000"
 preserveAspectRatio="xMidYMid meet">
<metadata>
Created by potrace 1.16, written by Peter Selinger 2001-2019
</metadata>
<g transform="translate(0.000000,84.000000) scale(0.100000,-0.100000)"
fill="#000000" stroke="none">
<path d="M0 420 l0 -420 480 0 480 0 0 420 0 420 -204 0 -203 0 -5 -42 c-5
-38 -54 -137 -68 -138 -13 0 -71 110 -77 144 l-6 36 -198 0 -199 0 0 -420z
m534 143 c3 -7 16 -13 28 -13 58 0 92 -70 39 -78 -14 -2 -21 -9 -18 -17 3 -7
0 -12 -6 -12 -57 1 -64 -2 -59 -35 2 -18 11 -38 19 -45 17 -13 10 -48 -7 -38
-14 9 -13 -1 10 -75 22 -72 19 -95 -11 -103 -15 -4 -20 -12 -17 -31 2 -14 -1
-25 -7 -25 -5 0 -9 9 -7 19 2 13 -2 20 -13 20 -11 0 -15 -7 -13 -22 2 -12 -3
-23 -11 -26 -10 -3 -12 0 -8 12 9 24 -2 43 -29 50 -28 7 -30 25 -9 66 12 23
13 34 4 54 -9 19 -9 36 0 68 25 89 25 101 2 93 -19 -6 -51 13 -51 29 0 3 15
23 33 43 18 21 41 57 52 79 l19 41 28 -20 c15 -11 29 -26 32 -34z"/>
</g>
</svg>
