<?xml version="1.0" standalone="no"?>
<!DOCTYPE svg PUBLIC "-//W3C//DTD SVG 20010904//EN"
 "http://www.w3.org/TR/2001/REC-SVG-20010904/DTD/svg10.dtd">
<svg version="1.0" xmlns="http://www.w3.org/2000/svg"
 width="96.000000pt" height="84.000000pt" viewBox="0 0 96.000000 84.000000"
 preserveAspectRatio="xMidYMid meet">
<metadata>
Created by potrace 1.16, written by Peter Selinger 2001-2019
</metadata>
<g transform="translate(0.000000,84.000000) scale(0.100000,-0.100000)"
fill="#000000" stroke="none">
<path d="M0 420 l0 -420 480 0 480 0 0 420 0 420 -207 0 -208 0 -2 -35 c-2
-37 -52 -137 -67 -132 -16 5 -66 109 -66 138 l0 29 -205 0 -205 0 0 -420z
m505 180 c8 0 19 -8 24 -19 6 -10 25 -22 43 -25 43 -8 54 -16 62 -43 6 -17 3
-23 -9 -23 -8 0 -18 -6 -21 -14 -3 -8 -19 -18 -35 -21 -46 -10 -54 -37 -26
-93 9 -18 8 -25 -3 -32 -12 -8 -11 -17 9 -62 38 -85 38 -104 3 -122 -18 -9
-32 -25 -34 -38 -2 -13 -7 -22 -13 -20 -5 2 -9 12 -7 22 2 13 -2 20 -12 20 -9
0 -15 -7 -13 -17 1 -10 -2 -19 -8 -21 -5 -1 -11 7 -11 18 -1 12 -9 27 -19 34
-16 12 -17 19 -7 57 14 55 23 169 15 197 -5 20 -37 39 -57 34 -19 -6 7 55 34
79 17 14 30 31 30 38 0 19 34 74 38 61 2 -5 10 -10 17 -10z"/>
</g>
</svg>
