<?xml version="1.0" standalone="no"?>
<!DOCTYPE svg PUBLIC "-//W3C//DTD SVG 20010904//EN"
 "http://www.w3.org/TR/2001/REC-SVG-20010904/DTD/svg10.dtd">
<svg version="1.0" xmlns="http://www.w3.org/2000/svg"
 width="96.000000pt" height="84.000000pt" viewBox="0 0 96.000000 84.000000"
 preserveAspectRatio="xMidYMid meet">
<metadata>
Created by potrace 1.16, written by Peter Selinger 2001-2019
</metadata>
<g transform="translate(0.000000,84.000000) scale(0.100000,-0.100000)"
fill="#000000" stroke="none">
<path d="M0 420 l0 -420 480 0 480 0 0 420 0 420 -210 0 -210 0 0 -26 c0 -28
-48 -144 -59 -144 -13 0 -61 111 -61 140 l0 30 -210 0 -210 0 0 -420z m540
149 c0 -5 11 -9 24 -9 29 0 88 -49 69 -57 -7 -2 -13 -11 -13 -19 0 -8 -8 -14
-19 -14 -10 0 -31 -10 -46 -21 -23 -19 -26 -27 -20 -53 4 -17 6 -48 6 -70 0
-24 9 -57 25 -86 32 -59 29 -80 -16 -103 -20 -10 -34 -23 -32 -32 2 -8 -4 -15
-13 -15 -12 0 -15 6 -10 20 5 14 2 20 -10 20 -12 0 -15 -6 -10 -20 5 -15 2
-20 -10 -20 -11 0 -15 5 -11 16 3 8 -1 25 -9 38 -14 21 -14 30 1 92 14 63 15
106 1 159 -3 11 -6 24 -6 29 -1 4 -12 6 -25 4 -19 -4 -25 0 -29 19 -3 18 4 34
29 59 19 18 34 40 34 47 0 8 7 20 15 27 8 7 15 19 15 27 0 11 7 9 30 -7 17
-12 30 -26 30 -31z"/>
</g>
</svg>
