<?xml version="1.0" standalone="no"?>
<!DOCTYPE svg PUBLIC "-//W3C//DTD SVG 20010904//EN"
 "http://www.w3.org/TR/2001/REC-SVG-20010904/DTD/svg10.dtd">
<svg version="1.0" xmlns="http://www.w3.org/2000/svg"
 width="96.000000pt" height="84.000000pt" viewBox="0 0 96.000000 84.000000"
 preserveAspectRatio="xMidYMid meet">
<metadata>
Created by potrace 1.16, written by Peter Selinger 2001-2019
</metadata>
<g transform="translate(0.000000,84.000000) scale(0.100000,-0.100000)"
fill="#000000" stroke="none">
<path d="M0 420 l0 -420 480 0 480 0 0 420 0 420 -215 0 -215 0 0 -30 c0 -30
-40 -140 -51 -140 -12 0 -49 103 -49 136 l0 34 -215 0 -215 0 0 -420z m523
170 c18 -16 39 -30 47 -30 8 0 30 -9 49 -21 25 -15 31 -23 21 -29 -7 -4 -9
-13 -6 -19 4 -6 1 -11 -7 -11 -8 0 -26 -9 -40 -20 -14 -11 -32 -20 -41 -20
-13 0 -15 -7 -9 -37 4 -21 6 -59 5 -84 -2 -35 4 -54 23 -84 33 -48 29 -73 -15
-97 -20 -10 -34 -25 -32 -33 2 -8 -4 -15 -13 -15 -12 0 -15 6 -10 19 3 11 1
22 -5 26 -6 4 -10 -4 -10 -19 0 -14 -5 -26 -11 -26 -6 0 -9 8 -6 19 2 11 -3
25 -13 34 -16 13 -16 20 -3 88 9 47 12 97 8 137 -6 59 -8 63 -29 58 -15 -4
-25 1 -34 14 -11 18 -7 26 28 64 22 24 40 47 40 53 0 10 23 63 28 63 2 0 17
-13 35 -30z"/>
</g>
</svg>
