<?xml version="1.0" standalone="no"?>
<!DOCTYPE svg PUBLIC "-//W3C//DTD SVG 20010904//EN"
 "http://www.w3.org/TR/2001/REC-SVG-20010904/DTD/svg10.dtd">
<svg version="1.0" xmlns="http://www.w3.org/2000/svg"
 width="96.000000pt" height="84.000000pt" viewBox="0 0 96.000000 84.000000"
 preserveAspectRatio="xMidYMid meet">
<metadata>
Created by potrace 1.16, written by Peter Selinger 2001-2019
</metadata>
<g transform="translate(0.000000,84.000000) scale(0.100000,-0.100000)"
fill="#000000" stroke="none">
<path d="M0 420 l0 -420 480 0 480 0 0 420 0 420 -219 0 -218 0 -5 -47 c-3
-27 -13 -66 -23 -88 l-17 -40 -18 50 c-10 28 -19 67 -19 88 l-1 37 -220 0
-220 0 0 -420z m598 132 c23 -7 42 -17 42 -22 0 -4 3 -15 6 -23 3 -10 -2 -18
-16 -22 -12 -4 -19 -12 -17 -19 3 -8 -8 -13 -31 -14 -46 -4 -52 -8 -46 -35 2
-12 7 -36 10 -53 3 -18 1 -35 -4 -38 -12 -7 -3 -46 22 -94 25 -48 20 -70 -18
-93 -22 -13 -33 -26 -29 -35 4 -10 -2 -14 -21 -14 -21 0 -26 5 -26 25 0 15 -6
25 -15 25 -21 0 -28 40 -14 75 6 17 13 72 15 123 3 84 1 93 -14 88 -9 -3 -25
1 -35 9 -24 18 -15 46 24 79 16 14 29 29 29 35 0 6 8 25 17 44 l17 33 31 -31
c17 -17 50 -36 73 -43z"/>
</g>
</svg>
