<?xml version="1.0" standalone="no"?>
<!DOCTYPE svg PUBLIC "-//W3C//DTD SVG 20010904//EN"
 "http://www.w3.org/TR/2001/REC-SVG-20010904/DTD/svg10.dtd">
<svg version="1.0" xmlns="http://www.w3.org/2000/svg"
 width="96.000000pt" height="84.000000pt" viewBox="0 0 96.000000 84.000000"
 preserveAspectRatio="xMidYMid meet">
<metadata>
Created by potrace 1.16, written by Peter Selinger 2001-2019
</metadata>
<g transform="translate(0.000000,84.000000) scale(0.100000,-0.100000)"
fill="#000000" stroke="none">
<path d="M0 420 l0 -420 480 0 480 0 0 420 0 420 -225 0 -225 0 0 -36 c0 -43
-20 -124 -30 -124 -10 0 -30 81 -30 124 l0 36 -225 0 -225 0 0 -420z m589 135
c18 -4 39 -17 47 -30 14 -22 14 -25 -5 -44 -12 -12 -29 -21 -39 -21 -11 0 -28
-8 -40 -18 -19 -16 -20 -23 -10 -60 8 -31 7 -46 -1 -56 -9 -11 -6 -29 15 -82
l28 -67 -35 -29 c-19 -16 -33 -35 -31 -43 2 -10 -6 -15 -23 -15 -22 0 -25 3
-20 20 5 15 0 22 -19 30 -31 11 -31 10 -7 126 10 50 16 105 14 121 -5 32 -42
61 -62 49 -27 -17 -8 39 24 71 19 19 38 46 41 59 3 13 10 24 15 24 5 0 9 10 9
22 0 20 3 19 34 -14 19 -20 48 -39 65 -43z"/>
</g>
</svg>
