<?xml version="1.0" standalone="no"?>
<!DOCTYPE svg PUBLIC "-//W3C//DTD SVG 20010904//EN"
 "http://www.w3.org/TR/2001/REC-SVG-20010904/DTD/svg10.dtd">
<svg version="1.0" xmlns="http://www.w3.org/2000/svg"
 width="96.000000pt" height="84.000000pt" viewBox="0 0 96.000000 84.000000"
 preserveAspectRatio="xMidYMid meet">
<metadata>
Created by potrace 1.16, written by Peter Selinger 2001-2019
</metadata>
<g transform="translate(0.000000,84.000000) scale(0.100000,-0.100000)"
fill="#000000" stroke="none">
<path d="M0 420 l0 -420 480 0 480 0 0 420 0 420 -229 0 -228 0 -5 -70 c-5
-69 -12 -90 -24 -77 -4 3 -9 38 -12 77 l-5 70 -228 0 -229 0 0 -420z m582 140
c9 0 29 -11 45 -24 22 -19 25 -26 15 -38 -6 -8 -9 -18 -5 -21 3 -4 -3 -7 -13
-7 -11 0 -29 -7 -40 -15 -10 -8 -27 -15 -37 -15 -15 0 -17 -5 -11 -22 4 -13 8
-52 10 -88 1 -36 10 -87 20 -113 l19 -49 -32 -27 c-18 -15 -33 -33 -33 -39 0
-7 -11 -12 -25 -12 -20 0 -24 5 -22 22 1 15 -4 23 -18 26 -28 6 -35 21 -23 51
17 44 35 166 30 202 -5 38 -19 51 -43 43 -11 -3 -19 3 -23 18 -5 18 2 30 26
54 36 34 68 87 68 111 0 10 13 3 37 -21 21 -20 45 -36 55 -36z"/>
</g>
</svg>
