<?xml version="1.0" standalone="no"?>
<!DOCTYPE svg PUBLIC "-//W3C//DTD SVG 20010904//EN"
 "http://www.w3.org/TR/2001/REC-SVG-20010904/DTD/svg10.dtd">
<svg version="1.0" xmlns="http://www.w3.org/2000/svg"
 width="96.000000pt" height="84.000000pt" viewBox="0 0 96.000000 84.000000"
 preserveAspectRatio="xMidYMid meet">
<metadata>
Created by potrace 1.16, written by Peter Selinger 2001-2019
</metadata>
<g transform="translate(0.000000,84.000000) scale(0.100000,-0.100000)"
fill="#000000" stroke="none">
<path d="M0 420 l0 -420 480 0 480 0 0 420 0 420 -229 0 -229 0 -7 -75 c-9
-92 -25 -89 -25 6 l0 69 -235 0 -235 0 0 -420z m573 140 c7 0 27 -9 45 -20 26
-16 31 -24 23 -34 -6 -7 -8 -15 -5 -18 3 -3 -9 -10 -25 -16 -17 -6 -31 -16
-31 -21 0 -6 -12 -11 -26 -11 -21 0 -24 -3 -19 -21 14 -44 21 -129 12 -138 -6
-6 -2 -23 12 -46 30 -51 27 -72 -13 -96 -23 -14 -33 -25 -29 -35 4 -12 -1 -15
-23 -12 -24 2 -28 7 -26 26 3 17 -2 22 -17 22 -24 0 -27 27 -11 98 6 23 12 76
15 117 4 75 4 75 -21 75 -14 0 -31 6 -39 13 -11 12 -11 18 4 41 10 15 28 34
40 42 11 8 21 23 21 33 0 10 7 24 15 31 8 7 15 19 15 27 0 8 15 -1 35 -22 20
-19 41 -35 48 -35z"/>
<path d="M485 120 c-3 -5 -1 -10 4 -10 6 0 11 5 11 10 0 6 -2 10 -4 10 -3 0
-8 -4 -11 -10z"/>
</g>
</svg>
