<?xml version="1.0" standalone="no"?>
<!DOCTYPE svg PUBLIC "-//W3C//DTD SVG 20010904//EN"
 "http://www.w3.org/TR/2001/REC-SVG-20010904/DTD/svg10.dtd">
<svg version="1.0" xmlns="http://www.w3.org/2000/svg"
 width="96.000000pt" height="84.000000pt" viewBox="0 0 96.000000 84.000000"
 preserveAspectRatio="xMidYMid meet">
<metadata>
Created by potrace 1.16, written by Peter Selinger 2001-2019
</metadata>
<g transform="translate(0.000000,84.000000) scale(0.100000,-0.100000)"
fill="#000000" stroke="none">
<path d="M0 420 l0 -420 480 0 480 0 0 420 0 420 -235 0 -235 0 0 -67 c0 -48
-3 -64 -10 -53 -5 8 -10 39 -10 68 l0 52 -235 0 -235 0 0 -420z m505 180 c8 0
19 -8 24 -19 6 -10 25 -21 42 -25 18 -3 38 -11 46 -17 17 -15 17 -59 -1 -59
-7 0 -19 -7 -26 -15 -7 -8 -23 -15 -36 -15 -33 0 -35 -10 -14 -77 13 -43 16
-70 10 -96 -5 -26 -4 -41 6 -54 22 -29 16 -58 -16 -81 -18 -14 -27 -28 -24
-37 4 -9 0 -15 -10 -15 -9 0 -15 7 -13 18 1 9 -2 18 -8 19 -5 1 -9 -7 -7 -17
2 -11 -2 -20 -7 -20 -6 0 -11 14 -11 30 0 20 -5 30 -15 30 -25 0 -27 24 -11
122 8 51 15 108 14 126 -1 28 -4 33 -21 28 -26 -6 -50 18 -42 44 3 11 19 32
36 47 16 15 29 34 29 41 0 17 34 63 38 51 2 -5 10 -9 17 -9z"/>
</g>
</svg>
