<?xml version="1.0" standalone="no"?>
<!DOCTYPE svg PUBLIC "-//W3C//DTD SVG 20010904//EN"
 "http://www.w3.org/TR/2001/REC-SVG-20010904/DTD/svg10.dtd">
<svg version="1.0" xmlns="http://www.w3.org/2000/svg"
 width="96.000000pt" height="84.000000pt" viewBox="0 0 96.000000 84.000000"
 preserveAspectRatio="xMidYMid meet">
<metadata>
Created by potrace 1.16, written by Peter Selinger 2001-2019
</metadata>
<g transform="translate(0.000000,84.000000) scale(0.100000,-0.100000)"
fill="#000000" stroke="none">
<path d="M0 420 l0 -420 480 0 480 0 0 420 0 420 -480 0 -480 0 0 -420z m567
135 c42 -8 86 -65 50 -65 -8 0 -22 -9 -32 -20 -9 -10 -20 -19 -24 -18 -41 5
-44 -1 -36 -59 5 -32 9 -83 10 -113 0 -30 6 -64 12 -75 12 -23 8 -40 -18 -66
-10 -10 -16 -25 -13 -34 4 -10 0 -15 -11 -15 -12 0 -15 5 -10 20 5 14 2 20
-10 20 -12 0 -15 -6 -10 -20 4 -14 2 -20 -9 -20 -10 0 -15 8 -13 22 1 15 -6
26 -25 36 -35 16 -35 31 -2 138 19 65 23 88 14 104 -7 13 -7 20 0 20 5 0 10 5
10 11 0 7 -10 9 -24 5 -14 -3 -28 -1 -31 4 -4 6 -11 8 -16 5 -13 -8 -11 22 3
48 6 12 22 30 35 40 12 10 23 27 23 37 0 10 5 22 10 25 6 3 10 15 10 25 0 16
6 14 37 -15 20 -18 51 -36 70 -40z"/>
</g>
</svg>
