<?xml version="1.0" standalone="no"?>
<!DOCTYPE svg PUBLIC "-//W3C//DTD SVG 20010904//EN"
 "http://www.w3.org/TR/2001/REC-SVG-20010904/DTD/svg10.dtd">
<svg version="1.0" xmlns="http://www.w3.org/2000/svg"
 width="96.000000pt" height="84.000000pt" viewBox="0 0 96.000000 84.000000"
 preserveAspectRatio="xMidYMid meet">
<metadata>
Created by potrace 1.16, written by Peter Selinger 2001-2019
</metadata>
<g transform="translate(0.000000,84.000000) scale(0.100000,-0.100000)"
fill="#000000" stroke="none">
<path d="M0 420 l0 -420 480 0 480 0 0 420 0 420 -480 0 -480 0 0 -420z m470
190 c0 -5 7 -10 15 -10 8 0 19 -9 25 -20 6 -12 21 -20 36 -20 25 0 74 -40 74
-60 0 -6 -4 -8 -10 -5 -5 3 -15 -3 -22 -15 -7 -11 -22 -20 -33 -20 -11 0 -24
-4 -30 -8 -15 -11 -12 -211 3 -249 10 -23 11 -36 3 -51 -6 -12 -11 -30 -11
-41 0 -12 -6 -21 -14 -21 -9 0 -12 7 -9 20 4 14 0 20 -12 20 -12 0 -15 -5 -10
-20 5 -15 2 -20 -10 -20 -11 0 -15 5 -12 14 4 9 -5 19 -24 26 -56 24 -61 44
-29 113 36 78 49 187 22 185 -54 -4 -64 1 -58 30 4 15 20 39 36 53 17 14 30
32 30 40 0 20 23 69 33 69 4 0 7 -4 7 -10z"/>
</g>
</svg>
