<?xml version="1.0" standalone="no"?>
<!DOCTYPE svg PUBLIC "-//W3C//DTD SVG 20010904//EN"
 "http://www.w3.org/TR/2001/REC-SVG-20010904/DTD/svg10.dtd">
<svg version="1.0" xmlns="http://www.w3.org/2000/svg"
 width="96.000000pt" height="84.000000pt" viewBox="0 0 96.000000 84.000000"
 preserveAspectRatio="xMidYMid meet">
<metadata>
Created by potrace 1.16, written by Peter Selinger 2001-2019
</metadata>
<g transform="translate(0.000000,84.000000) scale(0.100000,-0.100000)"
fill="#000000" stroke="none">
<path d="M0 420 l0 -420 480 0 480 0 0 420 0 420 -480 0 -480 0 0 -420z m561
140 c14 0 36 -11 49 -25 20 -21 21 -25 6 -31 -9 -3 -16 -11 -16 -18 0 -7 -15
-16 -32 -22 -18 -5 -32 -15 -31 -21 2 -7 -4 -10 -11 -7 -11 4 -14 -3 -11 -36
2 -23 6 -44 9 -47 3 -4 -1 -17 -9 -29 -13 -21 -13 -31 1 -98 10 -44 13 -82 8
-93 -4 -10 -8 -26 -8 -35 -1 -24 -21 -22 -21 2 0 11 -4 20 -10 20 -5 0 -10
-10 -10 -22 0 -12 -6 -23 -13 -26 -9 -3 -13 3 -10 18 2 18 -2 24 -19 25 -29 2
-73 32 -73 50 0 8 13 35 29 59 21 34 30 63 35 117 7 79 2 89 -46 89 -25 0 -26
2 -17 33 5 17 22 43 39 57 17 14 30 30 30 36 0 6 7 25 16 42 l15 32 37 -35
c23 -21 47 -35 63 -35z"/>
</g>
</svg>
