<?xml version="1.0" standalone="no"?>
<!DOCTYPE svg PUBLIC "-//W3C//DTD SVG 20010904//EN"
 "http://www.w3.org/TR/2001/REC-SVG-20010904/DTD/svg10.dtd">
<svg version="1.0" xmlns="http://www.w3.org/2000/svg"
 width="96.000000pt" height="84.000000pt" viewBox="0 0 96.000000 84.000000"
 preserveAspectRatio="xMidYMid meet">
<metadata>
Created by potrace 1.16, written by Peter Selinger 2001-2019
</metadata>
<g transform="translate(0.000000,84.000000) scale(0.100000,-0.100000)"
fill="#000000" stroke="none">
<path d="M515 536 c-16 -8 -46 -27 -65 -44 -34 -29 -35 -32 -34 -94 3 -130 65
-205 143 -172 44 18 46 18 60 -8 11 -22 11 -22 6 5 -5 23 0 33 20 49 34 26 55
69 55 111 0 62 -87 168 -137 167 -10 -1 -31 -7 -48 -14z"/>
</g>
</svg>
