<?xml version="1.0" standalone="no"?>
<!DOCTYPE svg PUBLIC "-//W3C//DTD SVG 20010904//EN"
 "http://www.w3.org/TR/2001/REC-SVG-20010904/DTD/svg10.dtd">
<svg version="1.0" xmlns="http://www.w3.org/2000/svg"
 width="96.000000pt" height="84.000000pt" viewBox="0 0 96.000000 84.000000"
 preserveAspectRatio="xMidYMid meet">
<metadata>
Created by potrace 1.16, written by Peter Selinger 2001-2019
</metadata>
<g transform="translate(0.000000,84.000000) scale(0.100000,-0.100000)"
fill="#000000" stroke="none">
<path d="M0 420 l0 -420 227 2 c208 3 228 5 231 21 2 12 -3 17 -17 17 -22 0
-55 16 -78 37 -20 18 -16 43 21 118 30 59 36 83 39 152 3 73 1 83 -15 89 -10
3 -27 2 -38 -1 -14 -5 -20 -2 -20 9 0 9 -4 16 -10 16 -22 0 -8 26 40 72 28 26
50 55 50 63 0 8 9 24 20 35 11 11 20 30 21 43 l0 22 11 -22 c6 -13 19 -25 30
-29 11 -3 24 -17 30 -30 6 -13 18 -24 26 -24 8 0 35 -11 59 -25 38 -23 42 -29
37 -53 -9 -36 -14 -43 -24 -37 -5 3 -22 -1 -37 -9 l-28 -15 25 -10 c19 -7 13
-8 -29 -4 -49 6 -53 5 -48 -13 8 -24 8 -96 1 -154 -3 -28 1 -70 10 -107 20
-75 20 -78 0 -98 -10 -10 -14 -24 -10 -40 l6 -25 215 0 215 0 0 420 0 420
-480 0 -480 0 0 -420z"/>
<path d="M480 34 c0 -8 5 -12 10 -9 6 3 10 10 10 16 0 5 -4 9 -10 9 -5 0 -10
-7 -10 -16z"/>
</g>
</svg>
