<?xml version="1.0" standalone="no"?>
<!DOCTYPE svg PUBLIC "-//W3C//DTD SVG 20010904//EN"
 "http://www.w3.org/TR/2001/REC-SVG-20010904/DTD/svg10.dtd">
<svg version="1.0" xmlns="http://www.w3.org/2000/svg"
 width="96.000000pt" height="84.000000pt" viewBox="0 0 96.000000 84.000000"
 preserveAspectRatio="xMidYMid meet">
<metadata>
Created by potrace 1.16, written by Peter Selinger 2001-2019
</metadata>
<g transform="translate(0.000000,84.000000) scale(0.100000,-0.100000)"
fill="#000000" stroke="none">
<path d="M0 420 l0 -420 164 0 164 0 35 88 c19 48 44 120 56 161 19 63 20 76
8 82 -8 5 -13 21 -12 41 3 44 -19 69 -55 62 -15 -4 -30 -2 -33 4 -4 5 4 7 18
4 14 -2 25 0 25 5 0 16 -36 44 -51 41 -16 -3 -14 10 6 59 11 26 27 40 70 59
39 18 59 34 66 53 6 14 21 37 34 51 12 14 26 36 30 49 8 27 25 16 28 -18 1
-11 9 -23 18 -26 10 -3 25 -26 35 -50 13 -35 23 -47 51 -56 21 -7 49 -30 74
-61 44 -56 47 -68 20 -68 -10 0 -24 -7 -32 -16 -10 -13 -10 -17 1 -24 8 -5 18
-6 24 -3 5 3 6 1 2 -5 -5 -8 -13 -9 -25 -2 -14 7 -24 4 -41 -15 -17 -18 -34
-25 -61 -25 -21 0 -41 4 -44 10 -3 6 -13 10 -21 10 -10 0 -12 -4 -7 -12 9 -15
11 -27 16 -113 2 -33 7 -69 12 -79 6 -13 5 -21 -3 -24 -17 -5 -13 -69 7 -127
l18 -50 181 -3 182 -2 0 420 0 420 -480 0 -480 0 0 -420z"/>
<path d="M407 444 c-8 -8 1 -24 14 -24 5 0 9 7 9 15 0 15 -12 20 -23 9z"/>
<path d="M590 438 c-33 -9 -34 -11 -15 -24 28 -21 79 -18 100 6 14 15 15 20 4
20 -8 0 -23 2 -34 4 -11 3 -36 0 -55 -6z"/>
</g>
</svg>
