<?xml version="1.0" standalone="no"?>
<!DOCTYPE svg PUBLIC "-//W3C//DTD SVG 20010904//EN"
 "http://www.w3.org/TR/2001/REC-SVG-20010904/DTD/svg10.dtd">
<svg version="1.0" xmlns="http://www.w3.org/2000/svg"
 width="96.000000pt" height="84.000000pt" viewBox="0 0 96.000000 84.000000"
 preserveAspectRatio="xMidYMid meet">
<metadata>
Created by potrace 1.16, written by Peter Selinger 2001-2019
</metadata>
<g transform="translate(0.000000,84.000000) scale(0.100000,-0.100000)"
fill="#000000" stroke="none">
<path d="M0 420 l0 -420 184 0 184 0 21 83 c12 45 30 109 40 142 11 33 16 65
11 70 -12 17 -21 65 -13 78 17 28 11 53 -16 64 -19 7 -35 26 -52 61 -24 51
-49 75 -49 47 0 -8 7 -18 16 -23 11 -6 13 -12 6 -16 -13 -8 -22 6 -32 50 -6
27 -4 37 14 53 30 28 106 61 143 61 26 0 37 8 60 43 18 27 41 46 63 54 19 7
31 12 27 12 -5 1 -1 11 7 23 9 12 16 26 16 30 0 5 -142 8 -315 8 l-315 0 0
-420z"/>
<path d="M645 805 c3 -19 1 -35 -4 -35 -5 0 3 -12 18 -28 19 -19 30 -42 34
-76 6 -44 13 -55 61 -98 41 -36 59 -61 71 -98 16 -48 16 -52 -3 -83 -21 -35
-52 -39 -83 -11 -16 15 -22 15 -61 -1 -33 -12 -50 -14 -71 -6 -34 13 -35 3 -8
-77 15 -44 19 -78 16 -147 -2 -50 -6 -102 -10 -117 l-7 -28 181 0 181 0 0 420
0 420 -160 0 -159 0 4 -35z"/>
<path d="M370 500 c0 -14 46 -60 60 -60 7 0 9 8 5 20 -4 13 -2 20 7 20 8 1 6
6 -6 15 -23 17 -66 20 -66 5z"/>
<path d="M570 436 c0 -3 4 -16 10 -30 8 -22 16 -26 48 -26 21 0 47 6 58 14 18
14 17 15 -18 30 -34 15 -98 22 -98 12z"/>
<path d="M752 408 c-8 -8 -9 -15 -1 -25 21 -25 69 -9 69 24 0 16 -52 17 -68 1z"/>
</g>
</svg>
