<?xml version="1.0" standalone="no"?>
<!DOCTYPE svg PUBLIC "-//W3C//DTD SVG 20010904//EN"
 "http://www.w3.org/TR/2001/REC-SVG-20010904/DTD/svg10.dtd">
<svg version="1.0" xmlns="http://www.w3.org/2000/svg"
 width="96.000000pt" height="84.000000pt" viewBox="0 0 96.000000 84.000000"
 preserveAspectRatio="xMidYMid meet">
<metadata>
Created by potrace 1.16, written by Peter Selinger 2001-2019
</metadata>
<g transform="translate(0.000000,84.000000) scale(0.100000,-0.100000)"
fill="#000000" stroke="none">
<path d="M0 420 l0 -420 204 0 203 0 17 86 c13 64 14 89 6 99 -13 16 5 60 21
50 13 -9 11 12 -3 38 -14 26 -20 227 -6 227 5 0 7 4 3 10 -4 6 -15 6 -32 -1
-37 -14 -59 -3 -78 37 -37 79 5 129 110 129 62 0 66 1 107 43 28 27 53 42 69
42 18 0 31 10 47 38 l23 37 -3 -47 c-1 -34 3 -53 17 -68 13 -14 20 -40 23 -83
4 -57 8 -66 47 -107 53 -55 75 -99 74 -142 0 -18 -3 -27 -6 -20 -6 16 -23 6
-23 -14 0 -8 5 -12 10 -9 6 3 10 -2 10 -12 -1 -16 -3 -15 -19 5 -19 22 -20 22
-50 5 -28 -16 -33 -17 -58 -3 -16 9 -37 30 -48 47 -21 33 -39 40 -65 23 -13
-8 -12 -21 3 -112 9 -57 17 -147 17 -200 l0 -98 170 0 170 0 0 420 0 420 -480
0 -480 0 0 -420z"/>
<path d="M330 583 c0 -5 9 -23 20 -41 17 -27 25 -32 43 -26 29 9 29 8 21 27
-3 8 -21 23 -39 31 -37 18 -45 19 -45 9z"/>
<path d="M450 448 c0 -20 5 -40 10 -43 13 -8 13 45 0 65 -7 11 -10 6 -10 -22z"/>
<path d="M590 440 c0 -5 7 -10 16 -10 8 0 12 5 9 10 -3 6 -10 10 -16 10 -5 0
-9 -4 -9 -10z"/>
<path d="M670 400 c0 -16 47 -60 63 -60 8 0 25 8 38 19 l23 18 -32 17 c-35 18
-92 22 -92 6z"/>
</g>
</svg>
