<?xml version="1.0" standalone="no"?>
<!DOCTYPE svg PUBLIC "-//W3C//DTD SVG 20010904//EN"
 "http://www.w3.org/TR/2001/REC-SVG-20010904/DTD/svg10.dtd">
<svg version="1.0" xmlns="http://www.w3.org/2000/svg"
 width="96.000000pt" height="84.000000pt" viewBox="0 0 96.000000 84.000000"
 preserveAspectRatio="xMidYMid meet">
<metadata>
Created by potrace 1.16, written by Peter Selinger 2001-2019
</metadata>
<g transform="translate(0.000000,84.000000) scale(0.100000,-0.100000)"
fill="#000000" stroke="none">
<path d="M0 420 l0 -420 218 0 219 0 9 75 c9 69 8 75 -8 75 -18 0 -24 24 -12
54 9 23 27 20 21 -4 -3 -11 -1 -18 4 -14 16 10 9 45 -19 95 -26 48 -27 50 -10
77 34 53 60 114 54 128 -3 8 -17 14 -31 14 -31 0 -72 38 -81 74 -5 20 -11 25
-25 21 -16 -5 -19 -1 -19 28 0 59 26 72 141 72 l98 0 40 39 c35 34 44 38 76
33 21 -3 33 -2 30 3 -3 6 5 22 19 37 l26 27 -2 -37 c-1 -21 -5 -40 -10 -43 -5
-3 1 -17 12 -31 16 -20 20 -41 20 -95 0 -67 2 -71 41 -118 25 -30 48 -72 60
-110 20 -63 17 -115 -6 -106 -7 2 -17 0 -23 -6 -15 -15 -58 14 -80 52 -15 26
-22 29 -82 32 -36 2 -66 3 -68 2 -1 0 5 -52 14 -115 9 -63 14 -147 12 -186
l-3 -73 162 0 163 0 0 420 0 420 -480 0 -480 0 0 -420z"/>
<path d="M335 629 c-4 -11 -4 -23 -1 -26 3 -4 6 1 6 11 0 9 5 14 10 11 6 -3
10 1 10 9 0 23 -18 20 -25 -5z"/>
<path d="M375 578 c4 -13 18 -34 33 -47 24 -22 26 -22 33 -5 12 35 -16 74 -54
74 -14 0 -17 -5 -12 -22z"/>
<path d="M610 430 c0 -36 35 -55 84 -44 l31 7 -39 33 c-50 44 -76 45 -76 4z"/>
<path d="M467 394 c-15 -51 -15 -60 1 -50 12 7 27 85 19 93 -3 3 -12 -17 -20
-43z"/>
<path d="M770 357 c0 -18 37 -57 54 -57 18 0 39 27 31 40 -3 5 -17 7 -30 4
-13 -3 -26 0 -30 6 -5 9 -1 10 15 5 15 -5 20 -4 16 4 -10 15 -56 14 -56 -2z"/>
</g>
</svg>
