<?xml version="1.0" standalone="no"?>
<!DOCTYPE svg PUBLIC "-//W3C//DTD SVG 20010904//EN"
 "http://www.w3.org/TR/2001/REC-SVG-20010904/DTD/svg10.dtd">
<svg version="1.0" xmlns="http://www.w3.org/2000/svg"
 width="96.000000pt" height="84.000000pt" viewBox="0 0 96.000000 84.000000"
 preserveAspectRatio="xMidYMid meet">
<metadata>
Created by potrace 1.16, written by Peter Selinger 2001-2019
</metadata>
<g transform="translate(0.000000,84.000000) scale(0.100000,-0.100000)"
fill="#000000" stroke="none">
<path d="M0 420 l0 -420 220 0 c168 0 222 3 224 13 3 6 7 39 10 71 6 58 6 59
-12 43 -38 -34 -54 -14 -30 38 7 15 17 24 25 21 23 -9 14 19 -16 48 -40 38
-46 74 -16 106 12 14 28 49 35 78 6 28 16 52 22 52 5 0 6 -10 3 -22 -4 -13 -9
-31 -12 -41 -8 -29 -12 -127 -5 -127 15 0 44 67 49 111 7 57 -11 115 -42 135
-24 16 -55 80 -55 115 0 16 -3 18 -19 9 -11 -5 -29 -10 -40 -10 -17 0 -21 6
-21 34 0 79 73 104 206 70 l74 -18 27 26 c49 45 80 60 111 54 21 -5 33 -2 47
14 l18 20 -401 0 -402 0 0 -420z"/>
<path d="M829 823 c-1 -10 -1 -23 0 -30 1 -6 -3 -14 -9 -18 -6 -4 -2 -17 12
-35 19 -26 20 -37 14 -104 -7 -81 -3 -97 42 -151 14 -16 36 -52 48 -80 l24
-50 0 243 0 242 -65 0 c-55 0 -65 -3 -66 -17z"/>
<path d="M336 694 c-3 -9 -6 -23 -5 -32 1 -10 4 -7 9 8 5 17 8 19 9 8 1 -10 5
-18 10 -18 12 0 23 29 15 41 -9 14 -31 10 -38 -7z"/>
<path d="M422 620 c-1 -30 22 -59 32 -42 3 6 -1 12 -9 16 -8 3 -15 10 -15 16
0 6 7 6 20 -2 13 -9 23 -9 30 -2 7 7 0 15 -23 26 l-34 16 -1 -28z"/>
<path d="M665 447 c5 -39 77 -109 109 -105 12 1 26 -1 31 -4 6 -4 16 -3 23 1
19 12 -52 71 -85 71 -16 1 -39 8 -53 16 -16 10 -18 13 -5 8 11 -4 34 -9 50
-11 35 -5 25 5 -37 37 l-37 20 4 -33z"/>
<path d="M660 349 c0 -30 12 -103 25 -164 17 -71 23 -123 19 -147 l-6 -38 131
0 131 0 0 127 c0 112 -2 125 -14 108 -14 -19 -14 -19 -36 0 -12 11 -28 32 -36
46 -10 21 -25 29 -74 38 -46 9 -71 21 -101 48 l-39 35 0 -53z"/>
<path d="M880 308 c0 -7 5 -20 10 -28 8 -12 10 -9 10 13 0 15 -4 27 -10 27 -5
0 -10 -6 -10 -12z"/>
<path d="M910 280 c0 -16 4 -30 9 -30 13 0 21 27 15 45 -10 25 -24 17 -24 -15z"/>
</g>
</svg>
