<?xml version="1.0" standalone="no"?>
<!DOCTYPE svg PUBLIC "-//W3C//DTD SVG 20010904//EN"
 "http://www.w3.org/TR/2001/REC-SVG-20010904/DTD/svg10.dtd">
<svg version="1.0" xmlns="http://www.w3.org/2000/svg"
 width="96.000000pt" height="84.000000pt" viewBox="0 0 96.000000 84.000000"
 preserveAspectRatio="xMidYMid meet">
<metadata>
Created by potrace 1.16, written by Peter Selinger 2001-2019
</metadata>
<g transform="translate(0.000000,84.000000) scale(0.100000,-0.100000)"
fill="#000000" stroke="none">
<path d="M0 420 l0 -420 215 0 c215 0 215 0 219 23 12 56 16 97 11 97 -3 0
-19 -15 -35 -32 -24 -27 -31 -30 -39 -19 -6 10 -5 24 4 42 13 23 12 31 -5 65
-23 45 -25 72 -6 97 12 16 11 29 -14 102 -32 94 -29 102 32 111 40 6 82 -14
86 -42 2 -11 -8 -44 -21 -74 -18 -42 -24 -69 -21 -113 1 -31 6 -56 11 -55 4 2
7 17 5 34 -2 21 5 44 22 69 21 31 26 50 26 101 0 75 -8 99 -49 143 -36 39 -36
39 -15 62 15 17 15 21 -12 53 -20 24 -35 34 -48 31 -33 -7 -46 14 -46 72 0 46
3 55 23 63 14 6 -41 9 -160 9 l-183 1 0 -420z"/>
<path d="M550 819 c86 -32 87 -32 125 -9 19 12 35 24 35 26 0 2 -48 4 -107 4
l-108 -1 55 -20z"/>
<path d="M904 825 c-3 -8 2 -35 12 -61 15 -41 16 -55 6 -115 -15 -88 -16 -79
13 -119 l25 -34 0 172 0 172 -25 0 c-14 0 -28 -7 -31 -15z"/>
<path d="M330 773 c0 -10 4 -24 9 -31 11 -18 36 12 27 33 -8 21 -36 19 -36 -2z"/>
<path d="M390 711 c0 -6 11 -23 25 -38 25 -29 31 -21 19 25 -6 21 -44 33 -44
13z"/>
<path d="M450 680 c0 -25 16 -44 25 -30 4 7 0 19 -9 28 -13 14 -16 14 -16 2z"/>
<path d="M684 467 c3 -33 14 -47 37 -47 24 0 24 11 -2 44 -25 32 -38 33 -35 3z"/>
<path d="M510 414 c0 -8 5 -12 10 -9 6 4 8 11 5 16 -9 14 -15 11 -15 -7z"/>
<path d="M695 311 c4 -67 14 -126 27 -161 11 -30 28 -76 37 -102 l16 -48 93 0
93 0 -4 102 c-7 157 -10 165 -65 173 -48 7 -92 42 -128 104 -11 19 -28 31 -47
34 l-30 4 8 -106z"/>
<path d="M777 394 c3 -8 9 -14 14 -14 5 0 9 -7 9 -14 0 -18 61 -66 83 -66 46
0 16 38 -65 82 -30 17 -45 21 -41 12z"/>
<path d="M952 250 c0 -14 2 -19 5 -12 2 6 2 18 0 25 -3 6 -5 1 -5 -13z"/>
</g>
</svg>
