<?xml version="1.0" standalone="no"?>
<!DOCTYPE svg PUBLIC "-//W3C//DTD SVG 20010904//EN"
 "http://www.w3.org/TR/2001/REC-SVG-20010904/DTD/svg10.dtd">
<svg version="1.0" xmlns="http://www.w3.org/2000/svg"
 width="96.000000pt" height="84.000000pt" viewBox="0 0 96.000000 84.000000"
 preserveAspectRatio="xMidYMid meet">
<metadata>
Created by potrace 1.16, written by Peter Selinger 2001-2019
</metadata>
<g transform="translate(0.000000,84.000000) scale(0.100000,-0.100000)"
fill="#000000" stroke="none">
<path d="M0 420 l0 -420 210 0 c121 0 210 4 210 9 0 5 3 16 6 24 6 17 -30 29
-44 15 -19 -19 -43 -1 -36 27 3 14 1 39 -6 56 -10 22 -10 36 -2 54 10 22 5 35
-43 112 -31 48 -54 92 -52 98 2 5 19 14 38 19 42 10 103 -5 152 -38 19 -13 38
-22 41 -18 3 3 6 36 6 74 0 65 -2 72 -37 116 -21 26 -41 49 -45 52 -11 8 24
48 52 59 l25 10 -30 0 c-38 1 -122 90 -131 139 l-6 32 -154 0 -154 0 0 -420z"/>
<path d="M325 825 c16 -51 17 -51 26 -27 10 27 4 42 -16 42 -8 0 -12 -7 -10
-15z"/>
<path d="M648 833 c6 -2 18 -2 25 0 6 3 1 5 -13 5 -14 0 -19 -2 -12 -5z"/>
<path d="M941 823 c7 -10 15 -20 16 -22 2 -2 3 5 3 17 0 14 -6 22 -16 22 -14
0 -15 -3 -3 -17z"/>
<path d="M354 768 c-4 -7 -3 -8 4 -4 7 4 12 2 12 -3 0 -6 5 -11 10 -11 6 0 10
7 10 15 0 18 -26 20 -36 3z"/>
<path d="M391 736 c-10 -12 -8 -19 8 -35 23 -23 61 -28 61 -8 0 19 -29 57 -44
57 -8 0 -19 -6 -25 -14z"/>
<path d="M430 640 c-11 -7 -11 -10 -2 -10 7 0 10 -4 7 -10 -8 -13 1 -13 26 1
11 5 17 14 14 20 -8 12 -26 11 -45 -1z"/>
<path d="M948 616 c-3 -14 -1 -31 3 -38 6 -8 9 1 9 25 0 42 -6 48 -12 13z"/>
<path d="M692 458 c3 -29 7 -33 36 -36 39 -4 40 6 4 41 -37 35 -44 34 -40 -5z"/>
<path d="M502 420 c0 -14 2 -19 5 -12 2 6 2 18 0 25 -3 6 -5 1 -5 -13z"/>
<path d="M701 283 c5 -94 13 -148 31 -203 l24 -75 102 -3 103 -3 -3 127 -3
127 -50 12 c-55 15 -105 61 -105 98 0 33 -19 47 -64 47 l-41 0 6 -127z"/>
<path d="M830 361 c0 -5 15 -26 34 -45 24 -26 39 -34 51 -29 15 5 12 12 -23
45 -40 37 -62 47 -62 29z"/>
<path d="M810 353 c0 -6 9 -21 21 -34 l20 -24 -17 30 c-24 39 -24 40 -24 28z"/>
</g>
</svg>
