<?xml version="1.0" standalone="no"?>
<!DOCTYPE svg PUBLIC "-//W3C//DTD SVG 20010904//EN"
 "http://www.w3.org/TR/2001/REC-SVG-20010904/DTD/svg10.dtd">
<svg version="1.0" xmlns="http://www.w3.org/2000/svg"
 width="96.000000pt" height="84.000000pt" viewBox="0 0 96.000000 84.000000"
 preserveAspectRatio="xMidYMid meet">
<metadata>
Created by potrace 1.16, written by Peter Selinger 2001-2019
</metadata>
<g transform="translate(0.000000,84.000000) scale(0.100000,-0.100000)"
fill="#000000" stroke="none">
<path d="M0 420 l0 -420 210 0 c175 0 210 2 210 14 0 8 3 21 6 30 9 24 -23 31
-47 10 -26 -24 -46 -6 -29 26 10 18 10 31 0 60 -9 28 -9 42 -1 58 10 18 3 33
-45 107 -30 48 -53 93 -50 100 12 31 138 30 199 -2 l30 -15 -5 55 c-4 47 -10
61 -36 85 -18 17 -32 40 -32 52 0 13 -4 19 -11 14 -8 -4 -8 -1 -1 13 15 28 39
46 54 40 7 -3 4 -6 -7 -6 -17 -1 -18 -3 -5 -12 13 -9 12 -10 -2 -5 -12 3 -15
1 -11 -9 9 -26 36 1 40 39 l3 37 -35 -7 c-32 -6 -36 -3 -52 26 -10 18 -28 45
-40 60 -13 15 -23 37 -23 49 0 20 -4 21 -160 21 l-160 0 0 -420z"/>
<path d="M336 825 c4 -8 10 -12 15 -9 14 8 10 24 -6 24 -9 0 -12 -6 -9 -15z"/>
<path d="M946 825 c4 -8 8 -15 10 -15 2 0 4 7 4 15 0 8 -4 15 -10 15 -5 0 -7
-7 -4 -15z"/>
<path d="M370 775 c7 -8 20 -15 28 -15 13 0 12 3 -4 15 -25 19 -40 19 -24 0z"/>
<path d="M383 727 c21 -33 44 -44 59 -29 19 19 -3 46 -41 48 -30 2 -31 1 -18
-19z"/>
<path d="M948 630 c-3 -16 -1 -35 4 -42 4 -8 8 4 8 30 0 49 -6 55 -12 12z"/>
<path d="M688 465 c4 -33 7 -35 40 -35 l36 0 -34 35 c-19 19 -37 35 -40 35 -3
0 -4 -16 -2 -35z"/>
<path d="M502 420 c0 -14 2 -19 5 -12 2 6 2 18 0 25 -3 6 -5 1 -5 -13z"/>
<path d="M694 288 c3 -73 14 -168 23 -210 l18 -78 112 0 113 0 0 123 c0 67 -4
127 -8 134 -4 6 -24 14 -45 18 -51 10 -92 46 -113 100 -16 44 -18 45 -62 45
l-45 0 7 -132z"/>
<path d="M800 386 c0 -11 30 -66 36 -66 2 0 -3 15 -12 33 -19 36 -24 44 -24
33z"/>
<path d="M830 373 c0 -16 55 -71 78 -78 44 -13 14 29 -50 70 -16 9 -28 13 -28
8z"/>
</g>
</svg>
