<?xml version="1.0" standalone="no"?>
<!DOCTYPE svg PUBLIC "-//W3C//DTD SVG 20010904//EN"
 "http://www.w3.org/TR/2001/REC-SVG-20010904/DTD/svg10.dtd">
<svg version="1.0" xmlns="http://www.w3.org/2000/svg"
 width="96.000000pt" height="84.000000pt" viewBox="0 0 96.000000 84.000000"
 preserveAspectRatio="xMidYMid meet">
<metadata>
Created by potrace 1.16, written by Peter Selinger 2001-2019
</metadata>
<g transform="translate(0.000000,84.000000) scale(0.100000,-0.100000)"
fill="#000000" stroke="none">
<path d="M0 420 l0 -420 209 0 c208 0 209 0 215 23 9 35 7 77 -4 77 -6 0 -22
-12 -35 -27 -22 -26 -24 -27 -31 -9 -4 11 -2 28 6 40 7 11 14 48 15 81 3 59 2
61 -58 139 -57 75 -59 79 -42 93 30 21 94 35 147 31 44 -3 48 -1 48 19 0 16
-8 25 -24 29 -24 6 -52 57 -41 74 3 5 -1 10 -7 13 -19 7 2 39 35 55 18 8 27
21 27 36 0 31 -9 37 -32 23 -16 -10 -22 -8 -41 15 -34 41 -67 98 -67 114 0 12
-28 14 -160 14 l-160 0 0 -420z"/>
<path d="M951 824 c0 -11 3 -14 6 -6 3 7 2 16 -1 19 -3 4 -6 -2 -5 -13z"/>
<path d="M360 801 c0 -12 39 -35 46 -28 3 2 -7 12 -21 21 -14 9 -25 12 -25 7z"/>
<path d="M375 741 c17 -34 33 -42 57 -29 14 7 16 12 6 27 -6 10 -19 16 -28 14
-10 -3 -21 0 -24 6 -16 25 -25 9 -11 -18z"/>
<path d="M947 658 c-3 -18 -1 -37 4 -42 5 -6 9 7 9 32 0 50 -6 54 -13 10z"/>
<path d="M409 613 c-13 -15 -12 -15 11 -3 34 17 36 20 18 20 -9 0 -22 -7 -29
-17z"/>
<path d="M425 600 c-3 -5 -2 -10 4 -10 5 0 13 5 16 10 3 6 2 10 -4 10 -5 0
-13 -4 -16 -10z"/>
<path d="M676 489 c8 -44 14 -50 42 -42 29 7 25 20 -16 51 l-32 25 6 -34z"/>
<path d="M703 433 c-7 -2 -13 -21 -13 -41 0 -54 26 -236 46 -320 l16 -72 104
0 104 0 0 112 c0 158 -14 187 -88 188 -32 0 -92 61 -92 92 0 40 -35 59 -77 41z"/>
<path d="M790 388 c0 -23 52 -78 74 -78 21 0 20 4 -8 49 -28 44 -66 61 -66 29z"/>
<path d="M880 346 c0 -2 8 -10 18 -17 15 -13 16 -12 3 4 -13 16 -21 21 -21 13z"/>
</g>
</svg>
