<?xml version="1.0" standalone="no"?>
<!DOCTYPE svg PUBLIC "-//W3C//DTD SVG 20010904//EN"
 "http://www.w3.org/TR/2001/REC-SVG-20010904/DTD/svg10.dtd">
<svg version="1.0" xmlns="http://www.w3.org/2000/svg"
 width="96.000000pt" height="84.000000pt" viewBox="0 0 96.000000 84.000000"
 preserveAspectRatio="xMidYMid meet">
<metadata>
Created by potrace 1.16, written by Peter Selinger 2001-2019
</metadata>
<g transform="translate(0.000000,84.000000) scale(0.100000,-0.100000)"
fill="#000000" stroke="none">
<path d="M0 420 l0 -420 209 0 c234 0 213 -7 226 76 8 55 -8 63 -35 19 -12
-19 -26 -35 -31 -35 -22 0 -19 33 6 66 19 25 24 39 17 46 -6 6 -8 25 -5 42 4
28 -3 40 -62 104 -38 41 -63 76 -60 83 15 23 110 59 160 59 43 1 47 3 31 13
-43 27 -56 47 -50 74 6 22 4 25 -10 20 -11 -4 -16 -1 -16 11 0 25 11 37 48 56
17 9 32 23 32 31 0 8 5 15 12 15 6 0 3 6 -7 14 -10 7 -26 11 -36 9 -26 -7 -55
13 -69 47 -7 16 -16 30 -20 30 -5 0 -13 14 -19 30 l-10 30 -155 0 -156 0 0
-420z"/>
<path d="M350 812 c0 -13 23 -32 38 -32 7 0 10 4 7 10 -9 14 -45 32 -45 22z"/>
<path d="M373 747 c21 -31 44 -44 58 -30 18 18 -4 45 -40 48 -30 3 -31 2 -18
-18z"/>
<path d="M947 673 c-4 -21 -2 -42 3 -47 7 -7 10 7 10 37 0 57 -5 60 -13 10z"/>
<path d="M421 617 c-14 -6 -27 -19 -29 -27 -4 -12 -3 -13 10 -2 9 7 22 11 29
9 8 -2 10 -2 6 1 -4 2 -3 10 4 18 14 17 11 17 -20 1z"/>
<path d="M674 489 c8 -41 8 -41 40 -33 26 6 26 7 9 26 -10 11 -26 24 -37 30
-17 9 -18 7 -12 -23z"/>
<path d="M697 443 c-11 -3 -16 -11 -12 -26 2 -12 9 -56 15 -97 13 -87 22 -124
56 -237 l25 -83 90 0 89 0 0 115 c0 63 -4 123 -10 133 -5 9 -14 30 -20 45 -9
27 -12 28 -53 22 -38 -6 -46 -3 -70 21 -15 14 -27 30 -27 35 0 4 13 -6 29 -22
30 -29 55 -36 79 -21 19 12 -28 59 -83 83 -24 11 -47 24 -50 29 -6 10 -26 11
-58 3z"/>
<path d="M946 275 c4 -8 8 -15 10 -15 2 0 4 7 4 15 0 8 -4 15 -10 15 -5 0 -7
-7 -4 -15z"/>
<path d="M741 14 c0 -11 3 -14 6 -6 3 7 2 16 -1 19 -3 4 -6 -2 -5 -13z"/>
</g>
</svg>
