<?xml version="1.0" standalone="no"?>
<!DOCTYPE svg PUBLIC "-//W3C//DTD SVG 20010904//EN"
 "http://www.w3.org/TR/2001/REC-SVG-20010904/DTD/svg10.dtd">
<svg version="1.0" xmlns="http://www.w3.org/2000/svg"
 width="96.000000pt" height="84.000000pt" viewBox="0 0 96.000000 84.000000"
 preserveAspectRatio="xMidYMid meet">
<metadata>
Created by potrace 1.16, written by Peter Selinger 2001-2019
</metadata>
<g transform="translate(0.000000,84.000000) scale(0.100000,-0.100000)"
fill="#000000" stroke="none">
<path d="M0 420 l0 -420 209 0 c166 0 210 3 214 13 11 28 19 127 11 127 -5 0
-19 -16 -32 -35 -22 -35 -52 -47 -52 -22 0 8 13 32 29 54 l28 39 -33 37 c-28
30 -33 42 -28 67 6 27 1 36 -57 89 -55 51 -62 62 -53 78 15 24 80 61 124 69
36 7 50 19 50 43 0 8 -6 11 -15 7 -22 -8 -18 7 5 22 12 7 26 10 33 6 7 -4 9
-4 5 1 -4 4 -3 14 4 22 9 11 7 12 -8 7 -10 -4 -27 -14 -37 -22 -16 -14 -17
-14 -12 0 4 9 20 22 36 28 17 7 37 26 45 41 l15 29 -34 0 c-37 0 -54 15 -81
68 -9 18 -21 30 -26 27 -6 -4 -10 5 -10 19 l0 26 -165 0 -165 0 0 -420z"/>
<path d="M370 810 c0 -12 28 -25 36 -17 3 3 -4 10 -15 17 -15 7 -21 7 -21 0z"/>
<path d="M398 773 c-22 -6 -22 -12 -2 -41 13 -19 64 -32 64 -17 0 13 -31 65
-38 64 -4 -1 -15 -3 -24 -6z"/>
<path d="M670 498 c0 -33 11 -45 48 -53 41 -8 41 3 -1 43 -39 38 -47 40 -47
10z"/>
<path d="M680 429 c1 -48 53 -277 78 -344 l30 -80 86 -3 86 -3 0 108 c0 66 -6
124 -14 148 -14 39 -16 40 -66 45 -41 5 -58 12 -76 33 -13 16 -24 33 -24 40 1
7 7 1 14 -12 16 -30 52 -50 89 -51 37 0 34 11 -12 53 -46 42 -80 55 -92 36 -6
-10 -9 -8 -9 9 0 16 -6 22 -22 22 -13 0 -33 3 -45 6 -16 4 -23 2 -23 -7z"/>
<path d="M447 312 c-10 -11 -14 -23 -9 -26 12 -7 35 19 30 34 -2 7 -11 3 -21
-8z"/>
<path d="M952 270 c0 -14 2 -19 5 -12 2 6 2 18 0 25 -3 6 -5 1 -5 -13z"/>
</g>
</svg>
