<?xml version="1.0" standalone="no"?>
<!DOCTYPE svg PUBLIC "-//W3C//DTD SVG 20010904//EN"
 "http://www.w3.org/TR/2001/REC-SVG-20010904/DTD/svg10.dtd">
<svg version="1.0" xmlns="http://www.w3.org/2000/svg"
 width="96.000000pt" height="84.000000pt" viewBox="0 0 96.000000 84.000000"
 preserveAspectRatio="xMidYMid meet">
<metadata>
Created by potrace 1.16, written by Peter Selinger 2001-2019
</metadata>
<g transform="translate(0.000000,84.000000) scale(0.100000,-0.100000)"
fill="#000000" stroke="none">
<path d="M0 420 l0 -420 209 0 c234 0 213 -7 226 77 8 52 -5 56 -47 16 -24
-23 -28 -24 -34 -10 -3 10 1 28 9 41 14 21 14 30 -8 101 -13 43 -32 86 -41 96
-10 11 -15 28 -11 44 4 22 -3 32 -49 67 -30 22 -54 47 -54 54 0 8 24 39 52 68
41 42 62 56 93 61 75 12 86 16 103 36 9 12 23 27 30 35 11 12 8 14 -21 14 -37
0 -69 27 -86 73 -6 16 -15 25 -21 22 -6 -4 -10 5 -10 19 l0 26 -170 0 -170 0
0 -420z"/>
<path d="M370 815 c0 -8 2 -15 4 -15 2 0 11 -3 20 -6 23 -9 20 9 -4 24 -17 10
-20 10 -20 -3z"/>
<path d="M397 748 c11 -18 29 -34 41 -36 25 -4 27 6 10 43 -8 18 -19 25 -41
25 l-29 0 19 -32z"/>
<path d="M425 620 c-3 -5 -2 -10 4 -10 5 0 13 5 16 10 3 6 2 10 -4 10 -5 0
-13 -4 -16 -10z"/>
<path d="M672 488 c3 -31 6 -33 43 -36 l40 -3 -34 35 c-43 44 -53 45 -49 4z"/>
<path d="M390 458 c-16 -25 -19 -45 -16 -83 8 -81 56 -170 56 -103 0 10 7 18
15 18 21 0 28 41 22 117 -7 89 -40 111 -77 51z"/>
<path d="M680 422 c0 -43 44 -252 70 -331 l28 -86 91 -3 92 -3 -4 118 c-3 65
-8 133 -12 151 -7 31 -9 32 -57 32 -43 0 -54 4 -79 31 -16 17 -29 39 -28 48 0
12 3 10 9 -5 13 -32 59 -64 91 -64 37 0 36 9 -3 47 -69 65 -198 107 -198 65z"/>
<path d="M952 270 c0 -14 2 -19 5 -12 2 6 2 18 0 25 -3 6 -5 1 -5 -13z"/>
</g>
</svg>
