<?xml version="1.0" standalone="no"?>
<!DOCTYPE svg PUBLIC "-//W3C//DTD SVG 20010904//EN"
 "http://www.w3.org/TR/2001/REC-SVG-20010904/DTD/svg10.dtd">
<svg version="1.0" xmlns="http://www.w3.org/2000/svg"
 width="96.000000pt" height="84.000000pt" viewBox="0 0 96.000000 84.000000"
 preserveAspectRatio="xMidYMid meet">
<metadata>
Created by potrace 1.16, written by Peter Selinger 2001-2019
</metadata>
<g transform="translate(0.000000,84.000000) scale(0.100000,-0.100000)"
fill="#000000" stroke="none">
<path d="M0 420 l0 -420 209 0 c236 0 216 -8 227 89 5 43 3 61 -5 61 -6 0 -11
-4 -11 -8 0 -4 -13 -23 -28 -42 -38 -45 -59 -33 -32 20 16 31 17 39 6 43 -8 3
-26 45 -41 94 -15 48 -31 93 -37 100 -5 7 -7 25 -4 40 6 25 2 31 -35 51 -37
22 -41 27 -35 54 19 95 143 189 189 144 19 -20 22 -20 40 -2 22 23 10 66 -18
66 -25 0 -59 35 -90 93 l-20 37 -157 0 -158 0 0 -420z"/>
<path d="M947 738 c-4 -62 -3 -106 3 -112 7 -7 10 29 10 102 0 62 -2 112 -3
112 -2 0 -7 -46 -10 -102z"/>
<path d="M360 805 c7 -8 17 -15 22 -15 6 0 5 7 -2 15 -7 8 -17 15 -22 15 -6 0
-5 -7 2 -15z"/>
<path d="M370 761 c16 -30 70 -55 70 -33 0 17 -26 40 -53 46 -26 6 -27 5 -17
-13z"/>
<path d="M460 690 c0 -5 5 -10 11 -10 5 0 7 5 4 10 -3 6 -8 10 -11 10 -2 0 -4
-4 -4 -10z"/>
<path d="M416 619 c-15 -9 -16 -13 -5 -20 22 -13 28 -11 26 11 -1 11 -1 20 -2
20 0 0 -8 -5 -19 -11z"/>
<path d="M371 535 c-23 -49 -25 -64 -21 -135 2 -40 39 -150 50 -150 4 0 13 7
21 16 10 12 10 17 0 23 -9 6 -9 15 -2 34 12 32 19 33 38 10 12 -16 13 -8 8 57
-6 71 -16 92 -48 103 -6 2 -13 23 -17 48 l-7 44 -22 -50z"/>
<path d="M664 498 c8 -40 10 -42 42 -34 l27 7 -29 30 c-36 38 -48 37 -40 -3z"/>
<path d="M693 453 c-19 -4 -21 -9 -16 -41 16 -119 46 -267 67 -332 l24 -75 96
-3 96 -3 0 123 c-1 92 -4 128 -15 142 -8 11 -15 27 -15 37 0 21 -18 28 -54 22
-35 -7 -74 14 -92 49 -21 40 -17 48 6 11 24 -40 54 -57 87 -48 l26 6 -27 28
c-15 16 -46 37 -69 47 -23 10 -46 24 -50 31 -8 13 -22 14 -64 6z"/>
<path d="M940 303 c0 -5 5 -15 10 -23 8 -12 10 -11 10 8 0 12 -4 22 -10 22 -5
0 -10 -3 -10 -7z"/>
</g>
</svg>
