<?xml version="1.0" standalone="no"?>
<!DOCTYPE svg PUBLIC "-//W3C//DTD SVG 20010904//EN"
 "http://www.w3.org/TR/2001/REC-SVG-20010904/DTD/svg10.dtd">
<svg version="1.0" xmlns="http://www.w3.org/2000/svg"
 width="96.000000pt" height="84.000000pt" viewBox="0 0 96.000000 84.000000"
 preserveAspectRatio="xMidYMid meet">
<metadata>
Created by potrace 1.16, written by Peter Selinger 2001-2019
</metadata>
<g transform="translate(0.000000,84.000000) scale(0.100000,-0.100000)"
fill="#000000" stroke="none">
<path d="M0 420 l0 -420 214 0 213 0 9 63 c10 82 10 80 -1 84 -6 2 -19 -13
-29 -32 -25 -46 -44 -61 -57 -48 -11 11 24 93 39 93 8 0 32 58 32 79 0 9 -5 9
-20 1 -34 -18 -70 8 -118 89 -41 66 -44 76 -32 95 8 11 22 37 32 57 25 52 113
146 144 153 20 5 24 11 19 29 -4 15 -3 18 3 9 7 -10 11 -10 21 2 11 13 9 16
-13 22 -14 3 -26 10 -26 16 0 5 -8 7 -18 3 -25 -7 -66 26 -98 81 l-26 44 -144
0 -144 0 0 -420z"/>
<path d="M927 748 c-6 -84 -4 -95 13 -113 20 -19 20 -19 20 93 0 87 -3 112
-14 112 -9 0 -15 -24 -19 -92z"/>
<path d="M330 811 c0 -10 30 -24 37 -17 3 2 -5 9 -16 16 -12 6 -21 7 -21 1z"/>
<path d="M351 758 c12 -22 46 -41 59 -33 18 11 -8 42 -39 47 -26 4 -29 2 -20
-14z"/>
<path d="M358 515 c-20 -23 -27 -41 -24 -63 2 -20 -2 -33 -10 -36 -36 -14 17
-84 68 -91 18 -3 28 -3 21 0 -8 5 -9 14 -1 36 11 33 23 37 37 12 8 -14 10 -4
11 40 0 52 -2 59 -26 69 -15 7 -27 23 -31 40 -7 35 -11 34 -45 -7z"/>
<path d="M659 508 c4 -18 12 -33 19 -32 47 4 46 3 17 34 -37 38 -44 38 -36 -2z"/>
<path d="M687 463 c-15 -4 -17 -12 -11 -56 14 -122 36 -238 61 -320 l26 -87
99 0 98 0 0 123 c0 110 -3 129 -23 168 -22 42 -26 44 -76 49 -58 6 -86 29 -98
79 -11 48 -27 57 -76 44z"/>
<path d="M770 426 c0 -28 50 -76 80 -76 l29 0 -17 30 c-9 16 -31 37 -49 45
-38 19 -43 19 -43 1z"/>
<path d="M940 313 c0 -5 5 -15 10 -23 8 -12 10 -11 10 8 0 12 -4 22 -10 22 -5
0 -10 -3 -10 -7z"/>
</g>
</svg>
