<?xml version="1.0" standalone="no"?>
<!DOCTYPE svg PUBLIC "-//W3C//DTD SVG 20010904//EN"
 "http://www.w3.org/TR/2001/REC-SVG-20010904/DTD/svg10.dtd">
<svg version="1.0" xmlns="http://www.w3.org/2000/svg"
 width="96.000000pt" height="84.000000pt" viewBox="0 0 96.000000 84.000000"
 preserveAspectRatio="xMidYMid meet">
<metadata>
Created by potrace 1.16, written by Peter Selinger 2001-2019
</metadata>
<g transform="translate(0.000000,84.000000) scale(0.100000,-0.100000)"
fill="#000000" stroke="none">
<path d="M0 420 l0 -420 234 0 233 0 6 45 c4 25 9 56 13 70 10 39 -19 31 -47
-12 -27 -42 -59 -56 -59 -25 0 10 14 38 31 62 35 48 61 105 53 113 -4 3 -17 2
-31 -4 -30 -11 -51 -1 -115 56 -63 56 -90 61 -141 24 -25 -18 -43 -25 -47 -19
-9 15 -2 128 11 180 15 55 62 152 82 169 13 11 17 6 22 -33 6 -40 10 -46 32
-46 18 0 23 -4 19 -17 -16 -57 -17 -110 -2 -122 9 -8 16 -22 16 -31 0 -27 78
-80 116 -80 35 0 55 17 34 30 -8 5 -4 13 14 28 37 29 34 68 -8 106 -26 24 -33
38 -31 64 1 21 -3 32 -12 32 -7 0 -13 4 -13 9 0 9 42 46 59 53 5 2 6 18 4 36
-5 28 -9 32 -37 32 -33 0 -76 33 -76 58 0 7 -7 15 -15 18 -8 3 -17 14 -20 25
-6 18 -18 19 -166 19 l-159 0 0 -420z"/>
<path d="M365 820 c3 -5 14 -10 23 -10 15 0 15 2 2 10 -20 13 -33 13 -25 0z"/>
<path d="M370 782 c0 -15 46 -52 63 -52 19 0 22 13 7 41 -11 19 -70 28 -70 11z"/>
<path d="M482 696 c1 -10 8 -17 13 -17 15 1 12 24 -3 29 -9 3 -13 -2 -10 -12z"/>
<path d="M447 628 c-16 -12 -15 -13 9 -15 17 0 22 2 14 7 -10 6 -9 9 1 13 8 3
9 6 3 6 -5 1 -18 -5 -27 -11z"/>
<path d="M710 517 c0 -28 17 -41 45 -35 13 2 10 9 -14 32 l-31 30 0 -27z"/>
<path d="M725 408 c10 -96 43 -276 63 -343 l18 -60 77 -3 77 -3 0 175 0 176
-43 -6 c-36 -5 -48 -2 -70 17 -15 13 -33 42 -40 64 -13 36 -18 40 -51 43 l-37
3 6 -63z"/>
<path d="M823 419 c18 -45 58 -73 91 -65 22 5 25 10 16 25 -11 21 -61 55 -98
66 -22 6 -22 6 -9 -26z"/>
</g>
</svg>
