<?xml version="1.0" standalone="no"?>
<!DOCTYPE svg PUBLIC "-//W3C//DTD SVG 20010904//EN"
 "http://www.w3.org/TR/2001/REC-SVG-20010904/DTD/svg10.dtd">
<svg version="1.0" xmlns="http://www.w3.org/2000/svg"
 width="96.000000pt" height="84.000000pt" viewBox="0 0 96.000000 84.000000"
 preserveAspectRatio="xMidYMid meet">
<metadata>
Created by potrace 1.16, written by Peter Selinger 2001-2019
</metadata>
<g transform="translate(0.000000,84.000000) scale(0.100000,-0.100000)"
fill="#000000" stroke="none">
<path d="M0 675 c0 -91 2 -165 5 -165 2 0 14 18 25 40 11 22 26 40 33 40 6 0
42 -47 80 -103 l67 -103 78 2 c42 1 123 4 180 5 57 1 98 5 92 9 -7 5 -6 11 5
20 25 21 18 61 -17 90 -28 23 -32 33 -30 69 2 32 -1 41 -13 41 -13 0 -14 4 -5
21 7 12 18 18 26 15 8 -3 12 -2 9 3 -3 6 2 14 10 19 12 6 14 16 10 35 -6 23
-13 27 -40 27 -36 0 -70 32 -81 77 l-6 23 -214 0 -214 0 0 -165z"/>
<path d="M451 813 c19 -52 66 -82 83 -54 11 17 -39 76 -67 79 -26 3 -27 2 -16
-25z"/>
<path d="M564 714 c3 -9 6 -18 6 -21 0 -3 7 0 15 7 13 11 13 15 3 21 -21 13
-31 10 -24 -7z"/>
<path d="M555 650 c-3 -5 -1 -10 4 -10 6 0 11 5 11 10 0 6 -2 10 -4 10 -3 0
-8 -4 -11 -10z"/>
<path d="M820 521 c0 -22 20 -36 40 -29 6 2 0 14 -14 27 l-26 24 0 -22z"/>
<path d="M834 419 c16 -151 38 -289 57 -352 17 -59 22 -67 44 -67 l25 0 0 175
c0 160 -2 177 -19 194 -11 11 -25 38 -31 60 -6 23 -16 41 -23 41 -7 0 -23 3
-36 7 -23 6 -23 6 -17 -58z"/>
<path d="M920 437 c0 -8 9 -25 20 -38 l20 -24 -2 35 c-2 24 -8 36 -20 38 -11
2 -18 -3 -18 -11z"/>
<path d="M267 295 c-18 -16 -36 -24 -47 -20 -14 4 -33 -15 -84 -90 -37 -52
-71 -95 -76 -95 -9 0 -43 45 -53 70 -3 8 -6 -24 -6 -72 l-1 -88 274 0 c309 0
281 -8 292 86 4 32 3 54 -3 54 -5 0 -24 -21 -41 -46 -32 -44 -54 -53 -60 -23
-1 8 8 31 22 50 38 53 77 140 71 159 -6 18 -33 23 -185 35 -71 5 -77 4 -103
-20z"/>
</g>
</svg>
