<?xml version="1.0" standalone="no"?>
<!DOCTYPE svg PUBLIC "-//W3C//DTD SVG 20010904//EN"
 "http://www.w3.org/TR/2001/REC-SVG-20010904/DTD/svg10.dtd">
<svg version="1.0" xmlns="http://www.w3.org/2000/svg"
 width="96.000000pt" height="84.000000pt" viewBox="0 0 96.000000 84.000000"
 preserveAspectRatio="xMidYMid meet">
<metadata>
Created by potrace 1.16, written by Peter Selinger 2001-2019
</metadata>
<g transform="translate(0.000000,84.000000) scale(0.100000,-0.100000)"
fill="#000000" stroke="none">
<path d="M0 420 l0 -420 335 0 c310 0 336 1 342 17 11 28 9 106 -2 109 -5 2
-25 -19 -42 -46 -23 -34 -38 -48 -48 -44 -23 9 -18 37 15 82 16 23 30 46 30
52 0 10 36 77 52 98 22 26 -11 39 -125 51 -153 15 -158 15 -192 -15 -19 -17
-38 -24 -53 -21 -20 4 -33 -10 -94 -102 -39 -58 -72 -107 -73 -109 -10 -12
-45 30 -68 81 -52 115 -52 272 0 387 50 109 50 109 143 -30 44 -66 85 -118 91
-115 8 5 130 12 314 18 11 1 30 -2 43 -7 16 -5 24 -3 29 10 4 11 2 19 -6 22
-9 3 -9 7 0 19 23 27 17 53 -17 73 -35 22 -45 47 -38 98 3 23 0 32 -11 32 -23
0 -18 19 13 47 21 18 28 31 24 49 -4 20 -10 24 -38 24 -26 0 -39 7 -56 30
l-22 30 -273 0 -273 0 0 -420z"/>
<path d="M576 825 c7 -16 35 -35 54 -35 6 0 10 10 8 23 -2 17 -11 23 -35 25
-27 3 -32 0 -27 -13z"/>
<path d="M670 761 c0 -14 18 -23 31 -15 8 4 7 9 -2 15 -18 11 -29 11 -29 0z"/>
</g>
</svg>
