<?xml version="1.0" standalone="no"?>
<!DOCTYPE svg PUBLIC "-//W3C//DTD SVG 20010904//EN"
 "http://www.w3.org/TR/2001/REC-SVG-20010904/DTD/svg10.dtd">
<svg version="1.0" xmlns="http://www.w3.org/2000/svg"
 width="96.000000pt" height="84.000000pt" viewBox="0 0 96.000000 84.000000"
 preserveAspectRatio="xMidYMid meet">
<metadata>
Created by potrace 1.16, written by Peter Selinger 2001-2019
</metadata>
<g transform="translate(0.000000,84.000000) scale(0.100000,-0.100000)"
fill="#000000" stroke="none">
<path d="M0 420 l0 -420 414 0 414 0 6 23 c10 39 7 85 -8 90 -9 4 -26 -13 -46
-45 -36 -56 -55 -67 -76 -46 -12 12 -9 21 21 68 19 30 35 59 35 63 0 5 21 40
46 77 25 38 43 74 39 79 -3 6 -28 11 -55 11 -27 0 -51 4 -54 8 -3 5 -56 9
-118 10 -99 2 -116 0 -134 -16 -38 -35 -63 -45 -81 -30 -10 8 -18 9 -20 3 -2
-5 -39 -66 -84 -134 -77 -119 -80 -123 -99 -106 -27 24 -76 130 -89 193 -23
110 -6 252 40 345 23 45 47 77 60 77 4 0 33 -37 65 -82 121 -175 124 -178 142
-169 9 5 89 12 177 15 88 4 169 7 180 8 11 0 34 -3 51 -7 25 -5 32 -3 38 11 4
9 2 22 -3 27 -5 5 -7 24 -4 41 4 28 1 34 -29 50 -34 18 -63 69 -51 89 3 5 9
25 13 44 8 33 7 34 -15 29 -19 -5 -22 -3 -18 14 3 11 11 25 19 31 17 14 18 43
2 57 -9 7 -149 11 -395 12 l-383 1 0 -421z"/>
<path d="M800 810 c0 -5 7 -10 16 -10 8 0 12 5 9 10 -3 6 -10 10 -16 10 -5 0
-9 -4 -9 -10z"/>
</g>
</svg>
