<?xml version="1.0" standalone="no"?>
<!DOCTYPE svg PUBLIC "-//W3C//DTD SVG 20010904//EN"
 "http://www.w3.org/TR/2001/REC-SVG-20010904/DTD/svg10.dtd">
<svg version="1.0" xmlns="http://www.w3.org/2000/svg"
 width="96.000000pt" height="84.000000pt" viewBox="0 0 96.000000 84.000000"
 preserveAspectRatio="xMidYMid meet">
<metadata>
Created by potrace 1.16, written by Peter Selinger 2001-2019
</metadata>
<g transform="translate(0.000000,84.000000) scale(0.100000,-0.100000)"
fill="#000000" stroke="none">
<path d="M0 420 l0 -420 420 0 c371 0 420 2 420 15 0 9 16 39 35 68 19 28 35
55 35 59 0 4 11 24 25 44 20 29 25 49 25 96 0 55 -2 59 -20 53 -11 -3 -20 -2
-20 3 0 5 -63 12 -141 15 l-141 7 -45 -35 c-48 -36 -71 -43 -90 -24 -8 8 -15
5 -26 -12 -8 -13 -50 -80 -92 -149 -42 -69 -78 -126 -80 -128 -19 -20 -88 88
-117 181 -30 101 -32 272 -4 362 25 77 59 145 84 168 19 18 22 15 122 -128 57
-81 109 -149 116 -152 7 -3 19 -1 26 4 7 4 49 8 93 9 140 2 296 14 316 24 16
9 19 22 19 76 0 36 -5 85 -11 110 -9 33 -9 48 1 59 13 15 6 51 -15 75 -8 8
-13 20 -12 25 1 7 -159 11 -460 13 l-463 2 0 -420z"/>
<path d="M938 35 c-23 -30 -22 -35 2 -35 16 0 20 7 20 30 0 36 0 36 -22 5z"/>
</g>
</svg>
