<?xml version="1.0" standalone="no"?>
<!DOCTYPE svg PUBLIC "-//W3C//DTD SVG 20010904//EN"
 "http://www.w3.org/TR/2001/REC-SVG-20010904/DTD/svg10.dtd">
<svg version="1.0" xmlns="http://www.w3.org/2000/svg"
 width="96.000000pt" height="84.000000pt" viewBox="0 0 96.000000 84.000000"
 preserveAspectRatio="xMidYMid meet">
<metadata>
Created by potrace 1.16, written by Peter Selinger 2001-2019
</metadata>
<g transform="translate(0.000000,84.000000) scale(0.100000,-0.100000)"
fill="#000000" stroke="none">
<path d="M740 830 c20 -13 220 -13 220 0 0 6 -46 10 -117 10 -80 0 -113 -3
-103 -10z"/>
<path d="M484 531 c-60 -25 -104 -136 -84 -211 12 -46 57 -96 94 -106 58 -14
153 42 177 104 15 39 10 98 -9 123 -10 13 -21 32 -25 41 -13 38 -107 67 -153
49z"/>
</g>
</svg>
