<?xml version="1.0" standalone="no"?>
<!DOCTYPE svg PUBLIC "-//W3C//DTD SVG 20010904//EN"
 "http://www.w3.org/TR/2001/REC-SVG-20010904/DTD/svg10.dtd">
<svg version="1.0" xmlns="http://www.w3.org/2000/svg"
 width="96.000000pt" height="84.000000pt" viewBox="0 0 96.000000 84.000000"
 preserveAspectRatio="xMidYMid meet">
<metadata>
Created by potrace 1.16, written by Peter Selinger 2001-2019
</metadata>
<g transform="translate(0.000000,84.000000) scale(0.100000,-0.100000)"
fill="#000000" stroke="none">
<path d="M0 420 l0 -420 165 0 165 0 -40 78 c-22 42 -42 86 -44 97 -2 11 -10
40 -17 65 -21 74 -17 271 9 358 31 109 86 212 112 212 4 0 60 -76 126 -170 91
-130 124 -169 141 -170 12 0 24 4 27 8 2 4 56 9 118 10 62 1 132 5 156 8 l42
6 0 169 0 169 -480 0 -480 0 0 -420z"/>
<path d="M699 328 c-55 -39 -57 -40 -82 -23 l-26 17 -44 -69 c-64 -101 -147
-240 -147 -247 0 -3 126 -6 280 -6 l280 0 0 185 0 185 -102 -1 -103 0 -56 -41z"/>
</g>
</svg>
