<?xml version="1.0" standalone="no"?>
<!DOCTYPE svg PUBLIC "-//W3C//DTD SVG 20010904//EN"
 "http://www.w3.org/TR/2001/REC-SVG-20010904/DTD/svg10.dtd">
<svg version="1.0" xmlns="http://www.w3.org/2000/svg"
 width="96.000000pt" height="84.000000pt" viewBox="0 0 96.000000 84.000000"
 preserveAspectRatio="xMidYMid meet">
<metadata>
Created by potrace 1.16, written by Peter Selinger 2001-2019
</metadata>
<g transform="translate(0.000000,84.000000) scale(0.100000,-0.100000)"
fill="#000000" stroke="none">
<path d="M0 420 l0 -420 205 0 c142 0 205 3 205 11 0 10 -7 25 -44 97 -9 17
-15 32 -12 32 3 0 1 12 -5 28 -43 110 -52 310 -20 453 10 47 23 95 30 107 6
12 9 22 5 22 -3 0 0 10 8 23 8 12 17 32 20 45 l6 22 -199 0 -199 0 0 -420z"/>
<path d="M507 827 c4 -8 64 -84 132 -170 128 -162 150 -179 182 -141 7 9 21
13 33 10 11 -3 39 -2 63 1 l43 6 0 153 0 154 -230 0 c-190 0 -230 -2 -223 -13z"/>
<path d="M922 341 c-18 -16 -49 -37 -68 -47 -34 -18 -36 -18 -48 -1 -30 40
-49 22 -139 -132 -48 -82 -87 -152 -87 -155 0 -3 86 -6 190 -6 l190 0 0 185
c0 102 -1 185 -2 185 -2 -1 -18 -14 -36 -29z"/>
</g>
</svg>
