<?xml version="1.0" standalone="no"?>
<!DOCTYPE svg PUBLIC "-//W3C//DTD SVG 20010904//EN"
 "http://www.w3.org/TR/2001/REC-SVG-20010904/DTD/svg10.dtd">
<svg version="1.0" xmlns="http://www.w3.org/2000/svg"
 width="96.000000pt" height="84.000000pt" viewBox="0 0 96.000000 84.000000"
 preserveAspectRatio="xMidYMid meet">
<metadata>
Created by potrace 1.16, written by Peter Selinger 2001-2019
</metadata>
<g transform="translate(0.000000,84.000000) scale(0.100000,-0.100000)"
fill="#000000" stroke="none">
<path d="M0 420 l0 -420 480 0 480 0 0 179 c0 119 -4 182 -11 187 -6 3 -9 14
-6 24 3 13 -2 20 -19 24 -15 4 -24 14 -24 26 0 10 -5 22 -10 25 -6 4 -10 16
-8 27 3 17 -35 41 -245 152 l-248 131 6 33 6 32 -201 0 -200 0 0 -420z m454
204 c11 -4 13 -14 10 -34 -4 -17 0 -37 11 -54 14 -20 15 -30 6 -39 -16 -16
-14 -60 8 -118 22 -55 19 -75 -10 -84 -15 -5 -19 -16 -19 -51 0 -24 -4 -44
-10 -44 -5 0 -10 15 -10 33 0 26 -4 33 -20 34 -15 1 -22 -6 -27 -28 -10 -53
-20 -30 -18 44 6 157 13 233 26 260 10 23 10 33 1 48 -21 33 7 50 52 33z"/>
<path d="M735 812 c17 -15 74 -70 128 -122 l97 -94 0 122 0 122 -127 0 -128 0
30 -28z"/>
</g>
</svg>
