<?xml version="1.0" standalone="no"?>
<!DOCTYPE svg PUBLIC "-//W3C//DTD SVG 20010904//EN"
 "http://www.w3.org/TR/2001/REC-SVG-20010904/DTD/svg10.dtd">
<svg version="1.0" xmlns="http://www.w3.org/2000/svg"
 width="96.000000pt" height="84.000000pt" viewBox="0 0 96.000000 84.000000"
 preserveAspectRatio="xMidYMid meet">
<metadata>
Created by potrace 1.16, written by Peter Selinger 2001-2019
</metadata>
<g transform="translate(0.000000,84.000000) scale(0.100000,-0.100000)"
fill="#000000" stroke="none">
<path d="M0 420 l0 -420 480 0 480 0 0 319 0 319 -129 101 -130 101 -350 0
-351 0 0 -420z m454 204 c10 -4 16 -18 16 -35 0 -16 5 -37 11 -47 8 -13 9 -31
2 -58 -8 -32 -5 -48 14 -92 24 -56 29 -82 14 -82 -22 0 -41 -34 -41 -71 0 -21
-4 -39 -10 -39 -5 0 -10 16 -10 35 0 31 -3 35 -25 35 -21 0 -25 -5 -25 -30 0
-20 -5 -30 -15 -30 -12 0 -14 7 -9 27 4 15 6 33 5 40 -6 46 17 253 31 270 8
10 8 20 -2 37 -19 37 2 56 44 40z"/>
</g>
</svg>
