<?xml version="1.0" standalone="no"?>
<!DOCTYPE svg PUBLIC "-//W3C//DTD SVG 20010904//EN"
 "http://www.w3.org/TR/2001/REC-SVG-20010904/DTD/svg10.dtd">
<svg version="1.0" xmlns="http://www.w3.org/2000/svg"
 width="96.000000pt" height="84.000000pt" viewBox="0 0 96.000000 84.000000"
 preserveAspectRatio="xMidYMid meet">
<metadata>
Created by potrace 1.16, written by Peter Selinger 2001-2019
</metadata>
<g transform="translate(0.000000,84.000000) scale(0.100000,-0.100000)"
fill="#000000" stroke="none">
<path d="M0 420 l0 -420 480 0 480 0 0 373 -1 372 -64 48 -64 47 -416 0 -415
0 0 -420z m469 201 c8 -5 11 -16 7 -29 -4 -13 0 -31 10 -47 14 -21 15 -32 6
-68 -10 -38 -9 -46 18 -93 30 -53 29 -64 -7 -83 -19 -9 -23 -20 -23 -56 0 -25
-4 -45 -10 -45 -5 0 -10 16 -10 35 0 31 -3 35 -25 35 -21 0 -25 -5 -25 -30 0
-17 -5 -30 -12 -30 -9 0 -12 18 -11 62 3 97 23 262 32 271 5 5 5 22 -1 39 -8
24 -8 32 3 39 18 11 30 11 48 0z"/>
</g>
</svg>
