<?xml version="1.0" standalone="no"?>
<!DOCTYPE svg PUBLIC "-//W3C//DTD SVG 20010904//EN"
 "http://www.w3.org/TR/2001/REC-SVG-20010904/DTD/svg10.dtd">
<svg version="1.0" xmlns="http://www.w3.org/2000/svg"
 width="96.000000pt" height="84.000000pt" viewBox="0 0 96.000000 84.000000"
 preserveAspectRatio="xMidYMid meet">
<metadata>
Created by potrace 1.16, written by Peter Selinger 2001-2019
</metadata>
<g transform="translate(0.000000,84.000000) scale(0.100000,-0.100000)"
fill="#000000" stroke="none">
<path d="M0 420 l0 -420 480 0 480 0 0 420 0 420 -480 0 -480 0 0 -420z m478
201 c9 -5 11 -17 6 -35 -4 -19 -1 -33 11 -46 15 -17 16 -24 7 -46 -17 -35 -15
-52 13 -109 31 -62 31 -69 0 -83 -21 -10 -25 -18 -25 -58 0 -32 -4 -44 -12
-41 -8 2 -12 16 -10 35 3 29 1 32 -22 32 -22 0 -26 -4 -26 -30 0 -18 -5 -30
-13 -30 -20 0 -12 178 13 307 9 44 9 66 1 81 -9 17 -8 21 7 25 28 7 36 7 50
-2z"/>
</g>
</svg>
