<?xml version="1.0" standalone="no"?>
<!DOCTYPE svg PUBLIC "-//W3C//DTD SVG 20010904//EN"
 "http://www.w3.org/TR/2001/REC-SVG-20010904/DTD/svg10.dtd">
<svg version="1.0" xmlns="http://www.w3.org/2000/svg"
 width="96.000000pt" height="84.000000pt" viewBox="0 0 96.000000 84.000000"
 preserveAspectRatio="xMidYMid meet">
<metadata>
Created by potrace 1.16, written by Peter Selinger 2001-2019
</metadata>
<g transform="translate(0.000000,84.000000) scale(0.100000,-0.100000)"
fill="#000000" stroke="none">
<path d="M0 420 l0 -420 480 0 480 0 0 420 0 420 -480 0 -480 0 0 -420z m478
201 c9 -5 11 -17 7 -34 -5 -18 -2 -32 9 -42 17 -17 21 -46 9 -59 -15 -15 -12
-49 12 -102 31 -69 31 -68 0 -82 -21 -10 -25 -18 -25 -57 0 -25 -4 -45 -10
-45 -5 0 -10 16 -10 35 0 30 -3 35 -24 35 -21 0 -25 -6 -28 -33 -2 -17 -7 -31
-13 -30 -17 5 -9 166 16 309 8 45 8 68 0 82 -9 17 -8 21 7 25 28 7 36 7 50 -2z"/>
</g>
</svg>
