<?xml version="1.0" standalone="no"?>
<!DOCTYPE svg PUBLIC "-//W3C//DTD SVG 20010904//EN"
 "http://www.w3.org/TR/2001/REC-SVG-20010904/DTD/svg10.dtd">
<svg version="1.0" xmlns="http://www.w3.org/2000/svg"
 width="96.000000pt" height="84.000000pt" viewBox="0 0 96.000000 84.000000"
 preserveAspectRatio="xMidYMid meet">
<metadata>
Created by potrace 1.16, written by Peter Selinger 2001-2019
</metadata>
<g transform="translate(0.000000,84.000000) scale(0.100000,-0.100000)"
fill="#000000" stroke="none">
<path d="M2 776 l3 -61 42 1 c24 0 61 7 83 14 31 10 83 11 254 4 118 -6 218
-13 222 -17 4 -4 0 -15 -9 -25 -18 -20 -22 -59 -8 -81 11 -18 84 -30 188 -30
47 -1 85 -6 88 -12 4 -6 11 -40 15 -75 8 -64 47 -144 70 -144 6 0 10 91 10
245 l0 244 -480 -1 -481 -1 3 -61z"/>
<path d="M491 528 c-1 -10 -19 -25 -45 -37 -56 -24 -70 -50 -63 -112 15 -122
100 -199 182 -164 69 29 100 105 84 206 -11 72 -39 99 -100 99 -28 0 -49 5
-52 13 -3 7 -6 5 -6 -5z"/>
</g>
</svg>
