<?xml version="1.0" standalone="no"?>
<!DOCTYPE svg PUBLIC "-//W3C//DTD SVG 20010904//EN"
 "http://www.w3.org/TR/2001/REC-SVG-20010904/DTD/svg10.dtd">
<svg version="1.0" xmlns="http://www.w3.org/2000/svg"
 width="96.000000pt" height="84.000000pt" viewBox="0 0 96.000000 84.000000"
 preserveAspectRatio="xMidYMid meet">
<metadata>
Created by potrace 1.16, written by Peter Selinger 2001-2019
</metadata>
<g transform="translate(0.000000,84.000000) scale(0.100000,-0.100000)"
fill="#000000" stroke="none">
<path d="M0 420 l0 -420 480 0 480 0 0 420 0 420 -480 0 -480 0 0 -420z m481
210 c6 0 7 -14 4 -34 -5 -24 -2 -42 10 -60 15 -23 16 -32 5 -70 -11 -40 -10
-48 14 -98 32 -68 33 -86 1 -98 -22 -8 -25 -15 -25 -60 0 -27 -4 -50 -10 -50
-5 0 -10 18 -10 39 0 35 -3 40 -22 38 -27 -1 -38 -14 -38 -44 0 -14 -6 -23
-16 -23 -12 0 -14 7 -9 33 9 42 9 39 0 60 -4 10 -3 35 3 55 6 20 10 61 10 90
-1 29 2 55 5 59 4 3 7 20 7 38 0 17 5 36 12 43 10 10 8 19 -6 42 -17 30 -17
30 6 39 13 6 29 8 36 5 8 -2 18 -4 23 -4z"/>
</g>
</svg>
