<?xml version="1.0" standalone="no"?>
<!DOCTYPE svg PUBLIC "-//W3C//DTD SVG 20010904//EN"
 "http://www.w3.org/TR/2001/REC-SVG-20010904/DTD/svg10.dtd">
<svg version="1.0" xmlns="http://www.w3.org/2000/svg"
 width="96.000000pt" height="84.000000pt" viewBox="0 0 96.000000 84.000000"
 preserveAspectRatio="xMidYMid meet">
<metadata>
Created by potrace 1.16, written by Peter Selinger 2001-2019
</metadata>
<g transform="translate(0.000000,84.000000) scale(0.100000,-0.100000)"
fill="#000000" stroke="none">
<path d="M0 420 l0 -420 480 0 480 0 0 420 0 420 -480 0 -480 0 0 -420z m495
203 c3 -13 0 -32 -7 -43 -10 -16 -9 -25 8 -55 19 -34 20 -40 7 -78 -13 -39
-13 -45 16 -122 38 -99 38 -109 4 -121 -26 -9 -28 -13 -28 -68 0 -38 -4 -61
-12 -63 -10 -3 -13 11 -13 51 0 52 -10 70 -25 45 -4 -6 -13 -8 -20 -5 -15 5
-25 -14 -25 -50 0 -14 -6 -24 -14 -24 -21 0 -30 20 -17 33 15 15 13 58 -4 80
-11 16 -11 26 2 70 8 28 16 78 17 112 0 33 4 65 7 70 4 6 10 43 14 83 5 52 4
72 -5 72 -8 0 -7 4 2 13 32 32 85 32 93 0z"/>
</g>
</svg>
