<?xml version="1.0" standalone="no"?>
<!DOCTYPE svg PUBLIC "-//W3C//DTD SVG 20010904//EN"
 "http://www.w3.org/TR/2001/REC-SVG-20010904/DTD/svg10.dtd">
<svg version="1.0" xmlns="http://www.w3.org/2000/svg"
 width="96.000000pt" height="84.000000pt" viewBox="0 0 96.000000 84.000000"
 preserveAspectRatio="xMidYMid meet">
<metadata>
Created by potrace 1.16, written by Peter Selinger 2001-2019
</metadata>
<g transform="translate(0.000000,84.000000) scale(0.100000,-0.100000)"
fill="#000000" stroke="none">
<path d="M0 420 l0 -420 168 0 169 0 11 25 c17 36 15 56 -8 85 -25 32 -25 41
1 120 37 114 38 119 26 152 -9 23 -9 32 -1 35 7 2 10 12 7 23 -3 10 0 34 5 52
6 18 16 61 23 95 12 59 14 62 50 71 l37 9 12 -40 c10 -35 10 -41 -4 -49 -21
-12 -20 -23 5 -74 19 -40 19 -45 5 -88 -11 -31 -13 -53 -7 -68 17 -42 61 -189
61 -204 0 -8 -14 -20 -30 -25 -28 -10 -30 -14 -30 -65 l0 -54 230 0 230 0 0
420 0 420 -480 0 -480 0 0 -420z"/>
<path d="M482 450 c0 -14 2 -19 5 -12 2 6 2 18 0 25 -3 6 -5 1 -5 -13z"/>
<path d="M404 77 c-8 -5 -14 -23 -14 -42 0 -34 1 -35 40 -35 l40 0 0 44 c0 41
-2 44 -26 42 -14 0 -32 -5 -40 -9z"/>
</g>
</svg>
