<?xml version="1.0" standalone="no"?>
<!DOCTYPE svg PUBLIC "-//W3C//DTD SVG 20010904//EN"
 "http://www.w3.org/TR/2001/REC-SVG-20010904/DTD/svg10.dtd">
<svg version="1.0" xmlns="http://www.w3.org/2000/svg"
 width="96.000000pt" height="84.000000pt" viewBox="0 0 96.000000 84.000000"
 preserveAspectRatio="xMidYMid meet">
<metadata>
Created by potrace 1.16, written by Peter Selinger 2001-2019
</metadata>
<g transform="translate(0.000000,84.000000) scale(0.100000,-0.100000)"
fill="#000000" stroke="none">
<path d="M0 420 l0 -420 175 0 c96 0 175 4 175 8 0 5 -8 17 -18 28 -10 11 -24
34 -30 52 -10 30 -8 40 24 103 19 38 32 74 29 79 -3 5 -1 19 5 30 8 15 6 34
-6 77 -24 82 -20 113 21 187 20 36 34 69 31 74 -3 5 6 15 19 22 31 16 75 0 75
-28 0 -10 5 -23 12 -30 9 -9 9 -12 0 -12 -6 0 -19 -11 -28 -25 -16 -24 -16
-27 4 -48 29 -32 37 -72 21 -119 -11 -34 -10 -48 5 -106 10 -37 20 -77 21 -89
2 -12 8 -38 15 -57 17 -53 10 -81 -20 -81 -21 0 -25 -5 -25 -30 l0 -30 228 -3
227 -2 0 420 0 420 -480 0 -480 0 0 -420z"/>
<path d="M480 431 c0 -25 6 -27 13 -6 4 8 2 17 -3 20 -6 4 -10 -3 -10 -14z"/>
<path d="M418 37 c-47 -18 -43 -37 7 -37 41 0 45 2 45 25 0 27 -9 29 -52 12z"/>
</g>
</svg>
