<?xml version="1.0" standalone="no"?>
<!DOCTYPE svg PUBLIC "-//W3C//DTD SVG 20010904//EN"
 "http://www.w3.org/TR/2001/REC-SVG-20010904/DTD/svg10.dtd">
<svg version="1.0" xmlns="http://www.w3.org/2000/svg"
 width="96.000000pt" height="84.000000pt" viewBox="0 0 96.000000 84.000000"
 preserveAspectRatio="xMidYMid meet">
<metadata>
Created by potrace 1.16, written by Peter Selinger 2001-2019
</metadata>
<g transform="translate(0.000000,84.000000) scale(0.100000,-0.100000)"
fill="#000000" stroke="none">
<path d="M0 420 l0 -420 174 0 c96 0 177 3 180 8 2 4 -6 18 -19 31 -40 37 -41
79 -6 149 17 34 31 71 31 82 0 12 5 30 11 41 8 15 7 24 -2 35 -10 12 -10 22 0
50 16 44 9 53 -13 19 -23 -35 -46 -33 -46 5 0 34 22 84 51 115 21 24 53 95 45
103 -10 10 47 32 66 26 11 -3 26 -20 33 -37 12 -28 11 -33 -6 -45 -22 -15 -24
-39 -5 -61 28 -33 36 -79 20 -117 -14 -32 -13 -43 5 -117 41 -168 47 -207 31
-217 -8 -6 -21 -8 -27 -5 -9 3 -13 -7 -13 -30 l0 -35 225 0 225 0 0 420 0 420
-480 0 -480 0 0 -420z"/>
<path d="M480 429 c0 -11 5 -17 10 -14 6 3 10 13 10 21 0 8 -4 14 -10 14 -5 0
-10 -9 -10 -21z"/>
<path d="M401 414 c0 -11 3 -14 6 -6 3 7 2 16 -1 19 -3 4 -6 -2 -5 -13z"/>
<path d="M413 36 c-37 -18 -28 -36 17 -36 36 0 40 3 40 25 0 27 -18 31 -57 11z"/>
</g>
</svg>
