<?xml version="1.0" standalone="no"?>
<!DOCTYPE svg PUBLIC "-//W3C//DTD SVG 20010904//EN"
 "http://www.w3.org/TR/2001/REC-SVG-20010904/DTD/svg10.dtd">
<svg version="1.0" xmlns="http://www.w3.org/2000/svg"
 width="96.000000pt" height="84.000000pt" viewBox="0 0 96.000000 84.000000"
 preserveAspectRatio="xMidYMid meet">
<metadata>
Created by potrace 1.16, written by Peter Selinger 2001-2019
</metadata>
<g transform="translate(0.000000,84.000000) scale(0.100000,-0.100000)"
fill="#000000" stroke="none">
<path d="M0 420 l0 -420 178 0 c98 0 182 3 185 6 4 4 -3 20 -14 35 -33 47 -35
89 -5 147 14 28 26 63 26 77 0 15 5 36 11 47 8 15 8 22 -1 28 -8 5 -11 20 -8
39 3 22 1 28 -6 21 -5 -5 -16 -10 -23 -10 -22 0 -5 66 39 149 21 40 38 81 36
90 -4 20 38 43 64 35 11 -3 25 -19 32 -36 12 -27 11 -33 -11 -56 -23 -25 -23
-26 -5 -46 37 -41 46 -81 28 -125 -15 -38 -14 -45 18 -173 36 -141 35 -175 -5
-163 -16 5 -19 1 -19 -29 l0 -36 220 0 220 0 0 420 0 420 -480 0 -480 0 0
-420z"/>
<path d="M411 414 c0 -11 3 -14 6 -6 3 7 2 16 -1 19 -3 4 -6 -2 -5 -13z"/>
<path d="M433 37 c-47 -16 -42 -37 6 -37 43 0 55 9 45 34 -7 18 -6 18 -51 3z"/>
</g>
</svg>
