<?xml version="1.0" standalone="no"?>
<!DOCTYPE svg PUBLIC "-//W3C//DTD SVG 20010904//EN"
 "http://www.w3.org/TR/2001/REC-SVG-20010904/DTD/svg10.dtd">
<svg version="1.0" xmlns="http://www.w3.org/2000/svg"
 width="96.000000pt" height="84.000000pt" viewBox="0 0 96.000000 84.000000"
 preserveAspectRatio="xMidYMid meet">
<metadata>
Created by potrace 1.16, written by Peter Selinger 2001-2019
</metadata>
<g transform="translate(0.000000,84.000000) scale(0.100000,-0.100000)"
fill="#000000" stroke="none">
<path d="M0 420 l0 -420 190 0 c171 0 190 2 190 17 0 9 -7 24 -15 33 -28 31
-29 82 -5 136 31 66 35 102 24 219 -4 50 0 74 25 144 17 46 28 87 26 91 -2 4
7 13 20 20 32 17 75 0 75 -29 0 -11 5 -23 10 -26 6 -4 0 -15 -15 -27 -28 -22
-32 -43 -11 -55 8 -4 21 -25 29 -45 14 -34 14 -41 0 -77 -15 -38 -14 -45 12
-148 15 -59 31 -118 36 -131 11 -28 -3 -57 -27 -57 -21 0 -39 -27 -31 -49 6
-14 31 -16 217 -16 l210 0 0 420 0 420 -480 0 -480 0 0 -420z"/>
<path d="M510 428 c0 -19 2 -20 10 -8 13 19 13 30 0 30 -5 0 -10 -10 -10 -22z"/>
<path d="M480 40 c-8 -5 -25 -10 -36 -10 -12 0 -24 -7 -28 -15 -4 -12 4 -15
39 -15 41 0 45 2 45 25 0 28 0 28 -20 15z"/>
</g>
</svg>
