<?xml version="1.0" standalone="no"?>
<!DOCTYPE svg PUBLIC "-//W3C//DTD SVG 20010904//EN"
 "http://www.w3.org/TR/2001/REC-SVG-20010904/DTD/svg10.dtd">
<svg version="1.0" xmlns="http://www.w3.org/2000/svg"
 width="96.000000pt" height="84.000000pt" viewBox="0 0 96.000000 84.000000"
 preserveAspectRatio="xMidYMid meet">
<metadata>
Created by potrace 1.16, written by Peter Selinger 2001-2019
</metadata>
<g transform="translate(0.000000,84.000000) scale(0.100000,-0.100000)"
fill="#000000" stroke="none">
<path d="M0 420 l0 -420 210 0 c202 0 210 1 210 20 0 10 -6 23 -12 27 -18 11
-38 49 -38 70 0 10 11 42 25 71 14 30 25 65 25 79 0 13 5 33 11 44 7 15 7 24
-1 34 -7 8 -13 43 -13 77 -2 49 4 79 26 131 16 38 26 74 24 81 -3 7 8 18 24
25 35 15 62 3 81 -37 12 -25 11 -29 -15 -51 l-28 -24 24 -26 c43 -47 49 -75
28 -125 -19 -42 -19 -45 -1 -99 10 -31 21 -71 24 -89 3 -19 12 -49 19 -68 17
-40 8 -75 -18 -75 -22 0 -40 -27 -32 -49 6 -14 30 -16 197 -16 l190 0 0 420 0
420 -480 0 -480 0 0 -420z"/>
<path d="M552 430 c0 -14 2 -19 5 -12 2 6 2 18 0 25 -3 6 -5 1 -5 -13z"/>
<path d="M491 31 c-54 -10 -51 -31 3 -31 39 0 46 3 46 20 0 11 -3 19 -7 19 -5
-1 -23 -4 -42 -8z"/>
</g>
</svg>
