<?xml version="1.0" standalone="no"?>
<!DOCTYPE svg PUBLIC "-//W3C//DTD SVG 20010904//EN"
 "http://www.w3.org/TR/2001/REC-SVG-20010904/DTD/svg10.dtd">
<svg version="1.0" xmlns="http://www.w3.org/2000/svg"
 width="96.000000pt" height="84.000000pt" viewBox="0 0 96.000000 84.000000"
 preserveAspectRatio="xMidYMid meet">
<metadata>
Created by potrace 1.16, written by Peter Selinger 2001-2019
</metadata>
<g transform="translate(0.000000,84.000000) scale(0.100000,-0.100000)"
fill="#000000" stroke="none">
<path d="M0 420 l0 -420 215 0 c206 0 215 1 215 19 0 11 -5 23 -10 26 -6 4
-17 22 -25 41 -14 34 -13 39 15 102 17 36 29 71 27 76 -3 6 2 23 9 37 11 22
11 29 -3 48 -28 41 -22 118 15 199 19 40 32 78 30 84 -6 17 40 40 64 32 10 -3
25 -18 33 -34 14 -27 14 -31 -10 -56 -29 -31 -31 -40 -10 -48 9 -3 24 -25 35
-48 18 -41 18 -42 -1 -80 -18 -36 -19 -42 -5 -91 66 -231 67 -242 26 -242 -21
0 -26 -5 -28 -32 l-3 -33 185 0 186 0 0 420 0 420 -480 0 -480 0 0 -420z"/>
<path d="M568 444 c-5 -4 -8 -16 -8 -28 0 -14 3 -17 11 -9 6 6 9 19 7 28 -1 9
-6 13 -10 9z"/>
<path d="M481 414 c0 -11 3 -14 6 -6 3 7 2 16 -1 19 -3 4 -6 -2 -5 -13z"/>
<path d="M536 41 c-4 -6 -20 -11 -37 -11 -19 0 -29 -5 -29 -15 0 -22 78 -21
87 1 7 19 -11 41 -21 25z"/>
</g>
</svg>
