<?xml version="1.0" standalone="no"?>
<!DOCTYPE svg PUBLIC "-//W3C//DTD SVG 20010904//EN"
 "http://www.w3.org/TR/2001/REC-SVG-20010904/DTD/svg10.dtd">
<svg version="1.0" xmlns="http://www.w3.org/2000/svg"
 width="96.000000pt" height="84.000000pt" viewBox="0 0 96.000000 84.000000"
 preserveAspectRatio="xMidYMid meet">
<metadata>
Created by potrace 1.16, written by Peter Selinger 2001-2019
</metadata>
<g transform="translate(0.000000,84.000000) scale(0.100000,-0.100000)"
fill="#000000" stroke="none">
<path d="M0 420 l0 -420 225 0 c216 0 225 1 225 20 0 10 -6 23 -12 27 -18 11
-38 49 -38 70 0 10 12 43 26 73 14 30 27 66 28 80 1 14 6 35 10 46 4 15 1 28
-11 39 -28 29 -21 99 19 190 20 46 32 84 27 90 -5 7 4 16 22 24 38 17 79 2 79
-28 0 -11 5 -23 10 -26 6 -4 0 -15 -15 -27 -29 -23 -32 -43 -7 -57 9 -5 23
-25 30 -45 12 -32 11 -43 -4 -81 -16 -44 -16 -48 6 -128 12 -45 28 -102 36
-126 15 -47 5 -85 -20 -75 -19 7 -39 -22 -31 -46 6 -19 14 -20 181 -20 l174 0
0 420 0 420 -480 0 -480 0 0 -420z"/>
<path d="M581 430 c0 -33 1 -34 10 -11 6 16 6 28 -1 35 -7 7 -10 -1 -9 -24z"/>
<path d="M535 38 c-16 -6 -36 -12 -42 -14 -31 -8 -9 -24 32 -24 41 0 45 2 45
25 0 14 -1 25 -2 24 -2 -1 -16 -6 -33 -11z"/>
</g>
</svg>
