<?xml version="1.0" standalone="no"?>
<!DOCTYPE svg PUBLIC "-//W3C//DTD SVG 20010904//EN"
 "http://www.w3.org/TR/2001/REC-SVG-20010904/DTD/svg10.dtd">
<svg version="1.0" xmlns="http://www.w3.org/2000/svg"
 width="96.000000pt" height="84.000000pt" viewBox="0 0 96.000000 84.000000"
 preserveAspectRatio="xMidYMid meet">
<metadata>
Created by potrace 1.16, written by Peter Selinger 2001-2019
</metadata>
<g transform="translate(0.000000,84.000000) scale(0.100000,-0.100000)"
fill="#000000" stroke="none">
<path d="M0 420 l0 -420 255 0 c228 0 255 2 255 16 0 12 -7 15 -25 11 -20 -3
-29 1 -39 22 -28 56 -28 78 4 134 25 45 61 139 59 157 0 3 -8 -11 -19 -30 -15
-29 -20 -32 -25 -17 -4 9 -5 26 -2 37 3 11 1 23 -4 26 -19 12 -9 103 20 176
16 40 31 79 33 87 5 23 37 51 57 51 11 0 29 -13 40 -29 22 -31 27 -51 12 -51
-5 0 -16 -12 -26 -26 -13 -21 -14 -28 -4 -41 17 -20 19 -33 24 -128 1 -44 8
-105 14 -135 6 -30 14 -68 17 -85 3 -16 10 -47 16 -67 12 -42 -3 -74 -30 -63
-17 6 -42 -12 -42 -31 0 -11 35 -14 185 -14 l185 0 0 420 0 420 -480 0 -480 0
0 -420z"/>
<path d="M511 404 c0 -11 3 -14 6 -6 3 7 2 16 -1 19 -3 4 -6 -2 -5 -13z"/>
</g>
</svg>
