<?xml version="1.0" standalone="no"?>
<!DOCTYPE svg PUBLIC "-//W3C//DTD SVG 20010904//EN"
 "http://www.w3.org/TR/2001/REC-SVG-20010904/DTD/svg10.dtd">
<svg version="1.0" xmlns="http://www.w3.org/2000/svg"
 width="96.000000pt" height="84.000000pt" viewBox="0 0 96.000000 84.000000"
 preserveAspectRatio="xMidYMid meet">
<metadata>
Created by potrace 1.16, written by Peter Selinger 2001-2019
</metadata>
<g transform="translate(0.000000,84.000000) scale(0.100000,-0.100000)"
fill="#000000" stroke="none">
<path d="M0 420 l0 -420 254 0 c226 0 255 2 260 16 9 22 6 24 -43 26 l-43 1 7
36 c4 20 17 63 29 96 13 33 27 79 33 103 10 42 10 42 -16 40 -26 -3 -26 -3
-27 74 -1 63 3 87 22 125 13 27 25 63 27 81 2 17 7 35 10 39 4 3 2 12 -3 18
-8 10 -3 14 20 17 16 3 30 1 30 -2 0 -4 13 -10 29 -13 20 -4 30 -13 33 -31 3
-15 2 -26 -3 -26 -15 0 -28 -70 -19 -96 11 -27 35 -32 44 -8 3 8 10 12 16 9
19 -12 10 -36 -20 -53 -38 -22 -38 -39 -1 -180 17 -67 25 -116 20 -124 -5 -7
-9 -26 -9 -43 0 -16 -4 -35 -8 -41 -11 -17 -51 -36 -62 -29 -6 3 -10 -3 -10
-14 0 -20 5 -21 195 -21 l195 0 0 420 0 420 -480 0 -480 0 0 -420z"/>
</g>
</svg>
