<?xml version="1.0" standalone="no"?>
<!DOCTYPE svg PUBLIC "-//W3C//DTD SVG 20010904//EN"
 "http://www.w3.org/TR/2001/REC-SVG-20010904/DTD/svg10.dtd">
<svg version="1.0" xmlns="http://www.w3.org/2000/svg"
 width="96.000000pt" height="84.000000pt" viewBox="0 0 96.000000 84.000000"
 preserveAspectRatio="xMidYMid meet">
<metadata>
Created by potrace 1.16, written by Peter Selinger 2001-2019
</metadata>
<g transform="translate(0.000000,84.000000) scale(0.100000,-0.100000)"
fill="#000000" stroke="none">
<path d="M0 420 l0 -420 249 0 c139 0 252 4 255 9 11 18 -6 39 -35 45 -29 6
-53 41 -45 68 10 36 39 137 47 164 6 21 6 41 -1 60 -13 33 -6 86 21 167 23 68
24 86 5 93 -9 3 -13 16 -12 32 3 24 8 27 47 29 24 2 51 4 59 6 23 6 43 -40 23
-51 -21 -12 -13 -56 12 -60 35 -7 40 -20 19 -49 -27 -36 -37 -93 -24 -128 7
-20 8 -30 0 -35 -6 -4 4 -29 26 -66 73 -118 83 -149 61 -190 -15 -28 -72 -54
-118 -54 -18 0 -28 -6 -32 -20 -5 -20 0 -20 199 -20 l204 0 0 420 0 420 -480
0 -480 0 0 -420z"/>
</g>
</svg>
