<?xml version="1.0" standalone="no"?>
<!DOCTYPE svg PUBLIC "-//W3C//DTD SVG 20010904//EN"
 "http://www.w3.org/TR/2001/REC-SVG-20010904/DTD/svg10.dtd">
<svg version="1.0" xmlns="http://www.w3.org/2000/svg"
 width="96.000000pt" height="84.000000pt" viewBox="0 0 96.000000 84.000000"
 preserveAspectRatio="xMidYMid meet">
<metadata>
Created by potrace 1.16, written by Peter Selinger 2001-2019
</metadata>
<g transform="translate(0.000000,84.000000) scale(0.100000,-0.100000)"
fill="#000000" stroke="none">
<path d="M0 420 l0 -420 245 0 245 0 0 45 c0 48 1 47 -89 57 -38 5 -50 33 -24
60 37 40 61 109 74 220 7 59 10 110 7 113 -3 4 -36 10 -72 16 -65 9 -106 25
-106 43 0 4 15 5 33 2 90 -18 144 -25 160 -20 22 7 22 36 -1 64 -24 30 -10 64
35 85 35 17 57 20 48 6 -3 -6 2 -14 12 -20 12 -6 17 -19 15 -41 -2 -27 5 -40
41 -74 25 -22 47 -53 51 -68 5 -21 16 -30 56 -43 27 -9 50 -21 50 -26 0 -6 -9
-7 -20 -4 -12 4 -20 2 -20 -5 0 -7 -10 -6 -27 4 -45 25 -106 47 -112 40 -3 -3
-5 -30 -4 -60 2 -42 -1 -54 -12 -54 -12 0 -12 -5 -3 -24 12 -27 72 -56 117
-56 36 0 59 -25 44 -48 -5 -9 -18 -17 -29 -17 -22 0 -80 -32 -103 -57 -36 -38
-41 -49 -41 -93 l0 -45 195 0 195 0 0 420 0 420 -480 0 -480 0 0 -420z"/>
<path d="M600 521 c0 -13 29 -41 42 -41 7 0 1 11 -12 25 -26 27 -30 30 -30 16z"/>
</g>
</svg>
