<?xml version="1.0" standalone="no"?>
<!DOCTYPE svg PUBLIC "-//W3C//DTD SVG 20010904//EN"
 "http://www.w3.org/TR/2001/REC-SVG-20010904/DTD/svg10.dtd">
<svg version="1.0" xmlns="http://www.w3.org/2000/svg"
 width="96.000000pt" height="84.000000pt" viewBox="0 0 96.000000 84.000000"
 preserveAspectRatio="xMidYMid meet">
<metadata>
Created by potrace 1.16, written by Peter Selinger 2001-2019
</metadata>
<g transform="translate(0.000000,84.000000) scale(0.100000,-0.100000)"
fill="#000000" stroke="none">
<path d="M0 420 l0 -420 235 0 235 0 0 28 c0 46 -28 140 -49 161 -16 16 -24
17 -59 8 -36 -9 -44 -8 -62 8 -11 10 -20 26 -20 36 0 10 -4 21 -10 24 -20 12
-10 35 15 35 60 0 144 59 145 100 0 9 5 21 11 27 5 5 7 22 4 35 -7 27 -35 38
-99 38 -29 0 -77 19 -49 20 7 0 10 6 7 14 -4 11 3 12 42 5 37 -7 56 -5 86 8
36 16 50 33 28 33 -5 0 -10 8 -10 17 0 9 -5 31 -12 49 -16 46 -1 63 49 54 71
-13 80 -19 75 -50 -4 -25 1 -33 30 -50 56 -33 76 -101 40 -133 -10 -10 -22
-14 -25 -10 -4 3 -7 -1 -7 -10 0 -15 -3 -14 -20 3 -11 11 -20 24 -20 29 0 6
-5 13 -11 17 -15 9 -29 -14 -29 -48 0 -23 4 -28 25 -28 20 0 25 -5 25 -23 0
-18 5 -23 22 -23 38 2 28 -29 -10 -32 -25 -3 -32 -7 -28 -19 3 -8 6 -20 6 -27
0 -13 60 -47 99 -56 31 -7 50 -35 34 -51 -9 -9 -23 -7 -60 6 -36 13 -54 14
-74 7 -26 -10 -26 -12 -26 -106 l1 -96 213 0 213 0 0 420 0 420 -480 0 -480 0
0 -420z"/>
</g>
</svg>
