<?xml version="1.0" standalone="no"?>
<!DOCTYPE svg PUBLIC "-//W3C//DTD SVG 20010904//EN"
 "http://www.w3.org/TR/2001/REC-SVG-20010904/DTD/svg10.dtd">
<svg version="1.0" xmlns="http://www.w3.org/2000/svg"
 width="96.000000pt" height="84.000000pt" viewBox="0 0 96.000000 84.000000"
 preserveAspectRatio="xMidYMid meet">
<metadata>
Created by potrace 1.16, written by Peter Selinger 2001-2019
</metadata>
<g transform="translate(0.000000,84.000000) scale(0.100000,-0.100000)"
fill="#000000" stroke="none">
<path d="M0 420 l0 -420 204 0 204 0 6 48 c4 26 9 64 12 84 5 31 2 39 -13 44
-55 18 -124 58 -158 91 l-37 36 36 19 c20 10 57 21 83 24 71 8 78 11 63 29 -6
7 -10 24 -8 37 2 19 8 22 32 20 23 -3 27 0 22 13 -3 9 -9 27 -12 39 -5 20 -12
22 -80 25 -78 2 -117 12 -129 31 -5 8 3 9 27 5 25 -5 38 -2 47 9 7 8 28 18 47
22 18 3 38 11 43 18 13 16 17 49 7 65 -5 8 -4 16 4 21 7 4 9 13 6 19 -5 7 7
11 38 11 24 0 52 3 61 7 14 5 16 2 10 -16 -4 -13 -2 -28 5 -36 9 -11 9 -15 1
-15 -6 0 -11 -6 -11 -14 0 -9 20 -19 49 -27 36 -9 52 -19 61 -37 10 -23 14
-24 60 -18 32 4 50 3 50 -4 0 -5 -8 -10 -18 -10 -10 0 -22 -3 -25 -6 -4 -4
-28 -9 -54 -11 -26 -2 -55 -11 -64 -18 -8 -8 -24 -15 -34 -15 -15 0 -17 -6
-12 -44 9 -61 26 -96 45 -89 12 5 14 1 10 -15 -6 -23 13 -45 50 -56 12 -4 23
-10 23 -14 9 -47 6 -52 -28 -52 -23 0 -41 -8 -56 -23 -12 -13 -30 -26 -39 -30
-11 -4 -18 -17 -18 -34 0 -15 -3 -52 -6 -80 l-7 -53 232 0 231 0 0 420 0 420
-480 0 -480 0 0 -420z"/>
<path d="M400 559 c0 -5 5 -7 10 -4 6 3 10 8 10 11 0 2 -4 4 -10 4 -5 0 -10
-5 -10 -11z"/>
<path d="M462 115 c-1 -16 -5 -41 -8 -55 -5 -19 -4 -22 5 -14 7 7 11 29 8 55
-2 30 -4 34 -5 14z"/>
<path d="M451 14 c0 -11 3 -14 6 -6 3 7 2 16 -1 19 -3 4 -6 -2 -5 -13z"/>
</g>
</svg>
