<?xml version="1.0" standalone="no"?>
<!DOCTYPE svg PUBLIC "-//W3C//DTD SVG 20010904//EN"
 "http://www.w3.org/TR/2001/REC-SVG-20010904/DTD/svg10.dtd">
<svg version="1.0" xmlns="http://www.w3.org/2000/svg"
 width="96.000000pt" height="84.000000pt" viewBox="0 0 96.000000 84.000000"
 preserveAspectRatio="xMidYMid meet">
<metadata>
Created by potrace 1.16, written by Peter Selinger 2001-2019
</metadata>
<g transform="translate(0.000000,84.000000) scale(0.100000,-0.100000)"
fill="#000000" stroke="none">
<path d="M0 420 l0 -420 204 0 204 0 10 67 c6 38 14 78 17 90 6 19 2 22 -42
28 -26 4 -63 11 -81 15 -20 5 -44 5 -59 -1 -25 -9 -43 -5 -43 11 0 5 19 18 42
28 24 10 62 27 86 37 55 24 95 75 58 75 -25 0 -4 64 22 68 28 4 30 51 3 76
-18 17 -19 16 -25 -2 -9 -27 -29 -33 -64 -20 -62 24 -63 83 -3 120 42 26 61
47 54 64 -2 6 3 14 12 18 10 3 15 12 11 21 -3 9 0 15 9 15 8 0 15 6 15 13 0 6
5 4 11 -5 5 -10 15 -18 22 -18 6 0 22 -12 34 -27 21 -24 22 -28 8 -43 -15 -16
-14 -20 12 -40 22 -17 36 -20 68 -16 48 7 74 -4 51 -23 -8 -7 -31 -14 -53 -17
-84 -12 -81 -9 -72 -56 4 -24 14 -61 21 -83 l13 -40 75 -6 c89 -8 128 -24 136
-56 9 -34 -1 -50 -35 -58 -16 -3 -35 -13 -42 -21 -15 -18 -102 -44 -150 -44
-33 0 -37 -3 -43 -31 -8 -39 -8 -87 0 -116 l6 -23 234 0 234 0 0 420 0 420
-480 0 -480 0 0 -420z"/>
<path d="M465 570 c3 -5 14 -10 23 -10 15 0 15 2 2 10 -20 13 -33 13 -25 0z"/>
</g>
</svg>
