<?xml version="1.0" standalone="no"?>
<!DOCTYPE svg PUBLIC "-//W3C//DTD SVG 20010904//EN"
 "http://www.w3.org/TR/2001/REC-SVG-20010904/DTD/svg10.dtd">
<svg version="1.0" xmlns="http://www.w3.org/2000/svg"
 width="96.000000pt" height="84.000000pt" viewBox="0 0 96.000000 84.000000"
 preserveAspectRatio="xMidYMid meet">
<metadata>
Created by potrace 1.16, written by Peter Selinger 2001-2019
</metadata>
<g transform="translate(0.000000,84.000000) scale(0.100000,-0.100000)"
fill="#000000" stroke="none">
<path d="M0 420 l0 -420 195 0 195 0 0 64 c0 63 -1 65 -29 71 -16 3 -45 3 -64
0 -35 -7 -97 15 -97 34 0 5 18 24 40 42 23 19 61 53 85 76 40 38 44 45 35 69
-12 31 -6 44 21 44 16 0 19 7 19 45 0 45 -7 54 -26 35 -15 -15 -74 -30 -74
-19 0 5 -8 9 -19 9 -10 0 -24 6 -30 14 -20 24 5 55 63 82 52 24 89 70 67 83
-16 10 -7 45 14 57 15 7 22 7 28 -2 4 -7 25 -15 47 -19 33 -6 40 -11 40 -30 0
-12 -7 -25 -15 -29 -13 -5 -11 -12 10 -45 15 -22 26 -48 25 -58 -5 -42 -2 -44
59 -41 62 3 86 -6 61 -22 -20 -13 -127 -13 -135 0 -3 6 -10 10 -16 10 -13 0
-11 -47 2 -55 6 -4 8 -13 5 -21 -10 -27 71 -103 128 -119 67 -20 75 -26 82
-61 7 -38 -21 -66 -73 -70 -47 -4 -145 -22 -151 -29 -3 -3 -7 -30 -10 -60 l-4
-55 241 0 241 0 0 420 0 420 -480 0 -480 0 0 -420z"/>
<path d="M472 571 c2 -14 9 -26 16 -29 17 -5 15 10 -3 34 -15 18 -15 18 -13
-5z"/>
<path d="M441 104 c0 -11 3 -14 6 -6 3 7 2 16 -1 19 -3 4 -6 -2 -5 -13z"/>
</g>
</svg>
