<?xml version="1.0" standalone="no"?>
<!DOCTYPE svg PUBLIC "-//W3C//DTD SVG 20010904//EN"
 "http://www.w3.org/TR/2001/REC-SVG-20010904/DTD/svg10.dtd">
<svg version="1.0" xmlns="http://www.w3.org/2000/svg"
 width="96.000000pt" height="84.000000pt" viewBox="0 0 96.000000 84.000000"
 preserveAspectRatio="xMidYMid meet">
<metadata>
Created by potrace 1.16, written by Peter Selinger 2001-2019
</metadata>
<g transform="translate(0.000000,84.000000) scale(0.100000,-0.100000)"
fill="#000000" stroke="none">
<path d="M0 420 l0 -420 161 0 c143 0 160 2 157 16 -3 19 -6 21 -101 65 -102
48 -107 97 -13 141 54 25 142 119 133 142 -3 8 -2 29 3 47 13 43 6 47 -23 13
-16 -18 -29 -25 -40 -21 -27 10 -20 45 12 62 16 8 32 23 36 34 3 11 13 22 21
25 12 4 15 18 13 53 -2 27 -7 51 -12 54 -4 3 0 20 11 37 13 23 22 28 29 21 6
-6 30 -10 52 -7 33 3 40 1 36 -11 -3 -8 0 -18 7 -22 10 -6 8 -12 -7 -23 -20
-14 -20 -15 4 -39 13 -15 40 -28 61 -32 21 -4 46 -13 57 -20 16 -13 15 -14
-17 -14 -19 0 -52 6 -72 13 -36 13 -52 6 -25 -11 6 -4 19 -21 27 -37 18 -35
48 -48 128 -55 17 -1 15 -30 -2 -37 -19 -7 -102 22 -133 46 -30 23 -53 16 -53
-16 0 -19 5 -24 26 -24 24 0 26 -3 21 -30 -5 -23 -2 -32 13 -40 27 -14 53 -70
40 -85 -8 -9 -1 -17 28 -28 47 -19 58 -32 64 -75 4 -30 0 -36 -37 -62 -23 -16
-55 -32 -71 -36 -40 -9 -44 -13 -37 -29 4 -13 42 -15 234 -15 l229 0 0 420 0
420 -480 0 -480 0 0 -420z"/>
<path d="M370 15 c0 -11 12 -15 45 -15 33 0 45 4 45 15 0 11 -12 15 -45 15
-33 0 -45 -4 -45 -15z"/>
</g>
</svg>
