<?xml version="1.0" standalone="no"?>
<!DOCTYPE svg PUBLIC "-//W3C//DTD SVG 20010904//EN"
 "http://www.w3.org/TR/2001/REC-SVG-20010904/DTD/svg10.dtd">
<svg version="1.0" xmlns="http://www.w3.org/2000/svg"
 width="96.000000pt" height="84.000000pt" viewBox="0 0 96.000000 84.000000"
 preserveAspectRatio="xMidYMid meet">
<metadata>
Created by potrace 1.16, written by Peter Selinger 2001-2019
</metadata>
<g transform="translate(0.000000,84.000000) scale(0.100000,-0.100000)"
fill="#000000" stroke="none">
<path d="M0 420 l0 -420 150 0 c93 0 150 4 150 10 0 6 -15 10 -33 10 -39 0
-111 59 -120 98 -8 32 23 79 64 100 40 20 130 129 122 148 -3 8 0 14 6 14 6 0
11 14 11 31 0 42 -16 28 -24 -21 -3 -22 -10 -40 -15 -40 -5 0 -7 9 -4 20 8 30
-13 24 -37 -10 -21 -29 -50 -41 -50 -20 0 6 18 30 41 53 22 23 45 53 51 67 22
58 35 126 27 147 -5 14 -4 25 2 29 6 3 8 18 4 33 -5 21 -4 24 6 14 7 -7 27
-13 44 -13 17 0 37 6 44 13 11 10 13 8 8 -10 -3 -14 1 -24 10 -27 12 -5 13 -9
3 -21 -19 -23 6 -80 56 -131 35 -34 43 -49 39 -67 -4 -12 -2 -34 3 -47 9 -26
6 -50 -7 -50 -4 0 -13 16 -21 35 -8 21 -28 44 -47 55 -44 26 -53 25 -53 -5 0
-20 5 -25 25 -25 21 0 25 -5 25 -29 0 -17 -5 -33 -10 -36 -8 -5 -7 -11 0 -20
7 -8 14 -33 16 -57 6 -51 26 -85 60 -100 17 -8 24 -19 24 -38 0 -35 -28 -90
-45 -90 -8 0 -17 -4 -20 -10 -4 -7 73 -10 224 -10 l231 0 0 420 0 420 -480 0
-480 0 0 -420z"/>
<path d="M360 539 c0 -5 5 -7 10 -4 6 3 10 8 10 11 0 2 -4 4 -10 4 -5 0 -10
-5 -10 -11z"/>
</g>
</svg>
