<?xml version="1.0" standalone="no"?>
<!DOCTYPE svg PUBLIC "-//W3C//DTD SVG 20010904//EN"
 "http://www.w3.org/TR/2001/REC-SVG-20010904/DTD/svg10.dtd">
<svg version="1.0" xmlns="http://www.w3.org/2000/svg"
 width="96.000000pt" height="84.000000pt" viewBox="0 0 96.000000 84.000000"
 preserveAspectRatio="xMidYMid meet">
<metadata>
Created by potrace 1.16, written by Peter Selinger 2001-2019
</metadata>
<g transform="translate(0.000000,84.000000) scale(0.100000,-0.100000)"
fill="#000000" stroke="none">
<path d="M0 420 l0 -420 150 0 c83 0 150 3 150 6 0 3 -16 20 -35 38 -40 38
-45 70 -17 107 10 13 29 49 41 79 13 30 29 65 37 78 10 15 12 28 5 39 -8 15
-12 12 -27 -20 -18 -37 -37 -47 -49 -26 -4 5 1 19 10 29 18 20 12 45 -8 33 -6
-3 -1 8 11 25 13 17 27 34 32 37 6 3 19 37 31 76 17 54 19 75 11 99 -8 20 -8
32 -1 36 6 3 9 14 6 23 -3 13 3 16 35 13 26 -3 45 1 57 12 17 16 18 15 14 -9
-4 -18 -1 -25 11 -25 20 0 21 -16 2 -23 -17 -7 -4 -104 17 -121 26 -21 57 -83
57 -115 0 -23 -10 -42 -34 -67 l-34 -35 13 -49 c8 -30 9 -52 3 -58 -5 -5 -1
-33 13 -71 11 -34 19 -73 16 -87 l-4 -24 223 0 224 0 0 420 0 420 -480 0 -480
0 0 -420z"/>
</g>
</svg>
