<?xml version="1.0" standalone="no"?>
<!DOCTYPE svg PUBLIC "-//W3C//DTD SVG 20010904//EN"
 "http://www.w3.org/TR/2001/REC-SVG-20010904/DTD/svg10.dtd">
<svg version="1.0" xmlns="http://www.w3.org/2000/svg"
 width="96.000000pt" height="84.000000pt" viewBox="0 0 96.000000 84.000000"
 preserveAspectRatio="xMidYMid meet">
<metadata>
Created by potrace 1.16, written by Peter Selinger 2001-2019
</metadata>
<g transform="translate(0.000000,84.000000) scale(0.100000,-0.100000)"
fill="#000000" stroke="none">
<path d="M0 420 l0 -420 135 0 c131 0 135 1 140 23 10 44 27 173 28 222 1 29
9 60 20 75 19 28 22 45 6 34 -8 -4 -9 3 -4 25 5 26 4 31 -12 31 -14 0 -12 3 7
13 19 10 27 24 34 64 9 56 1 123 -15 123 -6 0 -3 7 6 16 8 9 13 24 11 33 -5
13 2 16 35 18 23 0 46 6 52 12 17 17 26 13 20 -9 -4 -14 0 -20 11 -20 18 0 22
-15 6 -25 -15 -9 0 -116 21 -145 22 -32 33 -108 19 -125 -7 -8 -7 -16 -2 -19
5 -3 6 -20 3 -38 -5 -23 -12 -32 -24 -30 -14 2 -14 -3 4 -55 11 -32 17 -68 14
-81 -3 -13 0 -50 6 -83 l12 -59 213 0 214 0 0 420 0 420 -480 0 -480 0 0 -420z"/>
<path d="M470 390 c0 -5 5 -10 10 -10 6 0 10 5 10 10 0 6 -4 10 -10 10 -5 0
-10 -4 -10 -10z"/>
</g>
</svg>
