<?xml version="1.0" standalone="no"?>
<!DOCTYPE svg PUBLIC "-//W3C//DTD SVG 20010904//EN"
 "http://www.w3.org/TR/2001/REC-SVG-20010904/DTD/svg10.dtd">
<svg version="1.0" xmlns="http://www.w3.org/2000/svg"
 width="96.000000pt" height="84.000000pt" viewBox="0 0 96.000000 84.000000"
 preserveAspectRatio="xMidYMid meet">
<metadata>
Created by potrace 1.16, written by Peter Selinger 2001-2019
</metadata>
<g transform="translate(0.000000,84.000000) scale(0.100000,-0.100000)"
fill="#000000" stroke="none">
<path d="M0 420 l0 -420 128 0 c128 0 129 0 140 25 7 14 12 39 12 56 0 16 7
43 15 58 8 16 17 44 20 62 3 19 13 41 22 51 8 9 13 24 10 31 -3 8 0 20 6 26 6
6 12 32 13 59 0 26 4 73 8 104 8 64 -7 124 -33 131 -12 4 -11 5 3 6 15 1 17 7
14 35 -2 19 -1 33 3 30 15 -9 91 15 105 33 14 17 15 16 11 -9 -3 -21 0 -28 13
-28 25 0 31 -11 14 -28 -9 -9 -13 -23 -10 -36 4 -12 9 -43 13 -71 3 -27 10
-58 15 -69 10 -19 -6 -101 -23 -120 -16 -18 -10 -25 24 -28 33 -3 34 -6 21
-66 -3 -16 -10 -22 -19 -18 -19 7 -19 3 5 -68 11 -33 20 -76 20 -97 0 -72 -10
-69 211 -69 l199 0 0 420 0 420 -480 0 -480 0 0 -420z"/>
</g>
</svg>
