<?xml version="1.0" standalone="no"?>
<!DOCTYPE svg PUBLIC "-//W3C//DTD SVG 20010904//EN"
 "http://www.w3.org/TR/2001/REC-SVG-20010904/DTD/svg10.dtd">
<svg version="1.0" xmlns="http://www.w3.org/2000/svg"
 width="96.000000pt" height="84.000000pt" viewBox="0 0 96.000000 84.000000"
 preserveAspectRatio="xMidYMid meet">
<metadata>
Created by potrace 1.16, written by Peter Selinger 2001-2019
</metadata>
<g transform="translate(0.000000,84.000000) scale(0.100000,-0.100000)"
fill="#000000" stroke="none">
<path d="M0 420 l0 -420 130 0 c116 0 131 2 136 18 3 9 13 35 22 56 9 22 15
52 14 67 -3 20 4 36 22 54 14 14 26 35 26 46 0 11 7 22 15 26 13 4 15 21 13
87 -1 44 2 97 6 116 9 41 -19 120 -43 120 -12 0 -12 2 1 13 24 19 28 43 11 67
-15 21 -15 22 4 12 25 -14 88 3 122 32 l24 21 -6 -32 c-6 -32 -5 -33 26 -34
17 0 26 -3 19 -6 -6 -2 -12 -11 -12 -19 0 -8 -5 -14 -11 -14 -7 0 -8 -7 -4
-17 4 -10 15 -56 25 -103 10 -47 23 -100 30 -118 7 -18 10 -45 7 -59 -3 -14
-1 -39 5 -54 14 -40 -7 -113 -31 -106 -16 4 -15 -5 13 -84 l31 -89 182 0 183
0 0 420 0 420 -480 0 -480 0 0 -420z"/>
</g>
</svg>
