<?xml version="1.0" standalone="no"?>
<!DOCTYPE svg PUBLIC "-//W3C//DTD SVG 20010904//EN"
 "http://www.w3.org/TR/2001/REC-SVG-20010904/DTD/svg10.dtd">
<svg version="1.0" xmlns="http://www.w3.org/2000/svg"
 width="96.000000pt" height="84.000000pt" viewBox="0 0 96.000000 84.000000"
 preserveAspectRatio="xMidYMid meet">
<metadata>
Created by potrace 1.16, written by Peter Selinger 2001-2019
</metadata>
<g transform="translate(0.000000,84.000000) scale(0.100000,-0.100000)"
fill="#000000" stroke="none">
<path d="M0 420 l0 -420 143 0 142 0 14 58 c7 31 24 93 38 137 18 56 24 92 20
124 -4 33 0 56 14 83 23 44 25 107 4 134 -8 10 -15 27 -15 37 0 9 -8 17 -17
17 -15 0 -15 1 -1 13 24 19 28 43 11 66 -17 25 -11 40 9 23 22 -18 119 7 145
37 l22 26 1 -37 c0 -33 3 -37 31 -43 l32 -7 -27 -23 -27 -23 26 -102 c14 -56
38 -119 52 -142 36 -53 49 -192 20 -213 -7 -5 -12 -16 -10 -22 3 -7 0 -13 -5
-13 -5 0 -12 -10 -15 -21 -4 -15 -11 -20 -22 -15 -11 4 -15 2 -11 -6 2 -7 10
-30 17 -50 l12 -38 179 0 178 0 0 420 0 420 -480 0 -480 0 0 -420z"/>
</g>
</svg>
