<?xml version="1.0" standalone="no"?>
<!DOCTYPE svg PUBLIC "-//W3C//DTD SVG 20010904//EN"
 "http://www.w3.org/TR/2001/REC-SVG-20010904/DTD/svg10.dtd">
<svg version="1.0" xmlns="http://www.w3.org/2000/svg"
 width="96.000000pt" height="84.000000pt" viewBox="0 0 96.000000 84.000000"
 preserveAspectRatio="xMidYMid meet">
<metadata>
Created by potrace 1.16, written by Peter Selinger 2001-2019
</metadata>
<g transform="translate(0.000000,84.000000) scale(0.100000,-0.100000)"
fill="#000000" stroke="none">
<path d="M0 420 l0 -420 135 0 c100 0 137 3 140 13 54 173 65 219 65 268 0 43
6 65 25 93 19 28 25 50 25 91 0 30 -4 57 -10 60 -5 3 -10 17 -10 31 0 17 -5
24 -19 24 -11 0 -23 5 -26 10 -3 6 -3 10 2 10 4 0 16 14 25 31 16 27 16 33 3
52 -24 35 -19 54 8 29 19 -18 28 -20 62 -12 22 5 54 10 70 10 21 0 38 9 58 32
l28 33 -4 -48 c-4 -44 -3 -48 22 -53 55 -12 56 -15 13 -40 -23 -14 -42 -29
-42 -34 0 -43 44 -207 65 -243 14 -25 27 -53 30 -64 2 -10 11 -36 20 -58 10
-22 21 -53 26 -70 8 -28 7 -29 -7 -10 -15 20 -15 20 -13 0 4 -42 -1 -66 -13
-59 -8 5 -9 2 -5 -9 3 -10 2 -17 -3 -17 -5 0 -12 -11 -16 -25 -3 -14 -12 -25
-20 -25 -8 0 -14 -4 -14 -10 0 -6 63 -10 170 -10 l170 0 0 420 0 420 -480 0
-480 0 0 -420z"/>
<path d="M382 181 c-9 -37 -8 -41 9 -41 14 0 19 7 19 28 0 49 -16 57 -28 13z"/>
<path d="M332 45 c-16 -34 -15 -45 2 -45 21 0 38 27 31 50 -9 27 -19 25 -33
-5z"/>
</g>
</svg>
