<?xml version="1.0" standalone="no"?>
<!DOCTYPE svg PUBLIC "-//W3C//DTD SVG 20010904//EN"
 "http://www.w3.org/TR/2001/REC-SVG-20010904/DTD/svg10.dtd">
<svg version="1.0" xmlns="http://www.w3.org/2000/svg"
 width="96.000000pt" height="84.000000pt" viewBox="0 0 96.000000 84.000000"
 preserveAspectRatio="xMidYMid meet">
<metadata>
Created by potrace 1.16, written by Peter Selinger 2001-2019
</metadata>
<g transform="translate(0.000000,84.000000) scale(0.100000,-0.100000)"
fill="#000000" stroke="none">
<path d="M0 420 l0 -420 170 0 170 0 2 88 c1 48 1 117 0 153 -2 55 1 71 22
102 20 29 25 49 26 104 0 100 -8 130 -36 137 -29 8 -29 13 -5 49 14 22 17 37
10 70 -9 51 -5 57 20 26 17 -22 24 -23 107 -20 86 3 90 4 117 34 l28 32 -5
-52 c-5 -51 -5 -52 27 -59 18 -3 35 -8 40 -11 10 -6 -60 -53 -79 -53 -16 0
-15 -6 2 -179 3 -29 14 -67 25 -85 12 -19 19 -49 19 -79 0 -52 29 -167 42
-167 12 0 10 -22 -7 -54 -8 -15 -15 -30 -15 -32 0 -2 63 -4 140 -4 l140 0 0
420 0 420 -480 0 -480 0 0 -420z"/>
<path d="M417 167 c-11 -28 -8 -85 4 -92 18 -12 21 2 12 57 -6 38 -11 48 -16
35z"/>
</g>
</svg>
