<?xml version="1.0" standalone="no"?>
<!DOCTYPE svg PUBLIC "-//W3C//DTD SVG 20010904//EN"
 "http://www.w3.org/TR/2001/REC-SVG-20010904/DTD/svg10.dtd">
<svg version="1.0" xmlns="http://www.w3.org/2000/svg"
 width="96.000000pt" height="84.000000pt" viewBox="0 0 96.000000 84.000000"
 preserveAspectRatio="xMidYMid meet">
<metadata>
Created by potrace 1.16, written by Peter Selinger 2001-2019
</metadata>
<g transform="translate(0.000000,84.000000) scale(0.100000,-0.100000)"
fill="#000000" stroke="none">
<path d="M0 420 l0 -420 174 0 c156 0 175 2 181 18 9 23 6 188 -5 216 -9 25
12 95 33 111 20 14 30 95 22 171 -6 52 -11 64 -25 64 -10 0 -26 3 -34 6 -14 6
-13 11 8 39 19 25 22 35 13 44 -9 9 -9 14 2 20 9 6 11 19 7 42 l-7 34 25 -30
c25 -29 26 -29 118 -26 84 2 96 5 120 28 l27 26 -5 -49 -6 -50 43 -13 44 -13
-56 -27 -57 -26 4 -117 c4 -97 8 -124 25 -153 17 -28 22 -54 23 -126 1 -75 4
-93 19 -104 14 -10 17 -21 12 -49 l-7 -36 131 0 131 0 0 420 0 420 -480 0
-480 0 0 -420z"/>
</g>
</svg>
