<?xml version="1.0" standalone="no"?>
<!DOCTYPE svg PUBLIC "-//W3C//DTD SVG 20010904//EN"
 "http://www.w3.org/TR/2001/REC-SVG-20010904/DTD/svg10.dtd">
<svg version="1.0" xmlns="http://www.w3.org/2000/svg"
 width="96.000000pt" height="84.000000pt" viewBox="0 0 96.000000 84.000000"
 preserveAspectRatio="xMidYMid meet">
<metadata>
Created by potrace 1.16, written by Peter Selinger 2001-2019
</metadata>
<g transform="translate(0.000000,84.000000) scale(0.100000,-0.100000)"
fill="#000000" stroke="none">
<path d="M0 420 l0 -420 480 0 480 0 0 298 0 297 -35 -40 c-19 -22 -34 -47
-35 -56 0 -8 -6 -23 -13 -33 -11 -16 -14 -15 -40 12 -16 16 -47 63 -70 103
-46 81 -54 86 -154 88 -44 1 -53 -2 -53 -16 0 -10 -3 -35 -6 -55 -6 -33 -3
-40 30 -71 22 -19 41 -49 47 -70 5 -20 13 -53 18 -72 9 -37 4 -109 -10 -136
-5 -9 -27 -26 -50 -38 -55 -29 -86 -21 -148 37 -75 72 -91 161 -37 211 16 15
22 30 19 44 -4 18 -3 19 6 7 10 -13 12 -13 21 0 5 8 10 31 10 50 0 19 3 52 6
72 6 34 5 37 -22 44 -42 10 -54 23 -54 58 0 38 7 49 45 70 30 16 30 16 -45 15
-41 -1 -91 1 -110 4 -19 3 -90 8 -157 11 l-123 5 0 -419z"/>
</g>
</svg>
