<?xml version="1.0" standalone="no"?>
<!DOCTYPE svg PUBLIC "-//W3C//DTD SVG 20010904//EN"
 "http://www.w3.org/TR/2001/REC-SVG-20010904/DTD/svg10.dtd">
<svg version="1.0" xmlns="http://www.w3.org/2000/svg"
 width="96.000000pt" height="84.000000pt" viewBox="0 0 96.000000 84.000000"
 preserveAspectRatio="xMidYMid meet">
<metadata>
Created by potrace 1.16, written by Peter Selinger 2001-2019
</metadata>
<g transform="translate(0.000000,84.000000) scale(0.100000,-0.100000)"
fill="#000000" stroke="none">
<path d="M0 420 l0 -420 174 0 c127 0 176 3 183 12 5 8 6 64 2 138 -9 142 0
186 37 200 21 8 24 16 24 58 0 27 -3 77 -6 111 l-7 61 -34 0 -35 0 21 34 c12
19 18 41 15 50 -3 9 -1 16 5 16 8 0 10 12 6 38 l-6 37 23 -26 c23 -24 29 -26
119 -25 87 1 96 3 117 26 l24 25 -6 -47 -6 -47 41 -11 c36 -10 46 -30 15 -30
-8 0 -19 -7 -26 -15 -7 -8 -24 -15 -37 -15 -21 0 -24 -4 -19 -24 3 -13 9 -70
12 -127 5 -73 13 -116 26 -143 12 -23 18 -50 15 -65 -5 -27 10 -128 21 -146 4
-5 7 -17 8 -25 1 -8 2 -25 3 -37 1 -23 3 -23 126 -23 l125 0 0 420 0 420 -480
0 -480 0 0 -420z"/>
</g>
</svg>
