<?xml version="1.0" standalone="no"?>
<!DOCTYPE svg PUBLIC "-//W3C//DTD SVG 20010904//EN"
 "http://www.w3.org/TR/2001/REC-SVG-20010904/DTD/svg10.dtd">
<svg version="1.0" xmlns="http://www.w3.org/2000/svg"
 width="96.000000pt" height="84.000000pt" viewBox="0 0 96.000000 84.000000"
 preserveAspectRatio="xMidYMid meet">
<metadata>
Created by potrace 1.16, written by Peter Selinger 2001-2019
</metadata>
<g transform="translate(0.000000,84.000000) scale(0.100000,-0.100000)"
fill="#000000" stroke="none">
<path d="M0 420 l0 -420 174 0 c135 0 176 3 185 14 9 10 7 16 -5 27 -11 9 -14
22 -9 45 3 18 6 71 6 117 0 91 21 144 60 154 21 6 24 36 12 156 l-6 67 -33 0
c-39 0 -41 5 -14 40 13 18 16 28 8 37 -7 9 -6 14 5 18 11 5 13 14 7 41 -10 42
-6 42 26 5 23 -27 26 -28 66 -19 24 5 63 7 88 5 38 -5 49 -2 71 20 l27 25 -5
-45 -5 -45 43 -15 44 -15 -27 -10 c-14 -6 -29 -16 -33 -21 -3 -6 -17 -11 -31
-11 -24 0 -25 -2 -20 -42 4 -24 8 -84 10 -135 3 -54 11 -103 20 -121 8 -16 15
-52 14 -80 0 -57 10 -111 24 -129 5 -6 8 -17 7 -25 -1 -7 -1 -23 0 -35 1 -23
3 -23 126 -23 l125 0 0 420 0 420 -480 0 -480 0 0 -420z"/>
</g>
</svg>
