<?xml version="1.0" standalone="no"?>
<!DOCTYPE svg PUBLIC "-//W3C//DTD SVG 20010904//EN"
 "http://www.w3.org/TR/2001/REC-SVG-20010904/DTD/svg10.dtd">
<svg version="1.0" xmlns="http://www.w3.org/2000/svg"
 width="96.000000pt" height="84.000000pt" viewBox="0 0 96.000000 84.000000"
 preserveAspectRatio="xMidYMid meet">
<metadata>
Created by potrace 1.16, written by Peter Selinger 2001-2019
</metadata>
<g transform="translate(0.000000,84.000000) scale(0.100000,-0.100000)"
fill="#000000" stroke="none">
<path d="M0 420 l0 -420 168 0 c148 0 172 2 207 20 22 11 45 20 52 20 7 0 13
5 13 10 0 13 -2 13 -51 -7 -40 -16 -42 -15 -56 3 -9 13 -12 30 -7 54 7 40 13
86 18 149 4 47 30 90 63 106 27 11 37 71 24 138 -5 27 -6 57 -4 68 5 16 0 19
-37 19 l-42 0 21 34 c12 19 18 41 15 50 -4 9 -1 16 6 16 8 0 10 13 5 43 l-6
42 28 -31 c28 -31 29 -31 122 -29 83 2 97 5 112 24 9 11 19 21 21 21 2 0 2
-20 0 -44 -4 -43 -3 -44 32 -56 42 -14 46 -25 11 -34 -14 -4 -25 -11 -25 -16
0 -6 -11 -10 -25 -10 l-25 0 6 -127 c4 -78 13 -142 22 -163 8 -20 15 -69 16
-116 0 -47 6 -87 13 -96 8 -9 10 -28 6 -51 l-6 -37 132 0 131 0 0 420 0 420
-480 0 -480 0 0 -420z"/>
<path d="M421 164 c0 -11 3 -14 6 -6 3 7 2 16 -1 19 -3 4 -6 -2 -5 -13z"/>
</g>
</svg>
