<?xml version="1.0" standalone="no"?>
<!DOCTYPE svg PUBLIC "-//W3C//DTD SVG 20010904//EN"
 "http://www.w3.org/TR/2001/REC-SVG-20010904/DTD/svg10.dtd">
<svg version="1.0" xmlns="http://www.w3.org/2000/svg"
 width="96.000000pt" height="84.000000pt" viewBox="0 0 96.000000 84.000000"
 preserveAspectRatio="xMidYMid meet">
<metadata>
Created by potrace 1.16, written by Peter Selinger 2001-2019
</metadata>
<g transform="translate(0.000000,84.000000) scale(0.100000,-0.100000)"
fill="#000000" stroke="none">
<path d="M0 420 l0 -420 175 0 c106 0 175 4 175 10 0 5 20 15 45 22 33 10 42
17 36 27 -7 11 -15 11 -41 2 -84 -29 -101 -6 -75 99 9 36 18 77 19 92 4 36 46
97 72 104 28 7 37 58 28 153 l-7 70 -39 6 -39 7 25 33 c23 30 24 34 10 46 -14
12 -14 14 2 19 15 6 18 15 16 46 l-3 39 25 -30 c14 -16 25 -32 26 -35 0 -3 45
-5 99 -5 95 -1 100 0 115 25 l15 25 1 -40 c0 -47 7 -60 38 -69 27 -9 28 -23 2
-31 -11 -3 -20 -12 -20 -20 0 -8 -12 -15 -27 -17 l-28 -3 3 -115 c2 -90 7
-127 23 -168 17 -42 19 -58 11 -77 -16 -35 -9 -115 12 -131 14 -10 15 -17 7
-33 -26 -49 -21 -51 124 -51 l135 0 0 420 0 420 -480 0 -480 0 0 -420z"/>
<path d="M415 187 c-4 -10 -5 -21 -1 -24 10 -10 18 4 13 24 -4 17 -4 17 -12 0z"/>
</g>
</svg>
