<?xml version="1.0" standalone="no"?>
<!DOCTYPE svg PUBLIC "-//W3C//DTD SVG 20010904//EN"
 "http://www.w3.org/TR/2001/REC-SVG-20010904/DTD/svg10.dtd">
<svg version="1.0" xmlns="http://www.w3.org/2000/svg"
 width="96.000000pt" height="84.000000pt" viewBox="0 0 96.000000 84.000000"
 preserveAspectRatio="xMidYMid meet">
<metadata>
Created by potrace 1.16, written by Peter Selinger 2001-2019
</metadata>
<g transform="translate(0.000000,84.000000) scale(0.100000,-0.100000)"
fill="#000000" stroke="none">
<path d="M0 420 l0 -420 161 0 c146 0 166 2 210 22 40 19 48 26 43 43 -9 28
-7 27 -58 14 -25 -6 -52 -9 -61 -5 -27 10 -17 73 26 158 5 10 9 26 9 37 0 25
46 80 77 92 22 8 23 13 23 113 l0 105 -40 12 -41 12 27 28 c26 27 26 30 11 47
-23 25 -21 32 7 32 21 0 25 6 28 33 l3 32 17 -32 c17 -31 20 -32 95 -35 43 -2
86 -7 95 -12 12 -6 20 0 32 21 l15 28 1 -26 c0 -37 22 -77 45 -84 19 -6 19 -6
-3 -17 -12 -6 -21 -18 -20 -27 2 -11 -6 -17 -23 -19 -22 -3 -28 -9 -33 -40
-13 -79 -7 -168 15 -218 21 -45 21 -53 9 -126 -13 -84 -10 -108 16 -108 17 0
16 -22 -1 -62 -7 -17 3 -18 134 -18 l141 0 0 420 0 420 -480 0 -480 0 0 -420z"/>
<path d="M400 190 c0 -5 5 -10 10 -10 6 0 10 5 10 10 0 6 -4 10 -10 10 -5 0
-10 -4 -10 -10z"/>
<path d="M451 54 c0 -11 3 -14 6 -6 3 7 2 16 -1 19 -3 4 -6 -2 -5 -13z"/>
</g>
</svg>
