<?xml version="1.0" standalone="no"?>
<!DOCTYPE svg PUBLIC "-//W3C//DTD SVG 20010904//EN"
 "http://www.w3.org/TR/2001/REC-SVG-20010904/DTD/svg10.dtd">
<svg version="1.0" xmlns="http://www.w3.org/2000/svg"
 width="96.000000pt" height="84.000000pt" viewBox="0 0 96.000000 84.000000"
 preserveAspectRatio="xMidYMid meet">
<metadata>
Created by potrace 1.16, written by Peter Selinger 2001-2019
</metadata>
<g transform="translate(0.000000,84.000000) scale(0.100000,-0.100000)"
fill="#000000" stroke="none">
<path d="M0 420 l0 -420 156 0 c141 0 161 2 205 22 l49 23 0 52 c0 29 -2 53
-4 53 -2 0 -33 -11 -69 -25 -62 -23 -66 -23 -81 -6 -16 18 -23 81 -8 81 11 0
62 78 62 94 0 16 26 40 65 60 29 15 30 18 40 126 l10 110 -28 10 c-16 5 -33 7
-38 4 -19 -11 -8 11 18 38 l27 28 -22 16 c-31 21 -27 32 11 36 24 2 33 8 35
26 4 29 20 28 28 -2 5 -21 14 -24 87 -35 44 -6 84 -16 88 -22 4 -6 14 1 27 18
l21 28 1 -28 c0 -30 17 -65 39 -83 12 -9 11 -12 -3 -17 -9 -4 -16 -15 -14 -24
2 -14 -5 -19 -28 -21 -29 -3 -32 -6 -38 -49 -9 -69 -7 -161 4 -168 5 -3 16
-29 25 -57 13 -45 13 -56 0 -95 -21 -62 -20 -100 5 -108 24 -8 26 -32 4 -63
l-15 -22 150 0 151 0 0 420 0 420 -480 0 -480 0 0 -420z"/>
</g>
</svg>
