<?xml version="1.0" standalone="no"?>
<!DOCTYPE svg PUBLIC "-//W3C//DTD SVG 20010904//EN"
 "http://www.w3.org/TR/2001/REC-SVG-20010904/DTD/svg10.dtd">
<svg version="1.0" xmlns="http://www.w3.org/2000/svg"
 width="96.000000pt" height="84.000000pt" viewBox="0 0 96.000000 84.000000"
 preserveAspectRatio="xMidYMid meet">
<metadata>
Created by potrace 1.16, written by Peter Selinger 2001-2019
</metadata>
<g transform="translate(0.000000,84.000000) scale(0.100000,-0.100000)"
fill="#000000" stroke="none">
<path d="M0 420 l0 -420 138 0 c100 1 144 5 162 15 14 8 37 14 52 15 15 0 29
3 31 8 2 4 0 34 -4 67 -5 33 -11 81 -14 107 l-6 46 -34 -9 c-22 -6 -41 -6 -53
0 -10 5 -43 13 -73 17 -127 16 -119 70 26 179 45 34 53 37 96 31 28 -4 50 -2
54 4 3 5 9 33 12 62 3 29 10 59 16 66 13 16 -7 32 -40 32 -29 0 -38 16 -16 29
48 27 48 28 28 50 -23 27 -17 33 23 22 30 -9 33 -7 49 22 9 18 17 28 19 22 1
-5 5 -22 8 -36 4 -19 15 -29 44 -37 22 -7 56 -23 76 -37 44 -30 45 -30 61 -8
11 14 12 12 13 -18 1 -19 1 -44 2 -56 0 -13 5 -23 10 -23 6 0 10 -7 10 -15 0
-8 -7 -15 -16 -15 -8 0 -12 -5 -8 -11 4 -8 -3 -9 -24 -4 -19 4 -33 2 -37 -5
-11 -17 -6 -148 7 -195 5 -22 12 -80 14 -129 2 -49 7 -97 11 -105 7 -16 9 -27
12 -68 1 -23 2 -23 156 -23 l155 0 0 420 0 420 -480 0 -480 0 0 -420z"/>
<path d="M305 401 c-6 -10 25 -31 45 -31 15 0 3 17 -20 30 -12 6 -21 7 -25 1z"/>
</g>
</svg>
