<?xml version="1.0" standalone="no"?>
<!DOCTYPE svg PUBLIC "-//W3C//DTD SVG 20010904//EN"
 "http://www.w3.org/TR/2001/REC-SVG-20010904/DTD/svg10.dtd">
<svg version="1.0" xmlns="http://www.w3.org/2000/svg"
 width="96.000000pt" height="84.000000pt" viewBox="0 0 96.000000 84.000000"
 preserveAspectRatio="xMidYMid meet">
<metadata>
Created by potrace 1.16, written by Peter Selinger 2001-2019
</metadata>
<g transform="translate(0.000000,84.000000) scale(0.100000,-0.100000)"
fill="#000000" stroke="none">
<path d="M0 420 l0 -420 140 0 c131 0 140 1 140 19 0 15 10 21 40 26 33 6 40
11 40 30 0 27 -16 42 -23 23 -8 -20 -7 52 2 104 4 27 6 48 4 48 -2 0 -15 -7
-28 -16 -13 -9 -29 -13 -34 -10 -6 4 -18 3 -28 -2 -23 -12 -82 -33 -111 -39
-36 -9 -49 13 -62 104 -11 75 -10 95 5 157 20 84 45 116 91 116 25 0 34 -5 39
-21 7 -22 -7 -39 -32 -39 -7 0 -15 -12 -18 -27 -4 -16 -10 -35 -14 -43 -4 -8
-2 -46 4 -83 l10 -68 24 18 c13 10 33 28 44 41 12 13 32 22 49 22 16 0 38 5
48 10 18 10 17 14 -19 70 -43 66 -44 89 -5 119 22 17 22 18 3 34 -25 22 -24
33 6 53 22 14 25 22 19 47 -6 28 -5 29 19 23 20 -5 27 -2 32 14 8 26 25 26 25
0 0 -18 7 -20 72 -20 57 0 121 -11 146 -26 2 -1 -2 -11 -9 -22 -12 -18 -10
-23 14 -42 15 -12 27 -25 27 -29 0 -4 -19 -11 -42 -17 -42 -9 -43 -10 -46 -52
-5 -63 15 -177 39 -223 15 -31 19 -50 14 -83 -6 -37 4 -101 31 -198 5 -16 21
-18 155 -18 l149 0 0 420 0 420 -480 0 -480 0 0 -420z"/>
<path d="M345 527 c-9 -22 3 -73 15 -61 5 5 5 25 1 44 -6 28 -10 31 -16 17z"/>
</g>
</svg>
