<?xml version="1.0" standalone="no"?>
<!DOCTYPE svg PUBLIC "-//W3C//DTD SVG 20010904//EN"
 "http://www.w3.org/TR/2001/REC-SVG-20010904/DTD/svg10.dtd">
<svg version="1.0" xmlns="http://www.w3.org/2000/svg"
 width="96.000000pt" height="84.000000pt" viewBox="0 0 96.000000 84.000000"
 preserveAspectRatio="xMidYMid meet">
<metadata>
Created by potrace 1.16, written by Peter Selinger 2001-2019
</metadata>
<g transform="translate(0.000000,84.000000) scale(0.100000,-0.100000)"
fill="#000000" stroke="none">
<path d="M0 420 l0 -420 146 0 c94 0 143 4 139 10 -3 6 5 14 18 19 29 11 41
49 27 86 -7 19 -5 38 10 78 25 65 25 75 0 52 -11 -10 -28 -19 -37 -20 -21 -2
-40 -9 -104 -37 -65 -28 -83 -20 -103 50 -9 32 -19 79 -22 106 -5 33 -16 60
-36 81 -34 39 -36 77 -8 123 17 28 23 32 36 21 13 -10 13 -14 -1 -29 -14 -15
-13 -18 8 -27 26 -12 40 -38 57 -105 7 -27 15 -48 19 -48 4 0 47 41 96 91 82
82 88 91 73 103 -24 17 -23 49 1 70 16 15 18 22 8 37 -15 25 -1 37 20 16 16
-16 18 -15 38 3 14 13 46 24 86 31 35 5 77 12 92 15 30 6 31 3 10 -53 -3 -8
11 -13 44 -15 l48 -4 -31 -13 c-22 -8 -30 -17 -27 -29 2 -10 -4 -26 -15 -35
-16 -15 -18 -29 -15 -118 1 -56 7 -107 12 -113 26 -33 39 -77 39 -129 0 -32 8
-93 18 -137 l19 -80 148 0 147 0 0 420 0 420 -480 0 -480 0 0 -420z"/>
<path d="M310 448 c-25 -29 -56 -66 -70 -82 l-25 -30 25 8 c14 4 50 12 80 18
30 6 58 16 62 22 11 17 9 86 -2 86 -5 0 -10 7 -10 15 0 25 -13 17 -60 -37z"/>
</g>
</svg>
