<?xml version="1.0" standalone="no"?>
<!DOCTYPE svg PUBLIC "-//W3C//DTD SVG 20010904//EN"
 "http://www.w3.org/TR/2001/REC-SVG-20010904/DTD/svg10.dtd">
<svg version="1.0" xmlns="http://www.w3.org/2000/svg"
 width="96.000000pt" height="84.000000pt" viewBox="0 0 96.000000 84.000000"
 preserveAspectRatio="xMidYMid meet">
<metadata>
Created by potrace 1.16, written by Peter Selinger 2001-2019
</metadata>
<g transform="translate(0.000000,84.000000) scale(0.100000,-0.100000)"
fill="#000000" stroke="none">
<path d="M0 678 c0 -151 1 -161 16 -140 13 18 19 21 30 11 13 -10 12 -14 -2
-30 -15 -16 -15 -19 -2 -19 24 0 47 -33 72 -102 13 -35 31 -79 40 -96 l16 -32
39 26 c22 14 42 32 45 39 2 7 18 16 35 20 40 9 50 23 63 94 l11 60 -31 32
c-37 38 -40 61 -11 81 19 12 20 17 10 37 -16 29 -9 36 17 20 18 -11 24 -10 40
4 11 10 50 23 88 29 38 5 74 14 80 19 17 14 25 -2 18 -38 l-6 -33 48 -1 c46
-1 47 -2 22 -12 -18 -7 -28 -18 -28 -31 0 -11 -9 -29 -20 -41 -18 -19 -18 -24
-5 -67 7 -26 17 -80 21 -120 4 -40 13 -86 20 -103 7 -16 10 -52 8 -80 -3 -30
3 -80 14 -125 l19 -75 146 -3 147 -3 0 421 0 420 -480 0 -480 0 0 -162z"/>
<path d="M0 212 l0 -212 143 0 c91 0 147 4 154 11 6 6 26 14 45 18 24 5 34 13
36 29 3 17 0 20 -13 15 -16 -5 -16 -4 -1 25 17 33 21 56 8 48 -5 -3 -6 22 -4
55 2 32 1 59 -2 59 -4 0 -17 -9 -29 -20 -12 -11 -27 -18 -33 -16 -7 3 -18 -2
-25 -10 -6 -8 -17 -13 -23 -11 -6 2 -27 -7 -46 -20 -38 -25 -72 -30 -88 -10
-5 6 -25 55 -42 107 -18 52 -43 106 -56 120 l-24 25 0 -213z"/>
<path d="M386 394 c-8 -20 -4 -25 11 -16 7 4 9 13 4 21 -6 10 -10 9 -15 -5z"/>
</g>
</svg>
