<?xml version="1.0" standalone="no"?>
<!DOCTYPE svg PUBLIC "-//W3C//DTD SVG 20010904//EN"
 "http://www.w3.org/TR/2001/REC-SVG-20010904/DTD/svg10.dtd">
<svg version="1.0" xmlns="http://www.w3.org/2000/svg"
 width="96.000000pt" height="84.000000pt" viewBox="0 0 96.000000 84.000000"
 preserveAspectRatio="xMidYMid meet">
<metadata>
Created by potrace 1.16, written by Peter Selinger 2001-2019
</metadata>
<g transform="translate(0.000000,84.000000) scale(0.100000,-0.100000)"
fill="#000000" stroke="none">
<path d="M0 685 c0 -128 2 -155 14 -155 24 0 30 -22 11 -37 -17 -11 -14 -17 7
-14 11 1 58 -60 58 -76 0 -18 81 -163 91 -163 4 0 25 24 47 53 36 46 48 55 94
66 95 23 89 19 82 59 -4 20 -10 39 -13 42 -4 3 -15 24 -25 48 -11 24 -25 41
-31 38 -16 -6 -40 38 -30 54 4 6 18 15 31 20 23 9 23 10 9 51 -20 55 -19 56 9
30 22 -21 26 -21 48 -8 12 8 53 18 90 22 37 3 70 11 73 16 11 17 26 9 21 -11
-3 -11 -8 -28 -11 -37 -4 -15 2 -19 31 -21 47 -3 66 -15 36 -22 -13 -3 -22 -9
-22 -13 1 -5 -9 -21 -23 -35 l-25 -27 24 -115 c14 -67 32 -126 44 -142 11 -15
20 -35 20 -45 1 -10 7 -29 15 -43 16 -28 20 -64 6 -55 -6 3 -9 -29 -9 -80 l2
-85 143 0 143 0 0 420 0 420 -480 0 -480 0 0 -155z"/>
<path d="M0 192 l0 -192 138 0 c103 1 142 4 156 15 10 8 39 17 63 21 32 5 43
10 39 20 -3 8 -8 37 -11 66 -3 29 -8 73 -11 97 l-6 43 -22 -21 c-12 -12 -28
-21 -34 -21 -11 0 -34 -10 -72 -32 -64 -36 -82 -42 -98 -32 -9 6 -40 54 -67
107 -28 53 -56 102 -63 109 -9 9 -12 -28 -12 -180z"/>
</g>
</svg>
