<?xml version="1.0" standalone="no"?>
<!DOCTYPE svg PUBLIC "-//W3C//DTD SVG 20010904//EN"
 "http://www.w3.org/TR/2001/REC-SVG-20010904/DTD/svg10.dtd">
<svg version="1.0" xmlns="http://www.w3.org/2000/svg"
 width="96.000000pt" height="84.000000pt" viewBox="0 0 96.000000 84.000000"
 preserveAspectRatio="xMidYMid meet">
<metadata>
Created by potrace 1.16, written by Peter Selinger 2001-2019
</metadata>
<g transform="translate(0.000000,84.000000) scale(0.100000,-0.100000)"
fill="#000000" stroke="none">
<path d="M0 681 c0 -130 3 -161 15 -171 14 -12 14 -15 0 -30 -19 -21 -19 -34
0 -27 17 7 65 -46 65 -72 0 -10 23 -48 51 -85 l51 -68 39 44 c21 23 39 48 39
55 0 10 47 28 126 49 9 2 9 18 -1 61 -16 73 -37 121 -51 116 -6 -2 -17 4 -24
12 -12 14 -10 20 15 39 29 23 30 41 9 101 -6 19 -5 19 16 -2 21 -19 26 -20 49
-9 14 7 51 16 83 19 31 3 68 13 82 22 23 15 26 15 26 2 0 -9 -4 -27 -10 -41
-9 -25 -8 -26 23 -27 17 0 41 -4 52 -9 18 -7 16 -9 -13 -16 -22 -4 -31 -11
-28 -20 3 -7 -6 -21 -19 -31 l-23 -18 22 -125 c16 -90 31 -142 54 -187 34 -67
38 -78 22 -68 -6 4 -6 -5 1 -22 6 -15 19 -59 29 -98 l18 -70 121 -3 121 -3 0
421 0 420 -480 0 -480 0 0 -159z"/>
<path d="M0 175 l0 -175 144 0 c117 0 145 3 149 15 4 8 27 17 57 21 42 5 50
10 45 23 -4 9 -9 52 -12 96 -3 44 -9 87 -14 95 -5 9 -9 10 -9 3 0 -11 -73 -53
-91 -53 -5 0 -25 -11 -45 -25 -68 -46 -94 -31 -175 106 -23 38 -43 69 -45 69
-2 0 -4 -79 -4 -175z"/>
</g>
</svg>
