<?xml version="1.0" standalone="no"?>
<!DOCTYPE svg PUBLIC "-//W3C//DTD SVG 20010904//EN"
 "http://www.w3.org/TR/2001/REC-SVG-20010904/DTD/svg10.dtd">
<svg version="1.0" xmlns="http://www.w3.org/2000/svg"
 width="96.000000pt" height="84.000000pt" viewBox="0 0 96.000000 84.000000"
 preserveAspectRatio="xMidYMid meet">
<metadata>
Created by potrace 1.16, written by Peter Selinger 2001-2019
</metadata>
<g transform="translate(0.000000,84.000000) scale(0.100000,-0.100000)"
fill="#000000" stroke="none">
<path d="M0 680 c0 -111 4 -166 13 -180 10 -17 9 -22 -2 -29 -16 -10 -7 -61
10 -61 8 0 7 5 -1 15 -7 9 -10 18 -7 21 10 10 57 -47 57 -69 0 -10 23 -47 52
-81 29 -33 54 -63 56 -66 5 -7 81 83 82 96 0 6 24 20 53 30 l52 19 3 64 c2 36
-2 69 -7 74 -6 6 -11 20 -11 31 0 10 -3 16 -6 13 -8 -8 -44 11 -44 23 0 5 9
12 20 15 28 9 34 43 15 88 -17 42 -14 46 16 18 18 -17 25 -18 52 -6 18 7 57
16 87 19 35 5 63 15 78 28 24 24 26 20 13 -34 l-9 -38 44 0 c48 0 59 -14 19
-24 -14 -4 -22 -11 -19 -19 3 -8 -7 -19 -22 -25 -19 -9 -24 -17 -19 -30 4 -9
11 -62 17 -117 6 -59 18 -117 30 -142 12 -27 21 -70 23 -115 2 -40 8 -89 14
-108 6 -19 11 -47 11 -62 l0 -28 145 0 145 0 0 420 0 420 -480 0 -480 0 0
-160z"/>
<path d="M400 400 c0 -19 3 -21 12 -12 9 9 9 15 0 24 -9 9 -12 7 -12 -12z"/>
<path d="M0 172 l0 -172 133 0 c113 0 139 3 172 20 22 11 50 20 62 20 l23 0
-20 40 c-13 25 -20 59 -20 93 0 53 -1 54 -25 49 -14 -2 -28 -8 -31 -13 -3 -5
-12 -9 -20 -9 -9 0 -30 -11 -47 -24 -56 -42 -70 -41 -111 5 -21 22 -55 68 -77
101 l-39 61 0 -171z"/>
</g>
</svg>
