<?xml version="1.0" standalone="no"?>
<!DOCTYPE svg PUBLIC "-//W3C//DTD SVG 20010904//EN"
 "http://www.w3.org/TR/2001/REC-SVG-20010904/DTD/svg10.dtd">
<svg version="1.0" xmlns="http://www.w3.org/2000/svg"
 width="96.000000pt" height="84.000000pt" viewBox="0 0 96.000000 84.000000"
 preserveAspectRatio="xMidYMid meet">
<metadata>
Created by potrace 1.16, written by Peter Selinger 2001-2019
</metadata>
<g transform="translate(0.000000,84.000000) scale(0.100000,-0.100000)"
fill="#000000" stroke="none">
<path d="M0 790 c0 -42 3 -50 19 -50 10 0 24 7 31 15 18 21 40 19 40 -5 0 -15
7 -20 25 -20 18 0 28 -7 35 -24 6 -18 20 -26 57 -33 l48 -10 -32 -12 c-18 -7
-30 -18 -27 -25 3 -7 -7 -18 -22 -24 -19 -9 -24 -17 -19 -30 3 -9 10 -60 14
-112 6 -73 14 -107 34 -147 23 -45 26 -60 21 -112 -5 -43 -2 -80 12 -130 l18
-71 353 0 353 0 0 420 0 420 -480 0 -480 0 0 -50z"/>
</g>
</svg>
