<?xml version="1.0" standalone="no"?>
<!DOCTYPE svg PUBLIC "-//W3C//DTD SVG 20010904//EN"
 "http://www.w3.org/TR/2001/REC-SVG-20010904/DTD/svg10.dtd">
<svg version="1.0" xmlns="http://www.w3.org/2000/svg"
 width="96.000000pt" height="84.000000pt" viewBox="0 0 96.000000 84.000000"
 preserveAspectRatio="xMidYMid meet">
<metadata>
Created by potrace 1.16, written by Peter Selinger 2001-2019
</metadata>
<g transform="translate(0.000000,84.000000) scale(0.100000,-0.100000)"
fill="#000000" stroke="none">
<path d="M0 420 l0 -420 155 0 c85 0 155 1 155 3 0 2 -15 41 -34 88 -31 75
-34 91 -29 151 5 63 7 67 27 62 17 -4 25 1 34 20 6 14 23 32 37 42 22 14 25
23 25 73 0 53 -2 57 -30 69 -35 16 -36 21 -10 52 18 21 19 25 5 40 -23 25 -19
35 35 92 49 52 52 53 106 53 50 0 59 -3 83 -31 14 -17 34 -34 44 -37 21 -8 22
-36 3 -63 -12 -16 -12 -22 1 -46 15 -24 15 -28 0 -42 -10 -10 -14 -28 -12 -49
2 -17 6 -57 9 -87 2 -30 11 -69 20 -85 17 -35 29 -182 15 -190 -5 -4 -9 -31
-9 -61 l0 -54 165 0 165 0 0 420 0 420 -480 0 -480 0 0 -420z"/>
<path d="M590 656 c0 -9 5 -16 10 -16 6 0 10 4 10 9 0 6 -4 13 -10 16 -5 3
-10 -1 -10 -9z"/>
<path d="M334 639 c-3 -6 -2 -15 4 -21 6 -6 11 -2 15 11 5 22 -7 29 -19 10z"/>
<path d="M350 222 c0 -5 -9 -18 -21 -31 -20 -21 -20 -25 -7 -78 22 -92 38 -80
35 26 -1 50 -3 91 -4 91 -2 0 -3 -4 -3 -8z"/>
</g>
</svg>
