<?xml version="1.0" standalone="no"?>
<!DOCTYPE svg PUBLIC "-//W3C//DTD SVG 20010904//EN"
 "http://www.w3.org/TR/2001/REC-SVG-20010904/DTD/svg10.dtd">
<svg version="1.0" xmlns="http://www.w3.org/2000/svg"
 width="96.000000pt" height="84.000000pt" viewBox="0 0 96.000000 84.000000"
 preserveAspectRatio="xMidYMid meet">
<metadata>
Created by potrace 1.16, written by Peter Selinger 2001-2019
</metadata>
<g transform="translate(0.000000,84.000000) scale(0.100000,-0.100000)"
fill="#000000" stroke="none">
<path d="M0 420 l0 -420 155 0 c85 0 155 2 155 4 0 2 -15 41 -34 87 -28 70
-33 93 -29 139 6 79 9 85 30 69 14 -12 17 -12 21 1 3 8 20 30 39 49 30 30 33
39 33 91 0 53 -2 58 -25 64 -29 7 -35 50 -9 60 13 5 13 9 -3 37 -18 31 -18 31
8 52 14 12 33 34 42 49 19 31 84 53 124 43 13 -3 40 -21 59 -40 19 -19 39 -35
44 -35 14 0 12 -34 -2 -65 -9 -19 -9 -28 0 -37 15 -15 15 -48 0 -48 -16 0 -3
-177 16 -215 18 -36 30 -181 16 -190 -6 -3 -10 -31 -10 -61 l0 -54 165 0 165
0 0 420 0 420 -480 0 -480 0 0 -420z"/>
<path d="M596 645 c4 -8 8 -15 10 -15 2 0 4 7 4 15 0 8 -4 15 -10 15 -5 0 -7
-7 -4 -15z"/>
<path d="M341 636 c-9 -10 -8 -16 4 -26 13 -11 15 -8 15 14 0 30 -3 32 -19 12z"/>
<path d="M350 215 c0 -8 -4 -15 -8 -15 -5 0 -14 -10 -20 -22 -9 -18 -9 -34 1
-72 22 -84 37 -69 34 33 -1 50 -3 91 -4 91 -2 0 -3 -7 -3 -15z"/>
</g>
</svg>
