<?xml version="1.0" standalone="no"?>
<!DOCTYPE svg PUBLIC "-//W3C//DTD SVG 20010904//EN"
 "http://www.w3.org/TR/2001/REC-SVG-20010904/DTD/svg10.dtd">
<svg version="1.0" xmlns="http://www.w3.org/2000/svg"
 width="96.000000pt" height="84.000000pt" viewBox="0 0 96.000000 84.000000"
 preserveAspectRatio="xMidYMid meet">
<metadata>
Created by potrace 1.16, written by Peter Selinger 2001-2019
</metadata>
<g transform="translate(0.000000,84.000000) scale(0.100000,-0.100000)"
fill="#000000" stroke="none">
<path d="M0 420 l0 -420 155 0 c85 0 155 2 155 4 0 2 -15 44 -34 92 -33 86
-35 109 -20 182 4 18 9 22 24 17 15 -5 22 0 29 18 5 13 21 31 35 40 24 16 26
24 26 82 0 36 -3 64 -7 63 -17 -3 -43 15 -43 29 0 9 8 22 18 29 14 10 15 15 5
25 -19 19 -16 49 7 73 11 12 33 36 49 54 26 28 36 32 80 32 47 0 54 -3 103
-51 52 -50 52 -51 36 -78 -14 -26 -14 -30 1 -55 15 -25 15 -28 -2 -37 -16 -9
-17 -20 -11 -97 4 -48 13 -99 20 -113 7 -15 15 -58 17 -97 3 -38 7 -74 11 -80
3 -5 -1 -12 -9 -16 -10 -3 -15 -19 -15 -45 0 -73 -6 -71 171 -71 l159 0 0 420
0 420 -480 0 -480 0 0 -420z"/>
<path d="M600 635 c0 -8 2 -15 4 -15 2 0 6 7 10 15 3 8 1 15 -4 15 -6 0 -10
-7 -10 -15z"/>
<path d="M340 626 c0 -8 5 -18 10 -21 6 -3 10 3 10 14 0 12 -4 21 -10 21 -5 0
-10 -6 -10 -14z"/>
<path d="M343 205 c-7 -8 -13 -18 -13 -24 0 -5 -4 -11 -10 -13 -11 -4 18 -128
31 -128 4 0 9 41 11 90 2 50 1 90 -2 90 -3 -1 -11 -7 -17 -15z"/>
</g>
</svg>
