<?xml version="1.0" standalone="no"?>
<!DOCTYPE svg PUBLIC "-//W3C//DTD SVG 20010904//EN"
 "http://www.w3.org/TR/2001/REC-SVG-20010904/DTD/svg10.dtd">
<svg version="1.0" xmlns="http://www.w3.org/2000/svg"
 width="96.000000pt" height="84.000000pt" viewBox="0 0 96.000000 84.000000"
 preserveAspectRatio="xMidYMid meet">
<metadata>
Created by potrace 1.16, written by Peter Selinger 2001-2019
</metadata>
<g transform="translate(0.000000,84.000000) scale(0.100000,-0.100000)"
fill="#000000" stroke="none">
<path d="M0 420 l0 -420 155 0 c85 0 155 2 155 5 0 3 -14 42 -31 86 -25 65
-30 89 -25 132 3 28 5 58 6 65 0 8 8 10 25 6 17 -4 25 -2 25 6 0 7 16 30 35
51 30 33 35 46 35 87 0 43 -3 48 -29 60 -30 13 -33 37 -7 54 8 5 7 13 -1 28
-18 28 -16 47 6 62 10 7 25 27 34 44 18 35 59 54 114 54 27 0 44 -10 85 -50
52 -51 52 -51 39 -86 -9 -26 -10 -39 -2 -47 16 -16 14 -47 -3 -47 -20 0 -10
-151 14 -210 21 -51 29 -172 13 -192 -7 -7 -9 -33 -6 -60 l6 -48 158 0 159 0
0 420 0 420 -480 0 -480 0 0 -420z"/>
<path d="M600 635 c0 -8 5 -15 10 -15 6 0 10 7 10 15 0 8 -4 15 -10 15 -5 0
-10 -7 -10 -15z"/>
<path d="M340 623 c0 -5 5 -15 10 -23 8 -12 10 -11 10 8 0 12 -4 22 -10 22 -5
0 -10 -3 -10 -7z"/>
<path d="M350 206 c0 -8 -9 -21 -19 -28 -19 -13 -19 -17 -4 -76 9 -36 20 -61
27 -59 12 4 16 177 4 177 -5 0 -8 -6 -8 -14z"/>
</g>
</svg>
