<?xml version="1.0" standalone="no"?>
<!DOCTYPE svg PUBLIC "-//W3C//DTD SVG 20010904//EN"
 "http://www.w3.org/TR/2001/REC-SVG-20010904/DTD/svg10.dtd">
<svg version="1.0" xmlns="http://www.w3.org/2000/svg"
 width="96.000000pt" height="84.000000pt" viewBox="0 0 96.000000 84.000000"
 preserveAspectRatio="xMidYMid meet">
<metadata>
Created by potrace 1.16, written by Peter Selinger 2001-2019
</metadata>
<g transform="translate(0.000000,84.000000) scale(0.100000,-0.100000)"
fill="#000000" stroke="none">
<path d="M0 420 l0 -420 125 0 125 0 -20 50 c-11 27 -26 65 -34 84 -8 20 -12
52 -10 78 9 75 13 88 29 82 8 -4 30 11 53 35 34 35 40 50 45 99 6 57 6 58 -23
69 -34 13 -37 24 -13 48 13 14 14 21 5 36 -17 26 -15 46 6 61 9 7 24 26 32 42
18 36 64 56 126 56 41 0 51 -5 88 -43 45 -45 61 -83 46 -107 -6 -10 -4 -23 7
-39 14 -22 14 -25 -1 -37 -14 -10 -16 -24 -10 -95 3 -46 12 -99 21 -117 16
-38 24 -171 10 -189 -5 -7 -6 -35 -2 -63 l7 -50 174 0 174 0 0 420 0 420 -480
0 -480 0 0 -420z"/>
<path d="M280 620 c0 -5 5 -10 10 -10 6 0 10 5 10 10 0 6 -4 10 -10 10 -5 0
-10 -4 -10 -10z"/>
</g>
</svg>
