<?xml version="1.0" standalone="no"?>
<!DOCTYPE svg PUBLIC "-//W3C//DTD SVG 20010904//EN"
 "http://www.w3.org/TR/2001/REC-SVG-20010904/DTD/svg10.dtd">
<svg version="1.0" xmlns="http://www.w3.org/2000/svg"
 width="96.000000pt" height="84.000000pt" viewBox="0 0 96.000000 84.000000"
 preserveAspectRatio="xMidYMid meet">
<metadata>
Created by potrace 1.16, written by Peter Selinger 2001-2019
</metadata>
<g transform="translate(0.000000,84.000000) scale(0.100000,-0.100000)"
fill="#000000" stroke="none">
<path d="M0 420 l0 -420 370 0 c204 0 370 2 370 5 0 3 -12 35 -27 71 l-26 67
37 74 c32 66 41 76 82 93 l45 20 -6 72 c-10 113 -9 113 -61 129 l-47 14 28 33
27 32 -24 19 -23 19 28 11 c17 7 27 18 27 31 0 24 8 25 31 4 15 -13 25 -14 73
-4 l56 11 0 70 0 69 -480 0 -480 0 0 -420z"/>
<path d="M776 141 c-8 -12 4 -71 14 -71 7 0 20 48 20 71 0 12 -27 12 -34 0z"/>
</g>
</svg>
