<?xml version="1.0" standalone="no"?>
<!DOCTYPE svg PUBLIC "-//W3C//DTD SVG 20010904//EN"
 "http://www.w3.org/TR/2001/REC-SVG-20010904/DTD/svg10.dtd">
<svg version="1.0" xmlns="http://www.w3.org/2000/svg"
 width="96.000000pt" height="84.000000pt" viewBox="0 0 96.000000 84.000000"
 preserveAspectRatio="xMidYMid meet">
<metadata>
Created by potrace 1.16, written by Peter Selinger 2001-2019
</metadata>
<g transform="translate(0.000000,84.000000) scale(0.100000,-0.100000)"
fill="#000000" stroke="none">
<path d="M0 420 l0 -420 120 0 c66 0 120 2 120 5 0 3 -12 34 -26 69 l-25 64
38 74 c33 62 46 77 87 98 l48 24 -6 51 c-17 140 -13 131 -62 141 l-45 9 24 35
24 34 -20 17 -21 16 22 7 c16 6 22 15 22 39 l0 31 28 -26 c26 -25 30 -26 87
-16 33 5 77 7 97 4 33 -5 39 -3 52 21 13 25 15 26 16 7 0 -32 45 -75 86 -81
l35 -6 -38 -17 c-37 -17 -38 -18 -14 -27 22 -9 21 -10 -24 -23 l-48 -13 7
-121 c6 -100 10 -124 26 -141 23 -24 41 -107 29 -127 -5 -7 -9 -43 -9 -80 l0
-68 165 0 165 0 0 420 0 420 -480 0 -480 0 0 -420z"/>
<path d="M283 148 c-17 -8 -20 -15 -13 -37 5 -14 14 -45 20 -68 17 -67 30 -51
30 37 0 44 -3 80 -7 79 -5 0 -18 -5 -30 -11z"/>
</g>
</svg>
