<?xml version="1.0" standalone="no"?>
<!DOCTYPE svg PUBLIC "-//W3C//DTD SVG 20010904//EN"
 "http://www.w3.org/TR/2001/REC-SVG-20010904/DTD/svg10.dtd">
<svg version="1.0" xmlns="http://www.w3.org/2000/svg"
 width="96.000000pt" height="84.000000pt" viewBox="0 0 96.000000 84.000000"
 preserveAspectRatio="xMidYMid meet">
<metadata>
Created by potrace 1.16, written by Peter Selinger 2001-2019
</metadata>
<g transform="translate(0.000000,84.000000) scale(0.100000,-0.100000)"
fill="#000000" stroke="none">
<path d="M0 420 l0 -420 121 0 c111 0 121 1 114 18 -4 9 -16 40 -27 68 l-20
51 39 74 c33 63 46 78 86 98 32 17 46 29 43 40 -2 9 -7 50 -11 92 l-7 77 -44
7 c-24 3 -44 9 -44 13 1 4 11 20 25 36 l23 29 -21 18 -22 19 23 6 c17 5 22 14
22 38 l1 31 23 -27 c23 -26 24 -26 100 -15 59 9 82 8 97 -1 17 -11 22 -8 39
20 l20 33 0 -30 c1 -36 17 -59 48 -69 27 -9 28 -23 3 -31 -12 -4 -18 -12 -14
-21 3 -10 -5 -18 -27 -25 l-32 -12 7 -121 c6 -95 11 -125 25 -141 28 -31 45
-98 31 -123 -12 -23 -14 -73 -5 -121 l7 -31 168 0 169 0 0 420 0 420 -480 0
-480 0 0 -420z"/>
<path d="M293 155 c-38 -16 -38 -13 -15 -89 26 -86 38 -81 45 16 3 46 5 84 4
85 -1 1 -17 -5 -34 -12z"/>
</g>
</svg>
