<?xml version="1.0" standalone="no"?>
<!DOCTYPE svg PUBLIC "-//W3C//DTD SVG 20010904//EN"
 "http://www.w3.org/TR/2001/REC-SVG-20010904/DTD/svg10.dtd">
<svg version="1.0" xmlns="http://www.w3.org/2000/svg"
 width="96.000000pt" height="84.000000pt" viewBox="0 0 96.000000 84.000000"
 preserveAspectRatio="xMidYMid meet">
<metadata>
Created by potrace 1.16, written by Peter Selinger 2001-2019
</metadata>
<g transform="translate(0.000000,84.000000) scale(0.100000,-0.100000)"
fill="#000000" stroke="none">
<path d="M0 420 l0 -420 119 0 120 0 -26 69 -25 68 39 74 c31 58 47 78 79 95
45 24 49 37 39 140 -7 77 -7 77 -82 86 -18 2 -17 6 12 44 25 33 25 33 5 44
-26 14 -26 30 0 30 16 0 20 7 20 36 l0 36 25 -30 c24 -29 26 -29 77 -20 29 6
75 7 101 4 47 -5 49 -4 62 27 11 25 14 27 15 11 0 -47 21 -81 53 -91 l32 -10
-27 -13 c-16 -7 -24 -18 -21 -26 3 -9 -6 -18 -25 -25 l-31 -11 3 -119 c3 -102
6 -123 23 -142 29 -32 46 -83 39 -114 -3 -16 -9 -39 -12 -53 -3 -14 -3 -44 1
-67 l6 -43 170 0 169 0 0 420 0 420 -480 0 -480 0 0 -420z"/>
<path d="M277 146 c-17 -13 -17 -17 -1 -80 21 -86 44 -90 44 -8 0 31 3 67 6
80 5 17 2 22 -12 22 -11 0 -27 -7 -37 -14z"/>
</g>
</svg>
