<?xml version="1.0" standalone="no"?>
<!DOCTYPE svg PUBLIC "-//W3C//DTD SVG 20010904//EN"
 "http://www.w3.org/TR/2001/REC-SVG-20010904/DTD/svg10.dtd">
<svg version="1.0" xmlns="http://www.w3.org/2000/svg"
 width="96.000000pt" height="84.000000pt" viewBox="0 0 96.000000 84.000000"
 preserveAspectRatio="xMidYMid meet">
<metadata>
Created by potrace 1.16, written by Peter Selinger 2001-2019
</metadata>
<g transform="translate(0.000000,84.000000) scale(0.100000,-0.100000)"
fill="#000000" stroke="none">
<path d="M0 420 l0 -420 116 0 c89 0 115 3 111 13 -2 6 -13 35 -23 64 l-18 52
40 78 c34 67 45 81 82 97 40 19 42 21 42 65 0 25 -3 69 -6 98 -6 49 -8 52 -43
59 -20 4 -39 7 -43 6 -14 -3 -8 15 12 41 24 30 25 41 4 58 -14 12 -13 14 6 21
19 7 21 14 16 38 -7 38 4 38 32 0 20 -26 25 -28 50 -19 15 6 60 9 101 7 l73
-3 19 35 18 35 1 -40 c0 -49 10 -65 47 -80 28 -12 28 -12 6 -23 -12 -7 -20
-18 -17 -26 3 -9 -6 -18 -26 -25 l-32 -11 3 -122 c2 -111 5 -126 25 -151 30
-36 39 -87 25 -142 -6 -25 -8 -63 -5 -85 l7 -40 168 0 169 0 0 420 0 420 -480
0 -480 0 0 -420z"/>
<path d="M282 146 c-19 -9 -22 -16 -18 -40 15 -73 28 -106 41 -106 12 0 15 16
15 80 0 44 -3 79 -7 79 -5 -1 -18 -7 -31 -13z"/>
</g>
</svg>
