<?xml version="1.0" standalone="no"?>
<!DOCTYPE svg PUBLIC "-//W3C//DTD SVG 20010904//EN"
 "http://www.w3.org/TR/2001/REC-SVG-20010904/DTD/svg10.dtd">
<svg version="1.0" xmlns="http://www.w3.org/2000/svg"
 width="96.000000pt" height="84.000000pt" viewBox="0 0 96.000000 84.000000"
 preserveAspectRatio="xMidYMid meet">
<metadata>
Created by potrace 1.16, written by Peter Selinger 2001-2019
</metadata>
<g transform="translate(0.000000,84.000000) scale(0.100000,-0.100000)"
fill="#000000" stroke="none">
<path d="M0 420 l0 -420 111 0 c102 0 111 1 104 18 -39 95 -39 102 -12 156 14
28 30 63 36 79 7 17 27 35 56 49 44 21 45 23 45 67 0 26 -3 69 -6 98 -7 51 -7
51 -50 62 -24 6 -44 14 -44 17 0 3 9 19 21 35 20 29 21 31 3 50 -17 19 -17 20
5 26 20 5 22 10 17 41 l-5 35 32 -31 32 -31 73 11 c52 8 80 8 97 0 26 -12 37
-4 54 39 l10 24 0 -28 c1 -41 28 -87 51 -87 29 0 32 -16 5 -30 -13 -7 -21 -18
-19 -25 3 -7 -8 -17 -26 -23 l-31 -11 5 -127 c3 -100 8 -129 19 -136 9 -4 23
-31 32 -59 14 -40 15 -56 6 -75 -6 -14 -11 -52 -11 -84 l0 -60 175 0 175 0 0
420 0 420 -480 0 -480 0 0 -420z"/>
<path d="M267 136 c-16 -12 -17 -19 -7 -58 19 -74 21 -78 36 -78 11 0 14 17
14 75 0 79 -7 88 -43 61z"/>
</g>
</svg>
