<?xml version="1.0" standalone="no"?>
<!DOCTYPE svg PUBLIC "-//W3C//DTD SVG 20010904//EN"
 "http://www.w3.org/TR/2001/REC-SVG-20010904/DTD/svg10.dtd">
<svg version="1.0" xmlns="http://www.w3.org/2000/svg"
 width="96.000000pt" height="84.000000pt" viewBox="0 0 96.000000 84.000000"
 preserveAspectRatio="xMidYMid meet">
<metadata>
Created by potrace 1.16, written by Peter Selinger 2001-2019
</metadata>
<g transform="translate(0.000000,84.000000) scale(0.100000,-0.100000)"
fill="#000000" stroke="none">
<path d="M0 825 c0 -10 10 -15 29 -15 16 0 34 7 41 15 11 13 7 15 -29 15 -30
0 -41 -4 -41 -15z"/>
<path d="M180 830 c0 -5 7 -7 15 -4 8 4 15 8 15 10 0 2 -7 4 -15 4 -8 0 -15
-4 -15 -10z"/>
<path d="M0 615 c0 -83 1 -87 18 -73 20 18 77 38 107 38 14 0 28 12 43 39 30
53 21 72 -32 70 -22 0 -62 2 -88 6 l-48 8 0 -88z"/>
<path d="M753 548 c-64 -67 -72 -82 -66 -130 3 -21 2 -38 -3 -38 -5 0 -34 9
-64 21 -30 11 -84 31 -120 43 -36 13 -88 35 -116 49 l-52 26 3 -77 c5 -108 -8
-138 -75 -179 -30 -18 -74 -35 -99 -39 -39 -6 -47 -4 -65 18 -12 13 -34 29
-49 36 -15 6 -32 22 -37 34 -6 15 -9 -34 -9 -144 l-1 -168 480 0 480 0 0 270
c0 221 -2 270 -14 270 -7 0 -40 13 -72 30 -32 16 -61 30 -64 30 -3 0 -29 -24
-57 -52z"/>
</g>
</svg>
