<?xml version="1.0" standalone="no"?>
<!DOCTYPE svg PUBLIC "-//W3C//DTD SVG 20010904//EN"
 "http://www.w3.org/TR/2001/REC-SVG-20010904/DTD/svg10.dtd">
<svg version="1.0" xmlns="http://www.w3.org/2000/svg"
 width="96.000000pt" height="84.000000pt" viewBox="0 0 96.000000 84.000000"
 preserveAspectRatio="xMidYMid meet">
<metadata>
Created by potrace 1.16, written by Peter Selinger 2001-2019
</metadata>
<g transform="translate(0.000000,84.000000) scale(0.100000,-0.100000)"
fill="#000000" stroke="none">
<path d="M0 420 l0 -420 85 0 c47 0 85 1 85 3 0 1 -9 27 -19 56 l-19 54 39 81
c34 72 43 84 84 104 l45 22 -1 63 c0 34 -3 80 -7 102 -7 36 -11 40 -47 47 -21
5 -41 10 -43 13 -3 2 7 19 21 38 24 32 25 34 6 45 -25 16 -24 32 1 32 16 0 20
7 20 35 0 41 11 44 38 11 18 -23 23 -24 121 -21 91 3 105 6 118 24 19 28 33
26 33 -5 0 -36 17 -63 48 -75 26 -10 27 -11 7 -25 -11 -8 -19 -21 -17 -29 1
-7 -11 -18 -28 -23 l-30 -11 0 -122 c0 -114 1 -123 25 -150 32 -39 40 -89 26
-155 -7 -30 -10 -68 -6 -84 l7 -30 184 0 184 0 0 420 0 420 -480 0 -480 0 0
-420z"/>
<path d="M243 132 c-22 -17 -22 -18 -6 -74 9 -32 20 -58 24 -58 8 0 17 140 9
145 -3 2 -15 -4 -27 -13z"/>
</g>
</svg>
