<?xml version="1.0" standalone="no"?>
<!DOCTYPE svg PUBLIC "-//W3C//DTD SVG 20010904//EN"
 "http://www.w3.org/TR/2001/REC-SVG-20010904/DTD/svg10.dtd">
<svg version="1.0" xmlns="http://www.w3.org/2000/svg"
 width="96.000000pt" height="84.000000pt" viewBox="0 0 96.000000 84.000000"
 preserveAspectRatio="xMidYMid meet">
<metadata>
Created by potrace 1.16, written by Peter Selinger 2001-2019
</metadata>
<g transform="translate(0.000000,84.000000) scale(0.100000,-0.100000)"
fill="#000000" stroke="none">
<path d="M0 518 c1 -289 2 -320 15 -290 11 25 27 38 65 54 l50 21 0 118 0 118
-45 7 c-25 3 -47 10 -50 13 -2 4 9 21 24 38 l28 31 -31 23 -31 23 41 11 c24 6
39 15 37 22 -2 7 1 22 8 34 l12 23 27 -31 c26 -29 30 -30 134 -35 92 -5 108
-4 116 11 6 9 10 11 10 3 0 -6 11 -22 25 -34 14 -12 25 -27 25 -34 0 -7 8 -17
17 -22 15 -9 14 -11 -5 -23 -18 -12 -19 -14 -5 -25 14 -10 12 -13 -19 -23 -33
-11 -36 -15 -43 -69 -5 -31 -8 -88 -7 -125 1 -57 6 -74 26 -98 35 -41 42 -90
22 -151 -9 -28 -16 -63 -16 -79 l0 -29 265 0 265 0 0 420 0 420 -480 0 -480 0
0 -322z"/>
<path d="M58 93 c-21 -5 -21 -6 -7 -55 8 -30 15 -38 33 -38 19 0 24 7 30 38
10 65 4 71 -56 55z"/>
</g>
</svg>
