<?xml version="1.0" standalone="no"?>
<!DOCTYPE svg PUBLIC "-//W3C//DTD SVG 20010904//EN"
 "http://www.w3.org/TR/2001/REC-SVG-20010904/DTD/svg10.dtd">
<svg version="1.0" xmlns="http://www.w3.org/2000/svg"
 width="96.000000pt" height="84.000000pt" viewBox="0 0 96.000000 84.000000"
 preserveAspectRatio="xMidYMid meet">
<metadata>
Created by potrace 1.16, written by Peter Selinger 2001-2019
</metadata>
<g transform="translate(0.000000,84.000000) scale(0.100000,-0.100000)"
fill="#000000" stroke="none">
<path d="M1 828 c0 -7 8 -31 18 -52 l17 -40 117 -16 c68 -10 127 -24 143 -34
23 -16 25 -23 22 -62 -2 -35 0 -45 15 -50 26 -8 10 -24 -24 -24 -27 0 -29 -2
-29 -42 -1 -24 -7 -54 -15 -68 -23 -40 -20 -164 5 -198 32 -43 36 -110 11
-160 -11 -23 -21 -50 -21 -62 0 -20 4 -20 350 -20 l350 0 0 420 0 420 -480 0
c-378 0 -480 -3 -479 -12z"/>
</g>
</svg>
