<?xml version="1.0" standalone="no"?>
<!DOCTYPE svg PUBLIC "-//W3C//DTD SVG 20010904//EN"
 "http://www.w3.org/TR/2001/REC-SVG-20010904/DTD/svg10.dtd">
<svg version="1.0" xmlns="http://www.w3.org/2000/svg"
 width="96.000000pt" height="84.000000pt" viewBox="0 0 96.000000 84.000000"
 preserveAspectRatio="xMidYMid meet">
<metadata>
Created by potrace 1.16, written by Peter Selinger 2001-2019
</metadata>
<g transform="translate(0.000000,84.000000) scale(0.100000,-0.100000)"
fill="#000000" stroke="none">
<path d="M186 803 c13 -21 41 -48 62 -59 27 -16 40 -32 46 -57 7 -27 17 -39
38 -46 46 -16 30 -41 -28 -41 -17 0 -23 -5 -22 -17 3 -42 -4 -62 -38 -101 -27
-33 -35 -48 -30 -67 3 -13 1 -27 -4 -30 -6 -4 -22 -30 -37 -58 -14 -29 -29
-54 -33 -57 -4 -3 -9 -15 -12 -27 -6 -22 19 -59 82 -122 16 -16 35 -50 42 -75
l12 -46 267 0 267 0 36 42 c21 24 36 52 36 67 0 35 34 89 65 103 29 13 33 38
7 38 -18 0 -82 69 -82 89 0 6 -9 15 -20 21 -20 11 -20 11 1 40 24 32 20 60 -9
60 -11 0 -25 7 -32 15 -16 20 -98 75 -111 75 -17 0 -34 49 -21 62 8 8 7 14 -5
23 -15 11 -12 17 28 58 25 25 57 68 72 96 l26 51 -314 0 -314 0 25 -37z"/>
</g>
</svg>
