<?xml version="1.0" standalone="no"?>
<!DOCTYPE svg PUBLIC "-//W3C//DTD SVG 20010904//EN"
 "http://www.w3.org/TR/2001/REC-SVG-20010904/DTD/svg10.dtd">
<svg version="1.0" xmlns="http://www.w3.org/2000/svg"
 width="96.000000pt" height="84.000000pt" viewBox="0 0 96.000000 84.000000"
 preserveAspectRatio="xMidYMid meet">
<metadata>
Created by potrace 1.16, written by Peter Selinger 2001-2019
</metadata>
<g transform="translate(0.000000,84.000000) scale(0.100000,-0.100000)"
fill="#000000" stroke="none">
<path d="M202 810 c5 -17 23 -37 39 -46 19 -9 32 -25 35 -44 5 -23 14 -30 48
-39 22 -6 48 -15 56 -21 13 -9 13 -11 0 -20 -8 -6 -32 -13 -53 -16 -27 -5 -36
-11 -33 -20 4 -8 9 -22 13 -31 5 -12 2 -15 -9 -11 -11 5 -14 1 -10 -18 3 -18
-5 -33 -32 -60 -40 -40 -42 -45 -23 -75 10 -17 9 -22 -5 -30 -10 -6 -18 -17
-18 -24 0 -9 -10 -15 -22 -15 -16 0 -19 -3 -10 -8 10 -7 10 -13 0 -33 -27 -50
-27 -50 -63 -35 -18 8 -36 12 -39 8 -19 -19 3 -56 84 -142 50 -52 93 -103 96
-112 5 -16 25 -18 223 -18 l218 0 42 45 c45 49 49 62 25 79 -24 18 -8 43 53
83 49 32 53 38 35 44 -11 4 -23 16 -26 26 -3 11 -22 37 -41 58 -32 34 -34 40
-20 55 24 26 18 48 -20 65 -19 10 -37 26 -41 38 -9 29 -32 50 -48 44 -8 -3
-22 3 -32 14 -13 15 -20 16 -31 8 -7 -7 -16 -9 -19 -6 -8 8 26 68 50 89 33 27
7 21 -31 -8 -19 -14 -37 -23 -40 -20 -16 16 96 206 122 206 8 0 21 -13 27 -30
l13 -30 22 40 21 40 -283 0 -284 0 11 -30z"/>
<path d="M642 753 c-11 -16 -27 -43 -36 -61 l-17 -33 39 20 c37 19 52 42 52
84 0 25 -16 21 -38 -10z"/>
</g>
</svg>
