<?xml version="1.0" standalone="no"?>
<!DOCTYPE svg PUBLIC "-//W3C//DTD SVG 20010904//EN"
 "http://www.w3.org/TR/2001/REC-SVG-20010904/DTD/svg10.dtd">
<svg version="1.0" xmlns="http://www.w3.org/2000/svg"
 width="96.000000pt" height="84.000000pt" viewBox="0 0 96.000000 84.000000"
 preserveAspectRatio="xMidYMid meet">
<metadata>
Created by potrace 1.16, written by Peter Selinger 2001-2019
</metadata>
<g transform="translate(0.000000,84.000000) scale(0.100000,-0.100000)"
fill="#000000" stroke="none">
<path d="M201 813 c5 -16 23 -36 39 -45 21 -12 30 -25 30 -42 0 -21 7 -26 50
-36 64 -15 83 -36 45 -50 -14 -5 -34 -10 -43 -10 -28 0 -42 -14 -32 -30 13
-20 12 -33 0 -25 -6 4 -10 -7 -10 -27 0 -24 -8 -41 -30 -61 -20 -19 -28 -23
-23 -11 4 12 3 15 -5 10 -17 -10 -15 -38 5 -65 16 -23 15 -25 -5 -42 -12 -9
-22 -22 -22 -28 0 -6 -7 -11 -16 -11 -11 0 -14 -5 -10 -16 3 -8 -1 -29 -10
-46 -12 -24 -20 -29 -37 -24 -69 19 -67 20 -67 -8 0 -18 15 -43 46 -76 25 -27
43 -54 39 -59 -3 -6 0 -8 8 -5 9 3 31 -16 58 -50 l44 -55 226 -1 c223 0 226 0
251 23 14 13 33 36 43 51 17 26 18 29 2 38 -28 15 -19 36 32 75 53 40 57 47
41 66 -44 55 -60 76 -60 82 0 4 -7 13 -16 20 -13 9 -14 16 -5 33 15 28 14 62
-2 62 -20 0 -55 33 -66 63 -8 21 -17 27 -40 27 -17 0 -31 6 -35 15 -4 11 -13
14 -31 9 -14 -3 -25 -3 -25 0 0 11 24 50 50 81 26 31 10 23 -37 -19 -22 -19
-23 -19 -23 -1 0 19 69 145 98 178 23 26 40 21 47 -15 l7 -32 19 39 c11 21 19
40 19 42 0 2 -126 3 -279 3 l-280 0 10 -27z"/>
<path d="M637 734 c-20 -32 -35 -59 -33 -61 2 -2 15 2 30 8 33 16 62 71 48 95
-7 13 -15 6 -45 -42z"/>
</g>
</svg>
