<?xml version="1.0" standalone="no"?>
<!DOCTYPE svg PUBLIC "-//W3C//DTD SVG 20010904//EN"
 "http://www.w3.org/TR/2001/REC-SVG-20010904/DTD/svg10.dtd">
<svg version="1.0" xmlns="http://www.w3.org/2000/svg"
 width="96.000000pt" height="84.000000pt" viewBox="0 0 96.000000 84.000000"
 preserveAspectRatio="xMidYMid meet">
<metadata>
Created by potrace 1.16, written by Peter Selinger 2001-2019
</metadata>
<g transform="translate(0.000000,84.000000) scale(0.100000,-0.100000)"
fill="#000000" stroke="none">
<path d="M190 829 c0 -6 15 -25 33 -43 18 -17 38 -43 45 -58 6 -16 17 -28 24
-28 32 0 88 -22 88 -35 0 -13 -56 -35 -89 -35 -8 0 -11 -6 -7 -15 3 -8 9 -22
12 -30 4 -11 2 -13 -9 -10 -11 5 -13 0 -9 -20 3 -19 -3 -34 -24 -56 -18 -19
-30 -25 -35 -18 -12 20 -8 -45 4 -70 10 -19 9 -25 -1 -29 -7 -2 -18 -15 -23
-29 -6 -17 -14 -23 -25 -19 -12 5 -15 2 -10 -9 6 -16 -18 -85 -29 -85 -3 0
-22 7 -42 15 -46 19 -43 20 -43 -17 0 -26 13 -45 72 -105 40 -40 84 -86 98
-103 l24 -30 241 0 241 0 26 28 c41 44 51 69 32 80 -25 14 -9 47 42 84 24 17
43 34 42 37 -17 33 -52 81 -59 81 -5 0 -9 6 -9 14 0 7 -10 20 -22 29 -23 14
-23 15 -4 35 13 15 16 29 12 47 -3 13 -10 24 -14 24 -32 -5 -62 22 -62 57 0
14 -4 22 -10 19 -5 -3 -10 -1 -10 5 0 6 -10 8 -24 4 -19 -4 -27 0 -36 16 -9
16 -15 19 -23 11 -6 -6 -17 -11 -24 -11 -17 0 14 67 42 93 11 10 13 15 5 11
-8 -4 -25 -16 -37 -27 -38 -34 -39 -9 -3 60 63 119 120 165 120 97 0 -28 15
-32 23 -6 2 9 8 25 12 35 7 16 -10 17 -274 17 -200 0 -281 -3 -281 -11z"/>
<path d="M641 744 c-18 -30 -31 -57 -28 -60 10 -10 53 18 65 43 13 30 16 73 4
73 -4 0 -22 -25 -41 -56z"/>
</g>
</svg>
