<?xml version="1.0" standalone="no"?>
<!DOCTYPE svg PUBLIC "-//W3C//DTD SVG 20010904//EN"
 "http://www.w3.org/TR/2001/REC-SVG-20010904/DTD/svg10.dtd">
<svg version="1.0" xmlns="http://www.w3.org/2000/svg"
 width="96.000000pt" height="84.000000pt" viewBox="0 0 96.000000 84.000000"
 preserveAspectRatio="xMidYMid meet">
<metadata>
Created by potrace 1.16, written by Peter Selinger 2001-2019
</metadata>
<g transform="translate(0.000000,84.000000) scale(0.100000,-0.100000)"
fill="#000000" stroke="none">
<path d="M187 823 c3 -10 21 -32 40 -49 18 -18 33 -38 33 -46 0 -9 20 -21 47
-29 63 -20 68 -44 14 -60 -36 -11 -40 -15 -35 -36 4 -14 2 -23 -5 -23 -6 0
-11 -14 -11 -30 0 -20 -10 -41 -30 -62 -34 -36 -37 -53 -12 -81 16 -19 16 -20
-6 -34 -12 -9 -22 -22 -22 -29 0 -8 -7 -14 -16 -14 -9 0 -14 -6 -12 -12 3 -7
-3 -26 -12 -43 -15 -26 -23 -30 -54 -28 -33 2 -36 0 -36 -23 0 -18 26 -53 93
-125 l92 -99 231 0 232 0 31 35 c31 36 39 59 22 69 -17 11 1 45 40 81 l39 35
-36 53 c-20 28 -44 60 -52 70 -14 15 -13 19 1 35 25 28 21 49 -18 83 -19 17
-35 40 -35 51 0 10 -4 17 -9 14 -5 -3 -11 1 -15 9 -3 8 -12 12 -20 9 -9 -3
-20 3 -28 15 -9 14 -19 19 -35 15 -22 -6 -22 -5 -12 27 7 19 19 40 27 46 9 7
13 15 10 18 -3 3 -17 -4 -31 -16 -19 -14 -27 -16 -27 -7 0 18 84 160 105 178
14 12 17 10 22 -8 5 -22 23 -31 23 -13 0 5 3 16 6 25 6 14 -22 16 -270 16
-258 0 -275 -1 -269 -17z"/>
<path d="M647 751 c-33 -60 -33 -63 -4 -50 13 6 29 25 35 43 26 72 6 76 -31 7z"/>
</g>
</svg>
