<?xml version="1.0" standalone="no"?>
<!DOCTYPE svg PUBLIC "-//W3C//DTD SVG 20010904//EN"
 "http://www.w3.org/TR/2001/REC-SVG-20010904/DTD/svg10.dtd">
<svg version="1.0" xmlns="http://www.w3.org/2000/svg"
 width="96.000000pt" height="84.000000pt" viewBox="0 0 96.000000 84.000000"
 preserveAspectRatio="xMidYMid meet">
<metadata>
Created by potrace 1.16, written by Peter Selinger 2001-2019
</metadata>
<g transform="translate(0.000000,84.000000) scale(0.100000,-0.100000)"
fill="#000000" stroke="none">
<path d="M180 825 c0 -8 16 -30 35 -49 19 -20 35 -40 35 -45 0 -6 18 -20 39
-31 54 -27 58 -37 21 -58 -24 -13 -29 -22 -25 -39 3 -13 1 -23 -5 -23 -5 0
-10 -9 -10 -21 0 -20 -34 -77 -54 -91 -5 -3 -1 -22 11 -44 l20 -39 -29 -40
c-16 -22 -39 -56 -51 -75 -13 -19 -33 -36 -45 -38 -38 -6 -25 -33 58 -127 44
-50 80 -93 80 -97 0 -5 101 -8 224 -8 l224 0 23 37 c13 20 22 49 21 63 -1 17
9 41 28 65 16 21 30 40 30 43 0 2 -19 32 -41 65 -41 60 -42 62 -25 90 24 42
20 57 -25 117 -44 59 -87 99 -106 100 -16 0 -17 44 -3 70 8 16 8 18 -5 14 -8
-4 -15 -3 -15 1 0 20 84 165 98 168 9 3 -101 5 -245 6 -225 1 -263 -1 -263
-14z"/>
</g>
</svg>
