<?xml version="1.0" standalone="no"?>
<!DOCTYPE svg PUBLIC "-//W3C//DTD SVG 20010904//EN"
 "http://www.w3.org/TR/2001/REC-SVG-20010904/DTD/svg10.dtd">
<svg version="1.0" xmlns="http://www.w3.org/2000/svg"
 width="96.000000pt" height="84.000000pt" viewBox="0 0 96.000000 84.000000"
 preserveAspectRatio="xMidYMid meet">
<metadata>
Created by potrace 1.16, written by Peter Selinger 2001-2019
</metadata>
<g transform="translate(0.000000,84.000000) scale(0.100000,-0.100000)"
fill="#000000" stroke="none">
<path d="M176 823 c-4 -10 5 -32 24 -59 16 -23 30 -46 30 -52 0 -5 9 -17 20
-27 30 -27 27 -101 -7 -170 l-28 -56 24 -45 24 -45 -52 -75 c-47 -67 -51 -78
-38 -92 27 -32 127 -183 127 -193 0 -6 74 -8 192 -7 l191 3 29 69 c35 85 35
113 3 175 l-26 48 21 52 c11 28 20 60 20 69 0 10 -28 62 -62 116 l-62 98 18
89 c9 49 19 96 22 104 5 13 -24 15 -229 15 -211 0 -236 -2 -241 -17z"/>
</g>
</svg>
