<?xml version="1.0" standalone="no"?>
<!DOCTYPE svg PUBLIC "-//W3C//DTD SVG 20010904//EN"
 "http://www.w3.org/TR/2001/REC-SVG-20010904/DTD/svg10.dtd">
<svg version="1.0" xmlns="http://www.w3.org/2000/svg"
 width="96.000000pt" height="84.000000pt" viewBox="0 0 96.000000 84.000000"
 preserveAspectRatio="xMidYMid meet">
<metadata>
Created by potrace 1.16, written by Peter Selinger 2001-2019
</metadata>
<g transform="translate(0.000000,84.000000) scale(0.100000,-0.100000)"
fill="#000000" stroke="none">
<path d="M195 829 c-4 -6 -4 -13 -1 -16 3 -3 2 -11 -4 -18 -11 -13 -2 -55 12
-55 6 0 7 -7 4 -16 -4 -9 -1 -23 6 -31 6 -8 7 -13 2 -12 -23 4 -22 -3 4 -29
22 -22 27 -33 21 -49 -5 -15 -3 -23 7 -27 11 -4 12 -11 3 -33 -15 -40 -13
-106 5 -140 14 -28 13 -33 -14 -91 -28 -60 -29 -62 -10 -72 11 -6 20 -19 20
-29 0 -10 7 -24 15 -31 8 -7 15 -21 15 -31 0 -11 5 -19 10 -19 6 0 10 -11 10
-25 0 -18 4 -23 15 -19 11 5 15 -1 15 -24 0 -63 -3 -62 171 -62 181 0 165 -9
194 103 18 67 18 71 0 124 -16 47 -17 62 -7 112 18 86 15 103 -28 197 -38 83
-40 92 -43 196 l-2 108 -207 0 c-136 0 -209 -4 -213 -11z"/>
</g>
</svg>
