<?xml version="1.0" standalone="no"?>
<!DOCTYPE svg PUBLIC "-//W3C//DTD SVG 20010904//EN"
 "http://www.w3.org/TR/2001/REC-SVG-20010904/DTD/svg10.dtd">
<svg version="1.0" xmlns="http://www.w3.org/2000/svg"
 width="96.000000pt" height="84.000000pt" viewBox="0 0 96.000000 84.000000"
 preserveAspectRatio="xMidYMid meet">
<metadata>
Created by potrace 1.16, written by Peter Selinger 2001-2019
</metadata>
<g transform="translate(0.000000,84.000000) scale(0.100000,-0.100000)"
fill="#000000" stroke="none">
<path d="M217 834 c8 -4 6 -16 -9 -42 -13 -24 -16 -38 -9 -40 9 -3 8 -8 -1
-20 -10 -12 -10 -16 -1 -19 10 -4 10 -9 0 -26 -7 -12 -16 -25 -22 -30 -6 -4
-3 -11 7 -17 9 -6 15 -17 12 -25 -4 -8 1 -17 9 -21 9 -3 13 -13 9 -26 -4 -17
-1 -19 15 -14 18 6 20 1 21 -65 1 -39 7 -80 13 -91 6 -12 9 -41 6 -65 -4 -35
-2 -43 9 -39 10 4 14 -4 14 -28 0 -22 6 -36 16 -40 12 -4 14 -13 10 -32 -5
-18 -3 -24 5 -19 8 6 9 -2 4 -26 l-7 -34 22 20 23 20 -5 -67 c-3 -38 -2 -65 3
-62 5 3 9 -2 9 -10 0 -14 20 -16 139 -16 l140 0 10 53 c6 29 9 145 7 262 l-3
210 -36 109 c-20 60 -40 131 -43 157 l-7 49 -186 -1 c-102 0 -181 -3 -174 -5z"/>
</g>
</svg>
