<?xml version="1.0" standalone="no"?>
<!DOCTYPE svg PUBLIC "-//W3C//DTD SVG 20010904//EN"
 "http://www.w3.org/TR/2001/REC-SVG-20010904/DTD/svg10.dtd">
<svg version="1.0" xmlns="http://www.w3.org/2000/svg"
 width="96.000000pt" height="84.000000pt" viewBox="0 0 96.000000 84.000000"
 preserveAspectRatio="xMidYMid meet">
<metadata>
Created by potrace 1.16, written by Peter Selinger 2001-2019
</metadata>
<g transform="translate(0.000000,84.000000) scale(0.100000,-0.100000)"
fill="#000000" stroke="none">
<path d="M246 825 c-13 -10 -15 -15 -6 -15 9 0 8 -6 -5 -20 -10 -11 -14 -20
-10 -20 5 0 1 -6 -10 -13 -13 -10 -15 -16 -6 -21 9 -6 8 -13 -6 -29 -18 -20
-17 -20 5 -14 18 4 14 -2 -18 -32 -36 -33 -39 -39 -26 -50 9 -8 16 -22 16 -32
0 -11 5 -19 10 -19 6 0 8 -11 4 -27 l-7 -28 32 29 c20 20 31 25 32 15 1 -49
20 -151 34 -192 15 -40 20 -46 33 -35 13 11 14 8 8 -20 -6 -25 -4 -32 8 -32
13 0 15 -10 11 -62 l-4 -63 20 24 c25 30 31 24 19 -20 -14 -47 -13 -92 1 -83
8 4 9 -1 4 -17 -17 -52 -17 -54 -1 -35 14 17 16 18 16 3 0 -14 14 -16 119 -16
l119 0 8 232 c13 330 13 319 -34 413 -22 44 -48 106 -57 137 l-16 57 -137 0
c-105 -1 -142 -4 -156 -15z"/>
</g>
</svg>
