<?xml version="1.0" standalone="no"?>
<!DOCTYPE svg PUBLIC "-//W3C//DTD SVG 20010904//EN"
 "http://www.w3.org/TR/2001/REC-SVG-20010904/DTD/svg10.dtd">
<svg version="1.0" xmlns="http://www.w3.org/2000/svg"
 width="96.000000pt" height="84.000000pt" viewBox="0 0 96.000000 84.000000"
 preserveAspectRatio="xMidYMid meet">
<metadata>
Created by potrace 1.16, written by Peter Selinger 2001-2019
</metadata>
<g transform="translate(0.000000,84.000000) scale(0.100000,-0.100000)"
fill="#000000" stroke="none">
<path d="M244 825 c-14 -11 -15 -14 -4 -15 10 0 7 -7 -10 -20 -16 -12 -20 -20
-11 -20 11 0 10 -4 -5 -16 -14 -11 -16 -17 -6 -21 10 -4 9 -9 -4 -24 -16 -18
-16 -19 1 -19 14 0 9 -9 -21 -35 -35 -32 -37 -37 -21 -46 12 -7 16 -17 12 -30
-4 -11 -2 -19 5 -19 7 0 9 -8 5 -21 -6 -18 -5 -19 13 -10 12 6 24 16 27 21 14
22 20 6 23 -58 3 -78 25 -158 41 -154 6 1 11 -9 11 -23 0 -14 4 -25 10 -25 5
0 7 -21 4 -50 -5 -51 1 -60 25 -37 11 10 12 7 6 -13 -5 -14 -9 -50 -10 -80 -1
-30 -7 -65 -14 -77 -8 -16 -8 -23 -1 -23 6 0 13 7 16 15 9 22 23 18 17 -5 -5
-19 0 -20 64 -20 l70 0 12 73 c7 43 20 82 32 97 l20 25 -15 -32 c-17 -34 -21
-85 -8 -97 4 -4 8 -12 8 -17 1 -5 2 -12 3 -15 0 -4 7 -1 15 5 11 9 12 6 8 -14
-4 -24 -3 -25 52 -25 l57 0 -3 297 -3 298 -41 90 c-23 50 -45 105 -49 123 l-7
32 -152 0 c-118 0 -156 -3 -172 -15z"/>
</g>
</svg>
