<?xml version="1.0" standalone="no"?>
<!DOCTYPE svg PUBLIC "-//W3C//DTD SVG 20010904//EN"
 "http://www.w3.org/TR/2001/REC-SVG-20010904/DTD/svg10.dtd">
<svg version="1.0" xmlns="http://www.w3.org/2000/svg"
 width="96.000000pt" height="84.000000pt" viewBox="0 0 96.000000 84.000000"
 preserveAspectRatio="xMidYMid meet">
<metadata>
Created by potrace 1.16, written by Peter Selinger 2001-2019
</metadata>
<g transform="translate(0.000000,84.000000) scale(0.100000,-0.100000)"
fill="#000000" stroke="none">
<path d="M0 832 c0 -12 44 -52 58 -52 7 0 12 14 12 30 0 28 -3 30 -35 30 -19
0 -35 -4 -35 -8z"/>
<path d="M252 828 c-7 -7 -12 -17 -12 -24 0 -6 -7 -17 -15 -24 -8 -7 -13 -15
-10 -19 2 -4 -5 -22 -16 -39 -23 -39 -23 -42 -2 -42 15 0 15 -2 -1 -19 -11
-12 -13 -20 -6 -23 6 -2 -2 -17 -19 -33 -34 -34 -38 -45 -15 -45 11 0 14 -6 9
-20 -3 -11 -2 -27 3 -35 7 -14 11 -13 34 5 34 26 40 25 28 -6 -6 -16 -6 -23 0
-19 6 3 8 -12 6 -39 -5 -64 3 -96 22 -89 11 5 13 3 7 -6 -4 -8 -2 -17 5 -21 8
-5 9 -13 4 -21 -5 -8 -10 -29 -11 -47 -2 -29 0 -31 18 -22 19 11 28 -3 10 -15
-6 -3 -10 -13 -10 -23 1 -9 -3 -28 -7 -41 -5 -17 -4 -22 4 -17 18 11 14 -15
-9 -59 -20 -38 -20 -39 -2 -23 30 27 34 22 18 -22 l-14 -40 77 0 78 0 18 67
c10 38 27 99 37 138 19 67 49 120 49 84 0 -8 -5 -20 -11 -26 -7 -7 -9 -23 -5
-39 5 -20 10 -24 15 -15 6 9 11 1 15 -24 4 -20 16 -44 27 -53 11 -9 19 -29 19
-46 0 -28 1 -29 15 -10 13 18 14 17 15 -19 0 -23 4 -36 10 -32 5 3 10 -1 10
-9 0 -9 7 -16 15 -16 10 0 15 11 16 38 l1 37 10 -37 c12 -47 32 -51 25 -6 -3
18 -11 134 -17 258 -15 311 -19 335 -75 428 -25 42 -48 87 -51 100 -6 22 -9
22 -153 22 -101 0 -151 -4 -159 -12z"/>
</g>
</svg>
