<?xml version="1.0" standalone="no"?>
<!DOCTYPE svg PUBLIC "-//W3C//DTD SVG 20010904//EN"
 "http://www.w3.org/TR/2001/REC-SVG-20010904/DTD/svg10.dtd">
<svg version="1.0" xmlns="http://www.w3.org/2000/svg"
 width="96.000000pt" height="84.000000pt" viewBox="0 0 96.000000 84.000000"
 preserveAspectRatio="xMidYMid meet">
<metadata>
Created by potrace 1.16, written by Peter Selinger 2001-2019
</metadata>
<g transform="translate(0.000000,84.000000) scale(0.100000,-0.100000)"
fill="#000000" stroke="none">
<path d="M0 720 c0 -108 2 -120 19 -130 11 -5 22 -10 25 -10 12 0 5 82 -9 117
-9 20 -12 40 -8 43 13 12 74 30 100 30 25 0 39 20 30 44 -5 12 -12 12 -53 0
-68 -20 -82 -19 -59 6 18 20 17 20 -13 20 l-32 0 0 -120z"/>
<path d="M205 830 c4 -6 11 -8 16 -5 5 4 6 -7 3 -25 -4 -19 -2 -30 5 -30 18 0
13 -24 -15 -74 -14 -25 -21 -46 -15 -46 6 0 4 -11 -5 -27 -16 -33 -18 -53 -4
-53 7 0 7 -6 0 -19 -7 -14 -7 -20 1 -23 7 -2 -1 -18 -17 -38 -19 -22 -24 -35
-16 -38 6 -2 12 -12 12 -23 0 -20 15 -26 25 -9 3 5 15 15 27 21 11 6 18 7 15
2 -3 -5 -8 -29 -11 -55 -4 -35 -2 -47 10 -52 12 -4 13 -10 4 -26 -9 -16 -8
-19 7 -13 16 6 16 5 0 -17 -23 -33 -21 -43 4 -30 19 11 20 10 9 -9 -8 -15 -8
-21 0 -21 7 0 5 -9 -4 -22 -20 -28 -21 -44 -1 -28 8 7 15 11 15 9 -1 -10 -27
-77 -39 -99 l-14 -25 23 20 22 20 -3 -30 c-2 -17 -8 -36 -14 -44 -8 -12 -6
-13 12 -9 13 4 26 2 29 -3 3 -5 29 -9 59 -9 l53 0 48 147 c41 126 89 231 101
219 2 -1 -4 -19 -12 -39 -20 -49 -19 -56 10 -69 14 -6 25 -16 25 -22 0 -16 37
-46 45 -38 4 4 4 -3 1 -15 -4 -12 -2 -24 4 -28 5 -3 10 0 11 7 0 7 5 1 11 -15
5 -15 14 -25 19 -21 5 3 9 -4 9 -15 0 -12 7 -21 15 -21 10 0 15 10 15 33 l1
32 14 -38 c27 -77 32 -60 11 35 -8 35 -27 153 -41 262 -15 110 -31 210 -35
222 -5 13 -43 60 -85 105 -41 45 -75 86 -75 90 0 5 -66 9 -146 9 -96 0 -143
-3 -139 -10z"/>
</g>
</svg>
