<?xml version="1.0" standalone="no"?>
<!DOCTYPE svg PUBLIC "-//W3C//DTD SVG 20010904//EN"
 "http://www.w3.org/TR/2001/REC-SVG-20010904/DTD/svg10.dtd">
<svg version="1.0" xmlns="http://www.w3.org/2000/svg"
 width="96.000000pt" height="84.000000pt" viewBox="0 0 96.000000 84.000000"
 preserveAspectRatio="xMidYMid meet">
<metadata>
Created by potrace 1.16, written by Peter Selinger 2001-2019
</metadata>
<g transform="translate(0.000000,84.000000) scale(0.100000,-0.100000)"
fill="#000000" stroke="none">
<path d="M0 632 c0 -190 2 -210 18 -225 25 -23 62 -22 62 1 0 10 -11 40 -24
66 l-24 47 42 31 c22 16 47 32 54 35 11 5 18 53 7 53 -2 0 -25 -14 -50 -32
-24 -17 -47 -29 -50 -26 -3 3 11 30 32 61 l37 57 23 -22 c12 -11 32 -22 45
-23 13 -1 26 -3 31 -4 4 0 7 -13 7 -27 0 -16 4 -23 11 -18 9 5 10 -1 5 -22
-14 -54 -19 -174 -8 -174 11 0 10 -30 -2 -80 -3 -14 -2 -32 3 -40 8 -12 13
-12 30 4 19 18 19 17 17 -34 -4 -64 3 -102 16 -93 7 4 8 -10 4 -41 -5 -31 -4
-46 4 -46 11 0 8 -49 -4 -68 -3 -6 32 -10 88 -11 l94 -2 21 88 c11 48 25 120
32 158 12 72 35 131 25 65 -5 -33 -2 -37 49 -73 30 -21 55 -42 55 -47 0 -5 7
-7 15 -4 10 4 15 0 15 -11 0 -9 4 -14 9 -11 5 3 11 -1 15 -9 9 -25 26 -17 26
13 l1 27 17 -28 c24 -40 35 -33 16 11 -9 20 -45 129 -79 240 -37 120 -70 211
-81 222 -11 10 -46 32 -79 50 -73 40 -89 53 -127 108 l-29 42 -184 0 -185 0 0
-208z"/>
</g>
</svg>
