<?xml version="1.0" standalone="no"?>
<!DOCTYPE svg PUBLIC "-//W3C//DTD SVG 20010904//EN"
 "http://www.w3.org/TR/2001/REC-SVG-20010904/DTD/svg10.dtd">
<svg version="1.0" xmlns="http://www.w3.org/2000/svg"
 width="96.000000pt" height="84.000000pt" viewBox="0 0 96.000000 84.000000"
 preserveAspectRatio="xMidYMid meet">
<metadata>
Created by potrace 1.16, written by Peter Selinger 2001-2019
</metadata>
<g transform="translate(0.000000,84.000000) scale(0.100000,-0.100000)"
fill="#000000" stroke="none">
<path d="M50 830 c0 -6 7 -25 16 -42 l16 -30 -41 7 -41 7 0 -387 c0 -363 1
-386 18 -383 12 2 19 16 22 43 5 36 6 38 17 20 19 -33 28 -8 28 85 0 79 2 87
17 79 23 -12 48 -1 48 21 0 10 -11 32 -25 48 -14 17 -25 34 -25 40 0 5 16 29
35 53 33 42 45 79 26 79 -4 0 -25 -21 -45 -47 -26 -34 -36 -41 -36 -27 0 26
43 109 55 108 6 -1 22 -4 37 -8 17 -4 32 -1 41 9 18 17 27 10 27 -22 0 -13 6
-26 13 -28 8 -4 13 -31 14 -81 1 -51 7 -84 19 -101 11 -17 15 -38 11 -62 -6
-48 15 -70 37 -38 l15 22 0 -24 c1 -37 24 -105 38 -114 7 -4 13 -19 13 -32 0
-25 1 -25 95 -25 l95 0 0 120 c0 114 1 120 20 120 21 0 52 -15 82 -38 9 -8 21
-11 27 -8 5 3 11 2 13 -3 1 -5 16 -13 32 -17 26 -6 28 -5 21 17 -8 24 -8 24
14 5 29 -26 36 -15 11 16 -11 14 -54 90 -96 169 -114 213 -106 205 -239 244
-48 14 -70 28 -112 70 -43 44 -54 51 -64 39 -24 -29 -32 -15 -26 46 l7 60
-115 0 c-74 0 -115 -4 -115 -10z m191 -123 c-8 -8 -11 -7 -11 4 0 20 13 34 18
19 3 -7 -1 -17 -7 -23z m-41 -11 c0 -11 -19 -15 -25 -6 -3 5 1 10 9 10 9 0 16
-2 16 -4z"/>
</g>
</svg>
