<?xml version="1.0" standalone="no"?>
<!DOCTYPE svg PUBLIC "-//W3C//DTD SVG 20010904//EN"
 "http://www.w3.org/TR/2001/REC-SVG-20010904/DTD/svg10.dtd">
<svg version="1.0" xmlns="http://www.w3.org/2000/svg"
 width="96.000000pt" height="84.000000pt" viewBox="0 0 96.000000 84.000000"
 preserveAspectRatio="xMidYMid meet">
<metadata>
Created by potrace 1.16, written by Peter Selinger 2001-2019
</metadata>
<g transform="translate(0.000000,84.000000) scale(0.100000,-0.100000)"
fill="#000000" stroke="none">
<path d="M0 767 c0 -71 1 -75 37 -110 20 -20 39 -37 42 -37 4 0 14 22 24 49
17 49 74 111 102 111 8 0 21 -13 30 -30 20 -39 47 -156 43 -189 -3 -23 1 -26
34 -29 31 -3 37 -7 35 -23 -2 -12 -10 -25 -18 -29 -11 -8 -10 -12 6 -25 35
-26 62 -28 124 -6 123 43 237 62 349 59 97 -3 107 -5 104 -21 -3 -14 2 -18 20
-15 23 3 23 3 26 186 l2 182 -480 0 -480 0 0 -73z m463 -214 c-4 -16 -6 -41
-5 -57 1 -28 0 -28 -40 -23 -22 3 -44 9 -49 14 -11 11 64 93 85 93 13 0 15 -6
9 -27z"/>
<path d="M400 186 c0 -8 -10 -27 -23 -41 -17 -20 -33 -27 -67 -29 -36 -2 -45
-6 -45 -21 0 -10 -8 -23 -17 -29 -14 -9 -24 -4 -55 26 -34 32 -46 37 -116 45
l-77 9 0 -73 0 -73 480 0 480 0 0 43 c0 44 -6 48 -50 37 -3 0 6 -7 20 -15 42
-24 6 -17 -71 15 -41 16 -83 30 -94 30 -44 0 -269 51 -312 70 -54 24 -53 24
-53 6z"/>
</g>
</svg>
