<?xml version="1.0" standalone="no"?>
<!DOCTYPE svg PUBLIC "-//W3C//DTD SVG 20010904//EN"
 "http://www.w3.org/TR/2001/REC-SVG-20010904/DTD/svg10.dtd">
<svg version="1.0" xmlns="http://www.w3.org/2000/svg"
 width="96.000000pt" height="84.000000pt" viewBox="0 0 96.000000 84.000000"
 preserveAspectRatio="xMidYMid meet">
<metadata>
Created by potrace 1.16, written by Peter Selinger 2001-2019
</metadata>
<g transform="translate(0.000000,84.000000) scale(0.100000,-0.100000)"
fill="#000000" stroke="none">
<path d="M31 809 c-15 -44 -14 -51 14 -93 14 -20 25 -46 25 -57 0 -11 9 -30
20 -41 24 -26 9 -41 -27 -27 -32 12 -63 11 -63 -1 0 -5 17 -10 38 -10 28 -1
33 -3 21 -10 -9 -5 -22 -23 -29 -40 -9 -23 -15 -28 -21 -18 -5 7 -9 -105 -9
-249 l0 -263 105 0 105 0 0 33 c0 17 -7 44 -14 60 -14 26 -14 27 8 21 14 -3
27 1 37 12 12 15 10 20 -23 49 l-37 31 29 62 c22 47 26 63 16 71 -9 8 -18 -2
-34 -41 -26 -60 -37 -58 -28 6 7 47 30 81 47 70 5 -3 25 4 44 15 l35 20 0 -24
c0 -14 9 -30 20 -37 13 -8 20 -24 20 -44 0 -39 25 -112 47 -136 8 -9 13 -26
11 -36 -6 -20 8 -52 21 -52 5 0 12 10 16 23 l8 22 4 -25 c3 -13 14 -35 24 -49
10 -13 19 -30 19 -37 0 -11 24 -14 110 -14 128 0 120 -12 90 129 -16 73 -17
96 -8 102 7 4 17 4 23 0 5 -5 17 -9 25 -9 13 -1 56 -7 87 -13 27 -5 33 1 23
22 -11 20 -11 20 14 4 39 -26 31 -9 -24 54 -28 31 -86 102 -130 157 -86 109
-93 114 -192 114 -56 0 -100 16 -144 53 -36 31 -44 33 -44 13 0 -7 -7 -19 -16
-27 -13 -11 -15 -11 -13 2 6 28 -13 163 -28 201 l-15 38 -98 0 -98 0 -11 -31z
m239 -224 c0 -7 -6 -15 -13 -18 -10 -4 -13 2 -9 19 4 24 22 24 22 -1z m-50
-31 c0 -8 -5 -12 -10 -9 -6 4 -8 11 -5 16 9 14 15 11 15 -7z"/>
</g>
</svg>
