<?xml version="1.0" standalone="no"?>
<!DOCTYPE svg PUBLIC "-//W3C//DTD SVG 20010904//EN"
 "http://www.w3.org/TR/2001/REC-SVG-20010904/DTD/svg10.dtd">
<svg version="1.0" xmlns="http://www.w3.org/2000/svg"
 width="96.000000pt" height="84.000000pt" viewBox="0 0 96.000000 84.000000"
 preserveAspectRatio="xMidYMid meet">
<metadata>
Created by potrace 1.16, written by Peter Selinger 2001-2019
</metadata>
<g transform="translate(0.000000,84.000000) scale(0.100000,-0.100000)"
fill="#000000" stroke="none">
<path d="M128 819 c-10 -5 -18 -20 -18 -33 0 -13 -9 -31 -20 -41 -30 -27 -42
-82 -25 -115 8 -15 22 -30 30 -34 9 -3 15 -12 12 -19 -6 -17 31 -67 51 -67 12
-1 6 -10 -20 -33 -21 -18 -44 -48 -52 -67 l-14 -35 -11 28 c-6 15 -14 39 -17
52 -6 24 -4 25 37 25 56 0 47 7 -25 18 l-58 9 5 -46 c4 -41 15 -93 33 -156 5
-16 4 -18 -7 -7 -22 21 -29 14 -29 -32 0 -27 6 -48 16 -56 23 -20 36 -49 27
-63 -4 -6 -9 -30 -10 -52 -1 -22 -5 -52 -7 -67 l-5 -28 140 0 c135 0 139 1
129 19 -14 27 -13 31 9 31 10 0 22 7 25 16 7 19 -19 54 -40 54 -23 0 -24 17
-4 81 11 35 16 67 11 72 -11 11 -15 4 -31 -55 -21 -80 -38 -55 -24 34 5 29 12
38 33 43 14 4 36 16 49 27 19 18 22 19 22 5 0 -9 11 -24 24 -33 14 -8 23 -21
20 -28 -7 -19 34 -117 58 -138 15 -12 19 -25 15 -44 -3 -17 1 -33 10 -42 16
-16 15 -16 30 18 l11 25 8 -30 c12 -49 28 -54 161 -55 l122 0 -34 97 c-18 54
-36 105 -40 114 -5 14 4 16 65 15 74 -2 90 5 70 29 -15 18 -6 19 22 4 11 -6
-40 50 -113 125 l-133 136 -95 0 c-86 0 -99 3 -147 29 l-52 30 -6 -30 c-8 -39
-24 -37 -22 4 2 38 -26 138 -50 175 -21 33 -95 102 -109 102 -5 0 -18 -5 -27
-11z m164 -331 c-19 -19 -22 -20 -22 -5 0 9 5 17 10 17 6 0 10 8 10 17 0 13 3
14 12 5 10 -10 7 -17 -10 -34z"/>
</g>
</svg>
