<?xml version="1.0" standalone="no"?>
<!DOCTYPE svg PUBLIC "-//W3C//DTD SVG 20010904//EN"
 "http://www.w3.org/TR/2001/REC-SVG-20010904/DTD/svg10.dtd">
<svg version="1.0" xmlns="http://www.w3.org/2000/svg"
 width="96.000000pt" height="84.000000pt" viewBox="0 0 96.000000 84.000000"
 preserveAspectRatio="xMidYMid meet">
<metadata>
Created by potrace 1.16, written by Peter Selinger 2001-2019
</metadata>
<g transform="translate(0.000000,84.000000) scale(0.100000,-0.100000)"
fill="#000000" stroke="none">
<path d="M156 779 c-8 -12 -13 -26 -10 -31 4 -5 -3 -19 -14 -31 -23 -24 -42
-68 -42 -96 0 -10 12 -31 27 -47 15 -16 26 -35 25 -41 -2 -7 2 -13 8 -13 5 0
10 -7 10 -15 0 -8 11 -17 25 -21 14 -3 25 -9 25 -13 0 -3 -18 -23 -40 -45 -28
-27 -40 -47 -40 -67 0 -16 -4 -29 -8 -29 -7 0 -42 85 -42 101 0 4 17 10 38 15
36 7 35 8 -28 15 -40 4 -70 3 -77 -3 -20 -16 -18 -202 2 -218 8 -7 15 -17 15
-22 0 -5 16 -28 35 -51 22 -25 33 -47 30 -57 -4 -8 -8 -36 -10 -62 l-3 -48
124 0 c81 0 124 4 124 11 0 5 4 8 9 5 4 -3 16 3 25 13 17 18 17 20 -3 40 -12
12 -28 21 -36 21 -18 0 -18 0 0 79 10 41 12 68 6 74 -6 6 -14 -13 -22 -52 -6
-33 -16 -61 -20 -61 -11 0 -11 101 0 118 4 8 11 12 14 10 4 -1 16 5 27 14 11
10 25 18 30 18 6 0 10 6 11 13 0 6 4 2 9 -11 5 -12 16 -25 25 -28 8 -4 15 -13
15 -22 0 -38 35 -132 47 -128 8 3 13 -3 13 -15 0 -12 4 -17 11 -13 8 5 9 -6 4
-36 -5 -30 -4 -41 4 -36 6 4 11 2 11 -3 0 -19 17 -12 28 12 l11 22 7 -22 c6
-23 9 -23 155 -23 l149 0 -9 23 c-5 13 -23 54 -40 92 -35 77 -34 100 3 91 14
-3 28 -1 31 4 4 6 10 8 15 5 4 -3 15 -2 24 1 14 5 14 9 4 22 -11 13 -10 14 9
8 23 -7 -23 47 -159 187 l-66 69 -84 -7 c-80 -7 -85 -6 -142 24 -32 17 -59 31
-61 31 -2 0 -6 -11 -9 -25 -8 -33 -22 -32 -20 2 0 15 -9 57 -20 92 -16 50 -33
78 -71 117 -61 63 -87 73 -109 43z m178 -327 c-17 -25 -19 -25 -22 -7 -2 10 1
21 7 23 6 2 11 13 11 25 1 20 1 21 11 4 8 -14 6 -25 -7 -45z m-269 -135 c19
-72 19 -70 -5 -55 -25 16 -33 37 -20 54 8 9 7 21 -4 43 -20 38 -20 50 -1 30 8
-8 22 -41 30 -72z"/>
</g>
</svg>
