<?xml version="1.0" standalone="no"?>
<!DOCTYPE svg PUBLIC "-//W3C//DTD SVG 20010904//EN"
 "http://www.w3.org/TR/2001/REC-SVG-20010904/DTD/svg10.dtd">
<svg version="1.0" xmlns="http://www.w3.org/2000/svg"
 width="96.000000pt" height="84.000000pt" viewBox="0 0 96.000000 84.000000"
 preserveAspectRatio="xMidYMid meet">
<metadata>
Created by potrace 1.16, written by Peter Selinger 2001-2019
</metadata>
<g transform="translate(0.000000,84.000000) scale(0.100000,-0.100000)"
fill="#000000" stroke="none">
<path d="M194 765 c-8 -13 -13 -28 -10 -33 3 -5 -3 -17 -14 -27 -31 -28 -46
-88 -30 -124 7 -17 21 -33 32 -37 10 -3 17 -11 15 -17 -6 -18 33 -69 49 -63
27 10 14 -19 -26 -58 -28 -27 -40 -47 -40 -67 0 -45 -17 -34 -39 26 -12 31
-21 58 -21 60 0 3 12 5 28 5 15 0 32 4 39 8 6 4 -19 7 -55 7 -37 0 -73 -4 -80
-8 -7 -5 -14 -2 -18 7 -15 39 -24 9 -24 -79 l0 -96 35 -30 c19 -17 35 -35 35
-41 0 -5 17 -30 37 -55 29 -35 35 -48 26 -61 -6 -10 -8 -32 -5 -50 l4 -32 138
0 c114 0 139 3 144 15 6 16 -26 55 -45 55 -12 0 -8 66 7 133 4 17 2 27 -5 27
-11 0 -15 -13 -26 -83 -7 -47 -25 -39 -25 11 0 60 10 80 40 87 16 3 31 13 34
21 8 20 24 17 31 -6 3 -11 12 -19 18 -17 8 1 13 -14 14 -42 1 -24 6 -47 11
-50 6 -3 12 -17 14 -31 2 -14 9 -24 16 -22 6 1 12 -7 12 -18 0 -11 5 -20 11
-20 7 0 8 -11 4 -30 l-7 -30 196 0 c108 0 196 2 196 5 0 3 -18 41 -40 85 -22
44 -40 82 -40 85 0 3 9 5 20 5 11 0 20 5 20 11 0 8 5 8 15 -1 11 -9 15 -9 15
-1 0 7 5 9 12 5 8 -5 9 -2 5 9 -4 11 -1 17 8 17 10 0 8 7 -8 23 -12 13 -50 59
-84 103 -97 125 -103 129 -186 130 -115 1 -122 2 -168 34 -51 35 -59 36 -59
13 0 -35 -17 -45 -18 -11 -2 42 -35 139 -63 185 -12 19 -32 39 -45 43 -13 5
-24 16 -24 24 0 12 -27 25 -52 26 -4 0 -15 -11 -24 -25z m179 -331 c-14 -21
-19 -24 -21 -12 -3 18 31 64 36 49 2 -5 -5 -22 -15 -37z m-295 -76 c17 -37 41
-118 35 -118 -4 0 -15 7 -25 17 -20 17 -24 43 -8 43 6 0 1 18 -10 40 -11 22
-17 40 -12 40 5 0 14 -10 20 -22z"/>
</g>
</svg>
