<?xml version="1.0" standalone="no"?>
<!DOCTYPE svg PUBLIC "-//W3C//DTD SVG 20010904//EN"
 "http://www.w3.org/TR/2001/REC-SVG-20010904/DTD/svg10.dtd">
<svg version="1.0" xmlns="http://www.w3.org/2000/svg"
 width="96.000000pt" height="84.000000pt" viewBox="0 0 96.000000 84.000000"
 preserveAspectRatio="xMidYMid meet">
<metadata>
Created by potrace 1.16, written by Peter Selinger 2001-2019
</metadata>
<g transform="translate(0.000000,84.000000) scale(0.100000,-0.100000)"
fill="#000000" stroke="none">
<path d="M245 770 c-9 -10 -15 -26 -12 -34 3 -8 -1 -20 -9 -27 -21 -17 -44
-64 -44 -88 0 -32 21 -70 42 -77 12 -4 17 -11 14 -21 -7 -18 35 -71 52 -65 22
7 12 -13 -28 -57 -22 -24 -40 -53 -40 -65 0 -11 -4 -27 -9 -35 -7 -11 -13 -6
-23 20 -8 19 -18 49 -21 67 -6 31 -6 32 31 34 l37 1 -35 4 c-19 2 -47 8 -62
14 -18 8 -32 7 -47 0 -16 -9 -22 -8 -29 5 -6 11 -16 13 -35 9 -25 -7 -27 -11
-27 -60 0 -68 18 -110 72 -167 73 -77 119 -141 108 -152 -6 -6 -10 -25 -10
-43 l0 -33 145 0 c80 0 145 4 145 8 0 12 -34 42 -48 42 -15 0 -15 10 1 87 8
34 10 68 7 74 -11 16 -17 1 -25 -58 -9 -69 -25 -68 -25 2 0 53 1 54 38 72 20
9 40 21 43 25 14 21 46 -30 59 -92 7 -36 13 -71 13 -77 0 -7 6 -13 14 -13 7 0
13 -7 13 -15 0 -8 5 -15 11 -15 6 0 8 -9 4 -20 -6 -20 -2 -20 194 -20 132 0
201 4 201 10 0 6 -12 34 -27 63 -31 59 -37 88 -17 80 8 -3 14 0 14 6 0 6 6 8
13 5 38 -14 -23 101 -119 228 l-44 56 -77 7 c-113 9 -128 13 -169 46 -20 16
-40 29 -44 29 -3 0 -13 -14 -21 -31 l-15 -31 -1 42 c-1 23 -12 71 -24 107 -17
52 -33 77 -76 120 -59 57 -80 64 -108 33z m178 -346 c-15 -23 -18 -25 -21 -10
-2 10 4 26 15 35 24 24 28 9 6 -25z m-304 -68 c8 -13 12 -29 9 -36 -2 -6 -11
5 -21 24 -18 40 -8 50 12 12z m25 -78 c8 -31 7 -38 -2 -38 -12 0 -32 46 -25
54 12 11 21 6 27 -16z"/>
</g>
</svg>
