<?xml version="1.0" standalone="no"?>
<!DOCTYPE svg PUBLIC "-//W3C//DTD SVG 20010904//EN"
 "http://www.w3.org/TR/2001/REC-SVG-20010904/DTD/svg10.dtd">
<svg version="1.0" xmlns="http://www.w3.org/2000/svg"
 width="96.000000pt" height="84.000000pt" viewBox="0 0 96.000000 84.000000"
 preserveAspectRatio="xMidYMid meet">
<metadata>
Created by potrace 1.16, written by Peter Selinger 2001-2019
</metadata>
<g transform="translate(0.000000,84.000000) scale(0.100000,-0.100000)"
fill="#000000" stroke="none">
<path d="M302 778 c-7 -7 -12 -25 -12 -40 0 -16 -6 -31 -14 -34 -8 -3 -22 -24
-31 -46 -13 -33 -14 -46 -3 -74 6 -19 20 -37 31 -40 10 -3 17 -13 15 -22 -4
-20 39 -72 59 -72 22 0 15 -13 -32 -58 -33 -32 -45 -51 -45 -72 0 -16 -4 -31
-9 -34 -10 -7 -40 64 -44 104 -2 22 3 26 38 31 l40 6 -48 2 c-27 0 -57 6 -68
12 -15 7 -24 7 -35 -2 -11 -9 -18 -9 -30 2 -15 12 -104 20 -104 9 0 -3 19 -48
41 -100 31 -69 53 -104 80 -128 22 -19 39 -38 39 -44 0 -6 16 -31 37 -56 31
-37 34 -47 25 -63 -7 -10 -12 -28 -12 -39 0 -19 6 -20 148 -20 l147 1 -29 25
c-28 24 -28 26 -20 92 5 37 7 75 6 85 -1 10 6 21 16 24 9 4 20 11 23 16 8 11
50 -23 43 -35 -3 -5 0 -34 7 -66 7 -31 12 -65 11 -75 -1 -13 4 -17 15 -13 11
5 14 2 9 -9 -3 -9 1 -18 9 -21 8 -4 12 -10 9 -15 -3 -5 70 -9 170 -9 l176 0 0
108 0 108 -53 93 c-30 51 -62 98 -72 103 -9 6 -51 14 -92 20 -85 10 -122 26
-151 63 -26 33 -44 32 -60 -4 -7 -15 -28 -46 -47 -67 -32 -36 -34 -37 -35 -16
0 15 7 26 18 29 23 6 48 50 46 83 -2 33 -28 120 -47 156 -9 16 -36 48 -61 72
-46 42 -81 53 -104 30z m-123 -463 c0 -16 -1 -17 -8 -5 -5 8 -12 26 -16 40 -7
24 -7 24 9 5 8 -11 15 -29 15 -40z m11 -39 c0 -8 3 -23 6 -33 5 -16 4 -16 -10
1 -18 22 -21 46 -6 46 6 0 10 -6 10 -14z m265 -83 c-2 -10 -7 -40 -11 -68 -6
-45 -7 -48 -16 -25 -12 33 -1 110 17 110 7 0 12 -8 10 -17z"/>
</g>
</svg>
