<?xml version="1.0" standalone="no"?>
<!DOCTYPE svg PUBLIC "-//W3C//DTD SVG 20010904//EN"
 "http://www.w3.org/TR/2001/REC-SVG-20010904/DTD/svg10.dtd">
<svg version="1.0" xmlns="http://www.w3.org/2000/svg"
 width="96.000000pt" height="84.000000pt" viewBox="0 0 96.000000 84.000000"
 preserveAspectRatio="xMidYMid meet">
<metadata>
Created by potrace 1.16, written by Peter Selinger 2001-2019
</metadata>
<g transform="translate(0.000000,84.000000) scale(0.100000,-0.100000)"
fill="#000000" stroke="none">
<path d="M365 780 c-8 -9 -15 -27 -15 -41 0 -13 -11 -34 -25 -47 -33 -31 -41
-81 -21 -121 9 -17 23 -31 32 -31 9 0 14 -7 12 -18 -4 -22 35 -72 56 -72 25 0
19 -17 -14 -42 -16 -12 -30 -27 -30 -34 0 -6 -7 -17 -16 -25 -8 -7 -13 -20
-11 -29 2 -9 -2 -28 -9 -41 -7 -13 -13 -22 -14 -19 0 3 -11 37 -24 75 l-24 70
42 12 41 12 -45 -1 c-25 -1 -55 2 -68 6 -14 5 -29 3 -38 -5 -13 -11 -18 -10
-25 4 -7 12 -23 17 -49 17 -22 0 -40 -2 -40 -4 0 -3 13 -37 29 -78 16 -40 32
-84 36 -98 3 -14 24 -38 46 -53 21 -16 39 -34 39 -41 0 -7 16 -31 36 -55 33
-39 35 -44 24 -71 -7 -16 -9 -34 -5 -39 9 -15 275 -15 275 0 0 6 -10 13 -21
16 -20 6 -21 10 -15 89 5 57 4 84 -3 84 -6 0 -11 -17 -12 -37 0 -21 -4 -47 -8
-57 -7 -18 -8 -18 -14 -3 -4 10 -4 38 0 62 5 38 9 45 27 45 12 0 26 4 31 9 6
5 21 11 35 13 21 2 25 -1 23 -22 -1 -14 2 -41 7 -60 4 -19 11 -48 14 -63 4
-16 11 -25 17 -21 7 4 9 -3 7 -17 -2 -16 1 -23 11 -21 8 2 11 -3 8 -13 -6 -13
13 -15 143 -15 l150 0 0 125 c0 119 -2 129 -29 184 -32 62 -44 70 -137 91 -67
15 -110 42 -136 86 l-21 36 -21 -28 c-11 -16 -39 -49 -60 -72 -34 -37 -41 -41
-46 -26 -5 12 5 29 31 54 43 42 44 59 9 164 -22 67 -70 136 -95 136 -7 0 -15
8 -18 19 -6 25 -52 33 -72 11z m-135 -458 c0 -15 -2 -15 -10 -2 -13 20 -13 33
0 25 6 -3 10 -14 10 -23z"/>
</g>
</svg>
