<?xml version="1.0" standalone="no"?>
<!DOCTYPE svg PUBLIC "-//W3C//DTD SVG 20010904//EN"
 "http://www.w3.org/TR/2001/REC-SVG-20010904/DTD/svg10.dtd">
<svg version="1.0" xmlns="http://www.w3.org/2000/svg"
 width="96.000000pt" height="84.000000pt" viewBox="0 0 96.000000 84.000000"
 preserveAspectRatio="xMidYMid meet">
<metadata>
Created by potrace 1.16, written by Peter Selinger 2001-2019
</metadata>
<g transform="translate(0.000000,84.000000) scale(0.100000,-0.100000)"
fill="#000000" stroke="none">
<path d="M419 777 c-10 -11 -19 -30 -19 -41 0 -11 -9 -29 -20 -41 -42 -45 -34
-146 12 -158 11 -3 17 -10 13 -16 -9 -16 33 -71 56 -71 27 0 24 -15 -10 -42
-33 -27 -56 -68 -65 -121 -9 -48 -19 -41 -39 25 -27 90 -27 92 18 99 l40 6
-43 2 c-24 0 -52 6 -63 11 -13 8 -25 7 -41 -1 -17 -9 -24 -9 -33 5 -14 19 -75
22 -75 4 0 -7 9 -31 19 -54 10 -23 22 -60 26 -84 4 -23 14 -48 24 -55 68 -55
81 -68 81 -77 0 -6 14 -26 30 -45 31 -35 36 -57 21 -82 -22 -35 -3 -41 138
-41 135 1 136 1 113 20 -21 17 -23 26 -21 104 3 85 3 85 33 97 17 7 34 18 38
23 5 7 8 7 8 1 1 -15 15 -145 18 -172 1 -7 8 -10 16 -7 11 4 13 0 9 -15 -3
-12 -1 -21 6 -21 6 0 11 -7 11 -15 0 -12 20 -15 120 -15 l120 0 0 170 c0 193
9 176 -102 210 -79 24 -99 38 -134 95 -16 25 -31 45 -34 45 -3 -1 -27 -32 -55
-70 -27 -39 -53 -70 -56 -70 -4 0 -10 8 -13 17 -5 12 3 26 26 45 29 23 33 32
32 75 -1 95 -54 212 -103 228 -11 3 -23 14 -26 24 -9 28 -53 33 -76 8z m-130
-462 c0 -5 -6 -1 -14 9 -8 11 -15 24 -15 30 0 5 7 1 15 -10 8 -10 14 -23 14
-29z m272 -167 c-2 -41 -6 -56 -11 -43 -8 23 -1 105 9 105 3 0 4 -28 2 -62z"/>
</g>
</svg>
