<?xml version="1.0" standalone="no"?>
<!DOCTYPE svg PUBLIC "-//W3C//DTD SVG 20010904//EN"
 "http://www.w3.org/TR/2001/REC-SVG-20010904/DTD/svg10.dtd">
<svg version="1.0" xmlns="http://www.w3.org/2000/svg"
 width="96.000000pt" height="84.000000pt" viewBox="0 0 96.000000 84.000000"
 preserveAspectRatio="xMidYMid meet">
<metadata>
Created by potrace 1.16, written by Peter Selinger 2001-2019
</metadata>
<g transform="translate(0.000000,84.000000) scale(0.100000,-0.100000)"
fill="#000000" stroke="none">
<path d="M467 782 c-10 -10 -17 -29 -17 -41 0 -13 -11 -36 -25 -53 -16 -19
-25 -42 -25 -63 0 -42 19 -85 37 -85 7 0 13 -8 13 -17 1 -28 46 -77 64 -70 28
11 18 -21 -13 -44 -31 -23 -43 -45 -61 -118 -6 -24 -15 -40 -20 -35 -9 9 -52
136 -48 140 2 1 19 7 38 13 l35 10 -46 -1 c-25 -1 -51 2 -58 6 -6 4 -22 1 -35
-8 -22 -14 -24 -13 -34 10 -8 15 -20 24 -35 24 -33 0 -38 -9 -22 -40 8 -15 22
-57 31 -94 14 -56 21 -69 51 -87 19 -12 41 -33 50 -48 9 -14 30 -40 46 -58 28
-30 29 -34 17 -62 -23 -57 -15 -61 130 -61 71 0 130 4 130 8 0 5 -9 17 -20 27
-17 15 -20 31 -20 96 0 52 -4 79 -12 83 -7 3 -4 5 7 4 11 -1 34 6 52 15 43 23
46 22 39 -13 -3 -19 -1 -30 5 -30 6 0 9 -6 6 -13 -3 -8 -1 -35 5 -60 6 -32 13
-44 23 -41 10 4 12 0 8 -15 -4 -15 -1 -21 10 -21 10 0 13 -6 10 -20 -5 -19 0
-20 86 -20 l91 0 0 184 0 184 -51 12 c-58 14 -114 59 -144 114 -11 20 -22 36
-25 36 -4 0 -16 -17 -28 -37 -29 -53 -79 -109 -87 -101 -4 4 -4 19 -1 34 4 14
10 24 13 20 10 -9 43 46 43 71 0 39 -50 176 -73 201 -12 13 -32 28 -44 33 -13
5 -23 15 -23 23 0 7 -10 16 -22 20 -32 8 -33 8 -51 -12z m140 -664 c-2 -13 -4
-3 -4 22 0 25 2 35 4 23 2 -13 2 -33 0 -45z"/>
</g>
</svg>
