<?xml version="1.0" standalone="no"?>
<!DOCTYPE svg PUBLIC "-//W3C//DTD SVG 20010904//EN"
 "http://www.w3.org/TR/2001/REC-SVG-20010904/DTD/svg10.dtd">
<svg version="1.0" xmlns="http://www.w3.org/2000/svg"
 width="96.000000pt" height="84.000000pt" viewBox="0 0 96.000000 84.000000"
 preserveAspectRatio="xMidYMid meet">
<metadata>
Created by potrace 1.16, written by Peter Selinger 2001-2019
</metadata>
<g transform="translate(0.000000,84.000000) scale(0.100000,-0.100000)"
fill="#000000" stroke="none">
<path d="M496 781 c-11 -12 -15 -27 -12 -39 4 -12 -1 -25 -14 -37 -46 -41 -45
-146 2 -160 10 -4 17 -12 15 -19 -7 -18 50 -76 68 -70 24 10 17 -12 -12 -38
-32 -27 -46 -54 -64 -121 -6 -26 -15 -44 -20 -40 -4 4 -16 35 -27 68 -20 64
-17 75 25 75 12 0 24 3 26 8 6 8 -121 7 -143 -2 -10 -4 -21 4 -32 23 -12 22
-21 28 -37 24 -26 -7 -26 -21 -2 -75 11 -24 23 -60 26 -81 5 -29 14 -43 45
-63 21 -14 56 -50 79 -80 38 -50 40 -57 34 -104 l-6 -50 132 0 c72 0 131 4
131 8 0 5 -9 19 -20 32 -16 19 -20 37 -20 97 0 42 -4 73 -10 73 -5 0 -10 5
-10 11 0 5 5 7 11 4 16 -11 57 3 79 27 l20 22 0 -28 c0 -45 31 -167 41 -160 5
3 9 -4 9 -15 0 -12 5 -21 10 -21 6 0 10 -11 10 -25 0 -24 2 -25 65 -25 l65 0
-2 193 c-3 189 -3 192 -25 195 -28 4 -105 72 -133 118 l-22 35 -30 -48 c-34
-54 -67 -93 -80 -93 -4 0 -8 11 -8 25 0 14 6 25 13 25 14 0 31 27 42 66 3 12
-1 39 -8 60 -8 22 -20 58 -26 81 -7 27 -24 52 -49 72 -20 17 -46 40 -57 51
-26 25 -57 25 -79 1z m-118 -476 c-3 -3 -9 2 -12 12 -6 14 -5 15 5 6 7 -7 10
-15 7 -18z m269 -177 c-2 -13 -4 -5 -4 17 -1 22 1 32 4 23 2 -10 2 -28 0 -40z"/>
</g>
</svg>
