<?xml version="1.0" standalone="no"?>
<!DOCTYPE svg PUBLIC "-//W3C//DTD SVG 20010904//EN"
 "http://www.w3.org/TR/2001/REC-SVG-20010904/DTD/svg10.dtd">
<svg version="1.0" xmlns="http://www.w3.org/2000/svg"
 width="96.000000pt" height="84.000000pt" viewBox="0 0 96.000000 84.000000"
 preserveAspectRatio="xMidYMid meet">
<metadata>
Created by potrace 1.16, written by Peter Selinger 2001-2019
</metadata>
<g transform="translate(0.000000,84.000000) scale(0.100000,-0.100000)"
fill="#000000" stroke="none">
<path d="M33 828 c0 -7 -3 -28 -7 -45 -5 -22 -4 -33 4 -33 6 0 8 -5 5 -11 -4
-6 -13 -8 -21 -5 -10 4 -14 -4 -14 -31 l0 -37 28 26 c15 15 38 28 52 30 22 3
27 -3 42 -47 9 -27 17 -65 18 -83 0 -25 10 -42 45 -75 26 -25 45 -53 45 -65 0
-31 13 -34 61 -13 45 21 69 15 69 -16 0 -11 7 -14 23 -9 12 3 69 15 126 27 92
19 113 20 168 10 35 -6 68 -9 73 -6 4 3 16 2 25 -1 13 -5 14 -9 3 -15 -11 -8
-11 -11 1 -18 8 -5 20 -7 27 -4 8 3 11 -2 7 -15 -2 -10 2 -26 11 -34 8 -9 12
-19 8 -23 -4 -4 9 -5 28 -1 33 6 33 6 15 -10 -20 -15 -20 -15 3 -11 12 3 19 1
16 -4 -3 -5 10 -16 28 -24 27 -11 29 -14 11 -15 -23 0 -40 -16 -23 -22 6 -2
13 -16 16 -32 5 -27 3 -28 -23 -22 -25 5 -26 4 -6 -5 22 -11 38 -52 28 -69 -3
-5 -26 -8 -51 -6 -38 3 -42 1 -32 -11 10 -12 9 -14 -8 -11 -12 1 -21 -1 -22
-6 0 -5 -6 -12 -14 -17 -10 -6 -9 -11 7 -23 21 -16 14 -20 -30 -17 -17 1 -17
-1 5 -13 16 -10 52 -15 103 -16 l77 0 0 420 0 420 -463 0 c-364 0 -464 -3
-464 -12z"/>
<path d="M0 799 c0 -5 5 -7 10 -4 5 3 10 8 10 11 0 2 -4 4 -10 4 -5 0 -10 -5
-10 -11z"/>
<path d="M80 489 c33 -22 92 -50 97 -46 8 9 -71 57 -92 57 -17 0 -18 -2 -5
-11z"/>
<path d="M247 127 c-15 -45 -43 -67 -90 -67 -24 0 -27 -3 -22 -20 11 -35 -23
-36 -58 -2 -18 16 -42 33 -54 37 -21 6 -23 3 -23 -34 l0 -41 383 0 382 0 -56
29 c-31 16 -101 38 -160 50 -132 27 -203 48 -250 72 l-37 19 -15 -43z"/>
</g>
</svg>
