<?xml version="1.0" standalone="no"?>
<!DOCTYPE svg PUBLIC "-//W3C//DTD SVG 20010904//EN"
 "http://www.w3.org/TR/2001/REC-SVG-20010904/DTD/svg10.dtd">
<svg version="1.0" xmlns="http://www.w3.org/2000/svg"
 width="96.000000pt" height="84.000000pt" viewBox="0 0 96.000000 84.000000"
 preserveAspectRatio="xMidYMid meet">
<metadata>
Created by potrace 1.16, written by Peter Selinger 2001-2019
</metadata>
<g transform="translate(0.000000,84.000000) scale(0.100000,-0.100000)"
fill="#000000" stroke="none">
<path d="M519 784 c-13 -14 -19 -29 -15 -39 4 -11 -4 -28 -19 -47 -38 -45 -31
-148 10 -148 8 0 15 -9 15 -20 0 -29 44 -74 64 -67 26 10 19 -19 -10 -42 -35
-27 -50 -57 -58 -114 -4 -26 -11 -49 -15 -52 -7 -4 -56 125 -49 130 2 1 19 7
38 13 l35 12 -46 -5 c-27 -2 -51 1 -57 7 -9 9 -17 7 -31 -6 -24 -21 -34 -16
-51 24 -13 32 -28 38 -47 19 -9 -9 -7 -21 6 -48 10 -20 23 -61 30 -91 10 -51
15 -58 56 -80 25 -14 45 -27 45 -31 0 -3 16 -27 36 -54 32 -41 35 -50 25 -72
-6 -13 -8 -35 -5 -49 6 -24 7 -24 130 -24 129 0 141 5 108 41 -10 11 -17 45
-21 96 -3 43 -11 81 -17 85 -7 5 -3 8 8 8 35 0 86 24 86 40 1 12 3 12 11 -3 6
-9 7 -27 4 -38 -5 -15 -4 -19 4 -15 7 5 11 -9 11 -43 0 -28 5 -51 10 -51 6 0
10 -7 10 -16 0 -9 5 -12 12 -8 8 5 9 2 5 -10 -4 -10 -1 -19 8 -22 9 -4 15 -19
15 -35 0 -28 2 -29 50 -29 l50 0 0 193 0 192 -47 35 c-26 19 -61 54 -78 77
-16 23 -32 42 -35 42 -3 0 -18 -22 -35 -50 -16 -27 -40 -59 -52 -71 l-23 -21
0 21 c0 29 3 38 12 35 5 -2 8 9 8 25 0 18 3 23 9 14 15 -24 22 58 7 87 -7 14
-16 43 -20 64 -7 40 -68 117 -92 117 -7 0 -18 8 -23 19 -16 29 -47 32 -72 5z
m161 -646 c-1 -28 -2 -30 -11 -15 -6 10 -8 25 -5 33 9 24 16 16 16 -18z"/>
</g>
</svg>
