<?xml version="1.0" standalone="no"?>
<!DOCTYPE svg PUBLIC "-//W3C//DTD SVG 20010904//EN"
 "http://www.w3.org/TR/2001/REC-SVG-20010904/DTD/svg10.dtd">
<svg version="1.0" xmlns="http://www.w3.org/2000/svg"
 width="96.000000pt" height="84.000000pt" viewBox="0 0 96.000000 84.000000"
 preserveAspectRatio="xMidYMid meet">
<metadata>
Created by potrace 1.16, written by Peter Selinger 2001-2019
</metadata>
<g transform="translate(0.000000,84.000000) scale(0.100000,-0.100000)"
fill="#000000" stroke="none">
<path d="M525 790 c-8 -9 -15 -27 -15 -39 0 -13 -9 -34 -20 -48 -41 -52 -34
-144 12 -156 13 -4 19 -11 15 -20 -7 -18 47 -72 61 -63 27 17 16 -15 -19 -54
-23 -25 -39 -54 -40 -69 0 -14 -6 -42 -13 -61 l-13 -35 -16 45 c-29 81 -30 90
-10 96 51 16 49 19 -10 19 -37 -1 -72 -6 -80 -14 -14 -11 -19 -7 -37 28 -20
41 -46 53 -56 27 -3 -8 3 -31 14 -53 11 -21 22 -59 26 -85 6 -43 11 -50 57
-77 27 -17 49 -35 49 -41 0 -5 16 -27 35 -49 32 -35 34 -42 24 -64 -6 -14 -9
-37 -5 -51 l6 -26 125 0 c69 0 125 4 125 9 0 4 -9 19 -19 33 -14 18 -21 44
-23 96 -2 39 -7 74 -11 78 -11 11 -8 26 4 19 16 -11 57 3 79 27 21 23 24 18
20 -31 -1 -16 2 -21 11 -15 9 5 10 2 5 -11 -8 -22 3 -87 14 -80 5 3 6 -5 2
-17 -3 -13 -1 -19 5 -15 6 4 13 -3 17 -16 5 -18 8 -20 16 -7 7 11 8 3 4 -27
l-7 -43 52 0 51 0 0 194 0 194 -48 36 c-27 19 -62 54 -77 77 -24 34 -31 38
-39 25 -82 -120 -106 -141 -106 -91 0 16 6 25 15 25 8 0 15 9 15 21 0 12 4 17
11 13 26 -16 -16 170 -49 216 -10 14 -32 32 -49 40 -18 8 -34 22 -36 31 -6 24
-53 30 -72 9z m152 -657 c-3 -10 -5 -2 -5 17 0 19 2 27 5 18 2 -10 2 -26 0
-35z"/>
</g>
</svg>
