<?xml version="1.0" standalone="no"?>
<!DOCTYPE svg PUBLIC "-//W3C//DTD SVG 20010904//EN"
 "http://www.w3.org/TR/2001/REC-SVG-20010904/DTD/svg10.dtd">
<svg version="1.0" xmlns="http://www.w3.org/2000/svg"
 width="96.000000pt" height="84.000000pt" viewBox="0 0 96.000000 84.000000"
 preserveAspectRatio="xMidYMid meet">
<metadata>
Created by potrace 1.16, written by Peter Selinger 2001-2019
</metadata>
<g transform="translate(0.000000,84.000000) scale(0.100000,-0.100000)"
fill="#000000" stroke="none">
<path d="M519 784 c-12 -13 -19 -30 -16 -39 4 -8 -5 -31 -18 -51 -14 -20 -25
-50 -25 -66 0 -37 26 -88 46 -88 8 0 14 -6 12 -13 -5 -20 40 -70 57 -64 29 12
23 -10 -16 -51 -25 -27 -39 -52 -40 -70 0 -15 -6 -43 -13 -62 l-13 -35 -16 45
c-31 88 -32 87 10 98 l38 11 -45 -1 c-25 0 -52 3 -61 6 -9 4 -21 0 -29 -9 -19
-23 -28 -19 -50 25 -21 40 -46 52 -56 26 -3 -8 4 -32 15 -55 12 -22 21 -51 21
-65 0 -45 18 -74 64 -101 26 -15 46 -31 46 -36 0 -5 16 -26 35 -48 32 -35 34
-42 24 -64 -6 -14 -9 -37 -5 -51 l6 -26 125 0 c69 0 125 4 125 9 0 4 -9 20
-20 34 -15 19 -20 42 -22 96 -1 40 -5 74 -10 77 -4 3 -8 10 -8 15 0 6 5 7 11
4 16 -11 57 3 79 27 l20 22 0 -38 c0 -22 4 -35 10 -31 6 3 7 -1 4 -9 -8 -20
15 -118 26 -111 4 3 10 -5 14 -18 5 -18 8 -19 15 -8 6 10 8 1 4 -27 l-6 -42
52 0 51 0 0 195 0 194 -44 31 c-25 16 -60 51 -78 76 -27 38 -34 43 -43 30 -81
-120 -105 -141 -105 -91 0 16 6 25 15 25 8 0 15 9 15 20 0 11 5 20 10 20 15 0
12 54 -4 92 -8 18 -19 52 -25 75 -11 42 -59 93 -86 93 -8 0 -19 8 -24 19 -16
29 -47 32 -72 5z m158 -651 c-3 -10 -5 -2 -5 17 0 19 2 27 5 18 2 -10 2 -26 0
-35z"/>
</g>
</svg>
