<?xml version="1.0" standalone="no"?>
<!DOCTYPE svg PUBLIC "-//W3C//DTD SVG 20010904//EN"
 "http://www.w3.org/TR/2001/REC-SVG-20010904/DTD/svg10.dtd">
<svg version="1.0" xmlns="http://www.w3.org/2000/svg"
 width="96.000000pt" height="84.000000pt" viewBox="0 0 96.000000 84.000000"
 preserveAspectRatio="xMidYMid meet">
<metadata>
Created by potrace 1.16, written by Peter Selinger 2001-2019
</metadata>
<g transform="translate(0.000000,84.000000) scale(0.100000,-0.100000)"
fill="#000000" stroke="none">
<path d="M508 778 c-7 -13 -11 -31 -9 -41 1 -9 -7 -29 -18 -43 -32 -40 -29
-107 6 -142 15 -15 27 -30 25 -34 -4 -14 41 -58 60 -58 24 0 23 -13 -5 -40
-26 -25 -122 -37 -144 -18 -10 8 -18 7 -31 -6 -26 -23 -38 -20 -52 14 -15 37
-48 58 -56 36 -3 -8 2 -29 11 -46 9 -18 19 -46 21 -64 9 -76 15 -85 65 -112
27 -15 49 -32 49 -37 0 -5 16 -27 35 -48 31 -34 33 -42 24 -63 -7 -14 -9 -36
-5 -50 l6 -26 125 0 c69 0 125 3 125 6 0 4 -9 21 -20 39 -14 23 -20 52 -22 99
-1 37 -5 69 -10 72 -4 3 -8 10 -8 15 0 6 5 7 11 4 16 -11 57 3 79 27 l20 22 0
-38 c0 -22 4 -35 10 -31 6 3 7 -1 4 -9 -8 -20 15 -118 26 -111 4 3 10 -5 14
-18 5 -18 8 -19 15 -8 6 10 8 1 4 -27 l-6 -42 52 0 51 0 0 195 0 194 -44 31
c-25 16 -60 51 -78 76 l-33 46 -15 -23 c-33 -51 -76 -103 -87 -107 -9 -2 -13
7 -13 28 0 17 4 29 9 26 5 -4 17 15 27 40 16 41 16 48 2 72 -8 15 -19 44 -22
65 -8 44 -68 117 -96 117 -10 0 -22 9 -25 20 -9 29 -60 27 -77 -2z m15 -425
c-3 -21 -11 -54 -18 -73 l-12 -34 -16 44 c-30 84 -30 88 -5 93 55 10 57 9 51
-30z m-113 -48 c14 -19 14 -19 -2 -6 -10 7 -18 18 -18 24 0 6 1 8 3 6 1 -2 9
-13 17 -24z m267 -172 c-3 -10 -5 -2 -5 17 0 19 2 27 5 18 2 -10 2 -26 0 -35z"/>
</g>
</svg>
