<?xml version="1.0" standalone="no"?>
<!DOCTYPE svg PUBLIC "-//W3C//DTD SVG 20010904//EN"
 "http://www.w3.org/TR/2001/REC-SVG-20010904/DTD/svg10.dtd">
<svg version="1.0" xmlns="http://www.w3.org/2000/svg"
 width="96.000000pt" height="84.000000pt" viewBox="0 0 96.000000 84.000000"
 preserveAspectRatio="xMidYMid meet">
<metadata>
Created by potrace 1.16, written by Peter Selinger 2001-2019
</metadata>
<g transform="translate(0.000000,84.000000) scale(0.100000,-0.100000)"
fill="#000000" stroke="none">
<path d="M505 780 c-11 -13 -15 -27 -11 -43 4 -16 0 -29 -9 -37 -41 -34 -37
-138 6 -161 10 -5 19 -14 19 -19 0 -19 52 -69 66 -63 23 8 16 -13 -11 -38 -31
-28 -58 -76 -51 -88 3 -5 0 -26 -7 -47 l-14 -38 -16 44 c-26 71 -26 85 3 88
51 7 37 17 -24 17 -37 0 -69 -5 -79 -13 -14 -12 -19 -8 -37 27 -13 27 -27 41
-40 41 -24 0 -26 -20 -6 -58 8 -15 17 -46 21 -67 12 -68 15 -74 61 -101 25
-15 51 -38 58 -53 8 -14 25 -37 39 -50 22 -19 24 -27 15 -46 -6 -13 -8 -35 -4
-49 l6 -26 125 0 c69 0 125 3 125 6 0 4 -9 21 -20 39 -14 23 -20 52 -22 99 -1
37 -5 69 -10 72 -4 3 -8 10 -8 15 0 6 5 7 11 4 16 -11 57 3 79 27 l20 22 0
-38 c0 -22 4 -35 10 -31 6 3 7 -1 4 -9 -8 -21 16 -117 27 -110 5 3 9 -4 9 -15
0 -23 16 -28 23 -8 3 6 2 -7 0 -31 l-6 -42 52 0 51 0 0 195 0 194 -44 31 c-25
16 -60 51 -78 76 l-33 46 -15 -23 c-33 -51 -76 -103 -87 -107 -9 -2 -13 7 -13
28 0 18 4 29 10 25 6 -4 10 5 10 20 0 14 4 24 9 21 17 -11 21 43 6 76 -8 18
-19 52 -25 75 -11 42 -67 103 -95 103 -8 0 -19 9 -25 20 -14 26 -52 26 -75 0z
m-97 -470 c7 -11 11 -20 9 -20 -2 0 -12 9 -22 20 -10 11 -14 20 -9 20 5 0 15
-9 22 -20z m274 -159 c2 -22 0 -37 -4 -35 -8 5 -11 74 -4 74 2 0 6 -18 8 -39z"/>
</g>
</svg>
