<?xml version="1.0" standalone="no"?>
<!DOCTYPE svg PUBLIC "-//W3C//DTD SVG 20010904//EN"
 "http://www.w3.org/TR/2001/REC-SVG-20010904/DTD/svg10.dtd">
<svg version="1.0" xmlns="http://www.w3.org/2000/svg"
 width="96.000000pt" height="84.000000pt" viewBox="0 0 96.000000 84.000000"
 preserveAspectRatio="xMidYMid meet">
<metadata>
Created by potrace 1.16, written by Peter Selinger 2001-2019
</metadata>
<g transform="translate(0.000000,84.000000) scale(0.100000,-0.100000)"
fill="#000000" stroke="none">
<path d="M498 778 c-6 -13 -11 -33 -9 -46 1 -13 -5 -32 -15 -43 -12 -13 -18
-37 -18 -70 -1 -43 3 -54 27 -74 15 -13 27 -27 27 -31 0 -17 53 -62 66 -57 23
8 16 -12 -12 -38 -30 -28 -57 -76 -50 -88 3 -5 0 -25 -7 -46 l-13 -37 -16 38
c-32 75 -32 79 9 92 l38 11 -40 -3 c-22 -2 -47 2 -57 7 -12 8 -23 6 -42 -6
-14 -9 -27 -17 -30 -17 -2 0 -11 18 -20 40 -11 28 -22 40 -36 40 -24 0 -25
-17 -5 -62 8 -18 19 -59 25 -90 9 -44 16 -59 32 -64 12 -3 50 -36 84 -72 55
-58 61 -68 52 -88 -6 -12 -8 -34 -4 -48 l6 -26 125 0 c69 0 125 3 125 6 0 4
-9 21 -20 39 -14 22 -20 51 -21 99 -1 36 -6 69 -10 72 -5 3 -9 10 -9 15 0 6 5
7 11 4 16 -11 57 3 79 27 l20 22 0 -38 c0 -22 4 -35 10 -31 6 3 7 -1 4 -9 -8
-21 16 -117 27 -110 5 3 9 -4 9 -15 0 -23 16 -28 23 -8 3 6 2 -7 0 -31 l-6
-42 52 0 51 0 0 195 0 194 -44 31 c-25 16 -59 50 -77 75 -18 25 -33 45 -35 45
-1 0 -16 -22 -33 -48 -17 -27 -42 -59 -56 -72 l-25 -23 -1 21 c-1 12 -2 28 -3
35 -1 6 5 11 12 10 7 -2 12 7 12 23 0 14 4 23 9 19 20 -12 15 44 -11 120 -28
82 -70 135 -106 135 -9 0 -23 9 -30 20 -17 27 -58 26 -74 -2z m-90 -469 c19
-30 8 -34 -12 -4 -9 14 -13 25 -9 25 5 0 14 -9 21 -21z m274 -163 c2 -19 0
-32 -4 -30 -8 5 -12 64 -4 64 2 0 6 -15 8 -34z"/>
</g>
</svg>
