<?xml version="1.0" standalone="no"?>
<!DOCTYPE svg PUBLIC "-//W3C//DTD SVG 20010904//EN"
 "http://www.w3.org/TR/2001/REC-SVG-20010904/DTD/svg10.dtd">
<svg version="1.0" xmlns="http://www.w3.org/2000/svg"
 width="96.000000pt" height="84.000000pt" viewBox="0 0 96.000000 84.000000"
 preserveAspectRatio="xMidYMid meet">
<metadata>
Created by potrace 1.16, written by Peter Selinger 2001-2019
</metadata>
<g transform="translate(0.000000,84.000000) scale(0.100000,-0.100000)"
fill="#000000" stroke="none">
<path d="M496 776 c-9 -14 -13 -31 -10 -39 3 -8 -4 -32 -15 -53 -12 -21 -21
-48 -21 -60 0 -37 21 -83 41 -89 10 -4 19 -12 19 -18 0 -21 49 -67 65 -61 24
9 18 -6 -18 -45 l-32 -36 -65 7 c-51 6 -68 4 -81 -8 -16 -15 -19 -13 -38 24
-24 47 -38 59 -54 43 -8 -8 -8 -20 2 -44 11 -28 17 -49 36 -134 3 -13 24 -33
48 -47 23 -14 50 -39 60 -55 10 -17 27 -36 38 -42 17 -9 20 -17 14 -45 -13
-71 -9 -74 131 -74 68 0 124 3 124 8 0 4 -9 20 -20 37 -15 22 -20 47 -20 96 0
37 -5 70 -12 77 -9 9 -7 12 11 12 27 0 61 17 78 39 10 13 12 10 13 -22 0 -23
4 -36 10 -32 6 3 7 -1 4 -9 -8 -21 16 -117 27 -110 5 3 9 -4 9 -15 0 -23 16
-28 23 -8 3 6 2 -7 0 -31 l-6 -42 52 0 51 0 0 195 0 194 -44 31 c-25 16 -60
51 -78 76 -29 40 -34 44 -43 28 -22 -38 -92 -119 -101 -116 -14 3 -11 57 4 55
7 -2 12 7 12 23 0 14 4 23 9 19 20 -12 15 44 -11 120 -28 82 -71 135 -110 135
-9 0 -22 9 -28 20 -15 28 -54 26 -74 -4z m19 -443 c-2 -21 -8 -49 -13 -63 l-9
-24 -13 23 c-37 70 -32 101 17 101 19 0 21 -4 18 -37z m-107 -33 c7 -11 11
-20 9 -20 -2 0 -12 9 -22 20 -10 11 -14 20 -9 20 5 0 15 -9 22 -20z m274 -154
c2 -19 0 -32 -4 -30 -8 5 -12 64 -4 64 2 0 6 -15 8 -34z"/>
</g>
</svg>
