<?xml version="1.0" standalone="no"?>
<!DOCTYPE svg PUBLIC "-//W3C//DTD SVG 20010904//EN"
 "http://www.w3.org/TR/2001/REC-SVG-20010904/DTD/svg10.dtd">
<svg version="1.0" xmlns="http://www.w3.org/2000/svg"
 width="96.000000pt" height="84.000000pt" viewBox="0 0 96.000000 84.000000"
 preserveAspectRatio="xMidYMid meet">
<metadata>
Created by potrace 1.16, written by Peter Selinger 2001-2019
</metadata>
<g transform="translate(0.000000,84.000000) scale(0.100000,-0.100000)"
fill="#000000" stroke="none">
<path d="M498 778 c-6 -13 -11 -35 -9 -49 1 -14 -5 -31 -13 -38 -24 -20 -30
-84 -11 -121 9 -17 23 -34 31 -37 7 -3 14 -10 14 -17 0 -20 49 -66 65 -60 23
9 18 -10 -11 -37 -30 -27 -57 -76 -50 -87 3 -5 -1 -27 -7 -50 l-13 -42 -16 28
c-9 15 -18 41 -20 57 -3 25 1 31 22 33 51 7 37 17 -24 17 -37 0 -69 -5 -79
-13 -14 -12 -19 -8 -38 30 -25 50 -38 61 -56 46 -10 -8 -9 -18 6 -46 10 -21
21 -57 24 -82 7 -61 15 -78 39 -86 11 -3 47 -34 79 -68 51 -52 58 -65 53 -88
-3 -15 -3 -37 1 -48 6 -19 15 -20 131 -20 68 0 124 3 124 8 0 4 -9 20 -20 37
-15 22 -20 47 -20 96 0 37 -5 70 -12 77 -9 9 -7 12 11 12 27 0 61 17 78 39 10
13 12 10 13 -22 0 -23 4 -36 10 -32 6 3 7 -1 4 -9 -8 -20 15 -118 26 -111 4 3
10 -5 14 -18 5 -18 8 -20 16 -7 7 11 8 3 4 -28 l-7 -42 52 0 51 0 0 195 0 194
-45 31 c-24 17 -58 51 -75 76 l-31 44 -43 -57 c-55 -75 -74 -91 -82 -70 -8 23
0 52 14 50 7 -2 12 8 12 23 0 14 4 23 9 19 20 -12 15 43 -9 117 -28 85 -49
114 -96 134 -17 7 -36 20 -44 28 -19 23 -57 20 -72 -6z m-94 -484 c3 -8 2 -12
-4 -9 -6 3 -10 10 -10 16 0 14 7 11 14 -7z m279 -152 c4 -21 3 -31 -3 -27 -6
3 -10 20 -10 37 0 38 5 34 13 -10z"/>
</g>
</svg>
