<?xml version="1.0" standalone="no"?>
<!DOCTYPE svg PUBLIC "-//W3C//DTD SVG 20010904//EN"
 "http://www.w3.org/TR/2001/REC-SVG-20010904/DTD/svg10.dtd">
<svg version="1.0" xmlns="http://www.w3.org/2000/svg"
 width="96.000000pt" height="84.000000pt" viewBox="0 0 96.000000 84.000000"
 preserveAspectRatio="xMidYMid meet">
<metadata>
Created by potrace 1.16, written by Peter Selinger 2001-2019
</metadata>
<g transform="translate(0.000000,84.000000) scale(0.100000,-0.100000)"
fill="#000000" stroke="none">
<path d="M511 786 c-13 -14 -18 -29 -15 -43 4 -14 -2 -32 -15 -49 -14 -18 -21
-41 -21 -70 0 -56 8 -74 37 -85 13 -5 22 -13 18 -19 -9 -14 45 -70 61 -63 24
9 16 -11 -20 -49 -38 -40 -99 -58 -135 -39 -15 8 -23 7 -35 -4 -23 -23 -33
-18 -50 25 -17 43 -40 60 -57 43 -7 -7 -4 -24 10 -51 12 -23 21 -55 21 -71 0
-48 16 -78 57 -103 21 -12 58 -44 81 -70 35 -37 42 -51 37 -71 -4 -14 -4 -35
0 -46 6 -20 14 -21 131 -21 68 0 124 3 124 8 0 4 -9 20 -20 37 -15 22 -20 47
-20 96 0 37 -5 70 -12 77 -9 9 -7 12 10 12 30 0 82 27 82 43 0 9 3 8 9 -1 4
-7 6 -25 3 -39 -3 -16 -1 -24 5 -20 6 4 10 -13 10 -40 0 -27 5 -49 11 -51 7
-2 10 -8 7 -12 -3 -5 2 -18 12 -29 13 -15 19 -17 26 -8 5 7 5 -6 2 -31 l-7
-42 51 0 51 0 0 195 0 195 -40 26 c-22 15 -57 49 -76 76 l-36 49 -33 -48 c-38
-56 -81 -98 -88 -86 -8 13 4 63 14 57 5 -3 9 4 9 14 0 11 7 23 16 26 18 7 17
17 -12 125 -17 63 -69 131 -100 131 -7 0 -19 8 -26 18 -21 30 -54 33 -77 8z
m3 -458 c-2 -18 -7 -46 -11 -62 l-9 -29 -16 24 c-8 13 -18 39 -22 56 -7 32 -4
35 50 42 7 0 10 -12 8 -31z m169 -186 c4 -21 3 -31 -3 -27 -6 3 -10 20 -10 37
0 38 5 34 13 -10z"/>
</g>
</svg>
