<?xml version="1.0" standalone="no"?>
<!DOCTYPE svg PUBLIC "-//W3C//DTD SVG 20010904//EN"
 "http://www.w3.org/TR/2001/REC-SVG-20010904/DTD/svg10.dtd">
<svg version="1.0" xmlns="http://www.w3.org/2000/svg"
 width="96.000000pt" height="84.000000pt" viewBox="0 0 96.000000 84.000000"
 preserveAspectRatio="xMidYMid meet">
<metadata>
Created by potrace 1.16, written by Peter Selinger 2001-2019
</metadata>
<g transform="translate(0.000000,84.000000) scale(0.100000,-0.100000)"
fill="#000000" stroke="none">
<path d="M525 790 c-9 -10 -15 -26 -12 -35 4 -8 -5 -31 -18 -51 -35 -52 -34
-116 2 -150 14 -13 24 -27 20 -30 -9 -9 43 -63 65 -66 17 -3 14 -9 -22 -48
-41 -44 -43 -45 -105 -45 -38 0 -69 -5 -76 -12 -20 -20 -25 -16 -43 31 -17 46
-42 64 -60 46 -7 -7 -4 -22 8 -47 10 -21 20 -49 22 -63 14 -86 15 -90 45 -105
16 -9 54 -40 84 -71 45 -45 54 -59 49 -79 -3 -13 -3 -33 1 -44 6 -20 14 -21
131 -21 68 0 124 3 124 8 0 4 -9 20 -20 37 -15 22 -20 47 -20 96 0 37 -5 70
-12 77 -9 9 -8 12 7 12 34 0 85 24 85 40 0 13 1 13 10 0 6 -8 7 -28 4 -44 -4
-19 -3 -26 5 -22 7 5 11 -8 11 -38 0 -25 5 -46 10 -46 6 0 10 -7 10 -16 0 -8
4 -12 10 -9 6 4 10 -5 10 -20 0 -15 4 -24 10 -20 6 4 10 -7 10 -24 0 -30 1
-31 45 -31 l45 0 0 194 0 194 -40 30 c-37 27 -91 87 -104 115 -5 9 -7 9 -12
-1 -13 -28 -95 -132 -104 -132 -5 0 -10 13 -10 30 0 18 5 29 12 27 6 -1 15 9
19 23 4 14 8 18 9 10 1 -8 6 -2 11 15 6 20 4 43 -6 72 -8 24 -15 53 -15 64 0
39 -59 119 -87 119 -7 0 -20 11 -29 25 -20 30 -54 32 -79 5z m-5 -447 c0 -10
-6 -37 -13 -61 -12 -41 -14 -42 -30 -25 -9 11 -18 34 -19 53 -3 28 1 35 22 41
38 11 40 10 40 -8z m-119 -60 c13 -16 12 -17 -3 -4 -17 13 -22 21 -14 21 2 0
10 -8 17 -17z m282 -141 c4 -21 3 -31 -3 -27 -6 3 -10 20 -10 37 0 38 5 34 13
-10z"/>
</g>
</svg>
