<?xml version="1.0" standalone="no"?>
<!DOCTYPE svg PUBLIC "-//W3C//DTD SVG 20010904//EN"
 "http://www.w3.org/TR/2001/REC-SVG-20010904/DTD/svg10.dtd">
<svg version="1.0" xmlns="http://www.w3.org/2000/svg"
 width="96.000000pt" height="84.000000pt" viewBox="0 0 96.000000 84.000000"
 preserveAspectRatio="xMidYMid meet">
<metadata>
Created by potrace 1.16, written by Peter Selinger 2001-2019
</metadata>
<g transform="translate(0.000000,84.000000) scale(0.100000,-0.100000)"
fill="#000000" stroke="none">
<path d="M45 833 c11 -2 45 -12 75 -21 l55 -16 -40 -6 -40 -5 40 -22 c22 -12
35 -22 28 -23 -18 0 -3 -40 16 -40 16 0 31 -43 55 -161 4 -20 17 -30 50 -43
25 -9 64 -32 88 -51 70 -53 111 -61 204 -40 76 17 103 17 245 0 48 -5 73 -16
59 -25 -9 -6 -1 -11 24 -16 21 -3 34 -9 29 -13 -15 -11 -14 -41 1 -47 9 -3 13
-10 10 -15 -3 -5 0 -9 5 -9 8 0 11 90 11 280 l0 280 -467 -1 c-258 -1 -459 -3
-448 -6z"/>
<path d="M18 641 c28 -24 28 -34 1 -26 -21 7 -21 7 -3 -24 20 -35 39 -40 47
-13 2 9 8 25 12 35 6 13 -1 20 -29 32 -47 20 -56 18 -28 -4z"/>
<path d="M150 470 c0 -13 161 -71 188 -68 24 3 22 5 -18 19 -101 36 -170 56
-170 49z"/>
<path d="M250 396 c0 -13 83 -47 108 -44 23 3 18 6 -28 22 -30 10 -61 21 -67
24 -7 2 -13 1 -13 -2z"/>
<path d="M329 103 c-30 -80 -38 -90 -76 -91 -20 -1 -38 -4 -41 -7 -3 -3 118
-5 269 -4 254 0 271 2 234 15 -22 8 -76 22 -120 30 -93 17 -164 39 -218 66
l-37 19 -11 -28z"/>
<path d="M940 45 c10 -12 6 -13 -27 -9 -37 5 -37 5 -18 -12 20 -16 20 -16 -3
-11 -12 3 -20 1 -16 -4 3 -5 23 -9 45 -9 37 0 39 2 39 30 0 21 -5 30 -16 30
-13 0 -14 -3 -4 -15z"/>
<path d="M0 20 c0 -18 7 -20 65 -20 36 0 65 3 65 8 0 7 -91 32 -118 32 -7 0
-12 -9 -12 -20z"/>
</g>
</svg>
