<?xml version="1.0" standalone="no"?>
<!DOCTYPE svg PUBLIC "-//W3C//DTD SVG 20010904//EN"
 "http://www.w3.org/TR/2001/REC-SVG-20010904/DTD/svg10.dtd">
<svg version="1.0" xmlns="http://www.w3.org/2000/svg"
 width="96.000000pt" height="84.000000pt" viewBox="0 0 96.000000 84.000000"
 preserveAspectRatio="xMidYMid meet">
<metadata>
Created by potrace 1.16, written by Peter Selinger 2001-2019
</metadata>
<g transform="translate(0.000000,84.000000) scale(0.100000,-0.100000)"
fill="#000000" stroke="none">
<path d="M561 801 c-17 -13 -22 -25 -18 -40 3 -14 -1 -24 -13 -31 -25 -13 -52
-87 -45 -120 3 -16 15 -36 25 -45 11 -10 17 -22 13 -27 -3 -6 -2 -13 3 -17 5
-3 17 -18 27 -33 11 -17 23 -25 32 -22 27 11 16 -25 -15 -48 -16 -12 -30 -27
-30 -34 0 -14 -90 -25 -105 -12 -14 13 -41 9 -55 -7 -20 -24 -36 -17 -55 25
-11 24 -25 40 -35 40 -27 0 -29 -9 -10 -53 10 -23 23 -67 29 -97 10 -49 16
-58 47 -75 20 -11 58 -42 85 -70 36 -38 47 -55 43 -72 -3 -12 -3 -31 1 -42 6
-20 14 -21 131 -21 68 0 124 3 124 8 0 4 -9 20 -20 37 -15 22 -20 47 -20 96 0
38 -5 70 -12 78 -11 11 -9 12 10 6 17 -5 35 1 63 19 l39 26 0 -35 c0 -25 4
-34 12 -29 7 4 8 3 4 -5 -10 -15 3 -93 14 -86 4 3 6 -5 2 -17 -3 -13 -1 -19 5
-15 6 4 13 -3 17 -16 5 -19 8 -20 17 -7 8 11 9 6 4 -23 l-6 -37 46 0 45 0 0
193 0 193 -46 38 c-25 21 -58 56 -74 77 l-28 39 -31 -49 c-33 -51 -71 -91 -71
-74 0 15 30 70 31 58 0 -5 5 3 10 20 5 17 5 44 -1 65 -5 19 -12 57 -15 84 -6
42 -14 56 -70 112 -35 35 -67 64 -72 64 -4 0 -19 -9 -32 -19z m-41 -458 c0
-10 -6 -38 -13 -62 l-13 -43 -16 24 c-8 13 -18 38 -22 55 -6 28 -4 32 16 36
43 8 48 7 48 -10z m-100 -87 c-1 -13 -59 55 -60 68 0 5 14 -6 30 -24 17 -18
30 -38 30 -44z m263 -114 c4 -21 3 -31 -3 -27 -6 3 -10 20 -10 37 0 38 5 34
13 -10z"/>
</g>
</svg>
