<?xml version="1.0" standalone="no"?>
<!DOCTYPE svg PUBLIC "-//W3C//DTD SVG 20010904//EN"
 "http://www.w3.org/TR/2001/REC-SVG-20010904/DTD/svg10.dtd">
<svg version="1.0" xmlns="http://www.w3.org/2000/svg"
 width="96.000000pt" height="84.000000pt" viewBox="0 0 96.000000 84.000000"
 preserveAspectRatio="xMidYMid meet">
<metadata>
Created by potrace 1.16, written by Peter Selinger 2001-2019
</metadata>
<g transform="translate(0.000000,84.000000) scale(0.100000,-0.100000)"
fill="#000000" stroke="none">
<path d="M598 809 c-10 -5 -18 -19 -18 -29 0 -11 -17 -35 -37 -54 -33 -30 -38
-40 -38 -79 0 -30 6 -52 18 -65 11 -12 16 -25 13 -31 -9 -13 33 -81 50 -81 23
0 16 -27 -12 -49 -29 -23 -54 -64 -54 -90 0 -9 -6 -34 -14 -55 l-14 -40 -15
30 c-8 16 -18 44 -22 62 -6 29 -4 32 17 32 13 0 30 5 38 11 11 8 5 9 -23 5
-22 -3 -47 0 -58 7 -15 9 -24 8 -48 -6 -40 -23 -48 -22 -65 12 -9 16 -22 31
-31 35 -27 10 -30 -25 -7 -65 12 -21 22 -49 22 -63 0 -43 18 -74 52 -92 18 -9
56 -39 85 -67 41 -40 51 -56 47 -73 -3 -12 -3 -32 1 -43 6 -20 14 -21 131 -21
68 0 124 3 124 8 0 4 -9 20 -20 37 -15 22 -20 47 -20 96 0 38 -5 70 -12 78
-11 10 -8 11 12 6 18 -4 36 1 63 19 38 26 41 24 37 -23 -1 -16 2 -21 11 -16 9
6 11 2 6 -15 -8 -31 3 -81 16 -73 6 4 8 -2 4 -16 -4 -16 -2 -21 7 -18 8 3 13
-1 12 -11 0 -9 5 -16 12 -14 7 1 12 -9 12 -28 0 -28 2 -30 40 -30 l40 0 0 192
0 191 -58 52 c-31 29 -64 64 -71 79 l-14 26 -28 -41 -27 -42 0 39 c1 22 -3 73
-8 115 -8 61 -16 84 -39 114 -17 20 -35 46 -42 57 -20 37 -44 45 -75 27z m141
-383 c-9 -8 -10 -7 -5 7 3 10 7 24 7 30 1 7 3 4 6 -7 3 -10 -1 -23 -8 -30z
m-19 -7 c0 -4 -7 -12 -15 -19 -8 -7 -15 -10 -15 -7 0 3 -2 12 -5 19 -4 9 2 14
15 14 11 0 20 -3 20 -7z m-336 -96 c11 -15 27 -43 34 -62 l13 -36 -31 35 c-40
46 -64 90 -49 90 6 0 21 -12 33 -27z m299 -181 c4 -21 3 -31 -3 -27 -6 3 -10
20 -10 37 0 38 5 34 13 -10z"/>
</g>
</svg>
