<?xml version="1.0" standalone="no"?>
<!DOCTYPE svg PUBLIC "-//W3C//DTD SVG 20010904//EN"
 "http://www.w3.org/TR/2001/REC-SVG-20010904/DTD/svg10.dtd">
<svg version="1.0" xmlns="http://www.w3.org/2000/svg"
 width="96.000000pt" height="84.000000pt" viewBox="0 0 96.000000 84.000000"
 preserveAspectRatio="xMidYMid meet">
<metadata>
Created by potrace 1.16, written by Peter Selinger 2001-2019
</metadata>
<g transform="translate(0.000000,84.000000) scale(0.100000,-0.100000)"
fill="#000000" stroke="none">
<path d="M629 810 c-9 -5 -20 -21 -23 -35 -4 -14 -13 -25 -20 -25 -8 0 -26
-14 -40 -31 -31 -36 -36 -108 -11 -129 10 -8 12 -17 7 -22 -12 -12 24 -89 40
-85 25 5 19 -41 -8 -62 -29 -23 -54 -64 -54 -90 0 -9 -6 -33 -13 -53 l-13 -38
-16 33 c-8 17 -19 47 -22 65 -7 29 -5 32 16 32 13 0 30 5 38 10 11 7 5 10 -23
10 -21 0 -47 5 -57 10 -15 8 -28 6 -53 -8 l-33 -18 23 -19 c25 -22 47 -63 59
-109 7 -29 7 -29 -28 10 -20 21 -50 64 -69 94 -35 58 -46 70 -66 70 -19 0 -16
-30 6 -66 10 -17 22 -46 26 -65 12 -63 16 -69 58 -90 22 -12 62 -42 89 -67 36
-36 46 -52 42 -69 -3 -12 -3 -31 1 -42 6 -20 14 -21 131 -21 68 0 124 3 124 8
0 4 -9 20 -20 37 -15 22 -20 47 -20 96 0 38 -5 70 -12 78 -11 10 -9 11 5 5 20
-7 77 13 94 36 11 13 13 13 14 0 1 -8 0 -26 -1 -39 -1 -16 2 -21 11 -15 9 5
10 2 5 -11 -9 -24 4 -86 16 -79 6 4 8 -2 3 -15 -5 -16 -3 -20 8 -15 10 4 15
-1 14 -13 -1 -11 4 -17 12 -15 10 2 12 -5 8 -28 -6 -30 -6 -30 38 -30 l45 0 0
193 0 193 -46 38 c-25 21 -58 55 -73 76 l-28 38 -18 -31 -19 -32 -8 35 c-4 19
-5 56 -2 82 5 38 1 57 -20 100 -62 124 -78 141 -117 118z m101 -383 c0 -2 -9
-12 -20 -22 -19 -17 -20 -17 -20 -1 0 9 4 15 9 11 5 -3 12 -1 16 5 6 10 15 14
15 7z m-47 -285 c4 -21 3 -31 -3 -27 -6 3 -10 20 -10 37 0 38 5 34 13 -10z"/>
</g>
</svg>
