<?xml version="1.0" standalone="no"?>
<!DOCTYPE svg PUBLIC "-//W3C//DTD SVG 20010904//EN"
 "http://www.w3.org/TR/2001/REC-SVG-20010904/DTD/svg10.dtd">
<svg version="1.0" xmlns="http://www.w3.org/2000/svg"
 width="96.000000pt" height="84.000000pt" viewBox="0 0 96.000000 84.000000"
 preserveAspectRatio="xMidYMid meet">
<metadata>
Created by potrace 1.16, written by Peter Selinger 2001-2019
</metadata>
<g transform="translate(0.000000,84.000000) scale(0.100000,-0.100000)"
fill="#000000" stroke="none">
<path d="M643 803 c-7 -2 -13 -13 -13 -24 0 -11 -7 -19 -16 -19 -9 0 -31 -15
-50 -34 -27 -27 -34 -42 -34 -74 0 -23 5 -44 11 -47 6 -4 8 -13 5 -20 -2 -7 0
-31 6 -54 8 -30 16 -41 29 -41 30 0 24 -44 -9 -72 -33 -27 -47 -54 -65 -128
l-14 -55 -15 35 c-8 19 -18 52 -22 73 l-7 37 38 1 38 1 -35 7 c-19 4 -45 14
-57 22 -19 11 -27 11 -43 1 -11 -6 -27 -12 -36 -12 -12 0 -8 -8 15 -32 25 -26
61 -110 61 -144 0 -13 -69 68 -107 126 -48 73 -65 85 -77 53 -4 -9 3 -31 17
-52 13 -20 29 -59 36 -86 11 -45 16 -53 52 -68 54 -24 141 -109 133 -131 -3
-9 -3 -27 0 -41 6 -25 6 -25 131 -25 69 0 125 3 125 8 0 4 -9 20 -20 37 -15
22 -20 47 -20 96 0 36 -5 70 -11 76 -7 7 -4 9 13 6 14 -3 38 5 61 21 l37 25 0
-35 c0 -21 4 -33 10 -29 6 3 7 -1 4 -9 -8 -20 15 -118 26 -111 4 3 10 -5 14
-18 5 -18 8 -20 16 -7 8 11 9 5 4 -22 l-6 -38 46 0 46 0 0 193 0 193 -46 38
c-25 21 -59 56 -75 79 -16 22 -29 36 -29 31 0 -5 -10 -20 -21 -34 l-20 -25 4
80 c5 86 -5 135 -34 176 -10 14 -16 29 -12 33 3 3 -2 15 -12 26 -17 19 -45 24
-72 13z m40 -661 c4 -21 3 -31 -3 -27 -6 3 -10 20 -10 37 0 38 5 34 13 -10z"/>
</g>
</svg>
