<?xml version="1.0" standalone="no"?>
<!DOCTYPE svg PUBLIC "-//W3C//DTD SVG 20010904//EN"
 "http://www.w3.org/TR/2001/REC-SVG-20010904/DTD/svg10.dtd">
<svg version="1.0" xmlns="http://www.w3.org/2000/svg"
 width="96.000000pt" height="84.000000pt" viewBox="0 0 96.000000 84.000000"
 preserveAspectRatio="xMidYMid meet">
<metadata>
Created by potrace 1.16, written by Peter Selinger 2001-2019
</metadata>
<g transform="translate(0.000000,84.000000) scale(0.100000,-0.100000)"
fill="#000000" stroke="none">
<path d="M668 803 c-9 -2 -20 -13 -23 -23 -3 -10 -19 -22 -35 -25 -43 -9 -70
-49 -70 -101 0 -23 5 -46 10 -49 8 -5 8 -11 1 -19 -16 -19 5 -83 29 -89 32 -8
25 -49 -14 -84 -22 -19 -38 -45 -46 -74 -6 -24 -15 -55 -21 -69 l-11 -25 -12
30 c-7 17 -15 47 -19 68 l-6 37 37 1 37 1 -40 11 c-22 5 -45 16 -52 23 -10 9
-21 10 -47 2 l-34 -11 25 -38 c14 -21 28 -53 32 -71 5 -18 11 -44 15 -57 12
-36 -67 42 -105 105 -37 60 -66 83 -76 58 -3 -8 3 -32 14 -52 11 -20 28 -61
38 -89 14 -46 22 -55 58 -72 57 -26 139 -104 131 -125 -3 -9 -3 -27 0 -41 6
-25 6 -25 131 -25 69 0 125 3 125 8 0 4 -9 20 -20 37 -15 22 -20 47 -20 96 0
36 -5 70 -11 76 -9 9 -7 11 8 7 23 -6 83 21 83 37 0 6 5 7 11 3 6 -3 9 -19 7
-35 -3 -15 -1 -26 4 -23 4 3 8 -18 8 -45 0 -28 5 -51 10 -51 6 0 10 -7 10 -16
0 -8 5 -12 10 -9 5 3 10 -3 10 -14 0 -12 5 -21 10 -21 6 0 10 -11 10 -25 0
-23 4 -25 45 -25 l45 0 0 193 0 193 -46 38 c-25 21 -58 56 -74 77 l-28 39 -15
-23 c-15 -21 -16 -18 -16 56 -1 55 -7 94 -22 130 -41 105 -48 112 -91 100z
m14 -657 c2 -19 0 -32 -4 -30 -8 5 -12 64 -4 64 2 0 6 -15 8 -34z"/>
</g>
</svg>
