<?xml version="1.0" standalone="no"?>
<!DOCTYPE svg PUBLIC "-//W3C//DTD SVG 20010904//EN"
 "http://www.w3.org/TR/2001/REC-SVG-20010904/DTD/svg10.dtd">
<svg version="1.0" xmlns="http://www.w3.org/2000/svg"
 width="96.000000pt" height="84.000000pt" viewBox="0 0 96.000000 84.000000"
 preserveAspectRatio="xMidYMid meet">
<metadata>
Created by potrace 1.16, written by Peter Selinger 2001-2019
</metadata>
<g transform="translate(0.000000,84.000000) scale(0.100000,-0.100000)"
fill="#000000" stroke="none">
<path d="M668 803 c-9 -2 -20 -13 -23 -24 -4 -10 -15 -19 -26 -19 -10 0 -33
-12 -50 -28 -32 -28 -37 -56 -26 -137 2 -16 5 -44 5 -62 2 -25 7 -32 24 -35
35 -5 33 -35 -6 -78 -20 -23 -42 -61 -51 -92 -28 -95 -38 -91 -60 20 -6 31 -5
32 27 33 l33 1 -29 8 c-15 5 -36 16 -47 26 -17 15 -21 15 -56 1 -21 -9 -32
-16 -25 -16 6 -1 12 -6 12 -13 0 -6 6 -19 14 -27 13 -14 49 -141 40 -141 -7 0
-110 108 -137 143 -30 39 -57 49 -57 19 0 -10 11 -33 24 -51 13 -17 29 -51 35
-75 12 -49 21 -59 71 -75 45 -15 131 -96 124 -116 -4 -8 -3 -26 0 -40 6 -25 6
-25 131 -25 69 0 125 4 125 9 0 4 -9 20 -20 33 -14 18 -20 45 -23 95 -2 38 -6
74 -10 80 -4 6 2 8 17 6 14 -3 34 5 54 22 33 27 36 25 32 -24 -1 -16 2 -21 10
-16 9 5 10 1 6 -13 -8 -24 13 -114 24 -107 4 3 10 -5 14 -18 5 -18 8 -20 16
-7 8 11 9 5 4 -22 l-6 -38 51 0 51 0 0 193 0 194 -44 31 c-24 18 -57 52 -73
76 -28 42 -31 44 -46 28 -16 -15 -17 -14 -18 13 -2 107 -8 144 -24 175 -11 19
-18 39 -17 44 4 14 -27 56 -41 55 -6 -1 -20 -3 -29 -6z m99 -300 c-3 -10 -5
-4 -5 12 0 17 2 24 5 18 2 -7 2 -21 0 -30z m-90 -375 c-2 -13 -4 -5 -4 17 -1
22 1 32 4 23 2 -10 2 -28 0 -40z"/>
</g>
</svg>
