<?xml version="1.0" standalone="no"?>
<!DOCTYPE svg PUBLIC "-//W3C//DTD SVG 20010904//EN"
 "http://www.w3.org/TR/2001/REC-SVG-20010904/DTD/svg10.dtd">
<svg version="1.0" xmlns="http://www.w3.org/2000/svg"
 width="96.000000pt" height="84.000000pt" viewBox="0 0 96.000000 84.000000"
 preserveAspectRatio="xMidYMid meet">
<metadata>
Created by potrace 1.16, written by Peter Selinger 2001-2019
</metadata>
<g transform="translate(0.000000,84.000000) scale(0.100000,-0.100000)"
fill="#000000" stroke="none">
<path d="M653 803 c-7 -2 -13 -11 -13 -19 0 -8 -18 -21 -39 -30 -22 -9 -47
-26 -55 -39 -19 -29 -21 -86 -4 -103 9 -9 9 -15 1 -23 -17 -17 5 -89 27 -89
35 0 29 -44 -10 -87 -33 -35 -40 -38 -66 -30 -16 5 -38 18 -50 28 -22 21 -49
25 -59 9 -3 -5 -13 -6 -21 -3 -14 5 -14 3 -2 -18 7 -13 17 -27 21 -30 10 -7
47 -159 40 -159 -8 0 -65 52 -123 113 -30 31 -60 57 -66 57 -24 0 -22 -30 2
-59 13 -16 30 -44 36 -63 20 -57 37 -76 77 -83 25 -4 54 -21 86 -51 45 -41 49
-48 46 -84 l-3 -40 131 0 c72 0 131 3 131 8 0 4 -8 19 -17 32 -10 14 -22 60
-28 105 l-10 80 27 1 c16 1 37 11 47 23 23 26 36 13 27 -25 -5 -17 -3 -23 4
-19 6 4 10 -12 10 -45 0 -36 3 -49 12 -44 8 5 9 0 5 -15 -4 -18 -3 -20 9 -10
12 10 14 7 12 -12 -2 -16 2 -23 11 -21 10 2 12 -5 8 -28 l-6 -30 54 0 55 0 0
193 -1 192 -45 34 c-25 18 -60 53 -77 77 -27 39 -32 42 -41 27 -9 -16 -11 -15
-17 7 -4 14 -7 50 -8 80 -1 34 -9 71 -21 95 -11 22 -20 47 -20 56 0 33 -43 56
-77 42z m114 -310 c-3 -10 -5 -2 -5 17 0 19 2 27 5 18 2 -10 2 -26 0 -35z
m-260 -123 c14 0 6 -63 -13 -100 l-12 -25 -12 30 c-7 17 -15 48 -18 69 -5 37
-4 39 19 33 13 -4 29 -7 36 -7z m170 -242 c-2 -13 -4 -5 -4 17 -1 22 1 32 4
23 2 -10 2 -28 0 -40z"/>
</g>
</svg>
