<?xml version="1.0" standalone="no"?>
<!DOCTYPE svg PUBLIC "-//W3C//DTD SVG 20010904//EN"
 "http://www.w3.org/TR/2001/REC-SVG-20010904/DTD/svg10.dtd">
<svg version="1.0" xmlns="http://www.w3.org/2000/svg"
 width="96.000000pt" height="84.000000pt" viewBox="0 0 96.000000 84.000000"
 preserveAspectRatio="xMidYMid meet">
<metadata>
Created by potrace 1.16, written by Peter Selinger 2001-2019
</metadata>
<g transform="translate(0.000000,84.000000) scale(0.100000,-0.100000)"
fill="#000000" stroke="none">
<path d="M643 803 c-7 -2 -13 -11 -13 -19 0 -7 -15 -20 -33 -28 -65 -27 -96
-96 -63 -142 9 -11 11 -23 5 -30 -5 -6 -4 -26 2 -47 7 -27 15 -37 29 -37 32 0
26 -53 -8 -82 -30 -25 -62 -85 -62 -116 0 -11 -6 -25 -13 -31 -11 -9 -16 -3
-25 28 -7 21 -12 48 -12 60 0 20 4 22 33 17 l32 -6 -33 15 c-18 9 -35 22 -39
31 -4 10 -17 14 -48 12 l-42 -3 20 -35 c18 -32 59 -190 49 -190 -8 0 -66 47
-128 104 -60 56 -66 59 -81 43 -16 -16 -15 -19 11 -46 15 -16 40 -53 55 -83
14 -29 31 -53 36 -54 35 -2 95 -17 95 -24 0 -5 17 -21 38 -37 33 -25 37 -32
34 -66 l-3 -37 130 0 c81 0 131 4 131 10 0 6 -8 18 -19 29 -13 13 -21 43 -27
104 -6 47 -6 83 -1 80 10 -6 77 28 77 40 0 4 4 5 10 2 5 -3 7 -20 3 -37 -5
-24 -3 -29 7 -23 9 5 11 4 6 -4 -10 -15 13 -123 25 -116 5 4 9 -4 9 -16 0 -16
3 -19 13 -11 10 9 12 4 9 -23 l-4 -35 56 0 56 0 -1 193 0 192 -42 30 c-23 17
-57 52 -76 77 -31 41 -36 45 -47 30 -19 -26 -23 -13 -27 75 -3 60 -10 91 -25
118 -12 20 -22 44 -22 54 0 33 -38 50 -77 34z m34 -675 c-2 -13 -4 -5 -4 17
-1 22 1 32 4 23 2 -10 2 -28 0 -40z"/>
</g>
</svg>
