<?xml version="1.0" standalone="no"?>
<!DOCTYPE svg PUBLIC "-//W3C//DTD SVG 20010904//EN"
 "http://www.w3.org/TR/2001/REC-SVG-20010904/DTD/svg10.dtd">
<svg version="1.0" xmlns="http://www.w3.org/2000/svg"
 width="96.000000pt" height="84.000000pt" viewBox="0 0 96.000000 84.000000"
 preserveAspectRatio="xMidYMid meet">
<metadata>
Created by potrace 1.16, written by Peter Selinger 2001-2019
</metadata>
<g transform="translate(0.000000,84.000000) scale(0.100000,-0.100000)"
fill="#000000" stroke="none">
<path d="M629 787 c-6 -13 -25 -29 -43 -35 -17 -6 -39 -25 -49 -41 -17 -30
-23 -82 -9 -95 4 -4 8 -22 8 -39 3 -72 4 -76 27 -79 35 -5 35 -47 0 -78 -27
-23 -45 -55 -73 -124 -15 -39 -29 -23 -37 42 l-6 52 34 -5 34 -5 -27 13 c-15
7 -37 23 -49 36 -15 15 -28 21 -43 17 -11 -3 -27 -6 -33 -6 -9 0 -5 -13 9 -37
20 -35 54 -200 44 -210 -7 -7 -73 44 -133 101 -50 47 -54 49 -70 33 -16 -16
-15 -19 13 -49 17 -18 40 -54 52 -80 20 -43 25 -47 67 -53 27 -5 60 -19 81
-36 20 -16 41 -29 46 -29 5 0 8 -8 7 -17 -6 -65 -11 -63 131 -63 72 0 130 4
130 8 0 5 -9 17 -19 29 -14 14 -21 43 -26 99 -4 43 -13 83 -19 87 -6 5 -1 7
13 3 22 -5 67 16 83 39 4 5 8 8 8 5 5 -38 12 -119 12 -132 -1 -10 3 -18 9 -18
5 0 9 -7 9 -16 0 -8 4 -12 10 -9 6 4 9 -4 7 -17 -1 -15 3 -22 12 -20 10 2 12
-5 8 -28 l-6 -30 59 0 60 0 0 187 0 186 -60 55 c-34 30 -68 68 -77 85 l-16 31
-18 -22 c-16 -20 -18 -21 -23 -5 -3 10 -5 48 -4 85 1 50 -4 76 -21 107 -11 23
-21 48 -21 56 0 44 -73 61 -91 22z m48 -659 c-2 -13 -4 -5 -4 17 -1 22 1 32 4
23 2 -10 2 -28 0 -40z"/>
</g>
</svg>
