<?xml version="1.0" standalone="no"?>
<!DOCTYPE svg PUBLIC "-//W3C//DTD SVG 20010904//EN"
 "http://www.w3.org/TR/2001/REC-SVG-20010904/DTD/svg10.dtd">
<svg version="1.0" xmlns="http://www.w3.org/2000/svg"
 width="96.000000pt" height="84.000000pt" viewBox="0 0 96.000000 84.000000"
 preserveAspectRatio="xMidYMid meet">
<metadata>
Created by potrace 1.16, written by Peter Selinger 2001-2019
</metadata>
<g transform="translate(0.000000,84.000000) scale(0.100000,-0.100000)"
fill="#000000" stroke="none">
<path d="M657 813 c-10 -3 -22 -16 -27 -29 -5 -13 -18 -24 -28 -24 -26 0 -70
-50 -78 -88 -4 -21 -1 -40 9 -56 10 -14 12 -27 7 -32 -6 -6 -6 -24 1 -47 7
-27 15 -37 29 -37 31 0 26 -50 -7 -83 -16 -14 -37 -43 -48 -64 -10 -21 -27
-48 -36 -60 -16 -22 -16 -22 -23 15 -3 20 -6 52 -6 70 0 32 1 33 33 28 l32 -7
-36 20 c-20 11 -39 27 -42 35 -5 11 -19 15 -50 14 l-44 -2 28 -47 c24 -38 29
-58 29 -110 1 -35 5 -83 9 -106 5 -24 6 -43 4 -43 -10 0 -82 57 -130 104 -50
47 -54 49 -70 33 -16 -16 -15 -18 9 -44 14 -16 37 -51 52 -80 24 -47 29 -52
74 -62 66 -14 132 -58 132 -88 0 -23 1 -23 130 -23 73 0 130 4 130 9 0 5 -7
17 -17 26 -11 12 -18 40 -21 93 -2 43 -9 83 -15 90 -7 9 -6 11 7 6 19 -7 76
14 76 28 0 5 5 6 10 3 6 -3 7 -18 4 -32 -5 -19 -4 -24 6 -18 9 5 10 2 6 -13
-8 -25 13 -114 25 -106 5 3 9 -7 9 -21 0 -15 4 -24 10 -20 6 4 10 -5 10 -19 0
-25 3 -26 55 -26 l55 0 0 193 -1 192 -43 32 c-24 17 -56 52 -72 77 -16 25 -31
46 -34 46 -3 0 -13 -12 -22 -27 l-17 -28 -2 40 c0 22 0 63 1 90 0 33 -6 64
-20 90 -11 21 -20 47 -20 57 0 18 -34 59 -47 57 -5 -1 -16 -3 -26 -6z m-159
-667 c-2 -10 -9 -11 -27 -5 l-23 9 23 19 c19 16 25 17 27 5 2 -8 2 -20 0 -28z
m191 -31 c1 -17 -1 -17 -9 -5 -5 8 -9 26 -9 40 0 23 1 23 9 5 5 -11 9 -29 9
-40z"/>
</g>
</svg>
