<?xml version="1.0" standalone="no"?>
<!DOCTYPE svg PUBLIC "-//W3C//DTD SVG 20010904//EN"
 "http://www.w3.org/TR/2001/REC-SVG-20010904/DTD/svg10.dtd">
<svg version="1.0" xmlns="http://www.w3.org/2000/svg"
 width="96.000000pt" height="84.000000pt" viewBox="0 0 96.000000 84.000000"
 preserveAspectRatio="xMidYMid meet">
<metadata>
Created by potrace 1.16, written by Peter Selinger 2001-2019
</metadata>
<g transform="translate(0.000000,84.000000) scale(0.100000,-0.100000)"
fill="#000000" stroke="none">
<path d="M336 824 c-3 -9 -6 -17 -6 -20 0 -2 23 -15 50 -29 28 -14 50 -27 50
-29 0 -3 -12 -3 -27 -2 -50 6 -47 -6 13 -61 32 -30 48 -48 34 -41 -14 7 -29
12 -33 13 -4 0 -12 7 -17 15 -6 9 -10 10 -10 3 0 -6 5 -15 11 -18 5 -4 8 -12
6 -18 -2 -7 2 -34 9 -62 8 -27 14 -69 14 -91 0 -40 1 -42 45 -54 43 -12 78
-11 152 5 26 6 33 3 43 -14 8 -17 8 -22 -2 -25 -7 -2 -35 -10 -63 -18 l-50
-14 54 -19 c53 -17 59 -17 145 -1 50 9 117 18 148 19 l58 2 0 238 0 237 -309
0 c-272 0 -310 -2 -315 -16z"/>
<path d="M250 656 c0 -3 9 -10 20 -16 11 -6 20 -8 20 -6 0 3 -9 10 -20 16 -11
6 -20 8 -20 6z"/>
<path d="M250 611 c15 -29 29 -35 37 -16 6 17 -11 35 -35 35 -9 0 -10 -5 -2
-19z"/>
<path d="M230 553 c1 -18 19 -35 29 -28 9 5 9 10 0 21 -12 15 -29 19 -29 7z"/>
<path d="M16 375 c-9 -13 -16 -43 -16 -67 l0 -42 31 30 c47 44 54 62 33 85
-22 25 -28 24 -48 -6z"/>
<path d="M410 365 c0 -10 99 -54 134 -61 49 -9 42 7 -16 33 -40 19 -118 37
-118 28z"/>
<path d="M539 29 c-6 -12 -9 -23 -6 -25 3 -3 29 -4 59 -2 l55 3 -48 22 c-49
22 -49 22 -60 2z"/>
<path d="M13 3 c9 -2 23 -2 30 0 6 3 -1 5 -18 5 -17 0 -22 -2 -12 -5z"/>
</g>
</svg>
