<?xml version="1.0" standalone="no"?>
<!DOCTYPE svg PUBLIC "-//W3C//DTD SVG 20010904//EN"
 "http://www.w3.org/TR/2001/REC-SVG-20010904/DTD/svg10.dtd">
<svg version="1.0" xmlns="http://www.w3.org/2000/svg"
 width="96.000000pt" height="84.000000pt" viewBox="0 0 96.000000 84.000000"
 preserveAspectRatio="xMidYMid meet">
<metadata>
Created by potrace 1.16, written by Peter Selinger 2001-2019
</metadata>
<g transform="translate(0.000000,84.000000) scale(0.100000,-0.100000)"
fill="#000000" stroke="none">
<path d="M681 821 c-13 -4 -27 -15 -31 -25 -3 -10 -21 -24 -40 -30 -61 -20
-102 -113 -65 -150 12 -12 14 -20 7 -29 -17 -20 6 -97 28 -97 10 0 20 -9 23
-21 5 -20 1 -27 -100 -137 -18 -20 -34 -41 -34 -46 -3 -26 -17 54 -18 102 -1
51 0 53 22 46 50 -16 52 -16 33 0 -11 9 -25 16 -32 16 -7 0 -20 10 -29 22 -12
18 -25 23 -66 24 -43 1 -49 -1 -35 -11 9 -7 16 -17 16 -24 0 -6 9 -20 21 -32
19 -19 20 -28 13 -127 -6 -94 -4 -110 10 -125 16 -15 20 -15 46 -2 16 8 32 19
35 25 13 22 25 -3 25 -54 l0 -54 -47 6 c-56 6 -83 24 -170 112 l-63 65 -21
-24 -20 -24 31 -32 c18 -18 42 -55 55 -83 21 -46 26 -50 67 -57 23 -4 66 -18
94 -31 46 -22 65 -24 183 -24 l131 0 -14 23 c-8 12 -17 55 -20 95 -3 39 -8 77
-12 84 -5 8 -2 9 11 4 10 -3 27 0 39 7 12 7 29 17 39 20 16 6 18 3 12 -24 -6
-24 -4 -30 6 -24 9 6 11 2 6 -15 -8 -30 12 -122 24 -114 5 3 9 -4 9 -15 0 -12
7 -21 15 -21 8 0 15 -4 15 -10 0 -5 18 -10 40 -10 l40 0 0 199 0 200 -29 21
c-17 11 -45 43 -63 71 l-32 51 -23 -29 -23 -28 2 90 c2 74 -2 98 -19 135 -11
25 -24 57 -27 72 -7 33 -32 47 -65 39z m16 -718 c-3 -10 -5 -2 -5 17 0 19 2
27 5 18 2 -10 2 -26 0 -35z"/>
</g>
</svg>
