<?xml version="1.0" standalone="no"?>
<!DOCTYPE svg PUBLIC "-//W3C//DTD SVG 20010904//EN"
 "http://www.w3.org/TR/2001/REC-SVG-20010904/DTD/svg10.dtd">
<svg version="1.0" xmlns="http://www.w3.org/2000/svg"
 width="96.000000pt" height="84.000000pt" viewBox="0 0 96.000000 84.000000"
 preserveAspectRatio="xMidYMid meet">
<metadata>
Created by potrace 1.16, written by Peter Selinger 2001-2019
</metadata>
<g transform="translate(0.000000,84.000000) scale(0.100000,-0.100000)"
fill="#000000" stroke="none">
<path d="M694 833 c-6 -5 -15 -17 -21 -27 -6 -11 -26 -24 -44 -30 -64 -21
-100 -112 -64 -163 9 -12 11 -23 5 -25 -6 -2 -7 -20 -2 -48 6 -36 12 -45 32
-50 17 -4 26 -14 28 -31 2 -20 -8 -35 -45 -67 -26 -23 -65 -58 -85 -78 l-37
-35 -3 91 c-3 97 -2 98 49 80 27 -10 27 -9 8 5 -11 9 -30 18 -42 21 -12 3 -25
15 -28 25 -7 21 -9 22 -78 23 -45 1 -47 0 -28 -13 12 -7 21 -22 21 -32 0 -11
6 -19 14 -19 23 0 28 -51 16 -160 -9 -77 -8 -105 1 -116 16 -20 46 -17 85 7
26 16 35 18 38 7 10 -31 14 -89 9 -126 -5 -39 -7 -40 -49 -47 -52 -7 -73 5
-178 113 l-71 73 -17 -21 c-24 -30 -23 -42 8 -71 14 -13 37 -45 50 -71 l24
-48 234 0 c218 0 234 1 230 18 -2 9 -8 50 -12 90 -8 68 -7 72 10 66 11 -3 25
-1 31 5 7 5 25 14 40 20 26 10 26 9 20 -21 -4 -20 -2 -29 4 -25 7 4 11 -14 11
-50 0 -32 5 -59 11 -61 6 -2 11 -10 11 -17 0 -15 22 -25 56 -25 l24 0 0 210 0
210 -32 43 c-18 24 -38 52 -44 62 -9 16 -12 15 -32 -16 l-22 -34 0 101 c0 84
-4 108 -23 150 -13 27 -28 63 -33 79 -7 24 -16 31 -39 33 -17 1 -35 -1 -41 -5z
m33 -770 c-3 -10 -5 -4 -5 12 0 17 2 24 5 18 2 -7 2 -21 0 -30z"/>
</g>
</svg>
