<?xml version="1.0" standalone="no"?>
<!DOCTYPE svg PUBLIC "-//W3C//DTD SVG 20010904//EN"
 "http://www.w3.org/TR/2001/REC-SVG-20010904/DTD/svg10.dtd">
<svg version="1.0" xmlns="http://www.w3.org/2000/svg"
 width="96.000000pt" height="84.000000pt" viewBox="0 0 96.000000 84.000000"
 preserveAspectRatio="xMidYMid meet">
<metadata>
Created by potrace 1.16, written by Peter Selinger 2001-2019
</metadata>
<g transform="translate(0.000000,84.000000) scale(0.100000,-0.100000)"
fill="#000000" stroke="none">
<path d="M703 821 c-3 -11 -17 -21 -32 -24 -72 -15 -124 -126 -86 -183 11 -18
14 -29 7 -33 -8 -5 -7 -22 2 -56 10 -43 16 -50 39 -53 22 -3 27 -8 27 -32 0
-32 -67 -100 -99 -100 -11 0 -22 -9 -26 -19 -3 -11 -15 -23 -26 -26 -10 -4
-19 -11 -19 -16 0 -5 -6 -9 -12 -9 -10 0 -12 25 -10 100 3 99 4 101 25 94 12
-4 29 -9 37 -11 8 -3 -2 6 -22 19 -20 13 -47 36 -58 51 -16 20 -30 27 -56 27
-20 0 -44 5 -55 10 -12 7 -19 7 -19 1 0 -6 9 -15 20 -21 12 -6 20 -21 20 -35
0 -14 6 -25 13 -25 27 0 38 -47 28 -118 -21 -148 -22 -176 -7 -197 13 -18 18
-19 58 -7 77 23 81 22 90 -28 5 -25 7 -64 6 -87 l-3 -43 123 0 123 0 -6 68 -7
67 42 1 c23 0 44 5 48 10 4 6 15 13 25 17 15 6 16 2 10 -36 -6 -38 -5 -41 10
-28 15 12 16 10 11 -17 -8 -41 3 -82 21 -82 13 0 15 35 15 246 0 160 -4 252
-11 266 -11 20 -12 20 -35 -8 l-23 -29 -1 50 c-4 154 -7 171 -57 260 -7 11
-14 28 -17 38 -8 26 -106 25 -113 -2z"/>
<path d="M193 85 c-16 -34 -16 -36 7 -60 20 -21 32 -25 82 -25 l59 0 -52 60
c-29 33 -58 60 -66 60 -7 0 -21 -16 -30 -35z"/>
</g>
</svg>
