<?xml version="1.0" standalone="no"?>
<!DOCTYPE svg PUBLIC "-//W3C//DTD SVG 20010904//EN"
 "http://www.w3.org/TR/2001/REC-SVG-20010904/DTD/svg10.dtd">
<svg version="1.0" xmlns="http://www.w3.org/2000/svg"
 width="96.000000pt" height="84.000000pt" viewBox="0 0 96.000000 84.000000"
 preserveAspectRatio="xMidYMid meet">
<metadata>
Created by potrace 1.16, written by Peter Selinger 2001-2019
</metadata>
<g transform="translate(0.000000,84.000000) scale(0.100000,-0.100000)"
fill="#000000" stroke="none">
<path d="M730 830 c0 -6 -18 -17 -40 -26 -75 -30 -117 -151 -74 -212 12 -17
13 -26 4 -37 -6 -7 -7 -16 -2 -19 5 -3 15 -26 22 -51 11 -40 16 -45 41 -45 23
0 29 -4 29 -22 0 -31 -73 -108 -102 -108 -12 0 -31 -9 -43 -20 -48 -46 -66
-60 -75 -60 -11 0 -14 212 -4 223 4 3 22 -5 40 -20 19 -14 34 -20 34 -14 0 6
-14 21 -31 33 -16 12 -39 42 -49 65 -14 32 -25 43 -41 43 -12 0 -37 11 -56 26
-36 27 -45 16 -14 -17 14 -16 18 -30 14 -55 -3 -20 -1 -34 4 -34 19 0 22 -58
13 -196 -9 -118 -8 -140 5 -161 19 -28 46 -29 102 -4 48 22 59 16 69 -40 14
-87 0 -79 139 -79 l125 0 0 25 c0 28 4 31 73 40 l47 6 0 299 c0 276 -2 304
-20 353 -12 31 -35 68 -55 86 -31 28 -41 31 -95 31 -34 0 -60 -4 -60 -10z"/>
<path d="M215 10 c-3 -5 1 -10 10 -10 9 0 13 5 10 10 -3 6 -8 10 -10 10 -2 0
-7 -4 -10 -10z"/>
</g>
</svg>
