<?xml version="1.0" standalone="no"?>
<!DOCTYPE svg PUBLIC "-//W3C//DTD SVG 20010904//EN"
 "http://www.w3.org/TR/2001/REC-SVG-20010904/DTD/svg10.dtd">
<svg version="1.0" xmlns="http://www.w3.org/2000/svg"
 width="96.000000pt" height="84.000000pt" viewBox="0 0 96.000000 84.000000"
 preserveAspectRatio="xMidYMid meet">
<metadata>
Created by potrace 1.16, written by Peter Selinger 2001-2019
</metadata>
<g transform="translate(0.000000,84.000000) scale(0.100000,-0.100000)"
fill="#000000" stroke="none">
<path d="M760 832 c0 -5 -14 -15 -31 -22 -36 -15 -85 -78 -94 -122 -10 -43 3
-112 25 -139 22 -24 25 -39 10 -39 -5 0 5 -28 23 -62 27 -51 38 -63 58 -63 36
0 30 -27 -19 -79 -35 -38 -49 -46 -78 -46 -28 0 -36 -5 -44 -25 -5 -14 -14
-25 -19 -25 -5 0 -24 -12 -41 -27 -40 -33 -45 -26 -54 78 -5 54 -3 90 5 114 7
19 15 35 19 35 3 0 18 -20 33 -45 16 -25 31 -45 33 -45 6 0 -14 48 -32 75 -9
14 -21 46 -25 71 -6 34 -20 57 -48 86 -22 22 -43 48 -46 59 -4 10 -11 19 -16
19 -13 0 -12 -6 11 -50 24 -47 24 -50 5 -50 -8 0 -15 -1 -16 -2 0 -2 -3 -96
-6 -209 -7 -298 5 -325 123 -281 62 24 84 20 84 -14 l0 -24 170 0 170 0 -2
417 -3 418 -97 3 c-55 1 -98 -1 -98 -6z"/>
</g>
</svg>
