<?xml version="1.0" standalone="no"?>
<!DOCTYPE svg PUBLIC "-//W3C//DTD SVG 20010904//EN"
 "http://www.w3.org/TR/2001/REC-SVG-20010904/DTD/svg10.dtd">
<svg version="1.0" xmlns="http://www.w3.org/2000/svg"
 width="96.000000pt" height="84.000000pt" viewBox="0 0 96.000000 84.000000"
 preserveAspectRatio="xMidYMid meet">
<metadata>
Created by potrace 1.16, written by Peter Selinger 2001-2019
</metadata>
<g transform="translate(0.000000,84.000000) scale(0.100000,-0.100000)"
fill="#000000" stroke="none">
<path d="M790 822 c0 -10 -14 -29 -31 -41 -87 -64 -107 -257 -33 -306 18 -11
23 -22 19 -36 -4 -13 3 -32 23 -57 16 -20 35 -47 41 -60 8 -15 20 -23 34 -22
38 3 41 1 21 -21 -43 -48 -98 -83 -138 -89 -32 -4 -44 -11 -54 -33 -7 -15 -17
-27 -23 -27 -5 0 -17 -8 -27 -17 -9 -10 -29 -26 -44 -35 l-27 -17 -14 67 c-30
134 -30 128 -5 166 13 20 25 36 28 36 3 0 16 -27 29 -61 13 -33 25 -59 27 -56
2 2 -5 35 -16 73 -11 38 -22 93 -23 123 -2 34 -9 58 -19 65 -8 6 -26 36 -38
66 -31 72 -43 86 -34 35 4 -22 11 -50 15 -63 7 -19 5 -24 -16 -32 -27 -10 -50
-46 -36 -55 6 -3 4 -19 -4 -39 -29 -69 -29 -224 1 -363 l4 -23 255 0 255 0 0
420 0 420 -85 0 c-75 0 -85 -2 -85 -18z"/>
</g>
</svg>
