<?xml version="1.0" standalone="no"?>
<!DOCTYPE svg PUBLIC "-//W3C//DTD SVG 20010904//EN"
 "http://www.w3.org/TR/2001/REC-SVG-20010904/DTD/svg10.dtd">
<svg version="1.0" xmlns="http://www.w3.org/2000/svg"
 width="96.000000pt" height="84.000000pt" viewBox="0 0 96.000000 84.000000"
 preserveAspectRatio="xMidYMid meet">
<metadata>
Created by potrace 1.16, written by Peter Selinger 2001-2019
</metadata>
<g transform="translate(0.000000,84.000000) scale(0.100000,-0.100000)"
fill="#000000" stroke="none">
<path d="M834 823 c2 -10 7 -28 11 -40 4 -16 -5 -35 -33 -73 -50 -66 -76 -147
-67 -209 9 -62 41 -120 71 -131 34 -13 39 -13 24 5 -9 10 -9 15 -1 15 6 0 11
-3 12 -7 0 -5 2 -17 4 -28 2 -10 -1 -25 -7 -33 -9 -10 -5 -20 18 -41 16 -16
38 -39 49 -53 46 -55 45 -59 45 286 l0 326 -66 0 c-57 0 -65 -2 -60 -17z"/>
<path d="M546 518 c3 -24 10 -57 14 -75 9 -36 5 -43 -25 -43 -29 0 -49 -24
-42 -51 3 -12 0 -34 -8 -49 -28 -54 -39 -150 -25 -228 l12 -72 63 0 62 0 -17
63 c-10 34 -19 67 -21 72 -4 13 58 108 64 98 2 -4 10 -26 17 -48 15 -48 40
-98 46 -93 2 2 -8 46 -21 97 -14 51 -25 114 -25 140 0 34 -5 53 -19 65 -10 9
-24 37 -31 62 -7 24 -17 47 -21 50 -5 3 -9 14 -9 24 0 10 -5 22 -10 25 -7 4
-8 -8 -4 -37z"/>
<path d="M925 142 c-16 -8 -34 -21 -40 -27 -5 -7 -32 -15 -59 -19 -54 -7 -76
-20 -76 -46 0 -10 -14 -25 -32 -34 -32 -15 -29 -16 105 -16 l137 0 0 80 c0 44
-1 80 -2 79 -2 -1 -16 -8 -33 -17z"/>
</g>
</svg>
