<?xml version="1.0" standalone="no"?>
<!DOCTYPE svg PUBLIC "-//W3C//DTD SVG 20010904//EN"
 "http://www.w3.org/TR/2001/REC-SVG-20010904/DTD/svg10.dtd">
<svg version="1.0" xmlns="http://www.w3.org/2000/svg"
 width="96.000000pt" height="84.000000pt" viewBox="0 0 96.000000 84.000000"
 preserveAspectRatio="xMidYMid meet">
<metadata>
Created by potrace 1.16, written by Peter Selinger 2001-2019
</metadata>
<g transform="translate(0.000000,84.000000) scale(0.100000,-0.100000)"
fill="#000000" stroke="none">
<path d="M930 775 c-19 -30 -20 -38 -9 -74 11 -38 10 -42 -20 -79 -38 -49 -81
-143 -81 -178 0 -66 59 -202 81 -188 5 3 20 -2 33 -11 l25 -17 1 291 c0 160
-1 291 -4 291 -2 0 -14 -16 -26 -35z"/>
<path d="M310 694 c0 -15 46 -83 117 -172 41 -51 71 -97 68 -102 -3 -5 -21
-17 -40 -26 l-34 -16 3 -111 c2 -83 9 -132 26 -189 l23 -78 69 0 68 0 -16 38
c-49 115 -49 111 -18 177 19 40 35 60 46 59 13 -1 16 8 16 48 1 45 -1 49 -19
45 -17 -5 -19 0 -19 39 0 51 -23 104 -45 104 -18 0 -18 -4 -5 -49 5 -19 8 -36
6 -38 -2 -2 -34 39 -71 91 -57 82 -175 202 -175 180z"/>
<path d="M951 184 c0 -11 3 -14 6 -6 3 7 2 16 -1 19 -3 4 -6 -2 -5 -13z"/>
<path d="M860 17 c-22 -10 -19 -12 34 -15 52 -3 77 2 65 12 -12 10 -77 12 -99
3z"/>
</g>
</svg>
