<?xml version="1.0" standalone="no"?>
<!DOCTYPE svg PUBLIC "-//W3C//DTD SVG 20010904//EN"
 "http://www.w3.org/TR/2001/REC-SVG-20010904/DTD/svg10.dtd">
<svg version="1.0" xmlns="http://www.w3.org/2000/svg"
 width="96.000000pt" height="84.000000pt" viewBox="0 0 96.000000 84.000000"
 preserveAspectRatio="xMidYMid meet">
<metadata>
Created by potrace 1.16, written by Peter Selinger 2001-2019
</metadata>
<g transform="translate(0.000000,84.000000) scale(0.100000,-0.100000)"
fill="#000000" stroke="none">
<path d="M8 807 c16 -19 125 -60 257 -96 110 -31 150 -37 142 -23 -3 4 18 6
46 4 35 -2 47 0 37 7 -19 11 -332 98 -385 106 -22 3 -55 8 -74 11 -29 5 -33 3
-23 -9z"/>
<path d="M362 418 c-19 -19 -14 -32 28 -81 22 -25 40 -47 40 -50 0 -3 -12 -8
-26 -11 -26 -7 -27 -8 -22 -78 6 -72 23 -103 52 -92 23 9 95 -47 101 -77 6
-28 8 -29 71 -29 35 0 64 4 64 10 0 18 -41 118 -69 171 -25 45 -28 59 -24 107
5 43 3 54 -7 50 -8 -2 -18 -17 -23 -34 -5 -16 -11 -30 -12 -32 -2 -2 -39 33
-82 77 -61 62 -82 78 -91 69z"/>
<path d="M932 383 c-26 -57 -27 -72 -6 -121 9 -20 20 -50 24 -67 5 -19 8 18 9
103 1 72 0 132 -2 132 -1 0 -12 -21 -25 -47z"/>
</g>
</svg>
