<?xml version="1.0" standalone="no"?>
<!DOCTYPE svg PUBLIC "-//W3C//DTD SVG 20010904//EN"
 "http://www.w3.org/TR/2001/REC-SVG-20010904/DTD/svg10.dtd">
<svg version="1.0" xmlns="http://www.w3.org/2000/svg"
 width="96.000000pt" height="84.000000pt" viewBox="0 0 96.000000 84.000000"
 preserveAspectRatio="xMidYMid meet">
<metadata>
Created by potrace 1.16, written by Peter Selinger 2001-2019
</metadata>
<g transform="translate(0.000000,84.000000) scale(0.100000,-0.100000)"
fill="#000000" stroke="none">
<path d="M464 243 c8 -16 30 -44 50 -62 40 -38 46 -61 17 -61 -29 0 -41 -23
-40 -74 l2 -46 119 0 c65 0 118 2 118 5 0 3 -7 17 -16 30 -11 17 -15 41 -12
77 3 47 1 53 -17 53 -12 0 -21 -9 -25 -23 -3 -13 -9 -23 -13 -23 -5 -1 -46 33
-92 75 -88 81 -115 95 -91 49z"/>
</g>
</svg>
