<?xml version="1.0" standalone="no"?>
<!DOCTYPE svg PUBLIC "-//W3C//DTD SVG 20010904//EN"
 "http://www.w3.org/TR/2001/REC-SVG-20010904/DTD/svg10.dtd">
<svg version="1.0" xmlns="http://www.w3.org/2000/svg"
 width="96.000000pt" height="84.000000pt" viewBox="0 0 96.000000 84.000000"
 preserveAspectRatio="xMidYMid meet">
<metadata>
Created by potrace 1.16, written by Peter Selinger 2001-2019
</metadata>
<g transform="translate(0.000000,84.000000) scale(0.100000,-0.100000)"
fill="#000000" stroke="none">
<path d="M0 420 l0 -420 480 0 480 0 0 73 c0 66 -3 78 -29 115 -17 22 -46 53
-65 68 -28 23 -34 33 -30 54 12 53 15 56 30 25 l14 -30 -5 28 c-3 16 -5 67 -3
115 1 48 2 149 1 226 -1 76 0 136 3 134 2 -3 22 -56 43 -119 l39 -114 1 133 1
132 -480 0 -480 0 0 -420z"/>
</g>
</svg>
