<?xml version="1.0" standalone="no"?>
<!DOCTYPE svg PUBLIC "-//W3C//DTD SVG 20010904//EN"
 "http://www.w3.org/TR/2001/REC-SVG-20010904/DTD/svg10.dtd">
<svg version="1.0" xmlns="http://www.w3.org/2000/svg"
 width="96.000000pt" height="84.000000pt" viewBox="0 0 96.000000 84.000000"
 preserveAspectRatio="xMidYMid meet">
<metadata>
Created by potrace 1.16, written by Peter Selinger 2001-2019
</metadata>
<g transform="translate(0.000000,84.000000) scale(0.100000,-0.100000)"
fill="#000000" stroke="none">
<path d="M0 733 c0 -95 2 -109 21 -129 12 -13 22 -36 23 -53 1 -23 14 -41 54
-76 30 -25 57 -45 60 -45 9 0 7 50 -3 74 -5 11 -3 32 4 50 7 17 17 52 21 78 5
27 12 53 15 59 13 20 -4 57 -29 63 -13 3 -39 24 -56 46 -27 34 -37 40 -71 40
l-39 0 0 -107z"/>
<path d="M668 833 c7 -3 16 -2 19 1 4 3 -2 6 -13 5 -11 0 -14 -3 -6 -6z"/>
<path d="M783 826 c17 -14 17 -15 -5 -22 -22 -7 -22 -7 -3 -15 11 -4 14 -8 6
-8 -7 -1 1 -14 19 -31 39 -36 36 -43 -10 -30 -24 7 -36 6 -41 -2 -4 -6 -14 -8
-23 -5 -14 5 -15 3 -6 -13 16 -30 12 -30 -19 1 -16 16 -37 30 -45 30 -25 2
-30 4 -46 13 -10 7 -10 3 3 -11 9 -11 17 -25 17 -33 0 -7 8 -19 18 -26 16 -13
16 -13 0 -14 -10 0 -18 -6 -18 -12 0 -9 -3 -10 -8 -2 -4 6 -25 14 -47 17 -39
6 -33 1 20 -19 18 -6 16 -8 -10 -13 l-29 -6 28 -23 c16 -12 35 -22 42 -22 7 0
17 -15 22 -32 7 -29 13 -33 46 -36 l39 -3 -6 -70 -6 -69 38 -19 c20 -11 66
-25 102 -31 35 -6 72 -13 82 -16 16 -5 17 12 17 265 l0 271 -97 0 c-86 -1 -96
-2 -80 -14z"/>
<path d="M463 578 c3 -7 14 -37 23 -65 19 -58 29 -65 37 -30 3 12 8 31 12 43
5 17 -1 25 -30 43 -42 24 -49 26 -42 9z"/>
<path d="M0 295 l0 -135 28 0 c22 0 35 12 74 69 l47 69 -69 66 c-38 36 -72 66
-75 66 -3 0 -5 -61 -5 -135z"/>
<path d="M243 308 c-53 -81 -63 -102 -63 -127 0 -34 21 -24 82 39 62 64 71 92
40 130 l-17 21 -42 -63z"/>
<path d="M695 290 c-10 -15 62 -42 103 -38 l37 3 -61 23 c-70 25 -71 25 -79
12z"/>
<path d="M0 31 l0 -31 70 0 c73 0 79 4 56 35 -9 13 -30 20 -70 23 l-56 4 0
-31z"/>
</g>
</svg>
