<?xml version="1.0" standalone="no"?>
<!DOCTYPE svg PUBLIC "-//W3C//DTD SVG 20010904//EN"
 "http://www.w3.org/TR/2001/REC-SVG-20010904/DTD/svg10.dtd">
<svg version="1.0" xmlns="http://www.w3.org/2000/svg"
 width="96.000000pt" height="84.000000pt" viewBox="0 0 96.000000 84.000000"
 preserveAspectRatio="xMidYMid meet">
<metadata>
Created by potrace 1.16, written by Peter Selinger 2001-2019
</metadata>
<g transform="translate(0.000000,84.000000) scale(0.100000,-0.100000)"
fill="#000000" stroke="none">
<path d="M550 729 c0 -24 42 -168 105 -359 30 -91 67 -210 83 -265 l27 -100
43 -3 c23 -2 42 1 42 6 0 6 -22 70 -49 144 -27 73 -69 191 -94 263 -71 203
-108 295 -117 292 -5 -1 -16 7 -24 18 -13 17 -15 17 -16 4z"/>
</g>
</svg>
