<?xml version="1.0" standalone="no"?>
<!DOCTYPE svg PUBLIC "-//W3C//DTD SVG 20010904//EN"
 "http://www.w3.org/TR/2001/REC-SVG-20010904/DTD/svg10.dtd">
<svg version="1.0" xmlns="http://www.w3.org/2000/svg"
 width="96.000000pt" height="84.000000pt" viewBox="0 0 96.000000 84.000000"
 preserveAspectRatio="xMidYMid meet">
<metadata>
Created by potrace 1.16, written by Peter Selinger 2001-2019
</metadata>
<g transform="translate(0.000000,84.000000) scale(0.100000,-0.100000)"
fill="#000000" stroke="none">
<path d="M0 466 c0 -348 1 -375 17 -380 10 -2 66 -7 125 -11 l106 -7 40 54
c41 55 92 148 92 169 0 7 -25 40 -55 75 -37 42 -68 67 -93 75 -93 29 -119 99
-58 158 27 26 40 32 67 29 44 -4 83 -58 75 -103 -5 -27 0 -35 51 -80 l56 -49
-6 59 c-4 39 -2 67 7 84 20 40 27 107 15 134 -7 15 -23 27 -38 30 -25 5 -63
60 -65 95 -2 30 -56 42 -197 42 l-139 0 0 -374z"/>
<path d="M920 816 c0 -19 4 -23 20 -19 11 3 20 14 20 24 0 12 -7 19 -20 19
-14 0 -20 -7 -20 -24z"/>
<path d="M923 694 c15 -8 27 -19 27 -25 0 -5 -10 -3 -22 5 -13 8 -45 17 -73
21 l-50 7 52 -31 c49 -29 73 -55 73 -80 0 -6 -18 1 -40 15 -33 22 -45 25 -77
18 -30 -6 -33 -8 -15 -12 13 -2 21 -9 19 -15 -3 -7 5 -22 16 -34 l20 -23 -31
0 c-18 0 -32 -4 -32 -9 0 -5 -10 -7 -22 -4 -22 4 -22 3 2 -10 14 -9 28 -13 32
-10 17 10 46 -9 52 -33 6 -21 11 -25 29 -20 12 3 34 6 50 6 l27 0 0 125 0 125
-32 0 -33 -1 28 -15z"/>
<path d="M703 506 c2 -6 12 -36 22 -66 l19 -55 8 38 c4 21 12 46 17 56 8 14 3
19 -30 28 -30 8 -39 8 -36 -1z"/>
<path d="M480 262 c-54 -53 -100 -127 -100 -165 0 -25 3 -28 23 -22 27 8 122
109 138 148 10 23 9 34 -2 55 l-14 27 -45 -43z"/>
</g>
</svg>
