<?xml version="1.0" standalone="no"?>
<!DOCTYPE svg PUBLIC "-//W3C//DTD SVG 20010904//EN"
 "http://www.w3.org/TR/2001/REC-SVG-20010904/DTD/svg10.dtd">
<svg version="1.0" xmlns="http://www.w3.org/2000/svg"
 width="96.000000pt" height="84.000000pt" viewBox="0 0 96.000000 84.000000"
 preserveAspectRatio="xMidYMid meet">
<metadata>
Created by potrace 1.16, written by Peter Selinger 2001-2019
</metadata>
<g transform="translate(0.000000,84.000000) scale(0.100000,-0.100000)"
fill="#000000" stroke="none">
<path d="M260 571 c0 -4 29 -23 64 -40 84 -41 149 -112 171 -187 9 -30 23 -58
31 -61 8 -3 34 -33 56 -67 23 -33 61 -81 83 -106 23 -25 47 -60 54 -78 l13
-32 115 0 114 0 -3 103 -3 102 -80 5 c-90 6 -145 30 -145 65 0 34 -28 65 -59
65 -22 0 -41 14 -85 64 -31 35 -65 85 -76 111 -19 45 -22 47 -53 41 -17 -3
-64 1 -102 9 -82 17 -95 18 -95 6z"/>
</g>
</svg>
