<?xml version="1.0" standalone="no"?>
<!DOCTYPE svg PUBLIC "-//W3C//DTD SVG 20010904//EN"
 "http://www.w3.org/TR/2001/REC-SVG-20010904/DTD/svg10.dtd">
<svg version="1.0" xmlns="http://www.w3.org/2000/svg"
 width="96.000000pt" height="84.000000pt" viewBox="0 0 96.000000 84.000000"
 preserveAspectRatio="xMidYMid meet">
<metadata>
Created by potrace 1.16, written by Peter Selinger 2001-2019
</metadata>
<g transform="translate(0.000000,84.000000) scale(0.100000,-0.100000)"
fill="#000000" stroke="none">
<path d="M243 688 c56 -32 117 -102 117 -135 0 -14 33 -59 101 -137 20 -22 41
-51 48 -63 6 -13 22 -25 34 -28 18 -5 27 -20 40 -59 9 -29 29 -76 46 -104 26
-45 29 -57 24 -106 l-6 -56 157 0 156 0 -2 207 -3 208 -70 2 c-100 2 -198 14
-212 25 -7 6 -19 8 -27 5 -24 -9 -104 36 -128 73 -13 19 -34 36 -46 38 -24 4
-73 59 -100 113 -14 28 -23 34 -52 36 -19 1 -57 5 -85 9 l-50 6 58 -34z"/>
</g>
</svg>
