<?xml version="1.0" standalone="no"?>
<!DOCTYPE svg PUBLIC "-//W3C//DTD SVG 20010904//EN"
 "http://www.w3.org/TR/2001/REC-SVG-20010904/DTD/svg10.dtd">
<svg version="1.0" xmlns="http://www.w3.org/2000/svg"
 width="96.000000pt" height="84.000000pt" viewBox="0 0 96.000000 84.000000"
 preserveAspectRatio="xMidYMid meet">
<metadata>
Created by potrace 1.16, written by Peter Selinger 2001-2019
</metadata>
<g transform="translate(0.000000,84.000000) scale(0.100000,-0.100000)"
fill="#000000" stroke="none">
<path d="M202 731 c39 -22 98 -87 98 -109 0 -21 133 -182 150 -182 20 0 40
-19 40 -39 0 -9 14 -43 30 -76 28 -57 30 -66 30 -192 l0 -133 205 0 205 0 0
266 0 267 -67 -8 c-102 -10 -218 -9 -313 4 -107 15 -131 24 -152 61 -10 17
-25 30 -36 30 -20 0 -59 45 -80 93 -9 22 -18 27 -46 27 -18 0 -49 2 -67 6
l-34 5 37 -20z"/>
</g>
</svg>
