<?xml version="1.0" standalone="no"?>
<!DOCTYPE svg PUBLIC "-//W3C//DTD SVG 20010904//EN"
 "http://www.w3.org/TR/2001/REC-SVG-20010904/DTD/svg10.dtd">
<svg version="1.0" xmlns="http://www.w3.org/2000/svg"
 width="96.000000pt" height="84.000000pt" viewBox="0 0 96.000000 84.000000"
 preserveAspectRatio="xMidYMid meet">
<metadata>
Created by potrace 1.16, written by Peter Selinger 2001-2019
</metadata>
<g transform="translate(0.000000,84.000000) scale(0.100000,-0.100000)"
fill="#000000" stroke="none">
<path d="M905 783 c-11 -2 -30 -6 -42 -9 -13 -2 -23 -10 -23 -16 0 -7 -12 -24
-27 -40 -14 -15 -25 -29 -22 -31 48 -34 79 -60 79 -66 0 -27 -245 -58 -320
-40 -19 4 -55 10 -80 13 -68 8 -87 15 -99 42 -6 13 -17 24 -24 24 -16 0 -55
40 -71 72 -9 18 -21 23 -61 25 l-50 3 31 -19 c32 -20 74 -67 74 -83 0 -18 102
-133 124 -141 15 -5 28 -25 41 -60 10 -28 22 -57 26 -63 5 -5 12 -79 18 -164
9 -145 8 -155 -10 -178 -39 -50 -34 -52 161 -52 137 0 180 3 180 13 0 6 -4 29
-9 49 -5 21 -5 94 1 170 8 120 18 164 48 220 6 10 10 25 10 33 0 8 23 31 50
51 l50 36 0 109 c0 117 2 114 -55 102z"/>
</g>
</svg>
