<?xml version="1.0" standalone="no"?>
<!DOCTYPE svg PUBLIC "-//W3C//DTD SVG 20010904//EN"
 "http://www.w3.org/TR/2001/REC-SVG-20010904/DTD/svg10.dtd">
<svg version="1.0" xmlns="http://www.w3.org/2000/svg"
 width="96.000000pt" height="84.000000pt" viewBox="0 0 96.000000 84.000000"
 preserveAspectRatio="xMidYMid meet">
<metadata>
Created by potrace 1.16, written by Peter Selinger 2001-2019
</metadata>
<g transform="translate(0.000000,84.000000) scale(0.100000,-0.100000)"
fill="#000000" stroke="none">
<path d="M864 816 c-17 -8 -42 -29 -55 -47 l-24 -34 -5 30 c-5 27 -9 30 -40
27 -39 -4 -63 -19 -57 -36 3 -6 -2 -19 -10 -28 -14 -15 -12 -19 12 -40 l27
-24 -38 -17 c-97 -42 -271 -38 -325 7 -17 14 -34 26 -37 26 -4 0 -15 14 -24
30 -13 23 -24 30 -48 30 l-32 0 31 -26 c17 -14 31 -30 31 -36 0 -15 73 -107
86 -108 27 -1 48 -42 46 -87 -1 -25 5 -61 14 -80 13 -26 15 -49 10 -100 -4
-36 -12 -75 -17 -86 -7 -12 -8 -54 -4 -118 l7 -99 150 0 c137 0 149 1 144 18
-2 9 -8 51 -11 92 -4 41 -14 87 -23 102 -14 24 -15 37 -4 98 7 39 12 88 12
110 0 27 4 40 14 40 7 0 19 12 25 28 14 37 30 110 24 116 -3 2 4 9 15 15 12 6
41 46 67 88 25 43 60 88 78 101 26 18 28 22 12 22 -11 -1 -34 -7 -51 -14z"/>
</g>
</svg>
