<?xml version="1.0" standalone="no"?>
<!DOCTYPE svg PUBLIC "-//W3C//DTD SVG 20010904//EN"
 "http://www.w3.org/TR/2001/REC-SVG-20010904/DTD/svg10.dtd">
<svg version="1.0" xmlns="http://www.w3.org/2000/svg"
 width="96.000000pt" height="84.000000pt" viewBox="0 0 96.000000 84.000000"
 preserveAspectRatio="xMidYMid meet">
<metadata>
Created by potrace 1.16, written by Peter Selinger 2001-2019
</metadata>
<g transform="translate(0.000000,84.000000) scale(0.100000,-0.100000)"
fill="#000000" stroke="none">
<path d="M696 818 c-8 -11 -27 -22 -41 -24 -42 -4 -56 -22 -51 -64 4 -32 0
-42 -25 -66 -27 -25 -36 -28 -102 -28 -61 -1 -77 3 -104 24 -18 13 -33 29 -33
36 0 14 -28 26 -42 18 -5 -4 -4 -12 4 -22 8 -10 20 -30 28 -45 8 -16 26 -41
40 -55 20 -21 25 -38 27 -82 1 -30 3 -68 4 -85 4 -57 -12 -260 -23 -282 -8
-17 -17 -21 -38 -16 -39 7 -89 -39 -97 -89 l-6 -38 175 0 175 0 10 33 11 32 7
-32 c6 -28 12 -33 37 -33 26 0 29 3 25 23 -3 12 -13 69 -23 127 -9 58 -25 122
-36 143 -18 36 -18 42 -4 85 9 25 16 67 16 94 0 45 1 47 20 36 26 -16 30 -10
39 56 6 43 4 61 -7 77 -13 18 -11 27 13 82 14 34 33 74 41 90 14 25 14 27 -5
27 -11 0 -27 -10 -35 -22z"/>
</g>
</svg>
