<?xml version="1.0" standalone="no"?>
<!DOCTYPE svg PUBLIC "-//W3C//DTD SVG 20010904//EN"
 "http://www.w3.org/TR/2001/REC-SVG-20010904/DTD/svg10.dtd">
<svg version="1.0" xmlns="http://www.w3.org/2000/svg"
 width="96.000000pt" height="84.000000pt" viewBox="0 0 96.000000 84.000000"
 preserveAspectRatio="xMidYMid meet">
<metadata>
Created by potrace 1.16, written by Peter Selinger 2001-2019
</metadata>
<g transform="translate(0.000000,84.000000) scale(0.100000,-0.100000)"
fill="#000000" stroke="none">
<path d="M556 804 c-20 -25 -27 -43 -23 -61 5 -29 -25 -88 -54 -104 -15 -7
-27 -5 -49 8 -17 9 -30 23 -30 29 0 15 -27 37 -33 27 -3 -5 3 -33 14 -63 15
-44 17 -61 8 -87 -8 -26 -7 -39 7 -68 15 -32 15 -47 3 -166 -11 -111 -15 -128
-26 -113 -7 10 -13 26 -13 35 0 21 -22 38 -28 21 -2 -7 -17 -12 -33 -12 -40 0
-79 -40 -79 -79 0 -20 -7 -34 -21 -41 -28 -15 -59 -69 -59 -102 l0 -28 114 0
114 0 6 30 c3 17 11 30 17 30 7 0 9 -11 6 -30 l-6 -30 124 0 125 0 -1 43 c0
23 -13 103 -28 177 -25 122 -26 139 -14 179 7 24 13 69 13 99 0 48 2 53 15 42
22 -18 28 -8 27 46 -1 54 -24 94 -52 94 -11 0 -20 2 -20 5 0 4 16 85 26 133 7
34 -17 27 -50 -14z m-110 -440 c-4 -9 -9 -15 -11 -12 -3 3 -3 13 1 22 4 9 9
15 11 12 3 -3 3 -13 -1 -22z m137 -312 c-8 -20 -23 5 -22 38 l0 25 13 -24 c8
-14 11 -31 9 -39z"/>
</g>
</svg>
