<?xml version="1.0" standalone="no"?>
<!DOCTYPE svg PUBLIC "-//W3C//DTD SVG 20010904//EN"
 "http://www.w3.org/TR/2001/REC-SVG-20010904/DTD/svg10.dtd">
<svg version="1.0" xmlns="http://www.w3.org/2000/svg"
 width="96.000000pt" height="84.000000pt" viewBox="0 0 96.000000 84.000000"
 preserveAspectRatio="xMidYMid meet">
<metadata>
Created by potrace 1.16, written by Peter Selinger 2001-2019
</metadata>
<g transform="translate(0.000000,84.000000) scale(0.100000,-0.100000)"
fill="#000000" stroke="none">
<path d="M501 816 c-7 -12 -12 -36 -10 -52 3 -34 -21 -124 -34 -124 -12 0 -32
21 -40 43 -13 35 -27 17 -21 -27 5 -31 1 -58 -10 -86 -16 -39 -11 -70 13 -90
10 -8 31 -75 31 -96 0 -10 -9 -46 -20 -78 -11 -33 -20 -76 -20 -98 0 -21 -5
-38 -10 -38 -6 0 -8 11 -4 25 3 14 -1 37 -10 56 -9 18 -16 38 -16 46 0 14 -12
17 -23 6 -4 -3 -19 -8 -34 -9 -34 -4 -73 -46 -73 -80 0 -15 -12 -35 -31 -52
-24 -21 -32 -39 -36 -73 -9 -75 5 -89 88 -89 53 0 71 4 75 15 9 21 27 19 20
-2 -4 -13 0 -11 14 6 11 13 20 34 20 47 0 23 16 41 28 30 5 -6 1 -21 -23 -78
-7 -17 2 -18 113 -18 116 0 120 1 126 23 11 40 6 82 -18 165 -22 78 -23 86
-10 155 8 39 14 102 14 140 0 38 4 67 10 67 17 0 11 59 -10 100 -15 30 -26 40
-45 40 -23 0 -24 2 -19 48 3 26 7 53 10 60 5 18 -6 42 -20 42 -7 0 -18 -11
-25 -24z m65 -743 c-11 -11 -26 10 -26 35 l1 27 15 -28 c9 -16 13 -31 10 -34z
m-206 -23 c0 -5 -5 -10 -11 -10 -5 0 -7 5 -4 10 3 6 8 10 11 10 2 0 4 -4 4
-10z"/>
</g>
</svg>
