<?xml version="1.0" standalone="no"?>
<!DOCTYPE svg PUBLIC "-//W3C//DTD SVG 20010904//EN"
 "http://www.w3.org/TR/2001/REC-SVG-20010904/DTD/svg10.dtd">
<svg version="1.0" xmlns="http://www.w3.org/2000/svg"
 width="96.000000pt" height="84.000000pt" viewBox="0 0 96.000000 84.000000"
 preserveAspectRatio="xMidYMid meet">
<metadata>
Created by potrace 1.16, written by Peter Selinger 2001-2019
</metadata>
<g transform="translate(0.000000,84.000000) scale(0.100000,-0.100000)"
fill="#000000" stroke="none">
<path d="M0 431 l0 -408 38 -7 c20 -3 102 -9 182 -12 l145 -7 41 59 c23 32 58
94 79 137 l36 78 -34 42 c-69 82 -94 105 -125 112 -38 8 -72 48 -72 84 0 32
53 91 82 91 40 0 86 -78 66 -113 -6 -11 5 -26 42 -57 52 -44 70 -47 50 -10 -9
17 -7 27 9 54 12 18 21 44 21 57 0 13 4 30 9 38 5 7 4 27 -2 46 -8 27 -15 33
-34 32 -20 -2 -30 7 -51 49 -20 38 -39 58 -72 77 -25 14 -54 35 -64 46 -18 20
-30 21 -183 21 l-163 0 0 -409z"/>
<path d="M865 550 c3 -5 20 -12 37 -15 30 -7 31 -8 13 -21 -18 -14 -18 -14 1
-29 10 -8 22 -15 27 -15 4 0 7 -4 7 -9 0 -6 -12 -6 -30 1 -40 13 -67 4 -50
-17 11 -14 10 -14 -14 -5 -15 5 -28 10 -30 10 -1 0 7 -28 18 -62 l20 -62 12
49 c7 26 19 52 26 56 19 13 46 11 51 -3 3 -7 6 12 6 43 1 46 -2 58 -16 62 -10
3 -33 10 -51 16 -18 5 -30 6 -27 1z"/>
<path d="M607 245 c-15 -13 -27 -26 -27 -29 0 -2 -22 -42 -50 -87 -56 -92 -64
-129 -27 -129 27 0 133 104 160 157 15 28 15 35 2 66 -20 47 -25 49 -58 22z"/>
</g>
</svg>
