<?xml version="1.0" standalone="no"?>
<!DOCTYPE svg PUBLIC "-//W3C//DTD SVG 20010904//EN"
 "http://www.w3.org/TR/2001/REC-SVG-20010904/DTD/svg10.dtd">
<svg version="1.0" xmlns="http://www.w3.org/2000/svg"
 width="96.000000pt" height="84.000000pt" viewBox="0 0 96.000000 84.000000"
 preserveAspectRatio="xMidYMid meet">
<metadata>
Created by potrace 1.16, written by Peter Selinger 2001-2019
</metadata>
<g transform="translate(0.000000,84.000000) scale(0.100000,-0.100000)"
fill="#000000" stroke="none">
<path d="M440 806 c-6 -19 -8 -45 -5 -57 3 -13 -1 -43 -8 -66 -10 -35 -15 -39
-28 -30 -8 7 -18 20 -22 30 -3 9 -13 17 -21 17 -11 0 -12 -7 -4 -41 8 -30 7
-50 -3 -81 -17 -54 -14 -79 12 -101 12 -10 19 -20 16 -24 -4 -3 7 -22 23 -41
l29 -35 -19 -27 c-12 -16 -22 -53 -26 -93 -8 -78 -19 -88 -21 -20 -2 94 -19
143 -38 113 -3 -5 -17 -10 -29 -10 -36 0 -76 -37 -76 -70 0 -30 -3 -34 -52
-71 -82 -61 -35 -199 67 -199 33 0 74 40 81 80 4 16 9 30 11 30 16 0 34 -36
36 -70 l1 -40 132 0 c108 0 133 3 138 15 3 8 12 15 20 15 31 0 34 55 6 110
-11 22 -20 53 -20 70 0 17 -8 65 -19 108 -44 180 -53 234 -43 241 15 9 -2 78
-26 110 -14 18 -28 25 -47 24 -27 -2 -28 -1 -22 45 3 26 9 55 12 65 5 12 2 17
-9 17 -9 0 -16 5 -16 10 0 23 -19 7 -30 -24z m-40 -712 c0 -14 -4 -23 -9 -20
-5 4 -12 0 -15 -6 -3 -7 -3 -2 0 11 4 15 2 21 -4 17 -6 -3 -13 -2 -17 4 -3 5
1 10 9 10 9 0 16 5 16 11 0 5 5 7 10 4 6 -3 10 -17 10 -31z m160 -11 c0 -13
-4 -23 -10 -23 -5 0 -10 17 -10 38 0 27 3 33 10 22 5 -8 10 -25 10 -37z"/>
</g>
</svg>
