<?xml version="1.0" standalone="no"?>
<!DOCTYPE svg PUBLIC "-//W3C//DTD SVG 20010904//EN"
 "http://www.w3.org/TR/2001/REC-SVG-20010904/DTD/svg10.dtd">
<svg version="1.0" xmlns="http://www.w3.org/2000/svg"
 width="96.000000pt" height="84.000000pt" viewBox="0 0 96.000000 84.000000"
 preserveAspectRatio="xMidYMid meet">
<metadata>
Created by potrace 1.16, written by Peter Selinger 2001-2019
</metadata>
<g transform="translate(0.000000,84.000000) scale(0.100000,-0.100000)"
fill="#000000" stroke="none">
<path d="M389 818 c-1 -13 -3 -53 -4 -91 -1 -37 -5 -70 -9 -74 -4 -4 -18 6
-31 22 -30 38 -37 31 -23 -23 8 -34 7 -48 -6 -76 -23 -49 -20 -83 9 -102 14
-9 22 -20 19 -26 -3 -5 1 -17 10 -26 18 -21 33 -102 18 -102 -12 0 -22 24 -22
55 0 21 -3 23 -42 18 -60 -7 -86 -27 -94 -68 -5 -26 -13 -37 -30 -41 -32 -8
-72 -57 -79 -98 -12 -61 47 -136 107 -136 32 0 88 49 88 76 0 17 17 18 23 2 4
-10 6 -10 6 0 2 23 21 2 21 -23 0 -13 5 -27 11 -31 7 -4 9 -21 6 -40 l-6 -34
118 0 c115 0 119 1 125 22 14 53 5 97 -35 177 -23 45 -39 84 -37 87 12 11 108
-144 108 -173 0 -20 22 -63 30 -58 5 3 13 -9 19 -25 9 -28 41 -43 41 -19 0 5
-4 8 -10 4 -5 -3 -5 7 1 25 13 36 5 93 -16 110 -7 6 -12 17 -9 24 2 6 -12 32
-33 56 -21 24 -32 41 -25 36 18 -11 15 0 -13 49 -34 57 -96 243 -83 247 14 5
-7 79 -33 112 -22 28 -48 33 -67 14 -9 -9 -12 -4 -12 23 0 18 4 51 9 72 8 31
7 37 -5 33 -8 -3 -14 1 -14 9 0 24 -30 17 -31 -7z m-19 -577 c0 -22 -16 -36
-24 -22 -8 12 3 41 15 41 5 0 9 -9 9 -19z m17 -147 c0 -22 -1 -28 -4 -14 -3
14 -9 29 -14 35 -13 13 -11 27 4 23 6 -3 13 -22 14 -44z m163 0 c0 -13 -4 -24
-10 -24 -5 0 -10 14 -10 31 0 17 4 28 10 24 6 -3 10 -17 10 -31z"/>
</g>
</svg>
