<?xml version="1.0" standalone="no"?>
<!DOCTYPE svg PUBLIC "-//W3C//DTD SVG 20010904//EN"
 "http://www.w3.org/TR/2001/REC-SVG-20010904/DTD/svg10.dtd">
<svg version="1.0" xmlns="http://www.w3.org/2000/svg"
 width="96.000000pt" height="84.000000pt" viewBox="0 0 96.000000 84.000000"
 preserveAspectRatio="xMidYMid meet">
<metadata>
Created by potrace 1.16, written by Peter Selinger 2001-2019
</metadata>
<g transform="translate(0.000000,84.000000) scale(0.100000,-0.100000)"
fill="#000000" stroke="none">
<path d="M357 833 c-11 -10 -8 -88 3 -99 10 -10 2 -84 -10 -84 -4 0 -15 11
-24 25 -18 28 -42 25 -27 -3 11 -22 7 -75 -10 -131 -13 -41 -13 -44 11 -65 33
-27 38 -70 8 -63 -32 9 -69 -11 -81 -43 -6 -17 -17 -30 -25 -30 -27 0 -72 -31
-87 -60 -8 -16 -15 -48 -15 -71 0 -33 6 -47 34 -75 45 -45 91 -47 133 -4 l30
31 22 -68 c12 -37 27 -73 33 -80 7 -9 45 -13 128 -13 l117 0 7 33 c7 30 8 31
19 11 8 -14 21 -20 40 -19 15 1 32 -4 38 -12 12 -14 39 -18 39 -6 0 4 -8 16
-18 27 -10 12 -27 44 -37 71 -10 28 -27 61 -39 74 l-21 23 25 -7 c19 -6 15 0
-16 23 -23 17 -44 41 -47 54 -3 12 -21 81 -41 153 -19 71 -32 133 -29 138 8
13 -25 92 -47 112 -11 10 -28 15 -39 12 -17 -4 -21 2 -27 52 -4 31 -8 61 -9
66 -1 6 -3 16 -3 23 -2 13 -24 16 -35 5z m10 -695 c24 -22 30 -62 13 -88 -5
-8 -10 -10 -10 -5 0 6 -5 3 -11 -5 -9 -13 -10 -13 -8 0 4 36 -2 71 -10 65 -5
-3 -12 -1 -16 5 -3 5 -1 10 5 10 7 0 9 8 5 20 -8 26 3 25 32 -2z m183 -44 c0
-13 -4 -24 -10 -24 -5 0 -10 14 -10 31 0 17 4 28 10 24 6 -3 10 -17 10 -31z"/>
</g>
</svg>
