<?xml version="1.0" standalone="no"?>
<!DOCTYPE svg PUBLIC "-//W3C//DTD SVG 20010904//EN"
 "http://www.w3.org/TR/2001/REC-SVG-20010904/DTD/svg10.dtd">
<svg version="1.0" xmlns="http://www.w3.org/2000/svg"
 width="96.000000pt" height="84.000000pt" viewBox="0 0 96.000000 84.000000"
 preserveAspectRatio="xMidYMid meet">
<metadata>
Created by potrace 1.16, written by Peter Selinger 2001-2019
</metadata>
<g transform="translate(0.000000,84.000000) scale(0.100000,-0.100000)"
fill="#000000" stroke="none">
<path d="M383 809 l-6 -31 -12 28 -11 29 -7 -25 c-5 -17 0 -34 14 -53 16 -23
19 -36 14 -69 l-7 -41 -23 29 c-28 35 -36 30 -26 -16 5 -26 2 -47 -15 -83 -24
-52 -22 -82 7 -100 11 -7 19 -22 19 -34 0 -27 -7 -28 -34 -8 -29 22 -44 19
-78 -15 -21 -21 -39 -30 -62 -30 -70 0 -121 -80 -97 -153 14 -40 72 -97 100
-97 10 0 35 11 55 25 27 18 36 21 36 10 0 -8 4 -15 10 -15 13 0 42 -70 36 -87
-3 -8 2 -13 12 -13 12 0 13 -3 5 -8 -13 -8 -6 -52 8 -52 5 0 9 9 9 20 0 28
-23 100 -32 100 -5 0 -8 5 -8 11 0 5 4 8 9 5 5 -4 11 -2 13 3 1 5 21 -6 43
-24 l39 -34 -17 -36 c-9 -19 -17 -38 -17 -40 0 -3 56 -5 124 -5 l123 0 7 55
c7 64 -5 102 -59 175 l-35 47 -1 161 c0 144 -3 165 -22 204 -17 33 -29 44 -49
46 -27 3 -28 6 -28 55 0 91 -24 132 -37 66z m14 -431 c-3 -8 -6 -5 -6 6 -1 11
2 17 5 13 3 -3 4 -12 1 -19z"/>
</g>
</svg>
