<?xml version="1.0" standalone="no"?>
<!DOCTYPE svg PUBLIC "-//W3C//DTD SVG 20010904//EN"
 "http://www.w3.org/TR/2001/REC-SVG-20010904/DTD/svg10.dtd">
<svg version="1.0" xmlns="http://www.w3.org/2000/svg"
 width="96.000000pt" height="84.000000pt" viewBox="0 0 96.000000 84.000000"
 preserveAspectRatio="xMidYMid meet">
<metadata>
Created by potrace 1.16, written by Peter Selinger 2001-2019
</metadata>
<g transform="translate(0.000000,84.000000) scale(0.100000,-0.100000)"
fill="#000000" stroke="none">
<path d="M434 823 c-10 -24 -6 -44 13 -65 15 -16 14 -22 -2 -58 -20 -45 -32
-51 -37 -18 -5 38 -28 33 -28 -7 0 -25 -9 -47 -31 -74 -24 -30 -29 -44 -23
-65 3 -15 12 -30 19 -32 7 -3 12 -16 11 -28 l-1 -24 -28 24 c-35 29 -61 30
-88 3 -17 -17 -25 -19 -48 -11 -120 42 -192 -136 -90 -222 35 -30 53 -32 93
-11 35 18 36 18 36 0 0 -8 6 -12 13 -9 9 3 12 -15 13 -73 0 -99 10 -153 30
-153 11 0 14 13 12 57 -3 51 -1 58 17 61 16 3 18 1 8 -9 -20 -20 -15 -31 8
-24 19 6 21 4 16 -17 -4 -13 -4 -34 0 -46 5 -21 9 -22 138 -22 l134 0 11 55
c14 69 6 96 -53 173 -46 59 -72 133 -58 161 5 9 14 41 20 71 7 30 17 65 23 77
22 44 -13 153 -48 153 -15 0 -15 32 2 123 5 22 2 27 -14 27 -11 0 -23 -6 -26
-12 -5 -10 -7 -10 -12 0 -8 17 -21 15 -30 -5z m-100 -518 c-14 -34 -17 -36
-31 -22 -14 14 -13 18 13 40 16 14 30 24 32 23 1 -2 -5 -20 -14 -41z m224
-157 c19 -21 20 -28 10 -72 -10 -46 -12 -48 -24 -31 -8 10 -14 36 -14 56 0 21
-3 44 -6 53 -9 23 9 20 34 -6z"/>
</g>
</svg>
