<?xml version="1.0" standalone="no"?>
<!DOCTYPE svg PUBLIC "-//W3C//DTD SVG 20010904//EN"
 "http://www.w3.org/TR/2001/REC-SVG-20010904/DTD/svg10.dtd">
<svg version="1.0" xmlns="http://www.w3.org/2000/svg"
 width="96.000000pt" height="84.000000pt" viewBox="0 0 96.000000 84.000000"
 preserveAspectRatio="xMidYMid meet">
<metadata>
Created by potrace 1.16, written by Peter Selinger 2001-2019
</metadata>
<g transform="translate(0.000000,84.000000) scale(0.100000,-0.100000)"
fill="#000000" stroke="none">
<path d="M586 818 c-5 -19 -8 -21 -16 -8 -16 24 -41 -14 -33 -51 4 -22 -2 -40
-23 -71 -27 -38 -29 -39 -34 -18 -7 30 -30 38 -30 11 0 -11 -7 -26 -16 -33
-51 -41 -64 -59 -64 -87 0 -16 5 -33 11 -37 7 -4 7 -10 1 -16 -7 -7 -17 -3
-31 11 -24 24 -73 28 -90 7 -11 -13 -17 -12 -47 6 -61 36 -129 2 -148 -74 -9
-39 8 -106 36 -135 20 -22 29 -24 76 -20 46 5 52 3 52 -13 0 -12 5 -17 14 -14
10 4 13 -7 12 -45 -1 -28 -4 -51 -8 -51 -5 0 -8 -15 -8 -33 0 -18 -7 -43 -16
-55 -14 -20 -14 -24 0 -38 9 -8 16 -23 16 -33 0 -10 6 -18 14 -18 11 0 13 9 9
34 -5 26 -1 39 18 59 13 13 29 22 35 20 7 -3 18 2 25 10 24 29 20 4 -4 -28
-18 -23 -23 -38 -17 -48 5 -8 5 -21 -1 -32 -9 -17 -1 -18 149 -18 l159 0 16
55 c21 76 13 101 -70 199 -22 26 -33 50 -33 70 0 40 42 159 63 181 36 35 13
182 -24 160 -13 -9 -12 -1 21 91 27 78 28 84 11 84 -11 0 -21 -9 -25 -22z
m-202 -440 c-5 -48 -13 -70 -32 -90 -14 -16 -29 -28 -34 -28 -4 0 -8 12 -8 28
0 15 -4 33 -9 41 -7 11 -1 19 22 30 18 9 39 31 47 48 8 18 16 33 18 33 2 0 0
-28 -4 -62z m-96 -246 c-27 -19 -41 1 -25 35 l11 24 17 -22 c17 -22 16 -24 -3
-37z m293 -59 l-13 -57 -19 23 c-14 17 -19 40 -19 89 l0 67 32 -32 31 -32 -12
-58z"/>
</g>
</svg>
