<?xml version="1.0" standalone="no"?>
<!DOCTYPE svg PUBLIC "-//W3C//DTD SVG 20010904//EN"
 "http://www.w3.org/TR/2001/REC-SVG-20010904/DTD/svg10.dtd">
<svg version="1.0" xmlns="http://www.w3.org/2000/svg"
 width="96.000000pt" height="84.000000pt" viewBox="0 0 96.000000 84.000000"
 preserveAspectRatio="xMidYMid meet">
<metadata>
Created by potrace 1.16, written by Peter Selinger 2001-2019
</metadata>
<g transform="translate(0.000000,84.000000) scale(0.100000,-0.100000)"
fill="#000000" stroke="none">
<path d="M679 803 c-20 -21 -47 -56 -61 -78 -14 -22 -37 -50 -51 -63 -24 -23
-24 -23 -30 -3 -7 27 -23 27 -30 1 -3 -11 -13 -20 -24 -20 -10 0 -29 -9 -43
-19 -19 -15 -25 -29 -25 -60 0 -23 -1 -41 -4 -41 -2 0 -15 12 -28 26 -22 23
-30 26 -69 20 -27 -3 -44 -2 -44 4 0 6 -16 18 -34 27 -72 34 -136 -14 -144
-109 -3 -44 0 -59 20 -88 21 -31 30 -35 71 -38 39 -3 47 -6 47 -23 0 -10 5
-18 11 -17 25 6 31 -62 13 -150 -3 -15 -1 -21 6 -17 5 3 10 1 10 -4 0 -6 -8
-11 -17 -11 -9 0 -13 -3 -10 -6 3 -4 1 -16 -4 -27 -8 -15 -8 -22 2 -28 11 -7
11 -9 -1 -9 -9 0 -16 -8 -16 -17 -1 -10 -5 -26 -9 -36 -5 -13 -3 -17 6 -15 8
2 17 14 21 28 4 14 12 43 18 65 7 22 13 52 15 67 4 32 14 50 24 44 4 -3 24 3
43 14 l36 19 5 -57 c4 -41 1 -60 -9 -68 -7 -6 -11 -14 -7 -17 3 -4 2 -7 -4 -7
-5 0 -11 -20 -11 -45 l-2 -45 144 0 143 0 17 43 c29 77 22 107 -44 187 -20 25
-40 50 -44 57 -11 19 53 193 69 186 21 -7 49 96 36 131 -11 28 -38 34 -60 14
-28 -27 7 27 49 74 23 26 39 52 35 57 -3 6 4 28 15 51 26 50 15 51 -31 3z
m-270 -422 c-9 -42 -17 -56 -47 -76 -20 -13 -37 -23 -39 -21 -2 2 -6 24 -8 49
-4 42 -3 45 23 52 33 8 62 33 62 54 0 10 3 12 10 5 7 -7 7 -27 -1 -63z m187
-300 c-7 -25 -20 -47 -28 -49 -28 -5 -48 86 -32 144 5 19 8 18 40 -14 l34 -34
-14 -47z"/>
</g>
</svg>
