<?xml version="1.0" standalone="no"?>
<!DOCTYPE svg PUBLIC "-//W3C//DTD SVG 20010904//EN"
 "http://www.w3.org/TR/2001/REC-SVG-20010904/DTD/svg10.dtd">
<svg version="1.0" xmlns="http://www.w3.org/2000/svg"
 width="96.000000pt" height="84.000000pt" viewBox="0 0 96.000000 84.000000"
 preserveAspectRatio="xMidYMid meet">
<metadata>
Created by potrace 1.16, written by Peter Selinger 2001-2019
</metadata>
<g transform="translate(0.000000,84.000000) scale(0.100000,-0.100000)"
fill="#000000" stroke="none">
<path d="M672 723 c-88 -91 -93 -95 -107 -77 -14 18 -16 18 -26 1 -5 -9 -14
-15 -19 -12 -5 3 -23 -1 -40 -10 -32 -16 -46 -50 -35 -84 4 -12 2 -21 -4 -21
-6 0 -11 6 -11 13 0 23 -45 57 -76 57 -20 0 -38 9 -55 29 -74 84 -179 27 -179
-96 0 -47 4 -59 29 -84 22 -21 39 -29 65 -29 34 0 35 -1 26 -26 -13 -33 -13
-34 5 -28 8 4 15 4 15 1 0 -3 7 -40 15 -83 11 -57 12 -81 4 -91 -6 -7 -9 -22
-6 -33 3 -12 -1 -32 -8 -47 -7 -14 -11 -31 -9 -38 3 -6 -2 -18 -11 -25 -8 -7
-15 -19 -15 -27 0 -22 34 -11 38 12 2 11 7 29 12 40 12 27 21 83 21 122 -1 25
4 33 27 41 15 5 36 13 46 18 16 6 18 4 13 -10 -4 -9 -2 -51 4 -92 8 -62 8 -80
-5 -106 -9 -17 -16 -33 -16 -35 0 -1 62 -3 139 -3 l139 0 21 49 c11 27 21 58
21 68 0 17 -28 65 -76 131 -17 22 -16 28 5 117 17 69 26 92 36 89 19 -8 46 48
48 98 2 49 -21 71 -54 50 -31 -20 -31 -11 2 26 16 17 37 32 47 32 10 0 26 6
36 13 14 10 15 17 6 41 -9 25 -7 34 15 68 14 21 22 38 18 38 -5 0 -50 -44
-101 -97z m-243 -345 c-11 -33 -23 -48 -54 -65 -44 -25 -55 -18 -53 32 0 16
-1 36 -3 44 -3 10 6 15 31 17 23 1 41 10 55 26 18 23 21 24 29 7 5 -11 3 -34
-5 -61z m-129 -212 c0 -3 -4 -8 -10 -11 -5 -3 -10 -1 -10 4 0 6 5 11 10 11 6
0 10 -2 10 -4z m309 -84 c-25 -58 -33 -66 -47 -50 -12 15 -4 101 9 93 4 -3 11
4 14 16 6 19 8 19 25 4 18 -16 18 -18 -1 -63z"/>
</g>
</svg>
