<?xml version="1.0" standalone="no"?>
<!DOCTYPE svg PUBLIC "-//W3C//DTD SVG 20010904//EN"
 "http://www.w3.org/TR/2001/REC-SVG-20010904/DTD/svg10.dtd">
<svg version="1.0" xmlns="http://www.w3.org/2000/svg"
 width="96.000000pt" height="84.000000pt" viewBox="0 0 96.000000 84.000000"
 preserveAspectRatio="xMidYMid meet">
<metadata>
Created by potrace 1.16, written by Peter Selinger 2001-2019
</metadata>
<g transform="translate(0.000000,84.000000) scale(0.100000,-0.100000)"
fill="#000000" stroke="none">
<path d="M686 713 c-96 -92 -100 -95 -108 -72 -8 22 -10 22 -19 7 -6 -10 -21
-18 -33 -18 -40 0 -70 -32 -70 -76 l0 -38 -13 32 c-15 37 -53 65 -76 56 -11
-4 -21 4 -31 25 -29 55 -88 77 -138 50 -27 -14 -58 -85 -58 -133 0 -50 52
-106 100 -106 l31 0 -20 -26 c-27 -34 -26 -44 1 -36 17 4 20 2 15 -11 -3 -9
-2 -19 3 -22 6 -4 10 -22 10 -41 0 -19 7 -48 15 -65 9 -16 13 -34 9 -40 -4 -6
0 -15 7 -20 10 -7 11 -11 3 -16 -7 -5 -16 -35 -22 -68 -5 -33 -13 -69 -17 -80
-5 -16 -5 -17 4 -5 10 13 12 13 21 0 8 -12 10 -8 11 15 1 70 5 111 12 122 5 7
5 28 1 48 -6 31 -3 36 21 45 14 5 30 10 34 10 5 0 11 -43 15 -95 6 -75 4 -102
-8 -125 l-14 -30 142 0 142 0 22 45 c28 59 28 84 -3 129 -19 28 -27 55 -31
109 -6 88 6 162 26 162 22 0 52 71 48 113 -2 30 -7 38 -26 40 -13 2 -30 -2
-38 -8 -24 -21 -15 1 15 35 16 19 32 31 35 28 3 -4 17 0 31 7 22 12 25 19 20
48 -4 25 1 42 16 63 12 17 20 32 18 34 -2 2 -49 -40 -103 -92z m-232 -269 c3
-8 1 -35 -5 -59 -10 -39 -16 -46 -61 -65 -27 -12 -51 -20 -53 -18 -2 2 -5 30
-7 63 l-3 60 37 -3 c28 -3 41 2 55 17 21 25 29 26 37 5z m112 -402 c-13 -13
-26 23 -26 74 0 75 14 75 24 -1 5 -36 5 -69 2 -73z"/>
</g>
</svg>
