<?xml version="1.0" standalone="no"?>
<!DOCTYPE svg PUBLIC "-//W3C//DTD SVG 20010904//EN"
 "http://www.w3.org/TR/2001/REC-SVG-20010904/DTD/svg10.dtd">
<svg version="1.0" xmlns="http://www.w3.org/2000/svg"
 width="96.000000pt" height="84.000000pt" viewBox="0 0 96.000000 84.000000"
 preserveAspectRatio="xMidYMid meet">
<metadata>
Created by potrace 1.16, written by Peter Selinger 2001-2019
</metadata>
<g transform="translate(0.000000,84.000000) scale(0.100000,-0.100000)"
fill="#000000" stroke="none">
<path d="M695 715 c-53 -52 -100 -95 -106 -95 -5 0 -9 9 -9 20 0 11 -4 20 -10
20 -5 0 -10 -7 -10 -15 0 -10 -10 -15 -28 -15 -30 0 -72 -35 -72 -61 0 -8 -10
-3 -25 14 -17 18 -36 27 -55 27 -21 0 -30 5 -30 16 0 28 -56 74 -90 74 -46 0
-69 -16 -91 -63 -30 -67 -25 -113 15 -153 21 -21 44 -34 60 -34 30 0 32 -7 11
-34 -19 -25 -19 -37 -1 -30 11 4 16 -7 21 -43 4 -26 13 -68 21 -92 7 -24 11
-47 8 -52 -7 -12 7 -102 15 -94 3 4 6 34 6 67 0 61 0 61 35 73 l35 12 0 -112
c0 -80 -4 -117 -14 -128 -12 -16 -1 -17 155 -17 170 0 199 5 190 31 -3 8 -7
25 -10 39 -3 14 -16 70 -30 125 -29 110 -37 258 -13 250 24 -10 64 96 52 135
-7 22 -44 27 -63 8 -6 -6 -14 -9 -17 -7 -6 7 54 79 66 79 5 0 21 7 35 16 17
12 21 20 14 29 -7 8 -3 26 14 58 13 26 22 47 20 47 -2 0 -47 -43 -99 -95z
m-235 -305 c0 -43 -23 -72 -72 -91 -54 -21 -55 -20 -57 63 l-1 47 33 -6 c23
-3 39 1 57 15 28 23 40 14 40 -28z m152 -282 c10 -34 9 -44 -7 -74 -21 -40
-28 -42 -49 -12 -18 26 -21 94 -6 134 10 26 11 26 30 9 11 -10 25 -36 32 -57z
m-295 40 c-3 -8 -6 -5 -6 6 -1 11 2 17 5 13 3 -3 4 -12 1 -19z m392 -148 c0
-10 -3 -8 -9 5 -12 27 -12 43 0 25 5 -8 9 -22 9 -30z"/>
<path d="M325 87 c-5 -7 -11 -30 -12 -52 -1 -24 1 -34 6 -26 7 11 9 11 13 0 2
-7 4 11 4 39 0 29 0 52 0 52 -1 -1 -5 -6 -11 -13z"/>
</g>
</svg>
