<?xml version="1.0" standalone="no"?>
<!DOCTYPE svg PUBLIC "-//W3C//DTD SVG 20010904//EN"
 "http://www.w3.org/TR/2001/REC-SVG-20010904/DTD/svg10.dtd">
<svg version="1.0" xmlns="http://www.w3.org/2000/svg"
 width="96.000000pt" height="84.000000pt" viewBox="0 0 96.000000 84.000000"
 preserveAspectRatio="xMidYMid meet">
<metadata>
Created by potrace 1.16, written by Peter Selinger 2001-2019
</metadata>
<g transform="translate(0.000000,84.000000) scale(0.100000,-0.100000)"
fill="#000000" stroke="none">
<path d="M0 420 l0 -420 244 0 245 0 26 58 c14 31 37 79 51 106 l24 48 -57 79
c-46 65 -63 81 -94 89 -43 12 -79 51 -79 87 0 58 61 114 101 93 32 -18 52 -57
47 -95 -3 -31 2 -40 45 -82 46 -45 49 -46 43 -20 -4 18 0 40 14 67 11 21 20
50 20 63 0 12 5 28 11 34 19 19 -8 73 -36 73 -16 0 -32 14 -53 48 -17 26 -45
56 -63 66 -18 11 -61 43 -95 73 l-63 53 -166 0 -165 0 0 -420z"/>
<path d="M910 411 c0 -5 4 -12 10 -16 5 -3 7 -11 4 -18 -2 -7 2 -30 10 -52
l14 -40 7 49 c5 30 4 56 -2 65 -12 18 -43 27 -43 12z"/>
<path d="M677 182 c-15 -15 -48 -61 -71 -102 l-44 -75 56 -3 c53 -3 58 -1 84
30 15 18 34 46 42 62 13 27 12 33 -7 73 -12 23 -23 43 -26 43 -4 0 -19 -12
-34 -28z"/>
</g>
</svg>
