<?xml version="1.0" standalone="no"?>
<!DOCTYPE svg PUBLIC "-//W3C//DTD SVG 20010904//EN"
 "http://www.w3.org/TR/2001/REC-SVG-20010904/DTD/svg10.dtd">
<svg version="1.0" xmlns="http://www.w3.org/2000/svg"
 width="96.000000pt" height="84.000000pt" viewBox="0 0 96.000000 84.000000"
 preserveAspectRatio="xMidYMid meet">
<metadata>
Created by potrace 1.16, written by Peter Selinger 2001-2019
</metadata>
<g transform="translate(0.000000,84.000000) scale(0.100000,-0.100000)"
fill="#000000" stroke="none">
<path d="M704 715 c-53 -52 -101 -95 -106 -95 -4 0 -8 7 -8 15 0 8 -4 15 -10
15 -5 0 -10 -4 -10 -10 0 -5 -14 -10 -30 -10 -30 0 -80 -37 -80 -59 0 -6 -12
1 -26 15 -16 17 -32 24 -44 21 -15 -4 -25 4 -41 33 -53 94 -160 75 -187 -33
-18 -71 7 -128 64 -147 18 -6 38 -9 44 -5 15 9 12 -6 -4 -24 -7 -9 -17 -27
-21 -41 -7 -22 -6 -23 9 -11 9 7 16 12 17 10 0 -2 2 -13 3 -24 11 -86 31 -185
38 -185 5 0 7 8 3 19 -7 22 12 39 51 47 l29 5 3 -96 c2 -69 -2 -105 -12 -126
l-14 -29 174 0 174 0 -9 23 c-5 12 -7 40 -5 62 2 27 -3 53 -18 80 -17 32 -22
63 -26 158 -4 104 -3 117 12 117 21 0 55 73 56 117 0 37 -26 51 -61 33 -17
-10 -20 -9 -14 2 14 24 48 58 59 58 6 1 22 10 35 21 20 16 22 22 11 29 -11 7
-8 18 18 59 17 28 29 51 27 51 -3 0 -48 -43 -101 -95z m-255 -336 c-12 -38
-20 -46 -61 -61 -27 -10 -48 -14 -49 -10 0 4 -3 32 -5 64 l-4 56 38 -5 c29 -4
41 -1 57 17 19 21 20 21 28 2 6 -13 5 -36 -4 -63z m130 -199 c10 -5 26 -28 35
-51 17 -41 16 -43 -3 -70 -12 -16 -21 -33 -21 -39 0 -6 -7 -6 -20 2 -25 16
-34 63 -26 123 8 49 9 50 35 35z"/>
<path d="M314 162 c-19 -11 -11 -127 9 -147 15 -14 17 -14 17 -1 0 8 -3 17 -8
19 -4 3 -7 35 -7 71 0 36 0 66 0 66 0 0 -5 -4 -11 -8z m3 -84 c-3 -8 -6 -5 -6
6 -1 11 2 17 5 13 3 -3 4 -12 1 -19z"/>
</g>
</svg>
