<?xml version="1.0" standalone="no"?>
<!DOCTYPE svg PUBLIC "-//W3C//DTD SVG 20010904//EN"
 "http://www.w3.org/TR/2001/REC-SVG-20010904/DTD/svg10.dtd">
<svg version="1.0" xmlns="http://www.w3.org/2000/svg"
 width="96.000000pt" height="84.000000pt" viewBox="0 0 96.000000 84.000000"
 preserveAspectRatio="xMidYMid meet">
<metadata>
Created by potrace 1.16, written by Peter Selinger 2001-2019
</metadata>
<g transform="translate(0.000000,84.000000) scale(0.100000,-0.100000)"
fill="#000000" stroke="none">
<path d="M704 710 c-97 -91 -114 -102 -114 -75 0 8 -4 15 -10 15 -5 0 -10 -4
-10 -10 0 -5 -9 -10 -20 -10 -32 0 -67 -21 -79 -46 l-10 -24 -26 26 c-17 17
-32 23 -45 19 -15 -5 -23 2 -40 34 -58 116 -190 65 -190 -73 0 -59 40 -108 88
-110 36 -1 38 -3 18 -25 -7 -9 -17 -27 -21 -41 -7 -22 -6 -23 9 -11 9 7 16 12
17 10 0 -2 2 -16 4 -32 8 -60 27 -137 34 -137 4 0 11 4 17 9 5 5 23 12 39 15
l30 6 3 -101 c2 -78 -1 -108 -13 -126 l-15 -23 152 0 153 0 13 38 c27 75 26
89 -8 142 l-33 51 9 102 c6 72 13 101 21 100 19 -4 53 71 53 116 0 46 -21 59
-56 36 -13 -9 -24 -12 -24 -8 1 16 58 70 81 76 13 4 31 11 39 17 13 9 12 12
-4 25 -11 8 -14 15 -8 15 7 0 12 7 12 16 0 9 9 29 21 45 11 16 18 29 14 29 -3
0 -49 -40 -101 -90z m-255 -327 c-11 -40 -18 -47 -57 -64 -25 -11 -46 -18 -49
-16 -2 2 -6 31 -9 65 l-5 60 39 -5 c31 -4 44 -1 58 14 28 29 39 3 23 -54z
m140 -247 c16 -19 26 -96 12 -96 -6 0 -11 -7 -11 -15 0 -23 -18 -18 -36 10
-13 20 -15 40 -11 85 6 72 18 95 28 56 4 -15 12 -33 18 -40z"/>
<path d="M300 190 c0 -5 5 -10 10 -10 6 0 10 5 10 10 0 6 -4 10 -10 10 -5 0
-10 -4 -10 -10z"/>
<path d="M299 133 c-5 -81 -3 -130 4 -120 5 9 10 8 18 -3 9 -12 9 -11 3 5 -4
11 -7 30 -7 42 1 13 -3 20 -8 17 -5 -3 -9 2 -9 10 0 9 4 16 8 16 5 0 9 14 9
30 0 38 -16 40 -18 3z"/>
</g>
</svg>
