<?xml version="1.0" standalone="no"?>
<!DOCTYPE svg PUBLIC "-//W3C//DTD SVG 20010904//EN"
 "http://www.w3.org/TR/2001/REC-SVG-20010904/DTD/svg10.dtd">
<svg version="1.0" xmlns="http://www.w3.org/2000/svg"
 width="96.000000pt" height="84.000000pt" viewBox="0 0 96.000000 84.000000"
 preserveAspectRatio="xMidYMid meet">
<metadata>
Created by potrace 1.16, written by Peter Selinger 2001-2019
</metadata>
<g transform="translate(0.000000,84.000000) scale(0.100000,-0.100000)"
fill="#000000" stroke="none">
<path d="M705 704 c-94 -90 -100 -94 -108 -72 -7 20 -10 21 -17 7 -6 -10 -18
-15 -32 -12 -29 6 -78 -31 -78 -59 0 -18 -4 -16 -30 12 -21 23 -36 31 -50 27
-16 -4 -25 3 -41 35 -26 51 -81 78 -119 56 -42 -23 -70 -75 -70 -130 0 -41 5
-54 29 -79 20 -19 40 -29 60 -29 34 0 38 -6 17 -29 -7 -9 -17 -27 -21 -41 -7
-22 -6 -23 9 -11 9 7 16 12 17 10 0 -2 2 -20 5 -39 2 -19 9 -57 16 -85 6 -27
12 -76 11 -107 0 -32 3 -58 8 -58 5 0 9 -7 9 -16 0 -8 -4 -12 -10 -9 -5 3 -10
2 -10 -4 0 -16 17 -22 23 -8 3 8 4 48 2 90 -2 42 0 79 3 81 4 2 21 7 37 10
l30 6 0 -107 c0 -60 -4 -116 -9 -125 -8 -17 2 -18 133 -18 l140 0 26 43 c37
64 32 100 -22 158 -24 26 -24 27 -14 124 12 102 17 119 31 110 22 -14 67 98
55 135 -7 22 -44 27 -63 8 -6 -6 -14 -9 -17 -7 -8 9 55 78 68 74 7 -3 23 4 37
15 20 16 22 22 11 29 -9 6 -10 11 -2 15 6 4 9 12 5 17 -3 5 6 25 21 44 44 59
15 38 -90 -61z m-230 -174 c3 -5 1 -10 -4 -10 -6 0 -11 5 -11 10 0 6 2 10 4
10 3 0 8 -4 11 -10z m-22 -146 c-8 -24 -20 -47 -26 -52 -15 -11 -79 -33 -84
-29 -2 2 -6 31 -9 65 l-5 60 39 -5 c31 -4 44 -1 58 14 17 16 20 17 30 4 9 -11
8 -25 -3 -57z m-136 -226 c-3 -8 -6 -5 -6 6 -1 11 2 17 5 13 3 -3 4 -12 1 -19z
m253 -83 c-1 -55 -2 -58 -15 -41 -15 20 -21 107 -8 119 13 14 23 -19 23 -78z
m75 46 c3 -5 1 -12 -5 -16 -5 -3 -10 1 -10 9 0 18 6 21 15 7z"/>
<path d="M296 24 c-9 -24 -7 -27 9 -10 17 17 19 26 6 26 -5 0 -12 -7 -15 -16z"/>
</g>
</svg>
