<?xml version="1.0" standalone="no"?>
<!DOCTYPE svg PUBLIC "-//W3C//DTD SVG 20010904//EN"
 "http://www.w3.org/TR/2001/REC-SVG-20010904/DTD/svg10.dtd">
<svg version="1.0" xmlns="http://www.w3.org/2000/svg"
 width="96.000000pt" height="84.000000pt" viewBox="0 0 96.000000 84.000000"
 preserveAspectRatio="xMidYMid meet">
<metadata>
Created by potrace 1.16, written by Peter Selinger 2001-2019
</metadata>
<g transform="translate(0.000000,84.000000) scale(0.100000,-0.100000)"
fill="#000000" stroke="none">
<path d="M757 732 c-34 -32 -81 -73 -103 -90 -36 -28 -43 -30 -48 -15 -5 12
-9 14 -18 5 -7 -7 -26 -12 -43 -12 -16 0 -35 -4 -41 -8 -20 -13 -35 -52 -29
-72 4 -12 2 -20 -4 -20 -6 0 -11 9 -11 20 0 27 -43 70 -69 70 -13 0 -28 14
-42 39 -31 56 -93 79 -131 49 -32 -25 -58 -83 -58 -126 0 -37 6 -50 34 -78 25
-25 43 -34 67 -34 l32 0 -20 -22 c-11 -13 -24 -34 -28 -48 -7 -22 -6 -23 9
-11 9 7 16 12 17 10 0 -2 2 -13 3 -24 2 -11 9 -47 16 -80 7 -33 13 -69 13 -80
0 -11 6 -23 11 -27 8 -6 8 -10 1 -15 -6 -5 -11 -44 -11 -88 -1 -44 1 -74 3
-67 3 6 8 10 12 7 5 -2 7 45 6 105 -2 118 -6 109 53 125 15 4 17 -5 17 -103
-1 -59 -5 -115 -9 -125 -8 -16 2 -17 133 -17 l141 0 31 47 c36 58 33 78 -21
148 l-39 50 14 74 c19 99 24 111 39 105 20 -7 58 77 54 118 -2 26 -8 34 -26
36 -13 2 -30 -2 -38 -8 -7 -7 -14 -8 -14 -3 0 14 64 73 80 73 8 0 24 7 34 15
15 11 16 18 8 28 -9 11 -5 24 18 60 16 26 27 47 24 47 -3 0 -33 -26 -67 -58z
m-294 -292 c3 -11 -1 -39 -8 -62 -11 -38 -17 -45 -60 -61 -26 -10 -49 -16 -50
-15 -2 2 -5 30 -7 63 l-3 60 35 -3 c26 -2 41 3 55 17 23 26 31 26 38 1z m91
-353 c2 -26 -1 -44 -5 -41 -5 3 -9 26 -9 51 0 58 9 51 14 -10z m78 -1 l-17
-31 -3 28 c-5 42 5 62 23 47 13 -10 12 -16 -3 -44z m-315 -8 c-3 -8 -6 -5 -6
6 -1 11 2 17 5 13 3 -3 4 -12 1 -19z"/>
</g>
</svg>
