<?xml version="1.0" standalone="no"?>
<!DOCTYPE svg PUBLIC "-//W3C//DTD SVG 20010904//EN"
 "http://www.w3.org/TR/2001/REC-SVG-20010904/DTD/svg10.dtd">
<svg version="1.0" xmlns="http://www.w3.org/2000/svg"
 width="96.000000pt" height="84.000000pt" viewBox="0 0 96.000000 84.000000"
 preserveAspectRatio="xMidYMid meet">
<metadata>
Created by potrace 1.16, written by Peter Selinger 2001-2019
</metadata>
<g transform="translate(0.000000,84.000000) scale(0.100000,-0.100000)"
fill="#000000" stroke="none">
<path d="M758 717 c-40 -35 -87 -73 -105 -85 -30 -21 -32 -21 -42 -5 -8 16
-10 16 -16 3 -4 -11 -15 -15 -39 -12 -45 5 -80 -27 -74 -69 6 -37 -7 -38 -20
-1 -13 39 -39 62 -68 62 -18 0 -27 9 -38 34 -27 64 -104 88 -147 45 -46 -46
-60 -118 -33 -170 17 -33 73 -63 100 -52 13 5 11 -4 -10 -41 -25 -46 -26 -47
-5 -41 18 6 20 4 15 -13 -4 -11 -3 -23 2 -26 5 -3 13 -42 16 -86 4 -44 12 -80
17 -80 6 0 8 8 4 19 -7 22 9 36 50 44 l30 5 -1 -106 c0 -59 -4 -115 -8 -124
-8 -17 2 -18 132 -18 l140 0 32 43 c39 52 35 80 -18 149 -22 29 -36 58 -34 71
7 56 35 171 39 160 3 -7 8 -13 13 -13 12 0 60 101 60 127 0 27 -36 51 -53 34
-6 -6 -18 -11 -26 -11 -10 0 -3 12 19 35 19 19 43 35 54 35 30 1 65 28 48 39
-15 9 -7 34 26 79 13 17 22 32 19 32 -3 0 -39 -28 -79 -63z m-294 -280 c7 -28
-9 -91 -27 -105 -6 -5 -24 -12 -39 -16 -14 -3 -33 -8 -41 -12 -11 -4 -15 7
-19 53 -7 76 -3 85 28 71 20 -10 29 -8 52 10 35 27 39 27 46 -1z m83 -375 c-2
-15 -4 -2 -4 28 0 30 2 43 4 27 2 -15 2 -39 0 -55z m98 58 c3 -5 -2 -21 -11
-35 -13 -20 -19 -23 -25 -13 -5 7 -4 14 1 16 6 2 10 12 10 23 0 20 15 26 25 9z"/>
<path d="M300 130 c0 -16 5 -30 10 -30 6 0 10 -7 10 -16 0 -8 -3 -13 -8 -10
-4 2 -8 -14 -8 -36 -1 -22 2 -35 6 -28 6 9 9 9 12 -1 3 -8 3 15 1 51 -2 36 -4
73 -4 83 0 9 -4 17 -10 17 -5 0 -9 -13 -9 -30z"/>
</g>
</svg>
