<?xml version="1.0" standalone="no"?>
<!DOCTYPE svg PUBLIC "-//W3C//DTD SVG 20010904//EN"
 "http://www.w3.org/TR/2001/REC-SVG-20010904/DTD/svg10.dtd">
<svg version="1.0" xmlns="http://www.w3.org/2000/svg"
 width="96.000000pt" height="84.000000pt" viewBox="0 0 96.000000 84.000000"
 preserveAspectRatio="xMidYMid meet">
<metadata>
Created by potrace 1.16, written by Peter Selinger 2001-2019
</metadata>
<g transform="translate(0.000000,84.000000) scale(0.100000,-0.100000)"
fill="#000000" stroke="none">
<path d="M763 712 c-110 -93 -143 -115 -143 -98 0 9 -4 16 -10 16 -5 0 -10 -4
-10 -9 0 -6 -15 -7 -34 -4 -28 4 -39 1 -61 -21 -19 -19 -26 -34 -22 -52 6 -33
-9 -30 -18 4 -9 37 -34 62 -61 62 -16 0 -29 10 -40 33 -25 49 -44 66 -80 73
-43 8 -75 -12 -99 -62 -19 -41 -22 -102 -5 -133 14 -28 67 -54 97 -48 24 4 24
4 5 -17 -10 -11 -24 -34 -30 -49 -11 -27 -11 -28 9 -22 14 5 20 3 18 -7 -1 -7
0 -20 4 -28 6 -18 19 -115 19 -147 0 -13 4 -21 8 -18 5 3 11 -1 13 -7 3 -7 3
2 0 19 -6 34 -4 36 47 47 l25 5 -2 -107 c0 -59 -4 -115 -8 -125 -7 -16 4 -17
134 -17 l141 0 30 42 c44 60 39 87 -28 160 -22 24 -24 32 -18 80 12 92 26 136
44 134 24 -2 63 72 60 114 -3 30 -6 35 -28 34 -14 -1 -34 -5 -45 -9 -13 -5 -6
6 19 33 22 23 43 39 49 35 5 -3 19 0 32 7 19 10 23 19 20 43 -3 21 4 40 22 63
14 19 23 34 19 34 -3 0 -36 -26 -73 -58z m-298 -282 c4 -16 1 -46 -5 -65 -10
-30 -18 -37 -62 -50 -28 -8 -52 -14 -54 -12 -2 2 -6 92 -5 117 1 12 10 15 39
12 26 -3 42 1 51 12 20 23 29 20 36 -14z m95 -353 c0 -44 -3 -58 -10 -47 -13
20 -13 123 0 115 6 -3 10 -34 10 -68z m70 8 c0 -19 -6 -19 -14 0 -3 8 -1 15 4
15 6 0 10 -7 10 -15z"/>
<path d="M300 150 c0 -5 5 -10 10 -10 6 0 10 5 10 10 0 6 -4 10 -10 10 -5 0
-10 -4 -10 -10z"/>
<path d="M299 125 c-1 -6 -3 -35 -4 -66 -1 -42 2 -54 10 -45 14 14 15 59 1 69
-7 4 -6 10 4 17 12 7 12 12 2 22 -6 6 -13 8 -13 3z"/>
</g>
</svg>
