<?xml version="1.0" standalone="no"?>
<!DOCTYPE svg PUBLIC "-//W3C//DTD SVG 20010904//EN"
 "http://www.w3.org/TR/2001/REC-SVG-20010904/DTD/svg10.dtd">
<svg version="1.0" xmlns="http://www.w3.org/2000/svg"
 width="96.000000pt" height="84.000000pt" viewBox="0 0 96.000000 84.000000"
 preserveAspectRatio="xMidYMid meet">
<metadata>
Created by potrace 1.16, written by Peter Selinger 2001-2019
</metadata>
<g transform="translate(0.000000,84.000000) scale(0.100000,-0.100000)"
fill="#000000" stroke="none">
<path d="M763 712 c-110 -93 -143 -115 -143 -98 0 9 -4 16 -10 16 -5 0 -10 -4
-10 -9 0 -5 -18 -8 -41 -7 -32 0 -45 -5 -61 -24 -11 -14 -18 -34 -15 -47 2
-13 0 -23 -4 -23 -5 0 -9 8 -9 19 0 28 -37 69 -67 73 -21 2 -29 10 -35 35 -15
59 -86 91 -140 62 -24 -13 -57 -83 -58 -122 0 -35 24 -83 49 -97 11 -5 34 -10
52 -10 l32 0 -21 -22 c-11 -13 -23 -36 -26 -53 -4 -16 -3 -24 0 -17 9 18 26
15 23 -5 -1 -10 1 -25 4 -33 9 -24 18 -110 20 -182 0 -37 4 -65 9 -62 4 3 8
-1 8 -10 0 -8 -6 -16 -12 -19 -10 -3 -10 -7 -1 -17 17 -18 23 12 19 98 -2 48
1 75 8 77 60 18 61 17 59 -33 -2 -26 -4 -82 -5 -124 l-3 -78 137 0 138 0 30
42 c16 22 30 51 30 63 0 21 -47 96 -70 110 -11 7 -10 17 12 143 7 45 14 60 22
53 17 -15 57 50 63 103 5 38 3 45 -15 51 -12 3 -30 1 -41 -4 -35 -19 -36 -12
-1 24 19 19 42 35 53 35 38 0 56 18 52 51 -3 23 3 41 22 65 14 19 23 34 19 34
-3 0 -36 -26 -73 -58z m-298 -275 c8 -15 7 -34 0 -62 -12 -40 -30 -53 -97 -69
l-28 -6 0 69 0 69 38 -5 c27 -4 42 -1 51 11 18 21 24 20 36 -7z m-148 -269
c-3 -8 -6 -5 -6 6 -1 11 2 17 5 13 3 -3 4 -12 1 -19z m253 -91 c3 -69 1 -75
-15 -53 -15 20 -20 101 -8 132 6 15 8 14 14 -9 4 -16 8 -47 9 -70z m67 21 c-3
-8 -6 -5 -6 6 -1 11 2 17 5 13 3 -3 4 -12 1 -19z"/>
<path d="M297 33 c-4 -3 -7 -13 -7 -20 0 -12 3 -12 15 1 8 8 15 17 15 20 0 8
-15 7 -23 -1z"/>
</g>
</svg>
