<?xml version="1.0" standalone="no"?>
<!DOCTYPE svg PUBLIC "-//W3C//DTD SVG 20010904//EN"
 "http://www.w3.org/TR/2001/REC-SVG-20010904/DTD/svg10.dtd">
<svg version="1.0" xmlns="http://www.w3.org/2000/svg"
 width="96.000000pt" height="84.000000pt" viewBox="0 0 96.000000 84.000000"
 preserveAspectRatio="xMidYMid meet">
<metadata>
Created by potrace 1.16, written by Peter Selinger 2001-2019
</metadata>
<g transform="translate(0.000000,84.000000) scale(0.100000,-0.100000)"
fill="#000000" stroke="none">
<path d="M758 707 c-102 -89 -138 -113 -138 -93 0 9 -4 16 -10 16 -5 0 -10 -4
-10 -10 0 -5 -18 -10 -40 -10 -43 0 -80 -26 -80 -57 0 -11 -8 -3 -18 17 -12
25 -25 36 -46 40 -22 4 -32 13 -41 39 -23 69 -94 101 -141 63 -90 -72 -60
-228 44 -226 l39 1 -28 -26 c-32 -30 -49 -74 -25 -65 11 4 16 -7 20 -53 4 -32
10 -71 15 -88 5 -16 8 -80 7 -141 -2 -81 1 -109 9 -100 12 12 14 66 3 66 -5 0
-8 7 -8 15 0 8 3 15 8 15 4 0 7 11 7 25 0 14 -3 25 -7 25 -5 0 -8 7 -8 15 0 8
4 15 9 15 5 0 7 9 4 20 -5 20 -1 23 47 34 l25 5 -5 -124 -5 -125 88 0 c84 0
87 1 77 19 -18 35 -11 151 9 151 15 0 32 -129 21 -150 -10 -19 -7 -20 34 -20
39 0 48 4 76 37 38 47 36 85 -9 142 -34 43 -37 68 -20 168 8 48 15 63 27 61
20 -4 62 76 62 118 0 24 -5 34 -21 39 -12 4 -26 2 -32 -4 -6 -6 -18 -11 -26
-11 -10 0 -3 12 19 35 19 19 43 35 54 35 34 1 54 23 51 54 -3 19 5 40 22 63
14 18 23 33 20 33 -3 0 -39 -28 -79 -63z m-268 -187 c0 -5 -4 -10 -10 -10 -5
0 -10 5 -10 10 0 6 5 10 10 10 6 0 10 -4 10 -10z m-29 -149 c-16 -45 -17 -46
-93 -64 l-26 -7 0 70 0 70 36 -6 c25 -3 44 0 57 9 17 13 20 13 30 -7 9 -16 8
-31 -4 -65z"/>
</g>
</svg>
