<?xml version="1.0" standalone="no"?>
<!DOCTYPE svg PUBLIC "-//W3C//DTD SVG 20010904//EN"
 "http://www.w3.org/TR/2001/REC-SVG-20010904/DTD/svg10.dtd">
<svg version="1.0" xmlns="http://www.w3.org/2000/svg"
 width="96.000000pt" height="84.000000pt" viewBox="0 0 96.000000 84.000000"
 preserveAspectRatio="xMidYMid meet">
<metadata>
Created by potrace 1.16, written by Peter Selinger 2001-2019
</metadata>
<g transform="translate(0.000000,84.000000) scale(0.100000,-0.100000)"
fill="#000000" stroke="none">
<path d="M779 723 c-30 -27 -56 -50 -59 -53 -16 -17 -80 -60 -88 -60 -6 0 -13
6 -16 13 -5 10 -7 10 -12 0 -3 -7 -21 -13 -40 -13 -47 0 -70 -14 -78 -46 l-7
-27 -17 34 c-12 23 -27 36 -49 41 -20 5 -33 15 -33 24 0 26 -31 71 -57 83 -52
24 -86 10 -122 -49 -25 -41 -27 -89 -6 -130 19 -37 43 -50 90 -50 l37 0 -31
-26 c-17 -14 -29 -30 -26 -34 3 -5 1 -11 -5 -15 -16 -10 -12 -23 6 -21 13 1
17 -12 21 -64 3 -36 8 -72 13 -80 4 -8 7 -67 6 -131 -1 -81 1 -113 9 -105 13
14 16 66 4 66 -5 0 -9 7 -9 15 0 8 3 15 8 15 4 0 7 11 7 25 0 14 -3 25 -7 25
-5 0 -8 7 -8 15 0 8 4 15 9 15 5 0 7 9 4 20 -5 20 -1 23 47 34 l25 5 -5 -124
-5 -125 86 0 87 0 -14 41 c-15 43 -11 96 10 125 10 14 14 5 25 -54 9 -52 10
-76 1 -91 -10 -20 -8 -21 34 -21 39 0 48 4 75 37 17 21 31 46 31 56 0 24 -23
68 -49 91 -24 22 -26 55 -10 157 9 53 16 69 27 67 22 -4 62 69 62 115 0 28 -4
37 -17 38 -24 2 -25 2 -48 -7 -16 -6 -14 -1 10 28 17 20 39 37 50 38 30 1 70
26 56 34 -14 9 -7 53 12 75 18 20 30 41 24 41 -3 0 -29 -21 -58 -47z m-289
-203 c0 -5 -4 -10 -10 -10 -5 0 -10 5 -10 10 0 6 5 10 10 10 6 0 10 -4 10 -10z
m-19 -100 c5 0 1 -21 -9 -46 -15 -42 -22 -48 -61 -60 -25 -7 -48 -11 -52 -9
-4 3 -7 34 -7 70 l-1 65 37 -6 c25 -4 44 0 57 10 18 13 20 13 23 -5 2 -10 7
-19 13 -19z"/>
</g>
</svg>
