<?xml version="1.0" standalone="no"?>
<!DOCTYPE svg PUBLIC "-//W3C//DTD SVG 20010904//EN"
 "http://www.w3.org/TR/2001/REC-SVG-20010904/DTD/svg10.dtd">
<svg version="1.0" xmlns="http://www.w3.org/2000/svg"
 width="96.000000pt" height="84.000000pt" viewBox="0 0 96.000000 84.000000"
 preserveAspectRatio="xMidYMid meet">
<metadata>
Created by potrace 1.16, written by Peter Selinger 2001-2019
</metadata>
<g transform="translate(0.000000,84.000000) scale(0.100000,-0.100000)"
fill="#000000" stroke="none">
<path d="M775 714 c-27 -24 -71 -60 -97 -79 -40 -29 -47 -32 -53 -17 -6 16 -7
16 -15 1 -6 -11 -18 -15 -35 -12 -57 11 -105 -31 -90 -78 4 -11 2 -19 -4 -19
-6 0 -11 12 -11 28 0 38 -24 68 -58 75 -23 5 -31 13 -35 37 -13 62 -84 98
-138 70 -26 -14 -59 -82 -59 -120 0 -62 43 -109 100 -110 l35 -1 -26 -22 c-30
-25 -49 -80 -25 -71 11 4 16 -8 21 -53 3 -32 10 -75 16 -96 5 -21 7 -47 4 -57
-8 -24 9 -58 19 -41 4 6 2 11 -3 11 -6 0 -11 7 -11 15 0 8 4 15 10 15 5 0 7 7
3 16 -7 18 12 34 42 34 20 0 21 -6 20 -120 l0 -120 87 0 87 0 -15 28 c-7 15
-14 36 -14 47 0 30 20 95 29 95 13 0 31 -121 21 -141 -15 -27 -13 -29 34 -29
38 0 48 5 75 35 17 20 31 45 31 56 0 26 -23 69 -49 93 -24 22 -27 58 -10 153
7 42 15 63 23 60 19 -8 58 59 63 108 6 51 -10 66 -53 47 -13 -7 -24 -9 -24 -5
0 15 63 71 75 66 19 -7 66 27 58 41 -11 16 -3 47 19 78 28 41 10 34 -47 -18z
m-311 -286 c13 -71 -13 -106 -91 -123 l-32 -6 0 70 0 71 38 -6 c27 -4 40 -2
50 10 20 24 28 20 35 -16z"/>
<path d="M309 123 c-1 -4 -3 -33 -4 -64 -1 -41 2 -54 9 -45 14 14 17 66 5 66
-13 0 -11 28 3 32 9 3 9 6 0 12 -7 4 -13 4 -13 -1z"/>
</g>
</svg>
