<?xml version="1.0" standalone="no"?>
<!DOCTYPE svg PUBLIC "-//W3C//DTD SVG 20010904//EN"
 "http://www.w3.org/TR/2001/REC-SVG-20010904/DTD/svg10.dtd">
<svg version="1.0" xmlns="http://www.w3.org/2000/svg"
 width="96.000000pt" height="84.000000pt" viewBox="0 0 96.000000 84.000000"
 preserveAspectRatio="xMidYMid meet">
<metadata>
Created by potrace 1.16, written by Peter Selinger 2001-2019
</metadata>
<g transform="translate(0.000000,84.000000) scale(0.100000,-0.100000)"
fill="#000000" stroke="none">
<path d="M0 420 l0 -420 273 0 272 0 34 72 33 72 -21 44 c-12 24 -37 68 -56
98 -28 43 -42 55 -75 64 -43 12 -80 55 -80 95 0 26 66 95 91 95 40 0 76 -65
66 -118 -4 -22 4 -37 45 -82 42 -47 48 -51 43 -28 -5 19 -1 37 14 61 12 19 21
45 21 58 0 14 7 34 15 47 14 19 14 25 1 50 -12 23 -21 28 -38 25 -19 -4 -28 4
-48 39 -14 24 -25 49 -25 55 0 7 -23 27 -50 44 -28 17 -52 35 -55 38 -3 4 -26
22 -52 41 -26 18 -50 41 -53 52 -6 17 -20 18 -181 18 l-174 0 0 -420z"/>
<path d="M946 355 c4 -8 8 -15 10 -15 2 0 4 7 4 15 0 8 -4 15 -10 15 -5 0 -7
-7 -4 -15z"/>
<path d="M703 121 c-18 -15 -33 -32 -33 -37 0 -5 -9 -26 -20 -47 l-20 -38 77
3 c71 3 78 5 81 25 3 17 -42 124 -51 123 -1 -1 -17 -13 -34 -29z"/>
</g>
</svg>
