<?xml version="1.0" standalone="no"?>
<!DOCTYPE svg PUBLIC "-//W3C//DTD SVG 20010904//EN"
 "http://www.w3.org/TR/2001/REC-SVG-20010904/DTD/svg10.dtd">
<svg version="1.0" xmlns="http://www.w3.org/2000/svg"
 width="96.000000pt" height="84.000000pt" viewBox="0 0 96.000000 84.000000"
 preserveAspectRatio="xMidYMid meet">
<metadata>
Created by potrace 1.16, written by Peter Selinger 2001-2019
</metadata>
<g transform="translate(0.000000,84.000000) scale(0.100000,-0.100000)"
fill="#000000" stroke="none">
<path d="M773 702 c-106 -90 -133 -108 -144 -91 -6 9 -12 10 -16 3 -5 -5 -27
-10 -50 -10 -51 1 -76 -20 -76 -64 0 -16 -4 -30 -9 -30 -4 0 -8 12 -8 28 0 38
-25 70 -57 74 -21 2 -29 10 -35 35 -10 40 -61 83 -98 83 -19 0 -37 -11 -58
-35 -75 -85 -39 -205 61 -205 l40 0 -29 -22 c-16 -12 -29 -22 -30 -22 -1 -1
-4 -13 -8 -28 -5 -21 -3 -26 8 -22 11 4 16 -8 21 -53 3 -32 10 -74 14 -93 5
-19 7 -62 6 -95 -3 -69 4 -135 15 -135 3 0 7 13 7 30 0 16 -4 27 -9 24 -4 -3
-8 2 -8 10 0 9 4 16 8 16 5 0 9 14 9 30 0 17 -4 30 -9 30 -4 0 -8 7 -8 16 0 8
5 12 10 9 7 -4 9 2 4 19 -4 18 -2 26 7 26 8 0 23 3 34 6 19 5 20 0 20 -115 l0
-121 84 0 c75 0 82 2 76 18 -15 33 -17 81 -5 118 11 33 14 35 23 18 6 -10 11
-49 11 -86 l1 -68 41 0 c35 0 47 6 73 35 40 46 39 72 -4 128 -39 51 -42 79
-22 177 8 36 17 55 27 55 20 0 58 59 66 103 5 28 3 38 -12 49 -10 7 -24 11
-31 8 -43 -17 -45 -15 -14 18 19 21 43 37 54 37 39 0 56 18 52 54 -3 23 1 38
11 47 16 13 38 49 30 49 -3 0 -36 -26 -73 -58z m-303 -286 c4 -4 1 -27 -7 -51
-13 -39 -19 -44 -58 -54 -24 -6 -48 -11 -54 -11 -5 0 -10 31 -10 70 l0 70 37
-6 c25 -4 44 -1 57 10 18 13 20 13 23 -2 2 -9 8 -21 12 -26z"/>
</g>
</svg>
