<?xml version="1.0" standalone="no"?>
<!DOCTYPE svg PUBLIC "-//W3C//DTD SVG 20010904//EN"
 "http://www.w3.org/TR/2001/REC-SVG-20010904/DTD/svg10.dtd">
<svg version="1.0" xmlns="http://www.w3.org/2000/svg"
 width="96.000000pt" height="84.000000pt" viewBox="0 0 96.000000 84.000000"
 preserveAspectRatio="xMidYMid meet">
<metadata>
Created by potrace 1.16, written by Peter Selinger 2001-2019
</metadata>
<g transform="translate(0.000000,84.000000) scale(0.100000,-0.100000)"
fill="#000000" stroke="none">
<path d="M796 706 c-29 -25 -76 -61 -104 -80 -44 -32 -51 -34 -56 -19 -6 15
-9 15 -16 3 -6 -10 -23 -13 -54 -11 -38 2 -47 -1 -61 -23 -10 -14 -15 -35 -12
-46 3 -11 1 -23 -4 -26 -5 -3 -9 4 -9 16 0 38 -29 80 -60 87 -22 4 -32 14 -40
38 -12 36 -44 69 -76 79 -53 16 -116 -54 -118 -129 -1 -38 4 -50 31 -77 25
-24 41 -32 67 -31 l35 1 -28 -23 c-15 -13 -28 -30 -28 -37 0 -7 -4 -21 -8 -30
-5 -13 -2 -15 16 -11 17 5 21 3 17 -8 -3 -8 0 -52 7 -98 8 -46 11 -90 8 -99
-4 -10 -2 -13 5 -8 7 4 12 1 12 -9 0 -9 -4 -14 -8 -11 -5 3 -8 -30 -8 -74 0
-54 3 -77 11 -74 8 3 11 40 11 112 l-1 106 30 6 30 6 -1 -118 0 -118 83 0 c80
0 83 1 73 19 -13 25 -13 82 1 118 9 25 11 26 21 10 5 -10 11 -48 11 -83 l2
-64 47 0 c39 0 50 5 72 31 38 45 34 77 -22 144 -22 26 -24 35 -18 84 10 87 27
144 39 132 26 -26 91 115 66 145 -14 17 -41 18 -57 2 -6 -6 -15 -9 -19 -5 -9
10 58 78 69 71 11 -7 68 15 68 25 0 4 -5 12 -12 19 -9 9 -9 12 1 12 7 0 9 4 6
10 -3 5 6 26 21 45 14 19 24 35 21 35 -4 0 -31 -20 -61 -44z m-327 -273 c9
-77 -10 -112 -69 -129 -24 -7 -45 -12 -46 -11 -6 6 -12 120 -8 132 4 11 12 12
31 4 19 -7 31 -6 47 5 28 20 42 20 45 -1z m-152 -355 c-3 -8 -6 -5 -6 6 -1 11
2 17 5 13 3 -3 4 -12 1 -19z"/>
</g>
</svg>
