<?xml version="1.0" standalone="no"?>
<!DOCTYPE svg PUBLIC "-//W3C//DTD SVG 20010904//EN"
 "http://www.w3.org/TR/2001/REC-SVG-20010904/DTD/svg10.dtd">
<svg version="1.0" xmlns="http://www.w3.org/2000/svg"
 width="96.000000pt" height="84.000000pt" viewBox="0 0 96.000000 84.000000"
 preserveAspectRatio="xMidYMid meet">
<metadata>
Created by potrace 1.16, written by Peter Selinger 2001-2019
</metadata>
<g transform="translate(0.000000,84.000000) scale(0.100000,-0.100000)"
fill="#000000" stroke="none">
<path d="M840 733 c-14 -9 -47 -35 -75 -58 -74 -62 -122 -88 -129 -73 -5 10
-7 10 -12 1 -3 -8 -16 -10 -34 -6 -16 3 -40 3 -53 -1 -27 -6 -50 -50 -42 -77
4 -11 2 -19 -4 -19 -6 0 -11 9 -11 20 0 36 -23 70 -56 82 -24 9 -37 21 -45 45
-22 68 -104 96 -146 51 -32 -36 -43 -63 -43 -108 0 -35 6 -48 35 -77 30 -30
40 -35 68 -29 l32 6 -30 -27 c-16 -14 -30 -31 -31 -37 -1 -6 -5 -18 -9 -28 -4
-11 -1 -16 11 -15 13 2 18 -6 20 -28 1 -16 7 -58 12 -92 6 -33 8 -71 5 -84 -4
-15 -3 -20 5 -15 7 4 12 2 12 -3 0 -6 -4 -11 -9 -11 -12 0 -9 -52 5 -66 7 -8
10 9 8 61 -2 67 0 74 20 79 11 3 26 6 31 6 6 0 10 -44 9 -115 l-2 -115 79 0
78 0 -6 50 c-6 53 14 124 27 98 16 -28 22 -118 10 -133 -11 -13 -5 -15 42 -15
46 0 58 4 81 28 37 38 34 71 -9 128 -34 44 -36 50 -30 98 12 92 27 137 44 134
20 -4 60 54 68 100 5 28 3 38 -12 49 -10 7 -23 12 -29 9 -47 -19 -49 -17 -15
18 19 20 41 35 50 33 23 -5 72 22 63 36 -14 24 -9 47 19 82 33 40 33 42 -2 18z
m-366 -316 c3 -18 1 -47 -5 -65 -8 -25 -20 -34 -60 -47 -28 -10 -52 -15 -54
-14 -7 8 -14 105 -9 125 5 19 9 20 34 11 22 -9 33 -7 52 6 32 22 35 21 42 -16z"/>
<path d="M295 40 c0 -24 4 -36 11 -33 14 5 13 47 -1 60 -8 7 -11 -2 -10 -27z"/>
</g>
</svg>
