<?xml version="1.0" standalone="no"?>
<!DOCTYPE svg PUBLIC "-//W3C//DTD SVG 20010904//EN"
 "http://www.w3.org/TR/2001/REC-SVG-20010904/DTD/svg10.dtd">
<svg version="1.0" xmlns="http://www.w3.org/2000/svg"
 width="96.000000pt" height="84.000000pt" viewBox="0 0 96.000000 84.000000"
 preserveAspectRatio="xMidYMid meet">
<metadata>
Created by potrace 1.16, written by Peter Selinger 2001-2019
</metadata>
<g transform="translate(0.000000,84.000000) scale(0.100000,-0.100000)"
fill="#000000" stroke="none">
<path d="M795 694 c-107 -86 -146 -109 -157 -92 -7 10 -11 10 -15 1 -3 -9 -17
-11 -43 -7 -33 5 -42 2 -65 -20 -20 -20 -25 -33 -21 -52 4 -13 2 -24 -4 -24
-5 0 -10 9 -10 20 0 36 -23 69 -55 80 -24 8 -34 18 -38 39 -8 41 -46 80 -85
87 -28 6 -37 2 -67 -30 -35 -38 -52 -88 -41 -129 10 -40 55 -77 93 -77 l35 0
-32 -26 c-17 -15 -29 -29 -26 -32 3 -2 1 -13 -5 -23 -8 -16 -6 -19 12 -19 15
0 19 -5 15 -15 -3 -9 0 -48 8 -88 13 -73 16 -253 4 -272 -4 -6 1 -11 10 -11
14 0 17 12 18 71 1 41 -3 73 -10 78 -8 5 -7 10 3 16 7 5 10 14 6 20 -10 17 13
41 39 41 20 0 21 -4 19 -115 l-2 -115 78 0 78 0 -5 54 c-4 51 9 96 28 96 14 0
24 -111 11 -132 -10 -17 -7 -18 42 -18 45 0 57 4 80 28 36 37 34 60 -9 122
-38 56 -39 60 -12 187 9 41 14 50 24 42 18 -15 75 85 72 126 -3 29 -5 30 -47
28 l-44 -2 34 35 c19 20 39 32 48 29 15 -6 71 15 71 27 0 4 -4 9 -9 12 -12 8
-2 47 19 71 19 22 33 45 28 45 -2 0 -35 -25 -73 -56z m-323 -271 c11 -22 11
-36 2 -63 -10 -30 -19 -38 -64 -53 -29 -10 -54 -16 -55 -15 -7 7 -15 113 -10
129 5 14 10 15 34 6 23 -9 34 -7 53 6 12 9 24 16 25 16 1 1 8 -11 15 -26z
m-155 -355 c-3 -8 -6 -5 -6 6 -1 11 2 17 5 13 3 -3 4 -12 1 -19z"/>
</g>
</svg>
