<?xml version="1.0" standalone="no"?>
<!DOCTYPE svg PUBLIC "-//W3C//DTD SVG 20010904//EN"
 "http://www.w3.org/TR/2001/REC-SVG-20010904/DTD/svg10.dtd">
<svg version="1.0" xmlns="http://www.w3.org/2000/svg"
 width="96.000000pt" height="84.000000pt" viewBox="0 0 96.000000 84.000000"
 preserveAspectRatio="xMidYMid meet">
<metadata>
Created by potrace 1.16, written by Peter Selinger 2001-2019
</metadata>
<g transform="translate(0.000000,84.000000) scale(0.100000,-0.100000)"
fill="#000000" stroke="none">
<path d="M270 727 c-39 -20 -70 -74 -70 -124 0 -57 41 -103 92 -103 l33 -1
-25 -22 c-21 -18 -50 -65 -50 -81 0 -2 8 -3 17 -2 13 1 17 -9 20 -44 2 -25 7
-69 13 -99 5 -29 8 -63 5 -75 -6 -24 10 -55 22 -42 4 5 2 11 -4 13 -15 5 -17
33 -3 33 5 0 9 10 7 22 -1 17 5 23 28 28 l30 6 -4 -118 -3 -118 79 0 80 0 -5
54 c-4 50 9 96 27 96 5 0 13 -25 19 -56 10 -48 9 -58 -5 -72 -16 -16 -13 -17
43 -20 54 -3 61 -1 82 24 30 34 24 73 -18 126 -22 27 -29 44 -25 65 21 136 28
164 40 159 25 -9 75 72 75 123 0 34 -27 49 -59 32 -36 -20 -35 -11 3 28 26 26
44 37 59 34 12 -2 31 3 41 12 16 12 17 17 6 30 -9 11 -9 15 -1 15 7 0 9 5 6
11 -4 6 2 20 12 32 23 25 36 47 29 47 -2 0 -38 -26 -78 -58 -109 -85 -127 -96
-144 -81 -11 9 -14 9 -14 -1 0 -8 -10 -10 -34 -6 -47 9 -84 -7 -93 -41 -4 -15
-6 -34 -5 -40 2 -7 -2 -13 -8 -13 -5 0 -10 12 -10 28 0 36 -23 68 -55 76 -14
4 -25 13 -25 22 0 34 -33 83 -65 98 -39 19 -34 19 -65 3z m135 -300 c11 0 29
4 40 7 28 9 44 -28 30 -72 -6 -17 -15 -36 -21 -41 -8 -8 -96 -32 -100 -28 -2
1 -5 28 -8 60 -6 69 0 91 23 81 9 -4 25 -7 36 -7z"/>
<path d="M310 104 c0 -8 5 -12 10 -9 6 3 10 -1 10 -9 0 -9 -4 -16 -8 -16 -13
0 -10 -58 2 -63 10 -4 14 50 8 101 -3 18 -22 15 -22 -4z"/>
</g>
</svg>
