<?xml version="1.0" standalone="no"?>
<!DOCTYPE svg PUBLIC "-//W3C//DTD SVG 20010904//EN"
 "http://www.w3.org/TR/2001/REC-SVG-20010904/DTD/svg10.dtd">
<svg version="1.0" xmlns="http://www.w3.org/2000/svg"
 width="96.000000pt" height="84.000000pt" viewBox="0 0 96.000000 84.000000"
 preserveAspectRatio="xMidYMid meet">
<metadata>
Created by potrace 1.16, written by Peter Selinger 2001-2019
</metadata>
<g transform="translate(0.000000,84.000000) scale(0.100000,-0.100000)"
fill="#000000" stroke="none">
<path d="M245 707 c-64 -64 -54 -162 21 -193 19 -8 39 -12 44 -9 6 4 10 2 10
-3 0 -5 -10 -14 -23 -21 -28 -15 -53 -83 -28 -79 11 2 15 -4 14 -17 -1 -11 3
-42 8 -70 6 -27 11 -103 13 -167 3 -97 6 -120 21 -135 18 -17 19 -17 10 2 -4
11 -8 30 -8 42 1 13 -3 20 -8 17 -5 -3 -9 2 -9 10 0 9 4 16 9 16 5 0 7 29 6
65 -3 58 -2 65 15 65 10 0 24 2 32 5 10 4 12 -18 9 -115 l-3 -120 79 0 80 0
-5 54 c-6 76 29 134 42 68 16 -83 18 -105 8 -99 -5 4 -12 0 -16 -8 -4 -12 5
-15 53 -15 47 0 61 4 79 23 30 32 28 55 -10 112 -35 52 -36 70 -16 178 9 51
28 88 28 56 0 -19 29 11 49 50 43 86 32 119 -36 107 l-38 -7 40 35 c22 20 46
33 53 31 7 -2 23 1 37 7 20 9 24 17 22 42 -3 22 5 42 27 70 37 48 18 39 -74
-34 -86 -69 -120 -86 -132 -68 -7 10 -10 10 -18 -4 -8 -14 -16 -15 -35 -8 -47
18 -95 -18 -95 -69 0 -12 -4 -21 -10 -21 -5 0 -7 6 -4 14 10 25 -25 84 -57 95
-22 8 -29 16 -29 36 0 36 -59 95 -95 95 -17 0 -39 -12 -60 -33z m160 -277 c17
0 36 5 42 11 19 19 42 -41 29 -78 -15 -42 -20 -46 -77 -59 -49 -11 -49 -11
-50 15 0 14 -2 40 -4 56 -4 45 5 79 18 66 6 -6 25 -11 42 -11z"/>
</g>
</svg>
