<?xml version="1.0" standalone="no"?>
<!DOCTYPE svg PUBLIC "-//W3C//DTD SVG 20010904//EN"
 "http://www.w3.org/TR/2001/REC-SVG-20010904/DTD/svg10.dtd">
<svg version="1.0" xmlns="http://www.w3.org/2000/svg"
 width="96.000000pt" height="84.000000pt" viewBox="0 0 96.000000 84.000000"
 preserveAspectRatio="xMidYMid meet">
<metadata>
Created by potrace 1.16, written by Peter Selinger 2001-2019
</metadata>
<g transform="translate(0.000000,84.000000) scale(0.100000,-0.100000)"
fill="#000000" stroke="none">
<path d="M244 705 c-39 -42 -52 -92 -34 -136 16 -38 55 -69 89 -69 l26 -1 -25
-15 c-14 -9 -31 -31 -36 -50 -10 -31 -9 -34 9 -34 14 0 18 -5 15 -18 -3 -10 0
-54 7 -98 6 -43 11 -105 10 -136 -1 -31 2 -55 7 -52 4 3 8 -2 8 -10 0 -9 -4
-16 -8 -16 -13 0 -10 -59 3 -64 8 -3 11 27 10 110 l-1 114 30 0 31 0 -3 -115
-4 -115 80 0 81 0 -10 32 c-9 34 4 102 22 114 15 9 18 4 30 -60 11 -52 10 -58
-7 -71 -17 -13 -12 -14 48 -15 61 0 69 2 84 25 18 28 10 64 -26 114 -14 20
-20 44 -19 78 1 64 22 149 36 146 18 -4 61 53 74 97 9 31 9 43 -1 55 -15 18
-41 20 -58 3 -6 -6 -15 -9 -19 -5 -12 12 59 78 78 72 9 -3 28 0 43 6 21 10 24
15 13 27 -9 12 -9 16 0 19 7 2 9 11 6 19 -3 9 6 28 23 45 43 45 18 35 -60 -24
-128 -97 -133 -99 -141 -79 -6 15 -7 16 -15 1 -8 -13 -20 -15 -54 -12 -36 4
-48 1 -65 -16 -13 -13 -21 -32 -19 -44 1 -12 -2 -22 -6 -22 -5 0 -10 12 -12
28 -2 33 -18 53 -56 73 -20 10 -28 22 -28 40 0 16 -13 39 -34 60 -45 45 -78
45 -122 -1z m161 -278 c11 0 29 4 40 7 32 11 48 -35 29 -84 -13 -32 -21 -39
-52 -45 -20 -3 -44 -8 -53 -11 -14 -4 -17 6 -21 58 -6 75 -1 92 21 82 9 -4 25
-7 36 -7z m-88 -269 c-3 -8 -6 -5 -6 6 -1 11 2 17 5 13 3 -3 4 -12 1 -19z"/>
</g>
</svg>
