<?xml version="1.0" standalone="no"?>
<!DOCTYPE svg PUBLIC "-//W3C//DTD SVG 20010904//EN"
 "http://www.w3.org/TR/2001/REC-SVG-20010904/DTD/svg10.dtd">
<svg version="1.0" xmlns="http://www.w3.org/2000/svg"
 width="96.000000pt" height="84.000000pt" viewBox="0 0 96.000000 84.000000"
 preserveAspectRatio="xMidYMid meet">
<metadata>
Created by potrace 1.16, written by Peter Selinger 2001-2019
</metadata>
<g transform="translate(0.000000,84.000000) scale(0.100000,-0.100000)"
fill="#000000" stroke="none">
<path d="M284 730 c-31 -12 -72 -66 -79 -104 -12 -62 39 -126 100 -126 l30 0
-30 -20 c-16 -11 -33 -27 -37 -37 -11 -29 -9 -53 5 -50 6 1 12 -7 12 -18 0
-11 4 -25 8 -32 4 -7 8 -68 9 -137 1 -69 6 -123 10 -120 4 3 8 -2 8 -11 0 -9
-4 -14 -8 -11 -4 2 -8 -10 -8 -28 0 -18 5 -33 11 -33 8 0 11 36 11 111 l-1
111 30 3 30 3 -3 -116 -4 -115 81 0 80 0 -11 31 c-13 37 5 109 27 109 14 0 19
-12 30 -73 5 -31 2 -42 -12 -53 -16 -12 -10 -13 49 -14 61 0 69 2 84 25 18 28
13 52 -24 107 -22 34 -24 45 -18 99 7 76 26 140 38 133 22 -14 78 73 78 120 0
29 -29 49 -51 35 -35 -22 -41 -7 -8 27 22 23 40 33 53 30 15 -4 29 0 65 21 2
2 -2 9 -9 18 -9 11 -10 15 0 15 6 0 10 6 7 13 -2 6 6 27 20 45 13 17 21 32 17
32 -4 0 -39 -24 -78 -53 -109 -82 -127 -92 -137 -76 -7 11 -11 12 -17 1 -6 -9
-21 -11 -48 -6 -52 8 -87 -18 -87 -64 0 -18 -4 -32 -9 -32 -4 0 -8 13 -8 29 0
33 -24 66 -60 84 -15 8 -27 24 -31 45 -3 17 -12 39 -19 48 -12 13 -64 45 -72
43 -2 0 -12 -4 -24 -9z m92 -301 c6 -11 44 -8 74 5 10 4 19 -3 28 -22 10 -24
10 -35 -3 -65 -15 -36 -22 -41 -87 -51 l-36 -7 -4 58 c-2 32 -2 66 0 76 5 19
18 22 28 6z m-59 -271 c-3 -8 -6 -5 -6 6 -1 11 2 17 5 13 3 -3 4 -12 1 -19z"/>
</g>
</svg>
