<?xml version="1.0" standalone="no"?>
<!DOCTYPE svg PUBLIC "-//W3C//DTD SVG 20010904//EN"
 "http://www.w3.org/TR/2001/REC-SVG-20010904/DTD/svg10.dtd">
<svg version="1.0" xmlns="http://www.w3.org/2000/svg"
 width="96.000000pt" height="84.000000pt" viewBox="0 0 96.000000 84.000000"
 preserveAspectRatio="xMidYMid meet">
<metadata>
Created by potrace 1.16, written by Peter Selinger 2001-2019
</metadata>
<g transform="translate(0.000000,84.000000) scale(0.100000,-0.100000)"
fill="#000000" stroke="none">
<path d="M258 710 c-33 -25 -61 -95 -53 -130 9 -42 58 -83 97 -82 32 1 32 0
13 -14 -11 -9 -25 -18 -31 -22 -17 -10 -29 -73 -13 -70 19 4 28 -53 31 -189 2
-66 6 -119 11 -116 4 2 7 -3 7 -11 0 -9 -4 -16 -8 -16 -5 0 -9 -13 -9 -30 0
-17 5 -30 12 -30 7 0 11 34 10 106 0 58 2 107 5 108 3 2 16 6 30 9 l25 6 -4
-114 -3 -115 81 0 c78 0 81 1 71 19 -14 27 -13 57 5 91 26 51 38 39 50 -52 6
-40 4 -47 -12 -51 -10 -3 14 -5 54 -6 64 -1 74 2 83 20 13 24 2 64 -31 110
-18 26 -20 38 -14 87 11 94 26 144 41 138 17 -7 58 47 74 98 11 35 11 41 -6
53 -21 16 -40 17 -49 3 -4 -6 -11 -7 -17 -4 -15 10 53 75 73 69 9 -3 29 -1 44
5 22 8 25 13 16 24 -8 10 -9 16 -1 21 6 3 8 11 5 16 -4 5 6 25 22 46 35 45 16
37 -72 -32 -79 -61 -114 -80 -128 -66 -7 7 -14 6 -21 -5 -9 -12 -18 -13 -37
-6 -56 22 -109 -17 -96 -70 3 -11 0 -18 -9 -18 -9 0 -14 11 -14 29 0 33 -24
66 -60 84 -16 8 -27 24 -31 47 -15 69 -89 101 -141 60z m152 -290 c14 0 31 5
37 11 12 12 37 3 28 -11 -3 -4 1 -13 9 -19 12 -10 12 -18 -1 -51 -16 -41 -22
-44 -85 -55 -41 -8 -45 -2 -47 79 -1 55 6 73 22 57 6 -6 23 -11 37 -11z m-93
-272 c-3 -8 -6 -5 -6 6 -1 11 2 17 5 13 3 -3 4 -12 1 -19z"/>
</g>
</svg>
