<?xml version="1.0" standalone="no"?>
<!DOCTYPE svg PUBLIC "-//W3C//DTD SVG 20010904//EN"
 "http://www.w3.org/TR/2001/REC-SVG-20010904/DTD/svg10.dtd">
<svg version="1.0" xmlns="http://www.w3.org/2000/svg"
 width="96.000000pt" height="84.000000pt" viewBox="0 0 96.000000 84.000000"
 preserveAspectRatio="xMidYMid meet">
<metadata>
Created by potrace 1.16, written by Peter Selinger 2001-2019
</metadata>
<g transform="translate(0.000000,84.000000) scale(0.100000,-0.100000)"
fill="#000000" stroke="none">
<path d="M258 710 c-33 -26 -59 -91 -52 -129 11 -52 71 -98 111 -85 15 5 15 3
-2 -11 -11 -9 -25 -19 -31 -23 -17 -10 -29 -73 -13 -70 21 5 30 -61 32 -229 1
-90 5 -163 9 -163 4 0 9 12 10 28 5 79 4 112 -4 112 -4 0 -8 7 -8 15 0 8 5 15
11 15 7 0 10 12 7 27 -3 25 -1 28 27 28 l30 0 -4 -112 -3 -113 76 0 77 0 -7
36 c-9 46 22 120 41 100 7 -7 16 -38 20 -68 6 -50 5 -57 -11 -61 -11 -3 13 -5
53 -6 61 -1 74 2 82 17 13 24 4 57 -26 104 -23 34 -24 40 -14 111 12 88 29
137 40 119 6 -9 11 -8 23 5 28 32 60 101 56 125 -3 20 -8 23 -45 22 -24 0 -43
1 -43 3 0 14 68 62 84 59 19 -5 66 12 66 24 0 3 -5 11 -12 18 -9 9 -9 12 0 12
6 0 9 6 6 14 -3 7 7 27 21 45 39 45 20 38 -65 -25 -93 -69 -119 -82 -129 -65
-6 9 -10 9 -19 -2 -9 -10 -27 -13 -61 -9 -44 4 -51 2 -66 -22 -10 -14 -15 -35
-12 -46 3 -13 0 -20 -9 -20 -9 0 -14 11 -14 28 0 34 -24 70 -56 82 -15 6 -26
22 -34 49 -19 73 -90 103 -142 61z m150 -290 c13 0 32 4 42 10 15 8 21 5 34
-21 13 -27 14 -35 1 -64 -11 -27 -22 -36 -57 -45 -24 -6 -49 -13 -55 -15 -7
-2 -14 3 -14 13 -1 9 -3 40 -5 67 -5 61 2 83 18 67 7 -7 23 -12 36 -12z m-91
-352 c-3 -8 -6 -5 -6 6 -1 11 2 17 5 13 3 -3 4 -12 1 -19z"/>
</g>
</svg>
