<?xml version="1.0" standalone="no"?>
<!DOCTYPE svg PUBLIC "-//W3C//DTD SVG 20010904//EN"
 "http://www.w3.org/TR/2001/REC-SVG-20010904/DTD/svg10.dtd">
<svg version="1.0" xmlns="http://www.w3.org/2000/svg"
 width="96.000000pt" height="84.000000pt" viewBox="0 0 96.000000 84.000000"
 preserveAspectRatio="xMidYMid meet">
<metadata>
Created by potrace 1.16, written by Peter Selinger 2001-2019
</metadata>
<g transform="translate(0.000000,84.000000) scale(0.100000,-0.100000)"
fill="#000000" stroke="none">
<path d="M0 420 l0 -420 285 0 285 0 17 35 c16 34 16 36 -21 132 -47 125 -58
140 -105 153 -46 12 -81 54 -81 97 0 36 62 103 95 103 45 0 87 -80 67 -125 -9
-19 -8 -26 5 -37 9 -7 29 -33 44 -58 16 -25 29 -38 29 -30 0 9 11 32 25 52 14
20 25 50 25 65 0 16 5 34 11 40 6 6 8 25 4 45 -6 33 -9 35 -38 32 -29 -4 -35
1 -61 43 -17 27 -29 51 -28 55 1 3 -22 21 -51 39 -69 44 -187 148 -187 165 0
8 -7 14 -15 14 -8 0 -15 5 -15 10 0 6 -55 10 -145 10 l-145 0 0 -420z"/>
<path d="M938 833 c7 -3 16 -2 19 1 4 3 -2 6 -13 5 -11 0 -14 -3 -6 -6z"/>
<path d="M699 57 c-14 -13 -28 -31 -32 -40 -6 -15 1 -17 54 -17 l59 0 -20 40
c-11 22 -24 40 -28 40 -4 0 -19 -11 -33 -23z"/>
</g>
</svg>
