<?xml version="1.0" standalone="no"?>
<!DOCTYPE svg PUBLIC "-//W3C//DTD SVG 20010904//EN"
 "http://www.w3.org/TR/2001/REC-SVG-20010904/DTD/svg10.dtd">
<svg version="1.0" xmlns="http://www.w3.org/2000/svg"
 width="96.000000pt" height="84.000000pt" viewBox="0 0 96.000000 84.000000"
 preserveAspectRatio="xMidYMid meet">
<metadata>
Created by potrace 1.16, written by Peter Selinger 2001-2019
</metadata>
<g transform="translate(0.000000,84.000000) scale(0.100000,-0.100000)"
fill="#000000" stroke="none">
<path d="M284 730 c-27 -11 -60 -52 -74 -94 -20 -63 27 -136 89 -136 l36 0
-30 -20 c-31 -20 -43 -41 -44 -75 -1 -15 1 -17 8 -6 7 11 10 9 15 -7 4 -11 6
-24 5 -28 -1 -5 0 -16 4 -24 11 -30 21 -137 20 -238 0 -72 3 -102 11 -102 9 0
12 32 11 109 l-1 109 28 4 c27 4 28 3 23 -26 -6 -42 -8 -81 -7 -143 l2 -53 74
0 75 0 -6 35 c-6 35 21 115 37 115 10 0 33 -83 34 -121 1 -29 2 -29 59 -29
l57 0 0 38 c0 21 -11 54 -25 77 -26 42 -26 56 -3 178 8 41 15 57 24 53 18 -7
61 47 75 94 16 53 0 74 -50 66 l-36 -6 39 34 c21 18 46 31 55 29 9 -2 29 1 45
7 21 8 26 13 18 23 -16 19 -9 45 23 85 l29 36 -31 -19 c-17 -11 -66 -44 -108
-73 -58 -39 -81 -50 -90 -42 -9 8 -15 8 -20 0 -4 -7 -24 -8 -55 -4 -41 5 -51
3 -69 -15 -13 -13 -21 -32 -19 -44 5 -38 -16 -34 -23 5 -6 42 -24 66 -54 78
-13 5 -26 24 -33 47 -19 63 -73 101 -118 83z m91 -300 c8 -13 51 -13 75 0 15
8 21 5 34 -22 15 -29 15 -34 -1 -67 -16 -32 -24 -37 -67 -44 -60 -10 -64 -5
-65 80 0 58 9 78 24 53z m-48 -282 c-3 -8 -6 -5 -6 6 -1 11 2 17 5 13 3 -3 4
-12 1 -19z m0 -80 c-3 -8 -6 -5 -6 6 -1 11 2 17 5 13 3 -3 4 -12 1 -19z"/>
</g>
</svg>
