<?xml version="1.0" standalone="no"?>
<!DOCTYPE svg PUBLIC "-//W3C//DTD SVG 20010904//EN"
 "http://www.w3.org/TR/2001/REC-SVG-20010904/DTD/svg10.dtd">
<svg version="1.0" xmlns="http://www.w3.org/2000/svg"
 width="96.000000pt" height="84.000000pt" viewBox="0 0 96.000000 84.000000"
 preserveAspectRatio="xMidYMid meet">
<metadata>
Created by potrace 1.16, written by Peter Selinger 2001-2019
</metadata>
<g transform="translate(0.000000,84.000000) scale(0.100000,-0.100000)"
fill="#000000" stroke="none">
<path d="M290 733 c-31 -11 -71 -58 -80 -95 -19 -69 29 -138 95 -138 l30 0
-29 -19 c-32 -21 -61 -77 -45 -86 5 -4 9 2 9 11 0 27 12 8 15 -23 1 -15 5 -35
8 -43 3 -8 8 -49 11 -90 3 -41 10 -76 16 -78 5 -2 10 -10 10 -18 0 -9 -4 -13
-8 -10 -5 3 -8 -28 -8 -69 1 -48 5 -75 12 -75 8 0 11 34 9 109 l-3 109 29 4
c28 4 29 4 23 -36 -3 -23 -8 -47 -10 -55 -3 -8 -2 -41 2 -73 l7 -58 73 0 73 0
-6 33 c-5 35 19 107 36 107 13 0 45 -106 37 -126 -4 -11 6 -14 54 -14 l60 0 0
33 c0 17 -10 48 -22 67 -15 26 -21 50 -20 90 2 64 22 160 34 160 4 0 8 -5 8
-11 0 -19 20 2 50 54 16 29 30 62 30 74 0 28 -33 47 -59 34 -35 -19 -31 2 7
34 24 22 42 30 52 25 18 -9 78 14 62 24 -18 11 -6 55 23 86 41 43 17 37 -51
-13 -102 -74 -133 -90 -148 -78 -10 9 -16 9 -21 1 -4 -6 -24 -8 -53 -4 -57 7
-83 -9 -86 -52 -4 -43 -20 -45 -27 -2 -6 42 -24 66 -54 78 -13 5 -26 24 -33
47 -18 59 -72 100 -112 86z m86 -304 c6 -10 53 -9 79 2 6 2 11 0 13 -6 2 -5 9
-19 16 -30 12 -17 11 -26 -3 -55 -14 -29 -24 -35 -68 -45 -62 -14 -61 -14 -62
83 -1 58 9 77 25 51z m-49 -361 c-3 -8 -6 -5 -6 6 -1 11 2 17 5 13 3 -3 4 -12
1 -19z"/>
</g>
</svg>
