<?xml version="1.0" standalone="no"?>
<!DOCTYPE svg PUBLIC "-//W3C//DTD SVG 20010904//EN"
 "http://www.w3.org/TR/2001/REC-SVG-20010904/DTD/svg10.dtd">
<svg version="1.0" xmlns="http://www.w3.org/2000/svg"
 width="96.000000pt" height="84.000000pt" viewBox="0 0 96.000000 84.000000"
 preserveAspectRatio="xMidYMid meet">
<metadata>
Created by potrace 1.16, written by Peter Selinger 2001-2019
</metadata>
<g transform="translate(0.000000,84.000000) scale(0.100000,-0.100000)"
fill="#000000" stroke="none">
<path d="M268 734 c-39 -21 -72 -88 -64 -132 7 -47 51 -92 90 -92 32 -1 31 -3
-17 -35 -9 -5 -18 -24 -22 -41 -5 -27 -3 -32 12 -30 13 1 18 -6 18 -24 0 -14
4 -30 8 -37 6 -10 16 -189 17 -319 0 -11 7 -21 15 -21 16 0 9 57 -9 70 -8 5
-8 9 0 15 13 8 15 74 2 66 -4 -3 -8 2 -8 10 0 9 4 16 10 16 5 0 9 10 7 23 -2
19 3 22 35 25 37 3 38 3 28 -23 -6 -14 -10 -67 -10 -116 l0 -89 76 0 76 0 -7
31 c-7 31 19 109 36 109 9 0 25 -48 35 -102 l6 -38 54 0 c51 0 54 1 54 25 0
14 -11 48 -25 75 -24 47 -24 53 -14 126 12 90 27 134 38 116 17 -28 84 80 79
126 -3 24 -7 27 -40 26 -21 -1 -38 2 -38 6 0 14 70 61 81 55 5 -4 24 -1 40 5
22 10 27 16 19 25 -8 9 -8 15 0 20 6 3 8 11 4 17 -3 5 6 23 22 39 43 45 25 42
-46 -7 -100 -69 -141 -89 -151 -72 -8 11 -10 11 -18 0 -6 -10 -21 -12 -54 -7
-41 6 -49 4 -72 -19 -20 -20 -25 -33 -21 -50 4 -18 1 -25 -14 -29 -17 -4 -19
-1 -14 37 5 33 2 47 -16 69 -12 15 -30 27 -41 27 -12 0 -21 9 -25 28 -10 51
-24 72 -56 92 -39 24 -44 24 -80 4z m146 -304 c14 0 27 4 31 10 9 14 35 0 35
-19 0 -9 4 -21 10 -27 6 -6 2 -25 -10 -52 -18 -39 -22 -42 -60 -43 -22 -1 -46
-2 -52 -3 -9 -1 -15 20 -20 59 -9 77 -3 98 22 85 10 -6 30 -10 44 -10z"/>
</g>
</svg>
