<?xml version="1.0" standalone="no"?>
<!DOCTYPE svg PUBLIC "-//W3C//DTD SVG 20010904//EN"
 "http://www.w3.org/TR/2001/REC-SVG-20010904/DTD/svg10.dtd">
<svg version="1.0" xmlns="http://www.w3.org/2000/svg"
 width="96.000000pt" height="84.000000pt" viewBox="0 0 96.000000 84.000000"
 preserveAspectRatio="xMidYMid meet">
<metadata>
Created by potrace 1.16, written by Peter Selinger 2001-2019
</metadata>
<g transform="translate(0.000000,84.000000) scale(0.100000,-0.100000)"
fill="#000000" stroke="none">
<path d="M245 748 c-34 -31 -55 -92 -44 -132 11 -38 61 -86 92 -86 l22 -1 -24
-13 c-26 -15 -64 -88 -43 -85 22 4 30 -4 35 -33 18 -113 23 -176 22 -280 -2
-93 1 -118 11 -118 8 0 14 5 14 11 0 5 -5 7 -10 4 -6 -3 -10 1 -10 10 0 9 4
14 9 10 14 -8 10 58 -3 68 -7 4 -8 10 -1 15 13 9 16 62 4 62 -5 0 -9 7 -9 16
0 8 4 13 9 9 6 -3 9 6 8 19 -1 14 1 25 6 25 4 1 25 1 47 1 l40 0 -17 -27 c-13
-19 -19 -53 -21 -125 l-4 -98 76 0 76 0 0 43 c1 37 29 113 30 78 0 -8 3 -11 8
-7 4 4 12 -18 17 -51 l10 -58 58 -3 c52 -3 57 -1 57 18 0 11 -11 43 -25 70
-24 47 -25 54 -15 118 15 94 28 132 45 126 17 -7 71 66 81 108 8 40 -16 61
-61 53 l-30 -6 40 34 c22 19 44 33 48 30 5 -3 24 -2 43 1 28 6 33 10 25 24
-11 21 0 49 29 80 38 40 16 34 -63 -17 -42 -28 -90 -57 -107 -66 -27 -14 -30
-14 -30 0 0 18 -9 19 -33 0 -15 -10 -25 -11 -43 -3 -17 8 -31 7 -54 -2 -24
-10 -31 -20 -36 -51 -4 -22 -10 -39 -15 -39 -14 0 -30 -72 -19 -85 7 -8 6 -23
-3 -44 -13 -30 -18 -33 -70 -37 -61 -4 -63 -2 -72 65 -2 17 -6 38 -9 48 -9 30
8 47 34 33 13 -7 32 -9 48 -4 15 4 36 8 47 8 18 1 20 7 16 61 -4 71 -12 90
-50 109 -19 10 -30 26 -35 46 -3 17 -19 45 -35 61 -36 36 -79 38 -116 7z"/>
</g>
</svg>
