<?xml version="1.0" standalone="no"?>
<!DOCTYPE svg PUBLIC "-//W3C//DTD SVG 20010904//EN"
 "http://www.w3.org/TR/2001/REC-SVG-20010904/DTD/svg10.dtd">
<svg version="1.0" xmlns="http://www.w3.org/2000/svg"
 width="96.000000pt" height="84.000000pt" viewBox="0 0 96.000000 84.000000"
 preserveAspectRatio="xMidYMid meet">
<metadata>
Created by potrace 1.16, written by Peter Selinger 2001-2019
</metadata>
<g transform="translate(0.000000,84.000000) scale(0.100000,-0.100000)"
fill="#000000" stroke="none">
<path d="M258 795 c-14 -8 -36 -35 -48 -61 -20 -40 -21 -51 -11 -84 13 -45 52
-80 90 -81 l26 -1 -28 -12 c-15 -7 -35 -25 -43 -41 -13 -25 -13 -29 5 -41 20
-14 29 -55 37 -169 3 -38 9 -99 14 -135 5 -36 10 -89 10 -117 0 -38 4 -53 13
-53 16 0 15 71 -3 211 -7 50 -10 93 -7 96 3 2 16 -2 29 -10 12 -8 40 -18 61
-21 l38 -7 -22 -37 c-18 -30 -23 -56 -27 -134 l-4 -98 76 0 76 0 0 44 c0 29 6
51 17 62 17 16 18 16 24 -7 4 -13 7 -41 8 -61 l1 -38 60 0 60 0 -6 28 c-4 15
-13 40 -22 56 -26 53 6 244 41 238 20 -3 73 67 82 109 9 39 -10 62 -47 57 -15
-3 -28 -1 -28 3 0 18 66 53 102 54 45 1 55 9 38 30 -10 12 -10 15 0 15 7 0 10
7 7 15 -4 8 6 24 23 39 65 54 25 38 -105 -42 -70 -43 -91 -48 -98 -22 l-6 21
-20 -20 c-15 -15 -26 -18 -42 -12 -49 18 -99 -16 -99 -66 0 -13 -4 -23 -9 -23
-17 0 -34 -69 -22 -84 9 -10 8 -21 0 -40 -12 -25 -15 -26 -63 -20 -28 3 -56 7
-62 9 -12 4 -49 122 -45 145 4 23 7 23 36 4 21 -14 30 -15 52 -5 14 6 33 9 43
6 15 -5 17 2 16 57 -2 73 -16 105 -51 114 -16 4 -25 13 -25 25 0 38 -29 88
-59 103 -36 19 -48 19 -83 1z"/>
</g>
</svg>
