<?xml version="1.0" standalone="no"?>
<!DOCTYPE svg PUBLIC "-//W3C//DTD SVG 20010904//EN"
 "http://www.w3.org/TR/2001/REC-SVG-20010904/DTD/svg10.dtd">
<svg version="1.0" xmlns="http://www.w3.org/2000/svg"
 width="96.000000pt" height="84.000000pt" viewBox="0 0 96.000000 84.000000"
 preserveAspectRatio="xMidYMid meet">
<metadata>
Created by potrace 1.16, written by Peter Selinger 2001-2019
</metadata>
<g transform="translate(0.000000,84.000000) scale(0.100000,-0.100000)"
fill="#000000" stroke="none">
<path d="M270 803 c-86 -59 -84 -174 4 -213 40 -19 40 -19 13 -25 -16 -4 -33
-19 -42 -38 -19 -38 -19 -43 1 -27 8 8 14 9 12 4 -1 -5 3 -19 10 -30 6 -12 11
-35 10 -50 -6 -174 12 -391 32 -379 4 2 5 -6 3 -19 -3 -16 0 -23 12 -23 9 0
14 6 11 14 -3 7 -8 35 -12 63 -4 27 -9 48 -13 46 -3 -2 -8 53 -9 122 l-4 127
24 -35 c18 -26 36 -38 73 -48 28 -8 51 -16 53 -17 2 -2 -8 -25 -22 -51 -22
-42 -26 -62 -26 -136 l0 -88 75 0 75 0 0 39 c0 22 3 46 6 55 10 25 34 19 34
-8 0 -13 3 -38 6 -55 6 -30 9 -31 55 -31 55 0 58 6 33 68 -13 35 -14 48 0 123
17 100 34 149 45 131 15 -25 91 81 91 127 0 25 -33 44 -60 36 -11 -4 -20 -3
-20 2 0 12 61 48 85 49 69 4 66 2 62 39 -4 30 1 40 26 61 51 43 24 36 -74 -20
-117 -67 -139 -75 -132 -46 6 23 -4 25 -30 6 -11 -9 -33 -12 -61 -9 -37 5 -46
2 -60 -18 -9 -13 -16 -34 -16 -46 0 -13 -4 -23 -9 -23 -17 0 -34 -69 -21 -85
8 -10 8 -19 0 -34 -10 -19 -17 -20 -68 -15 -63 7 -77 18 -94 79 -6 22 -15 44
-19 49 -5 5 -3 18 2 28 10 18 12 18 28 4 11 -10 33 -15 67 -13 l51 2 1 65 c1
68 -7 88 -45 109 -15 7 -23 21 -23 37 0 53 -50 114 -95 114 -11 0 -32 -8 -45
-17z"/>
</g>
</svg>
