<?xml version="1.0" standalone="no"?>
<!DOCTYPE svg PUBLIC "-//W3C//DTD SVG 20010904//EN"
 "http://www.w3.org/TR/2001/REC-SVG-20010904/DTD/svg10.dtd">
<svg version="1.0" xmlns="http://www.w3.org/2000/svg"
 width="96.000000pt" height="84.000000pt" viewBox="0 0 96.000000 84.000000"
 preserveAspectRatio="xMidYMid meet">
<metadata>
Created by potrace 1.16, written by Peter Selinger 2001-2019
</metadata>
<g transform="translate(0.000000,84.000000) scale(0.100000,-0.100000)"
fill="#000000" stroke="none">
<path d="M273 818 c-28 -31 -43 -62 -43 -88 0 -38 32 -92 62 -104 29 -12 28
-26 -1 -26 -9 0 -22 -14 -30 -31 -12 -27 -11 -32 5 -44 16 -11 18 -24 15 -87
-2 -40 -4 -92 -5 -115 -1 -24 -4 -43 -8 -43 -12 0 -8 -158 5 -219 8 -36 17
-55 28 -56 14 -2 14 3 2 49 -15 57 -23 277 -9 269 4 -3 7 15 5 39 -5 52 8 54
31 5 12 -25 28 -37 77 -56 l61 -23 -29 -53 c-26 -48 -29 -62 -29 -144 l0 -91
75 0 75 0 0 43 c0 23 4 49 10 57 7 11 11 8 20 -15 6 -17 14 -42 17 -57 5 -24
10 -28 42 -28 l36 0 1 107 c1 130 26 238 48 207 13 -17 16 -14 47 30 59 83 56
130 -10 138 l-26 3 35 21 c19 12 52 25 73 28 32 6 37 10 32 27 -5 14 3 28 27
51 33 31 33 31 7 25 -15 -4 -53 -22 -86 -40 -69 -39 -123 -60 -123 -47 0 5 5
12 10 15 10 6 14 45 6 45 -3 0 -16 -11 -30 -24 -22 -19 -33 -22 -74 -18 -44 4
-50 2 -66 -22 -10 -16 -14 -35 -11 -46 4 -14 2 -20 -9 -20 -23 0 -40 -64 -24
-89 21 -35 -2 -47 -52 -27 -22 9 -48 16 -58 16 -14 0 -24 18 -41 70 -13 38
-20 77 -17 86 6 15 8 15 27 -2 13 -12 37 -18 69 -19 47 -1 50 0 50 24 0 14 3
45 6 69 6 38 3 45 -26 72 -23 22 -34 41 -36 68 -6 59 -32 86 -90 90 -41 2 -53
-1 -71 -20z"/>
</g>
</svg>
