<?xml version="1.0" standalone="no"?>
<!DOCTYPE svg PUBLIC "-//W3C//DTD SVG 20010904//EN"
 "http://www.w3.org/TR/2001/REC-SVG-20010904/DTD/svg10.dtd">
<svg version="1.0" xmlns="http://www.w3.org/2000/svg"
 width="96.000000pt" height="84.000000pt" viewBox="0 0 96.000000 84.000000"
 preserveAspectRatio="xMidYMid meet">
<metadata>
Created by potrace 1.16, written by Peter Selinger 2001-2019
</metadata>
<g transform="translate(0.000000,84.000000) scale(0.100000,-0.100000)"
fill="#000000" stroke="none">
<path d="M264 815 c-12 -46 4 -92 44 -125 l37 -30 -28 0 c-15 0 -27 -5 -27
-12 0 -6 -8 -20 -17 -31 -17 -19 -17 -20 0 -14 11 4 16 3 12 -3 -3 -5 -1 -19
5 -30 11 -20 19 -150 10 -150 -10 0 -32 -139 -24 -151 4 -7 3 -9 -3 -6 -15 9
-33 -100 -33 -191 0 -55 3 -72 14 -72 11 0 14 19 14 83 0 45 8 118 18 162 10
44 18 95 18 113 1 17 4 32 9 32 4 0 7 12 7 28 l0 27 19 -32 c11 -17 47 -50 80
-72 l60 -41 -24 -36 c-42 -61 -52 -120 -39 -218 l7 -46 74 0 75 0 -6 26 c-4
14 -4 35 0 47 6 18 9 15 24 -23 17 -44 19 -45 65 -46 l47 -1 -8 91 c-12 143
-5 217 20 197 15 -12 41 12 75 69 27 45 26 65 -3 95 l-24 24 24 15 c13 9 40
16 61 16 29 0 34 3 25 12 -9 9 -7 17 10 35 19 20 19 23 4 23 -25 0 -115 -31
-122 -41 -3 -5 -14 -9 -25 -9 -16 0 -19 4 -14 23 4 12 17 32 28 45 32 35 8 48
-28 14 -41 -38 -68 -50 -91 -41 -47 17 -115 -28 -100 -67 3 -8 0 -14 -7 -14
-7 0 -19 -16 -26 -35 -11 -31 -10 -39 4 -61 9 -14 14 -28 11 -31 -2 -3 -32 12
-65 32 -64 40 -59 31 -96 165 -3 8 0 22 5 30 8 12 13 11 34 -9 14 -13 34 -21
48 -20 12 2 29 0 36 -5 18 -11 24 -2 29 36 11 90 8 110 -19 132 -21 16 -27 32
-30 66 l-3 45 -92 3 c-92 3 -92 3 -99 -23z"/>
</g>
</svg>
