<?xml version="1.0" standalone="no"?>
<!DOCTYPE svg PUBLIC "-//W3C//DTD SVG 20010904//EN"
 "http://www.w3.org/TR/2001/REC-SVG-20010904/DTD/svg10.dtd">
<svg version="1.0" xmlns="http://www.w3.org/2000/svg"
 width="96.000000pt" height="84.000000pt" viewBox="0 0 96.000000 84.000000"
 preserveAspectRatio="xMidYMid meet">
<metadata>
Created by potrace 1.16, written by Peter Selinger 2001-2019
</metadata>
<g transform="translate(0.000000,84.000000) scale(0.100000,-0.100000)"
fill="#000000" stroke="none">
<path d="M287 833 c-26 -25 13 -126 56 -143 14 -5 17 -9 7 -11 -8 -1 -20 -2
-27 -3 -6 0 -20 -13 -32 -27 -17 -22 -18 -29 -7 -38 34 -28 39 -197 12 -346
-7 -37 -56 -178 -66 -190 -12 -14 -20 -75 -10 -75 9 0 29 39 34 67 3 12 12 33
22 48 9 14 14 28 10 32 -3 4 0 16 8 27 18 28 38 127 39 197 l1 35 68 -54 c60
-48 67 -57 55 -71 -30 -36 -47 -123 -40 -201 l8 -75 133 -2 c119 -2 132 -1
133 15 0 14 2 14 9 -3 8 -19 9 -19 9 3 1 12 -9 69 -20 127 l-22 105 26 20 c48
38 70 86 63 135 -6 38 -4 45 13 55 14 7 27 7 39 1 14 -7 17 -4 19 20 3 38 -31
48 -87 25 -47 -18 -49 -12 -15 34 14 19 25 39 25 45 0 5 9 16 20 23 20 12 28
52 10 52 -5 0 -10 -4 -10 -9 0 -4 -19 -21 -42 -37 -24 -15 -50 -36 -58 -47
-14 -16 -19 -17 -43 -4 -15 8 -38 12 -52 9 -29 -5 -68 -49 -61 -69 3 -7 0 -13
-7 -13 -7 0 -19 -16 -25 -35 -11 -29 -11 -38 4 -60 9 -14 15 -28 12 -30 -2 -2
-29 14 -60 35 -57 41 -63 54 -73 151 -1 9 -5 21 -8 27 -4 5 0 15 7 22 12 9 19
7 35 -9 12 -12 34 -21 51 -21 17 0 30 -5 30 -11 0 -19 25 -3 26 17 0 10 6 32
13 48 14 36 7 78 -20 102 -14 12 -19 30 -19 66 l0 48 -93 0 c-52 0 -97 -3
-100 -7z"/>
</g>
</svg>
