<?xml version="1.0" standalone="no"?>
<!DOCTYPE svg PUBLIC "-//W3C//DTD SVG 20010904//EN"
 "http://www.w3.org/TR/2001/REC-SVG-20010904/DTD/svg10.dtd">
<svg version="1.0" xmlns="http://www.w3.org/2000/svg"
 width="96.000000pt" height="84.000000pt" viewBox="0 0 96.000000 84.000000"
 preserveAspectRatio="xMidYMid meet">
<metadata>
Created by potrace 1.16, written by Peter Selinger 2001-2019
</metadata>
<g transform="translate(0.000000,84.000000) scale(0.100000,-0.100000)"
fill="#000000" stroke="none">
<path d="M293 793 c4 -36 12 -54 36 -75 36 -32 39 -42 12 -35 -24 6 -65 -45
-49 -61 12 -12 21 -84 22 -178 0 -54 3 -71 13 -67 7 3 13 0 13 -6 0 -6 -4 -11
-10 -11 -15 0 -12 -57 3 -63 8 -4 9 -8 1 -14 -10 -7 -35 -113 -36 -153 0 -8
-6 -22 -13 -30 -7 -8 -15 -24 -19 -36 -3 -11 -23 -30 -44 -42 -36 -21 -36 -22
-10 -22 14 0 29 6 31 13 4 9 6 9 6 -1 1 -19 21 -4 21 15 0 9 7 21 15 27 8 6
17 22 20 35 2 14 9 27 14 30 12 8 29 161 25 235 -2 56 -2 57 15 40 10 -11 34
-33 54 -51 l37 -32 -36 -74 c-48 -101 -52 -134 -23 -191 l23 -47 143 2 c128 1
143 3 139 17 -2 10 -12 63 -22 119 l-17 102 42 47 c39 44 42 52 40 97 -2 39 1
51 16 59 13 8 23 8 36 0 14 -9 18 -7 22 14 6 33 -15 47 -68 42 -25 -2 -45 -1
-45 2 0 4 11 21 25 40 14 19 25 39 25 46 0 7 9 15 19 19 20 6 38 41 28 52 -6
6 -90 -53 -124 -87 -17 -17 -25 -19 -42 -11 -51 28 -121 -1 -121 -51 0 -10 -4
-18 -8 -18 -5 0 -16 -15 -24 -34 -15 -30 -15 -36 -1 -55 22 -33 7 -38 -25 -9
-15 14 -36 30 -48 36 -17 9 -23 26 -32 89 -13 93 -4 114 33 77 13 -13 35 -24
48 -24 12 0 28 -5 35 -12 9 -9 12 -8 15 3 2 8 9 30 16 50 17 53 14 84 -12 116
-19 22 -23 37 -19 71 l4 42 -102 0 -103 0 6 -47z"/>
</g>
</svg>
