<?xml version="1.0" standalone="no"?>
<!DOCTYPE svg PUBLIC "-//W3C//DTD SVG 20010904//EN"
 "http://www.w3.org/TR/2001/REC-SVG-20010904/DTD/svg10.dtd">
<svg version="1.0" xmlns="http://www.w3.org/2000/svg"
 width="96.000000pt" height="84.000000pt" viewBox="0 0 96.000000 84.000000"
 preserveAspectRatio="xMidYMid meet">
<metadata>
Created by potrace 1.16, written by Peter Selinger 2001-2019
</metadata>
<g transform="translate(0.000000,84.000000) scale(0.100000,-0.100000)"
fill="#000000" stroke="none">
<path d="M0 420 l0 -420 288 0 288 0 -28 116 c-37 148 -48 170 -92 178 -44 8
-86 56 -86 99 0 39 36 93 73 108 24 10 32 9 55 -8 36 -26 56 -84 40 -118 -9
-20 -8 -28 4 -42 9 -10 25 -37 37 -61 l22 -43 30 40 c16 23 29 52 29 66 0 14
7 36 16 49 10 16 12 26 5 31 -6 3 -11 15 -11 27 0 17 -4 19 -32 14 -29 -5 -35
-2 -56 29 -12 19 -22 39 -22 45 0 5 -4 10 -10 10 -5 0 -10 9 -10 19 0 12 -19
31 -49 50 -27 17 -62 44 -79 59 -17 15 -45 38 -62 51 -17 13 -36 34 -41 47 -4
13 -15 24 -22 24 -8 0 -19 11 -25 25 -11 25 -13 25 -137 25 l-125 0 0 -420z"/>
<path d="M930 810 c0 -11 7 -20 15 -20 8 0 15 9 15 20 0 11 -7 20 -15 20 -8 0
-15 -9 -15 -20z"/>
<path d="M690 15 c-11 -13 -9 -15 15 -15 16 0 25 5 23 12 -7 19 -24 20 -38 3z"/>
</g>
</svg>
