<?xml version="1.0" standalone="no"?>
<!DOCTYPE svg PUBLIC "-//W3C//DTD SVG 20010904//EN"
 "http://www.w3.org/TR/2001/REC-SVG-20010904/DTD/svg10.dtd">
<svg version="1.0" xmlns="http://www.w3.org/2000/svg"
 width="96.000000pt" height="84.000000pt" viewBox="0 0 96.000000 84.000000"
 preserveAspectRatio="xMidYMid meet">
<metadata>
Created by potrace 1.16, written by Peter Selinger 2001-2019
</metadata>
<g transform="translate(0.000000,84.000000) scale(0.100000,-0.100000)"
fill="#000000" stroke="none">
<path d="M293 824 c-10 -27 16 -91 48 -118 l31 -26 -29 0 c-33 -1 -74 -47 -53
-60 14 -9 20 -61 24 -230 2 -69 7 -164 10 -211 7 -82 6 -88 -18 -124 -14 -21
-26 -42 -26 -46 0 -5 18 -9 39 -9 33 0 38 3 34 18 -2 10 7 29 21 45 14 16 26
32 26 38 0 5 5 9 10 9 6 0 10 -15 10 -32 0 -79 0 -78 126 -78 l113 0 -2 119
-2 118 43 47 c41 44 43 50 41 98 -2 40 1 52 16 60 12 7 23 8 35 1 13 -9 16 -6
18 18 2 23 -3 30 -23 35 -15 4 -42 4 -61 1 l-35 -6 31 42 c16 22 30 47 30 53
0 7 9 15 19 19 20 6 38 41 27 52 -2 3 -25 -11 -49 -31 -24 -20 -49 -36 -54
-36 -6 0 -17 -10 -25 -21 -12 -18 -17 -20 -35 -10 -58 31 -133 -6 -124 -61 0
-5 -3 -8 -9 -8 -5 0 -16 -15 -24 -32 -11 -28 -11 -37 1 -62 8 -15 11 -27 6
-25 -24 11 -103 74 -103 83 0 6 -5 40 -10 76 -11 79 1 104 32 65 13 -17 29
-25 49 -25 16 0 29 -4 29 -10 0 -5 7 -10 16 -10 11 0 15 6 12 18 -3 10 1 27 8
37 22 30 18 91 -8 117 -17 17 -21 32 -19 70 l2 48 -96 0 c-78 0 -97 -3 -102
-16z m143 -520 c-3 -7 -22 -36 -43 -64 l-38 -51 -8 32 c-5 18 -6 40 -4 50 3
12 0 16 -9 12 -8 -3 -14 0 -14 6 0 6 4 11 9 11 5 0 9 24 8 54 l-2 53 53 -45
c30 -25 51 -51 48 -58z m-99 -106 c-3 -8 -6 -5 -6 6 -1 11 2 17 5 13 3 -3 4
-12 1 -19z"/>
</g>
</svg>
