<?xml version="1.0" standalone="no"?>
<!DOCTYPE svg PUBLIC "-//W3C//DTD SVG 20010904//EN"
 "http://www.w3.org/TR/2001/REC-SVG-20010904/DTD/svg10.dtd">
<svg version="1.0" xmlns="http://www.w3.org/2000/svg"
 width="96.000000pt" height="84.000000pt" viewBox="0 0 96.000000 84.000000"
 preserveAspectRatio="xMidYMid meet">
<metadata>
Created by potrace 1.16, written by Peter Selinger 2001-2019
</metadata>
<g transform="translate(0.000000,84.000000) scale(0.100000,-0.100000)"
fill="#000000" stroke="none">
<path d="M297 820 c-11 -41 18 -105 58 -128 19 -11 19 -11 -6 -12 -32 0 -74
-51 -56 -69 13 -13 18 -56 17 -164 0 -51 3 -76 10 -72 5 3 10 -1 10 -10 0 -9
-4 -13 -10 -10 -6 4 -10 -8 -10 -30 0 -22 4 -34 10 -30 6 3 10 -1 10 -9 0 -9
-5 -16 -11 -16 -8 0 -9 -31 -4 -104 7 -98 6 -107 -15 -135 -16 -24 -18 -31 -7
-31 8 0 18 10 21 23 l7 22 11 -22 c16 -34 42 -30 35 5 -4 21 1 32 24 50 l29
24 0 -35 c0 -66 2 -67 114 -67 l103 0 1 52 c0 29 4 83 7 121 6 56 11 70 33 88
46 36 63 70 60 123 -1 38 2 50 17 58 13 8 23 8 35 0 15 -9 17 -6 16 21 l-1 32
-56 0 c-53 0 -56 1 -45 19 6 11 19 28 29 38 9 10 17 24 17 32 0 8 9 17 19 21
16 5 37 55 24 55 -3 0 -24 -16 -47 -35 -24 -19 -48 -35 -53 -35 -6 0 -17 -10
-26 -22 -13 -20 -18 -21 -36 -10 -11 6 -36 12 -55 12 -27 0 -39 -7 -56 -30
-12 -16 -18 -34 -15 -40 3 -5 0 -10 -8 -10 -7 0 -19 -17 -25 -37 -9 -30 -9
-42 3 -60 24 -36 18 -35 -37 4 -29 20 -54 38 -56 39 -1 1 -7 37 -12 80 -10 90
0 108 37 68 12 -13 33 -24 47 -24 14 0 28 -5 31 -10 9 -14 27 -1 21 15 -2 7 2
21 9 32 22 28 19 96 -6 119 -14 13 -20 29 -18 54 4 73 9 70 -95 70 -86 0 -94
-2 -99 -20z m117 -486 l39 -30 -54 -77 c-29 -42 -54 -75 -56 -73 -3 2 -6 61
-8 130 l-3 127 21 -23 c12 -13 40 -37 61 -54z m-87 -146 c-3 -8 -6 -5 -6 6 -1
11 2 17 5 13 3 -3 4 -12 1 -19z m33 -158 c0 -5 -4 -10 -10 -10 -5 0 -10 5 -10
10 0 6 5 10 10 10 6 0 10 -4 10 -10z"/>
</g>
</svg>
