<?xml version="1.0" standalone="no"?>
<!DOCTYPE svg PUBLIC "-//W3C//DTD SVG 20010904//EN"
 "http://www.w3.org/TR/2001/REC-SVG-20010904/DTD/svg10.dtd">
<svg version="1.0" xmlns="http://www.w3.org/2000/svg"
 width="96.000000pt" height="84.000000pt" viewBox="0 0 96.000000 84.000000"
 preserveAspectRatio="xMidYMid meet">
<metadata>
Created by potrace 1.16, written by Peter Selinger 2001-2019
</metadata>
<g transform="translate(0.000000,84.000000) scale(0.100000,-0.100000)"
fill="#000000" stroke="none">
<path d="M307 833 c-11 -10 -8 -72 4 -96 6 -12 23 -32 37 -44 l27 -23 -28 0
c-18 0 -36 -9 -47 -22 -15 -19 -16 -25 -5 -43 11 -17 16 -57 17 -125 0 -8 -3
-96 -5 -196 -3 -100 -2 -205 3 -235 4 -30 8 -46 9 -36 0 10 6 15 11 12 6 -4 8
-11 5 -16 -10 -15 24 -10 51 8 25 16 27 16 36 0 7 -14 26 -17 111 -17 l102 0
1 80 c3 123 11 165 37 179 12 6 33 27 46 46 19 28 23 44 18 80 -4 38 -1 47 14
56 12 6 25 6 37 0 15 -8 18 -5 20 20 2 23 -2 30 -23 35 -15 4 -41 4 -60 1 -33
-5 -34 -5 -22 15 7 12 20 30 30 40 9 10 17 24 17 32 0 8 9 18 20 21 13 4 20
15 20 31 l0 25 -44 -35 c-23 -20 -48 -36 -53 -36 -6 0 -17 -10 -25 -22 -14
-20 -18 -21 -42 -10 -45 20 -82 15 -106 -15 -11 -15 -18 -33 -16 -40 3 -7 0
-13 -7 -13 -7 0 -19 -16 -26 -35 -11 -31 -10 -39 4 -61 25 -39 12 -39 -38 -1
-25 19 -50 37 -56 38 -11 5 -18 149 -7 167 6 9 13 6 28 -13 12 -16 29 -25 48
-25 16 0 30 -7 34 -16 8 -21 26 -8 26 20 0 12 5 27 11 33 19 19 14 81 -9 113
-16 21 -21 37 -16 55 3 14 3 36 0 50 -6 24 -9 25 -95 25 -48 0 -91 -3 -94 -7z
m120 -512 c30 -20 31 -23 18 -49 -36 -70 -68 -152 -80 -207 -12 -58 -13 -59
-24 -32 -6 16 -11 37 -11 48 0 11 -4 17 -10 14 -5 -3 -10 1 -10 10 0 9 4 14 8
11 13 -8 11 228 -2 237 -8 6 -7 10 2 14 6 2 12 12 12 21 0 12 8 8 33 -14 17
-17 46 -41 64 -53z m-110 -53 c-3 -8 -6 -5 -6 6 -1 11 2 17 5 13 3 -3 4 -12 1
-19z m0 -80 c-3 -8 -6 -5 -6 6 -1 11 2 17 5 13 3 -3 4 -12 1 -19z"/>
</g>
</svg>
