<?xml version="1.0" standalone="no"?>
<!DOCTYPE svg PUBLIC "-//W3C//DTD SVG 20010904//EN"
 "http://www.w3.org/TR/2001/REC-SVG-20010904/DTD/svg10.dtd">
<svg version="1.0" xmlns="http://www.w3.org/2000/svg"
 width="96.000000pt" height="84.000000pt" viewBox="0 0 96.000000 84.000000"
 preserveAspectRatio="xMidYMid meet">
<metadata>
Created by potrace 1.16, written by Peter Selinger 2001-2019
</metadata>
<g transform="translate(0.000000,84.000000) scale(0.100000,-0.100000)"
fill="#000000" stroke="none">
<path d="M305 819 c-12 -36 5 -91 37 -121 l30 -28 -25 0 c-15 0 -31 -9 -41
-25 -17 -26 -21 -39 -8 -31 4 2 9 -16 9 -42 1 -26 2 -83 4 -127 1 -44 -1 -119
-4 -168 -3 -53 -2 -85 4 -82 5 4 9 -1 9 -10 0 -9 -4 -13 -10 -10 -10 6 -11 -1
-14 -115 -2 -36 0 -56 2 -45 l5 20 7 -20 c5 -13 7 -4 6 27 0 27 -4 48 -8 48
-5 0 -8 7 -8 16 0 8 5 12 10 9 6 -4 11 8 12 27 4 93 3 118 -4 118 -4 0 -8 7
-8 16 0 8 4 13 9 10 10 -7 25 79 16 94 -4 6 22 -10 58 -36 l65 -47 -18 -31
c-30 -53 -44 -157 -29 -216 l13 -50 108 0 108 0 2 28 c1 15 2 68 2 118 1 90 1
91 34 119 46 39 65 80 58 125 -5 32 -3 38 18 48 16 7 27 7 34 0 7 -7 12 -3 17
13 11 33 -19 52 -72 46 -39 -4 -41 -3 -30 16 7 11 20 29 30 39 9 10 17 24 17
32 0 8 9 18 20 21 13 4 20 15 20 31 l0 25 -44 -35 c-23 -20 -50 -36 -58 -36
-9 0 -18 -10 -21 -21 -5 -17 -10 -20 -29 -14 -13 4 -39 9 -59 12 -30 4 -39 1
-58 -22 -11 -15 -21 -34 -21 -41 0 -8 -4 -14 -10 -14 -5 0 -14 -17 -21 -39
-10 -32 -9 -42 6 -65 23 -35 15 -33 -48 10 l-52 36 -6 71 c-6 90 3 106 43 72
16 -14 37 -25 47 -25 9 0 22 -5 29 -12 9 -9 13 -7 18 8 3 10 12 36 20 58 16
41 11 70 -15 100 -11 12 -16 37 -16 75 l0 56 -92 3 c-86 3 -92 1 -98 -19z m22
-471 c-3 -8 -6 -5 -6 6 -1 11 2 17 5 13 3 -3 4 -12 1 -19z"/>
</g>
</svg>
