<?xml version="1.0" standalone="no"?>
<!DOCTYPE svg PUBLIC "-//W3C//DTD SVG 20010904//EN"
 "http://www.w3.org/TR/2001/REC-SVG-20010904/DTD/svg10.dtd">
<svg version="1.0" xmlns="http://www.w3.org/2000/svg"
 width="96.000000pt" height="84.000000pt" viewBox="0 0 96.000000 84.000000"
 preserveAspectRatio="xMidYMid meet">
<metadata>
Created by potrace 1.16, written by Peter Selinger 2001-2019
</metadata>
<g transform="translate(0.000000,84.000000) scale(0.100000,-0.100000)"
fill="#000000" stroke="none">
<path d="M310 799 c0 -46 13 -76 44 -101 l21 -18 -25 0 c-32 -1 -67 -45 -51
-64 6 -7 11 -29 11 -47 1 -19 1 -86 2 -149 0 -63 -2 -159 -5 -213 -3 -58 -2
-95 4 -92 5 4 9 2 9 -4 0 -5 -4 -11 -9 -13 -5 -2 -12 -24 -16 -51 -6 -40 -5
-47 9 -47 12 0 17 9 16 32 0 18 2 59 4 91 2 31 0 57 -5 57 -13 0 -11 28 2 32
7 2 12 37 13 94 l1 90 55 -44 c30 -25 57 -46 59 -48 2 -2 -11 -36 -29 -75 -44
-95 -49 -147 -20 -193 l22 -36 114 0 114 0 -1 114 -1 114 41 41 c45 45 56 75
48 125 -4 28 -2 35 18 44 15 7 26 8 30 2 11 -18 21 -10 23 19 3 34 -19 43 -81
35 l-38 -4 36 52 c20 28 42 56 49 62 16 13 28 56 16 56 -5 0 -10 -3 -12 -7 -5
-12 -75 -63 -86 -63 -5 0 -16 -10 -25 -22 -13 -20 -18 -21 -36 -10 -37 21 -87
15 -110 -14 -12 -15 -21 -33 -21 -40 0 -8 -4 -14 -8 -14 -5 0 -15 -17 -22 -39
-11 -33 -10 -42 5 -65 23 -35 15 -33 -48 14 l-54 41 -2 66 c-1 37 -4 70 -6 74
-3 4 1 12 9 18 10 9 17 6 30 -14 9 -14 26 -25 38 -25 12 0 30 -7 40 -16 16
-16 18 -15 24 2 3 11 12 34 20 52 19 45 18 75 -7 106 -16 21 -20 35 -15 62 13
69 6 74 -100 74 l-94 0 0 -41z m17 -441 c-3 -8 -6 -5 -6 6 -1 11 2 17 5 13 3
-3 4 -12 1 -19z m-20 -340 c-3 -8 -6 -5 -6 6 -1 11 2 17 5 13 3 -3 4 -12 1
-19z"/>
</g>
</svg>
