<?xml version="1.0" standalone="no"?>
<!DOCTYPE svg PUBLIC "-//W3C//DTD SVG 20010904//EN"
 "http://www.w3.org/TR/2001/REC-SVG-20010904/DTD/svg10.dtd">
<svg version="1.0" xmlns="http://www.w3.org/2000/svg"
 width="96.000000pt" height="84.000000pt" viewBox="0 0 96.000000 84.000000"
 preserveAspectRatio="xMidYMid meet">
<metadata>
Created by potrace 1.16, written by Peter Selinger 2001-2019
</metadata>
<g transform="translate(0.000000,84.000000) scale(0.100000,-0.100000)"
fill="#000000" stroke="none">
<path d="M320 810 c0 -37 23 -85 47 -99 15 -9 13 -10 -12 -11 -39 -1 -73 -43
-54 -66 9 -11 13 -53 13 -134 0 -65 4 -116 8 -114 4 3 8 -2 8 -11 0 -9 -4 -13
-10 -10 -6 4 -10 -8 -10 -29 0 -19 6 -37 13 -40 10 -5 10 -7 0 -12 -15 -7 -18
-64 -3 -64 6 0 10 -7 10 -16 0 -8 -4 -12 -10 -9 -6 4 -11 -6 -11 -22 -1 -15
-3 -61 -5 -101 -2 -53 1 -72 9 -69 15 5 18 99 3 110 -8 5 -7 10 3 16 10 6 14
43 15 150 l1 141 60 -60 c57 -57 59 -61 45 -83 -7 -12 -31 -56 -53 -97 -34
-64 -38 -82 -34 -123 2 -26 7 -50 11 -54 3 -3 17 4 31 17 l25 23 0 -22 c0 -22
2 -22 121 -20 l121 1 -7 113 -7 112 30 22 c51 36 75 85 68 135 -6 39 -4 44 18
54 16 7 28 8 31 2 11 -18 21 -10 23 19 3 35 -23 45 -80 32 -21 -5 -38 -6 -38
-3 0 3 11 20 25 38 14 18 25 37 25 42 0 5 11 17 25 26 14 9 25 25 25 36 0 27
-5 26 -53 -13 -23 -19 -50 -37 -59 -40 -10 -4 -18 -11 -18 -17 0 -13 -37 -13
-45 0 -3 6 -24 10 -45 10 -32 0 -43 -6 -60 -30 -12 -16 -18 -34 -15 -40 3 -5
0 -10 -8 -10 -8 0 -20 -18 -27 -40 -11 -34 -11 -42 5 -66 13 -20 3 -15 -39 21
-48 42 -56 54 -58 87 -3 79 -5 95 -12 106 -16 26 17 21 43 -7 16 -17 36 -31
45 -31 8 0 19 -7 24 -16 12 -21 35 -8 27 15 -3 11 3 25 15 36 25 22 28 96 5
115 -12 10 -14 25 -9 71 l7 59 -102 0 -101 0 0 -30z m-3 -782 c-3 -8 -6 -5 -6
6 -1 11 2 17 5 13 3 -3 4 -12 1 -19z"/>
</g>
</svg>
