<?xml version="1.0" standalone="no"?>
<!DOCTYPE svg PUBLIC "-//W3C//DTD SVG 20010904//EN"
 "http://www.w3.org/TR/2001/REC-SVG-20010904/DTD/svg10.dtd">
<svg version="1.0" xmlns="http://www.w3.org/2000/svg"
 width="96.000000pt" height="84.000000pt" viewBox="0 0 96.000000 84.000000"
 preserveAspectRatio="xMidYMid meet">
<metadata>
Created by potrace 1.16, written by Peter Selinger 2001-2019
</metadata>
<g transform="translate(0.000000,84.000000) scale(0.100000,-0.100000)"
fill="#000000" stroke="none">
<path d="M333 803 c4 -21 16 -50 27 -65 l21 -28 -29 0 c-30 0 -81 -43 -64 -54
6 -3 12 0 15 6 2 7 4 -11 3 -40 -1 -30 2 -56 5 -58 3 -1 5 -18 4 -36 -6 -103
-17 -296 -18 -313 0 -11 0 -64 1 -117 2 -74 5 -98 15 -98 11 0 14 38 13 189 0
104 -4 187 -8 185 -5 -3 -8 0 -8 5 0 6 5 11 10 11 6 0 10 9 10 21 0 17 9 11
48 -31 81 -91 81 -87 34 -166 -53 -91 -72 -139 -72 -180 0 -27 4 -34 19 -34
10 0 24 7 32 16 11 14 13 14 21 0 7 -13 31 -16 128 -16 l120 0 0 113 c0 111 1
114 25 125 13 6 36 29 51 52 23 34 26 47 21 89 -5 43 -3 50 16 58 17 8 28 6
51 -10 26 -18 28 -18 19 -2 -6 10 -8 26 -6 36 8 29 -37 42 -87 24 -40 -14 -41
-14 -35 6 7 21 13 30 65 87 29 32 39 62 21 62 -5 0 -14 -7 -21 -15 -7 -8 -19
-15 -26 -15 -8 0 -14 -4 -14 -8 0 -5 -12 -15 -27 -23 -16 -8 -33 -20 -39 -28
-9 -12 -15 -12 -35 2 -53 38 -128 8 -129 -51 0 -13 -4 -21 -9 -18 -4 3 -16
-13 -26 -35 -16 -34 -17 -44 -6 -62 7 -12 -10 1 -37 28 -49 48 -51 53 -56 115
-2 36 -6 71 -8 79 -1 7 3 16 10 18 6 3 12 -2 12 -9 0 -17 37 -52 63 -61 9 -4
17 -14 17 -23 0 -22 24 -12 28 12 2 10 12 28 22 39 28 32 33 71 14 111 -14 30
-15 42 -6 68 7 18 12 42 12 54 0 21 -4 22 -106 22 l-107 0 6 -37z m-16 -515
c-3 -8 -6 -5 -6 6 -1 11 2 17 5 13 3 -3 4 -12 1 -19z m3 -84 c0 -8 -4 -12 -10
-9 -5 3 -10 10 -10 16 0 5 5 9 10 9 6 0 10 -7 10 -16z m-3 -96 c-3 -8 -6 -5
-6 6 -1 11 2 17 5 13 3 -3 4 -12 1 -19z m0 -90 c-3 -8 -6 -5 -6 6 -1 11 2 17
5 13 3 -3 4 -12 1 -19z"/>
</g>
</svg>
