<?xml version="1.0" standalone="no"?>
<!DOCTYPE svg PUBLIC "-//W3C//DTD SVG 20010904//EN"
 "http://www.w3.org/TR/2001/REC-SVG-20010904/DTD/svg10.dtd">
<svg version="1.0" xmlns="http://www.w3.org/2000/svg"
 width="96.000000pt" height="84.000000pt" viewBox="0 0 96.000000 84.000000"
 preserveAspectRatio="xMidYMid meet">
<metadata>
Created by potrace 1.16, written by Peter Selinger 2001-2019
</metadata>
<g transform="translate(0.000000,84.000000) scale(0.100000,-0.100000)"
fill="#000000" stroke="none">
<path d="M340 817 c0 -12 9 -40 21 -61 l21 -39 -29 6 c-22 4 -34 -1 -58 -25
-16 -17 -23 -29 -15 -26 12 4 16 -6 20 -46 9 -98 5 -208 -16 -446 -11 -131
-12 -183 -4 -170 8 11 12 12 18 3 4 -7 9 22 10 65 1 42 4 100 6 127 3 28 7 86
10 129 4 44 7 80 9 82 1 1 31 -32 65 -73 58 -67 62 -76 49 -91 -24 -27 -87
-188 -87 -221 l0 -31 156 0 157 0 -5 68 c-9 102 -2 127 42 156 70 46 93 108
65 178 -11 28 38 42 75 23 40 -21 46 -19 24 7 -18 21 -18 21 0 15 13 -5 17 -3
13 8 -4 8 -2 17 4 20 5 4 7 11 3 16 -7 11 -91 3 -131 -12 -30 -11 -37 4 -13
26 11 10 20 24 20 30 0 7 11 20 25 29 14 9 25 25 25 36 0 24 -13 26 -30 5 -7
-8 -17 -15 -22 -15 -5 0 -16 -7 -24 -15 -9 -8 -24 -15 -34 -15 -10 0 -21 -7
-24 -16 -5 -13 -9 -13 -32 5 -38 30 -97 28 -118 -4 -9 -13 -16 -34 -16 -45 0
-13 -5 -20 -12 -18 -13 5 -48 -56 -48 -82 0 -9 6 -23 12 -31 7 -7 -10 8 -38
34 -50 48 -52 50 -58 120 -4 40 -9 80 -12 90 -8 28 9 20 28 -13 9 -17 29 -35
43 -42 14 -6 25 -19 25 -30 0 -23 19 -24 27 0 4 9 19 32 35 50 30 35 37 86 17
123 -8 16 -7 30 5 60 31 78 30 79 -94 79 -108 0 -110 0 -110 -23z m-20 -526
c0 -6 -4 -13 -10 -16 -5 -3 -10 1 -10 9 0 9 5 16 10 16 6 0 10 -4 10 -9z m-10
-96 c0 -8 -4 -15 -10 -15 -5 0 -10 7 -10 15 0 8 5 15 10 15 6 0 10 -7 10 -15z
m-14 -102 c-10 -10 -19 5 -10 18 6 11 8 11 12 0 2 -7 1 -15 -2 -18z"/>
</g>
</svg>
