<?xml version="1.0" standalone="no"?>
<!DOCTYPE svg PUBLIC "-//W3C//DTD SVG 20010904//EN"
 "http://www.w3.org/TR/2001/REC-SVG-20010904/DTD/svg10.dtd">
<svg version="1.0" xmlns="http://www.w3.org/2000/svg"
 width="96.000000pt" height="84.000000pt" viewBox="0 0 96.000000 84.000000"
 preserveAspectRatio="xMidYMid meet">
<metadata>
Created by potrace 1.16, written by Peter Selinger 2001-2019
</metadata>
<g transform="translate(0.000000,84.000000) scale(0.100000,-0.100000)"
fill="#000000" stroke="none">
<path d="M340 823 c0 -10 9 -33 20 -51 11 -18 20 -34 20 -35 0 -2 -15 -2 -32
0 -22 2 -41 -3 -57 -17 -22 -19 -23 -23 -10 -47 10 -18 14 -61 13 -147 0 -144
-12 -376 -23 -463 -6 -54 -5 -63 9 -63 9 0 17 8 18 18 1 9 4 40 7 67 5 46 12
187 14 309 l1 50 28 -45 c16 -25 42 -60 58 -79 57 -67 56 -66 38 -85 -19 -19
-84 -185 -84 -215 0 -19 7 -20 161 -20 l160 0 -7 45 c-3 25 -3 65 0 89 6 38
12 47 44 64 20 10 52 38 70 62 29 37 33 49 27 79 -4 20 -13 43 -21 51 -12 13
-10 17 18 31 30 16 34 16 70 -3 45 -24 59 -17 32 14 -18 20 -18 21 0 15 14 -6
17 -3 12 8 -3 9 3 19 16 26 41 22 -5 29 -87 14 -42 -8 -81 -15 -85 -15 -16 0
21 58 40 63 14 3 20 14 20 31 0 14 -4 26 -10 26 -5 0 -10 -4 -10 -8 0 -5 -19
-16 -42 -26 -24 -9 -51 -22 -61 -27 -13 -7 -24 -5 -44 11 -57 45 -142 8 -134
-57 1 -7 -6 -13 -16 -13 -11 0 -25 -16 -37 -41 -15 -33 -16 -45 -7 -66 7 -15
-7 -5 -38 29 -43 46 -50 60 -55 108 -4 30 -9 72 -11 93 -6 45 5 48 25 4 8 -17
27 -38 43 -45 16 -8 27 -21 27 -33 0 -24 18 -25 27 -1 3 9 21 34 40 55 35 40
41 69 21 123 -9 26 -8 38 5 67 32 66 30 67 -98 67 -103 0 -115 -2 -115 -17z
m-40 -133 c0 -5 -5 -10 -11 -10 -5 0 -7 5 -4 10 3 6 8 10 11 10 2 0 4 -4 4
-10z m20 -220 c0 -5 -4 -10 -10 -10 -5 0 -10 5 -10 10 0 6 5 10 10 10 6 0 10
-4 10 -10z m-13 -102 c-3 -8 -6 -5 -6 6 -1 11 2 17 5 13 3 -3 4 -12 1 -19z m3
-88 c0 -5 -4 -10 -10 -10 -5 0 -10 5 -10 10 0 6 5 10 10 10 6 0 10 -4 10 -10z
m0 -99 c0 -6 -4 -13 -10 -16 -5 -3 -10 1 -10 9 0 9 5 16 10 16 6 0 10 -4 10
-9z m-10 -101 c0 -5 -4 -10 -10 -10 -5 0 -10 5 -10 10 0 6 5 10 10 10 6 0 10
-4 10 -10z"/>
</g>
</svg>
