<?xml version="1.0" standalone="no"?>
<!DOCTYPE svg PUBLIC "-//W3C//DTD SVG 20010904//EN"
 "http://www.w3.org/TR/2001/REC-SVG-20010904/DTD/svg10.dtd">
<svg version="1.0" xmlns="http://www.w3.org/2000/svg"
 width="96.000000pt" height="84.000000pt" viewBox="0 0 96.000000 84.000000"
 preserveAspectRatio="xMidYMid meet">
<metadata>
Created by potrace 1.16, written by Peter Selinger 2001-2019
</metadata>
<g transform="translate(0.000000,84.000000) scale(0.100000,-0.100000)"
fill="#000000" stroke="none">
<path d="M341 813 c6 -16 18 -37 27 -47 16 -18 16 -19 -23 -13 -33 5 -44 3
-57 -12 -9 -10 -22 -21 -29 -24 -11 -4 -12 -7 -1 -18 9 -9 12 -10 12 -1 0 7 5
12 11 12 8 0 8 -4 0 -13 -7 -9 -8 -24 -2 -43 9 -33 7 -199 -4 -369 -5 -60 -8
-148 -9 -195 -1 -73 1 -85 17 -88 15 -3 17 8 19 120 2 120 3 146 6 258 l2 55
27 -40 c15 -22 46 -64 70 -93 43 -54 51 -76 33 -87 -11 -7 -62 -113 -85 -177
l-14 -38 169 0 170 0 0 38 c0 86 10 112 49 128 41 17 96 67 116 105 18 34 3
95 -25 104 -31 10 -24 22 23 38 37 12 46 12 62 1 39 -29 53 -18 54 42 0 45 -3
55 -14 50 -27 -10 -146 -28 -151 -23 -3 3 9 18 27 35 20 19 30 36 26 45 -5 14
-12 13 -51 -8 -61 -32 -75 -33 -117 -7 -68 42 -139 16 -139 -51 0 -24 -3 -27
-20 -22 -12 4 -20 2 -20 -5 0 -7 -10 -26 -22 -42 -18 -27 -20 -35 -10 -61 10
-26 5 -23 -37 24 -52 57 -48 46 -77 227 -6 42 8 41 29 -3 9 -19 30 -41 47 -50
18 -10 30 -23 30 -36 0 -27 33 -22 39 6 2 10 16 31 31 45 37 35 47 87 25 130
-9 17 -14 37 -12 43 3 7 12 29 21 50 l16 37 -125 0 -125 0 11 -27z m-31 -349
c0 -8 -4 -12 -10 -9 -5 3 -10 10 -10 16 0 5 5 9 10 9 6 0 10 -7 10 -16z m-13
-106 c-3 -8 -6 -5 -6 6 -1 11 2 17 5 13 3 -3 4 -12 1 -19z m3 -93 c0 -8 -4
-15 -10 -15 -5 0 -10 7 -10 15 0 8 5 15 10 15 6 0 10 -7 10 -15z m-13 -117
c-3 -8 -6 -5 -6 6 -1 11 2 17 5 13 3 -3 4 -12 1 -19z m3 -103 c0 -8 -4 -15
-10 -15 -5 0 -7 7 -4 15 4 8 8 15 10 15 2 0 4 -7 4 -15z"/>
</g>
</svg>
