<?xml version="1.0" standalone="no"?>
<!DOCTYPE svg PUBLIC "-//W3C//DTD SVG 20010904//EN"
 "http://www.w3.org/TR/2001/REC-SVG-20010904/DTD/svg10.dtd">
<svg version="1.0" xmlns="http://www.w3.org/2000/svg"
 width="96.000000pt" height="84.000000pt" viewBox="0 0 96.000000 84.000000"
 preserveAspectRatio="xMidYMid meet">
<metadata>
Created by potrace 1.16, written by Peter Selinger 2001-2019
</metadata>
<g transform="translate(0.000000,84.000000) scale(0.100000,-0.100000)"
fill="#000000" stroke="none">
<path d="M0 420 l0 -420 275 0 c151 0 275 3 275 8 0 22 -32 202 -41 228 -8 26
-18 34 -52 43 -30 7 -49 20 -64 44 -34 50 -30 83 17 129 49 50 83 49 117 -1
23 -34 31 -95 13 -106 -5 -3 2 -21 15 -41 13 -19 26 -48 30 -64 4 -17 9 -30
11 -30 14 0 53 58 54 78 0 13 7 37 16 54 11 22 13 33 5 41 -6 6 -11 19 -11 28
0 18 -15 20 -39 5 -15 -10 -41 18 -63 67 -7 15 -16 27 -20 27 -13 0 -9 28 5
33 6 3 -3 11 -21 18 -17 8 -35 23 -38 34 -4 11 -11 23 -17 27 -58 37 -207 187
-207 208 0 6 -54 10 -130 10 l-130 0 0 -420z"/>
<path d="M937 793 c-13 -12 -7 -43 8 -43 9 0 15 9 15 25 0 24 -10 32 -23 18z"/>
</g>
</svg>
