<?xml version="1.0" standalone="no"?>
<!DOCTYPE svg PUBLIC "-//W3C//DTD SVG 20010904//EN"
 "http://www.w3.org/TR/2001/REC-SVG-20010904/DTD/svg10.dtd">
<svg version="1.0" xmlns="http://www.w3.org/2000/svg"
 width="96.000000pt" height="84.000000pt" viewBox="0 0 96.000000 84.000000"
 preserveAspectRatio="xMidYMid meet">
<metadata>
Created by potrace 1.16, written by Peter Selinger 2001-2019
</metadata>
<g transform="translate(0.000000,84.000000) scale(0.100000,-0.100000)"
fill="#000000" stroke="none">
<path d="M330 831 c0 -4 10 -21 22 -36 l22 -28 -41 6 c-35 6 -45 3 -72 -20
-28 -25 -29 -28 -14 -45 10 -11 16 -37 17 -68 1 -27 4 -50 8 -50 4 0 5 -33 2
-72 -2 -40 -7 -116 -9 -168 -3 -52 -7 -124 -10 -160 -12 -145 -13 -193 -4
-179 8 12 11 12 19 -1 8 -11 10 -7 10 20 -1 19 2 71 6 115 6 80 9 121 12 224
l2 54 41 -59 c23 -32 57 -77 75 -100 38 -46 40 -51 20 -73 -15 -16 -96 -173
-96 -185 0 -3 78 -6 174 -6 l174 0 6 37 c15 88 18 94 33 89 41 -16 173 99 173
152 0 35 -24 70 -57 83 -32 12 -25 20 40 41 37 12 55 14 64 6 10 -8 13 0 13
40 l0 50 -37 -9 c-21 -5 -54 -8 -73 -8 -29 0 -32 2 -14 9 25 10 35 32 24 49
-5 10 -13 10 -29 2 -69 -36 -55 -37 -146 13 -16 9 -43 16 -58 16 -36 0 -77
-41 -77 -76 0 -21 -4 -25 -19 -21 -13 3 -23 -3 -32 -22 -7 -14 -20 -34 -27
-43 -14 -17 -13 -31 4 -73 4 -11 -17 9 -47 45 -52 61 -56 70 -68 145 -6 44
-14 92 -17 108 -8 39 19 35 31 -5 6 -20 24 -42 45 -56 19 -13 38 -32 42 -44 9
-23 31 -19 37 7 2 10 18 33 37 50 33 32 40 55 35 115 -1 14 -7 29 -12 34 -13
14 -10 48 6 70 8 11 15 23 15 28 0 4 -56 8 -125 8 -69 0 -125 -4 -125 -9z
m-60 -111 c0 -5 -5 -10 -11 -10 -5 0 -7 5 -4 10 3 6 8 10 11 10 2 0 4 -4 4
-10z m24 -255 c3 -8 1 -15 -4 -15 -6 0 -10 7 -10 15 0 8 2 15 4 15 2 0 6 -7
10 -15z m-8 -122 c-10 -10 -19 5 -10 18 6 11 8 11 12 0 2 -7 1 -15 -2 -18z m4
-90 c0 -5 -5 -15 -10 -23 -8 -12 -10 -11 -10 8 0 12 5 22 10 22 6 0 10 -3 10
-7z m-10 -122 c0 -6 -4 -13 -10 -16 -5 -3 -10 1 -10 9 0 9 5 16 10 16 6 0 10
-4 10 -9z"/>
</g>
</svg>
