<?xml version="1.0" standalone="no"?>
<!DOCTYPE svg PUBLIC "-//W3C//DTD SVG 20010904//EN"
 "http://www.w3.org/TR/2001/REC-SVG-20010904/DTD/svg10.dtd">
<svg version="1.0" xmlns="http://www.w3.org/2000/svg"
 width="96.000000pt" height="84.000000pt" viewBox="0 0 96.000000 84.000000"
 preserveAspectRatio="xMidYMid meet">
<metadata>
Created by potrace 1.16, written by Peter Selinger 2001-2019
</metadata>
<g transform="translate(0.000000,84.000000) scale(0.100000,-0.100000)"
fill="#000000" stroke="none">
<path d="M350 825 c19 -23 10 -25 -34 -10 -38 13 -41 13 -62 -11 -13 -13 -28
-24 -34 -24 -5 0 -10 -7 -10 -15 0 -18 12 -19 28 -3 9 9 12 8 12 -4 0 -9 -5
-18 -10 -20 -7 -2 -7 -14 0 -36 5 -19 7 -82 5 -140 -2 -59 -7 -186 -10 -282
-4 -96 -9 -178 -11 -182 -3 -5 -2 -29 2 -55 5 -38 9 -44 15 -28 8 20 8 20 9 0
1 -15 4 -13 10 8 8 27 15 230 12 350 0 31 1 57 3 57 3 0 11 -13 20 -30 8 -16
44 -68 80 -115 35 -47 66 -89 69 -94 3 -5 -3 -20 -14 -34 -11 -14 -33 -55 -50
-91 l-29 -66 185 0 c167 0 185 2 190 18 3 9 13 33 22 52 14 31 16 33 20 13 2
-13 8 -23 13 -23 21 0 99 43 138 76 40 35 41 37 41 99 0 69 -9 83 -62 94 -43
9 -46 28 -6 36 69 14 68 13 68 67 l0 50 -35 -6 c-30 -6 -35 -4 -35 13 0 22
-16 37 -22 20 -2 -6 -16 -11 -31 -11 -15 0 -27 -5 -27 -11 0 -6 -19 7 -42 30
-54 52 -118 72 -153 49 -31 -20 -48 -53 -42 -77 6 -23 -10 -36 -26 -20 -15 15
-27 14 -27 -2 0 -7 -14 -29 -31 -48 -30 -34 -31 -39 -13 -99 7 -24 6 -23 -16
5 -13 17 -39 47 -59 68 -32 34 -38 48 -52 132 -9 52 -12 95 -7 95 5 0 4 9 -2
21 -12 22 -7 49 10 49 5 0 10 -8 10 -17 0 -29 37 -81 69 -98 17 -8 34 -27 37
-41 4 -17 11 -23 21 -20 8 3 17 6 19 6 2 0 4 11 4 25 0 15 10 31 26 41 53 35
71 127 37 185 -14 24 -15 33 -5 49 12 20 9 20 -109 20 -108 0 -120 -2 -109
-15z m-80 -360 c0 -8 -4 -15 -10 -15 -5 0 -10 7 -10 15 0 8 5 15 10 15 6 0 10
-7 10 -15z m-7 -125 c-3 -11 -7 -20 -9 -20 -2 0 -4 9 -4 20 0 11 4 20 9 20 5
0 7 -9 4 -20z m-3 -127 c0 -20 -3 -24 -11 -16 -7 7 -9 19 -6 27 10 24 17 19
17 -11z m0 -133 c0 -11 -4 -20 -10 -20 -5 0 -10 9 -10 20 0 11 5 20 10 20 6 0
10 -9 10 -20z"/>
</g>
</svg>
