<?xml version="1.0" standalone="no"?>
<!DOCTYPE svg PUBLIC "-//W3C//DTD SVG 20010904//EN"
 "http://www.w3.org/TR/2001/REC-SVG-20010904/DTD/svg10.dtd">
<svg version="1.0" xmlns="http://www.w3.org/2000/svg"
 width="96.000000pt" height="84.000000pt" viewBox="0 0 96.000000 84.000000"
 preserveAspectRatio="xMidYMid meet">
<metadata>
Created by potrace 1.16, written by Peter Selinger 2001-2019
</metadata>
<g transform="translate(0.000000,84.000000) scale(0.100000,-0.100000)"
fill="#000000" stroke="none">
<path d="M203 828 c-26 -12 -30 -33 -9 -41 35 -14 39 -148 13 -427 -8 -91 -17
-208 -19 -260 l-3 -95 29 -3 29 -4 -6 64 c-3 35 0 135 6 223 l12 160 22 -45
c13 -25 54 -88 93 -140 38 -52 70 -100 70 -107 0 -7 -8 -21 -17 -31 -21 -21
-53 -86 -53 -107 0 -13 31 -15 200 -15 l199 0 18 33 17 32 6 -30 c4 -22 11
-30 25 -28 31 2 57 10 93 28 l32 16 0 125 c0 124 0 124 -24 124 -13 0 -29 6
-36 14 -9 12 -5 16 24 22 l36 6 0 64 c0 60 -1 64 -23 64 -13 0 -28 5 -34 11
-8 8 -13 8 -17 0 -13 -21 -44 -11 -70 24 -32 42 -93 75 -141 77 -19 1 -36 -1
-38 -3 -1 -2 -12 -15 -23 -29 -25 -29 -43 -77 -25 -66 6 4 11 2 11 -4 0 -16
-30 -24 -43 -11 -15 15 -27 14 -27 -4 0 -9 -7 -18 -15 -21 -8 -4 -15 -11 -15
-18 0 -6 -9 -20 -21 -30 -21 -17 -21 -23 -4 -86 6 -22 4 -21 -22 10 -15 19
-44 52 -63 74 -31 35 -37 49 -51 140 -9 55 -12 102 -8 104 5 2 2 16 -5 31 -13
24 -13 28 4 38 15 10 19 8 24 -18 9 -44 35 -78 78 -100 28 -14 38 -26 38 -44
0 -48 32 -37 45 16 4 15 18 33 32 40 30 16 62 80 63 124 0 16 -8 49 -17 72
l-18 43 -175 -1 c-104 0 -184 -5 -197 -11z m24 -45 c-3 -3 -11 -2 -17 2 -9 6
-9 10 1 16 14 8 27 -7 16 -18z m23 -307 c0 -8 -4 -18 -10 -21 -5 -3 -10 3 -10
14 0 12 5 21 10 21 6 0 10 -6 10 -14z m-14 -151 c-8 -23 -25 -9 -19 16 4 13 9
17 16 10 5 -5 7 -17 3 -26z m-6 -135 c0 -11 -4 -20 -10 -20 -5 0 -10 9 -10 20
0 11 5 20 10 20 6 0 10 -9 10 -20z m-13 -82 c-3 -8 -6 -5 -6 6 -1 11 2 17 5
13 3 -3 4 -12 1 -19z m3 -73 c0 -14 -4 -25 -10 -25 -5 0 -10 11 -10 25 0 14 5
25 10 25 6 0 10 -11 10 -25z"/>
</g>
</svg>
