<?xml version="1.0" standalone="no"?>
<!DOCTYPE svg PUBLIC "-//W3C//DTD SVG 20010904//EN"
 "http://www.w3.org/TR/2001/REC-SVG-20010904/DTD/svg10.dtd">
<svg version="1.0" xmlns="http://www.w3.org/2000/svg"
 width="96.000000pt" height="84.000000pt" viewBox="0 0 96.000000 84.000000"
 preserveAspectRatio="xMidYMid meet">
<metadata>
Created by potrace 1.16, written by Peter Selinger 2001-2019
</metadata>
<g transform="translate(0.000000,84.000000) scale(0.100000,-0.100000)"
fill="#000000" stroke="none">
<path d="M200 829 c0 -5 -5 -7 -11 -3 -8 5 -9 -6 -3 -37 11 -62 9 -247 -5
-359 -14 -109 -16 -133 -29 -292 -5 -64 -12 -121 -16 -126 -3 -6 7 -10 27 -9
33 1 33 1 35 51 1 63 8 147 18 229 4 34 7 81 5 103 -4 56 12 62 33 13 10 -22
54 -90 98 -152 44 -62 82 -117 85 -123 2 -6 -7 -24 -20 -40 -24 -29 -47 -67
-47 -78 0 -4 133 -6 295 -6 l295 1 -1 224 c0 204 -2 225 -17 227 -9 0 -22 2
-29 2 -6 1 -27 22 -47 47 -47 63 -158 113 -196 88 -8 -5 -12 -9 -9 -9 4 0 -8
-15 -27 -34 -31 -31 -49 -76 -24 -61 6 3 10 1 10 -5 0 -20 -30 -23 -50 -5 -19
17 -20 17 -29 -9 -6 -14 -15 -26 -21 -26 -5 0 -10 -9 -10 -20 0 -11 -7 -20
-15 -20 -27 0 -39 -39 -25 -81 19 -55 9 -56 -29 -3 -18 25 -50 65 -71 88 -38
45 -46 78 -55 242 -2 23 -6 52 -10 64 -5 15 -2 26 6 31 21 13 29 11 29 -8 0
-41 41 -101 85 -124 34 -18 45 -30 50 -56 5 -29 8 -32 25 -23 11 6 20 21 20
34 0 15 14 34 41 56 60 48 83 121 63 198 -6 22 -7 22 -215 22 -140 0 -209 -3
-209 -11z m20 -349 c0 -11 -4 -20 -10 -20 -5 0 -10 9 -10 20 0 11 5 20 10 20
6 0 10 -9 10 -20z m-13 -82 c-3 -7 -5 -2 -5 12 0 14 2 19 5 13 2 -7 2 -19 0
-25z m1 -70 c-4 -27 -28 -36 -28 -10 0 20 8 32 22 32 5 0 8 -10 6 -22z m-21
-100 c-3 -7 -5 -2 -5 12 0 14 2 19 5 13 2 -7 2 -19 0 -25z m3 -73 c0 -14 -4
-25 -10 -25 -5 0 -10 11 -10 25 0 14 5 25 10 25 6 0 10 -11 10 -25z m-19 -92
c-12 -20 -14 -14 -5 12 4 9 9 14 11 11 3 -2 0 -13 -6 -23z"/>
</g>
</svg>
