<?xml version="1.0" standalone="no"?>
<!DOCTYPE svg PUBLIC "-//W3C//DTD SVG 20010904//EN"
 "http://www.w3.org/TR/2001/REC-SVG-20010904/DTD/svg10.dtd">
<svg version="1.0" xmlns="http://www.w3.org/2000/svg"
 width="96.000000pt" height="84.000000pt" viewBox="0 0 96.000000 84.000000"
 preserveAspectRatio="xMidYMid meet">
<metadata>
Created by potrace 1.16, written by Peter Selinger 2001-2019
</metadata>
<g transform="translate(0.000000,84.000000) scale(0.100000,-0.100000)"
fill="#000000" stroke="none">
<path d="M153 688 c-1 -84 -6 -196 -12 -248 -35 -294 -46 -440 -33 -440 6 0
13 10 15 23 l4 22 2 -22 c2 -32 17 -29 26 5 8 29 21 167 31 320 6 91 16 115
28 68 5 -22 123 -206 192 -299 l28 -38 -19 -32 c-10 -18 -23 -35 -29 -39 -6
-4 121 -8 282 -8 l292 0 0 238 0 238 -47 46 c-27 25 -62 53 -79 61 -38 20
-140 35 -131 20 4 -6 -9 -21 -28 -34 -31 -22 -55 -56 -55 -80 0 -6 5 -7 11 -3
7 4 10 1 7 -7 -7 -22 -40 -23 -55 -3 -12 16 -15 17 -23 4 -5 -8 -10 -21 -10
-27 0 -7 -7 -13 -15 -13 -9 0 -15 -9 -15 -21 0 -12 -8 -23 -18 -26 -10 -2 -25
-16 -34 -30 -14 -23 -14 -30 -1 -61 24 -59 11 -69 -24 -16 -17 27 -52 73 -77
101 -38 45 -46 62 -51 110 -4 32 -13 91 -20 131 -10 60 -10 72 1 72 10 0 9 9
-6 33 -25 41 -25 41 5 55 23 11 25 9 35 -31 17 -63 52 -111 98 -131 32 -14 43
-26 48 -50 9 -44 12 -47 34 -33 11 6 20 23 20 37 0 18 15 38 50 68 38 33 53
54 65 94 8 28 15 62 15 75 l0 23 -253 0 -253 0 -1 -152z m37 -198 c0 -10 -5
-22 -10 -25 -13 -8 -24 20 -16 41 8 20 26 9 26 -16z m-23 -97 c-3 -10 -5 -4
-5 12 0 17 2 24 5 18 2 -7 2 -21 0 -30z m3 -83 c0 -20 -5 -30 -15 -30 -16 0
-19 17 -9 44 10 26 24 18 24 -14z m-23 -117 c-3 -10 -5 -2 -5 17 0 19 2 27 5
18 2 -10 2 -26 0 -35z m3 -83 c0 -20 -5 -30 -15 -30 -15 0 -21 40 -8 53 14 15
23 6 23 -23z"/>
</g>
</svg>
