<?xml version="1.0" standalone="no"?>
<!DOCTYPE svg PUBLIC "-//W3C//DTD SVG 20010904//EN"
 "http://www.w3.org/TR/2001/REC-SVG-20010904/DTD/svg10.dtd">
<svg version="1.0" xmlns="http://www.w3.org/2000/svg"
 width="96.000000pt" height="84.000000pt" viewBox="0 0 96.000000 84.000000"
 preserveAspectRatio="xMidYMid meet">
<metadata>
Created by potrace 1.16, written by Peter Selinger 2001-2019
</metadata>
<g transform="translate(0.000000,84.000000) scale(0.100000,-0.100000)"
fill="#000000" stroke="none">
<path d="M86 808 c-4 -18 -7 -65 -6 -104 1 -39 -5 -105 -14 -145 -8 -41 -15
-105 -15 -142 0 -38 -4 -74 -8 -80 -4 -6 -10 -66 -15 -132 -4 -66 -10 -139
-14 -163 -5 -34 -3 -42 10 -42 10 0 16 9 16 25 0 23 8 29 27 23 4 -2 6 -13 5
-25 -2 -15 2 -23 12 -23 12 0 16 20 20 102 12 228 21 347 27 353 4 3 15 -17
24 -45 16 -48 132 -231 225 -354 l42 -56 269 0 269 0 0 298 0 297 -47 21 c-60
27 -155 41 -148 22 2 -7 -15 -27 -38 -43 -51 -37 -89 -101 -68 -114 7 -5 10
-14 7 -20 -8 -13 -44 3 -63 28 -11 14 -14 14 -23 1 -5 -8 -10 -23 -10 -32 0
-10 -7 -18 -15 -18 -8 0 -22 -16 -30 -36 -9 -23 -20 -34 -28 -31 -8 3 -21 -9
-32 -29 -18 -33 -18 -37 -1 -90 10 -31 16 -58 14 -60 -3 -2 -23 24 -46 59 -22
34 -66 91 -96 127 -44 52 -56 72 -56 100 0 33 -23 197 -35 248 -4 16 -1 22 11
22 8 0 14 3 12 8 -2 4 -12 24 -23 45 l-19 37 -67 0 -67 0 -6 -32z m34 -197 c0
-11 -4 -23 -10 -26 -6 -4 -10 5 -10 19 0 14 5 26 10 26 6 0 10 -9 10 -19z m-5
-110 c-8 -32 -13 -37 -24 -25 -15 15 -1 64 16 57 10 -4 13 -14 8 -32z m-21
-108 c-10 -40 -14 -41 -14 -5 0 18 5 32 10 32 6 0 8 -11 4 -27z m-2 -124 c-4
-39 -7 -43 -21 -34 -12 7 -15 58 -4 69 15 15 28 -3 25 -35z m-19 -121 c-8 -46
-13 -48 -13 -5 0 21 4 37 10 37 5 0 7 -14 3 -32z"/>
<path d="M310 788 c24 -63 62 -104 116 -128 38 -17 43 -23 54 -71 10 -40 15
-48 22 -35 5 9 15 16 23 16 8 0 16 16 20 40 6 33 15 46 50 70 40 28 95 112 95
147 0 10 -42 13 -200 13 l-200 0 20 -52z"/>
</g>
</svg>
