<?xml version="1.0" standalone="no"?>
<!DOCTYPE svg PUBLIC "-//W3C//DTD SVG 20010904//EN"
 "http://www.w3.org/TR/2001/REC-SVG-20010904/DTD/svg10.dtd">
<svg version="1.0" xmlns="http://www.w3.org/2000/svg"
 width="96.000000pt" height="84.000000pt" viewBox="0 0 96.000000 84.000000"
 preserveAspectRatio="xMidYMid meet">
<metadata>
Created by potrace 1.16, written by Peter Selinger 2001-2019
</metadata>
<g transform="translate(0.000000,84.000000) scale(0.100000,-0.100000)"
fill="#000000" stroke="none">
<path d="M0 696 c0 -109 3 -145 13 -149 15 -6 11 -77 -4 -77 -5 0 -8 -100 -8
-227 1 -145 4 -204 9 -163 3 36 9 71 13 77 4 6 9 69 12 140 4 125 17 204 28
173 40 -119 63 -159 196 -350 l83 -120 309 0 309 0 0 340 c0 333 0 340 -20
340 -11 0 -40 5 -65 12 -24 7 -48 8 -52 4 -4 -5 -2 -11 5 -13 20 -8 14 -17
-25 -38 -21 -11 -50 -33 -66 -50 -30 -31 -62 -85 -51 -85 4 0 0 -8 -7 -17 -8
-10 -9 -14 -2 -10 6 4 14 3 18 -3 4 -6 11 -8 16 -5 5 4 9 4 9 1 0 -3 -9 -10
-20 -16 -15 -8 -25 -5 -53 20 -19 16 -37 30 -41 30 -3 0 -9 -15 -14 -32 -4
-19 -17 -37 -30 -43 -13 -5 -26 -21 -29 -35 -8 -33 -22 -50 -37 -44 -7 3 -25
-13 -40 -36 l-27 -41 22 -60 c12 -33 20 -62 17 -64 -3 -3 -25 25 -50 62 -25
38 -75 103 -110 145 -64 76 -65 79 -72 150 -3 40 -13 111 -21 158 -21 127 -21
135 -7 136 23 3 24 4 12 19 -10 12 -36 15 -116 15 l-104 0 0 -144z m30 -51 c0
-19 -4 -35 -10 -35 -11 0 -14 53 -3 63 11 12 13 8 13 -28z"/>
<path d="M280 831 c0 -13 49 -82 73 -102 12 -10 41 -26 65 -35 31 -12 44 -24
48 -43 10 -47 32 -106 33 -90 1 9 12 20 26 23 21 5 25 12 25 46 0 42 3 46 75
98 22 16 50 48 63 70 l23 42 -215 0 c-119 0 -216 -4 -216 -9z"/>
</g>
</svg>
