<?xml version="1.0" standalone="no"?>
<!DOCTYPE svg PUBLIC "-//W3C//DTD SVG 20010904//EN"
 "http://www.w3.org/TR/2001/REC-SVG-20010904/DTD/svg10.dtd">
<svg version="1.0" xmlns="http://www.w3.org/2000/svg"
 width="96.000000pt" height="84.000000pt" viewBox="0 0 96.000000 84.000000"
 preserveAspectRatio="xMidYMid meet">
<metadata>
Created by potrace 1.16, written by Peter Selinger 2001-2019
</metadata>
<g transform="translate(0.000000,84.000000) scale(0.100000,-0.100000)"
fill="#000000" stroke="none">
<path d="M0 598 l0 -243 33 -58 c17 -32 70 -111 117 -177 l85 -120 363 0 362
0 0 390 c0 383 0 390 -20 390 -21 0 -27 -19 -10 -36 7 -7 -5 -21 -39 -42 -27
-18 -55 -32 -62 -32 -7 0 -10 -2 -7 -5 2 -3 -15 -26 -39 -51 -24 -26 -43 -52
-43 -58 0 -6 -7 -24 -15 -39 -13 -26 -13 -28 4 -22 16 5 18 2 14 -15 -8 -29
-30 -25 -64 11 -35 38 -54 33 -63 -16 -6 -29 -14 -40 -36 -48 -22 -8 -33 -22
-42 -52 -10 -31 -19 -41 -38 -43 -15 -2 -33 -15 -45 -34 -48 -76 -47 -71 -20
-142 14 -37 25 -69 25 -73 0 -3 -23 27 -52 68 -55 79 -116 155 -185 231 -37
40 -43 53 -43 90 0 41 -17 168 -41 305 l-11 63 -64 0 -64 0 0 -242z m780 -107
c-6 -12 -15 -21 -21 -21 -5 0 -2 11 7 25 20 30 31 26 14 -4z"/>
<path d="M283 820 c21 -30 61 -59 121 -85 53 -23 55 -26 62 -72 3 -26 11 -53
16 -60 5 -6 8 -17 6 -25 -1 -7 2 -13 7 -14 6 0 9 7 7 17 -2 12 6 19 26 24 27
6 30 10 36 63 6 54 9 59 49 84 23 15 55 40 71 57 l30 31 -223 0 c-219 0 -222
0 -208 -20z"/>
</g>
</svg>
