<?xml version="1.0" standalone="no"?>
<!DOCTYPE svg PUBLIC "-//W3C//DTD SVG 20010904//EN"
 "http://www.w3.org/TR/2001/REC-SVG-20010904/DTD/svg10.dtd">
<svg version="1.0" xmlns="http://www.w3.org/2000/svg"
 width="96.000000pt" height="84.000000pt" viewBox="0 0 96.000000 84.000000"
 preserveAspectRatio="xMidYMid meet">
<metadata>
Created by potrace 1.16, written by Peter Selinger 2001-2019
</metadata>
<g transform="translate(0.000000,84.000000) scale(0.100000,-0.100000)"
fill="#000000" stroke="none">
<path d="M0 469 l0 -371 37 -49 38 -48 443 -1 442 0 0 371 c0 334 -2 371 -16
365 -9 -3 -20 -6 -25 -6 -5 0 -8 -4 -6 -8 1 -4 -19 -32 -44 -62 -41 -48 -72
-95 -74 -110 0 -3 -6 -15 -13 -27 -12 -22 -11 -22 13 -13 20 8 25 6 25 -6 0
-9 5 -12 12 -8 7 5 8 3 4 -5 -5 -7 -10 -10 -14 -7 -3 3 -11 -2 -18 -12 -11
-15 -17 -13 -59 31 -27 28 -52 46 -60 43 -8 -3 -19 -24 -25 -48 -15 -60 -22
-71 -57 -80 -26 -7 -33 -16 -49 -65 -18 -56 -20 -58 -59 -63 -22 -3 -39 -10
-38 -16 1 -5 -14 -30 -33 -54 -44 -55 -48 -75 -29 -129 8 -24 15 -46 15 -49 0
-3 -27 31 -60 76 -33 46 -105 132 -160 193 l-100 110 0 62 c0 34 -10 128 -21
210 -21 141 -23 147 -46 147 l-23 0 0 -371z"/>
<path d="M300 835 c0 -3 27 -19 60 -34 81 -39 88 -46 96 -99 10 -72 20 -84 57
-77 68 14 66 11 69 83 l3 67 50 32 50 33 -193 0 c-105 0 -192 -2 -192 -5z"/>
<path d="M480 565 c0 -8 7 -15 15 -15 8 0 15 7 15 15 0 8 -7 15 -15 15 -8 0
-15 -7 -15 -15z"/>
</g>
</svg>
