<?xml version="1.0" standalone="no"?>
<!DOCTYPE svg PUBLIC "-//W3C//DTD SVG 20010904//EN"
 "http://www.w3.org/TR/2001/REC-SVG-20010904/DTD/svg10.dtd">
<svg version="1.0" xmlns="http://www.w3.org/2000/svg"
 width="96.000000pt" height="84.000000pt" viewBox="0 0 96.000000 84.000000"
 preserveAspectRatio="xMidYMid meet">
<metadata>
Created by potrace 1.16, written by Peter Selinger 2001-2019
</metadata>
<g transform="translate(0.000000,84.000000) scale(0.100000,-0.100000)"
fill="#000000" stroke="none">
<path d="M422 823 c9 -10 21 -51 28 -90 10 -64 15 -73 33 -74 47 -2 93 3 104
13 6 5 13 44 15 89 l3 79 -99 0 c-94 0 -98 -1 -84 -17z"/>
<path d="M923 637 c-18 -25 -33 -52 -33 -60 0 -7 -9 -22 -19 -31 -19 -17 -21
-16 -54 20 l-34 38 -25 -25 c-16 -16 -29 -46 -37 -87 -10 -52 -16 -64 -41 -77
-16 -8 -35 -15 -43 -15 -23 0 -45 -32 -56 -79 -15 -70 -40 -95 -95 -99 -43 -3
-47 -6 -53 -32 -3 -16 -20 -46 -38 -67 -33 -39 -65 -94 -65 -113 0 -7 102 -10
315 -10 l315 0 0 262 0 261 -22 -19 -21 -19 22 40 c17 32 21 53 19 99 l-3 58
-32 -45z m-7 -113 c-3 -9 -6 -20 -6 -25 0 -12 -11 -11 -30 1 -13 9 -12 12 4
25 26 19 40 19 32 -1z"/>
<path d="M475 560 c-8 -14 3 -30 21 -30 8 0 14 9 14 20 0 21 -24 28 -35 10z"/>
<path d="M0 177 l0 -177 162 0 c152 0 160 1 146 18 -104 124 -188 219 -242
272 l-66 64 0 -177z"/>
</g>
</svg>
