<?xml version="1.0" standalone="no"?>
<!DOCTYPE svg PUBLIC "-//W3C//DTD SVG 20010904//EN"
 "http://www.w3.org/TR/2001/REC-SVG-20010904/DTD/svg10.dtd">
<svg version="1.0" xmlns="http://www.w3.org/2000/svg"
 width="96.000000pt" height="84.000000pt" viewBox="0 0 96.000000 84.000000"
 preserveAspectRatio="xMidYMid meet">
<metadata>
Created by potrace 1.16, written by Peter Selinger 2001-2019
</metadata>
<g transform="translate(0.000000,84.000000) scale(0.100000,-0.100000)"
fill="#000000" stroke="none">
<path d="M0 420 l0 -420 275 0 275 0 0 38 c-1 73 -20 187 -35 201 -8 8 -29 20
-47 25 -37 12 -78 67 -78 103 0 34 76 105 109 101 37 -4 73 -63 69 -113 -1
-22 6 -62 16 -90 10 -27 20 -57 23 -65 7 -23 43 40 43 76 0 16 5 35 11 41 7 7
8 19 3 30 -4 10 -8 25 -9 33 0 8 -7 13 -15 11 -42 -10 -47 -6 -94 83 -12 21
-13 33 -5 42 7 9 3 16 -18 26 -15 7 -29 21 -31 30 -2 10 -40 55 -85 102 -92
94 -111 116 -127 145 -10 20 -19 21 -145 21 l-135 0 0 -420z"/>
<path d="M947 753 c-11 -10 -8 -53 3 -53 6 0 10 14 10 30 0 31 -2 35 -13 23z"/>
</g>
</svg>
