<?xml version="1.0" standalone="no"?>
<!DOCTYPE svg PUBLIC "-//W3C//DTD SVG 20010904//EN"
 "http://www.w3.org/TR/2001/REC-SVG-20010904/DTD/svg10.dtd">
<svg version="1.0" xmlns="http://www.w3.org/2000/svg"
 width="96.000000pt" height="84.000000pt" viewBox="0 0 96.000000 84.000000"
 preserveAspectRatio="xMidYMid meet">
<metadata>
Created by potrace 1.16, written by Peter Selinger 2001-2019
</metadata>
<g transform="translate(0.000000,84.000000) scale(0.100000,-0.100000)"
fill="#000000" stroke="none">
<path d="M432 788 c14 -76 20 -81 104 -76 89 4 104 15 104 79 l0 49 -109 0
-108 0 9 -52z"/>
<path d="M935 558 c-32 -143 -68 -190 -160 -205 -50 -8 -86 -43 -109 -108 -10
-27 -25 -68 -33 -91 -16 -44 -91 -130 -127 -144 -13 -5 72 -9 217 -9 l237 -1
0 320 c0 176 -2 320 -3 320 -2 0 -12 -37 -22 -82z"/>
<path d="M472 538 c-28 -28 3 -83 33 -58 8 7 15 20 15 29 0 17 -18 41 -30 41
-3 0 -11 -5 -18 -12z"/>
<path d="M0 37 c0 -35 2 -37 32 -37 l32 0 -30 32 c-16 18 -30 35 -31 37 -2 2
-3 -12 -3 -32z"/>
</g>
</svg>
