<?xml version="1.0" standalone="no"?>
<!DOCTYPE svg PUBLIC "-//W3C//DTD SVG 20010904//EN"
 "http://www.w3.org/TR/2001/REC-SVG-20010904/DTD/svg10.dtd">
<svg version="1.0" xmlns="http://www.w3.org/2000/svg"
 width="96.000000pt" height="84.000000pt" viewBox="0 0 96.000000 84.000000"
 preserveAspectRatio="xMidYMid meet">
<metadata>
Created by potrace 1.16, written by Peter Selinger 2001-2019
</metadata>
<g transform="translate(0.000000,84.000000) scale(0.100000,-0.100000)"
fill="#000000" stroke="none">
<path d="M420 817 c0 -46 31 -60 119 -54 92 6 135 23 139 55 3 22 2 22 -127
22 -131 0 -131 0 -131 -23z"/>
<path d="M460 491 c-15 -30 -12 -56 10 -76 19 -17 21 -17 40 0 22 20 27 64 8
83 -18 18 -46 14 -58 -7z"/>
<path d="M923 160 c-18 -19 -56 -62 -85 -95 l-52 -60 83 -3 c46 -2 85 -1 88 1
2 3 2 47 1 98 l-3 94 -32 -35z"/>
</g>
</svg>
