<?xml version="1.0" standalone="no"?>
<!DOCTYPE svg PUBLIC "-//W3C//DTD SVG 20010904//EN"
 "http://www.w3.org/TR/2001/REC-SVG-20010904/DTD/svg10.dtd">
<svg version="1.0" xmlns="http://www.w3.org/2000/svg"
 width="96.000000pt" height="84.000000pt" viewBox="0 0 96.000000 84.000000"
 preserveAspectRatio="xMidYMid meet">
<metadata>
Created by potrace 1.16, written by Peter Selinger 2001-2019
</metadata>
<g transform="translate(0.000000,84.000000) scale(0.100000,-0.100000)"
fill="#000000" stroke="none">
<path d="M0 420 l0 -420 280 0 280 0 -1 68 c0 37 -3 85 -7 107 -7 35 -12 41
-52 56 -80 30 -114 113 -65 159 13 12 22 27 19 32 -3 5 -2 7 3 6 4 -1 18 4 31
11 13 7 30 10 38 7 17 -7 18 5 2 23 -10 11 -10 14 0 18 6 3 12 11 12 19 0 8
-6 11 -15 8 -10 -4 -20 4 -29 27 -8 19 -49 70 -90 113 -42 44 -76 84 -76 89 0
5 -11 22 -25 39 -14 16 -25 36 -25 44 0 11 -26 14 -140 14 l-140 0 0 -420z"/>
<path d="M490 830 c0 -20 30 -22 88 -7 l57 15 -72 1 c-44 1 -73 -3 -73 -9z"/>
<path d="M947 703 c-11 -10 -8 -53 3 -53 6 0 10 14 10 30 0 31 -2 35 -13 23z"/>
<path d="M614 358 c-28 -13 -37 -59 -19 -95 8 -15 15 -36 15 -45 0 -9 4 -19 9
-22 11 -7 21 17 21 53 0 15 5 32 11 38 8 8 8 17 -1 32 -6 12 -8 26 -5 31 9 14
-8 18 -31 8z"/>
</g>
</svg>
