<?xml version="1.0" standalone="no"?>
<!DOCTYPE svg PUBLIC "-//W3C//DTD SVG 20010904//EN"
 "http://www.w3.org/TR/2001/REC-SVG-20010904/DTD/svg10.dtd">
<svg version="1.0" xmlns="http://www.w3.org/2000/svg"
 width="96.000000pt" height="84.000000pt" viewBox="0 0 96.000000 84.000000"
 preserveAspectRatio="xMidYMid meet">
<metadata>
Created by potrace 1.16, written by Peter Selinger 2001-2019
</metadata>
<g transform="translate(0.000000,84.000000) scale(0.100000,-0.100000)"
fill="#000000" stroke="none">
<path d="M460 376 c-6 -8 -10 -30 -9 -49 2 -20 -4 -45 -14 -60 -30 -45 -19
-100 23 -117 57 -24 94 33 55 84 -18 24 -19 47 -3 44 13 -3 20 37 12 62 -4 13
-6 13 -15 0 -9 -13 -10 -13 -6 0 5 17 -10 50 -22 50 -5 0 -14 -7 -21 -14z"/>
</g>
</svg>
