<?xml version="1.0" standalone="no"?>
<!DOCTYPE svg PUBLIC "-//W3C//DTD SVG 20010904//EN"
 "http://www.w3.org/TR/2001/REC-SVG-20010904/DTD/svg10.dtd">
<svg version="1.0" xmlns="http://www.w3.org/2000/svg"
 width="96.000000pt" height="84.000000pt" viewBox="0 0 96.000000 84.000000"
 preserveAspectRatio="xMidYMid meet">
<metadata>
Created by potrace 1.16, written by Peter Selinger 2001-2019
</metadata>
<g transform="translate(0.000000,84.000000) scale(0.100000,-0.100000)"
fill="#000000" stroke="none">
<path d="M460 385 c-7 -8 -10 -30 -8 -52 3 -26 -1 -48 -14 -68 -25 -42 -23
-81 7 -109 51 -48 103 3 72 70 -21 42 -21 44 -2 44 11 0 15 11 15 36 0 29 -3
34 -18 30 -14 -5 -17 0 -17 26 0 35 -16 46 -35 23z"/>
</g>
</svg>
