<?xml version="1.0" standalone="no"?>
<!DOCTYPE svg PUBLIC "-//W3C//DTD SVG 20010904//EN"
 "http://www.w3.org/TR/2001/REC-SVG-20010904/DTD/svg10.dtd">
<svg version="1.0" xmlns="http://www.w3.org/2000/svg"
 width="96.000000pt" height="84.000000pt" viewBox="0 0 96.000000 84.000000"
 preserveAspectRatio="xMidYMid meet">
<metadata>
Created by potrace 1.16, written by Peter Selinger 2001-2019
</metadata>
<g transform="translate(0.000000,84.000000) scale(0.100000,-0.100000)"
fill="#000000" stroke="none">
<path d="M460 395 c-7 -9 -10 -32 -8 -57 3 -30 -1 -52 -14 -73 -27 -45 -23
-86 11 -119 44 -42 66 -32 66 29 0 28 -4 60 -8 73 -6 16 -5 22 5 20 8 -2 14
10 16 35 2 21 -1 37 -7 37 -6 0 -11 -6 -11 -12 0 -7 -5 -5 -11 5 -8 13 -8 22
-1 29 8 8 8 17 1 30 -12 22 -23 23 -39 3z"/>
</g>
</svg>
