<?xml version="1.0" standalone="no"?>
<!DOCTYPE svg PUBLIC "-//W3C//DTD SVG 20010904//EN"
 "http://www.w3.org/TR/2001/REC-SVG-20010904/DTD/svg10.dtd">
<svg version="1.0" xmlns="http://www.w3.org/2000/svg"
 width="96.000000pt" height="84.000000pt" viewBox="0 0 96.000000 84.000000"
 preserveAspectRatio="xMidYMid meet">
<metadata>
Created by potrace 1.16, written by Peter Selinger 2001-2019
</metadata>
<g transform="translate(0.000000,84.000000) scale(0.100000,-0.100000)"
fill="#000000" stroke="none">
<path d="M461 406 c-7 -8 -11 -36 -10 -63 1 -29 -4 -61 -14 -80 -25 -48 -21
-83 14 -121 16 -17 36 -32 44 -32 18 0 29 87 16 123 -9 22 -8 27 4 27 11 0 15
12 15 41 0 31 -3 40 -14 36 -16 -6 -30 30 -15 39 10 6 -7 44 -20 44 -5 0 -14
-6 -20 -14z"/>
</g>
</svg>
