<?xml version="1.0" standalone="no"?>
<!DOCTYPE svg PUBLIC "-//W3C//DTD SVG 20010904//EN"
 "http://www.w3.org/TR/2001/REC-SVG-20010904/DTD/svg10.dtd">
<svg version="1.0" xmlns="http://www.w3.org/2000/svg"
 width="96.000000pt" height="84.000000pt" viewBox="0 0 96.000000 84.000000"
 preserveAspectRatio="xMidYMid meet">
<metadata>
Created by potrace 1.16, written by Peter Selinger 2001-2019
</metadata>
<g transform="translate(0.000000,84.000000) scale(0.100000,-0.100000)"
fill="#000000" stroke="none">
<path d="M456 421 c-8 -12 -11 -100 -4 -107 4 -3 -5 -30 -19 -60 -24 -52 -24
-54 -7 -84 10 -16 21 -30 25 -30 4 0 9 -9 12 -20 8 -30 49 -27 46 3 -1 12 2
30 6 40 4 10 5 35 2 57 -3 28 -1 40 9 44 14 5 13 28 -2 76 -5 13 -6 13 -15 0
-7 -11 -9 -4 -8 25 1 22 1 46 0 53 -1 14 -37 17 -45 3z"/>
</g>
</svg>
