<?xml version="1.0" standalone="no"?>
<!DOCTYPE svg PUBLIC "-//W3C//DTD SVG 20010904//EN"
 "http://www.w3.org/TR/2001/REC-SVG-20010904/DTD/svg10.dtd">
<svg version="1.0" xmlns="http://www.w3.org/2000/svg"
 width="96.000000pt" height="84.000000pt" viewBox="0 0 96.000000 84.000000"
 preserveAspectRatio="xMidYMid meet">
<metadata>
Created by potrace 1.16, written by Peter Selinger 2001-2019
</metadata>
<g transform="translate(0.000000,84.000000) scale(0.100000,-0.100000)"
fill="#000000" stroke="none">
<path d="M0 420 l0 -420 440 0 440 0 0 39 c0 31 4 38 18 37 15 -1 17 8 14 84
-4 103 -21 299 -28 321 -3 11 7 24 32 38 l37 22 -20 22 c-19 21 -53 183 -53
252 l0 25 -440 0 -440 0 0 -420z m773 -124 c9 -35 17 -68 17 -73 -1 -15 -37
72 -43 105 -12 58 8 34 26 -32z"/>
</g>
</svg>
