<?xml version="1.0" standalone="no"?>
<!DOCTYPE svg PUBLIC "-//W3C//DTD SVG 20010904//EN"
 "http://www.w3.org/TR/2001/REC-SVG-20010904/DTD/svg10.dtd">
<svg version="1.0" xmlns="http://www.w3.org/2000/svg"
 width="96.000000pt" height="84.000000pt" viewBox="0 0 96.000000 84.000000"
 preserveAspectRatio="xMidYMid meet">
<metadata>
Created by potrace 1.16, written by Peter Selinger 2001-2019
</metadata>
<g transform="translate(0.000000,84.000000) scale(0.100000,-0.100000)"
fill="#000000" stroke="none">
<path d="M0 420 l0 -420 291 0 292 0 -7 88 c-7 86 -22 122 -52 122 -26 0 -61
22 -77 50 -28 47 -22 84 20 125 20 19 43 35 51 35 12 0 12 2 1 17 -11 13 -11
17 -1 20 20 7 14 33 -8 33 -13 0 -24 10 -30 24 -5 14 -43 59 -84 100 -41 41
-77 84 -81 96 -3 11 -11 20 -16 20 -15 0 -54 72 -51 92 3 16 -8 18 -122 18
l-126 0 0 -420z"/>
<path d="M470 815 c0 -14 7 -28 16 -32 25 -9 120 16 139 37 18 20 17 20 -68
20 -86 0 -87 0 -87 -25z"/>
<path d="M924 665 c-8 -32 1 -55 21 -55 11 0 15 11 15 40 0 46 -25 57 -36 15z"/>
<path d="M609 338 c0 -2 -2 -12 -3 -23 -2 -11 -5 -24 -6 -30 -2 -5 1 -21 7
-35 6 -14 13 -32 16 -40 3 -9 6 -5 6 10 1 15 6 31 12 37 7 7 8 20 3 34 -4 13
-7 30 -6 37 2 9 -26 19 -29 10z"/>
</g>
</svg>
