<?xml version="1.0" standalone="no"?>
<!DOCTYPE svg PUBLIC "-//W3C//DTD SVG 20010904//EN"
 "http://www.w3.org/TR/2001/REC-SVG-20010904/DTD/svg10.dtd">
<svg version="1.0" xmlns="http://www.w3.org/2000/svg"
 width="96.000000pt" height="84.000000pt" viewBox="0 0 96.000000 84.000000"
 preserveAspectRatio="xMidYMid meet">
<metadata>
Created by potrace 1.16, written by Peter Selinger 2001-2019
</metadata>
<g transform="translate(0.000000,84.000000) scale(0.100000,-0.100000)"
fill="#000000" stroke="none">
<path d="M460 445 c-7 -9 -12 -43 -12 -83 0 -42 -7 -85 -19 -115 -25 -62 -24
-73 6 -103 14 -14 25 -33 25 -43 0 -23 25 -45 41 -36 6 4 9 20 7 34 -2 16 2
33 10 41 10 9 13 29 10 67 -3 30 -1 56 3 58 4 3 0 31 -8 63 -9 31 -15 68 -14
81 1 24 -14 51 -29 51 -4 0 -13 -7 -20 -15z"/>
</g>
</svg>
