<?xml version="1.0" standalone="no"?>
<!DOCTYPE svg PUBLIC "-//W3C//DTD SVG 20010904//EN"
 "http://www.w3.org/TR/2001/REC-SVG-20010904/DTD/svg10.dtd">
<svg version="1.0" xmlns="http://www.w3.org/2000/svg"
 width="96.000000pt" height="84.000000pt" viewBox="0 0 96.000000 84.000000"
 preserveAspectRatio="xMidYMid meet">
<metadata>
Created by potrace 1.16, written by Peter Selinger 2001-2019
</metadata>
<g transform="translate(0.000000,84.000000) scale(0.100000,-0.100000)"
fill="#000000" stroke="none">
<path d="M460 454 c-6 -14 -7 -30 -4 -36 4 -6 2 -13 -4 -17 -6 -4 -7 -22 -2
-48 6 -35 3 -52 -16 -94 -33 -69 -32 -116 1 -129 18 -7 25 -17 25 -37 0 -41
13 -56 40 -48 17 6 21 12 17 33 -3 17 2 39 15 60 20 33 20 36 5 100 -9 37 -17
99 -17 137 -1 39 -4 78 -7 88 -7 26 -42 21 -53 -9z"/>
</g>
</svg>
