<?xml version="1.0" standalone="no"?>
<!DOCTYPE svg PUBLIC "-//W3C//DTD SVG 20010904//EN"
 "http://www.w3.org/TR/2001/REC-SVG-20010904/DTD/svg10.dtd">
<svg version="1.0" xmlns="http://www.w3.org/2000/svg"
 width="96.000000pt" height="84.000000pt" viewBox="0 0 96.000000 84.000000"
 preserveAspectRatio="xMidYMid meet">
<metadata>
Created by potrace 1.16, written by Peter Selinger 2001-2019
</metadata>
<g transform="translate(0.000000,84.000000) scale(0.100000,-0.100000)"
fill="#000000" stroke="none">
<path d="M470 505 c-7 -8 -9 -26 -5 -44 3 -16 2 -32 -3 -34 -4 -3 -5 -31 -2
-62 5 -47 2 -67 -18 -113 -13 -32 -27 -73 -30 -92 -4 -29 0 -38 28 -61 29 -25
32 -32 27 -63 -6 -35 -5 -36 28 -36 37 0 49 17 39 56 -5 19 0 29 20 45 32 25
33 54 6 132 -14 40 -22 91 -24 161 -2 57 -7 109 -10 115 -10 16 -41 14 -56 -4z"/>
</g>
</svg>
