<?xml version="1.0" standalone="no"?>
<!DOCTYPE svg PUBLIC "-//W3C//DTD SVG 20010904//EN"
 "http://www.w3.org/TR/2001/REC-SVG-20010904/DTD/svg10.dtd">
<svg version="1.0" xmlns="http://www.w3.org/2000/svg"
 width="96.000000pt" height="84.000000pt" viewBox="0 0 96.000000 84.000000"
 preserveAspectRatio="xMidYMid meet">
<metadata>
Created by potrace 1.16, written by Peter Selinger 2001-2019
</metadata>
<g transform="translate(0.000000,84.000000) scale(0.100000,-0.100000)"
fill="#000000" stroke="none">
<path d="M482 548 c-15 -15 -15 -43 -1 -71 9 -16 9 -22 0 -25 -6 -2 -11 -10
-11 -17 0 -7 -4 -15 -10 -17 -5 -1 -10 -43 -11 -93 -1 -62 -7 -105 -20 -138
-26 -66 -24 -81 16 -121 19 -20 35 -42 35 -51 0 -24 28 -18 33 7 l4 23 2 -22
c0 -14 7 -23 17 -23 12 0 15 7 12 25 -4 20 -1 26 19 31 50 13 54 56 16 163
-20 58 -26 92 -24 143 1 37 -1 73 -5 80 -4 7 -7 30 -5 51 4 57 -34 88 -67 55z"/>
</g>
</svg>
