<?xml version="1.0" standalone="no"?>
<!DOCTYPE svg PUBLIC "-//W3C//DTD SVG 20010904//EN"
 "http://www.w3.org/TR/2001/REC-SVG-20010904/DTD/svg10.dtd">
<svg version="1.0" xmlns="http://www.w3.org/2000/svg"
 width="96.000000pt" height="84.000000pt" viewBox="0 0 96.000000 84.000000"
 preserveAspectRatio="xMidYMid meet">
<metadata>
Created by potrace 1.16, written by Peter Selinger 2001-2019
</metadata>
<g transform="translate(0.000000,84.000000) scale(0.100000,-0.100000)"
fill="#000000" stroke="none">
<path d="M490 590 c-25 -25 -25 -37 -1 -77 17 -28 18 -33 5 -44 -8 -7 -13 -18
-10 -24 2 -7 0 -18 -5 -26 -7 -11 -9 -9 -9 8 0 25 -15 39 -25 23 -14 -23 -12
-174 3 -197 12 -20 11 -30 -8 -88 -23 -68 -21 -100 6 -143 13 -19 23 -22 80
-22 76 0 97 9 113 48 11 25 7 44 -29 153 -36 108 -41 131 -35 179 3 30 6 60 5
65 0 6 -1 36 -3 67 -4 85 -44 121 -87 78z"/>
</g>
</svg>
