<?xml version="1.0" standalone="no"?>
<!DOCTYPE svg PUBLIC "-//W3C//DTD SVG 20010904//EN"
 "http://www.w3.org/TR/2001/REC-SVG-20010904/DTD/svg10.dtd">
<svg version="1.0" xmlns="http://www.w3.org/2000/svg"
 width="96.000000pt" height="84.000000pt" viewBox="0 0 96.000000 84.000000"
 preserveAspectRatio="xMidYMid meet">
<metadata>
Created by potrace 1.16, written by Peter Selinger 2001-2019
</metadata>
<g transform="translate(0.000000,84.000000) scale(0.100000,-0.100000)"
fill="#000000" stroke="none">
<path d="M523 669 c-24 -9 -43 -38 -43 -64 0 -10 13 -34 30 -55 24 -30 27 -39
15 -44 -8 -3 -20 -26 -26 -51 -14 -54 -33 -54 -37 -1 -3 29 -7 36 -20 34 -14
-3 -18 -21 -23 -113 -5 -100 -3 -112 14 -130 14 -14 21 -16 24 -7 5 13 33 17
33 5 0 -5 -14 -57 -30 -118 -16 -60 -30 -113 -30 -117 0 -5 61 -8 135 -8 l135
0 -6 33 c-6 34 -43 141 -77 222 -22 52 -25 97 -12 215 10 94 6 140 -12 171
-19 31 -39 40 -70 28z m-23 -351 c0 -49 -5 -47 -13 5 -3 20 -2 37 4 37 5 0 9
-19 9 -42z"/>
</g>
</svg>
