<?xml version="1.0" standalone="no"?>
<!DOCTYPE svg PUBLIC "-//W3C//DTD SVG 20010904//EN"
 "http://www.w3.org/TR/2001/REC-SVG-20010904/DTD/svg10.dtd">
<svg version="1.0" xmlns="http://www.w3.org/2000/svg"
 width="96.000000pt" height="84.000000pt" viewBox="0 0 96.000000 84.000000"
 preserveAspectRatio="xMidYMid meet">
<metadata>
Created by potrace 1.16, written by Peter Selinger 2001-2019
</metadata>
<g transform="translate(0.000000,84.000000) scale(0.100000,-0.100000)"
fill="#000000" stroke="none">
<path d="M533 720 c-12 -5 -26 -18 -32 -29 -16 -29 -14 -81 4 -87 8 -4 13 -10
10 -14 -3 -5 6 -17 20 -28 23 -19 24 -20 6 -36 -20 -18 -45 -91 -36 -106 11
-18 -15 -10 -36 11 -12 12 -18 27 -15 36 4 9 4 24 1 34 -5 15 -10 17 -26 8
-18 -9 -20 -20 -18 -102 1 -51 -3 -103 -8 -117 -9 -21 -6 -29 18 -52 31 -31
41 -35 33 -13 -4 11 0 15 16 15 22 0 22 2 15 65 -4 42 -3 65 4 65 39 0 25
-135 -33 -323 l-15 -47 146 0 145 0 -5 27 c-5 28 -57 161 -100 257 -25 56 -29
145 -8 170 9 10 11 28 7 47 -3 17 -1 40 5 51 18 34 1 118 -31 150 -31 30 -34
31 -67 18z"/>
</g>
</svg>
