<?xml version="1.0" standalone="no"?>
<!DOCTYPE svg PUBLIC "-//W3C//DTD SVG 20010904//EN"
 "http://www.w3.org/TR/2001/REC-SVG-20010904/DTD/svg10.dtd">
<svg version="1.0" xmlns="http://www.w3.org/2000/svg"
 width="96.000000pt" height="84.000000pt" viewBox="0 0 96.000000 84.000000"
 preserveAspectRatio="xMidYMid meet">
<metadata>
Created by potrace 1.16, written by Peter Selinger 2001-2019
</metadata>
<g transform="translate(0.000000,84.000000) scale(0.100000,-0.100000)"
fill="#000000" stroke="none">
<path d="M523 738 c-34 -16 -47 -103 -18 -114 8 -4 15 -12 15 -19 0 -16 35
-47 43 -38 4 3 7 2 7 -4 0 -5 -11 -20 -24 -32 -16 -15 -27 -39 -31 -72 -4 -27
-8 -49 -10 -49 -2 0 -16 5 -30 12 -23 10 -26 17 -23 52 3 35 0 41 -16 41 -26
0 -39 -51 -34 -130 3 -33 -1 -79 -8 -102 -10 -32 -10 -43 -1 -43 6 0 21 -12
34 -27 16 -21 22 -24 23 -12 0 9 9 19 21 22 19 5 20 10 13 77 -7 72 -7 72 15
59 13 -9 21 -24 21 -41 0 -40 -29 -200 -45 -256 -8 -26 -15 -50 -15 -54 0 -5
68 -8 150 -8 l150 0 -24 48 c-13 26 -35 80 -50 119 -14 40 -35 92 -47 115 -28
55 -32 154 -7 172 14 11 16 19 7 49 -8 29 -7 41 7 62 15 23 16 32 4 81 -23 94
-63 123 -127 92z"/>
</g>
</svg>
