<?xml version="1.0" standalone="no"?>
<!DOCTYPE svg PUBLIC "-//W3C//DTD SVG 20010904//EN"
 "http://www.w3.org/TR/2001/REC-SVG-20010904/DTD/svg10.dtd">
<svg version="1.0" xmlns="http://www.w3.org/2000/svg"
 width="96.000000pt" height="84.000000pt" viewBox="0 0 96.000000 84.000000"
 preserveAspectRatio="xMidYMid meet">
<metadata>
Created by potrace 1.16, written by Peter Selinger 2001-2019
</metadata>
<g transform="translate(0.000000,84.000000) scale(0.100000,-0.100000)"
fill="#000000" stroke="none">
<path d="M523 738 c-34 -16 -47 -103 -18 -114 8 -4 15 -12 15 -19 0 -16 35
-47 43 -38 4 3 7 2 7 -2 0 -5 -12 -21 -26 -36 -19 -20 -26 -38 -27 -78 -1 -28
-2 -51 -3 -51 0 0 -15 7 -33 16 -28 14 -31 20 -29 55 2 45 -6 57 -30 43 -19
-12 -33 -111 -22 -154 4 -14 1 -45 -6 -69 -13 -43 -12 -44 18 -72 34 -32 43
-36 35 -15 -4 10 2 16 16 18 21 3 22 7 18 72 -2 53 0 67 10 64 29 -10 33 -35
20 -120 -7 -46 -21 -116 -32 -156 -10 -40 -19 -74 -19 -77 0 -3 68 -5 150 -5
l150 0 -28 58 c-16 31 -37 82 -47 112 -10 30 -29 78 -43 105 -32 62 -37 159
-10 179 14 11 16 19 7 49 -8 29 -7 41 7 62 15 23 16 32 4 81 -23 94 -63 123
-127 92z"/>
</g>
</svg>
