<?xml version="1.0" standalone="no"?>
<!DOCTYPE svg PUBLIC "-//W3C//DTD SVG 20010904//EN"
 "http://www.w3.org/TR/2001/REC-SVG-20010904/DTD/svg10.dtd">
<svg version="1.0" xmlns="http://www.w3.org/2000/svg"
 width="96.000000pt" height="84.000000pt" viewBox="0 0 96.000000 84.000000"
 preserveAspectRatio="xMidYMid meet">
<metadata>
Created by potrace 1.16, written by Peter Selinger 2001-2019
</metadata>
<g transform="translate(0.000000,84.000000) scale(0.100000,-0.100000)"
fill="#000000" stroke="none">
<path d="M518 736 c-9 -7 -21 -31 -27 -55 -9 -40 -8 -43 33 -85 l42 -44 -23
-26 c-13 -16 -25 -47 -29 -75 -6 -49 -6 -49 -35 -39 -31 10 -32 13 -33 67 -1
36 -12 46 -35 32 -9 -6 -14 -38 -16 -112 -2 -57 -6 -117 -9 -134 -5 -26 0 -34
31 -60 23 -19 35 -24 31 -13 -5 11 0 18 14 21 19 5 20 11 16 76 -3 39 -2 71 2
71 4 0 15 -9 25 -20 17 -19 18 -27 6 -103 -7 -45 -21 -115 -32 -155 -10 -40
-19 -74 -19 -77 0 -3 65 -5 145 -5 94 0 145 4 145 10 0 6 -9 28 -20 50 -11 21
-33 76 -50 121 -16 45 -37 94 -47 108 -23 36 -24 149 0 166 13 10 15 18 6 48
-8 29 -7 41 7 62 15 23 16 32 4 81 -18 74 -42 104 -83 104 -18 0 -40 -6 -49
-14z"/>
</g>
</svg>
