<?xml version="1.0" standalone="no"?>
<!DOCTYPE svg PUBLIC "-//W3C//DTD SVG 20010904//EN"
 "http://www.w3.org/TR/2001/REC-SVG-20010904/DTD/svg10.dtd">
<svg version="1.0" xmlns="http://www.w3.org/2000/svg"
 width="96.000000pt" height="84.000000pt" viewBox="0 0 96.000000 84.000000"
 preserveAspectRatio="xMidYMid meet">
<metadata>
Created by potrace 1.16, written by Peter Selinger 2001-2019
</metadata>
<g transform="translate(0.000000,84.000000) scale(0.100000,-0.100000)"
fill="#000000" stroke="none">
<path d="M0 420 l0 -420 296 0 296 0 -6 38 c-3 20 -6 58 -6 83 1 51 -8 62 -65
81 -41 14 -69 46 -79 90 -4 19 1 34 19 56 13 16 21 33 17 37 -4 5 -2 5 5 1 16
-9 46 51 30 61 -7 4 -20 6 -30 5 -12 -2 -21 6 -28 27 -6 17 -23 38 -39 48 -86
55 -131 90 -136 105 -3 10 -11 18 -18 18 -20 0 -59 47 -62 75 -1 14 2 25 7 25
6 0 7 5 4 10 -9 15 22 12 57 -6 29 -15 31 -15 23 2 -4 11 -13 34 -19 52 l-11
32 -127 0 -128 0 0 -420z"/>
<path d="M420 814 c-12 -30 -13 -64 -2 -81 6 -10 19 -10 60 1 29 7 54 15 55
17 1 2 17 23 35 47 l33 42 -86 0 c-83 0 -86 -1 -95 -26z"/>
<path d="M926 808 c16 -18 30 -35 32 -37 1 -2 2 12 2 32 0 35 -2 37 -32 37
l-32 0 30 -32z"/>
<path d="M870 651 c0 -45 2 -49 28 -55 15 -4 35 -9 45 -12 14 -4 17 1 17 29 0
37 -18 59 -63 76 l-27 11 0 -49z"/>
<path d="M610 311 c0 -10 -2 -25 -5 -33 -3 -7 -1 -20 5 -28 7 -12 12 -12 22
-2 10 10 10 16 0 33 -7 11 -10 24 -7 29 3 5 1 11 -5 15 -5 3 -10 -3 -10 -14z"/>
</g>
</svg>
