<?xml version="1.0" standalone="no"?>
<!DOCTYPE svg PUBLIC "-//W3C//DTD SVG 20010904//EN"
 "http://www.w3.org/TR/2001/REC-SVG-20010904/DTD/svg10.dtd">
<svg version="1.0" xmlns="http://www.w3.org/2000/svg"
 width="96.000000pt" height="84.000000pt" viewBox="0 0 96.000000 84.000000"
 preserveAspectRatio="xMidYMid meet">
<metadata>
Created by potrace 1.16, written by Peter Selinger 2001-2019
</metadata>
<g transform="translate(0.000000,84.000000) scale(0.100000,-0.100000)"
fill="#000000" stroke="none">
<path d="M512 730 c-11 -11 -24 -36 -28 -56 -5 -30 -3 -40 13 -53 11 -9 23
-24 27 -34 3 -11 15 -21 27 -24 l20 -6 -21 -22 c-23 -24 -40 -75 -40 -117 l0
-28 -36 17 c-33 16 -36 20 -31 54 6 48 -4 65 -30 50 -16 -8 -21 -24 -26 -78
-3 -37 -1 -76 3 -88 4 -12 3 -42 -2 -66 -10 -43 -9 -47 16 -72 31 -31 36 -33
36 -12 0 9 9 15 21 15 21 0 21 3 15 70 -8 73 -2 84 29 50 17 -19 17 -24 1
-122 -10 -57 -24 -125 -32 -152 -8 -27 -14 -51 -14 -53 0 -2 66 -3 146 -3 113
0 145 3 141 13 -4 6 -22 52 -42 102 -20 50 -48 117 -63 149 -33 72 -37 160 -8
181 15 11 16 19 7 50 -8 28 -6 42 7 64 14 25 14 35 2 86 -18 75 -42 105 -84
105 -18 0 -41 -9 -54 -20z"/>
</g>
</svg>
