<?xml version="1.0" standalone="no"?>
<!DOCTYPE svg PUBLIC "-//W3C//DTD SVG 20010904//EN"
 "http://www.w3.org/TR/2001/REC-SVG-20010904/DTD/svg10.dtd">
<svg version="1.0" xmlns="http://www.w3.org/2000/svg"
 width="96.000000pt" height="84.000000pt" viewBox="0 0 96.000000 84.000000"
 preserveAspectRatio="xMidYMid meet">
<metadata>
Created by potrace 1.16, written by Peter Selinger 2001-2019
</metadata>
<g transform="translate(0.000000,84.000000) scale(0.100000,-0.100000)"
fill="#000000" stroke="none">
<path d="M510 732 c-13 -10 -23 -33 -27 -58 -4 -35 -2 -44 18 -58 13 -9 20
-16 15 -16 -5 0 -1 -9 9 -20 10 -11 25 -20 33 -20 12 0 10 -5 -6 -23 -25 -27
-42 -76 -42 -124 l0 -31 -32 15 c-43 21 -49 31 -42 70 5 25 2 34 -11 39 -31
12 -40 -13 -41 -124 -1 -59 -4 -120 -8 -137 -5 -26 0 -34 31 -60 24 -19 35
-24 31 -13 -5 12 0 18 19 23 24 6 25 7 18 68 -4 34 -8 65 -9 68 -4 19 19 11
36 -11 19 -26 19 -28 -2 -144 -12 -65 -26 -130 -31 -143 -5 -13 -9 -26 -9 -29
0 -2 65 -4 145 -4 l146 0 -16 30 c-9 17 -29 68 -46 115 -16 46 -38 99 -48 117
-35 60 -35 167 0 188 7 5 8 18 1 44 -9 29 -7 43 6 65 14 25 14 36 3 84 -16 74
-43 107 -86 107 -18 0 -43 -8 -55 -18z"/>
</g>
</svg>
