<?xml version="1.0" standalone="no"?>
<!DOCTYPE svg PUBLIC "-//W3C//DTD SVG 20010904//EN"
 "http://www.w3.org/TR/2001/REC-SVG-20010904/DTD/svg10.dtd">
<svg version="1.0" xmlns="http://www.w3.org/2000/svg"
 width="96.000000pt" height="84.000000pt" viewBox="0 0 96.000000 84.000000"
 preserveAspectRatio="xMidYMid meet">
<metadata>
Created by potrace 1.16, written by Peter Selinger 2001-2019
</metadata>
<g transform="translate(0.000000,84.000000) scale(0.100000,-0.100000)"
fill="#000000" stroke="none">
<path d="M523 744 c-17 -9 -34 -25 -37 -37 -11 -41 -6 -85 9 -91 8 -3 15 -12
15 -20 0 -8 12 -23 27 -34 l28 -20 -21 -24 c-26 -29 -45 -96 -37 -127 l6 -23
-40 21 c-45 22 -58 43 -43 70 6 12 5 24 -3 35 -11 14 -15 15 -31 3 -17 -12
-19 -29 -21 -139 -1 -69 -5 -130 -9 -137 -5 -7 6 -24 24 -41 37 -34 40 -36 40
-15 0 9 9 15 21 15 21 0 22 3 15 80 l-7 81 25 -16 c13 -9 26 -24 29 -34 4 -17
-24 -192 -42 -257 l-9 -34 140 0 c130 0 140 1 133 18 -4 9 -23 60 -42 112 -19
52 -43 109 -52 125 -34 56 -34 165 0 186 9 5 9 18 2 48 -8 31 -8 44 3 58 39
52 -21 214 -80 213 -6 0 -25 -7 -43 -16z"/>
</g>
</svg>
