<?xml version="1.0" standalone="no"?>
<!DOCTYPE svg PUBLIC "-//W3C//DTD SVG 20010904//EN"
 "http://www.w3.org/TR/2001/REC-SVG-20010904/DTD/svg10.dtd">
<svg version="1.0" xmlns="http://www.w3.org/2000/svg"
 width="96.000000pt" height="84.000000pt" viewBox="0 0 96.000000 84.000000"
 preserveAspectRatio="xMidYMid meet">
<metadata>
Created by potrace 1.16, written by Peter Selinger 2001-2019
</metadata>
<g transform="translate(0.000000,84.000000) scale(0.100000,-0.100000)"
fill="#000000" stroke="none">
<path d="M518 743 c-17 -11 -31 -32 -39 -61 -11 -41 -11 -47 7 -62 10 -9 24
-25 30 -35 6 -11 20 -25 32 -31 l21 -10 -25 -25 c-27 -27 -38 -63 -38 -120 l0
-36 -41 18 c-38 17 -40 20 -40 63 -1 52 -9 65 -33 50 -22 -14 -39 -146 -24
-186 6 -18 6 -41 -1 -71 -9 -43 -8 -47 19 -76 31 -33 47 -40 38 -17 -3 8 4 16
20 20 29 7 31 23 17 108 -9 53 3 63 34 28 14 -16 17 -30 12 -67 -9 -68 -24
-162 -33 -200 l-6 -33 134 0 135 0 -34 93 c-18 50 -45 115 -58 143 -31 63 -35
163 -8 189 14 15 15 23 5 59 -8 32 -8 44 2 56 23 27 25 47 9 109 -25 99 -73
132 -135 94z"/>
</g>
</svg>
