<?xml version="1.0" standalone="no"?>
<!DOCTYPE svg PUBLIC "-//W3C//DTD SVG 20010904//EN"
 "http://www.w3.org/TR/2001/REC-SVG-20010904/DTD/svg10.dtd">
<svg version="1.0" xmlns="http://www.w3.org/2000/svg"
 width="96.000000pt" height="84.000000pt" viewBox="0 0 96.000000 84.000000"
 preserveAspectRatio="xMidYMid meet">
<metadata>
Created by potrace 1.16, written by Peter Selinger 2001-2019
</metadata>
<g transform="translate(0.000000,84.000000) scale(0.100000,-0.100000)"
fill="#000000" stroke="none">
<path d="M514 748 c-20 -9 -44 -65 -44 -101 0 -9 8 -22 18 -29 9 -7 23 -25 29
-40 8 -18 20 -28 33 -28 19 0 18 -3 -11 -39 -27 -34 -31 -48 -33 -100 0 -34
-2 -61 -3 -61 -9 0 -80 37 -86 45 -4 6 -6 25 -3 43 3 18 3 39 0 46 -8 22 -44
6 -51 -22 -5 -23 -7 -151 -2 -197 1 -11 -1 -38 -5 -60 -7 -38 -5 -42 30 -69
25 -20 35 -24 31 -13 -5 12 -1 17 12 17 26 0 41 22 36 51 -13 67 -17 119 -8
119 5 0 20 -11 33 -25 l23 -25 -17 -109 c-10 -60 -20 -119 -23 -130 -5 -21 -2
-21 126 -21 72 0 131 2 131 5 0 14 -74 204 -87 225 -10 14 -18 54 -21 96 -4
63 -2 74 16 89 18 16 19 21 8 60 -12 37 -11 44 6 64 22 28 22 43 3 117 -24 93
-74 125 -141 92z"/>
</g>
</svg>
