<?xml version="1.0" standalone="no"?>
<!DOCTYPE svg PUBLIC "-//W3C//DTD SVG 20010904//EN"
 "http://www.w3.org/TR/2001/REC-SVG-20010904/DTD/svg10.dtd">
<svg version="1.0" xmlns="http://www.w3.org/2000/svg"
 width="96.000000pt" height="84.000000pt" viewBox="0 0 96.000000 84.000000"
 preserveAspectRatio="xMidYMid meet">
<metadata>
Created by potrace 1.16, written by Peter Selinger 2001-2019
</metadata>
<g transform="translate(0.000000,84.000000) scale(0.100000,-0.100000)"
fill="#000000" stroke="none">
<path d="M523 754 c-51 -26 -71 -110 -32 -138 12 -8 19 -19 15 -24 -8 -13 40
-56 53 -47 19 11 12 -3 -19 -39 -25 -28 -32 -46 -37 -100 -5 -62 -14 -79 -28
-57 -3 5 -18 12 -34 16 -33 7 -48 43 -32 74 16 28 -9 57 -36 42 -18 -9 -22
-24 -28 -100 -5 -60 -3 -96 4 -110 9 -15 9 -32 1 -59 -13 -49 -13 -82 2 -82 6
0 22 -10 35 -22 18 -17 23 -18 23 -6 0 9 11 19 25 22 29 7 31 29 15 116 -6 29
-8 55 -6 57 2 3 19 -9 36 -24 l33 -29 -17 -100 c-10 -54 -19 -109 -22 -121 -4
-23 -4 -23 126 -23 l129 0 -30 88 c-17 48 -40 102 -51 120 -13 20 -22 58 -26
98 -4 56 -2 69 17 95 20 26 21 33 10 69 -10 34 -10 43 4 58 33 36 13 163 -33
212 -32 34 -51 37 -97 14z"/>
</g>
</svg>
