<?xml version="1.0" standalone="no"?>
<!DOCTYPE svg PUBLIC "-//W3C//DTD SVG 20010904//EN"
 "http://www.w3.org/TR/2001/REC-SVG-20010904/DTD/svg10.dtd">
<svg version="1.0" xmlns="http://www.w3.org/2000/svg"
 width="96.000000pt" height="84.000000pt" viewBox="0 0 96.000000 84.000000"
 preserveAspectRatio="xMidYMid meet">
<metadata>
Created by potrace 1.16, written by Peter Selinger 2001-2019
</metadata>
<g transform="translate(0.000000,84.000000) scale(0.100000,-0.100000)"
fill="#000000" stroke="none">
<path d="M514 757 c-44 -22 -58 -116 -22 -141 12 -9 19 -19 15 -23 -10 -9 33
-53 52 -53 10 0 7 -8 -12 -28 -33 -34 -59 -116 -51 -159 l6 -32 -50 21 c-54
23 -67 44 -52 84 5 13 7 31 4 39 -7 18 -38 20 -52 2 -16 -19 -27 -189 -13
-214 8 -16 8 -36 -1 -79 -9 -45 -9 -59 1 -62 7 -2 24 -15 38 -28 30 -28 37
-30 29 -8 -4 11 3 18 25 26 31 10 31 12 24 57 -20 136 -20 125 4 112 39 -22
51 -51 40 -106 -5 -27 -13 -76 -18 -107 l-8 -58 124 0 c67 0 123 4 123 8 0 19
-39 120 -66 172 -21 42 -28 69 -28 115 -1 69 10 119 24 110 13 -8 13 21 0 64
-8 28 -6 38 10 59 11 13 20 35 20 48 0 47 -24 130 -47 162 -20 27 -30 32 -61
31 -20 -1 -47 -6 -58 -12z"/>
</g>
</svg>
