<?xml version="1.0" standalone="no"?>
<!DOCTYPE svg PUBLIC "-//W3C//DTD SVG 20010904//EN"
 "http://www.w3.org/TR/2001/REC-SVG-20010904/DTD/svg10.dtd">
<svg version="1.0" xmlns="http://www.w3.org/2000/svg"
 width="96.000000pt" height="84.000000pt" viewBox="0 0 96.000000 84.000000"
 preserveAspectRatio="xMidYMid meet">
<metadata>
Created by potrace 1.16, written by Peter Selinger 2001-2019
</metadata>
<g transform="translate(0.000000,84.000000) scale(0.100000,-0.100000)"
fill="#000000" stroke="none">
<path d="M518 757 c-34 -32 -53 -89 -38 -117 6 -11 15 -20 21 -20 6 0 9 -6 6
-12 -6 -19 33 -70 49 -64 23 9 16 -11 -17 -48 -33 -38 -41 -64 -43 -138 0 -27
-1 -48 -2 -48 -1 0 -23 9 -48 21 -50 22 -70 52 -54 82 13 24 1 57 -21 57 -28
0 -38 -19 -47 -95 -9 -78 -7 -121 8 -148 6 -12 5 -37 -3 -73 l-12 -55 34 -29
c37 -32 54 -38 46 -16 -4 9 4 16 22 19 16 3 31 12 33 19 3 7 -1 49 -9 92 -7
43 -12 80 -10 82 2 2 18 -9 37 -24 33 -28 33 -29 26 -88 -4 -32 -10 -80 -15
-107 l-8 -47 125 0 124 0 -6 27 c-4 16 -24 66 -46 113 -21 47 -41 98 -45 114
-9 42 5 115 26 135 17 16 18 22 6 61 -12 41 -11 45 11 67 22 22 24 29 18 91
-4 37 -12 82 -17 99 -22 69 -102 95 -151 50z"/>
</g>
</svg>
