<?xml version="1.0" standalone="no"?>
<!DOCTYPE svg PUBLIC "-//W3C//DTD SVG 20010904//EN"
 "http://www.w3.org/TR/2001/REC-SVG-20010904/DTD/svg10.dtd">
<svg version="1.0" xmlns="http://www.w3.org/2000/svg"
 width="96.000000pt" height="84.000000pt" viewBox="0 0 96.000000 84.000000"
 preserveAspectRatio="xMidYMid meet">
<metadata>
Created by potrace 1.16, written by Peter Selinger 2001-2019
</metadata>
<g transform="translate(0.000000,84.000000) scale(0.100000,-0.100000)"
fill="#000000" stroke="none">
<path d="M555 783 c-23 -6 -40 -26 -60 -72 -14 -31 -14 -37 2 -60 9 -14 18
-33 18 -41 4 -36 18 -60 36 -60 29 0 23 -24 -15 -64 -34 -37 -37 -47 -40 -137
-1 -54 2 -53 -66 -27 -19 7 -38 18 -42 23 -11 15 -10 63 2 70 10 6 -7 55 -19
55 -20 0 -51 -34 -51 -57 0 -14 -5 -53 -11 -87 -10 -52 -9 -67 5 -100 14 -34
15 -48 4 -100 -9 -46 -9 -61 1 -64 6 -2 25 -15 40 -28 33 -28 43 -30 35 -9 -4
11 4 19 26 27 36 12 35 3 14 152 l-7 49 37 -28 c41 -31 43 -43 22 -153 l-14
-72 125 0 c144 0 138 -11 76 120 -23 50 -37 95 -40 136 -6 66 11 139 29 128
12 -7 6 64 -8 99 -3 10 -3 17 2 16 23 -4 33 3 42 29 11 33 0 178 -16 209 -24
45 -68 61 -127 46z"/>
</g>
</svg>
