<?xml version="1.0" standalone="no"?>
<!DOCTYPE svg PUBLIC "-//W3C//DTD SVG 20010904//EN"
 "http://www.w3.org/TR/2001/REC-SVG-20010904/DTD/svg10.dtd">
<svg version="1.0" xmlns="http://www.w3.org/2000/svg"
 width="96.000000pt" height="84.000000pt" viewBox="0 0 96.000000 84.000000"
 preserveAspectRatio="xMidYMid meet">
<metadata>
Created by potrace 1.16, written by Peter Selinger 2001-2019
</metadata>
<g transform="translate(0.000000,84.000000) scale(0.100000,-0.100000)"
fill="#000000" stroke="none">
<path d="M549 773 c-45 -48 -52 -69 -35 -105 9 -17 13 -34 10 -39 -9 -15 17
-79 32 -79 23 0 16 -27 -17 -65 -35 -40 -42 -62 -43 -148 -1 -47 -4 -56 -16
-51 -8 4 -34 13 -56 21 -32 11 -43 21 -47 41 -3 15 -1 35 4 44 5 10 7 29 3 43
-5 20 -11 24 -28 19 -29 -8 -46 -32 -46 -64 0 -15 -5 -52 -11 -83 -10 -48 -9
-64 5 -102 15 -37 16 -53 7 -95 -15 -71 -15 -73 23 -94 26 -14 38 -15 54 -7
10 6 21 8 24 6 3 -3 13 4 23 15 17 19 17 23 1 106 -10 47 -16 88 -14 90 2 2
21 -9 42 -24 42 -29 41 -20 20 -159 l-7 -43 122 0 c142 0 136 -9 73 115 -30
60 -36 80 -36 141 -1 72 17 129 37 117 6 -4 8 8 3 33 -12 72 -12 77 7 80 29 4
32 10 38 97 11 144 -18 205 -103 214 -38 4 -46 1 -69 -24z"/>
</g>
</svg>
