<?xml version="1.0" standalone="no"?>
<!DOCTYPE svg PUBLIC "-//W3C//DTD SVG 20010904//EN"
 "http://www.w3.org/TR/2001/REC-SVG-20010904/DTD/svg10.dtd">
<svg version="1.0" xmlns="http://www.w3.org/2000/svg"
 width="96.000000pt" height="84.000000pt" viewBox="0 0 96.000000 84.000000"
 preserveAspectRatio="xMidYMid meet">
<metadata>
Created by potrace 1.16, written by Peter Selinger 2001-2019
</metadata>
<g transform="translate(0.000000,84.000000) scale(0.100000,-0.100000)"
fill="#000000" stroke="none">
<path d="M0 420 l0 -420 294 0 293 0 -7 40 c-4 23 -10 43 -13 46 -3 3 -1 18 5
34 14 42 -4 68 -53 76 -26 5 -47 16 -64 36 -30 36 -32 67 -5 100 10 14 16 29
12 33 -4 5 -2 5 5 1 7 -3 17 6 26 23 18 35 5 54 -30 45 -15 -4 -26 0 -35 15
-7 12 -31 30 -53 40 -78 36 -111 52 -155 77 -46 24 -49 33 -41 88 0 4 31 5 69
1 l67 -6 -27 25 c-35 34 -63 118 -48 145 11 21 9 21 -115 21 l-125 0 0 -420z"/>
<path d="M350 825 c0 -9 9 -15 24 -15 61 0 71 -26 31 -80 -29 -40 -33 -63 -7
-56 9 2 31 7 49 11 25 5 38 17 63 61 17 30 45 63 63 74 l32 20 -127 0 c-107 0
-128 -2 -128 -15z"/>
<path d="M880 794 c25 -25 53 -50 63 -55 15 -9 17 -4 17 46 l0 55 -62 0 -62 0
44 -46z"/>
<path d="M812 658 c3 -57 4 -58 101 -72 l47 -7 0 33 c0 28 -8 38 -48 66 -27
17 -61 32 -76 32 -26 0 -27 -1 -24 -52z"/>
<path d="M600 330 c-12 -51 -2 -102 17 -78 6 9 5 25 -3 48 -7 19 -13 33 -14
30z"/>
<path d="M891 149 c12 -24 33 -69 45 -99 l23 -55 1 98 c0 58 -4 97 -10 97 -5
0 -10 -12 -10 -27 l0 -26 -22 20 c-43 38 -50 36 -27 -8z"/>
</g>
</svg>
