<?xml version="1.0" standalone="no"?>
<!DOCTYPE svg PUBLIC "-//W3C//DTD SVG 20010904//EN"
 "http://www.w3.org/TR/2001/REC-SVG-20010904/DTD/svg10.dtd">
<svg version="1.0" xmlns="http://www.w3.org/2000/svg"
 width="96.000000pt" height="84.000000pt" viewBox="0 0 96.000000 84.000000"
 preserveAspectRatio="xMidYMid meet">
<metadata>
Created by potrace 1.16, written by Peter Selinger 2001-2019
</metadata>
<g transform="translate(0.000000,84.000000) scale(0.100000,-0.100000)"
fill="#000000" stroke="none">
<path d="M580 792 c-46 -31 -61 -55 -55 -87 3 -16 6 -39 6 -50 2 -60 12 -95
30 -100 28 -9 23 -27 -20 -74 -40 -44 -43 -52 -45 -156 -1 -39 -5 -63 -11 -61
-5 3 -28 10 -50 17 -22 7 -46 17 -52 22 -16 11 -17 69 -3 83 8 8 7 19 -1 36
-9 21 -16 24 -37 19 -29 -8 -34 -21 -51 -132 -10 -65 -9 -83 4 -123 13 -39 14
-57 6 -97 -20 -91 -21 -89 63 -89 41 0 77 4 80 8 2 4 -3 49 -13 100 -10 51
-15 92 -11 92 4 0 22 -10 41 -23 37 -25 41 -48 25 -134 l-8 -43 122 0 c140 0
135 -6 79 100 -16 30 -32 71 -35 92 -10 58 5 146 27 167 17 16 18 24 10 62
-13 55 -13 68 -1 49 6 -9 10 -11 10 -3 0 7 6 10 14 7 23 -9 33 24 39 126 7
114 -4 155 -52 187 -40 27 -76 29 -111 5z"/>
</g>
</svg>
