<?xml version="1.0" standalone="no"?>
<!DOCTYPE svg PUBLIC "-//W3C//DTD SVG 20010904//EN"
 "http://www.w3.org/TR/2001/REC-SVG-20010904/DTD/svg10.dtd">
<svg version="1.0" xmlns="http://www.w3.org/2000/svg"
 width="96.000000pt" height="84.000000pt" viewBox="0 0 96.000000 84.000000"
 preserveAspectRatio="xMidYMid meet">
<metadata>
Created by potrace 1.16, written by Peter Selinger 2001-2019
</metadata>
<g transform="translate(0.000000,84.000000) scale(0.100000,-0.100000)"
fill="#000000" stroke="none">
<path d="M612 814 c-13 -6 -36 -24 -51 -38 -25 -24 -27 -31 -20 -69 4 -23 4
-46 1 -52 -11 -18 0 -70 19 -88 27 -25 24 -42 -17 -87 -20 -22 -38 -51 -40
-63 -1 -12 -7 -36 -12 -53 -6 -18 -6 -50 -2 -75 5 -24 7 -45 6 -46 -1 -1 -28
6 -61 15 -50 15 -60 22 -67 47 -5 19 -3 38 6 55 23 47 -12 87 -53 61 -21 -13
-48 -187 -38 -241 12 -63 12 -89 3 -137 l-8 -43 81 0 c45 0 81 4 81 9 0 5 -7
41 -16 80 -9 40 -14 75 -10 78 4 4 23 -3 44 -15 40 -23 45 -46 30 -119 l-7
-33 120 0 c136 0 134 -3 84 85 -27 46 -50 148 -40 173 4 9 9 31 11 47 2 17 13
38 24 47 18 15 19 22 10 60 -13 58 -13 60 8 57 9 -2 27 1 39 5 23 7 23 3 24
214 1 32 -5 62 -15 77 -29 43 -97 69 -134 49z"/>
</g>
</svg>
