<?xml version="1.0" standalone="no"?>
<!DOCTYPE svg PUBLIC "-//W3C//DTD SVG 20010904//EN"
 "http://www.w3.org/TR/2001/REC-SVG-20010904/DTD/svg10.dtd">
<svg version="1.0" xmlns="http://www.w3.org/2000/svg"
 width="96.000000pt" height="84.000000pt" viewBox="0 0 96.000000 84.000000"
 preserveAspectRatio="xMidYMid meet">
<metadata>
Created by potrace 1.16, written by Peter Selinger 2001-2019
</metadata>
<g transform="translate(0.000000,84.000000) scale(0.100000,-0.100000)"
fill="#000000" stroke="none">
<path d="M615 828 c-65 -36 -89 -84 -64 -130 8 -15 8 -22 -1 -28 -20 -13 -4
-98 21 -105 28 -9 24 -24 -25 -84 -48 -58 -48 -58 -49 -178 l-1 -82 -25 5
c-71 16 -101 25 -102 32 0 4 -2 18 -4 32 -1 14 3 36 9 50 25 53 -28 99 -64 55
-25 -31 -47 -227 -31 -277 8 -24 9 -49 2 -77 l-9 -41 79 0 c43 0 79 3 79 8 -1
4 -7 34 -15 67 -8 32 -12 61 -10 64 3 2 25 -4 51 -14 l46 -18 -6 -53 -6 -54
119 0 120 0 -35 74 c-38 80 -55 176 -35 200 6 7 9 20 6 28 -3 8 6 26 20 40 24
24 25 29 16 69 -16 66 -15 70 14 59 16 -6 25 -6 25 0 0 5 7 7 15 4 20 -8 30
39 15 76 -9 22 -9 37 0 66 7 20 10 61 8 91 -4 46 -10 60 -39 88 -37 36 -92 51
-124 33z"/>
</g>
</svg>
