<?xml version="1.0" standalone="no"?>
<!DOCTYPE svg PUBLIC "-//W3C//DTD SVG 20010904//EN"
 "http://www.w3.org/TR/2001/REC-SVG-20010904/DTD/svg10.dtd">
<svg version="1.0" xmlns="http://www.w3.org/2000/svg"
 width="96.000000pt" height="84.000000pt" viewBox="0 0 96.000000 84.000000"
 preserveAspectRatio="xMidYMid meet">
<metadata>
Created by potrace 1.16, written by Peter Selinger 2001-2019
</metadata>
<g transform="translate(0.000000,84.000000) scale(0.100000,-0.100000)"
fill="#000000" stroke="none">
<path d="M573 808 c-30 -33 -34 -53 -18 -105 4 -14 3 -23 -3 -23 -17 0 -1 -83
19 -103 27 -25 24 -42 -16 -86 -56 -62 -79 -187 -50 -264 6 -15 1 -17 -41 -17
-27 0 -59 3 -72 6 -29 8 -39 47 -23 91 7 18 10 47 6 62 -6 27 -8 29 -37 20
-17 -4 -33 -11 -36 -13 -14 -15 -43 -205 -37 -246 4 -25 8 -64 9 -87 l0 -43
74 0 c65 0 73 2 68 18 -3 9 -8 34 -12 55 -5 32 -4 37 12 36 29 -1 89 -25 88
-35 -1 -5 -4 -24 -7 -41 l-6 -33 119 0 c66 0 120 2 120 5 0 3 -9 24 -21 47
-42 82 -66 218 -39 218 6 0 10 12 10 27 0 15 9 37 21 49 18 19 19 27 11 75 -6
30 -9 55 -8 57 2 1 15 -2 30 -7 17 -7 26 -7 26 -1 0 6 7 10 16 10 10 0 14 5
10 16 -3 9 -2 12 4 9 7 -4 8 3 4 22 -4 15 -7 48 -6 73 0 25 2 71 2 102 2 43
-3 66 -19 92 -26 41 -37 46 -110 46 -51 0 -60 -3 -88 -32z"/>
</g>
</svg>
