<?xml version="1.0" standalone="no"?>
<!DOCTYPE svg PUBLIC "-//W3C//DTD SVG 20010904//EN"
 "http://www.w3.org/TR/2001/REC-SVG-20010904/DTD/svg10.dtd">
<svg version="1.0" xmlns="http://www.w3.org/2000/svg"
 width="96.000000pt" height="84.000000pt" viewBox="0 0 96.000000 84.000000"
 preserveAspectRatio="xMidYMid meet">
<metadata>
Created by potrace 1.16, written by Peter Selinger 2001-2019
</metadata>
<g transform="translate(0.000000,84.000000) scale(0.100000,-0.100000)"
fill="#000000" stroke="none">
<path d="M568 815 c-20 -27 -23 -57 -7 -86 7 -15 7 -24 -1 -34 -18 -22 -2
-102 21 -108 31 -8 22 -42 -26 -98 -25 -30 -43 -59 -41 -65 2 -6 -2 -30 -10
-53 -10 -31 -12 -52 -4 -84 5 -23 10 -54 10 -69 0 -28 -1 -28 -63 -28 -36 0
-68 5 -75 12 -15 15 -16 80 -1 95 7 7 8 24 4 42 -5 26 -11 31 -35 31 -36 0
-49 -17 -59 -77 -5 -26 -14 -76 -22 -111 -12 -57 -11 -68 4 -113 10 -27 15
-54 12 -59 -4 -6 21 -10 65 -10 l72 0 -7 40 c-6 38 -5 40 18 40 13 0 39 -3 57
-6 30 -6 31 -9 25 -40 l-6 -34 121 0 c66 0 120 2 120 5 0 3 -11 27 -24 53 -40
81 -57 191 -33 214 8 6 12 21 10 32 -3 12 5 31 18 44 19 21 21 31 15 79 -6 55
-6 55 19 51 14 -3 25 -1 25 4 0 6 7 8 15 5 20 -8 31 53 15 84 -10 17 -10 33 0
75 15 63 9 131 -15 167 -17 26 -20 27 -109 27 -84 -1 -92 -2 -108 -25z"/>
</g>
</svg>
