<?xml version="1.0" standalone="no"?>
<!DOCTYPE svg PUBLIC "-//W3C//DTD SVG 20010904//EN"
 "http://www.w3.org/TR/2001/REC-SVG-20010904/DTD/svg10.dtd">
<svg version="1.0" xmlns="http://www.w3.org/2000/svg"
 width="96.000000pt" height="84.000000pt" viewBox="0 0 96.000000 84.000000"
 preserveAspectRatio="xMidYMid meet">
<metadata>
Created by potrace 1.16, written by Peter Selinger 2001-2019
</metadata>
<g transform="translate(0.000000,84.000000) scale(0.100000,-0.100000)"
fill="#000000" stroke="none">
<path d="M572 828 c-14 -14 -16 -67 -2 -88 5 -9 5 -19 -2 -27 -16 -20 -3 -92
21 -112 30 -26 26 -46 -20 -96 -23 -25 -43 -56 -44 -70 -2 -13 -8 -40 -15 -60
-9 -28 -9 -50 1 -99 7 -35 10 -70 6 -78 -9 -25 -138 -40 -152 -18 -12 20 -9
91 5 100 10 6 11 16 4 42 -8 27 -14 32 -34 30 -14 -2 -31 -9 -38 -16 -21 -20
-54 -184 -49 -248 5 -78 15 -88 94 -88 64 0 65 0 61 25 -6 29 16 39 73 33 31
-3 34 -6 31 -30 l-3 -28 126 0 127 0 -30 53 c-42 75 -63 227 -31 227 5 0 6 13
3 29 -5 24 -1 32 20 46 27 18 28 26 10 112 -3 18 0 22 13 20 10 -1 24 -6 31
-10 7 -5 12 -3 12 7 0 10 6 13 17 9 12 -5 15 -2 10 10 -3 8 -2 17 3 19 4 2 2
22 -6 46 -13 37 -13 48 1 94 15 52 13 98 -7 151 l-10 27 -107 0 c-70 0 -111
-4 -119 -12z"/>
</g>
</svg>
