<?xml version="1.0" standalone="no"?>
<!DOCTYPE svg PUBLIC "-//W3C//DTD SVG 20010904//EN"
 "http://www.w3.org/TR/2001/REC-SVG-20010904/DTD/svg10.dtd">
<svg version="1.0" xmlns="http://www.w3.org/2000/svg"
 width="96.000000pt" height="84.000000pt" viewBox="0 0 96.000000 84.000000"
 preserveAspectRatio="xMidYMid meet">
<metadata>
Created by potrace 1.16, written by Peter Selinger 2001-2019
</metadata>
<g transform="translate(0.000000,84.000000) scale(0.100000,-0.100000)"
fill="#000000" stroke="none">
<path d="M570 811 c0 -16 4 -41 9 -55 7 -17 7 -26 -2 -29 -7 -2 -10 -20 -8
-48 2 -32 9 -50 28 -66 31 -27 25 -50 -29 -109 -22 -24 -38 -49 -35 -56 2 -7
-3 -30 -11 -52 -13 -32 -13 -49 -4 -101 19 -100 18 -103 -35 -126 -26 -11 -61
-19 -77 -17 -26 3 -33 9 -44 42 -10 33 -10 42 3 62 9 14 13 34 9 53 -6 27 -9
30 -38 24 -17 -3 -35 -9 -39 -13 -14 -13 -47 -181 -47 -239 0 -64 14 -96 30
-71 6 10 10 11 10 3 0 -9 19 -13 60 -13 46 0 60 3 60 14 0 20 7 23 63 31 46 7
47 7 47 -19 l0 -26 125 0 c69 0 125 2 125 4 0 2 -14 34 -32 71 -23 50 -32 87
-36 141 -3 50 -1 74 6 74 7 0 9 11 6 29 -5 22 -1 32 19 48 24 18 25 25 20 76
-6 57 1 65 35 44 7 -5 12 -3 12 7 0 10 6 13 17 9 12 -5 15 -2 10 10 -3 8 -1
17 4 19 6 2 4 21 -6 48 -14 40 -14 48 0 89 18 52 19 82 4 134 l-10 37 -124 0
-125 0 0 -29z"/>
</g>
</svg>
