<?xml version="1.0" standalone="no"?>
<!DOCTYPE svg PUBLIC "-//W3C//DTD SVG 20010904//EN"
 "http://www.w3.org/TR/2001/REC-SVG-20010904/DTD/svg10.dtd">
<svg version="1.0" xmlns="http://www.w3.org/2000/svg"
 width="96.000000pt" height="84.000000pt" viewBox="0 0 96.000000 84.000000"
 preserveAspectRatio="xMidYMid meet">
<metadata>
Created by potrace 1.16, written by Peter Selinger 2001-2019
</metadata>
<g transform="translate(0.000000,84.000000) scale(0.100000,-0.100000)"
fill="#000000" stroke="none">
<path d="M584 825 c-3 -8 -1 -28 4 -45 7 -18 7 -32 1 -35 -13 -9 -12 -105 2
-105 15 0 39 -26 39 -43 0 -9 -20 -39 -45 -68 -25 -30 -43 -59 -41 -66 3 -7
-2 -29 -11 -50 -13 -32 -14 -48 -4 -99 19 -103 17 -110 -36 -144 -34 -21 -58
-29 -83 -28 -31 3 -36 7 -44 40 -7 27 -6 45 3 62 20 36 2 82 -30 78 -13 -2
-30 -9 -37 -16 -15 -14 -52 -183 -52 -238 0 -67 25 -91 49 -45 l11 22 -6 -22
c-5 -22 -3 -23 55 -23 35 0 61 4 61 10 0 12 27 24 78 35 30 6 32 5 32 -19 l0
-26 130 0 c72 0 130 2 130 5 0 3 -12 29 -26 57 -14 28 -32 72 -40 97 -16 55
-19 151 -3 151 6 0 8 8 4 20 -7 22 22 73 37 63 7 -4 9 16 4 61 -6 67 -6 67 16
55 16 -9 23 -9 26 0 2 6 10 11 18 11 8 0 11 6 7 17 -4 11 -3 14 5 9 15 -9 15
-7 -3 45 -14 39 -14 48 0 88 16 46 19 100 9 139 -6 21 -10 22 -130 22 -101 0
-126 -3 -130 -15z"/>
</g>
</svg>
