<?xml version="1.0" standalone="no"?>
<!DOCTYPE svg PUBLIC "-//W3C//DTD SVG 20010904//EN"
 "http://www.w3.org/TR/2001/REC-SVG-20010904/DTD/svg10.dtd">
<svg version="1.0" xmlns="http://www.w3.org/2000/svg"
 width="96.000000pt" height="84.000000pt" viewBox="0 0 96.000000 84.000000"
 preserveAspectRatio="xMidYMid meet">
<metadata>
Created by potrace 1.16, written by Peter Selinger 2001-2019
</metadata>
<g transform="translate(0.000000,84.000000) scale(0.100000,-0.100000)"
fill="#000000" stroke="none">
<path d="M603 805 c3 -19 1 -37 -4 -40 -5 -4 -9 -26 -9 -49 0 -35 5 -47 26
-62 34 -26 26 -64 -26 -121 -23 -24 -38 -48 -35 -53 3 -5 -1 -30 -10 -55 -11
-35 -13 -56 -6 -88 25 -111 25 -113 -33 -157 -38 -29 -63 -40 -87 -40 -31 0
-37 4 -48 35 -10 28 -10 39 2 61 11 21 12 34 3 55 -8 24 -14 27 -36 22 -38 -9
-49 -21 -55 -62 -3 -20 -13 -69 -21 -108 -19 -87 -13 -143 16 -143 12 0 20 7
20 18 0 9 5 24 11 32 9 13 10 13 8 0 -5 -46 -1 -50 55 -50 30 0 58 5 61 10 6
10 49 30 93 44 20 7 21 5 16 -23 l-6 -31 142 0 142 0 -40 73 c-49 92 -68 184
-51 254 15 63 29 93 43 90 7 -1 10 15 8 45 -4 56 3 74 24 57 10 -8 14 -8 14 0
0 6 7 11 16 11 10 0 14 6 11 14 -3 8 -1 16 5 18 8 3 7 18 -4 49 -12 37 -13 50
-2 79 7 19 13 61 13 93 l1 57 -131 0 -132 0 6 -35z"/>
</g>
</svg>
