<?xml version="1.0" standalone="no"?>
<!DOCTYPE svg PUBLIC "-//W3C//DTD SVG 20010904//EN"
 "http://www.w3.org/TR/2001/REC-SVG-20010904/DTD/svg10.dtd">
<svg version="1.0" xmlns="http://www.w3.org/2000/svg"
 width="96.000000pt" height="84.000000pt" viewBox="0 0 96.000000 84.000000"
 preserveAspectRatio="xMidYMid meet">
<metadata>
Created by potrace 1.16, written by Peter Selinger 2001-2019
</metadata>
<g transform="translate(0.000000,84.000000) scale(0.100000,-0.100000)"
fill="#000000" stroke="none">
<path d="M620 816 c0 -14 -3 -27 -7 -29 -14 -9 -2 -107 13 -107 13 0 34 -29
34 -47 0 -5 -22 -35 -50 -68 -27 -32 -45 -62 -40 -65 6 -4 4 -22 -7 -49 -14
-36 -15 -51 -5 -100 20 -96 18 -104 -44 -160 -64 -59 -101 -67 -128 -26 -19
29 -21 72 -4 77 9 3 9 13 2 39 -8 28 -14 33 -34 31 -14 -2 -31 -10 -39 -17
-17 -16 -45 -161 -46 -235 0 -48 3 -55 21 -58 19 -3 22 4 31 60 l10 63 2 -62
1 -63 60 0 c33 0 60 4 60 10 0 9 90 60 106 60 4 0 4 -16 1 -35 l-6 -35 145 0
145 0 -6 23 c-4 12 -21 49 -39 82 -45 84 -60 152 -51 232 5 50 13 72 31 90 19
19 24 34 24 74 0 34 4 49 13 48 46 -6 64 26 47 87 -10 36 -10 51 4 90 9 26 16
63 16 81 l0 33 -130 0 -130 0 0 -24z"/>
</g>
</svg>
