<?xml version="1.0" standalone="no"?>
<!DOCTYPE svg PUBLIC "-//W3C//DTD SVG 20010904//EN"
 "http://www.w3.org/TR/2001/REC-SVG-20010904/DTD/svg10.dtd">
<svg version="1.0" xmlns="http://www.w3.org/2000/svg"
 width="96.000000pt" height="84.000000pt" viewBox="0 0 96.000000 84.000000"
 preserveAspectRatio="xMidYMid meet">
<metadata>
Created by potrace 1.16, written by Peter Selinger 2001-2019
</metadata>
<g transform="translate(0.000000,84.000000) scale(0.100000,-0.100000)"
fill="#000000" stroke="none">
<path d="M0 420 l0 -420 285 0 c223 0 284 3 280 13 -2 6 -6 50 -9 96 -6 86
-13 101 -49 101 -32 0 -58 21 -73 57 -13 31 -13 37 1 57 53 73 66 99 55 106
-7 4 -20 6 -29 3 -10 -2 -23 3 -30 11 -8 9 -22 16 -32 16 -10 0 -21 5 -24 10
-3 6 -13 10 -22 10 -15 0 -53 15 -130 52 -12 6 -20 15 -17 19 2 4 0 10 -5 14
-16 9 -1 35 20 35 25 0 24 8 -3 30 -20 16 -21 20 -10 58 15 48 27 59 49 40 9
-7 34 -17 57 -23 35 -8 42 -14 44 -38 2 -17 8 -26 15 -23 7 3 31 10 54 17 34
9 47 20 68 54 46 79 109 115 202 115 56 0 89 -14 143 -59 40 -34 100 -71 115
-71 3 0 5 32 5 70 l0 70 -480 0 -480 0 0 -420z"/>
<path d="M774 659 c3 -17 6 -41 6 -53 0 -18 11 -24 78 -39 42 -10 83 -21 90
-24 9 -3 12 10 12 51 0 55 0 56 -29 56 -16 0 -48 9 -72 20 -24 11 -55 20 -68
20 -21 0 -23 -3 -17 -31z"/>
<path d="M579 338 c-5 -21 -5 -69 1 -77 13 -23 33 15 20 39 -6 11 -8 25 -5 30
3 6 1 10 -4 10 -6 0 -11 -1 -12 -2z"/>
<path d="M919 181 c10 -6 10 -10 1 -13 -7 -2 -4 -10 9 -22 19 -17 21 -17 27
-2 10 25 -3 46 -28 46 -17 0 -19 -3 -9 -9z"/>
<path d="M860 165 c0 -6 62 -160 66 -164 2 -2 4 25 4 60 -1 62 -2 65 -35 86
-19 12 -35 20 -35 18z"/>
</g>
</svg>
