<?xml version="1.0" standalone="no"?>
<!DOCTYPE svg PUBLIC "-//W3C//DTD SVG 20010904//EN"
 "http://www.w3.org/TR/2001/REC-SVG-20010904/DTD/svg10.dtd">
<svg version="1.0" xmlns="http://www.w3.org/2000/svg"
 width="96.000000pt" height="84.000000pt" viewBox="0 0 96.000000 84.000000"
 preserveAspectRatio="xMidYMid meet">
<metadata>
Created by potrace 1.16, written by Peter Selinger 2001-2019
</metadata>
<g transform="translate(0.000000,84.000000) scale(0.100000,-0.100000)"
fill="#000000" stroke="none">
<path d="M634 827 c-18 -21 -8 -104 16 -129 29 -32 25 -50 -25 -110 -25 -29
-41 -54 -36 -56 6 -2 4 -19 -6 -43 -15 -39 -15 -54 3 -167 7 -43 6 -44 -57
-108 -38 -38 -72 -64 -84 -64 -12 0 -31 14 -45 32 -20 28 -22 35 -11 64 6 18
9 44 5 59 -5 22 -11 25 -35 21 -41 -6 -48 -13 -54 -54 -4 -20 -13 -72 -21
-115 -18 -92 -12 -157 16 -157 18 0 30 41 30 108 0 21 4 31 11 27 6 -4 7 -19
4 -35 -3 -16 -3 -44 1 -64 l6 -36 59 0 c45 0 59 3 59 14 0 15 45 53 89 76 l23
12 -7 -51 -7 -51 151 0 c126 0 151 2 151 15 0 8 -19 52 -43 98 -59 115 -74
181 -59 266 7 45 18 71 32 83 15 12 20 28 20 68 0 44 2 50 14 41 11 -9 15 -8
20 4 3 9 10 14 15 11 16 -10 22 43 10 83 -9 32 -9 48 5 87 29 87 33 84 -111
84 -91 -1 -131 -4 -139 -13z"/>
</g>
</svg>
