<?xml version="1.0" standalone="no"?>
<!DOCTYPE svg PUBLIC "-//W3C//DTD SVG 20010904//EN"
 "http://www.w3.org/TR/2001/REC-SVG-20010904/DTD/svg10.dtd">
<svg version="1.0" xmlns="http://www.w3.org/2000/svg"
 width="96.000000pt" height="84.000000pt" viewBox="0 0 96.000000 84.000000"
 preserveAspectRatio="xMidYMid meet">
<metadata>
Created by potrace 1.16, written by Peter Selinger 2001-2019
</metadata>
<g transform="translate(0.000000,84.000000) scale(0.100000,-0.100000)"
fill="#000000" stroke="none">
<path d="M648 829 c-6 -17 4 -89 11 -84 4 2 15 -9 24 -25 17 -29 17 -29 -26
-82 -53 -65 -65 -84 -47 -73 8 5 11 3 7 -6 -27 -66 -30 -92 -19 -148 7 -31 12
-66 12 -77 0 -10 -29 -49 -65 -87 -75 -79 -98 -84 -133 -30 -19 30 -21 39 -11
67 16 46 -1 85 -35 79 -36 -7 -49 -27 -58 -92 -17 -127 -20 -206 -8 -236 l12
-30 13 25 c8 14 15 48 15 75 2 77 19 104 20 30 0 -33 1 -77 3 -97 l2 -38 72 0
73 0 -10 26 c-12 31 -8 38 56 84 l47 33 -8 -58 c-4 -32 -9 -64 -12 -72 -4 -10
26 -13 162 -13 l167 0 -6 27 c-4 16 -28 68 -53 118 -59 114 -74 189 -59 282 9
55 15 70 34 78 14 6 22 18 21 30 -3 46 2 62 26 75 33 17 40 43 25 94 -10 36
-9 49 4 81 9 20 16 41 16 46 0 13 -268 11 -272 -2z"/>
</g>
</svg>
