<?xml version="1.0" standalone="no"?>
<!DOCTYPE svg PUBLIC "-//W3C//DTD SVG 20010904//EN"
 "http://www.w3.org/TR/2001/REC-SVG-20010904/DTD/svg10.dtd">
<svg version="1.0" xmlns="http://www.w3.org/2000/svg"
 width="96.000000pt" height="84.000000pt" viewBox="0 0 96.000000 84.000000"
 preserveAspectRatio="xMidYMid meet">
<metadata>
Created by potrace 1.16, written by Peter Selinger 2001-2019
</metadata>
<g transform="translate(0.000000,84.000000) scale(0.100000,-0.100000)"
fill="#000000" stroke="none">
<path d="M670 810 c0 -24 3 -28 18 -23 9 3 14 3 10 -2 -4 -4 0 -14 9 -20 21
-16 10 -45 -37 -98 -50 -57 -61 -116 -45 -239 l8 -58 -68 -75 c-48 -54 -74
-75 -91 -75 -13 0 -24 4 -24 9 0 5 -11 23 -25 39 -22 26 -24 34 -15 58 13 34
-4 84 -30 84 -32 0 -52 -36 -61 -112 -20 -164 -20 -173 -6 -213 13 -38 14 -38
25 -18 7 12 16 52 21 90 l8 68 2 -72 c0 -40 5 -73 10 -73 5 0 8 -18 6 -40 l-4
-40 84 0 c47 0 85 1 85 3 0 2 -7 25 -16 50 -18 54 -17 57 51 106 27 19 45 27
45 19 0 -13 -26 -127 -36 -160 -5 -17 8 -18 180 -18 176 0 186 1 186 19 0 10
-28 75 -63 143 -78 152 -95 219 -77 313 8 42 19 70 31 79 11 7 21 28 23 46 2
18 11 37 19 42 38 21 49 41 41 72 -4 17 -8 52 -8 79 l-1 47 -127 0 -128 0 0
-30z m254 -96 c3 -8 2 -12 -4 -9 -6 3 -10 10 -10 16 0 14 7 11 14 -7z"/>
</g>
</svg>
