<?xml version="1.0" standalone="no"?>
<!DOCTYPE svg PUBLIC "-//W3C//DTD SVG 20010904//EN"
 "http://www.w3.org/TR/2001/REC-SVG-20010904/DTD/svg10.dtd">
<svg version="1.0" xmlns="http://www.w3.org/2000/svg"
 width="96.000000pt" height="84.000000pt" viewBox="0 0 96.000000 84.000000"
 preserveAspectRatio="xMidYMid meet">
<metadata>
Created by potrace 1.16, written by Peter Selinger 2001-2019
</metadata>
<g transform="translate(0.000000,84.000000) scale(0.100000,-0.100000)"
fill="#000000" stroke="none">
<path d="M720 830 c0 -6 7 -13 15 -16 24 -10 18 -29 -28 -86 -60 -74 -75 -133
-56 -223 6 -29 7 -59 2 -72 -13 -35 -132 -163 -151 -163 -19 0 -82 71 -82 92
0 8 5 19 10 24 14 14 -6 60 -28 69 -26 10 -60 -40 -68 -101 -10 -80 -10 -194
-1 -227 9 -33 31 -31 35 4 2 13 8 29 14 34 6 7 9 5 7 -5 -2 -8 3 -26 10 -39 8
-15 11 -43 9 -72 l-5 -49 278 0 279 0 0 83 c0 80 -1 85 -46 162 -60 103 -78
189 -63 286 10 55 16 69 35 78 18 8 24 19 24 44 0 26 6 37 25 47 25 14 33 44
15 55 -5 3 -10 11 -10 16 0 6 5 7 10 4 11 -7 13 9 4 43 -6 21 -11 22 -120 22
-72 0 -114 -4 -114 -10z m-70 -648 c-6 -26 -18 -71 -27 -101 l-16 -55 -28 63
c-16 35 -26 69 -21 76 13 23 97 85 101 74 1 -6 -2 -31 -9 -57z m-263 16 c-3
-7 -5 -2 -5 12 0 14 2 19 5 13 2 -7 2 -19 0 -25z"/>
</g>
</svg>
