<?xml version="1.0" standalone="no"?>
<!DOCTYPE svg PUBLIC "-//W3C//DTD SVG 20010904//EN"
 "http://www.w3.org/TR/2001/REC-SVG-20010904/DTD/svg10.dtd">
<svg version="1.0" xmlns="http://www.w3.org/2000/svg"
 width="96.000000pt" height="84.000000pt" viewBox="0 0 96.000000 84.000000"
 preserveAspectRatio="xMidYMid meet">
<metadata>
Created by potrace 1.16, written by Peter Selinger 2001-2019
</metadata>
<g transform="translate(0.000000,84.000000) scale(0.100000,-0.100000)"
fill="#000000" stroke="none">
<path d="M740 790 c-49 -58 -61 -94 -59 -175 3 -142 7 -129 -66 -210 -78 -87
-100 -94 -140 -41 -19 25 -24 41 -20 59 8 30 -17 72 -45 80 -11 3 -18 1 -15
-4 3 -5 -3 -21 -15 -37 -18 -24 -21 -44 -23 -164 -2 -116 1 -140 15 -154 15
-15 17 -15 27 5 14 25 31 28 31 5 0 -9 5 -12 11 -8 9 5 10 -14 4 -70 l-7 -76
261 0 261 0 0 150 c0 149 0 150 -30 198 -16 27 -30 61 -30 75 0 14 -4 29 -10
32 -27 16 -3 190 29 214 23 18 30 39 38 119 l5 52 -90 0 -90 0 -42 -50z m-57
-547 c-9 -38 -21 -83 -28 -102 l-11 -34 -28 49 c-16 28 -25 57 -22 69 5 18 80
84 98 85 3 0 -1 -30 -9 -67z"/>
</g>
</svg>
