<?xml version="1.0" standalone="no"?>
<!DOCTYPE svg PUBLIC "-//W3C//DTD SVG 20010904//EN"
 "http://www.w3.org/TR/2001/REC-SVG-20010904/DTD/svg10.dtd">
<svg version="1.0" xmlns="http://www.w3.org/2000/svg"
 width="96.000000pt" height="84.000000pt" viewBox="0 0 96.000000 84.000000"
 preserveAspectRatio="xMidYMid meet">
<metadata>
Created by potrace 1.16, written by Peter Selinger 2001-2019
</metadata>
<g transform="translate(0.000000,84.000000) scale(0.100000,-0.100000)"
fill="#000000" stroke="none">
<path d="M745 820 c-10 -11 -18 -28 -19 -37 -1 -10 -6 -43 -10 -73 -4 -33 -3
-66 3 -82 17 -46 -4 -92 -77 -168 -53 -54 -75 -70 -106 -76 -34 -6 -41 -4 -57
17 -11 15 -16 33 -12 47 3 12 -3 39 -13 60 -13 27 -19 32 -22 20 -3 -15 -7
-16 -24 -7 -15 8 -19 8 -13 -1 4 -6 0 -25 -8 -43 -12 -25 -15 -61 -12 -157 2
-69 6 -133 10 -142 11 -28 32 -21 44 15 7 22 18 33 30 33 17 0 19 -9 17 -113
l-1 -113 243 0 243 0 -4 228 c-4 225 -11 297 -28 308 -21 12 0 204 22 204 5 0
9 23 9 50 l0 50 -98 0 c-86 0 -101 -3 -117 -20z m-18 -473 c-3 -19 -15 -66
-27 -106 -23 -79 -28 -80 -71 -20 l-20 29 30 44 c28 40 75 86 89 86 2 0 2 -15
-1 -33z"/>
</g>
</svg>
