<?xml version="1.0" standalone="no"?>
<!DOCTYPE svg PUBLIC "-//W3C//DTD SVG 20010904//EN"
 "http://www.w3.org/TR/2001/REC-SVG-20010904/DTD/svg10.dtd">
<svg version="1.0" xmlns="http://www.w3.org/2000/svg"
 width="96.000000pt" height="84.000000pt" viewBox="0 0 96.000000 84.000000"
 preserveAspectRatio="xMidYMid meet">
<metadata>
Created by potrace 1.16, written by Peter Selinger 2001-2019
</metadata>
<g transform="translate(0.000000,84.000000) scale(0.100000,-0.100000)"
fill="#000000" stroke="none">
<path d="M764 805 c-3 -20 -1 -55 5 -79 15 -60 2 -95 -61 -166 -37 -42 -66
-65 -98 -77 -56 -20 -72 -33 -66 -49 6 -16 -29 -48 -44 -39 -16 10 -32 54 -35
95 -3 41 -14 70 -26 70 -5 0 -9 -7 -9 -16 0 -11 -6 -14 -21 -9 -14 5 -19 3
-15 -4 4 -6 -1 -22 -10 -36 -11 -17 -14 -37 -11 -62 4 -21 11 -78 17 -128 7
-49 16 -96 22 -102 18 -22 37 -14 46 19 8 33 9 33 21 10 6 -12 17 -59 22 -105
18 -136 13 -127 66 -127 31 0 50 5 60 18 14 16 14 16 9 0 -5 -17 7 -18 159
-18 l165 0 0 420 0 420 -95 0 -94 0 -7 -35z m-14 -467 c-18 -62 -34 -114 -35
-116 -2 -2 -24 12 -49 32 l-46 35 50 57 c27 31 50 61 50 66 0 15 54 60 58 49
2 -6 -11 -61 -28 -123z m-140 8 c0 -2 -8 -10 -17 -17 -16 -13 -17 -12 -4 4 13
16 21 21 21 13z m20 -20 c0 -2 -8 -10 -17 -17 -16 -13 -17 -12 -4 4 13 16 21
21 21 13z"/>
</g>
</svg>
