<?xml version="1.0" standalone="no"?>
<!DOCTYPE svg PUBLIC "-//W3C//DTD SVG 20010904//EN"
 "http://www.w3.org/TR/2001/REC-SVG-20010904/DTD/svg10.dtd">
<svg version="1.0" xmlns="http://www.w3.org/2000/svg"
 width="96.000000pt" height="84.000000pt" viewBox="0 0 96.000000 84.000000"
 preserveAspectRatio="xMidYMid meet">
<metadata>
Created by potrace 1.16, written by Peter Selinger 2001-2019
</metadata>
<g transform="translate(0.000000,84.000000) scale(0.100000,-0.100000)"
fill="#000000" stroke="none">
<path d="M843 799 c-4 -60 -89 -161 -161 -190 -40 -16 -54 -28 -58 -48 -4 -14
-15 -35 -25 -46 -22 -25 -16 -73 7 -54 12 10 13 9 8 -5 -5 -12 -2 -15 10 -10
11 4 16 1 16 -12 0 -15 9 -10 36 21 20 22 26 27 15 11 -29 -40 -26 -54 5 -25
l27 24 -12 -25 c-18 -38 77 69 100 112 16 32 39 58 39 45 0 -9 -82 -292 -86
-296 -2 -2 -9 1 -16 7 -7 6 -51 24 -97 41 -46 17 -90 36 -97 42 -20 17 -17 31
5 24 23 -7 33 5 21 24 -5 8 -17 12 -31 8 -31 -7 -73 43 -75 89 -1 17 -7 42
-14 54 -12 22 -14 22 -25 7 -7 -10 -19 -15 -27 -12 -8 3 -15 -1 -16 -12 -1
-10 -5 -37 -8 -61 -5 -34 -1 -57 20 -105 49 -115 71 -152 88 -151 12 1 24 -18
42 -68 14 -38 26 -75 26 -82 0 -7 6 -20 13 -30 10 -14 21 -16 50 -11 22 4 37
13 37 21 0 8 4 14 10 14 5 0 0 -21 -10 -46 -11 -25 -20 -48 -20 -50 0 -2 72
-4 160 -4 l160 0 0 420 0 420 -57 0 -58 0 -2 -41z"/>
</g>
</svg>
