<?xml version="1.0" standalone="no"?>
<!DOCTYPE svg PUBLIC "-//W3C//DTD SVG 20010904//EN"
 "http://www.w3.org/TR/2001/REC-SVG-20010904/DTD/svg10.dtd">
<svg version="1.0" xmlns="http://www.w3.org/2000/svg"
 width="96.000000pt" height="84.000000pt" viewBox="0 0 96.000000 84.000000"
 preserveAspectRatio="xMidYMid meet">
<metadata>
Created by potrace 1.16, written by Peter Selinger 2001-2019
</metadata>
<g transform="translate(0.000000,84.000000) scale(0.100000,-0.100000)"
fill="#000000" stroke="none">
<path d="M844 809 c-16 -16 -48 -39 -71 -49 -23 -10 -46 -28 -52 -39 -7 -12
-9 -21 -6 -21 3 0 -3 -12 -12 -27 -17 -26 -25 -73 -13 -73 3 0 12 6 19 13 10
10 11 8 5 -8 -7 -18 -6 -18 9 -6 11 9 17 10 17 2 0 -24 29 -9 54 29 14 22 29
40 32 40 3 0 -4 -13 -15 -29 -30 -41 -26 -62 5 -26 20 24 23 25 14 7 -21 -44
-4 -32 38 25 23 32 42 52 42 46 0 -16 -67 -232 -85 -277 l-16 -38 -22 20 c-15
14 -47 23 -106 31 -83 11 -108 19 -83 28 6 3 9 10 5 16 -4 7 -7 21 -8 32 0 14
-6 19 -21 17 -11 -1 -36 8 -55 21 -25 17 -34 30 -35 53 -1 34 -20 74 -34 74
-6 0 -10 -7 -10 -15 0 -18 -12 -19 -27 -4 -7 7 -9 3 -6 -14 3 -14 0 -28 -6
-31 -14 -9 -14 -71 0 -99 7 -12 32 -47 58 -77 25 -30 54 -70 63 -90 10 -19 37
-69 61 -110 40 -70 45 -75 80 -78 27 -2 37 1 37 11 0 8 7 20 15 27 14 11 14
10 5 -16 -6 -16 -7 -30 -2 -32 5 -1 4 -25 -2 -53 -10 -48 -9 -52 13 -70 19
-16 40 -19 127 -19 l104 0 0 420 0 420 -43 0 c-35 0 -49 -6 -73 -31z"/>
</g>
</svg>
