<?xml version="1.0" standalone="no"?>
<!DOCTYPE svg PUBLIC "-//W3C//DTD SVG 20010904//EN"
 "http://www.w3.org/TR/2001/REC-SVG-20010904/DTD/svg10.dtd">
<svg version="1.0" xmlns="http://www.w3.org/2000/svg"
 width="96.000000pt" height="84.000000pt" viewBox="0 0 96.000000 84.000000"
 preserveAspectRatio="xMidYMid meet">
<metadata>
Created by potrace 1.16, written by Peter Selinger 2001-2019
</metadata>
<g transform="translate(0.000000,84.000000) scale(0.100000,-0.100000)"
fill="#000000" stroke="none">
<path d="M795 816 c-19 -28 -10 -63 11 -45 12 10 13 8 8 -7 -7 -18 -7 -18 15
0 21 19 22 19 15 1 -6 -15 0 -13 30 10 20 15 41 36 47 47 9 17 5 18 -50 18
-53 0 -63 -3 -76 -24z"/>
<path d="M925 814 c-9 -14 -14 -29 -10 -32 4 -4 11 2 17 12 8 14 12 15 18 6 5
-8 7 -3 7 13 -2 34 -10 34 -32 1z"/>
<path d="M450 715 c0 -12 -4 -13 -17 -6 -15 7 -18 5 -20 -12 -1 -12 -4 -34 -8
-49 -12 -44 3 -77 59 -137 30 -31 57 -67 61 -79 4 -13 28 -47 53 -76 26 -28
58 -66 72 -84 24 -31 27 -32 65 -25 27 6 40 14 40 26 0 9 6 22 13 29 6 6 12
19 12 28 0 9 6 25 14 35 14 19 14 10 3 -124 -2 -20 6 -26 52 -42 49 -17 56
-17 71 -4 21 19 31 19 24 0 -4 -8 -1 -15 5 -15 8 0 11 81 11 278 l-1 277 -25
-75 c-25 -74 -114 -273 -120 -267 -2 1 1 19 5 39 7 31 5 40 -13 57 -19 18 -35
21 -110 21 -84 0 -88 1 -83 21 4 14 -1 23 -16 29 -20 8 -20 9 7 9 28 1 28 2
13 19 -11 12 -27 17 -45 14 -32 -4 -84 31 -81 57 3 22 -18 71 -31 71 -5 0 -10
-7 -10 -15z"/>
</g>
</svg>
