<?xml version="1.0" standalone="no"?>
<!DOCTYPE svg PUBLIC "-//W3C//DTD SVG 20010904//EN"
 "http://www.w3.org/TR/2001/REC-SVG-20010904/DTD/svg10.dtd">
<svg version="1.0" xmlns="http://www.w3.org/2000/svg"
 width="96.000000pt" height="84.000000pt" viewBox="0 0 96.000000 84.000000"
 preserveAspectRatio="xMidYMid meet">
<metadata>
Created by potrace 1.16, written by Peter Selinger 2001-2019
</metadata>
<g transform="translate(0.000000,84.000000) scale(0.100000,-0.100000)"
fill="#000000" stroke="none">
<path d="M0 420 l0 -420 269 0 c268 0 297 4 272 33 -5 7 -12 55 -13 107 l-3
94 -35 7 c-39 8 -70 40 -70 73 0 12 15 38 33 58 43 47 47 76 11 76 -14 0 -29
3 -33 8 -3 5 -24 18 -46 28 -108 51 -145 72 -145 84 0 6 -5 12 -10 12 -7 0 -7
8 1 23 16 30 30 37 59 30 25 -6 25 -6 6 15 -27 30 -7 52 48 52 56 0 71 -11 57
-39 -11 -20 -10 -21 16 -15 56 12 61 15 73 43 26 64 88 101 170 101 63 0 84
-9 145 -59 27 -23 69 -49 92 -57 48 -19 54 -29 21 -38 -39 -10 -64 -7 -109 14
-65 29 -71 27 -67 -27 l3 -47 105 -33 c58 -18 106 -33 108 -33 1 0 2 74 2 165
l0 165 -480 0 -480 0 0 -420z"/>
<path d="M557 353 c-12 -11 -7 -67 7 -86 12 -16 14 -14 19 17 9 53 -5 90 -26
69z"/>
<path d="M834 147 l31 -81 10 45 c6 24 14 50 19 57 9 14 -22 44 -37 35 -4 -2
-18 2 -31 10 -23 15 -22 14 8 -66z"/>
<path d="M930 187 c27 -15 36 -14 25 2 -3 6 -16 11 -28 11 -21 0 -21 -1 3 -13z"/>
<path d="M951 144 c0 -11 3 -14 6 -6 3 7 2 16 -1 19 -3 4 -6 -2 -5 -13z"/>
<path d="M614 36 c-8 -32 -3 -39 25 -34 21 3 21 3 2 32 l-20 30 -7 -28z"/>
</g>
</svg>
