<?xml version="1.0" standalone="no"?>
<!DOCTYPE svg PUBLIC "-//W3C//DTD SVG 20010904//EN"
 "http://www.w3.org/TR/2001/REC-SVG-20010904/DTD/svg10.dtd">
<svg version="1.0" xmlns="http://www.w3.org/2000/svg"
 width="96.000000pt" height="84.000000pt" viewBox="0 0 96.000000 84.000000"
 preserveAspectRatio="xMidYMid meet">
<metadata>
Created by potrace 1.16, written by Peter Selinger 2001-2019
</metadata>
<g transform="translate(0.000000,84.000000) scale(0.100000,-0.100000)"
fill="#000000" stroke="none">
<path d="M454 737 c-4 -10 -13 -16 -21 -13 -8 3 -13 0 -12 -7 1 -6 -3 -25 -10
-41 -19 -46 -4 -85 56 -145 30 -31 60 -69 67 -86 7 -17 31 -43 52 -59 21 -16
57 -46 79 -67 39 -38 41 -38 80 -27 53 15 68 27 55 43 -7 9 -6 16 5 25 9 7 14
19 11 25 -2 7 1 29 8 50 28 80 -6 117 -94 104 -96 -13 -100 -13 -100 21 0 22
-5 30 -17 30 -16 0 -16 1 0 13 11 8 14 17 7 27 -7 12 -13 12 -32 1 -17 -9 -31
-9 -51 -2 -28 11 -31 16 -41 61 -3 14 -12 34 -20 45 -14 19 -15 19 -22 2z"/>
<path d="M920 569 c-19 -38 -35 -87 -36 -107 -1 -20 -5 -52 -9 -69 l-7 -33 46
0 46 0 0 140 c0 77 -1 140 -3 140 -2 0 -19 -32 -37 -71z"/>
</g>
</svg>
