<?xml version="1.0" standalone="no"?>
<!DOCTYPE svg PUBLIC "-//W3C//DTD SVG 20010904//EN"
 "http://www.w3.org/TR/2001/REC-SVG-20010904/DTD/svg10.dtd">
<svg version="1.0" xmlns="http://www.w3.org/2000/svg"
 width="96.000000pt" height="84.000000pt" viewBox="0 0 96.000000 84.000000"
 preserveAspectRatio="xMidYMid meet">
<metadata>
Created by potrace 1.16, written by Peter Selinger 2001-2019
</metadata>
<g transform="translate(0.000000,84.000000) scale(0.100000,-0.100000)"
fill="#000000" stroke="none">
<path d="M445 678 c-4 -9 -12 -15 -19 -12 -6 2 -13 -3 -14 -13 -1 -10 -5 -39
-8 -66 -6 -47 -6 -47 51 -105 32 -31 68 -73 81 -93 12 -20 44 -49 71 -64 26
-15 63 -39 80 -52 30 -22 36 -23 75 -12 54 16 64 24 49 42 -9 11 -8 17 1 25 8
6 14 39 16 81 3 68 2 71 -26 85 -25 13 -36 13 -88 1 -90 -22 -97 -20 -92 15 3
17 0 30 -6 30 -6 0 -6 4 2 12 7 7 8 17 1 30 -10 19 -39 25 -39 9 0 -5 -9 -13
-20 -16 -29 -9 -70 20 -70 49 0 13 -9 34 -19 47 -17 21 -20 22 -26 7z"/>
<path d="M951 534 c0 -11 3 -14 6 -6 3 7 2 16 -1 19 -3 4 -6 -2 -5 -13z"/>
<path d="M947 477 c-11 -29 -9 -53 4 -40 6 6 9 21 7 34 -3 21 -4 22 -11 6z"/>
</g>
</svg>
