<?xml version="1.0" standalone="no"?>
<!DOCTYPE svg PUBLIC "-//W3C//DTD SVG 20010904//EN"
 "http://www.w3.org/TR/2001/REC-SVG-20010904/DTD/svg10.dtd">
<svg version="1.0" xmlns="http://www.w3.org/2000/svg"
 width="96.000000pt" height="84.000000pt" viewBox="0 0 96.000000 84.000000"
 preserveAspectRatio="xMidYMid meet">
<metadata>
Created by potrace 1.16, written by Peter Selinger 2001-2019
</metadata>
<g transform="translate(0.000000,84.000000) scale(0.100000,-0.100000)"
fill="#000000" stroke="none">
<path d="M425 588 c-4 -10 -13 -18 -21 -18 -7 0 -11 -6 -8 -14 3 -8 1 -17 -5
-21 -6 -3 -11 -22 -11 -42 0 -31 8 -44 58 -92 32 -31 67 -68 77 -84 11 -17 50
-43 107 -71 84 -40 93 -42 134 -33 42 10 62 37 27 37 -14 0 -12 5 8 26 14 16
20 28 13 31 -8 2 -9 16 -5 36 16 79 -22 110 -106 84 -93 -29 -96 -29 -91 4 3
16 0 29 -5 29 -5 0 -7 7 -3 15 3 9 0 15 -9 15 -17 0 -20 16 -5 25 6 4 8 11 4
17 -4 5 -18 -2 -35 -18 -25 -24 -32 -26 -54 -16 -17 8 -25 20 -25 36 0 13 -9
34 -19 47 -18 22 -20 22 -26 7z"/>
</g>
</svg>
