<?xml version="1.0" standalone="no"?>
<!DOCTYPE svg PUBLIC "-//W3C//DTD SVG 20010904//EN"
 "http://www.w3.org/TR/2001/REC-SVG-20010904/DTD/svg10.dtd">
<svg version="1.0" xmlns="http://www.w3.org/2000/svg"
 width="96.000000pt" height="84.000000pt" viewBox="0 0 96.000000 84.000000"
 preserveAspectRatio="xMidYMid meet">
<metadata>
Created by potrace 1.16, written by Peter Selinger 2001-2019
</metadata>
<g transform="translate(0.000000,84.000000) scale(0.100000,-0.100000)"
fill="#000000" stroke="none">
<path d="M390 465 c0 -9 -8 -19 -17 -21 -13 -4 -19 -17 -21 -49 -2 -37 2 -49
29 -79 17 -20 36 -36 42 -36 7 0 28 -18 49 -41 50 -55 179 -103 236 -87 52 14
58 19 37 34 -17 13 -18 15 -1 33 11 12 14 21 7 26 -6 3 -11 24 -11 45 0 31 -5
43 -25 56 -23 15 -28 15 -90 -10 -36 -14 -67 -26 -69 -26 -2 0 -1 11 2 25 3
16 0 25 -9 25 -10 0 -10 3 -1 12 20 20 14 28 -13 18 -29 -11 -31 -4 -9 28 8
12 10 22 5 22 -6 0 -18 -11 -27 -25 -9 -15 -26 -25 -39 -25 -18 0 -26 9 -37
42 -13 42 -38 64 -38 33z"/>
</g>
</svg>
