<?xml version="1.0" standalone="no"?>
<!DOCTYPE svg PUBLIC "-//W3C//DTD SVG 20010904//EN"
 "http://www.w3.org/TR/2001/REC-SVG-20010904/DTD/svg10.dtd">
<svg version="1.0" xmlns="http://www.w3.org/2000/svg"
 width="96.000000pt" height="84.000000pt" viewBox="0 0 96.000000 84.000000"
 preserveAspectRatio="xMidYMid meet">
<metadata>
Created by potrace 1.16, written by Peter Selinger 2001-2019
</metadata>
<g transform="translate(0.000000,84.000000) scale(0.100000,-0.100000)"
fill="#000000" stroke="none">
<path d="M350 346 c0 -8 -8 -20 -19 -25 -16 -9 -17 -17 -11 -52 8 -45 27 -65
92 -99 21 -11 42 -29 48 -39 6 -11 40 -29 85 -45 l76 -25 40 20 c40 22 48 34
27 42 -10 3 -10 9 0 27 8 12 10 25 5 29 -4 3 -9 20 -11 36 -3 33 -29 59 -52
51 -8 -3 -36 -13 -62 -23 -52 -19 -57 -18 -60 20 -2 22 -6 25 -25 21 -22 -6
-32 9 -14 20 5 3 11 16 14 28 5 18 0 15 -28 -15 -19 -20 -36 -37 -39 -37 -3 0
-14 17 -23 37 -19 39 -43 55 -43 29z"/>
</g>
</svg>
