<?xml version="1.0" standalone="no"?>
<!DOCTYPE svg PUBLIC "-//W3C//DTD SVG 20010904//EN"
 "http://www.w3.org/TR/2001/REC-SVG-20010904/DTD/svg10.dtd">
<svg version="1.0" xmlns="http://www.w3.org/2000/svg"
 width="96.000000pt" height="84.000000pt" viewBox="0 0 96.000000 84.000000"
 preserveAspectRatio="xMidYMid meet">
<metadata>
Created by potrace 1.16, written by Peter Selinger 2001-2019
</metadata>
<g transform="translate(0.000000,84.000000) scale(0.100000,-0.100000)"
fill="#000000" stroke="none">
<path d="M350 345 c0 -8 -7 -15 -16 -15 -29 0 -11 -75 26 -110 18 -17 34 -30
37 -30 2 0 24 -16 47 -35 65 -53 148 -87 191 -79 36 6 58 25 37 32 -17 5 -15
23 6 39 12 10 14 16 5 19 -7 3 -13 23 -13 44 0 21 -7 45 -15 54 -14 14 -21 13
-72 -9 -71 -32 -79 -31 -86 5 -5 22 -12 30 -27 30 l-21 0 20 27 c31 38 17 40
-17 2 -31 -34 -62 -35 -62 -1 0 18 -18 42 -32 42 -4 0 -8 -7 -8 -15z"/>
</g>
</svg>
