<?xml version="1.0" standalone="no"?>
<!DOCTYPE svg PUBLIC "-//W3C//DTD SVG 20010904//EN"
 "http://www.w3.org/TR/2001/REC-SVG-20010904/DTD/svg10.dtd">
<svg version="1.0" xmlns="http://www.w3.org/2000/svg"
 width="96.000000pt" height="84.000000pt" viewBox="0 0 96.000000 84.000000"
 preserveAspectRatio="xMidYMid meet">
<metadata>
Created by potrace 1.16, written by Peter Selinger 2001-2019
</metadata>
<g transform="translate(0.000000,84.000000) scale(0.100000,-0.100000)"
fill="#000000" stroke="none">
<path d="M353 370 c-17 -7 -23 -18 -23 -39 0 -37 82 -139 140 -176 21 -13 41
-33 44 -43 4 -11 15 -27 26 -37 17 -15 24 -16 45 -7 17 8 25 8 25 1 0 -14 42
-7 48 9 2 7 -5 12 -18 12 -16 0 -21 5 -18 23 2 12 10 23 18 23 8 1 21 2 28 3
20 2 14 18 -9 24 -16 4 -20 10 -14 24 24 59 28 72 22 86 -6 15 -10 15 -54 1
-92 -31 -107 -30 -131 7 -18 29 -19 35 -6 53 24 35 15 39 -23 10 -23 -18 -38
-24 -41 -16 -2 6 -11 20 -20 31 -13 15 -22 17 -39 11z"/>
</g>
</svg>
