<?xml version="1.0" standalone="no"?>
<!DOCTYPE svg PUBLIC "-//W3C//DTD SVG 20010904//EN"
 "http://www.w3.org/TR/2001/REC-SVG-20010904/DTD/svg10.dtd">
<svg version="1.0" xmlns="http://www.w3.org/2000/svg"
 width="96.000000pt" height="84.000000pt" viewBox="0 0 96.000000 84.000000"
 preserveAspectRatio="xMidYMid meet">
<metadata>
Created by potrace 1.16, written by Peter Selinger 2001-2019
</metadata>
<g transform="translate(0.000000,84.000000) scale(0.100000,-0.100000)"
fill="#000000" stroke="none">
<path d="M341 397 c-18 -18 -12 -54 14 -85 14 -17 25 -37 25 -45 0 -8 18 -30
41 -48 72 -60 79 -68 79 -97 0 -29 31 -68 43 -55 4 3 18 1 31 -7 14 -7 33 -9
43 -6 16 7 15 9 -9 22 -33 17 -32 12 -12 59 14 34 16 36 33 21 24 -22 79 -17
73 7 -3 11 -14 17 -32 17 -37 0 -45 25 -20 57 33 42 27 61 -18 57 -21 -2 -51
-8 -66 -14 -43 -16 -65 -12 -91 16 -31 33 -31 37 0 54 28 15 32 25 11 33 -8 3
-26 -3 -39 -14 -30 -23 -37 -24 -37 -5 0 29 -49 53 -69 33z"/>
</g>
</svg>
