<?xml version="1.0" standalone="no"?>
<!DOCTYPE svg PUBLIC "-//W3C//DTD SVG 20010904//EN"
 "http://www.w3.org/TR/2001/REC-SVG-20010904/DTD/svg10.dtd">
<svg version="1.0" xmlns="http://www.w3.org/2000/svg"
 width="96.000000pt" height="84.000000pt" viewBox="0 0 96.000000 84.000000"
 preserveAspectRatio="xMidYMid meet">
<metadata>
Created by potrace 1.16, written by Peter Selinger 2001-2019
</metadata>
<g transform="translate(0.000000,84.000000) scale(0.100000,-0.100000)"
fill="#000000" stroke="none">
<path d="M331 431 c-15 -26 -3 -79 20 -92 11 -5 19 -20 19 -32 0 -26 78 -113
98 -109 8 2 12 -9 12 -30 0 -42 21 -83 42 -83 9 0 20 -4 24 -8 16 -15 35 -7
29 12 -3 12 3 37 15 60 l20 40 55 -21 c31 -11 58 -19 60 -16 3 2 8 19 11 36 5
25 3 32 -9 32 -8 0 -17 -5 -19 -12 -3 -9 -13 -9 -39 -2 -41 12 -50 43 -20 73
21 21 27 46 13 55 -4 2 -32 -4 -62 -15 -75 -26 -97 -24 -131 12 l-30 32 31 19
c17 10 28 23 25 28 -10 16 -41 11 -60 -10 -18 -19 -18 -19 -34 13 -19 38 -55
48 -70 18z m123 -187 c3 -8 2 -12 -4 -9 -6 3 -10 10 -10 16 0 14 7 11 14 -7z"/>
</g>
</svg>
