<?xml version="1.0" standalone="no"?>
<!DOCTYPE svg PUBLIC "-//W3C//DTD SVG 20010904//EN"
 "http://www.w3.org/TR/2001/REC-SVG-20010904/DTD/svg10.dtd">
<svg version="1.0" xmlns="http://www.w3.org/2000/svg"
 width="96.000000pt" height="84.000000pt" viewBox="0 0 96.000000 84.000000"
 preserveAspectRatio="xMidYMid meet">
<metadata>
Created by potrace 1.16, written by Peter Selinger 2001-2019
</metadata>
<g transform="translate(0.000000,84.000000) scale(0.100000,-0.100000)"
fill="#000000" stroke="none">
<path d="M341 471 c-18 -33 -13 -79 9 -93 11 -7 20 -22 20 -33 0 -11 16 -46
37 -78 28 -44 40 -56 55 -52 19 7 23 -5 19 -57 -3 -37 15 -68 40 -68 11 0 39
18 64 41 l44 41 34 -26 c40 -31 49 -32 70 -8 22 24 21 32 -3 32 -15 0 -61 15
-78 26 -2 1 4 14 13 28 32 48 8 73 -73 75 -40 1 -91 25 -114 55 -24 30 -22 37
10 34 21 -2 28 2 30 20 2 15 -2 22 -12 22 -9 0 -16 -3 -16 -7 0 -5 -16 -8 -35
-8 -29 0 -35 4 -35 21 0 41 -62 68 -79 35z m119 -217 c0 -8 -4 -12 -10 -9 -5
3 -10 10 -10 16 0 5 5 9 10 9 6 0 10 -7 10 -16z"/>
</g>
</svg>
