<?xml version="1.0" standalone="no"?>
<!DOCTYPE svg PUBLIC "-//W3C//DTD SVG 20010904//EN"
 "http://www.w3.org/TR/2001/REC-SVG-20010904/DTD/svg10.dtd">
<svg version="1.0" xmlns="http://www.w3.org/2000/svg"
 width="96.000000pt" height="84.000000pt" viewBox="0 0 96.000000 84.000000"
 preserveAspectRatio="xMidYMid meet">
<metadata>
Created by potrace 1.16, written by Peter Selinger 2001-2019
</metadata>
<g transform="translate(0.000000,84.000000) scale(0.100000,-0.100000)"
fill="#000000" stroke="none">
<path d="M0 420 l0 -420 243 0 243 0 22 47 c12 27 18 49 12 51 -6 2 -10 42
-10 92 0 88 0 88 -27 95 -36 9 -63 33 -63 58 0 23 37 77 53 77 7 0 13 11 13
25 2 20 -3 25 -22 25 -13 0 -24 5 -24 11 0 5 -26 22 -57 36 -32 14 -60 28 -63
32 -3 4 -13 10 -22 14 -22 8 -34 55 -21 76 5 8 20 18 32 21 12 3 22 8 22 13
-2 20 1 25 24 35 31 14 55 15 74 3 12 -8 12 -13 -2 -35 -24 -36 -21 -43 14
-38 22 3 37 15 55 43 33 52 63 70 131 76 53 4 62 2 103 -27 25 -17 66 -45 93
-62 26 -17 47 -35 47 -39 0 -15 -75 -10 -96 6 -10 8 -31 15 -46 15 -26 0 -28
-3 -28 -38 l0 -38 73 -18 c79 -18 137 -48 137 -69 0 -7 -7 -22 -15 -33 -8 -10
-15 -22 -15 -26 0 -6 64 -38 76 -38 2 0 4 101 4 225 l0 225 -480 0 -480 0 0
-420z"/>
<path d="M543 393 c-17 -6 -16 -64 0 -88 13 -16 14 -15 20 19 7 43 -3 75 -20
69z"/>
<path d="M938 373 c7 -3 16 -2 19 1 4 3 -2 6 -13 5 -11 0 -14 -3 -6 -6z"/>
<path d="M744 286 c3 -6 16 -37 29 -69 30 -72 35 -76 42 -41 9 42 18 56 43 65
17 6 24 5 27 -6 3 -8 7 -21 9 -29 4 -11 12 -13 33 -7 21 5 29 14 31 35 2 16
-2 34 -9 40 -9 8 -10 8 -5 -2 7 -12 -15 -11 -61 4 -7 2 -13 -1 -13 -7 0 -5
-14 -2 -31 7 -38 19 -102 26 -95 10z"/>
<path d="M590 108 c0 -13 -9 -42 -20 -65 l-19 -43 49 0 c61 0 67 16 32 83 -27
51 -42 60 -42 25z"/>
</g>
</svg>
