<?xml version="1.0" standalone="no"?>
<!DOCTYPE svg PUBLIC "-//W3C//DTD SVG 20010904//EN"
 "http://www.w3.org/TR/2001/REC-SVG-20010904/DTD/svg10.dtd">
<svg version="1.0" xmlns="http://www.w3.org/2000/svg"
 width="96.000000pt" height="84.000000pt" viewBox="0 0 96.000000 84.000000"
 preserveAspectRatio="xMidYMid meet">
<metadata>
Created by potrace 1.16, written by Peter Selinger 2001-2019
</metadata>
<g transform="translate(0.000000,84.000000) scale(0.100000,-0.100000)"
fill="#000000" stroke="none">
<path d="M346 555 c-20 -20 -21 -64 -2 -90 7 -11 16 -42 19 -68 9 -68 23 -90
52 -83 22 6 24 2 30 -38 4 -24 4 -53 0 -65 -3 -11 -1 -37 6 -56 11 -29 18 -35
41 -35 19 0 37 -10 53 -27 19 -23 26 -26 36 -15 11 10 9 15 -10 28 -21 15 -21
17 -5 35 12 13 24 17 42 12 23 -5 24 -4 18 21 -5 21 -1 34 18 56 22 27 45 105
33 117 -5 5 -62 5 -122 0 -25 -2 -30 1 -27 18 2 14 -8 26 -28 39 -17 10 -35
29 -40 42 -6 14 -16 27 -23 30 -8 3 -12 14 -10 27 8 44 -51 82 -81 52z"/>
</g>
</svg>
