<?xml version="1.0" standalone="no"?>
<!DOCTYPE svg PUBLIC "-//W3C//DTD SVG 20010904//EN"
 "http://www.w3.org/TR/2001/REC-SVG-20010904/DTD/svg10.dtd">
<svg version="1.0" xmlns="http://www.w3.org/2000/svg"
 width="96.000000pt" height="84.000000pt" viewBox="0 0 96.000000 84.000000"
 preserveAspectRatio="xMidYMid meet">
<metadata>
Created by potrace 1.16, written by Peter Selinger 2001-2019
</metadata>
<g transform="translate(0.000000,84.000000) scale(0.100000,-0.100000)"
fill="#000000" stroke="none">
<path d="M352 628 c-7 -7 -12 -19 -12 -28 0 -9 -5 -21 -11 -27 -9 -9 -8 -18 5
-37 9 -15 20 -26 25 -26 4 0 8 -24 7 -54 0 -63 16 -90 52 -83 l25 5 -6 -109
-6 -108 42 -13 c23 -6 46 -18 50 -25 13 -21 27 -15 27 10 0 13 9 32 21 43 23
21 27 17 59 -53 22 -48 45 -56 54 -18 7 29 1 45 -18 45 -7 0 -21 18 -31 40
-18 40 -18 41 3 63 25 27 45 75 38 94 -4 9 -24 13 -60 13 -53 0 -68 8 -73 39
-1 7 -15 28 -32 45 -17 18 -31 39 -31 48 0 9 -11 25 -24 35 -18 15 -21 23 -15
41 16 43 -57 92 -89 60z"/>
</g>
</svg>
