<?xml version="1.0" standalone="no"?>
<!DOCTYPE svg PUBLIC "-//W3C//DTD SVG 20010904//EN"
 "http://www.w3.org/TR/2001/REC-SVG-20010904/DTD/svg10.dtd">
<svg version="1.0" xmlns="http://www.w3.org/2000/svg"
 width="96.000000pt" height="84.000000pt" viewBox="0 0 96.000000 84.000000"
 preserveAspectRatio="xMidYMid meet">
<metadata>
Created by potrace 1.16, written by Peter Selinger 2001-2019
</metadata>
<g transform="translate(0.000000,84.000000) scale(0.100000,-0.100000)"
fill="#000000" stroke="none">
<path d="M382 655 c-27 -19 -39 -78 -23 -113 10 -21 14 -23 21 -11 6 9 9 -8 9
-50 -1 -66 12 -91 48 -91 16 0 17 -84 2 -150 -19 -83 1 -104 102 -105 46 0 46
0 58 -43 12 -44 34 -63 54 -43 8 8 5 23 -11 56 -28 58 -28 68 3 113 14 20 25
41 25 47 0 30 -28 65 -63 79 -32 12 -42 24 -67 81 -17 37 -30 73 -30 80 0 8
-10 22 -23 32 -16 13 -22 28 -22 57 0 34 -5 42 -31 58 -27 16 -32 16 -52 3z"/>
</g>
</svg>
