<?xml version="1.0" standalone="no"?>
<!DOCTYPE svg PUBLIC "-//W3C//DTD SVG 20010904//EN"
 "http://www.w3.org/TR/2001/REC-SVG-20010904/DTD/svg10.dtd">
<svg version="1.0" xmlns="http://www.w3.org/2000/svg"
 width="96.000000pt" height="84.000000pt" viewBox="0 0 96.000000 84.000000"
 preserveAspectRatio="xMidYMid meet">
<metadata>
Created by potrace 1.16, written by Peter Selinger 2001-2019
</metadata>
<g transform="translate(0.000000,84.000000) scale(0.100000,-0.100000)"
fill="#000000" stroke="none">
<path d="M393 654 c-7 -3 -17 -21 -23 -40 -14 -42 3 -99 27 -90 11 5 13 1 6
-17 -6 -18 -8 -78 -4 -134 1 -7 8 -13 17 -13 12 0 15 6 11 21 -3 12 -1 19 5
17 14 -5 11 -144 -3 -169 -5 -10 -9 -34 -9 -53 0 -30 4 -37 26 -42 14 -4 45
-4 70 0 42 5 44 4 44 -19 0 -13 4 -35 10 -50 9 -22 13 -24 31 -15 14 8 18 17
13 28 -3 9 -12 33 -19 52 -13 34 -13 35 18 48 22 8 37 25 49 52 16 40 16 41
-7 66 -13 14 -30 27 -37 28 -7 1 -25 10 -40 20 -22 15 -26 22 -21 51 6 40 -23
103 -65 140 -22 20 -24 26 -13 34 22 15 5 58 -31 75 -33 17 -36 17 -55 10z"/>
</g>
</svg>
