<?xml version="1.0" standalone="no"?>
<!DOCTYPE svg PUBLIC "-//W3C//DTD SVG 20010904//EN"
 "http://www.w3.org/TR/2001/REC-SVG-20010904/DTD/svg10.dtd">
<svg version="1.0" xmlns="http://www.w3.org/2000/svg"
 width="96.000000pt" height="84.000000pt" viewBox="0 0 96.000000 84.000000"
 preserveAspectRatio="xMidYMid meet">
<metadata>
Created by potrace 1.16, written by Peter Selinger 2001-2019
</metadata>
<g transform="translate(0.000000,84.000000) scale(0.100000,-0.100000)"
fill="#000000" stroke="none">
<path d="M390 680 c-32 -32 -36 -67 -11 -101 14 -19 19 -37 15 -53 -3 -13 -1
-27 5 -30 7 -5 8 -29 4 -66 -4 -45 -3 -60 7 -60 7 0 10 6 7 13 -2 6 0 21 4 32
6 13 8 -6 5 -53 -2 -40 -9 -79 -15 -85 -18 -18 -14 -87 6 -94 9 -4 19 -1 21 5
2 7 17 12 33 12 25 0 29 -4 29 -27 0 -35 14 -58 30 -48 8 5 10 20 6 44 -5 26
-4 32 3 21 6 -8 11 -29 11 -47 0 -35 9 -46 29 -34 10 7 11 13 1 30 -6 12 -10
34 -8 49 2 21 10 28 36 33 18 4 35 9 38 12 11 11 -25 75 -54 96 -34 24 -85
108 -71 116 5 4 9 22 9 41 0 19 5 34 10 34 21 0 9 19 -25 40 -27 17 -35 28
-35 50 0 28 -42 90 -61 90 -5 0 -18 -9 -29 -20z"/>
</g>
</svg>
