<?xml version="1.0" standalone="no"?>
<!DOCTYPE svg PUBLIC "-//W3C//DTD SVG 20010904//EN"
 "http://www.w3.org/TR/2001/REC-SVG-20010904/DTD/svg10.dtd">
<svg version="1.0" xmlns="http://www.w3.org/2000/svg"
 width="96.000000pt" height="84.000000pt" viewBox="0 0 96.000000 84.000000"
 preserveAspectRatio="xMidYMid meet">
<metadata>
Created by potrace 1.16, written by Peter Selinger 2001-2019
</metadata>
<g transform="translate(0.000000,84.000000) scale(0.100000,-0.100000)"
fill="#000000" stroke="none">
<path d="M374 693 c-14 -33 -14 -41 -1 -63 7 -14 19 -24 25 -22 15 3 15 -1 0
-33 -8 -19 -8 -31 0 -50 9 -19 9 -38 0 -77 -10 -40 -10 -52 0 -56 18 -6 14
-53 -6 -84 -12 -18 -17 -40 -14 -63 5 -40 10 -42 44 -15 l25 19 12 -59 c7 -32
9 -70 6 -83 -5 -18 -2 -26 11 -31 24 -9 47 20 35 43 -13 23 -24 141 -14 141
22 -1 39 -23 48 -67 12 -58 31 -55 27 5 -3 36 -1 42 15 42 11 0 27 6 37 13 16
12 16 15 -6 56 -12 23 -30 47 -39 52 -10 5 -31 31 -47 57 -29 48 -30 50 -11
65 29 26 22 69 -20 117 -15 17 -20 32 -16 48 8 31 -3 62 -21 62 -8 0 -14 5
-14 10 0 6 -13 10 -30 10 -25 0 -32 -6 -46 -37z"/>
</g>
</svg>
