<?xml version="1.0" standalone="no"?>
<!DOCTYPE svg PUBLIC "-//W3C//DTD SVG 20010904//EN"
 "http://www.w3.org/TR/2001/REC-SVG-20010904/DTD/svg10.dtd">
<svg version="1.0" xmlns="http://www.w3.org/2000/svg"
 width="96.000000pt" height="84.000000pt" viewBox="0 0 96.000000 84.000000"
 preserveAspectRatio="xMidYMid meet">
<metadata>
Created by potrace 1.16, written by Peter Selinger 2001-2019
</metadata>
<g transform="translate(0.000000,84.000000) scale(0.100000,-0.100000)"
fill="#000000" stroke="none">
<path d="M390 698 c-25 -41 -25 -74 -1 -90 16 -9 17 -16 8 -35 -7 -17 -7 -34
3 -62 18 -55 9 -172 -16 -204 -12 -14 -19 -39 -19 -63 0 -36 3 -40 35 -50 l35
-12 0 -76 c-1 -80 10 -96 38 -55 11 15 13 29 6 52 -5 18 -9 43 -9 56 0 19 4
22 21 18 49 -13 129 53 129 106 0 11 -20 38 -44 62 -24 23 -52 57 -61 75 -15
30 -15 33 0 50 13 14 15 28 10 59 -4 23 -11 43 -16 47 -5 3 -14 14 -20 26 -8
15 -8 19 0 14 7 -5 11 4 11 24 0 22 -9 39 -32 61 -41 37 -54 37 -78 -3z"/>
</g>
</svg>
