<?xml version="1.0" standalone="no"?>
<!DOCTYPE svg PUBLIC "-//W3C//DTD SVG 20010904//EN"
 "http://www.w3.org/TR/2001/REC-SVG-20010904/DTD/svg10.dtd">
<svg version="1.0" xmlns="http://www.w3.org/2000/svg"
 width="96.000000pt" height="84.000000pt" viewBox="0 0 96.000000 84.000000"
 preserveAspectRatio="xMidYMid meet">
<metadata>
Created by potrace 1.16, written by Peter Selinger 2001-2019
</metadata>
<g transform="translate(0.000000,84.000000) scale(0.100000,-0.100000)"
fill="#000000" stroke="none">
<path d="M411 681 c-25 -35 -30 -111 -7 -92 24 20 29 -6 8 -37 -34 -47 -47
-154 -21 -160 13 -2 16 5 15 37 0 22 3 43 7 47 13 14 22 -8 20 -51 -1 -40 -20
-86 -69 -173 l-19 -33 29 -25 c16 -15 35 -23 44 -19 8 3 19 0 24 -7 11 -19 10
-62 -3 -75 -13 -13 -4 -33 15 -33 7 0 21 9 31 20 15 17 16 24 7 46 -7 13 -12
34 -12 45 0 16 4 19 21 14 14 -5 40 1 71 16 48 23 50 24 44 59 -3 19 -16 44
-29 55 -13 11 -32 42 -42 68 -10 26 -22 50 -27 53 -4 3 -1 12 8 21 18 18 12
73 -10 108 -7 11 -11 34 -9 52 6 38 -28 93 -57 93 -10 0 -28 -13 -39 -29z"/>
</g>
</svg>
