<?xml version="1.0" standalone="no"?>
<!DOCTYPE svg PUBLIC "-//W3C//DTD SVG 20010904//EN"
 "http://www.w3.org/TR/2001/REC-SVG-20010904/DTD/svg10.dtd">
<svg version="1.0" xmlns="http://www.w3.org/2000/svg"
 width="96.000000pt" height="84.000000pt" viewBox="0 0 96.000000 84.000000"
 preserveAspectRatio="xMidYMid meet">
<metadata>
Created by potrace 1.16, written by Peter Selinger 2001-2019
</metadata>
<g transform="translate(0.000000,84.000000) scale(0.100000,-0.100000)"
fill="#000000" stroke="none">
<path d="M434 715 c-15 -23 -16 -58 -3 -105 3 -10 -3 -15 -17 -15 -12 -1 -29
-7 -38 -14 -19 -16 -22 -55 -3 -48 52 19 56 19 62 -10 4 -15 10 -35 15 -44 14
-27 -5 -83 -53 -161 -32 -50 -43 -76 -36 -84 14 -18 76 -26 98 -14 18 9 19 7
14 -26 -5 -29 -3 -36 8 -32 8 2 20 17 28 33 12 24 15 26 23 11 5 -9 6 -30 3
-46 -5 -23 -3 -30 8 -30 20 0 31 53 18 79 -17 32 -14 43 9 31 14 -8 25 -7 39
2 26 16 22 63 -9 97 -13 14 -29 41 -37 59 -12 28 -11 32 2 32 20 0 19 48 0 74
-8 11 -15 29 -15 40 0 12 -9 34 -19 50 -15 23 -17 34 -9 57 8 23 6 34 -12 59
-26 37 -54 38 -76 5z m120 -251 c9 -24 7 -28 -9 -14 -17 14 -20 30 -6 30 5 0
12 -7 15 -16z"/>
</g>
</svg>
