<?xml version="1.0" standalone="no"?>
<!DOCTYPE svg PUBLIC "-//W3C//DTD SVG 20010904//EN"
 "http://www.w3.org/TR/2001/REC-SVG-20010904/DTD/svg10.dtd">
<svg version="1.0" xmlns="http://www.w3.org/2000/svg"
 width="96.000000pt" height="84.000000pt" viewBox="0 0 96.000000 84.000000"
 preserveAspectRatio="xMidYMid meet">
<metadata>
Created by potrace 1.16, written by Peter Selinger 2001-2019
</metadata>
<g transform="translate(0.000000,84.000000) scale(0.100000,-0.100000)"
fill="#000000" stroke="none">
<path d="M0 441 l0 -399 52 -6 c92 -11 332 -36 348 -36 27 1 129 173 109 186
-5 3 -9 32 -9 64 0 70 -6 90 -30 90 -20 0 -50 30 -50 51 0 19 36 59 53 59 7 0
19 -6 27 -12 8 -7 7 -4 -3 8 -9 11 -17 25 -17 31 0 5 -10 15 -22 21 -41 21
-82 47 -116 71 -37 28 -43 61 -11 61 19 0 19 1 5 16 -20 19 -20 38 -2 53 10 8
16 9 21 1 3 -5 17 -10 31 -10 20 0 24 -5 24 -31 0 -29 1 -30 33 -24 19 5 45
23 65 46 55 64 131 65 205 1 24 -21 54 -44 67 -54 23 -15 24 -17 6 -24 -11 -4
-35 1 -63 15 -51 25 -66 19 -61 -24 3 -24 12 -30 65 -50 76 -27 96 -42 89 -67
-3 -13 3 -23 20 -30 15 -7 20 -14 14 -18 -7 -4 1 -12 19 -19 29 -13 50 -41 30
-41 -7 0 -9 -11 -7 -25 3 -13 1 -22 -4 -19 -4 3 -31 6 -59 8 -44 2 -49 0 -33
-11 16 -12 14 -13 -16 -7 -19 3 -41 7 -47 10 -16 4 -17 -35 -2 -73 l12 -28 8
31 c11 37 38 52 55 30 8 -11 20 -14 41 -10 40 8 56 -14 51 -70 -3 -38 0 -46
17 -50 47 -13 45 -25 45 339 l0 345 -480 0 -480 0 0 -399z"/>
<path d="M523 423 c-18 -6 -16 -45 2 -69 8 -10 15 -14 15 -9 1 6 3 20 6 33 5
29 -7 51 -23 45z"/>
<path d="M567 180 c-4 -18 -23 -58 -42 -90 -19 -32 -35 -60 -35 -64 0 -18 35
0 81 42 57 52 60 73 21 122 l-19 23 -6 -33z"/>
<path d="M876 95 c-4 -11 3 -19 20 -25 40 -16 64 -12 64 9 0 30 -73 44 -84 16z"/>
</g>
</svg>
