<?xml version="1.0" standalone="no"?>
<!DOCTYPE svg PUBLIC "-//W3C//DTD SVG 20010904//EN"
 "http://www.w3.org/TR/2001/REC-SVG-20010904/DTD/svg10.dtd">
<svg version="1.0" xmlns="http://www.w3.org/2000/svg"
 width="96.000000pt" height="84.000000pt" viewBox="0 0 96.000000 84.000000"
 preserveAspectRatio="xMidYMid meet">
<metadata>
Created by potrace 1.16, written by Peter Selinger 2001-2019
</metadata>
<g transform="translate(0.000000,84.000000) scale(0.100000,-0.100000)"
fill="#000000" stroke="none">
<path d="M434 755 c-22 -33 -21 -71 2 -96 16 -17 16 -22 4 -30 -8 -5 -24 -8
-35 -7 -31 4 -45 -10 -45 -43 0 -33 6 -35 38 -13 28 19 33 15 49 -38 14 -49 0
-98 -51 -167 -19 -25 -41 -64 -50 -85 -19 -45 -11 -55 35 -50 28 3 29 2 29
-36 0 -29 -5 -42 -20 -50 -11 -6 -20 -14 -20 -18 0 -9 62 -34 68 -27 2 2 8 43
13 91 9 91 19 114 49 114 19 0 50 -77 50 -124 0 -28 17 -45 25 -24 2 7 6 30 8
52 3 29 11 42 31 55 22 13 26 21 20 46 -3 16 -18 41 -34 55 -36 32 -45 59 -25
74 14 10 14 16 0 55 -8 24 -15 58 -15 76 0 18 -9 44 -21 58 -16 21 -18 31 -10
46 17 30 13 47 -15 80 -31 38 -58 39 -80 6z m120 -277 c10 -38 6 -45 -9 -18
-17 29 -18 40 -6 40 5 0 11 -10 15 -22z"/>
</g>
</svg>
