<?xml version="1.0" standalone="no"?>
<!DOCTYPE svg PUBLIC "-//W3C//DTD SVG 20010904//EN"
 "http://www.w3.org/TR/2001/REC-SVG-20010904/DTD/svg10.dtd">
<svg version="1.0" xmlns="http://www.w3.org/2000/svg"
 width="96.000000pt" height="84.000000pt" viewBox="0 0 96.000000 84.000000"
 preserveAspectRatio="xMidYMid meet">
<metadata>
Created by potrace 1.16, written by Peter Selinger 2001-2019
</metadata>
<g transform="translate(0.000000,84.000000) scale(0.100000,-0.100000)"
fill="#000000" stroke="none">
<path d="M430 758 c-25 -27 -25 -44 -1 -91 l19 -36 -33 -25 c-18 -14 -35 -22
-39 -19 -6 6 -36 -15 -36 -26 0 -3 9 -17 20 -31 l19 -25 30 35 29 35 7 -38
c14 -71 -1 -136 -56 -244 -28 -55 -48 -106 -45 -112 4 -6 21 -15 39 -19 30 -8
32 -12 30 -47 -2 -29 -10 -45 -30 -60 -33 -27 -26 -60 9 -50 25 8 58 34 56 44
-2 9 12 62 22 89 7 16 18 22 39 22 17 0 31 6 35 16 4 10 14 14 26 11 13 -3 30
5 51 23 26 25 29 34 23 65 -4 22 -16 43 -35 55 -42 30 -89 170 -48 145 5 -4 9
-19 9 -36 0 -29 13 -39 25 -19 11 18 -26 164 -51 201 -28 41 -30 51 -9 43 28
-11 17 43 -16 81 -36 40 -60 44 -89 13z"/>
</g>
</svg>
