<?xml version="1.0" standalone="no"?>
<!DOCTYPE svg PUBLIC "-//W3C//DTD SVG 20010904//EN"
 "http://www.w3.org/TR/2001/REC-SVG-20010904/DTD/svg10.dtd">
<svg version="1.0" xmlns="http://www.w3.org/2000/svg"
 width="96.000000pt" height="84.000000pt" viewBox="0 0 96.000000 84.000000"
 preserveAspectRatio="xMidYMid meet">
<metadata>
Created by potrace 1.16, written by Peter Selinger 2001-2019
</metadata>
<g transform="translate(0.000000,84.000000) scale(0.100000,-0.100000)"
fill="#000000" stroke="none">
<path d="M426 715 c-14 -22 -15 -31 -4 -66 6 -23 18 -43 25 -46 9 -4 6 -13
-12 -35 -14 -16 -25 -35 -26 -41 -1 -7 -2 -21 -3 -32 -1 -13 -10 -21 -30 -25
-37 -6 -56 -34 -37 -52 10 -10 15 -10 18 -1 2 7 19 15 38 19 22 4 35 13 40 27
6 20 8 19 15 -10 12 -53 -52 -215 -79 -198 -15 9 -58 -106 -46 -125 8 -13 72
-40 96 -40 10 0 20 -4 23 -8 9 -16 -6 -51 -25 -57 -36 -12 -19 -25 32 -25 l52
0 -6 40 c-4 33 -2 40 11 40 29 0 91 20 104 34 7 7 26 21 41 31 24 15 27 22 21
49 -3 17 -21 47 -39 66 -19 19 -43 60 -54 90 l-21 55 25 18 c33 25 32 59 -5
125 -16 29 -26 60 -23 68 8 22 -5 60 -33 93 -33 40 -75 42 -98 6z"/>
</g>
</svg>
