<?xml version="1.0" standalone="no"?>
<!DOCTYPE svg PUBLIC "-//W3C//DTD SVG 20010904//EN"
 "http://www.w3.org/TR/2001/REC-SVG-20010904/DTD/svg10.dtd">
<svg version="1.0" xmlns="http://www.w3.org/2000/svg"
 width="96.000000pt" height="84.000000pt" viewBox="0 0 96.000000 84.000000"
 preserveAspectRatio="xMidYMid meet">
<metadata>
Created by potrace 1.16, written by Peter Selinger 2001-2019
</metadata>
<g transform="translate(0.000000,84.000000) scale(0.100000,-0.100000)"
fill="#000000" stroke="none">
<path d="M442 747 c-12 -13 -22 -29 -22 -37 0 -24 25 -85 39 -96 12 -9 12 -12
0 -20 -8 -4 -23 -8 -34 -9 -13 0 -21 -8 -23 -22 -3 -18 1 -23 20 -23 20 0 25
-7 34 -45 8 -36 8 -50 -3 -65 -8 -12 -11 -29 -8 -41 10 -31 -11 -71 -55 -103
-21 -16 -55 -46 -76 -67 l-36 -37 21 -30 c22 -32 76 -62 110 -62 20 0 21 -4
15 -35 -8 -43 14 -48 43 -11 15 21 28 25 87 28 77 3 88 -5 60 -46 -16 -26 -16
-26 14 -26 24 0 30 5 35 29 3 15 4 37 1 48 -3 11 4 35 15 54 28 46 19 103 -23
145 -17 18 -43 56 -57 85 l-27 54 29 12 c47 20 47 52 0 138 -23 42 -41 89 -41
103 0 15 -11 44 -25 65 -30 44 -61 48 -93 14z"/>
</g>
</svg>
