<?xml version="1.0" standalone="no"?>
<!DOCTYPE svg PUBLIC "-//W3C//DTD SVG 20010904//EN"
 "http://www.w3.org/TR/2001/REC-SVG-20010904/DTD/svg10.dtd">
<svg version="1.0" xmlns="http://www.w3.org/2000/svg"
 width="96.000000pt" height="84.000000pt" viewBox="0 0 96.000000 84.000000"
 preserveAspectRatio="xMidYMid meet">
<metadata>
Created by potrace 1.16, written by Peter Selinger 2001-2019
</metadata>
<g transform="translate(0.000000,84.000000) scale(0.100000,-0.100000)"
fill="#000000" stroke="none">
<path d="M440 782 c-19 -18 -29 -36 -27 -48 10 -52 21 -80 35 -91 13 -11 14
-16 2 -37 -12 -23 -14 -24 -35 -10 -19 13 -24 13 -35 -1 -17 -20 -6 -43 22
-47 68 -9 66 -199 -4 -267 -17 -17 -35 -28 -39 -25 -5 2 -20 -13 -33 -35 -14
-22 -30 -42 -35 -46 -6 -3 3 -25 23 -53 26 -38 32 -54 28 -84 -4 -35 -2 -38
22 -38 21 0 26 5 26 26 0 19 4 24 18 20 63 -19 113 -25 137 -16 15 6 37 10 49
10 13 0 31 9 41 20 22 24 35 12 35 -32 0 -21 5 -28 20 -28 27 0 36 40 16 77
-14 28 -13 31 6 51 20 19 20 24 9 64 -15 51 -27 67 -58 79 -20 8 -83 101 -83
124 0 6 15 15 32 20 54 16 57 49 16 136 -20 41 -45 83 -57 93 -24 22 -29 45
-6 26 11 -9 19 -10 27 -2 16 16 -10 81 -38 94 -13 6 -24 14 -24 18 0 6 -44 30
-55 30 -2 0 -18 -13 -35 -28z"/>
</g>
</svg>
