<?xml version="1.0" standalone="no"?>
<!DOCTYPE svg PUBLIC "-//W3C//DTD SVG 20010904//EN"
 "http://www.w3.org/TR/2001/REC-SVG-20010904/DTD/svg10.dtd">
<svg version="1.0" xmlns="http://www.w3.org/2000/svg"
 width="96.000000pt" height="84.000000pt" viewBox="0 0 96.000000 84.000000"
 preserveAspectRatio="xMidYMid meet">
<metadata>
Created by potrace 1.16, written by Peter Selinger 2001-2019
</metadata>
<g transform="translate(0.000000,84.000000) scale(0.100000,-0.100000)"
fill="#000000" stroke="none">
<path d="M416 758 c-29 -27 -34 -37 -29 -62 3 -17 10 -35 14 -40 5 -6 9 -19 9
-29 0 -10 9 -21 20 -24 22 -6 26 -18 10 -28 -5 -3 -10 -22 -10 -41 0 -39 -2
-40 -35 -18 -30 20 -55 5 -55 -32 0 -23 12 -29 48 -25 6 1 12 -2 12 -7 0 -5 9
-12 20 -15 25 -6 25 -31 4 -151 -18 -104 -37 -156 -57 -156 -16 0 -32 -36 -42
-93 l-6 -38 225 2 226 1 0 33 c0 56 -44 137 -94 172 -29 20 -55 50 -71 82 -31
61 -31 61 -1 61 56 0 62 59 16 170 -17 41 -44 92 -61 113 -16 20 -25 37 -20
37 5 0 13 -4 16 -10 9 -14 52 -13 61 2 10 16 -122 128 -152 128 -7 0 -29 -14
-48 -32z"/>
</g>
</svg>
