<?xml version="1.0" standalone="no"?>
<!DOCTYPE svg PUBLIC "-//W3C//DTD SVG 20010904//EN"
 "http://www.w3.org/TR/2001/REC-SVG-20010904/DTD/svg10.dtd">
<svg version="1.0" xmlns="http://www.w3.org/2000/svg"
 width="96.000000pt" height="84.000000pt" viewBox="0 0 96.000000 84.000000"
 preserveAspectRatio="xMidYMid meet">
<metadata>
Created by potrace 1.16, written by Peter Selinger 2001-2019
</metadata>
<g transform="translate(0.000000,84.000000) scale(0.100000,-0.100000)"
fill="#000000" stroke="none">
<path d="M428 726 c-13 -6 -25 -20 -27 -31 -2 -11 -11 -25 -20 -32 -13 -9 -14
-14 -3 -24 6 -7 12 -19 12 -25 0 -21 44 -83 59 -84 9 0 11 -6 5 -17 -4 -10 -9
-35 -12 -55 -3 -29 -9 -38 -23 -38 -21 0 -43 -35 -33 -51 3 -6 17 -8 29 -5 13
3 27 2 30 -4 4 -6 -16 -10 -54 -10 -67 0 -86 -16 -70 -58 8 -21 12 -22 80 -16
51 5 70 4 65 -4 -3 -6 -11 -37 -17 -69 -12 -62 -41 -127 -62 -140 -13 -8 -37
-45 -37 -57 0 -3 92 -6 205 -6 116 0 205 4 205 9 0 5 -22 29 -49 53 -40 36
-54 58 -74 114 -13 38 -27 76 -30 84 -5 11 0 15 18 16 43 3 75 31 75 65 0 36
-86 196 -112 210 -24 13 -23 29 2 29 33 0 23 26 -36 88 -59 63 -88 77 -126 58z"/>
</g>
</svg>
