<?xml version="1.0" standalone="no"?>
<!DOCTYPE svg PUBLIC "-//W3C//DTD SVG 20010904//EN"
 "http://www.w3.org/TR/2001/REC-SVG-20010904/DTD/svg10.dtd">
<svg version="1.0" xmlns="http://www.w3.org/2000/svg"
 width="96.000000pt" height="84.000000pt" viewBox="0 0 96.000000 84.000000"
 preserveAspectRatio="xMidYMid meet">
<metadata>
Created by potrace 1.16, written by Peter Selinger 2001-2019
</metadata>
<g transform="translate(0.000000,84.000000) scale(0.100000,-0.100000)"
fill="#000000" stroke="none">
<path d="M470 720 c-11 -11 -20 -29 -20 -40 0 -10 -7 -23 -16 -28 -13 -8 -13
-12 3 -41 24 -44 70 -96 86 -96 15 -1 11 -26 -7 -40 -17 -13 -46 -70 -46 -90
0 -19 -14 -19 -31 1 -24 29 -69 47 -85 33 -22 -18 -18 -52 5 -46 13 3 32 -9
62 -39 24 -24 46 -44 51 -44 4 0 15 13 24 29 l18 30 12 -24 c6 -13 15 -41 19
-63 9 -55 -31 -142 -98 -209 l-51 -53 217 0 c119 0 217 4 217 8 0 5 -14 21
-31 38 -46 44 -53 63 -50 138 2 60 6 72 27 88 41 33 33 78 -31 174 -31 45 -62
88 -70 94 -16 14 -75 130 -75 149 0 23 -40 51 -75 51 -22 0 -43 -8 -55 -20z"/>
</g>
</svg>
