<?xml version="1.0" standalone="no"?>
<!DOCTYPE svg PUBLIC "-//W3C//DTD SVG 20010904//EN"
 "http://www.w3.org/TR/2001/REC-SVG-20010904/DTD/svg10.dtd">
<svg version="1.0" xmlns="http://www.w3.org/2000/svg"
 width="96.000000pt" height="84.000000pt" viewBox="0 0 96.000000 84.000000"
 preserveAspectRatio="xMidYMid meet">
<metadata>
Created by potrace 1.16, written by Peter Selinger 2001-2019
</metadata>
<g transform="translate(0.000000,84.000000) scale(0.100000,-0.100000)"
fill="#000000" stroke="none">
<path d="M497 769 c-10 -6 -22 -22 -27 -35 -5 -13 -16 -24 -25 -24 -17 0 -20
-25 -4 -35 6 -4 8 -13 5 -20 -2 -7 1 -21 8 -31 8 -11 17 -34 21 -51 5 -23 12
-33 26 -33 27 0 24 -34 -6 -74 -14 -18 -30 -47 -36 -64 -13 -37 -19 -39 -44
-12 -10 12 -34 30 -52 41 -27 17 -36 19 -48 9 -20 -17 -20 -54 0 -46 9 3 37
-15 72 -49 62 -58 82 -60 105 -10 l11 25 13 -25 c28 -54 28 -110 0 -183 -29
-75 -49 -98 -111 -130 l-40 -21 249 -1 c220 0 247 2 236 15 -7 8 -18 15 -25
15 -39 0 -66 54 -88 176 -6 30 -4 32 28 38 42 8 75 48 75 91 0 24 -17 55 -66
121 -36 49 -80 101 -98 116 l-31 27 30 -2 c51 -3 42 26 -32 103 -70 73 -110
91 -146 69z"/>
</g>
</svg>
