<?xml version="1.0" standalone="no"?>
<!DOCTYPE svg PUBLIC "-//W3C//DTD SVG 20010904//EN"
 "http://www.w3.org/TR/2001/REC-SVG-20010904/DTD/svg10.dtd">
<svg version="1.0" xmlns="http://www.w3.org/2000/svg"
 width="96.000000pt" height="84.000000pt" viewBox="0 0 96.000000 84.000000"
 preserveAspectRatio="xMidYMid meet">
<metadata>
Created by potrace 1.16, written by Peter Selinger 2001-2019
</metadata>
<g transform="translate(0.000000,84.000000) scale(0.100000,-0.100000)"
fill="#000000" stroke="none">
<path d="M475 715 c-14 -13 -25 -29 -25 -35 0 -5 -9 -10 -20 -10 -21 0 -27
-15 -10 -25 6 -3 10 -21 10 -40 0 -19 4 -36 9 -39 5 -3 12 -21 15 -39 4 -23
15 -38 31 -45 34 -16 32 -28 -15 -78 -37 -40 -39 -41 -46 -21 -10 33 -52 84
-74 90 -10 2 -23 0 -29 -6 -16 -16 -14 -47 2 -41 20 7 39 -21 62 -89 11 -33
25 -62 31 -64 6 -2 26 8 43 22 l31 27 0 -30 c0 -17 5 -32 11 -34 21 -7 26
-114 8 -185 l-17 -68 137 -3 c75 -1 146 0 159 3 26 6 29 39 10 109 -10 39 -9
46 10 71 38 47 30 95 -30 193 -29 47 -70 103 -91 125 -21 22 -36 41 -35 42 2
1 20 10 41 20 20 9 37 21 37 25 0 4 -26 25 -57 46 -32 22 -64 47 -71 57 -16
20 -64 47 -87 47 -9 0 -27 -11 -40 -25z m253 -590 c14 -30 15 -35 5 -35 -5 0
-16 14 -25 30 -13 22 -14 30 -4 30 7 0 18 -11 24 -25z"/>
</g>
</svg>
