<?xml version="1.0" standalone="no"?>
<!DOCTYPE svg PUBLIC "-//W3C//DTD SVG 20010904//EN"
 "http://www.w3.org/TR/2001/REC-SVG-20010904/DTD/svg10.dtd">
<svg version="1.0" xmlns="http://www.w3.org/2000/svg"
 width="96.000000pt" height="84.000000pt" viewBox="0 0 96.000000 84.000000"
 preserveAspectRatio="xMidYMid meet">
<metadata>
Created by potrace 1.16, written by Peter Selinger 2001-2019
</metadata>
<g transform="translate(0.000000,84.000000) scale(0.100000,-0.100000)"
fill="#000000" stroke="none">
<path d="M0 496 l0 -343 143 -16 c287 -33 276 -32 295 -6 41 56 72 122 63 133
-6 7 -11 36 -13 66 -3 48 -6 55 -28 60 -31 7 -39 50 -14 74 27 27 46 12 59
-46 6 -33 20 -36 28 -7 8 28 1 43 -26 54 -12 6 -23 20 -25 31 -2 12 -11 25
-20 28 -88 30 -163 114 -92 104 21 -3 27 -1 20 6 -5 5 -10 26 -9 46 0 19 3 29
6 23 2 -7 13 -13 23 -13 10 0 25 -3 34 -6 14 -5 14 -8 -1 -30 -14 -22 -14 -24
3 -24 10 0 35 17 56 37 32 31 44 36 82 36 38 0 51 -6 101 -49 43 -36 53 -50
41 -52 -9 -2 -28 3 -41 12 -37 24 -55 20 -55 -12 0 -25 5 -30 43 -41 51 -15
86 -46 80 -70 -3 -12 6 -22 31 -34 24 -11 36 -23 36 -37 0 -14 -4 -19 -12 -15
-7 4 -5 0 4 -8 16 -13 15 -14 -12 -15 -50 -1 -73 -12 -60 -27 6 -8 24 -15 38
-17 25 -3 27 -7 30 -51 2 -26 9 -50 15 -52 7 -3 40 -11 75 -19 l62 -14 0 319
0 319 -480 0 -480 0 0 -344z"/>
<path d="M676 331 c11 -43 16 -45 30 -11 8 18 14 33 14 34 0 0 -11 2 -25 2
-22 2 -24 -1 -19 -25z"/>
<path d="M547 251 c-4 -17 -18 -48 -32 -69 -47 -69 -28 -83 35 -24 44 43 49
68 22 103 l-19 22 -6 -32z"/>
<path d="M800 175 c8 -8 35 -17 60 -21 54 -8 44 7 -16 24 -54 16 -61 15 -44
-3z"/>
<path d="M0 40 l0 -40 98 0 c102 0 103 2 30 40 -35 19 -68 18 -68 -1 0 -5 -9
-9 -20 -9 -15 0 -20 7 -20 25 0 14 -4 25 -10 25 -5 0 -10 -18 -10 -40z"/>
<path d="M218 54 c7 -3 17 -17 22 -30 9 -23 12 -24 124 -24 103 0 114 2 119
19 4 16 -3 20 -47 25 -88 9 -232 16 -218 10z"/>
</g>
</svg>
