<?xml version="1.0" standalone="no"?>
<!DOCTYPE svg PUBLIC "-//W3C//DTD SVG 20010904//EN"
 "http://www.w3.org/TR/2001/REC-SVG-20010904/DTD/svg10.dtd">
<svg version="1.0" xmlns="http://www.w3.org/2000/svg"
 width="96.000000pt" height="84.000000pt" viewBox="0 0 96.000000 84.000000"
 preserveAspectRatio="xMidYMid meet">
<metadata>
Created by potrace 1.16, written by Peter Selinger 2001-2019
</metadata>
<g transform="translate(0.000000,84.000000) scale(0.100000,-0.100000)"
fill="#000000" stroke="none">
<path d="M500 663 c-26 -10 -50 -35 -50 -53 0 -10 -10 -20 -22 -24 -18 -4 -20
-8 -10 -18 6 -6 12 -20 12 -29 0 -29 60 -139 75 -139 28 0 15 -27 -16 -34 -16
-3 -37 -13 -45 -21 -23 -23 -28 -19 -47 34 -22 63 -68 114 -99 109 -33 -4 -35
-36 -4 -47 21 -9 55 -50 47 -59 -6 -7 44 -112 55 -116 8 -3 34 1 59 8 l45 14
0 -48 c0 -28 6 -52 14 -59 21 -18 36 -119 22 -158 -7 -23 -7 -23 104 -23 119
0 116 -2 79 51 l-19 26 45 5 c85 10 126 60 106 128 -11 37 -102 162 -158 217
-31 30 -32 32 -13 38 29 9 24 29 -15 59 -19 15 -35 34 -35 42 0 31 -35 74 -72
89 -21 8 -39 15 -41 14 -1 0 -9 -3 -17 -6z"/>
</g>
</svg>
