<?xml version="1.0" standalone="no"?>
<!DOCTYPE svg PUBLIC "-//W3C//DTD SVG 20010904//EN"
 "http://www.w3.org/TR/2001/REC-SVG-20010904/DTD/svg10.dtd">
<svg version="1.0" xmlns="http://www.w3.org/2000/svg"
 width="96.000000pt" height="84.000000pt" viewBox="0 0 96.000000 84.000000"
 preserveAspectRatio="xMidYMid meet">
<metadata>
Created by potrace 1.16, written by Peter Selinger 2001-2019
</metadata>
<g transform="translate(0.000000,84.000000) scale(0.100000,-0.100000)"
fill="#000000" stroke="none">
<path d="M548 654 c-15 -8 -30 -25 -34 -38 -3 -13 -15 -27 -27 -30 -17 -4 -19
-8 -9 -18 6 -6 12 -22 12 -34 0 -13 7 -29 15 -38 8 -8 15 -19 15 -25 0 -25 25
-61 42 -61 10 0 18 -6 18 -12 0 -9 -23 -14 -71 -16 -65 -2 -76 1 -123 29 -28
17 -69 52 -92 77 -25 28 -45 43 -52 38 -19 -12 -14 -34 11 -51 13 -8 32 -33
43 -55 10 -22 26 -42 34 -45 8 -3 25 -14 37 -24 20 -16 21 -23 12 -49 -15 -45
14 -90 82 -124 64 -32 77 -33 100 -12 17 16 19 15 30 -12 13 -34 16 -100 5
-131 -8 -23 -8 -23 108 -23 127 0 134 4 96 53 l-21 26 28 7 c64 16 101 66 89
121 -9 40 -137 225 -165 240 -37 18 -51 51 -45 101 8 52 -13 87 -61 108 -42
17 -43 17 -77 -2z m-8 -353 c0 -23 -29 -33 -65 -21 -50 16 -43 30 15 30 28 0
50 -4 50 -9z"/>
</g>
</svg>
