<?xml version="1.0" standalone="no"?>
<!DOCTYPE svg PUBLIC "-//W3C//DTD SVG 20010904//EN"
 "http://www.w3.org/TR/2001/REC-SVG-20010904/DTD/svg10.dtd">
<svg version="1.0" xmlns="http://www.w3.org/2000/svg"
 width="96.000000pt" height="84.000000pt" viewBox="0 0 96.000000 84.000000"
 preserveAspectRatio="xMidYMid meet">
<metadata>
Created by potrace 1.16, written by Peter Selinger 2001-2019
</metadata>
<g transform="translate(0.000000,84.000000) scale(0.100000,-0.100000)"
fill="#000000" stroke="none">
<path d="M532 729 c-13 -5 -29 -22 -35 -38 -6 -16 -20 -32 -31 -35 -16 -4 -18
-8 -8 -18 6 -6 12 -19 12 -27 0 -9 12 -42 27 -73 19 -40 33 -58 46 -58 25 0
18 -34 -8 -38 -11 -1 -44 -7 -73 -14 -48 -10 -58 -9 -110 12 -33 14 -73 40
-94 63 -20 21 -42 37 -49 35 -15 -5 -21 -38 -8 -38 6 0 7 -4 4 -10 -3 -5 0
-10 7 -10 8 0 27 -17 43 -38 16 -22 47 -46 71 -56 34 -14 41 -21 37 -37 -7
-27 19 -50 95 -84 59 -27 63 -27 81 -11 19 17 20 17 35 -13 23 -44 20 -90 -13
-170 l-29 -71 160 0 159 0 -36 69 c-21 39 -48 77 -61 86 -33 21 -30 35 6 35
68 0 120 49 120 113 0 35 -8 47 -85 127 -84 88 -94 103 -75 115 18 11 11 41
-16 66 -14 13 -34 40 -45 60 -12 25 -30 41 -59 53 -22 9 -41 16 -43 15 -1 0
-13 -4 -25 -10z m-2 -368 c0 -18 -29 -32 -54 -25 -36 9 -33 22 7 27 17 2 35 5
40 5 4 1 7 -2 7 -7z"/>
</g>
</svg>
