<?xml version="1.0" standalone="no"?>
<!DOCTYPE svg PUBLIC "-//W3C//DTD SVG 20010904//EN"
 "http://www.w3.org/TR/2001/REC-SVG-20010904/DTD/svg10.dtd">
<svg version="1.0" xmlns="http://www.w3.org/2000/svg"
 width="96.000000pt" height="84.000000pt" viewBox="0 0 96.000000 84.000000"
 preserveAspectRatio="xMidYMid meet">
<metadata>
Created by potrace 1.16, written by Peter Selinger 2001-2019
</metadata>
<g transform="translate(0.000000,84.000000) scale(0.100000,-0.100000)"
fill="#000000" stroke="none">
<path d="M536 707 c-14 -15 -26 -33 -26 -40 0 -8 -10 -17 -22 -21 -18 -4 -20
-8 -10 -18 6 -6 12 -21 12 -31 0 -10 7 -31 15 -45 8 -15 19 -40 25 -55 6 -16
19 -31 30 -34 11 -3 20 -11 20 -17 0 -8 -27 -12 -81 -13 -66 -2 -93 2 -142 23
-34 13 -73 35 -87 48 -25 24 -79 43 -81 29 0 -5 -2 -16 -4 -25 -2 -11 3 -18
11 -18 9 0 12 -4 9 -10 -3 -5 0 -10 8 -10 8 0 28 -12 44 -27 52 -48 129 -76
219 -81 l82 -3 4 -35 c2 -19 3 -36 1 -38 -9 -9 -100 19 -116 35 -10 11 -22 19
-26 19 -15 0 -32 -28 -38 -63 -5 -33 -4 -34 43 -49 27 -9 80 -22 118 -29 l69
-13 -7 -71 c-3 -38 -9 -80 -12 -92 l-6 -23 136 0 136 0 -25 50 c-14 28 -37 60
-50 72 -33 29 -32 35 12 43 48 9 103 63 103 101 0 16 -8 41 -18 55 -9 15 -29
44 -44 66 -15 22 -40 51 -56 64 -47 38 -57 65 -32 91 27 29 26 33 -15 56 -19
12 -41 36 -49 56 -16 39 -47 63 -93 72 -26 5 -37 1 -57 -19z"/>
</g>
</svg>
