<?xml version="1.0" standalone="no"?>
<!DOCTYPE svg PUBLIC "-//W3C//DTD SVG 20010904//EN"
 "http://www.w3.org/TR/2001/REC-SVG-20010904/DTD/svg10.dtd">
<svg version="1.0" xmlns="http://www.w3.org/2000/svg"
 width="96.000000pt" height="84.000000pt" viewBox="0 0 96.000000 84.000000"
 preserveAspectRatio="xMidYMid meet">
<metadata>
Created by potrace 1.16, written by Peter Selinger 2001-2019
</metadata>
<g transform="translate(0.000000,84.000000) scale(0.100000,-0.100000)"
fill="#000000" stroke="none">
<path d="M612 684 c-12 -8 -22 -26 -22 -38 0 -17 -7 -26 -26 -30 -20 -5 -24
-10 -15 -19 6 -6 11 -21 11 -33 0 -12 9 -33 20 -46 10 -14 17 -28 14 -31 -9
-9 36 -67 52 -67 8 0 14 -6 14 -12 0 -9 -25 -13 -87 -15 -85 -1 -88 0 -152 40
-36 22 -75 49 -87 59 -27 24 -80 24 -86 0 -6 -20 15 -56 25 -45 4 3 7 1 7 -5
0 -7 8 -12 19 -12 10 0 35 -12 54 -27 124 -94 121 -93 200 -93 l74 0 7 -71 c4
-39 6 -72 4 -73 -2 -1 -36 -10 -76 -19 -53 -12 -79 -14 -93 -7 -21 12 -54 0
-62 -22 -5 -15 11 -79 23 -92 5 -4 25 -2 47 5 21 7 43 12 50 11 6 -1 44 7 85
18 40 11 76 20 81 20 5 0 6 -18 2 -40 l-7 -40 117 0 117 0 -36 44 -36 44 38 7
c70 13 72 16 72 116 0 50 -5 100 -11 112 -6 12 -38 48 -72 79 -49 46 -59 60
-48 67 12 8 10 16 -12 50 -15 22 -27 52 -27 66 0 85 -111 146 -178 99z"/>
</g>
</svg>
