<?xml version="1.0" standalone="no"?>
<!DOCTYPE svg PUBLIC "-//W3C//DTD SVG 20010904//EN"
 "http://www.w3.org/TR/2001/REC-SVG-20010904/DTD/svg10.dtd">
<svg version="1.0" xmlns="http://www.w3.org/2000/svg"
 width="96.000000pt" height="84.000000pt" viewBox="0 0 96.000000 84.000000"
 preserveAspectRatio="xMidYMid meet">
<metadata>
Created by potrace 1.16, written by Peter Selinger 2001-2019
</metadata>
<g transform="translate(0.000000,84.000000) scale(0.100000,-0.100000)"
fill="#000000" stroke="none">
<path d="M790 752 c-19 -9 -41 -30 -50 -47 -8 -16 -18 -31 -21 -33 -3 -1 -14
-9 -24 -16 -17 -12 -17 -15 -2 -37 10 -13 17 -34 17 -47 0 -12 7 -25 15 -29 9
-3 15 -13 13 -22 -1 -9 6 -30 15 -48 13 -24 21 -30 38 -26 17 5 20 2 17 -13
-3 -16 -11 -19 -52 -16 -29 2 -52 -1 -56 -8 -4 -6 -25 -14 -46 -16 -35 -5 -49
2 -134 58 -77 51 -101 62 -124 58 -28 -5 -59 -50 -35 -50 6 0 7 -5 3 -12 -5
-8 -2 -9 10 -5 14 6 17 3 12 -9 -4 -12 -2 -15 9 -11 16 7 75 -11 75 -22 0 -4
30 -26 66 -50 l65 -43 87 3 87 4 5 -55 c3 -30 15 -73 27 -95 30 -55 47 -118
38 -144 -6 -20 -3 -21 55 -21 l61 0 -2 337 c-2 366 -4 380 -57 406 -48 25 -77
27 -112 9z"/>
</g>
</svg>
