<?xml version="1.0" standalone="no"?>
<!DOCTYPE svg PUBLIC "-//W3C//DTD SVG 20010904//EN"
 "http://www.w3.org/TR/2001/REC-SVG-20010904/DTD/svg10.dtd">
<svg version="1.0" xmlns="http://www.w3.org/2000/svg"
 width="96.000000pt" height="84.000000pt" viewBox="0 0 96.000000 84.000000"
 preserveAspectRatio="xMidYMid meet">
<metadata>
Created by potrace 1.16, written by Peter Selinger 2001-2019
</metadata>
<g transform="translate(0.000000,84.000000) scale(0.100000,-0.100000)"
fill="#000000" stroke="none">
<path d="M730 815 c-5 -14 -17 -25 -25 -25 -23 0 -29 -26 -11 -52 9 -12 16
-30 16 -39 0 -9 16 -49 36 -89 29 -59 39 -71 55 -67 14 4 19 0 19 -13 0 -27
-17 -34 -73 -31 -26 1 -54 -2 -61 -9 -39 -31 -233 6 -292 56 -15 14 -34 22
-42 19 -7 -3 -25 -5 -39 -5 -18 0 -24 -4 -20 -14 3 -8 1 -17 -6 -20 -7 -2 -4
-5 7 -5 16 -1 17 -3 5 -18 -12 -15 -12 -16 8 -11 16 4 20 2 16 -10 -4 -10 -2
-13 5 -8 12 7 82 -12 92 -25 3 -4 41 -19 85 -34 70 -24 92 -26 180 -23 l100 3
8 -40 c5 -22 21 -67 37 -100 40 -86 47 -152 21 -203 -12 -23 -21 -44 -21 -47
0 -3 29 -5 65 -5 l65 0 0 420 0 420 -110 0 c-109 0 -111 0 -120 -25z"/>
</g>
</svg>
