<?xml version="1.0" standalone="no"?>
<!DOCTYPE svg PUBLIC "-//W3C//DTD SVG 20010904//EN"
 "http://www.w3.org/TR/2001/REC-SVG-20010904/DTD/svg10.dtd">
<svg version="1.0" xmlns="http://www.w3.org/2000/svg"
 width="96.000000pt" height="84.000000pt" viewBox="0 0 96.000000 84.000000"
 preserveAspectRatio="xMidYMid meet">
<metadata>
Created by potrace 1.16, written by Peter Selinger 2001-2019
</metadata>
<g transform="translate(0.000000,84.000000) scale(0.100000,-0.100000)"
fill="#000000" stroke="none">
<path d="M708 828 c-31 -11 -36 -29 -13 -48 8 -7 15 -24 15 -39 0 -14 9 -41
20 -59 11 -18 19 -36 18 -40 -1 -4 9 -26 22 -50 17 -29 30 -41 41 -39 31 8 39
-7 22 -40 -13 -27 -18 -31 -33 -23 -28 15 -96 12 -110 -5 -36 -43 -245 -12
-324 49 -23 18 -54 31 -77 33 -37 4 -54 -9 -26 -20 7 -3 5 -6 -5 -6 -10 -1
-18 -6 -18 -12 0 -6 7 -8 16 -5 14 5 15 4 4 -9 -10 -13 -9 -15 10 -15 20 0 21
-2 9 -17 -12 -15 -12 -16 5 -9 24 8 116 -32 116 -51 0 -7 11 -13 23 -13 13 0
50 -9 83 -21 50 -18 73 -20 149 -14 50 3 103 7 119 8 29 2 30 0 43 -60 7 -34
24 -80 39 -103 24 -36 27 -50 28 -130 l1 -90 38 0 37 0 0 420 0 420 -112 -1
c-62 0 -125 -5 -140 -11z"/>
</g>
</svg>
