<?xml version="1.0" standalone="no"?>
<!DOCTYPE svg PUBLIC "-//W3C//DTD SVG 20010904//EN"
 "http://www.w3.org/TR/2001/REC-SVG-20010904/DTD/svg10.dtd">
<svg version="1.0" xmlns="http://www.w3.org/2000/svg"
 width="96.000000pt" height="84.000000pt" viewBox="0 0 96.000000 84.000000"
 preserveAspectRatio="xMidYMid meet">
<metadata>
Created by potrace 1.16, written by Peter Selinger 2001-2019
</metadata>
<g transform="translate(0.000000,84.000000) scale(0.100000,-0.100000)"
fill="#000000" stroke="none">
<path d="M800 831 c0 -5 -16 -15 -35 -21 -45 -15 -49 -22 -25 -53 11 -14 20
-35 20 -47 0 -26 15 -57 43 -87 11 -13 16 -23 10 -23 -15 0 44 -107 62 -114 8
-3 22 -3 30 0 21 9 19 -18 -4 -45 -16 -18 -23 -20 -45 -11 -41 15 -106 13
-112 -4 -3 -8 -30 -20 -59 -26 -47 -10 -63 -8 -146 16 -52 15 -101 27 -109 27
-8 0 -34 17 -56 38 -41 36 -93 69 -112 69 -13 0 -22 -39 -11 -45 4 -3 6 -12 2
-20 -3 -9 1 -15 11 -15 10 0 13 -6 10 -15 -5 -11 1 -15 21 -15 27 0 115 -65
115 -85 0 -5 42 -21 93 -35 79 -22 111 -25 230 -23 l137 1 0 -42 c0 -55 21
-126 50 -166 13 -18 26 -46 30 -64 5 -17 8 159 9 392 l1 422 -80 0 c-44 0 -80
-4 -80 -9z"/>
</g>
</svg>
