<?xml version="1.0" standalone="no"?>
<!DOCTYPE svg PUBLIC "-//W3C//DTD SVG 20010904//EN"
 "http://www.w3.org/TR/2001/REC-SVG-20010904/DTD/svg10.dtd">
<svg version="1.0" xmlns="http://www.w3.org/2000/svg"
 width="96.000000pt" height="84.000000pt" viewBox="0 0 96.000000 84.000000"
 preserveAspectRatio="xMidYMid meet">
<metadata>
Created by potrace 1.16, written by Peter Selinger 2001-2019
</metadata>
<g transform="translate(0.000000,84.000000) scale(0.100000,-0.100000)"
fill="#000000" stroke="none">
<path d="M890 821 c5 -11 15 -23 20 -26 6 -3 10 -16 10 -29 0 -31 20 -86 31
-86 5 0 9 36 9 80 l0 80 -40 0 c-37 0 -40 -2 -30 -19z"/>
<path d="M373 741 c3 -14 0 -21 -8 -21 -15 0 -13 -58 2 -69 4 -3 8 -12 8 -20
0 -8 12 -21 26 -30 44 -26 119 -94 119 -107 0 -7 10 -16 23 -20 57 -17 207
-95 207 -108 0 -7 -6 -29 -14 -47 -13 -32 -13 -36 7 -57 12 -13 27 -42 32 -65
10 -40 13 -42 53 -45 34 -3 45 -8 52 -26 8 -21 35 -36 68 -36 9 0 12 31 12
120 l0 119 -35 7 c-19 3 -35 10 -35 15 0 5 16 9 35 9 l35 0 0 79 c0 70 -2 79
-20 84 -11 3 -23 0 -26 -5 -13 -21 -124 1 -235 47 -60 25 -115 45 -121 45 -6
0 -41 29 -79 64 -37 36 -78 70 -90 77 -20 10 -21 9 -16 -10z"/>
</g>
</svg>
