<?xml version="1.0" standalone="no"?>
<!DOCTYPE svg PUBLIC "-//W3C//DTD SVG 20010904//EN"
 "http://www.w3.org/TR/2001/REC-SVG-20010904/DTD/svg10.dtd">
<svg version="1.0" xmlns="http://www.w3.org/2000/svg"
 width="96.000000pt" height="84.000000pt" viewBox="0 0 96.000000 84.000000"
 preserveAspectRatio="xMidYMid meet">
<metadata>
Created by potrace 1.16, written by Peter Selinger 2001-2019
</metadata>
<g transform="translate(0.000000,84.000000) scale(0.100000,-0.100000)"
fill="#000000" stroke="none">
<path d="M0 532 l0 -309 30 5 c17 2 94 -3 173 -12 78 -9 161 -18 184 -21 45
-5 58 6 96 80 22 44 4 139 -30 154 -26 12 -29 29 -9 56 18 25 44 13 48 -21 4
-40 28 -43 28 -5 0 19 -5 30 -12 29 -7 -2 -17 6 -22 18 -5 11 -36 38 -68 58
-62 41 -78 72 -32 63 18 -3 22 -1 15 6 -21 21 -13 44 17 43 22 -1 26 -5 24
-23 -5 -33 24 -29 58 7 42 45 83 41 150 -12 55 -43 55 -61 0 -33 -33 17 -50
13 -50 -13 0 -11 20 -26 53 -42 40 -19 52 -30 50 -46 -1 -13 8 -26 27 -38 21
-12 30 -25 30 -42 0 -14 -4 -23 -9 -20 -4 3 -23 1 -41 -4 -21 -6 -39 -6 -52 1
-27 15 -33 5 -18 -32 l13 -31 17 22 c12 15 25 21 46 18 26 -3 29 -7 32 -44 3
-41 3 -41 58 -53 29 -7 61 -19 69 -28 11 -11 26 -13 50 -9 l35 7 0 289 0 290
-480 0 -480 0 0 -308z"/>
<path d="M535 309 c-4 -13 -19 -41 -31 -61 -28 -44 -29 -48 -10 -48 17 0 76
65 76 83 0 7 -6 22 -14 32 -13 18 -14 18 -21 -6z"/>
<path d="M745 250 c3 -5 11 -10 16 -10 6 0 7 5 4 10 -3 6 -11 10 -16 10 -6 0
-7 -4 -4 -10z"/>
<path d="M800 255 c0 -10 41 -25 52 -19 8 5 5 10 -8 15 -22 9 -44 11 -44 4z"/>
<path d="M0 108 l0 -108 349 0 349 0 -11 30 c-11 29 -12 30 -21 10 -13 -28
-22 -25 -35 10 -10 30 -11 30 -80 30 l-71 0 0 29 c0 28 -1 28 -67 34 -138 13
-155 7 -112 -39 36 -39 11 -47 -32 -11 -48 41 -114 66 -131 49 -18 -18 -38
-14 -38 7 0 14 -10 20 -40 25 -21 3 -44 14 -49 24 -8 12 -10 -13 -11 -90z"/>
<path d="M786 65 c-11 -8 -27 -15 -37 -15 -12 0 -16 -8 -15 -25 l1 -25 113 0
c111 0 113 1 110 22 -2 17 -14 24 -63 34 -33 7 -67 15 -75 18 -8 3 -24 -1 -34
-9z"/>
</g>
</svg>
