<?xml version="1.0" standalone="no"?>
<!DOCTYPE svg PUBLIC "-//W3C//DTD SVG 20010904//EN"
 "http://www.w3.org/TR/2001/REC-SVG-20010904/DTD/svg10.dtd">
<svg version="1.0" xmlns="http://www.w3.org/2000/svg"
 width="96.000000pt" height="84.000000pt" viewBox="0 0 96.000000 84.000000"
 preserveAspectRatio="xMidYMid meet">
<metadata>
Created by potrace 1.16, written by Peter Selinger 2001-2019
</metadata>
<g transform="translate(0.000000,84.000000) scale(0.100000,-0.100000)"
fill="#000000" stroke="none">
<path d="M230 835 c0 -2 17 -12 38 -22 37 -18 37 -18 10 -21 -38 -4 -35 -19 4
-27 31 -7 31 -7 9 -20 -20 -10 -21 -13 -6 -18 9 -4 27 -7 41 -7 13 0 29 -9 36
-21 7 -11 28 -29 46 -40 17 -12 32 -29 32 -38 0 -14 15 -23 58 -35 87 -24 206
-73 210 -86 2 -6 -3 -26 -12 -44 -9 -19 -16 -39 -16 -45 0 -22 64 -51 113 -51
41 0 47 -3 47 -20 0 -22 22 -33 83 -43 l37 -6 0 94 c0 65 -4 95 -12 98 -10 4
-10 6 0 6 8 1 12 23 12 75 0 88 -1 89 -130 80 -83 -6 -88 -5 -210 41 -69 25
-136 48 -148 49 -13 2 -47 26 -75 54 -50 48 -54 50 -109 50 -32 0 -58 -1 -58
-3z"/>
</g>
</svg>
