<?xml version="1.0" standalone="no"?>
<!DOCTYPE svg PUBLIC "-//W3C//DTD SVG 20010904//EN"
 "http://www.w3.org/TR/2001/REC-SVG-20010904/DTD/svg10.dtd">
<svg version="1.0" xmlns="http://www.w3.org/2000/svg"
 width="96.000000pt" height="84.000000pt" viewBox="0 0 96.000000 84.000000"
 preserveAspectRatio="xMidYMid meet">
<metadata>
Created by potrace 1.16, written by Peter Selinger 2001-2019
</metadata>
<g transform="translate(0.000000,84.000000) scale(0.100000,-0.100000)"
fill="#000000" stroke="none">
<path d="M171 826 c-10 -12 -8 -17 10 -27 l23 -12 -22 -8 c-27 -10 -29 -29 -3
-29 26 0 34 -15 16 -30 -20 -16 -10 -30 23 -30 20 0 23 -3 14 -12 -22 -22 -13
-34 24 -30 29 4 41 -1 67 -26 18 -16 42 -35 55 -41 16 -9 21 -18 17 -32 -5
-15 0 -21 22 -29 15 -6 81 -36 146 -68 l117 -57 -5 -32 c-5 -29 -2 -34 27 -49
18 -10 65 -20 103 -23 57 -5 70 -9 67 -22 -3 -22 16 -35 56 -41 l32 -5 0 195
0 194 -61 -4 c-33 -2 -64 -9 -67 -14 -4 -6 -33 -18 -65 -27 l-58 -16 -66 30
c-37 16 -93 46 -125 65 -37 23 -65 33 -77 29 -11 -3 -22 -1 -26 5 -16 26 -207
160 -228 160 -3 0 -10 -6 -16 -14z"/>
<path d="M945 830 c3 -5 8 -10 11 -10 2 0 4 5 4 10 0 6 -5 10 -11 10 -5 0 -7
-4 -4 -10z"/>
</g>
</svg>
