<?xml version="1.0" standalone="no"?>
<!DOCTYPE svg PUBLIC "-//W3C//DTD SVG 20010904//EN"
 "http://www.w3.org/TR/2001/REC-SVG-20010904/DTD/svg10.dtd">
<svg version="1.0" xmlns="http://www.w3.org/2000/svg"
 width="96.000000pt" height="84.000000pt" viewBox="0 0 96.000000 84.000000"
 preserveAspectRatio="xMidYMid meet">
<metadata>
Created by potrace 1.16, written by Peter Selinger 2001-2019
</metadata>
<g transform="translate(0.000000,84.000000) scale(0.100000,-0.100000)"
fill="#000000" stroke="none">
<path d="M931 803 c12 -21 24 -40 26 -42 2 -2 3 14 3 37 0 38 -2 42 -26 42
l-26 0 23 -37z"/>
<path d="M96 673 c-4 -9 -1 -21 5 -29 6 -7 8 -22 5 -32 -5 -15 0 -21 21 -27
15 -4 22 -10 16 -12 -7 -3 -13 -13 -13 -24 0 -14 7 -19 26 -19 23 0 26 -3 21
-26 -4 -22 -2 -25 17 -19 58 18 67 17 94 -8 15 -14 39 -30 55 -36 19 -8 27
-17 27 -35 0 -26 7 -30 75 -42 22 -4 84 -22 137 -40 95 -32 100 -32 195 -23
54 5 117 12 141 15 l42 6 0 99 0 99 -48 0 c-33 0 -56 -6 -70 -19 -12 -10 -49
-24 -82 -31 -56 -12 -65 -11 -147 15 -48 15 -113 37 -145 50 -39 16 -59 20
-67 12 -7 -7 -26 -1 -63 23 -80 50 -175 101 -208 110 -22 6 -30 5 -34 -7z"/>
<path d="M671 16 c-12 -14 -6 -16 65 -16 90 0 92 18 3 27 -43 4 -57 2 -68 -11z"/>
</g>
</svg>
