<?xml version="1.0" standalone="no"?>
<!DOCTYPE svg PUBLIC "-//W3C//DTD SVG 20010904//EN"
 "http://www.w3.org/TR/2001/REC-SVG-20010904/DTD/svg10.dtd">
<svg version="1.0" xmlns="http://www.w3.org/2000/svg"
 width="96.000000pt" height="84.000000pt" viewBox="0 0 96.000000 84.000000"
 preserveAspectRatio="xMidYMid meet">
<metadata>
Created by potrace 1.16, written by Peter Selinger 2001-2019
</metadata>
<g transform="translate(0.000000,84.000000) scale(0.100000,-0.100000)"
fill="#000000" stroke="none">
<path d="M310 560 c-13 -9 -13 -11 0 -20 8 -5 25 -10 38 -10 32 0 27 -14 -10
-25 -54 -17 -47 -35 14 -35 l53 0 -31 -19 c-18 -11 -35 -25 -39 -32 -8 -12 12
-10 75 7 l24 7 -22 -27 c-29 -38 -17 -54 17 -22 33 31 54 33 88 6 14 -11 36
-20 49 -20 37 0 54 -11 54 -36 0 -25 6 -28 93 -39 26 -4 85 -17 130 -30 123
-37 117 -40 117 60 l0 84 -42 11 c-24 6 -87 25 -142 41 -54 17 -104 28 -112
25 -8 -3 -74 15 -146 39 -134 45 -181 53 -208 35z"/>
</g>
</svg>
