<?xml version="1.0" standalone="no"?>
<!DOCTYPE svg PUBLIC "-//W3C//DTD SVG 20010904//EN"
 "http://www.w3.org/TR/2001/REC-SVG-20010904/DTD/svg10.dtd">
<svg version="1.0" xmlns="http://www.w3.org/2000/svg"
 width="96.000000pt" height="84.000000pt" viewBox="0 0 96.000000 84.000000"
 preserveAspectRatio="xMidYMid meet">
<metadata>
Created by potrace 1.16, written by Peter Selinger 2001-2019
</metadata>
<g transform="translate(0.000000,84.000000) scale(0.100000,-0.100000)"
fill="#000000" stroke="none">
<path d="M242 609 c2 -8 24 -20 49 -27 74 -23 76 -25 26 -33 -47 -7 -77 -23
-77 -40 0 -4 30 -6 68 -3 l67 5 -41 -19 c-38 -18 -62 -47 -49 -60 3 -3 21 2
40 11 46 22 62 22 43 0 -8 -10 -18 -26 -21 -35 -10 -27 20 -22 38 6 21 31 44
37 85 20 18 -8 48 -14 66 -14 29 0 34 -3 34 -24 0 -21 6 -24 70 -35 39 -6 113
-25 164 -41 51 -17 107 -30 125 -30 l31 0 0 89 0 89 -77 17 c-43 9 -122 28
-176 42 -53 14 -103 23 -110 20 -14 -5 -152 32 -175 46 -7 5 -27 10 -45 12
-18 2 -56 7 -86 11 -44 6 -53 5 -49 -7z"/>
</g>
</svg>
