<?xml version="1.0" standalone="no"?>
<!DOCTYPE svg PUBLIC "-//W3C//DTD SVG 20010904//EN"
 "http://www.w3.org/TR/2001/REC-SVG-20010904/DTD/svg10.dtd">
<svg version="1.0" xmlns="http://www.w3.org/2000/svg"
 width="96.000000pt" height="84.000000pt" viewBox="0 0 96.000000 84.000000"
 preserveAspectRatio="xMidYMid meet">
<metadata>
Created by potrace 1.16, written by Peter Selinger 2001-2019
</metadata>
<g transform="translate(0.000000,84.000000) scale(0.100000,-0.100000)"
fill="#000000" stroke="none">
<path d="M300 545 c0 -18 10 -30 38 -45 20 -11 27 -18 15 -15 -26 7 -75 -4
-68 -15 3 -5 1 -11 -5 -15 -18 -11 0 -25 33 -25 27 -1 30 -2 16 -13 -8 -7 -18
-23 -22 -36 -5 -22 -4 -23 28 -18 33 5 33 5 28 -29 -6 -39 5 -44 32 -14 21 23
62 26 89 5 10 -8 38 -17 62 -21 38 -5 44 -10 44 -30 0 -16 7 -25 23 -28 103
-22 144 -33 223 -62 132 -49 125 -53 122 68 l-3 101 -70 19 c-38 11 -108 31
-155 45 -47 15 -93 26 -103 25 -24 -1 -134 52 -163 79 -13 12 -30 19 -38 16
-9 -4 -37 3 -62 13 -59 26 -64 25 -64 -5z"/>
</g>
</svg>
