<?xml version="1.0" standalone="no"?>
<!DOCTYPE svg PUBLIC "-//W3C//DTD SVG 20010904//EN"
 "http://www.w3.org/TR/2001/REC-SVG-20010904/DTD/svg10.dtd">
<svg version="1.0" xmlns="http://www.w3.org/2000/svg"
 width="96.000000pt" height="84.000000pt" viewBox="0 0 96.000000 84.000000"
 preserveAspectRatio="xMidYMid meet">
<metadata>
Created by potrace 1.16, written by Peter Selinger 2001-2019
</metadata>
<g transform="translate(0.000000,84.000000) scale(0.100000,-0.100000)"
fill="#000000" stroke="none">
<path d="M888 743 c-27 -9 -64 -32 -84 -51 -35 -34 -36 -37 -30 -87 4 -40 2
-56 -9 -65 -21 -18 -18 -32 5 -25 12 4 20 2 20 -5 0 -7 17 -28 37 -46 l37 -34
-27 -28 c-21 -21 -48 -34 -105 -47 -42 -10 -81 -22 -87 -27 -5 -4 -24 -8 -42
-8 -37 0 -103 -24 -103 -37 0 -21 22 -30 48 -21 20 8 43 6 84 -4 51 -13 66
-13 142 2 58 12 101 27 136 50 l50 32 -2 206 c-2 126 -7 206 -13 208 -5 1 -31
-4 -57 -13z"/>
</g>
</svg>
