<?xml version="1.0" standalone="no"?>
<!DOCTYPE svg PUBLIC "-//W3C//DTD SVG 20010904//EN"
 "http://www.w3.org/TR/2001/REC-SVG-20010904/DTD/svg10.dtd">
<svg version="1.0" xmlns="http://www.w3.org/2000/svg"
 width="96.000000pt" height="84.000000pt" viewBox="0 0 96.000000 84.000000"
 preserveAspectRatio="xMidYMid meet">
<metadata>
Created by potrace 1.16, written by Peter Selinger 2001-2019
</metadata>
<g transform="translate(0.000000,84.000000) scale(0.100000,-0.100000)"
fill="#000000" stroke="none">
<path d="M0 420 l0 -420 480 0 480 0 0 53 c0 51 -1 53 -32 64 -47 17 -146 36
-195 38 -42 2 -43 1 -43 -32 0 -41 -26 -46 -36 -7 -7 27 -7 27 -18 5 -14 -25
-26 -18 -26 15 0 28 -18 35 -80 27 -50 -6 -55 -3 -51 34 1 7 -26 14 -73 18
-78 8 -119 2 -78 -10 12 -4 22 -14 22 -22 0 -11 -5 -13 -17 -8 -86 36 -119 45
-143 40 -20 -4 -29 -2 -33 9 -4 10 -18 16 -36 16 -35 0 -63 36 -37 46 9 3 78
-2 153 -11 190 -23 200 -22 235 39 21 34 26 52 19 59 -6 6 -11 26 -11 44 0 18
-4 33 -9 33 -5 0 -17 7 -26 16 -15 15 -15 18 1 35 20 22 44 10 44 -22 0 -20
15 -25 25 -9 8 13 -37 63 -92 101 -39 27 -57 59 -34 59 5 0 7 8 4 18 -3 14 2
18 24 17 20 0 28 -5 27 -18 -2 -25 25 -21 52 8 33 35 74 33 121 -7 21 -18 40
-34 42 -35 2 -2 2 -6 -1 -9 -4 -3 -19 1 -36 10 -31 16 -42 13 -42 -13 0 -10
18 -25 43 -36 25 -12 42 -27 42 -37 0 -9 12 -27 27 -40 36 -31 24 -48 -35 -51
-46 -2 -55 -10 -38 -35 6 -10 10 -10 21 3 7 8 23 15 36 15 21 0 24 -5 24 -34
0 -36 12 -46 59 -46 15 0 36 -7 47 -16 18 -14 17 -15 -13 -11 -18 2 -33 0 -33
-4 0 -14 35 -18 75 -9 22 5 59 10 83 10 l42 0 0 265 0 265 -480 0 -480 0 0
-420z"/>
<path d="M507 320 c-32 -61 -28 -74 9 -39 38 35 45 53 31 74 -12 15 -16 11
-40 -35z"/>
<path d="M690 311 c0 -10 24 -21 43 -21 7 0 3 7 -7 15 -22 17 -36 19 -36 6z"/>
</g>
</svg>
