<?xml version="1.0" standalone="no"?>
<!DOCTYPE svg PUBLIC "-//W3C//DTD SVG 20010904//EN"
 "http://www.w3.org/TR/2001/REC-SVG-20010904/DTD/svg10.dtd">
<svg version="1.0" xmlns="http://www.w3.org/2000/svg"
 width="96.000000pt" height="84.000000pt" viewBox="0 0 96.000000 84.000000"
 preserveAspectRatio="xMidYMid meet">
<metadata>
Created by potrace 1.16, written by Peter Selinger 2001-2019
</metadata>
<g transform="translate(0.000000,84.000000) scale(0.100000,-0.100000)"
fill="#000000" stroke="none">
<path d="M414 805 c-18 -45 -18 -75 2 -104 10 -14 14 -33 11 -50 -6 -26 -3
-28 51 -39 31 -7 68 -14 82 -16 14 -2 24 -6 23 -10 -1 -3 -8 -24 -14 -47 -8
-24 -36 -65 -71 -103 -32 -35 -58 -67 -58 -72 0 -4 -18 -23 -40 -42 -39 -33
-78 -91 -63 -93 5 0 16 -2 26 -4 12 -2 21 5 27 21 5 13 21 29 34 34 13 5 27
14 31 19 3 6 14 11 24 11 10 0 47 30 83 68 50 51 77 91 112 165 26 53 49 97
51 97 2 0 32 -13 67 -30 68 -32 102 -37 143 -18 25 11 25 12 25 130 l0 118
-266 0 -265 0 -15 -35z"/>
</g>
</svg>
