<?xml version="1.0" standalone="no"?>
<!DOCTYPE svg PUBLIC "-//W3C//DTD SVG 20010904//EN"
 "http://www.w3.org/TR/2001/REC-SVG-20010904/DTD/svg10.dtd">
<svg version="1.0" xmlns="http://www.w3.org/2000/svg"
 width="96.000000pt" height="84.000000pt" viewBox="0 0 96.000000 84.000000"
 preserveAspectRatio="xMidYMid meet">
<metadata>
Created by potrace 1.16, written by Peter Selinger 2001-2019
</metadata>
<g transform="translate(0.000000,84.000000) scale(0.100000,-0.100000)"
fill="#000000" stroke="none">
<path d="M407 826 c-3 -8 -15 -12 -30 -9 -14 3 -34 0 -46 -6 -25 -14 -57 -73
-66 -122 -8 -43 16 -109 39 -109 11 0 16 -10 16 -30 0 -29 13 -40 24 -21 3 5
17 9 31 9 14 -1 33 6 43 14 54 48 58 -44 5 -134 -20 -35 -36 -64 -35 -66 1 -1
-14 -25 -33 -53 -36 -53 -46 -99 -21 -99 8 0 21 10 28 23 33 58 54 87 63 87 6
0 29 33 52 74 43 75 63 152 63 244 0 39 2 42 28 42 53 0 131 29 149 57 10 14
31 38 46 53 28 27 31 28 113 22 81 -5 84 -4 84 17 0 21 -1 21 -274 21 -223 0
-275 -3 -279 -14z"/>
</g>
</svg>
