<?xml version="1.0" standalone="no"?>
<!DOCTYPE svg PUBLIC "-//W3C//DTD SVG 20010904//EN"
 "http://www.w3.org/TR/2001/REC-SVG-20010904/DTD/svg10.dtd">
<svg version="1.0" xmlns="http://www.w3.org/2000/svg"
 width="96.000000pt" height="84.000000pt" viewBox="0 0 96.000000 84.000000"
 preserveAspectRatio="xMidYMid meet">
<metadata>
Created by potrace 1.16, written by Peter Selinger 2001-2019
</metadata>
<g transform="translate(0.000000,84.000000) scale(0.100000,-0.100000)"
fill="#000000" stroke="none">
<path d="M350 741 c0 -97 -1 -100 -29 -129 -17 -16 -33 -45 -36 -66 -10 -49
13 -110 42 -114 12 -2 25 -12 28 -22 6 -18 7 -18 41 2 19 11 37 18 40 15 6 -6
-29 -142 -51 -200 -21 -53 -20 -89 2 -85 10 2 19 12 21 23 4 23 32 88 41 95
15 11 41 159 41 227 0 70 1 73 29 87 40 21 88 79 96 118 10 43 33 88 46 88 5
0 33 13 62 30 l52 30 -212 0 -213 0 0 -99z"/>
</g>
</svg>
