<?xml version="1.0" standalone="no"?>
<!DOCTYPE svg PUBLIC "-//W3C//DTD SVG 20010904//EN"
 "http://www.w3.org/TR/2001/REC-SVG-20010904/DTD/svg10.dtd">
<svg version="1.0" xmlns="http://www.w3.org/2000/svg"
 width="96.000000pt" height="84.000000pt" viewBox="0 0 96.000000 84.000000"
 preserveAspectRatio="xMidYMid meet">
<metadata>
Created by potrace 1.16, written by Peter Selinger 2001-2019
</metadata>
<g transform="translate(0.000000,84.000000) scale(0.100000,-0.100000)"
fill="#000000" stroke="none">
<path d="M400 836 c0 -2 7 -20 15 -40 12 -27 14 -53 9 -96 -6 -59 -7 -59 -35
-53 -59 12 -71 -27 -43 -137 11 -45 13 -65 5 -73 -39 -39 25 -120 66 -85 10 8
13 1 15 -33 0 -24 0 -56 -1 -71 -1 -14 2 -29 8 -32 14 -9 25 120 15 173 -8 39
-6 52 13 86 13 22 23 55 23 73 0 37 68 142 104 161 30 17 66 73 66 104 l0 27
-130 0 c-72 0 -130 -2 -130 -4z"/>
</g>
</svg>
