<?xml version="1.0" standalone="no"?>
<!DOCTYPE svg PUBLIC "-//W3C//DTD SVG 20010904//EN"
 "http://www.w3.org/TR/2001/REC-SVG-20010904/DTD/svg10.dtd">
<svg version="1.0" xmlns="http://www.w3.org/2000/svg"
 width="96.000000pt" height="84.000000pt" viewBox="0 0 96.000000 84.000000"
 preserveAspectRatio="xMidYMid meet">
<metadata>
Created by potrace 1.16, written by Peter Selinger 2001-2019
</metadata>
<g transform="translate(0.000000,84.000000) scale(0.100000,-0.100000)"
fill="#000000" stroke="none">
<path d="M480 820 c0 -20 -6 -23 -70 -24 -30 -1 -35 -5 -38 -28 -2 -15 4 -40
12 -57 9 -16 16 -53 16 -82 0 -45 -2 -51 -19 -46 -26 6 -51 -10 -51 -35 0 -25
21 -100 31 -112 4 -5 3 -16 -3 -26 -17 -27 -2 -67 27 -72 13 -3 26 0 29 6 2 6
5 -2 6 -19 4 -58 7 -76 14 -82 3 -3 6 7 7 23 7 246 23 312 101 402 15 18 28
38 29 45 3 33 -4 63 -17 73 -8 6 -14 21 -14 33 0 17 -6 21 -30 21 -23 0 -30
-4 -30 -20z"/>
</g>
</svg>
