<?xml version="1.0" standalone="no"?>
<!DOCTYPE svg PUBLIC "-//W3C//DTD SVG 20010904//EN"
 "http://www.w3.org/TR/2001/REC-SVG-20010904/DTD/svg10.dtd">
<svg version="1.0" xmlns="http://www.w3.org/2000/svg"
 width="96.000000pt" height="84.000000pt" viewBox="0 0 96.000000 84.000000"
 preserveAspectRatio="xMidYMid meet">
<metadata>
Created by potrace 1.16, written by Peter Selinger 2001-2019
</metadata>
<g transform="translate(0.000000,84.000000) scale(0.100000,-0.100000)"
fill="#000000" stroke="none">
<path d="M427 828 c6 -7 13 -23 16 -35 6 -25 -20 -39 -60 -34 -20 2 -23 -2
-23 -31 0 -19 5 -39 12 -46 7 -7 15 -36 18 -65 5 -50 4 -53 -15 -49 -12 2 -27
-4 -35 -13 -12 -15 -11 -25 7 -78 14 -40 18 -66 12 -73 -15 -18 7 -64 30 -64
15 0 21 -9 26 -40 10 -59 20 -49 21 23 4 159 35 291 78 326 8 6 17 28 21 48 5
28 2 40 -15 58 -14 15 -21 33 -18 51 2 22 -2 30 -16 32 -11 3 -16 0 -12 -7 4
-6 2 -11 -3 -11 -6 0 -11 5 -11 10 0 6 -10 10 -21 10 -16 0 -19 -3 -12 -12z"/>
</g>
</svg>
