<?xml version="1.0" standalone="no"?>
<!DOCTYPE svg PUBLIC "-//W3C//DTD SVG 20010904//EN"
 "http://www.w3.org/TR/2001/REC-SVG-20010904/DTD/svg10.dtd">
<svg version="1.0" xmlns="http://www.w3.org/2000/svg"
 width="96.000000pt" height="84.000000pt" viewBox="0 0 96.000000 84.000000"
 preserveAspectRatio="xMidYMid meet">
<metadata>
Created by potrace 1.16, written by Peter Selinger 2001-2019
</metadata>
<g transform="translate(0.000000,84.000000) scale(0.100000,-0.100000)"
fill="#000000" stroke="none">
<path d="M421 813 c11 -30 0 -43 -37 -43 -31 0 -37 -35 -13 -79 26 -49 26
-101 -1 -101 -32 0 -41 -30 -24 -88 9 -29 21 -52 27 -52 8 0 7 -4 -1 -12 -18
-18 -14 -55 6 -70 11 -7 24 -30 31 -51 7 -20 15 -37 17 -37 3 0 2 10 -1 21 -4
13 1 45 11 76 15 43 16 57 6 73 -7 12 -8 21 -2 25 6 3 10 23 10 44 0 38 31
122 55 151 7 8 16 30 20 47 5 27 2 37 -19 56 -14 14 -26 34 -26 46 0 11 -4 21
-10 21 -5 0 -10 -5 -10 -12 0 -9 -3 -9 -12 0 -23 23 -38 15 -27 -15z"/>
</g>
</svg>
