<?xml version="1.0" standalone="no"?>
<!DOCTYPE svg PUBLIC "-//W3C//DTD SVG 20010904//EN"
 "http://www.w3.org/TR/2001/REC-SVG-20010904/DTD/svg10.dtd">
<svg version="1.0" xmlns="http://www.w3.org/2000/svg"
 width="96.000000pt" height="84.000000pt" viewBox="0 0 96.000000 84.000000"
 preserveAspectRatio="xMidYMid meet">
<metadata>
Created by potrace 1.16, written by Peter Selinger 2001-2019
</metadata>
<g transform="translate(0.000000,84.000000) scale(0.100000,-0.100000)"
fill="#000000" stroke="none">
<path d="M417 826 c-3 -8 -19 -17 -36 -21 -25 -5 -31 -12 -31 -33 0 -14 7 -33
15 -42 8 -9 18 -37 21 -62 6 -43 5 -47 -17 -50 -22 -3 -24 -8 -22 -51 1 -26 9
-59 17 -72 13 -20 14 -28 4 -45 -10 -16 -9 -24 8 -47 11 -15 24 -41 29 -58 7
-28 9 -27 20 30 7 32 11 73 8 91 -3 18 0 34 6 38 6 4 11 22 11 41 0 36 36 141
57 166 7 8 13 32 13 52 0 28 -6 40 -29 56 -34 24 -66 27 -74 7z"/>
</g>
</svg>
