<?xml version="1.0" standalone="no"?>
<!DOCTYPE svg PUBLIC "-//W3C//DTD SVG 20010904//EN"
 "http://www.w3.org/TR/2001/REC-SVG-20010904/DTD/svg10.dtd">
<svg version="1.0" xmlns="http://www.w3.org/2000/svg"
 width="96.000000pt" height="84.000000pt" viewBox="0 0 96.000000 84.000000"
 preserveAspectRatio="xMidYMid meet">
<metadata>
Created by potrace 1.16, written by Peter Selinger 2001-2019
</metadata>
<g transform="translate(0.000000,84.000000) scale(0.100000,-0.100000)"
fill="#000000" stroke="none">
<path d="M373 833 c-18 -3 -23 -11 -23 -35 0 -17 7 -39 16 -49 16 -18 34 -121
19 -107 -4 4 -17 3 -27 -3 -17 -9 -19 -18 -15 -49 3 -22 12 -53 21 -71 9 -18
13 -42 10 -56 -4 -14 -1 -31 8 -41 8 -9 15 -30 16 -47 4 -52 22 -54 22 -2 0
28 5 47 11 47 7 0 9 15 7 43 -3 23 1 53 7 67 7 14 13 37 13 51 -1 30 29 127
44 146 16 20 26 79 16 97 -7 12 -23 16 -66 15 -31 -1 -67 -4 -79 -6z"/>
</g>
</svg>
