<?xml version="1.0" standalone="no"?>
<!DOCTYPE svg PUBLIC "-//W3C//DTD SVG 20010904//EN"
 "http://www.w3.org/TR/2001/REC-SVG-20010904/DTD/svg10.dtd">
<svg version="1.0" xmlns="http://www.w3.org/2000/svg"
 width="96.000000pt" height="84.000000pt" viewBox="0 0 96.000000 84.000000"
 preserveAspectRatio="xMidYMid meet">
<metadata>
Created by potrace 1.16, written by Peter Selinger 2001-2019
</metadata>
<g transform="translate(0.000000,84.000000) scale(0.100000,-0.100000)"
fill="#000000" stroke="none">
<path d="M0 420 l0 -420 408 0 407 1 -27 20 c-16 11 -28 27 -28 35 0 15 -34
94 -80 186 -36 71 -47 123 -30 143 6 8 9 22 7 32 -3 10 -9 29 -13 43 -6 22 -5
23 10 11 20 -16 20 -17 2 45 -9 29 -16 105 -18 186 l-3 138 -317 0 -318 0 0
-420z"/>
</g>
</svg>
