<?xml version="1.0" standalone="no"?>
<!DOCTYPE svg PUBLIC "-//W3C//DTD SVG 20010904//EN"
 "http://www.w3.org/TR/2001/REC-SVG-20010904/DTD/svg10.dtd">
<svg version="1.0" xmlns="http://www.w3.org/2000/svg"
 width="96.000000pt" height="84.000000pt" viewBox="0 0 96.000000 84.000000"
 preserveAspectRatio="xMidYMid meet">
<metadata>
Created by potrace 1.16, written by Peter Selinger 2001-2019
</metadata>
<g transform="translate(0.000000,84.000000) scale(0.100000,-0.100000)"
fill="#000000" stroke="none">
<path d="M0 420 l0 -420 480 0 480 0 0 95 c0 60 -4 95 -11 95 -5 0 -8 -4 -5
-9 9 -14 -25 -23 -40 -10 -8 6 -14 8 -14 4 0 -4 -6 -3 -13 3 -7 6 -43 16 -80
22 -37 7 -70 16 -73 21 -3 5 -20 9 -39 9 -33 0 -34 -1 -28 -35 6 -38 -8 -47
-27 -17 -8 12 -13 13 -16 4 -8 -17 -24 -5 -24 19 0 20 -1 21 -70 23 -33 1 -45
5 -45 16 0 26 -99 43 -107 18 -4 -10 -18 -10 -69 0 -35 7 -71 10 -80 7 -10 -4
-19 0 -22 9 -4 9 -18 16 -32 16 -24 0 -45 24 -31 37 5 5 128 -6 262 -23 38 -5
43 -3 65 27 31 44 30 122 -3 148 -13 11 -19 24 -15 34 10 28 34 19 41 -14 6
-30 26 -32 26 -2 0 16 -95 113 -111 113 -5 0 -9 7 -9 16 0 10 6 13 18 10 16
-5 18 -2 14 24 -4 25 -1 30 16 30 22 0 35 -22 26 -45 -9 -21 10 -19 31 5 27
29 73 25 115 -10 22 -19 29 -30 19 -30 -8 0 -20 5 -26 11 -6 6 -16 8 -22 5
-21 -13 -11 -32 24 -45 19 -7 35 -16 35 -21 0 -5 12 -20 26 -34 28 -25 27 -63
-1 -52 -8 3 -17 1 -19 -3 -3 -5 -17 -6 -31 -3 -26 5 -33 -10 -16 -37 8 -12 12
-12 26 2 28 29 53 21 57 -15 3 -30 7 -33 42 -38 22 -3 41 -11 44 -18 2 -8 -2
-10 -14 -5 -12 4 -15 3 -10 -6 6 -8 29 -10 82 -5 79 7 119 -4 127 -35 3 -9 5
107 6 257 l1 272 -480 0 -480 0 0 -420z"/>
<path d="M502 357 c-25 -48 -27 -57 -9 -57 15 0 47 51 47 73 0 32 -16 24 -38
-16z"/>
</g>
</svg>
