<?xml version="1.0" standalone="no"?>
<!DOCTYPE svg PUBLIC "-//W3C//DTD SVG 20010904//EN"
 "http://www.w3.org/TR/2001/REC-SVG-20010904/DTD/svg10.dtd">
<svg version="1.0" xmlns="http://www.w3.org/2000/svg"
 width="96.000000pt" height="84.000000pt" viewBox="0 0 96.000000 84.000000"
 preserveAspectRatio="xMidYMid meet">
<metadata>
Created by potrace 1.16, written by Peter Selinger 2001-2019
</metadata>
<g transform="translate(0.000000,84.000000) scale(0.100000,-0.100000)"
fill="#000000" stroke="none">
<path d="M383 824 c-27 -12 -33 -20 -33 -46 0 -17 6 -39 14 -47 8 -9 19 -35
24 -58 9 -38 8 -42 -11 -45 -36 -5 -43 -31 -24 -92 10 -31 22 -56 27 -56 4 0
8 -17 8 -37 0 -21 3 -51 6 -68 4 -16 9 -40 12 -52 8 -42 27 -26 20 16 -5 32
-2 42 12 53 19 13 20 20 7 76 -3 18 -2 33 4 37 6 3 11 25 11 48 0 23 12 74 26
112 42 116 43 121 30 146 -9 19 -20 24 -56 26 -25 1 -60 -5 -77 -13z"/>
</g>
</svg>
