<?xml version="1.0" standalone="no"?>
<!DOCTYPE svg PUBLIC "-//W3C//DTD SVG 20010904//EN"
 "http://www.w3.org/TR/2001/REC-SVG-20010904/DTD/svg10.dtd">
<svg version="1.0" xmlns="http://www.w3.org/2000/svg"
 width="96.000000pt" height="84.000000pt" viewBox="0 0 96.000000 84.000000"
 preserveAspectRatio="xMidYMid meet">
<metadata>
Created by potrace 1.16, written by Peter Selinger 2001-2019
</metadata>
<g transform="translate(0.000000,84.000000) scale(0.100000,-0.100000)"
fill="#000000" stroke="none">
<path d="M410 806 c-8 -25 -8 -40 1 -59 14 -31 1 -54 -34 -59 -29 -4 -36 -58
-11 -82 9 -10 19 -37 22 -62 4 -40 3 -44 -17 -44 -30 0 -36 -40 -15 -97 9 -26
23 -53 31 -59 7 -6 14 -33 14 -60 2 -68 11 -107 28 -112 11 -4 13 4 8 34 -5
33 -3 42 14 52 17 11 20 20 14 45 -6 31 -7 41 -5 120 0 42 23 127 46 169 29
54 12 128 -30 128 -18 0 -25 7 -29 30 -4 17 -4 44 0 60 8 43 -22 40 -37 -4z"/>
</g>
</svg>
