<?xml version="1.0" standalone="no"?>
<!DOCTYPE svg PUBLIC "-//W3C//DTD SVG 20010904//EN"
 "http://www.w3.org/TR/2001/REC-SVG-20010904/DTD/svg10.dtd">
<svg version="1.0" xmlns="http://www.w3.org/2000/svg"
 width="96.000000pt" height="84.000000pt" viewBox="0 0 96.000000 84.000000"
 preserveAspectRatio="xMidYMid meet">
<metadata>
Created by potrace 1.16, written by Peter Selinger 2001-2019
</metadata>
<g transform="translate(0.000000,84.000000) scale(0.100000,-0.100000)"
fill="#000000" stroke="none">
<path d="M409 630 c-9 -31 -10 -43 -1 -52 7 -7 12 -25 12 -41 0 -27 -2 -29
-30 -23 -30 5 -30 5 -30 -38 0 -27 6 -48 15 -56 9 -8 15 -30 15 -56 0 -37 -3
-44 -19 -44 -20 0 -31 -18 -31 -51 0 -20 37 -100 50 -109 4 -3 9 -25 11 -50
l4 -45 -203 -3 -202 -2 0 -30 0 -30 209 0 209 0 -2 31 c0 18 5 34 12 36 8 3
12 -7 12 -31 l0 -36 260 0 260 0 0 30 0 30 -250 0 c-137 0 -250 2 -250 5 0 3
7 17 16 30 14 21 14 27 1 57 -28 63 -12 187 37 283 24 47 9 89 -32 93 -35 4
-39 17 -33 105 3 52 -24 50 -40 -3z"/>
</g>
</svg>
