<?xml version="1.0" standalone="no"?>
<!DOCTYPE svg PUBLIC "-//W3C//DTD SVG 20010904//EN"
 "http://www.w3.org/TR/2001/REC-SVG-20010904/DTD/svg10.dtd">
<svg version="1.0" xmlns="http://www.w3.org/2000/svg"
 width="96.000000pt" height="84.000000pt" viewBox="0 0 96.000000 84.000000"
 preserveAspectRatio="xMidYMid meet">
<metadata>
Created by potrace 1.16, written by Peter Selinger 2001-2019
</metadata>
<g transform="translate(0.000000,84.000000) scale(0.100000,-0.100000)"
fill="#000000" stroke="none">
<path d="M426 474 c-24 -23 -31 -63 -15 -79 20 -21 35 -6 43 42 7 46 -4 61
-28 37z"/>
<path d="M450 364 c0 -12 7 -27 15 -34 8 -7 15 -22 15 -34 0 -12 9 -27 21 -34
14 -9 17 -17 11 -25 -22 -30 -51 -136 -50 -184 l2 -53 248 0 248 0 0 115 0
115 -182 2 c-101 1 -193 2 -206 2 -27 1 -42 21 -42 58 0 18 -8 31 -22 39 -13
7 -24 10 -26 8 -2 -2 -10 7 -17 21 -13 23 -14 24 -15 4z"/>
<path d="M411 353 c-1 -7 -9 -13 -20 -13 -18 0 -32 -41 -23 -68 7 -21 22 -13
22 12 0 14 7 32 16 40 8 9 13 22 11 29 -4 9 -6 9 -6 0z"/>
<path d="M336 245 c-4 -12 -33 -15 -171 -15 l-165 0 0 -115 0 -115 185 0 186
0 -16 31 c-21 41 -16 81 13 94 18 8 22 18 22 53 0 49 -14 82 -34 82 -8 0 -16
-7 -20 -15z"/>
</g>
</svg>
