<?xml version="1.0" standalone="no"?>
<!DOCTYPE svg PUBLIC "-//W3C//DTD SVG 20010904//EN"
 "http://www.w3.org/TR/2001/REC-SVG-20010904/DTD/svg10.dtd">
<svg version="1.0" xmlns="http://www.w3.org/2000/svg"
 width="96.000000pt" height="84.000000pt" viewBox="0 0 96.000000 84.000000"
 preserveAspectRatio="xMidYMid meet">
<metadata>
Created by potrace 1.16, written by Peter Selinger 2001-2019
</metadata>
<g transform="translate(0.000000,84.000000) scale(0.100000,-0.100000)"
fill="#000000" stroke="none">
<path d="M426 832 c-10 -17 -26 -180 -26 -272 0 -53 -4 -89 -9 -82 -6 10 -10
10 -21 -3 -11 -13 -15 -13 -21 -3 -7 10 -9 10 -9 1 0 -7 -9 -13 -20 -13 -11 0
-20 7 -20 15 0 8 -5 15 -11 15 -6 0 -8 -9 -4 -20 4 -12 2 -20 -5 -20 -6 0 -9
-8 -6 -18 5 -14 -4 -23 -39 -40 -37 -18 -63 -22 -140 -22 l-95 0 0 -185 0
-185 197 2 c222 3 222 3 188 74 -21 44 -9 111 18 106 20 -3 23 28 6 56 -9 14
-8 26 5 50 9 18 23 32 30 32 17 0 29 -27 15 -36 -10 -6 -11 -84 -1 -112 2 -6
17 -12 32 -12 15 0 33 -6 39 -14 13 -16 9 -32 -26 -98 l-24 -48 240 0 241 0 0
185 0 185 -139 0 c-131 0 -141 1 -168 23 -15 13 -36 26 -45 30 -11 4 -15 13
-12 29 5 23 5 22 -10 -2 -8 -14 -15 -20 -16 -14 0 7 -9 14 -20 17 -13 3 -20
14 -20 29 l-1 23 -13 -24 c-7 -13 -16 -19 -19 -14 -4 6 -11 73 -17 149 -17
207 -20 224 -35 224 -8 0 -16 -4 -19 -8z"/>
</g>
</svg>
