<?xml version="1.0" standalone="no"?>
<!DOCTYPE svg PUBLIC "-//W3C//DTD SVG 20010904//EN"
 "http://www.w3.org/TR/2001/REC-SVG-20010904/DTD/svg10.dtd">
<svg version="1.0" xmlns="http://www.w3.org/2000/svg"
 width="96.000000pt" height="84.000000pt" viewBox="0 0 96.000000 84.000000"
 preserveAspectRatio="xMidYMid meet">
<metadata>
Created by potrace 1.16, written by Peter Selinger 2001-2019
</metadata>
<g transform="translate(0.000000,84.000000) scale(0.100000,-0.100000)"
fill="#000000" stroke="none">
<path d="M396 788 c-3 -29 -6 -79 -6 -111 0 -32 -4 -56 -9 -53 -5 3 -12 -5
-15 -19 -9 -34 -19 -31 -35 8 -13 29 -14 30 -18 10 -2 -13 -9 -23 -14 -23 -5
0 -7 -12 -4 -27 4 -22 2 -20 -9 7 l-13 35 -8 -46 c-5 -33 -13 -50 -28 -57 -52
-25 -125 -42 -179 -42 l-58 0 0 -235 0 -235 190 0 c185 0 190 1 190 21 0 28
19 61 31 54 13 -8 11 31 -2 53 -9 14 -8 25 5 50 26 51 42 32 41 -50 l0 -72 31
-8 c17 -4 39 -17 49 -28 17 -19 30 -20 222 -20 l203 0 0 235 0 235 -105 0
c-87 0 -110 3 -137 20 -18 11 -42 20 -53 20 -37 0 -45 18 -29 62 19 55 17 59
-7 20 -20 -30 -22 -31 -35 -15 -12 17 -14 17 -29 -2 -15 -19 -16 -17 -10 34
l6 53 -25 -28 -25 -29 -1 39 c0 33 -2 37 -15 26 -13 -11 -15 -1 -15 79 l0 91
-39 0 -38 0 -7 -52z"/>
</g>
</svg>
