<?xml version="1.0" standalone="no"?>
<!DOCTYPE svg PUBLIC "-//W3C//DTD SVG 20010904//EN"
 "http://www.w3.org/TR/2001/REC-SVG-20010904/DTD/svg10.dtd">
<svg version="1.0" xmlns="http://www.w3.org/2000/svg"
 width="96.000000pt" height="84.000000pt" viewBox="0 0 96.000000 84.000000"
 preserveAspectRatio="xMidYMid meet">
<metadata>
Created by potrace 1.16, written by Peter Selinger 2001-2019
</metadata>
<g transform="translate(0.000000,84.000000) scale(0.100000,-0.100000)"
fill="#000000" stroke="none">
<path d="M396 818 c-3 -13 -6 -50 -6 -83 0 -42 -3 -56 -10 -45 -5 8 -10 27
-10 42 0 15 -4 30 -10 33 -6 4 -10 -6 -10 -21 0 -27 -1 -27 -14 -8 -21 28 -25
15 -15 -44 11 -59 5 -97 -6 -44 -5 22 -11 29 -16 21 -4 -8 -12 3 -20 29 -7 23
-17 42 -22 42 -9 0 -6 -24 9 -80 7 -23 6 -24 -11 -10 -16 14 -17 13 -11 -7 5
-17 3 -21 -16 -21 -13 0 -52 -12 -88 -27 -35 -15 -81 -30 -102 -33 l-38 -5 0
-278 0 -279 210 0 c135 0 210 4 210 10 0 6 -5 18 -11 28 -14 22 13 82 35 82
11 0 13 -13 9 -60 l-6 -60 257 0 256 0 0 279 0 279 -77 4 c-75 4 -112 13 -180
46 -18 8 -41 12 -52 9 -24 -6 -27 14 -11 60 l10 28 -20 -25 c-11 -14 -20 -19
-20 -12 0 7 -4 10 -10 7 -5 -3 -10 4 -11 17 -1 22 -2 21 -12 -4 -17 -42 -22
-34 -20 29 2 45 1 53 -7 36 -5 -13 -17 -23 -26 -23 -13 0 -16 7 -11 36 5 29 3
35 -8 30 -11 -4 -15 2 -15 19 0 23 -4 25 -44 25 -37 0 -45 -4 -50 -22z m88
-569 c-4 -7 -44 0 -44 7 0 2 11 3 24 2 14 -1 23 -5 20 -9z"/>
</g>
</svg>
