<?xml version="1.0" standalone="no"?>
<!DOCTYPE svg PUBLIC "-//W3C//DTD SVG 20010904//EN"
 "http://www.w3.org/TR/2001/REC-SVG-20010904/DTD/svg10.dtd">
<svg version="1.0" xmlns="http://www.w3.org/2000/svg"
 width="96.000000pt" height="84.000000pt" viewBox="0 0 96.000000 84.000000"
 preserveAspectRatio="xMidYMid meet">
<metadata>
Created by potrace 1.16, written by Peter Selinger 2001-2019
</metadata>
<g transform="translate(0.000000,84.000000) scale(0.100000,-0.100000)"
fill="#000000" stroke="none">
<path d="M243 793 c3 -33 0 -50 -6 -46 -6 4 -8 -6 -4 -27 6 -28 5 -31 -11 -25
-47 18 -74 17 -102 -4 -20 -14 -44 -21 -75 -21 l-45 0 0 -335 0 -335 200 0
199 0 16 30 c19 36 50 31 41 -6 l-6 -24 255 0 255 0 0 331 0 331 -24 -6 c-48
-12 -146 6 -177 31 l-29 25 -37 -22 c-52 -31 -66 -22 -49 32 26 88 27 93 4 53
l-23 -40 -3 33 c-4 42 -18 41 -32 -3 -17 -53 -31 -43 -24 18 l6 52 -91 3 c-87
3 -92 2 -100 -20 l-10 -23 0 23 c-1 31 -19 27 -23 -5 l-4 -28 -14 28 c-17 34
-30 35 -30 2 0 -14 -5 -25 -11 -25 -5 0 -7 -4 -4 -10 3 -5 3 -15 -1 -22 -5 -7
-15 7 -26 38 l-18 49 3 -52z m212 -523 c3 -5 1 -10 -4 -10 -6 0 -11 5 -11 10
0 6 2 10 4 10 3 0 8 -4 11 -10z"/>
</g>
</svg>
