<?xml version="1.0" standalone="no"?>
<!DOCTYPE svg PUBLIC "-//W3C//DTD SVG 20010904//EN"
 "http://www.w3.org/TR/2001/REC-SVG-20010904/DTD/svg10.dtd">
<svg version="1.0" xmlns="http://www.w3.org/2000/svg"
 width="96.000000pt" height="84.000000pt" viewBox="0 0 96.000000 84.000000"
 preserveAspectRatio="xMidYMid meet">
<metadata>
Created by potrace 1.16, written by Peter Selinger 2001-2019
</metadata>
<g transform="translate(0.000000,84.000000) scale(0.100000,-0.100000)"
fill="#000000" stroke="none">
<path d="M240 819 c0 -11 -4 -18 -8 -15 -5 3 -7 -7 -4 -22 3 -26 2 -27 -50
-27 -33 0 -76 -9 -116 -25 l-62 -25 0 -352 0 -353 480 0 480 0 0 370 c0 346
-1 370 -17 370 -10 -1 -29 -7 -43 -15 -34 -19 -34 -19 -76 17 l-36 32 -57 -20
c-31 -12 -63 -24 -72 -28 -15 -6 -16 -2 -9 36 5 24 12 52 16 63 7 18 6 18 -9
6 -9 -7 -17 -9 -17 -4 0 5 -11 10 -25 11 -18 1 -25 -3 -25 -16 -1 -16 -1 -16
-14 1 -11 15 -31 17 -143 17 l-130 0 3 -27 4 -28 -15 30 c-8 17 -14 23 -15 16
0 -12 -3 -12 -12 -3 -18 18 -28 15 -28 -9z"/>
</g>
</svg>
