<?xml version="1.0" standalone="no"?>
<!DOCTYPE svg PUBLIC "-//W3C//DTD SVG 20010904//EN"
 "http://www.w3.org/TR/2001/REC-SVG-20010904/DTD/svg10.dtd">
<svg version="1.0" xmlns="http://www.w3.org/2000/svg"
 width="96.000000pt" height="84.000000pt" viewBox="0 0 96.000000 84.000000"
 preserveAspectRatio="xMidYMid meet">
<metadata>
Created by potrace 1.16, written by Peter Selinger 2001-2019
</metadata>
<g transform="translate(0.000000,84.000000) scale(0.100000,-0.100000)"
fill="#000000" stroke="none">
<path d="M227 810 c5 -28 4 -30 -26 -30 -18 0 -41 5 -52 11 -16 8 -30 7 -60
-5 -22 -9 -51 -16 -64 -16 l-25 0 0 -385 0 -385 480 0 480 0 0 384 0 383 -24
-4 c-14 -3 -36 3 -53 15 -15 11 -50 23 -76 27 -42 6 -51 3 -78 -19 -48 -41
-70 -33 -71 24 l-1 30 -218 0 -218 0 6 -30z"/>
</g>
</svg>
