<?xml version="1.0" standalone="no"?>
<!DOCTYPE svg PUBLIC "-//W3C//DTD SVG 20010904//EN"
 "http://www.w3.org/TR/2001/REC-SVG-20010904/DTD/svg10.dtd">
<svg version="1.0" xmlns="http://www.w3.org/2000/svg"
 width="96.000000pt" height="84.000000pt" viewBox="0 0 96.000000 84.000000"
 preserveAspectRatio="xMidYMid meet">
<metadata>
Created by potrace 1.16, written by Peter Selinger 2001-2019
</metadata>
<g transform="translate(0.000000,84.000000) scale(0.100000,-0.100000)"
fill="#000000" stroke="none">
<path d="M0 420 l0 -420 480 0 480 0 0 420 0 420 -480 0 -480 0 0 -420z m458
252 c7 -5 10 -16 6 -25 -8 -23 2 -21 34 4 29 23 54 20 105 -12 l32 -20 -35 3
c-45 4 -54 -24 -13 -41 15 -6 35 -15 43 -20 8 -5 23 -12 32 -15 35 -10 7 -36
-64 -60 -19 -6 -24 -31 -9 -40 5 -3 14 1 21 9 21 25 40 18 40 -15 0 -29 2 -30
45 -30 42 0 58 -11 35 -25 -23 -14 -7 -22 28 -14 51 12 122 11 122 -1 0 -5 13
-21 29 -35 33 -30 40 -92 9 -87 -9 1 -22 -7 -28 -18 -6 -11 -15 -18 -20 -15
-6 4 -18 8 -27 10 -10 3 -47 12 -82 20 -35 9 -74 23 -85 31 -35 24 -48 18 -41
-20 8 -38 -8 -56 -24 -29 -6 10 -11 12 -11 6 0 -26 -20 -12 -20 13 0 26 -2 26
-45 22 -41 -5 -75 9 -59 24 3 3 -22 9 -56 13 -34 4 -64 4 -67 1 -4 -3 1 -6 10
-6 10 0 17 -4 17 -10 0 -13 -6 -13 -64 5 -28 8 -58 13 -68 9 -10 -3 -18 -1
-18 5 0 6 -8 11 -18 11 -23 0 -59 26 -50 36 5 4 61 2 125 -5 65 -7 127 -13
137 -14 13 -1 29 11 43 32 27 40 23 96 -9 121 -12 10 -17 22 -12 33 9 24 23
21 34 -9 6 -14 14 -22 20 -19 18 11 11 22 -45 77 -55 53 -69 75 -40 64 12 -4
14 0 9 19 -6 26 8 33 34 17z"/>
<path d="M496 380 c-11 -22 -17 -43 -14 -45 10 -10 57 55 52 70 -9 23 -18 18
-38 -25z"/>
<path d="M655 380 c3 -5 16 -10 28 -10 18 0 19 2 7 10 -20 13 -43 13 -35 0z"/>
</g>
</svg>
