<?xml version="1.0" standalone="no"?>
<!DOCTYPE svg PUBLIC "-//W3C//DTD SVG 20010904//EN"
 "http://www.w3.org/TR/2001/REC-SVG-20010904/DTD/svg10.dtd">
<svg version="1.0" xmlns="http://www.w3.org/2000/svg"
 width="96.000000pt" height="84.000000pt" viewBox="0 0 96.000000 84.000000"
 preserveAspectRatio="xMidYMid meet">
<metadata>
Created by potrace 1.16, written by Peter Selinger 2001-2019
</metadata>
<g transform="translate(0.000000,84.000000) scale(0.100000,-0.100000)"
fill="#000000" stroke="none">
<path d="M22 824 l-22 -16 0 -404 0 -404 480 0 480 0 0 404 0 404 -47 12 c-90
22 -110 23 -137 5 -20 -13 -37 -16 -71 -11 -25 4 -45 11 -45 17 0 5 -88 9
-215 9 -204 0 -215 -1 -215 -19 0 -28 -31 -31 -91 -9 -78 28 -92 29 -117 12z"/>
</g>
</svg>
