<?xml version="1.0" standalone="no"?>
<!DOCTYPE svg PUBLIC "-//W3C//DTD SVG 20010904//EN"
 "http://www.w3.org/TR/2001/REC-SVG-20010904/DTD/svg10.dtd">
<svg version="1.0" xmlns="http://www.w3.org/2000/svg"
 width="96.000000pt" height="84.000000pt" viewBox="0 0 96.000000 84.000000"
 preserveAspectRatio="xMidYMid meet">
<metadata>
Created by potrace 1.16, written by Peter Selinger 2001-2019
</metadata>
<g transform="translate(0.000000,84.000000) scale(0.100000,-0.100000)"
fill="#000000" stroke="none">
<path d="M0 419 l0 -419 480 0 480 1 0 419 0 420 -480 0 -480 -1 0 -420z m575
401 c3 -5 1 -10 -4 -10 -6 0 -11 5 -11 10 0 6 2 10 4 10 3 0 8 -4 11 -10z
m-430 -61 c-4 -5 -12 -9 -18 -8 -9 0 -8 2 1 6 6 2 9 10 6 15 -4 7 -2 8 5 4 6
-4 9 -12 6 -17z m428 -4 c-3 -9 -8 -14 -10 -11 -3 3 -2 9 2 15 9 16 15 13 8
-4z m-83 -25 c0 -5 -2 -10 -4 -10 -3 0 -8 5 -11 10 -3 6 -1 10 4 10 6 0 11 -4
11 -10z m137 -122 c-3 -8 -6 -5 -6 6 -1 11 2 17 5 13 3 -3 4 -12 1 -19z m-452
-38 c3 -5 1 -10 -4 -10 -6 0 -11 5 -11 10 0 6 2 10 4 10 3 0 8 -4 11 -10z
m275 -33 c0 -5 -4 -5 -10 -2 -5 3 -10 14 -10 23 0 15 2 15 10 2 5 -8 10 -19
10 -23z m-165 -47 c3 -5 1 -10 -4 -10 -6 0 -11 5 -11 10 0 6 2 10 4 10 3 0 8
-4 11 -10z m310 -50 c-3 -5 -12 -10 -18 -10 -7 0 -6 4 3 10 19 12 23 12 15 0z
m-68 -62 c-3 -8 -6 -5 -6 6 -1 11 2 17 5 13 3 -3 4 -12 1 -19z m133 -42 c0 -2
-7 -9 -15 -16 -13 -11 -14 -10 -9 4 5 14 24 23 24 12z m-40 -76 c0 -5 -5 -10
-11 -10 -5 0 -7 5 -4 10 3 6 8 10 11 10 2 0 4 -4 4 -10z m50 -110 c0 -5 -7
-10 -15 -10 -8 0 -15 5 -15 10 0 6 7 10 15 10 8 0 15 -4 15 -10z"/>
</g>
</svg>
