<?xml version="1.0" standalone="no"?>
<!DOCTYPE svg PUBLIC "-//W3C//DTD SVG 20010904//EN"
 "http://www.w3.org/TR/2001/REC-SVG-20010904/DTD/svg10.dtd">
<svg version="1.0" xmlns="http://www.w3.org/2000/svg"
 width="96.000000pt" height="84.000000pt" viewBox="0 0 96.000000 84.000000"
 preserveAspectRatio="xMidYMid meet">
<metadata>
Created by potrace 1.16, written by Peter Selinger 2001-2019
</metadata>
<g transform="translate(0.000000,84.000000) scale(0.100000,-0.100000)"
fill="#000000" stroke="none">
<path d="M0 420 l0 -420 480 0 480 0 0 420 0 420 -480 0 -480 0 0 -420z m457
230 c6 -24 16 -25 33 -5 17 20 51 19 89 -2 39 -23 40 -34 1 -26 -23 4 -30 2
-30 -11 0 -9 5 -16 12 -16 17 0 88 -51 88 -62 0 -6 -9 -12 -20 -15 -11 -3 -20
-9 -20 -14 0 -5 -9 -9 -20 -9 -11 0 -20 -7 -20 -15 0 -8 3 -15 6 -15 3 0 12 7
20 15 23 23 34 18 34 -15 0 -28 3 -30 34 -30 42 0 56 -17 24 -30 -17 -8 -12
-8 22 -3 81 13 117 8 148 -23 15 -16 27 -36 26 -44 -3 -36 -5 -40 -19 -40 -7
0 -18 -7 -22 -15 -7 -12 -17 -12 -73 2 -36 8 -81 22 -102 30 -43 18 -57 12
-50 -22 2 -15 0 -25 -7 -25 -6 0 -11 5 -11 11 0 8 -4 8 -14 0 -12 -10 -15 -8
-18 11 -2 19 -9 23 -41 23 -26 0 -42 6 -48 18 -8 13 -23 17 -67 17 -52 -1 -55
-2 -38 -15 26 -20 6 -19 -44 1 -22 9 -47 14 -55 10 -8 -3 -18 1 -22 8 -5 8
-17 15 -27 17 -11 2 -21 10 -24 18 -4 11 9 12 69 5 41 -5 98 -9 128 -9 50 0
56 2 73 30 14 25 16 38 7 68 -5 20 -14 37 -19 37 -13 0 -13 27 0 35 6 3 15 -6
21 -22 8 -21 12 -24 19 -13 9 14 -9 45 -36 62 -48 31 -55 43 -45 71 12 32 31
35 38 7z"/>
<path d="M496 414 c-20 -44 -15 -53 13 -23 23 25 24 28 13 47 -6 8 -14 1 -26
-24z"/>
<path d="M638 403 c7 -3 16 -2 19 1 4 3 -2 6 -13 5 -11 0 -14 -3 -6 -6z"/>
</g>
</svg>
