<?xml version="1.0" standalone="no"?>
<!DOCTYPE svg PUBLIC "-//W3C//DTD SVG 20010904//EN"
 "http://www.w3.org/TR/2001/REC-SVG-20010904/DTD/svg10.dtd">
<svg version="1.0" xmlns="http://www.w3.org/2000/svg"
 width="96.000000pt" height="84.000000pt" viewBox="0 0 96.000000 84.000000"
 preserveAspectRatio="xMidYMid meet">
<metadata>
Created by potrace 1.16, written by Peter Selinger 2001-2019
</metadata>
<g transform="translate(0.000000,84.000000) scale(0.100000,-0.100000)"
fill="#000000" stroke="none">
<path d="M0 496 c0 -342 0 -344 21 -349 l21 -6 -21 -34 c-11 -19 -21 -51 -21
-71 l0 -36 154 0 c114 0 156 3 159 13 4 10 6 10 6 0 1 -10 72 -13 321 -13
l320 0 0 185 c0 137 -3 185 -12 185 -9 0 -9 3 0 12 9 9 12 75 12 235 l0 223
-480 0 -480 -1 0 -343z m770 235 c0 -6 -4 -13 -10 -16 -5 -3 -10 1 -10 9 0 9
5 16 10 16 6 0 10 -4 10 -9z m-305 -91 c3 -5 -1 -10 -9 -10 -9 0 -16 5 -16 10
0 6 4 10 9 10 6 0 13 -4 16 -10z m-405 -61 c0 -6 -4 -7 -10 -4 -5 3 -10 11
-10 16 0 6 5 7 10 4 6 -3 10 -11 10 -16z m380 -189 c8 -5 11 -12 8 -16 -10 -9
-38 3 -38 16 0 12 10 13 30 0z m243 -56 c-10 -19 -19 -31 -21 -24 -4 10 24 60
33 60 3 0 -3 -16 -12 -36z m-558 17 c3 -5 1 -12 -5 -16 -5 -3 -10 1 -10 9 0
18 6 21 15 7z m395 -62 c-7 -11 -14 -18 -17 -15 -8 8 5 36 17 36 7 0 7 -6 0
-21z m-73 5 c-3 -3 -12 -4 -19 -1 -8 3 -5 6 6 6 11 1 17 -2 13 -5z m-177 -34
c0 -5 -2 -10 -4 -10 -3 0 -8 5 -11 10 -3 6 -1 10 4 10 6 0 11 -4 11 -10z m367
-32 c-3 -8 -6 -5 -6 6 -1 11 2 17 5 13 3 -3 4 -12 1 -19z m223 -68 c13 -8 13
-10 -2 -10 -9 0 -20 5 -23 10 -8 13 5 13 25 0z m-230 -29 c0 -6 -4 -13 -10
-16 -5 -3 -10 1 -10 9 0 9 5 16 10 16 6 0 10 -4 10 -9z m181 -67 c12 -14 11
-16 -5 -13 -11 2 -21 10 -24 17 -5 17 13 15 29 -4z m-541 -21 c-1 -20 -19 -35
-35 -29 -14 5 -15 9 -5 21 13 16 40 21 40 8z m130 -18 c0 -8 -4 -15 -10 -15
-5 0 -10 7 -10 15 0 8 5 15 10 15 6 0 10 -7 10 -15z m503 0 c-4 -15 -36 -12
-41 3 -3 9 3 13 19 10 13 -1 23 -7 22 -13z"/>
</g>
</svg>
