<?xml version="1.0" standalone="no"?>
<!DOCTYPE svg PUBLIC "-//W3C//DTD SVG 20010904//EN"
 "http://www.w3.org/TR/2001/REC-SVG-20010904/DTD/svg10.dtd">
<svg version="1.0" xmlns="http://www.w3.org/2000/svg"
 width="96.000000pt" height="84.000000pt" viewBox="0 0 96.000000 84.000000"
 preserveAspectRatio="xMidYMid meet">
<metadata>
Created by potrace 1.16, written by Peter Selinger 2001-2019
</metadata>
<g transform="translate(0.000000,84.000000) scale(0.100000,-0.100000)"
fill="#000000" stroke="none">
<path d="M0 711 l0 -130 37 16 c49 20 112 12 137 -19 15 -19 17 -33 12 -83 -4
-36 -12 -65 -21 -71 -18 -14 -20 -45 -2 -63 10 -10 6 -17 -16 -37 -16 -13 -26
-28 -23 -33 9 -14 10 -222 2 -258 l-8 -33 300 0 c278 0 301 1 305 17 4 17 5
17 6 1 1 -16 14 -18 116 -18 l115 0 0 420 0 420 -480 0 -480 0 0 -129z m630
-81 c0 -5 -2 -10 -4 -10 -3 0 -8 5 -11 10 -3 6 -1 10 4 10 6 0 11 -4 11 -10z
m-376 -55 c-4 -8 -8 -15 -10 -15 -2 0 -4 7 -4 15 0 8 4 15 10 15 5 0 7 -7 4
-15z m416 -246 c0 -10 -4 -19 -9 -19 -12 0 -23 29 -15 41 8 14 24 0 24 -22z
m170 21 c0 -5 -7 -10 -15 -10 -8 0 -15 5 -15 10 0 6 7 10 15 10 8 0 15 -4 15
-10z m-501 -249 c-3 -6 -10 -7 -18 -2 -7 5 -10 14 -6 21 9 14 29 -2 24 -19z
m441 -31 c0 -5 -4 -10 -10 -10 -5 0 -10 5 -10 10 0 6 5 10 10 10 6 0 10 -4 10
-10z"/>
<path d="M0 261 l0 -44 20 26 c22 27 27 52 9 41 -6 -3 -15 0 -20 7 -6 9 -9 -1
-9 -30z"/>
<path d="M0 39 c0 -37 2 -39 31 -39 28 0 30 2 27 32 -2 25 -9 33 -30 39 -27 7
-28 6 -28 -32z"/>
<path d="M80 35 c0 -19 5 -35 10 -35 6 0 10 16 10 35 0 19 -4 35 -10 35 -5 0
-10 -16 -10 -35z"/>
</g>
</svg>
