<?xml version="1.0" standalone="no"?>
<!DOCTYPE svg PUBLIC "-//W3C//DTD SVG 20010904//EN"
 "http://www.w3.org/TR/2001/REC-SVG-20010904/DTD/svg10.dtd">
<svg version="1.0" xmlns="http://www.w3.org/2000/svg"
 width="96.000000pt" height="84.000000pt" viewBox="0 0 96.000000 84.000000"
 preserveAspectRatio="xMidYMid meet">
<metadata>
Created by potrace 1.16, written by Peter Selinger 2001-2019
</metadata>
<g transform="translate(0.000000,84.000000) scale(0.100000,-0.100000)"
fill="#000000" stroke="none">
<path d="M0 690 l0 -151 32 37 c85 96 227 81 239 -26 4 -33 -10 -89 -29 -118
-8 -13 -15 -39 -14 -58 1 -28 -3 -37 -23 -46 -20 -9 -22 -14 -14 -37 6 -15 8
-80 5 -158 l-6 -133 385 0 385 0 0 420 0 420 -480 0 -480 0 0 -150z m655 -60
c3 -5 1 -10 -4 -10 -6 0 -11 5 -11 10 0 6 2 10 4 10 3 0 8 -4 11 -10z m-355
-44 c0 -3 -4 -8 -10 -11 -5 -3 -10 -1 -10 4 0 6 5 11 10 11 6 0 10 -2 10 -4z
m620 -207 c0 -5 -7 -9 -15 -9 -15 0 -20 12 -9 23 8 8 24 -1 24 -14z m-210 -39
c0 -11 -4 -20 -10 -20 -5 0 -10 9 -10 20 0 11 5 20 10 20 6 0 10 -9 10 -20z
m-80 -94 c0 -3 -4 -8 -10 -11 -5 -3 -10 -1 -10 4 0 6 5 11 10 11 6 0 10 -2 10
-4z m-162 -95 c3 -8 -1 -12 -9 -9 -7 2 -15 10 -17 17 -3 8 1 12 9 9 7 -2 15
-10 17 -17z m-239 -43 c-8 -14 -14 -18 -17 -10 -4 13 17 46 25 38 3 -2 -1 -15
-8 -28z m571 -42 c0 -3 -4 -8 -10 -11 -5 -3 -10 -1 -10 4 0 6 5 11 10 11 6 0
10 -2 10 -4z m27 -28 c-3 -8 -6 -5 -6 6 -1 11 2 17 5 13 3 -3 4 -12 1 -19z"/>
<path d="M0 267 c0 -43 3 -77 6 -77 13 0 62 41 78 64 20 32 11 56 -22 56 -14
0 -34 7 -44 17 -17 15 -18 13 -18 -60z m60 13 c0 -5 -5 -10 -11 -10 -5 0 -7 5
-4 10 3 6 8 10 11 10 2 0 4 -4 4 -10z"/>
<path d="M13 73 c-7 -2 -13 -20 -13 -39 l0 -34 61 0 c59 0 60 1 57 26 -2 20
-12 29 -43 40 -43 15 -44 15 -62 7z"/>
<path d="M140 30 c0 -20 5 -30 15 -30 10 0 15 10 15 30 0 20 -5 30 -15 30 -10
0 -15 -10 -15 -30z"/>
</g>
</svg>
