<?xml version="1.0" standalone="no"?>
<!DOCTYPE svg PUBLIC "-//W3C//DTD SVG 20010904//EN"
 "http://www.w3.org/TR/2001/REC-SVG-20010904/DTD/svg10.dtd">
<svg version="1.0" xmlns="http://www.w3.org/2000/svg"
 width="96.000000pt" height="84.000000pt" viewBox="0 0 96.000000 84.000000"
 preserveAspectRatio="xMidYMid meet">
<metadata>
Created by potrace 1.16, written by Peter Selinger 2001-2019
</metadata>
<g transform="translate(0.000000,84.000000) scale(0.100000,-0.100000)"
fill="#000000" stroke="none">
<path d="M0 420 l0 -420 480 0 480 0 0 420 0 420 -480 0 -480 0 0 -420z m454
225 c14 -14 18 -14 40 0 29 19 55 14 82 -17 19 -20 19 -21 -3 -14 -34 11 -37
-12 -3 -29 17 -9 28 -20 25 -25 -4 -6 1 -13 9 -16 12 -5 14 -16 9 -49 l-6 -44
39 -7 c33 -6 36 -8 19 -15 -12 -5 9 -6 48 -3 65 6 69 5 97 -22 35 -34 39 -73
10 -81 -11 -3 -20 -10 -20 -15 0 -6 -10 -7 -22 -4 -125 38 -180 44 -176 20 2
-11 -5 -18 -19 -19 -16 -1 -23 4 -23 17 0 19 -8 22 -48 18 -13 -1 -29 5 -35
13 -16 20 -117 30 -110 10 3 -7 9 -13 14 -13 5 0 9 -5 9 -11 0 -6 -16 -1 -36
12 -20 12 -43 23 -52 24 -10 1 -29 7 -44 13 -34 14 -38 37 -5 28 12 -3 63 -9
114 -12 l91 -7 15 30 c17 33 13 68 -11 96 -12 14 -13 20 -3 30 9 9 13 7 17
-11 7 -23 24 -31 24 -9 0 7 -18 28 -40 47 -37 32 -49 58 -33 73 9 9 9 9 27 -8z"/>
<path d="M560 490 c0 -5 5 -10 10 -10 6 0 10 5 10 10 0 6 -4 10 -10 10 -5 0
-10 -4 -10 -10z"/>
<path d="M496 443 c-3 -10 -9 -25 -12 -33 -5 -10 0 -9 15 4 21 19 29 46 12 46
-5 0 -11 -8 -15 -17z"/>
<path d="M617 419 c7 -7 15 -10 18 -7 3 3 -2 9 -12 12 -14 6 -15 5 -6 -5z"/>
</g>
</svg>
