<?xml version="1.0" standalone="no"?>
<!DOCTYPE svg PUBLIC "-//W3C//DTD SVG 20010904//EN"
 "http://www.w3.org/TR/2001/REC-SVG-20010904/DTD/svg10.dtd">
<svg version="1.0" xmlns="http://www.w3.org/2000/svg"
 width="96.000000pt" height="84.000000pt" viewBox="0 0 96.000000 84.000000"
 preserveAspectRatio="xMidYMid meet">
<metadata>
Created by potrace 1.16, written by Peter Selinger 2001-2019
</metadata>
<g transform="translate(0.000000,84.000000) scale(0.100000,-0.100000)"
fill="#000000" stroke="none">
<path d="M1 633 c1 -210 1 -211 30 -102 13 51 78 115 130 129 139 38 224 -89
146 -219 -11 -18 -23 -47 -26 -65 -4 -18 -15 -35 -29 -41 -16 -7 -20 -15 -15
-30 4 -11 6 -84 4 -162 l-3 -143 361 0 361 0 0 420 0 420 -480 0 -480 0 1
-207z m539 67 c0 -5 -5 -10 -11 -10 -5 0 -7 5 -4 10 3 6 8 10 11 10 2 0 4 -4
4 -10z m195 -359 c-9 -16 -25 -3 -18 15 4 10 9 12 15 6 6 -6 7 -15 3 -21z
m-65 -81 c0 -5 -5 -10 -11 -10 -5 0 -7 5 -4 10 3 6 8 10 11 10 2 0 4 -4 4 -10z
m-116 -76 c4 -10 1 -14 -6 -12 -15 5 -23 28 -10 28 5 0 13 -7 16 -16z m-254
-76 c0 -19 -18 -43 -25 -36 -4 3 -2 16 5 27 12 24 20 27 20 9z m530 -22 c0 -3
-4 -8 -10 -11 -5 -3 -10 -1 -10 4 0 6 5 11 10 11 6 0 10 -2 10 -4z"/>
<path d="M0 284 l0 -126 43 25 c58 34 101 89 92 117 -4 12 -13 19 -20 17 -21
-8 -76 32 -88 63 -6 17 -15 30 -19 30 -4 0 -8 -57 -8 -126z"/>
<path d="M0 33 l0 -33 80 0 c78 0 80 1 80 24 0 17 -6 25 -17 25 -10 1 -46 4
-80 9 l-63 8 0 -33z"/>
<path d="M190 25 c0 -16 6 -25 16 -25 11 0 14 5 10 16 -3 9 -6 20 -6 25 0 5
-4 9 -10 9 -5 0 -10 -11 -10 -25z"/>
</g>
</svg>
