<?xml version="1.0" standalone="no"?>
<!DOCTYPE svg PUBLIC "-//W3C//DTD SVG 20010904//EN"
 "http://www.w3.org/TR/2001/REC-SVG-20010904/DTD/svg10.dtd">
<svg version="1.0" xmlns="http://www.w3.org/2000/svg"
 width="96.000000pt" height="84.000000pt" viewBox="0 0 96.000000 84.000000"
 preserveAspectRatio="xMidYMid meet">
<metadata>
Created by potrace 1.16, written by Peter Selinger 2001-2019
</metadata>
<g transform="translate(0.000000,84.000000) scale(0.100000,-0.100000)"
fill="#000000" stroke="none">
<path d="M1 485 c0 -215 4 -353 10 -349 5 3 7 9 5 13 -3 4 10 15 28 24 40 18
103 72 117 99 14 26 2 58 -21 58 -11 0 -35 14 -54 30 -43 38 -54 100 -32 173
30 101 102 157 200 157 44 0 60 -5 85 -25 62 -53 64 -142 5 -226 -18 -26 -30
-50 -27 -53 11 -11 -27 -55 -42 -50 -13 5 -14 2 -6 -20 6 -14 11 -91 12 -171
l2 -145 338 0 338 1 1 419 1 420 -481 0 -481 0 2 -355z m609 265 c0 -5 -7 -10
-16 -10 -8 0 -12 5 -9 10 3 6 10 10 16 10 5 0 9 -4 9 -10z m150 -379 c0 -5 -7
-14 -15 -21 -12 -10 -15 -10 -15 2 0 8 3 18 7 21 9 10 23 9 23 -2z m-156 -176
c3 -8 1 -15 -3 -15 -5 0 -11 7 -15 15 -3 8 -1 15 3 15 5 0 11 -7 15 -15z
m-284 -137 c0 -23 -3 -29 -11 -21 -6 6 -8 20 -4 32 9 30 15 26 15 -11z m300
18 c0 -3 -4 -8 -10 -11 -5 -3 -10 -1 -10 4 0 6 5 11 10 11 6 0 10 -2 10 -4z"/>
<path d="M0 61 l0 -61 95 0 c54 0 95 4 95 10 0 15 -36 30 -74 30 -50 0 -86 16
-86 39 0 10 -7 24 -15 31 -13 11 -15 5 -15 -49z"/>
<path d="M220 10 c0 -5 7 -10 15 -10 8 0 15 5 15 10 0 6 -7 10 -15 10 -8 0
-15 -4 -15 -10z"/>
</g>
</svg>
