<?xml version="1.0" standalone="no"?>
<!DOCTYPE svg PUBLIC "-//W3C//DTD SVG 20010904//EN"
 "http://www.w3.org/TR/2001/REC-SVG-20010904/DTD/svg10.dtd">
<svg version="1.0" xmlns="http://www.w3.org/2000/svg"
 width="96.000000pt" height="84.000000pt" viewBox="0 0 96.000000 84.000000"
 preserveAspectRatio="xMidYMid meet">
<metadata>
Created by potrace 1.16, written by Peter Selinger 2001-2019
</metadata>
<g transform="translate(0.000000,84.000000) scale(0.100000,-0.100000)"
fill="#000000" stroke="none">
<path d="M0 420 l0 -420 68 1 c61 1 64 2 34 11 -20 7 -32 17 -32 29 0 10 -9
24 -21 33 -30 21 -18 70 22 86 16 7 50 35 75 63 40 45 45 55 42 91 -2 30 -7
41 -19 41 -30 0 -67 27 -85 60 -13 25 -16 46 -11 94 12 141 122 231 251 207
83 -16 129 -101 100 -184 -15 -46 -50 -101 -72 -115 -7 -5 -10 -16 -7 -26 6
-20 -28 -56 -44 -46 -13 8 -13 8 -1 -35 6 -19 15 -89 21 -155 5 -66 12 -128
15 -138 5 -16 26 -17 312 -15 l307 3 3 417 2 418 -480 0 -480 0 0 -420z m695
390 c-3 -5 -13 -10 -21 -10 -8 0 -12 5 -9 10 3 6 13 10 21 10 8 0 12 -4 9 -10z
m95 -439 c0 -12 -20 -25 -27 -18 -7 7 6 27 18 27 5 0 9 -4 9 -9z m-768 -223
c-7 -7 -12 -8 -12 -2 0 14 12 26 19 19 2 -3 -1 -11 -7 -17z m600 -110 c-7 -7
-12 -8 -12 -2 0 14 12 26 19 19 2 -3 -1 -11 -7 -17z"/>
<path d="M305 10 c-3 -5 -1 -10 4 -10 6 0 11 5 11 10 0 6 -2 10 -4 10 -3 0 -8
-4 -11 -10z"/>
<path d="M173 3 c9 -2 23 -2 30 0 6 3 -1 5 -18 5 -16 0 -22 -2 -12 -5z"/>
</g>
</svg>
