<?xml version="1.0" standalone="no"?>
<!DOCTYPE svg PUBLIC "-//W3C//DTD SVG 20010904//EN"
 "http://www.w3.org/TR/2001/REC-SVG-20010904/DTD/svg10.dtd">
<svg version="1.0" xmlns="http://www.w3.org/2000/svg"
 width="96.000000pt" height="84.000000pt" viewBox="0 0 96.000000 84.000000"
 preserveAspectRatio="xMidYMid meet">
<metadata>
Created by potrace 1.16, written by Peter Selinger 2001-2019
</metadata>
<g transform="translate(0.000000,84.000000) scale(0.100000,-0.100000)"
fill="#000000" stroke="none">
<path d="M0 420 l0 -420 45 0 c33 0 45 4 45 15 0 8 -4 15 -10 15 -5 0 -12 16
-16 36 -6 33 -3 40 48 92 83 86 98 112 98 171 0 39 -4 53 -19 60 -10 6 -21 8
-23 5 -3 -2 -19 11 -37 31 -27 31 -31 43 -31 93 1 131 97 232 222 232 94 0
168 -64 168 -147 0 -28 -41 -101 -78 -139 -31 -32 -39 -47 -35 -66 6 -30 -35
-68 -48 -46 -16 25 -17 1 -3 -52 8 -30 14 -93 14 -140 0 -47 3 -102 6 -122 l7
-38 303 0 304 0 0 420 0 420 -248 0 c-180 0 -251 -3 -260 -12 -9 -9 -12 -9
-12 0 0 9 -56 12 -220 12 l-220 0 0 -420z m825 400 c3 -6 -1 -7 -9 -4 -18 7
-21 14 -7 14 6 0 13 -4 16 -10z m25 -460 c-20 -13 -33 -13 -25 0 3 6 14 10 23
10 15 0 15 -2 2 -10z m-780 -234 c0 -2 -7 -9 -15 -16 -13 -11 -14 -10 -9 4 5
14 24 23 24 12z"/>
</g>
</svg>
