<?xml version="1.0" standalone="no"?>
<!DOCTYPE svg PUBLIC "-//W3C//DTD SVG 20010904//EN"
 "http://www.w3.org/TR/2001/REC-SVG-20010904/DTD/svg10.dtd">
<svg version="1.0" xmlns="http://www.w3.org/2000/svg"
 width="96.000000pt" height="84.000000pt" viewBox="0 0 96.000000 84.000000"
 preserveAspectRatio="xMidYMid meet">
<metadata>
Created by potrace 1.16, written by Peter Selinger 2001-2019
</metadata>
<g transform="translate(0.000000,84.000000) scale(0.100000,-0.100000)"
fill="#000000" stroke="none">
<path d="M0 420 l0 -420 40 0 c28 0 40 4 40 14 0 8 -4 18 -10 21 -5 3 -10 21
-10 38 0 26 10 43 51 82 92 89 109 119 109 191 l0 62 -35 12 c-49 16 -69 51
-68 115 2 67 38 141 93 188 106 91 287 46 307 -77 6 -39 -43 -155 -66 -156 -8
0 -26 -12 -41 -27 -24 -24 -26 -30 -16 -56 9 -24 8 -31 -8 -43 -26 -19 -43
-18 -50 4 -3 9 -3 -1 0 -23 3 -22 9 -107 13 -190 5 -82 9 -151 10 -152 0 -2
136 -3 301 -3 l300 0 0 420 0 420 -480 0 -480 0 0 -420z m907 -66 c-3 -3 -12
-4 -19 -1 -8 3 -5 6 6 6 11 1 17 -2 13 -5z"/>
</g>
</svg>
