<?xml version="1.0" standalone="no"?>
<!DOCTYPE svg PUBLIC "-//W3C//DTD SVG 20010904//EN"
 "http://www.w3.org/TR/2001/REC-SVG-20010904/DTD/svg10.dtd">
<svg version="1.0" xmlns="http://www.w3.org/2000/svg"
 width="96.000000pt" height="84.000000pt" viewBox="0 0 96.000000 84.000000"
 preserveAspectRatio="xMidYMid meet">
<metadata>
Created by potrace 1.16, written by Peter Selinger 2001-2019
</metadata>
<g transform="translate(0.000000,84.000000) scale(0.100000,-0.100000)"
fill="#000000" stroke="none">
<path d="M0 420 l0 -420 34 0 c33 0 34 1 27 27 -12 45 3 88 45 126 22 20 42
37 46 37 3 0 22 22 42 48 33 45 35 54 34 115 -1 47 -5 67 -14 67 -7 0 -29 15
-48 34 -32 30 -36 39 -36 83 0 63 48 163 96 199 42 32 98 53 145 54 52 0 137
-46 156 -85 21 -44 10 -114 -22 -150 -14 -14 -25 -30 -25 -35 0 -6 -17 -18
-37 -28 -28 -13 -37 -23 -35 -37 15 -87 15 -84 -13 -95 -36 -14 -43 -13 -49 8
-3 9 -3 -1 0 -23 3 -22 8 -109 11 -192 l5 -153 299 0 299 0 0 169 c0 153 -2
170 -17 174 -17 4 -17 5 0 6 16 1 17 20 17 246 l0 245 -480 0 -480 0 0 -420z
m530 376 c0 -3 -4 -8 -10 -11 -5 -3 -10 -1 -10 4 0 6 5 11 10 11 6 0 10 -2 10
-4z m340 -777 c0 -4 -7 -6 -15 -3 -8 4 -15 10 -15 15 0 4 7 6 15 3 8 -4 15
-10 15 -15z"/>
<path d="M377 443 c-11 -10 -8 -43 3 -43 5 0 9 11 8 25 -3 28 -2 27 -11 18z"/>
</g>
</svg>
