<?xml version="1.0" standalone="no"?>
<!DOCTYPE svg PUBLIC "-//W3C//DTD SVG 20010904//EN"
 "http://www.w3.org/TR/2001/REC-SVG-20010904/DTD/svg10.dtd">
<svg version="1.0" xmlns="http://www.w3.org/2000/svg"
 width="96.000000pt" height="84.000000pt" viewBox="0 0 96.000000 84.000000"
 preserveAspectRatio="xMidYMid meet">
<metadata>
Created by potrace 1.16, written by Peter Selinger 2001-2019
</metadata>
<g transform="translate(0.000000,84.000000) scale(0.100000,-0.100000)"
fill="#000000" stroke="none">
<path d="M0 525 c0 -238 3 -315 12 -315 9 0 9 -3 0 -12 -8 -8 -12 -46 -12
-105 l0 -93 78 1 c72 1 74 2 30 9 -63 11 -68 15 -61 53 9 49 18 62 73 102 95
70 146 165 109 202 -8 8 -8 13 0 17 6 4 11 16 11 27 0 13 -7 19 -24 19 -15 0
-34 12 -50 31 -53 62 -23 192 62 273 25 24 38 45 35 55 -4 12 -3 13 5 3 7 -11
18 -11 48 -3 80 22 152 6 207 -46 21 -21 27 -36 27 -68 0 -51 -33 -121 -60
-130 -11 -3 -20 -13 -20 -21 0 -8 -13 -23 -30 -32 -32 -18 -40 -42 -15 -42 16
0 20 -35 9 -65 -10 -25 -58 -47 -74 -32 -10 10 -11 2 -4 -38 4 -27 7 -100 5
-162 -4 -171 -40 -153 305 -153 162 0 294 3 294 6 0 4 -8 13 -17 20 -17 13
-17 13 0 14 16 0 17 26 17 400 l0 400 -480 0 -480 0 0 -315z m587 -41 c-3 -3
-12 -4 -19 -1 -8 3 -5 6 6 6 11 1 17 -2 13 -5z m68 -434 c3 -5 1 -10 -4 -10
-6 0 -11 5 -11 10 0 6 2 10 4 10 3 0 8 -4 11 -10z"/>
<path d="M375 451 c-7 -23 4 -53 18 -48 10 3 12 20 8 57 -2 17 -19 11 -26 -9z"/>
</g>
</svg>
