<?xml version="1.0" standalone="no"?>
<!DOCTYPE svg PUBLIC "-//W3C//DTD SVG 20010904//EN"
 "http://www.w3.org/TR/2001/REC-SVG-20010904/DTD/svg10.dtd">
<svg version="1.0" xmlns="http://www.w3.org/2000/svg"
 width="96.000000pt" height="84.000000pt" viewBox="0 0 96.000000 84.000000"
 preserveAspectRatio="xMidYMid meet">
<metadata>
Created by potrace 1.16, written by Peter Selinger 2001-2019
</metadata>
<g transform="translate(0.000000,84.000000) scale(0.100000,-0.100000)"
fill="#000000" stroke="none">
<path d="M0 420 l0 -420 98 1 c53 1 88 4 77 6 -11 3 -28 11 -38 18 -10 7 -27
11 -38 8 -10 -3 -30 2 -43 11 -23 14 -24 19 -14 48 15 46 24 55 99 105 88 57
104 82 104 161 1 52 -2 62 -17 62 -9 0 -20 5 -23 11 -4 6 -13 8 -21 5 -40 -15
-60 99 -33 182 15 46 64 118 89 132 12 6 17 17 14 28 -5 13 -4 14 4 4 8 -12
14 -11 39 1 74 39 157 29 219 -25 34 -30 35 -34 29 -75 -3 -24 -17 -60 -31
-80 -13 -20 -24 -40 -24 -44 0 -5 -10 -11 -23 -14 -12 -3 -30 -20 -40 -37 -17
-29 -17 -31 4 -62 11 -17 18 -23 15 -13 -3 9 -1 17 4 17 18 0 11 -56 -10 -77
-10 -12 -32 -24 -48 -28 -29 -6 -30 -7 -26 -68 2 -34 7 -110 10 -170 l6 -107
289 0 289 0 0 420 0 420 -480 0 -480 0 0 -420z m83 -165 c1 -5 -6 -11 -15 -13
-11 -2 -18 3 -18 13 0 17 30 18 33 0z m567 -235 c0 -5 -2 -10 -4 -10 -3 0 -8
5 -11 10 -3 6 -1 10 4 10 6 0 11 -4 11 -10z"/>
<path d="M375 438 c9 -52 12 -56 30 -37 19 19 6 73 -19 77 -16 3 -17 -1 -11
-40z"/>
</g>
</svg>
