<?xml version="1.0" standalone="no"?>
<!DOCTYPE svg PUBLIC "-//W3C//DTD SVG 20010904//EN"
 "http://www.w3.org/TR/2001/REC-SVG-20010904/DTD/svg10.dtd">
<svg version="1.0" xmlns="http://www.w3.org/2000/svg"
 width="96.000000pt" height="84.000000pt" viewBox="0 0 96.000000 84.000000"
 preserveAspectRatio="xMidYMid meet">
<metadata>
Created by potrace 1.16, written by Peter Selinger 2001-2019
</metadata>
<g transform="translate(0.000000,84.000000) scale(0.100000,-0.100000)"
fill="#000000" stroke="none">
<path d="M0 420 l0 -420 111 0 c71 0 108 4 104 10 -3 5 -17 10 -30 10 -13 0
-27 5 -30 10 -3 6 -21 10 -39 10 -19 0 -44 8 -56 18 -20 16 -21 21 -10 63 11
44 15 48 81 79 38 19 81 47 96 63 25 25 28 36 28 97 0 62 -2 70 -20 72 -11 2
-28 -1 -37 -6 -13 -8 -24 -5 -45 11 -26 19 -28 25 -27 90 1 188 178 329 334
267 49 -20 77 -65 62 -98 -5 -11 -14 -33 -21 -48 -6 -16 -16 -28 -23 -28 -7 0
-20 -15 -28 -33 -8 -17 -25 -37 -38 -43 -36 -18 -36 -19 8 -86 23 -34 39 -53
37 -40 -6 25 8 30 17 6 3 -9 6 -17 6 -19 0 -11 -49 -49 -78 -62 -28 -11 -32
-17 -26 -36 5 -12 8 -56 9 -97 1 -41 2 -105 3 -142 l2 -68 285 0 285 0 0 420
0 420 -480 0 -480 0 0 -420z m90 -121 c0 -5 -7 -9 -15 -9 -8 0 -15 7 -15 15 0
9 6 12 15 9 8 -4 15 -10 15 -15z"/>
<path d="M360 488 c0 -7 7 -21 15 -32 9 -11 12 -30 8 -48 -6 -28 -5 -30 16
-19 26 14 27 37 1 79 -20 32 -40 43 -40 20z"/>
</g>
</svg>
