<?xml version="1.0" standalone="no"?>
<!DOCTYPE svg PUBLIC "-//W3C//DTD SVG 20010904//EN"
 "http://www.w3.org/TR/2001/REC-SVG-20010904/DTD/svg10.dtd">
<svg version="1.0" xmlns="http://www.w3.org/2000/svg"
 width="96.000000pt" height="84.000000pt" viewBox="0 0 96.000000 84.000000"
 preserveAspectRatio="xMidYMid meet">
<metadata>
Created by potrace 1.16, written by Peter Selinger 2001-2019
</metadata>
<g transform="translate(0.000000,84.000000) scale(0.100000,-0.100000)"
fill="#000000" stroke="none">
<path d="M0 420 l0 -419 101 0 c90 0 99 2 83 14 -11 8 -29 15 -41 15 -12 0
-34 5 -48 12 -22 10 -25 16 -21 47 8 66 15 76 66 94 58 21 146 110 134 136
-10 20 -9 61 1 128 l8 52 -39 -19 c-21 -11 -42 -27 -47 -35 -4 -8 -19 -15 -32
-15 -13 0 -25 -6 -28 -12 -3 -10 -10 -8 -23 5 -15 14 -19 32 -18 85 0 67 22
130 71 205 15 24 16 30 4 50 -13 21 -13 22 6 4 19 -17 22 -16 67 9 62 35 148
42 196 17 30 -15 35 -22 32 -48 -2 -16 -10 -34 -18 -38 -8 -4 -14 -15 -14 -23
0 -8 -11 -26 -25 -39 -13 -14 -22 -25 -19 -25 3 0 -7 -20 -21 -45 l-26 -44 29
-43 c17 -24 39 -54 51 -67 12 -13 21 -28 21 -33 0 -4 5 -8 11 -8 7 0 9 10 4
28 -5 20 -4 24 5 16 16 -16 8 -59 -10 -59 -8 0 -27 -8 -42 -18 -24 -17 -26
-23 -23 -65 3 -26 7 -100 11 -164 l6 -118 274 0 274 0 0 420 0 420 -480 0
-480 0 0 -420z m680 340 c0 -5 -2 -10 -4 -10 -3 0 -8 5 -11 10 -3 6 -1 10 4
10 6 0 11 -4 11 -10z m-130 -60 c0 -5 -4 -10 -10 -10 -5 0 -10 5 -10 10 0 6 5
10 10 10 6 0 10 -4 10 -10z m-100 -682 c0 -13 -23 -5 -28 10 -2 7 2 10 12 6 9
-3 16 -11 16 -16z"/>
<path d="M397 416 c-4 -10 -5 -21 -2 -24 9 -9 17 6 13 25 -3 17 -4 17 -11 -1z"/>
</g>
</svg>
