<?xml version="1.0" standalone="no"?>
<!DOCTYPE svg PUBLIC "-//W3C//DTD SVG 20010904//EN"
 "http://www.w3.org/TR/2001/REC-SVG-20010904/DTD/svg10.dtd">
<svg version="1.0" xmlns="http://www.w3.org/2000/svg"
 width="96.000000pt" height="84.000000pt" viewBox="0 0 96.000000 84.000000"
 preserveAspectRatio="xMidYMid meet">
<metadata>
Created by potrace 1.16, written by Peter Selinger 2001-2019
</metadata>
<g transform="translate(0.000000,84.000000) scale(0.100000,-0.100000)"
fill="#000000" stroke="none">
<path d="M0 420 l0 -420 480 0 480 0 0 420 0 420 -480 0 -480 0 0 -420z m465
220 c-3 -5 -2 -10 4 -10 5 0 13 5 16 10 11 18 61 11 81 -11 19 -21 19 -22 -3
-15 -26 8 -33 -11 -8 -20 20 -8 45 -61 45 -95 0 -23 5 -29 33 -35 28 -6 30 -8
12 -15 -12 -6 5 -7 43 -3 59 6 64 4 87 -20 51 -55 16 -104 -57 -80 -20 7 -57
16 -82 19 -41 7 -46 5 -46 -12 0 -12 -7 -19 -20 -19 -13 0 -20 7 -20 18 0 14
-8 18 -34 18 -19 0 -36 5 -38 11 -2 5 -23 13 -46 16 -36 5 -41 3 -36 -10 5
-15 3 -15 -25 -1 -17 8 -40 13 -51 9 -11 -4 -20 -2 -20 4 0 6 -9 11 -20 11
-12 0 -20 7 -20 16 0 13 7 15 32 10 17 -3 62 -9 99 -12 67 -7 67 -6 81 22 16
33 13 61 -10 87 -12 14 -13 20 -3 30 9 9 13 7 17 -11 7 -23 24 -31 24 -9 0 6
-18 27 -39 45 -41 35 -45 62 -9 62 10 0 16 -4 13 -10z"/>
<path d="M550 511 c0 -6 5 -13 10 -16 6 -3 10 1 10 9 0 9 -4 16 -10 16 -5 0
-10 -4 -10 -9z"/>
<path d="M491 454 c-15 -34 -9 -40 14 -14 12 14 15 24 8 31 -6 6 -14 1 -22
-17z"/>
</g>
</svg>
