<?xml version="1.0" standalone="no"?>
<!DOCTYPE svg PUBLIC "-//W3C//DTD SVG 20010904//EN"
 "http://www.w3.org/TR/2001/REC-SVG-20010904/DTD/svg10.dtd">
<svg version="1.0" xmlns="http://www.w3.org/2000/svg"
 width="96.000000pt" height="84.000000pt" viewBox="0 0 96.000000 84.000000"
 preserveAspectRatio="xMidYMid meet">
<metadata>
Created by potrace 1.16, written by Peter Selinger 2001-2019
</metadata>
<g transform="translate(0.000000,84.000000) scale(0.100000,-0.100000)"
fill="#000000" stroke="none">
<path d="M0 420 l0 -420 110 0 c106 0 143 12 83 26 -16 4 -32 10 -38 14 -5 5
-27 8 -48 8 -21 0 -40 2 -42 3 -2 2 6 24 18 49 16 32 34 50 67 67 103 54 165
152 117 184 -5 4 -5 14 1 25 6 11 14 43 20 71 9 50 8 52 -20 73 l-29 21 -10
-31 c-8 -22 -19 -33 -39 -37 -19 -3 -30 -13 -35 -30 -4 -19 -11 -24 -25 -20
-14 4 -20 0 -20 -11 -1 -15 -3 -14 -15 2 -34 45 -12 184 42 269 25 39 25 41 8
71 l-16 31 21 -24 c21 -24 22 -24 48 -7 90 58 183 68 244 26 38 -25 42 -48 6
-29 -12 7 -18 7 -14 1 10 -16 -5 -42 -24 -42 -20 0 -34 -49 -19 -64 14 -15 11
-52 -6 -66 -8 -7 -15 -19 -15 -26 0 -8 -7 -14 -15 -14 -20 0 -19 -7 6 -33 11
-12 28 -35 36 -52 9 -16 29 -43 46 -60 l30 -30 -7 33 c-3 21 -2 31 4 27 17
-10 12 -65 -5 -65 -9 0 -27 -7 -40 -16 -22 -15 -24 -21 -20 -72 3 -32 8 -105
11 -164 l6 -108 269 0 269 0 0 420 0 420 -270 0 c-203 0 -270 -3 -270 -12 0
-9 -3 -9 -12 0 -9 9 -69 12 -210 12 l-198 0 0 -420z m647 364 c-3 -3 -12 -4
-19 -1 -8 3 -5 6 6 6 11 1 17 -2 13 -5z m-150 -220 c-3 -3 -12 -4 -19 -1 -8 3
-5 6 6 6 11 1 17 -2 13 -5z m439 -271 c-7 -7 -26 7 -26 19 0 6 6 6 15 -2 9 -7
13 -15 11 -17z m-236 -83 c0 -5 -5 -10 -11 -10 -5 0 -7 5 -4 10 3 6 8 10 11
10 2 0 4 -4 4 -10z m220 -74 c0 -2 -7 -7 -16 -10 -8 -3 -12 -2 -9 4 6 10 25
14 25 6z m-420 -47 c0 -6 -4 -7 -10 -4 -5 3 -10 11 -10 16 0 6 5 7 10 4 6 -3
10 -11 10 -16z"/>
</g>
</svg>
