<?xml version="1.0" standalone="no"?>
<!DOCTYPE svg PUBLIC "-//W3C//DTD SVG 20010904//EN"
 "http://www.w3.org/TR/2001/REC-SVG-20010904/DTD/svg10.dtd">
<svg version="1.0" xmlns="http://www.w3.org/2000/svg"
 width="96.000000pt" height="84.000000pt" viewBox="0 0 96.000000 84.000000"
 preserveAspectRatio="xMidYMid meet">
<metadata>
Created by potrace 1.16, written by Peter Selinger 2001-2019
</metadata>
<g transform="translate(0.000000,84.000000) scale(0.100000,-0.100000)"
fill="#000000" stroke="none">
<path d="M0 420 l0 -420 115 0 c63 0 115 3 115 8 0 7 -50 32 -132 66 -21 8
-38 17 -38 19 0 2 7 18 16 36 12 23 33 39 87 64 43 20 85 48 104 71 35 40 38
48 24 75 -6 11 -6 42 2 84 l11 67 -30 31 c-35 35 -58 31 -73 -12 -6 -16 -21
-33 -35 -39 -15 -5 -26 -15 -26 -23 0 -7 -10 -21 -21 -31 -30 -25 -39 -8 -39
76 0 70 24 148 60 197 16 23 17 27 2 51 l-16 25 22 -19 c20 -17 24 -18 40 -4
66 59 201 84 239 45 17 -17 17 -19 1 -28 -10 -6 -18 -16 -18 -23 0 -7 -11 -18
-25 -24 -31 -14 -31 -25 0 -56 28 -28 33 -64 10 -72 -8 -4 -15 -12 -15 -20 0
-7 -8 -17 -17 -22 -15 -9 -13 -14 15 -46 18 -20 32 -44 32 -52 0 -20 58 -75
66 -63 3 6 0 16 -6 24 -9 11 -9 15 -1 15 17 0 26 -30 14 -49 -6 -9 -17 -15
-23 -13 -7 2 -21 -5 -31 -14 -15 -13 -17 -27 -13 -87 4 -66 11 -181 13 -234
l1 -23 264 0 264 0 1 420 2 420 -481 0 -480 0 0 -420z m600 380 c0 -5 -4 -10
-10 -10 -5 0 -10 5 -10 10 0 6 5 10 10 10 6 0 10 -4 10 -10z m-380 -420 c0 -5
-4 -10 -10 -10 -5 0 -10 5 -10 10 0 6 5 10 10 10 6 0 10 -4 10 -10z m620 -41
c0 -5 -4 -9 -10 -9 -5 0 -10 7 -10 16 0 8 5 12 10 9 6 -3 10 -10 10 -16z
m-180 -78 c0 -6 -4 -13 -10 -16 -5 -3 -10 1 -10 9 0 9 5 16 10 16 6 0 10 -4
10 -9z m-605 -141 c-3 -5 -11 -10 -16 -10 -6 0 -7 5 -4 10 3 6 11 10 16 10 6
0 7 -4 4 -10z"/>
</g>
</svg>
