<?xml version="1.0" standalone="no"?>
<!DOCTYPE svg PUBLIC "-//W3C//DTD SVG 20010904//EN"
 "http://www.w3.org/TR/2001/REC-SVG-20010904/DTD/svg10.dtd">
<svg version="1.0" xmlns="http://www.w3.org/2000/svg"
 width="96.000000pt" height="84.000000pt" viewBox="0 0 96.000000 84.000000"
 preserveAspectRatio="xMidYMid meet">
<metadata>
Created by potrace 1.16, written by Peter Selinger 2001-2019
</metadata>
<g transform="translate(0.000000,84.000000) scale(0.100000,-0.100000)"
fill="#000000" stroke="none">
<path d="M0 508 c0 -331 0 -331 20 -313 30 27 34 12 5 -15 -23 -21 -25 -31
-25 -102 l0 -78 113 0 c103 1 110 2 81 14 -18 8 -35 19 -38 25 -4 6 -15 11
-25 11 -10 0 -25 8 -34 18 -16 17 -16 21 3 59 15 32 28 44 57 53 52 17 57 21
42 32 -10 7 -8 8 7 3 15 -4 29 3 49 22 49 49 56 66 44 101 -7 21 -7 42 0 69
18 63 14 89 -19 122 -29 28 -31 29 -40 10 -6 -10 -17 -19 -24 -19 -8 0 -17
-11 -20 -25 -4 -14 -13 -25 -21 -25 -9 0 -19 -10 -24 -22 -5 -13 -18 -31 -29
-41 -20 -19 -21 -18 -32 24 -17 61 -4 138 34 214 30 60 32 67 18 88 l-16 22
22 -19 c22 -19 23 -19 45 1 56 51 163 79 221 57 28 -11 23 -22 -41 -88 l-22
-23 29 -22 c17 -12 30 -30 30 -40 0 -28 -30 -81 -46 -81 -20 0 -18 -4 21 -47
19 -21 35 -45 35 -53 1 -19 58 -76 67 -66 4 4 1 16 -6 28 -10 17 -10 19 1 16
18 -6 23 -58 6 -59 -28 -3 -34 -5 -54 -19 -21 -14 -21 -20 -13 -95 4 -44 8
-117 8 -162 l1 -83 265 0 265 0 0 420 0 420 -335 0 c-293 0 -334 -2 -329 -15
4 -8 1 -15 -5 -15 -7 0 -14 7 -17 15 -5 12 -30 15 -140 15 l-134 0 0 -332z
m895 12 c-3 -5 -10 -10 -16 -10 -5 0 -9 5 -9 10 0 6 7 10 16 10 8 0 12 -4 9
-10z m-298 -232 c-3 -8 -6 -5 -6 6 -1 11 2 17 5 13 3 -3 4 -12 1 -19z m288 -8
c3 -5 1 -10 -4 -10 -6 0 -11 5 -11 10 0 6 2 10 4 10 3 0 8 -4 11 -10z m-268
-216 c-3 -3 -12 -4 -19 -1 -8 3 -5 6 6 6 11 1 17 -2 13 -5z m283 -20 c0 -8 -4
-12 -10 -9 -5 3 -10 10 -10 16 0 5 5 9 10 9 6 0 10 -7 10 -16z"/>
</g>
</svg>
