<?xml version="1.0" standalone="no"?>
<!DOCTYPE svg PUBLIC "-//W3C//DTD SVG 20010904//EN"
 "http://www.w3.org/TR/2001/REC-SVG-20010904/DTD/svg10.dtd">
<svg version="1.0" xmlns="http://www.w3.org/2000/svg"
 width="96.000000pt" height="84.000000pt" viewBox="0 0 96.000000 84.000000"
 preserveAspectRatio="xMidYMid meet">
<metadata>
Created by potrace 1.16, written by Peter Selinger 2001-2019
</metadata>
<g transform="translate(0.000000,84.000000) scale(0.100000,-0.100000)"
fill="#000000" stroke="none">
<path d="M0 420 l0 -420 110 0 c61 0 110 2 110 6 0 3 -13 10 -30 15 -16 6 -30
15 -30 20 0 5 -8 9 -18 9 -11 0 -27 9 -37 20 -16 18 -17 21 -1 54 13 27 30 41
75 61 32 15 74 42 92 61 31 32 34 41 35 97 0 34 3 85 7 112 7 46 6 51 -18 68
-24 17 -26 17 -54 -4 -16 -12 -32 -30 -34 -40 -3 -11 -12 -19 -21 -19 -9 0
-16 -6 -16 -13 0 -7 -12 -24 -26 -36 -38 -33 -49 -15 -48 77 1 56 7 90 22 125
12 27 20 53 16 58 -3 5 2 9 10 9 18 0 22 25 6 35 -5 3 -10 12 -10 18 0 7 7 4
15 -7 14 -18 15 -18 47 9 64 54 158 80 212 59 20 -8 21 -40 1 -48 -8 -3 -15
-14 -15 -25 0 -11 -9 -21 -22 -25 l-23 -6 27 -22 c34 -29 45 -70 24 -87 -9 -8
-16 -20 -16 -27 0 -8 -7 -14 -15 -14 -22 0 -19 -8 20 -51 19 -22 35 -44 35
-50 0 -11 57 -69 67 -69 3 0 3 14 0 30 -7 34 -2 39 13 11 14 -26 2 -51 -24
-51 -11 -1 -31 -9 -43 -19 -22 -18 -22 -20 -13 -177 5 -88 10 -160 10 -161 0
-2 117 -3 260 -3 l260 0 0 420 0 420 -223 0 c-165 0 -227 -3 -236 -12 -11 -10
-13 -10 -7 0 6 9 -46 12 -243 12 l-251 0 0 -420z m525 220 c3 -5 1 -10 -4 -10
-6 0 -11 5 -11 10 0 6 2 10 4 10 3 0 8 -4 11 -10z m280 -90 c3 -6 -4 -10 -17
-10 -18 0 -20 2 -8 10 19 12 18 12 25 0z m42 -26 c-3 -3 -12 -4 -19 -1 -8 3
-5 6 6 6 11 1 17 -2 13 -5z m-207 -154 c0 -5 -5 -10 -11 -10 -5 0 -7 5 -4 10
3 6 8 10 11 10 2 0 4 -4 4 -10z m-580 -10 c0 -5 -5 -10 -11 -10 -5 0 -7 5 -4
10 3 6 8 10 11 10 2 0 4 -4 4 -10z m472 -52 c-7 -7 -12 -8 -12 -2 0 14 12 26
19 19 2 -3 -1 -11 -7 -17z m15 -134 c-3 -3 -12 -4 -19 -1 -8 3 -5 6 6 6 11 1
17 -2 13 -5z m353 -65 c0 -6 -4 -7 -10 -4 -5 3 -10 11 -10 16 0 6 5 7 10 4 6
-3 10 -11 10 -16z m-34 -16 c-7 -7 -26 7 -26 19 0 6 6 6 15 -2 9 -7 13 -15 11
-17z"/>
<path d="M421 394 c0 -11 3 -14 6 -6 3 7 2 16 -1 19 -3 4 -6 -2 -5 -13z"/>
</g>
</svg>
