<?xml version="1.0" standalone="no"?>
<!DOCTYPE svg PUBLIC "-//W3C//DTD SVG 20010904//EN"
 "http://www.w3.org/TR/2001/REC-SVG-20010904/DTD/svg10.dtd">
<svg version="1.0" xmlns="http://www.w3.org/2000/svg"
 width="96.000000pt" height="84.000000pt" viewBox="0 0 96.000000 84.000000"
 preserveAspectRatio="xMidYMid meet">
<metadata>
Created by potrace 1.16, written by Peter Selinger 2001-2019
</metadata>
<g transform="translate(0.000000,84.000000) scale(0.100000,-0.100000)"
fill="#000000" stroke="none">
<path d="M0 420 l0 -420 111 0 c129 0 136 9 42 55 l-61 30 18 35 c14 27 31 41
74 59 66 27 152 114 139 140 -4 9 -6 55 -5 102 3 67 0 88 -12 98 -12 10 -20 9
-40 -6 -14 -10 -26 -24 -26 -30 0 -7 -11 -20 -25 -29 -14 -9 -25 -23 -25 -30
0 -8 -7 -14 -15 -14 -7 0 -18 -8 -24 -17 -8 -15 -12 -16 -23 -5 -9 9 -13 41
-13 95 0 69 4 92 29 144 23 52 26 65 16 78 -8 9 -8 15 -2 15 6 0 14 -5 17 -10
4 -6 21 2 43 21 64 57 137 80 200 63 12 -4 22 -12 22 -19 0 -20 -31 -76 -46
-82 -18 -7 -18 -23 -1 -23 8 0 19 -16 24 -35 9 -28 8 -38 -3 -49 -8 -8 -14
-22 -14 -30 0 -9 -7 -16 -15 -16 -23 0 -18 -13 15 -45 16 -16 30 -34 30 -40 0
-19 77 -88 85 -75 11 17 -2 40 -20 34 -8 -3 -15 -1 -15 6 0 6 10 10 23 8 17
-2 22 -10 22 -32 0 -24 -5 -31 -29 -37 -48 -13 -66 -36 -61 -82 2 -23 7 -94
11 -159 l7 -118 253 0 254 0 0 420 0 420 -480 0 -480 0 0 -420z m445 390 c3
-5 1 -10 -4 -10 -6 0 -11 5 -11 10 0 6 2 10 4 10 3 0 8 -4 11 -10z m240 -230
c-3 -5 -13 -10 -21 -10 -8 0 -12 5 -9 10 3 6 13 10 21 10 8 0 12 -4 9 -10z
m150 -370 c3 -5 2 -10 -4 -10 -5 0 -13 5 -16 10 -3 6 -2 10 4 10 5 0 13 -4 16
-10z m-15 -31 c0 -6 -4 -7 -10 -4 -5 3 -10 11 -10 16 0 6 5 7 10 4 6 -3 10
-11 10 -16z"/>
<path d="M430 400 c0 -19 3 -21 12 -12 9 9 9 15 0 24 -9 9 -12 7 -12 -12z"/>
</g>
</svg>
