<?xml version="1.0" standalone="no"?>
<!DOCTYPE svg PUBLIC "-//W3C//DTD SVG 20010904//EN"
 "http://www.w3.org/TR/2001/REC-SVG-20010904/DTD/svg10.dtd">
<svg version="1.0" xmlns="http://www.w3.org/2000/svg"
 width="96.000000pt" height="84.000000pt" viewBox="0 0 96.000000 84.000000"
 preserveAspectRatio="xMidYMid meet">
<metadata>
Created by potrace 1.16, written by Peter Selinger 2001-2019
</metadata>
<g transform="translate(0.000000,84.000000) scale(0.100000,-0.100000)"
fill="#000000" stroke="none">
<path d="M0 420 l0 -420 128 0 127 1 -50 24 c-27 14 -56 25 -62 25 -7 0 -18 9
-25 20 -7 11 -19 20 -28 20 -25 0 20 34 65 50 64 21 110 57 149 116 30 44 35
58 26 74 -7 12 -8 50 -4 100 6 67 4 80 -9 86 -19 7 -67 -23 -67 -42 0 -7 -11
-21 -25 -30 -14 -9 -25 -23 -25 -30 0 -8 -6 -14 -14 -14 -8 0 -16 -5 -18 -12
-9 -27 -37 3 -44 47 -9 64 1 127 32 196 23 51 25 61 13 76 -13 16 -12 17 3 4
16 -12 22 -9 53 18 62 54 129 78 184 66 32 -7 49 -42 25 -52 -8 -3 -12 -9 -9
-13 8 -13 -6 -40 -21 -40 -19 0 -18 -7 6 -37 11 -14 20 -32 20 -40 0 -16 -30
-65 -46 -76 -13 -8 16 -46 94 -124 33 -33 44 -39 48 -28 4 8 1 22 -6 30 -8 10
-9 15 -2 15 6 0 16 -8 21 -18 11 -21 -3 -52 -24 -52 -26 0 -75 -35 -75 -53 0
-30 21 -260 26 -284 4 -22 9 -23 84 -23 56 0 80 4 80 12 0 9 3 9 12 0 8 -8 59
-12 165 -12 l153 0 0 420 0 420 -480 0 -480 0 0 -420z m897 228 c-3 -8 -6 -5
-6 6 -1 11 2 17 5 13 3 -3 4 -12 1 -19z m-817 -28 c0 -5 -5 -10 -11 -10 -5 0
-7 5 -4 10 3 6 8 10 11 10 2 0 4 -4 4 -10z m515 -20 c-3 -5 -11 -10 -16 -10
-6 0 -7 5 -4 10 3 6 11 10 16 10 6 0 7 -4 4 -10z m322 -86 c-3 -3 -12 -4 -19
-1 -8 3 -5 6 6 6 11 1 17 -2 13 -5z m-786 -307 c-6 -8 -8 -16 -6 -19 3 -3 -6
-3 -20 -1 -41 8 -28 30 19 32 14 1 16 -2 7 -12z"/>
<path d="M440 400 c0 -19 3 -21 12 -12 9 9 9 15 0 24 -9 9 -12 7 -12 -12z"/>
</g>
</svg>
