<?xml version="1.0" standalone="no"?>
<!DOCTYPE svg PUBLIC "-//W3C//DTD SVG 20010904//EN"
 "http://www.w3.org/TR/2001/REC-SVG-20010904/DTD/svg10.dtd">
<svg version="1.0" xmlns="http://www.w3.org/2000/svg"
 width="96.000000pt" height="84.000000pt" viewBox="0 0 96.000000 84.000000"
 preserveAspectRatio="xMidYMid meet">
<metadata>
Created by potrace 1.16, written by Peter Selinger 2001-2019
</metadata>
<g transform="translate(0.000000,84.000000) scale(0.100000,-0.100000)"
fill="#000000" stroke="none">
<path d="M0 520 c1 -176 2 -320 4 -320 2 0 16 7 32 15 15 8 30 12 32 10 9 -8
-19 -33 -43 -39 -24 -6 -25 -9 -25 -96 l0 -90 111 0 c119 0 128 6 54 39 -41
18 -60 41 -35 41 6 0 14 9 18 20 4 11 32 34 62 52 72 44 147 146 130 178 -8
14 -9 47 -5 95 8 78 1 92 -36 80 -15 -5 -18 -10 -10 -18 18 -18 13 -29 -8 -18
-15 9 -20 7 -24 -9 -3 -11 -12 -20 -21 -20 -9 0 -16 -6 -16 -12 0 -7 -14 -26
-30 -42 l-30 -29 -16 39 c-23 55 -15 154 20 229 25 56 26 59 9 79 -17 20 -17
20 1 4 17 -15 21 -14 71 27 82 66 205 84 205 29 0 -13 -4 -24 -10 -24 -5 0
-10 -9 -10 -20 0 -10 -8 -23 -17 -29 -17 -9 -16 -11 1 -30 21 -23 26 -83 8
-89 -7 -2 -12 -10 -12 -17 0 -7 -7 -16 -15 -19 -17 -6 -1 -27 92 -124 34 -35
44 -41 49 -28 3 9 0 24 -7 33 -12 14 -12 16 1 11 23 -7 25 -57 3 -64 -10 -3
-33 -13 -52 -22 l-33 -17 6 -95 c4 -52 9 -125 13 -162 l6 -68 243 0 244 0 0
299 c-1 225 -4 301 -13 305 -9 3 -9 5 1 5 9 1 12 31 12 116 l0 115 -480 0
-480 0 0 -320z m890 50 c0 -5 -5 -10 -11 -10 -5 0 -7 5 -4 10 3 6 8 10 11 10
2 0 4 -4 4 -10z m-150 -44 c0 -3 -4 -8 -10 -11 -5 -3 -10 -1 -10 4 0 6 5 11
10 11 6 0 10 -2 10 -4z m97 -2 c-3 -3 -12 -4 -19 -1 -8 3 -5 6 6 6 11 1 17 -2
13 -5z m-527 -174 c0 -5 -5 -10 -11 -10 -5 0 -7 5 -4 10 3 6 8 10 11 10 2 0 4
-4 4 -10z"/>
<path d="M446 404 c-8 -22 1 -31 16 -16 9 9 9 15 1 23 -7 7 -12 5 -17 -7z"/>
</g>
</svg>
