<?xml version="1.0" standalone="no"?>
<!DOCTYPE svg PUBLIC "-//W3C//DTD SVG 20010904//EN"
 "http://www.w3.org/TR/2001/REC-SVG-20010904/DTD/svg10.dtd">
<svg version="1.0" xmlns="http://www.w3.org/2000/svg"
 width="96.000000pt" height="84.000000pt" viewBox="0 0 96.000000 84.000000"
 preserveAspectRatio="xMidYMid meet">
<metadata>
Created by potrace 1.16, written by Peter Selinger 2001-2019
</metadata>
<g transform="translate(0.000000,84.000000) scale(0.100000,-0.100000)"
fill="#000000" stroke="none">
<path d="M0 420 l0 -420 113 0 c101 1 110 2 93 15 -11 8 -24 15 -30 15 -5 0
-17 7 -27 16 -15 14 -16 18 -2 46 9 16 31 39 49 50 19 11 31 25 27 31 -4 6 0
8 10 4 19 -7 69 39 94 87 22 41 26 233 6 240 -21 9 -63 -15 -63 -36 0 -10 -7
-21 -16 -25 -8 -3 -20 -16 -25 -29 -4 -13 -15 -24 -24 -24 -8 0 -15 -4 -15
-10 0 -5 -6 -10 -13 -10 -46 0 -49 155 -5 252 24 52 25 57 9 73 -15 16 -15 16
4 5 18 -10 25 -7 57 22 50 48 97 68 156 68 41 0 51 -3 55 -20 3 -11 1 -23 -4
-26 -5 -3 -9 -14 -9 -25 0 -11 -7 -22 -15 -25 -16 -6 -21 -34 -7 -34 5 0 14
-12 21 -26 9 -21 8 -31 -6 -57 -10 -18 -24 -36 -31 -41 -11 -6 -8 -14 13 -36
15 -16 34 -26 41 -23 8 3 14 1 14 -5 0 -6 -5 -12 -12 -14 -6 -2 10 -21 36 -42
47 -40 71 -42 47 -4 -10 17 -10 19 1 16 22 -8 16 -61 -7 -68 -11 -3 -34 -13
-50 -22 l-31 -16 7 -74 c4 -40 8 -112 8 -160 l1 -86 245 -1 245 -2 0 421 0
420 -480 0 -480 0 0 -420z m950 -269 c0 -12 -20 -25 -27 -18 -7 7 6 27 18 27
5 0 9 -4 9 -9z m-455 -11 c3 -5 1 -10 -4 -10 -6 0 -11 5 -11 10 0 6 2 10 4 10
3 0 8 -4 11 -10z"/>
<path d="M454 406 c-4 -9 -4 -20 0 -23 3 -4 12 -1 18 5 9 9 9 15 0 24 -9 9
-13 7 -18 -6z"/>
</g>
</svg>
