<?xml version="1.0" standalone="no"?>
<!DOCTYPE svg PUBLIC "-//W3C//DTD SVG 20010904//EN"
 "http://www.w3.org/TR/2001/REC-SVG-20010904/DTD/svg10.dtd">
<svg version="1.0" xmlns="http://www.w3.org/2000/svg"
 width="96.000000pt" height="84.000000pt" viewBox="0 0 96.000000 84.000000"
 preserveAspectRatio="xMidYMid meet">
<metadata>
Created by potrace 1.16, written by Peter Selinger 2001-2019
</metadata>
<g transform="translate(0.000000,84.000000) scale(0.100000,-0.100000)"
fill="#000000" stroke="none">
<path d="M0 420 l0 -420 111 0 c84 0 110 3 107 13 -3 6 -13 14 -24 15 -10 2
-29 13 -41 24 -20 19 -20 21 -5 49 10 15 37 40 62 53 56 31 89 60 125 110 25
34 27 42 17 68 -6 16 -9 35 -7 41 2 7 6 38 9 69 5 50 4 57 -13 63 -26 8 -58
-13 -66 -42 -3 -12 -14 -27 -25 -33 -11 -6 -20 -17 -20 -25 0 -8 -7 -15 -15
-15 -8 0 -15 -7 -15 -16 0 -22 -22 -12 -38 17 -20 37 -10 163 18 227 22 52 22
53 4 75 -19 22 -19 22 2 4 20 -17 22 -16 63 22 57 53 99 71 160 71 48 0 51 -2
51 -25 0 -14 -4 -25 -10 -25 -5 0 -10 -9 -10 -20 0 -10 -8 -23 -17 -28 -15 -9
-14 -13 10 -42 31 -36 32 -43 12 -64 -8 -8 -15 -21 -15 -29 0 -8 -7 -18 -16
-21 -12 -5 -10 -12 15 -38 17 -18 33 -40 36 -48 7 -19 85 -73 93 -65 4 3 0 15
-7 27 -10 17 -10 19 1 16 21 -7 22 -57 1 -64 -10 -4 -34 -14 -55 -23 -35 -15
-36 -17 -32 -61 10 -119 13 -170 14 -222 l0 -58 240 0 240 0 0 420 0 420 -480
0 -480 0 0 -420z m795 250 c3 -5 1 -10 -4 -10 -6 0 -11 5 -11 10 0 6 2 10 4
10 3 0 8 -4 11 -10z m-95 -115 c0 -8 -4 -15 -10 -15 -5 0 -10 7 -10 15 0 8 5
15 10 15 6 0 10 -7 10 -15z m-585 -15 c3 -5 -1 -10 -9 -10 -9 0 -16 5 -16 10
0 6 4 10 9 10 6 0 13 -4 16 -10z m85 -300 c0 -5 -2 -10 -4 -10 -3 0 -8 5 -11
10 -3 6 -1 10 4 10 6 0 11 -4 11 -10z m635 -100 c-3 -5 -13 -10 -21 -10 -8 0
-14 5 -14 10 0 6 9 10 21 10 11 0 17 -4 14 -10z"/>
<path d="M464 406 c-4 -9 -4 -20 0 -23 3 -4 12 -1 18 5 9 9 9 15 0 24 -9 9
-13 7 -18 -6z"/>
</g>
</svg>
