<?xml version="1.0" standalone="no"?>
<!DOCTYPE svg PUBLIC "-//W3C//DTD SVG 20010904//EN"
 "http://www.w3.org/TR/2001/REC-SVG-20010904/DTD/svg10.dtd">
<svg version="1.0" xmlns="http://www.w3.org/2000/svg"
 width="96.000000pt" height="84.000000pt" viewBox="0 0 96.000000 84.000000"
 preserveAspectRatio="xMidYMid meet">
<metadata>
Created by potrace 1.16, written by Peter Selinger 2001-2019
</metadata>
<g transform="translate(0.000000,84.000000) scale(0.100000,-0.100000)"
fill="#000000" stroke="none">
<path d="M0 420 l0 -420 133 1 c72 1 123 4 112 6 -11 3 -24 11 -28 19 -4 8
-16 14 -26 14 -10 0 -25 8 -34 18 -27 30 4 84 67 118 58 32 133 97 141 125 3
10 2 27 -4 37 -6 12 -7 46 -3 90 7 65 6 71 -11 76 -23 6 -55 -13 -63 -36 -3
-10 -14 -23 -25 -28 -10 -6 -19 -16 -19 -23 0 -18 -40 -49 -55 -43 -17 6 -29
82 -23 145 3 26 16 72 30 103 24 52 25 57 9 74 -15 17 -15 17 1 5 15 -11 24
-7 65 27 59 50 90 62 154 62 46 0 49 -2 49 -25 0 -14 -4 -25 -10 -25 -5 0 -10
-9 -10 -20 0 -10 -8 -23 -17 -29 -17 -9 -16 -11 5 -33 23 -25 29 -62 12 -73
-5 -3 -10 -15 -10 -26 0 -10 -7 -19 -15 -19 -23 0 -18 -13 15 -45 17 -16 30
-34 30 -41 0 -7 15 -23 33 -35 17 -13 37 -30 44 -39 10 -13 12 -13 18 3 4 10
1 25 -6 34 -12 14 -12 16 1 11 9 -3 15 -17 15 -34 0 -24 -5 -30 -27 -32 -14
-2 -32 -10 -38 -18 -7 -8 -19 -14 -26 -14 -15 0 -15 6 2 -243 l6 -87 234 0
234 0 0 420 0 420 -480 0 -480 0 0 -420z m877 248 c-3 -7 -5 -2 -5 12 0 14 2
19 5 13 2 -7 2 -19 0 -25z m-707 -38 c0 -5 -4 -10 -10 -10 -5 0 -10 5 -10 10
0 6 5 10 10 10 6 0 10 -4 10 -10z m-135 -60 c3 -5 -1 -10 -9 -10 -9 0 -16 5
-16 10 0 6 4 10 9 10 6 0 13 -4 16 -10z m585 -10 c0 -5 -2 -10 -4 -10 -3 0 -8
5 -11 10 -3 6 -1 10 4 10 6 0 11 -4 11 -10z m100 -420 c0 -5 -7 -10 -15 -10
-8 0 -15 5 -15 10 0 6 7 10 15 10 8 0 15 -4 15 -10z"/>
<path d="M470 400 c0 -13 5 -20 13 -17 6 2 12 10 12 17 0 7 -6 15 -12 18 -8 2
-13 -5 -13 -18z"/>
</g>
</svg>
