<?xml version="1.0" standalone="no"?>
<!DOCTYPE svg PUBLIC "-//W3C//DTD SVG 20010904//EN"
 "http://www.w3.org/TR/2001/REC-SVG-20010904/DTD/svg10.dtd">
<svg version="1.0" xmlns="http://www.w3.org/2000/svg"
 width="96.000000pt" height="84.000000pt" viewBox="0 0 96.000000 84.000000"
 preserveAspectRatio="xMidYMid meet">
<metadata>
Created by potrace 1.16, written by Peter Selinger 2001-2019
</metadata>
<g transform="translate(0.000000,84.000000) scale(0.100000,-0.100000)"
fill="#000000" stroke="none">
<path d="M0 420 l0 -420 480 0 480 0 0 420 0 420 -480 0 -480 0 0 -420z m465
220 c-3 -5 -2 -10 4 -10 5 0 13 5 16 10 11 17 51 11 70 -10 15 -17 16 -20 3
-15 -9 4 -19 2 -23 -4 -3 -6 -2 -11 4 -11 6 0 21 -12 35 -26 19 -21 23 -34 19
-60 -5 -33 -5 -34 28 -34 26 0 30 -3 19 -10 -11 -7 1 -10 42 -10 49 0 59 -3
77 -26 27 -34 26 -38 -4 -58 -25 -16 -33 -15 -152 20 -18 5 -23 2 -23 -13 0
-11 -7 -20 -15 -20 -8 0 -15 6 -15 14 0 13 -11 17 -43 14 -9 -1 -24 5 -33 13
-17 18 -64 22 -64 5 0 -6 -9 -8 -20 -4 -11 4 -30 8 -43 9 -29 4 -77 24 -77 32
0 3 42 3 94 -1 l94 -7 15 28 c15 30 9 65 -12 79 -6 3 -9 11 -6 16 9 14 25 11
25 -6 0 -8 5 -15 10 -15 18 0 10 16 -24 49 -34 33 -38 61 -9 61 8 0 11 -4 8
-10z"/>
<path d="M550 515 c0 -8 2 -15 4 -15 2 0 6 7 10 15 3 8 1 15 -4 15 -6 0 -10
-7 -10 -15z"/>
<path d="M491 468 c-17 -27 -9 -33 13 -9 10 10 13 21 9 24 -5 3 -15 -3 -22
-15z"/>
</g>
</svg>
