<?xml version="1.0" standalone="no"?>
<!DOCTYPE svg PUBLIC "-//W3C//DTD SVG 20010904//EN"
 "http://www.w3.org/TR/2001/REC-SVG-20010904/DTD/svg10.dtd">
<svg version="1.0" xmlns="http://www.w3.org/2000/svg"
 width="96.000000pt" height="84.000000pt" viewBox="0 0 96.000000 84.000000"
 preserveAspectRatio="xMidYMid meet">
<metadata>
Created by potrace 1.16, written by Peter Selinger 2001-2019
</metadata>
<g transform="translate(0.000000,84.000000) scale(0.100000,-0.100000)"
fill="#000000" stroke="none">
<path d="M0 420 l0 -420 130 0 c126 0 130 1 120 19 -5 11 -31 30 -57 43 -26
13 -49 31 -51 40 -5 27 43 72 100 93 69 26 143 97 133 128 -8 23 -9 38 -5 126
1 33 -3 56 -10 61 -19 12 -52 -1 -58 -22 -2 -11 -15 -24 -28 -29 -13 -4 -24
-15 -24 -24 0 -8 -9 -15 -20 -15 -11 0 -20 -4 -20 -10 0 -27 -21 -5 -30 32
-15 55 -5 120 30 193 49 101 134 165 222 165 25 0 53 -3 62 -6 17 -7 22 -54 6
-54 -5 0 -10 -7 -10 -15 0 -8 -10 -23 -21 -34 -21 -19 -21 -22 -6 -52 15 -32
13 -59 -4 -59 -5 0 -8 -3 -8 -7 3 -21 -2 -33 -16 -33 -8 0 -15 -3 -15 -6 0 -8
53 -72 103 -124 39 -41 66 -46 46 -8 -9 16 -8 19 3 16 18 -6 22 -36 7 -54 -6
-8 -20 -12 -29 -9 -9 3 -23 -1 -30 -10 -7 -8 -19 -15 -27 -15 -14 0 -14 -36 3
-257 l6 -73 229 0 229 0 0 420 -1 420 -479 0 -480 0 0 -420z m695 360 c3 -5 1
-10 -4 -10 -6 0 -11 5 -11 10 0 6 2 10 4 10 3 0 8 -4 11 -10z m-588 -86 c-3
-3 -12 -4 -19 -1 -8 3 -5 6 6 6 11 1 17 -2 13 -5z m788 -504 c3 -5 2 -10 -4
-10 -5 0 -13 5 -16 10 -3 6 -2 10 4 10 5 0 13 -4 16 -10z m-315 -56 c0 -2 -7
-4 -15 -4 -8 0 -15 4 -15 10 0 5 7 7 15 4 8 -4 15 -8 15 -10z m-440 -94 c0 -5
-5 -10 -11 -10 -5 0 -7 5 -4 10 3 6 8 10 11 10 2 0 4 -4 4 -10z m515 -10 c3
-5 -1 -10 -9 -10 -9 0 -16 5 -16 10 0 6 4 10 9 10 6 0 13 -4 16 -10z"/>
<path d="M477 400 c-3 -13 0 -20 9 -20 8 0 14 9 14 20 0 11 -4 20 -9 20 -5 0
-11 -9 -14 -20z"/>
</g>
</svg>
