<?xml version="1.0" standalone="no"?>
<!DOCTYPE svg PUBLIC "-//W3C//DTD SVG 20010904//EN"
 "http://www.w3.org/TR/2001/REC-SVG-20010904/DTD/svg10.dtd">
<svg version="1.0" xmlns="http://www.w3.org/2000/svg"
 width="96.000000pt" height="84.000000pt" viewBox="0 0 96.000000 84.000000"
 preserveAspectRatio="xMidYMid meet">
<metadata>
Created by potrace 1.16, written by Peter Selinger 2001-2019
</metadata>
<g transform="translate(0.000000,84.000000) scale(0.100000,-0.100000)"
fill="#000000" stroke="none">
<path d="M0 420 l0 -420 125 0 c69 0 125 3 125 8 0 18 -32 51 -65 66 -37 18
-55 43 -39 55 5 3 14 15 20 26 6 10 42 32 80 47 45 19 85 44 114 73 l44 45
-23 21 c-17 16 -21 27 -15 48 13 49 12 131 -1 131 -7 0 -16 7 -19 15 -4 12
-10 13 -25 6 -10 -6 -21 -8 -24 -4 -4 3 -12 2 -19 -4 -15 -11 -56 -15 -62 -5
-8 13 15 114 31 141 78 126 219 183 323 129 24 -13 46 -28 47 -34 4 -13 -59
-84 -75 -84 -6 0 -19 -13 -28 -30 -13 -21 -20 -26 -26 -17 -5 8 -8 5 -8 -9 0
-31 -29 -84 -46 -84 -20 0 -18 -4 15 -40 16 -18 30 -27 33 -20 2 6 21 -24 42
-66 24 -49 41 -72 46 -64 4 7 6 22 3 34 -4 19 -3 19 7 3 6 -9 8 -26 5 -37 -7
-21 -30 -27 -40 -10 -3 6 -15 5 -31 -2 l-25 -12 5 -145 c3 -80 5 -154 6 -163
0 -17 18 -18 230 -18 l230 0 0 420 0 420 -480 0 -480 0 0 -420z m865 320 c3
-5 1 -10 -4 -10 -6 0 -11 5 -11 10 0 6 2 10 4 10 3 0 8 -4 11 -10z m-100 -510
c3 -5 1 -10 -4 -10 -6 0 -11 5 -11 10 0 6 2 10 4 10 3 0 8 -4 11 -10z m-655
-70 c0 -5 -2 -10 -4 -10 -3 0 -8 5 -11 10 -3 6 -1 10 4 10 6 0 11 -4 11 -10z
m-20 -84 c0 -3 -4 -8 -10 -11 -5 -3 -10 -1 -10 4 0 6 5 11 10 11 6 0 10 -2 10
-4z m470 -16 c0 -5 -7 -10 -15 -10 -8 0 -15 5 -15 10 0 6 7 10 15 10 8 0 15
-4 15 -10z"/>
<path d="M486 416 c-8 -32 -1 -45 16 -28 8 8 8 18 1 34 -10 22 -10 22 -17 -6z"/>
</g>
</svg>
