<?xml version="1.0" standalone="no"?>
<!DOCTYPE svg PUBLIC "-//W3C//DTD SVG 20010904//EN"
 "http://www.w3.org/TR/2001/REC-SVG-20010904/DTD/svg10.dtd">
<svg version="1.0" xmlns="http://www.w3.org/2000/svg"
 width="96.000000pt" height="84.000000pt" viewBox="0 0 96.000000 84.000000"
 preserveAspectRatio="xMidYMid meet">
<metadata>
Created by potrace 1.16, written by Peter Selinger 2001-2019
</metadata>
<g transform="translate(0.000000,84.000000) scale(0.100000,-0.100000)"
fill="#000000" stroke="none">
<path d="M0 420 l0 -420 125 0 c104 0 125 2 125 15 0 16 -23 41 -60 65 -49 32
-52 39 -30 70 13 19 39 34 73 45 68 22 119 55 153 101 25 33 27 37 12 48 -10
8 -13 17 -9 25 5 7 4 29 -1 50 -6 20 -11 50 -12 66 0 17 -9 38 -19 48 -13 13
-15 22 -7 37 14 26 13 40 -5 40 -8 0 -15 5 -15 10 0 6 -7 10 -15 10 -24 0 -17
34 15 78 74 102 202 136 311 81 36 -18 109 -91 109 -109 0 -17 -32 -48 -45
-44 -6 3 -17 -2 -24 -10 -6 -7 -21 -12 -31 -9 -11 3 -27 0 -35 -7 -8 -6 -19
-9 -25 -5 -6 4 -22 4 -36 1 -23 -6 -24 -10 -23 -79 3 -168 22 -253 41 -185 6
21 6 21 7 -5 1 -34 -26 -48 -45 -22 -7 9 -20 15 -28 12 -12 -5 -14 -24 -10
-114 3 -59 7 -132 10 -160 l5 -53 225 0 224 0 0 420 0 420 -480 0 -480 0 0
-420z m757 344 c-3 -3 -12 -4 -19 -1 -8 3 -5 6 6 6 11 1 17 -2 13 -5z"/>
<path d="M463 567 l-32 -42 34 -35 c19 -20 35 -43 35 -52 0 -9 5 -20 10 -23 7
-5 10 25 8 91 -2 54 -7 99 -13 100 -5 2 -24 -16 -42 -39z"/>
</g>
</svg>
