<?xml version="1.0" standalone="no"?>
<!DOCTYPE svg PUBLIC "-//W3C//DTD SVG 20010904//EN"
 "http://www.w3.org/TR/2001/REC-SVG-20010904/DTD/svg10.dtd">
<svg version="1.0" xmlns="http://www.w3.org/2000/svg"
 width="96.000000pt" height="84.000000pt" viewBox="0 0 96.000000 84.000000"
 preserveAspectRatio="xMidYMid meet">
<metadata>
Created by potrace 1.16, written by Peter Selinger 2001-2019
</metadata>
<g transform="translate(0.000000,84.000000) scale(0.100000,-0.100000)"
fill="#000000" stroke="none">
<path d="M0 531 c0 -238 3 -310 12 -314 10 -4 10 -6 1 -6 -10 -1 -13 -29 -13
-106 l0 -105 145 0 c80 0 145 2 145 5 0 3 -17 16 -37 29 -21 13 -50 36 -65 50
-25 24 -26 28 -13 53 10 20 29 33 67 47 66 23 98 45 138 96 22 28 30 46 25 58
-4 9 -10 35 -12 57 -2 22 -8 52 -14 67 -6 15 -8 31 -5 37 4 6 -2 19 -13 30
-19 19 -19 20 0 57 12 25 16 41 9 48 -32 32 11 102 85 139 30 15 204 29 182
15 -8 -5 -8 -8 -1 -8 24 0 98 -60 125 -100 39 -58 38 -120 -1 -120 -11 0 -21
-4 -24 -8 -3 -5 -44 -8 -91 -7 l-87 1 6 -29 c3 -17 2 -35 -3 -41 -10 -12 -31
-167 -24 -178 8 -15 24 -8 33 14 10 23 10 23 7 -2 -3 -37 -44 -40 -57 -5 -13
33 -31 23 -25 -13 3 -15 12 -79 20 -142 9 -63 18 -123 21 -132 5 -16 24 -18
215 -18 l209 0 0 420 0 420 -480 0 -480 0 0 -309z m940 -221 c0 -5 -4 -10 -10
-10 -5 0 -10 5 -10 10 0 6 5 10 10 10 6 0 10 -4 10 -10z"/>
<path d="M460 553 l-21 -26 28 -29 27 -28 27 28 c27 25 41 71 19 57 -6 -4 -22
0 -35 9 -23 15 -25 14 -45 -11z"/>
<path d="M520 420 c-7 -16 -16 -30 -21 -30 -5 0 -9 -5 -9 -11 0 -25 34 -1 42
30 12 43 4 50 -12 11z"/>
</g>
</svg>
