<?xml version="1.0" standalone="no"?>
<!DOCTYPE svg PUBLIC "-//W3C//DTD SVG 20010904//EN"
 "http://www.w3.org/TR/2001/REC-SVG-20010904/DTD/svg10.dtd">
<svg version="1.0" xmlns="http://www.w3.org/2000/svg"
 width="96.000000pt" height="84.000000pt" viewBox="0 0 96.000000 84.000000"
 preserveAspectRatio="xMidYMid meet">
<metadata>
Created by potrace 1.16, written by Peter Selinger 2001-2019
</metadata>
<g transform="translate(0.000000,84.000000) scale(0.100000,-0.100000)"
fill="#000000" stroke="none">
<path d="M0 420 l0 -420 137 0 136 0 -37 36 c-34 33 -37 40 -29 67 6 22 22 38
55 56 25 14 56 35 68 46 38 34 90 118 81 129 -9 11 -33 129 -33 158 1 9 -6 22
-14 29 -19 15 -18 27 6 77 11 22 20 49 20 60 0 26 55 79 97 93 19 6 64 9 99 7
50 -3 72 -10 106 -34 96 -66 138 -182 85 -232 -13 -12 -31 -22 -41 -22 -9 0
-26 -5 -36 -10 -10 -6 -21 -6 -24 -1 -3 4 -16 6 -30 4 -13 -3 -33 0 -44 6 -26
14 -36 1 -50 -64 -23 -105 -24 -125 -8 -125 8 0 20 8 26 18 10 16 11 16 8 -2
-2 -10 -11 -24 -21 -30 -15 -9 -21 -7 -32 8 -8 10 -12 22 -10 27 3 4 1 10 -5
14 -5 3 -10 2 -10 -4 0 -26 23 -174 36 -238 l16 -73 204 0 204 0 0 228 c0 167
-3 231 -12 240 -10 10 -10 17 0 32 8 13 12 71 12 180 l0 160 -189 0 c-142 0
-191 -3 -194 -12 -4 -10 -6 -10 -6 0 -1 9 -65 12 -286 12 l-285 0 0 -420z"/>
<path d="M447 533 c-4 -3 2 -13 14 -21 26 -18 35 -10 11 11 -10 10 -22 14 -25
10z"/>
<path d="M508 493 c7 -3 16 -2 19 1 4 3 -2 6 -13 5 -11 0 -14 -3 -6 -6z"/>
<path d="M501 413 c-6 -20 -8 -40 -5 -45 11 -17 32 -7 38 20 4 15 9 35 12 45
4 12 0 17 -15 17 -15 0 -23 -10 -30 -37z"/>
</g>
</svg>
