<?xml version="1.0" standalone="no"?>
<!DOCTYPE svg PUBLIC "-//W3C//DTD SVG 20010904//EN"
 "http://www.w3.org/TR/2001/REC-SVG-20010904/DTD/svg10.dtd">
<svg version="1.0" xmlns="http://www.w3.org/2000/svg"
 width="96.000000pt" height="84.000000pt" viewBox="0 0 96.000000 84.000000"
 preserveAspectRatio="xMidYMid meet">
<metadata>
Created by potrace 1.16, written by Peter Selinger 2001-2019
</metadata>
<g transform="translate(0.000000,84.000000) scale(0.100000,-0.100000)"
fill="#000000" stroke="none">
<path d="M0 420 l0 -420 135 0 c74 0 135 4 135 8 0 5 -11 19 -26 32 -41 40
-18 88 72 151 23 15 56 51 73 78 28 43 31 53 21 72 -11 19 -18 72 -22 151 -1
17 -8 28 -19 31 -25 7 -24 29 4 70 12 19 27 43 33 53 6 10 22 19 35 19 13 1
38 9 56 18 43 23 125 22 171 -2 104 -54 165 -186 123 -265 -22 -40 -139 -83
-156 -56 -3 5 -16 10 -29 10 -12 0 -27 5 -34 12 -7 7 -12 10 -12 7 0 -2 -9
-28 -19 -56 -16 -43 -17 -54 -6 -63 10 -8 16 -7 23 7 12 21 25 13 16 -11 -3
-9 -17 -16 -30 -16 -28 0 -28 -2 -14 -120 18 -147 -11 -130 225 -130 l205 0 0
420 0 420 -480 0 -480 0 0 -420z m926 -297 c-10 -10 -19 5 -10 18 6 11 8 11
12 0 2 -7 1 -15 -2 -18z"/>
<path d="M507 413 c-4 -3 -7 -19 -7 -34 0 -37 28 -46 41 -12 5 14 8 26 7 27
-2 1 -10 7 -19 14 -9 6 -19 9 -22 5z"/>
</g>
</svg>
