<?xml version="1.0" standalone="no"?>
<!DOCTYPE svg PUBLIC "-//W3C//DTD SVG 20010904//EN"
 "http://www.w3.org/TR/2001/REC-SVG-20010904/DTD/svg10.dtd">
<svg version="1.0" xmlns="http://www.w3.org/2000/svg"
 width="96.000000pt" height="84.000000pt" viewBox="0 0 96.000000 84.000000"
 preserveAspectRatio="xMidYMid meet">
<metadata>
Created by potrace 1.16, written by Peter Selinger 2001-2019
</metadata>
<g transform="translate(0.000000,84.000000) scale(0.100000,-0.100000)"
fill="#000000" stroke="none">
<path d="M0 605 c0 -176 3 -235 12 -235 9 0 9 -3 0 -12 -8 -8 -12 -64 -12
-185 l0 -173 148 0 c105 1 142 4 130 11 -10 5 -18 17 -18 24 0 8 -4 15 -9 15
-18 0 -18 39 0 69 10 17 37 44 61 61 23 17 59 56 80 86 34 49 37 57 25 74 -8
11 -17 17 -20 13 -4 -3 -7 -1 -7 5 0 6 4 13 8 16 16 10 -6 124 -28 146 -24 24
-25 33 -4 51 8 7 24 30 35 50 10 21 28 40 38 44 26 8 58 -9 66 -36 5 -14 12
-18 23 -13 32 14 91 16 126 4 47 -15 110 -88 126 -145 31 -109 -16 -185 -111
-180 -28 2 -58 9 -67 17 -33 29 -46 27 -64 -9 -14 -30 -14 -35 -1 -40 8 -3 19
0 24 8 7 11 9 10 9 -4 0 -11 -9 -21 -20 -24 -24 -6 -24 -19 -8 -149 l11 -94
204 0 203 0 0 420 0 420 -480 0 -480 -1 0 -234z m887 -367 c-3 -8 -6 -5 -6 6
-1 11 2 17 5 13 3 -3 4 -12 1 -19z"/>
<path d="M510 360 c0 -19 20 -27 33 -13 8 7 -11 33 -24 33 -5 0 -9 -9 -9 -20z"/>
</g>
</svg>
