<?xml version="1.0" standalone="no"?>
<!DOCTYPE svg PUBLIC "-//W3C//DTD SVG 20010904//EN"
 "http://www.w3.org/TR/2001/REC-SVG-20010904/DTD/svg10.dtd">
<svg version="1.0" xmlns="http://www.w3.org/2000/svg"
 width="96.000000pt" height="84.000000pt" viewBox="0 0 96.000000 84.000000"
 preserveAspectRatio="xMidYMid meet">
<metadata>
Created by potrace 1.16, written by Peter Selinger 2001-2019
</metadata>
<g transform="translate(0.000000,84.000000) scale(0.100000,-0.100000)"
fill="#000000" stroke="none">
<path d="M0 805 c0 -21 5 -35 12 -35 9 0 9 -3 0 -12 -9 -9 -12 -108 -12 -385
l0 -373 145 0 c80 0 145 3 145 8 0 4 -9 13 -19 19 -11 7 -22 26 -26 43 -9 39
11 71 72 113 42 30 113 116 113 137 0 6 -9 19 -20 30 -11 11 -15 20 -9 20 19
0 7 133 -14 148 -23 17 -22 45 3 67 11 10 20 23 20 30 0 17 39 55 56 55 17 0
64 -44 64 -59 0 -5 -6 -16 -12 -23 -7 -8 -19 -24 -26 -37 -12 -20 -11 -26 5
-44 10 -12 19 -24 20 -26 1 -2 16 10 32 28 34 37 66 40 128 11 59 -26 83 -69
83 -148 0 -42 -6 -74 -17 -93 -28 -47 -93 -58 -135 -22 -15 13 -20 13 -42 -4
-30 -21 -30 -21 -15 -153 l12 -100 198 0 199 0 0 420 0 420 -238 0 c-177 0
-241 -3 -251 -12 -11 -10 -13 -10 -7 0 6 9 -43 12 -228 12 l-236 0 0 -35z
m830 -495 c0 -5 -4 -10 -10 -10 -5 0 -10 5 -10 10 0 6 5 10 10 10 6 0 10 -4
10 -10z"/>
<path d="M520 356 c0 -8 5 -18 10 -21 6 -3 10 1 10 9 0 8 -4 18 -10 21 -5 3
-10 -1 -10 -9z"/>
<path d="M541 286 c-8 -10 -9 -16 -1 -21 13 -8 30 3 30 21 0 18 -14 18 -29 0z"/>
</g>
</svg>
