<?xml version="1.0" standalone="no"?>
<!DOCTYPE svg PUBLIC "-//W3C//DTD SVG 20010904//EN"
 "http://www.w3.org/TR/2001/REC-SVG-20010904/DTD/svg10.dtd">
<svg version="1.0" xmlns="http://www.w3.org/2000/svg"
 width="96.000000pt" height="84.000000pt" viewBox="0 0 96.000000 84.000000"
 preserveAspectRatio="xMidYMid meet">
<metadata>
Created by potrace 1.16, written by Peter Selinger 2001-2019
</metadata>
<g transform="translate(0.000000,84.000000) scale(0.100000,-0.100000)"
fill="#000000" stroke="none">
<path d="M0 420 l0 -420 140 0 c112 0 140 3 140 14 0 7 -7 19 -15 26 -29 24
-9 70 59 135 86 82 121 137 106 164 -6 12 -16 21 -22 21 -7 0 -7 4 1 14 16 19
11 144 -6 150 -19 8 -16 29 9 73 44 78 70 91 108 53 28 -28 25 -50 -9 -88 -29
-31 -29 -32 -10 -42 10 -6 19 -15 19 -20 0 -4 9 -30 21 -57 l21 -48 20 28 c25
34 38 34 113 -1 86 -41 90 -48 59 -110 -54 -109 -113 -140 -155 -83 -27 37
-60 32 -54 -8 2 -14 7 -70 11 -123 l6 -98 199 0 199 0 0 420 0 420 -480 0
-480 0 0 -420z m940 131 c0 -6 -4 -13 -10 -16 -5 -3 -10 1 -10 9 0 9 5 16 10
16 6 0 10 -4 10 -9z"/>
<path d="M526 363 c7 -27 24 -47 33 -38 6 7 -21 65 -30 65 -5 0 -6 -12 -3 -27z"/>
</g>
</svg>
