<?xml version="1.0" standalone="no"?>
<!DOCTYPE svg PUBLIC "-//W3C//DTD SVG 20010904//EN"
 "http://www.w3.org/TR/2001/REC-SVG-20010904/DTD/svg10.dtd">
<svg version="1.0" xmlns="http://www.w3.org/2000/svg"
 width="96.000000pt" height="84.000000pt" viewBox="0 0 96.000000 84.000000"
 preserveAspectRatio="xMidYMid meet">
<metadata>
Created by potrace 1.16, written by Peter Selinger 2001-2019
</metadata>
<g transform="translate(0.000000,84.000000) scale(0.100000,-0.100000)"
fill="#000000" stroke="none">
<path d="M0 420 l0 -420 152 1 c84 1 145 3 136 6 -20 5 -40 59 -33 92 5 29 28
55 78 91 42 31 117 118 117 137 0 6 -7 19 -16 28 -11 11 -13 19 -6 28 14 17 3
134 -14 148 -16 13 -19 59 -4 59 5 0 21 18 35 40 31 48 63 53 94 14 25 -31 27
-52 6 -60 -8 -4 -15 -12 -15 -19 0 -7 -7 -18 -16 -26 -14 -11 -14 -13 0 -21 9
-5 22 -32 31 -60 20 -68 43 -104 58 -89 15 15 37 14 56 -2 9 -7 33 -19 55 -26
44 -15 106 -50 106 -59 0 -9 -106 -52 -128 -52 -10 0 -27 -6 -37 -14 -14 -10
-25 -11 -42 -3 -12 5 -20 14 -17 18 3 5 0 9 -6 9 -7 0 -10 6 -7 13 3 8 -3 13
-15 13 -21 0 -21 -14 -2 -208 l6 -58 194 0 194 0 0 420 0 420 -480 0 -479 0
-1 -420z m860 171 c0 -5 -7 -11 -14 -14 -10 -4 -13 -1 -9 9 6 15 23 19 23 5z"/>
<path d="M530 372 c0 -19 19 -52 30 -52 15 0 12 12 -10 40 -11 14 -20 19 -20
12z"/>
</g>
</svg>
