<?xml version="1.0" standalone="no"?>
<!DOCTYPE svg PUBLIC "-//W3C//DTD SVG 20010904//EN"
 "http://www.w3.org/TR/2001/REC-SVG-20010904/DTD/svg10.dtd">
<svg version="1.0" xmlns="http://www.w3.org/2000/svg"
 width="96.000000pt" height="84.000000pt" viewBox="0 0 96.000000 84.000000"
 preserveAspectRatio="xMidYMid meet">
<metadata>
Created by potrace 1.16, written by Peter Selinger 2001-2019
</metadata>
<g transform="translate(0.000000,84.000000) scale(0.100000,-0.100000)"
fill="#000000" stroke="none">
<path d="M0 420 l0 -420 480 0 480 0 0 420 0 420 -480 0 -480 0 0 -420z m473
218 c4 -10 7 -10 18 0 19 18 43 15 63 -7 17 -19 17 -19 -3 -14 -12 3 -21 1
-21 -6 0 -6 4 -11 8 -11 5 0 22 -11 37 -25 23 -19 26 -25 13 -30 -25 -10 -11
-55 18 -55 13 0 24 -4 24 -10 0 -5 20 -10 45 -10 71 0 114 -57 62 -81 -17 -8
-39 -6 -84 5 -75 20 -84 20 -77 1 4 -10 0 -15 -15 -15 -12 0 -21 6 -21 15 0
10 -10 15 -29 15 -17 0 -33 5 -36 10 -3 6 -23 10 -43 10 -29 0 -34 -3 -22 -11
12 -9 12 -10 -4 -5 -10 4 -38 11 -62 17 -79 20 -64 32 29 24 l86 -7 15 30 c13
25 13 32 0 57 -17 33 -17 35 -4 35 6 0 10 -8 10 -17 0 -13 3 -14 12 -5 9 9 3
20 -28 47 -21 19 -33 35 -26 35 7 0 10 5 7 10 -3 6 0 10 9 10 8 0 16 -6 19
-12z"/>
<path d="M491 482 c-7 -13 -11 -26 -8 -28 8 -8 29 25 25 38 -3 8 -9 4 -17 -10z"/>
</g>
</svg>
