<?xml version="1.0" standalone="no"?>
<!DOCTYPE svg PUBLIC "-//W3C//DTD SVG 20010904//EN"
 "http://www.w3.org/TR/2001/REC-SVG-20010904/DTD/svg10.dtd">
<svg version="1.0" xmlns="http://www.w3.org/2000/svg"
 width="96.000000pt" height="84.000000pt" viewBox="0 0 96.000000 84.000000"
 preserveAspectRatio="xMidYMid meet">
<metadata>
Created by potrace 1.16, written by Peter Selinger 2001-2019
</metadata>
<g transform="translate(0.000000,84.000000) scale(0.100000,-0.100000)"
fill="#000000" stroke="none">
<path d="M0 420 l0 -420 146 0 145 0 -7 23 c-3 12 -12 28 -18 36 -26 32 -3 70
82 133 28 21 52 45 52 53 0 8 4 15 9 15 5 0 19 14 31 30 25 35 21 80 -8 80
-16 1 -16 1 1 11 15 9 18 22 15 77 -2 45 -8 71 -18 79 -13 10 -13 16 5 49 32
60 55 84 79 84 43 0 76 -59 48 -87 -42 -43 -46 -52 -28 -72 10 -10 21 -46 26
-79 8 -62 35 -116 52 -106 5 3 17 -1 27 -10 10 -9 40 -23 67 -31 66 -20 201
-97 159 -90 -134 20 -172 28 -196 41 -15 7 -35 11 -45 7 -11 -4 -23 2 -35 18
-10 13 -21 21 -25 17 -4 -4 2 -68 12 -143 l18 -135 183 0 183 0 -2 418 -3 417
-83 3 c-58 2 -89 -1 -100 -10 -12 -10 -14 -10 -8 0 6 9 -73 12 -378 12 l-386
0 0 -420z m40 240 c0 -5 -5 -10 -11 -10 -5 0 -7 5 -4 10 3 6 8 10 11 10 2 0 4
-4 4 -10z m700 -39 c0 -12 -20 -25 -27 -18 -7 7 6 27 18 27 5 0 9 -4 9 -9z"/>
</g>
</svg>
