<?xml version="1.0" standalone="no"?>
<!DOCTYPE svg PUBLIC "-//W3C//DTD SVG 20010904//EN"
 "http://www.w3.org/TR/2001/REC-SVG-20010904/DTD/svg10.dtd">
<svg version="1.0" xmlns="http://www.w3.org/2000/svg"
 width="96.000000pt" height="84.000000pt" viewBox="0 0 96.000000 84.000000"
 preserveAspectRatio="xMidYMid meet">
<metadata>
Created by potrace 1.16, written by Peter Selinger 2001-2019
</metadata>
<g transform="translate(0.000000,84.000000) scale(0.100000,-0.100000)"
fill="#000000" stroke="none">
<path d="M0 616 c0 -170 3 -226 13 -229 9 -4 9 -6 0 -6 -10 -1 -13 -46 -13
-191 l0 -190 155 0 c89 0 155 4 155 9 0 5 -7 16 -15 25 -8 8 -15 28 -15 45 0
24 11 40 55 78 102 89 163 212 106 213 -14 1 -14 2 1 11 15 8 17 22 15 79 -1
45 -6 71 -14 75 -20 7 -14 35 16 85 21 36 34 46 58 48 23 2 35 -3 47 -20 17
-24 22 -68 7 -68 -5 0 -16 -11 -24 -24 -15 -22 -14 -27 4 -62 14 -28 18 -49
14 -73 -8 -40 21 -115 41 -107 7 3 18 -1 24 -9 6 -8 35 -21 64 -29 29 -9 93
-39 142 -67 49 -28 81 -48 71 -45 -10 3 -55 15 -100 27 -45 11 -101 31 -124
45 -23 13 -53 24 -67 24 -14 0 -28 5 -31 10 -3 6 -10 10 -15 10 -10 0 -7 -40
11 -160 5 -36 10 -77 11 -92 l2 -28 183 0 183 0 0 420 0 420 -480 0 -480 0 0
-224z m227 62 c-3 -8 -6 -5 -6 6 -1 11 2 17 5 13 3 -3 4 -12 1 -19z m418 -48
c-3 -5 -11 -10 -16 -10 -6 0 -7 5 -4 10 3 6 11 10 16 10 6 0 7 -4 4 -10z m185
-500 c0 -5 -2 -10 -4 -10 -3 0 -8 5 -11 10 -3 6 -1 10 4 10 6 0 11 -4 11 -10z"/>
</g>
</svg>
