<?xml version="1.0" standalone="no"?>
<!DOCTYPE svg PUBLIC "-//W3C//DTD SVG 20010904//EN"
 "http://www.w3.org/TR/2001/REC-SVG-20010904/DTD/svg10.dtd">
<svg version="1.0" xmlns="http://www.w3.org/2000/svg"
 width="96.000000pt" height="84.000000pt" viewBox="0 0 96.000000 84.000000"
 preserveAspectRatio="xMidYMid meet">
<metadata>
Created by potrace 1.16, written by Peter Selinger 2001-2019
</metadata>
<g transform="translate(0.000000,84.000000) scale(0.100000,-0.100000)"
fill="#000000" stroke="none">
<path d="M0 420 l0 -420 155 0 c100 0 155 4 155 10 0 6 -6 21 -14 33 -24 36
-9 73 50 125 66 57 137 162 128 186 -4 9 -13 15 -20 12 -18 -7 -18 3 0 23 11
12 12 27 6 60 -4 25 -6 51 -3 58 3 8 -3 20 -13 28 -19 13 -19 15 1 51 48 89
86 107 124 58 26 -33 26 -49 4 -66 -31 -23 -43 -53 -29 -69 22 -23 35 -74 24
-93 -5 -10 -7 -27 -4 -39 7 -30 45 -69 57 -61 6 3 20 -3 32 -14 12 -11 38 -25
58 -31 31 -10 204 -121 188 -121 -22 0 -163 56 -202 80 -27 17 -56 30 -65 30
-10 0 -28 7 -40 16 -13 9 -25 14 -26 13 -2 -2 3 -47 10 -99 7 -52 13 -116 13
-142 l1 -48 185 0 185 0 0 420 0 420 -480 0 -480 0 0 -420z m600 380 c0 -5 -5
-10 -11 -10 -5 0 -7 5 -4 10 3 6 8 10 11 10 2 0 4 -4 4 -10z"/>
</g>
</svg>
