<?xml version="1.0" standalone="no"?>
<!DOCTYPE svg PUBLIC "-//W3C//DTD SVG 20010904//EN"
 "http://www.w3.org/TR/2001/REC-SVG-20010904/DTD/svg10.dtd">
<svg version="1.0" xmlns="http://www.w3.org/2000/svg"
 width="96.000000pt" height="84.000000pt" viewBox="0 0 96.000000 84.000000"
 preserveAspectRatio="xMidYMid meet">
<metadata>
Created by potrace 1.16, written by Peter Selinger 2001-2019
</metadata>
<g transform="translate(0.000000,84.000000) scale(0.100000,-0.100000)"
fill="#000000" stroke="none">
<path d="M0 420 l0 -420 161 0 161 0 -16 25 c-25 38 -12 73 47 134 60 62 127
159 127 185 0 9 -8 16 -20 16 -24 0 -27 15 -5 24 13 5 15 19 11 72 -2 36 -9
71 -15 77 -19 19 -12 48 25 93 41 50 51 52 88 23 34 -27 33 -57 -4 -93 -26
-25 -28 -32 -17 -45 29 -34 39 -76 25 -106 -11 -25 -10 -29 20 -56 18 -16 37
-27 41 -25 5 3 17 -4 27 -15 10 -11 36 -28 58 -38 31 -14 134 -90 185 -137 2
-2 -30 11 -70 28 -77 32 -143 70 -154 88 -3 5 -18 10 -33 10 -15 0 -38 7 -51
17 l-24 16 6 -64 c4 -35 10 -101 13 -146 l7 -83 183 0 184 0 0 420 0 420 -480
0 -480 0 0 -420z m75 340 c3 -5 1 -10 -4 -10 -6 0 -11 5 -11 10 0 6 2 10 4 10
3 0 8 -4 11 -10z m402 -106 c-3 -3 -12 -4 -19 -1 -8 3 -5 6 6 6 11 1 17 -2 13
-5z m463 -614 c0 -5 -2 -10 -4 -10 -3 0 -8 5 -11 10 -3 6 -1 10 4 10 6 0 11
-4 11 -10z"/>
</g>
</svg>
