<?xml version="1.0" standalone="no"?>
<!DOCTYPE svg PUBLIC "-//W3C//DTD SVG 20010904//EN"
 "http://www.w3.org/TR/2001/REC-SVG-20010904/DTD/svg10.dtd">
<svg version="1.0" xmlns="http://www.w3.org/2000/svg"
 width="96.000000pt" height="84.000000pt" viewBox="0 0 96.000000 84.000000"
 preserveAspectRatio="xMidYMid meet">
<metadata>
Created by potrace 1.16, written by Peter Selinger 2001-2019
</metadata>
<g transform="translate(0.000000,84.000000) scale(0.100000,-0.100000)"
fill="#000000" stroke="none">
<path d="M0 420 l-1 -420 168 1 c111 0 160 3 146 9 -13 5 -24 17 -24 27 -1 10
-3 30 -5 45 -2 23 8 37 61 85 66 60 119 126 135 169 8 20 7 24 -10 24 -24 0
-25 8 -4 31 13 14 15 27 8 56 -4 21 -7 48 -6 59 1 12 -5 24 -13 28 -16 6 -18
66 -3 66 4 0 20 13 35 30 33 37 65 38 92 4 26 -33 26 -49 4 -66 -41 -30 -45
-44 -23 -80 11 -18 20 -45 20 -60 0 -16 4 -28 9 -28 14 0 91 -71 91 -84 0 -7
12 -23 26 -37 26 -24 89 -137 81 -145 -7 -7 -107 106 -107 121 0 16 -38 45
-59 45 -11 0 -11 -3 2 -18 10 -10 14 -21 11 -25 -9 -8 -37 3 -53 22 -11 14
-12 8 -7 -39 3 -30 8 -97 12 -148 l7 -92 183 0 184 0 0 420 0 420 -479 0 -480
0 -1 -420z m865 -350 c3 -5 1 -10 -4 -10 -6 0 -11 5 -11 10 0 6 2 10 4 10 3 0
8 -4 11 -10z"/>
<path d="M560 367 c0 -16 26 -41 53 -50 34 -12 17 19 -25 46 -22 14 -28 14
-28 4z"/>
</g>
</svg>
