<?xml version="1.0" standalone="no"?>
<!DOCTYPE svg PUBLIC "-//W3C//DTD SVG 20010904//EN"
 "http://www.w3.org/TR/2001/REC-SVG-20010904/DTD/svg10.dtd">
<svg version="1.0" xmlns="http://www.w3.org/2000/svg"
 width="96.000000pt" height="84.000000pt" viewBox="0 0 96.000000 84.000000"
 preserveAspectRatio="xMidYMid meet">
<metadata>
Created by potrace 1.16, written by Peter Selinger 2001-2019
</metadata>
<g transform="translate(0.000000,84.000000) scale(0.100000,-0.100000)"
fill="#000000" stroke="none">
<path d="M0 420 l0 -420 173 0 c153 1 170 2 153 15 -11 8 -23 15 -28 15 -4 0
-8 8 -8 18 0 10 -4 22 -10 28 -19 19 2 50 62 94 60 44 148 148 148 176 0 8 -7
14 -15 14 -18 0 -20 16 -4 26 16 9 2 132 -16 151 -19 19 -19 39 1 55 8 7 24
21 34 30 42 38 58 40 85 14 30 -30 34 -76 7 -83 -10 -2 -23 -13 -30 -23 -10
-17 -8 -20 22 -26 19 -3 50 -20 69 -37 19 -18 40 -32 47 -32 7 0 19 -10 28
-22 9 -15 10 -23 3 -23 -6 0 -11 7 -11 15 0 8 -3 15 -7 15 -5 0 -9 -35 -11
-78 -1 -43 -6 -91 -11 -107 l-8 -30 -6 25 c-3 14 -8 61 -11 105 -4 74 -7 82
-36 108 -36 32 -56 36 -41 8 8 -13 6 -30 -6 -60 -15 -39 -15 -42 4 -64 10 -12
25 -35 31 -50 12 -27 11 -28 -9 -22 -22 7 -22 6 -15 -91 4 -55 9 -114 13 -131
l5 -33 179 0 179 0 0 420 0 420 -480 0 -480 0 0 -420z m795 -310 c3 -5 1 -10
-4 -10 -6 0 -11 5 -11 10 0 6 2 10 4 10 3 0 8 -4 11 -10z"/>
</g>
</svg>
