<?xml version="1.0" standalone="no"?>
<!DOCTYPE svg PUBLIC "-//W3C//DTD SVG 20010904//EN"
 "http://www.w3.org/TR/2001/REC-SVG-20010904/DTD/svg10.dtd">
<svg version="1.0" xmlns="http://www.w3.org/2000/svg"
 width="96.000000pt" height="84.000000pt" viewBox="0 0 96.000000 84.000000"
 preserveAspectRatio="xMidYMid meet">
<metadata>
Created by potrace 1.16, written by Peter Selinger 2001-2019
</metadata>
<g transform="translate(0.000000,84.000000) scale(0.100000,-0.100000)"
fill="#000000" stroke="none">
<path d="M0 420 l0 -420 180 0 c198 0 188 -4 132 56 -32 36 -20 67 44 115 72
53 146 147 138 174 -4 11 -12 23 -18 28 -8 5 -6 10 4 17 20 13 17 116 -4 139
-18 20 -22 71 -6 71 6 0 15 11 21 24 6 13 22 29 34 34 47 22 98 -50 62 -87
-10 -10 -7 -11 14 -6 31 8 99 -30 99 -55 0 -8 -21 -37 -46 -65 -36 -40 -44
-45 -38 -25 3 14 13 32 20 41 38 43 -12 91 -60 56 -17 -12 -17 -15 3 -49 19
-32 20 -38 7 -69 -10 -25 -12 -48 -5 -84 4 -27 11 -110 15 -182 l7 -133 179 0
178 0 0 420 0 420 -480 0 -480 0 0 -420z m220 126 c0 -3 -4 -8 -10 -11 -5 -3
-10 -1 -10 4 0 6 5 11 10 11 6 0 10 -2 10 -4z"/>
</g>
</svg>
