<?xml version="1.0" standalone="no"?>
<!DOCTYPE svg PUBLIC "-//W3C//DTD SVG 20010904//EN"
 "http://www.w3.org/TR/2001/REC-SVG-20010904/DTD/svg10.dtd">
<svg version="1.0" xmlns="http://www.w3.org/2000/svg"
 width="96.000000pt" height="84.000000pt" viewBox="0 0 96.000000 84.000000"
 preserveAspectRatio="xMidYMid meet">
<metadata>
Created by potrace 1.16, written by Peter Selinger 2001-2019
</metadata>
<g transform="translate(0.000000,84.000000) scale(0.100000,-0.100000)"
fill="#000000" stroke="none">
<path d="M0 420 l0 -420 208 0 c187 1 204 2 175 15 -18 8 -33 21 -33 29 0 8
-14 24 -30 36 -25 18 -28 25 -19 36 6 8 8 14 3 14 -15 0 42 52 76 70 20 10 55
39 78 64 33 36 42 53 42 81 0 19 -5 35 -11 35 -5 0 -3 10 5 22 22 31 20 91 -4
130 -24 39 -25 64 -5 72 8 3 15 14 15 24 0 22 30 52 52 52 8 0 25 -11 38 -25
17 -18 34 -25 62 -25 21 0 38 -3 38 -6 0 -16 -23 -44 -35 -44 -14 0 -20 -12
-16 -33 1 -5 -3 -6 -9 -2 -8 5 -43 -7 -59 -21 -1 -1 7 -21 20 -43 20 -36 21
-44 10 -65 -11 -19 -11 -44 -3 -123 10 -85 20 -221 22 -275 0 -16 15 -18 170
-18 l170 0 0 420 0 420 -480 0 -480 0 0 -420z m940 400 c0 -5 -2 -10 -4 -10
-3 0 -8 5 -11 10 -3 6 -1 10 4 10 6 0 11 -4 11 -10z m-770 -240 c0 -5 -5 -10
-11 -10 -5 0 -7 5 -4 10 3 6 8 10 11 10 2 0 4 -4 4 -10z m-105 -110 c3 -5 1
-10 -4 -10 -6 0 -11 5 -11 10 0 6 2 10 4 10 3 0 8 -4 11 -10z"/>
</g>
</svg>
