<?xml version="1.0" standalone="no"?>
<!DOCTYPE svg PUBLIC "-//W3C//DTD SVG 20010904//EN"
 "http://www.w3.org/TR/2001/REC-SVG-20010904/DTD/svg10.dtd">
<svg version="1.0" xmlns="http://www.w3.org/2000/svg"
 width="96.000000pt" height="84.000000pt" viewBox="0 0 96.000000 84.000000"
 preserveAspectRatio="xMidYMid meet">
<metadata>
Created by potrace 1.16, written by Peter Selinger 2001-2019
</metadata>
<g transform="translate(0.000000,84.000000) scale(0.100000,-0.100000)"
fill="#000000" stroke="none">
<path d="M0 420 l0 -420 216 0 c234 0 242 2 150 48 -44 22 -44 23 -30 51 8 16
36 46 62 65 26 20 58 52 71 71 22 32 23 39 12 74 -16 55 -14 92 9 126 21 31
27 95 10 95 -6 0 -10 28 -10 64 0 58 3 67 26 85 32 25 54 65 54 97 0 13 9 28
20 34 11 6 20 15 20 20 0 6 -116 10 -305 10 l-305 0 0 -420z"/>
<path d="M620 800 c0 -22 -6 -42 -14 -47 -15 -9 -27 -71 -14 -79 14 -9 9 -83
-8 -109 -14 -22 -14 -26 12 -65 24 -35 26 -45 17 -74 -11 -36 18 -237 51 -349
9 -32 14 -62 11 -67 -4 -6 48 -10 139 -10 l146 0 0 420 0 420 -170 0 -170 0 0
-40z"/>
<path d="M508 345 c4 -32 6 -34 18 -18 19 26 17 53 -4 53 -15 0 -17 -6 -14
-35z"/>
</g>
</svg>
