<?xml version="1.0" standalone="no"?>
<!DOCTYPE svg PUBLIC "-//W3C//DTD SVG 20010904//EN"
 "http://www.w3.org/TR/2001/REC-SVG-20010904/DTD/svg10.dtd">
<svg version="1.0" xmlns="http://www.w3.org/2000/svg"
 width="96.000000pt" height="84.000000pt" viewBox="0 0 96.000000 84.000000"
 preserveAspectRatio="xMidYMid meet">
<metadata>
Created by potrace 1.16, written by Peter Selinger 2001-2019
</metadata>
<g transform="translate(0.000000,84.000000) scale(0.100000,-0.100000)"
fill="#000000" stroke="none">
<path d="M0 420 l0 -420 480 0 480 0 0 420 0 420 -480 0 -480 0 0 -420z m474
219 c-3 -5 -1 -9 5 -9 5 0 13 5 16 10 9 15 41 12 55 -5 10 -12 10 -15 -4 -15
-15 0 -24 -20 -8 -20 4 -1 18 -10 31 -21 17 -14 21 -23 14 -30 -17 -17 -3 -49
23 -55 13 -3 22 -10 19 -14 -3 -5 13 -6 35 -3 33 5 45 2 65 -17 55 -51 12 -80
-82 -56 -74 19 -73 19 -73 2 0 -8 -7 -16 -15 -20 -10 -4 -15 1 -15 14 0 15 -7
20 -29 20 -17 0 -33 5 -36 10 -3 6 -22 10 -42 10 -32 0 -34 -2 -22 -17 13 -15
12 -15 -16 -1 -16 9 -45 19 -62 23 -60 12 -36 26 35 19 98 -9 96 -10 109 19 9
18 7 32 -5 57 -13 26 -13 35 -3 38 9 3 7 10 -9 27 -22 23 -18 58 6 48 8 -3 11
-9 8 -14z"/>
<path d="M480 560 c0 -5 5 -10 10 -10 6 0 10 5 10 10 0 6 -4 10 -10 10 -5 0
-10 -4 -10 -10z"/>
<path d="M540 530 c0 -5 5 -10 10 -10 6 0 10 5 10 10 0 6 -4 10 -10 10 -5 0
-10 -4 -10 -10z"/>
<path d="M492 486 c-15 -33 -11 -44 7 -22 7 8 11 23 9 32 -2 14 -6 11 -16 -10z"/>
</g>
</svg>
