<?xml version="1.0" standalone="no"?>
<!DOCTYPE svg PUBLIC "-//W3C//DTD SVG 20010904//EN"
 "http://www.w3.org/TR/2001/REC-SVG-20010904/DTD/svg10.dtd">
<svg version="1.0" xmlns="http://www.w3.org/2000/svg"
 width="96.000000pt" height="84.000000pt" viewBox="0 0 96.000000 84.000000"
 preserveAspectRatio="xMidYMid meet">
<metadata>
Created by potrace 1.16, written by Peter Selinger 2001-2019
</metadata>
<g transform="translate(0.000000,84.000000) scale(0.100000,-0.100000)"
fill="#000000" stroke="none">
<path d="M0 420 l0 -420 202 0 203 0 -37 26 c-33 24 -35 28 -26 54 5 16 29 47
53 69 49 45 80 85 119 154 26 45 26 49 9 53 -15 4 -18 13 -15 42 2 28 1 33 -7
22 -6 -8 -11 -34 -11 -57 0 -58 -15 -62 -30 -8 -12 43 -11 47 14 83 29 42 34
82 11 82 -12 0 -15 14 -15 69 0 60 3 72 23 88 27 22 47 76 45 126 l-1 37 -269
0 -268 0 0 -420z"/>
<path d="M600 823 c0 -10 -9 -32 -19 -50 -22 -36 -24 -89 -5 -117 13 -19 9
-73 -7 -91 -15 -16 -10 -35 21 -79 27 -37 29 -46 20 -70 -7 -18 -7 -41 0 -72
6 -25 17 -105 26 -177 8 -73 17 -140 20 -149 5 -16 21 -18 155 -18 l149 0 0
420 0 420 -180 0 c-165 0 -180 -1 -180 -17z"/>
</g>
</svg>
