<?xml version="1.0" standalone="no"?>
<!DOCTYPE svg PUBLIC "-//W3C//DTD SVG 20010904//EN"
 "http://www.w3.org/TR/2001/REC-SVG-20010904/DTD/svg10.dtd">
<svg version="1.0" xmlns="http://www.w3.org/2000/svg"
 width="96.000000pt" height="84.000000pt" viewBox="0 0 96.000000 84.000000"
 preserveAspectRatio="xMidYMid meet">
<metadata>
Created by potrace 1.16, written by Peter Selinger 2001-2019
</metadata>
<g transform="translate(0.000000,84.000000) scale(0.100000,-0.100000)"
fill="#000000" stroke="none">
<path d="M0 420 l1 -420 187 0 187 1 -38 33 -39 32 15 36 c10 24 34 49 74 76
80 54 82 58 73 116 -4 27 -3 65 1 85 11 47 11 51 -2 51 -13 0 -98 52 -99 61 0
3 22 11 48 19 l49 13 -2 59 c-1 45 3 65 17 84 44 55 113 7 102 -70 -4 -22 -11
-47 -16 -53 -7 -9 -1 -24 22 -49 28 -32 31 -42 27 -77 -3 -22 1 -72 8 -112 8
-39 17 -124 21 -188 l7 -117 158 0 159 0 0 420 0 420 -480 0 -480 0 0 -420z"/>
<path d="M496 392 c-2 -4 -8 -37 -11 -72 l-7 -65 26 37 c30 42 33 58 11 58
-11 0 -14 7 -9 25 6 24 1 34 -10 17z"/>
</g>
</svg>
