<?xml version="1.0" standalone="no"?>
<!DOCTYPE svg PUBLIC "-//W3C//DTD SVG 20010904//EN"
 "http://www.w3.org/TR/2001/REC-SVG-20010904/DTD/svg10.dtd">
<svg version="1.0" xmlns="http://www.w3.org/2000/svg"
 width="96.000000pt" height="84.000000pt" viewBox="0 0 96.000000 84.000000"
 preserveAspectRatio="xMidYMid meet">
<metadata>
Created by potrace 1.16, written by Peter Selinger 2001-2019
</metadata>
<g transform="translate(0.000000,84.000000) scale(0.100000,-0.100000)"
fill="#000000" stroke="none">
<path d="M0 675 l0 -165 23 5 c12 3 66 9 121 13 84 7 104 5 138 -10 22 -10 45
-18 52 -18 18 0 78 68 71 80 -4 6 -2 16 3 23 5 7 10 28 10 47 1 38 38 80 72
80 19 0 69 -52 71 -73 7 -70 5 -98 -7 -108 -21 -17 -18 -25 28 -68 l43 -39
-13 -47 c-7 -25 -10 -51 -7 -56 4 -5 15 -60 25 -121 11 -62 25 -137 31 -165
l12 -53 144 0 143 0 0 420 0 420 -480 0 -480 0 0 -165z"/>
<path d="M440 465 c6 -8 18 -34 25 -57 l14 -43 0 35 c1 55 -9 80 -31 80 -17 0
-18 -3 -8 -15z"/>
<path d="M420 430 c0 -16 -49 -23 -65 -10 -13 11 -23 10 -55 0 -38 -13 -157
-10 -257 6 l-43 7 0 -217 0 -216 124 0 124 0 19 37 c14 29 33 45 86 71 52 26
77 47 108 88 42 57 47 79 24 110 -8 10 -15 27 -15 36 0 12 -5 15 -16 11 -14
-5 -16 -2 -10 21 8 31 0 66 -15 66 -5 0 -9 -4 -9 -10z"/>
</g>
</svg>
