<?xml version="1.0" standalone="no"?>
<!DOCTYPE svg PUBLIC "-//W3C//DTD SVG 20010904//EN"
 "http://www.w3.org/TR/2001/REC-SVG-20010904/DTD/svg10.dtd">
<svg version="1.0" xmlns="http://www.w3.org/2000/svg"
 width="96.000000pt" height="84.000000pt" viewBox="0 0 96.000000 84.000000"
 preserveAspectRatio="xMidYMid meet">
<metadata>
Created by potrace 1.16, written by Peter Selinger 2001-2019
</metadata>
<g transform="translate(0.000000,84.000000) scale(0.100000,-0.100000)"
fill="#000000" stroke="none">
<path d="M2 669 l3 -172 45 -14 c64 -19 132 -3 213 51 24 16 36 18 98 9 38 -5
68 -7 66 -4 -26 46 -38 91 -34 124 5 40 37 82 67 92 28 9 69 -12 90 -47 24
-40 28 -144 6 -173 -13 -17 -10 -23 28 -56 l41 -37 1 -78 c1 -44 13 -140 27
-214 15 -74 27 -138 27 -142 0 -5 63 -8 140 -8 l140 0 0 420 0 420 -480 0
-480 0 2 -171z"/>
<path d="M344 462 l-32 -3 24 -24 c20 -20 24 -34 24 -80 0 -48 -3 -55 -19 -55
-30 0 -35 18 -11 38 17 14 20 24 14 46 -8 32 -28 43 -48 27 -8 -7 -18 -11 -22
-10 -5 1 -16 1 -24 0 -12 -1 -12 -3 -2 -10 21 -13 -34 -24 -58 -11 -28 15 -89
12 -143 -7 l-47 -17 0 -178 0 -178 173 0 173 0 41 35 c33 28 143 198 143 220
0 4 -13 11 -29 16 -27 9 -28 12 -18 39 12 33 -7 139 -26 145 -23 7 -83 11
-113 7z"/>
</g>
</svg>
