<?xml version="1.0" standalone="no"?>
<!DOCTYPE svg PUBLIC "-//W3C//DTD SVG 20010904//EN"
 "http://www.w3.org/TR/2001/REC-SVG-20010904/DTD/svg10.dtd">
<svg version="1.0" xmlns="http://www.w3.org/2000/svg"
 width="96.000000pt" height="84.000000pt" viewBox="0 0 96.000000 84.000000"
 preserveAspectRatio="xMidYMid meet">
<metadata>
Created by potrace 1.16, written by Peter Selinger 2001-2019
</metadata>
<g transform="translate(0.000000,84.000000) scale(0.100000,-0.100000)"
fill="#000000" stroke="none">
<path d="M0 654 l0 -186 26 6 c16 4 23 3 19 -3 -3 -7 0 -8 9 -5 9 3 16 9 16
13 0 4 21 18 48 30 46 21 53 22 202 13 85 -5 156 -8 158 -7 2 2 -9 16 -23 31
-68 74 -75 158 -17 201 45 33 65 35 103 10 43 -29 56 -56 64 -137 6 -57 4 -68
-13 -86 -23 -24 -21 -28 37 -74 l43 -34 -6 -71 c-4 -46 -2 -83 5 -101 6 -16
12 -36 13 -44 1 -8 10 -59 21 -112 l19 -98 118 0 118 0 0 420 0 420 -480 0
-480 0 0 -186z m870 -352 c0 -13 -12 -22 -22 -16 -10 6 -1 24 13 24 5 0 9 -4
9 -8z m-120 -91 c0 -12 -20 -25 -27 -18 -7 7 6 27 18 27 5 0 9 -4 9 -9z"/>
<path d="M217 433 l-28 -4 26 -30 c32 -39 34 -100 5 -129 -21 -21 -29 -23 -54
-14 -25 10 -19 32 10 36 34 4 49 27 40 61 -7 31 -48 46 -71 27 -11 -9 -22 -9
-46 -1 -39 13 -49 14 -29 1 12 -7 10 -11 -10 -19 -22 -8 -22 -10 -5 -11 18 -1
17 -2 -4 -11 -14 -5 -31 -7 -38 -5 -10 4 -13 -28 -13 -164 l0 -170 219 0 220
0 19 28 c34 50 92 160 92 176 0 9 -8 16 -19 16 -24 0 -32 19 -19 44 12 23 2
78 -22 127 -14 27 -27 38 -51 43 -33 6 -175 6 -222 -1z m-120 -215 c-3 -8 -6
-5 -6 6 -1 11 2 17 5 13 3 -3 4 -12 1 -19z"/>
</g>
</svg>
