<?xml version="1.0" standalone="no"?>
<!DOCTYPE svg PUBLIC "-//W3C//DTD SVG 20010904//EN"
 "http://www.w3.org/TR/2001/REC-SVG-20010904/DTD/svg10.dtd">
<svg version="1.0" xmlns="http://www.w3.org/2000/svg"
 width="96.000000pt" height="84.000000pt" viewBox="0 0 96.000000 84.000000"
 preserveAspectRatio="xMidYMid meet">
<metadata>
Created by potrace 1.16, written by Peter Selinger 2001-2019
</metadata>
<g transform="translate(0.000000,84.000000) scale(0.100000,-0.100000)"
fill="#000000" stroke="none">
<path d="M0 640 c0 -230 -5 -221 96 -169 l59 30 170 -6 c94 -3 182 -9 198 -11
35 -7 37 17 2 40 -14 9 -25 23 -25 32 0 8 -7 17 -15 20 -8 3 -19 21 -25 39
-15 46 15 105 64 129 73 34 119 -4 142 -118 15 -70 15 -79 0 -101 -9 -13 -22
-22 -29 -19 -7 2 20 -30 60 -71 70 -72 87 -98 62 -92 -7 1 -16 -14 -21 -32 -9
-33 -7 -37 31 -69 44 -36 66 -92 55 -137 -8 -32 -24 -22 -24 15 0 27 -33 60
-46 47 -3 -3 5 -36 17 -73 12 -38 24 -75 25 -81 2 -9 28 -13 84 -13 l80 0 0
420 0 420 -480 0 -480 -1 0 -199z m928 -312 c-3 -7 -12 -14 -21 -16 -12 -2
-15 1 -11 12 7 19 38 22 32 4z"/>
<path d="M245 413 c-65 -6 -69 -10 -46 -39 25 -32 26 -55 6 -94 -17 -34 -46
-45 -75 -30 -27 14 -16 30 20 30 53 0 53 81 0 88 -12 2 -26 -2 -31 -10 -7 -10
-12 -11 -29 0 -24 15 -84 17 -60 2 13 -9 13 -10 0 -10 -13 0 -13 -1 0 -10 13
-8 11 -11 -7 -16 -23 -6 -23 -9 -23 -165 l0 -159 259 0 259 0 37 68 c48 87 54
119 23 124 -15 2 -21 9 -19 18 15 52 11 90 -13 138 -19 38 -32 52 -53 56 -42
8 -203 14 -248 9z"/>
</g>
</svg>
