<?xml version="1.0" standalone="no"?>
<!DOCTYPE svg PUBLIC "-//W3C//DTD SVG 20010904//EN"
 "http://www.w3.org/TR/2001/REC-SVG-20010904/DTD/svg10.dtd">
<svg version="1.0" xmlns="http://www.w3.org/2000/svg"
 width="96.000000pt" height="84.000000pt" viewBox="0 0 96.000000 84.000000"
 preserveAspectRatio="xMidYMid meet">
<metadata>
Created by potrace 1.16, written by Peter Selinger 2001-2019
</metadata>
<g transform="translate(0.000000,84.000000) scale(0.100000,-0.100000)"
fill="#000000" stroke="none">
<path d="M0 631 l0 -209 45 -11 c49 -12 102 -4 190 32 46 18 66 19 228 14 140
-4 177 -2 177 8 0 7 -7 18 -15 25 -8 7 -15 18 -15 24 0 7 -11 22 -25 34 -29
25 -31 39 -11 86 36 86 143 87 175 3 15 -38 24 -130 13 -123 -5 3 -12 -7 -14
-23 -3 -23 5 -41 34 -81 28 -35 42 -66 47 -102 8 -45 15 -57 70 -108 l61 -56
0 348 0 348 -480 0 -480 0 0 -209z"/>
<path d="M305 367 c30 -47 -6 -120 -51 -103 -23 9 -16 24 14 28 23 3 27 8 27
33 0 29 -2 30 -50 32 -36 1 -54 -3 -62 -14 -10 -14 -17 -14 -38 -5 -28 13 -86
15 -122 6 -23 -6 -23 -9 -23 -175 l0 -169 304 0 305 0 26 57 c32 68 46 113 37
113 -4 0 -13 4 -21 9 -10 7 -11 13 -1 31 10 18 8 34 -11 90 -12 38 -29 72 -38
76 -9 3 -83 9 -165 12 l-148 5 17 -26z m-10 -257 c3 -5 1 -10 -4 -10 -6 0 -11
5 -11 10 0 6 2 10 4 10 3 0 8 -4 11 -10z"/>
<path d="M815 170 c4 -19 11 -40 15 -45 5 -6 18 -36 30 -68 21 -56 22 -57 61
-57 35 0 39 3 39 25 0 26 -15 34 -23 12 -3 -6 -6 7 -6 31 -1 26 -6 42 -13 42
-7 0 -34 21 -61 48 l-49 47 7 -35z"/>
</g>
</svg>
