<?xml version="1.0" standalone="no"?>
<!DOCTYPE svg PUBLIC "-//W3C//DTD SVG 20010904//EN"
 "http://www.w3.org/TR/2001/REC-SVG-20010904/DTD/svg10.dtd">
<svg version="1.0" xmlns="http://www.w3.org/2000/svg"
 width="96.000000pt" height="84.000000pt" viewBox="0 0 96.000000 84.000000"
 preserveAspectRatio="xMidYMid meet">
<metadata>
Created by potrace 1.16, written by Peter Selinger 2001-2019
</metadata>
<g transform="translate(0.000000,84.000000) scale(0.100000,-0.100000)"
fill="#000000" stroke="none">
<path d="M0 635 c0 -186 1 -204 17 -198 10 4 14 2 10 -4 -11 -17 180 -34 243
-21 14 2 43 13 65 22 36 17 55 17 195 9 85 -6 159 -7 163 -3 5 4 -4 27 -20 50
-50 76 -52 80 -41 111 23 66 104 91 147 45 33 -35 54 -139 35 -174 -12 -23
-11 -30 7 -57 21 -32 36 -63 65 -135 21 -53 31 -68 56 -81 17 -9 18 3 18 316
l0 325 -480 0 -480 0 0 -205z m870 -155 c0 -5 -4 -10 -9 -10 -6 0 -13 5 -16
10 -3 6 1 10 9 10 9 0 16 -4 16 -10z"/>
<path d="M403 383 l-31 -4 16 -28 c15 -26 15 -30 -1 -55 -17 -26 -50 -35 -62
-17 -3 5 7 11 22 13 22 2 29 9 31 31 2 15 0 27 -5 28 -54 7 -86 4 -90 -8 -4
-10 -13 -12 -27 -7 -11 4 -74 7 -138 8 l-118 1 0 -172 0 -173 333 0 332 0 23
58 c30 71 38 112 23 112 -7 0 -9 13 -6 38 7 41 -23 140 -46 152 -15 8 -184 31
-209 28 -8 0 -29 -3 -47 -5z m-203 -69 c0 -8 -5 -12 -10 -9 -6 4 -8 11 -5 16
9 14 15 11 15 -7z"/>
<path d="M860 174 c0 -9 14 -46 30 -84 17 -38 30 -73 30 -79 0 -6 9 -11 20
-11 17 0 20 7 20 48 0 41 -6 53 -41 95 -42 49 -59 58 -59 31z"/>
</g>
</svg>
