<?xml version="1.0" standalone="no"?>
<!DOCTYPE svg PUBLIC "-//W3C//DTD SVG 20010904//EN"
 "http://www.w3.org/TR/2001/REC-SVG-20010904/DTD/svg10.dtd">
<svg version="1.0" xmlns="http://www.w3.org/2000/svg"
 width="96.000000pt" height="84.000000pt" viewBox="0 0 96.000000 84.000000"
 preserveAspectRatio="xMidYMid meet">
<metadata>
Created by potrace 1.16, written by Peter Selinger 2001-2019
</metadata>
<g transform="translate(0.000000,84.000000) scale(0.100000,-0.100000)"
fill="#000000" stroke="none">
<path d="M0 623 l0 -218 173 0 c158 1 175 3 214 23 41 21 47 22 200 12 161 -9
189 -5 160 24 -9 9 -19 25 -22 36 -3 11 -10 20 -15 20 -5 0 -14 9 -20 20 -17
32 5 87 44 111 41 25 59 24 94 -6 43 -36 71 -160 43 -188 -11 -11 -5 -32 20
-68 10 -14 29 -55 43 -90 l25 -64 0 303 1 302 -480 0 -480 0 0 -217z m945 -63
c3 -5 1 -10 -4 -10 -6 0 -11 5 -11 10 0 6 2 10 4 10 3 0 8 -4 11 -10z m-720
-99 c-3 -6 -11 -11 -17 -11 -6 0 -6 6 2 15 14 17 26 13 15 -4z"/>
<path d="M440 377 c0 -3 5 -17 11 -31 10 -20 9 -30 -5 -51 -9 -14 -25 -25 -36
-25 -27 0 -25 18 3 22 28 4 37 52 11 62 -10 4 -22 2 -27 -3 -7 -7 -15 -7 -25
1 -11 10 -17 8 -28 -6 -9 -13 -18 -16 -31 -10 -10 4 -63 8 -118 9 -55 0 -121
4 -147 9 l-48 8 0 -181 0 -181 360 0 360 0 11 27 c6 16 17 42 26 58 22 43 25
82 7 89 -12 5 -13 10 -4 27 19 34 -17 148 -50 161 -28 11 -270 24 -270 15z"/>
<path d="M915 180 c-3 -5 5 -34 19 -63 l25 -52 1 46 c0 33 -5 51 -19 63 -13
12 -21 14 -26 6z"/>
</g>
</svg>
