<?xml version="1.0" standalone="no"?>
<!DOCTYPE svg PUBLIC "-//W3C//DTD SVG 20010904//EN"
 "http://www.w3.org/TR/2001/REC-SVG-20010904/DTD/svg10.dtd">
<svg version="1.0" xmlns="http://www.w3.org/2000/svg"
 width="96.000000pt" height="84.000000pt" viewBox="0 0 96.000000 84.000000"
 preserveAspectRatio="xMidYMid meet">
<metadata>
Created by potrace 1.16, written by Peter Selinger 2001-2019
</metadata>
<g transform="translate(0.000000,84.000000) scale(0.100000,-0.100000)"
fill="#000000" stroke="none">
<path d="M0 420 l0 -420 480 0 480 0 0 420 0 420 -480 0 -480 0 0 -420z m473
218 c3 -10 8 -10 21 1 14 12 21 12 44 1 22 -11 24 -14 10 -17 -24 -6 -23 -10
13 -40 20 -17 27 -29 20 -36 -12 -12 -2 -38 23 -58 14 -12 32 -15 58 -11 45 6
78 -17 78 -53 0 -31 -34 -38 -94 -20 -62 19 -76 19 -76 0 0 -8 -7 -15 -15 -15
-8 0 -15 7 -15 15 0 10 -10 15 -29 15 -17 0 -33 5 -36 10 -3 6 -22 10 -42 10
-32 0 -34 -2 -22 -17 13 -15 12 -15 -16 -1 -16 9 -45 19 -62 23 -63 13 -35 26
42 19 54 -5 79 -3 90 6 18 15 19 53 3 81 -11 18 -10 23 0 26 10 4 8 11 -8 28
-12 13 -19 28 -15 34 8 15 22 14 28 -1z"/>
<path d="M480 560 c0 -5 5 -10 10 -10 6 0 10 5 10 10 0 6 -4 10 -10 10 -5 0
-10 -4 -10 -10z"/>
<path d="M540 529 c0 -5 5 -7 10 -4 6 3 10 8 10 11 0 2 -4 4 -10 4 -5 0 -10
-5 -10 -11z"/>
<path d="M491 492 c-7 -13 -11 -26 -8 -28 8 -8 29 25 25 38 -3 8 -9 4 -17 -10z"/>
</g>
</svg>
