<?xml version="1.0" standalone="no"?>
<!DOCTYPE svg PUBLIC "-//W3C//DTD SVG 20010904//EN"
 "http://www.w3.org/TR/2001/REC-SVG-20010904/DTD/svg10.dtd">
<svg version="1.0" xmlns="http://www.w3.org/2000/svg"
 width="96.000000pt" height="84.000000pt" viewBox="0 0 96.000000 84.000000"
 preserveAspectRatio="xMidYMid meet">
<metadata>
Created by potrace 1.16, written by Peter Selinger 2001-2019
</metadata>
<g transform="translate(0.000000,84.000000) scale(0.100000,-0.100000)"
fill="#000000" stroke="none">
<path d="M0 620 c0 -121 3 -220 8 -220 4 0 47 5 97 10 66 7 106 6 150 -3 59
-12 123 -8 170 12 73 32 89 34 208 27 67 -4 148 -9 180 -13 49 -5 57 -3 57 11
0 9 -6 19 -14 22 -8 3 -16 18 -20 35 -3 17 -12 29 -21 29 -25 0 -37 46 -21 83
22 52 59 80 98 75 18 -3 41 -8 51 -13 15 -6 17 1 17 79 l0 86 -480 0 -480 0 0
-220z"/>
<path d="M516 371 c-4 -5 -1 -11 6 -13 6 -2 11 -19 11 -38 0 -37 -33 -73 -58
-63 -24 8 -17 23 10 23 18 0 26 7 31 24 9 37 0 44 -56 44 -36 0 -50 -4 -50
-14 0 -18 -9 -18 -54 1 -29 12 -49 14 -89 7 -48 -9 -86 -7 -219 14 l-48 7 0
-182 0 -181 423 0 422 0 27 53 c39 75 43 94 19 102 -16 5 -18 12 -14 46 5 36
-6 77 -37 139 -13 28 -309 56 -324 31z"/>
</g>
</svg>
