<?xml version="1.0" standalone="no"?>
<!DOCTYPE svg PUBLIC "-//W3C//DTD SVG 20010904//EN"
 "http://www.w3.org/TR/2001/REC-SVG-20010904/DTD/svg10.dtd">
<svg version="1.0" xmlns="http://www.w3.org/2000/svg"
 width="96.000000pt" height="84.000000pt" viewBox="0 0 96.000000 84.000000"
 preserveAspectRatio="xMidYMid meet">
<metadata>
Created by potrace 1.16, written by Peter Selinger 2001-2019
</metadata>
<g transform="translate(0.000000,84.000000) scale(0.100000,-0.100000)"
fill="#000000" stroke="none">
<path d="M0 619 l0 -222 52 7 c128 16 224 18 283 4 40 -10 72 -12 95 -6 19 5
46 10 60 12 14 1 48 13 75 25 47 21 59 23 180 17 72 -4 149 -9 173 -12 l42 -6
0 201 0 201 -480 0 -480 0 0 -221z"/>
<path d="M698 372 l-68 -3 16 -24 c19 -28 13 -85 -11 -105 -17 -14 -57 -10
-63 8 -2 8 7 12 27 12 37 0 57 29 41 60 -8 15 -21 21 -48 20 -20 0 -48 1 -62
2 -19 2 -26 -2 -28 -18 l-3 -22 -52 20 c-45 17 -58 18 -114 8 -66 -13 -139 -8
-256 16 -38 8 -70 14 -73 14 -2 0 -4 -81 -4 -180 l0 -180 480 0 480 0 0 175
c0 173 0 175 -22 180 -46 11 -175 20 -240 17z"/>
</g>
</svg>
