<?xml version="1.0" standalone="no"?>
<!DOCTYPE svg PUBLIC "-//W3C//DTD SVG 20010904//EN"
 "http://www.w3.org/TR/2001/REC-SVG-20010904/DTD/svg10.dtd">
<svg version="1.0" xmlns="http://www.w3.org/2000/svg"
 width="96.000000pt" height="84.000000pt" viewBox="0 0 96.000000 84.000000"
 preserveAspectRatio="xMidYMid meet">
<metadata>
Created by potrace 1.16, written by Peter Selinger 2001-2019
</metadata>
<g transform="translate(0.000000,84.000000) scale(0.100000,-0.100000)"
fill="#000000" stroke="none">
<path d="M0 620 l0 -220 23 0 c12 0 72 7 132 15 139 18 224 19 300 0 80 -19
112 -19 178 4 31 11 65 17 76 14 12 -3 27 2 36 11 9 9 22 16 30 16 7 0 26 7
41 15 16 8 55 15 87 15 l57 0 0 175 0 175 -480 0 -480 0 0 -220z"/>
<path d="M900 362 c0 -5 7 -17 15 -28 22 -29 19 -106 -6 -138 -17 -22 -28 -27
-58 -24 -25 2 -37 8 -39 21 -3 14 4 17 37 17 63 0 93 58 51 100 -21 21 -84 28
-95 11 -3 -6 -19 -4 -40 5 -19 8 -47 14 -62 13 -25 0 -26 -1 -8 -9 18 -8 18
-9 -5 -10 -23 -1 -24 -2 -7 -14 32 -24 -6 -26 -67 -4 -53 20 -62 20 -141 8
-96 -15 -236 -9 -358 15 -129 25 -117 41 -117 -155 l0 -170 480 0 480 0 0 185
0 185 -30 0 c-16 0 -30 -4 -30 -8z"/>
</g>
</svg>
