<?xml version="1.0" standalone="no"?>
<!DOCTYPE svg PUBLIC "-//W3C//DTD SVG 20010904//EN"
 "http://www.w3.org/TR/2001/REC-SVG-20010904/DTD/svg10.dtd">
<svg version="1.0" xmlns="http://www.w3.org/2000/svg"
 width="96.000000pt" height="84.000000pt" viewBox="0 0 96.000000 84.000000"
 preserveAspectRatio="xMidYMid meet">
<metadata>
Created by potrace 1.16, written by Peter Selinger 2001-2019
</metadata>
<g transform="translate(0.000000,84.000000) scale(0.100000,-0.100000)"
fill="#000000" stroke="none">
<path d="M0 615 l0 -225 24 0 c13 0 84 9 158 20 158 24 321 26 398 5 77 -21
124 -18 204 10 40 14 80 22 95 19 18 -4 32 0 40 10 8 9 20 16 27 16 11 0 14
35 14 185 l0 185 -480 0 -480 0 0 -225z"/>
<path d="M0 165 l0 -165 480 0 480 0 0 154 c0 85 -3 157 -8 160 -4 2 -25 7
-47 10 -22 3 -34 3 -27 0 21 -10 13 -24 -15 -24 l-28 -1 24 -13 24 -13 -28 -5
c-16 -3 -53 3 -83 13 -62 21 -130 24 -182 8 -63 -19 -263 -12 -425 15 -82 14
-153 26 -157 26 -5 0 -8 -74 -8 -165z"/>
</g>
</svg>
