<?xml version="1.0" standalone="no"?>
<!DOCTYPE svg PUBLIC "-//W3C//DTD SVG 20010904//EN"
 "http://www.w3.org/TR/2001/REC-SVG-20010904/DTD/svg10.dtd">
<svg version="1.0" xmlns="http://www.w3.org/2000/svg"
 width="96.000000pt" height="84.000000pt" viewBox="0 0 96.000000 84.000000"
 preserveAspectRatio="xMidYMid meet">
<metadata>
Created by potrace 1.16, written by Peter Selinger 2001-2019
</metadata>
<g transform="translate(0.000000,84.000000) scale(0.100000,-0.100000)"
fill="#000000" stroke="none">
<path d="M0 600 l0 -240 23 0 c12 0 76 9 143 20 168 27 349 43 414 35 30 -3
87 -13 127 -22 65 -15 77 -15 135 -1 35 9 75 21 91 27 l27 11 0 205 0 205
-480 0 -480 0 0 -240z"/>
<path d="M0 154 l0 -154 480 0 480 0 0 115 0 115 -27 11 c-16 6 -54 17 -86 26
-54 13 -65 13 -135 -4 -136 -32 -284 -23 -689 41 l-23 3 0 -153z"/>
</g>
</svg>
