<?xml version="1.0" standalone="no"?>
<!DOCTYPE svg PUBLIC "-//W3C//DTD SVG 20010904//EN"
 "http://www.w3.org/TR/2001/REC-SVG-20010904/DTD/svg10.dtd">
<svg version="1.0" xmlns="http://www.w3.org/2000/svg"
 width="96.000000pt" height="84.000000pt" viewBox="0 0 96.000000 84.000000"
 preserveAspectRatio="xMidYMid meet">
<metadata>
Created by potrace 1.16, written by Peter Selinger 2001-2019
</metadata>
<g transform="translate(0.000000,84.000000) scale(0.100000,-0.100000)"
fill="#000000" stroke="none">
<path d="M0 586 l0 -255 33 5 c17 2 104 16 192 30 212 33 435 42 528 20 72
-17 125 -20 176 -10 l31 6 0 229 0 229 -95 0 c-52 0 -95 -4 -95 -9 0 -17 -33
-21 -50 -6 -14 13 -67 15 -368 15 l-352 0 0 -254z"/>
<path d="M0 146 l0 -146 480 0 480 0 0 119 c0 130 5 120 -63 135 -16 4 -76 -3
-135 -15 -130 -27 -272 -23 -512 15 -85 13 -176 27 -202 31 l-48 6 0 -145z"/>
</g>
</svg>
