<?xml version="1.0" standalone="no"?>
<!DOCTYPE svg PUBLIC "-//W3C//DTD SVG 20010904//EN"
 "http://www.w3.org/TR/2001/REC-SVG-20010904/DTD/svg10.dtd">
<svg version="1.0" xmlns="http://www.w3.org/2000/svg"
 width="96.000000pt" height="84.000000pt" viewBox="0 0 96.000000 84.000000"
 preserveAspectRatio="xMidYMid meet">
<metadata>
Created by potrace 1.16, written by Peter Selinger 2001-2019
</metadata>
<g transform="translate(0.000000,84.000000) scale(0.100000,-0.100000)"
fill="#000000" stroke="none">
<path d="M0 559 l0 -281 63 7 c34 4 130 18 212 32 200 33 443 41 538 19 38 -9
86 -16 108 -16 l39 0 0 158 -1 157 -23 -45 c-18 -33 -30 -45 -47 -46 -13 -1
-32 -5 -43 -9 -16 -7 -17 -5 -11 16 18 57 26 70 49 79 43 16 61 127 30 176
l-17 25 -23 -22 c-20 -19 -24 -20 -30 -6 -3 9 -3 21 1 27 4 7 -22 10 -78 10
l-85 0 -7 -36 c-3 -20 -14 -52 -23 -71 -15 -31 -20 -34 -48 -30 -30 5 -32 3
-44 -36 -22 -78 -67 -122 -58 -57 6 37 -13 35 -26 -2 -6 -18 -4 -35 8 -58 20
-41 20 -44 1 -36 -11 4 -15 -1 -15 -19 0 -14 -7 -34 -17 -44 -16 -19 -17 -19
-35 4 -36 46 -15 165 46 263 32 52 32 54 17 87 l-16 34 -232 1 -233 0 0 -281z"/>
<path d="M0 121 l0 -121 480 0 480 0 0 100 0 100 -42 0 c-24 0 -77 -7 -118
-16 -100 -21 -313 -13 -520 20 -85 13 -183 28 -217 31 l-63 7 0 -121z"/>
</g>
</svg>
