<?xml version="1.0" standalone="no"?>
<!DOCTYPE svg PUBLIC "-//W3C//DTD SVG 20010904//EN"
 "http://www.w3.org/TR/2001/REC-SVG-20010904/DTD/svg10.dtd">
<svg version="1.0" xmlns="http://www.w3.org/2000/svg"
 width="96.000000pt" height="84.000000pt" viewBox="0 0 96.000000 84.000000"
 preserveAspectRatio="xMidYMid meet">
<metadata>
Created by potrace 1.16, written by Peter Selinger 2001-2019
</metadata>
<g transform="translate(0.000000,84.000000) scale(0.100000,-0.100000)"
fill="#000000" stroke="none">
<path d="M0 550 l0 -291 53 7 c28 3 92 12 142 18 l90 12 7 59 c5 40 22 90 52
150 40 80 43 91 30 109 -8 11 -14 26 -14 33 0 7 30 45 66 85 107 119 124 108
-171 108 l-255 0 0 -290z"/>
<path d="M655 763 c-27 -42 -60 -102 -73 -132 -13 -31 -33 -75 -44 -98 -20
-43 -20 -43 -48 -28 -36 18 -40 19 -40 1 0 -7 -11 -33 -25 -58 -27 -49 -25
-88 6 -88 11 0 19 -5 19 -11 0 -7 -12 -9 -30 -7 -24 4 -30 1 -28 -11 3 -14 27
-16 173 -17 136 -1 188 -6 258 -23 49 -11 99 -21 113 -21 l24 0 -1 208 c0 125
-4 199 -9 187 -5 -11 -9 -32 -9 -47 -2 -83 -22 -126 -88 -198 -46 -48 -74 -70
-90 -70 -21 0 -23 2 -12 23 7 12 25 38 41 59 35 45 56 137 40 173 -15 31 -27
31 -56 0 -13 -14 -28 -25 -35 -25 -22 0 -10 30 38 94 35 46 46 67 38 75 -8 8
-6 21 6 46 9 20 17 38 17 40 0 3 -30 5 -67 5 l-68 0 -50 -77z"/>
<path d="M0 101 l0 -101 480 0 480 0 0 74 c0 74 0 75 -27 78 -16 2 -68 -1
-118 -6 -90 -9 -197 -3 -515 29 -74 8 -172 17 -217 20 l-83 7 0 -101z"/>
</g>
</svg>
