<?xml version="1.0" standalone="no"?>
<!DOCTYPE svg PUBLIC "-//W3C//DTD SVG 20010904//EN"
 "http://www.w3.org/TR/2001/REC-SVG-20010904/DTD/svg10.dtd">
<svg version="1.0" xmlns="http://www.w3.org/2000/svg"
 width="96.000000pt" height="84.000000pt" viewBox="0 0 96.000000 84.000000"
 preserveAspectRatio="xMidYMid meet">
<metadata>
Created by potrace 1.16, written by Peter Selinger 2001-2019
</metadata>
<g transform="translate(0.000000,84.000000) scale(0.100000,-0.100000)"
fill="#000000" stroke="none">
<path d="M0 547 l0 -293 118 14 c64 7 119 17 120 23 2 5 15 30 28 55 20 38 22
46 9 51 -22 8 -12 32 49 122 46 68 126 239 139 299 l5 22 -234 0 -234 0 0
-293z"/>
<path d="M612 777 c-7 -36 -36 -114 -66 -178 -30 -63 -62 -143 -71 -179 -22
-91 -34 -118 -53 -122 -10 -2 36 -8 100 -12 199 -15 179 -18 195 39 18 70 14
109 -14 113 -16 2 -26 -5 -38 -27 -8 -17 -20 -31 -25 -31 -23 0 -6 45 45 121
45 65 53 84 44 95 -9 11 -5 25 21 67 68 107 100 161 100 169 0 4 -51 8 -113 8
l-114 0 -11 -63z"/>
<path d="M937 525 c-17 -39 -22 -44 -43 -39 -23 6 -24 4 -24 -42 0 -67 -14
-111 -50 -155 l-29 -37 80 -22 c45 -12 83 -20 85 -17 3 2 3 83 2 180 l-3 177
-18 -45z"/>
<path d="M13 164 c-9 -4 -13 -31 -13 -85 l0 -79 480 0 480 0 0 44 c0 51 1 51
-112 66 -45 6 -114 15 -153 20 -38 6 -119 15 -180 21 -108 10 -110 10 -127
-13 l-18 -23 -6 23 c-11 39 -24 24 -24 -29 0 -67 -23 -62 -31 7 -6 47 -6 47
-7 -19 -3 -93 -25 -87 -32 9 -5 65 -6 67 -18 41 -7 -16 -12 -34 -12 -41 0 -25
-22 -76 -32 -76 -11 0 -6 69 7 116 6 20 2 20 -92 22 -54 0 -104 -1 -110 -4z"/>
</g>
</svg>
