<?xml version="1.0" standalone="no"?>
<!DOCTYPE svg PUBLIC "-//W3C//DTD SVG 20010904//EN"
 "http://www.w3.org/TR/2001/REC-SVG-20010904/DTD/svg10.dtd">
<svg version="1.0" xmlns="http://www.w3.org/2000/svg"
 width="96.000000pt" height="84.000000pt" viewBox="0 0 96.000000 84.000000"
 preserveAspectRatio="xMidYMid meet">
<metadata>
Created by potrace 1.16, written by Peter Selinger 2001-2019
</metadata>
<g transform="translate(0.000000,84.000000) scale(0.100000,-0.100000)"
fill="#000000" stroke="none">
<path d="M0 420 l0 -420 480 0 480 0 0 420 0 420 -480 0 -480 0 0 -420z m473
218 c3 -10 7 -10 20 0 18 16 49 9 69 -15 11 -14 10 -15 -10 -9 -29 10 -28 4 8
-35 20 -22 26 -37 20 -43 -17 -17 -11 -35 15 -42 14 -3 23 -9 21 -13 -2 -3 16
-4 41 -2 35 2 49 -1 64 -18 27 -29 24 -57 -6 -65 -14 -4 -33 -2 -43 3 -9 5
-36 12 -59 16 -36 6 -43 4 -43 -9 0 -9 -7 -16 -15 -16 -8 0 -15 7 -15 15 0 10
-10 15 -29 15 -17 0 -32 4 -35 9 -7 11 -86 19 -86 9 0 -5 5 -8 10 -8 6 0 10
-5 10 -10 0 -6 -10 -4 -22 4 -13 8 -38 17 -55 21 -18 4 -33 11 -33 16 0 7 29
8 79 3 73 -6 80 -5 90 14 6 11 11 31 11 44 0 13 5 29 10 34 7 7 0 20 -20 39
-16 16 -30 35 -30 42 0 17 27 17 33 1z m7 -74 c0 -8 -4 -12 -10 -9 -5 3 -10
10 -10 16 0 5 5 9 10 9 6 0 10 -7 10 -16z"/>
<path d="M491 492 c-7 -13 -11 -26 -8 -28 8 -8 29 25 25 38 -3 8 -9 4 -17 -10z"/>
</g>
</svg>
