<?xml version="1.0" standalone="no"?>
<!DOCTYPE svg PUBLIC "-//W3C//DTD SVG 20010904//EN"
 "http://www.w3.org/TR/2001/REC-SVG-20010904/DTD/svg10.dtd">
<svg version="1.0" xmlns="http://www.w3.org/2000/svg"
 width="96.000000pt" height="84.000000pt" viewBox="0 0 96.000000 84.000000"
 preserveAspectRatio="xMidYMid meet">
<metadata>
Created by potrace 1.16, written by Peter Selinger 2001-2019
</metadata>
<g transform="translate(0.000000,84.000000) scale(0.100000,-0.100000)"
fill="#000000" stroke="none">
<path d="M0 539 l0 -301 33 5 c17 4 70 9 115 13 80 6 85 8 103 38 17 27 17 32
4 42 -8 6 -15 15 -15 19 0 5 24 40 54 79 49 64 156 261 156 286 0 5 -6 10 -13
10 -22 0 -47 35 -54 74 l-6 36 -188 0 -189 0 0 -301z"/>
<path d="M625 828 c-2 -7 -12 -56 -21 -108 -14 -79 -27 -115 -79 -215 -54
-102 -104 -231 -93 -240 9 -7 128 -15 128 -8 0 4 22 45 49 90 27 46 45 85 40
89 -18 11 -8 42 33 105 47 73 85 146 121 237 l26 62 -100 0 c-71 0 -101 -4
-104 -12z"/>
<path d="M923 590 c-17 -41 -39 -104 -48 -140 -18 -71 -41 -120 -54 -120 -5 0
-11 -29 -13 -65 l-3 -65 74 -25 c41 -14 76 -23 78 -21 2 1 2 117 1 257 l-3
254 -32 -75z"/>
<path d="M601 267 c-12 -15 -5 -27 16 -27 7 0 13 9 13 20 0 23 -13 26 -29 7z"/>
<path d="M115 143 c-16 -2 -49 -6 -73 -9 l-42 -5 0 -65 0 -64 481 0 c452 0
480 1 477 18 -2 12 -31 27 -93 49 -106 37 -136 40 -160 13 -10 -11 -21 -17
-25 -15 -4 3 -13 -2 -20 -9 -6 -8 -25 -14 -42 -14 -31 1 -32 4 -13 64 9 28 -2
31 -119 40 -92 6 -96 6 -96 -14 0 -48 -25 -71 -32 -29 -3 17 -6 14 -12 -16
-10 -44 -32 -44 -29 -1 1 24 0 26 -7 9 -5 -11 -11 -28 -14 -38 -8 -25 -26 -11
-27 21 -1 24 -3 23 -12 -11 -6 -21 -17 -37 -25 -37 -11 0 -13 9 -7 46 3 26 9
53 12 62 4 10 1 13 -8 10 -8 -2 -15 -17 -17 -31 -4 -37 -22 -34 -22 3 0 32 -1
32 -75 23z"/>
</g>
</svg>
