<?xml version="1.0" standalone="no"?>
<!DOCTYPE svg PUBLIC "-//W3C//DTD SVG 20010904//EN"
 "http://www.w3.org/TR/2001/REC-SVG-20010904/DTD/svg10.dtd">
<svg version="1.0" xmlns="http://www.w3.org/2000/svg"
 width="96.000000pt" height="84.000000pt" viewBox="0 0 96.000000 84.000000"
 preserveAspectRatio="xMidYMid meet">
<metadata>
Created by potrace 1.16, written by Peter Selinger 2001-2019
</metadata>
<g transform="translate(0.000000,84.000000) scale(0.100000,-0.100000)"
fill="#000000" stroke="none">
<path d="M0 524 c0 -296 1 -315 18 -310 9 3 53 8 97 12 l81 6 22 39 c13 21 27
39 32 39 13 0 13 33 0 46 -7 7 10 34 55 85 77 85 175 243 175 281 0 19 -6 27
-24 32 -16 4 -29 19 -40 46 l-16 40 -200 0 -200 0 0 -316z"/>
<path d="M631 748 c-18 -134 -23 -149 -90 -253 -53 -81 -130 -250 -120 -259 2
-2 35 -6 72 -8 l68 -4 28 56 c24 49 26 59 15 75 -12 16 -7 31 40 119 56 105
126 293 126 339 0 26 -1 27 -64 27 l-63 0 -12 -92z"/>
<path d="M913 633 c-43 -102 -73 -197 -93 -296 -6 -31 -18 -63 -26 -71 -8 -8
-14 -30 -14 -49 l0 -35 90 -30 90 -31 0 305 c0 167 -1 304 -3 304 -2 0 -22
-44 -44 -97z"/>
<path d="M379 113 c-6 -6 -17 -9 -25 -6 -8 3 -21 0 -28 -6 -10 -9 -16 -9 -21
-1 -5 8 -11 8 -21 -1 -7 -6 -20 -9 -28 -6 -7 3 -18 1 -24 -5 -13 -13 -32 -2
-32 19 0 14 -12 15 -92 8 -51 -4 -96 -9 -100 -12 -5 -2 -8 -26 -8 -54 l0 -49
480 0 c264 0 480 2 480 4 0 8 -190 67 -207 64 -10 -1 -23 1 -30 5 -7 4 -14 -1
-18 -14 -4 -13 -12 -18 -22 -15 -9 4 -21 2 -27 -3 -13 -11 -55 -9 -74 2 -8 6
-8 14 0 32 6 14 9 27 6 30 -3 3 -49 9 -102 13 -73 6 -100 5 -107 -5z"/>
</g>
</svg>
