<?xml version="1.0" standalone="no"?>
<!DOCTYPE svg PUBLIC "-//W3C//DTD SVG 20010904//EN"
 "http://www.w3.org/TR/2001/REC-SVG-20010904/DTD/svg10.dtd">
<svg version="1.0" xmlns="http://www.w3.org/2000/svg"
 width="96.000000pt" height="84.000000pt" viewBox="0 0 96.000000 84.000000"
 preserveAspectRatio="xMidYMid meet">
<metadata>
Created by potrace 1.16, written by Peter Selinger 2001-2019
</metadata>
<g transform="translate(0.000000,84.000000) scale(0.100000,-0.100000)"
fill="#000000" stroke="none">
<path d="M0 527 l0 -314 48 8 c26 4 70 8 99 8 47 1 53 4 72 34 11 18 30 42 41
52 18 16 19 20 5 35 -14 15 -10 23 41 81 31 35 82 109 115 163 47 80 59 108
59 143 0 30 -4 43 -14 43 -8 0 -26 14 -39 30 l-26 30 -200 0 -201 0 0 -313z"/>
<path d="M636 818 c-2 -13 -11 -68 -20 -122 -12 -78 -22 -110 -47 -150 -56
-88 -91 -157 -119 -231 l-27 -73 36 -6 c20 -3 53 -6 73 -6 35 0 38 3 61 52 14
31 21 57 16 62 -16 18 -9 46 31 127 47 93 112 311 104 345 -5 21 -12 24 -55
24 -42 0 -49 -3 -53 -22z"/>
<path d="M930 790 c0 -27 -10 -73 -21 -102 -45 -113 -71 -197 -89 -292 -11
-54 -27 -110 -35 -123 -9 -13 -15 -38 -13 -55 3 -29 8 -32 96 -63 l92 -32 0
359 c0 312 -2 358 -15 358 -11 0 -15 -12 -15 -50z"/>
<path d="M388 125 c-3 -4 -35 -8 -71 -9 -35 -2 -69 -6 -76 -10 -7 -4 -19 -2
-27 5 -10 8 -40 10 -106 5 -50 -4 -95 -9 -100 -12 -4 -3 -8 -27 -8 -55 l0 -49
482 0 c265 0 478 4 472 8 -33 30 -281 97 -299 82 -9 -8 -15 -8 -20 0 -3 6 -10
8 -15 5 -5 -3 -20 1 -32 9 -24 15 -188 32 -200 21z"/>
</g>
</svg>
