<?xml version="1.0" standalone="no"?>
<!DOCTYPE svg PUBLIC "-//W3C//DTD SVG 20010904//EN"
 "http://www.w3.org/TR/2001/REC-SVG-20010904/DTD/svg10.dtd">
<svg version="1.0" xmlns="http://www.w3.org/2000/svg"
 width="96.000000pt" height="84.000000pt" viewBox="0 0 96.000000 84.000000"
 preserveAspectRatio="xMidYMid meet">
<metadata>
Created by potrace 1.16, written by Peter Selinger 2001-2019
</metadata>
<g transform="translate(0.000000,84.000000) scale(0.100000,-0.100000)"
fill="#000000" stroke="none">
<path d="M0 539 l0 -301 28 6 c29 6 197 26 222 26 24 0 74 68 61 84 -8 9 3 30
40 82 69 94 125 208 134 272 l7 54 -26 -17 c-17 -11 -35 -15 -51 -11 -27 7
-65 59 -65 89 0 15 -15 17 -175 17 l-175 0 0 -301z"/>
<path d="M626 813 c-3 -16 -10 -68 -16 -118 -10 -76 -19 -105 -60 -185 -42
-84 -95 -228 -86 -237 2 -2 33 -6 68 -10 l66 -6 7 32 c3 17 11 33 16 36 5 4 4
14 -3 24 -9 16 -6 34 19 98 17 43 41 125 53 182 20 91 21 111 11 157 -12 50
-15 54 -41 54 -23 0 -29 -5 -34 -27z"/>
<path d="M863 775 c5 -55 2 -80 -23 -161 -17 -54 -35 -140 -41 -193 -6 -53
-17 -106 -25 -118 -20 -32 -18 -82 4 -89 9 -3 54 -21 100 -39 l82 -33 0 349 0
349 -51 0 -52 0 6 -65z"/>
<path d="M120 159 c-127 -14 -120 -9 -120 -89 l0 -70 480 0 480 0 0 24 c0 20
-11 28 -77 54 -111 43 -182 62 -225 58 -22 -2 -42 2 -48 9 -15 18 -129 26
-235 17 -49 -5 -91 -5 -93 0 -4 10 -59 9 -162 -3z"/>
</g>
</svg>
