<?xml version="1.0" standalone="no"?>
<!DOCTYPE svg PUBLIC "-//W3C//DTD SVG 20010904//EN"
 "http://www.w3.org/TR/2001/REC-SVG-20010904/DTD/svg10.dtd">
<svg version="1.0" xmlns="http://www.w3.org/2000/svg"
 width="96.000000pt" height="84.000000pt" viewBox="0 0 96.000000 84.000000"
 preserveAspectRatio="xMidYMid meet">
<metadata>
Created by potrace 1.16, written by Peter Selinger 2001-2019
</metadata>
<g transform="translate(0.000000,84.000000) scale(0.100000,-0.100000)"
fill="#000000" stroke="none">
<path d="M0 544 c0 -278 1 -296 18 -289 18 7 186 31 284 41 60 6 70 15 72 70
1 12 14 40 29 62 15 23 43 79 62 126 28 67 35 98 35 148 -1 46 -3 58 -10 46
-6 -9 -26 -22 -46 -28 -34 -11 -38 -10 -62 14 -21 20 -26 35 -26 66 l1 40
-178 0 -179 0 0 -296z"/>
<path d="M636 801 c-12 -13 -22 -54 -31 -128 -10 -77 -22 -127 -43 -173 -16
-36 -36 -95 -45 -132 -17 -76 -16 -78 57 -78 36 0 45 4 55 26 7 16 8 31 2 38
-5 7 -1 33 11 71 32 98 46 238 32 318 -6 37 -13 70 -16 72 -3 3 -13 -4 -22
-14z"/>
<path d="M817 773 c-16 -4 -18 -12 -12 -61 4 -38 1 -79 -9 -122 -9 -36 -19
-108 -22 -160 -3 -52 -10 -105 -16 -116 -5 -12 -8 -29 -6 -39 3 -20 1 -18 113
-71 44 -21 83 -40 88 -42 4 -2 7 125 7 283 l0 286 -25 24 c-24 25 -68 31 -118
18z"/>
<path d="M305 213 c-75 -6 -210 -24 -258 -35 l-47 -10 0 -84 0 -84 480 0 480
0 0 39 c0 36 -3 40 -57 69 -92 48 -160 72 -216 74 -29 1 -55 6 -58 11 -8 11
-130 28 -143 19 -17 -10 -115 -11 -122 -1 -3 5 -8 8 -12 7 -4 -1 -25 -3 -47
-5z"/>
</g>
</svg>
