<?xml version="1.0" standalone="no"?>
<!DOCTYPE svg PUBLIC "-//W3C//DTD SVG 20010904//EN"
 "http://www.w3.org/TR/2001/REC-SVG-20010904/DTD/svg10.dtd">
<svg version="1.0" xmlns="http://www.w3.org/2000/svg"
 width="96.000000pt" height="84.000000pt" viewBox="0 0 96.000000 84.000000"
 preserveAspectRatio="xMidYMid meet">
<metadata>
Created by potrace 1.16, written by Peter Selinger 2001-2019
</metadata>
<g transform="translate(0.000000,84.000000) scale(0.100000,-0.100000)"
fill="#000000" stroke="none">
<path d="M0 530 c0 -171 2 -310 4 -310 2 0 23 7 47 15 77 28 192 54 284 65 91
11 109 21 99 53 -3 10 3 32 14 51 37 63 64 152 72 240 10 99 6 118 -17 86 -23
-33 -83 -25 -96 13 -11 33 7 84 31 90 10 3 -85 5 -210 6 l-228 1 0 -310z"/>
<path d="M638 740 c-12 -7 -18 -31 -23 -88 -4 -42 -20 -119 -36 -171 -16 -51
-29 -111 -29 -132 l0 -39 45 0 c38 0 47 4 54 23 5 12 5 26 1 31 -5 4 0 31 10
60 40 117 50 275 19 312 -13 16 -18 17 -41 4z"/>
<path d="M800 638 c0 -29 -7 -78 -15 -108 -8 -30 -15 -78 -15 -107 0 -28 -5
-64 -10 -79 -16 -40 -4 -61 47 -84 25 -11 48 -20 52 -20 13 0 38 117 34 160
-10 108 -35 247 -49 268 -26 40 -44 28 -44 -30z"/>
<path d="M539 245 c-3 -2 -59 -6 -125 -9 -126 -4 -262 -33 -362 -76 l-52 -22
0 -69 0 -69 430 0 430 0 0 86 0 85 -57 26 c-36 17 -72 26 -99 25 -23 -1 -54 5
-70 13 -28 14 -85 20 -95 10z"/>
</g>
</svg>
