<?xml version="1.0" standalone="no"?>
<!DOCTYPE svg PUBLIC "-//W3C//DTD SVG 20010904//EN"
 "http://www.w3.org/TR/2001/REC-SVG-20010904/DTD/svg10.dtd">
<svg version="1.0" xmlns="http://www.w3.org/2000/svg"
 width="96.000000pt" height="84.000000pt" viewBox="0 0 96.000000 84.000000"
 preserveAspectRatio="xMidYMid meet">
<metadata>
Created by potrace 1.16, written by Peter Selinger 2001-2019
</metadata>
<g transform="translate(0.000000,84.000000) scale(0.100000,-0.100000)"
fill="#000000" stroke="none">
<path d="M0 500 l0 -341 28 19 c78 55 237 112 352 126 98 12 112 17 106 33 -4
8 3 36 15 61 36 81 59 165 59 219 0 71 -6 83 -39 77 -65 -13 -87 83 -25 107
13 4 24 15 24 23 0 12 -40 15 -260 15 l-260 1 0 -340z"/>
<path d="M868 813 c11 -16 31 -51 46 -80 39 -78 46 -75 46 21 l0 86 -56 0 -55
0 19 -27z"/>
<path d="M636 649 c-3 -17 -6 -49 -6 -70 0 -21 -11 -78 -25 -125 -14 -47 -25
-97 -25 -110 0 -21 4 -24 40 -24 34 0 42 4 50 26 6 14 7 30 4 35 -3 6 12 47
35 92 22 45 43 94 47 109 5 24 2 29 -29 42 -20 8 -40 24 -47 35 -16 31 -37 26
-44 -10z"/>
<path d="M772 382 c-12 -55 -7 -92 14 -92 11 0 14 17 14 70 0 39 -4 70 -8 70
-5 0 -14 -22 -20 -48z"/>
<path d="M578 265 c-4 -4 -51 -9 -105 -10 -154 -5 -337 -61 -445 -137 -24 -17
-28 -26 -28 -69 l0 -49 385 0 385 0 1 73 c0 39 4 93 8 120 9 53 12 50 -74 61
-22 3 -58 9 -80 12 -22 3 -43 3 -47 -1z"/>
</g>
</svg>
