<?xml version="1.0" standalone="no"?>
<!DOCTYPE svg PUBLIC "-//W3C//DTD SVG 20010904//EN"
 "http://www.w3.org/TR/2001/REC-SVG-20010904/DTD/svg10.dtd">
<svg version="1.0" xmlns="http://www.w3.org/2000/svg"
 width="96.000000pt" height="84.000000pt" viewBox="0 0 96.000000 84.000000"
 preserveAspectRatio="xMidYMid meet">
<metadata>
Created by potrace 1.16, written by Peter Selinger 2001-2019
</metadata>
<g transform="translate(0.000000,84.000000) scale(0.100000,-0.100000)"
fill="#000000" stroke="none">
<path d="M0 510 l0 -330 25 16 c14 9 25 20 25 25 0 17 94 69 160 90 43 14 106
23 188 26 l123 6 16 30 c27 52 53 139 53 175 0 53 -21 111 -42 118 -32 10 -44
49 -24 79 9 14 23 25 31 25 21 0 19 30 -2 46 -10 7 -30 10 -44 7 -15 -3 -30 0
-33 6 -5 7 -82 11 -242 11 l-234 0 0 -330z"/>
<path d="M835 809 c3 -17 12 -47 20 -66 8 -20 15 -50 15 -67 0 -55 19 -101 55
-136 l35 -34 0 167 0 167 -65 0 -65 0 5 -31z"/>
<path d="M657 624 c-4 -4 -7 -37 -7 -74 0 -40 -8 -88 -20 -123 -27 -78 -26
-95 8 -103 15 -3 33 -7 39 -9 13 -4 29 39 24 63 -1 8 5 22 14 32 20 22 37 120
23 137 -5 7 -18 15 -27 18 -10 3 -24 19 -32 36 -8 17 -18 27 -22 23z"/>
<path d="M305 279 c-32 -5 -75 -14 -95 -20 -45 -15 -130 -60 -130 -70 0 -4
-16 -24 -35 -44 l-34 -37 20 -54 20 -54 328 0 328 0 7 110 c3 60 9 116 12 124
8 21 -59 40 -133 38 -34 -1 -65 3 -68 8 -7 12 -136 11 -220 -1z"/>
</g>
</svg>
