<?xml version="1.0" standalone="no"?>
<!DOCTYPE svg PUBLIC "-//W3C//DTD SVG 20010904//EN"
 "http://www.w3.org/TR/2001/REC-SVG-20010904/DTD/svg10.dtd">
<svg version="1.0" xmlns="http://www.w3.org/2000/svg"
 width="96.000000pt" height="84.000000pt" viewBox="0 0 96.000000 84.000000"
 preserveAspectRatio="xMidYMid meet">
<metadata>
Created by potrace 1.16, written by Peter Selinger 2001-2019
</metadata>
<g transform="translate(0.000000,84.000000) scale(0.100000,-0.100000)"
fill="#000000" stroke="none">
<path d="M0 569 l0 -271 33 7 c32 7 54 18 112 55 38 24 153 43 214 35 25 -4
81 -13 124 -22 46 -10 81 -12 86 -7 5 5 16 33 26 63 16 48 16 62 4 130 -7 42
-19 82 -26 89 -25 26 -7 82 27 82 16 0 18 4 11 18 -6 9 -12 29 -16 45 -4 20
-11 27 -30 27 -13 0 -27 5 -30 10 -4 6 -105 10 -271 10 l-264 0 0 -271z"/>
<path d="M823 800 l-20 -39 21 -3 c15 -2 26 -19 43 -71 15 -43 21 -73 15 -83
-15 -26 13 -174 46 -249 l31 -70 1 278 0 277 -59 0 c-59 0 -59 0 -78 -40z"/>
<path d="M666 538 c-3 -13 -6 -42 -6 -65 0 -23 -4 -52 -9 -65 -22 -61 -21 -75
4 -86 22 -10 24 -9 30 21 3 18 11 55 17 84 10 45 8 57 -9 92 -19 38 -21 39
-27 19z"/>
<path d="M202 337 c-50 -14 -142 -84 -142 -109 0 -16 21 -116 41 -190 l10 -38
269 0 269 0 5 33 c2 17 9 75 14 127 9 84 9 96 -6 108 -9 7 -26 11 -37 8 -12
-3 -36 4 -55 16 -43 25 -196 58 -270 57 -30 0 -74 -6 -98 -12z"/>
</g>
</svg>
