<?xml version="1.0" standalone="no"?>
<!DOCTYPE svg PUBLIC "-//W3C//DTD SVG 20010904//EN"
 "http://www.w3.org/TR/2001/REC-SVG-20010904/DTD/svg10.dtd">
<svg version="1.0" xmlns="http://www.w3.org/2000/svg"
 width="96.000000pt" height="84.000000pt" viewBox="0 0 96.000000 84.000000"
 preserveAspectRatio="xMidYMid meet">
<metadata>
Created by potrace 1.16, written by Peter Selinger 2001-2019
</metadata>
<g transform="translate(0.000000,84.000000) scale(0.100000,-0.100000)"
fill="#000000" stroke="none">
<path d="M0 595 l0 -244 53 6 c28 4 71 17 95 29 84 45 220 41 372 -10 41 -14
76 -23 79 -20 4 3 6 74 6 158 0 110 4 157 13 168 7 9 15 39 19 66 5 49 5 51
-21 58 -28 7 -34 19 -13 27 6 3 -126 6 -295 6 l-308 1 0 -245z"/>
<path d="M860 828 l-25 -10 24 -9 c20 -8 22 -13 16 -47 -3 -20 -12 -42 -20
-48 -12 -9 -11 -13 6 -27 10 -9 19 -26 19 -37 0 -12 7 -35 16 -51 8 -17 14
-42 12 -57 -1 -15 3 -58 11 -95 l14 -68 -32 -33 -32 -33 24 -59 c13 -33 34
-75 45 -94 l22 -35 0 358 0 357 -37 -1 c-21 0 -49 -5 -63 -11z"/>
<path d="M667 426 c-3 -39 -5 -71 -3 -73 8 -9 21 75 16 107 -5 29 -7 24 -13
-34z"/>
<path d="M827 484 c-10 -10 -9 -66 2 -82 6 -11 10 -11 18 0 11 15 -8 94 -20
82z"/>
<path d="M195 363 c-11 -3 -38 -18 -59 -34 -22 -16 -46 -29 -53 -29 -18 0 -16
-35 7 -170 11 -63 20 -118 20 -122 0 -5 110 -8 245 -8 135 0 245 4 245 8 0 5
9 58 20 117 10 60 18 110 17 110 -1 1 -14 6 -29 13 -15 6 -30 22 -33 35 -8 30
-34 42 -139 67 -75 18 -194 24 -241 13z"/>
</g>
</svg>
