<?xml version="1.0" standalone="no"?>
<!DOCTYPE svg PUBLIC "-//W3C//DTD SVG 20010904//EN"
 "http://www.w3.org/TR/2001/REC-SVG-20010904/DTD/svg10.dtd">
<svg version="1.0" xmlns="http://www.w3.org/2000/svg"
 width="96.000000pt" height="84.000000pt" viewBox="0 0 96.000000 84.000000"
 preserveAspectRatio="xMidYMid meet">
<metadata>
Created by potrace 1.16, written by Peter Selinger 2001-2019
</metadata>
<g transform="translate(0.000000,84.000000) scale(0.100000,-0.100000)"
fill="#000000" stroke="none">
<path d="M0 420 l0 -420 445 0 c245 0 445 2 445 5 0 16 -36 57 -66 76 -33 20
-35 23 -28 64 9 60 -12 146 -47 194 -16 23 -51 56 -79 73 -52 35 -59 52 -35
84 21 28 18 44 -7 44 -86 1 -90 41 -18 189 27 56 50 104 50 107 0 2 -148 4
-330 4 l-330 0 0 -420z"/>
</g>
</svg>
