<?xml version="1.0" standalone="no"?>
<!DOCTYPE svg PUBLIC "-//W3C//DTD SVG 20010904//EN"
 "http://www.w3.org/TR/2001/REC-SVG-20010904/DTD/svg10.dtd">
<svg version="1.0" xmlns="http://www.w3.org/2000/svg"
 width="96.000000pt" height="84.000000pt" viewBox="0 0 96.000000 84.000000"
 preserveAspectRatio="xMidYMid meet">
<metadata>
Created by potrace 1.16, written by Peter Selinger 2001-2019
</metadata>
<g transform="translate(0.000000,84.000000) scale(0.100000,-0.100000)"
fill="#000000" stroke="none">
<path d="M0 420 l0 -420 480 0 480 0 0 420 0 420 -480 0 -480 0 0 -420z m470
230 c0 -5 13 -7 30 -4 18 4 36 1 45 -6 19 -16 19 -31 0 -24 -8 4 -15 1 -15 -5
0 -6 4 -11 9 -11 14 0 41 -59 35 -75 -8 -20 51 -48 86 -40 21 5 34 0 54 -18
14 -13 26 -31 26 -38 0 -22 -37 -41 -58 -30 -9 5 -36 12 -59 16 -34 5 -46 3
-60 -11 -17 -16 -18 -16 -21 -1 -3 17 -14 21 -40 18 -8 -1 -19 2 -25 7 -7 5
-27 13 -46 17 -30 6 -33 5 -27 -10 5 -15 4 -16 -8 -6 -8 7 -25 13 -38 14 -26
3 -66 23 -58 30 3 3 36 0 74 -5 38 -5 74 -7 82 -4 19 7 29 73 14 91 -9 11 -10
18 -1 28 8 11 6 18 -8 31 -11 10 -17 24 -14 32 6 16 23 19 23 4z"/>
<path d="M480 570 c0 -5 5 -10 11 -10 5 0 7 5 4 10 -3 6 -8 10 -11 10 -2 0 -4
-4 -4 -10z"/>
<path d="M486 494 c-11 -27 -7 -37 9 -24 16 14 20 40 6 40 -5 0 -12 -7 -15
-16z"/>
</g>
</svg>
