<?xml version="1.0" standalone="no"?>
<!DOCTYPE svg PUBLIC "-//W3C//DTD SVG 20010904//EN"
 "http://www.w3.org/TR/2001/REC-SVG-20010904/DTD/svg10.dtd">
<svg version="1.0" xmlns="http://www.w3.org/2000/svg"
 width="96.000000pt" height="84.000000pt" viewBox="0 0 96.000000 84.000000"
 preserveAspectRatio="xMidYMid meet">
<metadata>
Created by potrace 1.16, written by Peter Selinger 2001-2019
</metadata>
<g transform="translate(0.000000,84.000000) scale(0.100000,-0.100000)"
fill="#000000" stroke="none">
<path d="M0 636 c0 -203 0 -204 23 -210 40 -11 107 -6 137 9 75 39 217 27 358
-30 l82 -33 6 24 c3 13 3 40 0 59 -4 21 -1 54 8 82 20 66 44 153 50 184 5 21
1 28 -15 32 -25 7 -16 27 12 27 10 0 19 6 19 14 0 8 3 21 6 30 6 14 -28 16
-340 16 l-346 0 0 -204z"/>
<path d="M946 785 c4 -8 8 -15 10 -15 2 0 4 7 4 15 0 8 -4 15 -10 15 -5 0 -7
-7 -4 -15z"/>
<path d="M917 750 c-47 -9 -54 -16 -39 -40 8 -14 9 -27 2 -46 -8 -21 -7 -31 6
-45 12 -13 15 -29 11 -53 -4 -24 -1 -39 9 -47 8 -7 14 -24 13 -38 -1 -14 5
-50 14 -80 26 -84 24 -95 -31 -129 -43 -26 -48 -33 -46 -62 1 -17 11 -42 23
-54 11 -12 34 -46 50 -76 l31 -55 0 368 c0 202 -1 366 -2 366 -2 -1 -20 -5
-41 -9z"/>
<path d="M814 412 c-3 -9 -10 -28 -15 -41 -10 -23 -4 -61 9 -61 4 0 22 9 39
20 l33 20 -17 34 c-19 41 -41 53 -49 28z"/>
<path d="M165 385 c-27 -13 -58 -26 -67 -29 -13 -4 -18 -16 -18 -43 0 -57 19
-275 26 -295 5 -16 24 -18 223 -18 l218 0 28 93 c16 50 28 108 27 127 -1 19
-1 49 -2 67 0 29 -5 33 -74 62 -156 65 -275 77 -361 36z"/>
</g>
</svg>
