<?xml version="1.0" standalone="no"?>
<!DOCTYPE svg PUBLIC "-//W3C//DTD SVG 20010904//EN"
 "http://www.w3.org/TR/2001/REC-SVG-20010904/DTD/svg10.dtd">
<svg version="1.0" xmlns="http://www.w3.org/2000/svg"
 width="96.000000pt" height="84.000000pt" viewBox="0 0 96.000000 84.000000"
 preserveAspectRatio="xMidYMid meet">
<metadata>
Created by potrace 1.16, written by Peter Selinger 2001-2019
</metadata>
<g transform="translate(0.000000,84.000000) scale(0.100000,-0.100000)"
fill="#000000" stroke="none">
<path d="M0 691 l0 -149 48 -11 c99 -22 115 -23 178 -10 83 16 181 -3 292 -59
l77 -39 23 51 c12 28 23 65 25 83 2 17 9 38 15 46 7 8 9 17 6 20 -4 3 -2 20 4
36 9 25 8 31 -4 31 -23 0 -16 19 9 25 15 4 28 19 36 41 l12 34 68 0 c38 0 72
-5 79 -12 9 -9 16 -7 32 7 23 20 21 21 39 -20 11 -25 10 -31 -5 -42 -14 -10
-15 -16 -6 -25 19 -19 14 -26 -15 -30 -23 -2 -29 -9 -31 -33 -2 -16 -9 -36
-15 -44 -9 -11 -7 -17 11 -29 24 -16 30 -60 11 -79 -8 -8 -6 -18 6 -36 9 -14
15 -31 14 -39 -2 -7 7 -40 20 -73 28 -73 20 -99 -33 -109 -45 -9 -46 -26 -7
-104 16 -31 32 -72 36 -90 3 -18 13 -32 21 -32 12 0 14 64 14 420 l0 420 -480
0 -480 0 0 -149z"/>
<path d="M211 465 c-18 -8 -43 -15 -56 -15 -12 0 -28 -6 -34 -14 -18 -21 -37
-300 -25 -372 l9 -59 212 -3 211 -2 18 47 c16 44 58 152 71 181 3 7 -2 12 -11
12 -24 0 -38 34 -26 65 20 53 14 62 -72 104 -135 66 -231 84 -297 56z"/>
<path d="M800 328 c-7 -18 -15 -35 -17 -38 -2 -3 15 -4 37 -2 50 5 55 13 29
46 -26 34 -32 33 -49 -6z"/>
<path d="M804 150 c4 -19 15 -61 23 -92 13 -50 19 -58 39 -58 16 0 24 6 24 16
0 22 -59 141 -78 156 -13 11 -14 8 -8 -22z"/>
<path d="M1 14 c0 -11 3 -14 6 -6 3 7 2 16 -1 19 -3 4 -6 -2 -5 -13z"/>
</g>
</svg>
