<?xml version="1.0" standalone="no"?>
<!DOCTYPE svg PUBLIC "-//W3C//DTD SVG 20010904//EN"
 "http://www.w3.org/TR/2001/REC-SVG-20010904/DTD/svg10.dtd">
<svg version="1.0" xmlns="http://www.w3.org/2000/svg"
 width="96.000000pt" height="84.000000pt" viewBox="0 0 96.000000 84.000000"
 preserveAspectRatio="xMidYMid meet">
<metadata>
Created by potrace 1.16, written by Peter Selinger 2001-2019
</metadata>
<g transform="translate(0.000000,84.000000) scale(0.100000,-0.100000)"
fill="#000000" stroke="none">
<path d="M0 743 c0 -75 3 -94 12 -85 7 7 20 12 31 12 14 0 17 -5 12 -19 -5
-17 3 -23 62 -42 52 -17 89 -22 160 -20 107 2 186 -23 287 -90 33 -22 65 -41
70 -42 5 -1 10 18 11 43 1 25 8 65 15 90 8 32 9 45 1 48 -18 6 -12 22 8 22 11
0 28 15 40 35 18 30 26 35 58 35 21 0 53 -4 70 -9 22 -6 35 -6 39 1 4 6 12 -2
19 -18 10 -24 10 -32 -3 -46 -13 -16 -12 -19 14 -30 l29 -12 -27 -4 c-22 -3
-29 -10 -34 -37 -3 -18 -13 -36 -21 -39 -13 -5 -11 -11 11 -31 32 -30 32 -39
2 -69 -22 -23 -23 -25 -5 -40 11 -9 19 -24 19 -35 0 -10 12 -39 26 -65 32 -58
29 -90 -9 -94 -22 -3 -28 -8 -23 -20 3 -9 18 -54 33 -99 50 -148 53 -127 53
337 l0 420 -480 0 -480 0 0 -97z"/>
<path d="M1 525 l1 -80 13 65 c11 55 11 67 -1 80 -12 12 -14 3 -13 -65z"/>
<path d="M245 535 c-22 -7 -49 -11 -61 -8 -24 5 -31 -15 -61 -172 -17 -91 -24
-305 -11 -338 7 -15 27 -17 217 -17 l209 0 17 49 c8 26 29 69 45 95 17 26 30
54 30 62 0 15 -2 15 -25 0 -31 -20 -32 -20 -45 5 -9 16 -7 30 11 67 12 26 25
67 29 91 l7 43 -67 44 c-121 78 -220 104 -295 79z"/>
<path d="M802 288 c3 -7 12 -14 21 -16 12 -2 15 1 11 12 -7 19 -38 22 -32 4z"/>
<path d="M764 190 c2 -14 12 -62 22 -107 l19 -83 44 0 c43 0 43 0 37 31 -3 17
-18 58 -32 90 -22 47 -31 59 -50 59 -13 0 -28 8 -34 18 -10 15 -11 13 -6 -8z"/>
<path d="M1 58 c-1 -51 1 -58 18 -58 21 0 21 1 -12 100 -3 8 -6 -11 -6 -42z"/>
</g>
</svg>
