<?xml version="1.0" standalone="no"?>
<!DOCTYPE svg PUBLIC "-//W3C//DTD SVG 20010904//EN"
 "http://www.w3.org/TR/2001/REC-SVG-20010904/DTD/svg10.dtd">
<svg version="1.0" xmlns="http://www.w3.org/2000/svg"
 width="96.000000pt" height="84.000000pt" viewBox="0 0 96.000000 84.000000"
 preserveAspectRatio="xMidYMid meet">
<metadata>
Created by potrace 1.16, written by Peter Selinger 2001-2019
</metadata>
<g transform="translate(0.000000,84.000000) scale(0.100000,-0.100000)"
fill="#000000" stroke="none">
<path d="M0 420 l0 -420 34 0 34 0 -15 42 c-36 106 -39 278 -7 457 14 75 14
85 0 100 -28 31 -13 71 26 71 12 0 17 -7 15 -21 -3 -34 103 -61 208 -53 93 7
163 -12 262 -70 l57 -34 20 45 c16 38 17 46 5 54 -11 7 -10 10 7 15 12 3 28
21 38 40 l16 35 63 -3 c61 -3 62 -4 80 -40 11 -25 24 -38 37 -38 28 0 25 -17
-5 -24 -19 -5 -25 -13 -25 -34 0 -16 -8 -32 -20 -40 -23 -14 -26 -32 -5 -32 8
0 18 -12 21 -27 6 -20 2 -31 -16 -45 -21 -17 -22 -20 -6 -36 9 -10 16 -24 16
-31 0 -7 15 -31 32 -54 21 -26 33 -53 34 -76 2 -20 14 -67 28 -106 l25 -70 1
408 0 407 -480 0 -480 0 0 -420z"/>
<path d="M261 543 c-19 -8 -43 -12 -53 -10 -26 7 -33 -14 -57 -176 -22 -139
-26 -230 -15 -311 l7 -46 202 0 201 0 42 80 c23 44 42 90 42 101 0 21 -1 21
-18 6 -25 -23 -41 -21 -53 6 -9 19 -7 30 10 58 12 19 21 44 21 57 0 12 9 40
20 62 11 22 20 43 20 47 0 15 -148 102 -208 122 -71 24 -113 25 -161 4z"/>
<path d="M754 184 c-4 -14 0 -61 8 -103 l14 -76 73 -3 73 -3 -7 33 c-4 18 -20
62 -36 97 -28 61 -30 63 -59 58 -19 -4 -34 -1 -44 9 -14 13 -16 12 -22 -12z"/>
</g>
</svg>
