<?xml version="1.0" standalone="no"?>
<!DOCTYPE svg PUBLIC "-//W3C//DTD SVG 20010904//EN"
 "http://www.w3.org/TR/2001/REC-SVG-20010904/DTD/svg10.dtd">
<svg version="1.0" xmlns="http://www.w3.org/2000/svg"
 width="96.000000pt" height="84.000000pt" viewBox="0 0 96.000000 84.000000"
 preserveAspectRatio="xMidYMid meet">
<metadata>
Created by potrace 1.16, written by Peter Selinger 2001-2019
</metadata>
<g transform="translate(0.000000,84.000000) scale(0.100000,-0.100000)"
fill="#000000" stroke="none">
<path d="M0 420 l0 -420 51 0 c45 0 50 2 44 17 -36 86 -54 308 -36 438 10 69
9 81 -4 91 -28 21 -12 74 23 74 8 0 11 -7 7 -19 -5 -16 4 -20 69 -31 44 -7 86
-9 103 -4 15 4 64 8 108 8 67 -1 92 -6 155 -32 51 -22 77 -29 85 -21 7 7 5 13
-5 19 -13 9 -12 13 7 28 12 9 27 29 32 45 19 50 118 66 146 23 9 -13 30 -27
48 -30 l32 -7 -28 -23 c-20 -16 -26 -28 -21 -41 5 -13 0 -24 -20 -40 -27 -22
-28 -23 -11 -48 13 -21 14 -30 4 -48 -10 -20 -8 -26 28 -59 39 -37 83 -99 121
-175 l21 -40 1 358 0 357 -480 0 -480 0 0 -420z"/>
<path d="M253 517 c-42 -15 -63 -28 -67 -42 -13 -52 -28 -288 -22 -355 11
-132 -10 -120 201 -120 l182 0 31 58 c38 74 41 90 18 124 -15 22 -16 33 -8 57
6 16 8 39 5 49 -3 11 2 45 11 76 16 54 16 56 -5 80 -31 35 -156 85 -226 91
-43 3 -74 -2 -120 -18z"/>
<path d="M740 200 c-9 -21 -11 -53 -6 -100 9 -105 3 -100 121 -100 l103 0 -13
45 c-15 47 -46 120 -64 144 -7 11 -13 12 -23 3 -11 -9 -23 -7 -51 5 -20 10
-37 21 -37 25 0 19 -19 5 -30 -22z"/>
</g>
</svg>
