<?xml version="1.0" standalone="no"?>
<!DOCTYPE svg PUBLIC "-//W3C//DTD SVG 20010904//EN"
 "http://www.w3.org/TR/2001/REC-SVG-20010904/DTD/svg10.dtd">
<svg version="1.0" xmlns="http://www.w3.org/2000/svg"
 width="96.000000pt" height="84.000000pt" viewBox="0 0 96.000000 84.000000"
 preserveAspectRatio="xMidYMid meet">
<metadata>
Created by potrace 1.16, written by Peter Selinger 2001-2019
</metadata>
<g transform="translate(0.000000,84.000000) scale(0.100000,-0.100000)"
fill="#000000" stroke="none">
<path d="M0 420 l0 -420 66 0 c64 0 66 1 59 23 -44 135 -48 164 -49 327 -1
145 -3 167 -19 183 -16 16 -17 21 -4 40 17 26 43 29 39 5 -2 -10 1 -18 5 -18
4 0 37 -5 72 -10 49 -7 74 -6 105 5 56 20 160 18 223 -4 50 -17 54 -17 68 -1
9 10 20 33 26 53 14 53 99 88 129 52 7 -8 28 -15 46 -15 39 0 43 -9 14 -35
-14 -13 -17 -25 -13 -46 4 -21 0 -36 -12 -49 -30 -33 -22 -65 31 -120 26 -27
53 -50 58 -50 11 -1 62 -79 98 -150 18 -33 18 -26 18 308 l0 342 -480 0 -480
0 0 -420z"/>
<path d="M277 510 c-20 -11 -46 -20 -56 -20 -16 0 -21 -9 -27 -45 -12 -85 -10
-318 5 -382 l14 -63 156 0 156 0 32 73 c25 59 32 90 37 170 3 60 2 97 -4 97
-13 0 -13 36 0 60 8 14 5 21 -15 34 -14 9 -25 25 -25 36 0 15 -14 24 -66 40
-85 26 -158 26 -207 0z"/>
<path d="M752 333 c-3 -35 6 -45 28 -30 26 15 25 21 -3 40 -22 14 -23 13 -25
-10z"/>
<path d="M821 225 c-28 -42 -43 -44 -70 -9 -11 14 -25 23 -30 19 -19 -11 -23
-75 -11 -155 l12 -80 119 0 119 0 0 25 c0 51 -85 235 -109 235 -3 0 -17 -16
-30 -35z"/>
</g>
</svg>
