<?xml version="1.0" standalone="no"?>
<!DOCTYPE svg PUBLIC "-//W3C//DTD SVG 20010904//EN"
 "http://www.w3.org/TR/2001/REC-SVG-20010904/DTD/svg10.dtd">
<svg version="1.0" xmlns="http://www.w3.org/2000/svg"
 width="96.000000pt" height="84.000000pt" viewBox="0 0 96.000000 84.000000"
 preserveAspectRatio="xMidYMid meet">
<metadata>
Created by potrace 1.16, written by Peter Selinger 2001-2019
</metadata>
<g transform="translate(0.000000,84.000000) scale(0.100000,-0.100000)"
fill="#000000" stroke="none">
<path d="M0 420 l0 -420 79 0 80 0 -20 45 c-34 77 -50 174 -54 323 -3 112 -7
145 -19 158 -20 19 -20 29 0 48 21 22 37 20 29 -3 -5 -16 2 -19 66 -24 48 -4
84 -2 113 8 72 24 109 27 178 12 62 -12 69 -12 83 3 8 9 15 31 15 48 0 52 85
99 120 67 12 -11 29 -16 45 -13 33 7 42 -8 20 -32 -12 -13 -15 -27 -11 -46 5
-18 2 -32 -10 -45 -10 -11 -14 -22 -11 -26 4 -3 2 -12 -4 -20 -9 -11 1 -25 47
-68 32 -30 69 -57 82 -61 12 -3 31 -23 41 -43 10 -20 35 -65 55 -101 l36 -65
0 338 0 337 -480 0 -480 0 0 -420z"/>
<path d="M330 534 c-8 -3 -33 -13 -55 -24 -22 -10 -47 -21 -56 -24 -35 -10
-33 -328 2 -447 l12 -39 133 0 132 0 7 31 c4 18 19 57 34 88 24 52 26 66 25
184 -1 119 -2 129 -22 143 -12 8 -22 23 -22 33 0 27 -18 38 -84 50 -63 12 -81
12 -106 5z"/>
<path d="M742 337 c-18 -50 -15 -54 18 -22 23 22 27 32 19 42 -17 20 -24 16
-37 -20z"/>
<path d="M830 276 c0 -18 -89 -69 -107 -62 -7 3 -13 -1 -13 -9 0 -9 -9 -15
-21 -15 -19 0 -21 -4 -15 -38 3 -20 9 -63 13 -94 l6 -58 133 0 134 0 0 30 c0
36 -43 148 -83 213 -29 47 -47 60 -47 33z"/>
</g>
</svg>
