<?xml version="1.0" standalone="no"?>
<!DOCTYPE svg PUBLIC "-//W3C//DTD SVG 20010904//EN"
 "http://www.w3.org/TR/2001/REC-SVG-20010904/DTD/svg10.dtd">
<svg version="1.0" xmlns="http://www.w3.org/2000/svg"
 width="96.000000pt" height="84.000000pt" viewBox="0 0 96.000000 84.000000"
 preserveAspectRatio="xMidYMid meet">
<metadata>
Created by potrace 1.16, written by Peter Selinger 2001-2019
</metadata>
<g transform="translate(0.000000,84.000000) scale(0.100000,-0.100000)"
fill="#000000" stroke="none">
<path d="M0 420 l0 -420 80 0 79 0 -18 43 c-36 83 -54 188 -57 331 -3 113 -6
142 -19 148 -19 11 -19 32 1 52 22 22 37 20 29 -4 -6 -19 -2 -20 73 -20 50 0
94 6 118 16 27 11 60 15 114 12 92 -4 110 7 110 63 0 33 5 42 37 64 43 29 65
31 83 10 9 -11 22 -14 42 -10 32 7 35 0 12 -26 -12 -14 -13 -22 -4 -39 12 -22
5 -60 -10 -60 -5 0 -7 -6 -4 -13 3 -8 0 -26 -5 -41 -10 -24 -8 -28 14 -36 14
-5 44 -27 67 -49 24 -21 52 -40 63 -42 11 -2 27 -18 36 -35 8 -17 29 -53 46
-80 17 -27 40 -69 51 -94 l20 -45 1 348 1 347 -480 0 -480 0 0 -420z"/>
<path d="M270 520 c-19 -10 -43 -21 -52 -24 -45 -13 -31 -408 16 -485 5 -7 50
-11 120 -11 l113 0 7 48 c3 26 20 76 37 112 29 62 30 69 28 182 -3 101 -5 119
-20 123 -9 3 -22 19 -29 34 -13 33 -40 41 -129 41 -35 -1 -69 -8 -91 -20z"/>
<path d="M640 442 c6 -13 14 -21 18 -18 3 4 -2 14 -12 24 -18 16 -18 16 -6 -6z"/>
<path d="M726 386 c3 -8 0 -24 -6 -36 -16 -31 -8 -34 24 -9 26 20 26 22 10 40
-20 22 -36 25 -28 5z"/>
<path d="M808 298 c-2 -15 -11 -25 -28 -28 -40 -8 -100 -33 -100 -42 0 -4 -10
-8 -21 -8 -19 0 -21 -4 -15 -37 4 -21 9 -60 12 -88 11 -105 -5 -95 159 -95
l145 0 0 30 c0 35 -99 247 -128 273 -20 18 -20 18 -24 -5z"/>
</g>
</svg>
