<?xml version="1.0" standalone="no"?>
<!DOCTYPE svg PUBLIC "-//W3C//DTD SVG 20010904//EN"
 "http://www.w3.org/TR/2001/REC-SVG-20010904/DTD/svg10.dtd">
<svg version="1.0" xmlns="http://www.w3.org/2000/svg"
 width="96.000000pt" height="84.000000pt" viewBox="0 0 96.000000 84.000000"
 preserveAspectRatio="xMidYMid meet">
<metadata>
Created by potrace 1.16, written by Peter Selinger 2001-2019
</metadata>
<g transform="translate(0.000000,84.000000) scale(0.100000,-0.100000)"
fill="#000000" stroke="none">
<path d="M0 420 l0 -420 75 0 c41 0 75 2 75 5 0 3 -8 22 -19 43 -32 63 -53
181 -58 327 -4 103 -9 142 -19 148 -18 11 -18 32 2 51 22 22 37 20 29 -4 -6
-19 -2 -20 70 -20 53 0 86 5 108 17 24 13 54 17 121 16 50 0 83 3 76 7 -11 7
-11 11 -1 24 7 8 14 32 16 52 4 41 24 67 66 84 25 11 32 10 49 -5 13 -12 27
-15 45 -11 30 8 36 -17 8 -33 -15 -8 -16 -12 -6 -22 14 -14 18 -59 5 -59 -4 0
-9 -17 -10 -37 -1 -21 -3 -47 -5 -58 -1 -14 5 -21 19 -23 12 -2 41 -21 65 -42
24 -22 51 -40 60 -40 18 0 49 -31 49 -48 0 -6 17 -36 39 -67 21 -30 49 -80 61
-110 12 -30 26 -55 31 -55 5 0 9 154 9 350 l0 350 -480 0 -480 0 0 -420z"/>
<path d="M267 526 c-26 -14 -54 -26 -62 -26 -43 0 -25 -417 21 -491 3 -5 49
-9 103 -9 l98 0 13 63 c7 34 26 89 42 121 29 57 30 64 27 175 l-4 116 -32 33
c-28 28 -42 34 -96 38 -54 5 -68 2 -110 -20z"/>
<path d="M706 397 c3 -8 -2 -20 -11 -27 -16 -13 -20 -30 -7 -30 4 0 18 9 32
19 20 16 22 21 11 35 -16 19 -32 21 -25 3z"/>
<path d="M780 312 c0 -15 -13 -21 -69 -31 -66 -12 -110 -38 -98 -58 3 -5 11
-57 18 -116 l12 -107 158 0 159 0 0 34 c0 19 -5 38 -11 42 -7 4 -29 43 -50 88
-58 125 -119 200 -119 148z"/>
</g>
</svg>
