<?xml version="1.0" standalone="no"?>
<!DOCTYPE svg PUBLIC "-//W3C//DTD SVG 20010904//EN"
 "http://www.w3.org/TR/2001/REC-SVG-20010904/DTD/svg10.dtd">
<svg version="1.0" xmlns="http://www.w3.org/2000/svg"
 width="96.000000pt" height="84.000000pt" viewBox="0 0 96.000000 84.000000"
 preserveAspectRatio="xMidYMid meet">
<metadata>
Created by potrace 1.16, written by Peter Selinger 2001-2019
</metadata>
<g transform="translate(0.000000,84.000000) scale(0.100000,-0.100000)"
fill="#000000" stroke="none">
<path d="M0 420 l0 -420 66 0 c59 0 65 2 59 18 -49 118 -76 268 -74 400 2 68
-1 86 -17 103 -14 15 -16 24 -8 37 14 22 49 30 41 9 -4 -11 7 -16 49 -21 42
-5 67 -1 116 16 40 14 87 22 130 23 67 0 93 9 69 24 -10 7 -10 14 3 39 9 17
16 42 16 56 0 17 10 31 34 45 40 25 69 27 87 5 7 -9 22 -14 36 -11 31 6 37 -6
13 -28 -15 -13 -17 -21 -8 -35 7 -10 8 -25 3 -36 -5 -11 -10 -34 -12 -53 -2
-18 -8 -42 -13 -52 -9 -16 -6 -20 17 -25 16 -4 43 -18 61 -33 19 -14 50 -35
70 -47 20 -11 42 -29 47 -40 6 -11 21 -35 35 -54 14 -18 43 -68 65 -109 23
-44 47 -77 58 -79 16 -3 17 18 17 342 l0 346 -480 0 -480 0 0 -420z"/>
<path d="M276 540 c-15 -5 -36 -15 -45 -23 -9 -8 -25 -17 -36 -19 -10 -1 -22
-14 -26 -28 -19 -67 -2 -324 27 -416 l17 -54 92 0 91 0 18 73 c9 41 31 100 48
132 30 57 30 59 22 154 -4 53 -6 106 -5 119 1 12 -2 22 -8 22 -6 0 -19 9 -30
21 -22 24 -116 35 -165 19z"/>
<path d="M675 410 c4 -6 -1 -22 -9 -35 -19 -29 -16 -30 24 -10 35 18 36 23 13
41 -22 16 -37 18 -28 4z"/>
<path d="M753 321 c-4 -18 -14 -20 -126 -35 -35 -5 -38 -19 -26 -122 6 -54 13
-114 15 -131 l5 -33 169 0 170 0 0 35 c0 23 -6 37 -19 44 -10 6 -40 52 -66
103 -73 141 -110 184 -122 139z"/>
</g>
</svg>
