<?xml version="1.0" standalone="no"?>
<!DOCTYPE svg PUBLIC "-//W3C//DTD SVG 20010904//EN"
 "http://www.w3.org/TR/2001/REC-SVG-20010904/DTD/svg10.dtd">
<svg version="1.0" xmlns="http://www.w3.org/2000/svg"
 width="96.000000pt" height="84.000000pt" viewBox="0 0 96.000000 84.000000"
 preserveAspectRatio="xMidYMid meet">
<metadata>
Created by potrace 1.16, written by Peter Selinger 2001-2019
</metadata>
<g transform="translate(0.000000,84.000000) scale(0.100000,-0.100000)"
fill="#000000" stroke="none">
<path d="M0 420 l0 -420 480 0 480 0 0 420 0 420 -480 0 -480 0 0 -420z m470
235 c0 -17 16 -20 25 -5 9 15 20 12 46 -11 17 -15 19 -19 7 -15 -25 8 -22 -7
7 -34 20 -19 24 -30 20 -51 -5 -23 -3 -28 17 -31 13 -2 22 -9 20 -16 -1 -9 9
-11 38 -6 34 6 45 3 65 -16 71 -67 -12 -87 -139 -35 -16 7 -18 5 -14 -13 5
-17 2 -22 -13 -22 -10 0 -19 7 -19 15 0 10 -10 15 -29 15 -17 0 -33 5 -37 11
-4 7 -21 9 -42 6 -40 -7 -132 10 -132 24 0 9 115 4 147 -6 18 -6 40 33 46 80
3 22 3 34 0 28 -8 -22 -26 -14 -20 9 4 13 0 29 -9 39 -8 9 -12 24 -8 33 8 20
24 21 24 1z"/>
<path d="M483 494 c-12 -27 -2 -32 17 -9 8 10 10 19 4 25 -5 5 -14 -1 -21 -16z"/>
</g>
</svg>
