<?xml version="1.0" standalone="no"?>
<!DOCTYPE svg PUBLIC "-//W3C//DTD SVG 20010904//EN"
 "http://www.w3.org/TR/2001/REC-SVG-20010904/DTD/svg10.dtd">
<svg version="1.0" xmlns="http://www.w3.org/2000/svg"
 width="96.000000pt" height="84.000000pt" viewBox="0 0 96.000000 84.000000"
 preserveAspectRatio="xMidYMid meet">
<metadata>
Created by potrace 1.16, written by Peter Selinger 2001-2019
</metadata>
<g transform="translate(0.000000,84.000000) scale(0.100000,-0.100000)"
fill="#000000" stroke="none">
<path d="M0 689 c0 -137 1 -149 16 -135 21 21 36 20 32 -1 -5 -30 79 -29 178
3 62 19 96 25 128 21 27 -4 47 -2 54 5 17 17 15 38 -3 32 -19 -8 -19 10 0 26
8 7 15 27 15 46 0 57 89 104 124 65 13 -14 26 -19 42 -15 28 7 30 -2 7 -28
-12 -13 -13 -22 -6 -29 7 -7 7 -21 2 -37 -5 -15 -15 -48 -23 -74 l-14 -47 43
-17 c24 -9 61 -31 81 -49 20 -18 43 -31 49 -29 14 6 116 -139 159 -223 14 -29
33 -53 40 -53 8 0 17 -7 20 -16 11 -28 6 -54 -8 -54 -19 0 -55 49 -93 126 -33
67 -80 134 -95 134 -5 0 -12 -10 -17 -22 -8 -23 -30 -28 -128 -30 -30 0 -35
-21 -23 -93 5 -33 10 -80 10 -105 0 -96 -12 -90 191 -90 l179 0 0 420 0 420
-480 0 -480 0 0 -151z"/>
<path d="M245 525 c-16 -8 -37 -19 -45 -24 -8 -5 -22 -12 -32 -15 -9 -3 -18
-20 -22 -43 -10 -59 10 -312 29 -381 l18 -62 91 0 92 0 18 73 c10 39 32 97 49
127 29 53 30 57 22 145 -4 49 -8 102 -9 117 -2 42 -48 72 -120 75 -40 2 -72
-2 -91 -12z"/>
<path d="M0 255 l0 -255 55 0 c30 0 55 2 55 5 0 4 -7 20 -16 36 -28 54 -56
210 -59 333 -3 95 -8 122 -20 128 -13 8 -15 -20 -15 -247z"/>
<path d="M653 407 c3 -8 -1 -24 -9 -36 -18 -25 -13 -26 27 -6 32 17 31 28 -3
46 -17 9 -20 9 -15 -4z"/>
</g>
</svg>
