<?xml version="1.0" standalone="no"?>
<!DOCTYPE svg PUBLIC "-//W3C//DTD SVG 20010904//EN"
 "http://www.w3.org/TR/2001/REC-SVG-20010904/DTD/svg10.dtd">
<svg version="1.0" xmlns="http://www.w3.org/2000/svg"
 width="96.000000pt" height="84.000000pt" viewBox="0 0 96.000000 84.000000"
 preserveAspectRatio="xMidYMid meet">
<metadata>
Created by potrace 1.16, written by Peter Selinger 2001-2019
</metadata>
<g transform="translate(0.000000,84.000000) scale(0.100000,-0.100000)"
fill="#000000" stroke="none">
<path d="M0 695 c0 -127 2 -145 16 -145 10 0 14 -6 10 -15 -9 -25 133 -21 184
5 27 14 59 20 103 20 58 0 87 11 87 32 0 4 -7 8 -15 8 -8 0 -15 4 -15 9 0 5 7
14 15 21 8 7 15 25 15 41 0 32 28 63 71 78 22 8 33 6 52 -9 15 -12 32 -17 45
-13 25 6 29 -9 7 -27 -9 -8 -12 -18 -7 -27 8 -14 -4 -78 -26 -134 -9 -23 -8
-28 14 -38 14 -6 30 -11 36 -11 6 0 32 -16 58 -36 27 -20 52 -36 57 -36 11 1
43 -29 43 -40 0 -6 15 -28 34 -50 19 -22 51 -70 70 -108 20 -38 44 -70 55 -73
21 -5 37 -55 22 -70 -17 -17 -48 20 -97 113 -24 48 -57 99 -73 114 -29 28 -51
28 -51 1 0 -9 -22 -15 -70 -20 -39 -4 -73 -11 -76 -16 -3 -5 0 -68 7 -139 l13
-130 188 0 188 0 0 420 0 420 -480 0 -480 0 0 -145z"/>
<path d="M265 521 c-16 -5 -54 -21 -84 -37 l-54 -28 6 -161 c3 -104 11 -184
22 -228 l18 -68 96 3 96 3 17 65 c10 35 32 92 49 126 l32 62 -12 108 c-7 60
-17 111 -23 113 -6 2 -19 12 -29 22 -21 21 -91 31 -134 20z"/>
<path d="M0 240 l0 -240 43 0 44 0 -18 54 c-29 85 -49 220 -49 327 0 59 -4 99
-10 99 -6 0 -10 -87 -10 -240z"/>
<path d="M637 395 c3 -9 -3 -25 -12 -35 -21 -23 -19 -24 24 -9 35 12 39 26 14
45 -24 18 -34 17 -26 -1z"/>
</g>
</svg>
