<?xml version="1.0" standalone="no"?>
<!DOCTYPE svg PUBLIC "-//W3C//DTD SVG 20010904//EN"
 "http://www.w3.org/TR/2001/REC-SVG-20010904/DTD/svg10.dtd">
<svg version="1.0" xmlns="http://www.w3.org/2000/svg"
 width="96.000000pt" height="84.000000pt" viewBox="0 0 96.000000 84.000000"
 preserveAspectRatio="xMidYMid meet">
<metadata>
Created by potrace 1.16, written by Peter Selinger 2001-2019
</metadata>
<g transform="translate(0.000000,84.000000) scale(0.100000,-0.100000)"
fill="#000000" stroke="none">
<path d="M0 690 c0 -98 4 -150 10 -150 6 0 10 -8 8 -17 -3 -16 6 -18 73 -17
54 1 83 6 103 19 18 12 54 20 104 23 70 4 91 12 92 35 0 4 -7 7 -17 7 -15 0
-15 1 0 18 10 10 17 33 17 50 0 55 89 105 120 67 9 -11 22 -14 42 -10 32 7 35
0 11 -27 -11 -13 -13 -22 -6 -29 10 -10 -2 -70 -26 -132 -10 -25 -8 -28 17
-38 70 -28 92 -39 92 -48 0 -5 20 -19 45 -31 25 -12 45 -25 45 -30 0 -4 18
-30 40 -56 22 -27 56 -79 75 -116 20 -38 42 -68 50 -68 8 0 19 -9 25 -19 15
-28 12 -61 -4 -61 -19 0 -54 48 -100 136 -55 106 -116 155 -116 94 0 -17 -7
-20 -47 -20 -97 0 -98 -1 -97 -45 0 -22 4 -82 9 -132 l8 -93 193 0 194 0 0
420 0 420 -480 0 -480 0 0 -150z"/>
<path d="M220 497 c-14 -8 -34 -18 -45 -24 -11 -7 -28 -14 -39 -17 -18 -6 -18
-16 -13 -179 3 -96 12 -194 19 -222 l14 -50 102 -3 101 -3 11 43 c19 74 30
102 55 147 28 48 30 80 14 196 -11 75 -14 81 -46 103 -40 26 -132 30 -173 9z"/>
<path d="M2 233 l-2 -233 35 0 c34 0 34 1 24 27 -26 68 -42 168 -49 298 -7
136 -7 134 -8 -92z"/>
<path d="M624 384 c4 -10 -1 -25 -10 -35 -19 -22 -7 -24 31 -7 29 13 32 26 8
44 -25 18 -36 17 -29 -2z"/>
</g>
</svg>
