<?xml version="1.0" standalone="no"?>
<!DOCTYPE svg PUBLIC "-//W3C//DTD SVG 20010904//EN"
 "http://www.w3.org/TR/2001/REC-SVG-20010904/DTD/svg10.dtd">
<svg version="1.0" xmlns="http://www.w3.org/2000/svg"
 width="96.000000pt" height="84.000000pt" viewBox="0 0 96.000000 84.000000"
 preserveAspectRatio="xMidYMid meet">
<metadata>
Created by potrace 1.16, written by Peter Selinger 2001-2019
</metadata>
<g transform="translate(0.000000,84.000000) scale(0.100000,-0.100000)"
fill="#000000" stroke="none">
<path d="M0 685 c0 -86 4 -155 9 -155 5 0 7 -10 3 -22 -5 -21 -4 -21 71 -14
42 4 96 16 119 26 27 12 65 20 104 20 55 0 84 11 84 32 0 4 -7 8 -17 8 -15 0
-15 1 0 18 10 10 17 35 17 55 0 28 6 40 28 55 44 30 63 34 83 16 12 -11 27
-14 44 -10 29 7 32 0 9 -25 -12 -14 -13 -21 -3 -37 7 -12 9 -27 4 -38 -5 -11
-8 -22 -7 -26 1 -4 -5 -25 -13 -48 -8 -23 -12 -46 -10 -51 3 -5 23 -13 43 -19
21 -5 56 -26 78 -45 21 -19 44 -35 50 -35 15 0 114 -130 150 -199 16 -29 38
-58 50 -63 24 -11 38 -57 23 -72 -14 -15 -46 22 -91 106 -44 81 -93 148 -109
148 -5 0 -14 -12 -19 -26 -8 -21 -15 -25 -34 -20 -13 3 -45 3 -71 -1 l-47 -6
7 -96 c3 -53 8 -111 11 -128 l5 -33 194 0 195 0 0 420 0 420 -480 0 -480 0 0
-155z"/>
<path d="M195 475 c-22 -13 -48 -25 -57 -25 -12 0 -19 -12 -24 -45 -7 -49 10
-322 24 -370 l8 -30 107 -3 106 -3 10 38 c6 21 11 43 11 49 0 5 16 43 36 83
l36 73 -11 99 c-6 55 -11 104 -11 108 0 5 -16 18 -36 30 -52 31 -146 29 -199
-4z"/>
<path d="M623 377 c3 -8 -2 -25 -10 -37 -15 -21 -15 -22 8 -15 52 16 57 35 17
56 -17 9 -20 9 -15 -4z"/>
<path d="M1 128 l-1 -128 30 0 29 0 -15 43 c-8 23 -21 80 -29 127 l-13 85 -1
-127z"/>
</g>
</svg>
