<?xml version="1.0" standalone="no"?>
<!DOCTYPE svg PUBLIC "-//W3C//DTD SVG 20010904//EN"
 "http://www.w3.org/TR/2001/REC-SVG-20010904/DTD/svg10.dtd">
<svg version="1.0" xmlns="http://www.w3.org/2000/svg"
 width="96.000000pt" height="84.000000pt" viewBox="0 0 96.000000 84.000000"
 preserveAspectRatio="xMidYMid meet">
<metadata>
Created by potrace 1.16, written by Peter Selinger 2001-2019
</metadata>
<g transform="translate(0.000000,84.000000) scale(0.100000,-0.100000)"
fill="#000000" stroke="none">
<path d="M1 665 l1 -175 65 0 c44 0 80 7 116 22 35 15 72 22 117 23 45 0 69 5
77 15 17 21 16 31 -2 24 -19 -8 -19 10 0 26 9 7 15 29 15 51 0 30 6 42 28 57
44 30 63 34 83 16 12 -11 27 -14 44 -10 29 7 32 0 9 -25 -12 -14 -13 -21 -3
-37 7 -12 9 -27 4 -38 -5 -11 -8 -22 -7 -26 1 -4 -5 -26 -13 -49 -8 -23 -15
-45 -15 -50 0 -7 26 -19 43 -19 14 0 67 -30 67 -39 0 -4 23 -20 50 -35 27 -15
50 -31 50 -36 0 -4 18 -30 40 -56 22 -27 56 -79 75 -116 20 -38 43 -68 51 -68
14 0 34 -38 34 -66 0 -25 -28 -15 -53 19 -13 17 -41 64 -61 102 -58 111 -116
163 -116 104 0 -17 -7 -19 -76 -19 l-76 0 6 -102 c4 -57 9 -115 12 -130 l6
-28 194 0 194 0 0 420 0 420 -480 0 -481 0 2 -175z"/>
<path d="M177 467 l-69 -32 5 -180 c3 -99 10 -197 17 -218 l11 -38 111 3 112
3 16 65 c9 36 29 88 44 116 27 50 27 52 16 140 -6 49 -11 98 -11 109 0 13 -14
28 -39 43 -58 33 -128 30 -213 -11z"/>
<path d="M622 372 c2 -10 -3 -26 -11 -35 -15 -19 -4 -22 33 -7 33 12 33 23 0
45 -24 16 -25 16 -22 -3z"/>
<path d="M1 93 c-1 -93 -1 -93 24 -93 23 0 24 2 14 28 -6 15 -17 56 -24 92
l-13 65 -1 -92z"/>
</g>
</svg>
