<?xml version="1.0" standalone="no"?>
<!DOCTYPE svg PUBLIC "-//W3C//DTD SVG 20010904//EN"
 "http://www.w3.org/TR/2001/REC-SVG-20010904/DTD/svg10.dtd">
<svg version="1.0" xmlns="http://www.w3.org/2000/svg"
 width="96.000000pt" height="84.000000pt" viewBox="0 0 96.000000 84.000000"
 preserveAspectRatio="xMidYMid meet">
<metadata>
Created by potrace 1.16, written by Peter Selinger 2001-2019
</metadata>
<g transform="translate(0.000000,84.000000) scale(0.100000,-0.100000)"
fill="#000000" stroke="none">
<path d="M0 665 l0 -175 68 0 c46 0 81 7 112 21 30 13 67 21 110 21 43 1 71 6
82 16 22 19 23 32 3 32 -19 0 -19 14 0 30 8 7 15 27 15 45 0 56 70 99 114 70
14 -10 33 -14 45 -10 25 8 35 -9 16 -25 -11 -9 -14 -23 -9 -45 3 -20 1 -35 -5
-40 -6 -3 -9 -11 -6 -16 6 -9 -13 -75 -27 -95 -8 -11 30 -34 55 -34 7 0 35
-18 62 -40 28 -22 55 -40 62 -40 16 0 111 -128 157 -211 21 -38 45 -69 56 -72
15 -4 20 -14 20 -41 0 -20 -4 -36 -9 -36 -16 0 -61 60 -93 124 -34 67 -95 156
-108 156 -4 0 -12 -12 -18 -28 -9 -27 -10 -27 -81 -22 l-72 5 6 -110 c4 -60 9
-118 11 -127 5 -16 23 -18 200 -18 l194 0 0 420 0 420 -480 0 -480 0 0 -175z"/>
<path d="M245 494 c-11 -3 -49 -19 -84 -37 l-63 -31 5 -186 c3 -102 9 -198 13
-213 l6 -28 121 3 121 3 11 50 c6 28 26 79 43 115 31 65 31 65 20 150 -6 47
-12 97 -12 113 -1 15 -5 27 -10 27 -5 0 -17 6 -25 14 -17 15 -112 28 -146 20z"/>
<path d="M624 365 c4 -11 0 -25 -10 -36 -19 -21 -8 -24 30 -9 33 12 33 23 -1
45 -25 17 -26 17 -19 0z"/>
<path d="M1 43 c-1 -24 4 -43 9 -43 12 0 12 24 0 60 -7 21 -8 19 -9 -17z"/>
</g>
</svg>
