<?xml version="1.0" standalone="no"?>
<!DOCTYPE svg PUBLIC "-//W3C//DTD SVG 20010904//EN"
 "http://www.w3.org/TR/2001/REC-SVG-20010904/DTD/svg10.dtd">
<svg version="1.0" xmlns="http://www.w3.org/2000/svg"
 width="96.000000pt" height="84.000000pt" viewBox="0 0 96.000000 84.000000"
 preserveAspectRatio="xMidYMid meet">
<metadata>
Created by potrace 1.16, written by Peter Selinger 2001-2019
</metadata>
<g transform="translate(0.000000,84.000000) scale(0.100000,-0.100000)"
fill="#000000" stroke="none">
<path d="M0 665 l0 -175 65 0 c42 0 78 6 98 17 19 10 65 18 112 21 57 3 84 9
92 20 15 19 17 36 4 27 -17 -10 -21 12 -6 25 8 7 15 27 15 44 0 67 94 125 130
81 9 -11 22 -14 42 -10 32 7 35 0 11 -27 -14 -15 -15 -23 -6 -37 9 -14 8 -23
-3 -40 -8 -11 -13 -25 -9 -30 3 -6 -3 -32 -14 -60 l-19 -50 27 -10 c14 -5 35
-12 47 -15 11 -4 38 -22 60 -41 21 -19 44 -35 51 -35 18 0 108 -119 154 -204
23 -43 49 -80 58 -84 22 -8 31 -23 31 -54 0 -16 5 -28 10 -28 7 0 10 147 10
420 l0 420 -480 0 -480 0 0 -175z"/>
<path d="M160 460 c-89 -48 -83 -31 -77 -234 3 -100 9 -191 12 -203 7 -22 11
-23 136 -23 l128 0 11 43 c5 23 23 69 40 102 34 68 36 104 19 231 -12 80 -12
80 -50 97 -63 27 -153 22 -219 -13z"/>
<path d="M622 352 c2 -10 -4 -27 -12 -37 -14 -17 -13 -18 15 -11 52 13 57 33
14 57 -18 9 -20 8 -17 -9z"/>
<path d="M708 263 l-12 -32 -61 5 c-33 3 -66 8 -73 10 -12 3 -13 -17 -7 -113
4 -65 9 -121 12 -125 2 -5 84 -8 180 -8 l177 0 -26 28 c-14 15 -44 63 -67 107
-23 44 -57 98 -76 120 l-34 40 -13 -32z"/>
</g>
</svg>
