<?xml version="1.0" standalone="no"?>
<!DOCTYPE svg PUBLIC "-//W3C//DTD SVG 20010904//EN"
 "http://www.w3.org/TR/2001/REC-SVG-20010904/DTD/svg10.dtd">
<svg version="1.0" xmlns="http://www.w3.org/2000/svg"
 width="96.000000pt" height="84.000000pt" viewBox="0 0 96.000000 84.000000"
 preserveAspectRatio="xMidYMid meet">
<metadata>
Created by potrace 1.16, written by Peter Selinger 2001-2019
</metadata>
<g transform="translate(0.000000,84.000000) scale(0.100000,-0.100000)"
fill="#000000" stroke="none">
<path d="M0 660 l0 -180 51 0 c31 0 68 8 97 22 35 17 66 22 124 23 65 0 80 4
92 20 20 26 20 39 1 31 -20 -7 -20 18 0 34 8 7 15 27 15 46 0 37 24 65 71 85
26 10 33 9 52 -9 15 -14 30 -19 50 -15 31 6 34 -2 11 -28 -12 -13 -13 -22 -5
-36 7 -14 6 -27 -4 -46 -7 -14 -11 -28 -8 -31 6 -5 -17 -75 -31 -94 -12 -16 3
-28 55 -42 19 -5 55 -28 80 -50 24 -22 50 -40 57 -40 17 0 127 -150 164 -223
16 -33 38 -61 48 -64 11 -3 23 -17 29 -32 6 -17 10 109 10 392 l1 417 -480 0
-480 0 0 -180z"/>
<path d="M204 481 c-18 -4 -45 -18 -62 -30 -17 -11 -39 -21 -50 -21 -11 0 -23
-7 -26 -16 -8 -21 -8 -328 0 -377 l7 -37 143 0 142 0 7 33 c4 17 23 63 42 101
l35 69 -11 112 c-6 61 -11 116 -11 122 0 29 -153 60 -216 44z"/>
<path d="M624 334 c4 -9 1 -23 -5 -30 -9 -11 -7 -14 8 -14 10 0 27 6 38 13 17
13 17 15 -6 30 -30 21 -43 22 -35 1z"/>
<path d="M715 255 c-3 -8 -7 -22 -10 -31 -4 -11 -13 -14 -32 -10 -16 3 -50 6
-78 8 -45 3 -50 1 -48 -17 1 -11 5 -62 9 -112 l7 -93 168 0 168 0 -46 88 c-51
96 -109 182 -124 182 -5 0 -12 -7 -14 -15z"/>
</g>
</svg>
