<?xml version="1.0" standalone="no"?>
<!DOCTYPE svg PUBLIC "-//W3C//DTD SVG 20010904//EN"
 "http://www.w3.org/TR/2001/REC-SVG-20010904/DTD/svg10.dtd">
<svg version="1.0" xmlns="http://www.w3.org/2000/svg"
 width="96.000000pt" height="84.000000pt" viewBox="0 0 96.000000 84.000000"
 preserveAspectRatio="xMidYMid meet">
<metadata>
Created by potrace 1.16, written by Peter Selinger 2001-2019
</metadata>
<g transform="translate(0.000000,84.000000) scale(0.100000,-0.100000)"
fill="#000000" stroke="none">
<path d="M0 654 l0 -186 47 7 c26 4 61 14 78 23 20 11 60 17 124 19 76 2 96 6
107 20 18 24 17 33 -1 33 -19 0 -19 14 0 30 9 7 15 29 15 51 0 42 21 69 72 90
25 10 34 10 60 -5 18 -11 39 -16 54 -12 28 7 32 -9 8 -36 -14 -14 -15 -20 -4
-33 11 -13 11 -21 0 -43 -8 -15 -13 -32 -12 -37 1 -6 -7 -35 -18 -65 -22 -60
-21 -63 42 -80 20 -6 54 -27 75 -47 21 -19 49 -40 63 -45 29 -10 132 -152 178
-244 19 -38 39 -63 51 -67 21 -5 21 -4 21 404 l0 409 -480 0 -480 0 0 -186z"/>
<path d="M175 473 c-11 -3 -35 -16 -55 -29 -19 -13 -43 -24 -53 -24 -10 0 -22
-11 -27 -26 -11 -27 -14 -334 -4 -371 6 -23 9 -23 165 -23 140 0 159 2 159 16
0 9 16 48 35 85 39 77 42 107 24 252 -12 89 -12 89 -47 104 -37 16 -163 26
-197 16z"/>
<path d="M625 320 c4 -12 1 -28 -7 -37 -12 -15 -10 -16 17 -9 47 11 54 24 25
46 -32 25 -43 25 -35 0z"/>
<path d="M718 222 c-12 -30 -16 -33 -43 -27 -92 19 -124 22 -129 9 -3 -7 -1
-39 4 -71 6 -32 10 -75 10 -95 l0 -38 165 0 c91 0 165 3 165 6 0 19 -88 171
-121 206 l-38 43 -13 -33z"/>
</g>
</svg>
