<?xml version="1.0" standalone="no"?>
<!DOCTYPE svg PUBLIC "-//W3C//DTD SVG 20010904//EN"
 "http://www.w3.org/TR/2001/REC-SVG-20010904/DTD/svg10.dtd">
<svg version="1.0" xmlns="http://www.w3.org/2000/svg"
 width="96.000000pt" height="84.000000pt" viewBox="0 0 96.000000 84.000000"
 preserveAspectRatio="xMidYMid meet">
<metadata>
Created by potrace 1.16, written by Peter Selinger 2001-2019
</metadata>
<g transform="translate(0.000000,84.000000) scale(0.100000,-0.100000)"
fill="#000000" stroke="none">
<path d="M0 655 l0 -185 29 0 c16 0 50 10 77 22 40 18 67 22 141 21 75 0 92 2
97 16 3 9 9 22 12 29 3 7 -1 12 -10 12 -20 0 -21 14 -1 30 8 7 15 29 15 49 0
47 19 73 70 96 40 18 41 18 68 -2 19 -14 37 -19 55 -16 31 6 35 -8 10 -32 -13
-14 -14 -21 -5 -36 16 -25 15 -44 -3 -59 -8 -7 -12 -16 -9 -21 5 -9 -11 -68
-27 -101 -14 -28 -11 -35 24 -48 51 -19 82 -37 117 -70 19 -17 48 -37 67 -45
18 -8 33 -18 33 -23 0 -5 22 -39 49 -76 27 -36 66 -100 88 -141 21 -41 44 -75
51 -75 9 0 12 91 12 420 l0 420 -480 0 -480 0 0 -185z"/>
<path d="M108 441 c-32 -17 -64 -31 -72 -31 -30 0 -36 -39 -36 -224 l0 -186
174 0 174 0 41 82 c31 63 40 91 36 118 -2 19 -9 81 -16 136 l-12 102 -36 11
c-20 7 -72 15 -116 18 -75 5 -83 3 -137 -26z"/>
<path d="M620 311 c0 -6 5 -13 11 -17 8 -4 8 -9 0 -17 -19 -19 -12 -28 17 -21
42 10 46 20 16 43 -29 23 -44 27 -44 12z"/>
<path d="M732 218 c-5 -7 -12 -22 -14 -33 -2 -13 -10 -19 -23 -17 -11 2 -47 8
-79 13 -33 5 -63 6 -68 1 -4 -4 -2 -47 4 -95 l12 -87 162 0 163 0 -19 45 c-21
49 -89 153 -113 173 -11 10 -17 10 -25 0z"/>
</g>
</svg>
