<?xml version="1.0" standalone="no"?>
<!DOCTYPE svg PUBLIC "-//W3C//DTD SVG 20010904//EN"
 "http://www.w3.org/TR/2001/REC-SVG-20010904/DTD/svg10.dtd">
<svg version="1.0" xmlns="http://www.w3.org/2000/svg"
 width="96.000000pt" height="84.000000pt" viewBox="0 0 96.000000 84.000000"
 preserveAspectRatio="xMidYMid meet">
<metadata>
Created by potrace 1.16, written by Peter Selinger 2001-2019
</metadata>
<g transform="translate(0.000000,84.000000) scale(0.100000,-0.100000)"
fill="#000000" stroke="none">
<path d="M0 420 l0 -420 480 0 480 0 0 420 0 420 -480 0 -480 0 0 -420z m463
233 c-5 -15 -3 -16 8 -5 19 18 53 15 73 -7 17 -19 17 -19 -6 -15 -20 5 -19 2
12 -26 19 -18 30 -34 24 -36 -6 -3 -9 -16 -6 -29 3 -19 11 -25 29 -25 16 0 23
-5 20 -12 -3 -10 7 -12 39 -9 37 2 48 -1 64 -20 25 -31 25 -34 -3 -52 -20 -13
-30 -13 -73 -2 -27 7 -57 16 -66 20 -14 5 -18 2 -18 -12 0 -11 -7 -20 -15 -20
-8 0 -15 6 -15 14 0 8 -12 13 -30 13 -16 0 -30 5 -30 11 0 8 -14 10 -43 6 -47
-7 -114 5 -131 23 -8 10 7 11 71 6 77 -7 82 -6 97 16 18 26 21 64 6 73 -6 4
-8 15 -5 24 3 10 -3 25 -14 35 -16 14 -17 21 -8 32 17 19 27 17 20 -3z"/>
<path d="M530 539 c0 -5 5 -7 10 -4 6 3 10 8 10 11 0 2 -4 4 -10 4 -5 0 -10
-5 -10 -11z"/>
<path d="M482 499 c-7 -11 -11 -23 -9 -25 7 -7 29 24 25 36 -2 6 -9 1 -16 -11z"/>
<path d="M578 493 c7 -3 16 -2 19 1 4 3 -2 6 -13 5 -11 0 -14 -3 -6 -6z"/>
</g>
</svg>
