<?xml version="1.0" standalone="no"?>
<!DOCTYPE svg PUBLIC "-//W3C//DTD SVG 20010904//EN"
 "http://www.w3.org/TR/2001/REC-SVG-20010904/DTD/svg10.dtd">
<svg version="1.0" xmlns="http://www.w3.org/2000/svg"
 width="96.000000pt" height="84.000000pt" viewBox="0 0 96.000000 84.000000"
 preserveAspectRatio="xMidYMid meet">
<metadata>
Created by potrace 1.16, written by Peter Selinger 2001-2019
</metadata>
<g transform="translate(0.000000,84.000000) scale(0.100000,-0.100000)"
fill="#000000" stroke="none">
<path d="M0 650 c0 -128 3 -190 11 -190 6 0 34 10 62 23 42 18 70 22 149 22
104 0 98 -3 127 59 2 5 -3 6 -12 3 -25 -10 -29 8 -7 36 11 14 20 40 20 59 0
43 14 61 68 89 l43 22 30 -22 c22 -17 38 -21 60 -16 35 8 40 -12 9 -40 -17
-15 -17 -20 -5 -39 10 -16 10 -27 2 -46 -6 -14 -12 -34 -13 -45 -5 -39 -22
-96 -33 -109 -9 -11 -7 -18 11 -30 12 -9 28 -16 36 -16 22 0 65 -26 107 -65
21 -21 51 -42 65 -47 14 -4 35 -23 45 -41 10 -18 35 -53 55 -78 20 -25 52 -76
71 -113 19 -36 40 -66 47 -66 9 0 12 91 12 420 l0 420 -480 0 -480 0 0 -190z"/>
<path d="M95 440 c-22 -12 -52 -29 -67 -37 l-28 -14 0 -195 0 -194 174 0 175
0 33 58 c30 52 33 63 30 132 -1 41 -8 111 -15 155 l-12 80 -40 13 c-22 8 -78
16 -125 19 -74 4 -90 2 -125 -17z"/>
<path d="M633 278 c4 -12 1 -29 -6 -37 -10 -12 -8 -13 13 -8 14 4 31 7 38 7
21 0 13 27 -13 44 -32 21 -38 20 -32 -6z"/>
<path d="M735 185 c-3 -8 -7 -22 -10 -31 -4 -13 -12 -15 -38 -9 -59 14 -132
23 -141 17 -8 -4 -2 -90 10 -139 6 -23 8 -23 171 -23 l164 0 -32 60 c-33 63
-94 140 -110 140 -5 0 -12 -7 -14 -15z"/>
</g>
</svg>
