<?xml version="1.0" standalone="no"?>
<!DOCTYPE svg PUBLIC "-//W3C//DTD SVG 20010904//EN"
 "http://www.w3.org/TR/2001/REC-SVG-20010904/DTD/svg10.dtd">
<svg version="1.0" xmlns="http://www.w3.org/2000/svg"
 width="96.000000pt" height="84.000000pt" viewBox="0 0 96.000000 84.000000"
 preserveAspectRatio="xMidYMid meet">
<metadata>
Created by potrace 1.16, written by Peter Selinger 2001-2019
</metadata>
<g transform="translate(0.000000,84.000000) scale(0.100000,-0.100000)"
fill="#000000" stroke="none">
<path d="M0 650 c0 -104 2 -190 4 -190 2 0 24 9 50 21 38 16 64 20 147 18 100
-2 101 -2 115 26 18 34 18 33 -7 37 l-21 3 21 27 c13 16 21 41 21 65 0 45 12
63 60 92 43 26 70 26 101 2 16 -12 30 -16 44 -10 49 19 60 1 23 -38 -17 -18
-19 -26 -10 -35 15 -15 16 -55 1 -64 -6 -3 -8 -15 -5 -27 3 -11 -2 -33 -10
-48 -7 -15 -14 -36 -14 -45 0 -10 -7 -25 -16 -35 -14 -16 -14 -19 11 -35 14
-9 36 -18 49 -19 25 -3 72 -30 84 -49 11 -17 75 -62 99 -70 11 -4 28 -21 38
-39 9 -18 34 -54 55 -82 22 -27 52 -74 67 -102 52 -99 53 -91 53 367 l0 420
-480 0 -480 0 0 -190z"/>
<path d="M53 425 l-53 -27 0 -199 0 -199 178 0 179 0 28 55 28 56 -18 149 -18
149 -41 17 c-24 10 -80 18 -136 21 -88 4 -99 3 -147 -22z"/>
<path d="M633 245 c1 -38 19 -46 51 -22 18 13 17 15 -9 35 -37 30 -43 28 -42
-13z"/>
<path d="M740 154 c-6 -14 -10 -30 -10 -36 0 -10 -7 -9 -85 11 -57 15 -95 13
-101 -4 -4 -9 -3 -40 1 -70 l6 -55 170 0 170 0 -15 28 c-23 44 -105 152 -116
152 -6 0 -15 -12 -20 -26z"/>
</g>
</svg>
