<?xml version="1.0" standalone="no"?>
<!DOCTYPE svg PUBLIC "-//W3C//DTD SVG 20010904//EN"
 "http://www.w3.org/TR/2001/REC-SVG-20010904/DTD/svg10.dtd">
<svg version="1.0" xmlns="http://www.w3.org/2000/svg"
 width="96.000000pt" height="84.000000pt" viewBox="0 0 96.000000 84.000000"
 preserveAspectRatio="xMidYMid meet">
<metadata>
Created by potrace 1.16, written by Peter Selinger 2001-2019
</metadata>
<g transform="translate(0.000000,84.000000) scale(0.100000,-0.100000)"
fill="#000000" stroke="none">
<path d="M0 656 l0 -183 53 14 c36 10 80 13 145 9 73 -4 92 -3 92 8 0 7 7 19
15 26 14 12 11 35 -4 26 -4 -3 -12 -1 -19 3 -9 6 -7 15 10 36 15 19 21 39 19
62 -3 44 19 78 69 103 49 25 64 25 99 0 23 -18 32 -19 56 -10 41 16 51 -1 21
-37 -17 -20 -22 -33 -15 -40 17 -17 18 -46 2 -71 -7 -12 -11 -27 -8 -33 6 -9
-17 -85 -37 -123 -13 -25 16 -51 71 -66 21 -5 59 -30 87 -55 27 -25 65 -53 86
-62 20 -9 42 -28 50 -42 7 -14 33 -53 58 -86 25 -33 54 -77 65 -98 43 -81 45
-64 45 383 l0 420 -480 0 -480 0 0 -184z"/>
<path d="M33 426 l-33 -15 0 -206 0 -205 183 2 182 3 19 38 c17 35 17 47 6
155 -7 64 -17 123 -22 129 -6 7 -8 24 -5 38 4 22 -2 29 -37 47 -54 28 -243 37
-293 14z"/>
<path d="M634 230 c1 -41 12 -48 50 -34 29 11 16 34 -35 64 -15 8 -17 4 -15
-30z"/>
<path d="M752 140 c-7 -11 -12 -27 -12 -35 0 -23 -22 -27 -61 -11 -18 8 -56
16 -84 17 l-50 4 0 -55 0 -55 168 -3 c96 -1 167 1 167 7 0 11 -81 121 -101
138 -12 10 -17 8 -27 -7z"/>
</g>
</svg>
