<?xml version="1.0" standalone="no"?>
<!DOCTYPE svg PUBLIC "-//W3C//DTD SVG 20010904//EN"
 "http://www.w3.org/TR/2001/REC-SVG-20010904/DTD/svg10.dtd">
<svg version="1.0" xmlns="http://www.w3.org/2000/svg"
 width="96.000000pt" height="84.000000pt" viewBox="0 0 96.000000 84.000000"
 preserveAspectRatio="xMidYMid meet">
<metadata>
Created by potrace 1.16, written by Peter Selinger 2001-2019
</metadata>
<g transform="translate(0.000000,84.000000) scale(0.100000,-0.100000)"
fill="#000000" stroke="none">
<path d="M0 660 l0 -180 27 7 c35 10 179 10 216 0 20 -5 27 -4 27 7 0 7 7 19
15 26 20 17 19 30 -3 30 -31 0 -33 12 -6 47 19 25 24 41 20 65 -6 41 6 62 56
98 48 35 83 38 114 9 20 -19 27 -20 55 -10 48 16 60 -1 26 -37 -27 -28 -27
-29 -9 -53 20 -26 19 -43 -6 -72 -10 -12 -12 -21 -5 -28 10 -10 -19 -112 -39
-136 -19 -23 20 -51 94 -67 15 -4 42 -21 60 -39 44 -44 103 -88 110 -81 3 3
15 -8 27 -23 49 -63 119 -160 136 -190 43 -74 45 -59 45 387 l0 420 -480 0
-480 0 0 -180z"/>
<path d="M30 431 l-25 -7 -3 -212 -2 -212 185 0 185 0 11 28 c8 19 8 51 -1
112 -6 47 -12 102 -14 123 -2 21 -6 40 -10 44 -3 3 -6 22 -6 42 0 32 -5 38
-38 53 -72 33 -214 48 -282 29z"/>
<path d="M630 236 c0 -8 5 -18 10 -21 7 -4 7 -13 0 -26 -9 -16 -7 -19 13 -19
13 0 31 6 42 13 17 13 16 15 -17 40 -40 31 -48 33 -48 13z"/>
<path d="M763 129 c-7 -7 -13 -19 -13 -27 0 -7 -4 -22 -10 -32 -9 -18 -11 -18
-60 1 -59 22 -123 25 -139 5 -6 -7 -8 -27 -5 -45 l7 -31 169 0 169 0 -16 28
c-9 15 -33 46 -53 70 -30 34 -39 41 -49 31z"/>
</g>
</svg>
