<?xml version="1.0" standalone="no"?>
<!DOCTYPE svg PUBLIC "-//W3C//DTD SVG 20010904//EN"
 "http://www.w3.org/TR/2001/REC-SVG-20010904/DTD/svg10.dtd">
<svg version="1.0" xmlns="http://www.w3.org/2000/svg"
 width="96.000000pt" height="84.000000pt" viewBox="0 0 96.000000 84.000000"
 preserveAspectRatio="xMidYMid meet">
<metadata>
Created by potrace 1.16, written by Peter Selinger 2001-2019
</metadata>
<g transform="translate(0.000000,84.000000) scale(0.100000,-0.100000)"
fill="#000000" stroke="none">
<path d="M0 665 l0 -175 68 6 c37 3 93 2 124 -4 52 -8 58 -7 63 10 4 10 11 18
16 18 5 0 9 7 9 16 0 10 -5 14 -15 10 -26 -9 -30 23 -6 48 16 17 21 35 21 72
0 57 9 71 64 108 47 31 69 32 107 5 25 -18 34 -19 61 -10 45 16 58 -1 30 -39
-26 -34 -27 -43 -8 -59 14 -12 11 -46 -7 -68 -5 -7 -7 -19 -4 -27 7 -17 -32
-146 -44 -146 -5 0 -9 -5 -9 -10 0 -14 57 -48 101 -60 19 -5 60 -32 90 -60 30
-28 70 -58 90 -67 20 -9 45 -30 55 -47 45 -75 129 -186 141 -186 10 0 13 83
13 420 l0 420 -480 0 -480 0 0 -175z"/>
<path d="M23 433 c-23 -4 -23 -4 -23 -219 l0 -214 188 2 187 3 3 40 c2 23 -2
68 -8 100 -23 126 -31 171 -34 199 -2 16 -9 32 -17 35 -8 3 -25 14 -39 23 -41
28 -184 45 -257 31z"/>
<path d="M634 226 c-4 -10 -2 -22 4 -28 9 -9 8 -15 0 -25 -10 -12 -5 -14 28
-11 48 4 51 21 7 55 -29 23 -33 24 -39 9z"/>
<path d="M767 102 c-10 -10 -17 -25 -17 -33 0 -30 -21 -39 -53 -23 -16 9 -53
18 -83 21 -61 6 -84 -6 -84 -43 l0 -24 170 0 c94 0 170 3 170 7 0 6 -80 113
-85 113 -1 0 -9 -8 -18 -18z"/>
</g>
</svg>
