<?xml version="1.0" standalone="no"?>
<!DOCTYPE svg PUBLIC "-//W3C//DTD SVG 20010904//EN"
 "http://www.w3.org/TR/2001/REC-SVG-20010904/DTD/svg10.dtd">
<svg version="1.0" xmlns="http://www.w3.org/2000/svg"
 width="96.000000pt" height="84.000000pt" viewBox="0 0 96.000000 84.000000"
 preserveAspectRatio="xMidYMid meet">
<metadata>
Created by potrace 1.16, written by Peter Selinger 2001-2019
</metadata>
<g transform="translate(0.000000,84.000000) scale(0.100000,-0.100000)"
fill="#000000" stroke="none">
<path d="M0 671 l0 -168 116 -5 c105 -5 118 -4 136 14 20 20 16 41 -6 32 -25
-10 -29 17 -7 47 14 19 21 43 21 76 0 52 15 76 66 111 49 33 76 36 108 11 25
-20 33 -21 68 -12 50 13 59 -3 28 -47 -19 -27 -20 -33 -8 -48 19 -22 20 -58 2
-73 -15 -12 -19 -39 -6 -39 10 0 -30 -124 -47 -144 -11 -13 -7 -19 21 -36 18
-11 44 -23 58 -26 38 -10 88 -42 138 -91 24 -24 60 -50 79 -58 22 -10 39 -26
48 -49 8 -19 19 -37 25 -41 6 -3 28 -33 50 -66 72 -104 70 -112 70 361 l0 420
-480 0 -480 0 0 -169z"/>
<path d="M7 433 c-4 -3 -7 -102 -7 -220 l0 -213 186 0 187 0 -6 86 c-2 47 -10
91 -16 97 -6 6 -11 32 -11 58 0 26 -4 51 -10 54 -5 3 -10 22 -10 41 0 19 -4
34 -9 34 -5 0 -22 11 -38 24 -17 14 -53 29 -88 35 -65 12 -168 15 -178 4z"/>
<path d="M630 217 c0 -7 5 -18 12 -25 8 -8 8 -15 -2 -27 -11 -13 -8 -15 23
-15 51 0 57 18 17 52 -38 31 -50 35 -50 15z"/>
<path d="M767 92 c-10 -10 -17 -28 -17 -40 0 -31 -12 -33 -73 -12 -92 32 -147
24 -147 -22 0 -17 13 -18 171 -18 l170 0 -32 45 c-46 64 -53 68 -72 47z"/>
</g>
</svg>
