<?xml version="1.0" standalone="no"?>
<!DOCTYPE svg PUBLIC "-//W3C//DTD SVG 20010904//EN"
 "http://www.w3.org/TR/2001/REC-SVG-20010904/DTD/svg10.dtd">
<svg version="1.0" xmlns="http://www.w3.org/2000/svg"
 width="96.000000pt" height="84.000000pt" viewBox="0 0 96.000000 84.000000"
 preserveAspectRatio="xMidYMid meet">
<metadata>
Created by potrace 1.16, written by Peter Selinger 2001-2019
</metadata>
<g transform="translate(0.000000,84.000000) scale(0.100000,-0.100000)"
fill="#000000" stroke="none">
<path d="M0 672 l0 -169 53 4 c28 3 79 0 112 -5 50 -8 63 -7 78 6 22 20 22 32
-2 32 -32 0 -34 19 -9 53 19 25 24 41 20 73 -5 54 9 79 66 115 54 34 80 36
114 9 22 -16 30 -18 62 -8 52 16 65 0 30 -41 -25 -30 -25 -33 -10 -50 20 -22
20 -50 0 -79 -12 -17 -13 -26 -5 -36 9 -10 6 -25 -9 -61 -11 -25 -20 -55 -20
-66 0 -10 -4 -19 -10 -19 -5 0 -10 -6 -10 -13 0 -8 24 -24 53 -36 99 -43 114
-52 168 -102 29 -28 68 -57 87 -64 18 -8 38 -26 45 -42 24 -55 112 -172 130
-173 16 0 17 27 17 420 l0 420 -480 0 -480 0 0 -168z"/>
<path d="M18 443 c-16 -4 -18 -23 -18 -224 l0 -219 186 0 187 0 -7 79 c-3 43
-13 93 -22 110 -11 21 -14 44 -10 67 4 21 3 34 -4 34 -5 0 -10 18 -10 40 0 28
-4 40 -15 40 -8 0 -29 13 -47 29 -25 22 -50 31 -105 40 -73 11 -104 12 -135 4z"/>
<path d="M630 212 c0 -10 5 -23 11 -29 8 -8 8 -13 0 -17 -24 -15 -10 -27 22
-21 52 11 56 23 17 56 -40 34 -50 36 -50 11z"/>
<path d="M766 91 c-9 -10 -16 -27 -16 -40 0 -29 -19 -35 -61 -18 -18 8 -56 18
-82 21 -53 8 -77 -3 -77 -35 0 -18 10 -19 165 -19 91 0 165 3 165 8 0 4 -17
28 -39 54 -37 45 -39 46 -55 29z"/>
</g>
</svg>
