<?xml version="1.0" standalone="no"?>
<!DOCTYPE svg PUBLIC "-//W3C//DTD SVG 20010904//EN"
 "http://www.w3.org/TR/2001/REC-SVG-20010904/DTD/svg10.dtd">
<svg version="1.0" xmlns="http://www.w3.org/2000/svg"
 width="96.000000pt" height="84.000000pt" viewBox="0 0 96.000000 84.000000"
 preserveAspectRatio="xMidYMid meet">
<metadata>
Created by potrace 1.16, written by Peter Selinger 2001-2019
</metadata>
<g transform="translate(0.000000,84.000000) scale(0.100000,-0.100000)"
fill="#000000" stroke="none">
<path d="M0 675 l0 -165 38 6 c20 3 70 1 111 -4 54 -8 78 -8 92 1 26 16 24 27
-6 27 -31 0 -33 22 -5 57 15 19 20 39 19 72 -2 56 12 80 65 115 47 31 82 33
115 7 21 -16 28 -17 56 -5 48 20 63 4 36 -40 -20 -32 -21 -38 -7 -57 15 -21
13 -35 -7 -77 -8 -16 -8 -25 0 -33 8 -8 6 -24 -8 -56 -10 -25 -19 -53 -19 -63
0 -9 -7 -23 -16 -31 -14 -11 -9 -16 38 -40 29 -15 56 -25 60 -23 9 6 64 -34
123 -89 27 -26 55 -47 63 -47 15 0 51 -36 72 -72 46 -80 106 -158 122 -158 17
0 18 23 18 420 l0 420 -480 0 -480 0 0 -165z"/>
<path d="M27 453 l-27 -4 0 -225 0 -224 186 0 187 0 -7 77 c-4 42 -12 86 -19
97 -6 12 -14 44 -19 71 -17 110 -21 125 -32 125 -7 0 -27 16 -45 34 -28 29
-43 36 -90 41 -31 3 -67 8 -81 9 -14 2 -37 1 -53 -1z"/>
<path d="M625 221 c-3 -5 0 -13 6 -16 6 -4 8 -18 5 -31 -6 -22 -3 -24 28 -24
46 0 53 23 15 55 -33 27 -44 30 -54 16z"/>
<path d="M751 66 l-20 -45 -55 20 c-69 24 -131 25 -140 3 -17 -43 -14 -44 160
-44 105 0 164 4 162 10 -5 15 -72 99 -79 100 -4 0 -16 -20 -28 -44z"/>
</g>
</svg>
