<?xml version="1.0" standalone="no"?>
<!DOCTYPE svg PUBLIC "-//W3C//DTD SVG 20010904//EN"
 "http://www.w3.org/TR/2001/REC-SVG-20010904/DTD/svg10.dtd">
<svg version="1.0" xmlns="http://www.w3.org/2000/svg"
 width="96.000000pt" height="84.000000pt" viewBox="0 0 96.000000 84.000000"
 preserveAspectRatio="xMidYMid meet">
<metadata>
Created by potrace 1.16, written by Peter Selinger 2001-2019
</metadata>
<g transform="translate(0.000000,84.000000) scale(0.100000,-0.100000)"
fill="#000000" stroke="none">
<path d="M0 681 l0 -159 83 -2 c45 -1 100 -3 122 -4 30 -1 40 3 43 16 2 12 -2
15 -16 11 -31 -8 -34 12 -8 50 19 28 23 44 19 79 -4 37 -1 49 21 75 15 17 47
41 72 54 l46 22 30 -23 c27 -20 35 -21 68 -11 20 6 40 11 44 11 13 0 5 -39
-14 -62 -17 -22 -18 -27 -5 -44 18 -24 18 -54 0 -78 -10 -13 -11 -23 -5 -31
11 -13 -12 -105 -36 -142 -14 -22 -13 -24 43 -49 100 -46 117 -57 172 -111 30
-29 60 -53 68 -53 17 0 63 -40 63 -56 0 -7 26 -49 57 -93 97 -136 93 -150 93
339 l0 420 -480 0 -480 0 0 -159z"/>
<path d="M0 231 l0 -231 183 2 182 3 -3 75 c-2 43 -9 84 -18 97 -8 12 -14 42
-14 67 0 25 -4 48 -10 51 -5 3 -10 21 -10 40 0 27 -5 34 -26 39 -14 4 -33 20
-42 36 -22 39 -30 41 -144 48 l-98 5 0 -232z"/>
<path d="M627 226 c-3 -7 0 -19 6 -25 9 -9 8 -16 -1 -31 -11 -18 -10 -20 22
-20 55 0 63 22 21 59 -41 36 -41 36 -48 17z"/>
<path d="M762 97 c-6 -6 -13 -24 -17 -40 -8 -31 -26 -34 -78 -12 -52 21 -124
20 -136 -3 -20 -38 -2 -43 168 -40 l163 3 -39 52 c-41 57 -45 60 -61 40z"/>
</g>
</svg>
