<?xml version="1.0" standalone="no"?>
<!DOCTYPE svg PUBLIC "-//W3C//DTD SVG 20010904//EN"
 "http://www.w3.org/TR/2001/REC-SVG-20010904/DTD/svg10.dtd">
<svg version="1.0" xmlns="http://www.w3.org/2000/svg"
 width="96.000000pt" height="84.000000pt" viewBox="0 0 96.000000 84.000000"
 preserveAspectRatio="xMidYMid meet">
<metadata>
Created by potrace 1.16, written by Peter Selinger 2001-2019
</metadata>
<g transform="translate(0.000000,84.000000) scale(0.100000,-0.100000)"
fill="#000000" stroke="none">
<path d="M0 686 l0 -153 98 -7 c53 -3 108 -7 122 -9 16 -1 26 4 28 15 2 12 -2
15 -16 11 -30 -7 -37 16 -13 48 15 20 21 43 21 83 0 52 2 56 45 94 60 52 90
60 128 31 26 -19 34 -20 62 -10 17 6 37 11 43 11 19 0 14 -28 -10 -60 -20 -28
-20 -31 -5 -48 21 -23 21 -51 2 -76 -10 -13 -11 -23 -5 -31 9 -11 -26 -134
-43 -152 -8 -8 77 -57 114 -66 14 -4 55 -34 90 -67 35 -34 78 -68 95 -76 17
-8 39 -30 50 -49 50 -89 117 -175 135 -175 18 0 19 12 19 420 l0 420 -480 0
-480 0 0 -154z"/>
<path d="M0 236 l0 -236 183 2 182 3 -3 70 c-2 39 -10 83 -18 99 -8 16 -14 48
-14 72 0 24 -4 46 -10 49 -5 3 -10 21 -10 38 0 26 -6 35 -33 47 -17 8 -37 26
-44 40 -16 32 -41 40 -145 47 l-88 6 0 -237z"/>
<path d="M627 226 c-3 -7 0 -19 6 -25 9 -9 8 -16 -1 -31 -11 -18 -10 -20 22
-20 55 0 63 22 21 59 -41 36 -41 36 -48 17z"/>
<path d="M757 90 c-9 -14 -17 -32 -17 -42 0 -22 -25 -23 -73 -3 -54 23 -124
20 -137 -5 -6 -11 -8 -25 -5 -30 4 -6 74 -10 171 -10 185 0 180 -4 112 74
l-34 39 -17 -23z"/>
</g>
</svg>
