<?xml version="1.0" standalone="no"?>
<!DOCTYPE svg PUBLIC "-//W3C//DTD SVG 20010904//EN"
 "http://www.w3.org/TR/2001/REC-SVG-20010904/DTD/svg10.dtd">
<svg version="1.0" xmlns="http://www.w3.org/2000/svg"
 width="96.000000pt" height="84.000000pt" viewBox="0 0 96.000000 84.000000"
 preserveAspectRatio="xMidYMid meet">
<metadata>
Created by potrace 1.16, written by Peter Selinger 2001-2019
</metadata>
<g transform="translate(0.000000,84.000000) scale(0.100000,-0.100000)"
fill="#000000" stroke="none">
<path d="M0 420 l0 -420 480 0 480 0 0 420 0 420 -480 0 -480 0 0 -420z m473
237 c14 14 20 15 44 4 26 -13 27 -14 8 -21 -18 -7 -18 -9 -3 -15 23 -9 53 -56
40 -64 -16 -10 5 -51 28 -51 11 0 20 -5 20 -10 0 -6 16 -8 40 -4 34 6 44 3 60
-14 28 -30 26 -60 -4 -68 -14 -3 -49 1 -79 10 -67 19 -67 19 -67 2 0 -23 -27
-27 -33 -4 -5 16 -11 19 -30 14 -16 -4 -29 0 -37 9 -7 8 -28 15 -47 15 -32 0
-34 -2 -22 -17 13 -15 11 -15 -19 1 -18 9 -37 14 -42 11 -6 -3 -10 -1 -10 4 0
6 -6 11 -14 11 -8 0 -18 5 -22 11 -7 11 10 11 127 -7 34 -5 37 -3 53 30 14 30
15 40 4 58 -7 13 -11 27 -10 32 2 5 -6 15 -17 22 -13 9 -17 21 -14 35 5 20 7
20 18 6 11 -15 13 -15 28 0z"/>
<path d="M531 544 c0 -11 3 -14 6 -6 3 7 2 16 -1 19 -3 4 -6 -2 -5 -13z"/>
<path d="M476 504 c-9 -24 -7 -28 9 -14 17 14 20 30 6 30 -5 0 -12 -7 -15 -16z"/>
</g>
</svg>
