<?xml version="1.0" standalone="no"?>
<!DOCTYPE svg PUBLIC "-//W3C//DTD SVG 20010904//EN"
 "http://www.w3.org/TR/2001/REC-SVG-20010904/DTD/svg10.dtd">
<svg version="1.0" xmlns="http://www.w3.org/2000/svg"
 width="96.000000pt" height="84.000000pt" viewBox="0 0 96.000000 84.000000"
 preserveAspectRatio="xMidYMid meet">
<metadata>
Created by potrace 1.16, written by Peter Selinger 2001-2019
</metadata>
<g transform="translate(0.000000,84.000000) scale(0.100000,-0.100000)"
fill="#000000" stroke="none">
<path d="M0 684 l0 -156 30 5 c24 5 144 -5 203 -16 6 -1 12 6 14 15 3 12 -1
15 -15 11 -31 -8 -36 16 -12 50 18 24 23 42 21 82 -2 49 1 54 35 84 20 18 52
40 70 49 33 15 35 15 65 -7 28 -21 36 -22 69 -12 20 6 40 11 44 11 13 0 5 -33
-15 -61 -19 -28 -20 -31 -5 -48 20 -22 20 -50 1 -75 -10 -13 -11 -23 -5 -31
12 -14 -6 -76 -40 -146 -6 -11 4 -21 44 -41 28 -15 61 -29 74 -33 12 -3 50
-33 85 -66 34 -33 76 -67 94 -75 17 -9 37 -27 45 -42 7 -15 36 -62 63 -104 38
-58 56 -77 73 -78 l22 0 0 420 0 420 -480 0 -480 0 0 -156z"/>
<path d="M0 235 l0 -235 183 2 182 3 -3 70 c-2 39 -10 83 -18 99 -8 16 -14 48
-14 72 0 24 -4 46 -10 49 -5 3 -10 21 -10 38 0 26 -6 35 -32 47 -18 8 -39 29
-48 45 -19 35 -44 42 -152 44 l-78 1 0 -235z"/>
<path d="M634 209 c3 -18 1 -38 -5 -45 -9 -11 -5 -14 24 -14 56 0 64 22 22 59
-20 17 -38 31 -42 31 -3 0 -3 -14 1 -31z"/>
<path d="M756 88 c-9 -12 -16 -30 -16 -39 0 -27 -9 -28 -65 -8 -74 26 -131 25
-145 -1 -6 -11 -8 -25 -5 -30 4 -6 74 -10 171 -10 l165 0 -32 45 c-47 66 -54
70 -73 43z"/>
</g>
</svg>
