<?xml version="1.0" standalone="no"?>
<!DOCTYPE svg PUBLIC "-//W3C//DTD SVG 20010904//EN"
 "http://www.w3.org/TR/2001/REC-SVG-20010904/DTD/svg10.dtd">
<svg version="1.0" xmlns="http://www.w3.org/2000/svg"
 width="96.000000pt" height="84.000000pt" viewBox="0 0 96.000000 84.000000"
 preserveAspectRatio="xMidYMid meet">
<metadata>
Created by potrace 1.16, written by Peter Selinger 2001-2019
</metadata>
<g transform="translate(0.000000,84.000000) scale(0.100000,-0.100000)"
fill="#000000" stroke="none">
<path d="M0 688 l0 -153 68 0 c37 0 95 -4 130 -8 43 -6 62 -6 62 2 0 6 -11 11
-24 11 -36 0 -39 13 -11 54 18 27 23 44 19 66 -10 48 3 77 53 115 51 39 95 45
125 18 16 -14 25 -15 61 -6 23 7 45 8 50 4 4 -4 -3 -23 -16 -43 -21 -30 -22
-37 -11 -53 16 -21 18 -61 5 -69 -5 -3 -9 -27 -9 -53 0 -27 -10 -70 -21 -96
-12 -27 -21 -50 -21 -52 0 -7 88 -52 113 -59 14 -3 58 -37 98 -76 41 -38 78
-70 84 -70 17 0 55 -44 55 -62 0 -9 7 -21 15 -28 9 -7 32 -39 52 -71 27 -45
41 -59 59 -59 l24 0 0 420 0 420 -480 0 -480 0 0 -152z"/>
<path d="M7 474 c-4 -4 -7 -112 -7 -241 l0 -233 183 2 182 3 -3 74 c-2 41 -8
84 -15 95 -6 12 -14 44 -18 71 -13 89 -23 115 -49 128 -14 7 -33 28 -42 47
-11 22 -28 38 -45 42 -44 12 -177 21 -186 12z"/>
<path d="M527 290 c3 -11 7 -20 9 -20 2 0 4 9 4 20 0 11 -4 20 -9 20 -5 0 -7
-9 -4 -20z"/>
<path d="M630 216 c0 -8 4 -18 10 -21 6 -4 3 -16 -7 -32 l-17 -26 39 7 c55 11
61 26 25 59 -34 30 -50 34 -50 13z"/>
<path d="M756 78 c-9 -12 -16 -28 -16 -35 0 -21 -18 -24 -55 -9 -20 9 -59 18
-87 22 -53 7 -68 -1 -68 -38 0 -16 14 -18 160 -18 88 0 160 3 160 6 0 10 -63
94 -71 94 -4 0 -15 -10 -23 -22z"/>
</g>
</svg>
