<?xml version="1.0" standalone="no"?>
<!DOCTYPE svg PUBLIC "-//W3C//DTD SVG 20010904//EN"
 "http://www.w3.org/TR/2001/REC-SVG-20010904/DTD/svg10.dtd">
<svg version="1.0" xmlns="http://www.w3.org/2000/svg"
 width="96.000000pt" height="84.000000pt" viewBox="0 0 96.000000 84.000000"
 preserveAspectRatio="xMidYMid meet">
<metadata>
Created by potrace 1.16, written by Peter Selinger 2001-2019
</metadata>
<g transform="translate(0.000000,84.000000) scale(0.100000,-0.100000)"
fill="#000000" stroke="none">
<path d="M0 690 l0 -150 73 0 c39 0 98 -6 130 -14 48 -11 57 -11 57 0 0 8 -11
14 -25 14 -30 0 -32 16 -5 50 14 18 20 41 20 82 0 57 0 58 51 98 56 44 81 49
122 21 23 -15 34 -16 67 -8 22 6 42 8 46 5 3 -4 -4 -23 -16 -43 -20 -33 -21
-37 -6 -54 17 -18 14 -54 -5 -77 -8 -10 -9 -18 0 -28 13 -15 -3 -75 -40 -148
-7 -13 1 -22 39 -43 26 -15 55 -28 66 -31 21 -4 38 -17 113 -91 29 -29 58 -53
64 -53 13 0 59 -46 59 -59 0 -6 20 -40 45 -77 25 -36 45 -69 45 -75 0 -5 14
-9 30 -9 l30 0 0 420 0 420 -480 0 -480 0 0 -150z"/>
<path d="M0 240 l0 -240 186 0 187 0 -7 83 c-4 45 -12 86 -17 92 -5 5 -9 33
-9 62 0 29 -4 53 -10 53 -5 0 -10 16 -10 35 0 23 -5 35 -14 35 -24 0 -64 39
-71 69 -5 25 -12 30 -62 40 -31 6 -83 11 -115 11 l-58 0 0 -240z"/>
<path d="M527 290 c3 -11 7 -20 9 -20 2 0 4 9 4 20 0 11 -4 20 -9 20 -5 0 -7
-9 -4 -20z"/>
<path d="M635 220 c-4 -6 -1 -18 6 -26 9 -11 9 -18 1 -26 -19 -19 -14 -28 16
-28 26 0 52 15 52 31 0 14 -69 59 -75 49z"/>
<path d="M762 87 c-6 -7 -13 -24 -17 -40 -8 -31 -17 -33 -73 -13 -58 21 -121
23 -132 6 -24 -38 -15 -40 150 -40 l161 0 -31 44 c-36 54 -44 60 -58 43z"/>
</g>
</svg>
