<?xml version="1.0" standalone="no"?>
<!DOCTYPE svg PUBLIC "-//W3C//DTD SVG 20010904//EN"
 "http://www.w3.org/TR/2001/REC-SVG-20010904/DTD/svg10.dtd">
<svg version="1.0" xmlns="http://www.w3.org/2000/svg"
 width="96.000000pt" height="84.000000pt" viewBox="0 0 96.000000 84.000000"
 preserveAspectRatio="xMidYMid meet">
<metadata>
Created by potrace 1.16, written by Peter Selinger 2001-2019
</metadata>
<g transform="translate(0.000000,84.000000) scale(0.100000,-0.100000)"
fill="#000000" stroke="none">
<path d="M0 690 l0 -150 78 0 c72 0 114 -6 169 -24 17 -6 23 -3 23 9 0 11 -6
14 -25 9 -32 -8 -34 16 -4 57 16 23 19 37 14 72 -6 37 -3 48 19 74 14 16 45
40 69 53 l44 23 36 -22 c33 -20 40 -21 72 -10 50 18 62 2 30 -41 -24 -33 -25
-34 -6 -54 19 -21 18 -33 -1 -73 -8 -16 -8 -26 0 -35 8 -10 3 -33 -18 -88 -16
-40 -28 -75 -27 -75 27 -20 98 -55 110 -55 9 0 49 -33 88 -74 40 -41 83 -77
95 -80 12 -3 30 -23 41 -43 11 -21 37 -66 59 -100 32 -52 44 -63 67 -63 l27 0
0 420 0 420 -480 0 -480 0 0 -150z"/>
<path d="M0 240 l0 -240 185 0 185 0 0 48 c-1 26 -6 67 -11 92 -13 58 -29 159
-29 187 0 15 -11 27 -34 38 -31 15 -46 35 -59 76 -7 22 -80 39 -166 39 l-71 0
0 -240z"/>
<path d="M531 303 c0 -4 4 -17 9 -28 8 -19 9 -19 9 2 1 12 -3 25 -9 28 -5 3
-10 3 -9 -2z"/>
<path d="M637 214 c-3 -3 -1 -14 5 -24 9 -14 9 -22 -2 -34 -18 -22 -8 -29 29
-21 44 9 47 22 15 56 -28 30 -36 34 -47 23z"/>
<path d="M763 78 c-6 -7 -13 -25 -17 -41 -7 -30 -24 -34 -65 -13 -15 8 -51 18
-78 22 -45 6 -52 4 -62 -14 -6 -11 -11 -23 -11 -26 0 -3 70 -6 155 -6 85 0
155 3 155 6 0 9 -54 84 -61 84 -4 0 -11 -6 -16 -12z"/>
</g>
</svg>
