<?xml version="1.0" standalone="no"?>
<!DOCTYPE svg PUBLIC "-//W3C//DTD SVG 20010904//EN"
 "http://www.w3.org/TR/2001/REC-SVG-20010904/DTD/svg10.dtd">
<svg version="1.0" xmlns="http://www.w3.org/2000/svg"
 width="96.000000pt" height="84.000000pt" viewBox="0 0 96.000000 84.000000"
 preserveAspectRatio="xMidYMid meet">
<metadata>
Created by potrace 1.16, written by Peter Selinger 2001-2019
</metadata>
<g transform="translate(0.000000,84.000000) scale(0.100000,-0.100000)"
fill="#000000" stroke="none">
<path d="M0 693 l0 -148 78 -1 c42 -1 104 -9 137 -18 32 -8 61 -13 63 -11 9 9
-10 24 -23 19 -25 -10 -28 23 -4 55 17 23 21 38 16 71 -5 36 -1 46 25 76 56
63 109 79 156 45 19 -12 33 -16 47 -10 28 11 65 11 65 0 0 -5 -11 -22 -24 -38
-23 -28 -24 -29 -5 -51 18 -23 17 -36 -4 -81 -9 -19 -9 -25 0 -28 9 -3 8 -15
-3 -45 -8 -23 -18 -46 -23 -52 -4 -6 -11 -23 -14 -37 -6 -23 -1 -30 35 -54 23
-15 49 -28 57 -29 19 -1 91 -55 91 -67 0 -11 74 -78 111 -101 15 -9 30 -27 34
-40 4 -13 26 -51 48 -85 34 -53 44 -63 68 -63 l29 0 0 420 0 420 -480 0 -480
0 0 -147z"/>
<path d="M18 484 c-17 -5 -18 -25 -18 -245 l0 -239 186 0 187 0 -7 78 c-14
176 -19 212 -27 212 -5 0 -9 15 -9 33 0 26 -6 35 -33 48 -21 10 -36 27 -43 50
-10 29 -18 36 -60 46 -58 15 -152 24 -176 17z"/>
<path d="M538 275 c2 -14 6 -25 8 -25 2 0 4 11 4 25 0 14 -4 25 -9 25 -4 0 -6
-11 -3 -25z"/>
<path d="M644 206 c-4 -9 -2 -22 5 -29 8 -8 6 -15 -6 -29 -15 -17 -14 -18 21
-18 51 0 57 23 18 63 -27 27 -32 29 -38 13z"/>
<path d="M763 68 c-6 -7 -13 -25 -15 -41 -5 -26 -4 -27 44 -27 53 0 52 -1 16
53 -21 30 -31 33 -45 15z"/>
<path d="M545 23 l-15 -23 97 0 c97 1 98 1 63 16 -19 9 -56 19 -82 23 -43 7
-49 6 -63 -16z"/>
</g>
</svg>
