<?xml version="1.0" standalone="no"?>
<!DOCTYPE svg PUBLIC "-//W3C//DTD SVG 20010904//EN"
 "http://www.w3.org/TR/2001/REC-SVG-20010904/DTD/svg10.dtd">
<svg version="1.0" xmlns="http://www.w3.org/2000/svg"
 width="96.000000pt" height="84.000000pt" viewBox="0 0 96.000000 84.000000"
 preserveAspectRatio="xMidYMid meet">
<metadata>
Created by potrace 1.16, written by Peter Selinger 2001-2019
</metadata>
<g transform="translate(0.000000,84.000000) scale(0.100000,-0.100000)"
fill="#000000" stroke="none">
<path d="M0 693 l0 -148 83 -2 c45 0 106 -8 134 -16 45 -12 55 -12 64 -1 9 11
7 14 -9 14 -33 0 -36 18 -8 55 18 24 26 46 26 75 0 55 11 73 64 104 54 31 79
33 114 6 21 -17 34 -19 69 -14 50 7 56 -6 22 -49 -17 -23 -18 -30 -7 -49 15
-28 11 -57 -9 -80 -11 -13 -13 -21 -5 -30 8 -10 4 -27 -13 -62 -40 -83 -40
-88 9 -119 24 -15 50 -27 59 -27 8 0 17 -4 19 -8 2 -4 18 -18 36 -31 17 -12
32 -28 32 -34 0 -7 23 -30 51 -52 64 -50 89 -75 89 -91 0 -6 18 -39 41 -73 34
-51 45 -61 70 -61 l29 0 0 420 0 420 -480 0 -480 0 0 -147z"/>
<path d="M18 484 c-17 -5 -18 -25 -18 -245 l0 -239 186 0 187 0 -7 138 c-4 75
-11 139 -17 140 -5 2 -9 21 -9 42 0 33 -5 41 -27 52 -16 7 -36 29 -45 48 -15
29 -27 37 -65 47 -56 15 -161 24 -185 17z"/>
<path d="M540 288 c0 -7 5 -20 10 -28 8 -12 10 -11 10 7 0 12 -4 25 -10 28 -5
3 -10 0 -10 -7z"/>
<path d="M645 200 c-4 -6 -1 -18 6 -26 9 -11 9 -18 1 -26 -19 -19 -14 -28 17
-28 30 0 57 22 47 39 -14 22 -65 51 -71 41z"/>
<path d="M760 45 c-16 -41 -13 -45 36 -45 l47 0 -25 32 c-33 42 -46 45 -58 13z"/>
<path d="M551 21 c-11 -21 -10 -21 71 -20 80 1 82 1 51 15 -17 7 -50 16 -71
20 -34 5 -42 3 -51 -15z"/>
</g>
</svg>
