<?xml version="1.0" standalone="no"?>
<!DOCTYPE svg PUBLIC "-//W3C//DTD SVG 20010904//EN"
 "http://www.w3.org/TR/2001/REC-SVG-20010904/DTD/svg10.dtd">
<svg version="1.0" xmlns="http://www.w3.org/2000/svg"
 width="96.000000pt" height="84.000000pt" viewBox="0 0 96.000000 84.000000"
 preserveAspectRatio="xMidYMid meet">
<metadata>
Created by potrace 1.16, written by Peter Selinger 2001-2019
</metadata>
<g transform="translate(0.000000,84.000000) scale(0.100000,-0.100000)"
fill="#000000" stroke="none">
<path d="M0 692 l0 -149 54 5 c29 2 91 -3 136 -12 63 -13 85 -14 96 -5 20 16
17 29 -6 29 -27 0 -25 22 5 50 17 16 25 34 25 56 0 56 16 82 69 109 65 32 101
32 131 -1 21 -21 30 -24 61 -19 49 9 58 -9 23 -46 -24 -25 -26 -32 -16 -53 14
-30 11 -50 -12 -75 -14 -15 -16 -24 -8 -33 7 -9 6 -19 -4 -33 -8 -11 -19 -38
-25 -60 -6 -22 -15 -43 -20 -46 -10 -6 64 -60 85 -63 19 -3 96 -60 96 -72 0
-12 68 -75 114 -107 14 -10 26 -25 26 -33 0 -9 16 -43 36 -75 31 -50 41 -59
65 -59 l29 0 0 420 0 420 -480 0 -480 0 0 -148z"/>
<path d="M13 484 c-10 -4 -13 -63 -13 -245 l0 -239 191 0 191 0 -7 138 c-4 75
-12 143 -17 149 -6 7 -8 29 -6 49 4 30 1 37 -18 44 -12 5 -34 24 -48 42 -17
24 -39 37 -73 47 -53 14 -181 24 -200 15z"/>
<path d="M551 283 c0 -4 4 -17 9 -28 8 -19 9 -19 9 2 1 12 -3 25 -9 28 -5 3
-10 3 -9 -2z"/>
<path d="M657 194 c-3 -3 -1 -14 5 -24 9 -14 9 -22 -1 -34 -12 -14 -9 -16 22
-16 46 0 53 21 18 54 -28 27 -34 30 -44 20z"/>
<path d="M777 49 c-27 -38 -21 -49 23 -49 43 0 44 5 7 54 -13 18 -14 18 -30
-5z"/>
<path d="M561 16 c-12 -14 -6 -16 65 -16 87 1 85 16 -4 27 -37 4 -51 2 -61
-11z"/>
</g>
</svg>
