<?xml version="1.0" standalone="no"?>
<!DOCTYPE svg PUBLIC "-//W3C//DTD SVG 20010904//EN"
 "http://www.w3.org/TR/2001/REC-SVG-20010904/DTD/svg10.dtd">
<svg version="1.0" xmlns="http://www.w3.org/2000/svg"
 width="96.000000pt" height="84.000000pt" viewBox="0 0 96.000000 84.000000"
 preserveAspectRatio="xMidYMid meet">
<metadata>
Created by potrace 1.16, written by Peter Selinger 2001-2019
</metadata>
<g transform="translate(0.000000,84.000000) scale(0.100000,-0.100000)"
fill="#000000" stroke="none">
<path d="M0 693 l0 -148 87 3 c54 2 109 -3 142 -11 50 -14 55 -13 72 4 23 23
24 39 5 39 -28 0 -27 20 3 48 19 17 32 42 36 67 10 53 38 82 97 100 57 17 87
9 112 -29 14 -22 22 -26 49 -21 18 3 39 1 47 -5 13 -9 10 -15 -17 -40 -28 -25
-31 -33 -23 -55 11 -29 5 -51 -22 -81 -13 -15 -16 -24 -9 -29 8 -4 6 -13 -4
-28 -8 -12 -15 -31 -15 -42 0 -11 -6 -31 -13 -45 -12 -23 -10 -27 26 -53 21
-16 41 -26 44 -23 8 7 93 -64 94 -78 0 -6 27 -33 60 -60 36 -30 69 -68 83 -95
44 -89 60 -111 84 -111 l22 0 0 420 0 420 -480 0 -480 0 0 -147z"/>
<path d="M13 484 c-10 -4 -13 -63 -13 -245 l0 -239 196 0 197 0 -7 143 c-4 78
-11 143 -16 145 -4 2 -6 11 -5 20 14 68 14 82 2 82 -7 0 -26 13 -42 30 -15 16
-49 36 -74 45 -46 17 -215 30 -238 19z"/>
<path d="M571 274 c0 -11 3 -14 6 -6 3 7 2 16 -1 19 -3 4 -6 -2 -5 -13z"/>
<path d="M675 190 c-4 -6 -1 -18 6 -26 9 -11 9 -18 1 -26 -17 -17 -15 -28 7
-28 29 0 51 11 51 24 0 20 -57 69 -65 56z"/>
<path d="M792 48 c-7 -7 -12 -20 -12 -30 0 -14 8 -18 35 -18 40 0 41 2 19 35
-18 28 -25 30 -42 13z"/>
<path d="M576 15 c-4 -12 6 -15 62 -14 65 1 66 1 37 14 -41 19 -91 19 -99 0z"/>
</g>
</svg>
