<?xml version="1.0" standalone="no"?>
<!DOCTYPE svg PUBLIC "-//W3C//DTD SVG 20010904//EN"
 "http://www.w3.org/TR/2001/REC-SVG-20010904/DTD/svg10.dtd">
<svg version="1.0" xmlns="http://www.w3.org/2000/svg"
 width="96.000000pt" height="84.000000pt" viewBox="0 0 96.000000 84.000000"
 preserveAspectRatio="xMidYMid meet">
<metadata>
Created by potrace 1.16, written by Peter Selinger 2001-2019
</metadata>
<g transform="translate(0.000000,84.000000) scale(0.100000,-0.100000)"
fill="#000000" stroke="none">
<path d="M0 690 l0 -150 26 10 c38 15 149 12 217 -6 l60 -15 23 28 c27 33 29
43 10 43 -29 0 -29 23 0 46 17 14 35 43 44 70 19 60 51 84 122 91 54 5 56 5
83 -31 23 -30 33 -36 66 -36 21 0 40 -4 44 -9 6 -10 -16 -36 -45 -51 -16 -9
-18 -15 -10 -36 13 -34 3 -72 -22 -80 -14 -4 -18 -12 -15 -26 3 -11 -1 -27 -9
-35 -8 -8 -14 -30 -14 -48 0 -19 -4 -37 -10 -40 -5 -3 -10 -10 -10 -15 0 -10
72 -56 83 -52 4 1 22 -11 40 -28 18 -16 35 -30 40 -30 4 0 7 -6 7 -14 0 -7 21
-32 48 -56 26 -23 57 -51 70 -62 12 -11 22 -26 22 -34 0 -19 68 -124 80 -124
6 0 10 156 10 420 l0 420 -480 0 -480 0 0 -150z"/>
<path d="M28 488 l-28 -10 0 -239 0 -239 206 0 207 0 -6 67 c-4 38 -7 105 -7
151 0 55 -4 81 -10 77 -7 -4 -9 2 -6 17 15 70 16 98 6 98 -6 0 -26 11 -44 25
-64 49 -247 79 -318 53z"/>
<path d="M591 283 c0 -4 4 -17 9 -28 8 -19 9 -19 9 2 1 12 -3 25 -9 28 -5 3
-10 3 -9 -2z"/>
<path d="M705 170 c4 -19 2 -36 -5 -45 -10 -13 -8 -15 13 -15 14 0 33 7 42 16
15 15 14 19 -11 45 -36 37 -47 37 -39 -1z"/>
<path d="M812 48 c-7 -7 -12 -20 -12 -30 0 -14 8 -18 35 -18 40 0 41 2 19 35
-18 28 -25 30 -42 13z"/>
<path d="M600 15 c-11 -13 -4 -15 56 -14 67 1 68 1 39 14 -40 19 -80 18 -95 0z"/>
</g>
</svg>
