<?xml version="1.0" standalone="no"?>
<!DOCTYPE svg PUBLIC "-//W3C//DTD SVG 20010904//EN"
 "http://www.w3.org/TR/2001/REC-SVG-20010904/DTD/svg10.dtd">
<svg version="1.0" xmlns="http://www.w3.org/2000/svg"
 width="96.000000pt" height="84.000000pt" viewBox="0 0 96.000000 84.000000"
 preserveAspectRatio="xMidYMid meet">
<metadata>
Created by potrace 1.16, written by Peter Selinger 2001-2019
</metadata>
<g transform="translate(0.000000,84.000000) scale(0.100000,-0.100000)"
fill="#000000" stroke="none">
<path d="M0 694 l0 -146 23 7 c49 16 173 17 240 1 83 -19 77 -19 77 -1 0 9 7
18 15 21 8 4 15 15 15 25 0 10 -7 19 -15 19 -25 0 -17 28 15 51 16 13 32 35
36 53 11 54 31 75 88 91 68 20 100 12 126 -30 18 -28 28 -34 62 -37 53 -4 59
-22 14 -49 -31 -18 -34 -23 -25 -45 13 -35 2 -69 -26 -82 -16 -8 -22 -17 -18
-30 2 -11 0 -23 -6 -26 -6 -4 -11 -21 -11 -37 0 -17 -5 -40 -11 -51 -10 -19
-7 -25 22 -49 19 -16 40 -29 47 -29 18 0 92 -61 92 -75 0 -14 72 -85 86 -85
14 0 54 -43 54 -59 0 -13 49 -101 56 -101 2 0 4 182 4 405 l0 405 -480 0 -480
0 0 -146z"/>
<path d="M38 493 l-38 -16 0 -238 0 -239 215 0 215 0 0 53 c0 28 -5 109 -10
178 -5 69 -6 139 -1 155 8 31 10 29 -58 67 -47 26 -176 57 -235 56 -28 -1 -68
-8 -88 -16z"/>
<path d="M618 270 c2 -16 8 -30 13 -30 10 0 11 7 3 38 -9 33 -21 27 -16 -8z"/>
<path d="M730 186 c0 -8 5 -18 11 -21 7 -5 4 -14 -7 -26 -16 -18 -16 -19 15
-19 42 0 50 24 21 56 -27 27 -40 31 -40 10z"/>
<path d="M842 48 c-7 -7 -12 -20 -12 -30 0 -14 8 -18 35 -18 40 0 41 2 19 35
-18 28 -25 30 -42 13z"/>
<path d="M631 27 c-22 -22 -10 -27 57 -27 61 1 65 2 42 14 -38 20 -86 26 -99
13z"/>
</g>
</svg>
