<?xml version="1.0" standalone="no"?>
<!DOCTYPE svg PUBLIC "-//W3C//DTD SVG 20010904//EN"
 "http://www.w3.org/TR/2001/REC-SVG-20010904/DTD/svg10.dtd">
<svg version="1.0" xmlns="http://www.w3.org/2000/svg"
 width="96.000000pt" height="84.000000pt" viewBox="0 0 96.000000 84.000000"
 preserveAspectRatio="xMidYMid meet">
<metadata>
Created by potrace 1.16, written by Peter Selinger 2001-2019
</metadata>
<g transform="translate(0.000000,84.000000) scale(0.100000,-0.100000)"
fill="#000000" stroke="none">
<path d="M0 420 l0 -420 480 0 480 0 0 420 0 420 -480 0 -480 0 0 -420z m526
234 c16 -13 16 -15 2 -10 -10 3 -18 1 -18 -4 0 -5 9 -11 19 -15 21 -6 34 -37
31 -77 -1 -22 4 -29 25 -34 17 -4 23 -9 15 -14 -6 -4 11 -5 38 -2 41 4 53 1
71 -17 50 -50 10 -79 -78 -56 -71 18 -82 19 -78 3 1 -6 -6 -14 -15 -16 -11 -2
-18 2 -18 12 0 11 -9 16 -30 16 -16 0 -30 5 -30 10 0 6 -16 10 -35 10 -28 0
-33 -3 -28 -16 6 -15 4 -15 -18 -1 -13 8 -39 18 -56 22 -18 4 -36 11 -39 16
-4 7 24 8 79 3 79 -6 86 -5 96 14 21 40 3 107 -33 116 -22 6 -16 31 7 31 9 0
22 6 29 13 16 16 40 15 64 -4z"/>
<path d="M522 561 c4 -13 18 -16 19 -4 0 4 -5 9 -11 12 -7 2 -11 -2 -8 -8z"/>
<path d="M473 504 c-12 -27 -2 -32 17 -9 8 10 10 19 4 25 -5 5 -14 -1 -21 -16z"/>
</g>
</svg>
