<?xml version="1.0" standalone="no"?>
<!DOCTYPE svg PUBLIC "-//W3C//DTD SVG 20010904//EN"
 "http://www.w3.org/TR/2001/REC-SVG-20010904/DTD/svg10.dtd">
<svg version="1.0" xmlns="http://www.w3.org/2000/svg"
 width="96.000000pt" height="84.000000pt" viewBox="0 0 96.000000 84.000000"
 preserveAspectRatio="xMidYMid meet">
<metadata>
Created by potrace 1.16, written by Peter Selinger 2001-2019
</metadata>
<g transform="translate(0.000000,84.000000) scale(0.100000,-0.100000)"
fill="#000000" stroke="none">
<path d="M0 700 c0 -158 -7 -149 89 -124 61 15 150 10 236 -14 26 -7 32 -5 53
26 23 35 22 41 -13 56 -5 2 7 20 27 40 20 20 39 50 43 68 9 41 22 58 60 74 26
11 -7 13 -232 14 l-263 0 0 -140z"/>
<path d="M649 808 c16 -27 28 -34 63 -38 53 -6 57 -26 11 -55 -24 -15 -30 -25
-26 -40 13 -37 5 -69 -20 -87 -16 -12 -23 -25 -20 -36 2 -10 -3 -24 -11 -31
-9 -8 -16 -28 -16 -45 0 -18 -5 -37 -11 -43 -8 -8 2 -19 34 -42 25 -17 52 -31
59 -31 15 -1 88 -66 88 -79 0 -5 21 -27 48 -51 26 -23 57 -51 70 -62 12 -11
22 -28 22 -37 0 -9 5 -23 10 -31 6 -10 10 115 10 363 l0 377 -166 0 -166 0 21
-32z"/>
<path d="M53 497 l-53 -22 0 -237 0 -238 225 0 225 0 0 160 c0 107 -4 160 -11
160 -6 0 -8 8 -5 18 3 9 8 34 11 54 7 36 6 37 -46 67 -106 60 -254 77 -346 38z"/>
<path d="M644 301 c4 -6 9 -21 11 -32 7 -36 17 -36 13 0 -2 19 -9 37 -17 39
-8 3 -11 0 -7 -7z"/>
<path d="M775 182 c4 -21 2 -38 -5 -47 -10 -13 -8 -15 13 -15 13 0 30 7 37 16
11 13 8 20 -19 47 l-33 32 7 -33z"/>
<path d="M877 53 c-30 -34 -22 -53 23 -53 46 0 48 5 17 43 -22 28 -23 28 -40
10z"/>
<path d="M663 29 c-24 -24 -13 -29 65 -28 l77 1 -35 15 c-51 22 -93 27 -107
12z"/>
</g>
</svg>
