<?xml version="1.0" standalone="no"?>
<!DOCTYPE svg PUBLIC "-//W3C//DTD SVG 20010904//EN"
 "http://www.w3.org/TR/2001/REC-SVG-20010904/DTD/svg10.dtd">
<svg version="1.0" xmlns="http://www.w3.org/2000/svg"
 width="96.000000pt" height="84.000000pt" viewBox="0 0 96.000000 84.000000"
 preserveAspectRatio="xMidYMid meet">
<metadata>
Created by potrace 1.16, written by Peter Selinger 2001-2019
</metadata>
<g transform="translate(0.000000,84.000000) scale(0.100000,-0.100000)"
fill="#000000" stroke="none">
<path d="M0 710 c0 -152 0 -152 91 -126 72 20 167 21 239 2 30 -8 55 -14 55
-13 0 1 10 16 23 34 26 38 27 43 8 43 -31 0 -29 24 6 54 22 19 38 44 43 66 4
19 14 43 23 53 14 16 2 17 -236 17 l-252 0 0 -130z"/>
<path d="M690 820 c8 -15 21 -20 49 -20 23 0 44 -6 52 -16 14 -17 4 -29 -47
-60 -17 -10 -18 -15 -7 -44 14 -36 2 -66 -30 -76 -13 -4 -17 -12 -14 -26 3
-11 -2 -28 -11 -39 -9 -10 -21 -36 -28 -58 l-11 -39 48 -36 c27 -20 54 -36 61
-36 18 0 98 -70 98 -85 0 -14 85 -95 100 -95 7 0 10 110 10 325 l0 325 -140 0
c-138 0 -140 0 -130 -20z"/>
<path d="M100 516 c-30 -14 -65 -25 -77 -26 l-23 0 0 -245 0 -245 240 0 240 0
0 171 c0 115 -3 168 -10 164 -11 -7 -9 7 10 83 6 24 5 32 -4 32 -8 0 -25 10
-40 21 -37 29 -134 58 -214 64 -57 5 -75 2 -122 -19z"/>
<path d="M684 317 c3 -10 6 -30 6 -44 0 -15 5 -23 13 -20 16 5 10 48 -10 67
-14 13 -15 13 -9 -3z"/>
<path d="M822 185 c8 -19 8 -28 -2 -40 -11 -13 -9 -15 14 -15 36 0 44 26 16
56 -30 31 -43 31 -28 -1z"/>
<path d="M917 52 c-27 -30 -22 -52 14 -52 28 0 30 2 27 32 -4 38 -18 45 -41
20z"/>
<path d="M703 38 c-28 -37 -27 -38 64 -37 l88 1 -42 19 c-60 27 -97 33 -110
17z"/>
</g>
</svg>
