<?xml version="1.0" standalone="no"?>
<!DOCTYPE svg PUBLIC "-//W3C//DTD SVG 20010904//EN"
 "http://www.w3.org/TR/2001/REC-SVG-20010904/DTD/svg10.dtd">
<svg version="1.0" xmlns="http://www.w3.org/2000/svg"
 width="96.000000pt" height="84.000000pt" viewBox="0 0 96.000000 84.000000"
 preserveAspectRatio="xMidYMid meet">
<metadata>
Created by potrace 1.16, written by Peter Selinger 2001-2019
</metadata>
<g transform="translate(0.000000,84.000000) scale(0.100000,-0.100000)"
fill="#000000" stroke="none">
<path d="M0 719 l0 -121 73 6 c203 16 253 17 305 3 39 -11 52 -11 52 -2 0 7 9
23 20 36 l21 23 -21 8 c-29 11 -25 34 10 60 25 18 50 68 50 101 0 4 -115 7
-255 7 l-255 0 0 -121z"/>
<path d="M741 836 c3 -3 69 -14 92 -16 19 -1 3 -31 -30 -59 -33 -28 -36 -32
-25 -56 14 -31 -1 -71 -30 -81 -15 -4 -18 -12 -14 -30 4 -13 2 -24 -3 -24 -11
0 -42 -100 -35 -112 8 -13 92 -68 104 -68 14 0 100 -71 100 -83 0 -5 14 -25
30 -44 l30 -34 0 306 0 305 -112 0 c-61 0 -109 -2 -107 -4z"/>
<path d="M185 553 c-11 -3 -39 -14 -62 -24 -23 -10 -60 -19 -82 -19 l-41 0 0
-255 0 -255 255 0 254 0 6 34 c4 18 2 106 -3 196 -6 97 -6 175 -1 193 12 42
11 47 -5 47 -8 0 -27 11 -43 24 -48 41 -216 76 -278 59z"/>
<path d="M725 325 c3 -14 7 -36 10 -50 7 -35 25 -22 25 18 0 21 -7 36 -20 45
-19 11 -20 10 -15 -13z"/>
<path d="M876 197 c4 -16 1 -33 -6 -42 -10 -13 -8 -15 13 -15 37 0 43 29 12
59 l-26 26 7 -28z"/>
<path d="M748 43 c-36 -42 -34 -43 69 -43 l98 1 -45 23 c-67 35 -103 40 -122
19z"/>
<path d="M948 30 c-7 -24 -3 -38 8 -28 3 4 4 17 2 30 l-3 23 -7 -25z"/>
</g>
</svg>
