<?xml version="1.0" standalone="no"?>
<!DOCTYPE svg PUBLIC "-//W3C//DTD SVG 20010904//EN"
 "http://www.w3.org/TR/2001/REC-SVG-20010904/DTD/svg10.dtd">
<svg version="1.0" xmlns="http://www.w3.org/2000/svg"
 width="96.000000pt" height="84.000000pt" viewBox="0 0 96.000000 84.000000"
 preserveAspectRatio="xMidYMid meet">
<metadata>
Created by potrace 1.16, written by Peter Selinger 2001-2019
</metadata>
<g transform="translate(0.000000,84.000000) scale(0.100000,-0.100000)"
fill="#000000" stroke="none">
<path d="M0 741 l0 -99 28 -6 c81 -15 102 -15 148 -1 59 18 150 19 228 3 58
-11 58 -11 81 18 23 28 23 29 4 38 -29 14 -23 41 15 69 18 15 36 38 38 52 l5
25 -273 0 -274 0 0 -99z"/>
<path d="M857 798 c-33 -33 -38 -43 -32 -68 9 -39 -1 -65 -28 -77 -18 -9 -23
-20 -25 -58 -1 -26 -9 -61 -17 -78 -8 -17 -12 -34 -8 -37 47 -39 94 -70 105
-70 16 0 94 -69 101 -90 3 -8 6 105 6 253 l1 267 -32 -1 c-24 -2 -44 -13 -71
-41z"/>
<path d="M171 559 c-24 -11 -62 -22 -85 -24 -37 -2 -42 -6 -53 -39 -24 -69
-33 -161 -33 -328 l0 -168 269 0 269 0 10 29 c7 20 8 91 2 211 -5 108 -5 194
1 213 11 40 12 37 -6 37 -9 0 -28 12 -42 26 -38 38 -96 55 -198 60 -77 4 -96
2 -134 -17z"/>
<path d="M776 328 c9 -68 13 -74 28 -52 18 25 9 72 -15 85 -18 9 -19 7 -13
-33z"/>
<path d="M937 211 c3 -12 0 -28 -7 -36 -10 -13 -9 -15 9 -15 15 0 21 6 21 24
0 13 -6 29 -14 35 -12 10 -13 8 -9 -8z"/>
<path d="M799 53 c-47 -56 -51 -53 60 -53 55 0 101 4 101 9 0 10 -111 61 -132
61 -8 0 -21 -8 -29 -17z"/>
</g>
</svg>
