<?xml version="1.0" standalone="no"?>
<!DOCTYPE svg PUBLIC "-//W3C//DTD SVG 20010904//EN"
 "http://www.w3.org/TR/2001/REC-SVG-20010904/DTD/svg10.dtd">
<svg version="1.0" xmlns="http://www.w3.org/2000/svg"
 width="96.000000pt" height="84.000000pt" viewBox="0 0 96.000000 84.000000"
 preserveAspectRatio="xMidYMid meet">
<metadata>
Created by potrace 1.16, written by Peter Selinger 2001-2019
</metadata>
<g transform="translate(0.000000,84.000000) scale(0.100000,-0.100000)"
fill="#000000" stroke="none">
<path d="M0 766 c0 -84 -7 -78 102 -96 56 -10 76 -9 121 4 67 19 153 20 229 2
55 -13 58 -12 78 9 25 27 25 31 0 38 -30 8 -24 33 15 64 65 52 61 53 -255 53
l-290 0 0 -74z"/>
<path d="M896 817 c-26 -21 -28 -27 -19 -53 13 -36 -5 -79 -35 -86 -17 -5 -19
-12 -15 -55 4 -34 0 -59 -11 -81 -16 -30 -16 -31 22 -59 20 -16 56 -39 80 -50
l42 -20 0 213 c0 197 -1 214 -17 214 -10 0 -31 -11 -47 -23z"/>
<path d="M220 595 c-30 -13 -74 -24 -97 -25 -38 0 -42 -3 -52 -32 -16 -49 -71
-452 -71 -520 0 -17 20 -18 285 -18 l284 0 16 30 c13 24 15 61 13 195 -2 91
-7 165 -12 165 -8 0 -6 25 10 98 5 26 3 32 -10 32 -9 0 -32 15 -51 34 -26 26
-49 38 -104 50 -95 22 -146 20 -211 -9z"/>
<path d="M823 373 c3 -10 9 -38 12 -62 l7 -45 15 28 c18 35 6 89 -21 94 -13 3
-17 -1 -13 -15z"/>
<path d="M853 67 c-10 -12 -27 -32 -37 -44 l-19 -23 82 0 82 0 -3 32 c-3 28
-8 34 -45 44 -38 11 -43 10 -60 -9z"/>
</g>
</svg>
