<?xml version="1.0" standalone="no"?>
<!DOCTYPE svg PUBLIC "-//W3C//DTD SVG 20010904//EN"
 "http://www.w3.org/TR/2001/REC-SVG-20010904/DTD/svg10.dtd">
<svg version="1.0" xmlns="http://www.w3.org/2000/svg"
 width="96.000000pt" height="84.000000pt" viewBox="0 0 96.000000 84.000000"
 preserveAspectRatio="xMidYMid meet">
<metadata>
Created by potrace 1.16, written by Peter Selinger 2001-2019
</metadata>
<g transform="translate(0.000000,84.000000) scale(0.100000,-0.100000)"
fill="#000000" stroke="none">
<path d="M0 800 c0 -44 4 -46 142 -71 58 -11 75 -10 133 6 74 20 164 16 248
-9 42 -12 47 -12 62 4 15 16 14 18 -5 23 -28 7 -25 41 6 66 l27 21 -307 0
-306 0 0 -40z"/>
<path d="M934 796 c6 -40 4 -46 -24 -75 -26 -25 -29 -34 -20 -50 14 -28 13
-57 -6 -93 -16 -31 -16 -31 22 -64 22 -18 42 -33 47 -34 4 0 7 81 7 180 0 159
-2 180 -16 180 -14 0 -15 -7 -10 -44z"/>
<path d="M260 649 c-25 -12 -67 -22 -95 -24 -45 -2 -50 -4 -57 -31 -20 -72
-78 -489 -78 -561 l0 -33 288 0 288 0 19 33 c18 28 20 51 20 202 0 114 -4 174
-12 182 -11 12 -9 27 12 106 6 23 4 27 -13 27 -18 0 -51 31 -77 73 -13 22
-115 47 -190 47 -40 0 -75 -8 -105 -21z"/>
<path d="M885 399 c4 -12 9 -37 10 -53 4 -44 4 -44 18 -16 17 32 7 84 -17 88
-15 3 -17 0 -11 -19z"/>
<path d="M898 65 c-13 -19 -29 -35 -35 -35 -7 0 -13 -7 -13 -15 0 -12 13 -15
55 -15 l55 0 0 50 c0 43 -3 50 -20 50 -12 0 -29 -14 -42 -35z"/>
</g>
</svg>
