<?xml version="1.0" standalone="no"?>
<!DOCTYPE svg PUBLIC "-//W3C//DTD SVG 20010904//EN"
 "http://www.w3.org/TR/2001/REC-SVG-20010904/DTD/svg10.dtd">
<svg version="1.0" xmlns="http://www.w3.org/2000/svg"
 width="96.000000pt" height="84.000000pt" viewBox="0 0 96.000000 84.000000"
 preserveAspectRatio="xMidYMid meet">
<metadata>
Created by potrace 1.16, written by Peter Selinger 2001-2019
</metadata>
<g transform="translate(0.000000,84.000000) scale(0.100000,-0.100000)"
fill="#000000" stroke="none">
<path d="M120 823 c27 -9 75 -15 120 -14 270 6 284 5 345 -16 33 -12 62 -19
64 -17 3 3 -5 7 -17 11 -15 3 -22 13 -22 29 l0 24 -267 -1 c-253 -1 -266 -2
-223 -16z"/>
<path d="M295 719 c-22 -10 -61 -19 -88 -19 -55 0 -56 -2 -81 -122 -20 -98
-63 -404 -70 -500 l-6 -78 295 0 295 0 27 42 c28 42 28 42 28 220 0 98 -3 178
-6 178 -16 0 -17 33 -4 77 18 59 18 63 1 63 -19 0 -76 67 -76 89 0 26 -17 37
-86 55 -83 21 -178 19 -229 -5z"/>
<path d="M946 601 c-4 -7 -5 -15 -2 -18 9 -9 19 4 14 18 -4 11 -6 11 -12 0z"/>
<path d="M951 444 c0 -11 3 -14 6 -6 3 7 2 16 -1 19 -3 4 -6 -2 -5 -13z"/>
<path d="M945 60 c-4 -6 -16 -8 -27 -4 -17 5 -20 3 -15 -11 4 -9 7 -23 7 -31
0 -8 10 -14 25 -14 22 0 25 4 25 35 0 36 -4 43 -15 25z"/>
</g>
</svg>
