<?xml version="1.0" standalone="no"?>
<!DOCTYPE svg PUBLIC "-//W3C//DTD SVG 20010904//EN"
 "http://www.w3.org/TR/2001/REC-SVG-20010904/DTD/svg10.dtd">
<svg version="1.0" xmlns="http://www.w3.org/2000/svg"
 width="96.000000pt" height="84.000000pt" viewBox="0 0 96.000000 84.000000"
 preserveAspectRatio="xMidYMid meet">
<metadata>
Created by potrace 1.16, written by Peter Selinger 2001-2019
</metadata>
<g transform="translate(0.000000,84.000000) scale(0.100000,-0.100000)"
fill="#000000" stroke="none">
<path d="M340 810 c-25 -10 -68 -19 -96 -19 l-51 -1 -16 -57 c-45 -162 -119
-705 -98 -726 4 -4 142 -6 307 -5 l299 3 32 55 33 54 0 183 c0 129 -3 183 -11
183 -12 0 -8 60 6 107 6 17 1 25 -23 37 -32 17 -62 77 -62 125 0 25 -6 31 -42
45 -115 41 -205 47 -278 16z"/>
</g>
</svg>
