<?xml version="1.0" standalone="no"?>
<!DOCTYPE svg PUBLIC "-//W3C//DTD SVG 20010904//EN"
 "http://www.w3.org/TR/2001/REC-SVG-20010904/DTD/svg10.dtd">
<svg version="1.0" xmlns="http://www.w3.org/2000/svg"
 width="96.000000pt" height="84.000000pt" viewBox="0 0 96.000000 84.000000"
 preserveAspectRatio="xMidYMid meet">
<metadata>
Created by potrace 1.16, written by Peter Selinger 2001-2019
</metadata>
<g transform="translate(0.000000,84.000000) scale(0.100000,-0.100000)"
fill="#000000" stroke="none">
<path d="M196 771 c-62 -271 -116 -662 -101 -737 l6 -34 312 0 312 1 43 73 42
74 -1 179 c-2 144 -5 180 -17 189 -13 9 -13 19 -4 56 7 25 14 53 18 62 5 12
-2 19 -23 27 -40 14 -58 50 -58 120 l0 59 -257 0 -256 0 -16 -69z"/>
</g>
</svg>
