<?xml version="1.0" standalone="no"?>
<!DOCTYPE svg PUBLIC "-//W3C//DTD SVG 20010904//EN"
 "http://www.w3.org/TR/2001/REC-SVG-20010904/DTD/svg10.dtd">
<svg version="1.0" xmlns="http://www.w3.org/2000/svg"
 width="96.000000pt" height="84.000000pt" viewBox="0 0 96.000000 84.000000"
 preserveAspectRatio="xMidYMid meet">
<metadata>
Created by potrace 1.16, written by Peter Selinger 2001-2019
</metadata>
<g transform="translate(0.000000,84.000000) scale(0.100000,-0.100000)"
fill="#000000" stroke="none">
<path d="M205 768 c-36 -158 -66 -317 -80 -425 -15 -116 -20 -280 -9 -320 l6
-23 323 0 322 0 45 78 c74 125 71 113 62 231 -5 58 -7 136 -6 173 2 59 0 67
-18 73 -13 4 -19 13 -16 23 30 103 29 132 -5 132 -22 0 -38 27 -47 83 l-8 42
-276 3 -276 2 -17 -72z"/>
</g>
</svg>
