<?xml version="1.0" standalone="no"?>
<!DOCTYPE svg PUBLIC "-//W3C//DTD SVG 20010904//EN"
 "http://www.w3.org/TR/2001/REC-SVG-20010904/DTD/svg10.dtd">
<svg version="1.0" xmlns="http://www.w3.org/2000/svg"
 width="96.000000pt" height="84.000000pt" viewBox="0 0 96.000000 84.000000"
 preserveAspectRatio="xMidYMid meet">
<metadata>
Created by potrace 1.16, written by Peter Selinger 2001-2019
</metadata>
<g transform="translate(0.000000,84.000000) scale(0.100000,-0.100000)"
fill="#000000" stroke="none">
<path d="M0 420 l0 -420 480 0 480 0 0 420 0 420 -480 0 -480 0 0 -420z m515
240 c18 -20 18 -21 -1 -14 -13 6 -9 -2 14 -25 37 -38 40 -51 12 -51 -12 0 -20
-7 -20 -17 0 -13 3 -14 12 -5 18 18 28 15 28 -8 0 -13 7 -20 20 -20 11 0 19
-5 18 -12 -2 -8 12 -11 44 -9 36 2 51 -2 67 -18 26 -26 27 -43 1 -59 -16 -9
-31 -9 -77 3 -72 19 -83 19 -83 0 0 -8 -7 -15 -15 -15 -8 0 -15 7 -15 15 0 10
-10 15 -30 15 -16 0 -30 5 -30 10 0 6 -16 10 -36 10 -19 0 -33 -4 -30 -8 5 -9
-85 12 -104 23 -26 16 -3 20 66 11 74 -9 78 -9 95 13 11 13 19 31 19 40 0 28
-24 71 -43 77 -22 7 -17 28 8 33 10 2 25 9 33 17 18 19 26 18 47 -6z"/>
<path d="M471 504 c-12 -27 -11 -28 4 -12 10 9 16 21 13 28 -2 7 -10 -1 -17
-16z"/>
</g>
</svg>
