<?xml version="1.0" standalone="no"?>
<!DOCTYPE svg PUBLIC "-//W3C//DTD SVG 20010904//EN"
 "http://www.w3.org/TR/2001/REC-SVG-20010904/DTD/svg10.dtd">
<svg version="1.0" xmlns="http://www.w3.org/2000/svg"
 width="96.000000pt" height="84.000000pt" viewBox="0 0 96.000000 84.000000"
 preserveAspectRatio="xMidYMid meet">
<metadata>
Created by potrace 1.16, written by Peter Selinger 2001-2019
</metadata>
<g transform="translate(0.000000,84.000000) scale(0.100000,-0.100000)"
fill="#000000" stroke="none">
<path d="M211 783 c-65 -295 -72 -341 -78 -504 -3 -91 -3 -191 1 -223 l7 -56
344 0 343 0 7 27 c3 16 24 55 45 88 69 106 74 126 61 238 -6 54 -11 129 -11
168 0 62 -2 71 -20 76 -24 6 -24 13 -7 80 14 54 10 68 -28 89 -19 11 -29 25
-39 57 -5 16 -29 17 -309 17 l-303 0 -13 -57z"/>
</g>
</svg>
