<?xml version="1.0" standalone="no"?>
<!DOCTYPE svg PUBLIC "-//W3C//DTD SVG 20010904//EN"
 "http://www.w3.org/TR/2001/REC-SVG-20010904/DTD/svg10.dtd">
<svg version="1.0" xmlns="http://www.w3.org/2000/svg"
 width="96.000000pt" height="84.000000pt" viewBox="0 0 96.000000 84.000000"
 preserveAspectRatio="xMidYMid meet">
<metadata>
Created by potrace 1.16, written by Peter Selinger 2001-2019
</metadata>
<g transform="translate(0.000000,84.000000) scale(0.100000,-0.100000)"
fill="#000000" stroke="none">
<path d="M197 723 c-34 -151 -45 -222 -53 -358 -6 -98 7 -297 22 -347 5 -17
31 -18 358 -18 l353 0 18 48 c9 26 28 64 41 84 24 37 24 42 24 272 0 130 -4
236 -9 238 -5 2 -5 25 0 58 10 63 4 110 -16 110 -7 0 -18 7 -25 15 -11 13 -62
15 -350 15 l-337 0 -26 -117z"/>
<path d="M1 43 c-1 -32 3 -43 14 -43 18 0 18 4 0 50 l-13 35 -1 -42z"/>
</g>
</svg>
