<?xml version="1.0" standalone="no"?>
<!DOCTYPE svg PUBLIC "-//W3C//DTD SVG 20010904//EN"
 "http://www.w3.org/TR/2001/REC-SVG-20010904/DTD/svg10.dtd">
<svg version="1.0" xmlns="http://www.w3.org/2000/svg"
 width="96.000000pt" height="84.000000pt" viewBox="0 0 96.000000 84.000000"
 preserveAspectRatio="xMidYMid meet">
<metadata>
Created by potrace 1.16, written by Peter Selinger 2001-2019
</metadata>
<g transform="translate(0.000000,84.000000) scale(0.100000,-0.100000)"
fill="#000000" stroke="none">
<path d="M217 833 c-18 -29 -31 -194 -31 -368 0 -194 13 -315 44 -428 l11 -37
359 0 360 0 0 420 0 420 -369 0 c-204 0 -372 -3 -374 -7z"/>
<path d="M1 208 l-1 -208 75 0 75 0 -34 68 c-36 71 -76 187 -100 287 -14 59
-14 55 -15 -147z"/>
</g>
</svg>
