<?xml version="1.0" standalone="no"?>
<!DOCTYPE svg PUBLIC "-//W3C//DTD SVG 20010904//EN"
 "http://www.w3.org/TR/2001/REC-SVG-20010904/DTD/svg10.dtd">
<svg version="1.0" xmlns="http://www.w3.org/2000/svg"
 width="96.000000pt" height="84.000000pt" viewBox="0 0 96.000000 84.000000"
 preserveAspectRatio="xMidYMid meet">
<metadata>
Created by potrace 1.16, written by Peter Selinger 2001-2019
</metadata>
<g transform="translate(0.000000,84.000000) scale(0.100000,-0.100000)"
fill="#000000" stroke="none">
<path d="M0 420 l0 -420 480 0 480 0 0 420 0 420 -361 0 -362 0 6 -227 c6
-237 21 -346 65 -478 11 -33 19 -61 17 -63 -9 -9 -49 24 -85 71 -51 69 -112
199 -145 312 -26 89 -65 305 -65 358 0 17 -5 27 -15 27 -13 0 -15 -53 -15
-420z"/>
</g>
</svg>
