<?xml version="1.0" standalone="no"?>
<!DOCTYPE svg PUBLIC "-//W3C//DTD SVG 20010904//EN"
 "http://www.w3.org/TR/2001/REC-SVG-20010904/DTD/svg10.dtd">
<svg version="1.0" xmlns="http://www.w3.org/2000/svg"
 width="96.000000pt" height="84.000000pt" viewBox="0 0 96.000000 84.000000"
 preserveAspectRatio="xMidYMid meet">
<metadata>
Created by potrace 1.16, written by Peter Selinger 2001-2019
</metadata>
<g transform="translate(0.000000,84.000000) scale(0.100000,-0.100000)"
fill="#000000" stroke="none">
<path d="M0 420 l0 -420 480 0 480 0 0 420 0 420 -480 0 -480 0 0 -420z m513
246 c9 -7 17 -16 17 -19 0 -4 -8 -4 -17 0 -10 3 -1 -10 20 -29 38 -34 39 -48
5 -48 -10 0 -18 -7 -18 -16 0 -14 3 -14 16 -4 13 11 16 10 21 -8 4 -15 13 -22
30 -22 13 0 21 -4 18 -10 -4 -6 13 -10 42 -10 43 0 51 -3 66 -29 16 -28 16
-29 -6 -44 -20 -13 -30 -13 -77 -1 -69 18 -80 18 -80 -1 0 -8 -7 -15 -15 -15
-8 0 -15 7 -15 15 0 10 -10 15 -30 15 -16 0 -30 4 -30 9 0 5 -18 11 -39 13
-29 2 -37 0 -30 -8 9 -11 -79 7 -101 21 -24 15 -6 21 43 14 94 -13 105 -12
121 19 13 24 13 33 1 55 -7 14 -11 28 -8 31 3 3 -5 14 -17 24 -25 20 -19 48 7
38 8 -3 21 1 29 9 19 18 24 18 47 1z"/>
<path d="M471 512 c-7 -13 -11 -26 -8 -28 8 -8 29 25 25 38 -3 8 -9 4 -17 -10z"/>
</g>
</svg>
