<?xml version="1.0" standalone="no"?>
<!DOCTYPE svg PUBLIC "-//W3C//DTD SVG 20010904//EN"
 "http://www.w3.org/TR/2001/REC-SVG-20010904/DTD/svg10.dtd">
<svg version="1.0" xmlns="http://www.w3.org/2000/svg"
 width="96.000000pt" height="84.000000pt" viewBox="0 0 96.000000 84.000000"
 preserveAspectRatio="xMidYMid meet">
<metadata>
Created by potrace 1.16, written by Peter Selinger 2001-2019
</metadata>
<g transform="translate(0.000000,84.000000) scale(0.100000,-0.100000)"
fill="#000000" stroke="none">
<path d="M0 420 l0 -420 480 0 480 0 0 420 0 420 -480 0 -480 0 0 -420z m520
235 c11 -13 10 -14 -4 -9 -9 3 -16 1 -16 -5 0 -6 4 -11 8 -11 5 0 21 -11 37
-24 27 -23 27 -24 8 -35 -11 -5 -23 -7 -27 -4 -3 3 -6 -2 -6 -12 0 -14 3 -15
15 -5 12 10 15 10 15 -3 0 -21 55 -47 100 -47 34 0 54 -13 73 -46 4 -7 -4 -19
-18 -28 -23 -15 -30 -15 -77 -1 -65 19 -78 19 -78 0 0 -8 -7 -15 -15 -15 -8 0
-15 7 -15 15 0 10 -10 15 -29 15 -17 0 -33 5 -36 10 -3 6 -23 10 -43 10 -29 0
-34 -3 -22 -11 12 -9 11 -9 -5 -4 -11 4 -38 12 -60 17 -78 18 -64 30 27 23 80
-7 87 -6 97 13 6 11 11 31 11 44 0 13 5 29 12 36 9 9 9 12 0 12 -7 0 -12 -4
-12 -10 0 -5 -5 -10 -11 -10 -6 0 -8 7 -5 16 4 11 -1 22 -14 31 -30 21 -27 47
5 39 14 -4 25 -2 25 4 0 16 46 12 60 -5z"/>
<path d="M471 512 c-7 -13 -11 -26 -8 -28 8 -8 29 25 25 38 -3 8 -9 4 -17 -10z"/>
</g>
</svg>
