<?xml version="1.0" standalone="no"?>
<!DOCTYPE svg PUBLIC "-//W3C//DTD SVG 20010904//EN"
 "http://www.w3.org/TR/2001/REC-SVG-20010904/DTD/svg10.dtd">
<svg version="1.0" xmlns="http://www.w3.org/2000/svg"
 width="96.000000pt" height="84.000000pt" viewBox="0 0 96.000000 84.000000"
 preserveAspectRatio="xMidYMid meet">
<metadata>
Created by potrace 1.16, written by Peter Selinger 2001-2019
</metadata>
<g transform="translate(0.000000,84.000000) scale(0.100000,-0.100000)"
fill="#000000" stroke="none">
<path d="M0 420 l0 -420 480 0 480 0 0 420 0 420 -480 0 -480 0 0 -420z m489
9 c7 11 9 11 14 0 4 -12 7 -11 16 1 9 13 11 12 11 -3 0 -10 4 -16 9 -13 5 3
11 0 13 -7 3 -10 2 -112 -1 -138 -2 -15 -63 -31 -95 -25 -47 9 -54 22 -51 96
3 82 3 82 15 75 6 -3 10 -2 10 4 0 6 7 8 15 5 9 -4 15 0 15 7 0 11 3 11 10 -1
8 -12 11 -13 19 -1z"/>
</g>
</svg>
