<?xml version="1.0" standalone="no"?>
<!DOCTYPE svg PUBLIC "-//W3C//DTD SVG 20010904//EN"
 "http://www.w3.org/TR/2001/REC-SVG-20010904/DTD/svg10.dtd">
<svg version="1.0" xmlns="http://www.w3.org/2000/svg"
 width="96.000000pt" height="84.000000pt" viewBox="0 0 96.000000 84.000000"
 preserveAspectRatio="xMidYMid meet">
<metadata>
Created by potrace 1.16, written by Peter Selinger 2001-2019
</metadata>
<g transform="translate(0.000000,84.000000) scale(0.100000,-0.100000)"
fill="#000000" stroke="none">
<path d="M0 420 l0 -420 480 0 480 0 0 420 0 420 -480 0 -480 0 0 -420z m523
235 c18 -13 18 -14 -4 -17 -21 -3 -20 -5 14 -28 20 -14 37 -28 37 -32 0 -3
-13 -9 -29 -13 -21 -4 -28 -11 -24 -22 5 -12 7 -12 14 -1 7 10 12 8 24 -9 9
-13 23 -23 31 -23 8 0 14 -5 14 -10 0 -6 16 -8 40 -4 34 6 44 3 60 -14 11 -12
20 -30 20 -40 0 -23 -38 -42 -65 -32 -88 32 -117 36 -109 16 3 -7 -1 -16 -9
-19 -10 -4 -17 2 -20 15 -4 16 -11 19 -29 15 -13 -3 -32 1 -42 9 -23 17 -60
19 -50 3 4 -8 -1 -9 -17 -3 -13 4 -33 9 -44 10 -34 4 -65 16 -65 25 0 11 -3
11 89 -1 65 -9 75 -8 87 8 16 20 18 68 4 77 -6 4 -8 15 -5 25 4 13 0 20 -15
25 -22 7 -24 13 -10 35 8 12 12 12 18 2 7 -10 11 -10 22 3 15 19 39 19 63 0z"/>
<path d="M466 504 c-11 -28 -6 -39 9 -20 8 11 15 23 15 28 0 14 -18 9 -24 -8z"/>
</g>
</svg>
