<?xml version="1.0" standalone="no"?>
<!DOCTYPE svg PUBLIC "-//W3C//DTD SVG 20010904//EN"
 "http://www.w3.org/TR/2001/REC-SVG-20010904/DTD/svg10.dtd">
<svg version="1.0" xmlns="http://www.w3.org/2000/svg"
 width="96.000000pt" height="84.000000pt" viewBox="0 0 96.000000 84.000000"
 preserveAspectRatio="xMidYMid meet">
<metadata>
Created by potrace 1.16, written by Peter Selinger 2001-2019
</metadata>
<g transform="translate(0.000000,84.000000) scale(0.100000,-0.100000)"
fill="#000000" stroke="none">
<path d="M0 420 l0 -420 480 0 480 0 0 420 0 420 -480 0 -480 0 0 -420z m440
20 c6 0 10 8 10 18 1 15 2 15 15 -2 15 -20 15 -20 30 0 13 17 14 17 15 2 0
-10 3 -18 6 -18 4 0 13 8 21 18 14 16 14 16 9 0 -7 -24 10 -32 24 -11 10 16
11 15 6 -5 -3 -17 -1 -22 9 -18 13 5 10 -18 -10 -67 -6 -13 2 -26 31 -51 35
-31 38 -36 29 -62 -36 -104 -315 -92 -315 13 0 24 32 63 51 63 8 0 10 16 5 50
-4 31 -3 50 3 50 6 0 7 8 4 18 -6 15 -5 15 10 3 15 -12 17 -11 17 10 1 21 2
22 11 7 5 -10 14 -18 19 -18z"/>
</g>
</svg>
