<?xml version="1.0" standalone="no"?>
<!DOCTYPE svg PUBLIC "-//W3C//DTD SVG 20010904//EN"
 "http://www.w3.org/TR/2001/REC-SVG-20010904/DTD/svg10.dtd">
<svg version="1.0" xmlns="http://www.w3.org/2000/svg"
 width="96.000000pt" height="84.000000pt" viewBox="0 0 96.000000 84.000000"
 preserveAspectRatio="xMidYMid meet">
<metadata>
Created by potrace 1.16, written by Peter Selinger 2001-2019
</metadata>
<g transform="translate(0.000000,84.000000) scale(0.100000,-0.100000)"
fill="#000000" stroke="none">
<path d="M0 420 l0 -420 480 0 480 0 0 420 0 420 -480 0 -480 0 0 -420z m475
30 c8 0 19 8 24 18 10 16 10 16 11 0 0 -26 20 -32 35 -12 14 18 14 18 15 -3 0
-27 15 -30 29 -5 9 14 10 12 11 -12 0 -28 1 -29 15 -10 13 18 14 17 10 -15 -2
-19 -9 -39 -14 -44 -15 -15 -14 -47 1 -47 21 0 76 -49 82 -75 17 -69 -68 -127
-194 -133 -86 -4 -142 8 -191 41 -66 45 -62 105 11 155 21 14 34 30 32 40 -2
10 -6 30 -9 46 -4 20 -2 27 6 22 7 -5 11 1 11 15 0 18 3 20 12 11 18 -18 28
-15 28 10 0 21 1 21 13 3 15 -20 36 -13 38 13 1 15 2 15 6 0 2 -10 11 -18 18
-18z"/>
</g>
</svg>
