<?xml version="1.0" standalone="no"?>
<!DOCTYPE svg PUBLIC "-//W3C//DTD SVG 20010904//EN"
 "http://www.w3.org/TR/2001/REC-SVG-20010904/DTD/svg10.dtd">
<svg version="1.0" xmlns="http://www.w3.org/2000/svg"
 width="96.000000pt" height="84.000000pt" viewBox="0 0 96.000000 84.000000"
 preserveAspectRatio="xMidYMid meet">
<metadata>
Created by potrace 1.16, written by Peter Selinger 2001-2019
</metadata>
<g transform="translate(0.000000,84.000000) scale(0.100000,-0.100000)"
fill="#000000" stroke="none">
<path d="M0 420 l0 -420 480 0 480 0 0 420 0 420 -480 0 -480 0 0 -420z m467
12 c10 -14 14 -15 25 -4 11 11 10 14 -1 21 -7 5 -10 14 -7 20 12 19 24 12 31
-19 4 -16 13 -30 20 -30 20 0 30 21 15 30 -7 4 -9 13 -6 19 12 18 26 2 26 -30
0 -19 5 -29 15 -29 11 0 14 7 9 25 -5 19 -2 25 10 25 9 0 16 -7 16 -15 0 -9 6
-12 15 -9 9 4 19 -3 26 -20 11 -23 9 -31 -10 -56 -22 -31 -21 -50 4 -50 8 0
32 -17 55 -38 32 -31 40 -46 40 -75 0 -132 -276 -200 -455 -112 -94 46 -116
117 -56 179 19 19 47 40 63 47 l28 12 -23 31 c-13 17 -21 39 -19 49 4 21 28
17 26 -5 -1 -10 5 -14 17 -11 23 6 25 21 4 29 -16 7 -21 34 -5 34 5 0 14 -9
20 -20 6 -11 17 -20 25 -20 17 0 20 16 5 25 -12 7 -13 35 -2 35 5 0 14 -11 20
-25 6 -14 18 -25 27 -25 17 0 21 25 5 35 -6 4 -7 11 -3 18 4 7 10 5 17 -7 6
-10 16 -25 23 -34z"/>
<path d="M610 400 c0 -5 5 -10 10 -10 6 0 10 5 10 10 0 6 -4 10 -10 10 -5 0
-10 -4 -10 -10z"/>
<path d="M468 288 c9 -9 15 -9 24 0 9 9 7 12 -12 12 -19 0 -21 -3 -12 -12z"/>
<path d="M305 265 c-37 -37 -34 -85 8 -122 108 -94 367 -49 367 63 0 22 -44
84 -60 84 -4 0 -7 -23 -6 -52 1 -48 -1 -53 -33 -75 -27 -18 -48 -23 -97 -23
-111 0 -157 33 -147 106 7 51 2 53 -32 19z"/>
</g>
</svg>
