<?xml version="1.0" standalone="no"?>
<!DOCTYPE svg PUBLIC "-//W3C//DTD SVG 20010904//EN"
 "http://www.w3.org/TR/2001/REC-SVG-20010904/DTD/svg10.dtd">
<svg version="1.0" xmlns="http://www.w3.org/2000/svg"
 width="96.000000pt" height="84.000000pt" viewBox="0 0 96.000000 84.000000"
 preserveAspectRatio="xMidYMid meet">
<metadata>
Created by potrace 1.16, written by Peter Selinger 2001-2019
</metadata>
<g transform="translate(0.000000,84.000000) scale(0.100000,-0.100000)"
fill="#000000" stroke="none">
<path d="M0 420 l0 -420 163 0 162 1 -49 19 c-79 31 -126 87 -126 149 0 39 54
101 110 126 22 10 40 25 40 33 0 12 3 12 15 2 9 -8 15 -9 15 -2 0 6 -4 13 -10
17 -12 8 -1 35 15 35 7 0 15 -7 19 -15 9 -25 26 -17 26 13 1 23 2 24 11 10 15
-26 49 -23 50 5 l0 22 11 -22 c14 -29 44 -29 53 0 l8 22 4 -22 c5 -28 37 -31
52 -5 9 14 10 13 11 -10 0 -32 15 -37 23 -8 7 27 47 27 47 1 0 -11 -5 -23 -10
-26 -6 -3 -10 -11 -10 -17 0 -6 10 -3 21 8 21 19 22 19 16 -1 -5 -16 4 -26 46
-50 132 -77 127 -182 -13 -252 l-65 -33 163 0 162 0 0 420 0 420 -480 0 -480
0 0 -420z m445 80 c0 -7 -6 -15 -12 -17 -8 -3 -13 4 -13 17 0 13 5 20 13 18 6
-3 12 -11 12 -18z m73 3 c-4 -22 -22 -20 -26 1 -2 10 3 16 13 16 10 0 15 -7
13 -17z m72 3 c0 -16 -18 -31 -27 -22 -8 8 5 36 17 36 5 0 10 -6 10 -14z
m-214 -7 c10 -17 -13 -36 -27 -22 -12 12 -4 33 11 33 5 0 12 -5 16 -11z m284
-13 c0 -8 -5 -18 -11 -22 -14 -8 -33 11 -25 25 10 16 36 13 36 -3z m-344 -7
c10 -17 -13 -36 -27 -22 -12 12 -4 33 11 33 5 0 12 -5 16 -11z m399 -25 c14
-22 15 -31 5 -55 -14 -34 -50 -41 -50 -10 0 11 5 23 10 26 8 5 7 11 -1 21 -12
15 -6 44 10 44 5 0 16 -12 26 -26z m-443 -24 c-1 -12 5 -28 15 -35 9 -7 14
-19 10 -29 -9 -23 -20 -20 -45 14 -18 24 -20 34 -12 55 12 32 36 28 32 -5z"/>
<path d="M246 255 c-68 -68 -55 -140 37 -202 141 -95 401 -55 460 70 21 44 9
88 -35 134 l-32 33 -23 -22 c-15 -14 -23 -33 -23 -53 0 -43 -30 -79 -78 -93
-106 -32 -222 9 -222 79 0 28 -29 89 -42 89 -4 0 -23 -16 -42 -35z"/>
<path d="M420 273 c-8 -3 -26 -10 -39 -15 l-25 -9 22 -22 c17 -17 26 -19 40
-11 24 14 112 18 112 5 0 -15 23 -14 55 3 l27 14 -32 17 c-35 18 -134 29 -160
18z"/>
</g>
</svg>
