<?xml version="1.0" standalone="no"?>
<!DOCTYPE svg PUBLIC "-//W3C//DTD SVG 20010904//EN"
 "http://www.w3.org/TR/2001/REC-SVG-20010904/DTD/svg10.dtd">
<svg version="1.0" xmlns="http://www.w3.org/2000/svg"
 width="96.000000pt" height="84.000000pt" viewBox="0 0 96.000000 84.000000"
 preserveAspectRatio="xMidYMid meet">
<metadata>
Created by potrace 1.16, written by Peter Selinger 2001-2019
</metadata>
<g transform="translate(0.000000,84.000000) scale(0.100000,-0.100000)"
fill="#000000" stroke="none">
<path d="M0 420 l0 -420 480 0 480 0 0 420 0 420 -480 0 -480 0 0 -420z m440
100 c0 -11 -4 -20 -9 -20 -14 0 -23 18 -16 30 10 17 25 11 25 -10z m90 5 c0
-8 -7 -15 -15 -15 -8 0 -15 7 -15 15 0 8 7 15 15 15 8 0 15 -7 15 -15z m84 7
c2 -4 1 -14 -4 -22 -7 -11 -12 -12 -21 -3 -6 6 -8 16 -5 22 8 13 23 14 30 3z
m-256 -25 c2 -10 -3 -17 -12 -17 -10 0 -16 9 -16 21 0 24 23 21 28 -4z m332
-7 c0 -11 -7 -20 -15 -20 -8 0 -15 9 -15 20 0 11 7 20 15 20 8 0 15 -9 15 -20z
m-405 -11 c0 -7 -8 -15 -17 -17 -18 -3 -25 18 -11 32 10 10 28 1 28 -15z m465
-15 c0 -8 6 -14 14 -14 21 0 24 -20 9 -52 -18 -34 -32 -43 -46 -29 -8 8 -7 17
3 35 11 21 10 27 -4 41 -13 13 -14 20 -5 31 13 16 29 10 29 -12z m-521 -37
c-9 -16 -8 -22 5 -29 19 -11 22 -48 4 -48 -7 0 -24 12 -37 25 -23 25 -23 26
-6 61 13 28 19 33 31 24 10 -9 11 -17 3 -33z m459 -70 c4 -20 -25 -34 -40 -19
-15 15 -1 44 19 40 10 -2 19 -11 21 -21z m-368 -12 c0 -25 -23 -35 -35 -15
-10 16 2 40 20 40 9 0 15 -9 15 -25z m120 -10 c0 4 9 -3 19 -16 l20 -24 26 28
c14 15 33 27 41 27 22 0 44 -25 44 -49 0 -23 19 -28 38 -9 9 9 12 6 12 -15 0
-29 9 -34 28 -15 15 15 16 3 1 -24 -10 -18 -8 -19 13 -13 22 7 22 7 6 -12 -11
-12 -15 -27 -11 -42 15 -59 -61 -112 -174 -119 -88 -6 -153 11 -194 49 -25 23
-29 34 -27 73 0 25 5 46 10 46 5 0 4 9 -2 19 -14 26 -13 38 2 23 19 -19 28
-14 28 15 0 21 3 24 12 15 20 -20 38 -14 38 14 0 14 4 23 9 20 5 -3 14 1 21 9
10 12 16 13 26 4 8 -6 14 -8 14 -4z"/>
<path d="M403 220 c-18 -11 -33 -28 -33 -38 0 -25 33 -54 53 -47 8 4 18 2 22
-4 8 -14 62 -14 70 -1 4 6 10 8 15 5 13 -8 46 11 54 30 23 60 -108 100 -181
55z"/>
</g>
</svg>
