<?xml version="1.0" standalone="no"?>
<!DOCTYPE svg PUBLIC "-//W3C//DTD SVG 20010904//EN"
 "http://www.w3.org/TR/2001/REC-SVG-20010904/DTD/svg10.dtd">
<svg version="1.0" xmlns="http://www.w3.org/2000/svg"
 width="96.000000pt" height="84.000000pt" viewBox="0 0 96.000000 84.000000"
 preserveAspectRatio="xMidYMid meet">
<metadata>
Created by potrace 1.16, written by Peter Selinger 2001-2019
</metadata>
<g transform="translate(0.000000,84.000000) scale(0.100000,-0.100000)"
fill="#000000" stroke="none">
<path d="M0 420 l0 -420 193 1 c105 0 181 4 167 8 -89 28 -140 77 -140 137 0
33 66 99 108 109 16 3 39 15 52 27 17 16 27 19 39 11 24 -15 109 -13 122 3 17
21 34 17 47 -10 6 -13 22 -26 37 -30 58 -15 115 -77 115 -125 0 -33 -57 -88
-113 -110 l-52 -20 193 0 192 -1 0 420 0 420 -480 0 -480 0 0 -420z m535 90
c0 -7 -6 -15 -12 -17 -8 -3 -13 4 -13 17 0 13 5 20 13 18 6 -3 12 -11 12 -18z
m-95 -5 c0 -8 -7 -15 -15 -15 -8 0 -15 7 -15 15 0 8 7 15 15 15 8 0 15 -7 15
-15z m188 -2 c-4 -22 -22 -20 -26 1 -2 10 3 16 13 16 10 0 15 -7 13 -17z
m-285 -8 c8 -18 -11 -31 -25 -17 -11 11 -3 32 12 32 4 0 10 -7 13 -15z m373
-6 c10 -17 -13 -36 -27 -22 -12 12 -4 33 11 33 5 0 12 -5 16 -11z m-456 -25
c0 -8 -7 -14 -15 -14 -15 0 -21 21 -9 33 10 9 24 -2 24 -19z m525 -4 c8 -13
-14 -42 -26 -34 -5 3 -9 14 -9 25 0 20 24 26 35 9z m-585 -29 c0 -11 -4 -23
-10 -26 -15 -9 -12 -35 4 -35 16 0 29 -27 20 -41 -9 -15 -34 -10 -41 9 -4 9
-13 22 -22 28 -13 10 -12 16 3 48 18 38 46 49 46 17z m620 -20 c0 -11 -5 -23
-10 -26 -6 -4 -8 -11 -4 -16 9 -14 -15 -39 -32 -32 -16 6 -19 43 -4 43 6 0 10
8 10 18 0 22 8 32 27 32 7 0 13 -9 13 -19z m-101 -79 c7 -13 6 -23 -1 -30 -28
-28 -63 3 -38 33 16 20 27 19 39 -3z m-423 -17 c4 -8 0 -22 -7 -31 -11 -13
-14 -13 -27 0 -17 17 -9 46 13 46 9 0 18 -7 21 -15z"/>
<path d="M386 240 c-43 -13 -86 -59 -86 -91 0 -58 74 -99 178 -99 80 0 148 29
172 72 13 25 13 31 0 55 -24 44 -93 73 -170 72 -36 0 -78 -5 -94 -9z"/>
</g>
</svg>
