<?xml version="1.0" standalone="no"?>
<!DOCTYPE svg PUBLIC "-//W3C//DTD SVG 20010904//EN"
 "http://www.w3.org/TR/2001/REC-SVG-20010904/DTD/svg10.dtd">
<svg version="1.0" xmlns="http://www.w3.org/2000/svg"
 width="96.000000pt" height="84.000000pt" viewBox="0 0 96.000000 84.000000"
 preserveAspectRatio="xMidYMid meet">
<metadata>
Created by potrace 1.16, written by Peter Selinger 2001-2019
</metadata>
<g transform="translate(0.000000,84.000000) scale(0.100000,-0.100000)"
fill="#000000" stroke="none">
<path d="M0 420 l0 -420 113 0 c81 1 107 3 94 11 -23 13 -47 62 -47 95 0 26
35 94 49 94 3 0 12 14 18 31 10 26 15 29 31 20 13 -7 31 -5 63 6 65 24 247 24
317 -1 51 -17 54 -17 66 0 20 27 48 11 44 -25 -1 -17 4 -37 13 -48 47 -54 48
-107 2 -155 l-27 -28 112 0 112 0 0 420 0 420 -480 0 -480 0 0 -420z m431 37
c-13 -13 -31 0 -24 19 4 11 8 12 20 3 9 -8 10 -16 4 -22z m109 19 c0 -8 -4
-17 -9 -21 -12 -7 -24 12 -16 25 9 15 25 12 25 -4z m104 -5 c3 -5 0 -14 -8
-20 -10 -9 -15 -8 -19 3 -9 22 15 37 27 17z m-314 -21 c0 -11 -4 -20 -9 -20
-14 0 -23 18 -16 30 10 17 25 11 25 -10z m406 -1 c8 -14 -11 -33 -25 -25 -11
7 -4 36 9 36 5 0 12 -5 16 -11z m-500 -35 c-5 -13 -10 -14 -18 -6 -6 6 -8 18
-4 28 5 13 10 14 18 6 6 -6 8 -18 4 -28z m579 -14 c0 -8 -8 -16 -17 -18 -13
-2 -18 3 -18 18 0 15 5 20 18 18 9 -2 17 -10 17 -18z m-645 -20 c0 -11 -7 -20
-15 -20 -8 0 -15 9 -15 20 0 11 7 20 15 20 8 0 15 -9 15 -20z m690 -29 c0 -19
-23 -35 -34 -24 -14 15 -5 43 14 43 13 0 20 -7 20 -19z m-714 -30 c-11 -18
-36 -13 -36 7 0 10 3 22 7 26 10 10 37 -20 29 -33z m692 -25 c2 -10 -1 -23 -8
-30 -14 -14 -41 19 -33 40 8 20 37 13 41 -10z m-658 -16 c0 -25 -17 -35 -35
-20 -11 9 -12 17 -5 31 12 22 40 14 40 -11z"/>
<path d="M385 256 c-160 -39 -213 -153 -109 -235 25 -19 39 -21 202 -21 172 0
176 0 208 25 46 35 62 90 40 133 -22 42 -77 78 -151 97 -69 18 -121 18 -190 1z
m30 -57 c8 -24 -16 -55 -34 -45 -15 9 -14 39 1 54 17 17 26 15 33 -9z m180 1
c6 -20 -9 -50 -26 -50 -13 0 -31 40 -25 56 8 21 44 17 51 -6z m-85 -55 c0 -16
-55 -22 -64 -6 -8 13 5 21 36 21 18 0 28 -5 28 -15z"/>
</g>
</svg>
