<?xml version="1.0" standalone="no"?>
<!DOCTYPE svg PUBLIC "-//W3C//DTD SVG 20010904//EN"
 "http://www.w3.org/TR/2001/REC-SVG-20010904/DTD/svg10.dtd">
<svg version="1.0" xmlns="http://www.w3.org/2000/svg"
 width="96.000000pt" height="84.000000pt" viewBox="0 0 96.000000 84.000000"
 preserveAspectRatio="xMidYMid meet">
<metadata>
Created by potrace 1.16, written by Peter Selinger 2001-2019
</metadata>
<g transform="translate(0.000000,84.000000) scale(0.100000,-0.100000)"
fill="#000000" stroke="none">
<path d="M0 420 l0 -420 64 0 65 0 -15 27 c-18 35 -18 61 1 96 12 24 12 29 0
34 -8 3 -15 14 -15 24 0 26 30 37 42 15 9 -16 12 -15 42 4 48 29 52 25 12 -10
-44 -39 -71 -106 -62 -155 l7 -35 339 0 340 0 0 59 c0 53 -4 65 -35 106 -42
54 -16 46 34 -10 33 -38 42 -96 21 -136 -10 -18 -7 -19 55 -19 l65 0 0 420 0
420 -480 0 -480 0 0 -420z m430 -10 c0 -11 -4 -20 -9 -20 -14 0 -23 18 -16 30
10 17 25 11 25 -10z m113 14 c8 -8 -3 -34 -14 -34 -5 0 -9 9 -9 20 0 19 11 26
23 14z m112 -24 c0 -7 -6 -15 -12 -17 -8 -3 -13 4 -13 17 0 13 5 20 13 18 6
-3 12 -11 12 -18z m-337 -7 c-4 -22 -22 -20 -26 1 -2 10 3 16 13 16 10 0 15
-7 13 -17z m440 -16 c2 -10 -3 -17 -12 -17 -10 0 -16 9 -16 21 0 24 23 21 28
-4z m-532 -8 c3 -6 1 -16 -5 -22 -9 -9 -14 -8 -21 3 -9 15 -4 30 10 30 5 0 12
-5 16 -11z m617 -33 c3 -7 0 -19 -6 -25 -14 -14 -38 5 -30 25 7 18 29 18 36 0z
m-696 -12 c9 -23 -11 -38 -26 -20 -13 16 -7 36 10 36 5 0 12 -7 16 -16z m738
-59 c0 -28 -29 -25 -33 3 -3 19 0 23 15 20 10 -2 18 -12 18 -23z m-767 -14
c-5 -24 -38 -27 -38 -3 0 10 3 21 6 25 11 11 35 -5 32 -22z m756 -48 c8 -19
-17 -48 -33 -39 -12 8 -15 39 -4 49 12 12 31 7 37 -10z m-324 -51 c33 -27 19
-58 -32 -74 -82 -24 -166 35 -106 76 31 22 110 21 138 -2z m215 -38 c0 -32
-21 -39 -38 -12 -8 12 -7 21 3 32 19 24 35 14 35 -20z m-527 -1 c-3 -31 -32
-43 -41 -18 -9 23 3 45 25 45 15 0 19 -6 16 -27z m362 -53 c0 -34 -15 -46 -35
-30 -18 15 -19 42 -4 57 18 18 39 3 39 -27z m-196 14 c7 -17 -10 -54 -24 -54
-14 0 -28 31 -23 51 6 23 39 25 47 3z"/>
</g>
</svg>
