<?xml version="1.0" standalone="no"?>
<!DOCTYPE svg PUBLIC "-//W3C//DTD SVG 20010904//EN"
 "http://www.w3.org/TR/2001/REC-SVG-20010904/DTD/svg10.dtd">
<svg version="1.0" xmlns="http://www.w3.org/2000/svg"
 width="96.000000pt" height="84.000000pt" viewBox="0 0 96.000000 84.000000"
 preserveAspectRatio="xMidYMid meet">
<metadata>
Created by potrace 1.16, written by Peter Selinger 2001-2019
</metadata>
<g transform="translate(0.000000,84.000000) scale(0.100000,-0.100000)"
fill="#000000" stroke="none">
<path d="M0 420 l0 -420 480 0 480 0 0 420 0 420 -480 0 -480 0 0 -420z m425
-100 c-5 -8 -11 -8 -17 -2 -6 6 -7 16 -3 22 5 8 11 8 17 2 6 -6 7 -16 3 -22z
m123 13 c-4 -22 -22 -20 -26 1 -2 10 3 16 13 16 10 0 15 -7 13 -17z m115 -8
c7 -16 -8 -29 -23 -20 -10 6 -2 35 10 35 4 0 10 -7 13 -15z m-353 -15 c0 -11
-4 -20 -10 -20 -5 0 -10 9 -10 20 0 11 5 20 10 20 6 0 10 -9 10 -20z m468 -23
c2 -10 -3 -17 -12 -17 -10 0 -16 9 -16 21 0 24 23 21 28 -4z m-568 -7 c0 -11
-7 -20 -15 -20 -15 0 -21 21 -8 33 12 13 23 7 23 -13z m657 -46 c7 -18 -17
-38 -31 -24 -11 11 -1 40 14 40 6 0 13 -7 17 -16z m-737 -14 c0 -11 -7 -20
-15 -20 -8 0 -15 9 -15 20 0 11 7 20 15 20 8 0 15 -9 15 -20z m421 -51 c79
-24 101 -86 44 -123 -87 -57 -265 -23 -265 50 0 64 120 103 221 73z m363 -6
c4 -9 1 -23 -7 -30 -12 -12 -16 -12 -27 1 -10 13 -10 19 0 31 16 19 26 19 34
-2z m-826 -29 c-4 -23 -26 -30 -34 -10 -8 20 15 51 29 37 5 -5 7 -17 5 -27z
m807 -80 c0 -19 -5 -29 -15 -29 -16 0 -25 28 -16 51 10 25 31 10 31 -22z
m-788 10 c3 -8 -2 -23 -11 -32 -14 -14 -18 -15 -25 -3 -12 18 -2 51 15 51 8 0
17 -7 21 -16z"/>
<path d="M453 123 c-22 -8 -14 -32 13 -39 33 -8 68 21 44 36 -16 10 -37 12
-57 3z"/>
</g>
</svg>
