<?xml version="1.0" standalone="no"?>
<!DOCTYPE svg PUBLIC "-//W3C//DTD SVG 20010904//EN"
 "http://www.w3.org/TR/2001/REC-SVG-20010904/DTD/svg10.dtd">
<svg version="1.0" xmlns="http://www.w3.org/2000/svg"
 width="96.000000pt" height="84.000000pt" viewBox="0 0 96.000000 84.000000"
 preserveAspectRatio="xMidYMid meet">
<metadata>
Created by potrace 1.16, written by Peter Selinger 2001-2019
</metadata>
<g transform="translate(0.000000,84.000000) scale(0.100000,-0.100000)"
fill="#000000" stroke="none">
<path d="M0 420 l0 -420 151 0 150 0 -15 22 c-56 80 35 158 184 158 98 0 146
-14 187 -55 38 -38 42 -69 11 -102 l-21 -23 156 0 157 0 0 420 0 420 -480 0
-480 0 0 -420z"/>
<path d="M430 139 c-48 -15 -60 -27 -60 -60 0 -22 7 -32 32 -45 42 -22 139
-15 168 11 59 53 -44 122 -140 94z m68 -51 c3 -13 -3 -18 -22 -18 -27 0 -41
14 -31 31 10 16 49 6 53 -13z"/>
</g>
</svg>
