<?xml version="1.0" standalone="no"?>
<!DOCTYPE svg PUBLIC "-//W3C//DTD SVG 20010904//EN"
 "http://www.w3.org/TR/2001/REC-SVG-20010904/DTD/svg10.dtd">
<svg version="1.0" xmlns="http://www.w3.org/2000/svg"
 width="96.000000pt" height="84.000000pt" viewBox="0 0 96.000000 84.000000"
 preserveAspectRatio="xMidYMid meet">
<metadata>
Created by potrace 1.16, written by Peter Selinger 2001-2019
</metadata>
<g transform="translate(0.000000,84.000000) scale(0.100000,-0.100000)"
fill="#000000" stroke="none">
<path d="M0 420 l0 -420 480 0 480 0 0 420 0 420 -480 0 -480 0 0 -420z m444
228 c5 -10 7 -10 12 0 8 17 46 15 70 -4 18 -15 18 -15 -3 -9 -35 10 -27 -8 12
-29 43 -23 44 -31 4 -45 -17 -6 -28 -15 -24 -21 5 -8 11 -8 20 0 9 8 14 5 18
-10 3 -13 13 -20 31 -20 16 0 24 -4 20 -13 -3 -9 6 -12 36 -9 67 7 109 -50 58
-76 -22 -12 -80 -2 -142 23 -15 7 -17 5 -11 -13 5 -16 2 -22 -10 -22 -8 0 -18
7 -21 15 -4 9 -19 15 -35 15 -16 0 -29 5 -29 11 0 8 -13 10 -36 6 -41 -7 -130
9 -140 24 -4 7 25 8 80 3 85 -7 85 -7 97 20 9 20 9 32 0 52 -6 14 -8 30 -5 36
4 6 -3 18 -15 27 -14 11 -20 23 -15 34 7 20 20 22 28 5z"/>
<path d="M466 494 c-9 -24 -7 -28 9 -14 17 14 20 30 6 30 -5 0 -12 -7 -15 -16z"/>
</g>
</svg>
