<?xml version="1.0" standalone="no"?>
<!DOCTYPE svg PUBLIC "-//W3C//DTD SVG 20010904//EN"
 "http://www.w3.org/TR/2001/REC-SVG-20010904/DTD/svg10.dtd">
<svg version="1.0" xmlns="http://www.w3.org/2000/svg"
 width="96.000000pt" height="84.000000pt" viewBox="0 0 96.000000 84.000000"
 preserveAspectRatio="xMidYMid meet">
<metadata>
Created by potrace 1.16, written by Peter Selinger 2001-2019
</metadata>
<g transform="translate(0.000000,84.000000) scale(0.100000,-0.100000)"
fill="#000000" stroke="none">
<path d="M0 420 l0 -420 105 0 105 0 0 39 c0 61 70 119 164 136 28 6 40 14 47
34 20 52 61 55 90 6 15 -24 28 -35 45 -35 13 0 48 -9 78 -20 69 -26 116 -77
116 -125 l0 -35 105 0 105 0 0 420 0 420 -480 0 -480 0 0 -420z"/>
<path d="M517 154 c-3 -3 -3 -28 0 -55 5 -45 4 -48 -20 -54 -36 -9 -70 11 -62
36 4 11 4 31 1 45 -8 31 -38 31 -91 1 -47 -26 -64 -64 -47 -102 l12 -25 172 2
173 3 9 28 c8 22 6 32 -11 55 -30 41 -118 83 -136 66z"/>
</g>
</svg>
