<?xml version="1.0" standalone="no"?>
<!DOCTYPE svg PUBLIC "-//W3C//DTD SVG 20010904//EN"
 "http://www.w3.org/TR/2001/REC-SVG-20010904/DTD/svg10.dtd">
<svg version="1.0" xmlns="http://www.w3.org/2000/svg"
 width="96.000000pt" height="84.000000pt" viewBox="0 0 96.000000 84.000000"
 preserveAspectRatio="xMidYMid meet">
<metadata>
Created by potrace 1.16, written by Peter Selinger 2001-2019
</metadata>
<g transform="translate(0.000000,84.000000) scale(0.100000,-0.100000)"
fill="#000000" stroke="none">
<path d="M0 420 l0 -420 69 0 69 0 11 33 c13 38 61 87 109 112 19 9 66 23 105
31 40 9 75 19 80 23 4 4 -2 16 -13 26 -41 37 -18 115 35 115 49 0 72 -61 40
-107 -20 -29 -6 -38 84 -57 41 -9 93 -25 117 -36 53 -26 104 -82 104 -115 0
-24 2 -25 75 -25 l75 0 0 420 0 420 -480 0 -480 0 0 -420z"/>
<path d="M346 154 c-86 -31 -136 -80 -136 -134 0 -20 4 -20 271 -20 l272 0 -7
32 c-3 18 -21 47 -38 65 -33 34 -120 73 -164 73 -25 0 -25 -1 -18 -60 7 -67
-3 -90 -41 -90 -50 0 -55 8 -55 81 0 65 -1 69 -22 68 -13 0 -40 -7 -62 -15z"/>
</g>
</svg>
