<?xml version="1.0" standalone="no"?>
<!DOCTYPE svg PUBLIC "-//W3C//DTD SVG 20010904//EN"
 "http://www.w3.org/TR/2001/REC-SVG-20010904/DTD/svg10.dtd">
<svg version="1.0" xmlns="http://www.w3.org/2000/svg"
 width="96.000000pt" height="84.000000pt" viewBox="0 0 96.000000 84.000000"
 preserveAspectRatio="xMidYMid meet">
<metadata>
Created by potrace 1.16, written by Peter Selinger 2001-2019
</metadata>
<g transform="translate(0.000000,84.000000) scale(0.100000,-0.100000)"
fill="#000000" stroke="none">
<path d="M0 420 l0 -420 44 0 c39 0 45 3 56 31 7 16 27 41 44 53 52 39 62 41
30 5 -29 -31 -54 -70 -54 -83 0 -3 61 -6 135 -6 121 0 134 2 128 17 -4 11 2
23 19 37 24 19 26 28 30 113 2 64 -1 96 -9 104 -14 14 -17 67 -5 85 30 46 95
30 100 -24 2 -18 -2 -40 -9 -48 -9 -11 -9 -17 1 -29 7 -8 15 -53 18 -100 4
-70 8 -88 23 -96 11 -5 19 -21 19 -34 l0 -25 135 0 136 0 -17 33 c-9 17 -33
47 -53 66 -34 33 -34 33 -6 18 43 -24 68 -47 90 -84 17 -29 24 -33 62 -33 l43
0 0 420 0 420 -480 0 -480 0 0 -420z"/>
</g>
</svg>
