<?xml version="1.0" standalone="no"?>
<!DOCTYPE svg PUBLIC "-//W3C//DTD SVG 20010904//EN"
 "http://www.w3.org/TR/2001/REC-SVG-20010904/DTD/svg10.dtd">
<svg version="1.0" xmlns="http://www.w3.org/2000/svg"
 width="96.000000pt" height="84.000000pt" viewBox="0 0 96.000000 84.000000"
 preserveAspectRatio="xMidYMid meet">
<metadata>
Created by potrace 1.16, written by Peter Selinger 2001-2019
</metadata>
<g transform="translate(0.000000,84.000000) scale(0.100000,-0.100000)"
fill="#000000" stroke="none">
<path d="M0 420 l0 -420 125 0 125 0 38 38 c24 24 56 43 84 51 l45 13 10 76
c8 64 7 81 -6 104 -30 51 12 111 65 93 30 -11 49 -57 34 -84 -5 -10 -5 -34 1
-56 5 -22 11 -61 14 -87 6 -45 8 -48 43 -58 51 -14 103 -47 109 -71 5 -18 15
-19 139 -19 l134 0 0 420 0 420 -480 0 -480 0 0 -420z"/>
<path d="M392 43 c-7 -2 -17 -13 -22 -24 -10 -17 -7 -19 20 -19 25 0 30 4 30
25 0 25 -4 28 -28 18z"/>
<path d="M540 25 c0 -21 5 -25 31 -25 29 0 30 2 18 18 -31 39 -49 42 -49 7z"/>
</g>
</svg>
