<?xml version="1.0" standalone="no"?>
<!DOCTYPE svg PUBLIC "-//W3C//DTD SVG 20010904//EN"
 "http://www.w3.org/TR/2001/REC-SVG-20010904/DTD/svg10.dtd">
<svg version="1.0" xmlns="http://www.w3.org/2000/svg"
 width="96.000000pt" height="84.000000pt" viewBox="0 0 96.000000 84.000000"
 preserveAspectRatio="xMidYMid meet">
<metadata>
Created by potrace 1.16, written by Peter Selinger 2001-2019
</metadata>
<g transform="translate(0.000000,84.000000) scale(0.100000,-0.100000)"
fill="#000000" stroke="none">
<path d="M0 420 l0 -420 98 0 c97 0 98 0 120 30 25 34 86 68 152 85 l44 11 12
70 c6 39 8 76 3 85 -5 9 -8 33 -7 52 1 29 6 38 28 45 18 7 34 6 51 -4 22 -11
25 -19 23 -56 -1 -37 7 -104 21 -174 3 -15 18 -23 54 -33 61 -15 137 -62 146
-90 6 -20 14 -21 111 -21 l104 0 0 420 0 420 -480 0 -480 0 0 -420z"/>
<path d="M348 69 c-32 -17 -58 -45 -58 -63 0 -3 27 -6 60 -6 44 0 60 4 60 14
0 7 3 28 6 45 5 26 3 31 -12 31 -11 -1 -36 -10 -56 -21z"/>
<path d="M540 76 c0 -7 3 -28 6 -45 6 -30 7 -31 65 -31 33 0 59 4 59 8 0 16
-43 54 -76 68 -42 18 -54 18 -54 0z"/>
</g>
</svg>
