<?xml version="1.0" standalone="no"?>
<!DOCTYPE svg PUBLIC "-//W3C//DTD SVG 20010904//EN"
 "http://www.w3.org/TR/2001/REC-SVG-20010904/DTD/svg10.dtd">
<svg version="1.0" xmlns="http://www.w3.org/2000/svg"
 width="96.000000pt" height="84.000000pt" viewBox="0 0 96.000000 84.000000"
 preserveAspectRatio="xMidYMid meet">
<metadata>
Created by potrace 1.16, written by Peter Selinger 2001-2019
</metadata>
<g transform="translate(0.000000,84.000000) scale(0.100000,-0.100000)"
fill="#000000" stroke="none">
<path d="M0 420 l0 -420 78 0 c66 0 79 3 90 20 14 23 90 80 105 80 6 0 -8 -16
-31 -36 -66 -56 -59 -64 57 -64 l99 0 6 31 c3 17 6 48 6 68 0 20 6 68 14 107
14 73 11 134 -7 146 -6 3 6 13 26 22 28 11 44 13 67 5 29 -11 41 -29 19 -29
-5 0 -7 -5 -3 -12 4 -6 6 -32 5 -57 0 -25 5 -69 12 -98 8 -28 12 -65 9 -82 -2
-17 -1 -47 2 -66 l7 -35 99 0 c60 0 100 4 100 10 0 6 -18 28 -40 50 l-41 41
40 -21 c22 -11 50 -34 63 -50 21 -29 25 -30 100 -30 l78 0 0 420 0 420 -480 0
-480 0 0 -420z"/>
</g>
</svg>
