<?xml version="1.0" standalone="no"?>
<!DOCTYPE svg PUBLIC "-//W3C//DTD SVG 20010904//EN"
 "http://www.w3.org/TR/2001/REC-SVG-20010904/DTD/svg10.dtd">
<svg version="1.0" xmlns="http://www.w3.org/2000/svg"
 width="96.000000pt" height="84.000000pt" viewBox="0 0 96.000000 84.000000"
 preserveAspectRatio="xMidYMid meet">
<metadata>
Created by potrace 1.16, written by Peter Selinger 2001-2019
</metadata>
<g transform="translate(0.000000,84.000000) scale(0.100000,-0.100000)"
fill="#000000" stroke="none">
<path d="M0 420 l0 -420 194 0 193 0 11 42 c6 24 10 57 10 73 0 17 7 65 16
107 21 100 21 139 1 132 -8 -4 -15 -1 -15 5 0 7 8 14 18 17 9 3 25 10 36 16
12 6 22 6 29 -1 6 -6 19 -11 29 -11 10 0 18 -7 18 -16 0 -9 -5 -12 -12 -8 -8
5 -9 2 -4 -12 10 -24 29 -162 31 -229 1 -27 5 -65 9 -82 l8 -33 194 0 194 0 0
420 0 420 -480 0 -480 0 0 -420z"/>
</g>
</svg>
