<?xml version="1.0" standalone="no"?>
<!DOCTYPE svg PUBLIC "-//W3C//DTD SVG 20010904//EN"
 "http://www.w3.org/TR/2001/REC-SVG-20010904/DTD/svg10.dtd">
<svg version="1.0" xmlns="http://www.w3.org/2000/svg"
 width="96.000000pt" height="84.000000pt" viewBox="0 0 96.000000 84.000000"
 preserveAspectRatio="xMidYMid meet">
<metadata>
Created by potrace 1.16, written by Peter Selinger 2001-2019
</metadata>
<g transform="translate(0.000000,84.000000) scale(0.100000,-0.100000)"
fill="#000000" stroke="none">
<path d="M0 420 l0 -420 194 0 194 0 8 38 c4 20 9 57 10 82 1 25 9 80 18 123
21 102 21 138 1 131 -8 -4 -15 -1 -15 5 0 18 72 34 103 22 26 -10 38 -31 16
-31 -5 0 -8 -4 -4 -9 3 -5 8 -38 10 -73 3 -35 10 -78 16 -95 6 -18 9 -50 8
-70 -1 -21 1 -57 5 -80 l8 -43 194 0 194 0 0 420 0 420 -480 0 -480 0 0 -420z"/>
</g>
</svg>
