<?xml version="1.0" standalone="no"?>
<!DOCTYPE svg PUBLIC "-//W3C//DTD SVG 20010904//EN"
 "http://www.w3.org/TR/2001/REC-SVG-20010904/DTD/svg10.dtd">
<svg version="1.0" xmlns="http://www.w3.org/2000/svg"
 width="96.000000pt" height="84.000000pt" viewBox="0 0 96.000000 84.000000"
 preserveAspectRatio="xMidYMid meet">
<metadata>
Created by potrace 1.16, written by Peter Selinger 2001-2019
</metadata>
<g transform="translate(0.000000,84.000000) scale(0.100000,-0.100000)"
fill="#000000" stroke="none">
<path d="M0 420 l0 -420 190 0 189 0 12 43 c7 23 13 62 14 87 2 25 10 83 19
129 15 77 21 162 9 133 -5 -12 -23 -7 -23 7 0 16 74 33 102 22 31 -12 46 -31
23 -31 -9 0 -14 -3 -12 -7 3 -5 8 -39 11 -76 4 -37 11 -79 17 -94 5 -14 9 -49
8 -77 -1 -28 4 -70 10 -93 l12 -43 189 0 190 0 0 420 0 420 -480 0 -480 0 0
-420z"/>
</g>
</svg>
