<?xml version="1.0" standalone="no"?>
<!DOCTYPE svg PUBLIC "-//W3C//DTD SVG 20010904//EN"
 "http://www.w3.org/TR/2001/REC-SVG-20010904/DTD/svg10.dtd">
<svg version="1.0" xmlns="http://www.w3.org/2000/svg"
 width="96.000000pt" height="84.000000pt" viewBox="0 0 96.000000 84.000000"
 preserveAspectRatio="xMidYMid meet">
<metadata>
Created by potrace 1.16, written by Peter Selinger 2001-2019
</metadata>
<g transform="translate(0.000000,84.000000) scale(0.100000,-0.100000)"
fill="#000000" stroke="none">
<path d="M0 705 c0 -74 4 -135 9 -135 17 0 19 -29 5 -82 -10 -38 -14 -115 -14
-270 l0 -218 480 0 480 0 0 24 c0 31 -32 70 -71 86 l-32 14 7 85 c10 137 -19
203 -124 282 l-34 26 16 41 16 42 -33 0 c-18 0 -46 3 -62 6 l-30 6 24 81 c14
45 29 91 34 102 l9 20 -4 -20 c-3 -11 -8 -33 -12 -50 -10 -42 1 -29 31 38 l25
57 -360 0 -360 0 0 -135z"/>
</g>
</svg>
