<?xml version="1.0" standalone="no"?>
<!DOCTYPE svg PUBLIC "-//W3C//DTD SVG 20010904//EN"
 "http://www.w3.org/TR/2001/REC-SVG-20010904/DTD/svg10.dtd">
<svg version="1.0" xmlns="http://www.w3.org/2000/svg"
 width="96.000000pt" height="84.000000pt" viewBox="0 0 96.000000 84.000000"
 preserveAspectRatio="xMidYMid meet">
<metadata>
Created by potrace 1.16, written by Peter Selinger 2001-2019
</metadata>
<g transform="translate(0.000000,84.000000) scale(0.100000,-0.100000)"
fill="#000000" stroke="none">
<path d="M0 420 l0 -420 480 0 480 0 0 420 0 420 -480 0 -480 0 0 -420z m540
204 c0 -3 -9 -2 -20 1 -33 10 -23 -9 15 -29 43 -23 43 -31 6 -47 -16 -7 -27
-17 -24 -22 2 -4 11 -3 18 3 9 8 14 5 18 -10 4 -14 13 -20 32 -20 21 0 25 -3
17 -13 -8 -9 -1 -11 34 -8 70 5 112 -46 64 -77 -21 -13 -79 -4 -122 19 -28 15
-40 11 -33 -11 5 -16 2 -20 -14 -20 -12 0 -21 7 -21 15 0 10 -10 15 -30 15
-16 0 -30 5 -30 10 0 6 -13 10 -30 10 -16 0 -30 -5 -30 -10 0 -7 -6 -7 -17 -2
-10 5 -35 12 -55 16 -21 4 -40 12 -44 17 -4 8 20 9 80 4 l86 -7 11 28 c9 23 8
35 -4 56 -10 17 -12 29 -5 36 7 7 3 14 -11 21 -24 13 -29 51 -6 51 8 0 15 -5
15 -11 0 -6 9 -4 21 5 19 13 25 13 50 0 16 -8 29 -17 29 -20z"/>
<path d="M462 485 c-13 -28 -2 -34 18 -10 9 11 10 19 3 26 -6 6 -13 1 -21 -16z"/>
</g>
</svg>
