<?xml version="1.0" standalone="no"?>
<!DOCTYPE svg PUBLIC "-//W3C//DTD SVG 20010904//EN"
 "http://www.w3.org/TR/2001/REC-SVG-20010904/DTD/svg10.dtd">
<svg version="1.0" xmlns="http://www.w3.org/2000/svg"
 width="96.000000pt" height="84.000000pt" viewBox="0 0 96.000000 84.000000"
 preserveAspectRatio="xMidYMid meet">
<metadata>
Created by potrace 1.16, written by Peter Selinger 2001-2019
</metadata>
<g transform="translate(0.000000,84.000000) scale(0.100000,-0.100000)"
fill="#000000" stroke="none">
<path d="M0 420 l0 -420 189 0 188 0 16 68 c8 37 15 81 15 97 0 17 7 70 16
119 20 113 21 137 1 130 -8 -4 -15 -2 -15 4 0 20 67 34 105 22 36 -12 45 -25
23 -32 -10 -4 -10 -25 1 -99 8 -52 15 -117 17 -145 1 -29 7 -77 14 -108 l11
-56 190 0 189 0 0 420 0 420 -480 0 -480 0 0 -420z"/>
</g>
</svg>
