<?xml version="1.0" standalone="no"?>
<!DOCTYPE svg PUBLIC "-//W3C//DTD SVG 20010904//EN"
 "http://www.w3.org/TR/2001/REC-SVG-20010904/DTD/svg10.dtd">
<svg version="1.0" xmlns="http://www.w3.org/2000/svg"
 width="96.000000pt" height="84.000000pt" viewBox="0 0 96.000000 84.000000"
 preserveAspectRatio="xMidYMid meet">
<metadata>
Created by potrace 1.16, written by Peter Selinger 2001-2019
</metadata>
<g transform="translate(0.000000,84.000000) scale(0.100000,-0.100000)"
fill="#000000" stroke="none">
<path d="M0 420 l0 -420 187 2 188 3 13 55 c8 30 15 78 17 105 1 28 10 90 19
139 20 113 21 137 1 130 -8 -4 -15 -2 -15 4 0 16 61 33 97 26 35 -7 55 -25 35
-32 -16 -5 -15 -72 3 -157 8 -38 15 -90 15 -115 -1 -25 5 -70 12 -100 l13 -55
188 -3 187 -2 0 420 0 420 -480 0 -480 0 0 -420z"/>
</g>
</svg>
