<?xml version="1.0" standalone="no"?>
<!DOCTYPE svg PUBLIC "-//W3C//DTD SVG 20010904//EN"
 "http://www.w3.org/TR/2001/REC-SVG-20010904/DTD/svg10.dtd">
<svg version="1.0" xmlns="http://www.w3.org/2000/svg"
 width="96.000000pt" height="84.000000pt" viewBox="0 0 96.000000 84.000000"
 preserveAspectRatio="xMidYMid meet">
<metadata>
Created by potrace 1.16, written by Peter Selinger 2001-2019
</metadata>
<g transform="translate(0.000000,84.000000) scale(0.100000,-0.100000)"
fill="#000000" stroke="none">
<path d="M0 420 l0 -420 184 0 184 0 20 83 c11 45 19 94 17 109 -2 15 3 51 10
80 8 29 16 84 19 122 5 60 4 67 -9 56 -12 -10 -15 -10 -15 2 0 24 65 41 105
28 36 -12 47 -30 19 -30 -8 0 -13 -4 -10 -8 2 -4 7 -38 11 -74 3 -37 11 -86
19 -110 7 -24 9 -55 5 -70 -4 -17 1 -57 13 -107 l20 -81 184 0 184 0 0 420 0
420 -480 0 -480 0 0 -420z"/>
</g>
</svg>
