<?xml version="1.0" standalone="no"?>
<!DOCTYPE svg PUBLIC "-//W3C//DTD SVG 20010904//EN"
 "http://www.w3.org/TR/2001/REC-SVG-20010904/DTD/svg10.dtd">
<svg version="1.0" xmlns="http://www.w3.org/2000/svg"
 width="96.000000pt" height="84.000000pt" viewBox="0 0 96.000000 84.000000"
 preserveAspectRatio="xMidYMid meet">
<metadata>
Created by potrace 1.16, written by Peter Selinger 2001-2019
</metadata>
<g transform="translate(0.000000,84.000000) scale(0.100000,-0.100000)"
fill="#000000" stroke="none">
<path d="M0 420 l0 -420 190 0 c156 0 188 2 184 14 -3 7 4 49 15 92 11 44 18
91 16 105 -2 15 3 53 11 85 7 33 16 87 18 121 4 51 2 61 -10 56 -30 -11 -13
17 20 32 31 15 37 15 71 1 31 -13 35 -19 25 -30 -14 -18 -6 -131 13 -197 8
-24 10 -56 7 -70 -5 -15 0 -56 11 -100 11 -41 17 -82 15 -91 -4 -17 10 -18
185 -18 l189 0 0 420 0 420 -480 0 -480 0 0 -420z"/>
</g>
</svg>
