<?xml version="1.0" standalone="no"?>
<!DOCTYPE svg PUBLIC "-//W3C//DTD SVG 20010904//EN"
 "http://www.w3.org/TR/2001/REC-SVG-20010904/DTD/svg10.dtd">
<svg version="1.0" xmlns="http://www.w3.org/2000/svg"
 width="96.000000pt" height="84.000000pt" viewBox="0 0 96.000000 84.000000"
 preserveAspectRatio="xMidYMid meet">
<metadata>
Created by potrace 1.16, written by Peter Selinger 2001-2019
</metadata>
<g transform="translate(0.000000,84.000000) scale(0.100000,-0.100000)"
fill="#000000" stroke="none">
<path d="M0 420 l0 -420 189 0 c175 0 189 1 185 18 -3 9 4 51 15 92 10 42 17
87 14 101 -2 14 2 52 11 85 8 32 18 89 22 127 6 62 5 67 -11 61 -12 -5 -16 -3
-14 5 6 17 77 42 85 30 3 -5 14 -9 24 -9 23 0 37 -20 20 -30 -15 -9 -6 -125
14 -195 9 -29 11 -56 6 -73 -5 -19 -1 -54 12 -103 10 -40 17 -82 14 -91 -4
-17 10 -18 185 -18 l189 0 0 420 0 420 -480 0 -480 0 0 -420z"/>
</g>
</svg>
