<?xml version="1.0" standalone="no"?>
<!DOCTYPE svg PUBLIC "-//W3C//DTD SVG 20010904//EN"
 "http://www.w3.org/TR/2001/REC-SVG-20010904/DTD/svg10.dtd">
<svg version="1.0" xmlns="http://www.w3.org/2000/svg"
 width="96.000000pt" height="84.000000pt" viewBox="0 0 96.000000 84.000000"
 preserveAspectRatio="xMidYMid meet">
<metadata>
Created by potrace 1.16, written by Peter Selinger 2001-2019
</metadata>
<g transform="translate(0.000000,84.000000) scale(0.100000,-0.100000)"
fill="#000000" stroke="none">
<path d="M0 420 l0 -420 191 0 c130 0 188 3 184 10 -4 6 1 46 11 88 10 42 17
91 15 108 -1 17 5 58 13 90 8 33 17 89 20 126 4 56 2 66 -10 61 -8 -3 -14 1
-14 9 0 23 60 39 103 27 37 -10 46 -22 26 -35 -14 -8 -4 -133 15 -198 9 -29
11 -57 6 -74 -5 -19 -1 -54 12 -103 10 -40 17 -82 14 -91 -4 -17 10 -18 185
-18 l189 0 0 420 0 420 -480 0 -480 0 0 -420z"/>
</g>
</svg>
