<?xml version="1.0" standalone="no"?>
<!DOCTYPE svg PUBLIC "-//W3C//DTD SVG 20010904//EN"
 "http://www.w3.org/TR/2001/REC-SVG-20010904/DTD/svg10.dtd">
<svg version="1.0" xmlns="http://www.w3.org/2000/svg"
 width="96.000000pt" height="84.000000pt" viewBox="0 0 96.000000 84.000000"
 preserveAspectRatio="xMidYMid meet">
<metadata>
Created by potrace 1.16, written by Peter Selinger 2001-2019
</metadata>
<g transform="translate(0.000000,84.000000) scale(0.100000,-0.100000)"
fill="#000000" stroke="none">
<path d="M0 420 l0 -420 191 0 c130 0 188 3 184 10 -4 6 1 46 11 88 10 42 17
90 15 106 -1 15 4 60 13 100 28 135 30 155 10 177 -25 28 -6 43 56 43 58 0 80
-15 60 -39 -15 -18 -8 -125 14 -197 8 -27 11 -61 7 -79 -4 -20 1 -60 12 -103
10 -39 16 -79 13 -88 -4 -17 10 -18 185 -18 l189 0 0 420 0 420 -480 0 -480 0
0 -420z"/>
</g>
</svg>
