<?xml version="1.0" standalone="no"?>
<!DOCTYPE svg PUBLIC "-//W3C//DTD SVG 20010904//EN"
 "http://www.w3.org/TR/2001/REC-SVG-20010904/DTD/svg10.dtd">
<svg version="1.0" xmlns="http://www.w3.org/2000/svg"
 width="96.000000pt" height="84.000000pt" viewBox="0 0 96.000000 84.000000"
 preserveAspectRatio="xMidYMid meet">
<metadata>
Created by potrace 1.16, written by Peter Selinger 2001-2019
</metadata>
<g transform="translate(0.000000,84.000000) scale(0.100000,-0.100000)"
fill="#000000" stroke="none">
<path d="M0 420 l0 -420 185 0 185 0 1 23 c0 12 8 52 18 89 9 37 14 73 11 79
-4 6 -3 29 1 52 38 194 40 219 25 236 -26 29 -19 48 19 54 19 3 51 3 71 0 31
-5 35 -9 29 -27 -16 -47 -16 -105 1 -176 9 -41 17 -100 18 -130 0 -30 7 -88
15 -127 l14 -73 184 0 183 0 0 420 0 420 -480 0 -480 0 0 -420z"/>
</g>
</svg>
