<?xml version="1.0" standalone="no"?>
<!DOCTYPE svg PUBLIC "-//W3C//DTD SVG 20010904//EN"
 "http://www.w3.org/TR/2001/REC-SVG-20010904/DTD/svg10.dtd">
<svg version="1.0" xmlns="http://www.w3.org/2000/svg"
 width="96.000000pt" height="84.000000pt" viewBox="0 0 96.000000 84.000000"
 preserveAspectRatio="xMidYMid meet">
<metadata>
Created by potrace 1.16, written by Peter Selinger 2001-2019
</metadata>
<g transform="translate(0.000000,84.000000) scale(0.100000,-0.100000)"
fill="#000000" stroke="none">
<path d="M0 420 l0 -420 183 0 182 0 15 67 c8 38 13 88 12 113 -1 25 3 62 9
84 6 21 17 73 24 115 11 65 11 80 -1 105 -25 52 -21 56 56 56 63 0 70 -2 70
-19 0 -11 -4 -23 -10 -26 -15 -9 -12 -91 7 -170 9 -38 16 -95 17 -125 1 -30 7
-88 15 -127 l14 -73 184 0 183 0 0 420 0 420 -480 0 -480 0 0 -420z"/>
</g>
</svg>
