<?xml version="1.0" standalone="no"?>
<!DOCTYPE svg PUBLIC "-//W3C//DTD SVG 20010904//EN"
 "http://www.w3.org/TR/2001/REC-SVG-20010904/DTD/svg10.dtd">
<svg version="1.0" xmlns="http://www.w3.org/2000/svg"
 width="96.000000pt" height="84.000000pt" viewBox="0 0 96.000000 84.000000"
 preserveAspectRatio="xMidYMid meet">
<metadata>
Created by potrace 1.16, written by Peter Selinger 2001-2019
</metadata>
<g transform="translate(0.000000,84.000000) scale(0.100000,-0.100000)"
fill="#000000" stroke="none">
<path d="M0 420 l0 -420 480 0 480 0 0 420 0 420 -480 0 -480 0 0 -420z m521
211 l24 -20 -22 6 c-27 6 -31 -13 -5 -21 22 -7 47 -47 34 -55 -17 -11 6 -51
28 -51 13 0 19 -4 14 -11 -5 -9 6 -10 39 -7 38 5 49 2 66 -16 48 -51 11 -81
-70 -59 -74 20 -83 20 -84 3 0 -8 -8 -16 -17 -18 -11 -2 -18 3 -18 12 0 11 -9
16 -30 16 -16 0 -30 4 -30 9 0 5 -16 11 -35 13 -27 3 -34 1 -31 -9 4 -10 1
-11 -13 -4 -10 6 -33 13 -51 16 -39 7 -50 13 -50 26 0 6 8 8 18 5 9 -2 47 -8
83 -11 l66 -7 13 31 c10 26 10 35 -4 55 -9 14 -12 27 -7 31 6 3 14 -3 20 -12
7 -12 10 -14 11 -4 0 14 -37 51 -51 51 -4 0 -7 9 -6 20 1 21 27 29 27 8 0 -8
6 -6 17 5 22 22 35 21 64 -2z"/>
<path d="M515 520 c3 -5 8 -10 11 -10 2 0 4 5 4 10 0 6 -5 10 -11 10 -5 0 -7
-4 -4 -10z"/>
<path d="M461 473 c-13 -27 -13 -28 8 -9 11 10 18 23 15 27 -8 13 -10 12 -23
-18z"/>
</g>
</svg>
