<?xml version="1.0" standalone="no"?>
<!DOCTYPE svg PUBLIC "-//W3C//DTD SVG 20010904//EN"
 "http://www.w3.org/TR/2001/REC-SVG-20010904/DTD/svg10.dtd">
<svg version="1.0" xmlns="http://www.w3.org/2000/svg"
 width="96.000000pt" height="84.000000pt" viewBox="0 0 96.000000 84.000000"
 preserveAspectRatio="xMidYMid meet">
<metadata>
Created by potrace 1.16, written by Peter Selinger 2001-2019
</metadata>
<g transform="translate(0.000000,84.000000) scale(0.100000,-0.100000)"
fill="#000000" stroke="none">
<path d="M0 420 l0 -420 185 0 c184 0 185 0 185 22 0 12 7 50 16 85 10 42 13
68 6 76 -6 8 -1 46 14 112 26 111 30 176 12 204 -22 35 -5 48 67 50 l67 1 -7
-27 c-16 -63 -16 -122 1 -193 10 -41 18 -100 19 -130 0 -30 7 -88 14 -127 l14
-73 184 0 183 0 0 420 0 420 -480 0 -480 0 0 -420z"/>
</g>
</svg>
