<?xml version="1.0" standalone="no"?>
<!DOCTYPE svg PUBLIC "-//W3C//DTD SVG 20010904//EN"
 "http://www.w3.org/TR/2001/REC-SVG-20010904/DTD/svg10.dtd">
<svg version="1.0" xmlns="http://www.w3.org/2000/svg"
 width="96.000000pt" height="84.000000pt" viewBox="0 0 96.000000 84.000000"
 preserveAspectRatio="xMidYMid meet">
<metadata>
Created by potrace 1.16, written by Peter Selinger 2001-2019
</metadata>
<g transform="translate(0.000000,84.000000) scale(0.100000,-0.100000)"
fill="#000000" stroke="none">
<path d="M0 420 l0 -420 180 0 179 0 10 38 c28 115 30 127 19 133 -8 5 -4 36
11 103 32 137 36 195 17 231 -8 16 -12 32 -8 36 4 4 38 9 75 12 l69 5 -8 -32
c-13 -55 -7 -169 14 -251 12 -48 16 -86 11 -96 -5 -9 -1 -50 9 -98 l17 -81
182 0 183 0 0 420 0 420 -480 0 -480 0 0 -420z"/>
</g>
</svg>
