<?xml version="1.0" standalone="no"?>
<!DOCTYPE svg PUBLIC "-//W3C//DTD SVG 20010904//EN"
 "http://www.w3.org/TR/2001/REC-SVG-20010904/DTD/svg10.dtd">
<svg version="1.0" xmlns="http://www.w3.org/2000/svg"
 width="96.000000pt" height="84.000000pt" viewBox="0 0 96.000000 84.000000"
 preserveAspectRatio="xMidYMid meet">
<metadata>
Created by potrace 1.16, written by Peter Selinger 2001-2019
</metadata>
<g transform="translate(0.000000,84.000000) scale(0.100000,-0.100000)"
fill="#000000" stroke="none">
<path d="M0 420 l0 -420 179 0 179 0 20 82 c18 70 19 83 6 92 -12 9 -10 24 11
100 31 112 42 205 26 215 -6 4 -13 21 -14 37 l-2 28 74 3 73 2 -7 -32 c-14
-59 -8 -171 14 -255 15 -58 19 -88 12 -96 -7 -8 -5 -38 7 -94 l17 -82 182 0
183 0 0 420 0 420 -480 0 -480 0 0 -420z"/>
</g>
</svg>
