<?xml version="1.0" standalone="no"?>
<!DOCTYPE svg PUBLIC "-//W3C//DTD SVG 20010904//EN"
 "http://www.w3.org/TR/2001/REC-SVG-20010904/DTD/svg10.dtd">
<svg version="1.0" xmlns="http://www.w3.org/2000/svg"
 width="96.000000pt" height="84.000000pt" viewBox="0 0 96.000000 84.000000"
 preserveAspectRatio="xMidYMid meet">
<metadata>
Created by potrace 1.16, written by Peter Selinger 2001-2019
</metadata>
<g transform="translate(0.000000,84.000000) scale(0.100000,-0.100000)"
fill="#000000" stroke="none">
<path d="M0 420 l0 -420 178 0 179 0 19 80 c15 59 17 80 8 80 -21 0 -21 21 -2
79 30 90 54 241 40 250 -6 4 -15 21 -18 39 l-6 32 44 0 c25 0 60 3 77 6 29 6
31 5 31 -24 0 -17 -5 -34 -11 -38 -16 -10 -3 -148 21 -226 22 -70 25 -105 10
-110 -7 -2 -4 -31 8 -83 l18 -80 182 -3 182 -2 0 420 0 420 -480 0 -480 0 0
-420z"/>
</g>
</svg>
