<?xml version="1.0" standalone="no"?>
<!DOCTYPE svg PUBLIC "-//W3C//DTD SVG 20010904//EN"
 "http://www.w3.org/TR/2001/REC-SVG-20010904/DTD/svg10.dtd">
<svg version="1.0" xmlns="http://www.w3.org/2000/svg"
 width="96.000000pt" height="84.000000pt" viewBox="0 0 96.000000 84.000000"
 preserveAspectRatio="xMidYMid meet">
<metadata>
Created by potrace 1.16, written by Peter Selinger 2001-2019
</metadata>
<g transform="translate(0.000000,84.000000) scale(0.100000,-0.100000)"
fill="#000000" stroke="none">
<path d="M0 420 l0 -420 178 0 178 0 17 72 c21 89 21 85 -2 91 -18 4 -18 8 9
88 36 107 52 228 34 249 -7 8 -15 27 -19 41 l-6 26 78 6 c43 2 81 2 85 -2 5
-4 0 -30 -10 -58 -22 -62 -14 -136 24 -248 29 -84 30 -99 6 -93 -18 5 -17 1 3
-81 l22 -86 181 -3 182 -2 0 420 0 420 -480 0 -480 0 0 -420z"/>
</g>
</svg>
