<?xml version="1.0" standalone="no"?>
<!DOCTYPE svg PUBLIC "-//W3C//DTD SVG 20010904//EN"
 "http://www.w3.org/TR/2001/REC-SVG-20010904/DTD/svg10.dtd">
<svg version="1.0" xmlns="http://www.w3.org/2000/svg"
 width="96.000000pt" height="84.000000pt" viewBox="0 0 96.000000 84.000000"
 preserveAspectRatio="xMidYMid meet">
<metadata>
Created by potrace 1.16, written by Peter Selinger 2001-2019
</metadata>
<g transform="translate(0.000000,84.000000) scale(0.100000,-0.100000)"
fill="#000000" stroke="none">
<path d="M0 420 l0 -420 178 0 178 0 13 58 c7 31 15 68 18 81 5 20 3 22 -15
17 -34 -11 -35 11 -1 81 22 45 33 86 35 121 1 30 5 56 8 60 11 11 6 70 -9 98
-27 52 -21 64 34 64 27 0 62 3 80 6 40 8 49 -12 25 -62 -28 -59 -15 -184 29
-273 15 -30 27 -61 27 -68 0 -19 -28 -16 -34 5 -9 31 1 -62 15 -125 l13 -63
183 0 183 0 0 420 0 420 -480 0 -480 0 0 -420z"/>
</g>
</svg>
