<?xml version="1.0" standalone="no"?>
<!DOCTYPE svg PUBLIC "-//W3C//DTD SVG 20010904//EN"
 "http://www.w3.org/TR/2001/REC-SVG-20010904/DTD/svg10.dtd">
<svg version="1.0" xmlns="http://www.w3.org/2000/svg"
 width="96.000000pt" height="84.000000pt" viewBox="0 0 96.000000 84.000000"
 preserveAspectRatio="xMidYMid meet">
<metadata>
Created by potrace 1.16, written by Peter Selinger 2001-2019
</metadata>
<g transform="translate(0.000000,84.000000) scale(0.100000,-0.100000)"
fill="#000000" stroke="none">
<path d="M0 420 l0 -420 176 2 177 3 18 70 c10 39 19 71 19 73 0 1 -13 2 -30
2 -23 0 -30 5 -30 19 0 11 4 22 9 26 21 12 61 119 61 161 0 24 5 66 11 95 8
36 8 53 1 58 -6 3 -16 19 -22 35 -13 36 -3 44 57 44 23 0 56 3 73 7 38 8 48
-12 26 -55 -21 -42 -31 -116 -17 -124 6 -4 11 -29 11 -56 0 -40 7 -61 35 -104
38 -59 44 -86 20 -86 -8 0 -15 8 -15 18 -1 15 -2 15 -11 -2 -9 -14 -7 -40 7
-102 l19 -84 182 0 183 0 0 420 0 420 -480 0 -480 0 0 -420z"/>
</g>
</svg>
