<?xml version="1.0" standalone="no"?>
<!DOCTYPE svg PUBLIC "-//W3C//DTD SVG 20010904//EN"
 "http://www.w3.org/TR/2001/REC-SVG-20010904/DTD/svg10.dtd">
<svg version="1.0" xmlns="http://www.w3.org/2000/svg"
 width="96.000000pt" height="84.000000pt" viewBox="0 0 96.000000 84.000000"
 preserveAspectRatio="xMidYMid meet">
<metadata>
Created by potrace 1.16, written by Peter Selinger 2001-2019
</metadata>
<g transform="translate(0.000000,84.000000) scale(0.100000,-0.100000)"
fill="#000000" stroke="none">
<path d="M0 420 l0 -420 175 0 174 0 11 43 c6 23 15 54 20 69 7 21 6 26 -6 21
-8 -3 -14 -1 -14 5 0 6 -8 8 -19 5 -25 -6 -33 8 -18 34 58 99 70 132 74 188 2
33 6 79 9 102 4 30 1 48 -10 65 -21 30 -20 55 2 60 9 3 50 6 90 7 79 2 83 -2
57 -52 -20 -39 -30 -123 -16 -131 6 -4 11 -30 11 -57 0 -41 6 -58 33 -92 17
-23 35 -44 38 -47 3 -3 8 -13 12 -23 10 -26 -22 -36 -36 -11 -20 35 -25 -47
-8 -120 l16 -66 183 0 182 0 0 420 0 420 -480 0 -480 0 0 -420z"/>
</g>
</svg>
