<?xml version="1.0" standalone="no"?>
<!DOCTYPE svg PUBLIC "-//W3C//DTD SVG 20010904//EN"
 "http://www.w3.org/TR/2001/REC-SVG-20010904/DTD/svg10.dtd">
<svg version="1.0" xmlns="http://www.w3.org/2000/svg"
 width="96.000000pt" height="84.000000pt" viewBox="0 0 96.000000 84.000000"
 preserveAspectRatio="xMidYMid meet">
<metadata>
Created by potrace 1.16, written by Peter Selinger 2001-2019
</metadata>
<g transform="translate(0.000000,84.000000) scale(0.100000,-0.100000)"
fill="#000000" stroke="none">
<path d="M0 420 l0 -420 175 0 c96 0 175 3 175 8 0 4 9 39 20 77 14 50 15 65
5 51 -9 -11 -18 -15 -27 -10 -7 5 -20 9 -28 9 -28 0 -21 32 22 96 39 58 43 69
44 129 0 36 3 72 7 80 12 28 12 85 1 95 -7 6 -15 20 -19 32 -5 18 -1 25 17 32
28 10 144 15 158 6 6 -4 4 -20 -4 -43 -37 -101 -40 -121 -23 -140 11 -12 17
-36 17 -68 0 -44 4 -53 43 -94 24 -25 46 -53 50 -63 8 -22 -17 -34 -38 -17
-25 20 -34 -44 -16 -117 l15 -63 183 0 183 0 0 420 0 420 -480 0 -480 0 0
-420z"/>
</g>
</svg>
