<?xml version="1.0" standalone="no"?>
<!DOCTYPE svg PUBLIC "-//W3C//DTD SVG 20010904//EN"
 "http://www.w3.org/TR/2001/REC-SVG-20010904/DTD/svg10.dtd">
<svg version="1.0" xmlns="http://www.w3.org/2000/svg"
 width="96.000000pt" height="84.000000pt" viewBox="0 0 96.000000 84.000000"
 preserveAspectRatio="xMidYMid meet">
<metadata>
Created by potrace 1.16, written by Peter Selinger 2001-2019
</metadata>
<g transform="translate(0.000000,84.000000) scale(0.100000,-0.100000)"
fill="#000000" stroke="none">
<path d="M0 420 l0 -420 174 0 174 0 16 63 c31 120 30 116 6 80 -22 -33 -40
-43 -40 -22 0 6 -7 9 -15 5 -27 -10 -46 4 -34 25 5 10 6 19 2 19 -4 0 -1 6 7
13 8 7 30 34 49 61 34 51 46 109 30 153 -5 14 -3 25 6 33 17 14 24 98 9 104
-13 5 -29 64 -21 73 11 10 187 14 187 4 0 -5 -5 -22 -11 -38 -6 -15 -13 -37
-15 -48 -2 -11 -7 -35 -10 -53 -4 -22 -2 -38 9 -50 8 -9 17 -39 20 -65 4 -41
12 -56 48 -93 24 -24 39 -44 35 -44 -5 0 -1 -9 9 -20 16 -18 16 -20 1 -26 -10
-4 -25 1 -36 11 -19 18 -20 17 -20 -11 0 -16 -4 -35 -9 -42 -5 -8 -2 -38 7
-73 l16 -59 183 0 183 0 0 420 0 420 -480 0 -480 0 0 -420z"/>
</g>
</svg>
