<?xml version="1.0" standalone="no"?>
<!DOCTYPE svg PUBLIC "-//W3C//DTD SVG 20010904//EN"
 "http://www.w3.org/TR/2001/REC-SVG-20010904/DTD/svg10.dtd">
<svg version="1.0" xmlns="http://www.w3.org/2000/svg"
 width="96.000000pt" height="84.000000pt" viewBox="0 0 96.000000 84.000000"
 preserveAspectRatio="xMidYMid meet">
<metadata>
Created by potrace 1.16, written by Peter Selinger 2001-2019
</metadata>
<g transform="translate(0.000000,84.000000) scale(0.100000,-0.100000)"
fill="#000000" stroke="none">
<path d="M0 420 l0 -420 480 0 480 0 0 420 0 420 -480 0 -480 0 0 -420z m460
205 c16 19 44 19 60 0 10 -12 10 -15 -4 -15 -21 0 -21 -17 2 -24 22 -7 47 -47
34 -55 -18 -11 6 -51 30 -51 19 0 20 -2 8 -11 -11 -8 -2 -9 32 -4 55 7 97 -15
98 -52 0 -21 -32 -41 -55 -34 -27 8 -117 31 -122 31 -3 0 -3 -7 0 -15 9 -23
-15 -30 -30 -9 -8 11 -23 18 -35 16 -11 -2 -24 1 -28 7 -3 7 -24 15 -46 18
-36 6 -38 5 -25 -10 14 -18 2 -24 -15 -7 -5 5 -18 11 -29 14 -72 15 -93 42
-25 32 127 -19 117 -20 136 9 17 26 17 29 1 58 -20 34 -13 52 9 23 8 -12 14
-15 14 -7 0 7 -14 25 -31 40 -22 19 -28 32 -23 45 7 17 8 17 19 2 11 -14 14
-15 25 -1z"/>
<path d="M510 520 c0 -5 5 -10 10 -10 6 0 10 5 10 10 0 6 -4 10 -10 10 -5 0
-10 -4 -10 -10z"/>
<path d="M466 474 c-9 -23 -2 -28 13 -10 7 8 8 17 3 20 -6 3 -13 -1 -16 -10z"/>
</g>
</svg>
