<?xml version="1.0" standalone="no"?>
<!DOCTYPE svg PUBLIC "-//W3C//DTD SVG 20010904//EN"
 "http://www.w3.org/TR/2001/REC-SVG-20010904/DTD/svg10.dtd">
<svg version="1.0" xmlns="http://www.w3.org/2000/svg"
 width="96.000000pt" height="84.000000pt" viewBox="0 0 96.000000 84.000000"
 preserveAspectRatio="xMidYMid meet">
<metadata>
Created by potrace 1.16, written by Peter Selinger 2001-2019
</metadata>
<g transform="translate(0.000000,84.000000) scale(0.100000,-0.100000)"
fill="#000000" stroke="none">
<path d="M0 420 l0 -420 173 0 173 0 22 85 c12 46 25 93 29 102 4 10 -13 -7
-37 -37 -24 -30 -45 -49 -48 -42 -2 7 -13 10 -27 6 -27 -7 -42 11 -24 32 6 8
9 17 6 20 -3 3 1 13 8 22 55 66 77 100 86 133 10 32 9 40 -5 55 -16 16 -16 18
2 38 23 24 35 116 16 116 -13 0 -24 32 -24 68 0 20 4 23 38 21 20 -1 60 1 88
5 30 4 54 4 58 -2 3 -5 -4 -47 -16 -94 -21 -85 -21 -85 -1 -105 12 -12 23 -41
27 -70 5 -43 12 -55 47 -82 22 -18 38 -38 36 -44 -2 -7 2 -19 10 -28 12 -14
12 -17 -1 -22 -9 -4 -22 0 -30 8 -21 21 -26 19 -26 -13 0 -15 -5 -33 -11 -39
-8 -8 -6 -28 6 -72 l18 -61 183 0 184 0 0 420 0 420 -480 0 -480 0 0 -420z"/>
</g>
</svg>
