<?xml version="1.0" standalone="no"?>
<!DOCTYPE svg PUBLIC "-//W3C//DTD SVG 20010904//EN"
 "http://www.w3.org/TR/2001/REC-SVG-20010904/DTD/svg10.dtd">
<svg version="1.0" xmlns="http://www.w3.org/2000/svg"
 width="96.000000pt" height="84.000000pt" viewBox="0 0 96.000000 84.000000"
 preserveAspectRatio="xMidYMid meet">
<metadata>
Created by potrace 1.16, written by Peter Selinger 2001-2019
</metadata>
<g transform="translate(0.000000,84.000000) scale(0.100000,-0.100000)"
fill="#000000" stroke="none">
<path d="M0 420 l0 -420 173 0 172 0 33 113 c19 61 35 137 37 167 l4 55 -9
-52 c-13 -88 -76 -166 -142 -178 -41 -8 -51 7 -26 34 10 10 10 15 2 18 -7 2 0
17 18 36 66 72 108 157 78 157 -16 0 -12 20 10 47 21 27 29 123 10 123 -9 0
-30 61 -30 88 0 9 16 11 58 9 33 -2 71 2 89 10 18 7 35 13 39 13 6 0 0 -82
-12 -167 -5 -34 -3 -44 10 -49 8 -3 23 -32 32 -64 11 -39 27 -69 49 -90 19
-18 31 -39 28 -46 -3 -8 0 -20 6 -28 17 -20 0 -28 -20 -10 -17 16 -19 15 -25
-2 -3 -11 -10 -30 -15 -44 -7 -18 -5 -43 4 -80 l14 -55 187 -3 186 -2 0 420 0
420 -480 0 -480 0 0 -420z"/>
</g>
</svg>
