<?xml version="1.0" standalone="no"?>
<!DOCTYPE svg PUBLIC "-//W3C//DTD SVG 20010904//EN"
 "http://www.w3.org/TR/2001/REC-SVG-20010904/DTD/svg10.dtd">
<svg version="1.0" xmlns="http://www.w3.org/2000/svg"
 width="96.000000pt" height="84.000000pt" viewBox="0 0 96.000000 84.000000"
 preserveAspectRatio="xMidYMid meet">
<metadata>
Created by potrace 1.16, written by Peter Selinger 2001-2019
</metadata>
<g transform="translate(0.000000,84.000000) scale(0.100000,-0.100000)"
fill="#000000" stroke="none">
<path d="M0 420 l0 -420 174 0 174 0 6 35 c4 20 18 68 32 108 27 81 41 173 24
162 -5 -3 -10 -14 -10 -23 -1 -27 -36 -97 -61 -121 -78 -74 -162 -105 -123
-46 11 17 12 25 4 25 -6 0 11 28 38 63 65 82 74 100 63 129 -7 18 -4 28 12 46
15 16 22 40 25 82 3 35 0 60 -5 60 -14 0 -33 46 -33 77 0 24 2 25 41 20 23 -3
64 1 92 8 37 9 54 10 58 3 9 -14 0 -107 -12 -130 -16 -30 -10 -66 11 -73 13
-4 25 -25 37 -63 9 -32 30 -72 47 -90 18 -20 30 -41 28 -53 -2 -11 2 -27 8
-35 10 -11 9 -14 -3 -14 -9 0 -20 8 -26 18 -10 18 -10 17 -36 -57 -3 -7 0 -40
7 -72 l12 -59 188 0 188 0 0 420 0 420 -480 0 -480 0 0 -420z"/>
</g>
</svg>
