<?xml version="1.0" standalone="no"?>
<!DOCTYPE svg PUBLIC "-//W3C//DTD SVG 20010904//EN"
 "http://www.w3.org/TR/2001/REC-SVG-20010904/DTD/svg10.dtd">
<svg version="1.0" xmlns="http://www.w3.org/2000/svg"
 width="96.000000pt" height="84.000000pt" viewBox="0 0 96.000000 84.000000"
 preserveAspectRatio="xMidYMid meet">
<metadata>
Created by potrace 1.16, written by Peter Selinger 2001-2019
</metadata>
<g transform="translate(0.000000,84.000000) scale(0.100000,-0.100000)"
fill="#000000" stroke="none">
<path d="M0 420 l0 -420 173 0 173 0 28 98 c34 113 41 155 31 179 -5 13 -11 4
-25 -36 -14 -43 -33 -68 -90 -122 -85 -81 -124 -93 -89 -26 9 16 9 22 -1 25
-8 3 -9 7 -2 11 13 8 112 143 112 153 0 4 -4 18 -9 32 -8 18 -6 28 5 37 28 23
43 65 42 117 0 29 -4 52 -8 52 -11 0 -44 89 -36 97 4 4 37 8 74 10 37 1 81 4
97 5 28 3 30 1 33 -37 2 -22 -2 -58 -9 -80 -16 -51 -13 -70 16 -99 13 -13 31
-48 40 -78 8 -30 27 -66 41 -79 15 -14 24 -32 22 -45 -1 -12 3 -29 11 -38 12
-14 11 -16 -3 -16 -9 0 -19 7 -22 15 -5 11 -10 13 -19 5 -20 -17 -26 -71 -14
-127 l12 -53 189 0 188 0 0 420 0 420 -480 0 -480 0 0 -420z"/>
</g>
</svg>
