<?xml version="1.0" standalone="no"?>
<!DOCTYPE svg PUBLIC "-//W3C//DTD SVG 20010904//EN"
 "http://www.w3.org/TR/2001/REC-SVG-20010904/DTD/svg10.dtd">
<svg version="1.0" xmlns="http://www.w3.org/2000/svg"
 width="96.000000pt" height="84.000000pt" viewBox="0 0 96.000000 84.000000"
 preserveAspectRatio="xMidYMid meet">
<metadata>
Created by potrace 1.16, written by Peter Selinger 2001-2019
</metadata>
<g transform="translate(0.000000,84.000000) scale(0.100000,-0.100000)"
fill="#000000" stroke="none">
<path d="M0 420 l0 -420 175 0 174 0 11 43 c6 23 18 62 26 87 21 59 29 130 15
130 -6 0 -22 -24 -36 -53 -25 -53 -147 -187 -169 -187 -23 0 -25 12 -10 41 8
16 10 29 4 29 -5 0 17 38 50 84 59 81 70 106 50 106 -20 0 -10 44 16 71 26 28
50 109 32 109 -5 0 -7 13 -3 30 4 17 2 30 -3 30 -11 0 -42 72 -42 97 0 13 8
15 48 10 26 -2 69 1 97 8 27 7 53 11 56 9 15 -9 18 -108 4 -141 -21 -49 -19
-68 9 -81 23 -10 56 -83 56 -122 0 -9 14 -29 31 -46 24 -23 29 -35 25 -56 -4
-19 0 -30 11 -36 10 -6 12 -12 5 -16 -6 -3 -18 1 -27 10 -34 34 -50 -25 -31
-118 l7 -38 189 0 190 0 0 420 0 420 -480 0 -480 0 0 -420z"/>
</g>
</svg>
