<?xml version="1.0" standalone="no"?>
<!DOCTYPE svg PUBLIC "-//W3C//DTD SVG 20010904//EN"
 "http://www.w3.org/TR/2001/REC-SVG-20010904/DTD/svg10.dtd">
<svg version="1.0" xmlns="http://www.w3.org/2000/svg"
 width="96.000000pt" height="84.000000pt" viewBox="0 0 96.000000 84.000000"
 preserveAspectRatio="xMidYMid meet">
<metadata>
Created by potrace 1.16, written by Peter Selinger 2001-2019
</metadata>
<g transform="translate(0.000000,84.000000) scale(0.100000,-0.100000)"
fill="#000000" stroke="none">
<path d="M0 420 l0 -420 76 0 c61 0 79 4 90 18 17 22 18 55 2 47 -7 -4 -6 -1
2 7 40 35 104 144 106 179 1 22 12 50 28 71 29 38 46 121 27 132 -6 4 -8 18
-5 31 4 16 0 30 -10 40 -8 9 -21 34 -27 56 -16 50 -4 66 38 51 21 -7 46 -5 91
6 44 10 66 12 73 5 16 -16 16 -130 1 -145 -21 -21 -15 -64 12 -76 18 -8 29
-26 40 -63 9 -29 16 -60 16 -69 0 -9 14 -29 31 -46 23 -22 29 -35 25 -55 -3
-14 0 -31 6 -37 19 -19 -1 -26 -21 -8 -19 17 -20 17 -30 -2 -7 -14 -7 -38 0
-81 l11 -61 189 0 189 0 0 420 0 420 -480 0 -480 0 0 -420z"/>
<path d="M357 180 c-15 -33 -53 -87 -83 -120 l-56 -60 69 0 70 0 12 57 c7 32
23 78 34 102 16 33 19 45 10 48 -7 3 -13 11 -13 19 0 30 -17 12 -43 -46z"/>
</g>
</svg>
