<?xml version="1.0" standalone="no"?>
<!DOCTYPE svg PUBLIC "-//W3C//DTD SVG 20010904//EN"
 "http://www.w3.org/TR/2001/REC-SVG-20010904/DTD/svg10.dtd">
<svg version="1.0" xmlns="http://www.w3.org/2000/svg"
 width="96.000000pt" height="84.000000pt" viewBox="0 0 96.000000 84.000000"
 preserveAspectRatio="xMidYMid meet">
<metadata>
Created by potrace 1.16, written by Peter Selinger 2001-2019
</metadata>
<g transform="translate(0.000000,84.000000) scale(0.100000,-0.100000)"
fill="#000000" stroke="none">
<path d="M0 420 l0 -420 84 0 c65 0 85 3 90 15 3 10 -1 15 -12 15 -15 1 -15 2
-2 13 27 22 108 153 139 227 31 71 44 180 22 180 -6 0 -6 12 -2 28 6 20 3 32
-9 45 -20 21 -46 104 -36 114 4 4 25 2 47 -4 32 -8 47 -8 68 3 14 8 41 14 58
14 28 0 35 -5 48 -37 16 -38 12 -117 -6 -129 -18 -10 -9 -53 11 -59 30 -9 47
-43 55 -105 5 -38 16 -66 37 -92 21 -27 27 -44 23 -58 -4 -12 -1 -27 5 -35 10
-12 9 -15 -3 -15 -9 0 -20 8 -26 18 -9 16 -10 16 -16 -1 -4 -9 -3 -43 1 -75
l9 -57 188 -3 187 -2 0 420 0 420 -480 0 -480 0 0 -420z"/>
<path d="M379 160 c-20 -19 -43 -49 -52 -66 -9 -18 -28 -46 -43 -63 l-27 -32
53 3 53 3 17 60 c9 33 22 70 29 83 23 42 7 49 -30 12z"/>
</g>
</svg>
