<?xml version="1.0" standalone="no"?>
<!DOCTYPE svg PUBLIC "-//W3C//DTD SVG 20010904//EN"
 "http://www.w3.org/TR/2001/REC-SVG-20010904/DTD/svg10.dtd">
<svg version="1.0" xmlns="http://www.w3.org/2000/svg"
 width="96.000000pt" height="84.000000pt" viewBox="0 0 96.000000 84.000000"
 preserveAspectRatio="xMidYMid meet">
<metadata>
Created by potrace 1.16, written by Peter Selinger 2001-2019
</metadata>
<g transform="translate(0.000000,84.000000) scale(0.100000,-0.100000)"
fill="#000000" stroke="none">
<path d="M0 420 l0 -420 68 0 c39 0 75 5 85 13 26 19 135 195 157 254 21 57
27 163 10 163 -7 0 -9 13 -5 33 5 24 1 43 -15 69 -11 20 -25 50 -30 68 -11 38
7 49 53 32 25 -10 35 -9 54 3 12 8 40 15 61 15 32 0 43 -5 57 -27 22 -33 23
-95 1 -127 -22 -35 -21 -43 19 -79 30 -28 36 -40 41 -95 5 -46 14 -73 35 -102
22 -31 27 -46 23 -70 -4 -19 -2 -30 5 -30 6 0 11 -4 11 -10 0 -16 -21 -12 -37
8 -13 15 -14 12 -9 -32 3 -27 6 -57 6 -67 0 -18 11 -19 185 -19 l185 0 0 420
0 420 -480 0 -480 0 0 -420z"/>
<path d="M380 83 c0 -6 -10 -13 -22 -17 -13 -3 -31 -19 -40 -36 l-17 -30 38 0
c37 0 39 1 45 41 4 23 4 44 1 47 -3 3 -5 1 -5 -5z"/>
</g>
</svg>
