<?xml version="1.0" standalone="no"?>
<!DOCTYPE svg PUBLIC "-//W3C//DTD SVG 20010904//EN"
 "http://www.w3.org/TR/2001/REC-SVG-20010904/DTD/svg10.dtd">
<svg version="1.0" xmlns="http://www.w3.org/2000/svg"
 width="96.000000pt" height="84.000000pt" viewBox="0 0 96.000000 84.000000"
 preserveAspectRatio="xMidYMid meet">
<metadata>
Created by potrace 1.16, written by Peter Selinger 2001-2019
</metadata>
<g transform="translate(0.000000,84.000000) scale(0.100000,-0.100000)"
fill="#000000" stroke="none">
<path d="M0 420 l0 -420 88 0 87 0 67 113 c76 128 103 207 93 273 -3 24 -10
42 -15 39 -9 -5 -5 37 6 73 2 6 -1 12 -5 12 -14 0 -51 83 -51 113 0 31 0 31
45 13 31 -13 37 -13 72 5 44 23 76 18 111 -14 21 -20 23 -28 18 -76 -4 -30
-11 -61 -17 -68 -17 -19 -3 -58 25 -71 28 -12 61 -109 52 -148 -3 -12 -2 -25
3 -29 20 -12 41 -70 36 -96 -4 -15 -1 -30 5 -34 5 -3 8 -11 4 -16 -3 -5 -10
-7 -15 -4 -5 4 -9 -14 -9 -39 l0 -46 180 0 180 0 0 420 0 420 -480 0 -480 0 0
-420z"/>
<path d="M360 29 l-35 -28 32 -1 c27 0 34 5 39 25 9 37 3 37 -36 4z"/>
</g>
</svg>
