<?xml version="1.0" standalone="no"?>
<!DOCTYPE svg PUBLIC "-//W3C//DTD SVG 20010904//EN"
 "http://www.w3.org/TR/2001/REC-SVG-20010904/DTD/svg10.dtd">
<svg version="1.0" xmlns="http://www.w3.org/2000/svg"
 width="96.000000pt" height="84.000000pt" viewBox="0 0 96.000000 84.000000"
 preserveAspectRatio="xMidYMid meet">
<metadata>
Created by potrace 1.16, written by Peter Selinger 2001-2019
</metadata>
<g transform="translate(0.000000,84.000000) scale(0.100000,-0.100000)"
fill="#000000" stroke="none">
<path d="M0 420 l0 -420 100 0 99 0 56 95 c74 126 98 194 91 264 -3 30 -10 57
-17 61 -7 5 -9 20 -5 41 4 26 -1 48 -24 93 -31 60 -38 96 -20 96 6 0 27 -7 46
-15 34 -14 38 -13 61 5 35 27 85 26 119 -3 24 -21 27 -31 26 -76 0 -29 -8 -64
-16 -77 -23 -34 -20 -52 13 -68 35 -19 64 -77 67 -134 1 -23 8 -49 15 -58 8
-10 12 -48 12 -120 l-1 -104 169 0 169 0 0 420 0 420 -480 0 -480 0 0 -420z"/>
</g>
</svg>
