<?xml version="1.0" standalone="no"?>
<!DOCTYPE svg PUBLIC "-//W3C//DTD SVG 20010904//EN"
 "http://www.w3.org/TR/2001/REC-SVG-20010904/DTD/svg10.dtd">
<svg version="1.0" xmlns="http://www.w3.org/2000/svg"
 width="96.000000pt" height="84.000000pt" viewBox="0 0 96.000000 84.000000"
 preserveAspectRatio="xMidYMid meet">
<metadata>
Created by potrace 1.16, written by Peter Selinger 2001-2019
</metadata>
<g transform="translate(0.000000,84.000000) scale(0.100000,-0.100000)"
fill="#000000" stroke="none">
<path d="M0 420 l0 -420 480 0 480 0 0 420 0 420 -480 0 -480 0 0 -420z m444
198 c5 -10 7 -10 12 0 8 17 45 15 69 -5 16 -12 16 -14 3 -10 -21 8 -35 -11
-14 -19 21 -8 50 -55 38 -63 -18 -11 6 -51 30 -51 19 0 20 -2 8 -10 -10 -7 1
-8 38 -4 46 6 56 4 72 -14 27 -29 26 -58 -3 -66 -12 -3 -47 1 -77 9 -48 13
-56 13 -66 0 -15 -19 -44 -19 -44 0 0 10 -10 15 -30 15 -16 0 -30 5 -30 10 0
6 -19 10 -41 10 -36 0 -40 -2 -29 -15 8 -9 9 -15 2 -15 -6 0 -14 5 -17 10 -3
6 -26 15 -51 21 -71 18 -51 30 41 23 l84 -7 10 26 c11 27 5 57 -12 68 -5 4 -6
12 -2 18 5 9 11 7 21 -6 7 -10 14 -13 14 -6 0 6 -12 21 -27 33 -29 23 -40 60
-17 60 7 0 15 -6 18 -12z"/>
<path d="M462 465 c-13 -28 -2 -34 18 -10 9 11 10 19 3 26 -6 6 -13 1 -21 -16z"/>
</g>
</svg>
