<?xml version="1.0" standalone="no"?>
<!DOCTYPE svg PUBLIC "-//W3C//DTD SVG 20010904//EN"
 "http://www.w3.org/TR/2001/REC-SVG-20010904/DTD/svg10.dtd">
<svg version="1.0" xmlns="http://www.w3.org/2000/svg"
 width="96.000000pt" height="84.000000pt" viewBox="0 0 96.000000 84.000000"
 preserveAspectRatio="xMidYMid meet">
<metadata>
Created by potrace 1.16, written by Peter Selinger 2001-2019
</metadata>
<g transform="translate(0.000000,84.000000) scale(0.100000,-0.100000)"
fill="#000000" stroke="none">
<path d="M0 420 l0 -420 118 0 117 0 46 92 c67 133 83 189 76 261 -3 33 -11
63 -18 67 -9 6 -9 18 -2 47 8 33 7 44 -9 65 -25 36 -48 102 -39 117 6 9 17 7
43 -9 l36 -21 37 26 c44 29 53 30 100 11 21 -9 36 -24 40 -38 8 -36 0 -117
-13 -130 -21 -21 -13 -53 18 -76 39 -29 70 -91 70 -140 0 -24 6 -45 16 -53 13
-10 14 -27 9 -95 -11 -131 -20 -124 161 -124 l154 0 0 420 0 420 -480 0 -480
0 0 -420z"/>
</g>
</svg>
