<?xml version="1.0" standalone="no"?>
<!DOCTYPE svg PUBLIC "-//W3C//DTD SVG 20010904//EN"
 "http://www.w3.org/TR/2001/REC-SVG-20010904/DTD/svg10.dtd">
<svg version="1.0" xmlns="http://www.w3.org/2000/svg"
 width="96.000000pt" height="84.000000pt" viewBox="0 0 96.000000 84.000000"
 preserveAspectRatio="xMidYMid meet">
<metadata>
Created by potrace 1.16, written by Peter Selinger 2001-2019
</metadata>
<g transform="translate(0.000000,84.000000) scale(0.100000,-0.100000)"
fill="#000000" stroke="none">
<path d="M0 420 l0 -420 135 0 135 0 30 60 c17 33 26 60 21 60 -5 0 -12 -6
-15 -12 -18 -38 7 37 30 92 34 79 47 220 21 220 -13 0 -13 6 -3 48 12 44 11
50 -11 83 -29 45 -42 109 -22 109 8 0 23 -7 33 -15 27 -20 42 -19 76 6 23 17
38 21 71 16 61 -8 72 -24 70 -98 -1 -35 -7 -72 -15 -83 -14 -22 -5 -66 13 -66
6 0 26 -24 46 -52 28 -42 35 -63 35 -99 0 -34 5 -49 16 -53 14 -5 15 -20 9
-111 l-7 -105 146 0 146 0 0 420 0 420 -230 0 c-147 0 -230 -4 -230 -10 0 -5
-9 -10 -20 -10 -11 0 -20 5 -20 10 0 6 -83 10 -230 10 l-230 0 0 -420z"/>
<path d="M452 20 c0 -14 2 -19 5 -12 2 6 2 18 0 25 -3 6 -5 1 -5 -13z"/>
</g>
</svg>
