<?xml version="1.0" standalone="no"?>
<!DOCTYPE svg PUBLIC "-//W3C//DTD SVG 20010904//EN"
 "http://www.w3.org/TR/2001/REC-SVG-20010904/DTD/svg10.dtd">
<svg version="1.0" xmlns="http://www.w3.org/2000/svg"
 width="96.000000pt" height="84.000000pt" viewBox="0 0 96.000000 84.000000"
 preserveAspectRatio="xMidYMid meet">
<metadata>
Created by potrace 1.16, written by Peter Selinger 2001-2019
</metadata>
<g transform="translate(0.000000,84.000000) scale(0.100000,-0.100000)"
fill="#000000" stroke="none">
<path d="M0 420 l0 -420 180 0 c202 0 183 -9 184 85 1 37 11 70 39 123 34 67
37 81 37 155 0 47 7 101 15 126 15 42 15 45 -10 94 -42 85 -25 146 22 81 l19
-26 38 26 c47 31 94 33 130 5 24 -19 26 -27 26 -90 0 -46 -5 -75 -14 -84 -16
-17 -9 -64 11 -72 7 -3 31 -30 53 -61 32 -44 40 -64 40 -98 0 -33 5 -46 20
-54 20 -11 20 -17 14 -111 l-7 -99 82 0 81 0 0 420 0 420 -225 0 c-182 0 -225
-3 -225 -13 0 -9 -12 -14 -30 -15 -20 0 -30 4 -30 14 0 12 -36 14 -225 14
l-225 0 0 -420z"/>
<path d="M530 48 c0 -9 -3 -23 -6 -32 -4 -11 -1 -16 10 -16 18 0 21 27 6 50
-8 13 -10 13 -10 -2z"/>
</g>
</svg>
