<?xml version="1.0" standalone="no"?>
<!DOCTYPE svg PUBLIC "-//W3C//DTD SVG 20010904//EN"
 "http://www.w3.org/TR/2001/REC-SVG-20010904/DTD/svg10.dtd">
<svg version="1.0" xmlns="http://www.w3.org/2000/svg"
 width="96.000000pt" height="84.000000pt" viewBox="0 0 96.000000 84.000000"
 preserveAspectRatio="xMidYMid meet">
<metadata>
Created by potrace 1.16, written by Peter Selinger 2001-2019
</metadata>
<g transform="translate(0.000000,84.000000) scale(0.100000,-0.100000)"
fill="#000000" stroke="none">
<path d="M0 420 l0 -420 215 0 215 0 0 235 c0 197 2 234 14 229 8 -3 16 -14
19 -25 7 -25 27 -24 34 1 3 11 11 20 18 20 17 0 48 94 40 120 -8 24 -25 27
-25 4 0 -9 -6 -14 -13 -11 -6 2 -12 13 -11 25 4 117 3 114 27 110 12 -2 26
-13 32 -25 12 -29 16 -29 61 2 41 28 57 30 102 14 38 -13 44 -27 48 -115 3
-57 1 -73 -11 -78 -22 -8 -18 -50 6 -72 12 -10 39 -41 60 -67 33 -41 39 -56
39 -96 0 -41 3 -49 25 -59 l26 -12 -7 -100 -7 -100 27 0 26 0 0 420 0 420
-225 0 c-182 0 -225 -3 -225 -13 0 -9 -12 -14 -30 -15 -20 0 -30 4 -30 14 0
12 -36 14 -225 14 l-225 0 0 -420z m459 168 c1 -30 -13 -38 -23 -12 -3 9 -6
37 -5 62 l1 47 13 -35 c7 -19 14 -47 14 -62z"/>
<path d="M531 395 l1 -50 9 39 c6 26 6 43 -1 50 -7 7 -10 -6 -9 -39z"/>
</g>
</svg>
