<?xml version="1.0" standalone="no"?>
<!DOCTYPE svg PUBLIC "-//W3C//DTD SVG 20010904//EN"
 "http://www.w3.org/TR/2001/REC-SVG-20010904/DTD/svg10.dtd">
<svg version="1.0" xmlns="http://www.w3.org/2000/svg"
 width="96.000000pt" height="84.000000pt" viewBox="0 0 96.000000 84.000000"
 preserveAspectRatio="xMidYMid meet">
<metadata>
Created by potrace 1.16, written by Peter Selinger 2001-2019
</metadata>
<g transform="translate(0.000000,84.000000) scale(0.100000,-0.100000)"
fill="#000000" stroke="none">
<path d="M0 420 l0 -420 205 0 205 0 0 239 0 239 25 -11 c13 -7 27 -22 30 -34
7 -30 23 -29 31 1 3 15 15 26 30 29 l24 4 0 -141 1 -141 40 78 c45 88 69 185
48 198 -9 5 -7 19 9 57 23 53 22 85 -4 155 -8 20 -14 44 -14 52 0 24 37 17 58
-10 l20 -26 34 21 c47 29 103 26 134 -6 19 -18 24 -32 20 -48 -3 -13 -2 -46 3
-72 9 -43 7 -51 -9 -64 -27 -21 -17 -51 31 -99 l39 -39 0 229 0 229 -205 0
-205 0 0 -26 c0 -14 -4 -23 -10 -19 -5 3 -10 15 -10 26 0 10 -4 19 -10 19 -5
0 -10 -7 -10 -15 0 -10 -10 -15 -30 -15 -20 0 -30 5 -30 15 0 8 -4 15 -10 15
-5 0 -10 -11 -10 -25 0 -14 -4 -25 -10 -25 -5 0 -10 11 -10 25 l0 25 -205 0
-205 0 0 -420z m458 177 c5 -36 3 -39 -19 -35 -23 3 -24 7 -26 83 l-2 80 21
-44 c11 -25 23 -62 26 -84z m83 -30 c-7 -7 -16 -6 -26 3 -19 16 -16 44 12 105
l18 40 3 -69 c2 -38 -2 -74 -7 -79z m-101 -41 c0 -2 -7 -6 -15 -10 -8 -3 -15
-1 -15 4 0 6 7 10 15 10 8 0 15 -2 15 -4z m110 -12 c0 -14 -3 -14 -15 -4 -8 7
-15 14 -15 16 0 2 7 4 15 4 8 0 15 -7 15 -16z"/>
</g>
</svg>
