<?xml version="1.0" standalone="no"?>
<!DOCTYPE svg PUBLIC "-//W3C//DTD SVG 20010904//EN"
 "http://www.w3.org/TR/2001/REC-SVG-20010904/DTD/svg10.dtd">
<svg version="1.0" xmlns="http://www.w3.org/2000/svg"
 width="96.000000pt" height="84.000000pt" viewBox="0 0 96.000000 84.000000"
 preserveAspectRatio="xMidYMid meet">
<metadata>
Created by potrace 1.16, written by Peter Selinger 2001-2019
</metadata>
<g transform="translate(0.000000,84.000000) scale(0.100000,-0.100000)"
fill="#000000" stroke="none">
<path d="M0 420 l0 -420 195 0 195 0 0 265 0 265 27 0 c25 0 26 -1 8 -20 -15
-16 -15 -22 -5 -35 7 -8 18 -15 25 -15 7 0 16 -11 19 -25 8 -30 22 -32 31 -4
4 11 18 24 31 29 28 11 30 26 7 52 -15 17 -15 18 10 18 l27 0 0 -265 c0 -258
1 -265 20 -265 18 0 20 7 20 63 0 89 13 126 81 227 64 94 96 174 79 195 -7 8
-4 26 9 56 15 37 17 55 9 114 -15 126 -16 120 12 120 16 0 28 -8 35 -22 11
-27 22 -28 49 -8 11 8 32 15 48 15 26 0 28 3 28 40 l0 40 -195 0 -195 0 0 -35
c0 -34 -1 -34 -20 -18 -11 10 -20 25 -20 35 0 10 -4 18 -10 18 -5 0 -10 -7
-10 -15 0 -10 -10 -15 -30 -15 -20 0 -30 5 -30 15 0 8 -4 15 -10 15 -5 0 -10
-9 -10 -21 0 -11 -7 -28 -16 -36 -17 -18 -17 -21 21 -111 14 -35 25 -75 23
-90 -2 -23 -8 -27 -33 -27 l-30 0 -3 143 -3 142 -194 0 -195 0 0 -420z m566
143 c-12 -30 -65 -1 -66 36 0 8 15 46 33 85 l32 71 3 -89 c2 -49 1 -95 -2
-103z"/>
</g>
</svg>
