<?xml version="1.0" standalone="no"?>
<!DOCTYPE svg PUBLIC "-//W3C//DTD SVG 20010904//EN"
 "http://www.w3.org/TR/2001/REC-SVG-20010904/DTD/svg10.dtd">
<svg version="1.0" xmlns="http://www.w3.org/2000/svg"
 width="96.000000pt" height="84.000000pt" viewBox="0 0 96.000000 84.000000"
 preserveAspectRatio="xMidYMid meet">
<metadata>
Created by potrace 1.16, written by Peter Selinger 2001-2019
</metadata>
<g transform="translate(0.000000,84.000000) scale(0.100000,-0.100000)"
fill="#000000" stroke="none">
<path d="M0 420 l0 -420 185 0 185 0 0 265 0 265 37 0 c34 0 35 -1 20 -18 -23
-26 -21 -41 7 -48 15 -3 27 -15 30 -30 8 -29 22 -31 31 -3 4 11 18 24 31 29
28 11 30 26 7 52 -15 17 -14 18 20 18 l37 0 0 -265 0 -265 49 0 49 0 11 44 c6
25 11 57 11 73 1 46 33 103 106 188 71 82 97 125 109 183 5 26 3 32 -9 32 -15
0 -15 3 -1 30 17 33 28 217 13 226 -13 8 -9 23 12 44 l20 20 -185 0 -184 0 -3
-142 -3 -143 -30 -3 c-25 -2 -32 2 -43 27 -12 28 -11 36 21 102 34 72 38 109
11 109 -8 0 -14 10 -14 25 0 14 -4 25 -10 25 -5 0 -10 -8 -10 -17 0 -13 -9
-18 -30 -19 -23 -1 -30 3 -30 17 0 11 -4 19 -10 19 -5 0 -10 -11 -10 -25 0
-14 -4 -25 -9 -25 -22 0 -19 -39 9 -107 17 -41 30 -87 28 -101 -3 -24 -7 -27
-43 -27 l-40 0 -3 143 -3 142 -184 0 -185 0 0 -420z"/>
<path d="M951 263 c0 -7 -39 -69 -86 -138 l-86 -125 56 0 55 0 0 31 c0 18 16
69 36 115 20 46 34 93 31 106 -2 13 -5 18 -6 11z"/>
</g>
</svg>
