<?xml version="1.0" standalone="no"?>
<!DOCTYPE svg PUBLIC "-//W3C//DTD SVG 20010904//EN"
 "http://www.w3.org/TR/2001/REC-SVG-20010904/DTD/svg10.dtd">
<svg version="1.0" xmlns="http://www.w3.org/2000/svg"
 width="96.000000pt" height="84.000000pt" viewBox="0 0 96.000000 84.000000"
 preserveAspectRatio="xMidYMid meet">
<metadata>
Created by potrace 1.16, written by Peter Selinger 2001-2019
</metadata>
<g transform="translate(0.000000,84.000000) scale(0.100000,-0.100000)"
fill="#000000" stroke="none">
<path d="M0 420 l0 -420 175 0 175 0 0 249 c0 137 3 256 6 265 4 11 19 16 47
16 39 0 40 0 22 -20 -15 -16 -15 -22 -5 -35 7 -8 18 -15 25 -15 7 0 16 -11 19
-25 8 -30 22 -32 31 -4 4 11 18 24 31 29 27 11 32 38 9 46 -28 11 -15 24 24
24 26 0 41 -5 45 -16 3 -9 6 -128 6 -265 l0 -249 129 0 c145 0 141 -3 141 81
0 53 21 115 57 169 23 34 23 38 23 312 l0 278 -175 0 -175 0 0 -145 0 -145
-43 0 c-37 0 -44 3 -55 30 -13 28 -11 36 21 100 35 70 39 110 11 110 -8 0 -14
10 -14 25 0 14 -4 25 -10 25 -5 0 -10 -8 -10 -17 0 -13 -9 -18 -30 -19 -23 -1
-30 3 -30 17 0 11 -4 19 -10 19 -5 0 -10 -11 -10 -25 0 -14 -4 -25 -9 -25 -22
0 -19 -39 9 -107 17 -41 30 -87 28 -101 -3 -25 -7 -27 -55 -30 l-53 -3 0 145
0 146 -175 0 -175 0 0 -420z"/>
</g>
</svg>
