<?xml version="1.0" standalone="no"?>
<!DOCTYPE svg PUBLIC "-//W3C//DTD SVG 20010904//EN"
 "http://www.w3.org/TR/2001/REC-SVG-20010904/DTD/svg10.dtd">
<svg version="1.0" xmlns="http://www.w3.org/2000/svg"
 width="96.000000pt" height="84.000000pt" viewBox="0 0 96.000000 84.000000"
 preserveAspectRatio="xMidYMid meet">
<metadata>
Created by potrace 1.16, written by Peter Selinger 2001-2019
</metadata>
<g transform="translate(0.000000,84.000000) scale(0.100000,-0.100000)"
fill="#000000" stroke="none">
<path d="M0 420 l0 -420 160 0 160 0 0 420 0 420 -160 0 -160 0 0 -420z"/>
<path d="M430 824 c0 -8 -7 -23 -16 -31 -18 -19 -16 -35 21 -121 14 -35 25
-75 23 -90 -3 -25 -7 -27 -55 -30 -33 -2 -53 -8 -53 -15 0 -8 17 -11 52 -9 51
3 52 3 31 -13 -30 -21 -29 -43 1 -51 15 -3 26 -14 28 -27 4 -28 25 -33 33 -7
4 12 18 25 31 30 27 11 32 38 9 46 -28 11 -15 24 25 24 27 0 42 -6 49 -17 11
-20 15 -4 5 21 -4 11 -19 16 -50 16 -36 0 -44 3 -44 18 0 10 -5 23 -11 29 -9
9 -2 31 25 85 42 85 43 93 16 110 -11 7 -20 22 -20 33 -1 17 -2 18 -13 5 -16
-20 -67 -23 -67 -4 0 8 -4 14 -10 14 -5 0 -10 -7 -10 -16z"/>
<path d="M640 420 l0 -420 160 0 160 0 0 420 0 420 -160 0 -160 0 0 -420z"/>
</g>
</svg>
