<?xml version="1.0" standalone="no"?>
<!DOCTYPE svg PUBLIC "-//W3C//DTD SVG 20010904//EN"
 "http://www.w3.org/TR/2001/REC-SVG-20010904/DTD/svg10.dtd">
<svg version="1.0" xmlns="http://www.w3.org/2000/svg"
 width="96.000000pt" height="84.000000pt" viewBox="0 0 96.000000 84.000000"
 preserveAspectRatio="xMidYMid meet">
<metadata>
Created by potrace 1.16, written by Peter Selinger 2001-2019
</metadata>
<g transform="translate(0.000000,84.000000) scale(0.100000,-0.100000)"
fill="#000000" stroke="none">
<path d="M0 420 l0 -420 480 0 480 0 0 420 0 420 -480 0 -480 0 0 -420z m521
189 l24 -20 -22 6 c-28 8 -31 -11 -3 -20 11 -3 20 -13 20 -21 0 -8 5 -14 10
-14 7 0 9 -13 5 -33 -6 -30 -4 -33 29 -45 19 -7 45 -10 58 -7 28 7 78 -27 78
-53 0 -33 -31 -41 -98 -24 -60 14 -63 14 -77 -4 -15 -19 -15 -19 -30 1 -9 12
-25 19 -37 17 -11 -2 -24 1 -27 6 -3 5 -21 13 -40 17 -29 6 -33 5 -28 -9 6
-15 4 -15 -23 -1 -16 8 -33 14 -37 13 -15 -4 -53 13 -53 23 0 6 12 8 28 5 15
-3 52 -8 83 -12 55 -6 56 -6 69 25 11 27 10 35 -5 57 -20 30 -10 48 11 20 12
-16 14 -17 14 -4 0 9 -15 28 -32 42 -27 20 -30 28 -20 38 10 10 14 10 21 0 6
-10 10 -10 21 3 17 20 33 19 61 -6z"/>
<path d="M466 464 c-9 -24 -7 -28 9 -14 17 14 20 30 6 30 -5 0 -12 -7 -15 -16z"/>
</g>
</svg>
