<?xml version="1.0" standalone="no"?>
<!DOCTYPE svg PUBLIC "-//W3C//DTD SVG 20010904//EN"
 "http://www.w3.org/TR/2001/REC-SVG-20010904/DTD/svg10.dtd">
<svg version="1.0" xmlns="http://www.w3.org/2000/svg"
 width="96.000000pt" height="84.000000pt" viewBox="0 0 96.000000 84.000000"
 preserveAspectRatio="xMidYMid meet">
<metadata>
Created by potrace 1.16, written by Peter Selinger 2001-2019
</metadata>
<g transform="translate(0.000000,84.000000) scale(0.100000,-0.100000)"
fill="#000000" stroke="none">
<path d="M0 420 l0 -420 140 0 140 0 0 420 0 420 -140 0 -140 0 0 -420z"/>
<path d="M412 813 c-21 -23 -21 -26 -6 -61 42 -97 57 -150 50 -176 -6 -26 -10
-28 -57 -24 -41 2 -50 0 -55 -15 -3 -10 -3 -21 0 -24 3 -4 6 -1 6 5 0 8 19 12
50 12 50 0 67 -13 30 -23 -28 -7 -25 -34 4 -41 16 -4 25 -15 30 -37 7 -35 29
-35 34 0 2 14 14 26 33 33 34 12 37 23 9 40 -31 20 -24 28 25 28 31 0 47 -5
55 -17 11 -17 11 -17 6 0 -3 10 -6 25 -6 33 0 10 -14 14 -50 14 -41 0 -50 3
-50 18 0 10 -4 22 -9 27 -6 6 5 41 30 94 21 46 39 85 39 87 0 2 -10 14 -22 27
-33 35 -115 35 -146 0z"/>
<path d="M680 420 l0 -420 140 0 140 0 0 420 0 420 -140 0 -140 0 0 -420z"/>
</g>
</svg>
