<?xml version="1.0" standalone="no"?>
<!DOCTYPE svg PUBLIC "-//W3C//DTD SVG 20010904//EN"
 "http://www.w3.org/TR/2001/REC-SVG-20010904/DTD/svg10.dtd">
<svg version="1.0" xmlns="http://www.w3.org/2000/svg"
 width="96.000000pt" height="84.000000pt" viewBox="0 0 96.000000 84.000000"
 preserveAspectRatio="xMidYMid meet">
<metadata>
Created by potrace 1.16, written by Peter Selinger 2001-2019
</metadata>
<g transform="translate(0.000000,84.000000) scale(0.100000,-0.100000)"
fill="#000000" stroke="none">
<path d="M0 420 l0 -420 100 0 100 0 0 420 0 420 -100 0 -100 0 0 -420z"/>
<path d="M390 830 c0 -6 7 -25 17 -43 26 -51 48 -139 45 -179 l-3 -38 -58 0
c-63 0 -77 -9 -79 -50 l-1 -25 17 23 c16 20 25 23 72 20 43 -2 56 -7 58 -20 3
-14 -3 -18 -27 -18 -39 0 -40 -19 -3 -44 16 -10 33 -33 38 -50 12 -43 35 -39
48 8 10 33 17 41 46 49 32 8 34 10 16 23 -10 7 -24 15 -29 17 -6 2 -8 11 -4
20 9 23 105 25 113 2 12 -31 22 -13 11 21 l-11 35 -48 -6 c-51 -7 -50 -8 -62
47 -4 19 -11 26 -21 22 -18 -7 8 58 56 144 l30 52 -110 0 c-71 0 -111 -4 -111
-10z"/>
<path d="M760 420 l0 -420 100 0 100 0 0 420 0 420 -100 0 -100 0 0 -420z"/>
</g>
</svg>
