<?xml version="1.0" standalone="no"?>
<!DOCTYPE svg PUBLIC "-//W3C//DTD SVG 20010904//EN"
 "http://www.w3.org/TR/2001/REC-SVG-20010904/DTD/svg10.dtd">
<svg version="1.0" xmlns="http://www.w3.org/2000/svg"
 width="96.000000pt" height="84.000000pt" viewBox="0 0 96.000000 84.000000"
 preserveAspectRatio="xMidYMid meet">
<metadata>
Created by potrace 1.16, written by Peter Selinger 2001-2019
</metadata>
<g transform="translate(0.000000,84.000000) scale(0.100000,-0.100000)"
fill="#000000" stroke="none">
<path d="M0 420 l0 -420 80 0 80 0 0 420 0 420 -80 0 -80 0 0 -420z"/>
<path d="M426 765 c13 -42 24 -100 24 -130 l0 -54 -45 -7 c-25 -3 -54 -4 -64
-1 -21 5 -34 -13 -36 -52 l-1 -23 17 21 c14 17 28 21 78 21 58 0 61 -1 61 -25
0 -21 -5 -25 -28 -25 -16 0 -32 -3 -35 -6 -8 -8 34 -54 50 -54 6 0 14 -13 18
-29 7 -32 29 -56 43 -47 5 3 14 25 20 49 10 36 17 45 47 56 39 14 38 31 -1 31
-27 0 -27 0 -14 34 9 24 15 26 64 26 46 0 56 -3 61 -20 3 -11 11 -20 17 -20 6
0 7 8 3 18 -3 9 -9 29 -12 43 -5 24 -7 25 -59 21 l-54 -4 0 31 c0 38 -18 60
-42 53 -16 -4 -14 5 13 64 16 38 34 73 40 79 20 21 5 25 -90 25 l-99 0 24 -75z"/>
<path d="M800 420 l0 -420 80 0 80 0 0 420 0 420 -80 0 -80 0 0 -420z"/>
</g>
</svg>
