<?xml version="1.0" standalone="no"?>
<!DOCTYPE svg PUBLIC "-//W3C//DTD SVG 20010904//EN"
 "http://www.w3.org/TR/2001/REC-SVG-20010904/DTD/svg10.dtd">
<svg version="1.0" xmlns="http://www.w3.org/2000/svg"
 width="96.000000pt" height="84.000000pt" viewBox="0 0 96.000000 84.000000"
 preserveAspectRatio="xMidYMid meet">
<metadata>
Created by potrace 1.16, written by Peter Selinger 2001-2019
</metadata>
<g transform="translate(0.000000,84.000000) scale(0.100000,-0.100000)"
fill="#000000" stroke="none">
<path d="M0 420 l0 -420 60 0 60 0 0 420 0 420 -60 0 -60 0 0 -420z"/>
<path d="M426 813 c3 -16 10 -44 15 -63 5 -19 9 -63 9 -97 0 -70 -8 -77 -80
-72 -48 4 -76 -24 -62 -62 l9 -23 18 28 c18 27 21 28 74 21 31 -4 60 -10 64
-14 15 -15 -5 -39 -38 -45 -18 -4 -38 -13 -45 -21 -10 -12 -8 -19 11 -35 13
-10 31 -19 40 -20 9 0 27 -17 40 -37 40 -63 63 -55 73 25 4 39 1 36 50 56 32
13 37 18 26 31 -7 8 -23 15 -35 15 -19 0 -22 4 -18 21 3 11 17 26 31 32 21 10
27 8 46 -16 12 -15 30 -27 40 -27 14 0 16 3 8 13 -6 6 -12 26 -14 42 -3 26 -8
31 -38 35 -34 5 -35 6 -32 46 4 53 -17 74 -51 51 -21 -14 -23 -13 -22 7 1 11
5 30 10 41 23 56 35 88 35 91 0 2 -38 4 -85 4 l-85 0 6 -27z"/>
<path d="M840 420 l0 -420 60 0 60 0 0 420 0 420 -60 0 -60 0 0 -420z"/>
</g>
</svg>
