<?xml version="1.0" standalone="no"?>
<!DOCTYPE svg PUBLIC "-//W3C//DTD SVG 20010904//EN"
 "http://www.w3.org/TR/2001/REC-SVG-20010904/DTD/svg10.dtd">
<svg version="1.0" xmlns="http://www.w3.org/2000/svg"
 width="96.000000pt" height="84.000000pt" viewBox="0 0 96.000000 84.000000"
 preserveAspectRatio="xMidYMid meet">
<metadata>
Created by potrace 1.16, written by Peter Selinger 2001-2019
</metadata>
<g transform="translate(0.000000,84.000000) scale(0.100000,-0.100000)"
fill="#000000" stroke="none">
<path d="M0 420 l0 -420 40 0 40 0 0 420 0 420 -40 0 -40 0 0 -420z"/>
<path d="M434 823 c12 -43 17 -126 11 -164 -6 -37 -9 -40 -32 -34 -18 4 -29 0
-43 -17 -11 -15 -15 -27 -9 -34 5 -6 6 -14 2 -17 -3 -4 -2 -7 4 -7 6 0 16 7
23 15 18 21 55 15 55 -8 0 -10 8 -25 19 -32 23 -18 14 -32 -35 -52 -26 -10
-41 -23 -45 -39 -8 -32 0 -41 45 -49 29 -5 47 -16 66 -41 27 -35 55 -43 72
-21 16 19 25 67 13 67 -25 0 -6 31 35 54 25 15 45 31 45 37 0 5 -13 15 -30 20
-16 6 -30 15 -30 20 0 15 23 59 31 59 5 0 13 10 20 21 7 14 7 19 0 15 -6 -4
-4 9 4 28 20 48 19 69 -6 84 -19 12 -24 10 -50 -14 -30 -29 -36 -27 -19 7 16
29 0 23 -32 -13 -35 -40 -37 -18 -4 43 13 24 27 54 31 67 6 21 4 22 -70 22
-68 0 -76 -2 -71 -17z"/>
<path d="M880 420 l0 -420 40 0 40 0 0 420 0 420 -40 0 -40 0 0 -420z"/>
</g>
</svg>
