<?xml version="1.0" standalone="no"?>
<!DOCTYPE svg PUBLIC "-//W3C//DTD SVG 20010904//EN"
 "http://www.w3.org/TR/2001/REC-SVG-20010904/DTD/svg10.dtd">
<svg version="1.0" xmlns="http://www.w3.org/2000/svg"
 width="96.000000pt" height="84.000000pt" viewBox="0 0 96.000000 84.000000"
 preserveAspectRatio="xMidYMid meet">
<metadata>
Created by potrace 1.16, written by Peter Selinger 2001-2019
</metadata>
<g transform="translate(0.000000,84.000000) scale(0.100000,-0.100000)"
fill="#000000" stroke="none">
<path d="M0 420 c0 -413 0 -420 20 -420 20 0 20 7 20 420 0 413 0 420 -20 420
-20 0 -20 -7 -20 -420z"/>
<path d="M435 733 c3 -60 8 -124 10 -143 6 -49 -24 -80 -72 -73 -30 5 -35 3
-31 -13 3 -17 27 -28 97 -43 2 -1 -11 -14 -29 -31 -21 -19 -30 -37 -28 -52 3
-19 9 -22 49 -23 39 0 52 -6 78 -33 37 -41 69 -40 90 3 8 17 18 39 24 49 8 16
6 18 -12 13 -20 -5 -22 -2 -25 22 -1 5 18 23 41 40 46 33 48 55 7 65 -32 8
-30 31 4 63 15 14 26 29 25 34 -2 5 6 23 17 41 23 38 25 60 9 86 -12 19 -59
19 -59 1 0 -4 -8 -13 -19 -18 -16 -9 -18 -7 -14 17 l5 27 -21 -30 c-13 -18
-21 -24 -22 -15 0 8 -7 -1 -16 -20 -13 -30 -16 -32 -25 -17 -7 13 -4 27 12 54
11 19 27 51 35 69 l14 34 -74 0 -75 0 5 -107z m45 -242 c-11 -21 -30 -37 -30
-25 0 8 30 44 37 44 2 0 -1 -9 -7 -19z"/>
<path d="M920 420 c0 -413 0 -420 20 -420 20 0 20 7 20 420 0 413 0 420 -20
420 -20 0 -20 -7 -20 -420z"/>
</g>
</svg>
