<?xml version="1.0" standalone="no"?>
<!DOCTYPE svg PUBLIC "-//W3C//DTD SVG 20010904//EN"
 "http://www.w3.org/TR/2001/REC-SVG-20010904/DTD/svg10.dtd">
<svg version="1.0" xmlns="http://www.w3.org/2000/svg"
 width="96.000000pt" height="84.000000pt" viewBox="0 0 96.000000 84.000000"
 preserveAspectRatio="xMidYMid meet">
<metadata>
Created by potrace 1.16, written by Peter Selinger 2001-2019
</metadata>
<g transform="translate(0.000000,84.000000) scale(0.100000,-0.100000)"
fill="#000000" stroke="none">
<path d="M426 778 c4 -35 8 -98 9 -141 0 -74 -1 -80 -26 -94 -15 -9 -38 -42
-55 -77 -23 -49 -33 -61 -51 -59 -25 3 -45 -18 -34 -35 6 -10 18 -10 58 -1 47
11 52 15 71 60 15 36 29 53 56 65 40 20 57 13 32 -11 -9 -9 -16 -21 -16 -26 0
-5 -18 -26 -40 -46 -28 -24 -40 -43 -38 -57 3 -19 9 -21 53 -18 43 3 54 0 74
-22 35 -37 87 -36 102 2 6 15 17 40 25 56 15 30 17 30 -30 10 -9 -3 -16 2 -18
13 -3 11 11 34 36 61 39 41 40 44 23 57 -11 7 -25 11 -33 8 -26 -10 -15 32 16
62 16 16 28 31 25 33 -3 3 1 15 8 26 41 63 36 132 -8 116 -11 -4 -30 -4 -42 1
-19 7 -23 5 -23 -11 0 -10 -4 -22 -10 -25 -6 -4 -8 7 -4 27 l5 33 -16 -27 c-8
-16 -18 -28 -21 -28 -6 0 2 57 12 93 5 15 -3 17 -72 17 l-77 0 9 -62z"/>
</g>
</svg>
