<?xml version="1.0" standalone="no"?>
<!DOCTYPE svg PUBLIC "-//W3C//DTD SVG 20010904//EN"
 "http://www.w3.org/TR/2001/REC-SVG-20010904/DTD/svg10.dtd">
<svg version="1.0" xmlns="http://www.w3.org/2000/svg"
 width="96.000000pt" height="84.000000pt" viewBox="0 0 96.000000 84.000000"
 preserveAspectRatio="xMidYMid meet">
<metadata>
Created by potrace 1.16, written by Peter Selinger 2001-2019
</metadata>
<g transform="translate(0.000000,84.000000) scale(0.100000,-0.100000)"
fill="#000000" stroke="none">
<path d="M414 803 c15 -77 23 -248 13 -252 -6 -2 -29 -21 -51 -42 -30 -27 -47
-55 -64 -106 -26 -74 -39 -96 -53 -87 -13 8 -23 -26 -12 -37 7 -7 22 0 46 20
19 17 39 31 44 31 5 0 14 21 21 46 7 25 24 56 40 70 15 13 36 33 48 44 22 21
54 27 54 11 0 -6 -4 -13 -10 -16 -5 -3 -10 -15 -10 -26 0 -10 -12 -29 -26 -42
-30 -25 -58 -83 -48 -98 3 -6 16 -8 28 -4 48 15 80 11 115 -12 52 -35 111 -14
111 39 0 11 7 33 16 50 l17 32 -26 -17 c-34 -22 -44 -21 -52 3 -4 14 5 34 30
67 32 42 34 48 20 62 -12 12 -17 13 -27 3 -35 -35 -38 9 -3 60 34 50 58 115
59 163 1 37 -1 40 -24 37 -14 -1 -31 -11 -39 -22 -20 -29 -28 -25 -25 13 2 17
1 24 -2 15 -8 -27 -22 -21 -16 7 l4 25 -92 0 -93 0 7 -37z m123 -65 c-3 -8 -6
-5 -6 6 -1 11 2 17 5 13 3 -3 4 -12 1 -19z"/>
</g>
</svg>
