<?xml version="1.0" standalone="no"?>
<!DOCTYPE svg PUBLIC "-//W3C//DTD SVG 20010904//EN"
 "http://www.w3.org/TR/2001/REC-SVG-20010904/DTD/svg10.dtd">
<svg version="1.0" xmlns="http://www.w3.org/2000/svg"
 width="96.000000pt" height="84.000000pt" viewBox="0 0 96.000000 84.000000"
 preserveAspectRatio="xMidYMid meet">
<metadata>
Created by potrace 1.16, written by Peter Selinger 2001-2019
</metadata>
<g transform="translate(0.000000,84.000000) scale(0.100000,-0.100000)"
fill="#000000" stroke="none">
<path d="M415 783 c19 -84 26 -223 12 -223 -7 0 -32 -19 -56 -42 -32 -31 -50
-59 -67 -107 -13 -36 -24 -74 -24 -83 0 -10 -13 -27 -30 -40 -33 -24 -38 -43
-14 -52 29 -11 99 72 114 134 7 29 21 59 30 67 10 8 32 28 50 44 31 28 62 49
74 49 3 0 6 -9 6 -20 0 -11 -4 -20 -10 -20 -5 0 -10 -14 -10 -31 0 -21 -10
-43 -30 -65 -32 -37 -46 -75 -36 -99 5 -14 9 -14 33 -1 42 21 85 22 126 3 68
-33 126 3 127 76 0 16 5 37 11 49 16 30 5 32 -29 3 -30 -25 -31 -25 -41 -6
-16 28 -14 35 19 88 17 26 30 52 30 59 0 20 -32 25 -51 8 -32 -29 -34 8 -3 67
15 30 35 86 44 124 l17 70 -35 3 c-22 2 -41 -3 -53 -14 -17 -16 -19 -16 -19
-1 0 15 -14 17 -99 17 l-99 0 13 -57z m125 0 c0 -19 -3 -24 -10 -17 -6 6 -8
18 -4 27 9 24 14 21 14 -10z"/>
</g>
</svg>
