<?xml version="1.0" standalone="no"?>
<!DOCTYPE svg PUBLIC "-//W3C//DTD SVG 20010904//EN"
 "http://www.w3.org/TR/2001/REC-SVG-20010904/DTD/svg10.dtd">
<svg version="1.0" xmlns="http://www.w3.org/2000/svg"
 width="96.000000pt" height="84.000000pt" viewBox="0 0 96.000000 84.000000"
 preserveAspectRatio="xMidYMid meet">
<metadata>
Created by potrace 1.16, written by Peter Selinger 2001-2019
</metadata>
<g transform="translate(0.000000,84.000000) scale(0.100000,-0.100000)"
fill="#000000" stroke="none">
<path d="M0 420 l0 -420 480 0 480 0 0 420 0 420 -480 0 -480 0 0 -420z m444
189 c-3 -5 -1 -9 5 -9 5 0 13 5 16 10 10 16 51 12 66 -7 12 -15 12 -16 -3 -10
-26 9 -22 -10 7 -37 16 -15 24 -32 22 -52 -2 -23 2 -30 21 -32 12 -2 20 -8 17
-13 -4 -5 15 -9 41 -9 71 0 112 -48 66 -77 -14 -8 -31 -8 -72 3 -69 18 -80 18
-80 -1 0 -8 -7 -15 -15 -15 -8 0 -15 7 -15 15 0 10 -11 15 -35 15 -19 0 -35 4
-35 9 0 5 -16 11 -35 13 -27 3 -34 1 -31 -9 4 -10 1 -11 -12 -5 -9 5 -34 12
-54 16 -21 4 -40 12 -44 18 -5 8 17 9 79 4 l87 -7 12 27 c10 21 9 31 -4 55 -9
16 -13 31 -8 34 5 3 13 -3 19 -12 10 -17 10 -17 11 -1 0 10 -13 27 -29 39 -29
22 -34 63 -5 52 8 -3 11 -9 8 -14z"/>
<path d="M520 499 c0 -5 5 -7 10 -4 6 3 10 8 10 11 0 2 -4 4 -10 4 -5 0 -10
-5 -10 -11z"/>
<path d="M470 471 c0 -5 -3 -18 -7 -28 -6 -16 -5 -16 10 -4 19 15 23 41 7 41
-5 0 -10 -4 -10 -9z"/>
</g>
</svg>
