<?xml version="1.0" standalone="no"?>
<!DOCTYPE svg PUBLIC "-//W3C//DTD SVG 20010904//EN"
 "http://www.w3.org/TR/2001/REC-SVG-20010904/DTD/svg10.dtd">
<svg version="1.0" xmlns="http://www.w3.org/2000/svg"
 width="96.000000pt" height="84.000000pt" viewBox="0 0 96.000000 84.000000"
 preserveAspectRatio="xMidYMid meet">
<metadata>
Created by potrace 1.16, written by Peter Selinger 2001-2019
</metadata>
<g transform="translate(0.000000,84.000000) scale(0.100000,-0.100000)"
fill="#000000" stroke="none">
<path d="M416 763 c3 -43 10 -98 15 -123 10 -42 9 -46 -14 -65 -71 -58 -110
-136 -142 -289 -6 -25 -24 -46 -41 -46 -18 0 -18 -38 1 -56 13 -13 19 -9 50
35 20 27 40 51 46 53 5 2 17 35 26 73 12 53 24 80 52 111 20 23 43 51 51 62
22 30 54 33 58 5 2 -13 -2 -23 -8 -23 -7 0 -11 -14 -8 -37 2 -28 -6 -56 -30
-104 -43 -85 -30 -129 23 -79 22 21 70 25 160 14 42 -5 55 -2 78 16 23 18 27
29 27 71 0 27 7 65 15 84 13 33 13 35 -4 26 -10 -6 -26 -22 -35 -36 -21 -31
-31 -32 -52 0 -16 24 -15 29 13 99 29 69 29 74 13 84 -15 9 -21 7 -34 -13 -41
-62 -49 0 -11 76 14 27 30 70 34 94 l8 45 -78 0 c-65 0 -78 -3 -82 -17 -4 -17
-5 -17 -6 0 -1 14 -11 17 -66 17 l-65 0 6 -77z"/>
</g>
</svg>
