<?xml version="1.0" standalone="no"?>
<!DOCTYPE svg PUBLIC "-//W3C//DTD SVG 20010904//EN"
 "http://www.w3.org/TR/2001/REC-SVG-20010904/DTD/svg10.dtd">
<svg version="1.0" xmlns="http://www.w3.org/2000/svg"
 width="96.000000pt" height="84.000000pt" viewBox="0 0 96.000000 84.000000"
 preserveAspectRatio="xMidYMid meet">
<metadata>
Created by potrace 1.16, written by Peter Selinger 2001-2019
</metadata>
<g transform="translate(0.000000,84.000000) scale(0.100000,-0.100000)"
fill="#000000" stroke="none">
<path d="M414 813 c3 -16 8 -55 11 -88 4 -33 8 -72 11 -86 4 -20 -3 -36 -24
-60 -47 -55 -92 -149 -102 -216 -14 -89 -32 -136 -55 -148 -12 -6 -20 -21 -21
-38 -1 -22 2 -26 17 -22 15 5 18 2 13 -12 -9 -27 32 24 51 65 9 17 22 32 29
32 7 0 17 28 25 74 8 48 21 89 38 113 14 21 32 53 40 70 14 36 56 69 73 58 13
-8 13 -42 -1 -51 -7 -4 -9 -23 -5 -51 4 -32 1 -55 -14 -86 -32 -69 -40 -104
-26 -117 10 -7 21 -4 42 12 15 13 44 30 63 39 30 13 41 13 74 2 28 -10 48 -11
76 -3 61 16 74 38 76 127 0 43 5 87 9 98 6 16 4 15 -16 -5 -12 -14 -30 -37
-40 -50 l-16 -25 -28 27 -27 27 22 76 c13 42 20 82 17 90 -9 25 -35 17 -51
-15 -16 -31 -35 -32 -35 -2 0 10 13 49 30 87 47 111 53 105 -116 105 l-146 0
6 -27z"/>
</g>
</svg>
