<?xml version="1.0" standalone="no"?>
<!DOCTYPE svg PUBLIC "-//W3C//DTD SVG 20010904//EN"
 "http://www.w3.org/TR/2001/REC-SVG-20010904/DTD/svg10.dtd">
<svg version="1.0" xmlns="http://www.w3.org/2000/svg"
 width="96.000000pt" height="84.000000pt" viewBox="0 0 96.000000 84.000000"
 preserveAspectRatio="xMidYMid meet">
<metadata>
Created by potrace 1.16, written by Peter Selinger 2001-2019
</metadata>
<g transform="translate(0.000000,84.000000) scale(0.100000,-0.100000)"
fill="#000000" stroke="none">
<path d="M414 823 c11 -39 27 -187 22 -208 -3 -12 -18 -37 -33 -57 -44 -55
-80 -146 -94 -233 -9 -56 -19 -86 -34 -101 -22 -22 -29 -54 -13 -54 5 0 6 -4
3 -10 -3 -5 -1 -10 4 -10 6 0 11 5 11 10 0 6 5 10 10 10 7 0 7 -6 0 -20 -7
-13 -7 -20 -1 -20 6 0 13 11 17 25 3 13 12 29 20 36 8 6 14 19 14 29 0 10 7
20 15 24 9 3 15 18 15 38 1 55 20 121 45 153 13 17 30 47 38 67 14 33 42 58
65 58 16 0 21 -39 6 -51 -8 -6 -11 -21 -8 -38 4 -16 -1 -41 -10 -58 -37 -72
-45 -173 -13 -173 7 0 26 13 41 29 16 16 39 32 52 35 13 4 24 11 24 16 0 6 16
4 36 -5 46 -19 77 -19 114 0 49 25 61 52 54 120 -3 34 -1 72 5 88 16 41 -1 32
-38 -19 l-33 -47 -29 29 c-29 29 -29 31 -16 69 8 22 17 61 21 86 6 38 4 48 -9
53 -19 7 -62 -19 -68 -42 -4 -13 -5 -13 -6 3 -1 11 11 55 26 97 15 42 24 80
20 85 -5 4 -12 1 -17 -7 -7 -10 -10 -11 -10 -2 0 9 -32 12 -126 12 -115 0
-125 -1 -120 -17z"/>
<path d="M940 420 c0 -273 3 -420 10 -420 7 0 10 147 10 420 0 273 -3 420 -10
420 -7 0 -10 -147 -10 -420z"/>
</g>
</svg>
