<?xml version="1.0" standalone="no"?>
<!DOCTYPE svg PUBLIC "-//W3C//DTD SVG 20010904//EN"
 "http://www.w3.org/TR/2001/REC-SVG-20010904/DTD/svg10.dtd">
<svg version="1.0" xmlns="http://www.w3.org/2000/svg"
 width="96.000000pt" height="84.000000pt" viewBox="0 0 96.000000 84.000000"
 preserveAspectRatio="xMidYMid meet">
<metadata>
Created by potrace 1.16, written by Peter Selinger 2001-2019
</metadata>
<g transform="translate(0.000000,84.000000) scale(0.100000,-0.100000)"
fill="#000000" stroke="none">
<path d="M410 828 c0 -7 7 -51 15 -97 16 -93 13 -122 -19 -166 -46 -63 -83
-150 -90 -210 -11 -112 -16 -130 -39 -147 -12 -10 -16 -18 -9 -18 7 0 10 -4 7
-10 -3 -5 -2 -17 3 -26 8 -14 11 -14 26 7 l17 24 -7 -30 c-9 -42 9 -20 25 30
7 22 16 49 21 60 4 11 13 49 18 85 6 43 21 84 43 120 18 30 39 65 46 77 7 12
22 27 33 33 16 9 22 8 27 -6 3 -9 1 -25 -5 -35 -7 -10 -12 -26 -12 -34 0 -9
-9 -34 -20 -56 -24 -46 -31 -152 -12 -171 9 -9 19 -5 45 20 18 18 40 32 48 32
8 0 20 5 26 11 8 8 24 8 61 0 40 -10 56 -10 83 2 55 23 64 41 65 131 0 45 4
90 8 101 6 15 2 13 -16 -7 -12 -15 -31 -39 -42 -53 l-18 -27 -25 25 -25 24 18
83 c17 80 17 83 -1 96 -10 8 -27 12 -37 8 -22 -7 -22 -10 2 54 33 86 39 82
-120 82 -105 0 -140 -3 -140 -12z"/>
<path d="M920 420 c0 -413 0 -420 20 -420 20 0 20 7 20 420 0 413 0 420 -20
420 -20 0 -20 -7 -20 -420z"/>
</g>
</svg>
