<?xml version="1.0" standalone="no"?>
<!DOCTYPE svg PUBLIC "-//W3C//DTD SVG 20010904//EN"
 "http://www.w3.org/TR/2001/REC-SVG-20010904/DTD/svg10.dtd">
<svg version="1.0" xmlns="http://www.w3.org/2000/svg"
 width="96.000000pt" height="84.000000pt" viewBox="0 0 96.000000 84.000000"
 preserveAspectRatio="xMidYMid meet">
<metadata>
Created by potrace 1.16, written by Peter Selinger 2001-2019
</metadata>
<g transform="translate(0.000000,84.000000) scale(0.100000,-0.100000)"
fill="#000000" stroke="none">
<path d="M394 798 c4 -24 9 -78 13 -121 5 -69 3 -81 -14 -105 -46 -62 -81
-164 -88 -257 -5 -61 -12 -96 -23 -109 -12 -13 -12 -17 -3 -11 11 6 13 4 7
-10 -6 -16 -4 -16 10 -4 15 12 16 11 10 -11 l-7 -25 15 25 14 25 5 -30 c4 -27
4 -26 6 8 0 20 6 37 12 37 5 0 7 4 4 10 -13 20 24 178 56 241 33 65 66 109 81
109 11 0 10 -26 -1 -48 -50 -91 -66 -170 -45 -219 16 -39 36 -42 62 -9 28 36
86 58 120 45 37 -14 84 -3 116 26 24 23 27 31 25 92 -1 38 1 78 5 91 12 36
-11 26 -39 -18 -29 -45 -35 -48 -59 -21 -17 18 -17 23 -2 74 22 76 21 104 -6
118 -13 6 -24 13 -26 14 -1 1 7 22 18 46 36 81 39 79 -126 79 l-147 0 7 -42z"/>
<path d="M900 420 l0 -420 30 0 30 0 0 420 0 420 -30 0 -30 0 0 -420z"/>
</g>
</svg>
