<?xml version="1.0" standalone="no"?>
<!DOCTYPE svg PUBLIC "-//W3C//DTD SVG 20010904//EN"
 "http://www.w3.org/TR/2001/REC-SVG-20010904/DTD/svg10.dtd">
<svg version="1.0" xmlns="http://www.w3.org/2000/svg"
 width="96.000000pt" height="84.000000pt" viewBox="0 0 96.000000 84.000000"
 preserveAspectRatio="xMidYMid meet">
<metadata>
Created by potrace 1.16, written by Peter Selinger 2001-2019
</metadata>
<g transform="translate(0.000000,84.000000) scale(0.100000,-0.100000)"
fill="#000000" stroke="none">
<path d="M356 758 c20 -125 18 -150 -22 -236 -38 -79 -66 -207 -57 -255 3 -15
0 -34 -7 -42 -8 -10 -9 -15 -2 -15 7 0 9 -7 5 -17 -4 -11 -3 -14 5 -9 7 4 12
2 12 -6 1 -8 6 -6 15 6 15 20 15 20 16 0 1 -10 5 -3 8 16 4 19 4 40 0 45 -12
17 19 157 47 215 48 97 52 104 65 109 8 2 7 -6 -4 -25 -45 -84 -57 -153 -36
-213 13 -38 42 -41 65 -7 18 29 60 41 129 37 42 -2 55 2 78 23 24 23 27 32 27
95 0 38 3 78 6 88 3 10 -12 -1 -33 -25 -36 -39 -40 -41 -55 -26 -14 15 -15 21
-2 57 21 60 19 118 -6 124 -22 6 -25 14 -11 29 7 7 41 99 41 111 0 2 -67 3
-149 3 l-148 0 13 -82z"/>
<path d="M880 420 l0 -420 40 0 40 0 0 420 0 420 -40 0 -40 0 0 -420z"/>
</g>
</svg>
