<?xml version="1.0" standalone="no"?>
<!DOCTYPE svg PUBLIC "-//W3C//DTD SVG 20010904//EN"
 "http://www.w3.org/TR/2001/REC-SVG-20010904/DTD/svg10.dtd">
<svg version="1.0" xmlns="http://www.w3.org/2000/svg"
 width="96.000000pt" height="84.000000pt" viewBox="0 0 96.000000 84.000000"
 preserveAspectRatio="xMidYMid meet">
<metadata>
Created by potrace 1.16, written by Peter Selinger 2001-2019
</metadata>
<g transform="translate(0.000000,84.000000) scale(0.100000,-0.100000)"
fill="#000000" stroke="none">
<path d="M290 815 c15 -41 24 -233 12 -258 -63 -128 -88 -302 -49 -341 16 -17
17 -16 18 1 0 10 3 13 6 6 11 -28 20 -11 13 23 -10 42 6 157 26 194 13 24 13
23 14 -23 0 -87 30 -109 81 -61 23 22 38 27 86 28 38 1 69 7 86 19 25 16 27
23 27 81 0 36 3 71 6 80 12 30 -14 16 -37 -20 -18 -30 -24 -33 -35 -22 -11 11
-11 20 1 53 20 55 18 82 -5 105 -23 23 -25 45 -5 80 8 14 14 37 15 53 l0 27
-135 0 -135 0 10 -25z"/>
<path d="M840 420 l0 -420 60 0 60 0 0 420 0 420 -60 0 -60 0 0 -420z"/>
</g>
</svg>
