<?xml version="1.0" standalone="no"?>
<!DOCTYPE svg PUBLIC "-//W3C//DTD SVG 20010904//EN"
 "http://www.w3.org/TR/2001/REC-SVG-20010904/DTD/svg10.dtd">
<svg version="1.0" xmlns="http://www.w3.org/2000/svg"
 width="96.000000pt" height="84.000000pt" viewBox="0 0 96.000000 84.000000"
 preserveAspectRatio="xMidYMid meet">
<metadata>
Created by potrace 1.16, written by Peter Selinger 2001-2019
</metadata>
<g transform="translate(0.000000,84.000000) scale(0.100000,-0.100000)"
fill="#000000" stroke="none">
<path d="M225 818 c4 -13 13 -70 21 -128 13 -104 13 -105 -13 -170 -35 -88
-54 -180 -41 -203 6 -12 6 -23 -1 -31 -8 -10 -6 -18 9 -31 12 -11 20 -14 20
-6 0 7 5 9 12 5 8 -5 9 3 5 30 -3 21 -1 63 4 94 12 64 29 92 29 48 0 -63 35
-83 77 -44 16 15 38 22 74 24 82 5 97 20 101 104 2 38 0 70 -3 70 -3 0 -15
-14 -28 -31 -13 -17 -25 -28 -28 -25 -3 3 0 27 7 55 14 57 7 87 -20 96 -12 4
-18 13 -16 23 1 9 6 34 11 54 4 21 4 49 1 63 -6 25 -7 25 -117 25 -111 0 -111
0 -104 -22z"/>
<path d="M800 420 l0 -420 80 0 80 0 0 420 0 420 -80 0 -80 0 0 -420z"/>
</g>
</svg>
