<?xml version="1.0" standalone="no"?>
<!DOCTYPE svg PUBLIC "-//W3C//DTD SVG 20010904//EN"
 "http://www.w3.org/TR/2001/REC-SVG-20010904/DTD/svg10.dtd">
<svg version="1.0" xmlns="http://www.w3.org/2000/svg"
 width="96.000000pt" height="84.000000pt" viewBox="0 0 96.000000 84.000000"
 preserveAspectRatio="xMidYMid meet">
<metadata>
Created by potrace 1.16, written by Peter Selinger 2001-2019
</metadata>
<g transform="translate(0.000000,84.000000) scale(0.100000,-0.100000)"
fill="#000000" stroke="none">
<path d="M130 830 c0 -6 7 -27 15 -47 8 -19 15 -61 15 -92 -1 -55 -2 -57 -46
-89 -25 -19 -43 -39 -40 -45 3 -7 12 -35 20 -62 19 -60 55 -83 101 -65 22 8
31 7 45 -5 20 -18 74 -20 87 -2 13 17 33 87 24 87 -4 0 -12 -5 -19 -12 -22
-22 -24 1 -2 31 26 37 23 72 -7 86 -17 7 -21 15 -16 33 11 45 7 97 -10 131 -9
19 -17 40 -17 48 0 10 -19 13 -75 13 -45 0 -75 -4 -75 -10z m37 -287 c-27 -29
-33 -32 -36 -17 -2 11 8 27 25 40 41 33 49 19 11 -23z"/>
<path d="M710 420 l0 -420 85 0 c79 0 86 2 101 25 14 21 14 37 6 117 -6 51 -8
95 -6 97 2 2 10 -1 17 -8 8 -6 22 -9 31 -5 14 5 16 39 16 310 l0 304 -125 0
-125 0 0 -420z"/>
</g>
</svg>
