<?xml version="1.0" standalone="no"?>
<!DOCTYPE svg PUBLIC "-//W3C//DTD SVG 20010904//EN"
 "http://www.w3.org/TR/2001/REC-SVG-20010904/DTD/svg10.dtd">
<svg version="1.0" xmlns="http://www.w3.org/2000/svg"
 width="96.000000pt" height="84.000000pt" viewBox="0 0 96.000000 84.000000"
 preserveAspectRatio="xMidYMid meet">
<metadata>
Created by potrace 1.16, written by Peter Selinger 2001-2019
</metadata>
<g transform="translate(0.000000,84.000000) scale(0.100000,-0.100000)"
fill="#000000" stroke="none">
<path d="M0 420 l0 -420 480 0 480 0 0 420 0 420 -480 0 -480 0 0 -420z m478
201 c19 12 24 11 44 -9 18 -18 19 -21 6 -16 -28 10 -21 -7 15 -37 34 -28 33
-39 -2 -42 -11 -1 -21 -8 -21 -15 0 -12 3 -12 16 -2 13 11 16 10 21 -8 4 -15
13 -22 30 -22 16 0 22 -4 17 -12 -5 -8 2 -9 23 -5 43 9 67 -1 86 -33 16 -27
16 -28 -8 -44 -17 -11 -31 -13 -47 -7 -34 13 -93 31 -101 31 -4 0 -7 -8 -7
-18 0 -10 -7 -19 -15 -19 -8 0 -15 6 -15 14 0 8 -12 13 -29 13 -16 0 -31 4
-33 9 -1 4 -20 11 -41 15 -29 5 -37 4 -32 -4 5 -9 1 -10 -16 -5 -13 5 -31 8
-39 9 -19 1 -56 23 -50 29 3 2 38 0 79 -5 68 -9 76 -8 88 8 14 19 13 52 -2 87
-4 10 -3 17 3 17 6 0 12 -8 14 -17 2 -12 6 -14 11 -7 4 7 -6 24 -23 41 -21 21
-28 35 -23 51 5 20 7 21 17 6 11 -14 15 -15 34 -3z"/>
<path d="M471 462 c-7 -13 -11 -26 -8 -28 8 -8 29 25 25 38 -3 8 -9 4 -17 -10z"/>
</g>
</svg>
