<?xml version="1.0" standalone="no"?>
<!DOCTYPE svg PUBLIC "-//W3C//DTD SVG 20010904//EN"
 "http://www.w3.org/TR/2001/REC-SVG-20010904/DTD/svg10.dtd">
<svg version="1.0" xmlns="http://www.w3.org/2000/svg"
 width="96.000000pt" height="84.000000pt" viewBox="0 0 96.000000 84.000000"
 preserveAspectRatio="xMidYMid meet">
<metadata>
Created by potrace 1.16, written by Peter Selinger 2001-2019
</metadata>
<g transform="translate(0.000000,84.000000) scale(0.100000,-0.100000)"
fill="#000000" stroke="none">
<path d="M104 818 c3 -13 8 -47 11 -77 5 -47 4 -53 -9 -42 -11 10 -19 9 -35
-1 -17 -10 -20 -19 -15 -43 8 -39 13 -47 25 -39 5 3 7 14 4 25 -10 31 1 22 34
-25 33 -50 28 -62 -28 -68 -45 -4 -49 -22 -11 -45 18 -10 38 -33 45 -51 18
-42 38 -49 71 -23 22 17 24 22 10 27 -27 10 -18 34 19 50 34 14 40 34 9 34
-19 0 -18 9 5 45 26 44 32 94 13 133 -10 22 -18 29 -22 21 -5 -8 -10 -5 -15
10 -4 14 1 34 14 56 l20 35 -75 0 c-72 0 -74 -1 -70 -22z m78 -133 c-2 -14 -6
-25 -8 -25 -2 0 -4 11 -4 25 0 14 4 25 9 25 4 0 6 -11 3 -25z"/>
<path d="M620 420 l0 -420 95 0 95 0 0 55 c0 31 6 68 14 83 14 28 28 100 27
140 -1 17 5 22 25 22 28 0 65 -16 76 -34 4 -6 8 121 8 282 l0 292 -170 0 -170
0 0 -420z"/>
<path d="M943 211 c-7 -20 -8 -33 -1 -37 15 -9 20 1 16 36 l-3 33 -12 -32z"/>
</g>
</svg>
