<?xml version="1.0" standalone="no"?>
<!DOCTYPE svg PUBLIC "-//W3C//DTD SVG 20010904//EN"
 "http://www.w3.org/TR/2001/REC-SVG-20010904/DTD/svg10.dtd">
<svg version="1.0" xmlns="http://www.w3.org/2000/svg"
 width="96.000000pt" height="84.000000pt" viewBox="0 0 96.000000 84.000000"
 preserveAspectRatio="xMidYMid meet">
<metadata>
Created by potrace 1.16, written by Peter Selinger 2001-2019
</metadata>
<g transform="translate(0.000000,84.000000) scale(0.100000,-0.100000)"
fill="#000000" stroke="none">
<path d="M98 770 l5 -70 -27 0 c-14 0 -26 -6 -26 -12 0 -26 13 -58 22 -58 6 0
8 7 4 15 -12 32 10 13 31 -27 18 -32 20 -44 11 -55 -6 -8 -16 -12 -22 -10 -14
6 -56 -10 -56 -21 0 -4 13 -15 29 -25 16 -9 32 -28 35 -42 10 -38 41 -50 71
-27 20 16 22 21 10 26 -26 10 -17 36 15 42 34 7 38 18 13 33 -15 8 -15 13 11
49 28 41 47 122 29 122 -6 0 -22 -9 -37 -21 l-26 -20 0 47 c0 35 6 56 25 80
14 18 25 35 25 38 0 3 -33 6 -74 6 l-73 0 5 -70z m59 -102 c-3 -8 -6 -5 -6 6
-1 11 2 17 5 13 3 -3 4 -12 1 -19z"/>
<path d="M580 420 l0 -420 113 0 113 0 -4 34 c-3 23 -8 33 -17 30 -38 -15 -27
82 16 131 16 18 29 40 29 48 0 9 4 18 9 22 5 3 12 18 16 34 5 24 10 28 28 24
30 -8 57 -33 57 -52 0 -9 -7 -27 -16 -39 -15 -22 -15 -24 2 -37 10 -7 22 -11
26 -9 5 3 8 151 8 330 l0 324 -190 0 -190 0 0 -420z"/>
<path d="M952 95 c0 -16 2 -22 5 -12 2 9 2 23 0 30 -3 6 -5 -1 -5 -18z"/>
</g>
</svg>
