<?xml version="1.0" standalone="no"?>
<!DOCTYPE svg PUBLIC "-//W3C//DTD SVG 20010904//EN"
 "http://www.w3.org/TR/2001/REC-SVG-20010904/DTD/svg10.dtd">
<svg version="1.0" xmlns="http://www.w3.org/2000/svg"
 width="96.000000pt" height="84.000000pt" viewBox="0 0 96.000000 84.000000"
 preserveAspectRatio="xMidYMid meet">
<metadata>
Created by potrace 1.16, written by Peter Selinger 2001-2019
</metadata>
<g transform="translate(0.000000,84.000000) scale(0.100000,-0.100000)"
fill="#000000" stroke="none">
<path d="M88 765 c4 -72 3 -75 -18 -75 -18 0 -21 -4 -16 -22 3 -13 6 -29 6
-36 0 -7 4 -11 10 -7 5 3 7 12 3 20 -3 8 0 15 6 15 6 0 11 -10 11 -23 0 -12 7
-32 15 -43 17 -26 11 -34 -25 -34 -15 0 -33 -6 -39 -14 -10 -12 -6 -18 18 -32
17 -10 31 -26 31 -35 0 -9 9 -24 19 -33 18 -17 21 -17 47 1 22 14 25 19 11 21
-27 5 -20 29 13 41 27 9 29 13 19 29 -9 15 -6 27 20 67 17 27 31 57 31 66 0
21 -47 34 -66 18 -30 -24 -15 48 20 100 l35 51 -77 0 -77 0 3 -75z"/>
<path d="M540 420 l0 -421 148 3 c140 3 147 4 150 24 2 16 -2 20 -20 20 -22
-1 -23 2 -20 51 l3 53 -26 -12 c-19 -9 -28 -9 -37 0 -17 17 7 56 54 87 21 14
38 29 38 35 0 5 9 24 20 43 16 27 25 33 45 30 32 -7 44 -56 20 -83 -16 -18
-16 -21 6 -49 13 -16 27 -30 32 -30 4 -1 7 150 7 334 l0 335 -210 0 -210 0 0
-420z"/>
<path d="M930 83 c0 -21 3 -48 6 -60 12 -43 24 -23 24 37 0 47 -3 60 -15 60
-11 0 -15 -11 -15 -37z"/>
</g>
</svg>
