<?xml version="1.0" standalone="no"?>
<!DOCTYPE svg PUBLIC "-//W3C//DTD SVG 20010904//EN"
 "http://www.w3.org/TR/2001/REC-SVG-20010904/DTD/svg10.dtd">
<svg version="1.0" xmlns="http://www.w3.org/2000/svg"
 width="96.000000pt" height="84.000000pt" viewBox="0 0 96.000000 84.000000"
 preserveAspectRatio="xMidYMid meet">
<metadata>
Created by potrace 1.16, written by Peter Selinger 2001-2019
</metadata>
<g transform="translate(0.000000,84.000000) scale(0.100000,-0.100000)"
fill="#000000" stroke="none">
<path d="M84 760 c6 -68 5 -80 -8 -80 -21 0 -27 -15 -17 -42 7 -17 10 -18 10
-5 1 9 5 17 11 17 5 0 7 -7 4 -15 -4 -8 1 -26 9 -39 18 -27 13 -36 -18 -36
-13 0 -28 -6 -34 -14 -10 -12 -8 -17 7 -25 11 -6 29 -26 41 -46 23 -39 29 -41
57 -20 15 12 16 16 5 24 -18 11 -5 31 20 31 10 0 19 7 19 15 0 8 -5 15 -10 15
-6 0 3 25 20 56 35 67 37 84 10 84 -12 0 -20 7 -20 18 -1 11 -8 4 -21 -18 -16
-28 -19 -30 -15 -10 3 14 6 32 6 41 0 9 16 40 35 68 19 28 35 53 35 56 0 3
-34 5 -76 5 l-77 0 7 -80z"/>
<path d="M520 420 l0 -420 150 0 150 0 6 27 c3 16 8 36 11 46 4 16 2 17 -15 8
-28 -15 -32 -14 -32 8 0 11 -4 22 -10 26 -5 3 -7 12 -3 20 3 9 -1 15 -11 15
-31 0 -12 48 35 88 16 13 29 31 29 40 1 28 37 64 62 60 30 -4 37 -57 9 -77
-19 -14 -19 -15 6 -48 24 -31 50 -36 39 -7 -3 7 -1 16 4 19 6 4 10 128 10 311
l0 304 -220 0 -220 0 0 -420z"/>
<path d="M928 126 c-10 -7 -18 -24 -18 -38 0 -38 20 -88 36 -88 11 0 14 17 14
70 0 73 -3 78 -32 56z"/>
</g>
</svg>
