<?xml version="1.0" standalone="no"?>
<!DOCTYPE svg PUBLIC "-//W3C//DTD SVG 20010904//EN"
 "http://www.w3.org/TR/2001/REC-SVG-20010904/DTD/svg10.dtd">
<svg version="1.0" xmlns="http://www.w3.org/2000/svg"
 width="96.000000pt" height="84.000000pt" viewBox="0 0 96.000000 84.000000"
 preserveAspectRatio="xMidYMid meet">
<metadata>
Created by potrace 1.16, written by Peter Selinger 2001-2019
</metadata>
<g transform="translate(0.000000,84.000000) scale(0.100000,-0.100000)"
fill="#000000" stroke="none">
<path d="M76 778 c3 -35 7 -71 9 -82 2 -12 -3 -20 -16 -23 -20 -6 -23 -16 -9
-48 l9 -20 1 20 c0 12 6 5 15 -20 8 -22 15 -41 15 -42 0 -2 -9 -3 -19 -3 -48
0 -71 -32 -31 -43 11 -3 24 -17 30 -31 13 -35 32 -41 67 -22 26 14 26 15 6 16
-33 0 -28 19 8 32 28 9 29 12 15 26 -13 14 -13 18 5 44 24 33 36 93 21 102 -6
4 -23 -10 -37 -31 l-26 -38 6 50 c5 32 19 68 41 101 19 28 34 56 34 62 0 8
-24 12 -75 12 l-75 0 6 -62z"/>
<path d="M500 420 l0 -420 160 0 c146 0 160 2 160 18 0 9 3 34 7 56 6 37 5 38
-16 27 -21 -12 -26 -6 -22 27 1 6 -3 12 -9 12 -23 0 -3 55 68 187 10 17 17 20
34 14 26 -9 33 -47 13 -68 -14 -14 -14 -18 2 -46 17 -29 37 -38 39 -17 3 24 7
23 14 -5 4 -16 8 120 9 303 l1 332 -230 0 -230 0 0 -420z"/>
<path d="M927 129 c-28 -28 -28 -29 -15 -76 9 -30 20 -49 31 -51 15 -3 17 6
17 77 0 45 -1 80 -2 80 -2 -1 -16 -14 -31 -30z"/>
</g>
</svg>
