<?xml version="1.0" standalone="no"?>
<!DOCTYPE svg PUBLIC "-//W3C//DTD SVG 20010904//EN"
 "http://www.w3.org/TR/2001/REC-SVG-20010904/DTD/svg10.dtd">
<svg version="1.0" xmlns="http://www.w3.org/2000/svg"
 width="96.000000pt" height="84.000000pt" viewBox="0 0 96.000000 84.000000"
 preserveAspectRatio="xMidYMid meet">
<metadata>
Created by potrace 1.16, written by Peter Selinger 2001-2019
</metadata>
<g transform="translate(0.000000,84.000000) scale(0.100000,-0.100000)"
fill="#000000" stroke="none">
<path d="M76 750 c6 -80 5 -90 -10 -90 -17 0 -20 -17 -9 -46 6 -16 7 -16 14 2
7 18 8 17 8 -3 1 -12 6 -25 11 -28 14 -9 12 -25 -3 -25 -7 0 -23 -7 -35 -16
l-23 -16 28 -21 c15 -12 34 -29 41 -39 16 -22 21 -22 47 -2 17 13 18 16 5 24
-13 9 -11 13 10 30 19 15 22 22 13 31 -9 9 -8 18 7 37 20 25 28 92 11 92 -5 0
-19 -12 -31 -27 l-21 -28 5 43 c3 27 18 63 40 95 20 29 36 58 36 65 0 8 -22
12 -75 12 l-76 0 7 -90z"/>
<path d="M490 420 l0 -420 159 0 c179 0 164 -7 176 83 6 46 5 48 -13 38 -26
-14 -32 -5 -32 45 0 69 63 189 97 182 23 -4 29 -44 10 -66 -12 -15 -11 -22 9
-57 l23 -40 10 25 c5 14 10 18 11 10 0 -8 3 -24 6 -36 4 -14 -3 -31 -21 -52
-26 -31 -26 -34 -15 -82 9 -38 16 -50 31 -50 18 0 19 14 19 420 l0 420 -235 0
-235 0 0 -420z"/>
</g>
</svg>
