<?xml version="1.0" standalone="no"?>
<!DOCTYPE svg PUBLIC "-//W3C//DTD SVG 20010904//EN"
 "http://www.w3.org/TR/2001/REC-SVG-20010904/DTD/svg10.dtd">
<svg version="1.0" xmlns="http://www.w3.org/2000/svg"
 width="96.000000pt" height="84.000000pt" viewBox="0 0 96.000000 84.000000"
 preserveAspectRatio="xMidYMid meet">
<metadata>
Created by potrace 1.16, written by Peter Selinger 2001-2019
</metadata>
<g transform="translate(0.000000,84.000000) scale(0.100000,-0.100000)"
fill="#000000" stroke="none">
<path d="M75 751 c7 -79 5 -91 -9 -97 -9 -3 -16 -17 -16 -31 0 -13 4 -22 9
-18 5 3 17 -5 26 -17 15 -22 14 -24 -16 -49 -29 -24 -30 -26 -13 -34 10 -4 22
-8 26 -7 4 1 12 -7 18 -18 12 -23 45 -27 53 -6 3 7 0 19 -6 25 -9 9 -6 17 13
31 20 16 22 22 11 29 -12 7 -10 14 8 36 11 15 21 39 21 52 0 21 -4 24 -30 19
-41 -6 -40 18 6 84 50 72 45 84 -39 88 l-69 4 7 -91z"/>
<path d="M480 420 l0 -420 164 0 165 0 6 48 c4 26 9 55 12 65 4 15 1 18 -16
12 -16 -5 -21 -2 -21 13 0 11 -6 25 -14 31 -17 14 -6 63 20 92 9 10 23 33 32
51 21 41 57 50 65 16 4 -13 0 -29 -8 -38 -13 -14 -12 -21 3 -53 18 -39 32 -47
33 -19 0 14 2 14 9 -3 15 -34 11 -55 -14 -80 -23 -23 -24 -24 -8 -79 11 -42
20 -56 34 -56 17 0 18 19 18 420 l0 420 -240 0 -240 0 0 -420z"/>
</g>
</svg>
