<?xml version="1.0" standalone="no"?>
<!DOCTYPE svg PUBLIC "-//W3C//DTD SVG 20010904//EN"
 "http://www.w3.org/TR/2001/REC-SVG-20010904/DTD/svg10.dtd">
<svg version="1.0" xmlns="http://www.w3.org/2000/svg"
 width="96.000000pt" height="84.000000pt" viewBox="0 0 96.000000 84.000000"
 preserveAspectRatio="xMidYMid meet">
<metadata>
Created by potrace 1.16, written by Peter Selinger 2001-2019
</metadata>
<g transform="translate(0.000000,84.000000) scale(0.100000,-0.100000)"
fill="#000000" stroke="none">
<path d="M75 752 c6 -74 4 -90 -9 -101 -20 -17 -22 -63 -2 -55 8 3 19 -3 26
-15 9 -18 7 -25 -13 -45 -24 -24 -20 -46 9 -46 6 0 17 -7 24 -15 22 -27 43
-19 37 14 -5 21 -1 34 14 47 15 13 16 19 7 25 -10 6 -9 15 5 38 23 39 21 59
-5 63 -34 5 -32 29 7 86 19 28 35 58 35 65 0 14 -58 27 -117 27 l-25 0 7 -88z"/>
<path d="M480 420 l0 -420 164 0 164 0 7 43 c3 23 9 55 12 71 4 25 3 27 -13
18 -14 -8 -21 -3 -36 26 -20 41 -17 62 18 108 13 17 24 35 24 41 0 15 34 43
52 43 22 0 30 -41 13 -60 -13 -15 -13 -21 5 -56 16 -33 25 -38 21 -12 0 5 3 8
9 8 19 0 11 -76 -10 -95 -11 -10 -18 -25 -16 -34 3 -9 10 -35 16 -58 8 -32 16
-43 30 -43 20 0 20 9 20 420 l0 420 -240 0 -240 0 0 -420z"/>
</g>
</svg>
