<?xml version="1.0" standalone="no"?>
<!DOCTYPE svg PUBLIC "-//W3C//DTD SVG 20010904//EN"
 "http://www.w3.org/TR/2001/REC-SVG-20010904/DTD/svg10.dtd">
<svg version="1.0" xmlns="http://www.w3.org/2000/svg"
 width="96.000000pt" height="84.000000pt" viewBox="0 0 96.000000 84.000000"
 preserveAspectRatio="xMidYMid meet">
<metadata>
Created by potrace 1.16, written by Peter Selinger 2001-2019
</metadata>
<g transform="translate(0.000000,84.000000) scale(0.100000,-0.100000)"
fill="#000000" stroke="none">
<path d="M75 752 c6 -74 4 -90 -9 -101 -20 -17 -22 -63 -2 -55 8 3 19 -3 26
-15 9 -18 7 -25 -13 -45 -24 -24 -20 -46 9 -46 6 0 17 -7 24 -15 22 -27 43
-18 38 15 -3 21 1 35 14 47 14 12 15 19 6 24 -9 6 -9 17 1 50 12 40 11 44 -9
59 -20 15 -21 20 -10 41 7 13 24 37 37 53 42 50 19 72 -81 75 l-38 1 7 -88z"/>
<path d="M480 420 l0 -420 164 0 164 0 7 43 c3 23 9 55 12 70 5 27 3 28 -16
18 -18 -10 -21 -9 -21 10 0 12 -7 27 -15 33 -19 14 -4 75 25 101 11 10 20 23
20 30 0 16 33 45 52 45 22 0 30 -41 13 -60 -13 -15 -13 -21 5 -56 13 -27 19
-33 20 -19 0 17 2 17 10 5 15 -24 12 -52 -10 -75 -19 -20 -19 -25 -7 -81 11
-48 18 -60 35 -62 l22 -3 0 420 0 421 -240 0 -240 0 0 -420z"/>
</g>
</svg>
