<?xml version="1.0" standalone="no"?>
<!DOCTYPE svg PUBLIC "-//W3C//DTD SVG 20010904//EN"
 "http://www.w3.org/TR/2001/REC-SVG-20010904/DTD/svg10.dtd">
<svg version="1.0" xmlns="http://www.w3.org/2000/svg"
 width="96.000000pt" height="84.000000pt" viewBox="0 0 96.000000 84.000000"
 preserveAspectRatio="xMidYMid meet">
<metadata>
Created by potrace 1.16, written by Peter Selinger 2001-2019
</metadata>
<g transform="translate(0.000000,84.000000) scale(0.100000,-0.100000)"
fill="#000000" stroke="none">
<path d="M0 420 l0 -420 480 0 480 0 0 420 0 420 -480 0 -480 0 0 -420z m453
201 c-4 -14 3 -14 27 1 15 10 24 9 46 -2 26 -14 26 -15 6 -18 -22 -3 -31 -22
-11 -22 6 0 22 -9 37 -20 l25 -20 -31 -12 c-35 -13 -45 -33 -12 -23 14 5 20 2
20 -9 0 -9 9 -16 20 -16 11 0 23 -6 26 -13 3 -8 18 -11 44 -9 33 3 44 0 60
-19 56 -68 -16 -85 -142 -34 -14 5 -18 2 -18 -14 0 -12 -6 -21 -15 -21 -8 0
-15 7 -15 15 0 10 -10 15 -30 15 -16 0 -30 5 -30 10 0 6 -16 10 -36 10 -24 0
-33 -4 -28 -12 5 -8 2 -9 -11 -5 -10 4 -37 12 -61 18 -71 18 -51 30 40 23 82
-7 84 -6 92 17 10 30 6 62 -9 71 -9 5 -9 10 1 20 9 9 12 9 12 -5 0 -9 5 -17
10 -17 17 0 11 15 -19 44 -19 18 -27 34 -24 47 6 20 30 20 26 0z"/>
<path d="M472 466 c-15 -33 -11 -44 7 -22 7 8 11 23 9 32 -2 14 -6 11 -16 -10z"/>
</g>
</svg>
