<?xml version="1.0" standalone="no"?>
<!DOCTYPE svg PUBLIC "-//W3C//DTD SVG 20010904//EN"
 "http://www.w3.org/TR/2001/REC-SVG-20010904/DTD/svg10.dtd">
<svg version="1.0" xmlns="http://www.w3.org/2000/svg"
 width="96.000000pt" height="84.000000pt" viewBox="0 0 96.000000 84.000000"
 preserveAspectRatio="xMidYMid meet">
<metadata>
Created by potrace 1.16, written by Peter Selinger 2001-2019
</metadata>
<g transform="translate(0.000000,84.000000) scale(0.100000,-0.100000)"
fill="#000000" stroke="none">
<path d="M75 747 c5 -79 4 -95 -9 -106 -9 -8 -16 -25 -16 -38 0 -20 3 -23 13
-14 8 6 17 8 20 4 14 -13 6 -53 -12 -65 -15 -9 -17 -15 -9 -25 6 -7 16 -13 23
-13 7 0 18 -7 25 -15 22 -26 40 -18 40 19 0 18 7 39 15 46 12 10 13 15 4 21
-9 5 -9 17 -1 49 9 36 8 44 -9 61 -22 22 -17 39 28 93 42 50 19 72 -81 75
l-38 1 7 -93z"/>
<path d="M480 420 l0 -420 164 0 164 0 6 27 c17 89 18 118 5 105 -20 -19 -29
-15 -29 13 0 15 -5 24 -12 23 -25 -5 -19 47 9 84 15 20 36 50 45 67 20 37 41
40 56 7 8 -18 7 -27 -5 -38 -11 -12 -12 -20 -5 -34 6 -11 14 -28 17 -39 l7
-20 8 20 c6 17 8 15 15 -13 6 -27 3 -38 -15 -57 -20 -21 -21 -26 -9 -84 11
-53 16 -61 36 -61 l23 0 0 420 0 420 -240 0 -240 0 0 -420z"/>
</g>
</svg>
