<?xml version="1.0" standalone="no"?>
<!DOCTYPE svg PUBLIC "-//W3C//DTD SVG 20010904//EN"
 "http://www.w3.org/TR/2001/REC-SVG-20010904/DTD/svg10.dtd">
<svg version="1.0" xmlns="http://www.w3.org/2000/svg"
 width="96.000000pt" height="84.000000pt" viewBox="0 0 96.000000 84.000000"
 preserveAspectRatio="xMidYMid meet">
<metadata>
Created by potrace 1.16, written by Peter Selinger 2001-2019
</metadata>
<g transform="translate(0.000000,84.000000) scale(0.100000,-0.100000)"
fill="#000000" stroke="none">
<path d="M74 750 c5 -73 4 -95 -9 -112 -17 -25 -20 -58 -5 -58 6 0 10 5 10 11
0 5 5 7 10 4 18 -11 11 -52 -11 -67 -21 -13 -21 -14 7 -28 16 -8 33 -21 37
-27 16 -26 37 -14 37 21 0 18 7 39 15 46 12 10 13 15 4 21 -7 4 -9 14 -4 25
18 42 16 72 -5 87 -19 13 -20 18 -9 39 6 12 23 36 36 52 42 51 19 72 -81 75
l-39 1 7 -90z"/>
<path d="M480 420 l0 -420 164 0 164 0 11 31 c16 45 15 117 -1 101 -19 -19
-28 -14 -28 12 0 16 -7 27 -20 31 -28 9 -25 38 8 77 15 18 34 46 42 61 8 16
22 33 32 38 25 13 44 -32 26 -61 -10 -15 -10 -22 0 -32 6 -6 12 -22 12 -35 0
-13 4 -23 10 -23 5 0 7 7 4 15 -4 8 -3 15 0 15 4 0 11 -12 17 -27 8 -22 6 -32
-12 -56 -20 -27 -20 -32 -8 -88 11 -51 16 -59 36 -59 l23 0 0 420 0 420 -240
0 -240 0 0 -420z"/>
</g>
</svg>
