<?xml version="1.0" standalone="no"?>
<!DOCTYPE svg PUBLIC "-//W3C//DTD SVG 20010904//EN"
 "http://www.w3.org/TR/2001/REC-SVG-20010904/DTD/svg10.dtd">
<svg version="1.0" xmlns="http://www.w3.org/2000/svg"
 width="96.000000pt" height="84.000000pt" viewBox="0 0 96.000000 84.000000"
 preserveAspectRatio="xMidYMid meet">
<metadata>
Created by potrace 1.16, written by Peter Selinger 2001-2019
</metadata>
<g transform="translate(0.000000,84.000000) scale(0.100000,-0.100000)"
fill="#000000" stroke="none">
<path d="M73 749 c5 -70 4 -97 -8 -119 -20 -38 -19 -52 2 -48 26 5 29 -33 3
-52 l-21 -16 28 -14 c15 -8 33 -21 39 -29 15 -20 34 -5 34 26 0 15 7 35 17 45
14 16 14 18 1 18 -14 0 -14 5 0 43 17 47 11 83 -13 73 -25 -9 -17 19 21 74 19
28 33 57 31 64 -6 15 -52 26 -105 26 l-35 0 6 -91z"/>
<path d="M480 420 l0 -420 165 0 165 0 10 26 c6 14 10 46 10 71 0 37 -3 43
-13 34 -18 -14 -27 -4 -27 30 0 22 -4 26 -19 22 -41 -10 -33 43 12 78 11 9 22
27 24 40 4 28 20 44 49 53 18 6 22 2 22 -21 0 -16 -4 -35 -9 -44 -6 -11 -4
-21 6 -29 8 -7 16 -24 16 -39 1 -17 3 -20 6 -8 2 9 9 15 14 12 15 -10 10 -67
-7 -87 -15 -16 -15 -25 -4 -78 11 -53 16 -60 36 -60 l24 0 0 420 0 420 -240 0
-240 0 0 -420z"/>
</g>
</svg>
