<?xml version="1.0" standalone="no"?>
<!DOCTYPE svg PUBLIC "-//W3C//DTD SVG 20010904//EN"
 "http://www.w3.org/TR/2001/REC-SVG-20010904/DTD/svg10.dtd">
<svg version="1.0" xmlns="http://www.w3.org/2000/svg"
 width="96.000000pt" height="84.000000pt" viewBox="0 0 96.000000 84.000000"
 preserveAspectRatio="xMidYMid meet">
<metadata>
Created by potrace 1.16, written by Peter Selinger 2001-2019
</metadata>
<g transform="translate(0.000000,84.000000) scale(0.100000,-0.100000)"
fill="#000000" stroke="none">
<path d="M71 733 c1 -60 -1 -120 -6 -136 -6 -23 -5 -26 9 -21 12 4 16 0 16
-16 0 -13 -8 -24 -20 -27 -23 -6 -27 -23 -5 -23 8 0 15 -4 15 -10 0 -5 5 -10
11 -10 7 0 17 -7 24 -17 17 -22 35 -8 35 28 0 17 6 32 15 35 19 8 20 24 1 24
-13 0 -13 6 1 45 12 36 13 49 3 60 -7 8 -16 12 -21 9 -25 -15 -1 44 37 89 13
16 24 34 24 42 0 17 -52 35 -102 35 l-40 0 3 -107z"/>
<path d="M480 420 l0 -420 169 0 169 0 6 31 c3 17 6 49 6 71 0 33 -3 38 -13
29 -18 -14 -27 -4 -27 30 0 22 -4 26 -20 22 -30 -8 -26 32 6 64 25 25 32 39
33 74 1 16 49 44 59 34 11 -11 12 -46 2 -65 -7 -13 -6 -21 5 -30 8 -7 15 -22
16 -34 0 -11 3 -15 6 -8 8 20 23 3 23 -27 0 -16 -7 -34 -15 -41 -18 -15 -19
-33 -3 -99 10 -43 15 -51 35 -51 l23 0 0 420 0 420 -240 0 -240 0 0 -420z"/>
</g>
</svg>
