<?xml version="1.0" standalone="no"?>
<!DOCTYPE svg PUBLIC "-//W3C//DTD SVG 20010904//EN"
 "http://www.w3.org/TR/2001/REC-SVG-20010904/DTD/svg10.dtd">
<svg version="1.0" xmlns="http://www.w3.org/2000/svg"
 width="96.000000pt" height="84.000000pt" viewBox="0 0 96.000000 84.000000"
 preserveAspectRatio="xMidYMid meet">
<metadata>
Created by potrace 1.16, written by Peter Selinger 2001-2019
</metadata>
<g transform="translate(0.000000,84.000000) scale(0.100000,-0.100000)"
fill="#000000" stroke="none">
<path d="M64 826 c-3 -8 -1 -48 5 -88 6 -40 9 -94 6 -120 -2 -26 0 -50 5 -53
16 -10 12 -23 -10 -30 -28 -9 -25 -24 7 -36 14 -5 32 -17 38 -26 14 -19 35 -9
35 16 0 9 7 26 15 37 19 25 19 34 -1 34 -12 0 -14 5 -9 18 18 40 18 85 0 98
-16 12 -16 15 4 47 12 19 28 40 36 47 25 21 17 45 -18 58 -46 17 -106 15 -113
-2z"/>
<path d="M480 420 l0 -420 169 0 169 0 6 31 c3 17 6 49 6 71 0 35 -2 39 -20
33 -15 -5 -20 -2 -20 13 0 11 -7 22 -15 26 -19 7 -10 51 17 80 10 11 17 25 17
30 -4 36 4 54 27 65 15 6 29 9 32 6 11 -11 12 -46 2 -64 -7 -14 -3 -25 20 -47
32 -32 39 -74 15 -94 -18 -15 -19 -33 -3 -99 10 -43 15 -51 35 -51 l23 0 0
420 0 420 -240 0 -240 0 0 -420z"/>
</g>
</svg>
