<?xml version="1.0" standalone="no"?>
<!DOCTYPE svg PUBLIC "-//W3C//DTD SVG 20010904//EN"
 "http://www.w3.org/TR/2001/REC-SVG-20010904/DTD/svg10.dtd">
<svg version="1.0" xmlns="http://www.w3.org/2000/svg"
 width="96.000000pt" height="84.000000pt" viewBox="0 0 96.000000 84.000000"
 preserveAspectRatio="xMidYMid meet">
<metadata>
Created by potrace 1.16, written by Peter Selinger 2001-2019
</metadata>
<g transform="translate(0.000000,84.000000) scale(0.100000,-0.100000)"
fill="#000000" stroke="none">
<path d="M64 825 c-3 -8 -2 -52 4 -97 5 -46 9 -94 9 -108 0 -14 3 -37 7 -52 6
-22 5 -28 -7 -28 -8 0 -20 -7 -27 -15 -11 -13 -8 -16 19 -21 17 -4 36 -15 42
-25 12 -24 28 -24 36 -2 3 10 15 31 26 46 l19 28 -21 6 c-16 4 -20 10 -15 22
3 9 8 33 11 54 4 29 2 37 -11 37 -25 0 -19 20 21 78 l37 54 -25 19 c-30 23
-117 26 -125 4z"/>
<path d="M480 420 l0 -420 169 0 170 0 6 47 c3 27 8 59 11 72 4 20 2 23 -18
18 -46 -12 -62 80 -22 124 8 9 14 20 13 25 -5 30 4 52 27 63 36 16 43 7 38
-44 -4 -39 -1 -46 21 -61 29 -19 34 -64 10 -84 -18 -15 -19 -38 -3 -107 11
-45 16 -53 35 -53 l23 0 0 420 0 420 -240 0 -240 0 0 -420z"/>
</g>
</svg>
