<?xml version="1.0" standalone="no"?>
<!DOCTYPE svg PUBLIC "-//W3C//DTD SVG 20010904//EN"
 "http://www.w3.org/TR/2001/REC-SVG-20010904/DTD/svg10.dtd">
<svg version="1.0" xmlns="http://www.w3.org/2000/svg"
 width="96.000000pt" height="84.000000pt" viewBox="0 0 96.000000 84.000000"
 preserveAspectRatio="xMidYMid meet">
<metadata>
Created by potrace 1.16, written by Peter Selinger 2001-2019
</metadata>
<g transform="translate(0.000000,84.000000) scale(0.100000,-0.100000)"
fill="#000000" stroke="none">
<path d="M64 768 c4 -40 10 -104 15 -143 8 -67 7 -71 -15 -88 -28 -21 -23 -37
10 -37 15 0 27 -9 35 -27 12 -27 13 -27 27 -8 7 11 23 31 34 43 25 29 25 39 1
47 -17 5 -18 9 -7 30 15 29 9 74 -11 82 -18 7 -8 38 28 84 16 20 29 41 29 46
0 19 -60 43 -106 43 l-47 0 7 -72z"/>
<path d="M480 420 l0 -420 170 0 169 0 5 33 c17 112 17 109 -9 103 -16 -4 -25
-2 -25 6 0 6 -7 19 -16 29 -13 15 -14 24 -4 52 6 20 18 38 26 41 8 3 14 11 13
18 -4 36 3 56 26 66 44 20 48 16 42 -37 -6 -50 5 -74 29 -64 20 8 18 -51 -3
-83 -14 -22 -15 -33 -3 -95 12 -62 16 -69 37 -69 l23 0 0 420 0 420 -240 0
-240 0 0 -420z"/>
</g>
</svg>
