<?xml version="1.0" standalone="no"?>
<!DOCTYPE svg PUBLIC "-//W3C//DTD SVG 20010904//EN"
 "http://www.w3.org/TR/2001/REC-SVG-20010904/DTD/svg10.dtd">
<svg version="1.0" xmlns="http://www.w3.org/2000/svg"
 width="96.000000pt" height="84.000000pt" viewBox="0 0 96.000000 84.000000"
 preserveAspectRatio="xMidYMid meet">
<metadata>
Created by potrace 1.16, written by Peter Selinger 2001-2019
</metadata>
<g transform="translate(0.000000,84.000000) scale(0.100000,-0.100000)"
fill="#000000" stroke="none">
<path d="M53 825 c-3 -9 -2 -33 1 -53 4 -20 13 -77 21 -126 14 -87 13 -89 -7
-106 -21 -17 -18 -40 6 -40 7 0 18 -11 24 -25 15 -32 29 -32 43 -1 6 13 20 27
30 29 27 7 23 36 -6 47 -26 10 -32 24 -16 35 5 3 12 1 16 -5 3 -5 13 -10 20
-10 12 0 12 5 3 25 -6 14 -15 25 -20 25 -6 0 -8 6 -5 13 2 6 -2 20 -10 29 -17
19 -7 45 34 90 45 48 7 88 -83 88 -31 0 -46 -5 -51 -15z"/>
<path d="M480 420 l0 -420 170 0 c192 0 172 -10 184 94 6 47 6 48 -19 42 -22
-6 -25 -3 -25 19 0 19 -5 25 -17 23 -28 -5 -19 52 12 79 16 14 25 32 25 51 0
21 7 32 25 40 43 20 48 16 43 -32 -5 -44 5 -76 23 -76 6 0 7 4 4 10 -3 5 -2
10 4 10 18 0 17 -45 -2 -85 -18 -36 -18 -45 -7 -107 12 -61 16 -68 37 -68 l23
0 0 420 0 420 -240 0 -240 0 0 -420z"/>
</g>
</svg>
