<?xml version="1.0" standalone="no"?>
<!DOCTYPE svg PUBLIC "-//W3C//DTD SVG 20010904//EN"
 "http://www.w3.org/TR/2001/REC-SVG-20010904/DTD/svg10.dtd">
<svg version="1.0" xmlns="http://www.w3.org/2000/svg"
 width="96.000000pt" height="84.000000pt" viewBox="0 0 96.000000 84.000000"
 preserveAspectRatio="xMidYMid meet">
<metadata>
Created by potrace 1.16, written by Peter Selinger 2001-2019
</metadata>
<g transform="translate(0.000000,84.000000) scale(0.100000,-0.100000)"
fill="#000000" stroke="none">
<path d="M52 827 c-11 -12 -10 -27 3 -76 9 -34 15 -67 13 -74 -1 -7 1 -21 4
-32 4 -11 9 -37 12 -57 6 -31 4 -37 -14 -43 -26 -8 -26 -35 0 -42 11 -3 20
-11 20 -18 0 -7 7 -18 15 -25 13 -10 19 -8 38 12 13 14 30 27 37 30 19 6 5 39
-20 45 -24 6 -25 16 -5 33 13 11 18 10 29 -5 7 -10 18 -15 24 -11 16 10 -26
56 -45 49 -11 -4 -13 0 -8 20 4 14 2 28 -4 31 -13 9 7 52 38 80 25 23 27 51 5
74 -23 23 -125 29 -142 9z"/>
<path d="M480 420 l0 -420 175 0 175 0 0 29 c0 15 3 50 7 76 6 45 5 47 -14 37
-24 -13 -33 -7 -33 24 0 17 -4 21 -20 17 -14 -4 -20 0 -20 10 0 31 19 65 39
72 16 5 21 15 21 40 0 28 5 35 32 44 17 6 33 9 35 7 5 -5 7 -56 3 -71 -2 -5 0
-18 5 -28 6 -14 10 -15 21 -6 8 6 15 8 15 3 1 -5 2 -16 3 -24 1 -8 -4 -24 -10
-36 -17 -28 -20 -69 -10 -137 7 -51 11 -57 32 -57 l24 0 0 420 0 420 -240 0
-240 0 0 -420z"/>
</g>
</svg>
