<?xml version="1.0" standalone="no"?>
<!DOCTYPE svg PUBLIC "-//W3C//DTD SVG 20010904//EN"
 "http://www.w3.org/TR/2001/REC-SVG-20010904/DTD/svg10.dtd">
<svg version="1.0" xmlns="http://www.w3.org/2000/svg"
 width="96.000000pt" height="84.000000pt" viewBox="0 0 96.000000 84.000000"
 preserveAspectRatio="xMidYMid meet">
<metadata>
Created by potrace 1.16, written by Peter Selinger 2001-2019
</metadata>
<g transform="translate(0.000000,84.000000) scale(0.100000,-0.100000)"
fill="#000000" stroke="none">
<path d="M44 825 c-3 -8 0 -38 7 -67 7 -29 12 -62 11 -73 -1 -11 2 -31 7 -45
5 -14 12 -39 15 -56 4 -26 1 -33 -14 -37 -26 -7 -26 -37 0 -44 11 -3 18 -8 16
-12 -2 -3 2 -14 9 -24 12 -17 45 -14 45 4 0 5 12 14 26 19 31 12 29 41 -4 55
-27 12 -28 21 -2 35 16 9 22 8 26 -5 3 -8 15 -15 27 -15 20 0 20 1 -4 26 -15
16 -31 23 -42 20 -17 -4 -18 -1 -13 24 3 16 1 32 -4 35 -12 8 10 53 39 79 31
28 27 62 -9 81 -39 20 -129 20 -136 0z"/>
<path d="M480 420 l0 -420 174 0 174 0 6 31 c3 17 6 49 6 71 0 35 -2 39 -20
33 -15 -5 -21 0 -26 19 -4 17 -13 26 -25 26 -10 0 -19 6 -19 13 0 25 25 66 46
76 16 7 20 16 17 38 -4 24 0 30 31 44 41 19 47 12 40 -49 -5 -41 11 -66 26
-42 4 7 10 8 13 4 8 -14 0 -65 -12 -77 -12 -12 -14 -71 -5 -141 6 -40 10 -46
30 -46 l24 0 0 420 0 420 -240 0 -240 0 0 -420z"/>
</g>
</svg>
