<?xml version="1.0" standalone="no"?>
<!DOCTYPE svg PUBLIC "-//W3C//DTD SVG 20010904//EN"
 "http://www.w3.org/TR/2001/REC-SVG-20010904/DTD/svg10.dtd">
<svg version="1.0" xmlns="http://www.w3.org/2000/svg"
 width="96.000000pt" height="84.000000pt" viewBox="0 0 96.000000 84.000000"
 preserveAspectRatio="xMidYMid meet">
<metadata>
Created by potrace 1.16, written by Peter Selinger 2001-2019
</metadata>
<g transform="translate(0.000000,84.000000) scale(0.100000,-0.100000)"
fill="#000000" stroke="none">
<path d="M0 420 l0 -420 480 0 480 0 0 420 0 420 -480 0 -480 0 0 -420z m462
209 c3 -8 10 -8 26 2 19 12 24 11 44 -9 18 -18 19 -21 6 -16 -28 10 -21 -7 15
-37 l32 -27 -27 -13 c-16 -7 -28 -17 -28 -22 0 -5 6 -4 14 2 11 9 15 7 19 -9
3 -12 13 -20 26 -20 12 0 21 -5 21 -10 0 -6 15 -8 39 -4 32 5 42 2 60 -17 11
-12 21 -30 21 -38 0 -24 -35 -42 -62 -32 -86 32 -120 38 -112 17 3 -7 -1 -16
-9 -19 -10 -4 -17 2 -20 15 -4 16 -11 19 -29 15 -13 -3 -32 1 -42 9 -11 8 -36
14 -55 14 -33 0 -34 -1 -15 -15 25 -19 5 -19 -23 0 -12 9 -26 15 -30 14 -16
-2 -53 14 -53 23 0 8 23 7 131 -8 33 -5 37 -2 48 25 13 30 7 71 -10 71 -5 0
-9 5 -9 10 0 17 28 11 33 -7 4 -14 5 -15 6 -2 0 8 -12 28 -28 43 -16 16 -27
35 -24 42 6 17 30 19 35 3z"/>
<path d="M476 474 c-9 -24 -7 -28 9 -14 17 14 20 30 6 30 -5 0 -12 -7 -15 -16z"/>
</g>
</svg>
