<?xml version="1.0" standalone="no"?>
<!DOCTYPE svg PUBLIC "-//W3C//DTD SVG 20010904//EN"
 "http://www.w3.org/TR/2001/REC-SVG-20010904/DTD/svg10.dtd">
<svg version="1.0" xmlns="http://www.w3.org/2000/svg"
 width="96.000000pt" height="84.000000pt" viewBox="0 0 96.000000 84.000000"
 preserveAspectRatio="xMidYMid meet">
<metadata>
Created by potrace 1.16, written by Peter Selinger 2001-2019
</metadata>
<g transform="translate(0.000000,84.000000) scale(0.100000,-0.100000)"
fill="#000000" stroke="none">
<path d="M37 828 c-2 -7 2 -36 10 -65 7 -29 12 -65 11 -80 -1 -16 2 -35 6 -42
5 -7 12 -28 16 -47 7 -29 4 -35 -17 -49 -20 -13 -22 -19 -12 -31 6 -8 18 -14
25 -14 7 0 11 -6 8 -13 -3 -8 2 -20 11 -27 13 -11 19 -10 38 7 12 11 30 23 40
26 27 10 20 35 -15 53 l-33 17 25 9 c18 7 32 5 53 -7 33 -20 35 -6 3 24 -15
14 -31 21 -43 17 -16 -5 -18 0 -17 44 1 40 7 58 32 89 38 47 40 64 10 85 -28
20 -144 22 -151 4z"/>
<path d="M480 420 l0 -420 180 0 180 0 0 54 c0 30 3 62 7 71 5 14 2 16 -14 11
-15 -5 -23 0 -31 19 -6 14 -18 25 -26 25 -8 0 -18 5 -21 10 -10 17 17 68 43
80 19 8 22 16 18 38 -5 23 -1 29 29 43 19 9 37 14 40 11 3 -3 5 -29 5 -58 0
-43 3 -52 18 -50 11 0 15 -4 13 -14 -3 -8 -6 -66 -9 -127 l-4 -113 26 0 26 0
0 420 0 420 -240 0 -240 0 0 -420z"/>
</g>
</svg>
