<?xml version="1.0" standalone="no"?>
<!DOCTYPE svg PUBLIC "-//W3C//DTD SVG 20010904//EN"
 "http://www.w3.org/TR/2001/REC-SVG-20010904/DTD/svg10.dtd">
<svg version="1.0" xmlns="http://www.w3.org/2000/svg"
 width="96.000000pt" height="84.000000pt" viewBox="0 0 96.000000 84.000000"
 preserveAspectRatio="xMidYMid meet">
<metadata>
Created by potrace 1.16, written by Peter Selinger 2001-2019
</metadata>
<g transform="translate(0.000000,84.000000) scale(0.100000,-0.100000)"
fill="#000000" stroke="none">
<path d="M27 834 c-3 -3 -1 -18 4 -33 6 -14 14 -55 19 -91 5 -36 13 -83 19
-105 10 -37 9 -41 -15 -59 -19 -14 -22 -21 -13 -32 6 -8 17 -14 24 -14 7 0 12
-7 11 -16 0 -9 7 -21 16 -27 14 -9 22 -7 41 11 13 12 28 22 35 22 6 0 14 5 17
11 8 12 -23 49 -42 49 -23 0 -14 18 13 24 19 5 30 2 39 -10 8 -11 19 -15 30
-10 16 6 14 10 -14 30 -18 14 -40 22 -51 19 -17 -5 -19 0 -16 49 4 60 13 83
45 112 24 21 27 46 9 64 -12 12 -159 17 -171 6z"/>
<path d="M480 420 l0 -420 175 0 c197 0 178 -9 188 87 4 31 1 43 -8 43 -7 0
-20 11 -29 24 -8 14 -25 27 -36 31 -29 9 -25 28 16 71 22 24 34 45 30 56 -3
14 6 24 34 38 20 10 40 17 43 13 4 -3 4 -25 0 -49 -4 -34 -2 -45 10 -50 12 -4
15 -17 12 -52 -2 -26 -1 -84 2 -130 5 -71 8 -82 24 -82 18 0 19 18 19 420 l0
420 -240 0 -240 0 0 -420z"/>
</g>
</svg>
