<?xml version="1.0" standalone="no"?>
<!DOCTYPE svg PUBLIC "-//W3C//DTD SVG 20010904//EN"
 "http://www.w3.org/TR/2001/REC-SVG-20010904/DTD/svg10.dtd">
<svg version="1.0" xmlns="http://www.w3.org/2000/svg"
 width="96.000000pt" height="84.000000pt" viewBox="0 0 96.000000 84.000000"
 preserveAspectRatio="xMidYMid meet">
<metadata>
Created by potrace 1.16, written by Peter Selinger 2001-2019
</metadata>
<g transform="translate(0.000000,84.000000) scale(0.100000,-0.100000)"
fill="#000000" stroke="none">
<path d="M26 789 c8 -28 13 -63 9 -78 -3 -15 1 -42 8 -61 29 -70 29 -86 2 -98
-31 -14 -32 -40 -3 -52 13 -5 20 -9 15 -9 -10 -1 23 -51 34 -51 5 0 18 9 28
19 11 11 27 21 38 23 10 2 19 13 21 25 2 16 -5 26 -30 39 l-33 17 30 8 c21 6
34 4 45 -6 17 -16 50 -20 50 -7 0 12 -60 42 -84 42 -21 0 -23 4 -21 60 2 52 7
64 39 101 60 71 53 79 -63 79 l-100 0 15 -51z"/>
<path d="M480 420 l0 -420 175 0 174 0 6 38 c3 20 8 45 10 56 2 10 -5 28 -16
39 -10 11 -19 29 -19 39 0 10 -5 15 -12 13 -7 -3 -19 -1 -27 4 -19 12 2 64 35
86 18 11 23 22 19 38 -5 18 0 25 30 39 41 18 46 14 50 -51 4 -55 22 -211 31
-264 3 -20 10 -37 15 -37 5 0 9 174 9 420 l0 420 -240 0 -240 0 0 -420z"/>
</g>
</svg>
