<?xml version="1.0" standalone="no"?>
<!DOCTYPE svg PUBLIC "-//W3C//DTD SVG 20010904//EN"
 "http://www.w3.org/TR/2001/REC-SVG-20010904/DTD/svg10.dtd">
<svg version="1.0" xmlns="http://www.w3.org/2000/svg"
 width="96.000000pt" height="84.000000pt" viewBox="0 0 96.000000 84.000000"
 preserveAspectRatio="xMidYMid meet">
<metadata>
Created by potrace 1.16, written by Peter Selinger 2001-2019
</metadata>
<g transform="translate(0.000000,84.000000) scale(0.100000,-0.100000)"
fill="#000000" stroke="none">
<path d="M6 818 c5 -13 9 -50 10 -83 1 -33 9 -78 17 -100 22 -54 21 -72 -3
-78 -27 -7 -37 -37 -18 -51 8 -6 23 -23 32 -38 21 -33 56 -37 73 -9 7 11 23
21 35 23 35 5 29 38 -11 65 l-34 23 38 0 c21 0 46 -7 56 -16 11 -10 25 -14 35
-10 15 6 11 11 -18 31 -19 13 -48 25 -64 27 -38 4 -44 14 -32 54 5 19 6 39 3
44 -8 14 18 60 54 94 17 17 31 33 31 38 0 4 -48 8 -106 8 -105 0 -105 0 -98
-22z"/>
<path d="M480 420 l0 -420 174 0 c96 0 177 3 179 8 3 4 8 34 12 66 6 50 5 58
-8 53 -22 -8 -26 1 -17 34 8 26 7 29 -13 24 -12 -3 -28 -2 -34 3 -20 13 5 65
39 85 23 13 27 21 22 41 -5 20 0 26 27 40 25 12 35 13 46 4 8 -6 10 -14 5 -17
-5 -3 -6 -27 -2 -56 27 -176 41 -262 44 -275 2 -8 4 175 5 408 l1 422 -240 0
-240 0 0 -420z"/>
</g>
</svg>
