<?xml version="1.0" standalone="no"?>
<!DOCTYPE svg PUBLIC "-//W3C//DTD SVG 20010904//EN"
 "http://www.w3.org/TR/2001/REC-SVG-20010904/DTD/svg10.dtd">
<svg version="1.0" xmlns="http://www.w3.org/2000/svg"
 width="96.000000pt" height="84.000000pt" viewBox="0 0 96.000000 84.000000"
 preserveAspectRatio="xMidYMid meet">
<metadata>
Created by potrace 1.16, written by Peter Selinger 2001-2019
</metadata>
<g transform="translate(0.000000,84.000000) scale(0.100000,-0.100000)"
fill="#000000" stroke="none">
<path d="M0 758 c0 -46 7 -105 15 -133 14 -45 14 -51 0 -61 -18 -13 -21 -74
-3 -74 6 0 8 -3 5 -6 -8 -8 30 -64 43 -64 5 0 22 11 38 25 17 14 39 25 51 25
16 0 21 6 21 24 0 26 -41 66 -67 66 -8 0 -11 5 -8 10 9 15 75 1 104 -21 27
-22 51 -25 51 -6 0 16 -55 49 -105 63 l-40 11 2 49 c4 74 10 91 49 134 l36 40
-96 0 -96 0 0 -82z"/>
<path d="M480 420 l0 -420 178 0 178 0 12 58 c16 79 16 80 -19 76 -29 -4 -31
-2 -25 21 4 14 3 25 -1 25 -5 0 -14 4 -22 9 -20 13 4 63 41 84 23 13 27 21 22
41 -5 20 0 26 27 40 34 17 66 6 52 -17 -9 -15 -4 -84 9 -126 6 -19 14 -57 18
-85 4 -28 8 118 9 332 l1 382 -240 0 -240 0 0 -420z"/>
</g>
</svg>
