<?xml version="1.0" standalone="no"?>
<!DOCTYPE svg PUBLIC "-//W3C//DTD SVG 20010904//EN"
 "http://www.w3.org/TR/2001/REC-SVG-20010904/DTD/svg10.dtd">
<svg version="1.0" xmlns="http://www.w3.org/2000/svg"
 width="96.000000pt" height="84.000000pt" viewBox="0 0 96.000000 84.000000"
 preserveAspectRatio="xMidYMid meet">
<metadata>
Created by potrace 1.16, written by Peter Selinger 2001-2019
</metadata>
<g transform="translate(0.000000,84.000000) scale(0.100000,-0.100000)"
fill="#000000" stroke="none">
<path d="M0 637 c0 -208 3 -227 40 -227 9 0 27 11 40 25 14 15 35 25 52 25 24
0 28 4 28 29 0 28 -9 39 -66 79 -16 11 -13 12 26 7 27 -3 62 -18 88 -36 38
-27 42 -28 42 -11 0 27 -62 72 -119 87 -42 11 -46 14 -44 41 1 16 3 48 3 71 1
26 9 54 25 77 l24 36 -69 0 -70 0 0 -203z"/>
<path d="M480 420 l0 -420 182 2 182 3 12 55 c7 32 9 56 3 58 -5 2 -9 10 -9
18 0 12 -4 12 -30 -1 -27 -14 -30 -14 -40 5 -8 15 -7 27 5 50 9 16 20 30 25
30 6 0 10 5 10 11 0 5 -6 7 -12 4 -7 -4 1 5 19 19 27 22 31 32 27 55 -5 25 -2
31 27 45 20 10 36 13 42 7 5 -5 10 -42 11 -83 1 -40 7 -82 14 -93 9 -16 11 53
12 318 l0 337 -240 0 -240 0 0 -420z"/>
</g>
</svg>
