<?xml version="1.0" standalone="no"?>
<!DOCTYPE svg PUBLIC "-//W3C//DTD SVG 20010904//EN"
 "http://www.w3.org/TR/2001/REC-SVG-20010904/DTD/svg10.dtd">
<svg version="1.0" xmlns="http://www.w3.org/2000/svg"
 width="96.000000pt" height="84.000000pt" viewBox="0 0 96.000000 84.000000"
 preserveAspectRatio="xMidYMid meet">
<metadata>
Created by potrace 1.16, written by Peter Selinger 2001-2019
</metadata>
<g transform="translate(0.000000,84.000000) scale(0.100000,-0.100000)"
fill="#000000" stroke="none">
<path d="M0 615 c0 -131 4 -225 9 -225 5 0 22 11 38 24 16 14 45 26 64 28 29
3 34 7 37 32 4 33 -24 68 -69 86 -29 13 -39 30 -16 30 43 0 164 -57 175 -82 7
-16 22 -7 22 12 0 26 -82 85 -140 101 -58 15 -70 30 -60 77 4 20 10 61 13 90
l4 52 -38 0 -39 0 0 -225z"/>
<path d="M480 420 l0 -420 189 0 190 0 6 55 c9 66 2 90 -23 80 -56 -24 -92
-10 -92 35 0 24 90 96 100 80 6 -9 11 -7 19 8 9 16 9 26 0 40 -16 26 -7 47 29
65 27 13 32 13 46 -1 15 -15 16 5 16 231 l0 247 -240 0 -240 0 0 -420z"/>
<path d="M946 325 c4 -8 8 -15 10 -15 2 0 4 7 4 15 0 8 -4 15 -10 15 -5 0 -7
-7 -4 -15z"/>
<path d="M953 255 c0 -27 2 -38 4 -22 2 15 2 37 0 50 -2 12 -4 0 -4 -28z"/>
</g>
</svg>
