<?xml version="1.0" standalone="no"?>
<!DOCTYPE svg PUBLIC "-//W3C//DTD SVG 20010904//EN"
 "http://www.w3.org/TR/2001/REC-SVG-20010904/DTD/svg10.dtd">
<svg version="1.0" xmlns="http://www.w3.org/2000/svg"
 width="96.000000pt" height="84.000000pt" viewBox="0 0 96.000000 84.000000"
 preserveAspectRatio="xMidYMid meet">
<metadata>
Created by potrace 1.16, written by Peter Selinger 2001-2019
</metadata>
<g transform="translate(0.000000,84.000000) scale(0.100000,-0.100000)"
fill="#000000" stroke="none">
<path d="M0 614 l0 -225 22 15 c12 9 35 16 49 16 47 0 59 10 59 47 0 28 -8 43
-36 69 -19 19 -46 37 -60 40 -25 6 -34 24 -11 24 31 -2 106 -27 142 -49 101
-62 125 -68 103 -27 -20 38 -97 88 -173 113 -72 23 -88 44 -74 98 23 87 23
105 0 105 -21 0 -21 -3 -21 -226z"/>
<path d="M480 420 l0 -420 204 0 204 0 4 30 c3 16 1 30 -3 30 -5 0 -6 6 -3 14
3 7 -2 16 -10 19 -9 4 -16 13 -16 22 0 13 -4 13 -34 -2 -43 -20 -62 -13 -83
32 l-17 35 37 38 c20 21 37 43 37 50 0 7 7 12 15 12 9 0 15 -9 15 -22 0 -40
13 -51 43 -37 34 16 44 45 22 69 -21 23 -16 51 12 65 54 27 53 21 53 261 l0
224 -240 0 -240 0 0 -420z"/>
</g>
</svg>
