<?xml version="1.0" standalone="no"?>
<!DOCTYPE svg PUBLIC "-//W3C//DTD SVG 20010904//EN"
 "http://www.w3.org/TR/2001/REC-SVG-20010904/DTD/svg10.dtd">
<svg version="1.0" xmlns="http://www.w3.org/2000/svg"
 width="96.000000pt" height="84.000000pt" viewBox="0 0 96.000000 84.000000"
 preserveAspectRatio="xMidYMid meet">
<metadata>
Created by potrace 1.16, written by Peter Selinger 2001-2019
</metadata>
<g transform="translate(0.000000,84.000000) scale(0.100000,-0.100000)"
fill="#000000" stroke="none">
<path d="M486 698 c-3 -79 -7 -268 -9 -420 l-4 -278 229 0 230 0 -5 27 c-3 15
-1 37 4 50 5 14 5 23 -1 23 -6 0 -6 9 0 25 11 30 -4 35 -20 6 -12 -24 -71 -61
-97 -61 -11 0 -30 12 -44 28 -53 58 -52 55 -9 105 23 26 36 48 30 52 -12 8
-13 35 -1 35 11 0 52 -40 71 -69 14 -21 20 -23 58 -16 35 6 42 11 42 30 0 12
-7 28 -15 35 -8 7 -15 21 -15 31 0 9 7 24 15 33 13 12 15 55 15 260 l0 246
-234 0 -234 0 -6 -142z"/>
<path d="M0 661 c0 -38 1 -39 46 -50 26 -7 69 -27 98 -45 28 -18 54 -33 59
-34 38 -8 57 -16 57 -23 0 -5 5 -9 10 -9 23 0 8 39 -27 70 -33 29 -215 130
-235 130 -5 0 -8 -17 -8 -39z"/>
<path d="M0 495 c0 -52 4 -95 9 -95 19 0 66 21 73 33 25 39 -9 119 -63 148
-18 9 -19 5 -19 -86z"/>
</g>
</svg>
