<?xml version="1.0" standalone="no"?>
<!DOCTYPE svg PUBLIC "-//W3C//DTD SVG 20010904//EN"
 "http://www.w3.org/TR/2001/REC-SVG-20010904/DTD/svg10.dtd">
<svg version="1.0" xmlns="http://www.w3.org/2000/svg"
 width="96.000000pt" height="84.000000pt" viewBox="0 0 96.000000 84.000000"
 preserveAspectRatio="xMidYMid meet">
<metadata>
Created by potrace 1.16, written by Peter Selinger 2001-2019
</metadata>
<g transform="translate(0.000000,84.000000) scale(0.100000,-0.100000)"
fill="#000000" stroke="none">
<path d="M506 818 c-3 -13 -6 -52 -6 -88 0 -35 -9 -177 -19 -315 -11 -137 -22
-287 -24 -332 l-4 -83 254 0 253 0 0 40 c0 46 -2 47 -39 21 -62 -45 -118 -31
-174 43 l-26 33 47 42 47 43 -28 20 c-33 24 -27 41 10 27 15 -5 32 -8 39 -5 7
3 33 -13 57 -35 25 -21 50 -39 56 -39 8 0 11 96 11 325 l0 325 -224 0 c-224 0
-224 0 -230 -22z"/>
<path d="M0 697 c0 -38 4 -46 27 -56 14 -7 50 -28 80 -48 30 -19 56 -33 59
-30 3 3 19 1 36 -4 20 -5 36 -5 44 2 9 7 15 5 22 -7 5 -10 14 -14 22 -9 16 10
-47 75 -72 75 -10 0 -18 5 -18 11 0 5 -15 16 -32 24 -18 7 -60 29 -92 49 -33
20 -63 36 -68 36 -4 0 -8 -20 -8 -43z"/>
<path d="M0 492 c0 -40 4 -61 10 -57 13 8 13 85 0 105 -7 11 -10 -4 -10 -48z"/>
</g>
</svg>
