<?xml version="1.0" standalone="no"?>
<!DOCTYPE svg PUBLIC "-//W3C//DTD SVG 20010904//EN"
 "http://www.w3.org/TR/2001/REC-SVG-20010904/DTD/svg10.dtd">
<svg version="1.0" xmlns="http://www.w3.org/2000/svg"
 width="96.000000pt" height="84.000000pt" viewBox="0 0 96.000000 84.000000"
 preserveAspectRatio="xMidYMid meet">
<metadata>
Created by potrace 1.16, written by Peter Selinger 2001-2019
</metadata>
<g transform="translate(0.000000,84.000000) scale(0.100000,-0.100000)"
fill="#000000" stroke="none">
<path d="M0 420 l0 -420 480 0 480 0 0 420 0 420 -480 0 -480 0 0 -420z m485
216 c18 12 24 11 50 -7 24 -17 26 -19 8 -14 -31 9 -29 -1 7 -36 23 -24 28 -36
24 -58 -5 -26 -3 -30 27 -39 19 -6 48 -10 66 -9 32 0 72 -33 73 -61 0 -18 -47
-34 -68 -23 -9 5 -38 12 -64 16 -39 6 -48 4 -48 -7 0 -8 -7 -15 -15 -15 -8 0
-15 6 -15 14 0 8 -12 13 -29 13 -16 0 -31 4 -33 8 -1 5 -23 12 -48 16 -36 6
-43 5 -32 -5 20 -21 14 -34 -7 -15 -11 10 -31 19 -46 20 -25 3 -53 22 -44 30
2 2 37 -1 77 -6 77 -10 95 -5 105 32 3 10 -2 31 -9 46 -17 33 -10 45 11 18 8
-10 15 -14 15 -8 0 7 -14 25 -31 42 -23 22 -30 36 -24 49 6 17 8 17 18 1 9
-14 13 -14 32 -2z"/>
<path d="M530 519 c0 -5 5 -7 10 -4 6 3 10 8 10 11 0 2 -4 4 -10 4 -5 0 -10
-5 -10 -11z"/>
<path d="M481 482 c-7 -13 -11 -26 -8 -28 8 -8 29 25 25 38 -3 8 -9 4 -17 -10z"/>
</g>
</svg>
