<?xml version="1.0" standalone="no"?>
<!DOCTYPE svg PUBLIC "-//W3C//DTD SVG 20010904//EN"
 "http://www.w3.org/TR/2001/REC-SVG-20010904/DTD/svg10.dtd">
<svg version="1.0" xmlns="http://www.w3.org/2000/svg"
 width="96.000000pt" height="84.000000pt" viewBox="0 0 96.000000 84.000000"
 preserveAspectRatio="xMidYMid meet">
<metadata>
Created by potrace 1.16, written by Peter Selinger 2001-2019
</metadata>
<g transform="translate(0.000000,84.000000) scale(0.100000,-0.100000)"
fill="#000000" stroke="none">
<path d="M532 728 c-7 -62 -28 -190 -47 -285 -40 -194 -65 -350 -65 -405 l0
-38 215 0 216 0 -58 46 c-32 26 -62 50 -66 54 -5 4 16 21 45 38 30 16 59 37
66 45 11 13 8 17 -22 27 -41 13 -63 35 -46 45 6 4 20 -1 31 -11 10 -9 19 -12
19 -7 0 18 81 23 112 7 l28 -15 0 306 0 305 -208 0 -208 0 -12 -112z"/>
<path d="M0 726 l0 -61 51 -38 c35 -26 57 -36 68 -31 9 4 37 6 62 5 26 -2 50
2 53 8 4 6 0 11 -8 11 -9 0 -16 5 -16 11 0 14 40 1 66 -22 25 -24 34 -24 34
-1 0 21 -74 81 -110 88 -14 3 -64 25 -112 48 l-88 44 0 -62z"/>
</g>
</svg>
