<?xml version="1.0" standalone="no"?>
<!DOCTYPE svg PUBLIC "-//W3C//DTD SVG 20010904//EN"
 "http://www.w3.org/TR/2001/REC-SVG-20010904/DTD/svg10.dtd">
<svg version="1.0" xmlns="http://www.w3.org/2000/svg"
 width="96.000000pt" height="84.000000pt" viewBox="0 0 96.000000 84.000000"
 preserveAspectRatio="xMidYMid meet">
<metadata>
Created by potrace 1.16, written by Peter Selinger 2001-2019
</metadata>
<g transform="translate(0.000000,84.000000) scale(0.100000,-0.100000)"
fill="#000000" stroke="none">
<path d="M595 788 c-13 -95 -43 -190 -118 -378 -72 -181 -99 -266 -113 -362
l-6 -48 183 0 c183 0 184 1 159 20 -14 10 -23 21 -20 23 3 3 39 20 80 39 41
19 85 46 98 60 l23 25 -30 1 c-49 1 -105 40 -95 66 8 21 20 20 44 -4 19 -19
22 -19 36 -5 9 8 31 15 50 15 22 0 37 6 41 16 3 8 12 13 19 10 12 -4 14 43 14
284 l0 290 -179 0 -179 0 -7 -52z"/>
<path d="M0 732 c0 -90 2 -100 23 -120 l23 -22 23 23 c15 16 29 23 45 20 34
-7 136 25 136 42 0 7 -12 16 -27 18 -27 4 -27 4 3 6 20 0 34 -5 38 -14 3 -8
12 -15 19 -15 8 0 20 -7 27 -15 19 -23 45 -18 48 9 3 44 -130 121 -191 109
-15 -3 -34 0 -43 8 -12 10 -108 49 -121 49 -2 0 -3 -44 -3 -98z"/>
</g>
</svg>
