<?xml version="1.0" standalone="no"?>
<!DOCTYPE svg PUBLIC "-//W3C//DTD SVG 20010904//EN"
 "http://www.w3.org/TR/2001/REC-SVG-20010904/DTD/svg10.dtd">
<svg version="1.0" xmlns="http://www.w3.org/2000/svg"
 width="96.000000pt" height="84.000000pt" viewBox="0 0 96.000000 84.000000"
 preserveAspectRatio="xMidYMid meet">
<metadata>
Created by potrace 1.16, written by Peter Selinger 2001-2019
</metadata>
<g transform="translate(0.000000,84.000000) scale(0.100000,-0.100000)"
fill="#000000" stroke="none">
<path d="M0 703 l1 -138 27 33 c23 27 34 32 69 32 50 0 183 66 198 99 14 30
39 22 43 -14 2 -17 11 -38 20 -48 14 -16 17 -16 25 -2 8 15 10 15 22 -2 17
-23 75 -27 75 -4 0 104 -107 181 -252 181 -31 0 -68 -4 -82 -10 -17 -6 -26 -6
-26 0 0 6 -27 10 -60 10 l-60 0 0 -137z"/>
<path d="M680 813 c-1 -98 -64 -228 -182 -370 -49 -59 -105 -132 -125 -162
-41 -62 -93 -199 -93 -248 l0 -33 236 0 236 0 61 61 c44 43 55 59 39 54 -13
-4 -45 -4 -72 0 -39 5 -58 15 -88 44 -33 32 -38 43 -34 70 4 30 6 32 36 25 39
-8 56 -21 56 -44 0 -22 29 -35 36 -16 8 20 121 68 143 61 14 -4 20 1 25 17 3
13 6 146 6 296 l0 272 -140 0 -140 0 0 -27z"/>
</g>
</svg>
