<?xml version="1.0" standalone="no"?>
<!DOCTYPE svg PUBLIC "-//W3C//DTD SVG 20010904//EN"
 "http://www.w3.org/TR/2001/REC-SVG-20010904/DTD/svg10.dtd">
<svg version="1.0" xmlns="http://www.w3.org/2000/svg"
 width="96.000000pt" height="84.000000pt" viewBox="0 0 96.000000 84.000000"
 preserveAspectRatio="xMidYMid meet">
<metadata>
Created by potrace 1.16, written by Peter Selinger 2001-2019
</metadata>
<g transform="translate(0.000000,84.000000) scale(0.100000,-0.100000)"
fill="#000000" stroke="none">
<path d="M0 701 l0 -139 28 13 c15 8 56 19 92 24 37 6 75 19 90 31 14 11 42
33 63 48 21 15 58 41 82 59 44 32 44 32 93 18 58 -18 71 -40 65 -110 -4 -41
-1 -53 15 -68 17 -15 21 -16 32 -2 11 13 14 12 30 -7 l18 -22 32 31 c32 31 33
34 26 90 -5 47 -15 68 -49 113 l-43 55 -287 3 -287 2 0 -139z"/>
<path d="M780 808 c0 -46 -23 -124 -52 -183 -40 -78 -110 -136 -248 -205 -140
-70 -208 -128 -250 -210 -27 -55 -50 -139 -50 -185 l0 -25 228 1 c126 1 210 5
189 9 -62 12 -105 42 -149 104 -53 75 -63 145 -28 189 21 26 24 27 40 12 15
-14 18 -14 30 0 12 14 15 13 37 -6 17 -17 23 -33 23 -68 1 -55 15 -76 56 -85
24 -5 43 0 90 28 32 19 73 46 91 61 40 33 95 49 139 40 l34 -6 0 281 0 280
-90 0 -90 0 0 -32z"/>
</g>
</svg>
