<?xml version="1.0" standalone="no"?>
<!DOCTYPE svg PUBLIC "-//W3C//DTD SVG 20010904//EN"
 "http://www.w3.org/TR/2001/REC-SVG-20010904/DTD/svg10.dtd">
<svg version="1.0" xmlns="http://www.w3.org/2000/svg"
 width="96.000000pt" height="84.000000pt" viewBox="0 0 96.000000 84.000000"
 preserveAspectRatio="xMidYMid meet">
<metadata>
Created by potrace 1.16, written by Peter Selinger 2001-2019
</metadata>
<g transform="translate(0.000000,84.000000) scale(0.100000,-0.100000)"
fill="#000000" stroke="none">
<path d="M0 737 l0 -102 47 -29 c43 -26 54 -28 118 -24 74 5 108 22 244 117
l54 38 55 -33 c30 -19 63 -36 72 -39 30 -10 32 -61 5 -115 -30 -60 -31 -80 -5
-87 11 -3 20 -11 20 -18 0 -13 -64 -25 -139 -25 -68 0 -122 -11 -118 -24 2 -6
15 -10 30 -8 39 5 44 -28 14 -91 -39 -80 -29 -109 51 -147 l62 -29 53 31 c28
17 85 53 126 80 67 44 80 48 133 48 39 0 72 -7 98 -20 l40 -20 0 300 0 300
-59 0 -58 0 -7 -71 c-11 -111 -40 -190 -87 -240 -24 -26 -38 -36 -34 -24 23
67 25 99 9 149 -27 81 -59 139 -93 164 -30 22 -35 22 -331 22 l-300 0 0 -103z"/>
<path d="M227 332 c-47 -49 -84 -131 -97 -217 -18 -126 -29 -115 114 -115
l125 0 -50 47 c-40 39 -51 59 -64 108 -19 76 -19 138 1 176 22 44 13 44 -29 1z"/>
</g>
</svg>
