<?xml version="1.0" standalone="no"?>
<!DOCTYPE svg PUBLIC "-//W3C//DTD SVG 20010904//EN"
 "http://www.w3.org/TR/2001/REC-SVG-20010904/DTD/svg10.dtd">
<svg version="1.0" xmlns="http://www.w3.org/2000/svg"
 width="96.000000pt" height="84.000000pt" viewBox="0 0 96.000000 84.000000"
 preserveAspectRatio="xMidYMid meet">
<metadata>
Created by potrace 1.16, written by Peter Selinger 2001-2019
</metadata>
<g transform="translate(0.000000,84.000000) scale(0.100000,-0.100000)"
fill="#000000" stroke="none">
<path d="M0 818 c1 -33 158 -206 212 -234 42 -21 140 -33 307 -39 76 -2 89
-16 67 -70 -8 -19 -20 -35 -27 -35 -7 0 -21 -7 -31 -17 -17 -15 -21 -15 -58 2
-33 15 -43 16 -53 5 -9 -10 -9 -13 1 -17 15 -6 42 -32 42 -41 -1 -23 -25 -37
-72 -42 -45 -4 -53 -8 -56 -27 -2 -12 4 -33 13 -46 15 -23 18 -24 43 -12 18 9
76 15 172 16 l145 3 128 -68 127 -68 0 356 0 356 -51 0 -51 0 6 -63 c13 -119
-31 -272 -96 -334 l-30 -28 8 40 c13 63 8 95 -29 180 -48 108 -77 141 -154
176 l-65 29 -249 0 -249 0 0 -22z"/>
<path d="M176 378 c-59 -78 -89 -199 -79 -317 l6 -61 104 0 c95 0 103 1 89 16
-47 46 -116 211 -116 276 0 21 7 55 15 75 20 48 13 52 -19 11z"/>
</g>
</svg>
