<?xml version="1.0" standalone="no"?>
<!DOCTYPE svg PUBLIC "-//W3C//DTD SVG 20010904//EN"
 "http://www.w3.org/TR/2001/REC-SVG-20010904/DTD/svg10.dtd">
<svg version="1.0" xmlns="http://www.w3.org/2000/svg"
 width="96.000000pt" height="84.000000pt" viewBox="0 0 96.000000 84.000000"
 preserveAspectRatio="xMidYMid meet">
<metadata>
Created by potrace 1.16, written by Peter Selinger 2001-2019
</metadata>
<g transform="translate(0.000000,84.000000) scale(0.100000,-0.100000)"
fill="#000000" stroke="none">
<path d="M196 763 c53 -117 135 -217 207 -254 30 -16 44 -33 63 -75 13 -30 24
-72 24 -93 0 -36 4 -40 60 -75 33 -20 77 -53 97 -73 112 -106 241 -193 286
-193 l27 0 0 420 0 420 -46 0 c-40 0 -45 -2 -39 -17 4 -10 10 -61 12 -114 8
-150 -21 -244 -100 -326 -50 -52 -73 -57 -50 -13 9 20 17 73 20 149 5 109 4
123 -16 164 -12 26 -49 71 -82 102 l-60 55 -219 0 -219 0 35 -77z m388 -210
c-8 -57 -18 -71 -38 -53 -25 20 -58 79 -51 90 3 5 26 10 50 10 l45 0 -6 -47z"/>
<path d="M225 502 c-50 -31 -101 -96 -125 -158 -28 -73 -37 -206 -21 -286 l12
-58 65 0 65 0 -28 48 c-26 43 -28 55 -28 147 1 209 22 264 115 302 l55 22 -40
1 c-22 0 -53 -8 -70 -18z"/>
<path d="M330 220 c0 -58 13 -69 60 -50 17 7 30 14 30 17 0 6 -78 83 -84 83
-3 0 -6 -23 -6 -50z"/>
</g>
</svg>
