<?xml version="1.0" standalone="no"?>
<!DOCTYPE svg PUBLIC "-//W3C//DTD SVG 20010904//EN"
 "http://www.w3.org/TR/2001/REC-SVG-20010904/DTD/svg10.dtd">
<svg version="1.0" xmlns="http://www.w3.org/2000/svg"
 width="96.000000pt" height="84.000000pt" viewBox="0 0 96.000000 84.000000"
 preserveAspectRatio="xMidYMid meet">
<metadata>
Created by potrace 1.16, written by Peter Selinger 2001-2019
</metadata>
<g transform="translate(0.000000,84.000000) scale(0.100000,-0.100000)"
fill="#000000" stroke="none">
<path d="M220 777 c20 -71 50 -136 87 -185 29 -38 23 -52 -20 -52 -143 -1
-250 -192 -234 -413 10 -133 6 -127 99 -127 l80 0 -25 30 c-40 47 -51 121 -38
261 6 66 17 135 25 153 15 36 65 65 148 88 46 12 49 11 77 -16 38 -36 75 -121
67 -152 -5 -19 3 -33 41 -70 26 -26 71 -58 100 -71 42 -19 63 -38 98 -88 62
-86 130 -135 190 -135 l45 0 0 420 0 420 -35 0 -35 0 7 -42 c5 -24 8 -88 8
-143 -1 -113 -19 -180 -68 -259 -32 -51 -106 -106 -141 -106 -19 1 -17 4 10
28 43 36 50 54 63 145 24 169 8 223 -90 318 l-61 59 -208 0 -207 0 17 -63z
m384 -216 c6 -9 -8 -98 -16 -107 -12 -11 -41 12 -65 53 -21 37 -24 47 -12 54
18 11 86 12 93 0z"/>
<path d="M310 273 c0 -68 9 -78 53 -64 41 14 70 41 44 41 -9 0 -28 16 -43 35
-38 50 -54 46 -54 -12z"/>
</g>
</svg>
