<?xml version="1.0" standalone="no"?>
<!DOCTYPE svg PUBLIC "-//W3C//DTD SVG 20010904//EN"
 "http://www.w3.org/TR/2001/REC-SVG-20010904/DTD/svg10.dtd">
<svg version="1.0" xmlns="http://www.w3.org/2000/svg"
 width="96.000000pt" height="84.000000pt" viewBox="0 0 96.000000 84.000000"
 preserveAspectRatio="xMidYMid meet">
<metadata>
Created by potrace 1.16, written by Peter Selinger 2001-2019
</metadata>
<g transform="translate(0.000000,84.000000) scale(0.100000,-0.100000)"
fill="#000000" stroke="none">
<path d="M227 798 c6 -63 24 -128 45 -170 10 -21 18 -40 18 -42 0 -3 -18 -15
-39 -26 -22 -10 -41 -23 -43 -27 -1 -5 -20 -20 -40 -35 -43 -32 -90 -110 -112
-187 -16 -56 -22 -219 -10 -280 l7 -31 95 0 96 0 -26 27 c-14 16 -31 38 -37
50 -21 40 -31 165 -22 271 8 100 9 104 44 140 20 20 53 46 74 57 21 11 40 22
43 26 13 15 44 17 68 5 66 -34 103 -105 100 -193 -1 -47 4 -66 25 -99 43 -69
115 -111 166 -97 16 4 26 -7 52 -59 17 -34 48 -77 67 -94 31 -27 45 -31 99
-33 l63 -2 0 420 0 421 -23 0 -24 0 5 -122 c7 -215 -46 -357 -165 -435 -36
-24 -37 -10 -2 41 52 78 64 264 22 354 -9 21 -45 65 -80 100 l-63 62 -204 0
-204 0 5 -42z m395 -287 c12 -10 -4 -92 -19 -98 -29 -11 -94 76 -70 95 27 21
68 23 89 3z"/>
<path d="M300 333 c0 -27 4 -54 9 -62 10 -16 45 -10 76 13 20 14 19 16 -20 55
-52 54 -65 53 -65 -6z"/>
</g>
</svg>
