<?xml version="1.0" standalone="no"?>
<!DOCTYPE svg PUBLIC "-//W3C//DTD SVG 20010904//EN"
 "http://www.w3.org/TR/2001/REC-SVG-20010904/DTD/svg10.dtd">
<svg version="1.0" xmlns="http://www.w3.org/2000/svg"
 width="96.000000pt" height="84.000000pt" viewBox="0 0 96.000000 84.000000"
 preserveAspectRatio="xMidYMid meet">
<metadata>
Created by potrace 1.16, written by Peter Selinger 2001-2019
</metadata>
<g transform="translate(0.000000,84.000000) scale(0.100000,-0.100000)"
fill="#000000" stroke="none">
<path d="M244 825 c-7 -18 -1 -202 7 -210 3 -3 22 1 41 10 64 26 141 -13 178
-91 20 -40 22 -55 16 -132 -6 -79 -4 -92 18 -138 40 -86 135 -136 196 -104 27
14 35 5 45 -49 3 -20 14 -53 23 -73 l17 -37 88 -1 87 0 0 420 c0 399 -1 420
-18 420 -17 0 -18 -6 -9 -72 12 -90 -4 -233 -34 -315 -24 -65 -75 -146 -114
-183 -32 -30 -32 -17 3 56 25 54 27 69 27 174 0 106 -2 120 -28 172 -17 35
-51 78 -88 112 l-60 56 -195 0 c-165 0 -196 -2 -200 -15z m391 -359 c16 -11
17 -19 9 -56 -5 -24 -15 -45 -21 -48 -18 -5 -73 52 -73 77 0 36 51 52 85 27z"/>
<path d="M169 518 c-38 -40 -81 -96 -94 -123 -45 -92 -65 -231 -49 -349 l7
-46 114 0 115 0 -32 26 c-63 54 -90 145 -90 307 0 106 21 180 53 193 15 5 62
64 51 64 -3 0 -37 -33 -75 -72z"/>
<path d="M290 425 c-7 -9 -9 -26 -5 -47 14 -64 37 -73 82 -33 l28 25 -39 35
c-44 39 -49 41 -66 20z"/>
</g>
</svg>
