<?xml version="1.0" standalone="no"?>
<!DOCTYPE svg PUBLIC "-//W3C//DTD SVG 20010904//EN"
 "http://www.w3.org/TR/2001/REC-SVG-20010904/DTD/svg10.dtd">
<svg version="1.0" xmlns="http://www.w3.org/2000/svg"
 width="96.000000pt" height="84.000000pt" viewBox="0 0 96.000000 84.000000"
 preserveAspectRatio="xMidYMid meet">
<metadata>
Created by potrace 1.16, written by Peter Selinger 2001-2019
</metadata>
<g transform="translate(0.000000,84.000000) scale(0.100000,-0.100000)"
fill="#000000" stroke="none">
<path d="M84 823 c-3 -10 -10 -26 -15 -35 -5 -10 -9 -32 -9 -50 -1 -18 -7 -67
-14 -108 -8 -41 -10 -79 -6 -85 9 -13 -7 -162 -25 -242 -9 -36 -15 -111 -15
-182 l0 -121 480 0 480 0 0 54 0 54 -37 9 -38 9 -11 120 c-12 139 -27 174
-101 226 -46 33 -49 45 -28 100 6 15 2 18 -25 18 -27 0 -31 3 -25 18 9 22 32
135 38 190 l5 42 -324 0 c-300 0 -325 -1 -330 -17z m205 -224 c-6 -19 -13 -40
-15 -48 -3 -8 -7 -12 -9 -9 -3 3 0 20 6 39 6 19 13 40 15 48 3 8 7 12 9 9 3
-3 0 -20 -6 -39z"/>
</g>
</svg>
