<?xml version="1.0" standalone="no"?>
<!DOCTYPE svg PUBLIC "-//W3C//DTD SVG 20010904//EN"
 "http://www.w3.org/TR/2001/REC-SVG-20010904/DTD/svg10.dtd">
<svg version="1.0" xmlns="http://www.w3.org/2000/svg"
 width="96.000000pt" height="84.000000pt" viewBox="0 0 96.000000 84.000000"
 preserveAspectRatio="xMidYMid meet">
<metadata>
Created by potrace 1.16, written by Peter Selinger 2001-2019
</metadata>
<g transform="translate(0.000000,84.000000) scale(0.100000,-0.100000)"
fill="#000000" stroke="none">
<path d="M0 420 l0 -420 480 0 480 0 0 420 0 420 -480 0 -480 0 0 -420z m466
219 c4 -8 9 -8 17 0 17 17 42 13 62 -9 17 -18 17 -20 2 -14 -9 3 -17 2 -17 -4
0 -5 7 -12 15 -16 8 -3 15 -12 15 -21 0 -8 5 -15 11 -15 6 0 8 -11 4 -29 -5
-25 -3 -29 21 -35 19 -5 24 -10 15 -15 -7 -5 10 -6 39 -3 43 4 54 1 71 -16 27
-30 25 -58 -6 -66 -14 -4 -33 -2 -43 3 -9 5 -36 12 -59 16 -36 6 -43 4 -43 -9
0 -20 -29 -21 -36 -1 -4 8 -18 15 -34 15 -16 0 -30 4 -32 9 -1 4 -23 11 -48
14 -32 4 -40 3 -27 -4 9 -6 17 -14 17 -20 0 -5 -10 -3 -22 5 -13 8 -38 17 -55
21 -18 4 -36 11 -39 17 -5 7 20 8 80 3 l86 -7 11 28 c7 21 7 35 -3 54 -7 14
-14 28 -16 33 -2 4 3 7 11 7 9 0 18 -8 20 -17 4 -15 5 -15 6 -2 0 9 -13 28
-29 43 -17 15 -28 31 -25 36 8 13 22 13 31 -1z"/>
<path d="M486 495 c-11 -30 -6 -40 11 -22 12 12 14 20 6 28 -7 7 -12 6 -17 -6z"/>
</g>
</svg>
