<?xml version="1.0" standalone="no"?>
<!DOCTYPE svg PUBLIC "-//W3C//DTD SVG 20010904//EN"
 "http://www.w3.org/TR/2001/REC-SVG-20010904/DTD/svg10.dtd">
<svg version="1.0" xmlns="http://www.w3.org/2000/svg"
 width="96.000000pt" height="84.000000pt" viewBox="0 0 96.000000 84.000000"
 preserveAspectRatio="xMidYMid meet">
<metadata>
Created by potrace 1.16, written by Peter Selinger 2001-2019
</metadata>
<g transform="translate(0.000000,84.000000) scale(0.100000,-0.100000)"
fill="#000000" stroke="none">
<path d="M242 778 c-11 -35 -22 -75 -25 -90 l-4 -27 38 20 c48 24 90 24 137 0
47 -24 66 -45 91 -101 24 -54 26 -112 6 -170 -23 -66 -19 -138 11 -199 44 -87
115 -119 217 -97 l38 8 -7 -61 -6 -61 111 0 111 0 -1 278 0 277 -23 -75 c-12
-41 -33 -95 -45 -120 -29 -55 -82 -133 -87 -127 -2 2 6 30 17 63 27 75 35 187
20 275 -15 83 -63 168 -128 227 l-47 42 -202 0 -202 0 -20 -62z m416 -370 c13
-13 16 -56 6 -82 -14 -37 -73 -10 -88 40 -12 41 51 73 82 42z"/>
<path d="M158 583 c-45 -54 -110 -168 -132 -235 -23 -67 -26 -93 -26 -212 l0
-136 130 0 130 0 -41 37 c-22 20 -49 53 -59 73 -62 122 -70 363 -15 430 15 18
37 60 32 60 -2 0 -11 -8 -19 -17z"/>
<path d="M282 498 c-17 -17 -15 -74 4 -92 21 -21 40 -20 64 4 25 25 25 41 -1
74 -22 28 -48 33 -67 14z"/>
</g>
</svg>
