<?xml version="1.0" standalone="no"?>
<!DOCTYPE svg PUBLIC "-//W3C//DTD SVG 20010904//EN"
 "http://www.w3.org/TR/2001/REC-SVG-20010904/DTD/svg10.dtd">
<svg version="1.0" xmlns="http://www.w3.org/2000/svg"
 width="96.000000pt" height="84.000000pt" viewBox="0 0 96.000000 84.000000"
 preserveAspectRatio="xMidYMid meet">
<metadata>
Created by potrace 1.16, written by Peter Selinger 2001-2019
</metadata>
<g transform="translate(0.000000,84.000000) scale(0.100000,-0.100000)"
fill="#000000" stroke="none">
<path d="M224 803 c-48 -60 -49 -66 -8 -44 53 29 96 35 141 21 95 -31 153
-117 153 -228 0 -50 -7 -79 -32 -135 -51 -116 -42 -228 25 -303 59 -69 146
-91 223 -59 37 15 38 9 1 -32 l-20 -23 126 0 127 0 0 197 0 197 -39 -80 c-36
-73 -81 -146 -81 -134 0 3 9 31 20 63 69 197 30 403 -103 544 l-50 53 -227 0
-227 0 -29 -37z m462 -482 c9 -17 9 -32 2 -53 -9 -25 -15 -29 -42 -26 -43 4
-65 48 -41 84 21 32 64 30 81 -5z"/>
<path d="M87 608 c-13 -24 -39 -71 -56 -105 l-31 -62 0 -221 0 -220 121 0 121
0 -54 59 c-120 130 -159 351 -93 527 13 35 22 64 21 64 -2 0 -15 -19 -29 -42z"/>
<path d="M270 584 c-17 -20 -17 -68 0 -88 28 -35 90 -8 90 37 0 54 -60 88 -90
51z"/>
</g>
</svg>
