<?xml version="1.0" standalone="no"?>
<!DOCTYPE svg PUBLIC "-//W3C//DTD SVG 20010904//EN"
 "http://www.w3.org/TR/2001/REC-SVG-20010904/DTD/svg10.dtd">
<svg version="1.0" xmlns="http://www.w3.org/2000/svg"
 width="96.000000pt" height="84.000000pt" viewBox="0 0 96.000000 84.000000"
 preserveAspectRatio="xMidYMid meet">
<metadata>
Created by potrace 1.16, written by Peter Selinger 2001-2019
</metadata>
<g transform="translate(0.000000,84.000000) scale(0.100000,-0.100000)"
fill="#000000" stroke="none">
<path d="M465 788 c57 -60 75 -106 75 -194 0 -65 -17 -109 -73 -192 -46 -68
-61 -121 -53 -195 8 -81 47 -151 104 -189 24 -16 53 -18 235 -18 l207 0 0 141
0 141 -49 -74 c-27 -40 -62 -84 -77 -98 l-27 -25 27 40 c77 116 100 326 50
473 -30 91 -53 131 -113 195 l-44 47 -156 0 -157 0 51 -52z m195 -508 c38 -38
16 -100 -34 -100 -31 0 -46 18 -46 56 0 23 7 38 22 48 29 20 34 20 58 -4z"/>
<path d="M114 723 c-22 -25 -56 -72 -76 -102 l-38 -56 0 -282 0 -283 115 0
116 0 -45 47 c-161 168 -188 457 -62 666 19 31 33 57 31 57 -1 0 -20 -21 -41
-47z"/>
<path d="M286 648 c-21 -30 -20 -71 2 -91 40 -37 92 -10 92 47 0 59 -63 89
-94 44z"/>
</g>
</svg>
