<?xml version="1.0" standalone="no"?>
<!DOCTYPE svg PUBLIC "-//W3C//DTD SVG 20010904//EN"
 "http://www.w3.org/TR/2001/REC-SVG-20010904/DTD/svg10.dtd">
<svg version="1.0" xmlns="http://www.w3.org/2000/svg"
 width="96.000000pt" height="84.000000pt" viewBox="0 0 96.000000 84.000000"
 preserveAspectRatio="xMidYMid meet">
<metadata>
Created by potrace 1.16, written by Peter Selinger 2001-2019
</metadata>
<g transform="translate(0.000000,84.000000) scale(0.100000,-0.100000)"
fill="#000000" stroke="none">
<path d="M125 803 c-27 -19 -67 -52 -87 -71 l-38 -36 0 -348 0 -348 111 0 111
0 -31 31 c-94 94 -142 209 -149 359 -7 162 30 279 124 395 54 67 37 74 -41 18z"/>
<path d="M568 813 c32 -46 44 -100 40 -177 -5 -100 -38 -154 -133 -217 -100
-66 -130 -122 -130 -239 0 -72 4 -92 25 -130 l25 -45 172 -3 171 -2 47 52 c87
97 134 226 135 370 0 136 -53 279 -135 367 l-48 51 -94 0 -94 0 19 -27z m32
-593 c18 -33 8 -73 -22 -89 -24 -14 -28 -14 -47 3 -23 21 -27 56 -11 87 15 26
66 26 80 -1z"/>
<path d="M360 710 c-11 -11 -20 -33 -20 -50 0 -31 30 -70 53 -70 32 0 57 31
57 70 0 29 -6 43 -22 54 -30 21 -44 20 -68 -4z"/>
<path d="M945 131 c-3 -6 -42 -37 -86 -70 l-80 -61 90 0 91 0 0 70 c0 68 -3
80 -15 61z"/>
</g>
</svg>
