<?xml version="1.0" standalone="no"?>
<!DOCTYPE svg PUBLIC "-//W3C//DTD SVG 20010904//EN"
 "http://www.w3.org/TR/2001/REC-SVG-20010904/DTD/svg10.dtd">
<svg version="1.0" xmlns="http://www.w3.org/2000/svg"
 width="96.000000pt" height="84.000000pt" viewBox="0 0 96.000000 84.000000"
 preserveAspectRatio="xMidYMid meet">
<metadata>
Created by potrace 1.16, written by Peter Selinger 2001-2019
</metadata>
<g transform="translate(0.000000,84.000000) scale(0.100000,-0.100000)"
fill="#000000" stroke="none">
<path d="M0 420 l0 -420 69 0 70 0 -30 65 c-36 80 -37 91 -3 40 15 -22 41 -55
57 -72 l31 -33 287 0 287 0 41 47 c85 96 132 231 130 378 -1 118 -13 163 -21
83 -11 -100 -64 -184 -143 -225 -44 -24 -134 -21 -176 5 -52 32 -96 82 -119
137 -25 59 -70 109 -124 137 -60 31 -151 22 -208 -19 -54 -39 -108 -136 -108
-196 -1 -36 -2 -39 -12 -23 -17 29 -4 220 20 286 28 79 55 130 96 179 20 24
36 45 36 47 0 2 -40 4 -90 4 l-90 0 0 -420z m311 -61 c34 -34 8 -109 -38 -109
-21 0 -53 38 -53 63 0 31 27 67 51 67 10 0 28 -9 40 -21z"/>
<path d="M804 808 c14 -18 40 -55 56 -83 38 -64 38 -52 -1 41 -27 64 -34 74
-56 74 l-26 0 27 -32z"/>
<path d="M647 582 c-23 -25 -22 -85 1 -105 22 -20 65 -22 81 -4 23 28 23 71 1
100 -25 31 -60 35 -83 9z"/>
</g>
</svg>
