<?xml version="1.0" standalone="no"?>
<!DOCTYPE svg PUBLIC "-//W3C//DTD SVG 20010904//EN"
 "http://www.w3.org/TR/2001/REC-SVG-20010904/DTD/svg10.dtd">
<svg version="1.0" xmlns="http://www.w3.org/2000/svg"
 width="96.000000pt" height="84.000000pt" viewBox="0 0 96.000000 84.000000"
 preserveAspectRatio="xMidYMid meet">
<metadata>
Created by potrace 1.16, written by Peter Selinger 2001-2019
</metadata>
<g transform="translate(0.000000,84.000000) scale(0.100000,-0.100000)"
fill="#000000" stroke="none">
<path d="M3 608 c4 -155 11 -258 21 -308 20 -92 72 -204 121 -259 l37 -41 302
0 302 0 37 49 c40 52 97 157 97 180 0 8 -13 -4 -30 -27 -43 -60 -104 -92 -175
-92 -150 0 -244 123 -232 303 13 191 -83 327 -230 327 -80 0 -140 -32 -186
-100 -9 -13 -17 -19 -17 -12 0 22 59 130 90 165 16 19 30 37 30 41 0 3 -39 6
-86 6 l-86 0 5 -232z m289 -95 c24 -21 23 -68 -2 -93 -26 -26 -36 -25 -65 5
-29 28 -31 51 -9 83 18 26 50 28 76 5z"/>
<path d="M813 808 c77 -95 123 -211 136 -345 7 -70 8 -42 7 142 l-1 230 -84 3
-84 3 26 -33z"/>
<path d="M669 431 c-47 -38 -18 -131 41 -131 23 0 48 30 56 66 4 21 0 37 -16
57 -25 32 -49 34 -81 8z"/>
<path d="M2 20 c0 -14 2 -19 5 -12 2 6 2 18 0 25 -3 6 -5 1 -5 -13z"/>
</g>
</svg>
