<?xml version="1.0" standalone="no"?>
<!DOCTYPE svg PUBLIC "-//W3C//DTD SVG 20010904//EN"
 "http://www.w3.org/TR/2001/REC-SVG-20010904/DTD/svg10.dtd">
<svg version="1.0" xmlns="http://www.w3.org/2000/svg"
 width="96.000000pt" height="84.000000pt" viewBox="0 0 96.000000 84.000000"
 preserveAspectRatio="xMidYMid meet">
<metadata>
Created by potrace 1.16, written by Peter Selinger 2001-2019
</metadata>
<g transform="translate(0.000000,84.000000) scale(0.100000,-0.100000)"
fill="#000000" stroke="none">
<path d="M0 739 l0 -101 44 60 c61 82 70 84 31 4 -46 -93 -65 -174 -65 -282 0
-146 46 -286 125 -378 l37 -42 170 0 170 0 -35 40 c-87 102 -82 271 12 387 83
104 83 268 0 384 l-20 29 -235 0 -234 0 0 -101z m355 -79 c21 -24 24 -72 5
-94 -16 -20 -64 -21 -80 -1 -20 24 -14 77 11 97 28 23 42 23 64 -2z"/>
<path d="M800 834 c0 -4 14 -22 30 -41 56 -63 108 -189 123 -298 2 -16 5 54 6
158 l1 187 -80 0 c-44 0 -80 -3 -80 -6z"/>
<path d="M944 303 c-12 -73 -56 -180 -100 -243 -17 -24 -11 -19 21 15 91 99
96 111 93 211 l-3 89 -11 -72z"/>
<path d="M600 280 c-40 -40 -14 -120 39 -120 56 0 86 76 46 120 -23 26 -59 26
-85 0z"/>
</g>
</svg>
