<?xml version="1.0" standalone="no"?>
<!DOCTYPE svg PUBLIC "-//W3C//DTD SVG 20010904//EN"
 "http://www.w3.org/TR/2001/REC-SVG-20010904/DTD/svg10.dtd">
<svg version="1.0" xmlns="http://www.w3.org/2000/svg"
 width="96.000000pt" height="84.000000pt" viewBox="0 0 96.000000 84.000000"
 preserveAspectRatio="xMidYMid meet">
<metadata>
Created by potrace 1.16, written by Peter Selinger 2001-2019
</metadata>
<g transform="translate(0.000000,84.000000) scale(0.100000,-0.100000)"
fill="#000000" stroke="none">
<path d="M126 797 c-164 -200 -165 -535 -2 -754 l31 -42 76 -1 77 0 -14 38
c-18 50 -17 160 1 213 32 90 84 136 195 169 84 25 132 65 171 145 29 59 31 70
27 142 -3 43 -10 90 -16 106 l-12 27 -249 0 -250 0 -35 -43z m368 -69 c22 -31
20 -52 -8 -85 -21 -25 -26 -26 -50 -15 -62 28 -51 122 15 122 17 0 34 -8 43
-22z"/>
<path d="M810 835 c0 -3 16 -26 37 -52 45 -59 81 -139 98 -218 13 -58 13 -56
14 108 l1 167 -75 0 c-41 0 -75 -2 -75 -5z"/>
<path d="M946 280 c-10 -66 -45 -148 -92 -216 l-44 -64 75 0 75 0 0 160 c0 88
-2 160 -4 160 -2 0 -6 -18 -10 -40z"/>
<path d="M467 202 c-37 -41 -9 -122 41 -122 33 0 45 8 61 38 14 27 8 63 -15
86 -21 22 -67 20 -87 -2z"/>
</g>
</svg>
