<?xml version="1.0" standalone="no"?>
<!DOCTYPE svg PUBLIC "-//W3C//DTD SVG 20010904//EN"
 "http://www.w3.org/TR/2001/REC-SVG-20010904/DTD/svg10.dtd">
<svg version="1.0" xmlns="http://www.w3.org/2000/svg"
 width="96.000000pt" height="84.000000pt" viewBox="0 0 96.000000 84.000000"
 preserveAspectRatio="xMidYMid meet">
<metadata>
Created by potrace 1.16, written by Peter Selinger 2001-2019
</metadata>
<g transform="translate(0.000000,84.000000) scale(0.100000,-0.100000)"
fill="#000000" stroke="none">
<path d="M0 420 l0 -420 480 0 480 0 0 420 0 420 -480 0 -480 0 0 -420z m473
228 c3 -10 7 -10 20 0 18 16 53 8 61 -13 3 -9 0 -12 -10 -8 -20 8 -17 -6 6
-25 11 -10 23 -35 28 -57 6 -32 13 -41 32 -43 15 -3 19 -6 11 -12 -7 -4 9 -5
36 -3 41 4 51 2 71 -19 46 -50 3 -78 -79 -54 -66 20 -79 20 -79 1 0 -8 -7 -15
-15 -15 -8 0 -15 7 -15 15 0 10 -10 15 -29 15 -17 0 -33 5 -36 10 -3 6 -23 10
-43 10 -29 0 -34 -3 -22 -11 18 -12 15 -11 -62 10 -75 21 -58 33 33 25 64 -5
83 -4 90 7 13 21 11 73 -3 87 -10 10 -10 14 0 21 9 6 8 12 -8 26 -11 10 -20
24 -20 32 0 17 27 17 33 1z"/>
<path d="M480 570 c0 -5 5 -10 10 -10 6 0 10 5 10 10 0 6 -4 10 -10 10 -5 0
-10 -4 -10 -10z"/>
<path d="M491 502 c-7 -13 -11 -26 -8 -28 8 -8 29 25 25 38 -3 8 -9 4 -17 -10z"/>
</g>
</svg>
