<?xml version="1.0" standalone="no"?>
<!DOCTYPE svg PUBLIC "-//W3C//DTD SVG 20010904//EN"
 "http://www.w3.org/TR/2001/REC-SVG-20010904/DTD/svg10.dtd">
<svg version="1.0" xmlns="http://www.w3.org/2000/svg"
 width="96.000000pt" height="84.000000pt" viewBox="0 0 96.000000 84.000000"
 preserveAspectRatio="xMidYMid meet">
<metadata>
Created by potrace 1.16, written by Peter Selinger 2001-2019
</metadata>
<g transform="translate(0.000000,84.000000) scale(0.100000,-0.100000)"
fill="#000000" stroke="none">
<path d="M133 818 c-41 -45 -84 -125 -108 -201 -21 -64 -25 -98 -25 -195 0
-138 15 -208 66 -302 36 -65 81 -126 89 -118 3 2 -4 28 -15 56 -53 139 5 314
123 371 68 33 137 28 221 -14 106 -53 188 -46 268 25 86 75 119 210 80 325
-11 33 -19 61 -17 63 7 7 68 -83 93 -137 14 -30 31 -75 38 -100 11 -43 12 -36
13 101 l1 147 -403 1 -403 0 -21 -22z m501 -113 c23 -24 28 -52 14 -82 -24
-50 -91 -39 -103 17 -13 60 48 105 89 65z"/>
<path d="M947 250 c-9 -46 -67 -165 -101 -210 l-27 -35 67 -3 c36 -2 68 -1 70
1 3 2 3 67 2 143 -2 94 -5 127 -11 104z"/>
<path d="M320 240 c-43 -43 -13 -130 44 -130 36 0 69 46 62 85 -7 34 -39 65
-67 65 -10 0 -28 -9 -39 -20z"/>
</g>
</svg>
