<?xml version="1.0" standalone="no"?>
<!DOCTYPE svg PUBLIC "-//W3C//DTD SVG 20010904//EN"
 "http://www.w3.org/TR/2001/REC-SVG-20010904/DTD/svg10.dtd">
<svg version="1.0" xmlns="http://www.w3.org/2000/svg"
 width="96.000000pt" height="84.000000pt" viewBox="0 0 96.000000 84.000000"
 preserveAspectRatio="xMidYMid meet">
<metadata>
Created by potrace 1.16, written by Peter Selinger 2001-2019
</metadata>
<g transform="translate(0.000000,84.000000) scale(0.100000,-0.100000)"
fill="#000000" stroke="none">
<path d="M123 818 c-36 -39 -80 -120 -102 -185 -17 -50 -21 -86 -20 -175 1
-89 3 -105 10 -75 22 94 104 187 183 208 117 32 218 -29 283 -171 40 -88 91
-145 151 -171 113 -49 239 8 303 137 22 46 24 61 27 252 l3 202 -45 0 c-25 0
-46 -1 -46 -3 0 -2 11 -31 25 -65 30 -74 32 -102 3 -47 -11 22 -34 57 -50 78
l-30 37 -337 0 c-337 0 -338 0 -358 -22z m612 -253 c14 -13 25 -36 25 -50 0
-44 -53 -80 -86 -57 -15 10 -34 47 -34 67 0 18 43 65 60 65 6 0 22 -11 35 -25z"/>
<path d="M232 393 c-7 -3 -19 -18 -28 -35 -29 -56 16 -129 69 -112 32 10 46
34 47 77 0 56 -41 89 -88 70z"/>
<path d="M936 198 c-11 -34 -39 -91 -63 -126 -24 -36 -43 -66 -43 -68 0 -2 29
-4 65 -4 l65 0 0 130 c0 72 -1 130 -2 130 -2 0 -12 -28 -22 -62z"/>
<path d="M30 154 c1 -5 13 -40 28 -79 21 -54 32 -71 50 -73 25 -4 28 5 8 27
-8 9 -31 43 -50 75 -20 33 -36 56 -36 50z"/>
</g>
</svg>
