<?xml version="1.0" standalone="no"?>
<!DOCTYPE svg PUBLIC "-//W3C//DTD SVG 20010904//EN"
 "http://www.w3.org/TR/2001/REC-SVG-20010904/DTD/svg10.dtd">
<svg version="1.0" xmlns="http://www.w3.org/2000/svg"
 width="96.000000pt" height="84.000000pt" viewBox="0 0 96.000000 84.000000"
 preserveAspectRatio="xMidYMid meet">
<metadata>
Created by potrace 1.16, written by Peter Selinger 2001-2019
</metadata>
<g transform="translate(0.000000,84.000000) scale(0.100000,-0.100000)"
fill="#000000" stroke="none">
<path d="M105 809 c-14 -18 -38 -55 -52 -83 l-26 -51 41 42 c69 71 146 96 228
74 144 -39 219 -197 180 -382 -33 -158 26 -298 149 -355 27 -13 68 -24 90 -24
49 0 133 38 169 76 39 43 32 15 -14 -49 l-39 -57 64 0 65 0 0 293 c0 334 -5
363 -84 480 l-41 62 -352 3 -351 2 -27 -31z m637 -426 c36 -33 14 -123 -31
-123 -33 0 -61 30 -61 66 0 60 53 93 92 57z"/>
<path d="M215 565 c-48 -47 -22 -135 39 -135 31 0 66 43 66 82 0 32 -39 78
-65 78 -9 0 -27 -11 -40 -25z"/>
<path d="M1 118 l-1 -118 60 0 c33 0 60 2 60 4 0 2 -17 30 -39 62 -21 33 -48
84 -59 114 l-21 55 0 -117z"/>
</g>
</svg>
