<?xml version="1.0" standalone="no"?>
<!DOCTYPE svg PUBLIC "-//W3C//DTD SVG 20010904//EN"
 "http://www.w3.org/TR/2001/REC-SVG-20010904/DTD/svg10.dtd">
<svg version="1.0" xmlns="http://www.w3.org/2000/svg"
 width="96.000000pt" height="84.000000pt" viewBox="0 0 96.000000 84.000000"
 preserveAspectRatio="xMidYMid meet">
<metadata>
Created by potrace 1.16, written by Peter Selinger 2001-2019
</metadata>
<g transform="translate(0.000000,84.000000) scale(0.100000,-0.100000)"
fill="#000000" stroke="none">
<path d="M43 804 c-43 -36 -43 -36 -42 -102 l0 -67 25 54 c13 29 40 76 59 102
28 40 32 49 17 49 -9 0 -36 -16 -59 -36z"/>
<path d="M560 835 c0 -3 9 -34 21 -68 43 -126 8 -236 -113 -357 -55 -56 -79
-88 -91 -124 -22 -65 -22 -177 0 -238 l17 -48 222 0 222 0 26 35 c15 19 42 67
61 107 l35 72 0 206 0 206 -35 72 c-19 40 -46 88 -61 107 l-26 35 -139 0 c-77
0 -139 -2 -139 -5z m78 -601 c44 -30 20 -124 -32 -124 -29 0 -43 11 -55 43
-12 32 -1 70 26 86 25 14 35 14 61 -5z"/>
<path d="M316 719 c-35 -27 -36 -86 -3 -117 29 -27 47 -28 81 -1 35 27 36 86
3 117 -29 27 -47 28 -81 1z"/>
<path d="M0 108 l0 -108 59 0 59 0 -40 60 c-22 34 -49 82 -59 108 l-18 47 -1
-107z"/>
<path d="M911 40 l-44 -40 47 0 46 0 0 40 c0 22 -1 40 -2 40 -2 -1 -23 -19
-47 -40z"/>
</g>
</svg>
