<?xml version="1.0" standalone="no"?>
<!DOCTYPE svg PUBLIC "-//W3C//DTD SVG 20010904//EN"
 "http://www.w3.org/TR/2001/REC-SVG-20010904/DTD/svg10.dtd">
<svg version="1.0" xmlns="http://www.w3.org/2000/svg"
 width="96.000000pt" height="84.000000pt" viewBox="0 0 96.000000 84.000000"
 preserveAspectRatio="xMidYMid meet">
<metadata>
Created by potrace 1.16, written by Peter Selinger 2001-2019
</metadata>
<g transform="translate(0.000000,84.000000) scale(0.100000,-0.100000)"
fill="#000000" stroke="none">
<path d="M0 753 l0 -88 20 42 c10 24 33 63 50 88 l31 45 -51 0 -50 0 0 -87z"/>
<path d="M925 720 c25 -116 12 -201 -44 -287 -49 -76 -119 -116 -200 -116 -87
0 -129 25 -230 138 -93 104 -259 103 -350 -1 -57 -65 -74 -111 -79 -213 -3
-57 -8 -88 -13 -80 -5 9 -9 -21 -9 -73 l0 -88 428 0 428 0 21 28 c11 16 35 56
52 90 l31 61 0 243 c-1 222 -2 246 -20 283 -13 25 -18 31 -15 15z m-596 -436
c26 -34 27 -68 1 -94 -42 -42 -100 -11 -100 54 0 63 62 87 99 40z"/>
<path d="M627 662 c-45 -49 -17 -142 42 -142 36 0 71 40 71 80 0 64 -75 104
-113 62z"/>
</g>
</svg>
