<?xml version="1.0" standalone="no"?>
<!DOCTYPE svg PUBLIC "-//W3C//DTD SVG 20010904//EN"
 "http://www.w3.org/TR/2001/REC-SVG-20010904/DTD/svg10.dtd">
<svg version="1.0" xmlns="http://www.w3.org/2000/svg"
 width="96.000000pt" height="84.000000pt" viewBox="0 0 96.000000 84.000000"
 preserveAspectRatio="xMidYMid meet">
<metadata>
Created by potrace 1.16, written by Peter Selinger 2001-2019
</metadata>
<g transform="translate(0.000000,84.000000) scale(0.100000,-0.100000)"
fill="#000000" stroke="none">
<path d="M0 793 l1 -48 30 35 30 35 -31 -62 -30 -62 0 -271 0 -271 30 -57 c51
-99 32 -92 249 -92 105 0 191 2 191 4 0 2 -12 25 -27 51 -19 35 -27 66 -31
120 -6 93 15 163 73 248 80 118 95 245 42 361 l-26 56 -250 0 -251 0 0 -47z
m344 -115 c35 -50 9 -118 -45 -118 -53 0 -79 80 -39 120 27 27 65 26 84 -2z"/>
<path d="M887 828 c4 -7 22 -37 40 -67 l33 -55 0 67 0 67 -41 0 c-30 0 -38 -3
-32 -12z"/>
<path d="M616 276 c-50 -49 -23 -146 40 -146 59 0 96 92 57 138 -30 35 -68 38
-97 8z"/>
<path d="M937 98 c-9 -18 -26 -49 -38 -68 -20 -32 -18 -31 19 10 23 25 41 55
42 68 0 30 -3 28 -23 -10z"/>
</g>
</svg>
