<?xml version="1.0" standalone="no"?>
<!DOCTYPE svg PUBLIC "-//W3C//DTD SVG 20010904//EN"
 "http://www.w3.org/TR/2001/REC-SVG-20010904/DTD/svg10.dtd">
<svg version="1.0" xmlns="http://www.w3.org/2000/svg"
 width="96.000000pt" height="84.000000pt" viewBox="0 0 96.000000 84.000000"
 preserveAspectRatio="xMidYMid meet">
<metadata>
Created by potrace 1.16, written by Peter Selinger 2001-2019
</metadata>
<g transform="translate(0.000000,84.000000) scale(0.100000,-0.100000)"
fill="#000000" stroke="none">
<path d="M58 823 c-8 -10 -24 -34 -36 -54 -21 -35 -22 -46 -22 -350 l0 -313
32 -53 c18 -29 35 -53 39 -53 3 0 -3 26 -14 58 -51 150 20 341 150 402 38 18
60 21 119 18 63 -3 79 -8 116 -35 115 -85 179 -106 271 -89 158 30 263 272
193 441 -21 48 -12 44 24 -12 l30 -48 0 53 0 52 -443 0 c-410 0 -445 -1 -459
-17z m627 -118 c27 -26 31 -54 14 -88 -24 -45 -67 -50 -98 -11 -27 34 -27 64
0 98 26 33 53 33 84 1z"/>
<path d="M277 260 c-48 -38 -44 -112 8 -146 69 -45 140 66 83 130 -33 35 -60
40 -91 16z"/>
<path d="M930 57 c-14 -23 -26 -45 -28 -49 -2 -5 10 -8 27 -8 31 0 31 1 31 50
0 28 -1 50 -2 50 -2 0 -14 -19 -28 -43z"/>
</g>
</svg>
