<?xml version="1.0" standalone="no"?>
<!DOCTYPE svg PUBLIC "-//W3C//DTD SVG 20010904//EN"
 "http://www.w3.org/TR/2001/REC-SVG-20010904/DTD/svg10.dtd">
<svg version="1.0" xmlns="http://www.w3.org/2000/svg"
 width="96.000000pt" height="84.000000pt" viewBox="0 0 96.000000 84.000000"
 preserveAspectRatio="xMidYMid meet">
<metadata>
Created by potrace 1.16, written by Peter Selinger 2001-2019
</metadata>
<g transform="translate(0.000000,84.000000) scale(0.100000,-0.100000)"
fill="#000000" stroke="none">
<path d="M0 420 l0 -420 480 0 480 0 0 420 0 420 -480 0 -480 0 0 -420z m486
244 c-6 -16 10 -19 19 -4 9 15 20 12 46 -10 17 -14 19 -18 7 -14 -25 9 -22 0
12 -37 22 -25 27 -36 19 -46 -16 -18 -3 -43 21 -43 11 0 20 -5 20 -10 0 -7 13
-8 36 -4 29 5 40 2 60 -17 13 -12 24 -30 24 -40 0 -17 -35 -36 -55 -30 -23 7
-116 31 -120 31 -2 0 -2 -7 1 -15 4 -10 0 -15 -15 -15 -13 0 -21 6 -21 16 0
12 -6 15 -22 11 -13 -3 -32 1 -42 9 -24 17 -70 19 -60 2 5 -8 2 -9 -12 -3 -10
4 -28 9 -39 11 -79 10 -86 36 -7 28 102 -11 105 -11 121 19 15 25 15 30 0 56
-12 21 -14 32 -6 40 7 7 5 17 -8 31 -16 18 -17 23 -5 30 8 6 11 10 7 10 -5 0
-5 5 -2 10 9 15 27 1 21 -16z"/>
<path d="M492 495 c-13 -29 -5 -33 14 -7 15 20 18 32 6 32 -5 0 -14 -11 -20
-25z"/>
</g>
</svg>
