<?xml version="1.0" standalone="no"?>
<!DOCTYPE svg PUBLIC "-//W3C//DTD SVG 20010904//EN"
 "http://www.w3.org/TR/2001/REC-SVG-20010904/DTD/svg10.dtd">
<svg version="1.0" xmlns="http://www.w3.org/2000/svg"
 width="96.000000pt" height="84.000000pt" viewBox="0 0 96.000000 84.000000"
 preserveAspectRatio="xMidYMid meet">
<metadata>
Created by potrace 1.16, written by Peter Selinger 2001-2019
</metadata>
<g transform="translate(0.000000,84.000000) scale(0.100000,-0.100000)"
fill="#000000" stroke="none">
<path d="M27 791 c-23 -41 -27 -61 -27 -129 l0 -80 32 30 c167 156 401 54 447
-195 14 -78 41 -136 87 -186 54 -60 106 -85 179 -85 71 -1 114 15 173 61 l42
34 0 253 0 252 -30 47 -30 47 -423 0 -424 0 -26 -49z m753 -271 c25 -25 27
-86 3 -112 -20 -22 -61 -23 -85 -1 -41 37 -11 133 42 133 11 0 29 -9 40 -20z"/>
<path d="M178 440 c-27 -27 -30 -36 -25 -73 10 -73 72 -100 118 -51 34 36 32
99 -5 131 -36 30 -51 29 -88 -7z"/>
<path d="M935 53 c-11 -21 -21 -41 -23 -45 -2 -5 8 -8 22 -8 24 0 26 3 26 45
0 25 -1 45 -3 45 -2 0 -12 -17 -22 -37z"/>
<path d="M0 40 c0 -36 3 -40 25 -40 14 0 25 2 25 4 0 8 -42 76 -46 76 -2 0 -4
-18 -4 -40z"/>
</g>
</svg>
