<?xml version="1.0" standalone="no"?>
<!DOCTYPE svg PUBLIC "-//W3C//DTD SVG 20010904//EN"
 "http://www.w3.org/TR/2001/REC-SVG-20010904/DTD/svg10.dtd">
<svg version="1.0" xmlns="http://www.w3.org/2000/svg"
 width="96.000000pt" height="84.000000pt" viewBox="0 0 96.000000 84.000000"
 preserveAspectRatio="xMidYMid meet">
<metadata>
Created by potrace 1.16, written by Peter Selinger 2001-2019
</metadata>
<g transform="translate(0.000000,84.000000) scale(0.100000,-0.100000)"
fill="#000000" stroke="none">
<path d="M0 815 c0 -14 2 -25 4 -25 2 0 11 11 20 25 16 24 16 25 -4 25 -15 0
-20 -7 -20 -25z"/>
<path d="M682 788 c27 -147 -68 -318 -202 -365 -65 -22 -143 -91 -175 -152
-32 -65 -48 -155 -38 -216 l8 -50 322 -3 321 -2 21 34 c20 32 21 46 21 386 0
340 -1 354 -21 386 l-21 34 -122 0 -123 0 9 -52z m-106 -606 c36 -24 44 -92
14 -122 -46 -46 -110 -12 -110 57 0 53 56 92 96 65z"/>
<path d="M384 798 c-45 -21 -57 -89 -24 -131 41 -51 100 -42 126 19 17 40 11
68 -19 102 -22 24 -49 27 -83 10z"/>
<path d="M0 32 c0 -25 4 -32 20 -32 20 0 20 1 3 28 -9 15 -18 29 -20 31 -2 2
-3 -10 -3 -27z"/>
</g>
</svg>
