<?xml version="1.0" standalone="no"?>
<!DOCTYPE svg PUBLIC "-//W3C//DTD SVG 20010904//EN"
 "http://www.w3.org/TR/2001/REC-SVG-20010904/DTD/svg10.dtd">
<svg version="1.0" xmlns="http://www.w3.org/2000/svg"
 width="96.000000pt" height="84.000000pt" viewBox="0 0 96.000000 84.000000"
 preserveAspectRatio="xMidYMid meet">
<metadata>
Created by potrace 1.16, written by Peter Selinger 2001-2019
</metadata>
<g transform="translate(0.000000,84.000000) scale(0.100000,-0.100000)"
fill="#000000" stroke="none">
<path d="M0 820 c0 -11 2 -20 5 -20 2 0 9 9 15 20 9 16 8 20 -5 20 -8 0 -15
-9 -15 -20z"/>
<path d="M882 803 c6 -21 8 -71 5 -110 -18 -236 -220 -369 -408 -268 -71 38
-181 42 -244 8 -54 -29 -108 -87 -142 -153 -24 -49 -28 -66 -28 -150 0 -52 3
-103 7 -112 7 -17 37 -18 431 -18 l423 0 17 29 c15 26 17 67 17 395 0 406 -1
416 -60 416 -28 0 -28 -1 -18 -37z m-487 -608 c31 -30 32 -73 4 -109 -41 -52
-109 -18 -109 54 0 30 6 43 26 59 34 27 50 26 79 -4z"/>
<path d="M583 780 c-79 -32 -60 -170 24 -170 36 0 60 16 71 49 16 44 -2 97
-38 116 -16 8 -30 15 -32 14 -2 0 -13 -4 -25 -9z"/>
<path d="M0 20 c0 -11 7 -20 15 -20 13 0 14 4 5 20 -6 11 -13 20 -15 20 -3 0
-5 -9 -5 -20z"/>
</g>
</svg>
