<?xml version="1.0" standalone="no"?>
<!DOCTYPE svg PUBLIC "-//W3C//DTD SVG 20010904//EN"
 "http://www.w3.org/TR/2001/REC-SVG-20010904/DTD/svg10.dtd">
<svg version="1.0" xmlns="http://www.w3.org/2000/svg"
 width="96.000000pt" height="84.000000pt" viewBox="0 0 96.000000 84.000000"
 preserveAspectRatio="xMidYMid meet">
<metadata>
Created by potrace 1.16, written by Peter Selinger 2001-2019
</metadata>
<g transform="translate(0.000000,84.000000) scale(0.100000,-0.100000)"
fill="#000000" stroke="none">
<path d="M0 825 c0 -8 2 -15 4 -15 2 0 6 7 10 15 3 8 1 15 -4 15 -6 0 -10 -7
-10 -15z"/>
<path d="M946 825 c4 -8 8 -15 10 -15 2 0 4 7 4 15 0 8 -4 15 -10 15 -5 0 -7
-7 -4 -15z"/>
<path d="M150 627 c-52 -15 -107 -46 -132 -77 -16 -18 -18 -46 -18 -268 1
-189 4 -251 14 -264 12 -17 46 -18 466 -18 420 0 454 1 466 17 10 13 13 58 14
162 l0 145 -32 -31 c-108 -105 -288 -95 -382 20 -19 23 -50 76 -69 117 -43 95
-84 142 -150 174 -66 31 -120 38 -177 23z m119 -273 c56 -71 -18 -168 -84
-112 -20 18 -27 33 -27 61 0 73 69 104 111 51z"/>
<path d="M681 594 c-30 -38 -28 -98 4 -129 50 -51 125 -13 125 63 0 54 -31 92
-75 92 -24 0 -39 -7 -54 -26z"/>
</g>
</svg>
