<?xml version="1.0" standalone="no"?>
<!DOCTYPE svg PUBLIC "-//W3C//DTD SVG 20010904//EN"
 "http://www.w3.org/TR/2001/REC-SVG-20010904/DTD/svg10.dtd">
<svg version="1.0" xmlns="http://www.w3.org/2000/svg"
 width="96.000000pt" height="84.000000pt" viewBox="0 0 96.000000 84.000000"
 preserveAspectRatio="xMidYMid meet">
<metadata>
Created by potrace 1.16, written by Peter Selinger 2001-2019
</metadata>
<g transform="translate(0.000000,84.000000) scale(0.100000,-0.100000)"
fill="#000000" stroke="none">
<path d="M0 420 l0 -420 100 0 100 0 1 78 c0 45 8 97 17 124 46 127 162 218
282 218 84 0 185 77 236 180 23 45 29 72 32 148 l4 92 -386 0 -386 0 0 -420z
m503 393 c25 -29 30 -68 13 -101 -25 -49 -64 -55 -101 -17 -29 28 -33 79 -9
113 19 27 74 30 97 5z"/>
<path d="M474 180 c-33 -13 -54 -50 -54 -93 0 -87 107 -121 145 -46 40 76 -20
168 -91 139z"/>
</g>
</svg>
