<?xml version="1.0" standalone="no"?>
<!DOCTYPE svg PUBLIC "-//W3C//DTD SVG 20010904//EN"
 "http://www.w3.org/TR/2001/REC-SVG-20010904/DTD/svg10.dtd">
<svg version="1.0" xmlns="http://www.w3.org/2000/svg"
 width="96.000000pt" height="84.000000pt" viewBox="0 0 96.000000 84.000000"
 preserveAspectRatio="xMidYMid meet">
<metadata>
Created by potrace 1.16, written by Peter Selinger 2001-2019
</metadata>
<g transform="translate(0.000000,84.000000) scale(0.100000,-0.100000)"
fill="#000000" stroke="none">
<path d="M0 420 l0 -420 480 0 480 0 0 420 0 420 -480 0 -480 0 0 -420z m492
246 c-3 -14 0 -15 17 -4 16 10 25 9 47 -2 26 -14 26 -15 6 -18 -32 -5 -27 -17
15 -37 30 -14 34 -20 22 -29 -23 -18 -12 -56 17 -56 14 0 22 -4 19 -10 -4 -6
10 -10 36 -10 68 0 105 -49 59 -78 -20 -12 -64 -5 -132 23 -14 5 -18 2 -18
-14 0 -12 -6 -21 -15 -21 -8 0 -15 7 -15 15 0 10 -10 15 -29 15 -17 0 -32 4
-36 9 -3 5 -29 9 -58 9 -62 -2 -117 10 -117 23 0 7 29 8 79 3 73 -6 80 -5 90
14 15 27 14 65 -1 80 -10 10 -10 15 -1 20 9 6 7 15 -6 36 -15 22 -17 32 -8 42
16 17 33 11 29 -10z"/>
<path d="M550 549 c0 -5 5 -7 10 -4 6 3 10 8 10 11 0 2 -4 4 -10 4 -5 0 -10
-5 -10 -11z"/>
<path d="M501 512 c-7 -13 -11 -26 -8 -28 8 -8 29 25 25 38 -3 8 -9 4 -17 -10z"/>
</g>
</svg>
