<?xml version="1.0" standalone="no"?>
<!DOCTYPE svg PUBLIC "-//W3C//DTD SVG 20010904//EN"
 "http://www.w3.org/TR/2001/REC-SVG-20010904/DTD/svg10.dtd">
<svg version="1.0" xmlns="http://www.w3.org/2000/svg"
 width="96.000000pt" height="84.000000pt" viewBox="0 0 96.000000 84.000000"
 preserveAspectRatio="xMidYMid meet">
<metadata>
Created by potrace 1.16, written by Peter Selinger 2001-2019
</metadata>
<g transform="translate(0.000000,84.000000) scale(0.100000,-0.100000)"
fill="#000000" stroke="none">
<path d="M0 784 c0 -31 3 -54 8 -52 87 45 111 52 172 52 81 0 149 -32 208
-100 59 -67 82 -136 92 -275 8 -136 35 -207 103 -277 65 -67 109 -86 197 -87
64 0 82 4 128 29 l52 29 0 369 0 368 -480 0 -480 0 0 -56z m805 -189 c47 -46
25 -126 -37 -141 -63 -14 -103 82 -57 140 26 33 62 34 94 1z"/>
<path d="M157 390 c-55 -44 -39 -147 26 -170 26 -9 36 -7 57 8 41 30 54 68 41
113 -20 66 -75 87 -124 49z"/>
</g>
</svg>
