<?xml version="1.0" standalone="no"?>
<!DOCTYPE svg PUBLIC "-//W3C//DTD SVG 20010904//EN"
 "http://www.w3.org/TR/2001/REC-SVG-20010904/DTD/svg10.dtd">
<svg version="1.0" xmlns="http://www.w3.org/2000/svg"
 width="96.000000pt" height="84.000000pt" viewBox="0 0 96.000000 84.000000"
 preserveAspectRatio="xMidYMid meet">
<metadata>
Created by potrace 1.16, written by Peter Selinger 2001-2019
</metadata>
<g transform="translate(0.000000,84.000000) scale(0.100000,-0.100000)"
fill="#000000" stroke="none">
<path d="M0 825 c0 -13 4 -14 20 -5 25 14 25 20 0 20 -11 0 -20 -7 -20 -15z"/>
<path d="M382 793 c97 -99 126 -220 93 -389 -16 -80 -17 -102 -6 -160 14 -79
48 -150 98 -204 l35 -40 160 0 c91 0 168 4 179 10 18 10 19 26 19 420 l0 410
-312 0 -312 0 46 -47z m441 -250 c25 -29 30 -68 13 -101 -38 -74 -131 -48
-131 38 0 49 27 80 70 80 18 0 39 -8 48 -17z"/>
<path d="M164 460 c-57 -23 -72 -107 -28 -159 54 -64 134 -21 134 73 0 59 -57
106 -106 86z"/>
</g>
</svg>
