<?xml version="1.0" standalone="no"?>
<!DOCTYPE svg PUBLIC "-//W3C//DTD SVG 20010904//EN"
 "http://www.w3.org/TR/2001/REC-SVG-20010904/DTD/svg10.dtd">
<svg version="1.0" xmlns="http://www.w3.org/2000/svg"
 width="96.000000pt" height="84.000000pt" viewBox="0 0 96.000000 84.000000"
 preserveAspectRatio="xMidYMid meet">
<metadata>
Created by potrace 1.16, written by Peter Selinger 2001-2019
</metadata>
<g transform="translate(0.000000,84.000000) scale(0.100000,-0.100000)"
fill="#000000" stroke="none">
<path d="M474 824 c30 -78 31 -283 1 -414 -17 -77 -18 -271 -2 -350 l12 -55
238 -3 237 -2 0 420 0 420 -246 0 c-221 0 -246 -2 -240 -16z m351 -339 c48
-48 20 -145 -42 -145 -37 0 -73 42 -73 85 0 41 36 85 70 85 12 0 32 -11 45
-25z"/>
<path d="M126 489 c-34 -40 -34 -88 0 -128 54 -64 139 -25 139 64 0 89 -85
128 -139 64z"/>
</g>
</svg>
