<?xml version="1.0" standalone="no"?>
<!DOCTYPE svg PUBLIC "-//W3C//DTD SVG 20010904//EN"
 "http://www.w3.org/TR/2001/REC-SVG-20010904/DTD/svg10.dtd">
<svg version="1.0" xmlns="http://www.w3.org/2000/svg"
 width="96.000000pt" height="84.000000pt" viewBox="0 0 96.000000 84.000000"
 preserveAspectRatio="xMidYMid meet">
<metadata>
Created by potrace 1.16, written by Peter Selinger 2001-2019
</metadata>
<g transform="translate(0.000000,84.000000) scale(0.100000,-0.100000)"
fill="#000000" stroke="none">
<path d="M480 420 l0 -420 240 0 240 0 0 420 0 420 -240 0 -240 0 0 -420z
m345 65 c51 -50 21 -145 -45 -145 -33 0 -70 40 -70 76 0 49 35 91 78 93 7 1
24 -10 37 -24z"/>
<path d="M154 515 c-58 -24 -69 -112 -22 -162 27 -29 67 -30 101 -3 79 63 11
203 -79 165z"/>
</g>
</svg>
