<?xml version="1.0" standalone="no"?>
<!DOCTYPE svg PUBLIC "-//W3C//DTD SVG 20010904//EN"
 "http://www.w3.org/TR/2001/REC-SVG-20010904/DTD/svg10.dtd">
<svg version="1.0" xmlns="http://www.w3.org/2000/svg"
 width="96.000000pt" height="84.000000pt" viewBox="0 0 96.000000 84.000000"
 preserveAspectRatio="xMidYMid meet">
<metadata>
Created by potrace 1.16, written by Peter Selinger 2001-2019
</metadata>
<g transform="translate(0.000000,84.000000) scale(0.100000,-0.100000)"
fill="#000000" stroke="none">
<path d="M440 420 l0 -420 260 0 260 0 0 420 0 420 -260 0 -260 0 0 -420z
m365 46 c25 -24 45 -46 45 -49 0 -3 -17 -22 -37 -41 -53 -50 -99 -50 -148 -1
-38 39 -42 50 -21 62 7 4 19 18 25 31 13 24 42 40 74 41 10 1 38 -19 62 -43z"/>
<path d="M124 520 c-57 -23 -74 -121 -29 -165 39 -40 96 -32 120 16 42 80 -18
178 -91 149z"/>
</g>
</svg>
