<?xml version="1.0" standalone="no"?>
<!DOCTYPE svg PUBLIC "-//W3C//DTD SVG 20010904//EN"
 "http://www.w3.org/TR/2001/REC-SVG-20010904/DTD/svg10.dtd">
<svg version="1.0" xmlns="http://www.w3.org/2000/svg"
 width="96.000000pt" height="84.000000pt" viewBox="0 0 96.000000 84.000000"
 preserveAspectRatio="xMidYMid meet">
<metadata>
Created by potrace 1.16, written by Peter Selinger 2001-2019
</metadata>
<g transform="translate(0.000000,84.000000) scale(0.100000,-0.100000)"
fill="#000000" stroke="none">
<path d="M360 420 l0 -420 300 0 300 0 0 420 0 420 -300 0 -300 0 0 -420z
m366 48 c26 -24 37 -28 65 -24 22 4 41 1 53 -9 19 -14 19 -15 0 -36 -15 -17
-26 -20 -56 -15 -20 3 -39 2 -43 -3 -9 -16 -66 -41 -91 -41 -22 0 -64 34 -64
52 0 4 -13 8 -29 8 -16 0 -37 3 -46 6 -24 9 1 24 40 24 25 0 33 6 42 30 12 33
46 52 78 43 11 -3 34 -19 51 -35z"/>
<path d="M30 517 c-24 -12 -25 -17 -25 -92 0 -77 1 -80 26 -89 39 -13 77 0 94
34 43 84 -21 184 -95 147z"/>
</g>
</svg>
