<?xml version="1.0" standalone="no"?>
<!DOCTYPE svg PUBLIC "-//W3C//DTD SVG 20010904//EN"
 "http://www.w3.org/TR/2001/REC-SVG-20010904/DTD/svg10.dtd">
<svg version="1.0" xmlns="http://www.w3.org/2000/svg"
 width="96.000000pt" height="84.000000pt" viewBox="0 0 96.000000 84.000000"
 preserveAspectRatio="xMidYMid meet">
<metadata>
Created by potrace 1.16, written by Peter Selinger 2001-2019
</metadata>
<g transform="translate(0.000000,84.000000) scale(0.100000,-0.100000)"
fill="#000000" stroke="none">
<path d="M300 420 l0 -420 330 0 330 0 0 420 0 420 -330 0 -330 0 0 -420z
m371 58 l38 -42 58 11 c49 9 61 8 80 -6 29 -21 28 -42 -3 -64 -22 -16 -31 -17
-76 -8 -42 9 -54 9 -67 -3 -40 -36 -123 -27 -160 18 -10 12 -32 16 -82 16 -39
0 -69 4 -69 10 0 6 28 10 65 10 56 0 65 3 65 18 0 24 28 62 54 72 40 16 58 10
97 -32z"/>
<path d="M0 429 c0 -110 9 -121 55 -74 47 46 25 152 -35 168 -19 5 -20 1 -20
-94z"/>
</g>
</svg>
