<?xml version="1.0" standalone="no"?>
<!DOCTYPE svg PUBLIC "-//W3C//DTD SVG 20010904//EN"
 "http://www.w3.org/TR/2001/REC-SVG-20010904/DTD/svg10.dtd">
<svg version="1.0" xmlns="http://www.w3.org/2000/svg"
 width="96.000000pt" height="84.000000pt" viewBox="0 0 96.000000 84.000000"
 preserveAspectRatio="xMidYMid meet">
<metadata>
Created by potrace 1.16, written by Peter Selinger 2001-2019
</metadata>
<g transform="translate(0.000000,84.000000) scale(0.100000,-0.100000)"
fill="#000000" stroke="none">
<path d="M270 420 l0 -420 345 0 345 0 0 420 0 420 -345 0 -345 0 0 -420z
m364 126 c33 -14 56 -55 65 -115 2 -17 35 -21 93 -11 55 10 61 9 88 -12 38
-30 38 -59 0 -86 -29 -22 -32 -22 -75 -7 -52 17 -75 19 -75 6 0 -11 -56 -32
-73 -26 -7 2 -25 6 -40 10 -16 3 -39 17 -51 30 -20 21 -32 24 -112 26 -98 3
-134 9 -134 24 0 6 41 9 110 7 l110 -4 -30 30 c-24 24 -30 39 -30 71 0 23 1
41 3 41 1 0 20 7 42 15 51 18 68 18 109 1z"/>
<path d="M0 422 l1 -97 29 33 c20 21 30 43 30 63 0 36 -23 84 -45 92 -13 6
-15 -7 -15 -91z"/>
</g>
</svg>
