<?xml version="1.0" standalone="no"?>
<!DOCTYPE svg PUBLIC "-//W3C//DTD SVG 20010904//EN"
 "http://www.w3.org/TR/2001/REC-SVG-20010904/DTD/svg10.dtd">
<svg version="1.0" xmlns="http://www.w3.org/2000/svg"
 width="96.000000pt" height="84.000000pt" viewBox="0 0 96.000000 84.000000"
 preserveAspectRatio="xMidYMid meet">
<metadata>
Created by potrace 1.16, written by Peter Selinger 2001-2019
</metadata>
<g transform="translate(0.000000,84.000000) scale(0.100000,-0.100000)"
fill="#000000" stroke="none">
<path d="M0 420 l0 -420 480 0 480 0 0 420 0 420 -480 0 -480 0 0 -420z m492
250 c-2 -8 3 -10 13 -6 8 3 21 8 28 11 8 3 25 -4 38 -15 17 -15 19 -20 7 -16
-10 3 -18 2 -18 -1 0 -12 33 -43 47 -43 17 0 17 -17 -1 -27 -23 -14 -1 -53 29
-53 15 0 24 -4 20 -10 -3 -6 -18 -7 -33 -4 -15 4 -23 3 -19 -2 4 -4 37 -7 72
-6 49 2 69 -1 85 -15 52 -45 1 -81 -85 -58 -30 8 -60 17 -65 20 -6 3 -10 -3
-10 -14 0 -14 -6 -21 -20 -21 -11 0 -20 7 -20 15 0 10 -10 15 -30 15 -16 0
-30 5 -30 10 0 6 -16 10 -36 10 -19 0 -33 -4 -30 -8 7 -12 -96 15 -108 29 -8
8 13 9 74 4 l86 -7 12 26 c15 33 15 63 1 71 -6 4 -8 14 -4 23 3 8 -3 25 -15
37 -13 13 -18 28 -14 39 7 19 31 15 26 -4z"/>
<path d="M516 514 c-9 -23 -2 -28 13 -10 7 8 8 17 3 20 -6 3 -13 -1 -16 -10z"/>
</g>
</svg>
