<?xml version="1.0" standalone="no"?>
<!DOCTYPE svg PUBLIC "-//W3C//DTD SVG 20010904//EN"
 "http://www.w3.org/TR/2001/REC-SVG-20010904/DTD/svg10.dtd">
<svg version="1.0" xmlns="http://www.w3.org/2000/svg"
 width="96.000000pt" height="84.000000pt" viewBox="0 0 96.000000 84.000000"
 preserveAspectRatio="xMidYMid meet">
<metadata>
Created by potrace 1.16, written by Peter Selinger 2001-2019
</metadata>
<g transform="translate(0.000000,84.000000) scale(0.100000,-0.100000)"
fill="#000000" stroke="none">
<path d="M250 420 l0 -420 355 0 355 0 0 420 0 420 -355 0 -355 0 0 -420z
m392 153 c13 -16 34 -47 46 -70 18 -35 19 -46 9 -72 -6 -17 -8 -33 -4 -37 4
-4 48 -8 99 -10 51 -1 94 -7 96 -12 2 -6 14 -22 27 -36 24 -26 24 -66 -1 -66
-7 0 -19 -9 -27 -20 -12 -18 -15 -18 -35 -4 -12 8 -44 21 -72 28 -42 11 -52
11 -61 0 -6 -8 -18 -14 -25 -14 -8 0 -14 -10 -14 -22 l0 -23 -18 23 c-12 16
-33 25 -61 29 -33 5 -45 11 -52 29 -7 21 -15 24 -59 24 -51 0 -60 -6 -38 -28
19 -19 -1 -14 -38 9 -18 11 -42 19 -51 18 -10 -1 -26 1 -35 4 -10 4 -25 9 -33
12 -8 2 -15 9 -15 16 0 11 143 6 212 -7 23 -5 31 0 48 28 31 52 27 82 -15 97
-41 14 -69 52 -61 79 5 13 13 18 29 15 14 -3 33 4 47 16 35 29 71 26 102 -6z"/>
<path d="M640 430 c0 -5 5 -10 11 -10 5 0 7 5 4 10 -3 6 -8 10 -11 10 -2 0 -4
-4 -4 -10z"/>
<path d="M580 379 c0 -5 5 -7 10 -4 6 3 10 8 10 11 0 2 -4 4 -10 4 -5 0 -10
-5 -10 -11z"/>
<path d="M0 429 c0 -71 2 -80 15 -69 21 18 29 76 15 110 -22 54 -30 43 -30
-41z"/>
</g>
</svg>
