<?xml version="1.0" standalone="no"?>
<!DOCTYPE svg PUBLIC "-//W3C//DTD SVG 20010904//EN"
 "http://www.w3.org/TR/2001/REC-SVG-20010904/DTD/svg10.dtd">
<svg version="1.0" xmlns="http://www.w3.org/2000/svg"
 width="96.000000pt" height="84.000000pt" viewBox="0 0 96.000000 84.000000"
 preserveAspectRatio="xMidYMid meet">
<metadata>
Created by potrace 1.16, written by Peter Selinger 2001-2019
</metadata>
<g transform="translate(0.000000,84.000000) scale(0.100000,-0.100000)"
fill="#000000" stroke="none">
<path d="M230 420 l0 -420 365 0 365 0 0 420 0 420 -365 0 -365 0 0 -420z
m392 153 c10 -9 18 -21 18 -27 0 -6 -5 -5 -12 2 -15 15 -28 16 -28 2 0 -6 11
-15 24 -20 52 -19 88 -70 51 -70 -12 0 -14 -7 -9 -27 10 -41 12 -43 45 -43 16
0 32 -6 34 -13 4 -8 21 -11 52 -8 42 3 49 0 75 -30 16 -18 26 -39 23 -47 -3
-7 -5 -18 -5 -23 0 -6 -4 -8 -9 -4 -6 3 -14 -3 -20 -12 -8 -15 -13 -16 -30 -6
-30 19 -108 34 -136 27 -16 -4 -25 -13 -25 -25 0 -25 -12 -24 -30 1 -8 11 -26
20 -41 20 -39 0 -59 9 -53 25 4 9 -8 14 -43 17 -52 5 -74 -5 -55 -24 28 -28 9
-27 -24 1 -26 24 -39 29 -49 21 -9 -7 -16 -6 -25 5 -7 8 -18 15 -26 15 -7 0
-16 5 -20 11 -5 8 22 9 97 4 57 -4 108 -8 113 -9 15 -2 43 56 49 100 5 41 4
42 -41 65 -50 26 -56 42 -17 47 14 2 30 12 35 23 13 24 57 25 82 2z"/>
<path d="M630 434 c0 -8 5 -12 10 -9 6 3 10 10 10 16 0 5 -4 9 -10 9 -5 0 -10
-7 -10 -16z"/>
<path d="M566 370 l-18 -35 22 21 c12 12 20 28 18 35 -3 9 -12 0 -22 -21z"/>
<path d="M685 360 c3 -5 8 -10 11 -10 2 0 4 5 4 10 0 6 -5 10 -11 10 -5 0 -7
-4 -4 -10z"/>
<path d="M2 425 c0 -53 1 -57 10 -32 7 20 7 39 0 60 -9 29 -10 27 -10 -28z"/>
</g>
</svg>
