<?xml version="1.0" standalone="no"?>
<!DOCTYPE svg PUBLIC "-//W3C//DTD SVG 20010904//EN"
 "http://www.w3.org/TR/2001/REC-SVG-20010904/DTD/svg10.dtd">
<svg version="1.0" xmlns="http://www.w3.org/2000/svg"
 width="96.000000pt" height="84.000000pt" viewBox="0 0 96.000000 84.000000"
 preserveAspectRatio="xMidYMid meet">
<metadata>
Created by potrace 1.16, written by Peter Selinger 2001-2019
</metadata>
<g transform="translate(0.000000,84.000000) scale(0.100000,-0.100000)"
fill="#000000" stroke="none">
<path d="M210 420 l0 -420 375 0 375 0 0 420 0 420 -375 0 -375 0 0 -420z
m406 129 c19 -21 19 -22 -3 -15 -14 4 -23 3 -23 -3 0 -5 9 -13 21 -16 12 -4
30 -16 41 -27 19 -19 19 -20 1 -34 -10 -7 -24 -11 -31 -9 -8 3 -12 0 -9 -7 2
-7 14 -12 25 -10 16 2 22 -2 22 -15 0 -21 59 -43 118 -43 37 0 61 -16 74 -51
7 -17 2 -27 -22 -46 -12 -9 -30 -8 -80 6 -74 20 -100 17 -100 -9 0 -13 -5 -17
-20 -13 -11 3 -20 12 -20 19 0 9 -11 14 -30 14 -16 0 -33 6 -37 14 -4 7 -28
17 -53 21 -37 6 -43 5 -32 -6 21 -22 13 -30 -12 -14 -13 9 -35 18 -48 19 -38
6 -68 18 -68 28 0 9 96 4 161 -8 32 -6 53 22 62 82 7 45 -6 65 -51 79 -28 8
-24 29 6 33 11 2 26 10 32 18 18 21 54 17 76 -7z"/>
<path d="M557 376 c-10 -14 -13 -26 -8 -26 13 0 33 28 29 41 -2 6 -12 0 -21
-15z"/>
</g>
</svg>
