<?xml version="1.0" standalone="no"?>
<!DOCTYPE svg PUBLIC "-//W3C//DTD SVG 20010904//EN"
 "http://www.w3.org/TR/2001/REC-SVG-20010904/DTD/svg10.dtd">
<svg version="1.0" xmlns="http://www.w3.org/2000/svg"
 width="96.000000pt" height="84.000000pt" viewBox="0 0 96.000000 84.000000"
 preserveAspectRatio="xMidYMid meet">
<metadata>
Created by potrace 1.16, written by Peter Selinger 2001-2019
</metadata>
<g transform="translate(0.000000,84.000000) scale(0.100000,-0.100000)"
fill="#000000" stroke="none">
<path d="M190 420 l0 -420 385 0 385 0 0 420 0 420 -385 0 -385 0 0 -420z
m410 119 c24 -20 24 -20 3 -14 -31 9 -29 -9 3 -23 14 -7 23 -16 20 -21 -3 -5
1 -11 9 -15 11 -4 13 -14 9 -36 -6 -28 -3 -32 25 -43 17 -6 31 -14 31 -18 0
-4 20 -4 45 -1 38 4 48 1 65 -19 49 -60 10 -89 -86 -64 -75 19 -84 19 -84 -5
0 -13 -7 -20 -19 -20 -10 0 -21 9 -24 20 -3 14 -14 20 -32 20 -14 0 -33 7 -41
15 -9 8 -32 15 -52 14 -31 0 -34 -2 -17 -10 16 -7 14 -8 -10 -4 -54 11 -60 12
-90 25 -26 12 -27 14 -10 17 12 2 54 0 94 -5 69 -8 73 -7 90 15 11 13 19 40
19 62 1 34 -3 41 -34 57 -39 21 -45 44 -10 44 13 0 29 7 36 15 17 20 30 19 60
-6z"/>
<path d="M600 431 c0 -17 18 -21 24 -6 3 9 0 15 -9 15 -8 0 -15 -4 -15 -9z"/>
<path d="M551 373 c-13 -27 -13 -28 8 -9 11 10 18 23 15 27 -8 13 -10 12 -23
-18z"/>
</g>
</svg>
