<?xml version="1.0" standalone="no"?>
<!DOCTYPE svg PUBLIC "-//W3C//DTD SVG 20010904//EN"
 "http://www.w3.org/TR/2001/REC-SVG-20010904/DTD/svg10.dtd">
<svg version="1.0" xmlns="http://www.w3.org/2000/svg"
 width="96.000000pt" height="84.000000pt" viewBox="0 0 96.000000 84.000000"
 preserveAspectRatio="xMidYMid meet">
<metadata>
Created by potrace 1.16, written by Peter Selinger 2001-2019
</metadata>
<g transform="translate(0.000000,84.000000) scale(0.100000,-0.100000)"
fill="#000000" stroke="none">
<path d="M170 420 l0 -420 395 0 395 0 0 420 0 420 -395 0 -395 0 0 -420z
m425 100 c17 -18 17 -20 2 -14 -9 3 -17 1 -17 -4 0 -6 9 -14 21 -17 12 -4 18
-13 15 -20 -3 -8 2 -19 9 -25 8 -7 12 -16 9 -21 -9 -15 16 -49 36 -49 11 0 20
-5 20 -10 0 -6 16 -8 40 -4 34 6 45 3 65 -16 14 -13 25 -33 25 -46 0 -31 -39
-38 -102 -19 -70 20 -88 19 -88 -5 0 -24 -22 -22 -32 3 -4 10 -18 17 -34 17
-15 0 -32 6 -38 14 -6 7 -33 16 -61 20 l-50 6 25 -20 c29 -22 14 -28 -16 -5
-10 8 -26 15 -34 15 -8 0 -26 10 -40 21 l-25 21 40 -6 c142 -19 140 -19 157 1
9 10 18 36 20 58 3 35 0 41 -29 60 -36 22 -40 52 -6 47 12 -2 24 2 28 8 10 17
40 12 60 -10z"/>
<path d="M550 365 c-8 -9 -8 -15 -2 -15 12 0 26 19 19 26 -2 2 -10 -2 -17 -11z"/>
</g>
</svg>
