<?xml version="1.0" standalone="no"?>
<!DOCTYPE svg PUBLIC "-//W3C//DTD SVG 20010904//EN"
 "http://www.w3.org/TR/2001/REC-SVG-20010904/DTD/svg10.dtd">
<svg version="1.0" xmlns="http://www.w3.org/2000/svg"
 width="96.000000pt" height="84.000000pt" viewBox="0 0 96.000000 84.000000"
 preserveAspectRatio="xMidYMid meet">
<metadata>
Created by potrace 1.16, written by Peter Selinger 2001-2019
</metadata>
<g transform="translate(0.000000,84.000000) scale(0.100000,-0.100000)"
fill="#000000" stroke="none">
<path d="M170 420 l0 -420 395 0 395 0 0 420 0 420 -395 0 -395 0 0 -420z
m441 74 c12 -16 12 -17 -3 -11 -23 8 -23 -2 -1 -18 16 -12 19 -18 29 -73 7
-33 47 -52 111 -52 32 0 44 -5 57 -25 40 -61 3 -86 -86 -57 -58 19 -78 19 -78
-3 0 -20 -38 -14 -43 7 -3 11 -14 18 -28 18 -12 0 -30 6 -38 14 -9 7 -35 16
-58 19 l-42 5 16 -27 17 -26 -31 28 c-16 15 -34 27 -39 25 -12 -3 -57 22 -51
28 3 3 41 0 86 -7 74 -11 82 -11 101 6 32 29 27 85 -10 120 -32 31 -39 55 -15
55 8 0 15 -5 15 -11 0 -7 8 -6 23 4 24 16 44 10 68 -19z"/>
<path d="M551 347 c-13 -21 -12 -21 5 -5 10 10 16 20 13 22 -3 3 -11 -5 -18
-17z"/>
</g>
</svg>
