<?xml version="1.0" standalone="no"?>
<!DOCTYPE svg PUBLIC "-//W3C//DTD SVG 20010904//EN"
 "http://www.w3.org/TR/2001/REC-SVG-20010904/DTD/svg10.dtd">
<svg version="1.0" xmlns="http://www.w3.org/2000/svg"
 width="96.000000pt" height="84.000000pt" viewBox="0 0 96.000000 84.000000"
 preserveAspectRatio="xMidYMid meet">
<metadata>
Created by potrace 1.16, written by Peter Selinger 2001-2019
</metadata>
<g transform="translate(0.000000,84.000000) scale(0.100000,-0.100000)"
fill="#000000" stroke="none">
<path d="M180 420 l0 -420 390 0 390 0 0 420 0 420 -390 0 -390 0 0 -420z
m393 82 c23 12 49 3 65 -23 12 -19 12 -20 -10 -14 l-23 7 24 -26 c14 -14 21
-26 16 -26 -5 0 -4 -5 3 -12 7 -7 12 -22 12 -33 0 -27 56 -55 108 -55 31 0 43
-6 60 -30 27 -36 28 -46 1 -61 -17 -8 -34 -7 -77 6 -70 22 -97 24 -97 6 0 -8
-8 -15 -17 -17 -12 -1 -18 4 -18 17 0 13 -7 19 -23 19 -13 0 -34 9 -47 20 -13
11 -33 20 -46 20 -12 0 -31 3 -41 7 -17 6 -17 6 0 -14 26 -30 20 -35 -10 -7
-14 13 -31 23 -37 22 -14 -3 -56 20 -56 31 0 5 38 1 85 -9 l84 -17 21 22 c30
32 26 83 -9 126 -23 28 -27 39 -18 48 9 9 14 8 22 -3 8 -10 16 -11 28 -4z"/>
<path d="M572 339 c-7 -10 -8 -19 -3 -19 13 0 33 28 23 33 -4 3 -13 -3 -20
-14z"/>
</g>
</svg>
