<?xml version="1.0" standalone="no"?>
<!DOCTYPE svg PUBLIC "-//W3C//DTD SVG 20010904//EN"
 "http://www.w3.org/TR/2001/REC-SVG-20010904/DTD/svg10.dtd">
<svg version="1.0" xmlns="http://www.w3.org/2000/svg"
 width="96.000000pt" height="84.000000pt" viewBox="0 0 96.000000 84.000000"
 preserveAspectRatio="xMidYMid meet">
<metadata>
Created by potrace 1.16, written by Peter Selinger 2001-2019
</metadata>
<g transform="translate(0.000000,84.000000) scale(0.100000,-0.100000)"
fill="#000000" stroke="none">
<path d="M200 420 l0 -420 380 0 380 0 0 420 0 420 -380 0 -380 0 0 -420z
m409 75 c23 7 56 -8 64 -29 4 -10 0 -12 -14 -9 -10 3 -19 0 -19 -6 0 -6 4 -11
9 -11 15 0 45 -54 43 -77 -1 -15 7 -24 29 -32 17 -6 28 -15 24 -21 -4 -6 12
-10 43 -10 45 0 52 -3 70 -32 40 -63 -5 -81 -108 -44 -67 24 -70 25 -70 6 0
-24 -37 -23 -43 2 -3 11 -15 18 -31 18 -14 0 -26 4 -26 10 0 16 -39 31 -95 35
-52 4 -121 35 -96 43 6 2 39 -3 74 -12 35 -9 73 -16 84 -16 51 0 66 81 26 141
-15 23 -21 42 -17 54 7 17 8 17 20 0 8 -11 19 -15 33 -10z m-104 -215 c3 -5 2
-10 -4 -10 -5 0 -13 5 -16 10 -3 6 -2 10 4 10 5 0 13 -4 16 -10z"/>
<path d="M603 330 c-11 -16 -10 -18 2 -14 8 4 15 12 15 20 0 19 -3 18 -17 -6z"/>
<path d="M695 310 c3 -5 14 -10 23 -10 15 0 15 2 2 10 -20 13 -33 13 -25 0z"/>
</g>
</svg>
