<?xml version="1.0" standalone="no"?>
<!DOCTYPE svg PUBLIC "-//W3C//DTD SVG 20010904//EN"
 "http://www.w3.org/TR/2001/REC-SVG-20010904/DTD/svg10.dtd">
<svg version="1.0" xmlns="http://www.w3.org/2000/svg"
 width="96.000000pt" height="84.000000pt" viewBox="0 0 96.000000 84.000000"
 preserveAspectRatio="xMidYMid meet">
<metadata>
Created by potrace 1.16, written by Peter Selinger 2001-2019
</metadata>
<g transform="translate(0.000000,84.000000) scale(0.100000,-0.100000)"
fill="#000000" stroke="none">
<path d="M210 420 l0 -420 375 0 375 0 0 420 0 420 -375 0 -375 0 0 -420z
m403 84 c-5 -13 -1 -15 23 -10 24 5 35 1 59 -24 26 -27 24 -45 -2 -19 -7 7
-13 8 -17 0 -4 -6 6 -24 21 -41 15 -17 27 -43 28 -58 0 -22 6 -28 30 -32 19
-3 26 -8 18 -13 -7 -4 -24 -5 -39 -1 -19 5 -25 4 -20 -5 4 -6 34 -11 71 -11
57 0 67 -3 90 -27 61 -67 8 -101 -90 -58 -67 30 -81 31 -88 5 -6 -25 -37 -16
-37 10 0 12 -10 21 -30 25 -16 4 -33 13 -38 21 -4 7 -30 20 -57 28 l-50 15 25
-19 c14 -11 20 -20 14 -20 -6 0 -23 9 -37 20 -14 11 -29 19 -34 18 -12 -4 -58
31 -50 38 4 4 44 -4 89 -18 l83 -26 22 21 c19 17 22 29 19 68 -2 27 -11 60
-20 74 -19 29 -15 55 8 55 10 0 13 -6 9 -16z"/>
<path d="M622 329 c-7 -10 -8 -19 -3 -19 13 0 33 28 23 33 -4 3 -13 -3 -20
-14z"/>
</g>
</svg>
