<?xml version="1.0" standalone="no"?>
<!DOCTYPE svg PUBLIC "-//W3C//DTD SVG 20010904//EN"
 "http://www.w3.org/TR/2001/REC-SVG-20010904/DTD/svg10.dtd">
<svg version="1.0" xmlns="http://www.w3.org/2000/svg"
 width="96.000000pt" height="84.000000pt" viewBox="0 0 96.000000 84.000000"
 preserveAspectRatio="xMidYMid meet">
<metadata>
Created by potrace 1.16, written by Peter Selinger 2001-2019
</metadata>
<g transform="translate(0.000000,84.000000) scale(0.100000,-0.100000)"
fill="#000000" stroke="none">
<path d="M230 420 l0 -420 365 0 365 0 0 420 0 420 -365 0 -365 0 0 -420z
m410 100 c0 -17 5 -19 25 -14 18 4 30 -1 50 -21 27 -30 35 -56 10 -35 -28 23
-35 0 -10 -39 14 -24 22 -47 18 -60 -4 -17 1 -23 26 -32 17 -6 29 -15 26 -19
-3 -4 17 -11 44 -15 38 -5 53 -13 70 -36 50 -67 -9 -97 -96 -49 -65 35 -67 35
-87 15 -17 -17 -46 -10 -46 12 0 8 -13 19 -30 24 -16 6 -30 17 -30 24 0 14
-88 48 -131 50 -26 1 -77 40 -67 50 3 3 41 -8 84 -25 93 -36 96 -36 119 -10
24 27 26 116 2 150 -12 17 -14 27 -5 37 15 19 28 16 28 -7z m-105 -248 c-7 -7
-45 29 -45 41 0 6 11 0 25 -13 14 -13 23 -26 20 -28z"/>
<path d="M642 340 c-8 -13 -8 -20 -2 -20 6 0 13 7 17 15 9 24 -1 27 -15 5z"/>
<path d="M730 306 c0 -2 7 -9 15 -16 9 -7 15 -8 15 -2 0 5 -7 12 -15 16 -8 3
-15 4 -15 2z"/>
<path d="M1 425 c0 -43 3 -54 9 -40 12 27 12 67 0 85 -7 11 -10 -3 -9 -45z"/>
</g>
</svg>
