<?xml version="1.0" standalone="no"?>
<!DOCTYPE svg PUBLIC "-//W3C//DTD SVG 20010904//EN"
 "http://www.w3.org/TR/2001/REC-SVG-20010904/DTD/svg10.dtd">
<svg version="1.0" xmlns="http://www.w3.org/2000/svg"
 width="96.000000pt" height="84.000000pt" viewBox="0 0 96.000000 84.000000"
 preserveAspectRatio="xMidYMid meet">
<metadata>
Created by potrace 1.16, written by Peter Selinger 2001-2019
</metadata>
<g transform="translate(0.000000,84.000000) scale(0.100000,-0.100000)"
fill="#000000" stroke="none">
<path d="M0 420 l0 -420 480 0 480 0 0 420 0 420 -480 0 -480 0 0 -420z m621
249 l24 -20 -22 6 c-27 7 -32 -11 -5 -19 19 -6 47 -60 38 -75 -11 -18 6 -41
31 -41 14 0 22 -4 18 -10 -4 -7 13 -10 48 -9 43 2 58 -2 76 -20 53 -53 5 -90
-86 -66 -71 19 -93 19 -93 1 0 -26 -30 -27 -40 -2 -7 19 -14 22 -35 18 -15 -2
-30 0 -34 6 -4 7 -22 15 -41 18 -28 6 -32 5 -27 -10 6 -15 4 -15 -24 -1 -16 9
-33 14 -38 11 -10 -7 -61 16 -61 27 0 7 96 2 148 -9 43 -9 72 72 39 114 -5 7
-7 15 -4 19 4 3 -5 14 -18 25 -14 11 -22 25 -18 33 6 18 33 20 33 3 0 -8 6 -6
17 5 23 23 46 21 74 -4z"/>
<path d="M560 498 c-12 -22 -12 -22 6 -6 10 10 15 20 12 24 -4 3 -12 -5 -18
-18z"/>
</g>
</svg>
