<?xml version="1.0" standalone="no"?>
<!DOCTYPE svg PUBLIC "-//W3C//DTD SVG 20010904//EN"
 "http://www.w3.org/TR/2001/REC-SVG-20010904/DTD/svg10.dtd">
<svg version="1.0" xmlns="http://www.w3.org/2000/svg"
 width="96.000000pt" height="84.000000pt" viewBox="0 0 96.000000 84.000000"
 preserveAspectRatio="xMidYMid meet">
<metadata>
Created by potrace 1.16, written by Peter Selinger 2001-2019
</metadata>
<g transform="translate(0.000000,84.000000) scale(0.100000,-0.100000)"
fill="#000000" stroke="none">
<path d="M250 420 l0 -420 355 0 355 0 0 420 0 420 -355 0 -355 0 0 -420z
m413 129 c4 -15 11 -19 24 -15 24 7 37 -2 57 -41 18 -36 12 -44 -11 -15 -13
15 -14 13 -8 -23 4 -29 3 -36 -4 -25 -18 26 -12 2 11 -42 12 -24 28 -47 35
-51 7 -5 10 -13 7 -19 -4 -6 -3 -8 3 -5 6 4 24 3 39 -2 16 -5 41 -12 56 -15
29 -7 65 -64 55 -90 -8 -21 -57 -29 -76 -13 -22 18 -90 57 -101 57 -5 0 -15
-7 -24 -15 -18 -18 -46 -9 -46 15 0 11 -12 22 -30 29 -16 5 -30 16 -30 24 0 8
-23 23 -52 34 -55 21 -70 21 -50 1 7 -7 12 -21 12 -33 -1 -15 -4 -12 -15 13
-8 18 -22 35 -31 39 -23 9 -68 52 -61 59 3 3 42 -11 87 -31 48 -21 90 -33 101
-30 39 13 55 86 33 150 -14 43 -13 65 5 65 5 0 11 -9 14 -21z"/>
<path d="M650 365 c-14 -16 -10 -18 14 -9 9 3 16 10 16 15 0 14 -16 11 -30 -6z"/>
<path d="M0 429 c0 -71 2 -80 15 -69 23 19 28 72 11 113 -8 21 -17 37 -20 37
-4 0 -6 -37 -6 -81z"/>
</g>
</svg>
