<?xml version="1.0" standalone="no"?>
<!DOCTYPE svg PUBLIC "-//W3C//DTD SVG 20010904//EN"
 "http://www.w3.org/TR/2001/REC-SVG-20010904/DTD/svg10.dtd">
<svg version="1.0" xmlns="http://www.w3.org/2000/svg"
 width="96.000000pt" height="84.000000pt" viewBox="0 0 96.000000 84.000000"
 preserveAspectRatio="xMidYMid meet">
<metadata>
Created by potrace 1.16, written by Peter Selinger 2001-2019
</metadata>
<g transform="translate(0.000000,84.000000) scale(0.100000,-0.100000)"
fill="#000000" stroke="none">
<path d="M280 420 l0 -420 340 0 340 0 0 420 0 420 -340 0 -340 0 0 -420z
m403 189 c4 -16 11 -20 26 -16 27 7 61 -35 60 -72 l0 -26 -11 25 c-6 14 -12
20 -15 13 -2 -7 0 -21 6 -32 16 -29 13 -39 -4 -17 -13 17 -15 17 -15 4 0 -9 7
-23 15 -32 8 -8 15 -22 15 -32 0 -26 40 -64 67 -64 45 0 91 -27 108 -64 10
-20 15 -42 12 -50 -9 -22 -59 -27 -82 -7 -22 19 -89 61 -98 61 -3 0 -12 -7
-21 -15 -18 -18 -42 -11 -49 16 -3 10 -17 23 -31 29 -14 5 -26 16 -26 24 0 7
-22 23 -49 35 -61 26 -64 26 -51 2 5 -11 10 -26 10 -33 -1 -7 -10 4 -21 25
-11 20 -25 37 -32 37 -16 0 -63 48 -55 56 3 3 36 -9 73 -26 110 -51 110 -51
133 -27 29 32 35 86 17 141 -15 44 -14 66 4 66 5 0 11 -10 14 -21z"/>
<path d="M675 420 c-3 -5 -2 -10 4 -10 5 0 13 5 16 10 3 6 2 10 -4 10 -5 0
-13 -4 -16 -10z"/>
<path d="M0 425 c0 -81 2 -94 15 -88 23 8 45 57 45 96 0 33 -31 87 -51 87 -5
0 -9 -43 -9 -95z"/>
</g>
</svg>
