<?xml version="1.0" standalone="no"?>
<!DOCTYPE svg PUBLIC "-//W3C//DTD SVG 20010904//EN"
 "http://www.w3.org/TR/2001/REC-SVG-20010904/DTD/svg10.dtd">
<svg version="1.0" xmlns="http://www.w3.org/2000/svg"
 width="96.000000pt" height="84.000000pt" viewBox="0 0 96.000000 84.000000"
 preserveAspectRatio="xMidYMid meet">
<metadata>
Created by potrace 1.16, written by Peter Selinger 2001-2019
</metadata>
<g transform="translate(0.000000,84.000000) scale(0.100000,-0.100000)"
fill="#000000" stroke="none">
<path d="M320 420 l0 -420 320 0 320 0 0 176 0 175 -24 -3 c-13 -1 -32 4 -43
13 -57 49 -133 71 -133 38 0 -19 -21 -8 -30 16 -5 14 -21 30 -34 35 -14 5 -29
17 -35 28 -5 10 -26 23 -46 29 -34 11 -37 10 -32 -8 7 -28 -8 -24 -21 6 -6 14
-20 25 -29 25 -20 0 -63 41 -63 59 0 15 -3 16 84 -24 89 -40 97 -42 120 -16
33 36 39 86 17 137 -18 39 -19 48 -7 60 20 19 26 18 26 -6 0 -15 7 -20 29 -20
33 0 45 -12 55 -54 6 -26 5 -28 -9 -16 -14 12 -15 10 -5 -14 13 -35 13 -56 0
-36 -8 13 -10 13 -10 -2 0 -9 5 -20 10 -23 6 -3 10 -14 10 -23 0 -32 48 -72
86 -72 24 0 43 -8 59 -25 l25 -24 0 204 0 205 -320 0 -320 0 0 -420z"/>
<path d="M13 523 c-9 -3 -13 -32 -13 -99 l0 -94 26 0 c37 0 84 50 84 90 0 61
-54 118 -97 103z"/>
</g>
</svg>
