<?xml version="1.0" standalone="no"?>
<!DOCTYPE svg PUBLIC "-//W3C//DTD SVG 20010904//EN"
 "http://www.w3.org/TR/2001/REC-SVG-20010904/DTD/svg10.dtd">
<svg version="1.0" xmlns="http://www.w3.org/2000/svg"
 width="96.000000pt" height="84.000000pt" viewBox="0 0 96.000000 84.000000"
 preserveAspectRatio="xMidYMid meet">
<metadata>
Created by potrace 1.16, written by Peter Selinger 2001-2019
</metadata>
<g transform="translate(0.000000,84.000000) scale(0.100000,-0.100000)"
fill="#000000" stroke="none">
<path d="M460 420 l0 -420 250 0 250 0 0 285 c0 271 -1 285 -19 295 -28 14
-52 12 -73 -7 -17 -15 -18 -15 -18 5 0 13 -11 29 -27 39 -16 9 -38 25 -50 36
-12 11 -35 19 -50 19 -15 0 -39 6 -53 13 -14 8 -33 16 -42 19 -18 5 -54 54
-46 62 3 3 45 -12 94 -32 l88 -36 22 27 c22 27 38 90 28 107 -3 4 -84 8 -180
8 l-174 0 0 -420z"/>
<path d="M912 774 c3 -56 7 -69 26 -82 l22 -14 0 81 c0 80 0 81 -25 81 -25 0
-25 -1 -23 -66z"/>
<path d="M125 521 c-51 -22 -73 -82 -51 -135 22 -52 78 -72 128 -45 27 15 49
71 42 108 -11 53 -73 91 -119 72z"/>
</g>
</svg>
