<?xml version="1.0" standalone="no"?>
<!DOCTYPE svg PUBLIC "-//W3C//DTD SVG 20010904//EN"
 "http://www.w3.org/TR/2001/REC-SVG-20010904/DTD/svg10.dtd">
<svg version="1.0" xmlns="http://www.w3.org/2000/svg"
 width="96.000000pt" height="84.000000pt" viewBox="0 0 96.000000 84.000000"
 preserveAspectRatio="xMidYMid meet">
<metadata>
Created by potrace 1.16, written by Peter Selinger 2001-2019
</metadata>
<g transform="translate(0.000000,84.000000) scale(0.100000,-0.100000)"
fill="#000000" stroke="none">
<path d="M770 420 l0 -420 95 0 95 0 0 420 0 420 -95 0 -95 0 0 -420z"/>
<path d="M416 576 c3 -8 -7 -18 -26 -26 -17 -7 -35 -21 -40 -31 -22 -40 -3
-123 36 -163 69 -68 166 13 151 126 -7 49 -30 76 -73 84 -19 3 -34 10 -34 15
0 5 -4 9 -10 9 -5 0 -7 -6 -4 -14z"/>
</g>
</svg>
