<?xml version="1.0" standalone="no"?>
<!DOCTYPE svg PUBLIC "-//W3C//DTD SVG 20010904//EN"
 "http://www.w3.org/TR/2001/REC-SVG-20010904/DTD/svg10.dtd">
<svg version="1.0" xmlns="http://www.w3.org/2000/svg"
 width="96.000000pt" height="84.000000pt" viewBox="0 0 96.000000 84.000000"
 preserveAspectRatio="xMidYMid meet">
<metadata>
Created by potrace 1.16, written by Peter Selinger 2001-2019
</metadata>
<g transform="translate(0.000000,84.000000) scale(0.100000,-0.100000)"
fill="#000000" stroke="none">
<path d="M880 420 l0 -420 40 0 40 0 0 420 0 420 -40 0 -40 0 0 -420z"/>
<path d="M475 597 c6 -22 3 -25 -29 -31 -21 -4 -40 -15 -47 -28 -17 -32 -6
-120 20 -156 20 -29 26 -32 74 -29 46 2 54 5 74 36 17 25 23 48 23 87 0 64
-23 94 -70 94 -23 0 -30 5 -30 19 0 11 -5 23 -10 26 -7 4 -9 -2 -5 -18z"/>
</g>
</svg>
