<?xml version="1.0" standalone="no"?>
<!DOCTYPE svg PUBLIC "-//W3C//DTD SVG 20010904//EN"
 "http://www.w3.org/TR/2001/REC-SVG-20010904/DTD/svg10.dtd">
<svg version="1.0" xmlns="http://www.w3.org/2000/svg"
 width="96.000000pt" height="84.000000pt" viewBox="0 0 96.000000 84.000000"
 preserveAspectRatio="xMidYMid meet">
<metadata>
Created by potrace 1.16, written by Peter Selinger 2001-2019
</metadata>
<g transform="translate(0.000000,84.000000) scale(0.100000,-0.100000)"
fill="#000000" stroke="none">
<path d="M500 611 c0 -18 -6 -21 -40 -21 -34 0 -42 -4 -55 -30 -29 -56 -11
-165 32 -188 18 -10 53 -15 85 -13 19 1 55 55 69 103 14 50 -5 97 -48 114 -23
10 -33 20 -29 29 3 8 1 17 -4 20 -6 4 -10 -3 -10 -14z"/>
<path d="M640 227 c-7 -15 -19 -26 -26 -23 -7 3 -15 -5 -18 -18 -6 -23 -62
-56 -97 -56 -15 0 -18 5 -13 24 8 34 -7 38 -51 15 -26 -14 -61 -22 -105 -24
-37 -1 -126 -13 -198 -26 l-132 -23 0 -48 0 -48 250 0 250 0 0 28 c0 21 7 31
28 39 15 7 38 20 52 30 13 10 21 12 17 6 -5 -7 -3 -21 2 -30 9 -15 10 -12 11
15 0 18 12 50 26 71 17 26 24 49 22 68 l-4 28 -14 -28z"/>
</g>
</svg>
