<?xml version="1.0" standalone="no"?>
<!DOCTYPE svg PUBLIC "-//W3C//DTD SVG 20010904//EN"
 "http://www.w3.org/TR/2001/REC-SVG-20010904/DTD/svg10.dtd">
<svg version="1.0" xmlns="http://www.w3.org/2000/svg"
 width="96.000000pt" height="84.000000pt" viewBox="0 0 96.000000 84.000000"
 preserveAspectRatio="xMidYMid meet">
<metadata>
Created by potrace 1.16, written by Peter Selinger 2001-2019
</metadata>
<g transform="translate(0.000000,84.000000) scale(0.100000,-0.100000)"
fill="#000000" stroke="none">
<path d="M531 593 c-1 -9 -18 -13 -51 -13 -61 0 -71 -15 -79 -113 l-6 -67
-150 -4 c-82 -3 -171 -8 -197 -12 l-48 -7 0 -188 0 -189 224 0 223 0 -19 126
c-11 70 -17 132 -14 139 2 7 31 15 64 19 55 6 64 11 105 54 46 50 71 106 65
144 -4 22 -5 22 -18 -4 -16 -34 -25 -36 -27 -6 -3 36 -24 77 -43 83 -11 3 -21
16 -23 28 -2 12 -5 16 -6 10z"/>
</g>
</svg>
