<?xml version="1.0" standalone="no"?>
<!DOCTYPE svg PUBLIC "-//W3C//DTD SVG 20010904//EN"
 "http://www.w3.org/TR/2001/REC-SVG-20010904/DTD/svg10.dtd">
<svg version="1.0" xmlns="http://www.w3.org/2000/svg"
 width="96.000000pt" height="84.000000pt" viewBox="0 0 96.000000 84.000000"
 preserveAspectRatio="xMidYMid meet">
<metadata>
Created by potrace 1.16, written by Peter Selinger 2001-2019
</metadata>
<g transform="translate(0.000000,84.000000) scale(0.100000,-0.100000)"
fill="#000000" stroke="none">
<path d="M0 420 l0 -420 241 0 242 0 -6 38 c-4 20 -9 67 -13 104 l-7 66 47
-15 c45 -15 47 -15 84 10 22 14 46 42 56 65 16 36 17 47 7 84 -13 47 -59 88
-99 88 -37 0 -82 -69 -82 -127 0 -7 -9 -13 -20 -13 -11 0 -20 4 -20 9 0 19
-38 21 -171 12 -129 -9 -135 -9 -156 11 -21 19 -33 47 -50 109 -4 13 -6 47 -5
74 1 50 1 177 0 227 -1 18 9 35 31 53 17 15 31 31 31 36 0 5 -25 9 -55 9 l-54
0 -1 -420z"/>
</g>
</svg>
