<?xml version="1.0" standalone="no"?>
<!DOCTYPE svg PUBLIC "-//W3C//DTD SVG 20010904//EN"
 "http://www.w3.org/TR/2001/REC-SVG-20010904/DTD/svg10.dtd">
<svg version="1.0" xmlns="http://www.w3.org/2000/svg"
 width="96.000000pt" height="84.000000pt" viewBox="0 0 96.000000 84.000000"
 preserveAspectRatio="xMidYMid meet">
<metadata>
Created by potrace 1.16, written by Peter Selinger 2001-2019
</metadata>
<g transform="translate(0.000000,84.000000) scale(0.100000,-0.100000)"
fill="#000000" stroke="none">
<path d="M0 420 l0 -420 480 0 480 0 0 420 0 420 -480 0 -480 0 0 -420z m666
264 c18 -15 18 -15 -3 -9 -17 5 -23 2 -23 -9 0 -9 8 -16 19 -16 19 0 61 -43
61 -63 0 -5 -13 -7 -30 -3 -26 5 -30 3 -30 -16 0 -17 3 -19 12 -10 18 18 27
15 38 -13 7 -18 17 -25 37 -26 16 0 22 -3 15 -6 -29 -12 2 -21 56 -16 52 5 61
3 85 -19 27 -26 37 -68 15 -68 -6 0 -19 -7 -28 -15 -12 -11 -23 -12 -46 -5
-66 21 -133 40 -143 40 -6 0 -11 -11 -11 -25 0 -30 -20 -33 -27 -5 -4 16 -14
20 -44 20 -22 0 -39 5 -39 10 0 6 -21 9 -47 9 -62 -2 -124 8 -137 21 -17 17
-3 19 79 10 78 -8 81 -7 103 17 18 20 22 32 16 57 -3 17 -11 34 -16 37 -5 3
-6 13 -3 21 4 11 -2 17 -19 22 -26 6 -37 26 -15 26 8 0 8 4 0 14 -8 9 -8 16
-2 20 5 4 15 -2 21 -11 10 -17 12 -17 26 5 19 26 52 29 80 6z"/>
<path d="M606 495 c-9 -14 -12 -25 -7 -25 12 0 35 39 28 46 -2 3 -12 -7 -21
-21z"/>
</g>
</svg>
