<?xml version="1.0" standalone="no"?>
<!DOCTYPE svg PUBLIC "-//W3C//DTD SVG 20010904//EN"
 "http://www.w3.org/TR/2001/REC-SVG-20010904/DTD/svg10.dtd">
<svg version="1.0" xmlns="http://www.w3.org/2000/svg"
 width="96.000000pt" height="84.000000pt" viewBox="0 0 96.000000 84.000000"
 preserveAspectRatio="xMidYMid meet">
<metadata>
Created by potrace 1.16, written by Peter Selinger 2001-2019
</metadata>
<g transform="translate(0.000000,84.000000) scale(0.100000,-0.100000)"
fill="#000000" stroke="none">
<path d="M65 759 c-24 -72 -27 -92 -23 -184 3 -104 11 -132 28 -105 8 12 10
11 10 -7 0 -12 6 -23 13 -26 9 -3 11 -47 9 -183 -1 -98 -5 -196 -8 -216 l-6
-38 256 0 255 0 8 38 c4 20 7 74 8 119 l0 83 32 0 c61 0 97 96 53 140 -11 11
-29 20 -39 20 -24 0 -51 -36 -51 -67 0 -23 -16 -40 -22 -23 -2 7 -30 8 -88 1
-82 -9 -85 -9 -122 17 -21 15 -38 32 -38 39 0 7 -9 21 -20 31 -18 17 -20 28
-16 92 2 42 9 76 16 80 7 4 9 13 6 19 -4 6 5 22 20 34 45 39 33 109 -32 186
-26 31 -26 31 -124 31 l-98 0 -27 -81z"/>
</g>
</svg>
