<?xml version="1.0" standalone="no"?>
<!DOCTYPE svg PUBLIC "-//W3C//DTD SVG 20010904//EN"
 "http://www.w3.org/TR/2001/REC-SVG-20010904/DTD/svg10.dtd">
<svg version="1.0" xmlns="http://www.w3.org/2000/svg"
 width="96.000000pt" height="84.000000pt" viewBox="0 0 96.000000 84.000000"
 preserveAspectRatio="xMidYMid meet">
<metadata>
Created by potrace 1.16, written by Peter Selinger 2001-2019
</metadata>
<g transform="translate(0.000000,84.000000) scale(0.100000,-0.100000)"
fill="#000000" stroke="none">
<path d="M300 785 c-7 -8 -25 -15 -40 -15 -33 0 -49 -22 -74 -103 -23 -73 -28
-238 -8 -245 7 -2 22 -13 33 -25 17 -18 19 -36 19 -143 0 -112 -9 -193 -25
-236 -7 -16 1 -18 86 -18 l94 0 15 33 14 32 6 -30 5 -30 89 -3 c52 -2 93 2
101 8 21 18 40 101 40 183 0 77 1 79 26 84 29 6 49 38 49 81 0 35 -17 52 -51
52 -29 0 -39 -15 -39 -61 0 -17 -4 -28 -8 -25 -5 3 -39 1 -76 -5 -74 -10 -115
2 -136 41 -6 11 -17 20 -25 20 -7 0 -16 9 -20 20 -9 28 5 107 20 120 8 6 11
18 9 25 -3 7 4 18 15 25 16 8 21 20 21 49 0 29 -11 54 -50 109 -51 73 -68 84
-90 57z m120 -627 c0 -74 -5 -73 -14 5 -5 38 -4 57 3 57 7 0 11 -24 11 -62z"/>
</g>
</svg>
