<?xml version="1.0" standalone="no"?>
<!DOCTYPE svg PUBLIC "-//W3C//DTD SVG 20010904//EN"
 "http://www.w3.org/TR/2001/REC-SVG-20010904/DTD/svg10.dtd">
<svg version="1.0" xmlns="http://www.w3.org/2000/svg"
 width="96.000000pt" height="84.000000pt" viewBox="0 0 96.000000 84.000000"
 preserveAspectRatio="xMidYMid meet">
<metadata>
Created by potrace 1.16, written by Peter Selinger 2001-2019
</metadata>
<g transform="translate(0.000000,84.000000) scale(0.100000,-0.100000)"
fill="#000000" stroke="none">
<path d="M355 731 c-3 -6 -19 -11 -35 -11 -22 0 -33 -7 -43 -27 -42 -82 -65
-293 -32 -293 9 0 18 -7 22 -16 5 -13 7 -13 14 -2 6 9 9 4 10 -17 1 -16 0 -34
-1 -40 -1 -5 -2 -44 -1 -85 1 -67 -6 -127 -25 -212 l-6 -28 85 0 85 0 7 32 c4
18 9 67 10 108 2 91 4 101 15 75 5 -11 9 -51 9 -90 2 -96 15 -120 66 -119 57
3 98 15 112 33 18 24 35 140 28 191 -5 42 -4 46 25 62 26 15 30 23 30 58 0 33
-4 42 -25 52 -33 15 -55 -4 -55 -49 0 -19 -4 -32 -8 -29 -5 3 -35 -1 -67 -9
-51 -12 -61 -11 -82 2 -13 9 -28 24 -34 34 -5 10 -16 16 -24 13 -38 -15 -18
142 23 174 28 22 18 78 -26 140 -39 56 -64 73 -77 53z"/>
</g>
</svg>
