<?xml version="1.0" standalone="no"?>
<!DOCTYPE svg PUBLIC "-//W3C//DTD SVG 20010904//EN"
 "http://www.w3.org/TR/2001/REC-SVG-20010904/DTD/svg10.dtd">
<svg version="1.0" xmlns="http://www.w3.org/2000/svg"
 width="96.000000pt" height="84.000000pt" viewBox="0 0 96.000000 84.000000"
 preserveAspectRatio="xMidYMid meet">
<metadata>
Created by potrace 1.16, written by Peter Selinger 2001-2019
</metadata>
<g transform="translate(0.000000,84.000000) scale(0.100000,-0.100000)"
fill="#000000" stroke="none">
<path d="M375 720 c-3 -5 -19 -10 -34 -10 -36 0 -46 -13 -71 -90 -25 -78 -28
-205 -5 -214 8 -3 15 -13 15 -23 0 -14 2 -15 9 -5 5 9 10 1 14 -24 4 -25 2
-41 -6 -46 -9 -6 -9 -8 2 -8 11 0 12 -12 8 -57 -11 -98 -25 -197 -33 -220 -6
-23 -5 -23 79 -23 l85 0 7 38 c4 20 6 72 6 114 -2 79 14 109 23 46 3 -18 9
-64 15 -101 15 -101 20 -105 134 -84 44 8 52 32 52 152 0 63 3 115 8 115 18 0
47 43 47 69 0 34 -20 54 -52 49 -19 -2 -24 -10 -26 -41 -2 -20 -7 -35 -11 -32
-5 2 -32 -2 -60 -11 -45 -13 -54 -13 -80 1 -16 8 -32 24 -36 35 -4 11 -11 17
-17 14 -28 -18 -40 93 -13 116 9 7 14 18 12 23 -2 6 7 20 19 32 30 30 20 72
-30 143 -38 52 -50 60 -61 42z"/>
</g>
</svg>
