<?xml version="1.0" standalone="no"?>
<!DOCTYPE svg PUBLIC "-//W3C//DTD SVG 20010904//EN"
 "http://www.w3.org/TR/2001/REC-SVG-20010904/DTD/svg10.dtd">
<svg version="1.0" xmlns="http://www.w3.org/2000/svg"
 width="96.000000pt" height="84.000000pt" viewBox="0 0 96.000000 84.000000"
 preserveAspectRatio="xMidYMid meet">
<metadata>
Created by potrace 1.16, written by Peter Selinger 2001-2019
</metadata>
<g transform="translate(0.000000,84.000000) scale(0.100000,-0.100000)"
fill="#000000" stroke="none">
<path d="M395 710 c-4 -7 -18 -10 -32 -7 -51 10 -90 -69 -100 -204 -5 -68 -3
-79 15 -97 11 -11 23 -18 26 -15 9 9 6 -186 -4 -236 -5 -25 -11 -70 -15 -98
l-6 -53 85 0 84 0 7 76 c4 41 5 93 2 115 -9 69 11 32 23 -44 7 -39 19 -89 27
-109 13 -34 19 -38 49 -38 59 0 114 22 121 49 6 25 -2 174 -12 207 -5 15 0 23
18 31 50 23 43 113 -8 113 -29 0 -38 -13 -37 -51 0 -22 -4 -29 -19 -29 -11 0
-36 -7 -57 -15 -43 -19 -78 -6 -93 33 -5 13 -13 21 -18 17 -13 -7 -25 33 -22
70 3 40 27 91 46 99 21 8 19 75 -2 106 -10 14 -25 38 -33 54 -17 33 -34 43
-45 26z"/>
</g>
</svg>
