<?xml version="1.0" standalone="no"?>
<!DOCTYPE svg PUBLIC "-//W3C//DTD SVG 20010904//EN"
 "http://www.w3.org/TR/2001/REC-SVG-20010904/DTD/svg10.dtd">
<svg version="1.0" xmlns="http://www.w3.org/2000/svg"
 width="96.000000pt" height="84.000000pt" viewBox="0 0 96.000000 84.000000"
 preserveAspectRatio="xMidYMid meet">
<metadata>
Created by potrace 1.16, written by Peter Selinger 2001-2019
</metadata>
<g transform="translate(0.000000,84.000000) scale(0.100000,-0.100000)"
fill="#000000" stroke="none">
<path d="M346 657 c-31 -43 -44 -83 -51 -169 -4 -50 -3 -68 4 -59 8 12 11 10
16 -12 4 -15 11 -25 15 -22 4 3 10 -12 12 -33 3 -20 1 -38 -3 -40 -5 -2 -3
-12 3 -21 8 -14 7 -48 -6 -137 -9 -66 -19 -129 -22 -141 -6 -23 -5 -23 80 -23
l86 0 -6 39 c-4 24 -2 41 5 45 6 4 11 0 11 -9 0 -9 7 -29 15 -45 14 -27 20
-30 64 -30 32 0 53 5 61 15 7 9 19 14 27 11 33 -13 24 88 -19 199 -13 33 -16
51 -9 53 55 18 54 112 -1 112 -19 0 -41 -32 -36 -54 4 -18 -70 -69 -88 -62 -8
3 -14 12 -14 21 0 9 -9 33 -20 55 -17 33 -18 46 -10 90 6 33 18 58 35 73 25
22 25 23 12 84 -7 35 -17 67 -22 72 -6 6 -34 12 -63 15 -49 4 -53 3 -76 -27z"/>
</g>
</svg>
