<?xml version="1.0" standalone="no"?>
<!DOCTYPE svg PUBLIC "-//W3C//DTD SVG 20010904//EN"
 "http://www.w3.org/TR/2001/REC-SVG-20010904/DTD/svg10.dtd">
<svg version="1.0" xmlns="http://www.w3.org/2000/svg"
 width="96.000000pt" height="84.000000pt" viewBox="0 0 96.000000 84.000000"
 preserveAspectRatio="xMidYMid meet">
<metadata>
Created by potrace 1.16, written by Peter Selinger 2001-2019
</metadata>
<g transform="translate(0.000000,84.000000) scale(0.100000,-0.100000)"
fill="#000000" stroke="none">
<path d="M362 658 c-18 -17 -35 -41 -38 -52 -4 -12 -13 -28 -21 -38 -8 -9 -10
-19 -5 -22 5 -3 7 -26 4 -51 -5 -49 15 -106 29 -83 8 13 19 -9 33 -64 5 -23 3
-28 -11 -28 -17 -1 -17 -1 0 -11 10 -6 16 -17 13 -27 -3 -9 -10 -66 -16 -127
-5 -60 -13 -120 -16 -132 l-6 -23 145 0 c116 0 147 3 157 15 7 8 16 13 20 10
29 -18 12 120 -25 208 -14 35 -14 40 -1 50 27 21 36 62 19 86 -24 35 -57 24
-62 -19 -2 -25 -13 -43 -37 -63 l-34 -29 0 29 c0 15 -9 46 -19 68 -11 26 -15
48 -10 60 4 11 8 33 8 49 1 16 8 34 17 41 11 7 18 29 19 56 1 24 7 56 13 71
10 24 9 29 -8 38 -10 5 -36 9 -57 8 -21 0 -47 2 -59 6 -16 5 -29 -2 -52 -26z
m101 -229 c4 -16 3 -18 -9 -8 -7 6 -11 15 -8 20 8 13 11 11 17 -12z"/>
</g>
</svg>
