<?xml version="1.0" standalone="no"?>
<!DOCTYPE svg PUBLIC "-//W3C//DTD SVG 20010904//EN"
 "http://www.w3.org/TR/2001/REC-SVG-20010904/DTD/svg10.dtd">
<svg version="1.0" xmlns="http://www.w3.org/2000/svg"
 width="96.000000pt" height="84.000000pt" viewBox="0 0 96.000000 84.000000"
 preserveAspectRatio="xMidYMid meet">
<metadata>
Created by potrace 1.16, written by Peter Selinger 2001-2019
</metadata>
<g transform="translate(0.000000,84.000000) scale(0.100000,-0.100000)"
fill="#000000" stroke="none">
<path d="M379 700 c-8 -5 -24 -28 -33 -52 -10 -24 -23 -53 -29 -66 -7 -16 -7
-26 0 -33 7 -7 7 -24 2 -50 -10 -44 4 -84 26 -75 14 5 27 -27 30 -76 2 -20 -2
-28 -13 -28 -14 0 -13 -2 1 -13 15 -11 16 -19 8 -62 -5 -28 -12 -94 -15 -147
l-4 -98 133 0 c184 0 192 11 135 182 -26 79 -28 92 -16 102 27 20 36 61 19 85
-24 35 -57 24 -61 -19 -5 -53 -24 -56 -43 -7 -12 31 -14 49 -7 70 6 15 8 40 5
55 -3 17 1 34 11 45 9 10 15 34 15 55 -1 20 5 45 13 56 19 28 18 54 -3 60 -10
2 -42 4 -71 3 -29 0 -58 5 -64 11 -14 14 -18 14 -39 2z m111 -266 c0 -22 -2
-25 -15 -14 -12 10 -13 16 -4 26 16 20 19 18 19 -12z"/>
</g>
</svg>
