<?xml version="1.0" standalone="no"?>
<!DOCTYPE svg PUBLIC "-//W3C//DTD SVG 20010904//EN"
 "http://www.w3.org/TR/2001/REC-SVG-20010904/DTD/svg10.dtd">
<svg version="1.0" xmlns="http://www.w3.org/2000/svg"
 width="96.000000pt" height="84.000000pt" viewBox="0 0 96.000000 84.000000"
 preserveAspectRatio="xMidYMid meet">
<metadata>
Created by potrace 1.16, written by Peter Selinger 2001-2019
</metadata>
<g transform="translate(0.000000,84.000000) scale(0.100000,-0.100000)"
fill="#000000" stroke="none">
<path d="M0 420 l0 -420 480 0 480 0 0 191 c0 165 -2 190 -14 180 -10 -9 -21
-9 -33 -3 -10 5 -38 13 -63 17 -25 4 -57 14 -72 21 -36 19 -50 18 -47 -3 4
-47 -14 -61 -25 -19 -5 22 -10 24 -45 20 -28 -3 -40 -1 -44 11 -7 16 -52 21
-62 6 -3 -6 -18 -6 -36 -1 -16 5 -36 7 -42 5 -7 -3 -23 4 -37 16 l-25 20 91
-7 92 -6 18 27 c21 32 20 86 -2 98 -9 5 -13 16 -9 27 4 13 -1 19 -20 24 -33 8
-33 36 0 36 14 0 29 8 35 19 14 28 45 34 77 17 26 -14 27 -15 6 -16 -27 0 -32
-29 -5 -32 9 -1 24 -2 32 -4 8 -1 21 -2 28 -3 22 -2 12 -26 -23 -51 -19 -14
-35 -31 -35 -39 0 -11 4 -9 15 5 8 11 15 14 15 7 0 -7 7 -13 15 -13 8 0 15 -7
15 -15 0 -10 10 -15 31 -15 27 0 31 -3 26 -21 -4 -16 -2 -19 11 -14 38 14 102
17 117 5 13 -11 15 8 15 169 l0 181 -480 0 -480 0 0 -420z"/>
<path d="M641 477 c-13 -21 -12 -21 5 -5 10 10 16 20 13 22 -3 3 -11 -5 -18
-17z"/>
<path d="M758 493 c6 -2 18 -2 25 0 6 3 1 5 -13 5 -14 0 -19 -2 -12 -5z"/>
</g>
</svg>
