<?xml version="1.0" standalone="no"?>
<!DOCTYPE svg PUBLIC "-//W3C//DTD SVG 20010904//EN"
 "http://www.w3.org/TR/2001/REC-SVG-20010904/DTD/svg10.dtd">
<svg version="1.0" xmlns="http://www.w3.org/2000/svg"
 width="96.000000pt" height="84.000000pt" viewBox="0 0 96.000000 84.000000"
 preserveAspectRatio="xMidYMid meet">
<metadata>
Created by potrace 1.16, written by Peter Selinger 2001-2019
</metadata>
<g transform="translate(0.000000,84.000000) scale(0.100000,-0.100000)"
fill="#000000" stroke="none">
<path d="M350 718 c-22 -36 -34 -83 -26 -97 3 -5 -1 -14 -9 -21 -19 -15 -19
-36 -2 -43 10 -4 12 -22 9 -68 -4 -54 -3 -61 12 -56 10 4 16 1 16 -9 0 -8 4
-13 10 -9 12 7 13 -213 0 -288 -5 -31 -6 -72 -3 -92 l6 -35 133 0 134 0 0 50
c0 59 -17 145 -37 183 -13 26 -12 28 10 36 27 11 37 29 37 71 0 33 -21 53 -52
48 -19 -2 -24 -11 -28 -43 l-5 -40 -11 30 c-6 17 -7 45 -4 62 4 18 4 50 0 71
-5 27 -3 45 7 57 7 11 13 35 13 54 1 20 7 47 15 61 8 14 14 38 15 53 0 29 0
29 -57 26 -56 -2 -79 2 -115 22 -30 16 -48 10 -68 -23z m169 -308 l1 -24 -16
22 c-11 16 -14 32 -9 50 l8 27 7 -25 c5 -14 8 -36 9 -50z"/>
</g>
</svg>
