<?xml version="1.0" standalone="no"?>
<!DOCTYPE svg PUBLIC "-//W3C//DTD SVG 20010904//EN"
 "http://www.w3.org/TR/2001/REC-SVG-20010904/DTD/svg10.dtd">
<svg version="1.0" xmlns="http://www.w3.org/2000/svg"
 width="96.000000pt" height="84.000000pt" viewBox="0 0 96.000000 84.000000"
 preserveAspectRatio="xMidYMid meet">
<metadata>
Created by potrace 1.16, written by Peter Selinger 2001-2019
</metadata>
<g transform="translate(0.000000,84.000000) scale(0.100000,-0.100000)"
fill="#000000" stroke="none">
<path d="M266 832 c-14 -23 -18 -93 -6 -107 10 -13 10 -19 -5 -35 -18 -20 -18
-21 4 -51 15 -20 21 -39 17 -57 -3 -15 -2 -54 2 -87 5 -46 11 -60 23 -59 14 1
15 -17 12 -145 -3 -87 -9 -151 -16 -159 -8 -10 -8 -15 0 -20 7 -4 15 -31 19
-60 9 -71 24 -66 24 8 0 33 4 60 9 60 15 0 22 -47 11 -75 -5 -14 -10 -31 -10
-36 0 -5 69 -9 165 -9 159 0 165 1 165 20 0 18 -21 85 -45 142 -6 14 0 19 34
24 50 8 59 22 67 102 6 55 5 59 -20 76 -17 10 -41 16 -63 14 -32 -3 -38 -8
-48 -38 -11 -33 -12 -34 -20 -11 -4 13 -4 51 -1 85 3 33 2 79 -3 100 -9 35 -7
43 15 69 16 19 24 41 24 67 0 22 13 65 30 102 16 34 30 69 30 76 0 9 -48 12
-204 12 -113 0 -207 -4 -210 -8z m271 -384 c-3 -7 -5 -2 -5 12 0 14 2 19 5 13
2 -7 2 -19 0 -25z m-187 -278 c0 -5 -4 -10 -10 -10 -5 0 -10 5 -10 10 0 6 5
10 10 10 6 0 10 -4 10 -10z"/>
</g>
</svg>
