<?xml version="1.0" standalone="no"?>
<!DOCTYPE svg PUBLIC "-//W3C//DTD SVG 20010904//EN"
 "http://www.w3.org/TR/2001/REC-SVG-20010904/DTD/svg10.dtd">
<svg version="1.0" xmlns="http://www.w3.org/2000/svg"
 width="96.000000pt" height="84.000000pt" viewBox="0 0 96.000000 84.000000"
 preserveAspectRatio="xMidYMid meet">
<metadata>
Created by potrace 1.16, written by Peter Selinger 2001-2019
</metadata>
<g transform="translate(0.000000,84.000000) scale(0.100000,-0.100000)"
fill="#000000" stroke="none">
<path d="M0 420 l0 -420 480 0 480 0 0 134 0 133 -60 13 c-58 12 -61 14 -90
68 -33 61 -37 87 -17 99 11 7 11 29 0 133 -7 69 -11 140 -7 159 5 29 3 33 -12
27 -17 -6 -17 -6 3 57 5 16 -18 17 -386 17 l-391 0 0 -420z"/>
</g>
</svg>
