<?xml version="1.0" standalone="no"?>
<!DOCTYPE svg PUBLIC "-//W3C//DTD SVG 20010904//EN"
 "http://www.w3.org/TR/2001/REC-SVG-20010904/DTD/svg10.dtd">
<svg version="1.0" xmlns="http://www.w3.org/2000/svg"
 width="96.000000pt" height="84.000000pt" viewBox="0 0 96.000000 84.000000"
 preserveAspectRatio="xMidYMid meet">
<metadata>
Created by potrace 1.16, written by Peter Selinger 2001-2019
</metadata>
<g transform="translate(0.000000,84.000000) scale(0.100000,-0.100000)"
fill="#000000" stroke="none">
<path d="M0 420 l0 -420 480 0 480 0 0 169 0 169 -27 11 c-16 6 -48 15 -73 21
-25 5 -57 12 -72 16 -25 6 -28 4 -28 -20 0 -34 -27 -34 -36 0 -6 24 -10 26
-45 20 -31 -5 -39 -3 -39 9 0 11 -11 15 -42 14 -24 0 -37 -3 -30 -6 6 -2 12
-9 12 -14 0 -5 -13 -3 -29 6 -17 8 -37 12 -45 9 -9 -3 -16 -1 -16 5 0 6 -7 11
-15 11 -8 0 -15 5 -15 11 0 8 26 10 82 8 l82 -4 23 34 c26 38 29 52 11 49 -8
-2 -12 6 -11 20 2 12 -2 22 -8 22 -7 0 -9 10 -7 24 4 20 -1 27 -22 36 -21 9
-26 17 -22 32 3 13 7 16 12 8 9 -14 29 -5 48 22 16 22 51 23 78 3 19 -15 19
-16 -1 -13 -39 6 -21 -27 20 -37 44 -11 51 -29 21 -51 -11 -8 -16 -14 -11 -14
5 0 4 -5 -3 -12 -19 -19 -14 -26 13 -20 20 3 25 0 25 -17 0 -15 6 -21 23 -21
13 0 27 -4 33 -10 5 -5 32 -7 62 -3 l52 6 0 173 0 174 -480 0 -480 0 0 -420z"/>
<path d="M788 473 c12 -2 30 -2 40 0 9 3 -1 5 -23 4 -22 0 -30 -2 -17 -4z"/>
</g>
</svg>
