<?xml version="1.0" standalone="no"?>
<!DOCTYPE svg PUBLIC "-//W3C//DTD SVG 20010904//EN"
 "http://www.w3.org/TR/2001/REC-SVG-20010904/DTD/svg10.dtd">
<svg version="1.0" xmlns="http://www.w3.org/2000/svg"
 width="96.000000pt" height="84.000000pt" viewBox="0 0 96.000000 84.000000"
 preserveAspectRatio="xMidYMid meet">
<metadata>
Created by potrace 1.16, written by Peter Selinger 2001-2019
</metadata>
<g transform="translate(0.000000,84.000000) scale(0.100000,-0.100000)"
fill="#000000" stroke="none">
<path d="M0 420 l0 -420 480 0 480 0 0 158 0 157 -62 19 c-35 10 -75 23 -90
28 -36 13 -42 12 -43 -14 0 -30 -25 -36 -26 -6 -1 23 -1 23 -9 -2 l-7 -25 -8
28 c-7 26 -11 28 -41 22 -27 -5 -34 -3 -34 10 0 10 -10 15 -31 15 -24 0 -30
-4 -25 -15 5 -13 2 -13 -18 0 -13 9 -28 15 -32 14 -5 -1 -17 1 -26 5 -37 16
-15 26 57 26 72 0 75 1 90 30 19 37 19 50 -1 50 -11 0 -14 5 -10 16 4 9 2 22
-4 29 -6 7 -9 23 -8 36 2 18 -2 25 -19 27 -23 3 -33 22 -12 22 8 0 8 4 0 14
-10 12 -8 13 8 9 13 -3 32 4 51 21 25 20 35 24 50 16 25 -14 39 -36 17 -27
-12 5 -17 1 -17 -12 0 -12 10 -21 26 -25 14 -4 23 -12 21 -19 -2 -7 3 -20 11
-30 14 -16 14 -19 2 -27 -8 -5 -23 -7 -33 -4 -14 5 -18 2 -15 -13 2 -10 11
-16 19 -14 8 2 22 6 32 8 12 4 17 0 17 -16 0 -12 6 -21 15 -21 8 0 15 -4 15
-9 0 -13 -27 -21 -47 -14 -14 5 -15 3 -7 -6 9 -10 25 -9 74 3 34 9 75 16 91
16 l29 0 0 180 0 180 -480 0 -480 0 0 -420z"/>
</g>
</svg>
