<?xml version="1.0" standalone="no"?>
<!DOCTYPE svg PUBLIC "-//W3C//DTD SVG 20010904//EN"
 "http://www.w3.org/TR/2001/REC-SVG-20010904/DTD/svg10.dtd">
<svg version="1.0" xmlns="http://www.w3.org/2000/svg"
 width="96.000000pt" height="84.000000pt" viewBox="0 0 96.000000 84.000000"
 preserveAspectRatio="xMidYMid meet">
<metadata>
Created by potrace 1.16, written by Peter Selinger 2001-2019
</metadata>
<g transform="translate(0.000000,84.000000) scale(0.100000,-0.100000)"
fill="#000000" stroke="none">
<path d="M150 836 c0 -15 23 -65 29 -62 12 8 13 -75 1 -89 -6 -8 -11 -68 -12
-149 -1 -84 -6 -145 -13 -159 -80 -149 -106 -204 -129 -269 -14 -42 -26 -83
-26 -92 0 -14 49 -16 480 -16 l480 0 0 54 c0 54 0 55 -32 58 -32 3 -33 4 -45
73 -6 39 -14 92 -18 119 -5 37 -15 58 -47 92 -22 24 -49 46 -60 50 -13 4 -17
11 -13 22 8 19 13 72 23 242 l7 115 40 6 c22 3 -119 7 -312 8 -194 0 -353 -1
-353 -3z m577 -283 c-3 -10 -5 -4 -5 12 0 17 2 24 5 18 2 -7 2 -21 0 -30z
m-336 -46 c-18 -18 -25 1 -11 30 l14 28 4 -24 c2 -13 -1 -28 -7 -34z"/>
</g>
</svg>
