<?xml version="1.0" standalone="no"?>
<!DOCTYPE svg PUBLIC "-//W3C//DTD SVG 20010904//EN"
 "http://www.w3.org/TR/2001/REC-SVG-20010904/DTD/svg10.dtd">
<svg version="1.0" xmlns="http://www.w3.org/2000/svg"
 width="96.000000pt" height="84.000000pt" viewBox="0 0 96.000000 84.000000"
 preserveAspectRatio="xMidYMid meet">
<metadata>
Created by potrace 1.16, written by Peter Selinger 2001-2019
</metadata>
<g transform="translate(0.000000,84.000000) scale(0.100000,-0.100000)"
fill="#000000" stroke="none">
<path d="M0 420 l1 -420 479 0 480 0 0 178 c0 97 -4 172 -8 165 -13 -20 -65
-43 -76 -33 -6 4 -13 8 -16 8 -3 1 -18 5 -33 11 -16 6 -34 11 -42 11 -8 0 -17
6 -22 13 -5 8 -9 2 -13 -17 -7 -39 -23 -39 -30 -1 l-6 30 -8 -30 -8 -30 -14
27 c-10 19 -19 25 -34 21 -14 -4 -20 0 -20 11 0 10 -8 16 -21 16 -16 0 -20 -4
-14 -17 5 -15 4 -16 -6 -5 -7 6 -21 12 -32 12 -18 0 -47 22 -47 35 0 3 26 3
58 -1 63 -7 75 0 87 49 6 21 4 27 -9 27 -11 0 -16 10 -17 33 -2 75 -4 82 -21
82 -9 0 -20 4 -24 8 -4 4 -2 7 5 7 8 0 11 6 7 16 -3 8 -2 12 4 9 6 -3 10 -1
10 5 0 6 5 8 10 5 6 -4 19 4 29 16 16 21 22 22 45 11 14 -6 26 -16 26 -22 0
-6 -5 -8 -10 -5 -5 3 -10 -3 -10 -13 0 -13 9 -22 25 -26 14 -4 23 -11 20 -15
-3 -5 -1 -20 4 -33 8 -21 6 -24 -17 -26 -31 -3 -34 -5 -26 -25 5 -15 8 -15 27
-2 29 20 34 19 40 -11 2 -15 -2 -31 -10 -40 -14 -13 -12 -14 13 -8 16 4 37 11
46 15 35 19 80 10 109 -21 l29 -30 0 215 0 215 -480 0 -480 0 0 -420z"/>
</g>
</svg>
