<?xml version="1.0" standalone="no"?>
<!DOCTYPE svg PUBLIC "-//W3C//DTD SVG 20010904//EN"
 "http://www.w3.org/TR/2001/REC-SVG-20010904/DTD/svg10.dtd">
<svg version="1.0" xmlns="http://www.w3.org/2000/svg"
 width="96.000000pt" height="84.000000pt" viewBox="0 0 96.000000 84.000000"
 preserveAspectRatio="xMidYMid meet">
<metadata>
Created by potrace 1.16, written by Peter Selinger 2001-2019
</metadata>
<g transform="translate(0.000000,84.000000) scale(0.100000,-0.100000)"
fill="#000000" stroke="none">
<path d="M0 515 l0 -325 48 0 c26 0 57 -3 70 -6 20 -6 22 -3 22 27 0 19 5 41
10 49 8 13 11 13 27 -2 15 -15 17 -35 14 -138 l-3 -120 386 0 386 0 0 420 0
420 -480 0 -480 0 0 -325z m677 133 c4 -7 7 -22 8 -33 0 -13 8 -21 23 -23 28
-4 29 -35 2 -62 -11 -11 -20 -27 -20 -35 0 -13 3 -13 26 2 l26 17 -4 -30 -3
-29 60 4 c33 2 57 0 53 -4 -3 -4 2 -15 13 -26 22 -22 26 -84 7 -103 -18 -17
-57 -26 -64 -15 -3 5 -11 8 -17 7 -7 -1 -22 3 -33 10 -19 10 -23 9 -27 -8 -6
-25 -27 -26 -27 -2 0 30 -13 34 -27 10 l-13 -23 -6 22 c-3 12 -12 19 -19 17
-7 -3 -15 2 -18 10 -4 9 -11 16 -17 16 -6 0 -8 -5 -4 -11 9 -15 -38 0 -48 15
-15 21 -8 28 23 21 22 -5 36 -2 50 11 19 18 27 64 10 64 -6 0 -11 23 -13 52
-3 46 -6 53 -28 59 -14 4 -20 7 -14 8 6 1 26 17 45 36 37 38 44 41 56 23z"/>
</g>
</svg>
