<?xml version="1.0" standalone="no"?>
<!DOCTYPE svg PUBLIC "-//W3C//DTD SVG 20010904//EN"
 "http://www.w3.org/TR/2001/REC-SVG-20010904/DTD/svg10.dtd">
<svg version="1.0" xmlns="http://www.w3.org/2000/svg"
 width="96.000000pt" height="84.000000pt" viewBox="0 0 96.000000 84.000000"
 preserveAspectRatio="xMidYMid meet">
<metadata>
Created by potrace 1.16, written by Peter Selinger 2001-2019
</metadata>
<g transform="translate(0.000000,84.000000) scale(0.100000,-0.100000)"
fill="#000000" stroke="none">
<path d="M0 555 c0 -183 4 -285 10 -285 6 0 10 6 10 14 0 7 7 27 15 42 9 18
15 22 15 13 0 -9 7 -19 15 -23 8 -3 15 -14 15 -23 0 -10 10 -25 21 -33 36 -25
49 -41 49 -60 0 -16 10 -19 70 -22 l70 -3 0 31 c0 37 20 60 38 42 8 -8 12 -53
12 -130 l0 -118 310 0 310 0 0 420 0 420 -480 0 -480 0 0 -285z m661 75 c1 -5
3 -14 4 -20 1 -5 3 -14 4 -19 0 -5 10 -13 21 -16 25 -8 25 -20 -1 -57 -25 -34
-20 -45 11 -28 21 11 22 10 16 -14 -6 -24 -4 -26 27 -26 42 0 70 -28 71 -72 1
-35 -26 -74 -43 -63 -6 3 -11 1 -11 -6 0 -9 -3 -9 -14 0 -11 9 -20 9 -35 2
-27 -15 -31 -14 -31 8 0 28 -20 37 -27 12 -6 -24 -23 -28 -23 -6 0 8 -4 15
-10 15 -16 0 -24 4 -42 19 -24 20 -23 24 11 39 29 13 47 47 30 58 -5 3 -9 27
-9 55 0 43 -3 49 -21 49 -18 0 -17 4 13 40 32 38 57 51 59 30z"/>
</g>
</svg>
