<?xml version="1.0" standalone="no"?>
<!DOCTYPE svg PUBLIC "-//W3C//DTD SVG 20010904//EN"
 "http://www.w3.org/TR/2001/REC-SVG-20010904/DTD/svg10.dtd">
<svg version="1.0" xmlns="http://www.w3.org/2000/svg"
 width="96.000000pt" height="84.000000pt" viewBox="0 0 96.000000 84.000000"
 preserveAspectRatio="xMidYMid meet">
<metadata>
Created by potrace 1.16, written by Peter Selinger 2001-2019
</metadata>
<g transform="translate(0.000000,84.000000) scale(0.100000,-0.100000)"
fill="#000000" stroke="none">
<path d="M0 504 c0 -314 1 -335 18 -332 12 2 18 15 20 46 2 26 9 45 18 49 8 3
14 13 14 22 0 9 7 24 15 35 13 17 14 16 20 -17 4 -20 13 -38 21 -41 8 -3 14
-16 14 -28 0 -17 3 -19 9 -9 12 19 31 4 31 -25 0 -23 3 -24 62 -24 43 0 67 -5
80 -17 17 -15 18 -14 18 28 0 59 13 80 30 49 9 -17 11 -53 6 -132 l-7 -108
295 0 296 0 0 420 0 420 -480 0 -480 0 0 -336z m658 98 c2 -14 13 -24 29 -28
22 -6 24 -9 12 -18 -8 -6 -13 -18 -11 -28 2 -9 -2 -19 -7 -23 -21 -12 -11 -26
10 -14 20 10 21 9 15 -15 -6 -23 -3 -26 20 -26 28 0 86 -51 66 -58 -7 -2 -8
-11 -2 -27 8 -21 5 -25 -20 -37 -17 -7 -30 -17 -30 -21 0 -5 -7 -1 -16 8 -15
14 -17 14 -29 -2 -13 -17 -14 -17 -19 0 -18 53 -18 53 -32 22 -13 -28 -14 -29
-20 -8 -3 12 -17 24 -30 27 -31 8 -30 23 2 49 22 17 25 25 19 51 -5 17 -7 46
-6 64 1 26 -4 35 -18 39 -17 4 -16 8 13 39 34 37 49 39 54 6z"/>
</g>
</svg>
