<?xml version="1.0" standalone="no"?>
<!DOCTYPE svg PUBLIC "-//W3C//DTD SVG 20010904//EN"
 "http://www.w3.org/TR/2001/REC-SVG-20010904/DTD/svg10.dtd">
<svg version="1.0" xmlns="http://www.w3.org/2000/svg"
 width="96.000000pt" height="84.000000pt" viewBox="0 0 96.000000 84.000000"
 preserveAspectRatio="xMidYMid meet">
<metadata>
Created by potrace 1.16, written by Peter Selinger 2001-2019
</metadata>
<g transform="translate(0.000000,84.000000) scale(0.100000,-0.100000)"
fill="#000000" stroke="none">
<path d="M0 504 c0 -314 1 -335 18 -332 12 2 18 14 20 43 2 22 10 45 18 52 9
6 16 17 18 25 1 7 7 22 13 33 10 18 12 16 18 -17 4 -20 13 -39 21 -42 8 -3 14
-16 14 -28 1 -22 1 -22 15 -4 13 17 14 16 23 -15 8 -34 9 -34 73 -37 45 -2 68
-8 77 -19 10 -14 12 -10 12 29 0 27 6 50 14 57 21 18 26 -7 26 -135 l0 -114
290 0 290 0 0 420 0 420 -480 0 -480 0 0 -336z m660 96 c0 -10 10 -20 22 -24
17 -4 20 -8 11 -17 -6 -6 -9 -17 -7 -24 3 -7 1 -16 -5 -20 -19 -11 -12 -27 9
-20 23 7 25 2 10 -26 -10 -17 -7 -19 23 -19 41 0 59 -19 62 -63 2 -33 -21 -71
-36 -61 -5 3 -9 0 -9 -6 0 -8 -6 -8 -20 0 -14 7 -20 7 -20 0 0 -5 -7 -10 -15
-10 -8 0 -15 9 -15 19 0 28 -20 37 -27 12 -6 -24 -23 -28 -23 -6 0 8 -11 17
-25 21 -14 3 -25 10 -25 15 0 16 5 24 12 22 4 -2 15 8 24 22 14 21 14 30 4 55
-7 16 -10 36 -6 45 8 21 -3 45 -21 45 -10 0 -5 13 17 40 26 32 35 38 46 29 8
-6 14 -19 14 -29z"/>
</g>
</svg>
