<?xml version="1.0" standalone="no"?>
<!DOCTYPE svg PUBLIC "-//W3C//DTD SVG 20010904//EN"
 "http://www.w3.org/TR/2001/REC-SVG-20010904/DTD/svg10.dtd">
<svg version="1.0" xmlns="http://www.w3.org/2000/svg"
 width="96.000000pt" height="84.000000pt" viewBox="0 0 96.000000 84.000000"
 preserveAspectRatio="xMidYMid meet">
<metadata>
Created by potrace 1.16, written by Peter Selinger 2001-2019
</metadata>
<g transform="translate(0.000000,84.000000) scale(0.100000,-0.100000)"
fill="#000000" stroke="none">
<path d="M0 504 c0 -314 1 -335 18 -332 12 2 18 15 20 46 2 29 9 45 23 52 11
6 19 16 18 23 -1 7 2 23 8 37 10 25 10 25 18 -10 4 -19 16 -43 27 -54 11 -10
17 -25 14 -35 -5 -13 -3 -12 8 2 14 18 15 18 25 -2 6 -11 11 -27 11 -35 0 -13
13 -16 64 -16 36 0 68 -4 71 -10 14 -22 27 -9 21 21 -6 33 9 73 25 64 5 -4 9
-62 9 -131 l0 -124 290 0 290 0 0 420 0 420 -480 0 -480 0 0 -336z m654 106
c4 -21 11 -30 26 -30 25 0 25 -7 0 -48 -25 -41 -25 -45 1 -37 19 6 21 4 16
-14 -4 -18 -1 -21 22 -21 36 0 63 -30 65 -74 1 -31 -3 -38 -29 -50 -21 -11
-33 -12 -42 -4 -9 7 -14 6 -19 -6 -9 -23 -22 -20 -26 6 -4 30 -24 34 -33 6 -6
-19 -8 -20 -12 -5 -2 9 -18 24 -34 32 -31 17 -39 35 -14 35 25 0 48 45 36 69
-6 11 -11 38 -11 61 0 33 -3 41 -15 36 -8 -3 -15 -1 -15 4 0 6 3 10 8 10 4 0
16 14 27 30 25 38 41 38 49 0z"/>
</g>
</svg>
