<?xml version="1.0" standalone="no"?>
<!DOCTYPE svg PUBLIC "-//W3C//DTD SVG 20010904//EN"
 "http://www.w3.org/TR/2001/REC-SVG-20010904/DTD/svg10.dtd">
<svg version="1.0" xmlns="http://www.w3.org/2000/svg"
 width="96.000000pt" height="84.000000pt" viewBox="0 0 96.000000 84.000000"
 preserveAspectRatio="xMidYMid meet">
<metadata>
Created by potrace 1.16, written by Peter Selinger 2001-2019
</metadata>
<g transform="translate(0.000000,84.000000) scale(0.100000,-0.100000)"
fill="#000000" stroke="none">
<path d="M0 505 c0 -328 0 -335 20 -335 17 0 20 7 20 45 0 33 5 47 19 54 10 6
22 27 26 48 7 37 7 37 18 13 5 -14 10 -30 11 -36 1 -6 9 -18 19 -28 9 -10 17
-23 17 -29 0 -7 4 -6 10 3 9 13 11 13 20 0 5 -8 10 -25 10 -37 0 -21 4 -23 62
-23 43 0 67 -5 80 -17 17 -15 18 -14 18 28 0 56 11 76 29 55 10 -11 12 -48 10
-131 l-4 -115 287 0 288 0 0 420 0 420 -480 0 -480 0 0 -335z m650 114 c0 -11
11 -24 25 -31 l25 -11 -20 -32 c-25 -41 -25 -48 1 -40 19 6 21 4 16 -14 -4
-17 -1 -21 19 -21 34 0 66 -36 68 -76 1 -28 -3 -36 -28 -48 -21 -10 -36 -12
-48 -5 -14 7 -18 6 -18 -6 0 -24 -19 -17 -26 10 -7 30 -20 32 -27 5 -5 -20 -6
-20 -33 5 -15 14 -31 25 -35 25 -5 0 -9 7 -9 15 0 8 6 15 14 15 28 0 36 25 29
93 -4 47 -10 67 -19 67 -21 0 -17 8 18 45 33 36 48 37 48 4z"/>
</g>
</svg>
