<?xml version="1.0" standalone="no"?>
<!DOCTYPE svg PUBLIC "-//W3C//DTD SVG 20010904//EN"
 "http://www.w3.org/TR/2001/REC-SVG-20010904/DTD/svg10.dtd">
<svg version="1.0" xmlns="http://www.w3.org/2000/svg"
 width="96.000000pt" height="84.000000pt" viewBox="0 0 96.000000 84.000000"
 preserveAspectRatio="xMidYMid meet">
<metadata>
Created by potrace 1.16, written by Peter Selinger 2001-2019
</metadata>
<g transform="translate(0.000000,84.000000) scale(0.100000,-0.100000)"
fill="#000000" stroke="none">
<path d="M0 505 c0 -328 0 -335 20 -335 17 0 20 7 20 45 0 33 5 47 19 54 10 6
22 27 26 48 7 37 7 37 18 13 5 -14 11 -31 13 -39 1 -8 10 -18 18 -23 9 -5 16
-19 16 -30 0 -21 0 -21 14 -3 13 19 15 18 23 -15 9 -35 9 -35 73 -38 35 -2 70
-8 77 -14 10 -8 13 -2 13 28 0 22 5 46 10 54 20 30 30 -13 30 -132 l0 -118
285 0 285 0 0 420 0 420 -480 0 -480 0 0 -335z m650 120 c0 -18 7 -26 24 -31
l25 -6 -20 -34 c-25 -46 -25 -58 2 -43 20 10 21 9 16 -10 -4 -18 -1 -21 22
-21 19 0 32 -8 44 -30 10 -16 16 -30 13 -30 -3 0 -1 -11 4 -24 8 -21 5 -26
-23 -39 -22 -11 -37 -13 -49 -6 -14 7 -18 6 -18 -6 0 -25 -20 -17 -31 13 l-11
27 -11 -22 c-13 -28 -23 -29 -30 -3 -3 11 -9 20 -14 19 -40 -7 -43 15 -7 44
22 17 25 25 19 51 -5 17 -7 46 -6 64 1 26 -4 35 -18 39 -17 4 -16 8 13 39 37
40 56 43 56 9z"/>
</g>
</svg>
