<?xml version="1.0" standalone="no"?>
<!DOCTYPE svg PUBLIC "-//W3C//DTD SVG 20010904//EN"
 "http://www.w3.org/TR/2001/REC-SVG-20010904/DTD/svg10.dtd">
<svg version="1.0" xmlns="http://www.w3.org/2000/svg"
 width="96.000000pt" height="84.000000pt" viewBox="0 0 96.000000 84.000000"
 preserveAspectRatio="xMidYMid meet">
<metadata>
Created by potrace 1.16, written by Peter Selinger 2001-2019
</metadata>
<g transform="translate(0.000000,84.000000) scale(0.100000,-0.100000)"
fill="#000000" stroke="none">
<path d="M0 505 c0 -328 0 -335 20 -335 17 0 20 7 20 44 0 32 5 49 18 58 10 7
23 29 29 48 6 19 11 27 12 18 1 -10 6 -18 11 -18 6 0 10 -8 10 -19 0 -10 7
-24 15 -31 8 -7 15 -22 15 -33 0 -20 0 -20 14 -1 14 18 15 18 25 -9 6 -16 11
-33 11 -38 0 -5 28 -9 63 -9 35 0 68 -5 75 -12 14 -14 27 13 18 38 -7 19 11
57 25 49 5 -4 9 -62 9 -131 l0 -124 285 0 285 0 0 420 0 420 -480 0 -480 0 0
-335z m648 122 c2 -19 9 -27 23 -27 16 0 19 -4 14 -22 -4 -13 -11 -27 -16 -32
-17 -18 -10 -34 12 -29 18 5 20 3 14 -17 -6 -19 -4 -21 14 -15 44 14 87 -78
54 -113 -7 -7 -27 -14 -43 -14 -17 -1 -35 -8 -40 -17 -9 -17 -8 -19 -25 35 -7
21 -25 8 -25 -19 0 -22 -1 -22 -20 3 -11 14 -20 22 -20 18 0 -4 -9 0 -20 9
-19 17 -19 17 13 44 31 26 31 28 19 63 -7 20 -10 40 -7 46 10 17 -5 52 -21 46
-20 -8 -18 -4 19 37 36 42 51 43 55 4z"/>
</g>
</svg>
