<?xml version="1.0" standalone="no"?>
<!DOCTYPE svg PUBLIC "-//W3C//DTD SVG 20010904//EN"
 "http://www.w3.org/TR/2001/REC-SVG-20010904/DTD/svg10.dtd">
<svg version="1.0" xmlns="http://www.w3.org/2000/svg"
 width="96.000000pt" height="84.000000pt" viewBox="0 0 96.000000 84.000000"
 preserveAspectRatio="xMidYMid meet">
<metadata>
Created by potrace 1.16, written by Peter Selinger 2001-2019
</metadata>
<g transform="translate(0.000000,84.000000) scale(0.100000,-0.100000)"
fill="#000000" stroke="none">
<path d="M0 504 c0 -314 1 -335 18 -332 12 2 18 15 20 45 2 27 10 47 21 55 10
7 22 28 25 46 4 17 12 32 17 32 6 0 8 -4 4 -9 -3 -5 -1 -12 5 -16 5 -3 10 -14
10 -24 0 -10 7 -24 15 -31 8 -7 15 -27 15 -44 l1 -31 13 30 c12 30 13 30 24 8
7 -12 12 -29 12 -37 0 -13 12 -16 62 -16 43 0 67 -5 80 -17 17 -15 18 -14 18
35 0 51 15 76 31 51 5 -8 9 -67 9 -131 l0 -118 280 0 280 0 0 420 0 420 -480
0 -480 0 0 -336z m646 138 c1 -6 2 -16 3 -21 0 -5 10 -13 22 -16 15 -5 17 -10
10 -19 -6 -7 -8 -16 -3 -20 4 -4 -1 -12 -11 -17 -27 -15 -21 -32 9 -25 22 6
25 4 19 -14 -5 -16 -2 -20 18 -20 13 0 31 -8 39 -17 15 -18 30 -96 17 -87 -4
2 -10 -3 -13 -12 -4 -9 -13 -14 -21 -10 -8 3 -15 0 -15 -6 0 -9 -3 -9 -12 0
-16 16 -28 15 -28 -3 0 -23 -18 -18 -22 7 -4 28 -28 36 -28 9 0 -12 -4 -21
-10 -21 -5 0 -10 7 -10 15 0 8 -6 15 -14 15 -8 0 -21 7 -30 15 -13 13 -11 18
15 44 30 31 36 46 19 56 -5 3 -10 26 -10 51 0 33 -4 44 -15 44 -12 0 -9 9 12
35 27 34 57 43 59 17z"/>
</g>
</svg>
