<?xml version="1.0" standalone="no"?>
<!DOCTYPE svg PUBLIC "-//W3C//DTD SVG 20010904//EN"
 "http://www.w3.org/TR/2001/REC-SVG-20010904/DTD/svg10.dtd">
<svg version="1.0" xmlns="http://www.w3.org/2000/svg"
 width="96.000000pt" height="84.000000pt" viewBox="0 0 96.000000 84.000000"
 preserveAspectRatio="xMidYMid meet">
<metadata>
Created by potrace 1.16, written by Peter Selinger 2001-2019
</metadata>
<g transform="translate(0.000000,84.000000) scale(0.100000,-0.100000)"
fill="#000000" stroke="none">
<path d="M210 831 c0 -17 21 -65 31 -72 6 -3 6 -55 1 -140 -4 -74 -4 -135 0
-137 4 -2 8 -26 8 -53 0 -46 -8 -66 -71 -169 -32 -53 -109 -234 -109 -257 0
-1 200 -3 445 -3 l445 0 0 75 0 75 -34 0 c-37 0 -34 -8 -61 145 -13 70 -19 84
-55 120 l-40 41 1 79 1 80 14 -45 c13 -44 14 -43 9 45 -3 50 -8 109 -11 133
-6 40 -5 42 19 42 22 0 37 16 37 41 0 5 -130 9 -315 9 -189 0 -315 -4 -315 -9z
m113 -263 l-11 -43 -1 55 c-1 41 2 51 11 42 8 -8 8 -23 1 -54z"/>
</g>
</svg>
