<?xml version="1.0" standalone="no"?>
<!DOCTYPE svg PUBLIC "-//W3C//DTD SVG 20010904//EN"
 "http://www.w3.org/TR/2001/REC-SVG-20010904/DTD/svg10.dtd">
<svg version="1.0" xmlns="http://www.w3.org/2000/svg"
 width="96.000000pt" height="84.000000pt" viewBox="0 0 96.000000 84.000000"
 preserveAspectRatio="xMidYMid meet">
<metadata>
Created by potrace 1.16, written by Peter Selinger 2001-2019
</metadata>
<g transform="translate(0.000000,84.000000) scale(0.100000,-0.100000)"
fill="#000000" stroke="none">
<path d="M0 504 c0 -314 1 -335 18 -332 12 2 18 15 20 46 2 29 9 46 23 55 10
6 19 19 19 29 0 9 5 20 10 23 6 4 8 11 5 16 -4 5 -2 9 4 9 6 0 13 -16 17 -36
4 -19 13 -38 20 -41 9 -3 14 -22 15 -52 1 -47 3 -47 13 1 8 37 24 35 34 -4 8
-33 9 -33 73 -36 45 -2 68 -8 77 -19 10 -14 12 -10 12 28 0 49 12 75 29 65 7
-5 11 -51 11 -132 l0 -124 280 0 280 0 0 420 0 420 -480 0 -480 0 0 -336z
m640 135 c4 -15 14 -25 28 -27 21 -3 32 -22 12 -22 -5 0 -7 -6 -4 -14 3 -7 -2
-16 -10 -19 -9 -4 -16 -13 -16 -22 0 -13 4 -14 21 -4 20 10 21 9 16 -10 -4
-17 -1 -21 17 -21 23 0 74 -45 63 -56 -3 -3 -2 -16 3 -29 8 -20 4 -25 -23 -38
-22 -11 -37 -13 -49 -6 -14 7 -18 6 -18 -6 0 -24 -16 -18 -29 13 l-13 27 -13
-30 c-8 -19 -14 -24 -14 -13 -1 10 -15 25 -32 34 l-32 16 27 23 c25 22 26 25
18 91 -5 45 -12 68 -20 67 -19 -4 -14 10 13 36 14 13 25 28 25 33 0 19 25 1
30 -23z"/>
</g>
</svg>
