<?xml version="1.0" standalone="no"?>
<!DOCTYPE svg PUBLIC "-//W3C//DTD SVG 20010904//EN"
 "http://www.w3.org/TR/2001/REC-SVG-20010904/DTD/svg10.dtd">
<svg version="1.0" xmlns="http://www.w3.org/2000/svg"
 width="96.000000pt" height="84.000000pt" viewBox="0 0 96.000000 84.000000"
 preserveAspectRatio="xMidYMid meet">
<metadata>
Created by potrace 1.16, written by Peter Selinger 2001-2019
</metadata>
<g transform="translate(0.000000,84.000000) scale(0.100000,-0.100000)"
fill="#000000" stroke="none">
<path d="M0 505 c0 -285 2 -335 14 -335 20 0 26 13 28 55 1 24 8 41 20 48 10
7 18 19 18 27 0 8 7 23 15 34 13 17 14 16 20 -17 4 -20 13 -38 21 -41 9 -3 15
-23 15 -53 1 -28 4 -37 6 -21 2 14 11 32 18 38 16 13 20 7 27 -35 3 -17 12
-20 68 -23 36 -2 69 -7 75 -13 18 -18 28 -8 22 24 -3 18 1 43 7 56 12 22 13
22 21 5 4 -11 6 -72 5 -136 l-1 -118 280 0 281 0 0 420 0 420 -480 0 -480 0 0
-335z m640 134 c4 -15 14 -25 28 -27 27 -4 28 -12 2 -45 -27 -34 -27 -51 1
-36 20 10 21 9 16 -10 -4 -17 -1 -21 17 -21 30 0 60 -34 61 -68 1 -29 -22 -65
-36 -56 -5 3 -9 0 -9 -7 0 -10 -3 -10 -12 -1 -16 16 -28 15 -28 -3 0 -25 -20
-17 -31 13 l-11 27 -12 -22 c-11 -22 -13 -22 -27 -5 -9 9 -25 22 -35 28 -18
11 -18 13 9 34 25 20 28 28 22 54 -4 17 -7 47 -8 66 -1 22 -7 34 -14 33 -19
-4 -16 4 15 43 30 38 44 39 52 3z"/>
</g>
</svg>
