<?xml version="1.0" standalone="no"?>
<!DOCTYPE svg PUBLIC "-//W3C//DTD SVG 20010904//EN"
 "http://www.w3.org/TR/2001/REC-SVG-20010904/DTD/svg10.dtd">
<svg version="1.0" xmlns="http://www.w3.org/2000/svg"
 width="96.000000pt" height="84.000000pt" viewBox="0 0 96.000000 84.000000"
 preserveAspectRatio="xMidYMid meet">
<metadata>
Created by potrace 1.16, written by Peter Selinger 2001-2019
</metadata>
<g transform="translate(0.000000,84.000000) scale(0.100000,-0.100000)"
fill="#000000" stroke="none">
<path d="M0 510 c0 -317 1 -330 19 -330 20 0 35 37 25 64 -3 9 3 20 15 28 12
7 21 18 21 24 0 7 6 24 14 38 l14 27 7 -38 c3 -20 14 -42 23 -49 11 -8 15 -25
14 -55 l-2 -44 14 38 c19 52 21 53 37 15 17 -43 25 -48 83 -48 32 0 56 -6 68
-17 17 -15 18 -14 18 33 0 27 4 55 9 63 19 29 31 -28 31 -143 l0 -116 275 0
275 0 0 420 0 420 -480 0 -480 0 0 -330z m638 131 c2 -13 12 -26 23 -28 20 -6
21 -35 1 -55 -20 -20 -14 -37 10 -30 17 4 20 2 15 -11 -5 -13 -1 -17 17 -17
54 0 79 -77 38 -118 -18 -17 -27 -20 -43 -12 -15 9 -19 7 -19 -5 0 -8 -7 -15
-15 -15 -8 0 -15 9 -15 19 0 31 -19 35 -26 6 l-6 -25 -24 25 c-13 14 -28 25
-34 25 -18 0 -11 22 16 43 22 17 25 25 19 51 -4 17 -7 47 -8 66 -2 28 -6 34
-21 32 -14 -3 -11 5 15 37 37 44 52 47 57 12z"/>
</g>
</svg>
