<?xml version="1.0" standalone="no"?>
<!DOCTYPE svg PUBLIC "-//W3C//DTD SVG 20010904//EN"
 "http://www.w3.org/TR/2001/REC-SVG-20010904/DTD/svg10.dtd">
<svg version="1.0" xmlns="http://www.w3.org/2000/svg"
 width="96.000000pt" height="84.000000pt" viewBox="0 0 96.000000 84.000000"
 preserveAspectRatio="xMidYMid meet">
<metadata>
Created by potrace 1.16, written by Peter Selinger 2001-2019
</metadata>
<g transform="translate(0.000000,84.000000) scale(0.100000,-0.100000)"
fill="#000000" stroke="none">
<path d="M0 509 l0 -330 23 3 c18 2 22 10 23 42 1 24 7 44 18 51 9 7 16 22 16
34 0 11 5 21 10 21 6 0 10 8 11 18 1 9 6 1 13 -19 6 -21 19 -46 29 -57 14 -15
17 -29 12 -56 -5 -23 -3 -36 3 -36 6 0 12 14 14 32 4 42 26 48 34 10 7 -34 24
-42 94 -42 26 0 51 -5 58 -12 9 -9 12 -4 12 26 0 20 5 47 11 58 20 37 29 -1
29 -129 l0 -123 275 0 275 0 0 420 0 420 -480 0 -480 0 0 -331z m638 124 c2
-12 12 -25 23 -28 23 -8 24 -15 4 -41 -21 -28 -19 -47 4 -39 16 5 18 2 14 -15
-4 -16 -1 -20 19 -20 32 0 62 -33 63 -68 0 -34 -16 -52 -52 -54 -15 -1 -33 -9
-40 -18 -10 -13 -13 -11 -22 13 -12 32 -31 36 -31 7 0 -11 -4 -20 -10 -20 -5
0 -10 7 -10 15 0 8 -4 15 -8 15 -5 0 -17 6 -27 14 -18 13 -17 14 9 42 21 22
25 35 20 54 -4 14 -7 40 -6 58 2 26 -2 35 -18 39 -19 5 -19 7 8 39 30 37 55
40 60 7z"/>
</g>
</svg>
