<?xml version="1.0" standalone="no"?>
<!DOCTYPE svg PUBLIC "-//W3C//DTD SVG 20010904//EN"
 "http://www.w3.org/TR/2001/REC-SVG-20010904/DTD/svg10.dtd">
<svg version="1.0" xmlns="http://www.w3.org/2000/svg"
 width="96.000000pt" height="84.000000pt" viewBox="0 0 96.000000 84.000000"
 preserveAspectRatio="xMidYMid meet">
<metadata>
Created by potrace 1.16, written by Peter Selinger 2001-2019
</metadata>
<g transform="translate(0.000000,84.000000) scale(0.100000,-0.100000)"
fill="#000000" stroke="none">
<path d="M0 510 l0 -330 25 0 c24 0 26 3 23 41 -1 29 3 45 15 54 9 7 17 22 17
34 0 11 5 21 10 21 6 0 10 8 11 18 0 12 3 10 11 -8 6 -14 11 -30 12 -36 1 -6
9 -18 18 -28 11 -11 18 -34 19 -59 1 -40 1 -41 8 -11 11 46 21 59 32 43 5 -8
9 -24 9 -35 0 -23 31 -34 98 -34 19 0 44 -7 54 -17 17 -15 18 -14 18 33 0 63
13 86 30 54 9 -17 10 -54 5 -136 l-7 -114 276 0 276 0 0 420 0 420 -480 0
-480 0 0 -330z m636 120 c1 -6 2 -14 3 -19 0 -5 10 -11 20 -14 22 -5 19 -38
-5 -58 -21 -17 -17 -31 6 -24 15 5 20 2 20 -13 0 -15 5 -19 21 -15 22 6 53
-27 55 -59 1 -9 4 -23 7 -31 7 -18 -35 -42 -69 -39 -13 1 -24 -3 -24 -8 0 -20
-16 -9 -27 18 -11 27 -11 27 -18 5 -7 -23 -25 -32 -25 -13 0 5 -14 17 -31 25
l-30 16 31 32 c20 20 28 37 23 47 -3 8 -8 29 -9 45 -1 17 -2 36 -3 43 0 6 -8
12 -16 12 -20 0 -20 2 17 43 31 34 50 36 54 7z"/>
</g>
</svg>
