<?xml version="1.0" standalone="no"?>
<!DOCTYPE svg PUBLIC "-//W3C//DTD SVG 20010904//EN"
 "http://www.w3.org/TR/2001/REC-SVG-20010904/DTD/svg10.dtd">
<svg version="1.0" xmlns="http://www.w3.org/2000/svg"
 width="96.000000pt" height="84.000000pt" viewBox="0 0 96.000000 84.000000"
 preserveAspectRatio="xMidYMid meet">
<metadata>
Created by potrace 1.16, written by Peter Selinger 2001-2019
</metadata>
<g transform="translate(0.000000,84.000000) scale(0.100000,-0.100000)"
fill="#000000" stroke="none">
<path d="M0 510 l0 -330 25 0 c23 0 25 4 25 45 0 31 5 47 15 51 8 4 15 17 15
30 0 13 5 24 10 24 6 0 10 8 11 18 0 12 3 10 11 -8 6 -14 10 -30 9 -37 -1 -7
8 -17 19 -23 15 -8 20 -21 21 -58 1 -42 2 -44 8 -16 12 50 22 60 38 39 7 -11
13 -26 13 -36 0 -18 37 -29 98 -29 21 0 40 -7 48 -18 12 -15 13 -11 14 33 0
28 5 57 10 65 20 30 30 -14 30 -137 l0 -123 270 0 270 0 0 420 0 420 -480 0
-480 0 0 -330z m634 110 c4 -21 11 -30 26 -30 11 0 20 -4 20 -10 0 -5 -5 -10
-11 -10 -6 0 -9 -6 -6 -12 2 -7 -2 -21 -11 -31 -19 -21 -9 -35 13 -17 13 10
15 9 15 -9 0 -15 6 -21 23 -21 27 0 53 -42 53 -85 -1 -35 -38 -60 -68 -44 -14
7 -18 6 -18 -6 0 -24 -17 -17 -24 10 -8 30 -22 32 -29 4 -5 -20 -6 -20 -26 -2
-11 10 -26 24 -35 30 -13 11 -11 17 15 43 25 24 28 33 19 49 -5 11 -10 38 -10
61 0 33 -3 41 -15 36 -23 -8 -18 8 10 32 14 12 25 26 25 32 0 24 28 7 34 -20z"/>
</g>
</svg>
