<?xml version="1.0" standalone="no"?>
<!DOCTYPE svg PUBLIC "-//W3C//DTD SVG 20010904//EN"
 "http://www.w3.org/TR/2001/REC-SVG-20010904/DTD/svg10.dtd">
<svg version="1.0" xmlns="http://www.w3.org/2000/svg"
 width="96.000000pt" height="84.000000pt" viewBox="0 0 96.000000 84.000000"
 preserveAspectRatio="xMidYMid meet">
<metadata>
Created by potrace 1.16, written by Peter Selinger 2001-2019
</metadata>
<g transform="translate(0.000000,84.000000) scale(0.100000,-0.100000)"
fill="#000000" stroke="none">
<path d="M0 510 l0 -330 25 0 c23 0 25 4 25 45 0 35 4 47 21 56 14 7 19 17 16
30 -3 10 -1 19 3 19 5 0 11 8 13 18 4 16 5 16 6 0 0 -10 6 -18 11 -18 6 0 10
-11 10 -24 0 -13 7 -26 15 -30 10 -4 15 -20 15 -51 0 -25 5 -45 10 -45 6 0 9
3 8 8 -1 4 1 23 5 42 8 33 9 34 22 16 8 -11 15 -27 15 -37 0 -17 42 -29 105
-29 17 0 36 -5 43 -12 9 -9 12 -3 12 28 0 44 22 85 34 65 5 -7 7 -68 7 -137
l-2 -124 271 0 270 0 0 420 0 420 -480 0 -480 0 0 -330z m630 110 c0 -12 10
-25 24 -31 l24 -11 -19 -35 c-24 -42 -24 -46 2 -38 18 6 20 4 14 -14 -5 -17
-2 -21 15 -21 58 0 88 -89 41 -122 -18 -12 -30 -14 -43 -7 -14 7 -18 6 -18 -6
0 -24 -19 -17 -26 10 -8 31 -20 32 -29 4 -7 -21 -8 -21 -31 7 -13 16 -24 25
-24 19 0 -5 -4 -4 -9 4 -6 9 -1 20 15 35 23 20 24 26 18 89 -5 48 -11 67 -21
67 -10 0 -6 11 13 35 29 39 54 46 54 15z"/>
</g>
</svg>
