<?xml version="1.0" standalone="no"?>
<!DOCTYPE svg PUBLIC "-//W3C//DTD SVG 20010904//EN"
 "http://www.w3.org/TR/2001/REC-SVG-20010904/DTD/svg10.dtd">
<svg version="1.0" xmlns="http://www.w3.org/2000/svg"
 width="96.000000pt" height="84.000000pt" viewBox="0 0 96.000000 84.000000"
 preserveAspectRatio="xMidYMid meet">
<metadata>
Created by potrace 1.16, written by Peter Selinger 2001-2019
</metadata>
<g transform="translate(0.000000,84.000000) scale(0.100000,-0.100000)"
fill="#000000" stroke="none">
<path d="M0 510 l0 -330 25 0 c23 0 25 4 25 44 0 32 5 49 19 58 10 7 22 28 25
46 4 17 12 32 17 32 6 0 8 -4 4 -9 -3 -5 -1 -12 5 -16 5 -3 10 -17 10 -31 0
-15 6 -24 15 -24 11 0 15 -12 15 -50 0 -27 5 -50 10 -50 6 0 10 13 10 29 0 35
24 60 34 35 3 -8 6 -24 6 -34 0 -15 11 -20 68 -25 37 -4 75 -14 85 -23 16 -14
17 -12 17 34 0 27 5 56 10 64 20 30 30 -14 30 -137 l0 -123 265 0 265 0 0 420
0 420 -480 0 -480 0 0 -330z m630 99 c0 -12 10 -23 26 -29 l25 -10 -20 -29
c-26 -37 -27 -54 -2 -46 16 5 18 2 14 -15 -4 -16 -1 -20 19 -20 31 0 54 -26
60 -65 4 -33 -22 -72 -41 -60 -6 3 -11 1 -11 -6 0 -10 -3 -10 -12 -1 -9 9 -14
7 -24 -6 -12 -16 -13 -16 -18 1 -18 52 -18 53 -29 26 l-10 -27 -34 34 c-36 36
-40 44 -20 44 22 0 39 39 31 73 -4 18 -6 44 -5 60 2 22 -2 27 -20 27 -20 0
-18 4 17 39 39 41 54 44 54 10z"/>
</g>
</svg>
