<?xml version="1.0" standalone="no"?>
<!DOCTYPE svg PUBLIC "-//W3C//DTD SVG 20010904//EN"
 "http://www.w3.org/TR/2001/REC-SVG-20010904/DTD/svg10.dtd">
<svg version="1.0" xmlns="http://www.w3.org/2000/svg"
 width="96.000000pt" height="84.000000pt" viewBox="0 0 96.000000 84.000000"
 preserveAspectRatio="xMidYMid meet">
<metadata>
Created by potrace 1.16, written by Peter Selinger 2001-2019
</metadata>
<g transform="translate(0.000000,84.000000) scale(0.100000,-0.100000)"
fill="#000000" stroke="none">
<path d="M0 510 l0 -330 25 0 c23 0 25 4 25 45 0 34 5 48 20 57 11 7 20 22 20
33 0 12 7 30 16 41 13 16 15 16 10 2 -3 -10 -1 -20 4 -23 6 -4 10 -14 10 -23
0 -10 9 -25 19 -34 15 -13 18 -25 14 -57 -4 -27 -2 -41 6 -41 6 0 11 10 11 23
0 13 6 32 14 42 13 18 14 18 25 -3 6 -11 11 -27 11 -36 0 -11 17 -17 70 -22
49 -5 73 -12 80 -23 7 -12 10 -2 10 34 0 54 11 81 29 71 7 -5 11 -52 11 -137
l0 -129 265 0 265 0 0 420 0 420 -480 0 -480 0 0 -330z m628 91 c2 -13 12 -26
23 -28 23 -6 24 -21 4 -47 -23 -30 -20 -49 5 -36 23 12 25 7 10 -21 -9 -17 -7
-19 18 -19 28 0 71 -34 59 -46 -3 -3 -2 -16 3 -29 8 -20 4 -25 -22 -38 -17 -8
-37 -13 -44 -10 -6 2 -15 0 -19 -6 -10 -18 -25 -13 -25 8 0 28 -20 37 -27 12
-6 -24 -23 -28 -23 -6 0 8 -4 15 -9 15 -5 0 -17 7 -25 16 -15 14 -14 18 10 36
22 18 25 26 19 52 -4 17 -8 47 -9 66 -1 28 -5 34 -20 32 -14 -3 -11 5 15 37
37 44 52 47 57 12z"/>
</g>
</svg>
