<?xml version="1.0" standalone="no"?>
<!DOCTYPE svg PUBLIC "-//W3C//DTD SVG 20010904//EN"
 "http://www.w3.org/TR/2001/REC-SVG-20010904/DTD/svg10.dtd">
<svg version="1.0" xmlns="http://www.w3.org/2000/svg"
 width="96.000000pt" height="84.000000pt" viewBox="0 0 96.000000 84.000000"
 preserveAspectRatio="xMidYMid meet">
<metadata>
Created by potrace 1.16, written by Peter Selinger 2001-2019
</metadata>
<g transform="translate(0.000000,84.000000) scale(0.100000,-0.100000)"
fill="#000000" stroke="none">
<path d="M0 510 l0 -330 25 0 c22 0 25 4 25 39 0 49 8 71 26 71 8 0 14 10 14
23 0 13 6 32 14 42 12 17 14 15 20 -21 4 -21 16 -47 26 -56 14 -13 17 -26 13
-58 -6 -45 11 -56 20 -12 4 15 11 34 17 42 9 13 11 13 20 0 5 -8 10 -25 10
-36 0 -20 7 -23 70 -29 39 -4 73 -11 76 -16 13 -21 26 -7 21 24 -2 17 0 43 4
56 8 19 12 21 25 10 12 -10 15 -34 12 -136 l-3 -123 263 0 262 0 0 420 0 420
-480 0 -480 0 0 -330z m628 83 c2 -11 12 -23 23 -26 20 -5 27 -27 8 -27 -5 0
-8 -4 -4 -9 3 -5 1 -12 -5 -16 -5 -3 -10 -13 -10 -21 0 -11 6 -13 21 -9 18 6
20 4 14 -14 -5 -17 -2 -21 17 -21 26 0 55 -41 53 -75 -3 -33 -17 -56 -31 -51
-8 3 -14 0 -14 -6 0 -7 -4 -7 -14 1 -11 10 -17 8 -25 -6 -9 -16 -11 -14 -21
14 -12 35 -30 36 -30 2 0 -10 -4 -19 -10 -19 -5 0 -10 5 -10 10 0 6 -12 21
-27 34 l-27 23 29 26 c28 24 29 27 18 59 -7 18 -10 43 -7 55 5 17 1 25 -15 31
-22 8 -22 8 4 30 14 12 25 27 25 33 0 20 35 4 38 -18z"/>
</g>
</svg>
