<?xml version="1.0" standalone="no"?>
<!DOCTYPE svg PUBLIC "-//W3C//DTD SVG 20010904//EN"
 "http://www.w3.org/TR/2001/REC-SVG-20010904/DTD/svg10.dtd">
<svg version="1.0" xmlns="http://www.w3.org/2000/svg"
 width="96.000000pt" height="84.000000pt" viewBox="0 0 96.000000 84.000000"
 preserveAspectRatio="xMidYMid meet">
<metadata>
Created by potrace 1.16, written by Peter Selinger 2001-2019
</metadata>
<g transform="translate(0.000000,84.000000) scale(0.100000,-0.100000)"
fill="#000000" stroke="none">
<path d="M272 813 c7 -16 16 -33 21 -40 5 -7 4 -58 -3 -124 -9 -87 -9 -117 0
-134 14 -26 9 -82 -13 -166 -16 -63 -31 -95 -59 -125 -10 -11 -20 -34 -22 -50
-3 -16 -10 -42 -16 -59 -7 -16 -18 -49 -26 -72 l-13 -43 319 0 c295 0 319 1
323 17 4 17 5 17 6 1 1 -16 12 -18 84 -18 l83 0 1 99 1 100 -31 3 c-29 3 -32
7 -44 58 -6 30 -15 77 -18 103 -4 32 -16 59 -34 80 -27 31 -47 97 -29 97 5 0
7 8 4 18 -15 55 -18 84 -6 77 8 -5 10 -2 6 11 -14 45 -26 129 -20 146 3 10 14
18 24 18 10 0 20 7 24 15 5 13 -31 15 -284 15 l-290 0 12 -27z m104 -190 c4
-16 0 -55 -10 -92 -20 -77 -36 -100 -36 -53 0 18 5 32 10 32 6 0 10 30 10 70
0 71 14 93 26 43z"/>
</g>
</svg>
