<?xml version="1.0" standalone="no"?>
<!DOCTYPE svg PUBLIC "-//W3C//DTD SVG 20010904//EN"
 "http://www.w3.org/TR/2001/REC-SVG-20010904/DTD/svg10.dtd">
<svg version="1.0" xmlns="http://www.w3.org/2000/svg"
 width="96.000000pt" height="84.000000pt" viewBox="0 0 96.000000 84.000000"
 preserveAspectRatio="xMidYMid meet">
<metadata>
Created by potrace 1.16, written by Peter Selinger 2001-2019
</metadata>
<g transform="translate(0.000000,84.000000) scale(0.100000,-0.100000)"
fill="#000000" stroke="none">
<path d="M0 510 l0 -330 25 0 c22 0 25 4 25 39 0 49 8 71 26 71 8 0 14 10 14
25 0 14 4 25 9 25 5 0 11 8 14 18 2 10 7 0 12 -23 4 -22 16 -46 27 -53 13 -9
18 -26 18 -58 0 -24 5 -44 10 -44 6 0 10 12 10 28 0 58 34 68 42 12 3 -23 9
-26 73 -33 45 -6 73 -15 82 -25 10 -14 12 -9 13 33 0 28 5 57 10 65 20 30 30
-14 30 -137 l0 -123 260 0 260 0 0 420 0 420 -480 0 -480 0 0 -330z m628 83
c2 -11 13 -23 24 -26 16 -5 19 -9 11 -19 -6 -7 -13 -26 -17 -41 -6 -25 -4 -28
13 -22 16 5 18 2 14 -15 -4 -13 -1 -20 10 -20 56 0 86 -102 37 -127 -14 -7
-31 -10 -39 -8 -8 3 -18 0 -22 -7 -5 -8 -11 -4 -18 15 -12 32 -31 36 -31 7 0
-11 -4 -20 -10 -20 -5 0 -10 5 -10 10 0 6 -12 22 -27 35 l-28 23 28 22 c28 22
36 54 16 66 -6 4 -8 20 -4 40 5 29 3 36 -15 42 -20 8 -20 8 5 30 14 12 25 27
25 33 0 20 35 4 38 -18z"/>
</g>
</svg>
