<?xml version="1.0" standalone="no"?>
<!DOCTYPE svg PUBLIC "-//W3C//DTD SVG 20010904//EN"
 "http://www.w3.org/TR/2001/REC-SVG-20010904/DTD/svg10.dtd">
<svg version="1.0" xmlns="http://www.w3.org/2000/svg"
 width="96.000000pt" height="84.000000pt" viewBox="0 0 96.000000 84.000000"
 preserveAspectRatio="xMidYMid meet">
<metadata>
Created by potrace 1.16, written by Peter Selinger 2001-2019
</metadata>
<g transform="translate(0.000000,84.000000) scale(0.100000,-0.100000)"
fill="#000000" stroke="none">
<path d="M0 510 l0 -330 25 0 c22 0 25 4 25 39 0 49 8 71 26 71 8 0 14 10 14
25 0 14 5 25 10 25 6 0 10 8 11 18 0 12 3 10 11 -8 6 -14 10 -31 9 -39 -1 -7
7 -20 18 -28 16 -11 21 -25 21 -59 0 -24 5 -44 10 -44 6 0 10 10 10 23 1 12 6
32 13 45 l13 23 12 -26 c7 -14 12 -32 12 -39 0 -9 22 -15 67 -20 37 -4 73 -12
80 -18 10 -8 13 -2 13 31 0 23 5 52 11 63 11 21 12 21 25 -3 10 -18 12 -53 7
-142 l-6 -117 261 0 262 0 0 420 0 420 -480 0 -480 0 0 -330z m630 79 c0 -12
7 -19 20 -19 21 0 27 -15 10 -25 -6 -4 -8 -10 -5 -15 3 -4 -2 -13 -10 -20 -22
-18 -18 -32 6 -25 19 6 21 4 16 -14 -4 -17 -1 -21 17 -21 32 0 58 -32 60 -74
1 -19 0 -33 -2 -31 -2 2 -12 -5 -23 -16 -15 -15 -24 -17 -39 -9 -14 7 -20 7
-20 0 0 -20 -18 -9 -24 15 -8 30 -26 34 -26 6 0 -11 -4 -23 -10 -26 -5 -3 -10
0 -10 9 0 8 -12 23 -26 33 l-27 20 27 26 c27 28 33 51 15 63 -7 4 -8 20 -4 41
5 29 3 35 -14 40 -19 5 -19 7 11 44 24 30 34 36 45 28 7 -6 13 -20 13 -30z"/>
</g>
</svg>
