<?xml version="1.0" standalone="no"?>
<!DOCTYPE svg PUBLIC "-//W3C//DTD SVG 20010904//EN"
 "http://www.w3.org/TR/2001/REC-SVG-20010904/DTD/svg10.dtd">
<svg version="1.0" xmlns="http://www.w3.org/2000/svg"
 width="96.000000pt" height="84.000000pt" viewBox="0 0 96.000000 84.000000"
 preserveAspectRatio="xMidYMid meet">
<metadata>
Created by potrace 1.16, written by Peter Selinger 2001-2019
</metadata>
<g transform="translate(0.000000,84.000000) scale(0.100000,-0.100000)"
fill="#000000" stroke="none">
<path d="M0 510 l0 -330 25 0 c22 0 25 4 25 39 0 49 8 71 26 71 8 0 14 8 14
19 0 10 7 32 15 47 14 27 15 27 15 7 0 -13 5 -23 10 -23 6 0 10 -11 10 -24 0
-13 7 -26 15 -30 11 -4 15 -20 15 -56 0 -27 5 -50 10 -50 6 0 10 10 10 23 1
12 7 33 14 46 13 24 14 24 25 3 6 -11 11 -29 11 -40 0 -16 10 -20 66 -25 41
-4 74 -13 85 -23 18 -16 19 -15 19 37 0 30 4 60 9 68 19 30 31 -28 31 -148 l0
-121 255 0 255 0 0 420 0 420 -480 0 -480 0 0 -330z m622 99 c2 -19 11 -27 47
-46 2 -1 -6 -15 -18 -31 -28 -40 -28 -56 0 -41 20 10 21 9 15 -15 -6 -23 -3
-26 17 -26 31 0 60 -33 61 -70 1 -24 -5 -33 -28 -44 -16 -8 -35 -12 -43 -9 -7
3 -13 0 -13 -6 0 -21 -18 -11 -24 14 -8 30 -22 33 -29 5 -5 -19 -7 -18 -36 11
-31 31 -39 49 -21 49 5 0 17 11 26 25 13 20 14 28 4 40 -6 7 -11 24 -10 37 4
39 1 48 -15 48 -21 0 -19 17 4 30 11 5 23 19 26 30 8 27 33 26 37 -1z"/>
</g>
</svg>
