<?xml version="1.0" standalone="no"?>
<!DOCTYPE svg PUBLIC "-//W3C//DTD SVG 20010904//EN"
 "http://www.w3.org/TR/2001/REC-SVG-20010904/DTD/svg10.dtd">
<svg version="1.0" xmlns="http://www.w3.org/2000/svg"
 width="96.000000pt" height="84.000000pt" viewBox="0 0 96.000000 84.000000"
 preserveAspectRatio="xMidYMid meet">
<metadata>
Created by potrace 1.16, written by Peter Selinger 2001-2019
</metadata>
<g transform="translate(0.000000,84.000000) scale(0.100000,-0.100000)"
fill="#000000" stroke="none">
<path d="M0 510 l0 -330 25 0 c22 0 25 4 25 39 0 49 8 71 26 71 8 0 14 8 14
19 0 10 7 32 15 47 14 27 15 27 15 7 0 -13 5 -23 10 -23 6 0 10 -11 10 -24 0
-13 7 -26 15 -30 11 -4 15 -20 15 -56 0 -38 4 -50 15 -50 9 0 15 10 15 26 0
14 5 35 11 46 11 21 12 21 25 -3 7 -13 13 -31 14 -40 0 -13 15 -18 68 -22 46
-5 71 -12 80 -24 10 -14 12 -9 12 33 0 28 6 59 14 69 13 18 14 18 22 -6 4 -13
6 -77 5 -141 l-3 -118 256 0 256 0 0 420 0 420 -480 0 -480 0 0 -330z m620 99
c0 -12 10 -23 26 -29 l26 -10 -21 -34 c-26 -42 -26 -49 0 -41 18 6 20 4 14
-14 -5 -17 -2 -21 18 -21 24 0 65 -35 54 -46 -3 -3 -2 -17 3 -29 8 -21 5 -26
-20 -37 -17 -7 -30 -17 -30 -22 0 -4 -7 -3 -15 4 -10 9 -15 9 -15 1 0 -21 -21
-11 -31 17 l-11 27 -12 -30 c-12 -29 -13 -29 -20 -8 -4 12 -16 25 -27 28 -24
8 -24 23 1 45 17 15 19 25 13 83 -4 47 -10 67 -19 67 -20 0 -17 7 18 44 34 36
48 38 48 5z"/>
</g>
</svg>
