<?xml version="1.0" standalone="no"?>
<!DOCTYPE svg PUBLIC "-//W3C//DTD SVG 20010904//EN"
 "http://www.w3.org/TR/2001/REC-SVG-20010904/DTD/svg10.dtd">
<svg version="1.0" xmlns="http://www.w3.org/2000/svg"
 width="96.000000pt" height="84.000000pt" viewBox="0 0 96.000000 84.000000"
 preserveAspectRatio="xMidYMid meet">
<metadata>
Created by potrace 1.16, written by Peter Selinger 2001-2019
</metadata>
<g transform="translate(0.000000,84.000000) scale(0.100000,-0.100000)"
fill="#000000" stroke="none">
<path d="M0 510 l0 -330 25 0 c23 0 25 4 25 45 0 32 6 50 21 64 11 10 22 25
24 32 1 8 6 24 10 37 l8 23 13 -27 c8 -14 14 -35 14 -45 0 -11 7 -19 15 -19
16 0 18 -11 15 -72 -1 -29 2 -38 14 -38 11 0 16 9 16 28 0 16 6 37 14 47 13
18 14 18 25 -3 6 -11 11 -29 11 -40 0 -17 9 -20 65 -25 43 -3 73 -11 85 -22
20 -18 20 -17 20 36 0 30 4 60 9 68 19 30 31 -28 31 -148 l0 -121 250 0 250 0
0 420 0 420 -480 0 -480 0 0 -330z m620 110 c0 -12 10 -25 24 -31 l24 -11 -19
-35 c-24 -43 -24 -46 2 -38 19 6 21 4 16 -14 -4 -16 -1 -21 14 -21 30 0 58
-35 55 -68 -2 -33 -23 -65 -37 -56 -5 3 -9 0 -9 -7 0 -9 -3 -9 -14 0 -11 9
-15 8 -20 -4 -8 -21 -26 -10 -26 16 0 25 -20 25 -27 -1 -5 -19 -7 -18 -34 8
-34 32 -36 45 -8 63 18 13 19 20 12 79 -5 40 -13 65 -21 66 -6 1 -14 2 -16 3
-8 3 60 70 72 70 6 1 12 -8 12 -19z"/>
</g>
</svg>
