<?xml version="1.0" standalone="no"?>
<!DOCTYPE svg PUBLIC "-//W3C//DTD SVG 20010904//EN"
 "http://www.w3.org/TR/2001/REC-SVG-20010904/DTD/svg10.dtd">
<svg version="1.0" xmlns="http://www.w3.org/2000/svg"
 width="96.000000pt" height="84.000000pt" viewBox="0 0 96.000000 84.000000"
 preserveAspectRatio="xMidYMid meet">
<metadata>
Created by potrace 1.16, written by Peter Selinger 2001-2019
</metadata>
<g transform="translate(0.000000,84.000000) scale(0.100000,-0.100000)"
fill="#000000" stroke="none">
<path d="M0 510 l0 -330 25 0 c27 0 42 33 30 68 -4 14 1 27 17 42 13 12 24 27
24 33 4 26 17 57 25 57 5 0 6 -6 3 -14 -3 -8 -1 -17 5 -21 6 -3 11 -14 11 -23
0 -10 9 -26 21 -35 16 -14 20 -27 17 -60 -2 -31 1 -42 11 -42 8 0 15 9 16 20
3 32 16 65 25 65 6 0 12 -12 16 -27 3 -16 7 -33 9 -39 2 -6 34 -14 71 -17 49
-4 71 -10 81 -23 11 -15 13 -10 13 38 0 35 5 60 14 67 21 18 26 -7 26 -145 l0
-124 250 0 250 0 0 420 0 420 -480 0 -480 0 0 -330z m618 112 c2 -11 12 -24
23 -27 15 -5 18 -12 13 -28 -3 -12 -10 -26 -15 -31 -5 -6 -9 -16 -9 -23 0 -11
5 -11 21 -2 19 10 20 8 14 -10 -5 -16 -2 -21 13 -21 28 0 54 -34 56 -75 2 -40
-11 -56 -46 -57 -13 -1 -29 -6 -35 -11 -9 -6 -16 -1 -23 18 -10 26 -30 26 -30
-1 0 -8 -4 -14 -10 -14 -5 0 -10 7 -10 15 0 8 -7 15 -15 15 -7 0 -18 7 -23 17
-7 12 -3 21 14 37 23 19 24 26 18 84 -6 51 -10 62 -25 62 -25 0 -24 1 14 43
35 39 50 42 55 9z"/>
</g>
</svg>
