<?xml version="1.0" standalone="no"?>
<!DOCTYPE svg PUBLIC "-//W3C//DTD SVG 20010904//EN"
 "http://www.w3.org/TR/2001/REC-SVG-20010904/DTD/svg10.dtd">
<svg version="1.0" xmlns="http://www.w3.org/2000/svg"
 width="96.000000pt" height="84.000000pt" viewBox="0 0 96.000000 84.000000"
 preserveAspectRatio="xMidYMid meet">
<metadata>
Created by potrace 1.16, written by Peter Selinger 2001-2019
</metadata>
<g transform="translate(0.000000,84.000000) scale(0.100000,-0.100000)"
fill="#000000" stroke="none">
<path d="M0 510 l0 -330 25 0 c27 0 42 33 31 68 -7 20 15 52 35 52 5 0 9 11 9
24 0 14 5 28 10 31 6 4 8 11 5 16 -4 5 -2 9 4 9 6 0 13 -17 17 -37 4 -21 15
-46 25 -56 13 -12 19 -32 19 -62 0 -33 4 -45 15 -45 10 0 15 10 15 28 1 15 6
37 13 50 l13 23 12 -26 c7 -14 12 -35 12 -45 0 -17 7 -20 53 -20 28 0 65 -7
81 -15 39 -20 39 -20 33 21 -3 19 -2 47 4 61 8 21 12 23 24 13 12 -10 15 -40
15 -141 l0 -129 245 0 245 0 0 420 0 420 -480 0 -480 0 0 -330z m618 121 c2
-13 12 -26 23 -28 22 -6 23 -10 4 -43 -20 -35 -18 -49 4 -43 16 4 19 1 14 -16
-4 -16 -2 -20 9 -16 25 10 61 -28 62 -66 1 -40 -14 -59 -49 -63 -14 -1 -28 -6
-32 -9 -12 -13 -23 -7 -23 12 0 28 -20 37 -27 12 -3 -12 -7 -21 -8 -21 -2 0
-17 13 -34 29 l-30 28 25 24 c21 19 24 30 19 54 -4 16 -7 42 -6 58 1 20 -5 30
-20 36 -22 8 -22 8 -2 22 11 8 25 24 32 37 15 28 35 24 39 -7z"/>
</g>
</svg>
