<?xml version="1.0" standalone="no"?>
<!DOCTYPE svg PUBLIC "-//W3C//DTD SVG 20010904//EN"
 "http://www.w3.org/TR/2001/REC-SVG-20010904/DTD/svg10.dtd">
<svg version="1.0" xmlns="http://www.w3.org/2000/svg"
 width="96.000000pt" height="84.000000pt" viewBox="0 0 96.000000 84.000000"
 preserveAspectRatio="xMidYMid meet">
<metadata>
Created by potrace 1.16, written by Peter Selinger 2001-2019
</metadata>
<g transform="translate(0.000000,84.000000) scale(0.100000,-0.100000)"
fill="#000000" stroke="none">
<path d="M0 509 l0 -330 28 3 c24 3 27 7 28 44 1 52 9 74 29 74 9 0 15 9 15
24 0 14 5 28 10 31 6 4 8 10 5 15 -3 5 -1 11 4 14 5 4 12 -13 16 -36 4 -24 16
-49 26 -56 14 -10 19 -26 19 -63 0 -37 4 -49 15 -49 10 0 15 10 15 28 0 31 24
71 35 60 4 -4 10 -22 14 -40 7 -33 8 -33 74 -39 50 -4 71 -11 82 -25 13 -17
14 -14 15 36 0 59 11 87 29 76 7 -5 11 -54 11 -142 l0 -134 245 0 245 0 0 420
0 420 -480 0 -480 0 0 -331z m618 123 c2 -11 12 -24 23 -27 23 -8 24 -15 4
-41 -21 -28 -19 -47 4 -39 16 5 18 2 14 -15 -4 -15 -1 -20 14 -20 45 0 76 -76
45 -109 -8 -8 -27 -14 -43 -14 -17 0 -30 -6 -32 -16 -3 -11 -7 -8 -15 12 -13
32 -32 36 -32 7 0 -11 -4 -20 -10 -20 -5 0 -10 7 -10 15 0 8 -4 15 -9 15 -5 0
-17 7 -25 16 -14 14 -13 18 9 42 20 21 24 33 19 52 -4 14 -7 40 -6 58 2 26 -2
32 -18 32 -26 0 -26 0 13 43 35 40 50 42 55 9z"/>
</g>
</svg>
