<?xml version="1.0" standalone="no"?>
<!DOCTYPE svg PUBLIC "-//W3C//DTD SVG 20010904//EN"
 "http://www.w3.org/TR/2001/REC-SVG-20010904/DTD/svg10.dtd">
<svg version="1.0" xmlns="http://www.w3.org/2000/svg"
 width="96.000000pt" height="84.000000pt" viewBox="0 0 96.000000 84.000000"
 preserveAspectRatio="xMidYMid meet">
<metadata>
Created by potrace 1.16, written by Peter Selinger 2001-2019
</metadata>
<g transform="translate(0.000000,84.000000) scale(0.100000,-0.100000)"
fill="#000000" stroke="none">
<path d="M0 510 l0 -330 30 0 c30 0 30 0 30 56 0 47 3 57 20 61 11 3 20 13 20
23 0 10 7 31 15 46 13 26 15 27 15 7 0 -12 4 -24 10 -28 5 -3 7 -12 4 -20 -3
-8 4 -20 15 -27 17 -10 21 -23 21 -65 0 -46 3 -53 20 -53 16 0 20 7 20 31 0
17 5 40 11 51 11 21 12 21 25 -3 7 -13 13 -34 14 -46 0 -21 5 -23 58 -23 36 0
66 -6 78 -15 31 -23 37 -18 30 28 -5 30 -2 48 9 62 26 35 35 -1 35 -137 l0
-128 240 0 240 0 0 420 0 420 -480 0 -480 0 0 -330z m620 125 c5 -14 17 -25
25 -25 12 0 15 -6 10 -22 -4 -13 -11 -27 -16 -32 -16 -18 -10 -34 11 -29 16 4
19 2 14 -11 -4 -11 -1 -16 10 -16 29 0 58 -36 60 -73 1 -20 0 -34 -2 -32 -2 2
-13 -6 -24 -17 -11 -11 -26 -17 -33 -14 -8 3 -17 1 -20 -4 -10 -17 -25 -11
-25 9 0 28 -20 37 -27 12 -6 -25 -18 -27 -27 -6 -3 8 -12 15 -20 15 -25 0 -24
24 1 52 21 22 24 32 17 55 -4 15 -8 41 -8 58 -1 16 -7 30 -13 31 -7 1 -16 2
-20 3 -4 0 5 12 20 26 15 14 27 30 27 35 0 21 31 9 40 -15z"/>
</g>
</svg>
