<?xml version="1.0" standalone="no"?>
<!DOCTYPE svg PUBLIC "-//W3C//DTD SVG 20010904//EN"
 "http://www.w3.org/TR/2001/REC-SVG-20010904/DTD/svg10.dtd">
<svg version="1.0" xmlns="http://www.w3.org/2000/svg"
 width="96.000000pt" height="84.000000pt" viewBox="0 0 96.000000 84.000000"
 preserveAspectRatio="xMidYMid meet">
<metadata>
Created by potrace 1.16, written by Peter Selinger 2001-2019
</metadata>
<g transform="translate(0.000000,84.000000) scale(0.100000,-0.100000)"
fill="#000000" stroke="none">
<path d="M0 505 l0 -335 25 0 c23 0 25 4 25 45 0 37 5 51 26 70 16 15 24 31
20 40 -3 8 -2 15 3 15 5 0 12 10 16 23 6 19 9 15 18 -25 7 -32 17 -50 29 -54
14 -4 18 -16 18 -60 0 -41 4 -54 15 -54 8 0 15 9 15 20 0 23 20 70 30 70 10 0
30 -47 30 -70 0 -18 7 -20 67 -20 48 0 72 -5 85 -17 17 -15 18 -14 18 39 0 36
5 60 14 67 26 21 36 -21 36 -143 l0 -116 235 0 235 0 0 420 0 420 -480 0 -480
0 0 -335z m625 146 c4 -20 14 -31 31 -35 l25 -7 -21 -28 c-22 -32 -29 -74 -8
-53 18 18 30 14 23 -8 -5 -16 -2 -20 17 -20 29 0 62 -42 63 -78 0 -29 -22 -62
-42 -62 -7 0 -13 -6 -13 -12 0 -9 -3 -8 -10 2 -8 13 -11 12 -24 -5 -16 -22
-14 -23 -31 30 -6 22 -25 18 -25 -4 0 -28 -17 -35 -23 -10 -3 11 -15 23 -26
26 -28 7 -26 22 4 57 28 32 30 42 14 51 -6 4 -10 21 -9 39 3 48 1 53 -19 59
-18 4 -16 9 17 46 20 22 40 41 44 41 3 0 9 -13 13 -29z"/>
</g>
</svg>
