<?xml version="1.0" standalone="no"?>
<!DOCTYPE svg PUBLIC "-//W3C//DTD SVG 20010904//EN"
 "http://www.w3.org/TR/2001/REC-SVG-20010904/DTD/svg10.dtd">
<svg version="1.0" xmlns="http://www.w3.org/2000/svg"
 width="96.000000pt" height="84.000000pt" viewBox="0 0 96.000000 84.000000"
 preserveAspectRatio="xMidYMid meet">
<metadata>
Created by potrace 1.16, written by Peter Selinger 2001-2019
</metadata>
<g transform="translate(0.000000,84.000000) scale(0.100000,-0.100000)"
fill="#000000" stroke="none">
<path d="M335 810 c17 -32 20 -81 6 -96 -13 -14 -22 -162 -11 -169 13 -8 13
-63 -2 -158 -10 -65 -16 -80 -33 -87 -38 -14 -48 -36 -41 -88 4 -35 0 -67 -19
-127 -14 -44 -25 -81 -25 -82 0 -2 125 -3 279 -3 l279 0 7 55 c8 67 25 63 25
-6 l0 -49 79 0 80 0 -1 120 -1 120 -27 0 c-25 0 -28 4 -39 57 -6 31 -11 68
-11 83 0 48 -21 88 -58 113 l-37 24 -3 93 c-4 107 19 216 47 223 9 3 -102 5
-247 6 l-263 1 16 -30z m53 -312 l-13 -23 -3 29 c-2 16 0 32 5 35 4 3 8 14 9
24 3 57 8 64 11 15 3 -35 -1 -66 -9 -80z"/>
</g>
</svg>
