<?xml version="1.0" standalone="no"?>
<!DOCTYPE svg PUBLIC "-//W3C//DTD SVG 20010904//EN"
 "http://www.w3.org/TR/2001/REC-SVG-20010904/DTD/svg10.dtd">
<svg version="1.0" xmlns="http://www.w3.org/2000/svg"
 width="96.000000pt" height="84.000000pt" viewBox="0 0 96.000000 84.000000"
 preserveAspectRatio="xMidYMid meet">
<metadata>
Created by potrace 1.16, written by Peter Selinger 2001-2019
</metadata>
<g transform="translate(0.000000,84.000000) scale(0.100000,-0.100000)"
fill="#000000" stroke="none">
<path d="M0 479 c0 -284 3 -360 12 -356 7 2 13 21 14 43 1 53 12 84 30 84 9 0
14 11 14 30 0 17 4 30 9 30 5 0 12 10 16 23 l8 22 4 -22 c2 -13 9 -23 14 -23
5 0 9 -13 9 -30 0 -20 5 -30 15 -30 19 0 29 -41 22 -85 -3 -19 -1 -37 4 -40 5
-4 9 2 9 12 0 10 7 29 17 42 15 23 17 23 30 6 7 -11 13 -29 13 -42 0 -22 3
-23 84 -23 62 0 87 -4 96 -15 23 -28 32 -16 25 34 -6 45 7 91 26 91 17 0 25
-55 21 -138 l-4 -92 236 0 236 0 0 420 0 420 -480 0 -480 0 0 -361z m643 181
c5 -21 12 -30 26 -30 30 0 34 -17 12 -46 -12 -15 -21 -35 -21 -46 0 -16 3 -17
20 -8 17 9 20 8 20 -13 0 -20 5 -23 30 -21 17 1 30 -2 30 -6 0 -5 7 -16 16
-25 16 -16 25 -95 11 -95 -5 0 -6 -4 -3 -9 7 -10 -22 -25 -41 -22 -7 1 -13 -4
-13 -10 0 -8 -7 -6 -19 5 -17 16 -19 16 -24 -6 -7 -25 -23 -16 -29 16 -5 30
-26 31 -34 2 -7 -30 -24 -35 -24 -7 0 17 -25 36 -42 33 -17 -4 -6 35 17 62 28
32 33 66 10 66 -18 0 -17 -3 -6 38 12 41 5 62 -20 62 -27 0 -24 14 6 30 14 7
25 18 25 23 0 15 31 47 40 42 4 -3 10 -18 13 -35z"/>
</g>
</svg>
