<?xml version="1.0" standalone="no"?>
<!DOCTYPE svg PUBLIC "-//W3C//DTD SVG 20010904//EN"
 "http://www.w3.org/TR/2001/REC-SVG-20010904/DTD/svg10.dtd">
<svg version="1.0" xmlns="http://www.w3.org/2000/svg"
 width="96.000000pt" height="84.000000pt" viewBox="0 0 96.000000 84.000000"
 preserveAspectRatio="xMidYMid meet">
<metadata>
Created by potrace 1.16, written by Peter Selinger 2001-2019
</metadata>
<g transform="translate(0.000000,84.000000) scale(0.100000,-0.100000)"
fill="#000000" stroke="none">
<path d="M0 510 c0 -289 2 -329 15 -324 8 4 15 18 15 34 0 16 7 30 15 34 8 3
15 15 15 26 0 12 4 19 10 15 5 -3 7 -12 4 -20 -4 -8 0 -17 8 -20 9 -4 13 -16
10 -33 -3 -22 2 -30 22 -40 22 -10 26 -18 26 -57 0 -26 4 -44 9 -41 5 3 16 -5
24 -18 14 -21 25 -24 121 -31 71 -5 109 -11 117 -21 21 -26 29 -15 29 42 0 47
10 84 26 103 3 3 11 -4 19 -15 9 -12 14 -43 15 -81 l0 -63 230 0 230 0 0 420
0 420 -480 0 -480 0 0 -330z m672 162 c2 -21 9 -28 31 -30 16 -2 27 -6 24 -10
-2 -4 -9 -22 -16 -39 -7 -18 -17 -33 -22 -33 -5 0 -9 -9 -9 -21 0 -21 1 -21
46 -2 7 2 10 -5 7 -20 -4 -21 -2 -24 19 -20 16 3 36 -5 62 -26 21 -17 35 -31
31 -31 -4 0 -1 -8 6 -17 9 -10 9 -14 2 -10 -9 6 -11 -1 -8 -22 2 -17 7 -36 11
-42 5 -9 2 -10 -12 -5 -10 4 -15 4 -11 0 4 -4 0 -16 -9 -26 -13 -14 -20 -15
-31 -7 -10 9 -13 8 -13 -5 0 -20 -7 -20 -26 -1 -21 21 -34 19 -34 -5 0 -32
-26 -23 -36 12 -12 42 -30 46 -37 8 -7 -33 -27 -41 -27 -10 0 12 -12 26 -30
35 -36 19 -37 32 -7 65 13 14 26 33 30 43 8 22 -12 57 -30 50 -17 -7 -16 2 3
43 19 40 13 64 -16 64 -11 0 -20 3 -20 6 0 9 28 34 39 34 5 0 13 9 16 20 3 11
13 27 22 35 19 20 41 4 45 -33z"/>
</g>
</svg>
