<?xml version="1.0" standalone="no"?>
<!DOCTYPE svg PUBLIC "-//W3C//DTD SVG 20010904//EN"
 "http://www.w3.org/TR/2001/REC-SVG-20010904/DTD/svg10.dtd">
<svg version="1.0" xmlns="http://www.w3.org/2000/svg"
 width="96.000000pt" height="84.000000pt" viewBox="0 0 96.000000 84.000000"
 preserveAspectRatio="xMidYMid meet">
<metadata>
Created by potrace 1.16, written by Peter Selinger 2001-2019
</metadata>
<g transform="translate(0.000000,84.000000) scale(0.100000,-0.100000)"
fill="#000000" stroke="none">
<path d="M0 530 c0 -200 4 -310 10 -310 6 0 10 -11 10 -25 0 -14 5 -25 10 -25
6 0 10 -16 10 -35 0 -29 5 -37 25 -45 24 -9 29 -22 25 -67 l-1 -23 174 0 174
0 12 28 13 27 22 -27 22 -28 227 0 227 0 0 420 0 420 -480 0 -480 0 0 -310z
m700 170 c4 -28 11 -36 38 -44 30 -8 46 -36 21 -36 -6 0 -9 -6 -6 -13 3 -7 -6
-23 -19 -36 -13 -13 -24 -32 -24 -42 0 -23 8 -23 34 -4 27 21 36 19 36 -7 0
-21 5 -23 49 -23 27 0 47 -3 45 -7 -6 -10 32 -48 49 -48 9 0 8 -3 -2 -9 -11
-7 -10 -11 5 -20 11 -6 13 -11 6 -11 -16 0 -8 -70 10 -81 9 -6 5 -9 -11 -9
-13 0 -22 -3 -18 -6 9 -9 -21 -36 -33 -29 -6 4 -7 -1 -3 -12 6 -17 5 -17 -15
1 -22 19 -22 19 -22 -2 0 -28 -3 -27 -36 3 l-28 26 -12 -31 c-16 -37 -32 -39
-39 -2 -14 64 -36 72 -49 17 -10 -42 -29 -41 -37 1 -3 16 -10 28 -17 26 -7 -1
-12 3 -12 9 0 6 -7 9 -15 5 -8 -3 -15 -1 -15 3 0 5 -2 15 -5 23 -3 7 11 31 30
52 36 41 40 53 28 95 -6 23 -7 23 -14 5 -7 -17 -8 -17 -8 -1 -1 14 -6 17 -21
12 -28 -9 -26 14 6 48 31 33 28 62 -5 62 -35 0 -36 18 -1 38 17 10 37 34 45
53 11 28 19 35 37 32 18 -2 24 -11 28 -38z"/>
</g>
</svg>
