<?xml version="1.0" standalone="no"?>
<!DOCTYPE svg PUBLIC "-//W3C//DTD SVG 20010904//EN"
 "http://www.w3.org/TR/2001/REC-SVG-20010904/DTD/svg10.dtd">
<svg version="1.0" xmlns="http://www.w3.org/2000/svg"
 width="96.000000pt" height="84.000000pt" viewBox="0 0 96.000000 84.000000"
 preserveAspectRatio="xMidYMid meet">
<metadata>
Created by potrace 1.16, written by Peter Selinger 2001-2019
</metadata>
<g transform="translate(0.000000,84.000000) scale(0.100000,-0.100000)"
fill="#000000" stroke="none">
<path d="M0 420 l0 -420 480 0 480 0 0 104 c0 81 -3 105 -14 109 -11 4 -13 0
-11 -15 3 -11 0 -28 -5 -37 -5 -9 -10 -11 -10 -4 0 16 -51 63 -67 63 -7 0 -12
-3 -12 -7 3 -20 -3 -47 -8 -35 -4 10 -8 10 -19 1 -22 -18 -41 -4 -47 39 -4 22
-13 45 -21 51 -12 10 -17 5 -26 -31 -19 -75 -20 -75 -36 -54 -8 11 -14 32 -14
48 0 15 -4 28 -10 28 -5 0 -10 -5 -10 -10 0 -19 -48 24 -55 49 -5 18 2 31 30
58 39 38 50 72 37 117 -10 38 -29 44 -41 14 -7 -17 -10 -18 -10 -5 -1 10 -9
17 -21 17 -11 0 -20 3 -20 6 0 17 24 46 51 59 40 21 38 60 -3 60 -15 0 -32 5
-39 12 -8 8 -2 17 28 34 25 14 47 38 59 63 15 31 26 41 44 41 19 0 26 -6 28
-25 7 -62 11 -68 52 -75 39 -7 53 -26 29 -40 -5 -4 -8 -12 -6 -18 2 -7 -9 -24
-25 -39 -17 -16 -28 -36 -28 -52 0 -26 0 -26 30 -11 37 19 50 19 50 0 0 -11
12 -15 44 -15 24 0 51 -3 60 -6 14 -5 16 13 16 170 l0 176 -480 0 -480 0 0
-420z"/>
</g>
</svg>
