<?xml version="1.0" standalone="no"?>
<!DOCTYPE svg PUBLIC "-//W3C//DTD SVG 20010904//EN"
 "http://www.w3.org/TR/2001/REC-SVG-20010904/DTD/svg10.dtd">
<svg version="1.0" xmlns="http://www.w3.org/2000/svg"
 width="96.000000pt" height="84.000000pt" viewBox="0 0 96.000000 84.000000"
 preserveAspectRatio="xMidYMid meet">
<metadata>
Created by potrace 1.16, written by Peter Selinger 2001-2019
</metadata>
<g transform="translate(0.000000,84.000000) scale(0.100000,-0.100000)"
fill="#000000" stroke="none">
<path d="M0 420 l0 -420 481 0 c380 0 480 3 477 13 -2 6 -10 33 -17 60 -7 26
-17 47 -22 47 -12 0 -11 -17 1 -25 6 -3 10 -11 10 -17 0 -7 -5 -6 -14 1 -10 8
-16 9 -21 1 -20 -33 -65 10 -65 64 0 12 -7 31 -15 42 -13 16 -16 17 -25 4 -5
-8 -15 -39 -21 -67 -7 -29 -15 -53 -19 -53 -13 0 -31 28 -34 52 -3 31 -15 50
-27 43 -17 -11 -42 13 -59 58 l-18 46 45 42 c51 47 61 82 43 147 -10 41 -13
43 -43 40 -24 -2 -33 -8 -35 -25 -4 -28 -22 -31 -22 -3 0 10 -7 23 -16 28 -20
11 -15 41 9 56 14 8 20 8 27 -4 8 -12 10 -12 15 2 4 10 15 20 26 23 13 4 19
16 19 36 0 26 -3 29 -34 29 -44 0 -56 18 -28 40 12 10 18 21 14 25 -4 4 2 5
12 3 20 -3 39 20 78 91 10 18 25 31 36 31 24 0 55 -33 43 -46 -4 -5 -4 -23 0
-41 8 -28 14 -32 59 -38 54 -7 56 -10 38 -50 -10 -22 -9 -28 3 -36 8 -5 9 -9
3 -9 -5 0 -27 -15 -47 -34 -28 -25 -37 -42 -37 -65 l0 -31 40 20 c49 25 82 27
73 4 -4 -12 -2 -15 8 -12 11 4 15 39 17 176 l2 172 -480 0 -480 0 0 -420z"/>
</g>
</svg>
