<?xml version="1.0" standalone="no"?>
<!DOCTYPE svg PUBLIC "-//W3C//DTD SVG 20010904//EN"
 "http://www.w3.org/TR/2001/REC-SVG-20010904/DTD/svg10.dtd">
<svg version="1.0" xmlns="http://www.w3.org/2000/svg"
 width="96.000000pt" height="84.000000pt" viewBox="0 0 96.000000 84.000000"
 preserveAspectRatio="xMidYMid meet">
<metadata>
Created by potrace 1.16, written by Peter Selinger 2001-2019
</metadata>
<g transform="translate(0.000000,84.000000) scale(0.100000,-0.100000)"
fill="#000000" stroke="none">
<path d="M0 420 l0 -420 391 0 c257 0 388 3 384 10 -3 5 -17 10 -30 10 -36 0
-62 34 -68 92 -4 27 -11 56 -18 64 -15 18 -4 44 18 44 23 1 83 55 83 76 0 8 4
23 10 33 6 13 4 38 -9 82 l-18 64 -49 -2 c-27 -2 -59 -3 -71 -4 -17 -1 -23 -7
-23 -25 0 -32 -16 -31 -24 2 -4 15 -16 34 -27 43 l-20 16 21 28 c26 33 52 35
74 4 l16 -22 28 32 c16 18 36 33 46 33 23 0 29 21 16 54 -9 25 -14 27 -52 25
-31 -3 -44 1 -52 14 -9 15 -6 22 14 38 14 10 40 27 59 36 28 14 61 61 61 88 0
3 -171 5 -380 5 l-380 0 0 -420z"/>
<path d="M880 831 c0 -27 24 -70 43 -75 36 -9 37 -8 37 39 l0 45 -40 0 c-22 0
-40 -4 -40 -9z"/>
<path d="M923 553 c-13 -5 -19 -103 -7 -103 3 0 14 5 25 10 14 8 19 21 19 55
0 44 -6 51 -37 38z"/>
<path d="M900 62 c0 -12 -9 -26 -20 -32 -31 -17 -24 -30 16 -30 36 0 36 1 30
32 -8 40 -26 61 -26 30z"/>
</g>
</svg>
