<?xml version="1.0" standalone="no"?>
<!DOCTYPE svg PUBLIC "-//W3C//DTD SVG 20010904//EN"
 "http://www.w3.org/TR/2001/REC-SVG-20010904/DTD/svg10.dtd">
<svg version="1.0" xmlns="http://www.w3.org/2000/svg"
 width="96.000000pt" height="84.000000pt" viewBox="0 0 96.000000 84.000000"
 preserveAspectRatio="xMidYMid meet">
<metadata>
Created by potrace 1.16, written by Peter Selinger 2001-2019
</metadata>
<g transform="translate(0.000000,84.000000) scale(0.100000,-0.100000)"
fill="#000000" stroke="none">
<path d="M0 420 l0 -420 365 0 364 0 -6 33 c-3 17 -10 40 -14 49 -24 46 -1 60
53 32 29 -15 31 -15 59 12 17 16 29 39 29 53 1 14 7 37 14 50 9 16 11 32 5 45
-4 12 -18 55 -29 97 l-22 76 -41 2 c-23 1 -64 -4 -91 -11 l-49 -12 -31 37
c-40 47 -55 36 -46 -33 4 -28 4 -52 2 -55 -10 -10 -43 -5 -37 5 12 19 -6 69
-26 75 -29 10 -24 49 12 79 40 34 63 33 110 -5 44 -35 61 -31 104 26 19 24 36
35 58 37 31 3 32 5 29 43 -5 56 -15 64 -72 58 -40 -4 -53 -1 -70 15 -20 18
-21 23 -8 41 22 31 68 65 108 77 28 9 -50 12 -367 13 l-403 1 0 -420z"/>
<path d="M535 500 c-3 -5 -1 -10 4 -10 6 0 11 5 11 10 0 6 -2 10 -4 10 -3 0
-8 -4 -11 -10z"/>
<path d="M515 470 c3 -5 8 -10 11 -10 2 0 4 5 4 10 0 6 -5 10 -11 10 -5 0 -7
-4 -4 -10z"/>
</g>
</svg>
