<?xml version="1.0" standalone="no"?>
<!DOCTYPE svg PUBLIC "-//W3C//DTD SVG 20010904//EN"
 "http://www.w3.org/TR/2001/REC-SVG-20010904/DTD/svg10.dtd">
<svg version="1.0" xmlns="http://www.w3.org/2000/svg"
 width="96.000000pt" height="84.000000pt" viewBox="0 0 96.000000 84.000000"
 preserveAspectRatio="xMidYMid meet">
<metadata>
Created by potrace 1.16, written by Peter Selinger 2001-2019
</metadata>
<g transform="translate(0.000000,84.000000) scale(0.100000,-0.100000)"
fill="#000000" stroke="none">
<path d="M0 420 l0 -420 480 0 480 1 0 162 c0 190 -4 211 -32 196 -14 -8 -25
-7 -41 4 -14 9 -30 11 -44 6 -14 -5 -25 -3 -33 6 -9 11 -20 10 -65 -6 -103
-36 -121 -30 -203 65 l-34 39 -23 -29 c-15 -18 -19 -30 -12 -32 13 -3 14 -123
2 -142 -3 -5 -16 -10 -28 -10 -20 0 -22 5 -24 72 -1 42 2 75 8 79 7 4 5 9 -5
12 -13 5 -16 -1 -16 -26 -1 -30 -2 -31 -15 -13 -7 10 -18 15 -24 12 -13 -9
-23 27 -16 57 9 33 40 62 97 87 53 23 58 22 151 -37 l67 -43 43 21 c44 23 85
60 102 94 8 15 24 21 67 25 32 3 61 10 67 15 13 14 -3 101 -23 124 -14 15 -26
18 -59 14 -40 -5 -90 -7 -122 -4 -8 0 -15 6 -15 11 0 6 -9 20 -20 32 -11 12
-20 28 -20 35 0 10 -67 13 -345 13 l-345 0 0 -420z"/>
<path d="M440 455 c0 -8 5 -15 10 -15 6 0 10 7 10 15 0 8 -4 15 -10 15 -5 0
-10 -7 -10 -15z"/>
</g>
</svg>
