<?xml version="1.0" standalone="no"?>
<!DOCTYPE svg PUBLIC "-//W3C//DTD SVG 20010904//EN"
 "http://www.w3.org/TR/2001/REC-SVG-20010904/DTD/svg10.dtd">
<svg version="1.0" xmlns="http://www.w3.org/2000/svg"
 width="96.000000pt" height="84.000000pt" viewBox="0 0 96.000000 84.000000"
 preserveAspectRatio="xMidYMid meet">
<metadata>
Created by potrace 1.16, written by Peter Selinger 2001-2019
</metadata>
<g transform="translate(0.000000,84.000000) scale(0.100000,-0.100000)"
fill="#000000" stroke="none">
<path d="M0 420 l0 -420 480 0 480 0 0 180 0 180 -24 0 c-14 0 -28 5 -32 11
-4 6 -20 8 -40 4 -25 -4 -36 -2 -40 8 -4 12 -14 12 -65 -4 -106 -33 -129 -28
-204 42 -36 34 -67 60 -70 58 -18 -18 -52 -79 -45 -79 6 0 9 -26 8 -57 -1 -32
0 -65 3 -73 3 -11 -5 -16 -28 -18 -31 -3 -31 -2 -27 35 11 114 11 129 -4 142
-13 12 -14 10 -10 -22 4 -41 -8 -49 -22 -14 -7 18 -9 18 -9 4 -1 -10 -5 -15
-11 -12 -18 11 -11 71 11 99 19 25 106 76 128 76 6 0 53 -20 105 -45 l95 -46
51 26 c28 14 60 35 70 45 11 11 25 20 30 20 6 0 10 6 10 14 0 28 30 46 76 46
l44 0 0 75 c0 41 -3 75 -7 76 -49 5 -80 4 -89 -3 -6 -5 -33 -7 -59 -4 -39 3
-51 9 -77 40 l-29 36 -350 0 -349 0 0 -420z"/>
<path d="M417 473 c-11 -10 -8 -43 3 -43 15 0 24 30 13 41 -5 5 -12 6 -16 2z"/>
</g>
</svg>
