<?xml version="1.0" standalone="no"?>
<!DOCTYPE svg PUBLIC "-//W3C//DTD SVG 20010904//EN"
 "http://www.w3.org/TR/2001/REC-SVG-20010904/DTD/svg10.dtd">
<svg version="1.0" xmlns="http://www.w3.org/2000/svg"
 width="96.000000pt" height="84.000000pt" viewBox="0 0 96.000000 84.000000"
 preserveAspectRatio="xMidYMid meet">
<metadata>
Created by potrace 1.16, written by Peter Selinger 2001-2019
</metadata>
<g transform="translate(0.000000,84.000000) scale(0.100000,-0.100000)"
fill="#000000" stroke="none">
<path d="M0 420 l0 -420 480 0 480 0 0 174 c0 170 0 174 -23 189 -14 9 -35 13
-51 10 -17 -4 -31 -1 -36 6 -5 10 -23 8 -75 -8 -110 -34 -124 -31 -204 44
l-69 66 -23 -33 c-12 -18 -29 -39 -37 -45 -14 -12 -14 -13 0 -13 12 0 15 -14
14 -75 l-1 -75 -31 0 -31 0 5 49 c3 40 0 55 -16 76 -13 17 -22 21 -25 13 -8
-24 -22 3 -22 42 0 27 8 47 25 65 28 30 102 75 123 75 15 0 97 -34 173 -72
l41 -20 52 26 c28 15 61 36 71 46 11 11 24 20 30 20 6 0 10 7 10 15 0 25 38
55 70 55 l30 0 0 80 0 80 -87 -5 c-91 -6 -100 -4 -119 30 -11 19 -23 20 -383
23 l-371 2 0 -420z"/>
<path d="M420 446 c0 -19 4 -24 15 -19 18 6 16 34 -2 41 -8 2 -13 -6 -13 -22z"/>
<path d="M384 404 c3 -9 6 -21 6 -27 0 -6 6 -2 14 9 11 14 11 21 3 26 -20 13
-30 9 -23 -8z"/>
</g>
</svg>
