<?xml version="1.0" standalone="no"?>
<!DOCTYPE svg PUBLIC "-//W3C//DTD SVG 20010904//EN"
 "http://www.w3.org/TR/2001/REC-SVG-20010904/DTD/svg10.dtd">
<svg version="1.0" xmlns="http://www.w3.org/2000/svg"
 width="96.000000pt" height="84.000000pt" viewBox="0 0 96.000000 84.000000"
 preserveAspectRatio="xMidYMid meet">
<metadata>
Created by potrace 1.16, written by Peter Selinger 2001-2019
</metadata>
<g transform="translate(0.000000,84.000000) scale(0.100000,-0.100000)"
fill="#000000" stroke="none">
<path d="M0 420 l0 -420 480 0 480 0 0 185 0 185 -30 -6 c-17 -4 -36 -1 -45 6
-11 9 -26 7 -72 -10 -32 -12 -79 -23 -105 -23 -46 -2 -50 0 -117 67 l-69 69
-21 -41 c-11 -22 -26 -42 -33 -45 -9 -4 -8 -6 3 -6 14 -1 15 -8 7 -53 -6 -34
-6 -59 1 -74 12 -26 -6 -38 -43 -28 -21 5 -22 10 -18 55 4 38 1 54 -13 70 -12
13 -21 16 -25 9 -4 -7 -13 2 -20 21 -12 28 -11 36 6 68 21 39 92 98 131 107
26 7 114 -29 182 -75 l35 -23 60 32 c32 18 67 41 78 52 10 10 23 18 28 18 6 0
10 8 10 18 0 23 30 52 53 52 15 0 17 12 17 89 0 79 -2 89 -19 94 -11 2 -24 0
-29 -5 -6 -6 -36 -11 -68 -11 -49 -1 -59 2 -72 21 l-14 22 -379 0 -379 0 0
-420z"/>
<path d="M450 461 c0 -5 -3 -16 -6 -25 -4 -11 -1 -16 10 -16 18 0 22 35 6 45
-5 3 -10 2 -10 -4z"/>
<path d="M410 394 c0 -22 2 -25 15 -14 12 10 13 16 4 26 -16 20 -19 18 -19
-12z"/>
</g>
</svg>
