<?xml version="1.0" standalone="no"?>
<!DOCTYPE svg PUBLIC "-//W3C//DTD SVG 20010904//EN"
 "http://www.w3.org/TR/2001/REC-SVG-20010904/DTD/svg10.dtd">
<svg version="1.0" xmlns="http://www.w3.org/2000/svg"
 width="96.000000pt" height="84.000000pt" viewBox="0 0 96.000000 84.000000"
 preserveAspectRatio="xMidYMid meet">
<metadata>
Created by potrace 1.16, written by Peter Selinger 2001-2019
</metadata>
<g transform="translate(0.000000,84.000000) scale(0.100000,-0.100000)"
fill="#000000" stroke="none">
<path d="M0 420 l0 -420 480 0 480 0 0 175 c0 166 -1 175 -19 175 -11 0 -21 5
-23 12 -3 8 -28 3 -81 -15 -123 -43 -139 -40 -217 43 -36 39 -68 70 -71 70 -4
0 -15 -17 -25 -38 -14 -27 -19 -59 -19 -124 0 -90 -5 -101 -42 -92 -15 4 -19
15 -19 57 0 33 -6 61 -17 77 -11 15 -17 19 -17 10 0 -10 -7 -6 -20 10 -23 28
-20 57 11 107 23 37 106 93 138 93 22 0 151 -68 182 -96 15 -13 24 -11 83 21
36 20 64 40 61 44 -2 5 7 13 21 20 14 6 32 27 40 46 8 19 19 35 24 35 6 0 10
41 10 101 0 86 -2 100 -14 90 -18 -15 -95 -12 -123 5 -18 11 -103 14 -423 14
l-400 0 0 -420z"/>
<path d="M470 435 c0 -16 6 -25 15 -25 9 0 15 9 15 25 0 16 -6 25 -15 25 -9 0
-15 -9 -15 -25z"/>
<path d="M434 394 c3 -9 6 -20 6 -25 0 -5 6 -4 13 3 11 10 12 15 1 25 -17 18
-27 16 -20 -3z"/>
</g>
</svg>
