<?xml version="1.0" standalone="no"?>
<!DOCTYPE svg PUBLIC "-//W3C//DTD SVG 20010904//EN"
 "http://www.w3.org/TR/2001/REC-SVG-20010904/DTD/svg10.dtd">
<svg version="1.0" xmlns="http://www.w3.org/2000/svg"
 width="96.000000pt" height="84.000000pt" viewBox="0 0 96.000000 84.000000"
 preserveAspectRatio="xMidYMid meet">
<metadata>
Created by potrace 1.16, written by Peter Selinger 2001-2019
</metadata>
<g transform="translate(0.000000,84.000000) scale(0.100000,-0.100000)"
fill="#000000" stroke="none">
<path d="M0 420 l0 -420 480 0 480 0 0 179 c0 108 -4 182 -10 186 -5 3 -42 -5
-80 -19 -40 -15 -93 -26 -120 -26 -47 0 -50 1 -118 76 l-71 76 -22 -43 c-12
-24 -27 -47 -33 -51 -7 -5 -4 -8 8 -8 17 0 18 -6 13 -54 -3 -36 -1 -63 8 -80
12 -23 12 -27 -3 -35 -9 -5 -28 -8 -40 -7 -22 2 -24 8 -25 57 -2 41 -7 59 -24
77 -13 12 -23 18 -23 12 0 -5 -4 -10 -10 -10 -5 0 -10 7 -10 15 0 8 -4 15 -10
15 -22 0 -10 68 19 107 29 40 113 103 137 103 16 0 182 -86 204 -105 13 -12
24 -9 70 20 30 19 61 35 68 35 6 0 12 7 12 15 0 8 14 21 30 30 l30 16 0 119
c0 117 0 120 -22 121 -13 1 -36 4 -53 7 -16 2 -222 6 -457 8 l-428 4 0 -420z"/>
<path d="M480 431 c0 -23 4 -29 16 -24 17 6 15 44 -3 51 -9 2 -13 -7 -13 -27z"/>
<path d="M440 389 c0 -13 5 -31 10 -39 8 -13 10 -13 10 2 0 9 5 18 11 20 6 2
1 12 -10 22 -21 19 -21 19 -21 -5z"/>
</g>
</svg>
