<?xml version="1.0" standalone="no"?>
<!DOCTYPE svg PUBLIC "-//W3C//DTD SVG 20010904//EN"
 "http://www.w3.org/TR/2001/REC-SVG-20010904/DTD/svg10.dtd">
<svg version="1.0" xmlns="http://www.w3.org/2000/svg"
 width="96.000000pt" height="84.000000pt" viewBox="0 0 96.000000 84.000000"
 preserveAspectRatio="xMidYMid meet">
<metadata>
Created by potrace 1.16, written by Peter Selinger 2001-2019
</metadata>
<g transform="translate(0.000000,84.000000) scale(0.100000,-0.100000)"
fill="#000000" stroke="none">
<path d="M0 420 l0 -420 480 0 480 0 0 185 c0 102 -2 185 -3 185 -2 0 -28 -8
-58 -19 -80 -27 -131 -34 -164 -21 -17 6 -62 43 -102 82 l-71 71 -25 -52 c-18
-37 -20 -51 -11 -51 10 0 14 -16 14 -57 0 -32 6 -70 14 -85 17 -32 5 -48 -35
-48 -24 0 -27 4 -33 52 -4 29 -10 70 -13 91 -3 25 -1 37 7 37 7 0 2 9 -11 19
-31 25 -40 18 -28 -22 13 -47 11 -55 -11 -28 -18 21 -20 21 -20 5 0 -16 -3
-16 -20 6 -44 56 -14 126 82 190 33 22 64 40 69 40 15 0 182 -71 215 -91 l31
-19 75 37 c48 24 79 46 86 62 7 15 12 74 12 148 l0 123 -480 0 -480 0 0 -420z"/>
<path d="M480 451 c0 -5 -3 -16 -6 -25 -4 -12 0 -16 15 -16 16 0 21 6 21 25 0
16 -6 25 -15 25 -8 0 -15 -4 -15 -9z"/>
</g>
</svg>
