<?xml version="1.0" standalone="no"?>
<!DOCTYPE svg PUBLIC "-//W3C//DTD SVG 20010904//EN"
 "http://www.w3.org/TR/2001/REC-SVG-20010904/DTD/svg10.dtd">
<svg version="1.0" xmlns="http://www.w3.org/2000/svg"
 width="96.000000pt" height="84.000000pt" viewBox="0 0 96.000000 84.000000"
 preserveAspectRatio="xMidYMid meet">
<metadata>
Created by potrace 1.16, written by Peter Selinger 2001-2019
</metadata>
<g transform="translate(0.000000,84.000000) scale(0.100000,-0.100000)"
fill="#000000" stroke="none">
<path d="M0 420 l0 -420 480 0 480 0 0 183 0 183 -80 -20 c-106 -25 -132 -17
-234 74 -43 38 -82 70 -87 70 -4 0 -21 -17 -36 -37 -15 -21 -32 -41 -36 -44
-5 -3 1 -9 12 -12 18 -4 21 -13 21 -64 0 -32 7 -70 14 -85 13 -25 13 -29 -4
-38 -10 -5 -30 -10 -43 -10 -22 0 -25 5 -31 52 -3 29 -9 70 -12 92 -4 25 -2
41 6 46 8 5 5 15 -13 34 l-25 26 -5 -22 c-4 -12 -4 -33 -1 -45 9 -34 -5 -28
-21 10 -8 18 -14 25 -15 15 0 -26 -13 -22 -27 9 -18 39 -17 48 17 87 29 32
141 86 180 86 21 0 209 -67 243 -86 28 -16 32 -15 103 17 l73 34 1 143 0 142
-480 0 -480 0 0 -420z"/>
<path d="M454 475 c-7 -18 2 -45 15 -45 6 0 15 10 22 21 9 17 8 23 -2 30 -20
13 -29 11 -35 -6z"/>
</g>
</svg>
