<?xml version="1.0" standalone="no"?>
<!DOCTYPE svg PUBLIC "-//W3C//DTD SVG 20010904//EN"
 "http://www.w3.org/TR/2001/REC-SVG-20010904/DTD/svg10.dtd">
<svg version="1.0" xmlns="http://www.w3.org/2000/svg"
 width="96.000000pt" height="84.000000pt" viewBox="0 0 96.000000 84.000000"
 preserveAspectRatio="xMidYMid meet">
<metadata>
Created by potrace 1.16, written by Peter Selinger 2001-2019
</metadata>
<g transform="translate(0.000000,84.000000) scale(0.100000,-0.100000)"
fill="#000000" stroke="none">
<path d="M0 420 l0 -420 480 0 480 0 0 181 0 181 -22 -6 c-45 -13 -133 -18
-158 -8 -14 5 -69 44 -122 86 -60 47 -102 74 -111 70 -9 -3 -20 -19 -26 -36
-12 -34 -34 -29 -25 6 7 28 -16 49 -48 44 -20 -3 -23 -10 -26 -48 l-3 -45 -19
25 -20 25 0 -28 c0 -18 -4 -26 -11 -21 -6 3 -9 24 -7 46 4 39 3 39 -13 19 -22
-26 -25 -26 -32 1 -8 29 15 63 56 84 23 13 58 17 127 18 79 0 112 -5 195 -31
55 -17 114 -36 130 -43 27 -11 37 -10 83 11 l52 24 0 142 0 143 -480 0 -480 0
0 -420z m469 -123 c16 4 20 -4 26 -59 4 -34 14 -76 22 -91 17 -35 6 -53 -37
-59 -28 -4 -30 -3 -30 29 0 19 -6 46 -14 61 -21 43 -27 99 -10 113 8 6 15 19
15 28 1 10 3 7 6 -5 3 -15 10 -20 22 -17z"/>
</g>
</svg>
