<?xml version="1.0" standalone="no"?>
<!DOCTYPE svg PUBLIC "-//W3C//DTD SVG 20010904//EN"
 "http://www.w3.org/TR/2001/REC-SVG-20010904/DTD/svg10.dtd">
<svg version="1.0" xmlns="http://www.w3.org/2000/svg"
 width="96.000000pt" height="84.000000pt" viewBox="0 0 96.000000 84.000000"
 preserveAspectRatio="xMidYMid meet">
<metadata>
Created by potrace 1.16, written by Peter Selinger 2001-2019
</metadata>
<g transform="translate(0.000000,84.000000) scale(0.100000,-0.100000)"
fill="#000000" stroke="none">
<path d="M0 420 l0 -420 480 0 480 0 0 209 0 210 -37 -6 c-91 -16 -115 -8
-234 73 -116 79 -150 88 -164 44 -10 -30 -23 -24 -27 12 -2 24 -9 34 -32 41
-33 11 -46 -2 -46 -45 0 -16 -4 -28 -10 -28 -5 0 -10 9 -10 20 0 11 -4 20 -10
20 -5 0 -10 -12 -10 -26 0 -14 -4 -23 -10 -19 -5 3 -10 23 -10 43 0 28 -3 33
-12 24 -18 -18 -25 -15 -30 13 -7 32 16 64 58 81 43 18 167 18 230 -1 27 -8
81 -19 119 -25 39 -5 89 -17 113 -26 41 -15 46 -15 83 1 l39 18 0 104 0 103
-480 0 -480 0 0 -420z m430 -183 c15 4 20 -6 33 -62 9 -37 23 -75 31 -84 22
-24 20 -36 -9 -55 -36 -24 -55 -20 -55 9 0 14 -11 48 -25 75 -26 50 -33 100
-15 100 6 0 11 10 11 23 1 15 3 17 6 6 2 -11 11 -15 23 -12z"/>
</g>
</svg>
