<?xml version="1.0" standalone="no"?>
<!DOCTYPE svg PUBLIC "-//W3C//DTD SVG 20010904//EN"
 "http://www.w3.org/TR/2001/REC-SVG-20010904/DTD/svg10.dtd">
<svg version="1.0" xmlns="http://www.w3.org/2000/svg"
 width="96.000000pt" height="84.000000pt" viewBox="0 0 96.000000 84.000000"
 preserveAspectRatio="xMidYMid meet">
<metadata>
Created by potrace 1.16, written by Peter Selinger 2001-2019
</metadata>
<g transform="translate(0.000000,84.000000) scale(0.100000,-0.100000)"
fill="#000000" stroke="none">
<path d="M0 420 l0 -420 480 0 480 0 0 336 c0 316 -1 336 -17 329 -10 -4 -45
-9 -78 -12 -58 -5 -66 -3 -164 47 -96 48 -106 50 -133 39 -18 -7 -34 -24 -40
-41 -14 -39 -29 -35 -26 7 5 75 -66 88 -78 14 -6 -37 -24 -55 -24 -24 0 8 -4
15 -10 15 -5 0 -10 -9 -10 -20 0 -11 -4 -20 -10 -20 -5 0 -10 19 -10 42 0 40
-1 40 -19 24 -18 -16 -19 -16 -23 20 -3 25 1 43 15 60 l18 24 -175 0 -176 0 0
-420z m374 -123 c20 4 25 -2 40 -55 9 -32 25 -67 36 -77 28 -25 25 -38 -12
-60 -42 -24 -40 -24 -45 5 -2 14 -14 41 -28 60 -34 50 -48 91 -35 104 5 5 11
19 11 31 1 14 3 15 6 4 2 -11 12 -15 27 -12z"/>
</g>
</svg>
