<?xml version="1.0" standalone="no"?>
<!DOCTYPE svg PUBLIC "-//W3C//DTD SVG 20010904//EN"
 "http://www.w3.org/TR/2001/REC-SVG-20010904/DTD/svg10.dtd">
<svg version="1.0" xmlns="http://www.w3.org/2000/svg"
 width="96.000000pt" height="84.000000pt" viewBox="0 0 96.000000 84.000000"
 preserveAspectRatio="xMidYMid meet">
<metadata>
Created by potrace 1.16, written by Peter Selinger 2001-2019
</metadata>
<g transform="translate(0.000000,84.000000) scale(0.100000,-0.100000)"
fill="#000000" stroke="none">
<path d="M333 828 c2 -7 13 -13 25 -12 18 0 22 -7 28 -62 3 -35 11 -68 18 -73
7 -6 11 -46 10 -113 -1 -86 -5 -109 -23 -138 -11 -19 -21 -50 -21 -67 0 -26
-6 -36 -29 -47 -37 -19 -44 -39 -30 -85 10 -35 -2 -83 -56 -214 -7 -16 12 -17
310 -17 l317 0 -7 74 c-6 61 -4 78 10 100 21 31 14 53 -19 66 -22 8 -25 16
-32 90 -6 73 -9 83 -34 102 l-28 20 2 128 c1 103 5 132 18 147 14 16 22 59 19
101 -1 9 -56 12 -242 12 -188 0 -240 -3 -236 -12z"/>
</g>
</svg>
