<?xml version="1.0" standalone="no"?>
<!DOCTYPE svg PUBLIC "-//W3C//DTD SVG 20010904//EN"
 "http://www.w3.org/TR/2001/REC-SVG-20010904/DTD/svg10.dtd">
<svg version="1.0" xmlns="http://www.w3.org/2000/svg"
 width="96.000000pt" height="84.000000pt" viewBox="0 0 96.000000 84.000000"
 preserveAspectRatio="xMidYMid meet">
<metadata>
Created by potrace 1.16, written by Peter Selinger 2001-2019
</metadata>
<g transform="translate(0.000000,84.000000) scale(0.100000,-0.100000)"
fill="#000000" stroke="none">
<path d="M0 420 l0 -420 480 0 480 0 0 420 0 420 -480 0 -480 0 0 -420z m406
99 c38 -23 42 -40 17 -60 -21 -18 -43 -71 -43 -104 0 -15 -6 -25 -14 -25 -8 0
-23 -3 -33 -7 -10 -3 -15 -3 -11 2 4 4 0 14 -9 20 -16 12 -15 17 10 67 22 44
25 59 18 85 -14 49 9 57 65 22z"/>
</g>
</svg>
