<?xml version="1.0" standalone="no"?>
<!DOCTYPE svg PUBLIC "-//W3C//DTD SVG 20010904//EN"
 "http://www.w3.org/TR/2001/REC-SVG-20010904/DTD/svg10.dtd">
<svg version="1.0" xmlns="http://www.w3.org/2000/svg"
 width="96.000000pt" height="84.000000pt" viewBox="0 0 96.000000 84.000000"
 preserveAspectRatio="xMidYMid meet">
<metadata>
Created by potrace 1.16, written by Peter Selinger 2001-2019
</metadata>
<g transform="translate(0.000000,84.000000) scale(0.100000,-0.100000)"
fill="#000000" stroke="none">
<path d="M0 420 l0 -420 480 0 480 0 0 420 0 420 -480 0 -480 0 0 -420z m416
121 c-4 -33 -2 -63 9 -93 13 -38 13 -44 0 -54 -8 -6 -16 -20 -16 -30 -1 -17
-2 -17 -6 -1 -2 9 -13 17 -24 17 -21 0 -23 6 -20 65 1 24 -6 56 -18 79 -12 22
-20 40 -18 41 20 15 48 24 71 25 29 0 29 0 22 -49z"/>
</g>
</svg>
