<?xml version="1.0" standalone="no"?>
<!DOCTYPE svg PUBLIC "-//W3C//DTD SVG 20010904//EN"
 "http://www.w3.org/TR/2001/REC-SVG-20010904/DTD/svg10.dtd">
<svg version="1.0" xmlns="http://www.w3.org/2000/svg"
 width="96.000000pt" height="84.000000pt" viewBox="0 0 96.000000 84.000000"
 preserveAspectRatio="xMidYMid meet">
<metadata>
Created by potrace 1.16, written by Peter Selinger 2001-2019
</metadata>
<g transform="translate(0.000000,84.000000) scale(0.100000,-0.100000)"
fill="#000000" stroke="none">
<path d="M471 799 c0 -9 -8 -20 -17 -23 -14 -5 -15 -16 -9 -69 4 -34 7 -82 8
-105 l1 -44 41 7 c52 8 61 18 41 46 -11 16 -16 45 -16 92 0 60 -3 70 -19 74
-11 3 -22 12 -24 22 -4 15 -5 15 -6 0z"/>
</g>
</svg>
