<?xml version="1.0" standalone="no"?>
<!DOCTYPE svg PUBLIC "-//W3C//DTD SVG 20010904//EN"
 "http://www.w3.org/TR/2001/REC-SVG-20010904/DTD/svg10.dtd">
<svg version="1.0" xmlns="http://www.w3.org/2000/svg"
 width="96.000000pt" height="84.000000pt" viewBox="0 0 96.000000 84.000000"
 preserveAspectRatio="xMidYMid meet">
<metadata>
Created by potrace 1.16, written by Peter Selinger 2001-2019
</metadata>
<g transform="translate(0.000000,84.000000) scale(0.100000,-0.100000)"
fill="#000000" stroke="none">
<path d="M567 820 c-3 -10 -22 -27 -43 -36 -22 -9 -46 -20 -54 -24 -8 -4 -16
-23 -18 -42 -3 -31 1 -37 26 -47 26 -11 31 -9 66 24 21 19 47 36 59 37 12 1
30 2 39 3 28 1 31 12 17 60 -13 43 -15 45 -50 45 -28 0 -38 -5 -42 -20z"/>
</g>
</svg>
