<?xml version="1.0" standalone="no"?>
<!DOCTYPE svg PUBLIC "-//W3C//DTD SVG 20010904//EN"
 "http://www.w3.org/TR/2001/REC-SVG-20010904/DTD/svg10.dtd">
<svg version="1.0" xmlns="http://www.w3.org/2000/svg"
 width="96.000000pt" height="84.000000pt" viewBox="0 0 96.000000 84.000000"
 preserveAspectRatio="xMidYMid meet">
<metadata>
Created by potrace 1.16, written by Peter Selinger 2001-2019
</metadata>
<g transform="translate(0.000000,84.000000) scale(0.100000,-0.100000)"
fill="#000000" stroke="none">
<path d="M540 774 c-25 -53 -29 -68 -18 -75 7 -5 17 -9 22 -9 4 0 6 -11 4 -25
-7 -34 10 -43 18 -10 5 20 11 24 29 19 21 -5 22 -2 28 58 3 35 9 73 13 86 6
20 3 22 -29 22 -33 0 -36 -3 -67 -66z"/>
</g>
</svg>
