<?xml version="1.0" standalone="no"?>
<!DOCTYPE svg PUBLIC "-//W3C//DTD SVG 20010904//EN"
 "http://www.w3.org/TR/2001/REC-SVG-20010904/DTD/svg10.dtd">
<svg version="1.0" xmlns="http://www.w3.org/2000/svg"
 width="96.000000pt" height="84.000000pt" viewBox="0 0 96.000000 84.000000"
 preserveAspectRatio="xMidYMid meet">
<metadata>
Created by potrace 1.16, written by Peter Selinger 2001-2019
</metadata>
<g transform="translate(0.000000,84.000000) scale(0.100000,-0.100000)"
fill="#000000" stroke="none">
<path d="M593 414 c-3 -8 -1 -33 6 -53 20 -67 13 -107 -29 -190 -22 -43 -40
-86 -40 -97 0 -11 13 -32 28 -47 25 -24 32 -26 72 -19 l45 8 6 54 c9 85 36
154 80 203 21 25 39 52 39 61 0 20 -39 56 -62 56 -9 0 -32 9 -50 20 -40 24
-86 26 -95 4z"/>
</g>
</svg>
