<?xml version="1.0" standalone="no"?>
<!DOCTYPE svg PUBLIC "-//W3C//DTD SVG 20010904//EN"
 "http://www.w3.org/TR/2001/REC-SVG-20010904/DTD/svg10.dtd">
<svg version="1.0" xmlns="http://www.w3.org/2000/svg"
 width="96.000000pt" height="84.000000pt" viewBox="0 0 96.000000 84.000000"
 preserveAspectRatio="xMidYMid meet">
<metadata>
Created by potrace 1.16, written by Peter Selinger 2001-2019
</metadata>
<g transform="translate(0.000000,84.000000) scale(0.100000,-0.100000)"
fill="#000000" stroke="none">
<path d="M362 588 c-22 -25 -41 -91 -42 -149 0 -45 8 -54 32 -33 10 10 40 19
67 22 50 4 87 -12 131 -58 15 -15 63 -40 79 -40 14 0 61 45 61 58 0 9 7 11 20
7 26 -8 25 6 -1 36 -11 13 -18 31 -16 41 3 10 2 18 -3 18 -4 0 -10 9 -13 20
-4 17 -11 19 -50 14 -54 -8 -148 25 -184 63 -28 29 -54 29 -81 1z"/>
</g>
</svg>
