<?xml version="1.0" standalone="no"?>
<!DOCTYPE svg PUBLIC "-//W3C//DTD SVG 20010904//EN"
 "http://www.w3.org/TR/2001/REC-SVG-20010904/DTD/svg10.dtd">
<svg version="1.0" xmlns="http://www.w3.org/2000/svg"
 width="96.000000pt" height="84.000000pt" viewBox="0 0 96.000000 84.000000"
 preserveAspectRatio="xMidYMid meet">
<metadata>
Created by potrace 1.16, written by Peter Selinger 2001-2019
</metadata>
<g transform="translate(0.000000,84.000000) scale(0.100000,-0.100000)"
fill="#000000" stroke="none">
<path d="M427 547 c-2 -6 -19 -10 -38 -9 -19 1 -39 -2 -44 -6 -24 -16 -45 -64
-45 -101 0 -25 -5 -41 -15 -45 -23 -8 -18 -26 7 -26 17 0 19 -3 10 -12 -17
-17 -15 -28 4 -28 19 0 52 35 65 68 5 13 27 31 51 41 36 16 52 17 98 9 101
-17 113 -16 124 13 14 42 1 76 -34 84 -16 4 -30 11 -30 15 0 13 -148 10 -153
-3z"/>
</g>
</svg>
