<?xml version="1.0" standalone="no"?>
<!DOCTYPE svg PUBLIC "-//W3C//DTD SVG 20010904//EN"
 "http://www.w3.org/TR/2001/REC-SVG-20010904/DTD/svg10.dtd">
<svg version="1.0" xmlns="http://www.w3.org/2000/svg"
 width="96.000000pt" height="84.000000pt" viewBox="0 0 96.000000 84.000000"
 preserveAspectRatio="xMidYMid meet">
<metadata>
Created by potrace 1.16, written by Peter Selinger 2001-2019
</metadata>
<g transform="translate(0.000000,84.000000) scale(0.100000,-0.100000)"
fill="#000000" stroke="none">
<path d="M424 566 c-10 -8 -30 -12 -45 -9 -16 3 -32 -1 -42 -11 -8 -9 -25 -16
-36 -16 -25 0 -38 -19 -21 -30 10 -6 8 -19 -10 -57 -22 -47 -70 -169 -70 -178
0 -3 7 -5 15 -5 20 0 19 -10 -2 -25 -9 -7 -13 -17 -9 -24 11 -17 46 5 46 29 0
11 4 20 9 20 12 0 21 -41 14 -68 -4 -16 -1 -22 11 -22 10 0 16 9 16 24 0 13 6
29 14 35 9 8 12 24 9 50 -5 38 18 132 40 159 5 7 34 19 63 28 70 20 95 62 58
98 -19 20 -35 20 -60 2z"/>
</g>
</svg>
