<?xml version="1.0" standalone="no"?>
<!DOCTYPE svg PUBLIC "-//W3C//DTD SVG 20010904//EN"
 "http://www.w3.org/TR/2001/REC-SVG-20010904/DTD/svg10.dtd">
<svg version="1.0" xmlns="http://www.w3.org/2000/svg"
 width="96.000000pt" height="84.000000pt" viewBox="0 0 96.000000 84.000000"
 preserveAspectRatio="xMidYMid meet">
<metadata>
Created by potrace 1.16, written by Peter Selinger 2001-2019
</metadata>
<g transform="translate(0.000000,84.000000) scale(0.100000,-0.100000)"
fill="#000000" stroke="none">
<path d="M337 568 c-20 -45 -61 -82 -86 -75 -24 6 -54 -23 -42 -42 6 -8 16
-11 31 -6 20 6 22 5 15 -11 -17 -40 -52 -151 -65 -204 -9 -39 -10 -55 -2 -58
8 -2 8 -9 0 -22 -16 -25 -5 -35 21 -20 13 6 21 21 21 35 0 14 5 25 10 25 11 0
14 -20 11 -57 -1 -15 4 -23 14 -23 8 0 15 7 15 16 0 8 6 22 14 30 10 9 13 26
9 47 -14 90 34 234 103 307 19 21 22 31 16 55 -7 24 -14 31 -40 33 -27 3 -33
-1 -45 -30z"/>
</g>
</svg>
