<?xml version="1.0" standalone="no"?>
<!DOCTYPE svg PUBLIC "-//W3C//DTD SVG 20010904//EN"
 "http://www.w3.org/TR/2001/REC-SVG-20010904/DTD/svg10.dtd">
<svg version="1.0" xmlns="http://www.w3.org/2000/svg"
 width="96.000000pt" height="84.000000pt" viewBox="0 0 96.000000 84.000000"
 preserveAspectRatio="xMidYMid meet">
<metadata>
Created by potrace 1.16, written by Peter Selinger 2001-2019
</metadata>
<g transform="translate(0.000000,84.000000) scale(0.100000,-0.100000)"
fill="#000000" stroke="none">
<path d="M327 805 c-22 -46 -21 -62 2 -68 13 -3 26 -26 41 -73 13 -38 25 -75
28 -81 2 -8 -4 -13 -18 -13 -16 0 -20 -4 -16 -16 4 -10 -6 -30 -29 -55 -31
-35 -35 -45 -35 -94 0 -50 -2 -56 -30 -70 -29 -15 -31 -31 -8 -62 11 -14 -13
-122 -47 -204 -14 -35 -25 -64 -25 -66 0 -2 92 -3 205 -3 l204 0 -1 88 c-2 87
15 167 33 157 5 -4 9 -60 9 -126 l0 -119 85 0 c47 0 85 3 85 8 0 4 -9 30 -19
58 -25 65 -38 198 -22 218 9 10 8 16 -4 26 -30 25 -58 139 -59 248 -2 63 -7
107 -14 114 -15 15 -16 68 -2 68 6 0 10 14 10 32 0 17 7 40 17 50 16 17 9 18
-179 18 l-194 0 -17 -35z"/>
</g>
</svg>
