<?xml version="1.0" standalone="no"?>
<!DOCTYPE svg PUBLIC "-//W3C//DTD SVG 20010904//EN"
 "http://www.w3.org/TR/2001/REC-SVG-20010904/DTD/svg10.dtd">
<svg version="1.0" xmlns="http://www.w3.org/2000/svg"
 width="96.000000pt" height="84.000000pt" viewBox="0 0 96.000000 84.000000"
 preserveAspectRatio="xMidYMid meet">
<metadata>
Created by potrace 1.16, written by Peter Selinger 2001-2019
</metadata>
<g transform="translate(0.000000,84.000000) scale(0.100000,-0.100000)"
fill="#000000" stroke="none">
<path d="M237 578 c-3 -10 0 -21 7 -24 8 -3 11 -16 7 -37 -8 -45 -32 -77 -58
-77 -27 0 -50 -37 -34 -53 7 -7 18 -7 36 1 l25 11 -5 -47 c-2 -26 -15 -93 -28
-149 -17 -69 -21 -105 -14 -112 7 -7 6 -15 -3 -26 -10 -13 -9 -15 8 -15 22 0
47 24 39 38 -9 13 10 35 23 27 8 -5 10 -19 5 -41 -6 -36 10 -49 22 -16 4 9 12
21 20 25 10 6 13 44 13 156 0 123 3 150 15 155 8 3 15 16 15 28 0 13 4 30 10
38 5 9 5 19 -2 28 -8 9 -8 19 2 36 13 26 0 65 -23 67 -73 7 -75 6 -80 -13z"/>
</g>
</svg>
