<?xml version="1.0" standalone="no"?>
<!DOCTYPE svg PUBLIC "-//W3C//DTD SVG 20010904//EN"
 "http://www.w3.org/TR/2001/REC-SVG-20010904/DTD/svg10.dtd">
<svg version="1.0" xmlns="http://www.w3.org/2000/svg"
 width="96.000000pt" height="84.000000pt" viewBox="0 0 96.000000 84.000000"
 preserveAspectRatio="xMidYMid meet">
<metadata>
Created by potrace 1.16, written by Peter Selinger 2001-2019
</metadata>
<g transform="translate(0.000000,84.000000) scale(0.100000,-0.100000)"
fill="#000000" stroke="none">
<path d="M201 596 c-6 -7 -11 -35 -10 -62 1 -64 -9 -113 -32 -146 -33 -46 -22
-95 12 -55 l19 22 -4 -25 c-27 -139 -38 -241 -27 -253 6 -8 8 -22 5 -32 -5
-13 -2 -16 12 -13 13 2 21 14 24 38 7 48 35 48 36 1 0 -46 18 -50 38 -10 15
31 16 120 1 287 -1 22 3 36 11 39 8 3 14 17 13 32 -1 14 1 33 5 42 5 10 1 19
-8 22 -11 4 -16 19 -16 47 0 23 -5 50 -10 61 -12 22 -52 25 -69 5z"/>
</g>
</svg>
