<?xml version="1.0" standalone="no"?>
<!DOCTYPE svg PUBLIC "-//W3C//DTD SVG 20010904//EN"
 "http://www.w3.org/TR/2001/REC-SVG-20010904/DTD/svg10.dtd">
<svg version="1.0" xmlns="http://www.w3.org/2000/svg"
 width="96.000000pt" height="84.000000pt" viewBox="0 0 96.000000 84.000000"
 preserveAspectRatio="xMidYMid meet">
<metadata>
Created by potrace 1.16, written by Peter Selinger 2001-2019
</metadata>
<g transform="translate(0.000000,84.000000) scale(0.100000,-0.100000)"
fill="#000000" stroke="none">
<path d="M155 621 c-21 -13 -25 -21 -20 -41 11 -41 5 -111 -21 -246 -4 -22 -1
-36 11 -48 14 -14 17 -34 15 -124 -1 -59 1 -117 5 -130 11 -34 39 -24 43 16 2
24 8 32 23 32 15 0 19 -7 19 -35 0 -37 16 -47 27 -17 3 9 12 24 19 33 10 11
11 24 5 47 -9 31 -33 171 -46 265 -6 47 -6 48 18 41 24 -5 25 -4 25 40 -1 37
-6 49 -26 62 -18 12 -21 19 -13 27 26 26 0 89 -38 92 -11 1 -31 -6 -46 -14z"/>
</g>
</svg>
