<?xml version="1.0" standalone="no"?>
<!DOCTYPE svg PUBLIC "-//W3C//DTD SVG 20010904//EN"
 "http://www.w3.org/TR/2001/REC-SVG-20010904/DTD/svg10.dtd">
<svg version="1.0" xmlns="http://www.w3.org/2000/svg"
 width="96.000000pt" height="84.000000pt" viewBox="0 0 96.000000 84.000000"
 preserveAspectRatio="xMidYMid meet">
<metadata>
Created by potrace 1.16, written by Peter Selinger 2001-2019
</metadata>
<g transform="translate(0.000000,84.000000) scale(0.100000,-0.100000)"
fill="#000000" stroke="none">
<path d="M190 650 c-66 -18 -70 -21 -64 -49 4 -14 11 -34 16 -44 6 -12 4 -34
-5 -65 -19 -58 -28 -98 -33 -136 -2 -16 -6 -31 -9 -34 -7 -7 14 -42 26 -42 6
0 7 5 4 10 -3 6 -1 10 6 10 9 0 10 -33 5 -135 -6 -114 -5 -137 7 -150 24 -24
47 -19 47 10 0 19 5 25 21 25 17 0 20 -5 17 -25 -4 -19 -1 -25 13 -25 11 0 19
5 19 11 0 7 7 17 15 23 12 10 12 26 -5 126 -41 258 -41 255 2 251 27 -3 19 82
-11 106 -19 15 -21 22 -12 45 8 20 6 34 -5 57 -19 37 -22 39 -54 31z"/>
</g>
</svg>
