<?xml version="1.0" standalone="no"?>
<!DOCTYPE svg PUBLIC "-//W3C//DTD SVG 20010904//EN"
 "http://www.w3.org/TR/2001/REC-SVG-20010904/DTD/svg10.dtd">
<svg version="1.0" xmlns="http://www.w3.org/2000/svg"
 width="96.000000pt" height="84.000000pt" viewBox="0 0 96.000000 84.000000"
 preserveAspectRatio="xMidYMid meet">
<metadata>
Created by potrace 1.16, written by Peter Selinger 2001-2019
</metadata>
<g transform="translate(0.000000,84.000000) scale(0.100000,-0.100000)"
fill="#000000" stroke="none">
<path d="M196 693 c-50 -8 -73 -29 -68 -63 2 -17 8 -30 13 -30 12 0 11 -36 -1
-74 -23 -71 -49 -198 -44 -211 7 -18 30 -20 38 -2 3 6 3 -59 0 -146 -5 -128
-4 -157 7 -157 8 0 24 -3 37 -6 19 -5 22 -2 22 21 0 32 23 29 28 -3 4 -25 20
-28 47 -8 18 13 18 18 2 167 -32 291 -31 262 -8 254 24 -7 41 19 23 37 -8 8
-8 17 0 31 9 18 6 24 -18 43 -26 21 -27 25 -15 48 12 21 11 31 -1 62 -17 41
-19 43 -62 37z"/>
</g>
</svg>
