<?xml version="1.0" standalone="no"?>
<!DOCTYPE svg PUBLIC "-//W3C//DTD SVG 20010904//EN"
 "http://www.w3.org/TR/2001/REC-SVG-20010904/DTD/svg10.dtd">
<svg version="1.0" xmlns="http://www.w3.org/2000/svg"
 width="96.000000pt" height="84.000000pt" viewBox="0 0 96.000000 84.000000"
 preserveAspectRatio="xMidYMid meet">
<metadata>
Created by potrace 1.16, written by Peter Selinger 2001-2019
</metadata>
<g transform="translate(0.000000,84.000000) scale(0.100000,-0.100000)"
fill="#000000" stroke="none">
<path d="M240 714 c0 -6 -12 -9 -29 -6 -16 2 -32 -1 -35 -7 -4 -6 -16 -11 -26
-11 -17 0 -19 -5 -13 -32 3 -18 10 -39 16 -45 5 -7 6 -30 3 -50 -4 -21 -10
-60 -13 -88 -3 -31 -14 -62 -30 -83 -23 -31 -24 -34 -9 -57 9 -14 23 -25 32
-25 13 0 14 -19 8 -155 l-7 -155 37 0 c20 0 36 5 36 10 0 6 7 10 15 10 8 0 15
-4 15 -10 0 -5 16 -10 35 -10 42 0 41 -4 21 180 -31 269 -30 263 -7 255 25 -8
37 14 23 42 -7 12 -7 25 -1 36 8 13 4 23 -18 42 l-28 24 18 32 c16 29 16 34 3
41 -9 5 -16 15 -16 22 0 15 -29 55 -30 40z"/>
</g>
</svg>
