<?xml version="1.0" standalone="no"?>
<!DOCTYPE svg PUBLIC "-//W3C//DTD SVG 20010904//EN"
 "http://www.w3.org/TR/2001/REC-SVG-20010904/DTD/svg10.dtd">
<svg version="1.0" xmlns="http://www.w3.org/2000/svg"
 width="96.000000pt" height="84.000000pt" viewBox="0 0 96.000000 84.000000"
 preserveAspectRatio="xMidYMid meet">
<metadata>
Created by potrace 1.16, written by Peter Selinger 2001-2019
</metadata>
<g transform="translate(0.000000,84.000000) scale(0.100000,-0.100000)"
fill="#000000" stroke="none">
<path d="M255 740 c4 -6 -6 -10 -23 -10 -16 0 -35 -7 -42 -15 -6 -8 -17 -13
-23 -12 -17 3 -9 -54 10 -75 13 -15 13 -23 -2 -75 -10 -32 -17 -69 -17 -83 0
-14 -11 -45 -25 -69 -21 -36 -23 -47 -14 -67 11 -24 51 -34 51 -12 0 6 2 9 5
7 2 -3 -2 -59 -10 -124 -8 -66 -15 -139 -15 -161 l0 -42 99 0 c86 0 98 2 95
17 -4 14 -44 405 -44 422 0 4 9 5 20 2 24 -6 38 21 20 41 -9 11 -9 20 0 37 11
19 9 25 -19 46 -30 24 -30 25 -16 58 13 32 12 38 -11 80 -14 25 -30 45 -35 45
-6 0 -7 -4 -4 -10z"/>
</g>
</svg>
