<?xml version="1.0" standalone="no"?>
<!DOCTYPE svg PUBLIC "-//W3C//DTD SVG 20010904//EN"
 "http://www.w3.org/TR/2001/REC-SVG-20010904/DTD/svg10.dtd">
<svg version="1.0" xmlns="http://www.w3.org/2000/svg"
 width="96.000000pt" height="84.000000pt" viewBox="0 0 96.000000 84.000000"
 preserveAspectRatio="xMidYMid meet">
<metadata>
Created by potrace 1.16, written by Peter Selinger 2001-2019
</metadata>
<g transform="translate(0.000000,84.000000) scale(0.100000,-0.100000)"
fill="#000000" stroke="none">
<path d="M265 760 c3 -6 -5 -10 -19 -10 -15 0 -31 -8 -38 -20 -7 -11 -21 -20
-30 -20 -10 0 -18 -4 -18 -10 0 -5 4 -10 9 -10 5 0 7 -9 4 -20 -3 -12 1 -22
11 -26 17 -7 23 -78 7 -88 -4 -3 -11 -29 -14 -58 -3 -30 -15 -75 -28 -100 -19
-40 -21 -51 -11 -73 13 -29 24 -31 46 -9 19 19 19 19 1 -86 -8 -47 -18 -118
-23 -158 l-8 -72 108 0 108 0 -5 28 c-3 15 -12 108 -20 207 -9 99 -18 188 -21
197 -4 12 0 15 14 11 23 -6 38 23 22 42 -7 9 -7 21 1 39 11 23 9 28 -16 47
-25 20 -27 27 -22 73 3 40 0 57 -17 83 -18 28 -58 60 -41 33z"/>
</g>
</svg>
