<?xml version="1.0" standalone="no"?>
<!DOCTYPE svg PUBLIC "-//W3C//DTD SVG 20010904//EN"
 "http://www.w3.org/TR/2001/REC-SVG-20010904/DTD/svg10.dtd">
<svg version="1.0" xmlns="http://www.w3.org/2000/svg"
 width="96.000000pt" height="84.000000pt" viewBox="0 0 96.000000 84.000000"
 preserveAspectRatio="xMidYMid meet">
<metadata>
Created by potrace 1.16, written by Peter Selinger 2001-2019
</metadata>
<g transform="translate(0.000000,84.000000) scale(0.100000,-0.100000)"
fill="#000000" stroke="none">
<path d="M274 763 c5 -9 -1 -13 -18 -13 -14 0 -31 -8 -38 -18 -7 -10 -21 -21
-32 -25 -14 -6 -16 -10 -7 -21 6 -7 7 -16 3 -20 -4 -4 2 -14 12 -21 16 -12 18
-22 12 -62 -4 -26 -9 -69 -12 -95 -2 -25 -13 -67 -24 -92 -13 -30 -17 -57 -13
-77 5 -26 9 -30 29 -25 29 8 29 9 5 -112 -10 -54 -22 -116 -25 -139 l-6 -43
113 0 113 0 -12 128 c-16 164 -17 299 -3 308 6 3 9 19 5 35 -3 16 -1 40 6 54
9 21 7 27 -20 50 -28 24 -30 30 -27 79 3 51 1 56 -33 88 -19 18 -32 27 -28 21z"/>
</g>
</svg>
