<?xml version="1.0" standalone="no"?>
<!DOCTYPE svg PUBLIC "-//W3C//DTD SVG 20010904//EN"
 "http://www.w3.org/TR/2001/REC-SVG-20010904/DTD/svg10.dtd">
<svg version="1.0" xmlns="http://www.w3.org/2000/svg"
 width="96.000000pt" height="84.000000pt" viewBox="0 0 96.000000 84.000000"
 preserveAspectRatio="xMidYMid meet">
<metadata>
Created by potrace 1.16, written by Peter Selinger 2001-2019
</metadata>
<g transform="translate(0.000000,84.000000) scale(0.100000,-0.100000)"
fill="#000000" stroke="none">
<path d="M322 833 l27 -4 -25 -39 c-29 -43 -26 -70 6 -70 18 0 20 -7 22 -62 1
-35 2 -79 3 -98 1 -26 -6 -43 -27 -66 -25 -26 -48 -101 -48 -156 0 -5 -11 -8
-25 -8 -29 0 -28 0 -15 -36 12 -31 -7 -109 -52 -216 -15 -37 -28 -69 -28 -72
0 -4 94 -6 210 -6 l209 0 -5 78 c-3 52 0 93 10 127 l14 50 1 -127 1 -128 83 0
82 0 -7 118 c-8 130 -26 205 -70 302 -22 46 -31 82 -32 125 -1 33 -6 76 -10
96 -6 27 -4 40 8 51 8 9 18 29 22 44 4 16 16 44 26 62 10 18 18 35 18 37 0 3
-96 4 -212 4 -117 -1 -201 -4 -186 -6z"/>
</g>
</svg>
