<?xml version="1.0" standalone="no"?>
<!DOCTYPE svg PUBLIC "-//W3C//DTD SVG 20010904//EN"
 "http://www.w3.org/TR/2001/REC-SVG-20010904/DTD/svg10.dtd">
<svg version="1.0" xmlns="http://www.w3.org/2000/svg"
 width="96.000000pt" height="84.000000pt" viewBox="0 0 96.000000 84.000000"
 preserveAspectRatio="xMidYMid meet">
<metadata>
Created by potrace 1.16, written by Peter Selinger 2001-2019
</metadata>
<g transform="translate(0.000000,84.000000) scale(0.100000,-0.100000)"
fill="#000000" stroke="none">
<path d="M285 760 c3 -5 -5 -12 -19 -16 -14 -3 -28 -15 -31 -25 -4 -10 -13
-19 -21 -19 -19 0 -18 -44 2 -61 14 -11 15 -25 9 -79 -4 -36 -8 -83 -10 -106
-1 -22 -10 -54 -19 -72 -9 -17 -16 -42 -16 -55 0 -27 23 -52 40 -42 14 9 13
-17 -6 -89 -9 -33 -22 -91 -29 -128 l-13 -68 114 0 c102 0 114 2 114 18 0 9
-5 98 -11 198 -10 157 -9 184 4 210 11 21 12 35 5 47 -7 13 -5 25 6 42 16 24
15 26 -14 52 -27 25 -31 35 -31 83 -1 47 -5 60 -32 88 -29 30 -56 44 -42 22z"/>
</g>
</svg>
