<?xml version="1.0" standalone="no"?>
<!DOCTYPE svg PUBLIC "-//W3C//DTD SVG 20010904//EN"
 "http://www.w3.org/TR/2001/REC-SVG-20010904/DTD/svg10.dtd">
<svg version="1.0" xmlns="http://www.w3.org/2000/svg"
 width="96.000000pt" height="84.000000pt" viewBox="0 0 96.000000 84.000000"
 preserveAspectRatio="xMidYMid meet">
<metadata>
Created by potrace 1.16, written by Peter Selinger 2001-2019
</metadata>
<g transform="translate(0.000000,84.000000) scale(0.100000,-0.100000)"
fill="#000000" stroke="none">
<path d="M315 760 c3 -5 -2 -10 -13 -10 -26 0 -77 -60 -73 -85 1 -11 10 -28
18 -37 12 -14 14 -28 8 -65 -4 -27 -9 -69 -10 -94 -2 -25 -13 -65 -24 -88 -19
-37 -20 -45 -8 -69 7 -15 20 -26 30 -26 22 2 22 6 -13 -127 -45 -171 -51 -159
80 -159 l110 0 -1 68 c-1 37 -4 125 -8 197 -6 100 -4 137 6 159 7 16 11 38 8
47 -3 10 1 31 9 47 14 27 14 29 -20 56 -33 26 -35 31 -33 78 2 41 -2 55 -24
84 -25 30 -58 49 -42 24z"/>
</g>
</svg>
