<?xml version="1.0" standalone="no"?>
<!DOCTYPE svg PUBLIC "-//W3C//DTD SVG 20010904//EN"
 "http://www.w3.org/TR/2001/REC-SVG-20010904/DTD/svg10.dtd">
<svg version="1.0" xmlns="http://www.w3.org/2000/svg"
 width="96.000000pt" height="84.000000pt" viewBox="0 0 96.000000 84.000000"
 preserveAspectRatio="xMidYMid meet">
<metadata>
Created by potrace 1.16, written by Peter Selinger 2001-2019
</metadata>
<g transform="translate(0.000000,84.000000) scale(0.100000,-0.100000)"
fill="#000000" stroke="none">
<path d="M345 770 c3 -5 -1 -10 -10 -10 -22 0 -80 -58 -81 -83 -1 -12 7 -32
18 -44 17 -18 20 -30 13 -65 -4 -24 -10 -68 -14 -99 -3 -30 -15 -68 -25 -83
-26 -41 -15 -96 20 -96 20 0 24 -4 20 -17 -10 -33 -44 -188 -51 -230 l-7 -43
112 0 112 0 -9 153 c-12 227 -6 316 25 374 11 19 8 25 -24 51 -34 28 -36 33
-32 78 3 42 -1 54 -27 86 -27 34 -56 54 -40 28z"/>
</g>
</svg>
