<?xml version="1.0" standalone="no"?>
<!DOCTYPE svg PUBLIC "-//W3C//DTD SVG 20010904//EN"
 "http://www.w3.org/TR/2001/REC-SVG-20010904/DTD/svg10.dtd">
<svg version="1.0" xmlns="http://www.w3.org/2000/svg"
 width="96.000000pt" height="84.000000pt" viewBox="0 0 96.000000 84.000000"
 preserveAspectRatio="xMidYMid meet">
<metadata>
Created by potrace 1.16, written by Peter Selinger 2001-2019
</metadata>
<g transform="translate(0.000000,84.000000) scale(0.100000,-0.100000)"
fill="#000000" stroke="none">
<path d="M376 775 c4 -9 -4 -15 -23 -17 -17 -2 -32 -11 -38 -25 -5 -13 -19
-23 -30 -23 -19 -1 -19 -2 -3 -14 12 -9 14 -16 7 -23 -8 -8 -4 -15 11 -26 20
-14 22 -21 16 -69 -3 -29 -8 -71 -11 -93 -3 -22 -16 -61 -30 -87 -31 -57 -22
-98 21 -98 23 0 25 -3 20 -28 -17 -78 -36 -201 -36 -234 l0 -38 101 0 102 0
-7 148 c-4 81 -9 172 -10 202 -2 53 14 131 37 178 10 21 8 27 -23 52 -32 26
-35 33 -35 83 0 42 -5 62 -23 85 -26 33 -55 50 -46 27z"/>
</g>
</svg>
