<?xml version="1.0" standalone="no"?>
<!DOCTYPE svg PUBLIC "-//W3C//DTD SVG 20010904//EN"
 "http://www.w3.org/TR/2001/REC-SVG-20010904/DTD/svg10.dtd">
<svg version="1.0" xmlns="http://www.w3.org/2000/svg"
 width="96.000000pt" height="84.000000pt" viewBox="0 0 96.000000 84.000000"
 preserveAspectRatio="xMidYMid meet">
<metadata>
Created by potrace 1.16, written by Peter Selinger 2001-2019
</metadata>
<g transform="translate(0.000000,84.000000) scale(0.100000,-0.100000)"
fill="#000000" stroke="none">
<path d="M415 780 c3 -5 -7 -13 -22 -16 -32 -8 -94 -65 -77 -71 7 -2 10 -12 7
-23 -3 -12 3 -22 17 -30 24 -13 24 -12 2 -141 -6 -31 -22 -75 -38 -99 -26 -39
-27 -44 -13 -68 10 -17 23 -27 37 -26 26 1 26 1 7 -131 -8 -55 -15 -117 -15
-137 l0 -38 95 0 94 0 -2 223 c-2 208 -1 225 20 274 l21 53 -35 29 c-33 27
-35 32 -32 82 3 45 -1 60 -20 86 -22 29 -61 57 -46 33z"/>
</g>
</svg>
