<?xml version="1.0" standalone="no"?>
<!DOCTYPE svg PUBLIC "-//W3C//DTD SVG 20010904//EN"
 "http://www.w3.org/TR/2001/REC-SVG-20010904/DTD/svg10.dtd">
<svg version="1.0" xmlns="http://www.w3.org/2000/svg"
 width="96.000000pt" height="84.000000pt" viewBox="0 0 96.000000 84.000000"
 preserveAspectRatio="xMidYMid meet">
<metadata>
Created by potrace 1.16, written by Peter Selinger 2001-2019
</metadata>
<g transform="translate(0.000000,84.000000) scale(0.100000,-0.100000)"
fill="#000000" stroke="none">
<path d="M455 760 c4 -6 -6 -10 -22 -10 -30 -1 -106 -59 -87 -67 7 -2 10 -12
7 -23 -3 -12 3 -22 17 -30 18 -10 21 -18 16 -48 -3 -21 -9 -65 -14 -99 -4 -34
-15 -70 -25 -81 -23 -26 -21 -67 5 -92 21 -19 21 -23 10 -108 -7 -48 -15 -113
-18 -145 l-7 -57 103 0 102 0 -6 42 c-13 97 -17 236 -8 283 6 28 7 56 2 66 -5
9 -5 20 0 25 5 5 19 36 29 69 22 66 24 59 -32 100 -20 14 -23 34 -12 88 4 21
3 37 -2 37 -5 0 -17 14 -26 30 -10 17 -23 30 -28 30 -6 0 -7 -4 -4 -10z"/>
</g>
</svg>
