<?xml version="1.0" standalone="no"?>
<!DOCTYPE svg PUBLIC "-//W3C//DTD SVG 20010904//EN"
 "http://www.w3.org/TR/2001/REC-SVG-20010904/DTD/svg10.dtd">
<svg version="1.0" xmlns="http://www.w3.org/2000/svg"
 width="96.000000pt" height="84.000000pt" viewBox="0 0 96.000000 84.000000"
 preserveAspectRatio="xMidYMid meet">
<metadata>
Created by potrace 1.16, written by Peter Selinger 2001-2019
</metadata>
<g transform="translate(0.000000,84.000000) scale(0.100000,-0.100000)"
fill="#000000" stroke="none">
<path d="M480 771 c0 -6 -11 -11 -24 -11 -14 0 -37 -11 -51 -24 -15 -14 -32
-27 -38 -30 -9 -5 -9 -8 1 -12 6 -3 12 -16 12 -28 0 -12 5 -27 10 -32 6 -6 10
-24 9 -40 0 -16 0 -60 0 -99 1 -38 -6 -133 -15 -210 -8 -77 -19 -173 -23 -212
l-7 -73 108 0 109 0 -5 33 c-35 211 -45 357 -26 357 5 0 7 6 4 14 -3 7 1 16 9
19 8 3 18 25 22 49 4 24 12 49 18 56 12 16 -40 75 -60 68 -19 -8 -16 27 5 64
16 28 16 32 1 43 -9 7 -19 22 -23 34 -8 25 -36 52 -36 34z"/>
</g>
</svg>
