<?xml version="1.0" standalone="no"?>
<!DOCTYPE svg PUBLIC "-//W3C//DTD SVG 20010904//EN"
 "http://www.w3.org/TR/2001/REC-SVG-20010904/DTD/svg10.dtd">
<svg version="1.0" xmlns="http://www.w3.org/2000/svg"
 width="96.000000pt" height="84.000000pt" viewBox="0 0 96.000000 84.000000"
 preserveAspectRatio="xMidYMid meet">
<metadata>
Created by potrace 1.16, written by Peter Selinger 2001-2019
</metadata>
<g transform="translate(0.000000,84.000000) scale(0.100000,-0.100000)"
fill="#000000" stroke="none">
<path d="M544 752 c2 -4 -13 -6 -34 -4 -21 2 -41 -1 -44 -7 -4 -6 -15 -11 -25
-11 -19 0 -21 -35 -6 -93 4 -16 2 -77 -5 -135 -7 -59 -13 -116 -12 -127 1 -23
-16 -245 -24 -322 l-5 -53 115 0 c64 0 116 3 116 8 0 4 -14 68 -30 142 -37
168 -37 181 -1 215 24 23 29 36 30 82 0 30 6 63 12 75 9 16 7 24 -12 44 -12
13 -31 24 -41 24 -24 0 -23 22 2 45 24 21 25 38 5 55 -8 6 -14 15 -13 18 4 14
-14 52 -23 52 -6 0 -8 -3 -5 -8z"/>
</g>
</svg>
