<?xml version="1.0" standalone="no"?>
<!DOCTYPE svg PUBLIC "-//W3C//DTD SVG 20010904//EN"
 "http://www.w3.org/TR/2001/REC-SVG-20010904/DTD/svg10.dtd">
<svg version="1.0" xmlns="http://www.w3.org/2000/svg"
 width="96.000000pt" height="84.000000pt" viewBox="0 0 96.000000 84.000000"
 preserveAspectRatio="xMidYMid meet">
<metadata>
Created by potrace 1.16, written by Peter Selinger 2001-2019
</metadata>
<g transform="translate(0.000000,84.000000) scale(0.100000,-0.100000)"
fill="#000000" stroke="none">
<path d="M274 824 c3 -9 6 -20 6 -25 0 -5 11 -9 25 -9 30 0 30 0 4 -45 -22
-37 -20 -65 6 -65 12 0 15 -15 15 -84 0 -47 4 -88 10 -91 5 -3 -4 -18 -21 -33
-23 -21 -32 -41 -40 -89 -10 -56 -14 -63 -34 -63 -21 0 -23 -3 -15 -30 9 -33
-12 -108 -64 -224 -14 -32 -26 -60 -26 -62 0 -2 92 -4 205 -4 l205 0 1 88 c1
101 5 98 14 -10 l7 -78 89 0 c49 0 89 3 89 8 0 4 -5 47 -10 97 -13 121 -32
191 -81 288 -37 74 -41 89 -43 169 -2 65 0 91 10 99 8 6 14 24 14 40 0 15 4
30 9 33 9 6 51 87 51 99 0 4 -97 7 -216 7 -193 0 -215 -2 -210 -16z m415 -694
c0 -9 -6 -5 -14 10 -8 14 -14 43 -14 65 l1 40 14 -50 c7 -27 14 -57 13 -65z"/>
</g>
</svg>
