<?xml version="1.0" standalone="no"?>
<!DOCTYPE svg PUBLIC "-//W3C//DTD SVG 20010904//EN"
 "http://www.w3.org/TR/2001/REC-SVG-20010904/DTD/svg10.dtd">
<svg version="1.0" xmlns="http://www.w3.org/2000/svg"
 width="96.000000pt" height="84.000000pt" viewBox="0 0 96.000000 84.000000"
 preserveAspectRatio="xMidYMid meet">
<metadata>
Created by potrace 1.16, written by Peter Selinger 2001-2019
</metadata>
<g transform="translate(0.000000,84.000000) scale(0.100000,-0.100000)"
fill="#000000" stroke="none">
<path d="M576 751 c5 -11 1 -12 -19 -7 -17 4 -39 -1 -66 -15 -33 -17 -39 -24
-31 -38 8 -16 6 -207 -3 -301 -2 -19 -7 -98 -11 -175 -4 -77 -9 -157 -12 -177
l-6 -38 116 0 116 0 -6 28 c-3 15 -17 70 -30 123 -29 117 -41 209 -27 209 6 0
8 12 5 26 -5 26 -5 26 22 9 25 -16 26 -16 33 1 4 11 15 25 25 32 10 7 18 22
18 33 0 14 -7 19 -28 19 -37 0 -43 7 -30 36 10 21 7 29 -20 57 l-32 33 22 22
c19 19 21 25 10 42 -6 11 -12 26 -12 34 0 7 -9 24 -21 37 -11 13 -17 18 -13
10z"/>
</g>
</svg>
