<?xml version="1.0" standalone="no"?>
<!DOCTYPE svg PUBLIC "-//W3C//DTD SVG 20010904//EN"
 "http://www.w3.org/TR/2001/REC-SVG-20010904/DTD/svg10.dtd">
<svg version="1.0" xmlns="http://www.w3.org/2000/svg"
 width="96.000000pt" height="84.000000pt" viewBox="0 0 96.000000 84.000000"
 preserveAspectRatio="xMidYMid meet">
<metadata>
Created by potrace 1.16, written by Peter Selinger 2001-2019
</metadata>
<g transform="translate(0.000000,84.000000) scale(0.100000,-0.100000)"
fill="#000000" stroke="none">
<path d="M580 765 c0 -6 -14 -9 -33 -7 -22 2 -38 -2 -46 -12 -8 -9 -22 -16
-33 -16 -12 0 -17 -4 -12 -12 4 -7 9 -45 11 -85 3 -58 1 -77 -12 -90 -16 -15
-13 -64 3 -70 8 -3 6 -211 -3 -365 l-6 -108 105 0 106 0 -5 28 c-38 222 -49
323 -36 332 9 5 9 14 2 33 -10 25 -9 27 13 21 29 -7 40 16 25 50 -8 17 -8 30
1 47 12 21 9 26 -25 57 l-37 34 21 29 c25 34 26 42 6 59 -8 7 -15 20 -15 29 0
19 -29 63 -30 46z"/>
</g>
</svg>
