<?xml version="1.0" standalone="no"?>
<!DOCTYPE svg PUBLIC "-//W3C//DTD SVG 20010904//EN"
 "http://www.w3.org/TR/2001/REC-SVG-20010904/DTD/svg10.dtd">
<svg version="1.0" xmlns="http://www.w3.org/2000/svg"
 width="96.000000pt" height="84.000000pt" viewBox="0 0 96.000000 84.000000"
 preserveAspectRatio="xMidYMid meet">
<metadata>
Created by potrace 1.16, written by Peter Selinger 2001-2019
</metadata>
<g transform="translate(0.000000,84.000000) scale(0.100000,-0.100000)"
fill="#000000" stroke="none">
<path d="M573 760 c4 -13 -2 -15 -29 -12 -20 3 -41 -2 -51 -9 -9 -8 -24 -13
-35 -11 -19 3 -25 -13 -8 -23 6 -4 7 -13 1 -23 -6 -11 -4 -29 5 -52 18 -42 12
-60 -20 -60 -17 0 -32 -9 -43 -26 -16 -26 -16 -27 5 -44 12 -10 22 -23 22 -28
0 -6 8 -13 18 -16 15 -5 17 -25 17 -231 l0 -225 101 0 101 0 -14 92 c-7 51
-15 129 -18 172 -3 44 -8 95 -11 113 -6 33 -5 34 20 27 32 -8 44 15 27 52 -9
20 -8 30 4 47 14 19 13 23 -12 49 -15 15 -33 28 -40 28 -19 0 -16 18 8 51 19
28 20 31 5 48 -9 10 -16 24 -16 32 0 8 -10 25 -21 39 -12 14 -19 18 -16 10z"/>
</g>
</svg>
