<?xml version="1.0" standalone="no"?>
<!DOCTYPE svg PUBLIC "-//W3C//DTD SVG 20010904//EN"
 "http://www.w3.org/TR/2001/REC-SVG-20010904/DTD/svg10.dtd">
<svg version="1.0" xmlns="http://www.w3.org/2000/svg"
 width="96.000000pt" height="84.000000pt" viewBox="0 0 96.000000 84.000000"
 preserveAspectRatio="xMidYMid meet">
<metadata>
Created by potrace 1.16, written by Peter Selinger 2001-2019
</metadata>
<g transform="translate(0.000000,84.000000) scale(0.100000,-0.100000)"
fill="#000000" stroke="none">
<path d="M574 762 c6 -10 1 -11 -19 -6 -19 5 -35 1 -55 -15 -16 -11 -39 -21
-51 -21 -18 0 -19 -2 -9 -15 7 -8 10 -25 7 -37 -3 -13 1 -32 9 -42 17 -24 19
-76 2 -76 -6 0 -20 7 -30 16 -16 15 -22 15 -54 3 -51 -19 -69 -48 -48 -77 11
-16 26 -22 52 -22 21 -1 47 -9 59 -19 21 -17 22 -25 17 -78 -4 -32 -2 -97 4
-143 6 -48 8 -117 4 -158 l-8 -72 109 0 109 0 -6 28 c-3 15 -13 83 -21 152 -8
69 -18 147 -21 173 -6 47 -6 49 15 37 12 -6 26 -8 31 -5 12 8 13 45 1 64 -6
10 -5 24 4 41 13 25 12 29 -18 59 -18 17 -38 31 -45 31 -17 0 -15 15 3 30 8 7
15 18 15 25 0 8 5 15 11 17 6 2 2 14 -10 30 -12 14 -21 33 -21 41 0 7 -10 22
-22 33 -12 10 -18 13 -14 6z"/>
</g>
</svg>
