<?xml version="1.0" standalone="no"?>
<!DOCTYPE svg PUBLIC "-//W3C//DTD SVG 20010904//EN"
 "http://www.w3.org/TR/2001/REC-SVG-20010904/DTD/svg10.dtd">
<svg version="1.0" xmlns="http://www.w3.org/2000/svg"
 width="96.000000pt" height="84.000000pt" viewBox="0 0 96.000000 84.000000"
 preserveAspectRatio="xMidYMid meet">
<metadata>
Created by potrace 1.16, written by Peter Selinger 2001-2019
</metadata>
<g transform="translate(0.000000,84.000000) scale(0.100000,-0.100000)"
fill="#000000" stroke="none">
<path d="M577 779 c10 -13 7 -14 -20 -11 -24 3 -38 -2 -56 -22 -14 -14 -33
-26 -43 -26 -10 0 -18 -4 -18 -10 0 -5 5 -10 10 -10 6 0 8 -11 4 -25 -4 -16
-1 -32 8 -43 9 -9 18 -31 21 -47 5 -28 3 -31 -31 -42 -32 -10 -40 -9 -58 8
-11 10 -27 19 -36 19 -19 0 -78 -64 -78 -85 0 -47 20 -53 105 -31 47 12 50 12
67 -10 23 -29 23 -49 -3 -93 -11 -20 -14 -27 -5 -17 11 14 19 17 27 9 13 -13
13 -173 0 -242 -22 -106 -27 -101 99 -101 l110 0 0 28 c0 15 -9 99 -20 187
-11 88 -20 161 -20 163 0 2 6 2 13 1 36 -4 39 1 33 46 -5 32 -3 50 9 68 15 24
15 26 -22 56 -21 17 -41 31 -45 31 -12 0 -10 38 3 45 5 4 15 18 20 32 8 21 6
30 -10 47 -10 12 -22 31 -26 44 -3 12 -16 27 -28 34 -19 10 -20 9 -10 -3z"/>
</g>
</svg>
