<?xml version="1.0" standalone="no"?>
<!DOCTYPE svg PUBLIC "-//W3C//DTD SVG 20010904//EN"
 "http://www.w3.org/TR/2001/REC-SVG-20010904/DTD/svg10.dtd">
<svg version="1.0" xmlns="http://www.w3.org/2000/svg"
 width="96.000000pt" height="84.000000pt" viewBox="0 0 96.000000 84.000000"
 preserveAspectRatio="xMidYMid meet">
<metadata>
Created by potrace 1.16, written by Peter Selinger 2001-2019
</metadata>
<g transform="translate(0.000000,84.000000) scale(0.100000,-0.100000)"
fill="#000000" stroke="none">
<path d="M580 780 c11 -7 7 -10 -18 -10 -22 0 -42 -9 -60 -27 -15 -15 -33 -28
-40 -29 -20 -3 -29 -16 -16 -21 7 -2 10 -13 7 -24 -3 -12 2 -29 14 -42 42 -46
38 -67 -18 -90 -34 -14 -39 -13 -82 8 -26 12 -49 19 -52 16 -14 -13 -45 -96
-45 -118 0 -31 20 -38 61 -20 19 8 55 17 80 21 59 9 85 -15 75 -67 -5 -26 -3
-36 8 -40 18 -7 14 -56 -15 -212 -10 -55 -19 -106 -19 -112 0 -10 30 -13 116
-13 l116 0 -7 92 c-4 51 -13 129 -20 173 -13 84 -12 95 10 95 18 0 28 32 20
63 -4 15 0 37 9 55 15 30 15 30 -25 67 -38 34 -41 40 -34 74 4 20 7 44 6 54 0
9 4 17 10 17 17 0 9 19 -10 25 -11 3 -23 15 -26 25 -8 25 -33 50 -48 50 -7 0
-6 -4 3 -10z"/>
<path d="M666 335 c4 -8 11 -15 16 -15 6 0 5 6 -2 15 -7 8 -14 15 -16 15 -2 0
-1 -7 2 -15z"/>
<path d="M466 313 c-6 -14 -5 -15 5 -6 7 7 10 15 7 18 -3 3 -9 -2 -12 -12z"/>
</g>
</svg>
