<?xml version="1.0" standalone="no"?>
<!DOCTYPE svg PUBLIC "-//W3C//DTD SVG 20010904//EN"
 "http://www.w3.org/TR/2001/REC-SVG-20010904/DTD/svg10.dtd">
<svg version="1.0" xmlns="http://www.w3.org/2000/svg"
 width="96.000000pt" height="84.000000pt" viewBox="0 0 96.000000 84.000000"
 preserveAspectRatio="xMidYMid meet">
<metadata>
Created by potrace 1.16, written by Peter Selinger 2001-2019
</metadata>
<g transform="translate(0.000000,84.000000) scale(0.100000,-0.100000)"
fill="#000000" stroke="none">
<path d="M580 775 c11 -13 8 -15 -20 -15 -23 0 -39 -8 -58 -30 -15 -16 -32
-30 -39 -30 -21 0 -9 -67 16 -94 30 -32 21 -58 -29 -81 -40 -18 -41 -18 -89 5
-49 23 -87 21 -78 -3 3 -7 -1 -24 -9 -38 -7 -13 -13 -39 -14 -58 0 -33 1 -33
33 -27 17 4 55 11 82 15 28 5 58 12 67 16 24 10 42 -37 34 -87 -6 -33 -4 -38
14 -38 16 0 20 -7 20 -36 0 -32 -32 -209 -46 -256 -5 -16 5 -18 115 -18 l121
0 -6 77 c-7 94 -29 242 -38 264 -6 13 -2 16 18 12 28 -6 30 -1 26 64 -1 17 6
43 16 58 17 26 17 26 -17 55 -19 16 -38 29 -42 30 -10 0 -5 120 6 120 13 0 8
30 -5 30 -7 1 -25 19 -40 40 -15 22 -33 40 -39 40 -8 0 -8 -4 1 -15z"/>
<path d="M471 284 c0 -11 3 -14 6 -6 3 7 2 16 -1 19 -3 4 -6 -2 -5 -13z"/>
</g>
</svg>
