<?xml version="1.0" standalone="no"?>
<!DOCTYPE svg PUBLIC "-//W3C//DTD SVG 20010904//EN"
 "http://www.w3.org/TR/2001/REC-SVG-20010904/DTD/svg10.dtd">
<svg version="1.0" xmlns="http://www.w3.org/2000/svg"
 width="96.000000pt" height="84.000000pt" viewBox="0 0 96.000000 84.000000"
 preserveAspectRatio="xMidYMid meet">
<metadata>
Created by potrace 1.16, written by Peter Selinger 2001-2019
</metadata>
<g transform="translate(0.000000,84.000000) scale(0.100000,-0.100000)"
fill="#000000" stroke="none">
<path d="M588 771 c10 -6 3 -10 -22 -15 -23 -4 -42 -17 -56 -36 -12 -17 -27
-30 -35 -30 -21 0 -17 -69 6 -83 11 -7 19 -23 19 -39 0 -22 -8 -32 -42 -49
-42 -21 -42 -21 -97 -3 -83 27 -106 25 -108 -11 -1 -17 -5 -49 -9 -72 -7 -47
-6 -48 46 -33 19 5 58 11 85 14 28 2 57 7 66 10 13 6 18 -1 23 -33 3 -22 2
-51 -4 -66 -13 -34 -13 -32 9 -38 23 -6 31 9 24 44 -3 16 1 30 11 38 20 16 19
21 6 -119 -6 -58 -19 -138 -29 -178 l-19 -72 120 0 120 0 -7 98 c-4 53 -13
128 -21 165 -17 83 -17 80 0 74 24 -9 39 19 32 61 -4 26 -1 45 9 58 22 30 18
47 -20 77 -34 27 -36 31 -33 83 2 30 6 54 11 54 4 0 7 7 7 15 0 8 -4 15 -10
15 -5 0 -21 18 -35 40 -14 22 -33 40 -43 40 -13 0 -14 -2 -4 -9z"/>
</g>
</svg>
