<?xml version="1.0" standalone="no"?>
<!DOCTYPE svg PUBLIC "-//W3C//DTD SVG 20010904//EN"
 "http://www.w3.org/TR/2001/REC-SVG-20010904/DTD/svg10.dtd">
<svg version="1.0" xmlns="http://www.w3.org/2000/svg"
 width="96.000000pt" height="84.000000pt" viewBox="0 0 96.000000 84.000000"
 preserveAspectRatio="xMidYMid meet">
<metadata>
Created by potrace 1.16, written by Peter Selinger 2001-2019
</metadata>
<g transform="translate(0.000000,84.000000) scale(0.100000,-0.100000)"
fill="#000000" stroke="none">
<path d="M583 797 c4 -11 -3 -17 -29 -21 -22 -5 -40 -17 -51 -34 -10 -15 -25
-33 -35 -40 -21 -16 -18 -64 6 -91 25 -27 18 -86 -9 -87 -11 -1 -35 -9 -53
-18 -30 -15 -37 -15 -93 -1 -33 9 -82 15 -107 13 l-47 -3 22 -22 c19 -19 22
-30 16 -68 -3 -25 -2 -45 2 -45 4 0 34 7 67 16 33 8 66 13 74 10 12 -5 47 3
85 19 14 5 18 -2 21 -37 2 -24 -2 -58 -9 -76 -9 -21 -10 -32 -3 -32 6 0 8 -6
4 -12 -4 -7 3 -4 15 7 13 11 20 27 18 37 -3 9 1 25 9 35 13 16 14 7 8 -67 -6
-79 -23 -187 -39 -252 l-7 -28 121 0 122 0 -6 88 c-4 48 -10 108 -15 134 -11
55 -3 108 16 108 17 0 26 32 18 64 -4 18 1 38 16 63 l22 37 -41 36 c-41 34
-42 37 -40 92 1 31 6 62 10 69 5 8 -4 26 -22 46 -16 19 -29 38 -29 43 0 5 -10
14 -22 21 -18 9 -20 9 -15 -4z"/>
</g>
</svg>
