<?xml version="1.0" standalone="no"?>
<!DOCTYPE svg PUBLIC "-//W3C//DTD SVG 20010904//EN"
 "http://www.w3.org/TR/2001/REC-SVG-20010904/DTD/svg10.dtd">
<svg version="1.0" xmlns="http://www.w3.org/2000/svg"
 width="96.000000pt" height="84.000000pt" viewBox="0 0 96.000000 84.000000"
 preserveAspectRatio="xMidYMid meet">
<metadata>
Created by potrace 1.16, written by Peter Selinger 2001-2019
</metadata>
<g transform="translate(0.000000,84.000000) scale(0.100000,-0.100000)"
fill="#000000" stroke="none">
<path d="M272 818 c2 -15 11 -24 26 -26 27 -4 27 -11 5 -58 -16 -32 -16 -37
-2 -47 22 -17 24 -185 2 -209 -9 -10 -21 -44 -27 -75 -10 -47 -16 -59 -33 -61
-18 -3 -21 -8 -16 -36 6 -37 -18 -113 -73 -233 l-33 -73 305 0 c167 0 304 4
304 9 0 4 -7 48 -15 97 -21 120 -49 213 -94 304 -35 70 -37 80 -34 158 1 58 7
87 18 98 8 9 15 23 15 33 0 10 13 42 30 72 16 30 30 57 30 62 0 4 -93 7 -206
7 l-205 0 3 -22z m45 -630 c-3 -7 -5 -2 -5 12 0 14 2 19 5 13 2 -7 2 -19 0
-25z"/>
</g>
</svg>
