<?xml version="1.0" standalone="no"?>
<!DOCTYPE svg PUBLIC "-//W3C//DTD SVG 20010904//EN"
 "http://www.w3.org/TR/2001/REC-SVG-20010904/DTD/svg10.dtd">
<svg version="1.0" xmlns="http://www.w3.org/2000/svg"
 width="96.000000pt" height="84.000000pt" viewBox="0 0 96.000000 84.000000"
 preserveAspectRatio="xMidYMid meet">
<metadata>
Created by potrace 1.16, written by Peter Selinger 2001-2019
</metadata>
<g transform="translate(0.000000,84.000000) scale(0.100000,-0.100000)"
fill="#000000" stroke="none">
<path d="M560 821 c0 -5 6 -11 13 -14 6 -2 -7 -10 -31 -16 -35 -10 -46 -19
-58 -47 -8 -19 -21 -34 -29 -34 -23 0 -20 -66 5 -87 29 -25 25 -103 -5 -103
-7 0 -31 -8 -54 -18 -32 -15 -51 -17 -89 -11 -71 12 -132 11 -132 -2 0 -8 -5
-7 -15 1 -9 7 -18 10 -22 7 -3 -4 9 -14 26 -24 30 -17 32 -21 27 -60 -6 -46
-2 -49 40 -32 16 5 58 14 94 19 36 5 76 12 90 16 14 4 22 4 18 -1 -4 -4 0 -25
9 -46 14 -36 14 -43 -1 -80 -12 -30 -14 -45 -6 -53 8 -8 14 -7 21 4 12 18 2
-95 -16 -182 l-12 -58 124 0 125 0 -6 28 c-14 72 -10 256 5 246 8 -4 9 1 4 15
-4 15 -1 29 10 41 13 15 15 25 8 47 -8 22 -5 37 11 71 20 42 20 42 1 56 -56
40 -55 38 -57 122 0 45 2 86 6 92 4 7 -15 33 -44 62 -51 51 -60 57 -60 41z"/>
</g>
</svg>
