<?xml version="1.0" standalone="no"?>
<!DOCTYPE svg PUBLIC "-//W3C//DTD SVG 20010904//EN"
 "http://www.w3.org/TR/2001/REC-SVG-20010904/DTD/svg10.dtd">
<svg version="1.0" xmlns="http://www.w3.org/2000/svg"
 width="96.000000pt" height="84.000000pt" viewBox="0 0 96.000000 84.000000"
 preserveAspectRatio="xMidYMid meet">
<metadata>
Created by potrace 1.16, written by Peter Selinger 2001-2019
</metadata>
<g transform="translate(0.000000,84.000000) scale(0.100000,-0.100000)"
fill="#000000" stroke="none">
<path d="M548 813 c21 -8 14 -18 -22 -31 -26 -10 -38 -22 -46 -47 -8 -24 -18
-35 -31 -35 -28 0 -25 -42 6 -78 65 -78 -1 -146 -136 -141 -41 2 -64 -1 -67
-9 -2 -7 -14 -10 -30 -6 l-27 6 21 -19 c12 -10 27 -35 34 -55 13 -43 25 -46
78 -19 20 11 55 23 77 28 l41 9 1 -39 c1 -21 7 -44 12 -51 6 -7 8 -15 5 -18
-3 -3 -7 -59 -10 -124 -2 -66 -7 -134 -10 -151 l-5 -33 115 0 116 0 -7 45 c-5
37 -3 45 10 45 19 0 31 46 29 117 0 29 4 53 9 53 6 0 7 5 4 11 -4 6 -7 27 -7
47 0 20 -4 46 -9 59 -6 17 -3 32 13 59 l22 37 -31 26 c-30 25 -31 30 -38 131
l-7 105 -46 43 c-26 23 -53 42 -62 41 -10 0 -11 -2 -2 -6z m-18 -285 c0 -5 -4
-8 -10 -8 -5 0 -10 10 -10 23 0 18 2 19 10 7 5 -8 10 -18 10 -22z"/>
</g>
</svg>
