<?xml version="1.0" standalone="no"?>
<!DOCTYPE svg PUBLIC "-//W3C//DTD SVG 20010904//EN"
 "http://www.w3.org/TR/2001/REC-SVG-20010904/DTD/svg10.dtd">
<svg version="1.0" xmlns="http://www.w3.org/2000/svg"
 width="96.000000pt" height="84.000000pt" viewBox="0 0 96.000000 84.000000"
 preserveAspectRatio="xMidYMid meet">
<metadata>
Created by potrace 1.16, written by Peter Selinger 2001-2019
</metadata>
<g transform="translate(0.000000,84.000000) scale(0.100000,-0.100000)"
fill="#000000" stroke="none">
<path d="M550 770 c0 -5 6 -10 13 -10 6 -1 -5 -10 -26 -21 -27 -14 -39 -28
-44 -50 -4 -20 -13 -31 -29 -35 -31 -8 -30 -31 1 -56 21 -16 25 -28 25 -68 0
-59 -13 -69 -94 -73 -34 -1 -58 -7 -61 -14 -2 -7 -11 -13 -19 -13 -13 0 -12
-6 5 -34 34 -58 44 -62 87 -32 53 36 60 34 54 -19 -3 -27 0 -50 7 -59 11 -13
10 -77 -4 -233 l-5 -53 100 0 100 0 0 37 c0 35 1 36 15 17 9 -12 14 -14 15 -6
0 7 5 10 10 7 6 -3 10 -1 10 4 0 6 6 10 13 9 20 -5 20 165 0 235 -14 49 -15
64 -4 90 23 58 23 63 -2 76 -22 12 -25 21 -31 108 -7 108 -22 145 -65 163 -17
7 -36 18 -42 26 -13 16 -29 18 -29 4z m0 -275 c0 -8 -4 -15 -10 -15 -5 0 -10
7 -10 15 0 8 5 15 10 15 6 0 10 -7 10 -15z"/>
</g>
</svg>
