<?xml version="1.0" standalone="no"?>
<!DOCTYPE svg PUBLIC "-//W3C//DTD SVG 20010904//EN"
 "http://www.w3.org/TR/2001/REC-SVG-20010904/DTD/svg10.dtd">
<svg version="1.0" xmlns="http://www.w3.org/2000/svg"
 width="96.000000pt" height="84.000000pt" viewBox="0 0 96.000000 84.000000"
 preserveAspectRatio="xMidYMid meet">
<metadata>
Created by potrace 1.16, written by Peter Selinger 2001-2019
</metadata>
<g transform="translate(0.000000,84.000000) scale(0.100000,-0.100000)"
fill="#000000" stroke="none">
<path d="M550 769 c13 -9 13 -11 1 -16 -27 -11 -61 -52 -61 -73 0 -30 -18 -60
-35 -60 -21 0 -19 -4 20 -43 28 -28 35 -43 35 -74 0 -47 -37 -89 -89 -99 -21
-4 -37 -15 -43 -30 -6 -13 -15 -24 -20 -24 -6 0 3 -14 19 -30 31 -33 54 -38
74 -14 11 13 14 11 24 -18 9 -27 8 -40 -7 -73 -21 -48 -22 -65 -4 -65 13 0 14
-14 2 -122 l-3 -28 99 0 98 0 0 41 0 40 30 -33 c30 -32 30 -32 30 -8 0 20 2
22 10 10 9 -13 10 -13 10 0 0 13 1 13 10 0 30 -48 23 150 -11 270 -15 55 -18
80 -10 101 7 21 7 31 -3 36 -7 5 -20 59 -29 122 -19 126 -34 159 -77 168 -16
3 -35 12 -41 19 -6 8 -19 14 -28 14 -14 0 -14 -2 -1 -11z m15 -279 c-3 -5 -10
-10 -16 -10 -5 0 -9 5 -9 10 0 6 7 10 16 10 8 0 12 -4 9 -10z"/>
</g>
</svg>
