<?xml version="1.0" standalone="no"?>
<!DOCTYPE svg PUBLIC "-//W3C//DTD SVG 20010904//EN"
 "http://www.w3.org/TR/2001/REC-SVG-20010904/DTD/svg10.dtd">
<svg version="1.0" xmlns="http://www.w3.org/2000/svg"
 width="96.000000pt" height="84.000000pt" viewBox="0 0 96.000000 84.000000"
 preserveAspectRatio="xMidYMid meet">
<metadata>
Created by potrace 1.16, written by Peter Selinger 2001-2019
</metadata>
<g transform="translate(0.000000,84.000000) scale(0.100000,-0.100000)"
fill="#000000" stroke="none">
<path d="M540 790 c0 -5 5 -10 10 -10 6 0 10 -4 10 -10 0 -5 -7 -10 -15 -10
-26 0 -52 -35 -59 -78 -4 -26 -14 -47 -26 -54 -25 -16 -26 -28 -1 -28 33 0 51
-38 51 -107 0 -73 -11 -102 -62 -164 -39 -49 -53 -109 -24 -109 7 0 19 -7 27
-16 10 -13 10 -19 0 -36 -11 -17 -10 -22 1 -29 7 -5 16 -9 19 -9 4 0 4 -29 1
-65 l-5 -65 158 0 158 0 -7 128 c-4 81 -13 152 -26 197 -11 39 -25 120 -30
180 -19 209 -29 238 -93 257 -23 7 -48 18 -55 25 -16 15 -32 17 -32 3z"/>
</g>
</svg>
