<?xml version="1.0" standalone="no"?>
<!DOCTYPE svg PUBLIC "-//W3C//DTD SVG 20010904//EN"
 "http://www.w3.org/TR/2001/REC-SVG-20010904/DTD/svg10.dtd">
<svg version="1.0" xmlns="http://www.w3.org/2000/svg"
 width="96.000000pt" height="84.000000pt" viewBox="0 0 96.000000 84.000000"
 preserveAspectRatio="xMidYMid meet">
<metadata>
Created by potrace 1.16, written by Peter Selinger 2001-2019
</metadata>
<g transform="translate(0.000000,84.000000) scale(0.100000,-0.100000)"
fill="#000000" stroke="none">
<path d="M548 778 c16 -16 15 -28 -1 -28 -23 0 -48 -36 -50 -73 -3 -38 -21
-67 -44 -67 -8 0 -11 -5 -7 -11 3 -6 16 -9 28 -7 19 4 25 -2 36 -39 20 -69 8
-222 -24 -309 -29 -81 -36 -165 -12 -144 12 10 15 8 14 -12 -1 -13 -1 -38 0
-55 l2 -33 134 0 c130 0 134 1 140 22 11 44 6 218 -10 284 -9 41 -14 106 -13
169 1 57 -2 108 -5 114 -4 6 -10 34 -13 62 -8 67 -35 98 -90 106 -24 3 -48 12
-54 19 -6 8 -19 14 -27 14 -12 0 -13 -3 -4 -12z"/>
</g>
</svg>
