<?xml version="1.0" standalone="no"?>
<!DOCTYPE svg PUBLIC "-//W3C//DTD SVG 20010904//EN"
 "http://www.w3.org/TR/2001/REC-SVG-20010904/DTD/svg10.dtd">
<svg version="1.0" xmlns="http://www.w3.org/2000/svg"
 width="96.000000pt" height="84.000000pt" viewBox="0 0 96.000000 84.000000"
 preserveAspectRatio="xMidYMid meet">
<metadata>
Created by potrace 1.16, written by Peter Selinger 2001-2019
</metadata>
<g transform="translate(0.000000,84.000000) scale(0.100000,-0.100000)"
fill="#000000" stroke="none">
<path d="M544 744 c4 -10 -3 -25 -19 -40 -22 -21 -30 -46 -26 -81 3 -21 -19
-53 -34 -53 -20 0 -19 -20 0 -21 28 -3 31 -4 50 -23 16 -15 19 -34 19 -91 0
-67 -2 -75 -32 -109 -33 -38 -39 -55 -22 -72 6 -6 2 -42 -14 -106 -13 -52 -22
-107 -19 -120 l5 -25 144 -2 c138 -2 144 -1 144 18 0 11 6 44 13 73 10 38 11
71 5 118 -5 36 -11 130 -14 210 -5 145 -14 229 -29 263 -10 25 -57 47 -98 47
-19 0 -40 7 -47 15 -17 20 -34 19 -26 -1z"/>
</g>
</svg>
