<?xml version="1.0" standalone="no"?>
<!DOCTYPE svg PUBLIC "-//W3C//DTD SVG 20010904//EN"
 "http://www.w3.org/TR/2001/REC-SVG-20010904/DTD/svg10.dtd">
<svg version="1.0" xmlns="http://www.w3.org/2000/svg"
 width="96.000000pt" height="84.000000pt" viewBox="0 0 96.000000 84.000000"
 preserveAspectRatio="xMidYMid meet">
<metadata>
Created by potrace 1.16, written by Peter Selinger 2001-2019
</metadata>
<g transform="translate(0.000000,84.000000) scale(0.100000,-0.100000)"
fill="#000000" stroke="none">
<path d="M537 741 c3 -11 -2 -21 -12 -24 -21 -9 -45 -68 -39 -95 4 -14 -1 -25
-20 -37 -28 -19 -26 -38 4 -33 10 2 28 -8 40 -22 19 -22 22 -34 18 -96 -4 -57
-10 -78 -31 -106 -15 -19 -27 -40 -27 -46 0 -5 -13 -52 -30 -102 -29 -88 -40
-180 -22 -180 5 0 13 9 18 21 l9 20 27 -21 c25 -19 38 -20 150 -18 l123 3 7
45 c20 120 20 152 4 237 -9 48 -17 132 -19 186 -2 53 -7 100 -10 104 -4 3 -7
22 -7 42 0 72 -55 121 -137 121 -12 0 -25 5 -28 10 -11 17 -23 11 -18 -9z"/>
</g>
</svg>
