<?xml version="1.0" standalone="no"?>
<!DOCTYPE svg PUBLIC "-//W3C//DTD SVG 20010904//EN"
 "http://www.w3.org/TR/2001/REC-SVG-20010904/DTD/svg10.dtd">
<svg version="1.0" xmlns="http://www.w3.org/2000/svg"
 width="96.000000pt" height="84.000000pt" viewBox="0 0 96.000000 84.000000"
 preserveAspectRatio="xMidYMid meet">
<metadata>
Created by potrace 1.16, written by Peter Selinger 2001-2019
</metadata>
<g transform="translate(0.000000,84.000000) scale(0.100000,-0.100000)"
fill="#000000" stroke="none">
<path d="M519 746 c10 -12 8 -17 -8 -25 -21 -12 -43 -73 -35 -96 3 -7 -6 -22
-21 -33 -25 -20 -21 -37 7 -27 7 3 23 -10 37 -30 21 -31 23 -43 18 -103 -6
-81 -33 -144 -99 -235 -39 -52 -49 -74 -45 -93 2 -15 0 -42 -5 -61 -13 -49 -1
-54 18 -7 l16 39 24 -30 c13 -17 24 -33 24 -37 0 -16 19 -8 23 10 4 16 5 16 6
0 1 -16 15 -18 140 -18 l140 0 8 47 c14 89 9 204 -14 278 -12 39 -24 108 -27
155 -2 47 -9 98 -15 113 -6 16 -11 39 -11 53 0 53 -52 94 -121 94 -15 0 -31 5
-34 10 -3 6 -13 10 -22 10 -12 0 -13 -3 -4 -14z"/>
</g>
</svg>
