<?xml version="1.0" standalone="no"?>
<!DOCTYPE svg PUBLIC "-//W3C//DTD SVG 20010904//EN"
 "http://www.w3.org/TR/2001/REC-SVG-20010904/DTD/svg10.dtd">
<svg version="1.0" xmlns="http://www.w3.org/2000/svg"
 width="96.000000pt" height="84.000000pt" viewBox="0 0 96.000000 84.000000"
 preserveAspectRatio="xMidYMid meet">
<metadata>
Created by potrace 1.16, written by Peter Selinger 2001-2019
</metadata>
<g transform="translate(0.000000,84.000000) scale(0.100000,-0.100000)"
fill="#000000" stroke="none">
<path d="M259 818 c4 -13 18 -25 29 -28 l22 -5 -20 -30 c-25 -38 -25 -52 -1
-60 18 -5 20 -16 19 -93 0 -67 -4 -91 -18 -109 -10 -12 -21 -44 -25 -69 -8
-59 -15 -75 -26 -68 -18 11 -28 -6 -19 -30 10 -28 -9 -97 -64 -229 -20 -48
-36 -89 -36 -92 0 -3 126 -5 281 -5 196 0 278 3 274 11 -4 6 0 16 9 22 14 11
13 22 -9 117 -35 147 -50 199 -74 247 -12 23 -21 48 -21 56 0 7 -3 17 -7 21
-13 13 -9 187 4 198 7 6 13 21 13 34 0 12 5 26 11 30 9 5 49 87 49 100 0 2
-90 4 -200 4 l-199 0 8 -22z m52 -658 l-9 -45 -1 40 c0 22 3 58 7 80 l7 40 3
-35 c1 -19 -2 -55 -7 -80z"/>
</g>
</svg>
