<?xml version="1.0" standalone="no"?>
<!DOCTYPE svg PUBLIC "-//W3C//DTD SVG 20010904//EN"
 "http://www.w3.org/TR/2001/REC-SVG-20010904/DTD/svg10.dtd">
<svg version="1.0" xmlns="http://www.w3.org/2000/svg"
 width="96.000000pt" height="84.000000pt" viewBox="0 0 96.000000 84.000000"
 preserveAspectRatio="xMidYMid meet">
<metadata>
Created by potrace 1.16, written by Peter Selinger 2001-2019
</metadata>
<g transform="translate(0.000000,84.000000) scale(0.100000,-0.100000)"
fill="#000000" stroke="none">
<path d="M515 739 c4 -6 -2 -20 -12 -32 -28 -32 -43 -73 -32 -84 7 -7 2 -17
-15 -31 -33 -25 -33 -36 -1 -28 18 5 25 2 25 -8 0 -7 7 -19 15 -26 11 -9 15
-32 15 -80 0 -76 -9 -93 -119 -210 -34 -35 -61 -69 -62 -75 -3 -38 -7 -64 -14
-89 -11 -39 12 -26 30 18 l14 31 21 -48 c12 -26 25 -45 29 -43 4 3 20 36 36
73 42 101 47 100 39 -10 l-7 -98 149 3 149 3 3 106 c2 96 0 116 -28 201 -19
61 -31 122 -34 174 -2 43 -9 92 -15 107 -6 16 -11 39 -11 52 0 43 -40 77 -98
83 -29 2 -55 9 -58 13 -3 5 -10 9 -15 9 -6 0 -7 -5 -4 -11z"/>
</g>
</svg>
