<?xml version="1.0" standalone="no"?>
<!DOCTYPE svg PUBLIC "-//W3C//DTD SVG 20010904//EN"
 "http://www.w3.org/TR/2001/REC-SVG-20010904/DTD/svg10.dtd">
<svg version="1.0" xmlns="http://www.w3.org/2000/svg"
 width="96.000000pt" height="84.000000pt" viewBox="0 0 96.000000 84.000000"
 preserveAspectRatio="xMidYMid meet">
<metadata>
Created by potrace 1.16, written by Peter Selinger 2001-2019
</metadata>
<g transform="translate(0.000000,84.000000) scale(0.100000,-0.100000)"
fill="#000000" stroke="none">
<path d="M523 728 c2 -7 -3 -22 -12 -33 -27 -32 -41 -71 -30 -82 7 -7 2 -17
-15 -31 -31 -24 -33 -36 -6 -29 31 8 64 -62 56 -118 -8 -47 -19 -59 -121 -130
-81 -56 -104 -81 -105 -113 0 -13 -5 -32 -11 -43 -21 -39 -1 -43 22 -5 l23 40
12 -48 c12 -47 20 -64 27 -55 2 2 25 37 50 76 26 40 52 73 59 73 26 0 35 -33
27 -95 -4 -33 -8 -77 -8 -97 l-1 -38 140 0 140 0 0 104 c0 87 -5 119 -30 201
-32 103 -42 235 -18 235 6 0 4 7 -5 18 -10 10 -17 35 -17 56 0 20 -5 46 -10
57 -15 26 -62 49 -104 49 -19 0 -38 5 -41 10 -9 14 -28 12 -22 -2z"/>
</g>
</svg>
