<?xml version="1.0" standalone="no"?>
<!DOCTYPE svg PUBLIC "-//W3C//DTD SVG 20010904//EN"
 "http://www.w3.org/TR/2001/REC-SVG-20010904/DTD/svg10.dtd">
<svg version="1.0" xmlns="http://www.w3.org/2000/svg"
 width="96.000000pt" height="84.000000pt" viewBox="0 0 96.000000 84.000000"
 preserveAspectRatio="xMidYMid meet">
<metadata>
Created by potrace 1.16, written by Peter Selinger 2001-2019
</metadata>
<g transform="translate(0.000000,84.000000) scale(0.100000,-0.100000)"
fill="#000000" stroke="none">
<path d="M530 748 c0 -15 -4 -29 -9 -33 -17 -10 -40 -66 -34 -81 3 -8 -5 -26
-17 -40 -13 -13 -19 -25 -14 -26 5 0 14 -2 19 -2 41 -5 70 -102 42 -138 -7 -9
-55 -34 -106 -56 -51 -22 -101 -48 -111 -57 -20 -18 -57 -122 -47 -131 3 -4
14 10 24 30 14 31 18 34 24 19 4 -10 8 -33 8 -50 1 -18 5 -33 10 -33 6 0 29
23 53 51 24 28 55 56 69 64 24 13 26 12 36 -14 8 -23 6 -37 -9 -70 -11 -23
-17 -50 -15 -59 2 -11 7 -4 14 18 l9 35 8 -28 c4 -19 2 -35 -6 -45 -11 -14
-10 -15 6 -9 17 7 18 3 14 -43 l-5 -50 122 0 122 0 7 98 c6 75 3 115 -9 167
-8 38 -13 82 -10 97 4 17 2 28 -4 28 -7 0 -11 29 -11 80 0 68 3 80 17 80 15 0
15 2 -1 19 -13 14 -16 28 -11 50 13 62 -45 121 -124 124 -20 1 -41 9 -48 17
-10 13 -12 11 -13 -12z"/>
</g>
</svg>
