<?xml version="1.0" standalone="no"?>
<!DOCTYPE svg PUBLIC "-//W3C//DTD SVG 20010904//EN"
 "http://www.w3.org/TR/2001/REC-SVG-20010904/DTD/svg10.dtd">
<svg version="1.0" xmlns="http://www.w3.org/2000/svg"
 width="96.000000pt" height="84.000000pt" viewBox="0 0 96.000000 84.000000"
 preserveAspectRatio="xMidYMid meet">
<metadata>
Created by potrace 1.16, written by Peter Selinger 2001-2019
</metadata>
<g transform="translate(0.000000,84.000000) scale(0.100000,-0.100000)"
fill="#000000" stroke="none">
<path d="M540 760 c0 -21 -26 -69 -45 -82 -6 -5 -5 -12 5 -19 10 -7 11 -12 4
-15 -6 -3 -20 -11 -30 -18 -15 -12 -16 -16 -5 -30 7 -9 17 -16 22 -16 32 0 67
-108 40 -124 -5 -4 -36 -11 -68 -17 -85 -15 -155 -39 -180 -62 -22 -19 -60
-113 -50 -123 3 -3 15 12 28 33 l24 38 3 -52 c2 -29 6 -53 9 -53 3 0 31 22 62
48 35 30 72 53 99 59 41 11 42 10 36 -10 -4 -12 -8 -36 -10 -54 -1 -18 -14
-48 -29 -68 -15 -19 -23 -35 -17 -35 5 0 13 7 16 16 6 15 8 15 25 -2 10 -10
17 -22 14 -27 -2 -4 0 -7 5 -7 5 0 7 -30 4 -70 l-5 -70 108 0 107 0 -6 23 c-3
13 1 57 10 98 10 49 13 95 9 136 -4 41 -2 69 6 84 10 19 9 25 -6 35 -14 11
-16 23 -10 88 5 54 12 79 23 85 14 8 14 11 2 26 -8 10 -13 34 -11 59 2 34 -3
49 -24 74 -28 34 -83 57 -121 49 -16 -3 -24 0 -24 9 0 8 -4 14 -10 14 -5 0
-10 -9 -10 -20z m-23 -572 c-3 -7 -5 -2 -5 12 0 14 2 19 5 13 2 -7 2 -19 0
-25z"/>
</g>
</svg>
