<?xml version="1.0" standalone="no"?>
<!DOCTYPE svg PUBLIC "-//W3C//DTD SVG 20010904//EN"
 "http://www.w3.org/TR/2001/REC-SVG-20010904/DTD/svg10.dtd">
<svg version="1.0" xmlns="http://www.w3.org/2000/svg"
 width="96.000000pt" height="84.000000pt" viewBox="0 0 96.000000 84.000000"
 preserveAspectRatio="xMidYMid meet">
<metadata>
Created by potrace 1.16, written by Peter Selinger 2001-2019
</metadata>
<g transform="translate(0.000000,84.000000) scale(0.100000,-0.100000)"
fill="#000000" stroke="none">
<path d="M560 762 c0 -9 -11 -34 -25 -55 -14 -20 -23 -42 -20 -47 3 -6 -5 -15
-19 -22 -26 -11 -36 -38 -16 -38 6 0 22 -12 34 -27 18 -21 23 -38 22 -72 l-1
-44 -96 2 c-112 2 -147 -9 -198 -62 -46 -49 -36 -66 17 -28 l42 31 0 -60 c0
-33 2 -60 5 -60 3 0 27 16 54 35 42 30 56 35 105 35 31 0 56 -4 56 -10 0 -5
-8 -32 -19 -59 -13 -35 -15 -53 -8 -60 8 -8 3 -20 -18 -41 -26 -27 -24 -45 2
-19 23 23 33 -3 33 -82 l0 -79 99 0 99 0 -5 39 c-3 24 2 67 12 105 11 40 16
81 12 107 -3 23 -1 52 5 65 8 17 8 27 -1 37 -16 21 -3 158 17 174 12 10 12 15
3 27 -7 9 -9 29 -5 54 5 33 2 48 -16 78 -26 41 -98 79 -130 69 -14 -5 -20 -2
-20 9 0 9 -4 16 -10 16 -5 0 -10 -8 -10 -18z"/>
</g>
</svg>
