<?xml version="1.0" standalone="no"?>
<!DOCTYPE svg PUBLIC "-//W3C//DTD SVG 20010904//EN"
 "http://www.w3.org/TR/2001/REC-SVG-20010904/DTD/svg10.dtd">
<svg version="1.0" xmlns="http://www.w3.org/2000/svg"
 width="96.000000pt" height="84.000000pt" viewBox="0 0 96.000000 84.000000"
 preserveAspectRatio="xMidYMid meet">
<metadata>
Created by potrace 1.16, written by Peter Selinger 2001-2019
</metadata>
<g transform="translate(0.000000,84.000000) scale(0.100000,-0.100000)"
fill="#000000" stroke="none">
<path d="M557 711 c-23 -39 -31 -61 -24 -64 7 -3 -3 -10 -21 -17 -30 -11 -40
-35 -14 -35 6 0 17 -6 23 -12 7 -7 9 -13 4 -13 -4 0 0 -9 9 -19 11 -12 16 -31
14 -53 -3 -30 -6 -33 -33 -30 -16 1 -47 9 -68 17 -51 20 -131 18 -197 -5 -61
-21 -51 -35 20 -28 47 4 50 -1 50 -80 l0 -55 23 20 c42 39 61 44 122 31 41 -8
55 -15 51 -25 -3 -7 -13 -39 -22 -69 -16 -54 -15 -56 6 -79 20 -22 21 -25 6
-54 -16 -31 -17 -56 -2 -79 4 -7 5 -24 2 -38 l-6 -24 104 0 c101 0 104 1 104
23 0 12 7 49 15 82 10 37 17 122 19 224 3 138 7 165 21 175 15 12 15 14 0 29
-14 13 -14 20 -4 46 15 35 9 60 -26 101 -32 38 -73 60 -112 60 -23 0 -29 4
-25 15 13 33 -5 12 -39 -44z"/>
</g>
</svg>
