<?xml version="1.0" standalone="no"?>
<!DOCTYPE svg PUBLIC "-//W3C//DTD SVG 20010904//EN"
 "http://www.w3.org/TR/2001/REC-SVG-20010904/DTD/svg10.dtd">
<svg version="1.0" xmlns="http://www.w3.org/2000/svg"
 width="96.000000pt" height="84.000000pt" viewBox="0 0 96.000000 84.000000"
 preserveAspectRatio="xMidYMid meet">
<metadata>
Created by potrace 1.16, written by Peter Selinger 2001-2019
</metadata>
<g transform="translate(0.000000,84.000000) scale(0.100000,-0.100000)"
fill="#000000" stroke="none">
<path d="M577 729 c-27 -37 -35 -54 -26 -59 8 -6 2 -13 -20 -24 -31 -17 -43
-46 -18 -46 20 0 42 -48 38 -84 -1 -17 -4 -32 -6 -34 -4 -5 -59 21 -90 44 -33
24 -117 54 -150 54 -11 0 -31 7 -43 16 -17 11 -22 12 -22 2 0 -21 13 -34 50
-55 l35 -20 -3 -68 c-2 -37 0 -65 5 -63 4 2 20 10 36 17 24 13 34 12 83 -5 81
-27 80 -26 56 -82 -25 -57 -27 -84 -10 -111 9 -15 7 -29 -10 -69 -12 -28 -22
-59 -21 -69 0 -12 5 -9 14 12 10 23 15 26 20 14 3 -9 5 -20 4 -25 -1 -5 -1
-24 0 -41 l1 -33 119 0 119 0 14 38 c9 27 12 91 10 241 -1 129 2 208 8 216 7
8 7 21 1 37 -5 15 -6 30 0 39 28 45 -17 136 -86 169 -24 12 -49 19 -54 16 -5
-4 -11 1 -13 9 -2 10 -17 -3 -41 -36z"/>
</g>
</svg>
