<?xml version="1.0" standalone="no"?>
<!DOCTYPE svg PUBLIC "-//W3C//DTD SVG 20010904//EN"
 "http://www.w3.org/TR/2001/REC-SVG-20010904/DTD/svg10.dtd">
<svg version="1.0" xmlns="http://www.w3.org/2000/svg"
 width="96.000000pt" height="84.000000pt" viewBox="0 0 96.000000 84.000000"
 preserveAspectRatio="xMidYMid meet">
<metadata>
Created by potrace 1.16, written by Peter Selinger 2001-2019
</metadata>
<g transform="translate(0.000000,84.000000) scale(0.100000,-0.100000)"
fill="#000000" stroke="none">
<path d="M603 753 c-23 -25 -39 -52 -36 -59 3 -10 -5 -16 -26 -20 -21 -5 -31
-12 -31 -25 0 -11 7 -19 15 -19 8 0 15 -5 15 -12 0 -6 8 -20 18 -31 12 -15 14
-21 5 -24 -8 -3 -11 -14 -7 -29 3 -13 3 -24 0 -24 -11 0 -81 47 -95 64 -8 10
-31 26 -52 36 -20 11 -39 27 -43 36 -4 9 -12 14 -21 10 -11 -4 -17 3 -22 24
-6 33 -17 39 -27 15 -7 -18 8 -61 30 -82 13 -13 14 -29 9 -89 -4 -41 -4 -74
-1 -74 4 0 20 6 35 14 24 13 31 13 57 0 22 -12 84 -48 102 -59 1 -1 -9 -28
-24 -60 -22 -50 -24 -64 -16 -98 9 -35 7 -43 -20 -83 -29 -43 -32 -78 -4 -38
22 29 31 9 27 -62 l-3 -64 155 0 154 0 7 70 c5 51 2 102 -15 196 -15 88 -19
143 -14 178 4 28 6 66 5 85 0 19 4 47 10 62 25 59 -60 179 -127 179 -16 0 -21
4 -17 15 9 23 2 18 -43 -32z"/>
</g>
</svg>
