<?xml version="1.0" standalone="no"?>
<!DOCTYPE svg PUBLIC "-//W3C//DTD SVG 20010904//EN"
 "http://www.w3.org/TR/2001/REC-SVG-20010904/DTD/svg10.dtd">
<svg version="1.0" xmlns="http://www.w3.org/2000/svg"
 width="96.000000pt" height="84.000000pt" viewBox="0 0 96.000000 84.000000"
 preserveAspectRatio="xMidYMid meet">
<metadata>
Created by potrace 1.16, written by Peter Selinger 2001-2019
</metadata>
<g transform="translate(0.000000,84.000000) scale(0.100000,-0.100000)"
fill="#000000" stroke="none">
<path d="M645 780 c-16 -16 -37 -32 -47 -36 -13 -4 -17 -11 -13 -25 5 -16 1
-19 -24 -19 -35 0 -51 -18 -29 -34 8 -6 18 -20 22 -31 12 -28 17 -105 7 -105
-5 0 -33 24 -64 54 -30 30 -64 57 -75 60 -11 4 -25 20 -31 37 -6 17 -15 28
-21 24 -6 -4 -10 8 -10 31 0 31 -2 35 -15 24 -20 -16 -19 -74 1 -105 13 -20
15 -39 10 -88 -8 -76 3 -100 33 -73 22 20 22 19 94 -33 26 -19 47 -40 47 -47
0 -6 -11 -36 -24 -64 -17 -36 -22 -59 -17 -74 9 -22 6 -37 -11 -73 -8 -17 -8
-26 3 -39 9 -11 12 -38 10 -90 l-3 -74 176 0 176 0 0 63 c0 34 -7 89 -14 122
-51 224 -51 236 -20 417 3 20 1 52 -6 72 -13 41 -81 106 -111 106 -18 0 -19 2
-9 15 23 28 -6 15 -35 -15z"/>
</g>
</svg>
