<?xml version="1.0" standalone="no"?>
<!DOCTYPE svg PUBLIC "-//W3C//DTD SVG 20010904//EN"
 "http://www.w3.org/TR/2001/REC-SVG-20010904/DTD/svg10.dtd">
<svg version="1.0" xmlns="http://www.w3.org/2000/svg"
 width="96.000000pt" height="84.000000pt" viewBox="0 0 96.000000 84.000000"
 preserveAspectRatio="xMidYMid meet">
<metadata>
Created by potrace 1.16, written by Peter Selinger 2001-2019
</metadata>
<g transform="translate(0.000000,84.000000) scale(0.100000,-0.100000)"
fill="#000000" stroke="none">
<path d="M703 780 c-7 -10 -30 -26 -52 -36 -26 -12 -39 -24 -36 -33 4 -10 -2
-12 -25 -9 -33 5 -47 -6 -33 -25 16 -21 36 -101 26 -104 -5 -2 -7 -17 -5 -33
2 -17 0 -30 -4 -30 -17 1 -52 35 -68 68 -10 18 -28 38 -41 44 -14 6 -25 14
-26 17 0 3 -2 21 -3 39 -2 18 -9 38 -15 46 -6 7 -9 21 -5 30 12 31 -23 17 -36
-15 -11 -27 -11 -39 7 -88 12 -35 16 -65 12 -77 -4 -10 -8 -41 -8 -69 l0 -50
19 23 19 22 23 -22 c13 -13 36 -33 52 -46 l29 -23 -27 -57 c-21 -45 -26 -67
-23 -102 4 -33 0 -50 -12 -64 -15 -18 -15 -19 2 -13 19 7 21 -8 17 -116 l-2
-57 186 0 186 0 0 39 c0 21 -12 83 -26 137 -14 55 -29 119 -34 142 -9 51 6
183 26 229 27 60 -19 177 -81 205 -13 6 -21 16 -19 23 8 21 -11 25 -23 5z
m-16 -682 c-3 -8 -6 -5 -6 6 -1 11 2 17 5 13 3 -3 4 -12 1 -19z"/>
</g>
</svg>
