<?xml version="1.0" standalone="no"?>
<!DOCTYPE svg PUBLIC "-//W3C//DTD SVG 20010904//EN"
 "http://www.w3.org/TR/2001/REC-SVG-20010904/DTD/svg10.dtd">
<svg version="1.0" xmlns="http://www.w3.org/2000/svg"
 width="96.000000pt" height="84.000000pt" viewBox="0 0 96.000000 84.000000"
 preserveAspectRatio="xMidYMid meet">
<metadata>
Created by potrace 1.16, written by Peter Selinger 2001-2019
</metadata>
<g transform="translate(0.000000,84.000000) scale(0.100000,-0.100000)"
fill="#000000" stroke="none">
<path d="M242 818 c2 -15 11 -24 26 -26 26 -4 27 -10 7 -36 -17 -23 -20 -56
-5 -56 16 0 28 -41 32 -113 4 -59 2 -68 -18 -86 -21 -18 -29 -43 -36 -111 -2
-14 -9 -25 -18 -25 -11 0 -14 -15 -15 -60 -1 -47 -12 -86 -48 -177 -26 -64
-47 -119 -47 -122 0 -3 124 -6 276 -6 l275 0 -7 23 c-4 12 -7 34 -6 48 1 14
-11 77 -28 140 -16 63 -30 128 -30 145 0 19 -6 34 -14 37 -23 9 -38 83 -38
182 1 98 8 142 27 165 17 20 45 76 45 90 0 6 -64 10 -191 10 l-190 0 3 -22z
m72 -643 c-4 -47 -11 -88 -17 -92 -7 -4 -8 10 -4 42 4 26 7 75 7 109 1 46 3
57 11 43 6 -10 7 -49 3 -102z"/>
</g>
</svg>
