<?xml version="1.0" standalone="no"?>
<!DOCTYPE svg PUBLIC "-//W3C//DTD SVG 20010904//EN"
 "http://www.w3.org/TR/2001/REC-SVG-20010904/DTD/svg10.dtd">
<svg version="1.0" xmlns="http://www.w3.org/2000/svg"
 width="96.000000pt" height="84.000000pt" viewBox="0 0 96.000000 84.000000"
 preserveAspectRatio="xMidYMid meet">
<metadata>
Created by potrace 1.16, written by Peter Selinger 2001-2019
</metadata>
<g transform="translate(0.000000,84.000000) scale(0.100000,-0.100000)"
fill="#000000" stroke="none">
<path d="M720 778 c0 -14 -77 -55 -93 -50 -5 1 -5 -7 -2 -19 6 -18 3 -20 -24
-17 -55 5 -71 -60 -26 -102 16 -15 22 -27 16 -33 -6 -6 -4 -26 4 -54 13 -43
13 -44 -11 -53 -13 -5 -24 -14 -24 -20 0 -5 -13 -10 -30 -10 -20 0 -30 5 -30
15 0 9 -12 27 -26 40 -23 21 -25 29 -19 65 4 22 3 46 -3 53 -5 7 -13 26 -17
42 -6 27 -8 28 -15 10 -4 -12 -15 -27 -24 -34 -20 -17 -20 -53 -1 -118 13 -43
13 -55 1 -84 -7 -19 -17 -45 -21 -59 -7 -24 -7 -24 12 -8 19 17 21 17 43 -7
13 -13 30 -27 39 -30 13 -4 16 -18 15 -68 -1 -50 -7 -70 -28 -101 -24 -36 -34
-66 -21 -66 3 0 15 15 26 33 15 23 19 26 14 9 -4 -13 -1 -29 5 -37 7 -8 10
-28 8 -45 l-5 -30 209 0 208 0 -6 43 c-3 23 -16 82 -27 132 -17 74 -21 125
-21 290 -1 191 -2 201 -24 232 -12 17 -36 37 -52 45 -16 7 -29 19 -27 27 1 8
-4 16 -10 18 -7 3 -13 -2 -13 -9z"/>
</g>
</svg>
