<?xml version="1.0" standalone="no"?>
<!DOCTYPE svg PUBLIC "-//W3C//DTD SVG 20010904//EN"
 "http://www.w3.org/TR/2001/REC-SVG-20010904/DTD/svg10.dtd">
<svg version="1.0" xmlns="http://www.w3.org/2000/svg"
 width="96.000000pt" height="84.000000pt" viewBox="0 0 96.000000 84.000000"
 preserveAspectRatio="xMidYMid meet">
<metadata>
Created by potrace 1.16, written by Peter Selinger 2001-2019
</metadata>
<g transform="translate(0.000000,84.000000) scale(0.100000,-0.100000)"
fill="#000000" stroke="none">
<path d="M703 826 c24 -19 22 -23 -17 -30 -45 -9 -83 -40 -91 -75 -6 -30 -42
-61 -69 -61 -9 0 -18 -10 -21 -23 -5 -18 5 -35 43 -76 45 -48 62 -84 62 -127
0 -8 -6 -13 -12 -12 -8 2 -14 -12 -16 -37 -2 -22 -11 -50 -20 -63 l-18 -23
-28 30 c-29 30 -29 31 -13 68 25 58 32 106 16 101 -8 -3 -15 -14 -17 -26 -4
-24 -12 -28 -28 -12 -6 6 -18 8 -27 5 -20 -8 -34 -126 -19 -160 9 -19 8 -33
-3 -59 -16 -38 -28 -96 -20 -96 3 0 14 5 25 12 16 10 23 9 40 -7 12 -11 19
-27 17 -36 -2 -9 5 -22 16 -29 20 -12 19 -14 -24 -51 l-44 -38 263 -1 262 0 0
99 c0 78 -9 142 -41 298 -23 109 -45 223 -48 254 -7 63 -29 102 -72 128 -17
10 -37 28 -45 40 -9 13 -26 21 -42 21 -25 -1 -25 -2 -9 -14z"/>
</g>
</svg>
