<?xml version="1.0" standalone="no"?>
<!DOCTYPE svg PUBLIC "-//W3C//DTD SVG 20010904//EN"
 "http://www.w3.org/TR/2001/REC-SVG-20010904/DTD/svg10.dtd">
<svg version="1.0" xmlns="http://www.w3.org/2000/svg"
 width="96.000000pt" height="84.000000pt" viewBox="0 0 96.000000 84.000000"
 preserveAspectRatio="xMidYMid meet">
<metadata>
Created by potrace 1.16, written by Peter Selinger 2001-2019
</metadata>
<g transform="translate(0.000000,84.000000) scale(0.100000,-0.100000)"
fill="#000000" stroke="none">
<path d="M673 820 c-36 -22 -58 -52 -68 -92 -6 -23 -13 -28 -39 -28 -29 0 -34
-4 -46 -40 -12 -36 -11 -42 4 -58 64 -66 62 -61 70 -209 5 -107 4 -145 -7
-165 -12 -24 -15 -24 -32 -11 -11 8 -32 19 -47 25 l-27 10 36 76 c47 103 46
102 36 102 -4 0 -19 -18 -33 -40 -21 -34 -27 -38 -36 -25 -6 8 -18 15 -27 15
-32 0 -43 -26 -45 -105 -2 -62 1 -82 17 -104 18 -25 19 -33 8 -94 -12 -72 -7
-88 23 -69 12 7 21 8 25 2 4 -6 98 -10 241 -10 l234 0 0 375 0 376 -45 44 -44
45 -83 0 c-65 0 -90 -4 -115 -20z m3 -452 c-15 -10 -26 0 -26 23 0 18 1 18 18
2 11 -11 14 -21 8 -25z"/>
</g>
</svg>
