<?xml version="1.0" standalone="no"?>
<!DOCTYPE svg PUBLIC "-//W3C//DTD SVG 20010904//EN"
 "http://www.w3.org/TR/2001/REC-SVG-20010904/DTD/svg10.dtd">
<svg version="1.0" xmlns="http://www.w3.org/2000/svg"
 width="96.000000pt" height="84.000000pt" viewBox="0 0 96.000000 84.000000"
 preserveAspectRatio="xMidYMid meet">
<metadata>
Created by potrace 1.16, written by Peter Selinger 2001-2019
</metadata>
<g transform="translate(0.000000,84.000000) scale(0.100000,-0.100000)"
fill="#000000" stroke="none">
<path d="M661 805 c-18 -21 -33 -52 -37 -75 -6 -36 -10 -40 -35 -40 -33 0 -56
-21 -76 -68 -13 -32 -13 -35 11 -56 15 -12 26 -26 26 -31 0 -6 10 -15 23 -20
18 -8 22 -19 25 -68 3 -51 -23 -296 -32 -305 -2 -2 -19 6 -37 17 -19 12 -40
21 -48 21 -29 0 -40 34 -41 125 -2 93 -18 169 -35 163 -6 -2 -8 -27 -6 -56 3
-51 2 -54 -18 -47 -40 12 -81 -50 -57 -88 8 -12 17 -39 20 -60 4 -21 23 -63
41 -95 28 -45 34 -64 29 -89 l-6 -33 276 0 276 0 0 420 0 420 -134 0 -134 0
-31 -35z m69 -512 c0 -2 -12 -3 -27 -1 -22 2 -28 -2 -34 -22 -5 -17 -7 -4 -8
38 l-1 63 35 -37 c19 -20 35 -39 35 -41z"/>
</g>
</svg>
