<?xml version="1.0" standalone="no"?>
<!DOCTYPE svg PUBLIC "-//W3C//DTD SVG 20010904//EN"
 "http://www.w3.org/TR/2001/REC-SVG-20010904/DTD/svg10.dtd">
<svg version="1.0" xmlns="http://www.w3.org/2000/svg"
 width="96.000000pt" height="84.000000pt" viewBox="0 0 96.000000 84.000000"
 preserveAspectRatio="xMidYMid meet">
<metadata>
Created by potrace 1.16, written by Peter Selinger 2001-2019
</metadata>
<g transform="translate(0.000000,84.000000) scale(0.100000,-0.100000)"
fill="#000000" stroke="none">
<path d="M740 831 c-83 -25 -134 -77 -144 -144 -6 -37 -11 -46 -31 -51 -14 -4
-25 -11 -25 -16 0 -6 -6 -10 -14 -10 -18 0 -32 -18 -40 -52 -5 -21 -3 -28 9
-28 8 0 15 -4 15 -9 0 -14 45 -61 58 -61 25 0 35 -44 29 -129 -5 -71 -31 -191
-40 -191 -2 0 -20 9 -42 20 -22 11 -44 20 -50 20 -17 0 -52 72 -59 122 -10 64
-103 205 -123 185 -3 -4 6 -25 21 -47 30 -45 32 -60 11 -60 -17 0 -45 -50 -45
-80 0 -11 6 -20 13 -20 6 0 36 -49 65 -108 47 -95 52 -110 43 -135 -6 -16 -11
-30 -11 -33 0 -2 131 -4 290 -4 l290 0 0 398 0 398 -39 22 c-40 23 -128 29
-181 13z m-56 -526 c13 -19 13 -23 2 -19 -8 3 -16 -2 -19 -13 -3 -10 -5 -1 -6
20 -1 44 1 45 23 12z"/>
</g>
</svg>
