<?xml version="1.0" standalone="no"?>
<!DOCTYPE svg PUBLIC "-//W3C//DTD SVG 20010904//EN"
 "http://www.w3.org/TR/2001/REC-SVG-20010904/DTD/svg10.dtd">
<svg version="1.0" xmlns="http://www.w3.org/2000/svg"
 width="96.000000pt" height="84.000000pt" viewBox="0 0 96.000000 84.000000"
 preserveAspectRatio="xMidYMid meet">
<metadata>
Created by potrace 1.16, written by Peter Selinger 2001-2019
</metadata>
<g transform="translate(0.000000,84.000000) scale(0.100000,-0.100000)"
fill="#000000" stroke="none">
<path d="M660 821 c-46 -24 -70 -59 -77 -109 -4 -28 -13 -46 -29 -56 -12 -9
-25 -25 -29 -36 -4 -11 -11 -18 -16 -14 -6 3 -16 0 -24 -6 -18 -15 -20 -60 -4
-60 13 0 59 -46 59 -59 0 -5 9 -11 19 -14 14 -3 21 -17 26 -52 11 -70 1 -195
-18 -232 l-17 -32 -42 19 c-66 29 -75 57 -72 221 2 86 -1 139 -7 139 -14 0
-29 -46 -29 -92 0 -33 -3 -39 -16 -34 -20 8 -72 -23 -80 -47 -3 -10 -1 -23 4
-30 5 -7 13 -28 17 -47 4 -19 23 -71 42 -115 31 -70 34 -84 24 -111 -6 -17
-11 -36 -11 -42 0 -9 74 -12 290 -12 l290 0 0 394 0 394 -31 26 c-28 24 -37
26 -132 26 -80 0 -110 -4 -137 -19z"/>
</g>
</svg>
