<?xml version="1.0" standalone="no"?>
<!DOCTYPE svg PUBLIC "-//W3C//DTD SVG 20010904//EN"
 "http://www.w3.org/TR/2001/REC-SVG-20010904/DTD/svg10.dtd">
<svg version="1.0" xmlns="http://www.w3.org/2000/svg"
 width="96.000000pt" height="84.000000pt" viewBox="0 0 96.000000 84.000000"
 preserveAspectRatio="xMidYMid meet">
<metadata>
Created by potrace 1.16, written by Peter Selinger 2001-2019
</metadata>
<g transform="translate(0.000000,84.000000) scale(0.100000,-0.100000)"
fill="#000000" stroke="none">
<path d="M610 803 c-26 -27 -39 -50 -43 -79 -5 -31 -12 -43 -28 -47 -11 -3
-23 -15 -26 -26 -3 -14 -13 -21 -28 -21 -15 0 -25 -8 -29 -22 -8 -32 -7 -38 5
-38 7 0 25 -13 41 -30 15 -16 32 -30 37 -30 31 0 44 -265 16 -321 -13 -25 -20
-28 -43 -23 -38 9 -40 11 -63 56 -17 33 -18 45 -10 70 6 17 11 44 11 60 0 15
11 55 24 88 37 90 5 87 -35 -3 -9 -20 -17 -26 -31 -21 -22 7 -74 -12 -81 -30
-13 -32 12 -164 43 -228 31 -67 32 -69 17 -113 l-16 -45 295 0 294 0 0 381 0
381 -39 39 -39 39 -117 0 -117 0 -38 -37z m50 -498 c0 -14 -4 -25 -10 -25 -5
0 -10 11 -10 25 0 14 5 25 10 25 6 0 10 -11 10 -25z"/>
</g>
</svg>
