<?xml version="1.0" standalone="no"?>
<!DOCTYPE svg PUBLIC "-//W3C//DTD SVG 20010904//EN"
 "http://www.w3.org/TR/2001/REC-SVG-20010904/DTD/svg10.dtd">
<svg version="1.0" xmlns="http://www.w3.org/2000/svg"
 width="96.000000pt" height="84.000000pt" viewBox="0 0 96.000000 84.000000"
 preserveAspectRatio="xMidYMid meet">
<metadata>
Created by potrace 1.16, written by Peter Selinger 2001-2019
</metadata>
<g transform="translate(0.000000,84.000000) scale(0.100000,-0.100000)"
fill="#000000" stroke="none">
<path d="M623 820 c-34 -20 -63 -66 -63 -99 0 -13 -12 -27 -30 -36 -18 -10
-30 -23 -30 -36 0 -16 -5 -19 -19 -14 -14 4 -23 0 -30 -14 -16 -29 -13 -41 10
-41 11 0 18 -4 15 -9 -3 -5 3 -11 14 -14 11 -3 20 -12 20 -21 0 -9 6 -16 14
-16 7 0 16 -10 20 -22 8 -30 6 -231 -2 -288 -7 -43 -9 -45 -42 -48 -33 -3 -37
1 -68 52 -22 37 -31 62 -27 78 3 13 -1 52 -9 88 -9 36 -16 80 -16 98 0 22 -5
32 -15 32 -12 0 -15 -13 -15 -55 0 -47 -3 -55 -18 -55 -11 0 -26 -8 -35 -18
-20 -22 -34 -82 -19 -82 6 0 18 -21 26 -47 9 -27 25 -61 37 -78 49 -72 60
-104 50 -140 l-9 -35 286 0 287 0 2 357 3 356 -25 43 c-40 68 -76 84 -186 84
-76 0 -100 -4 -126 -20z m37 -516 c0 -10 -21 -24 -36 -24 -2 0 -4 16 -4 35 0
34 1 34 20 18 11 -10 20 -23 20 -29z"/>
</g>
</svg>
