<?xml version="1.0" standalone="no"?>
<!DOCTYPE svg PUBLIC "-//W3C//DTD SVG 20010904//EN"
 "http://www.w3.org/TR/2001/REC-SVG-20010904/DTD/svg10.dtd">
<svg version="1.0" xmlns="http://www.w3.org/2000/svg"
 width="96.000000pt" height="84.000000pt" viewBox="0 0 96.000000 84.000000"
 preserveAspectRatio="xMidYMid meet">
<metadata>
Created by potrace 1.16, written by Peter Selinger 2001-2019
</metadata>
<g transform="translate(0.000000,84.000000) scale(0.100000,-0.100000)"
fill="#000000" stroke="none">
<path d="M760 831 c0 -5 -25 -15 -57 -22 -69 -16 -109 -48 -123 -99 -8 -28
-17 -40 -36 -44 -21 -6 -25 -12 -22 -34 3 -24 0 -27 -27 -27 -25 0 -31 -4 -33
-26 -3 -22 2 -28 23 -33 42 -11 75 -53 75 -95 -1 -48 -17 -174 -32 -238 -10
-49 -14 -53 -39 -53 -23 0 -36 11 -69 55 -22 30 -40 65 -40 79 0 30 -16 73
-33 90 -6 7 -29 32 -50 55 -48 54 -68 49 -27 -6 l31 -41 -26 -28 c-34 -36 -43
-74 -22 -89 9 -6 46 -56 82 -110 58 -87 66 -104 60 -132 l-6 -33 287 0 287 0
-8 53 c-5 28 -8 63 -7 77 1 14 4 149 8 301 l6 276 -36 41 c-20 22 -51 46 -69
53 -17 7 -36 19 -40 26 -9 15 -57 18 -57 4z m-100 -558 c0 -18 -6 -23 -25 -23
-23 0 -25 3 -25 53 l0 52 25 -30 c13 -16 24 -40 25 -52z"/>
</g>
</svg>
