<?xml version="1.0" standalone="no"?>
<!DOCTYPE svg PUBLIC "-//W3C//DTD SVG 20010904//EN"
 "http://www.w3.org/TR/2001/REC-SVG-20010904/DTD/svg10.dtd">
<svg version="1.0" xmlns="http://www.w3.org/2000/svg"
 width="96.000000pt" height="84.000000pt" viewBox="0 0 96.000000 84.000000"
 preserveAspectRatio="xMidYMid meet">
<metadata>
Created by potrace 1.16, written by Peter Selinger 2001-2019
</metadata>
<g transform="translate(0.000000,84.000000) scale(0.100000,-0.100000)"
fill="#000000" stroke="none">
<path d="M660 821 c-45 -24 -69 -57 -77 -106 -3 -22 -13 -48 -21 -58 -8 -9
-20 -27 -27 -40 -6 -12 -19 -21 -30 -20 -22 2 -35 -13 -35 -41 0 -13 5 -17 20
-13 11 3 20 1 20 -4 0 -5 6 -9 13 -9 6 0 22 -15 35 -33 21 -32 22 -38 12 -128
-5 -52 -18 -119 -27 -149 -15 -46 -22 -55 -44 -58 -22 -3 -31 5 -55 45 -23 38
-29 61 -30 108 -2 176 -35 290 -42 147 -2 -47 -7 -62 -18 -62 -33 0 -74 -30
-74 -55 0 -13 4 -26 9 -29 4 -3 11 -22 14 -42 3 -20 29 -74 57 -121 43 -72 50
-89 44 -119 l-6 -34 281 0 281 0 0 381 c0 231 -4 388 -10 399 -5 10 -25 28
-44 39 -46 29 -194 30 -246 2z m-1 -495 c16 -29 11 -71 -9 -71 -11 0 -16 13
-18 48 -3 51 7 61 27 23z"/>
</g>
</svg>
