<?xml version="1.0" standalone="no"?>
<!DOCTYPE svg PUBLIC "-//W3C//DTD SVG 20010904//EN"
 "http://www.w3.org/TR/2001/REC-SVG-20010904/DTD/svg10.dtd">
<svg version="1.0" xmlns="http://www.w3.org/2000/svg"
 width="96.000000pt" height="84.000000pt" viewBox="0 0 96.000000 84.000000"
 preserveAspectRatio="xMidYMid meet">
<metadata>
Created by potrace 1.16, written by Peter Selinger 2001-2019
</metadata>
<g transform="translate(0.000000,84.000000) scale(0.100000,-0.100000)"
fill="#000000" stroke="none">
<path d="M230 823 c0 -39 13 -63 32 -63 11 0 18 -3 16 -7 -2 -5 -10 -20 -18
-36 -12 -24 -11 -29 4 -40 12 -9 20 -37 27 -91 10 -77 9 -80 -16 -106 -19 -20
-25 -36 -25 -72 0 -38 -3 -47 -21 -51 -17 -5 -20 -10 -13 -24 18 -38 6 -108
-35 -201 -61 -139 -73 -132 230 -132 l247 0 -4 62 c-2 39 -17 101 -39 162 -24
67 -34 108 -30 127 5 20 1 31 -15 42 -27 19 -41 65 -45 152 -4 67 11 165 25
165 6 0 24 38 51 108 l9 22 -190 0 c-174 0 -190 -1 -190 -17z m77 -725 c-3 -8
-6 -5 -6 6 -1 11 2 17 5 13 3 -3 4 -12 1 -19z"/>
</g>
</svg>
