<?xml version="1.0" standalone="no"?>
<!DOCTYPE svg PUBLIC "-//W3C//DTD SVG 20010904//EN"
 "http://www.w3.org/TR/2001/REC-SVG-20010904/DTD/svg10.dtd">
<svg version="1.0" xmlns="http://www.w3.org/2000/svg"
 width="96.000000pt" height="84.000000pt" viewBox="0 0 96.000000 84.000000"
 preserveAspectRatio="xMidYMid meet">
<metadata>
Created by potrace 1.16, written by Peter Selinger 2001-2019
</metadata>
<g transform="translate(0.000000,84.000000) scale(0.100000,-0.100000)"
fill="#000000" stroke="none">
<path d="M628 823 c-25 -29 -36 -55 -43 -106 -8 -51 -43 -87 -84 -87 -17 0
-21 -6 -21 -35 0 -28 4 -35 20 -35 11 0 20 -4 20 -10 0 -5 7 -10 15 -10 8 0
15 -4 15 -10 0 -5 10 -18 21 -29 20 -19 21 -27 17 -138 -3 -65 -12 -136 -19
-158 -12 -35 -18 -40 -44 -40 -26 0 -34 7 -58 53 -25 46 -27 57 -18 84 6 17
11 44 11 59 0 16 9 53 21 84 28 76 18 92 -16 25 -34 -68 -30 -63 -52 -52 -38
19 -111 -34 -83 -62 5 -5 10 -34 10 -63 0 -44 8 -68 46 -139 43 -78 46 -89 36
-120 l-10 -34 274 0 274 0 -2 418 -3 417 -156 3 c-138 2 -157 1 -171 -15z m62
-507 c0 -18 -7 -41 -15 -52 -13 -17 -14 -13 -15 45 0 55 2 62 15 51 8 -7 15
-27 15 -44z"/>
</g>
</svg>
