<?xml version="1.0" standalone="no"?>
<!DOCTYPE svg PUBLIC "-//W3C//DTD SVG 20010904//EN"
 "http://www.w3.org/TR/2001/REC-SVG-20010904/DTD/svg10.dtd">
<svg version="1.0" xmlns="http://www.w3.org/2000/svg"
 width="96.000000pt" height="84.000000pt" viewBox="0 0 96.000000 84.000000"
 preserveAspectRatio="xMidYMid meet">
<metadata>
Created by potrace 1.16, written by Peter Selinger 2001-2019
</metadata>
<g transform="translate(0.000000,84.000000) scale(0.100000,-0.100000)"
fill="#000000" stroke="none">
<path d="M638 810 c-12 -17 -23 -40 -25 -53 -7 -54 -16 -69 -51 -90 -20 -12
-42 -21 -48 -19 -15 3 -27 -43 -19 -69 4 -10 15 -19 26 -19 10 0 19 -7 19 -15
0 -8 7 -15 16 -15 9 0 18 -9 21 -19 3 -11 13 -21 23 -24 14 -4 18 -19 23 -83
10 -116 -4 -202 -34 -225 -13 -10 -34 -19 -46 -19 -12 0 -28 -3 -36 -6 -10 -3
-30 14 -60 53 -39 51 -45 66 -51 123 -15 155 -22 194 -33 198 -10 3 -13 -13
-13 -57 0 -58 -1 -61 -24 -61 -42 0 -88 -85 -57 -104 5 -4 16 -26 24 -49 8
-24 45 -84 82 -132 42 -57 65 -96 62 -107 -5 -17 10 -18 259 -18 l264 0 0 420
0 420 -150 0 -149 0 -23 -30z m87 -526 c-9 -60 -25 -41 -25 31 0 45 1 48 16
33 13 -13 15 -26 9 -64z"/>
</g>
</svg>
