<?xml version="1.0" standalone="no"?>
<!DOCTYPE svg PUBLIC "-//W3C//DTD SVG 20010904//EN"
 "http://www.w3.org/TR/2001/REC-SVG-20010904/DTD/svg10.dtd">
<svg version="1.0" xmlns="http://www.w3.org/2000/svg"
 width="96.000000pt" height="84.000000pt" viewBox="0 0 96.000000 84.000000"
 preserveAspectRatio="xMidYMid meet">
<metadata>
Created by potrace 1.16, written by Peter Selinger 2001-2019
</metadata>
<g transform="translate(0.000000,84.000000) scale(0.100000,-0.100000)"
fill="#000000" stroke="none">
<path d="M698 816 c-9 -12 -20 -40 -24 -62 -4 -21 -15 -50 -26 -63 -20 -26
-73 -62 -86 -58 -4 1 -8 -19 -10 -45 -3 -45 -2 -48 21 -48 17 0 26 -7 30 -21
3 -12 10 -18 15 -15 5 3 15 -6 22 -19 7 -14 19 -25 26 -25 6 0 15 -7 18 -16
10 -26 7 -244 -4 -264 -17 -32 -71 -57 -121 -56 -44 1 -48 4 -102 68 -38 44
-57 75 -57 93 0 27 -25 95 -39 105 -4 3 -27 31 -50 63 -24 31 -47 57 -52 57
-17 0 -9 -25 22 -70 28 -41 29 -45 11 -51 -21 -8 -52 -66 -52 -98 0 -12 7 -24
15 -27 8 -3 25 -22 37 -42 12 -21 53 -75 90 -121 37 -47 68 -88 68 -93 0 -4
115 -8 255 -8 l255 0 0 420 0 420 -122 0 c-117 -1 -124 -2 -140 -24z m112
-560 c0 -56 -15 -78 -24 -36 -3 18 -6 48 -6 67 0 30 2 34 15 23 9 -7 15 -29
15 -54z"/>
</g>
</svg>
