<?xml version="1.0" standalone="no"?>
<!DOCTYPE svg PUBLIC "-//W3C//DTD SVG 20010904//EN"
 "http://www.w3.org/TR/2001/REC-SVG-20010904/DTD/svg10.dtd">
<svg version="1.0" xmlns="http://www.w3.org/2000/svg"
 width="96.000000pt" height="84.000000pt" viewBox="0 0 96.000000 84.000000"
 preserveAspectRatio="xMidYMid meet">
<metadata>
Created by potrace 1.16, written by Peter Selinger 2001-2019
</metadata>
<g transform="translate(0.000000,84.000000) scale(0.100000,-0.100000)"
fill="#000000" stroke="none">
<path d="M766 803 c-3 -21 -6 -50 -6 -64 0 -19 -11 -34 -42 -56 -24 -17 -52
-32 -63 -34 -17 -4 -20 -12 -20 -54 0 -46 2 -50 23 -48 16 2 22 -2 22 -17 0
-11 7 -20 15 -20 8 0 22 -11 31 -24 8 -14 25 -26 37 -28 19 -3 23 -11 28 -68
4 -36 7 -99 8 -141 1 -72 0 -76 -31 -106 -47 -43 -75 -56 -136 -59 l-52 -3
-57 73 c-56 74 -57 74 -58 147 -1 52 -8 86 -22 114 -11 22 -30 70 -42 108 -22
65 -41 87 -41 48 0 -11 -5 -21 -11 -23 -8 -3 -5 -22 10 -63 17 -46 19 -60 9
-66 -77 -44 -114 -102 -81 -127 9 -6 27 -38 38 -70 12 -31 49 -94 84 -139 l62
-83 245 0 244 0 0 420 0 420 -94 0 -93 0 -7 -37z m167 -584 c-1 -46 -8 -69
-17 -58 -2 2 -6 36 -10 74 -7 67 -6 69 11 52 13 -13 18 -31 16 -68z"/>
</g>
</svg>
