<?xml version="1.0" standalone="no"?>
<!DOCTYPE svg PUBLIC "-//W3C//DTD SVG 20010904//EN"
 "http://www.w3.org/TR/2001/REC-SVG-20010904/DTD/svg10.dtd">
<svg version="1.0" xmlns="http://www.w3.org/2000/svg"
 width="96.000000pt" height="84.000000pt" viewBox="0 0 96.000000 84.000000"
 preserveAspectRatio="xMidYMid meet">
<metadata>
Created by potrace 1.16, written by Peter Selinger 2001-2019
</metadata>
<g transform="translate(0.000000,84.000000) scale(0.100000,-0.100000)"
fill="#000000" stroke="none">
<path d="M822 804 c-25 -21 -49 -34 -57 -30 -29 11 -61 -65 -50 -121 5 -30 9
-34 30 -29 23 6 41 -15 29 -35 -3 -5 3 -9 13 -9 10 0 28 -16 40 -34 16 -25 28
-33 41 -29 36 9 48 -20 60 -139 7 -63 12 -140 12 -171 0 -48 -3 -58 -22 -68
-13 -6 -35 -24 -49 -39 -36 -39 -96 -68 -149 -71 l-44 -4 -66 95 -67 95 21 34
c14 25 21 56 23 112 2 56 11 102 33 161 35 96 36 98 11 98 -22 0 -36 -15 -46
-50 -4 -14 -18 -49 -31 -79 -23 -50 -25 -53 -42 -38 -15 14 -22 14 -70 -2 -29
-10 -59 -27 -67 -37 -17 -22 -20 -64 -5 -64 6 0 10 -33 11 -77 1 -91 9 -115
69 -205 l45 -68 233 0 232 0 0 420 0 420 -48 0 c-41 0 -55 -5 -90 -36z"/>
</g>
</svg>
