<?xml version="1.0" standalone="no"?>
<!DOCTYPE svg PUBLIC "-//W3C//DTD SVG 20010904//EN"
 "http://www.w3.org/TR/2001/REC-SVG-20010904/DTD/svg10.dtd">
<svg version="1.0" xmlns="http://www.w3.org/2000/svg"
 width="96.000000pt" height="84.000000pt" viewBox="0 0 96.000000 84.000000"
 preserveAspectRatio="xMidYMid meet">
<metadata>
Created by potrace 1.16, written by Peter Selinger 2001-2019
</metadata>
<g transform="translate(0.000000,84.000000) scale(0.100000,-0.100000)"
fill="#000000" stroke="none">
<path d="M330 652 c0 -15 15 -62 34 -107 53 -125 53 -126 16 -119 -34 7 -70
-16 -70 -46 0 -9 -9 -25 -19 -34 -25 -22 -39 -129 -21 -151 7 -9 20 -13 29
-10 13 4 24 -9 44 -50 15 -30 38 -73 52 -95 l25 -40 147 0 147 0 -67 68 -67
68 0 61 c0 80 -32 182 -73 231 -18 21 -55 86 -82 144 -41 89 -52 106 -72 106
-18 0 -23 -6 -23 -26z"/>
</g>
</svg>
