<?xml version="1.0" standalone="no"?>
<!DOCTYPE svg PUBLIC "-//W3C//DTD SVG 20010904//EN"
 "http://www.w3.org/TR/2001/REC-SVG-20010904/DTD/svg10.dtd">
<svg version="1.0" xmlns="http://www.w3.org/2000/svg"
 width="96.000000pt" height="84.000000pt" viewBox="0 0 96.000000 84.000000"
 preserveAspectRatio="xMidYMid meet">
<metadata>
Created by potrace 1.16, written by Peter Selinger 2001-2019
</metadata>
<g transform="translate(0.000000,84.000000) scale(0.100000,-0.100000)"
fill="#000000" stroke="none">
<path d="M641 703 c-5 -27 -20 -92 -32 -145 l-21 -97 -24 16 c-22 14 -26 14
-49 -1 -13 -9 -33 -16 -43 -16 -11 0 -25 -7 -32 -15 -6 -8 -21 -13 -33 -12
-16 2 -25 -9 -41 -47 l-21 -48 23 -18 c17 -14 22 -29 22 -67 0 -69 26 -179 50
-219 l22 -34 144 0 c79 0 144 3 144 6 0 3 -26 35 -57 71 l-56 64 22 47 c27 54
42 204 22 216 -16 11 -14 47 14 194 14 73 23 137 20 142 -3 6 -19 10 -35 10
-25 0 -29 -4 -39 -47z"/>
</g>
</svg>
