<?xml version="1.0" standalone="no"?>
<!DOCTYPE svg PUBLIC "-//W3C//DTD SVG 20010904//EN"
 "http://www.w3.org/TR/2001/REC-SVG-20010904/DTD/svg10.dtd">
<svg version="1.0" xmlns="http://www.w3.org/2000/svg"
 width="96.000000pt" height="84.000000pt" viewBox="0 0 96.000000 84.000000"
 preserveAspectRatio="xMidYMid meet">
<metadata>
Created by potrace 1.16, written by Peter Selinger 2001-2019
</metadata>
<g transform="translate(0.000000,84.000000) scale(0.100000,-0.100000)"
fill="#000000" stroke="none">
<path d="M340 664 c0 -15 14 -69 30 -121 17 -51 30 -98 30 -103 0 -6 -13 -4
-30 5 -34 18 -70 6 -70 -22 0 -9 -11 -29 -25 -43 -21 -22 -27 -40 -32 -99 -6
-70 -6 -71 18 -71 21 0 30 -12 62 -83 63 -138 43 -128 250 -125 l178 3 -99 80
-99 80 -5 80 c-6 92 -33 182 -60 199 -15 9 -63 119 -101 229 -4 9 -16 17 -27
17 -15 0 -20 -7 -20 -26z"/>
</g>
</svg>
