<?xml version="1.0" standalone="no"?>
<!DOCTYPE svg PUBLIC "-//W3C//DTD SVG 20010904//EN"
 "http://www.w3.org/TR/2001/REC-SVG-20010904/DTD/svg10.dtd">
<svg version="1.0" xmlns="http://www.w3.org/2000/svg"
 width="96.000000pt" height="84.000000pt" viewBox="0 0 96.000000 84.000000"
 preserveAspectRatio="xMidYMid meet">
<metadata>
Created by potrace 1.16, written by Peter Selinger 2001-2019
</metadata>
<g transform="translate(0.000000,84.000000) scale(0.100000,-0.100000)"
fill="#000000" stroke="none">
<path d="M247 643 c-15 -14 -5 -34 63 -124 38 -52 70 -97 70 -101 0 -5 -15 -8
-33 -8 -37 0 -57 -15 -57 -42 0 -11 -9 -28 -19 -40 -25 -26 -39 -122 -21 -143
7 -8 22 -15 34 -15 15 -1 35 -24 74 -85 l54 -85 174 0 c96 0 174 2 174 4 0 2
-42 38 -93 80 l-94 77 -10 68 c-12 79 -58 188 -82 196 -9 3 -61 54 -115 115
-99 109 -107 116 -119 103z"/>
</g>
</svg>
