<?xml version="1.0" standalone="no"?>
<!DOCTYPE svg PUBLIC "-//W3C//DTD SVG 20010904//EN"
 "http://www.w3.org/TR/2001/REC-SVG-20010904/DTD/svg10.dtd">
<svg version="1.0" xmlns="http://www.w3.org/2000/svg"
 width="96.000000pt" height="84.000000pt" viewBox="0 0 96.000000 84.000000"
 preserveAspectRatio="xMidYMid meet">
<metadata>
Created by potrace 1.16, written by Peter Selinger 2001-2019
</metadata>
<g transform="translate(0.000000,84.000000) scale(0.100000,-0.100000)"
fill="#000000" stroke="none">
<path d="M264 616 c-7 -19 7 -42 77 -121 44 -51 49 -61 33 -64 -29 -5 -44 -21
-44 -46 0 -12 -9 -30 -19 -39 -14 -12 -22 -38 -26 -81 -8 -75 5 -110 38 -102
18 5 30 -6 65 -56 81 -119 52 -108 277 -105 l197 3 -126 92 -126 93 0 43 c0
44 -24 128 -53 183 -16 31 -61 59 -78 48 -6 -3 -49 30 -97 73 -104 95 -110 99
-118 79z"/>
</g>
</svg>
