<?xml version="1.0" standalone="no"?>
<!DOCTYPE svg PUBLIC "-//W3C//DTD SVG 20010904//EN"
 "http://www.w3.org/TR/2001/REC-SVG-20010904/DTD/svg10.dtd">
<svg version="1.0" xmlns="http://www.w3.org/2000/svg"
 width="96.000000pt" height="84.000000pt" viewBox="0 0 96.000000 84.000000"
 preserveAspectRatio="xMidYMid meet">
<metadata>
Created by potrace 1.16, written by Peter Selinger 2001-2019
</metadata>
<g transform="translate(0.000000,84.000000) scale(0.100000,-0.100000)"
fill="#000000" stroke="none">
<path d="M310 604 c0 -8 25 -42 55 -74 45 -46 53 -59 39 -64 -11 -4 -15 -15
-12 -35 3 -23 0 -31 -15 -35 -17 -4 -19 -11 -14 -44 3 -28 0 -44 -10 -55 -29
-29 15 -124 52 -111 6 2 21 -12 34 -31 13 -20 53 -62 88 -95 l64 -60 184 0
185 0 0 23 c0 18 -27 38 -139 107 l-139 85 -6 55 c-9 72 -49 187 -77 216 -24
26 -59 32 -59 11 0 -7 11 -28 25 -47 14 -19 25 -38 25 -42 0 -5 -56 41 -125
102 -122 107 -155 127 -155 94z"/>
</g>
</svg>
