<?xml version="1.0" standalone="no"?>
<!DOCTYPE svg PUBLIC "-//W3C//DTD SVG 20010904//EN"
 "http://www.w3.org/TR/2001/REC-SVG-20010904/DTD/svg10.dtd">
<svg version="1.0" xmlns="http://www.w3.org/2000/svg"
 width="96.000000pt" height="84.000000pt" viewBox="0 0 96.000000 84.000000"
 preserveAspectRatio="xMidYMid meet">
<metadata>
Created by potrace 1.16, written by Peter Selinger 2001-2019
</metadata>
<g transform="translate(0.000000,84.000000) scale(0.100000,-0.100000)"
fill="#000000" stroke="none">
<path d="M317 523 c-12 -11 -8 -20 32 -68 45 -54 59 -111 29 -118 -20 -6 -23
-29 -8 -57 8 -14 6 -21 -6 -28 -13 -7 -15 -17 -10 -47 6 -29 26 -55 92 -121
l85 -84 215 0 214 0 0 60 c0 69 -4 71 -80 44 l-45 -15 -76 40 c-76 41 -76 41
-83 88 -9 65 -53 198 -76 225 -15 18 -21 20 -31 11 -10 -10 -9 -23 4 -64 10
-29 14 -55 11 -58 -4 -3 -9 -1 -11 6 -2 7 -28 29 -56 50 -29 21 -78 62 -109
90 -55 50 -76 61 -91 46z"/>
</g>
</svg>
