<?xml version="1.0" standalone="no"?>
<!DOCTYPE svg PUBLIC "-//W3C//DTD SVG 20010904//EN"
 "http://www.w3.org/TR/2001/REC-SVG-20010904/DTD/svg10.dtd">
<svg version="1.0" xmlns="http://www.w3.org/2000/svg"
 width="96.000000pt" height="84.000000pt" viewBox="0 0 96.000000 84.000000"
 preserveAspectRatio="xMidYMid meet">
<metadata>
Created by potrace 1.16, written by Peter Selinger 2001-2019
</metadata>
<g transform="translate(0.000000,84.000000) scale(0.100000,-0.100000)"
fill="#000000" stroke="none">
<path d="M835 815 c-35 -34 -35 -92 0 -105 14 -5 25 -17 25 -25 0 -11 6 -15
18 -11 20 7 31 0 60 -38 l22 -29 0 117 0 116 -50 0 c-41 0 -56 -5 -75 -25z"/>
<path d="M290 446 c0 -7 7 -33 15 -56 13 -37 13 -56 4 -126 -16 -111 -8 -127
90 -192 42 -28 90 -56 105 -62 16 -6 117 -10 242 -10 l214 0 0 176 0 175 -22
-7 c-13 -3 -35 -15 -49 -25 -26 -18 -26 -18 -53 9 -14 16 -26 33 -26 40 0 7
-9 12 -20 12 -10 0 -23 7 -28 16 -8 14 -15 5 -41 -42 -38 -71 -119 -174 -138
-174 -7 0 -13 8 -13 18 1 34 -64 224 -78 230 -20 7 -32 -17 -21 -45 10 -27 12
-73 3 -73 -19 0 -64 37 -64 53 0 11 -11 22 -30 29 -17 5 -37 23 -46 39 -15 30
-44 40 -44 15z"/>
</g>
</svg>
