<?xml version="1.0" standalone="no"?>
<!DOCTYPE svg PUBLIC "-//W3C//DTD SVG 20010904//EN"
 "http://www.w3.org/TR/2001/REC-SVG-20010904/DTD/svg10.dtd">
<svg version="1.0" xmlns="http://www.w3.org/2000/svg"
 width="96.000000pt" height="84.000000pt" viewBox="0 0 96.000000 84.000000"
 preserveAspectRatio="xMidYMid meet">
<metadata>
Created by potrace 1.16, written by Peter Selinger 2001-2019
</metadata>
<g transform="translate(0.000000,84.000000) scale(0.100000,-0.100000)"
fill="#000000" stroke="none">
<path d="M700 791 c0 -44 -4 -52 -30 -71 -16 -12 -30 -27 -30 -35 0 -7 -5 -15
-12 -17 -8 -3 -7 -11 5 -29 10 -13 20 -23 22 -21 12 6 24 0 55 -28 30 -27 33
-33 22 -50 -7 -12 -8 -20 -2 -20 5 0 10 -12 10 -26 0 -14 4 -23 10 -19 6 3 10
1 10 -5 0 -7 8 -9 20 -5 28 9 82 -4 77 -18 -2 -6 -23 -19 -48 -28 -59 -21
-138 -76 -151 -105 l-11 -23 -29 37 c-34 43 -97 102 -108 102 -5 0 -19 -16
-31 -36 -21 -34 -23 -35 -30 -17 -19 53 -45 32 -30 -24 12 -44 10 -49 -18 -32
-15 10 -17 16 -9 26 8 10 4 19 -14 38 -37 36 -48 15 -53 -93 -5 -132 3 -145
135 -199 60 -24 114 -53 127 -68 22 -25 22 -25 198 -25 l175 0 0 420 0 420
-130 0 -130 0 0 -49z"/>
</g>
</svg>
