<?xml version="1.0" standalone="no"?>
<!DOCTYPE svg PUBLIC "-//W3C//DTD SVG 20010904//EN"
 "http://www.w3.org/TR/2001/REC-SVG-20010904/DTD/svg10.dtd">
<svg version="1.0" xmlns="http://www.w3.org/2000/svg"
 width="96.000000pt" height="84.000000pt" viewBox="0 0 96.000000 84.000000"
 preserveAspectRatio="xMidYMid meet">
<metadata>
Created by potrace 1.16, written by Peter Selinger 2001-2019
</metadata>
<g transform="translate(0.000000,84.000000) scale(0.100000,-0.100000)"
fill="#000000" stroke="none">
<path d="M595 810 c-8 -16 -15 -51 -15 -78 0 -44 -4 -53 -35 -81 -33 -29 -39
-61 -11 -61 6 0 26 -9 44 -20 26 -16 31 -24 24 -37 -11 -20 4 -73 21 -74 7 0
26 -2 42 -2 43 -3 37 -26 -10 -43 -23 -7 -59 -33 -84 -59 l-43 -46 -65 67
c-35 36 -65 65 -67 63 -2 -2 -16 -24 -31 -49 -15 -25 -54 -73 -87 -106 l-60
-62 38 -5 c22 -2 49 -8 61 -12 18 -6 25 -2 34 19 13 28 29 35 29 11 0 -32 23
-63 51 -69 21 -4 34 -16 46 -42 18 -36 76 -74 115 -74 13 0 18 -8 18 -25 l0
-26 153 3 152 3 5 73 c3 47 10 76 19 81 8 5 11 16 8 25 -4 9 -2 16 3 16 17 0
11 103 -8 140 -12 26 -32 42 -74 62 -56 27 -75 48 -43 48 8 0 23 4 33 9 9 5
25 12 36 15 10 4 16 12 13 20 -3 8 -1 16 4 18 7 2 6 13 -2 31 -10 21 -10 35 0
68 9 30 9 45 2 52 -20 20 -12 29 19 22 l30 -7 0 81 0 81 -175 0 -174 0 -16
-30z"/>
</g>
</svg>
