<?xml version="1.0" standalone="no"?>
<!DOCTYPE svg PUBLIC "-//W3C//DTD SVG 20010904//EN"
 "http://www.w3.org/TR/2001/REC-SVG-20010904/DTD/svg10.dtd">
<svg version="1.0" xmlns="http://www.w3.org/2000/svg"
 width="96.000000pt" height="84.000000pt" viewBox="0 0 96.000000 84.000000"
 preserveAspectRatio="xMidYMid meet">
<metadata>
Created by potrace 1.16, written by Peter Selinger 2001-2019
</metadata>
<g transform="translate(0.000000,84.000000) scale(0.100000,-0.100000)"
fill="#000000" stroke="none">
<path d="M645 833 c-83 -19 -97 -26 -115 -56 -12 -20 -20 -50 -20 -79 0 -40
-4 -50 -31 -71 -29 -23 -30 -25 -13 -41 9 -10 27 -24 40 -33 18 -11 23 -23 21
-47 -3 -38 10 -54 53 -58 46 -4 49 -24 4 -32 -24 -5 -48 -21 -74 -49 -37 -40
-39 -41 -58 -24 -10 9 -23 17 -28 17 -5 0 -29 18 -53 41 -24 22 -44 39 -46 37
-1 -2 -15 -25 -30 -52 -16 -27 -54 -74 -84 -103 l-54 -54 39 1 c21 1 51 -2 66
-6 23 -5 28 -3 34 20 5 20 9 24 19 16 9 -8 15 -7 18 2 6 13 7 13 35 -31 7 -10
14 -10 29 -2 17 8 22 6 32 -15 6 -14 11 -42 11 -62 0 -61 42 -84 73 -40 15 22
16 21 16 -29 1 -28 -3 -55 -9 -58 -29 -18 1 -25 110 -25 90 0 120 3 120 13 0
7 10 17 23 22 19 9 22 19 25 70 2 32 8 66 15 74 7 8 11 22 9 33 -2 10 0 18 5
18 13 0 76 -40 106 -68 l27 -26 0 67 c0 74 6 69 -79 71 -31 1 -36 5 -42 33
-10 51 -34 78 -83 97 -47 18 -61 36 -27 36 10 0 21 6 24 14 4 9 14 12 26 9 15
-4 20 1 23 19 2 12 0 32 -5 44 -6 14 -4 33 7 57 9 22 11 39 5 42 -5 4 -9 13
-9 20 0 11 6 12 26 5 34 -13 44 -6 44 33 0 27 5 35 30 44 l30 11 -25 28 c-14
15 -28 38 -31 51 -8 29 -53 32 -78 4 -18 -19 -18 -19 -49 0 -31 18 -60 22
-102 12z"/>
</g>
</svg>
