<?xml version="1.0" standalone="no"?>
<!DOCTYPE svg PUBLIC "-//W3C//DTD SVG 20010904//EN"
 "http://www.w3.org/TR/2001/REC-SVG-20010904/DTD/svg10.dtd">
<svg version="1.0" xmlns="http://www.w3.org/2000/svg"
 width="96.000000pt" height="84.000000pt" viewBox="0 0 96.000000 84.000000"
 preserveAspectRatio="xMidYMid meet">
<metadata>
Created by potrace 1.16, written by Peter Selinger 2001-2019
</metadata>
<g transform="translate(0.000000,84.000000) scale(0.100000,-0.100000)"
fill="#000000" stroke="none">
<path d="M737 785 l-27 -24 -35 20 c-29 17 -44 20 -87 14 -95 -13 -128 -47
-128 -130 0 -19 -8 -39 -20 -50 -28 -25 -25 -48 10 -68 32 -19 37 -36 18 -55
-9 -9 -9 -12 1 -12 7 0 10 -3 8 -7 -9 -15 23 -33 65 -36 29 -2 20 -16 -14 -22
-33 -6 -108 -66 -108 -85 0 -6 -4 -10 -10 -10 -10 0 -106 81 -126 106 -10 12
-20 3 -58 -50 -25 -35 -65 -80 -88 -100 l-43 -36 45 1 c25 1 55 -1 67 -6 16
-5 23 -2 27 13 8 25 53 24 71 -2 9 -12 20 -15 39 -10 41 10 68 -20 64 -69 -2
-31 2 -42 19 -54 20 -13 23 -13 37 14 l15 28 0 -35 c0 -19 -8 -54 -19 -78
l-19 -42 124 0 c102 0 125 3 125 14 0 8 -4 18 -10 21 -16 10 -12 35 5 35 20 0
35 40 35 90 0 21 5 42 11 45 6 4 8 13 5 21 -3 7 -1 16 3 18 10 7 89 -44 115
-72 23 -27 35 -27 75 -4 29 16 31 21 31 76 0 52 -2 57 -17 50 -10 -5 -54 -8
-97 -9 l-79 0 -17 49 c-14 43 -21 50 -60 65 -44 16 -73 50 -31 36 14 -4 23 -1
27 9 3 9 15 16 26 16 14 0 18 5 14 15 -3 8 -1 15 4 15 6 0 5 8 -2 19 -10 16
-9 27 4 54 15 32 15 36 0 52 -16 17 -16 17 3 13 11 -3 27 -7 35 -9 11 -3 16 6
18 28 3 25 9 34 28 39 29 7 30 15 4 39 -11 10 -22 33 -26 51 -7 40 -19 42 -57
9z"/>
</g>
</svg>
