<?xml version="1.0" standalone="no"?>
<!DOCTYPE svg PUBLIC "-//W3C//DTD SVG 20010904//EN"
 "http://www.w3.org/TR/2001/REC-SVG-20010904/DTD/svg10.dtd">
<svg version="1.0" xmlns="http://www.w3.org/2000/svg"
 width="96.000000pt" height="84.000000pt" viewBox="0 0 96.000000 84.000000"
 preserveAspectRatio="xMidYMid meet">
<metadata>
Created by potrace 1.16, written by Peter Selinger 2001-2019
</metadata>
<g transform="translate(0.000000,84.000000) scale(0.100000,-0.100000)"
fill="#000000" stroke="none">
<path d="M276 818 c14 -49 33 -88 42 -88 10 0 9 -9 -6 -120 -5 -36 -6 -75 -1
-86 7 -19 -7 -86 -28 -134 -3 -8 -5 -40 -4 -70 2 -40 -5 -74 -24 -125 -17 -43
-28 -94 -30 -132 l-2 -63 48 0 c45 0 48 2 58 33 19 60 31 150 31 231 0 64 2
77 13 67 17 -17 13 -175 -6 -221 -8 -19 -17 -52 -21 -72 l-7 -38 154 0 c174 0
177 1 177 71 0 24 0 51 1 59 0 8 -14 53 -31 100 -23 63 -29 96 -26 127 4 29 1
43 -8 46 -7 3 -17 26 -20 52 -5 29 -14 50 -27 58 -10 6 -19 20 -19 29 0 10 -7
18 -15 18 -12 0 -11 9 8 48 12 26 27 51 34 55 9 5 10 15 3 33 -14 36 -12 44 9
44 14 0 21 9 26 33 4 17 9 40 11 50 5 16 -8 17 -171 17 l-176 0 7 -22z"/>
</g>
</svg>
