<?xml version="1.0" standalone="no"?>
<!DOCTYPE svg PUBLIC "-//W3C//DTD SVG 20010904//EN"
 "http://www.w3.org/TR/2001/REC-SVG-20010904/DTD/svg10.dtd">
<svg version="1.0" xmlns="http://www.w3.org/2000/svg"
 width="96.000000pt" height="84.000000pt" viewBox="0 0 96.000000 84.000000"
 preserveAspectRatio="xMidYMid meet">
<metadata>
Created by potrace 1.16, written by Peter Selinger 2001-2019
</metadata>
<g transform="translate(0.000000,84.000000) scale(0.100000,-0.100000)"
fill="#000000" stroke="none">
<path d="M513 761 c-23 -4 -48 -13 -57 -20 -20 -17 -39 -77 -33 -102 3 -13 -2
-28 -14 -40 -26 -26 -21 -50 14 -67 22 -11 25 -16 17 -32 -11 -20 -3 -53 10
-45 5 3 14 -1 22 -8 7 -8 20 -16 28 -19 10 -4 4 -8 -15 -13 -36 -9 -62 -31
-81 -67 -20 -38 -44 -35 -97 10 -73 62 -89 74 -91 70 -30 -50 -72 -101 -118
-142 l-58 -51 66 0 c60 0 68 2 77 23 10 23 27 30 27 11 0 -6 8 -8 19 -4 13 4
24 -1 34 -15 13 -19 18 -20 37 -10 19 10 27 9 50 -8 21 -16 30 -18 40 -9 13
12 12 10 -4 -49 -7 -25 16 -49 39 -40 20 7 20 -23 -1 -68 -29 -60 -19 -66 104
-66 l109 0 -3 28 c-2 15 -6 39 -9 53 -6 21 -3 27 14 32 18 4 21 13 21 55 0 28
4 53 10 57 5 3 7 12 3 20 -12 32 39 11 100 -41 37 -31 39 -32 67 -16 25 15 29
15 55 -2 25 -17 28 -17 46 0 16 14 19 31 19 96 0 43 -3 78 -6 78 -3 0 -31 -16
-62 -35 -52 -31 -63 -34 -122 -31 l-65 3 -13 38 c-17 52 -27 62 -67 69 -38 7
-49 36 -15 36 11 0 23 7 26 15 4 8 10 13 15 10 14 -9 32 34 20 49 -7 8 -6 21
5 40 11 23 12 32 2 44 -11 14 -10 15 7 8 36 -13 40 -11 43 22 2 24 8 32 23 32
23 0 25 13 4 30 -8 7 -17 27 -21 46 -7 39 -21 42 -58 13 -25 -20 -28 -20 -45
-5 -22 20 -64 26 -118 17z"/>
</g>
</svg>
