<?xml version="1.0" standalone="no"?>
<!DOCTYPE svg PUBLIC "-//W3C//DTD SVG 20010904//EN"
 "http://www.w3.org/TR/2001/REC-SVG-20010904/DTD/svg10.dtd">
<svg version="1.0" xmlns="http://www.w3.org/2000/svg"
 width="96.000000pt" height="84.000000pt" viewBox="0 0 96.000000 84.000000"
 preserveAspectRatio="xMidYMid meet">
<metadata>
Created by potrace 1.16, written by Peter Selinger 2001-2019
</metadata>
<g transform="translate(0.000000,84.000000) scale(0.100000,-0.100000)"
fill="#000000" stroke="none">
<path d="M432 753 c-21 -8 -42 -59 -42 -102 0 -26 -5 -43 -16 -49 -22 -12 -14
-45 14 -57 25 -11 27 -18 12 -46 -8 -13 -7 -19 0 -19 6 0 8 -5 4 -12 -4 -6 -3
-9 2 -6 13 8 54 -9 54 -22 0 -5 -11 -10 -24 -10 -25 0 -66 -41 -66 -66 0 -18
-29 -32 -54 -26 -18 5 -79 47 -134 93 -7 6 -14 9 -16 8 -1 -2 -16 -26 -34 -54
-17 -27 -54 -72 -82 -100 -27 -27 -50 -53 -50 -57 0 -4 14 -2 30 4 17 6 44 8
60 4 26 -5 32 -1 46 25 12 24 18 28 29 19 10 -8 14 -8 17 1 3 9 12 5 27 -10
19 -19 27 -21 45 -13 15 7 28 5 48 -6 25 -15 29 -14 47 2 19 17 21 17 27 2 4
-9 4 -32 1 -51 -4 -23 -1 -38 9 -46 17 -14 18 -41 3 -56 -6 -6 -12 -31 -14
-57 l-3 -46 120 0 119 0 -12 22 c-7 13 -12 35 -11 50 1 15 -2 29 -8 33 -5 3
-10 14 -10 23 0 13 8 18 28 17 26 0 27 3 29 50 5 102 5 102 70 49 41 -34 47
-35 69 -23 21 11 29 10 52 -3 23 -14 30 -14 37 -3 15 21 55 29 55 12 0 -13 4
-13 25 -4 23 11 25 17 25 77 0 54 -4 70 -25 95 -13 17 -24 25 -25 19 0 -6 -32
-30 -71 -53 -58 -35 -79 -42 -113 -40 -23 2 -47 -1 -54 -5 -8 -5 -15 3 -22 21
-21 61 -35 77 -73 86 -40 10 -45 30 -9 35 12 2 22 7 22 12 0 5 9 11 19 15 18
6 22 27 8 41 -4 4 0 18 9 31 13 20 13 27 2 41 -11 14 -10 15 7 8 35 -13 40
-11 40 17 -1 20 4 27 18 27 11 0 17 5 13 13 -2 6 -10 30 -17 52 -7 22 -14 42
-15 44 -2 2 -18 -5 -37 -16 -33 -20 -34 -20 -56 -2 -17 14 -39 19 -80 18 -31
0 -62 -3 -69 -6z"/>
</g>
</svg>
