<?xml version="1.0" standalone="no"?>
<!DOCTYPE svg PUBLIC "-//W3C//DTD SVG 20010904//EN"
 "http://www.w3.org/TR/2001/REC-SVG-20010904/DTD/svg10.dtd">
<svg version="1.0" xmlns="http://www.w3.org/2000/svg"
 width="96.000000pt" height="84.000000pt" viewBox="0 0 96.000000 84.000000"
 preserveAspectRatio="xMidYMid meet">
<metadata>
Created by potrace 1.16, written by Peter Selinger 2001-2019
</metadata>
<g transform="translate(0.000000,84.000000) scale(0.100000,-0.100000)"
fill="#000000" stroke="none">
<path d="M394 724 c-10 -14 -18 -41 -19 -60 -2 -22 -11 -43 -25 -56 l-23 -22
28 -23 c21 -18 26 -29 21 -48 -5 -20 -1 -27 19 -37 14 -6 25 -15 25 -20 0 -4
8 -8 18 -9 9 -1 -1 -6 -23 -13 -32 -10 -44 -20 -60 -54 -17 -38 -23 -42 -55
-42 -32 0 -87 31 -158 91 -7 6 -15 9 -16 8 -2 -2 -17 -24 -33 -49 -17 -25 -45
-58 -62 -74 -34 -33 -42 -72 -13 -72 9 0 27 -4 38 -7 17 -6 24 -2 34 23 13 32
25 38 33 18 4 -10 8 -10 15 1 8 11 14 9 31 -8 18 -18 24 -19 46 -9 21 9 28 8
45 -7 19 -17 20 -16 51 9 30 25 32 26 44 9 15 -23 27 -136 16 -149 -5 -5 -11
-27 -13 -49 -3 -22 -8 -48 -12 -57 -8 -17 1 -18 114 -18 l121 0 -7 23 c-5 12
-8 34 -9 49 0 14 -3 30 -7 34 -5 4 -8 26 -7 48 0 36 1 38 10 17 6 -15 14 -21
25 -17 9 3 18 6 20 6 2 0 4 25 4 55 0 63 10 68 51 29 25 -24 28 -25 51 -10 22
14 26 14 46 0 20 -14 24 -14 44 0 29 21 48 20 48 -1 0 -15 2 -14 20 2 19 17
20 16 41 -19 27 -47 43 -42 47 16 3 41 -2 52 -50 116 -39 52 -55 67 -63 58 -5
-7 -38 -29 -73 -50 -54 -32 -68 -37 -101 -31 -33 5 -41 12 -57 48 -15 33 -27
43 -62 55 -42 14 -49 32 -11 32 10 0 19 5 19 10 0 6 7 10 15 10 15 0 19 11 15
39 -1 8 4 25 11 37 10 19 9 26 -1 39 -8 9 -8 15 -2 15 6 0 14 -5 17 -10 9 -15
25 -2 25 22 0 11 8 22 20 25 18 5 18 7 5 34 -8 15 -15 37 -15 49 0 26 -22 26
-45 0 l-18 -20 -22 20 c-17 16 -35 20 -88 20 -60 0 -68 -2 -83 -26z"/>
</g>
</svg>
