<?xml version="1.0" standalone="no"?>
<!DOCTYPE svg PUBLIC "-//W3C//DTD SVG 20010904//EN"
 "http://www.w3.org/TR/2001/REC-SVG-20010904/DTD/svg10.dtd">
<svg version="1.0" xmlns="http://www.w3.org/2000/svg"
 width="96.000000pt" height="84.000000pt" viewBox="0 0 96.000000 84.000000"
 preserveAspectRatio="xMidYMid meet">
<metadata>
Created by potrace 1.16, written by Peter Selinger 2001-2019
</metadata>
<g transform="translate(0.000000,84.000000) scale(0.100000,-0.100000)"
fill="#000000" stroke="none">
<path d="M405 717 c-18 -15 -28 -36 -32 -67 -4 -27 -14 -51 -27 -61 -20 -16
-20 -16 8 -43 23 -21 26 -29 17 -40 -10 -11 -7 -19 11 -36 13 -12 32 -26 43
-30 22 -9 16 -13 -36 -24 -24 -5 -34 -20 -52 -77 -4 -12 -15 -14 -58 -9 -50 5
-84 24 -165 89 -8 6 -28 -12 -63 -55 -39 -50 -51 -72 -51 -100 0 -48 25 -56
56 -18 20 24 25 27 34 14 8 -12 12 -12 18 -2 10 15 38 6 46 -14 5 -13 8 -13
28 0 19 14 24 14 48 -1 26 -15 29 -14 71 16 l44 32 6 -23 c4 -13 7 -40 8 -60
1 -20 6 -40 11 -43 14 -9 13 -31 -3 -47 -6 -7 -13 -26 -13 -43 -1 -16 -5 -40
-9 -52 -7 -23 -7 -23 109 -23 114 0 116 0 106 20 -6 12 -8 29 -5 39 3 10 1 29
-5 42 -7 16 -8 37 -1 64 7 32 9 35 10 13 1 -33 17 -44 37 -27 11 9 15 26 12
56 -2 24 -1 43 1 43 3 0 15 -10 28 -22 20 -19 26 -20 48 -8 20 11 28 10 49 -3
21 -14 25 -14 30 -2 7 18 52 20 59 3 4 -10 6 -10 6 0 2 22 26 13 42 -17 16
-27 18 -28 53 -17 43 13 49 45 13 68 -12 9 -42 43 -67 77 -42 57 -60 73 -60
52 0 -5 -9 -13 -21 -16 -12 -4 -37 -18 -56 -31 -37 -25 -113 -34 -113 -13 0
34 -34 79 -68 90 -50 15 -63 29 -29 29 15 0 27 5 27 10 0 6 6 10 14 10 18 0
27 25 14 38 -7 7 -3 17 12 32 17 17 19 24 9 36 -9 11 -8 14 10 14 14 0 21 6
21 20 0 10 7 23 16 28 15 9 15 13 -1 56 l-18 47 -24 -22 c-22 -21 -24 -22 -36
-5 -12 17 -71 35 -114 36 -12 0 -34 -10 -48 -23z"/>
</g>
</svg>
