<?xml version="1.0" standalone="no"?>
<!DOCTYPE svg PUBLIC "-//W3C//DTD SVG 20010904//EN"
 "http://www.w3.org/TR/2001/REC-SVG-20010904/DTD/svg10.dtd">
<svg version="1.0" xmlns="http://www.w3.org/2000/svg"
 width="96.000000pt" height="84.000000pt" viewBox="0 0 96.000000 84.000000"
 preserveAspectRatio="xMidYMid meet">
<metadata>
Created by potrace 1.16, written by Peter Selinger 2001-2019
</metadata>
<g transform="translate(0.000000,84.000000) scale(0.100000,-0.100000)"
fill="#000000" stroke="none">
<path d="M412 713 c-18 -7 -42 -58 -42 -90 0 -17 -9 -36 -22 -47 l-22 -19 23
-18 c17 -14 22 -25 17 -42 -6 -25 19 -54 59 -72 17 -6 12 -10 -27 -22 -43 -13
-49 -18 -58 -53 l-10 -38 -56 3 c-44 3 -67 11 -112 41 -31 21 -62 44 -68 51
-9 10 -20 1 -53 -43 -40 -53 -42 -59 -39 -118 l3 -61 24 38 c17 27 27 35 35
28 9 -7 16 -7 24 1 9 9 18 6 37 -12 19 -18 28 -21 37 -12 16 16 38 15 58 -3
14 -13 21 -11 65 21 l49 34 13 -22 c7 -13 12 -40 13 -60 0 -20 4 -39 9 -42 11
-7 2 -48 -12 -57 -5 -4 -10 -27 -11 -53 l-2 -46 102 0 102 0 4 36 c2 19 0 37
-4 40 -4 3 -8 38 -7 77 l1 72 11 -42 c7 -23 15 -45 19 -49 15 -14 38 19 38 54
0 32 1 34 13 18 13 -17 15 -18 38 -2 22 13 28 14 44 2 16 -11 23 -11 48 3 23
13 30 13 34 3 4 -10 8 -10 18 -2 11 9 17 5 28 -16 13 -25 20 -27 71 -28 31 -1
56 1 56 3 0 2 -25 30 -55 62 -30 33 -66 80 -81 105 -21 36 -28 42 -38 31 -17
-22 -121 -77 -144 -77 -14 0 -24 10 -32 34 -13 39 -34 60 -74 73 -35 11 -48
34 -17 28 12 -2 21 0 21 6 0 5 6 9 14 9 16 0 28 24 20 44 -3 7 2 21 11 30 9 9
14 24 11 32 -4 12 -2 15 9 10 11 -4 15 1 15 19 0 19 5 25 21 25 16 0 19 4 14
18 -4 9 -12 31 -19 47 -6 17 -12 32 -13 34 -2 2 -13 -4 -24 -15 -16 -14 -23
-16 -26 -6 -11 31 -114 54 -161 35z"/>
</g>
</svg>
