<?xml version="1.0" standalone="no"?>
<!DOCTYPE svg PUBLIC "-//W3C//DTD SVG 20010904//EN"
 "http://www.w3.org/TR/2001/REC-SVG-20010904/DTD/svg10.dtd">
<svg version="1.0" xmlns="http://www.w3.org/2000/svg"
 width="96.000000pt" height="84.000000pt" viewBox="0 0 96.000000 84.000000"
 preserveAspectRatio="xMidYMid meet">
<metadata>
Created by potrace 1.16, written by Peter Selinger 2001-2019
</metadata>
<g transform="translate(0.000000,84.000000) scale(0.100000,-0.100000)"
fill="#000000" stroke="none">
<path d="M412 724 c-18 -8 -42 -59 -42 -90 0 -15 -10 -39 -22 -52 l-23 -24 23
-19 c19 -15 22 -24 17 -49 -5 -24 -3 -30 10 -30 8 0 18 -7 22 -16 3 -8 12 -13
19 -10 8 3 14 -1 14 -9 0 -8 -9 -15 -19 -15 -37 0 -53 -13 -72 -57 -14 -33
-23 -43 -35 -39 -9 3 -32 6 -53 6 -35 0 -78 26 -167 99 -7 6 -23 -7 -48 -40
-33 -45 -36 -54 -36 -116 l1 -68 20 38 c17 33 23 36 35 26 13 -10 17 -10 24 1
7 12 13 10 34 -9 20 -19 28 -21 46 -11 17 9 26 8 45 -4 23 -15 27 -14 72 14
41 26 88 42 70 24 -3 -4 -3 -14 2 -23 5 -9 11 -46 15 -84 6 -57 4 -67 -9 -67
-13 0 -14 -4 -5 -20 8 -15 7 -27 -5 -50 l-16 -30 111 0 111 0 -5 108 c-4 70
-3 96 3 74 12 -47 25 -57 45 -36 12 11 15 25 11 45 -6 27 9 43 17 18 2 -7 12
-7 32 2 22 10 31 10 48 0 13 -8 23 -9 32 -2 6 5 26 9 44 9 24 -1 36 -8 46 -26
10 -20 21 -25 57 -26 24 -1 53 -6 64 -11 11 -5 -2 17 -32 50 -28 33 -67 85
-85 116 l-34 56 -63 -39 c-84 -51 -111 -50 -133 3 -13 31 -26 44 -58 56 -22 9
-40 22 -40 29 0 7 6 11 14 8 23 -9 67 26 61 46 -3 10 2 25 11 34 9 9 13 23 10
31 -3 9 0 12 10 8 10 -4 14 2 14 22 0 22 3 25 20 20 19 -6 19 -5 5 29 -8 19
-15 45 -15 57 0 20 -1 20 -23 6 -22 -14 -26 -14 -48 8 -17 17 -40 25 -79 29
-30 3 -61 3 -68 0z"/>
</g>
</svg>
