<?xml version="1.0" standalone="no"?>
<!DOCTYPE svg PUBLIC "-//W3C//DTD SVG 20010904//EN"
 "http://www.w3.org/TR/2001/REC-SVG-20010904/DTD/svg10.dtd">
<svg version="1.0" xmlns="http://www.w3.org/2000/svg"
 width="96.000000pt" height="84.000000pt" viewBox="0 0 96.000000 84.000000"
 preserveAspectRatio="xMidYMid meet">
<metadata>
Created by potrace 1.16, written by Peter Selinger 2001-2019
</metadata>
<g transform="translate(0.000000,84.000000) scale(0.100000,-0.100000)"
fill="#000000" stroke="none">
<path d="M400 712 c-21 -22 -30 -40 -30 -64 0 -21 -7 -40 -20 -51 -26 -22 -25
-32 2 -51 19 -13 20 -19 10 -40 -10 -23 -8 -27 17 -46 16 -11 34 -20 40 -20 6
0 11 -4 11 -9 0 -11 -25 -21 -51 -21 -18 0 -49 -45 -49 -73 0 -22 -19 -26 -78
-16 -39 6 -66 19 -104 48 -28 23 -55 41 -59 41 -5 0 -9 7 -9 15 0 25 -13 16
-47 -31 -29 -39 -33 -52 -33 -107 l0 -62 18 27 c17 26 19 27 35 11 11 -11 17
-13 17 -5 0 19 28 14 41 -7 10 -15 17 -16 40 -8 23 9 32 8 48 -7 19 -17 21
-17 63 11 66 45 75 46 82 11 3 -17 6 -45 6 -64 0 -18 5 -36 10 -39 15 -9 12
-45 -5 -51 -11 -5 -12 -11 -5 -25 8 -14 6 -27 -5 -49 l-16 -30 115 0 c103 0
114 2 111 17 -22 111 -25 145 -16 160 9 16 10 14 11 -8 0 -15 6 -29 14 -32 24
-9 39 20 33 64 -5 38 -4 40 13 24 14 -13 22 -14 44 -4 22 10 29 9 45 -5 16
-14 20 -15 30 -2 7 9 29 15 51 14 34 0 40 -4 49 -29 9 -25 14 -29 35 -23 14 3
40 1 57 -5 18 -6 35 -9 38 -6 2 3 -18 29 -47 58 -28 28 -66 78 -85 109 -29 49
-37 56 -47 43 -7 -8 -18 -15 -24 -15 -6 0 -28 -11 -48 -25 -44 -30 -96 -33
-105 -7 -14 38 -45 71 -73 77 -17 4 -30 13 -30 21 0 8 3 13 8 13 33 -6 78 23
66 42 -6 11 4 49 14 48 19 -3 22 3 11 24 -11 20 -11 21 4 8 15 -12 17 -11 17
13 0 19 5 26 19 26 18 0 18 2 2 48 -9 26 -17 48 -17 50 -1 2 -11 -2 -21 -9
-17 -10 -23 -8 -46 15 -16 15 -37 26 -54 26 -15 0 -38 3 -50 6 -16 5 -30 -2
-53 -24z"/>
</g>
</svg>
