<?xml version="1.0" standalone="no"?>
<!DOCTYPE svg PUBLIC "-//W3C//DTD SVG 20010904//EN"
 "http://www.w3.org/TR/2001/REC-SVG-20010904/DTD/svg10.dtd">
<svg version="1.0" xmlns="http://www.w3.org/2000/svg"
 width="96.000000pt" height="84.000000pt" viewBox="0 0 96.000000 84.000000"
 preserveAspectRatio="xMidYMid meet">
<metadata>
Created by potrace 1.16, written by Peter Selinger 2001-2019
</metadata>
<g transform="translate(0.000000,84.000000) scale(0.100000,-0.100000)"
fill="#000000" stroke="none">
<path d="M391 714 c-12 -15 -22 -36 -23 -48 0 -11 -2 -26 -2 -32 -1 -6 -9 -19
-19 -28 -22 -23 -22 -38 3 -59 17 -14 19 -21 9 -38 -9 -18 -7 -25 15 -45 14
-13 32 -24 41 -24 29 0 15 -19 -20 -26 -37 -7 -65 -35 -65 -66 0 -24 -18 -32
-63 -29 -52 3 -75 13 -127 56 -25 20 -52 42 -61 49 -14 12 -21 8 -48 -27 -27
-36 -31 -48 -30 -101 0 -51 2 -57 11 -38 12 24 23 28 34 11 5 -8 9 -8 14 1 9
14 50 -3 50 -21 0 -6 14 -7 35 -3 27 5 41 2 55 -11 18 -16 21 -16 57 13 45 36
78 45 78 20 0 -9 4 -20 8 -24 4 -4 7 -25 7 -46 0 -21 6 -47 13 -59 10 -17 9
-22 -7 -34 -15 -12 -17 -17 -7 -29 10 -12 9 -21 -4 -45 l-16 -31 114 0 114 0
-9 47 c-5 27 -11 73 -13 103 -4 48 -3 51 5 23 13 -39 26 -49 46 -32 11 9 13
23 8 57 l-7 44 24 -15 c21 -14 26 -14 43 -1 17 12 23 12 44 -2 15 -10 27 -12
31 -6 10 16 51 25 51 11 0 -10 3 -10 12 -1 18 18 24 15 38 -18 11 -26 17 -29
49 -27 20 1 46 -2 59 -6 34 -13 27 4 -29 63 -29 30 -65 76 -81 102 l-29 47
-75 -39 c-41 -22 -83 -40 -93 -40 -12 0 -28 15 -42 40 -15 27 -34 44 -62 55
-38 15 -43 24 -15 29 33 6 58 18 53 27 -4 5 -1 9 6 9 8 0 8 4 1 13 -12 14 10
52 23 39 4 -4 6 5 3 20 -4 19 -1 25 9 21 8 -3 13 2 13 16 0 14 6 21 20 21 24
0 24 -1 5 44 -8 19 -15 39 -14 43 3 21 -3 22 -27 7 -24 -16 -26 -16 -40 4 -16
23 -70 42 -121 42 -22 0 -38 -8 -52 -26z"/>
</g>
</svg>
