<?xml version="1.0" standalone="no"?>
<!DOCTYPE svg PUBLIC "-//W3C//DTD SVG 20010904//EN"
 "http://www.w3.org/TR/2001/REC-SVG-20010904/DTD/svg10.dtd">
<svg version="1.0" xmlns="http://www.w3.org/2000/svg"
 width="96.000000pt" height="84.000000pt" viewBox="0 0 96.000000 84.000000"
 preserveAspectRatio="xMidYMid meet">
<metadata>
Created by potrace 1.16, written by Peter Selinger 2001-2019
</metadata>
<g transform="translate(0.000000,84.000000) scale(0.100000,-0.100000)"
fill="#000000" stroke="none">
<path d="M396 707 c-14 -14 -28 -42 -32 -63 -4 -21 -16 -46 -28 -55 l-21 -17
23 -31 c15 -20 20 -39 17 -53 -5 -19 2 -28 36 -50 l41 -27 -42 -11 c-36 -10
-44 -17 -61 -57 -16 -39 -22 -44 -42 -39 -12 3 -34 6 -48 6 -23 0 -142 83
-160 112 -3 5 -22 -11 -42 -36 -33 -40 -37 -50 -37 -103 l1 -58 16 29 c15 29
16 29 30 10 12 -16 15 -17 23 -4 8 12 12 11 32 -7 16 -15 31 -20 51 -16 18 4
34 0 46 -11 18 -17 21 -16 62 13 45 33 85 42 76 16 -4 -8 -2 -17 3 -20 6 -4
10 -28 10 -56 0 -27 5 -49 10 -49 16 0 11 -37 -6 -44 -13 -5 -14 -9 -4 -20 8
-11 8 -20 1 -35 -6 -11 -11 -22 -11 -25 0 -3 48 -6 106 -6 l106 0 -6 48 c-4
26 -9 70 -11 97 -4 44 -3 46 5 18 13 -40 28 -50 46 -31 12 11 13 24 6 56 -11
49 -6 58 20 35 16 -14 22 -15 39 -4 17 10 25 10 42 -2 18 -12 25 -11 51 1 22
12 31 12 34 3 3 -9 7 -9 18 0 17 14 40 -1 50 -33 5 -16 12 -19 35 -14 16 3 40
1 54 -4 42 -16 30 13 -29 73 -30 30 -68 75 -84 101 -25 39 -31 44 -42 31 -7
-8 -18 -15 -24 -15 -6 0 -28 -11 -48 -25 -22 -15 -51 -25 -71 -25 -29 0 -38 6
-55 34 -13 21 -34 39 -56 47 -38 14 -48 29 -18 29 30 0 63 30 57 50 -4 12 2
24 16 34 13 9 19 21 16 30 -4 10 -1 16 8 16 8 0 15 9 15 20 0 14 7 20 21 20
16 0 19 4 14 18 -16 38 -24 75 -19 83 9 15 -6 10 -36 -11 -23 -16 -29 -17 -33
-6 -9 24 -48 43 -99 51 -42 5 -51 3 -72 -18z"/>
</g>
</svg>
