<?xml version="1.0" standalone="no"?>
<!DOCTYPE svg PUBLIC "-//W3C//DTD SVG 20010904//EN"
 "http://www.w3.org/TR/2001/REC-SVG-20010904/DTD/svg10.dtd">
<svg version="1.0" xmlns="http://www.w3.org/2000/svg"
 width="96.000000pt" height="84.000000pt" viewBox="0 0 96.000000 84.000000"
 preserveAspectRatio="xMidYMid meet">
<metadata>
Created by potrace 1.16, written by Peter Selinger 2001-2019
</metadata>
<g transform="translate(0.000000,84.000000) scale(0.100000,-0.100000)"
fill="#000000" stroke="none">
<path d="M396 701 c-10 -11 -20 -39 -23 -63 -3 -27 -13 -49 -27 -60 l-21 -17
24 -25 c19 -20 22 -28 12 -40 -9 -11 -7 -19 12 -40 13 -14 32 -26 41 -26 28 0
13 -22 -23 -34 -35 -11 -44 -22 -60 -67 -9 -25 -13 -26 -58 -21 -54 6 -63 10
-134 76 -28 26 -52 46 -53 44 -1 -2 -21 -26 -44 -54 -36 -44 -42 -59 -42 -98
0 -53 19 -62 39 -19 12 27 13 27 27 8 8 -10 14 -13 14 -7 0 19 29 14 42 -7 9
-15 19 -18 40 -14 19 4 35 0 48 -12 18 -17 21 -16 62 14 45 33 74 41 65 16 -4
-8 -2 -17 3 -20 6 -4 10 -26 10 -49 0 -27 6 -48 15 -56 20 -16 19 -36 -1 -44
-13 -5 -14 -9 -4 -21 10 -12 10 -21 2 -40 l-12 -25 108 0 107 0 -1 32 c-1 18
-7 46 -13 61 -6 16 -11 36 -11 45 0 13 2 13 14 -3 12 -16 16 -17 29 -6 12 9
14 24 10 62 -6 52 0 59 27 34 14 -13 22 -14 43 -4 21 10 31 9 51 -4 20 -14 25
-14 30 -2 3 9 19 13 46 12 35 -1 44 -6 56 -29 11 -20 21 -27 42 -26 15 1 37
-1 50 -6 36 -12 28 24 -14 65 -19 18 -54 62 -76 96 l-40 61 -67 -39 c-88 -51
-120 -51 -152 -2 -15 24 -36 41 -56 47 -18 5 -33 12 -33 16 0 8 49 25 63 22 8
-2 10 11 7 46 -1 13 6 25 15 28 11 4 15 14 12 26 -4 14 -1 18 9 14 10 -4 14 2
14 19 0 18 5 25 19 25 19 0 19 2 5 35 -8 19 -13 40 -12 47 3 12 -3 12 -44 1
-10 -3 -18 0 -18 6 0 38 -143 56 -174 22z"/>
</g>
</svg>
