<?xml version="1.0" standalone="no"?>
<!DOCTYPE svg PUBLIC "-//W3C//DTD SVG 20010904//EN"
 "http://www.w3.org/TR/2001/REC-SVG-20010904/DTD/svg10.dtd">
<svg version="1.0" xmlns="http://www.w3.org/2000/svg"
 width="96.000000pt" height="84.000000pt" viewBox="0 0 96.000000 84.000000"
 preserveAspectRatio="xMidYMid meet">
<metadata>
Created by potrace 1.16, written by Peter Selinger 2001-2019
</metadata>
<g transform="translate(0.000000,84.000000) scale(0.100000,-0.100000)"
fill="#000000" stroke="none">
<path d="M295 813 c3 -15 14 -43 22 -62 37 -81 39 -94 25 -135 -7 -22 -12 -54
-11 -70 2 -17 -8 -58 -21 -91 -18 -47 -25 -90 -31 -195 -9 -153 -9 -154 -8
-177 1 -10 -2 -33 -6 -51 l-8 -33 44 3 43 3 19 60 c12 36 21 104 25 170 3 83
7 104 14 85 13 -37 7 -146 -12 -210 -10 -30 -20 -67 -24 -82 l-6 -28 152 0
c84 0 158 4 165 8 6 4 12 36 14 72 1 51 -5 85 -31 159 -22 65 -30 105 -27 128
4 23 2 33 -7 33 -14 0 -26 30 -26 68 0 13 -10 33 -23 46 -13 13 -21 28 -19 34
2 7 -1 12 -6 12 -17 0 13 105 31 108 21 4 21 15 1 53 -14 28 -14 30 2 27 18
-3 31 24 33 70 1 22 1 22 -165 22 l-166 0 7 -27z"/>
</g>
</svg>
