<?xml version="1.0" standalone="no"?>
<!DOCTYPE svg PUBLIC "-//W3C//DTD SVG 20010904//EN"
 "http://www.w3.org/TR/2001/REC-SVG-20010904/DTD/svg10.dtd">
<svg version="1.0" xmlns="http://www.w3.org/2000/svg"
 width="96.000000pt" height="84.000000pt" viewBox="0 0 96.000000 84.000000"
 preserveAspectRatio="xMidYMid meet">
<metadata>
Created by potrace 1.16, written by Peter Selinger 2001-2019
</metadata>
<g transform="translate(0.000000,84.000000) scale(0.100000,-0.100000)"
fill="#000000" stroke="none">
<path d="M422 730 c-25 -10 -52 -65 -52 -103 0 -14 -7 -30 -15 -37 -20 -17
-19 -37 3 -49 11 -6 17 -22 17 -42 0 -26 6 -35 32 -48 18 -9 33 -19 33 -22 0
-3 -18 -11 -39 -18 -33 -9 -42 -18 -56 -55 l-17 -43 -45 8 c-34 7 -59 22 -101
60 -32 28 -58 55 -60 60 -2 5 -21 -13 -42 -40 -22 -27 -49 -56 -60 -64 -16
-11 -21 -23 -18 -47 3 -34 36 -66 45 -44 2 6 10 20 18 30 13 17 16 17 26 4 8
-11 12 -12 16 -3 6 17 43 -2 43 -22 0 -18 5 -19 30 -3 16 10 24 9 47 -8 l28
-21 39 29 c21 15 42 28 46 28 8 0 10 -19 9 -83 0 -41 3 -49 20 -54 21 -5 30
-43 11 -43 -5 0 -7 -13 -4 -29 3 -16 1 -38 -5 -50 -12 -21 -11 -21 103 -21
l114 0 -5 43 c-3 23 -10 50 -14 59 -10 20 -12 44 -2 35 15 -16 33 18 33 64 0
56 14 70 42 41 19 -19 23 -19 44 -5 22 14 26 14 48 -1 17 -11 26 -12 28 -4 2
6 23 13 47 14 38 2 44 -1 52 -25 9 -25 14 -28 54 -27 38 1 45 4 45 22 0 11
-14 33 -31 50 -17 16 -45 53 -61 81 -30 53 -48 73 -48 54 0 -5 -9 -13 -21 -16
-11 -4 -42 -20 -69 -37 -61 -38 -97 -33 -131 19 -16 24 -35 40 -56 45 -18 5
-33 13 -33 19 0 6 4 8 10 4 10 -6 50 13 62 30 4 6 5 16 3 24 -8 20 5 52 17 45
7 -5 9 3 5 22 -3 16 -4 23 -1 17 10 -22 24 -14 24 12 0 16 6 25 16 25 12 0 14
5 9 18 -5 9 -10 32 -13 50 -5 35 -12 38 -41 21 -15 -10 -22 -8 -40 10 -11 11
-29 21 -40 21 -10 0 -31 2 -47 5 -16 2 -39 0 -52 -5z"/>
</g>
</svg>
