<?xml version="1.0" standalone="no"?>
<!DOCTYPE svg PUBLIC "-//W3C//DTD SVG 20010904//EN"
 "http://www.w3.org/TR/2001/REC-SVG-20010904/DTD/svg10.dtd">
<svg version="1.0" xmlns="http://www.w3.org/2000/svg"
 width="96.000000pt" height="84.000000pt" viewBox="0 0 96.000000 84.000000"
 preserveAspectRatio="xMidYMid meet">
<metadata>
Created by potrace 1.16, written by Peter Selinger 2001-2019
</metadata>
<g transform="translate(0.000000,84.000000) scale(0.100000,-0.100000)"
fill="#000000" stroke="none">
<path d="M448 733 c-49 -5 -78 -41 -78 -96 0 -25 -6 -44 -16 -52 -20 -14 -10
-55 12 -55 10 0 15 -8 14 -22 -3 -39 -1 -48 15 -48 8 0 15 -4 15 -10 0 -5 9
-10 20 -10 33 0 22 -16 -17 -26 -31 -7 -42 -17 -58 -51 -22 -46 -49 -54 -91
-30 -32 18 -114 96 -114 108 0 6 -29 -19 -65 -55 -35 -36 -69 -66 -75 -66 -21
0 -10 -48 16 -65 26 -17 27 -17 50 11 20 25 25 27 34 14 9 -13 11 -13 20 0 9
13 14 11 34 -14 15 -18 26 -24 30 -17 11 17 41 13 61 -9 17 -19 18 -19 52 7
42 32 53 22 53 -49 0 -38 4 -48 20 -53 19 -6 29 -45 13 -45 -5 0 -8 -22 -8
-50 l0 -50 113 0 113 0 -12 22 c-7 13 -12 35 -11 50 1 15 -2 29 -8 33 -15 10
-12 35 5 35 16 0 17 3 21 65 6 83 6 83 51 42 21 -18 26 -19 49 -7 20 11 29 12
45 2 16 -10 24 -9 46 5 20 13 28 14 31 5 3 -10 7 -10 19 0 12 10 18 9 29 -6 7
-10 15 -23 17 -29 1 -5 16 -7 35 -2 44 9 42 35 -7 93 -21 26 -46 61 -56 78
l-18 31 -66 -43 c-52 -35 -75 -44 -109 -44 -39 0 -44 3 -59 35 -13 26 -27 38
-55 47 -37 11 -52 28 -24 28 7 0 19 7 26 15 7 8 17 12 23 8 7 -4 8 6 4 30 -4
27 -1 41 10 53 14 13 14 20 4 36 -11 17 -10 18 9 8 18 -9 20 -8 20 13 0 16 7
26 19 30 20 5 20 5 0 43 -10 21 -19 44 -19 52 0 9 -9 7 -31 -9 -19 -13 -34
-18 -38 -12 -9 14 -47 33 -63 31 -7 -1 -30 -3 -50 -5z"/>
</g>
</svg>
