<?xml version="1.0" standalone="no"?>
<!DOCTYPE svg PUBLIC "-//W3C//DTD SVG 20010904//EN"
 "http://www.w3.org/TR/2001/REC-SVG-20010904/DTD/svg10.dtd">
<svg version="1.0" xmlns="http://www.w3.org/2000/svg"
 width="96.000000pt" height="84.000000pt" viewBox="0 0 96.000000 84.000000"
 preserveAspectRatio="xMidYMid meet">
<metadata>
Created by potrace 1.16, written by Peter Selinger 2001-2019
</metadata>
<g transform="translate(0.000000,84.000000) scale(0.100000,-0.100000)"
fill="#000000" stroke="none">
<path d="M590 715 c-21 -22 -24 -23 -47 -8 -18 12 -38 14 -81 10 -70 -7 -92
-30 -92 -92 0 -27 -7 -50 -20 -65 -22 -26 -19 -37 16 -50 19 -8 23 -15 18 -37
-4 -23 -1 -30 22 -40 15 -7 31 -10 37 -6 5 3 8 0 5 -7 -2 -7 -19 -18 -38 -24
-25 -8 -40 -22 -53 -48 -26 -53 -53 -50 -124 14 -32 28 -60 55 -64 60 -3 4
-23 -11 -45 -33 -21 -22 -58 -54 -81 -70 -24 -17 -43 -35 -43 -42 1 -7 17 -20
38 -30 l37 -17 22 27 c22 27 23 27 37 8 14 -18 15 -18 16 -2 0 24 17 21 36 -8
13 -20 20 -23 35 -14 21 11 54 -2 61 -23 3 -8 15 -5 37 11 18 13 35 20 38 17
4 -4 6 -27 4 -51 -2 -40 1 -46 24 -55 25 -10 35 -43 15 -55 -6 -4 -9 -24 -8
-46 l3 -39 108 0 c98 0 126 7 97 25 -6 4 -8 15 -5 24 3 10 -1 31 -10 47 -14
27 -14 30 5 38 16 7 20 19 21 65 1 31 1 59 0 64 -2 13 14 7 53 -19 34 -23 41
-25 63 -13 19 10 28 11 44 1 16 -10 23 -10 35 3 18 18 44 20 44 3 0 -6 6 -3
14 7 13 18 14 17 30 -14 12 -22 22 -31 32 -27 9 3 20 6 25 6 18 0 9 67 -11 85
-11 10 -34 40 -51 67 -18 27 -35 46 -38 41 -20 -27 -122 -77 -168 -83 l-52 -6
-14 38 c-16 38 -20 41 -69 52 -28 6 -39 26 -14 26 7 0 26 12 41 26 20 19 25
28 16 37 -15 15 -14 23 5 42 13 12 14 19 5 28 -17 17 -13 29 9 22 16 -5 20 -2
20 19 0 14 7 29 15 33 12 7 11 15 -9 55 l-24 47 -22 -24z"/>
</g>
</svg>
