<?xml version="1.0" standalone="no"?>
<!DOCTYPE svg PUBLIC "-//W3C//DTD SVG 20010904//EN"
 "http://www.w3.org/TR/2001/REC-SVG-20010904/DTD/svg10.dtd">
<svg version="1.0" xmlns="http://www.w3.org/2000/svg"
 width="96.000000pt" height="84.000000pt" viewBox="0 0 96.000000 84.000000"
 preserveAspectRatio="xMidYMid meet">
<metadata>
Created by potrace 1.16, written by Peter Selinger 2001-2019
</metadata>
<g transform="translate(0.000000,84.000000) scale(0.100000,-0.100000)"
fill="#000000" stroke="none">
<path d="M584 699 c-18 -18 -22 -18 -50 -5 -22 11 -41 12 -79 5 -64 -12 -85
-36 -85 -99 0 -30 -6 -52 -15 -60 -23 -19 -18 -39 11 -46 20 -5 24 -11 20 -29
-7 -26 9 -43 51 -54 l28 -8 -25 -11 c-14 -6 -33 -13 -43 -16 -10 -3 -26 -24
-35 -45 -15 -35 -20 -39 -42 -34 -30 7 -127 92 -129 113 -1 8 -21 -6 -49 -36
-26 -28 -69 -65 -95 -83 -53 -36 -59 -51 -22 -51 14 0 35 -6 46 -13 18 -11 23
-8 46 18 14 17 27 25 29 19 3 -7 13 -10 24 -7 12 3 23 -3 31 -15 10 -16 20
-19 41 -15 20 4 35 0 48 -12 19 -17 21 -17 38 -2 32 29 44 21 40 -25 -2 -37 1
-45 20 -53 24 -10 27 -32 14 -80 -15 -52 -9 -55 104 -55 l104 0 -7 33 c-3 17
-10 36 -14 41 -14 16 -10 44 8 54 10 6 16 21 15 43 -2 43 7 89 17 89 5 0 25
-12 46 -26 33 -22 41 -24 62 -13 17 9 29 10 47 1 18 -8 26 -8 29 1 2 6 15 12
28 12 14 1 31 5 37 9 8 5 16 -3 23 -24 8 -21 16 -29 26 -26 8 3 19 6 24 6 16
0 10 77 -7 90 -8 8 -27 34 -41 59 -15 25 -28 48 -29 50 -2 1 -9 -2 -16 -8 -60
-51 -117 -78 -170 -83 l-58 -5 -11 34 c-11 35 -34 53 -68 53 -28 0 -37 20 -12
27 12 3 21 9 21 14 0 5 6 9 14 9 18 0 29 29 16 44 -6 9 -4 20 6 35 15 20 15
24 -2 42 -18 20 -18 20 10 13 27 -6 29 -5 22 19 -5 20 -2 27 14 32 l20 6 -20
26 c-11 14 -20 32 -20 39 0 22 -16 24 -36 3z"/>
</g>
</svg>
