<?xml version="1.0" standalone="no"?>
<!DOCTYPE svg PUBLIC "-//W3C//DTD SVG 20010904//EN"
 "http://www.w3.org/TR/2001/REC-SVG-20010904/DTD/svg10.dtd">
<svg version="1.0" xmlns="http://www.w3.org/2000/svg"
 width="96.000000pt" height="84.000000pt" viewBox="0 0 96.000000 84.000000"
 preserveAspectRatio="xMidYMid meet">
<metadata>
Created by potrace 1.16, written by Peter Selinger 2001-2019
</metadata>
<g transform="translate(0.000000,84.000000) scale(0.100000,-0.100000)"
fill="#000000" stroke="none">
<path d="M440 710 c-49 -12 -70 -42 -70 -101 0 -35 -4 -51 -15 -55 -25 -10
-18 -43 11 -50 21 -5 25 -11 21 -30 -4 -25 27 -54 58 -54 27 0 16 -20 -15 -27
-31 -6 -70 -45 -70 -69 0 -38 -49 -22 -109 35 -23 23 -47 41 -52 41 -5 0 -9 7
-9 17 0 10 -14 -2 -35 -29 -20 -25 -63 -67 -95 -93 -33 -25 -60 -50 -60 -54 0
-4 13 -6 29 -3 16 2 39 -1 51 -8 20 -11 25 -9 46 16 20 25 25 27 34 14 6 -10
10 -11 10 -2 0 18 18 15 37 -7 11 -14 24 -18 43 -15 17 4 31 0 39 -10 17 -20
35 -20 51 -1 22 26 30 17 30 -34 0 -49 17 -70 42 -55 7 5 8 -3 3 -22 -4 -16
-8 -48 -10 -71 l-3 -43 109 0 c108 0 110 0 99 21 -7 11 -9 27 -6 34 2 7 -2 21
-9 32 -20 26 -18 40 6 46 20 5 21 10 15 56 -4 30 -3 51 3 51 5 0 7 9 4 20 -7
27 5 25 58 -8 42 -27 46 -28 68 -14 19 13 26 13 43 3 17 -10 23 -9 40 5 15 15
21 16 27 5 6 -9 11 -10 15 -2 12 19 25 12 32 -15 5 -18 12 -24 28 -22 16 2 22
11 24 39 2 28 -6 50 -39 103 -24 36 -45 63 -48 58 -3 -4 -35 -27 -71 -50 -56
-38 -70 -43 -102 -38 -23 4 -38 2 -38 -4 0 -23 -21 -8 -39 29 -20 39 -37 51
-71 51 -35 0 -31 19 7 37 40 19 50 37 33 58 -8 9 -6 17 6 30 14 14 15 21 6 36
-17 27 -15 31 8 19 18 -10 20 -8 20 20 0 19 5 30 14 30 11 0 10 9 -7 43 -12
23 -23 44 -24 46 -2 2 -12 -4 -22 -13 -18 -17 -22 -17 -43 -2 -24 17 -53 19
-108 6z"/>
</g>
</svg>
