<?xml version="1.0" standalone="no"?>
<!DOCTYPE svg PUBLIC "-//W3C//DTD SVG 20010904//EN"
 "http://www.w3.org/TR/2001/REC-SVG-20010904/DTD/svg10.dtd">
<svg version="1.0" xmlns="http://www.w3.org/2000/svg"
 width="96.000000pt" height="84.000000pt" viewBox="0 0 96.000000 84.000000"
 preserveAspectRatio="xMidYMid meet">
<metadata>
Created by potrace 1.16, written by Peter Selinger 2001-2019
</metadata>
<g transform="translate(0.000000,84.000000) scale(0.100000,-0.100000)"
fill="#000000" stroke="none">
<path d="M595 720 c-17 -19 -20 -19 -36 -4 -14 13 -32 15 -79 12 -77 -6 -101
-27 -105 -92 -2 -26 -10 -55 -19 -65 -9 -10 -16 -22 -16 -28 0 -12 29 -28 44
-24 4 1 6 -12 4 -29 -4 -26 0 -33 24 -46 16 -8 33 -12 38 -9 6 3 10 0 10 -9 0
-8 -16 -20 -36 -26 -24 -8 -40 -22 -51 -46 -22 -46 -54 -45 -108 4 -88 78 -80
76 -116 31 -17 -21 -57 -60 -90 -85 -32 -25 -59 -49 -59 -53 0 -4 13 -6 29 -3
16 2 39 -1 51 -8 20 -11 25 -9 47 16 17 20 26 25 30 16 4 -10 8 -10 18 -2 10
9 19 6 34 -9 15 -15 28 -20 47 -15 16 4 31 1 44 -11 17 -16 20 -16 44 0 24 16
26 16 32 1 3 -9 3 -32 0 -51 -5 -27 -3 -36 12 -44 11 -6 23 -7 27 -3 4 4 4 -9
1 -28 -4 -19 -9 -52 -11 -72 l-4 -38 111 0 c101 0 110 1 103 18 -4 9 -8 26 -9
37 -1 11 -5 30 -10 43 -6 17 -3 27 8 35 11 9 16 32 17 80 2 82 13 90 69 53 41
-27 60 -32 60 -17 0 15 31 21 52 10 15 -8 24 -7 39 7 16 15 22 16 28 5 6 -9
11 -10 15 -2 12 18 25 12 32 -15 11 -42 38 -26 42 24 3 34 -4 53 -34 102 -21
34 -40 57 -43 53 -17 -24 -138 -93 -161 -93 -15 0 -41 -3 -56 -6 -27 -5 -31
-2 -42 30 -10 26 -21 38 -40 42 -45 10 -52 13 -52 24 0 5 9 10 20 10 11 0 20
5 20 10 0 6 6 10 14 10 19 0 25 21 12 42 -8 13 -6 22 9 38 14 16 16 23 7 32
-19 19 -14 30 8 18 18 -10 20 -8 20 20 0 20 5 30 15 30 20 0 19 10 -5 40 -11
14 -20 33 -20 43 0 23 -13 22 -35 -3z"/>
</g>
</svg>
