<?xml version="1.0" standalone="no"?>
<!DOCTYPE svg PUBLIC "-//W3C//DTD SVG 20010904//EN"
 "http://www.w3.org/TR/2001/REC-SVG-20010904/DTD/svg10.dtd">
<svg version="1.0" xmlns="http://www.w3.org/2000/svg"
 width="96.000000pt" height="84.000000pt" viewBox="0 0 96.000000 84.000000"
 preserveAspectRatio="xMidYMid meet">
<metadata>
Created by potrace 1.16, written by Peter Selinger 2001-2019
</metadata>
<g transform="translate(0.000000,84.000000) scale(0.100000,-0.100000)"
fill="#000000" stroke="none">
<path d="M611 729 c-20 -21 -21 -21 -47 -4 -20 13 -40 16 -82 13 -71 -6 -102
-37 -102 -101 0 -31 -6 -48 -21 -60 -20 -17 -20 -19 -4 -37 10 -11 22 -18 29
-17 6 1 11 -11 11 -26 0 -27 40 -71 57 -61 3 2 9 0 12 -5 3 -5 -12 -16 -34
-25 -29 -11 -44 -25 -54 -51 -20 -46 -45 -45 -99 4 -23 21 -52 44 -65 50 -12
7 -20 16 -17 22 17 26 -12 3 -57 -47 -28 -30 -71 -69 -95 -85 -49 -34 -56 -53
-15 -45 17 4 35 1 47 -8 28 -21 32 -20 51 16 14 27 18 30 28 16 9 -12 15 -13
29 -4 15 9 22 7 34 -11 12 -19 19 -21 35 -12 16 9 26 7 48 -10 24 -18 30 -18
40 -6 26 31 40 17 40 -39 0 -55 15 -77 39 -53 14 14 14 6 0 -30 -6 -15 -12
-47 -14 -70 l-3 -43 110 0 c101 0 110 1 103 18 -5 9 -9 28 -9 42 -1 14 -6 33
-10 43 -6 13 -3 22 9 31 13 9 18 28 19 79 1 88 12 97 71 64 43 -25 48 -25 70
-11 19 13 27 13 44 3 17 -11 23 -10 42 6 16 15 23 17 26 7 4 -10 8 -8 18 5 12
17 14 16 26 -10 21 -46 39 -34 39 27 0 30 -5 58 -10 61 -6 4 -20 25 -31 47
-18 35 -23 39 -31 25 -5 -9 -14 -17 -20 -17 -6 0 -31 -15 -57 -34 -37 -27 -58
-34 -108 -39 -62 -5 -62 -5 -82 28 -13 23 -30 35 -57 42 l-39 9 41 20 c38 18
41 22 38 53 -3 22 2 41 12 52 10 11 12 19 5 24 -19 11 -12 27 9 20 17 -5 20
-2 20 20 0 18 6 29 20 32 20 5 20 5 0 33 -11 16 -20 35 -20 43 0 26 -18 29
-39 6z"/>
</g>
</svg>
