<?xml version="1.0" standalone="no"?>
<!DOCTYPE svg PUBLIC "-//W3C//DTD SVG 20010904//EN"
 "http://www.w3.org/TR/2001/REC-SVG-20010904/DTD/svg10.dtd">
<svg version="1.0" xmlns="http://www.w3.org/2000/svg"
 width="96.000000pt" height="84.000000pt" viewBox="0 0 96.000000 84.000000"
 preserveAspectRatio="xMidYMid meet">
<metadata>
Created by potrace 1.16, written by Peter Selinger 2001-2019
</metadata>
<g transform="translate(0.000000,84.000000) scale(0.100000,-0.100000)"
fill="#000000" stroke="none">
<path d="M614 703 c-20 -25 -21 -26 -47 -8 -21 13 -41 16 -84 13 -69 -6 -93
-30 -93 -93 0 -33 -5 -46 -22 -57 -26 -17 -19 -47 13 -55 13 -4 20 -13 18 -27
-3 -39 1 -45 36 -57 43 -16 45 -28 4 -36 -27 -5 -59 -40 -72 -77 -6 -16 -53 3
-89 36 -19 18 -47 43 -60 54 l-26 22 -41 -44 c-22 -24 -66 -60 -96 -80 -59
-40 -71 -60 -29 -50 17 5 35 1 52 -10 25 -16 26 -16 49 12 22 26 25 27 36 12
12 -15 14 -15 23 0 9 14 13 13 32 -6 16 -16 29 -21 48 -16 16 4 31 1 44 -11
17 -15 20 -15 44 0 l25 17 3 -59 c3 -53 5 -58 26 -57 26 1 26 5 3 -53 -10 -26
-16 -54 -14 -60 3 -9 34 -13 106 -13 l102 0 -1 30 c0 17 -4 33 -7 37 -14 13
-6 39 14 51 18 12 21 20 15 57 -3 24 -1 47 4 50 5 3 7 12 4 20 -11 27 25 27
69 2 40 -24 45 -25 60 -10 13 14 21 15 42 5 21 -10 29 -9 41 3 19 18 34 19 34
3 0 -8 7 -5 15 6 16 21 17 21 34 -11 19 -38 31 -26 31 32 0 41 -6 63 -24 90
-14 20 -27 41 -30 48 -3 8 -8 7 -16 -5 -6 -10 -15 -18 -21 -18 -5 0 -33 -16
-62 -36 -44 -30 -57 -35 -89 -30 -20 3 -40 2 -43 -4 -12 -19 -31 -10 -47 24
-13 26 -25 35 -52 40 -40 8 -47 21 -16 31 11 3 20 11 20 16 0 6 4 8 9 4 15 -9
32 30 19 43 -8 8 -6 18 6 38 13 19 15 29 7 37 -18 18 -13 25 14 19 21 -4 25 0
25 18 0 13 8 28 17 35 16 12 15 16 -7 59 -14 25 -27 46 -30 45 -3 0 -14 -12
-26 -26z"/>
</g>
</svg>
