<?xml version="1.0" standalone="no"?>
<!DOCTYPE svg PUBLIC "-//W3C//DTD SVG 20010904//EN"
 "http://www.w3.org/TR/2001/REC-SVG-20010904/DTD/svg10.dtd">
<svg version="1.0" xmlns="http://www.w3.org/2000/svg"
 width="96.000000pt" height="84.000000pt" viewBox="0 0 96.000000 84.000000"
 preserveAspectRatio="xMidYMid meet">
<metadata>
Created by potrace 1.16, written by Peter Selinger 2001-2019
</metadata>
<g transform="translate(0.000000,84.000000) scale(0.100000,-0.100000)"
fill="#000000" stroke="none">
<path d="M463 713 c-45 -6 -73 -44 -73 -99 0 -33 -5 -47 -20 -56 -28 -18 -25
-31 10 -51 24 -15 28 -22 20 -36 -7 -14 -3 -23 18 -40 15 -12 32 -19 39 -16 7
2 13 -2 13 -10 0 -8 -7 -15 -15 -15 -30 0 -63 -23 -78 -56 -15 -31 -18 -32
-45 -23 -16 5 -52 34 -81 63 l-54 54 -61 -62 c-33 -34 -77 -74 -96 -89 l-35
-28 33 7 c23 4 41 0 59 -12 16 -10 28 -13 30 -7 2 6 10 19 18 29 12 15 16 16
24 5 6 -9 10 -10 12 -2 6 17 37 3 44 -20 5 -16 10 -17 27 -8 16 9 26 7 48 -9
26 -19 29 -20 50 -5 l23 16 -6 -56 c-5 -47 -3 -59 11 -66 9 -4 22 -6 29 -4 13
5 4 -37 -16 -76 -7 -12 -9 -26 -6 -31 3 -6 52 -10 108 -10 l102 0 2 30 c1 16
-2 32 -7 35 -17 10 -11 32 10 38 17 4 20 14 20 54 0 27 3 53 7 57 4 4 8 15 8
24 0 26 30 25 74 -2 35 -22 44 -24 66 -14 21 9 31 9 46 0 16 -10 24 -9 45 5
20 12 28 13 33 4 6 -9 11 -8 22 5 12 15 15 14 26 -12 11 -26 12 -22 12 46 0
89 -25 154 -48 126 -8 -9 -17 -16 -21 -16 -4 0 -34 -16 -66 -36 -51 -30 -65
-35 -101 -30 -25 3 -43 2 -43 -4 0 -24 -31 -7 -44 24 -11 27 -23 37 -55 47
-41 12 -55 29 -25 29 8 0 22 7 31 15 8 8 18 13 22 10 5 -2 7 10 4 28 -2 17 2
42 9 55 9 17 9 25 0 34 -19 19 -14 30 8 18 25 -14 43 -4 37 20 -3 13 2 20 20
25 l24 6 -21 26 c-11 14 -20 36 -20 49 0 29 -10 30 -44 3 l-26 -20 -26 20
c-26 20 -43 22 -111 14z"/>
</g>
</svg>
