<?xml version="1.0" standalone="no"?>
<!DOCTYPE svg PUBLIC "-//W3C//DTD SVG 20010904//EN"
 "http://www.w3.org/TR/2001/REC-SVG-20010904/DTD/svg10.dtd">
<svg version="1.0" xmlns="http://www.w3.org/2000/svg"
 width="96.000000pt" height="84.000000pt" viewBox="0 0 96.000000 84.000000"
 preserveAspectRatio="xMidYMid meet">
<metadata>
Created by potrace 1.16, written by Peter Selinger 2001-2019
</metadata>
<g transform="translate(0.000000,84.000000) scale(0.100000,-0.100000)"
fill="#000000" stroke="none">
<path d="M411 704 c-13 -16 -21 -41 -21 -65 0 -29 -6 -42 -27 -59 -22 -17 -25
-25 -17 -38 6 -9 20 -21 32 -27 17 -8 20 -16 17 -47 -2 -21 0 -36 5 -33 5 3
14 -1 22 -8 7 -8 21 -13 31 -11 32 4 12 -20 -22 -27 -36 -7 -68 -32 -76 -60
-9 -28 -40 -23 -72 13 -15 17 -40 43 -54 57 -14 14 -28 31 -30 36 -2 6 -41
-27 -86 -72 -74 -75 -79 -83 -56 -83 15 0 35 -8 46 -18 11 -9 22 -12 24 -7 2
6 8 17 13 25 8 12 11 13 19 1 7 -11 9 -11 13 0 4 12 7 12 21 0 10 -7 17 -20
17 -27 0 -10 7 -13 26 -8 18 5 32 0 49 -16 20 -19 27 -21 40 -10 23 19 27 8
16 -41 -12 -51 1 -83 30 -76 23 6 24 -8 4 -56 -8 -20 -15 -39 -15 -42 0 -3 52
-5 115 -5 93 0 115 3 115 14 0 8 -4 18 -10 21 -17 10 -11 39 10 53 15 9 20 23
20 56 0 25 4 48 10 51 5 3 10 15 10 26 0 28 30 24 79 -11 38 -28 43 -29 63
-16 18 13 25 13 48 1 25 -13 32 -12 61 2 29 15 33 15 44 0 10 -14 12 -14 23 4
18 28 16 164 -3 179 -8 7 -15 8 -15 2 0 -5 -37 -28 -82 -50 -71 -34 -91 -40
-142 -38 -57 2 -59 2 -70 36 -9 27 -19 36 -53 48 -45 14 -57 32 -23 32 11 0
23 6 26 14 3 8 11 13 19 10 15 -6 26 31 13 44 -6 6 -4 21 6 40 10 19 12 33 6
37 -21 13 -9 24 16 14 31 -11 37 -8 39 24 1 14 9 23 23 25 l21 3 -19 37 c-11
20 -20 45 -20 54 0 24 -21 23 -54 -3 l-27 -21 -23 21 c-18 17 -35 21 -88 21
-60 0 -69 -3 -87 -26z"/>
</g>
</svg>
