<?xml version="1.0" standalone="no"?>
<!DOCTYPE svg PUBLIC "-//W3C//DTD SVG 20010904//EN"
 "http://www.w3.org/TR/2001/REC-SVG-20010904/DTD/svg10.dtd">
<svg version="1.0" xmlns="http://www.w3.org/2000/svg"
 width="96.000000pt" height="84.000000pt" viewBox="0 0 96.000000 84.000000"
 preserveAspectRatio="xMidYMid meet">
<metadata>
Created by potrace 1.16, written by Peter Selinger 2001-2019
</metadata>
<g transform="translate(0.000000,84.000000) scale(0.100000,-0.100000)"
fill="#000000" stroke="none">
<path d="M335 833 c-11 -3 -23 -10 -27 -16 -7 -12 16 -82 40 -117 13 -19 17
-45 16 -105 0 -70 -5 -90 -32 -143 -17 -35 -36 -87 -42 -116 -12 -60 -10 -213
4 -208 15 6 25 -21 14 -41 -5 -11 -7 -34 -4 -52 l7 -34 187 0 c103 -1 192 2
198 7 6 4 14 34 16 67 4 48 0 73 -19 125 -39 102 -53 154 -47 173 3 11 0 17
-10 17 -10 0 -17 15 -22 46 -4 26 -15 55 -26 66 -16 16 -18 28 -12 81 4 38 12
67 22 75 15 11 15 15 -1 41 -16 28 -16 29 3 34 17 4 20 14 20 57 l0 53 -87 -7
c-99 -8 -95 -8 -143 -2 -19 3 -44 2 -55 -1z m14 -526 c0 -23 -7 -58 -14 -77
l-13 -35 -1 51 c-1 64 9 115 20 108 5 -3 9 -24 8 -47z"/>
</g>
</svg>
