<?xml version="1.0" standalone="no"?>
<!DOCTYPE svg PUBLIC "-//W3C//DTD SVG 20010904//EN"
 "http://www.w3.org/TR/2001/REC-SVG-20010904/DTD/svg10.dtd">
<svg version="1.0" xmlns="http://www.w3.org/2000/svg"
 width="96.000000pt" height="84.000000pt" viewBox="0 0 96.000000 84.000000"
 preserveAspectRatio="xMidYMid meet">
<metadata>
Created by potrace 1.16, written by Peter Selinger 2001-2019
</metadata>
<g transform="translate(0.000000,84.000000) scale(0.100000,-0.100000)"
fill="#000000" stroke="none">
<path d="M412 725 c-11 -14 -23 -43 -27 -65 -4 -25 -16 -47 -31 -59 -32 -25
-30 -34 12 -69 31 -26 34 -32 25 -51 -8 -15 -9 -21 -1 -21 6 0 8 -4 5 -10 -3
-5 1 -10 9 -10 9 0 16 -4 16 -9 0 -5 9 -11 21 -14 29 -8 14 -27 -21 -27 -27 0
-80 -42 -80 -63 0 -5 -10 -7 -22 -5 -20 3 -89 87 -107 131 -6 15 -12 11 -39
-27 -18 -24 -51 -59 -74 -77 -27 -22 -36 -34 -27 -37 8 -3 24 -13 35 -24 22
-19 22 -19 38 3 15 22 16 22 16 4 1 -20 1 -20 15 -1 14 19 15 18 27 -10 9 -21
19 -28 33 -26 34 5 75 -50 73 -96 -2 -49 8 -65 37 -60 20 4 21 2 15 -34 -4
-20 -13 -44 -20 -53 -11 -13 2 -15 111 -15 96 0 120 3 111 12 -18 18 -15 42 8
56 13 8 20 23 20 43 0 17 6 43 14 57 8 15 17 35 20 45 8 25 18 22 76 -22 51
-38 54 -39 77 -24 22 15 26 15 54 -6 27 -20 31 -21 45 -6 19 18 70 16 66 -2
-1 -7 2 -13 8 -13 6 0 10 45 10 116 0 92 -3 114 -12 106 -7 -6 -49 -29 -93
-53 -76 -40 -82 -41 -127 -32 -30 6 -51 6 -57 0 -13 -13 -31 0 -31 23 0 36
-13 52 -56 71 -49 20 -58 39 -19 39 14 0 25 5 25 10 0 6 8 10 19 10 15 0 18 6
14 34 -2 19 1 46 7 62 7 19 8 30 0 38 -20 20 -9 25 26 10 39 -17 54 -9 54 28
0 9 9 20 20 23 23 7 24 12 5 45 -8 14 -14 37 -15 53 0 32 -8 33 -61 7 l-40
-21 -26 21 c-20 16 -40 20 -94 20 -60 0 -70 -3 -87 -25z"/>
</g>
</svg>
