<?xml version="1.0" standalone="no"?>
<!DOCTYPE svg PUBLIC "-//W3C//DTD SVG 20010904//EN"
 "http://www.w3.org/TR/2001/REC-SVG-20010904/DTD/svg10.dtd">
<svg version="1.0" xmlns="http://www.w3.org/2000/svg"
 width="96.000000pt" height="84.000000pt" viewBox="0 0 96.000000 84.000000"
 preserveAspectRatio="xMidYMid meet">
<metadata>
Created by potrace 1.16, written by Peter Selinger 2001-2019
</metadata>
<g transform="translate(0.000000,84.000000) scale(0.100000,-0.100000)"
fill="#000000" stroke="none">
<path d="M425 747 c-18 -15 -28 -36 -32 -65 -4 -27 -12 -46 -22 -49 -9 -4 -23
-14 -33 -23 -15 -16 -13 -20 23 -60 22 -24 39 -50 38 -59 -3 -33 1 -52 10 -47
5 4 11 1 13 -4 2 -6 12 -12 23 -14 35 -5 29 -26 -8 -26 -27 0 -42 -8 -66 -35
-17 -19 -34 -35 -39 -35 -5 0 -22 24 -37 53 -59 111 -49 105 -84 54 -17 -25
-44 -56 -61 -70 -33 -28 -37 -37 -17 -37 7 0 18 -9 25 -21 11 -16 16 -18 28
-9 8 7 14 9 14 5 0 -4 6 -2 14 4 11 9 15 7 19 -11 4 -12 1 -28 -4 -35 -8 -9
-3 -19 18 -37 15 -14 31 -26 36 -26 4 0 7 -15 7 -33 0 -41 21 -73 44 -64 13 5
16 0 16 -26 0 -18 -7 -43 -16 -55 l-15 -22 114 0 c110 0 115 1 110 20 -3 11
-1 26 5 33 6 7 16 34 22 60 7 28 18 47 26 47 8 0 14 8 14 19 0 10 6 24 14 30
18 15 42 4 98 -47 34 -31 42 -34 59 -24 26 17 43 15 70 -7 22 -17 26 -18 41
-4 9 8 28 16 42 17 l26 1 0 98 c0 97 0 98 -22 92 -13 -4 -45 -21 -73 -38 -46
-28 -58 -31 -135 -32 l-84 0 -9 38 c-7 31 -19 45 -52 65 -38 23 -41 27 -28 40
13 13 16 13 24 1 7 -11 10 -9 15 9 4 14 12 21 20 18 14 -5 18 25 16 117 0 20
2 37 4 37 3 0 21 -7 41 -15 33 -14 37 -14 49 2 8 10 12 26 10 36 -3 12 2 17
20 17 28 0 29 5 9 40 -8 14 -14 40 -15 58 0 28 -3 32 -27 32 -16 0 -43 -9 -61
-20 l-33 -21 -30 26 c-42 35 -135 36 -174 2z"/>
</g>
</svg>
