<?xml version="1.0" standalone="no"?>
<!DOCTYPE svg PUBLIC "-//W3C//DTD SVG 20010904//EN"
 "http://www.w3.org/TR/2001/REC-SVG-20010904/DTD/svg10.dtd">
<svg version="1.0" xmlns="http://www.w3.org/2000/svg"
 width="96.000000pt" height="84.000000pt" viewBox="0 0 96.000000 84.000000"
 preserveAspectRatio="xMidYMid meet">
<metadata>
Created by potrace 1.16, written by Peter Selinger 2001-2019
</metadata>
<g transform="translate(0.000000,84.000000) scale(0.100000,-0.100000)"
fill="#000000" stroke="none">
<path d="M453 790 c-26 -11 -45 -43 -52 -90 -5 -28 -13 -39 -44 -53 -35 -17
-51 -47 -26 -47 10 0 34 -23 69 -67 6 -7 10 -26 10 -43 0 -18 4 -29 10 -25 6
3 10 2 10 -2 0 -5 10 -13 22 -18 34 -16 34 -35 0 -35 -21 0 -36 -8 -51 -27
-25 -33 -30 -28 -57 58 -10 32 -22 58 -25 57 -16 -7 -97 -138 -89 -143 16 -10
11 -22 -11 -28 -17 -5 -20 -11 -15 -31 5 -19 2 -26 -9 -26 -24 0 -17 -16 20
-44 22 -17 42 -25 54 -21 15 5 19 -1 24 -37 6 -43 31 -73 54 -64 17 7 17 -26
-1 -69 l-15 -35 113 0 113 0 -5 30 c-6 39 25 120 45 120 9 0 12 6 9 18 -3 11
4 24 19 35 30 21 43 16 115 -48 56 -50 62 -52 80 -30 17 20 28 19 64 -9 31
-23 32 -23 54 -6 20 17 22 27 22 120 l0 102 -37 -23 c-95 -57 -112 -63 -161
-51 -26 6 -51 7 -57 2 -19 -15 -55 8 -55 35 0 37 -15 60 -55 85 -19 12 -35 26
-35 31 0 6 5 7 10 4 6 -3 10 -1 10 5 0 7 7 9 15 6 9 -3 18 1 22 9 4 12 9 13
19 4 14 -12 14 -14 14 104 0 62 7 67 54 45 22 -9 29 -8 47 8 11 10 18 26 16
36 -4 13 1 18 14 18 21 0 24 12 8 41 -5 11 -11 37 -13 57 -2 33 -5 37 -33 40
-17 2 -48 -4 -68 -12 -35 -15 -39 -15 -62 4 -28 22 -117 27 -160 10z"/>
</g>
</svg>
