<?xml version="1.0" standalone="no"?>
<!DOCTYPE svg PUBLIC "-//W3C//DTD SVG 20010904//EN"
 "http://www.w3.org/TR/2001/REC-SVG-20010904/DTD/svg10.dtd">
<svg version="1.0" xmlns="http://www.w3.org/2000/svg"
 width="96.000000pt" height="84.000000pt" viewBox="0 0 96.000000 84.000000"
 preserveAspectRatio="xMidYMid meet">
<metadata>
Created by potrace 1.16, written by Peter Selinger 2001-2019
</metadata>
<g transform="translate(0.000000,84.000000) scale(0.100000,-0.100000)"
fill="#000000" stroke="none">
<path d="M474 830 c-32 -12 -64 -59 -64 -91 0 -31 -31 -66 -67 -75 -34 -9 -30
-41 4 -41 15 0 29 -5 31 -11 2 -6 14 -27 28 -47 13 -20 24 -40 24 -46 0 -5
-13 -37 -29 -71 -23 -47 -27 -66 -20 -84 4 -13 5 -24 1 -25 -4 0 -51 0 -106 1
l-99 2 7 -38 c6 -31 5 -36 -8 -31 -26 10 -18 -6 16 -37 26 -23 39 -27 68 -22
34 5 36 4 57 -45 14 -31 30 -53 43 -56 25 -7 28 -58 4 -91 l-15 -22 126 0 125
0 -16 25 c-14 21 -14 32 -4 75 7 27 16 50 21 50 5 0 9 7 9 15 0 8 12 26 27 41
25 25 27 26 58 11 18 -8 58 -40 91 -70 l59 -54 28 20 c26 20 28 21 57 4 l30
-18 0 100 c0 56 -2 101 -4 101 -2 0 -25 -12 -51 -26 -44 -25 -50 -26 -98 -15
-37 8 -52 9 -57 0 -5 -8 -20 -4 -48 12 -36 21 -40 27 -35 52 5 23 -1 34 -36
66 -46 43 -50 51 -21 51 27 0 70 39 63 57 -3 8 3 20 12 27 17 12 17 18 5 60
-15 55 -10 64 27 47 23 -10 30 -9 52 7 18 14 25 28 24 46 -1 20 3 26 19 26 15
0 18 4 13 18 -4 9 -12 38 -18 65 l-12 47 -60 0 c-34 0 -66 -5 -73 -12 -9 -9
-18 -9 -37 0 -30 14 -120 15 -151 2z m33 -384 c-2 -6 -13 -12 -25 -14 -16 -3
-22 2 -22 16 0 15 5 18 25 14 14 -2 24 -10 22 -16z"/>
</g>
</svg>
