<?xml version="1.0" standalone="no"?>
<!DOCTYPE svg PUBLIC "-//W3C//DTD SVG 20010904//EN"
 "http://www.w3.org/TR/2001/REC-SVG-20010904/DTD/svg10.dtd">
<svg version="1.0" xmlns="http://www.w3.org/2000/svg"
 width="96.000000pt" height="84.000000pt" viewBox="0 0 96.000000 84.000000"
 preserveAspectRatio="xMidYMid meet">
<metadata>
Created by potrace 1.16, written by Peter Selinger 2001-2019
</metadata>
<g transform="translate(0.000000,84.000000) scale(0.100000,-0.100000)"
fill="#000000" stroke="none">
<path d="M505 826 c-40 -17 -56 -38 -70 -93 -10 -38 -18 -50 -51 -67 -21 -12
-40 -21 -42 -22 -1 -1 0 -9 4 -18 5 -13 14 -16 30 -12 19 5 27 1 36 -19 6 -13
22 -32 35 -40 17 -11 23 -25 23 -51 0 -21 4 -33 10 -29 6 3 10 1 10 -4 0 -6
14 -11 30 -11 38 0 38 -15 1 -35 -16 -8 -33 -25 -37 -37 -4 -13 -15 -29 -25
-36 -11 -7 -19 -25 -19 -39 0 -24 -1 -25 -17 -11 -53 45 -216 67 -230 32 -3
-9 -1 -25 5 -35 10 -15 9 -17 -3 -13 -24 10 -17 -9 15 -39 20 -19 39 -28 57
-26 44 3 72 -14 96 -56 15 -26 31 -41 46 -43 21 -3 23 -7 17 -45 -4 -23 -11
-46 -17 -52 -21 -21 -3 -25 113 -25 99 0 119 2 106 13 -38 30 -24 141 23 186
43 42 71 32 157 -57 l73 -74 23 21 c12 11 30 21 39 21 15 0 17 12 17 85 l0 85
-25 -16 c-20 -13 -40 -15 -85 -11 -33 3 -62 1 -65 -4 -3 -4 -27 5 -53 22 -36
23 -46 35 -44 52 2 13 -10 41 -28 65 -28 39 -33 71 -9 57 5 -4 9 -1 9 5 0 6 5
8 10 5 6 -3 10 3 10 13 0 13 6 19 18 18 13 -1 17 6 15 28 -2 23 1 27 17 23 30
-8 34 10 11 39 -26 33 -27 72 -3 81 24 8 82 64 82 80 0 7 -7 13 -15 13 -19 0
-19 10 1 24 12 9 13 17 5 39 l-11 27 -132 0 c-87 -1 -143 -5 -163 -14z"/>
</g>
</svg>
