<?xml version="1.0" standalone="no"?>
<!DOCTYPE svg PUBLIC "-//W3C//DTD SVG 20010904//EN"
 "http://www.w3.org/TR/2001/REC-SVG-20010904/DTD/svg10.dtd">
<svg version="1.0" xmlns="http://www.w3.org/2000/svg"
 width="96.000000pt" height="84.000000pt" viewBox="0 0 96.000000 84.000000"
 preserveAspectRatio="xMidYMid meet">
<metadata>
Created by potrace 1.16, written by Peter Selinger 2001-2019
</metadata>
<g transform="translate(0.000000,84.000000) scale(0.100000,-0.100000)"
fill="#000000" stroke="none">
<path d="M650 825 c-7 -8 -16 -12 -21 -10 -13 9 -81 -24 -112 -53 -17 -16 -30
-41 -34 -65 -4 -30 -15 -45 -43 -66 -33 -24 -36 -29 -24 -45 7 -10 20 -16 28
-13 9 4 21 -4 30 -19 9 -13 23 -24 30 -24 7 0 16 -14 20 -31 8 -41 31 -62 61
-56 14 2 25 1 25 -3 0 -7 -34 -47 -81 -95 -10 -12 -19 -28 -19 -37 0 -9 -5
-20 -11 -23 -6 -4 -8 -13 -5 -20 3 -8 -1 -18 -8 -24 -9 -7 -18 1 -36 30 -34
56 -83 79 -165 79 -66 0 -81 -10 -53 -38 10 -10 10 -14 1 -20 -9 -5 -3 -16 18
-36 26 -25 36 -28 74 -23 l45 5 47 -77 c26 -42 53 -83 60 -92 10 -12 11 -23 4
-43 l-11 -26 105 0 c58 0 105 2 105 5 0 3 -7 17 -16 31 -12 17 -15 39 -12 72
6 64 32 102 70 102 41 0 69 -21 123 -95 26 -36 49 -65 52 -65 2 0 17 10 33 22
29 21 30 25 30 100 0 75 -1 78 -20 68 -23 -13 -129 -7 -159 9 -24 13 -29 51
-6 51 28 0 38 38 20 83 -9 22 -19 65 -21 95 -5 51 -4 54 15 49 27 -7 27 6 0
43 -27 36 -21 85 15 133 33 43 33 47 -4 47 -35 0 -37 6 -11 28 15 13 17 22 11
40 -8 20 -16 22 -73 22 -45 0 -68 -5 -77 -15z m84 -424 c-8 -58 -16 -64 -34
-22 -14 35 -5 75 16 67 8 -3 14 0 14 6 0 6 2 9 5 6 4 -3 3 -29 -1 -57z"/>
</g>
</svg>
