<?xml version="1.0" standalone="no"?>
<!DOCTYPE svg PUBLIC "-//W3C//DTD SVG 20010904//EN"
 "http://www.w3.org/TR/2001/REC-SVG-20010904/DTD/svg10.dtd">
<svg version="1.0" xmlns="http://www.w3.org/2000/svg"
 width="96.000000pt" height="84.000000pt" viewBox="0 0 96.000000 84.000000"
 preserveAspectRatio="xMidYMid meet">
<metadata>
Created by potrace 1.16, written by Peter Selinger 2001-2019
</metadata>
<g transform="translate(0.000000,84.000000) scale(0.100000,-0.100000)"
fill="#000000" stroke="none">
<path d="M676 821 c-9 -10 -31 -21 -48 -25 -46 -9 -108 -76 -108 -116 0 -24
-9 -41 -35 -66 -43 -40 -44 -53 -6 -60 17 -4 32 -12 35 -20 3 -8 15 -14 26
-14 17 0 20 -4 15 -20 -3 -11 -2 -20 3 -20 5 0 14 -12 21 -26 8 -19 17 -25 31
-21 11 3 22 2 25 -3 5 -9 -49 -81 -71 -93 -8 -4 -14 -14 -14 -21 0 -13 -38
-96 -44 -96 -3 0 -21 23 -41 50 -47 64 -78 80 -155 80 l-60 0 6 -27 c3 -16 14
-39 24 -53 14 -21 26 -25 63 -24 l45 0 46 -82 c28 -50 55 -85 67 -89 17 -6 20
-13 17 -41 l-4 -34 106 0 c104 1 105 1 83 19 -18 15 -23 30 -23 69 0 27 5 63
11 81 10 27 15 31 49 31 31 0 44 -7 71 -37 19 -21 48 -59 64 -85 33 -53 44
-57 68 -30 13 14 17 38 17 96 0 70 -2 77 -17 72 -9 -4 -41 -4 -70 0 -63 8 -67
20 -23 77 27 37 29 38 40 18 11 -21 40 -29 40 -12 0 5 7 17 16 26 17 17 18 15
-112 156 -27 29 -32 54 -9 46 25 -10 24 8 -2 33 -22 21 -24 29 -18 69 4 25 14
54 23 64 14 16 14 19 2 27 -8 6 -23 10 -32 10 -10 0 -18 5 -18 10 0 6 6 10 14
10 24 0 28 18 15 55 -13 34 -15 35 -64 35 -38 0 -56 -5 -69 -19z m154 -363 c0
-30 -24 -118 -39 -146 -19 -36 -48 -28 -54 16 -3 20 -9 49 -12 65 -6 21 -4 27
9 27 9 0 16 5 16 11 0 5 5 7 10 4 6 -3 10 -1 10 6 0 14 30 38 48 39 6 0 12
-10 12 -22z"/>
</g>
</svg>
