<?xml version="1.0" standalone="no"?>
<!DOCTYPE svg PUBLIC "-//W3C//DTD SVG 20010904//EN"
 "http://www.w3.org/TR/2001/REC-SVG-20010904/DTD/svg10.dtd">
<svg version="1.0" xmlns="http://www.w3.org/2000/svg"
 width="96.000000pt" height="84.000000pt" viewBox="0 0 96.000000 84.000000"
 preserveAspectRatio="xMidYMid meet">
<metadata>
Created by potrace 1.16, written by Peter Selinger 2001-2019
</metadata>
<g transform="translate(0.000000,84.000000) scale(0.100000,-0.100000)"
fill="#000000" stroke="none">
<path d="M715 820 c-10 -11 -28 -20 -39 -20 -50 0 -126 -75 -126 -126 0 -21
-38 -64 -57 -64 -6 0 -14 -7 -17 -16 -7 -18 22 -46 40 -40 6 2 16 -5 22 -15 7
-10 22 -19 33 -19 15 0 19 -5 15 -15 -9 -24 35 -85 62 -85 12 0 22 -4 22 -9 0
-16 -50 -70 -70 -76 -11 -4 -20 -15 -20 -26 0 -11 -6 -22 -14 -25 -8 -3 -13
-11 -10 -18 4 -12 -32 -54 -39 -45 -2 2 -23 30 -46 62 -23 32 -54 62 -67 68
-35 12 -131 12 -140 -2 -10 -17 28 -85 56 -97 14 -6 35 -9 46 -6 18 5 28 -6
64 -73 52 -98 68 -116 97 -110 20 4 23 0 23 -29 l0 -34 84 0 84 0 -5 40 c-3
22 0 60 7 85 12 42 15 45 47 45 51 0 67 -13 118 -95 64 -102 77 -100 73 12
l-3 88 -48 9 c-57 11 -57 24 -1 89 5 7 14 21 18 32 7 20 8 20 22 1 13 -18 14
-16 14 27 0 37 -7 56 -32 91 -37 50 -48 56 -48 25 0 -37 -31 -143 -47 -161
-31 -34 -48 -22 -61 42 -13 63 -13 74 3 76 25 2 46 18 41 30 -3 8 1 14 9 14 8
0 15 5 15 10 0 6 6 10 14 10 9 0 12 7 9 20 -4 16 -2 19 11 14 11 -4 16 -1 16
10 0 9 -4 16 -10 16 -5 0 -16 12 -23 28 -15 30 -3 110 21 134 19 19 15 26 -18
33 -32 7 -39 19 -15 29 15 5 20 42 9 70 -10 25 -115 22 -139 -4z"/>
</g>
</svg>
