<?xml version="1.0" standalone="no"?>
<!DOCTYPE svg PUBLIC "-//W3C//DTD SVG 20010904//EN"
 "http://www.w3.org/TR/2001/REC-SVG-20010904/DTD/svg10.dtd">
<svg version="1.0" xmlns="http://www.w3.org/2000/svg"
 width="96.000000pt" height="84.000000pt" viewBox="0 0 96.000000 84.000000"
 preserveAspectRatio="xMidYMid meet">
<metadata>
Created by potrace 1.16, written by Peter Selinger 2001-2019
</metadata>
<g transform="translate(0.000000,84.000000) scale(0.100000,-0.100000)"
fill="#000000" stroke="none">
<path d="M770 830 c-8 -4 -36 -16 -62 -25 -53 -19 -106 -72 -115 -116 -6 -30
-45 -69 -68 -69 -7 0 -15 -6 -18 -14 -7 -17 23 -46 46 -46 9 0 17 -7 17 -15 0
-17 34 -38 45 -27 4 4 5 -5 1 -20 -3 -16 -2 -28 3 -28 5 0 14 -13 21 -30 13
-31 37 -44 64 -34 9 3 16 1 16 -5 0 -19 -60 -80 -83 -83 -14 -2 -23 -11 -25
-26 -2 -12 -10 -22 -18 -22 -8 0 -14 -6 -14 -13 0 -8 -10 -23 -23 -35 l-22
-21 -49 75 c-55 84 -82 97 -184 92 -51 -3 -57 -5 -54 -23 2 -11 10 -27 18 -36
8 -8 14 -23 14 -31 0 -18 32 -30 75 -28 28 1 33 -5 75 -87 25 -48 57 -96 71
-106 25 -18 28 -18 59 -2 l33 17 -6 -36 -6 -36 90 0 89 0 0 26 c0 15 5 44 12
65 10 36 14 39 46 39 28 0 43 -9 76 -43 22 -23 46 -51 53 -62 10 -17 12 -10
12 47 1 62 -1 67 -21 70 -28 4 -27 37 2 78 28 40 30 202 2 222 -10 7 -22 19
-27 27 -6 11 -4 13 9 8 32 -12 37 4 11 35 -14 16 -25 37 -25 46 1 31 26 112
38 124 24 24 14 45 -25 53 l-38 7 33 16 c31 15 38 34 26 66 -5 13 -22 16 -83
15 -42 0 -83 -4 -91 -9z m160 -416 c0 -34 -35 -141 -53 -161 -23 -26 -47 -20
-47 12 0 12 -7 42 -15 65 -19 53 -19 53 5 45 15 -5 20 -2 20 11 0 13 3 14 15
4 13 -10 15 -9 15 9 0 12 4 19 10 16 6 -3 13 0 16 9 7 18 34 10 34 -10z"/>
</g>
</svg>
