<?xml version="1.0" standalone="no"?>
<!DOCTYPE svg PUBLIC "-//W3C//DTD SVG 20010904//EN"
 "http://www.w3.org/TR/2001/REC-SVG-20010904/DTD/svg10.dtd">
<svg version="1.0" xmlns="http://www.w3.org/2000/svg"
 width="96.000000pt" height="84.000000pt" viewBox="0 0 96.000000 84.000000"
 preserveAspectRatio="xMidYMid meet">
<metadata>
Created by potrace 1.16, written by Peter Selinger 2001-2019
</metadata>
<g transform="translate(0.000000,84.000000) scale(0.100000,-0.100000)"
fill="#000000" stroke="none">
<path d="M785 826 c-27 -7 -60 -18 -71 -24 -33 -17 -74 -71 -81 -104 -6 -29
-49 -68 -76 -68 -24 0 -31 -19 -16 -46 7 -14 21 -24 35 -24 14 0 24 -8 27 -21
3 -11 15 -23 27 -26 16 -4 20 -11 16 -26 -3 -12 3 -32 15 -48 10 -15 19 -32
19 -38 0 -6 5 -12 10 -12 6 -1 16 -2 23 -3 6 -1 18 2 25 7 8 7 12 4 12 -10 0
-28 -37 -73 -60 -73 -32 0 -50 -11 -50 -31 0 -13 -7 -19 -21 -19 -11 0 -17 -4
-14 -10 5 -8 -50 -51 -65 -50 -3 1 -27 37 -55 80 -44 70 -55 82 -94 95 -48 16
-90 19 -140 9 -36 -8 -39 -21 -11 -57 11 -14 20 -32 20 -40 0 -17 29 -28 79
-30 32 -2 37 -7 81 -89 72 -134 88 -146 166 -113 l36 15 -4 -35 -4 -35 97 0
97 0 7 40 c6 38 8 40 43 40 21 0 51 -9 69 -19 l31 -20 0 152 0 152 -14 -59
c-14 -56 -41 -103 -53 -91 -2 3 -15 39 -27 81 -17 61 -18 74 -7 70 9 -4 17 2
20 14 5 19 6 20 19 3 12 -17 13 -16 14 6 0 15 5 21 14 18 32 -12 36 15 36 235
l0 218 -62 -1 c-35 0 -85 -6 -113 -13z"/>
</g>
</svg>
