<?xml version="1.0" standalone="no"?>
<!DOCTYPE svg PUBLIC "-//W3C//DTD SVG 20010904//EN"
 "http://www.w3.org/TR/2001/REC-SVG-20010904/DTD/svg10.dtd">
<svg version="1.0" xmlns="http://www.w3.org/2000/svg"
 width="96.000000pt" height="84.000000pt" viewBox="0 0 96.000000 84.000000"
 preserveAspectRatio="xMidYMid meet">
<metadata>
Created by potrace 1.16, written by Peter Selinger 2001-2019
</metadata>
<g transform="translate(0.000000,84.000000) scale(0.100000,-0.100000)"
fill="#000000" stroke="none">
<path d="M518 823 c-13 -12 -34 -16 -91 -15 -50 1 -80 -3 -93 -13 -18 -13 -18
-16 16 -82 30 -57 35 -80 37 -142 2 -67 -1 -79 -32 -135 -42 -76 -63 -151 -67
-241 l-3 -70 28 2 c24 2 26 0 17 -17 -7 -13 -6 -33 2 -65 l12 -45 183 0 c181
0 183 0 187 23 17 78 16 115 -2 158 -40 93 -63 170 -57 189 4 14 2 20 -9 20
-9 0 -18 13 -22 35 -3 19 -15 52 -25 72 -13 25 -15 39 -8 44 6 3 9 25 8 48 -2
27 1 45 10 50 10 7 10 14 -3 39 -15 28 -14 30 4 35 16 4 20 14 20 50 0 25 -3
52 -6 61 -8 22 -84 22 -106 -1z m-149 -521 c0 -20 -9 -59 -19 -87 l-18 -50 -1
48 c-1 57 18 139 30 131 5 -3 9 -22 8 -42z"/>
</g>
</svg>
