<?xml version="1.0" standalone="no"?>
<!DOCTYPE svg PUBLIC "-//W3C//DTD SVG 20010904//EN"
 "http://www.w3.org/TR/2001/REC-SVG-20010904/DTD/svg10.dtd">
<svg version="1.0" xmlns="http://www.w3.org/2000/svg"
 width="96.000000pt" height="84.000000pt" viewBox="0 0 96.000000 84.000000"
 preserveAspectRatio="xMidYMid meet">
<metadata>
Created by potrace 1.16, written by Peter Selinger 2001-2019
</metadata>
<g transform="translate(0.000000,84.000000) scale(0.100000,-0.100000)"
fill="#000000" stroke="none">
<path d="M857 834 c-3 -4 -24 -8 -47 -9 -67 -5 -128 -48 -155 -109 -22 -49
-53 -76 -89 -76 -8 0 -17 -7 -20 -16 -8 -20 23 -66 41 -60 8 4 17 -4 23 -20 6
-14 20 -28 31 -31 15 -4 19 -11 15 -25 -5 -20 21 -87 39 -100 6 -4 15 -6 22
-3 6 2 14 -1 17 -8 3 -9 5 -9 5 1 1 6 6 12 11 12 17 0 11 -36 -10 -63 -17 -21
-27 -25 -50 -20 -25 5 -31 2 -39 -21 -7 -17 -15 -24 -26 -20 -9 4 -15 1 -15
-8 0 -12 -68 -54 -75 -46 -1 2 -26 39 -55 83 -29 44 -58 83 -64 87 -27 18
-111 30 -161 23 -61 -7 -67 -17 -35 -58 11 -14 20 -32 20 -40 0 -18 33 -29 80
-27 34 1 37 -2 74 -72 76 -144 101 -165 170 -147 60 15 61 14 57 -26 l-3 -35
100 0 99 0 10 33 c9 30 12 32 47 29 21 -2 49 -10 62 -19 l24 -15 -1 138 c-1
131 -1 136 -13 89 -23 -96 -47 -102 -64 -15 -7 34 -15 67 -19 75 -3 9 1 15 11
15 9 0 16 7 16 16 0 14 3 14 15 4 12 -10 15 -10 15 4 0 9 8 16 20 16 19 0 20
7 20 235 l0 235 -48 0 c-27 0 -51 -3 -55 -6z"/>
</g>
</svg>
