<?xml version="1.0" standalone="no"?>
<!DOCTYPE svg PUBLIC "-//W3C//DTD SVG 20010904//EN"
 "http://www.w3.org/TR/2001/REC-SVG-20010904/DTD/svg10.dtd">
<svg version="1.0" xmlns="http://www.w3.org/2000/svg"
 width="96.000000pt" height="84.000000pt" viewBox="0 0 96.000000 84.000000"
 preserveAspectRatio="xMidYMid meet">
<metadata>
Created by potrace 1.16, written by Peter Selinger 2001-2019
</metadata>
<g transform="translate(0.000000,84.000000) scale(0.100000,-0.100000)"
fill="#000000" stroke="none">
<path d="M880 830 c-8 -5 -30 -10 -48 -10 -70 0 -138 -45 -173 -112 -20 -40
-45 -58 -79 -58 -11 0 -23 -7 -27 -16 -9 -23 14 -64 36 -64 12 0 21 -9 25 -25
4 -14 13 -25 21 -25 18 0 30 -19 18 -31 -16 -16 28 -96 60 -108 16 -6 27 -6
27 0 0 5 5 9 11 9 17 0 2 -62 -18 -78 -10 -7 -24 -10 -32 -7 -21 8 -51 -4 -51
-21 0 -8 -9 -14 -20 -14 -11 0 -20 -6 -20 -12 0 -7 -17 -20 -38 -29 l-37 -15
-57 85 c-54 81 -60 86 -120 108 -49 19 -73 23 -111 18 -57 -8 -67 -24 -38 -61
12 -15 21 -35 21 -44 0 -19 78 -47 103 -37 9 3 31 -24 65 -83 29 -49 64 -98
79 -110 27 -21 43 -22 121 -3 20 5 22 2 22 -41 l0 -46 99 0 99 0 7 31 c7 30 9
31 47 26 22 -3 51 -15 63 -27 l24 -23 1 417 0 416 -32 0 c-18 0 -40 -5 -48
-10z m63 -538 c-3 -112 -52 -163 -64 -67 -4 28 -9 61 -13 73 -6 17 -3 22 9 22
11 0 15 5 11 15 -7 20 4 19 20 -2 12 -17 13 -16 14 5 0 15 5 22 13 19 8 -3 11
-24 10 -65z"/>
</g>
</svg>
