<?xml version="1.0" standalone="no"?>
<!DOCTYPE svg PUBLIC "-//W3C//DTD SVG 20010904//EN"
 "http://www.w3.org/TR/2001/REC-SVG-20010904/DTD/svg10.dtd">
<svg version="1.0" xmlns="http://www.w3.org/2000/svg"
 width="96.000000pt" height="84.000000pt" viewBox="0 0 96.000000 84.000000"
 preserveAspectRatio="xMidYMid meet">
<metadata>
Created by potrace 1.16, written by Peter Selinger 2001-2019
</metadata>
<g transform="translate(0.000000,84.000000) scale(0.100000,-0.100000)"
fill="#000000" stroke="none">
<path d="M900 825 c-14 -8 -44 -14 -68 -15 -71 0 -131 -39 -165 -106 -16 -31
-68 -60 -82 -46 -4 4 -13 -1 -20 -11 -11 -15 -10 -23 2 -48 8 -17 21 -28 27
-26 7 3 18 -8 25 -24 7 -16 19 -29 27 -29 16 0 19 -26 5 -34 -5 -4 0 -25 12
-49 12 -23 22 -43 22 -44 0 0 9 -3 20 -5 11 -1 23 -7 27 -13 5 -6 8 -5 8 3 0
6 5 12 10 12 15 0 12 -43 -6 -68 -13 -19 -21 -21 -55 -16 -35 6 -39 4 -39 -15
0 -14 -6 -21 -20 -21 -11 0 -20 -4 -20 -10 0 -11 -68 -42 -79 -36 -4 3 -31 40
-60 84 -50 74 -59 82 -119 106 -50 21 -74 25 -107 21 -66 -10 -71 -17 -46 -58
11 -19 21 -41 21 -48 0 -19 46 -39 90 -39 34 0 38 -4 75 -67 22 -37 53 -83 69
-101 30 -34 30 -34 98 -28 l68 6 0 -50 0 -50 100 0 101 0 6 31 c5 25 10 30 27
25 12 -3 28 -6 37 -6 9 0 28 -12 42 -26 l26 -26 1 421 c0 396 -1 421 -17 421
-10 -1 -29 -7 -43 -15z m46 -489 c6 -16 -14 -133 -27 -158 -16 -29 -39 -10
-39 32 0 21 -5 51 -11 67 -7 19 -7 29 0 31 6 2 11 10 11 18 0 19 10 18 26 -3
12 -17 13 -16 14 5 0 24 18 30 26 8z"/>
</g>
</svg>
