<?xml version="1.0" standalone="no"?>
<!DOCTYPE svg PUBLIC "-//W3C//DTD SVG 20010904//EN"
 "http://www.w3.org/TR/2001/REC-SVG-20010904/DTD/svg10.dtd">
<svg version="1.0" xmlns="http://www.w3.org/2000/svg"
 width="96.000000pt" height="84.000000pt" viewBox="0 0 96.000000 84.000000"
 preserveAspectRatio="xMidYMid meet">
<metadata>
Created by potrace 1.16, written by Peter Selinger 2001-2019
</metadata>
<g transform="translate(0.000000,84.000000) scale(0.100000,-0.100000)"
fill="#000000" stroke="none">
<path d="M929 826 c-15 -7 -56 -15 -93 -18 -75 -5 -106 -22 -149 -86 -22 -32
-36 -43 -65 -48 -48 -8 -63 -27 -48 -59 6 -14 18 -25 27 -25 9 0 20 -11 23
-25 3 -13 15 -29 27 -35 15 -8 18 -15 10 -24 -14 -17 19 -114 37 -108 6 2 12
-1 12 -7 0 -5 11 -8 25 -5 20 4 25 0 25 -16 0 -44 -18 -60 -65 -60 -38 0 -45
-3 -45 -19 0 -14 -5 -18 -20 -14 -13 3 -20 0 -20 -8 0 -17 -83 -45 -88 -31 -8
24 -115 158 -135 169 -12 7 -44 20 -70 29 -40 13 -56 14 -97 4 -28 -7 -50 -15
-50 -20 0 -4 9 -19 20 -33 11 -14 20 -33 20 -44 0 -24 70 -57 105 -51 23 5 31
-3 81 -78 67 -102 92 -118 169 -106 30 5 56 7 58 5 2 -1 2 -28 1 -58 l-3 -55
100 0 100 0 6 30 c4 23 11 30 30 30 31 0 79 -25 92 -47 7 -12 10 120 11 405 0
232 -1 422 -2 422 -2 0 -15 -6 -29 -14z m21 -494 c0 -23 -24 -141 -32 -156 -8
-15 -12 -16 -23 -5 -15 17 -26 126 -15 154 8 19 8 19 16 1 7 -18 8 -18 15 2 5
14 14 20 24 16 8 -3 15 -9 15 -12z"/>
</g>
</svg>
