<?xml version="1.0" standalone="no"?>
<!DOCTYPE svg PUBLIC "-//W3C//DTD SVG 20010904//EN"
 "http://www.w3.org/TR/2001/REC-SVG-20010904/DTD/svg10.dtd">
<svg version="1.0" xmlns="http://www.w3.org/2000/svg"
 width="96.000000pt" height="84.000000pt" viewBox="0 0 96.000000 84.000000"
 preserveAspectRatio="xMidYMid meet">
<metadata>
Created by potrace 1.16, written by Peter Selinger 2001-2019
</metadata>
<g transform="translate(0.000000,84.000000) scale(0.100000,-0.100000)"
fill="#000000" stroke="none">
<path d="M937 829 c-10 -6 -33 -8 -51 -5 -18 3 -54 -1 -83 -9 -48 -14 -62 -26
-124 -102 -5 -7 -27 -13 -49 -13 -46 0 -53 -8 -44 -55 4 -25 11 -35 25 -35 11
0 19 -7 19 -15 0 -8 9 -24 20 -35 23 -23 25 -37 8 -42 -8 -3 -8 -9 -2 -19 5
-8 14 -30 20 -49 6 -19 16 -34 22 -32 7 1 12 -3 12 -9 0 -5 5 -7 10 -4 6 3 10
1 10 -6 0 -8 4 -8 15 1 13 11 15 8 15 -13 0 -48 -9 -57 -56 -57 -38 0 -44 -3
-44 -21 0 -16 -5 -20 -19 -16 -11 3 -22 -1 -24 -7 -3 -7 -24 -18 -47 -25 -35
-10 -44 -10 -51 1 -4 7 -32 43 -61 80 -44 57 -62 72 -114 94 -53 23 -71 25
-118 20 -31 -4 -59 -12 -62 -18 -4 -5 4 -23 16 -40 12 -16 23 -36 24 -44 4
-23 75 -57 107 -50 26 5 33 -1 84 -69 73 -99 89 -109 170 -102 l65 5 0 -69 0
-69 95 0 94 0 11 41 c8 30 15 39 26 35 9 -3 24 -6 35 -6 11 0 31 -11 44 -25
l25 -24 0 409 c0 226 -1 410 -2 410 -2 0 -11 -5 -21 -11z m-22 -492 c7 10 17
13 25 8 13 -8 9 -64 -11 -137 -10 -38 -11 -39 -29 -23 -10 9 -16 23 -14 30 3
7 1 30 -5 51 -6 21 -8 49 -4 63 5 22 8 23 17 9 9 -15 11 -15 21 -1z"/>
</g>
</svg>
