<?xml version="1.0" standalone="no"?>
<!DOCTYPE svg PUBLIC "-//W3C//DTD SVG 20010904//EN"
 "http://www.w3.org/TR/2001/REC-SVG-20010904/DTD/svg10.dtd">
<svg version="1.0" xmlns="http://www.w3.org/2000/svg"
 width="96.000000pt" height="84.000000pt" viewBox="0 0 96.000000 84.000000"
 preserveAspectRatio="xMidYMid meet">
<metadata>
Created by potrace 1.16, written by Peter Selinger 2001-2019
</metadata>
<g transform="translate(0.000000,84.000000) scale(0.100000,-0.100000)"
fill="#000000" stroke="none">
<path d="M741 793 c-35 -41 -45 -47 -81 -48 -27 -1 -45 -7 -51 -17 -13 -24 1
-80 22 -85 10 -3 21 -15 25 -27 4 -11 14 -26 23 -32 12 -9 13 -15 3 -26 -6 -8
-9 -18 -4 -22 4 -4 12 -26 17 -49 6 -24 16 -41 23 -40 7 2 12 -3 12 -11 0 -15
16 -16 38 -2 10 6 13 -1 10 -30 -3 -37 -4 -38 -48 -40 -29 -2 -48 -8 -57 -21
-8 -10 -18 -18 -24 -18 -5 0 -13 -5 -17 -11 -4 -7 -23 -18 -42 -26 l-35 -14
-90 91 c-71 73 -100 96 -139 109 -63 20 -116 21 -116 2 0 -8 -9 -18 -20 -21
-25 -8 -25 -30 0 -62 11 -14 20 -32 20 -39 0 -8 9 -14 19 -14 11 0 23 -5 27
-11 4 -7 24 -9 51 -6 l44 5 55 -67 c76 -93 100 -105 182 -97 l65 7 -5 -86 -6
-85 103 0 103 0 7 50 c7 50 7 50 44 50 20 0 42 -5 49 -12 9 -9 12 2 12 53 0
56 -3 65 -22 74 -14 7 -22 20 -23 40 -1 17 -5 48 -10 69 -7 35 -6 39 10 32 39
-15 44 16 45 257 l0 227 -89 0 -89 0 -41 -47z"/>
</g>
</svg>
