<?xml version="1.0" standalone="no"?>
<!DOCTYPE svg PUBLIC "-//W3C//DTD SVG 20010904//EN"
 "http://www.w3.org/TR/2001/REC-SVG-20010904/DTD/svg10.dtd">
<svg version="1.0" xmlns="http://www.w3.org/2000/svg"
 width="96.000000pt" height="84.000000pt" viewBox="0 0 96.000000 84.000000"
 preserveAspectRatio="xMidYMid meet">
<metadata>
Created by potrace 1.16, written by Peter Selinger 2001-2019
</metadata>
<g transform="translate(0.000000,84.000000) scale(0.100000,-0.100000)"
fill="#000000" stroke="none">
<path d="M690 821 c-12 -23 -13 -71 -2 -87 4 -6 17 -16 30 -23 12 -6 22 -18
22 -25 0 -8 7 -17 16 -20 10 -4 14 -13 11 -26 -8 -30 25 -138 41 -133 6 3 12
-1 12 -7 0 -8 10 -10 26 -7 23 4 25 2 22 -32 -2 -28 -7 -36 -23 -36 -43 -2
-86 -18 -96 -36 -5 -11 -16 -19 -23 -19 -8 0 -16 -6 -19 -13 -3 -7 -24 -19
-47 -26 l-41 -12 -82 72 c-45 40 -92 81 -103 92 -23 19 -153 67 -185 67 -24 0
-25 -27 -2 -33 10 -2 -4 -7 -32 -12 -62 -10 -72 -15 -52 -29 8 -7 20 -32 27
-56 6 -25 20 -54 30 -65 10 -11 20 -29 22 -40 4 -22 27 -30 63 -21 16 4 22 11
19 21 -4 10 6 20 30 32 l36 17 83 -82 c46 -44 96 -84 111 -88 15 -4 53 -4 85
-1 l56 6 -3 -100 -3 -100 118 3 118 3 3 418 2 417 -130 0 c-118 0 -130 -2
-140 -19z"/>
</g>
</svg>
