<?xml version="1.0" standalone="no"?>
<!DOCTYPE svg PUBLIC "-//W3C//DTD SVG 20010904//EN"
 "http://www.w3.org/TR/2001/REC-SVG-20010904/DTD/svg10.dtd">
<svg version="1.0" xmlns="http://www.w3.org/2000/svg"
 width="96.000000pt" height="84.000000pt" viewBox="0 0 96.000000 84.000000"
 preserveAspectRatio="xMidYMid meet">
<metadata>
Created by potrace 1.16, written by Peter Selinger 2001-2019
</metadata>
<g transform="translate(0.000000,84.000000) scale(0.100000,-0.100000)"
fill="#000000" stroke="none">
<path d="M872 818 c7 -13 17 -26 21 -29 5 -3 10 -17 13 -30 25 -142 30 -159
42 -147 8 8 12 48 12 120 l0 108 -50 0 c-49 0 -50 0 -38 -22z"/>
<path d="M296 655 c-3 -9 1 -18 9 -21 26 -10 7 -22 -48 -29 -81 -10 -87 -13
-87 -46 0 -17 6 -32 15 -35 8 -4 15 -12 15 -20 0 -8 9 -14 20 -14 11 0 20 -7
20 -15 0 -8 11 -17 25 -21 14 -3 25 -11 25 -18 0 -15 56 -46 83 -46 11 0 40 9
64 21 l43 21 88 -80 c116 -106 138 -116 225 -108 l69 6 -7 -125 -7 -125 56 0
56 0 0 250 0 250 -30 0 c-20 0 -35 -8 -46 -25 -9 -14 -25 -25 -35 -25 -10 0
-23 -9 -29 -19 -5 -11 -24 -22 -41 -26 -26 -6 -36 -2 -62 22 -95 88 -210 166
-304 203 -54 22 -101 40 -104 40 -4 0 -10 -7 -13 -15z"/>
<path d="M237 354 c-8 -8 9 -51 33 -82 11 -13 20 -33 20 -43 0 -16 8 -19 45
-19 40 0 45 3 45 22 0 12 12 39 26 60 41 58 30 68 -74 68 -49 0 -91 -3 -95 -6z"/>
</g>
</svg>
