<?xml version="1.0" standalone="no"?>
<!DOCTYPE svg PUBLIC "-//W3C//DTD SVG 20010904//EN"
 "http://www.w3.org/TR/2001/REC-SVG-20010904/DTD/svg10.dtd">
<svg version="1.0" xmlns="http://www.w3.org/2000/svg"
 width="96.000000pt" height="84.000000pt" viewBox="0 0 96.000000 84.000000"
 preserveAspectRatio="xMidYMid meet">
<metadata>
Created by potrace 1.16, written by Peter Selinger 2001-2019
</metadata>
<g transform="translate(0.000000,84.000000) scale(0.100000,-0.100000)"
fill="#000000" stroke="none">
<path d="M373 826 c7 -16 -21 -26 -76 -26 -59 0 -73 -12 -75 -63 -2 -32 2 -47
13 -51 8 -3 15 -12 15 -20 0 -7 11 -17 24 -20 13 -3 26 -15 29 -26 4 -16 13
-20 46 -20 23 0 41 -4 41 -10 0 -5 -7 -10 -15 -10 -12 0 -35 -28 -35 -44 0 -2
15 -14 34 -25 43 -27 97 -27 146 1 l38 22 54 -37 c29 -21 78 -56 108 -78 53
-38 88 -49 203 -66 l37 -5 -1 93 0 94 -62 44 c-128 91 -285 186 -370 223 -91
39 -164 51 -154 24z"/>
<path d="M305 231 c-25 -5 -31 -11 -33 -40 -3 -25 3 -40 22 -60 14 -15 29 -41
32 -59 8 -37 37 -49 81 -35 21 7 28 17 30 38 1 16 11 41 22 56 27 37 36 76 21
94 -13 16 -114 19 -175 6z"/>
</g>
</svg>
