<?xml version="1.0" standalone="no"?>
<!DOCTYPE svg PUBLIC "-//W3C//DTD SVG 20010904//EN"
 "http://www.w3.org/TR/2001/REC-SVG-20010904/DTD/svg10.dtd">
<svg version="1.0" xmlns="http://www.w3.org/2000/svg"
 width="96.000000pt" height="84.000000pt" viewBox="0 0 96.000000 84.000000"
 preserveAspectRatio="xMidYMid meet">
<metadata>
Created by potrace 1.16, written by Peter Selinger 2001-2019
</metadata>
<g transform="translate(0.000000,84.000000) scale(0.100000,-0.100000)"
fill="#000000" stroke="none">
<path d="M464 824 c3 -9 6 -18 6 -20 0 -2 7 -4 15 -4 47 0 -15 -60 -78 -75
-15 -4 -32 -16 -38 -27 -9 -17 -7 -24 17 -44 16 -13 48 -26 71 -30 34 -5 50
-1 91 22 l50 28 113 -76 c119 -79 171 -101 220 -91 l29 6 0 163 0 164 -251 0
c-225 0 -251 -2 -245 -16z"/>
<path d="M360 134 c-58 -10 -98 -25 -104 -39 -3 -9 2 -33 10 -55 l16 -40 94 0
c87 0 95 2 109 23 23 36 29 81 12 95 -16 14 -97 23 -137 16z"/>
</g>
</svg>
