<?xml version="1.0" standalone="no"?>
<!DOCTYPE svg PUBLIC "-//W3C//DTD SVG 20010904//EN"
 "http://www.w3.org/TR/2001/REC-SVG-20010904/DTD/svg10.dtd">
<svg version="1.0" xmlns="http://www.w3.org/2000/svg"
 width="96.000000pt" height="84.000000pt" viewBox="0 0 96.000000 84.000000"
 preserveAspectRatio="xMidYMid meet">
<metadata>
Created by potrace 1.16, written by Peter Selinger 2001-2019
</metadata>
<g transform="translate(0.000000,84.000000) scale(0.100000,-0.100000)"
fill="#000000" stroke="none">
<path d="M522 828 c-7 -7 -37 -12 -73 -11 -55 2 -119 -16 -119 -33 0 -3 17
-37 37 -76 31 -61 37 -81 38 -142 1 -58 -4 -81 -26 -126 -33 -68 -54 -135 -73
-223 -13 -64 -13 -68 5 -78 13 -6 19 -6 19 1 0 5 5 10 10 10 6 0 5 -8 -2 -20
-11 -17 -10 -26 5 -51 9 -17 17 -42 17 -55 l0 -24 179 0 179 0 6 28 c3 15 5
44 5 65 -1 21 1 41 4 43 3 3 -11 44 -30 92 -20 48 -36 106 -37 129 0 26 -6 43
-13 43 -6 0 -14 8 -16 18 -29 108 -42 232 -25 232 10 0 8 17 -7 53 -5 12 -3
17 8 17 17 0 27 29 27 83 l0 37 -53 0 c-29 0 -58 -5 -65 -12z m-152 -558 c-16
-61 -25 -41 -9 22 7 29 15 45 17 36 2 -9 -2 -35 -8 -58z m227 38 c-3 -8 -6 -5
-6 6 -1 11 2 17 5 13 3 -3 4 -12 1 -19z"/>
</g>
</svg>
