<?xml version="1.0" standalone="no"?>
<!DOCTYPE svg PUBLIC "-//W3C//DTD SVG 20010904//EN"
 "http://www.w3.org/TR/2001/REC-SVG-20010904/DTD/svg10.dtd">
<svg version="1.0" xmlns="http://www.w3.org/2000/svg"
 width="96.000000pt" height="84.000000pt" viewBox="0 0 96.000000 84.000000"
 preserveAspectRatio="xMidYMid meet">
<metadata>
Created by potrace 1.16, written by Peter Selinger 2001-2019
</metadata>
<g transform="translate(0.000000,84.000000) scale(0.100000,-0.100000)"
fill="#000000" stroke="none">
<path d="M473 833 c15 -2 37 -2 50 0 12 2 0 4 -28 4 -27 0 -38 -2 -22 -4z"/>
<path d="M777 790 c59 -37 95 -52 132 -57 l51 -6 0 57 0 56 -132 0 -133 0 82
-50z"/>
<path d="M318 120 c-62 -11 -68 -16 -68 -51 0 -65 9 -69 134 -69 l114 0 17 35
c23 50 17 78 -20 86 -41 9 -120 8 -177 -1z"/>
</g>
</svg>
