<?xml version="1.0" standalone="no"?>
<!DOCTYPE svg PUBLIC "-//W3C//DTD SVG 20010904//EN"
 "http://www.w3.org/TR/2001/REC-SVG-20010904/DTD/svg10.dtd">
<svg version="1.0" xmlns="http://www.w3.org/2000/svg"
 width="96.000000pt" height="84.000000pt" viewBox="0 0 96.000000 84.000000"
 preserveAspectRatio="xMidYMid meet">
<metadata>
Created by potrace 1.16, written by Peter Selinger 2001-2019
</metadata>
<g transform="translate(0.000000,84.000000) scale(0.100000,-0.100000)"
fill="#000000" stroke="none">
<path d="M378 203 c-117 -4 -118 -4 -118 -28 0 -34 18 -76 45 -105 12 -14 26
-35 30 -47 6 -21 12 -23 81 -23 72 0 74 1 74 24 0 14 11 37 24 53 12 15 28 38
35 50 15 29 14 73 -1 73 -7 0 -22 2 -33 3 -11 2 -73 2 -137 0z"/>
</g>
</svg>
