<?xml version="1.0" standalone="no"?>
<!DOCTYPE svg PUBLIC "-//W3C//DTD SVG 20010904//EN"
 "http://www.w3.org/TR/2001/REC-SVG-20010904/DTD/svg10.dtd">
<svg version="1.0" xmlns="http://www.w3.org/2000/svg"
 width="96.000000pt" height="84.000000pt" viewBox="0 0 96.000000 84.000000"
 preserveAspectRatio="xMidYMid meet">
<metadata>
Created by potrace 1.16, written by Peter Selinger 2001-2019
</metadata>
<g transform="translate(0.000000,84.000000) scale(0.100000,-0.100000)"
fill="#000000" stroke="none">
<path d="M384 380 c-34 -3 -69 -12 -78 -20 -25 -20 -13 -85 25 -132 19 -25 31
-51 32 -75 l2 -38 69 -3 c75 -3 86 3 86 50 0 14 11 39 24 55 12 15 28 38 35
50 12 24 15 93 3 108 -8 11 -99 13 -198 5z"/>
</g>
</svg>
