<?xml version="1.0" standalone="no"?>
<!DOCTYPE svg PUBLIC "-//W3C//DTD SVG 20010904//EN"
 "http://www.w3.org/TR/2001/REC-SVG-20010904/DTD/svg10.dtd">
<svg version="1.0" xmlns="http://www.w3.org/2000/svg"
 width="96.000000pt" height="84.000000pt" viewBox="0 0 96.000000 84.000000"
 preserveAspectRatio="xMidYMid meet">
<metadata>
Created by potrace 1.16, written by Peter Selinger 2001-2019
</metadata>
<g transform="translate(0.000000,84.000000) scale(0.100000,-0.100000)"
fill="#000000" stroke="none">
<path d="M348 534 c-24 -12 -28 -21 -28 -57 0 -27 8 -54 23 -76 41 -64 46 -76
41 -98 -5 -18 0 -25 21 -33 29 -11 85 -13 109 -4 10 4 16 18 16 35 0 17 12 41
29 62 37 42 74 133 66 164 -6 24 -24 30 -41 13 -8 -8 -19 -8 -38 0 -41 15
-166 12 -198 -6z"/>
</g>
</svg>
