<?xml version="1.0" standalone="no"?>
<!DOCTYPE svg PUBLIC "-//W3C//DTD SVG 20010904//EN"
 "http://www.w3.org/TR/2001/REC-SVG-20010904/DTD/svg10.dtd">
<svg version="1.0" xmlns="http://www.w3.org/2000/svg"
 width="96.000000pt" height="84.000000pt" viewBox="0 0 96.000000 84.000000"
 preserveAspectRatio="xMidYMid meet">
<metadata>
Created by potrace 1.16, written by Peter Selinger 2001-2019
</metadata>
<g transform="translate(0.000000,84.000000) scale(0.100000,-0.100000)"
fill="#000000" stroke="none">
<path d="M398 672 c-42 -11 -68 -38 -68 -72 0 -37 21 -90 43 -109 11 -8 17
-28 17 -52 0 -46 18 -59 83 -59 48 0 63 11 65 48 0 12 20 44 42 70 51 57 72
96 68 125 -2 17 -9 22 -32 20 -16 -1 -40 4 -55 11 -32 17 -126 27 -163 18z
m235 -49 c3 -5 1 -17 -4 -28 -4 -11 -8 -15 -8 -8 -1 6 -4 18 -7 27 -6 16 11
23 19 9z"/>
</g>
</svg>
