<?xml version="1.0" standalone="no"?>
<!DOCTYPE svg PUBLIC "-//W3C//DTD SVG 20010904//EN"
 "http://www.w3.org/TR/2001/REC-SVG-20010904/DTD/svg10.dtd">
<svg version="1.0" xmlns="http://www.w3.org/2000/svg"
 width="96.000000pt" height="84.000000pt" viewBox="0 0 96.000000 84.000000"
 preserveAspectRatio="xMidYMid meet">
<metadata>
Created by potrace 1.16, written by Peter Selinger 2001-2019
</metadata>
<g transform="translate(0.000000,84.000000) scale(0.100000,-0.100000)"
fill="#000000" stroke="none">
<path d="M355 736 c-19 -19 -25 -33 -21 -49 3 -12 6 -29 6 -38 0 -9 11 -32 24
-52 14 -20 26 -53 28 -74 3 -35 6 -39 46 -52 58 -18 92 -9 92 27 0 20 16 42
64 87 35 33 67 70 71 83 8 28 -11 55 -35 47 -10 -3 -35 4 -55 16 -27 16 -59
24 -115 27 -75 4 -80 3 -105 -22z m295 -60 c0 -13 -7 -29 -15 -36 -13 -11 -15
-8 -15 17 0 16 3 33 7 36 13 14 23 6 23 -17z"/>
</g>
</svg>
