<?xml version="1.0" standalone="no"?>
<!DOCTYPE svg PUBLIC "-//W3C//DTD SVG 20010904//EN"
 "http://www.w3.org/TR/2001/REC-SVG-20010904/DTD/svg10.dtd">
<svg version="1.0" xmlns="http://www.w3.org/2000/svg"
 width="96.000000pt" height="84.000000pt" viewBox="0 0 96.000000 84.000000"
 preserveAspectRatio="xMidYMid meet">
<metadata>
Created by potrace 1.16, written by Peter Selinger 2001-2019
</metadata>
<g transform="translate(0.000000,84.000000) scale(0.100000,-0.100000)"
fill="#000000" stroke="none">
<path d="M350 800 c-19 -19 -21 -29 -16 -63 4 -23 16 -56 28 -75 12 -19 22
-53 22 -75 1 -37 4 -41 41 -54 22 -8 54 -12 70 -11 25 3 31 8 33 33 5 40 16
51 77 81 37 17 56 33 65 54 17 40 7 64 -25 58 -15 -3 -30 1 -37 9 -25 31 -94
56 -164 61 -64 4 -74 2 -94 -18z m310 -83 c0 -13 -9 -32 -20 -42 -24 -21 -36
-15 -21 12 5 10 12 26 15 36 8 25 26 21 26 -6z"/>
</g>
</svg>
