<?xml version="1.0" standalone="no"?>
<!DOCTYPE svg PUBLIC "-//W3C//DTD SVG 20010904//EN"
 "http://www.w3.org/TR/2001/REC-SVG-20010904/DTD/svg10.dtd">
<svg version="1.0" xmlns="http://www.w3.org/2000/svg"
 width="96.000000pt" height="84.000000pt" viewBox="0 0 96.000000 84.000000"
 preserveAspectRatio="xMidYMid meet">
<metadata>
Created by potrace 1.16, written by Peter Selinger 2001-2019
</metadata>
<g transform="translate(0.000000,84.000000) scale(0.100000,-0.100000)"
fill="#000000" stroke="none">
<path d="M336 824 c-12 -32 -5 -72 20 -120 20 -37 24 -57 20 -85 -6 -36 -4
-37 34 -53 22 -9 56 -16 75 -16 29 0 35 4 35 22 0 27 45 68 74 68 33 0 83 36
90 65 8 32 -10 58 -35 52 -10 -3 -27 5 -40 19 -34 37 -119 64 -198 64 -54 0
-70 -4 -75 -16z m334 -101 c0 -24 -10 -38 -38 -52 -34 -18 -40 -5 -12 24 13
14 20 25 16 25 -4 0 -4 5 -1 10 10 17 35 11 35 -7z"/>
</g>
</svg>
