<?xml version="1.0" standalone="no"?>
<!DOCTYPE svg PUBLIC "-//W3C//DTD SVG 20010904//EN"
 "http://www.w3.org/TR/2001/REC-SVG-20010904/DTD/svg10.dtd">
<svg version="1.0" xmlns="http://www.w3.org/2000/svg"
 width="96.000000pt" height="84.000000pt" viewBox="0 0 96.000000 84.000000"
 preserveAspectRatio="xMidYMid meet">
<metadata>
Created by potrace 1.16, written by Peter Selinger 2001-2019
</metadata>
<g transform="translate(0.000000,84.000000) scale(0.100000,-0.100000)"
fill="#000000" stroke="none">
<path d="M343 829 c-19 -19 -16 -77 6 -123 26 -56 32 -86 21 -107 -13 -23 1
-33 72 -54 61 -17 78 -14 78 13 0 25 31 48 76 55 51 8 88 37 92 71 4 31 -15
59 -34 52 -7 -3 -27 8 -44 24 -59 55 -237 101 -267 69z m333 -123 c9 -24 -15
-55 -49 -64 -42 -12 -48 -5 -16 22 14 12 28 30 32 39 8 21 26 22 33 3z"/>
</g>
</svg>
