<?xml version="1.0" standalone="no"?>
<!DOCTYPE svg PUBLIC "-//W3C//DTD SVG 20010904//EN"
 "http://www.w3.org/TR/2001/REC-SVG-20010904/DTD/svg10.dtd">
<svg version="1.0" xmlns="http://www.w3.org/2000/svg"
 width="96.000000pt" height="84.000000pt" viewBox="0 0 96.000000 84.000000"
 preserveAspectRatio="xMidYMid meet">
<metadata>
Created by potrace 1.16, written by Peter Selinger 2001-2019
</metadata>
<g transform="translate(0.000000,84.000000) scale(0.100000,-0.100000)"
fill="#000000" stroke="none">
<path d="M338 764 c-16 -15 -8 -96 13 -136 16 -31 20 -52 15 -84 l-5 -42 58
-21 c74 -27 87 -26 95 4 4 14 13 25 21 25 8 0 15 4 15 9 0 5 23 11 50 13 60 6
100 37 100 79 0 28 -22 53 -41 47 -7 -2 -23 6 -37 19 -48 45 -262 110 -284 87z
m342 -153 c0 -23 -35 -51 -63 -51 -25 0 -17 22 14 37 13 7 20 13 16 13 -15 0
4 20 19 20 8 0 14 -9 14 -19z"/>
</g>
</svg>
