<?xml version="1.0" standalone="no"?>
<!DOCTYPE svg PUBLIC "-//W3C//DTD SVG 20010904//EN"
 "http://www.w3.org/TR/2001/REC-SVG-20010904/DTD/svg10.dtd">
<svg version="1.0" xmlns="http://www.w3.org/2000/svg"
 width="96.000000pt" height="84.000000pt" viewBox="0 0 96.000000 84.000000"
 preserveAspectRatio="xMidYMid meet">
<metadata>
Created by potrace 1.16, written by Peter Selinger 2001-2019
</metadata>
<g transform="translate(0.000000,84.000000) scale(0.100000,-0.100000)"
fill="#000000" stroke="none">
<path d="M515 833 c-11 -3 -24 -9 -29 -13 -5 -5 -16 -4 -26 2 -21 14 -84 3
-100 -17 -10 -13 -9 -23 6 -57 10 -22 25 -48 34 -56 23 -24 21 -216 -2 -257
-18 -30 -60 -169 -73 -239 -5 -24 -3 -36 4 -36 7 0 9 -9 5 -24 -4 -17 0 -28
14 -37 10 -8 23 -32 28 -54 l10 -40 171 -3 171 -2 4 82 c3 71 -1 93 -25 155
-15 40 -30 94 -34 120 -3 26 -12 54 -20 61 -7 7 -13 28 -13 46 0 17 -5 37 -12
44 -6 6 -13 42 -16 78 -3 54 -1 69 12 76 14 8 15 12 1 38 -13 25 -13 30 -1 30
18 0 26 22 26 71 l0 39 -57 -1 c-32 -1 -67 -3 -78 -6z m92 -560 c-2 -16 -4 -3
-4 27 0 30 2 43 4 28 2 -16 2 -40 0 -55z m10 -55 c-3 -8 -6 -5 -6 6 -1 11 2
17 5 13 3 -3 4 -12 1 -19z"/>
</g>
</svg>
