<?xml version="1.0" standalone="no"?>
<!DOCTYPE svg PUBLIC "-//W3C//DTD SVG 20010904//EN"
 "http://www.w3.org/TR/2001/REC-SVG-20010904/DTD/svg10.dtd">
<svg version="1.0" xmlns="http://www.w3.org/2000/svg"
 width="96.000000pt" height="84.000000pt" viewBox="0 0 96.000000 84.000000"
 preserveAspectRatio="xMidYMid meet">
<metadata>
Created by potrace 1.16, written by Peter Selinger 2001-2019
</metadata>
<g transform="translate(0.000000,84.000000) scale(0.100000,-0.100000)"
fill="#000000" stroke="none">
<path d="M330 580 c0 -31 8 -66 21 -91 15 -31 19 -50 14 -83 -7 -41 -6 -43 27
-58 44 -21 105 -37 112 -30 3 3 6 13 6 23 0 26 37 46 99 53 70 7 93 28 89 80
-3 35 -7 41 -33 47 -16 4 -88 30 -160 58 -72 28 -140 51 -152 51 -21 0 -23 -5
-23 -50z m356 -101 c9 -15 -26 -47 -64 -58 l-32 -10 18 24 c9 14 23 22 30 20
7 -3 12 4 12 15 0 21 24 27 36 9z"/>
</g>
</svg>
