<?xml version="1.0" standalone="no"?>
<!DOCTYPE svg PUBLIC "-//W3C//DTD SVG 20010904//EN"
 "http://www.w3.org/TR/2001/REC-SVG-20010904/DTD/svg10.dtd">
<svg version="1.0" xmlns="http://www.w3.org/2000/svg"
 width="96.000000pt" height="84.000000pt" viewBox="0 0 96.000000 84.000000"
 preserveAspectRatio="xMidYMid meet">
<metadata>
Created by potrace 1.16, written by Peter Selinger 2001-2019
</metadata>
<g transform="translate(0.000000,84.000000) scale(0.100000,-0.100000)"
fill="#000000" stroke="none">
<path d="M337 453 c-14 -13 -7 -105 10 -136 11 -19 18 -54 18 -87 0 -50 2 -56
34 -77 19 -13 49 -23 68 -23 29 0 36 5 44 30 6 16 17 30 25 30 8 0 14 5 14 10
0 6 22 10 49 10 63 0 79 6 95 39 16 33 6 75 -19 79 -11 2 -27 10 -35 17 -26
23 -132 72 -204 94 -73 23 -89 25 -99 14z m353 -163 c0 -19 -48 -60 -70 -60
-18 0 -19 2 -8 20 7 11 18 20 25 20 7 0 13 7 13 15 0 8 9 15 20 15 11 0 20 -5
20 -10z"/>
</g>
</svg>
