<?xml version="1.0" standalone="no"?>
<!DOCTYPE svg PUBLIC "-//W3C//DTD SVG 20010904//EN"
 "http://www.w3.org/TR/2001/REC-SVG-20010904/DTD/svg10.dtd">
<svg version="1.0" xmlns="http://www.w3.org/2000/svg"
 width="96.000000pt" height="84.000000pt" viewBox="0 0 96.000000 84.000000"
 preserveAspectRatio="xMidYMid meet">
<metadata>
Created by potrace 1.16, written by Peter Selinger 2001-2019
</metadata>
<g transform="translate(0.000000,84.000000) scale(0.100000,-0.100000)"
fill="#000000" stroke="none">
<path d="M0 420 l0 -420 179 0 179 0 -15 31 c-13 26 -13 35 -3 55 14 25 13 30
-30 104 -14 24 -20 53 -20 93 l0 58 61 -3 60 -3 18 -53 c28 -83 41 -87 41 -14
0 36 4 62 10 62 22 0 130 -61 130 -73 -1 -34 -16 -61 -44 -74 -19 -9 -23 -12
-9 -10 12 3 24 0 27 -7 2 -6 12 8 22 32 9 23 21 42 25 42 5 0 26 -16 48 -35
21 -19 43 -35 49 -35 19 0 44 -47 37 -70 -12 -37 -47 -51 -122 -48 -72 3 -103
-9 -103 -38 0 -11 38 -14 210 -14 l210 0 0 420 0 420 -480 0 -480 0 0 -420z"/>
<path d="M369 206 c29 -31 35 -33 22 -7 -6 10 -18 22 -28 25 -13 5 -11 1 6
-18z"/>
<path d="M710 129 c0 -6 -10 -19 -22 -30 l-23 -18 26 -1 c14 0 30 5 37 12 17
17 15 48 -3 48 -8 0 -15 -5 -15 -11z"/>
</g>
</svg>
