<?xml version="1.0" standalone="no"?>
<!DOCTYPE svg PUBLIC "-//W3C//DTD SVG 20010904//EN"
 "http://www.w3.org/TR/2001/REC-SVG-20010904/DTD/svg10.dtd">
<svg version="1.0" xmlns="http://www.w3.org/2000/svg"
 width="96.000000pt" height="84.000000pt" viewBox="0 0 96.000000 84.000000"
 preserveAspectRatio="xMidYMid meet">
<metadata>
Created by potrace 1.16, written by Peter Selinger 2001-2019
</metadata>
<g transform="translate(0.000000,84.000000) scale(0.100000,-0.100000)"
fill="#000000" stroke="none">
<path d="M0 420 l0 -420 181 0 c165 0 180 1 168 16 -7 9 -13 42 -13 75 -1 33
-6 63 -12 67 -21 13 -54 77 -54 103 0 14 -7 34 -15 45 -22 29 -18 34 21 34 19
0 44 5 56 11 17 9 25 6 47 -15 15 -14 36 -26 47 -26 10 0 25 -4 33 -9 16 -10
6 -31 -15 -31 -25 0 -15 -18 32 -56 37 -31 53 -37 82 -35 30 1 34 -1 24 -11
-15 -15 -16 -28 -2 -28 6 0 25 23 42 50 l31 51 29 -28 c15 -15 28 -23 29 -17
0 5 4 -1 9 -14 5 -12 20 -26 34 -32 32 -12 42 -45 22 -75 -21 -33 -59 -41
-117 -26 -40 11 -52 10 -78 -4 -17 -8 -31 -22 -31 -30 0 -13 31 -15 205 -15
l205 0 0 420 0 420 -480 0 -480 0 0 -420z m617 -174 c-13 -40 -23 -46 -74 -46
-36 0 -43 4 -48 23 -7 29 -9 55 -7 94 l2 31 69 -35 69 -36 -11 -31z"/>
<path d="M310 261 c0 -11 102 -102 108 -97 2 2 -3 25 -11 51 -13 46 -15 48
-55 51 -23 2 -42 0 -42 -5z"/>
<path d="M722 99 c-31 -28 -32 -29 -8 -29 27 0 49 22 44 44 -2 11 -11 7 -36
-15z"/>
<path d="M450 80 c0 -5 5 -10 11 -10 5 0 7 5 4 10 -3 6 -8 10 -11 10 -2 0 -4
-4 -4 -10z"/>
<path d="M506 15 c4 -8 10 -15 15 -15 4 0 6 7 3 15 -4 8 -10 15 -15 15 -4 0
-6 -7 -3 -15z"/>
</g>
</svg>
