<?xml version="1.0" standalone="no"?>
<!DOCTYPE svg PUBLIC "-//W3C//DTD SVG 20010904//EN"
 "http://www.w3.org/TR/2001/REC-SVG-20010904/DTD/svg10.dtd">
<svg version="1.0" xmlns="http://www.w3.org/2000/svg"
 width="96.000000pt" height="84.000000pt" viewBox="0 0 96.000000 84.000000"
 preserveAspectRatio="xMidYMid meet">
<metadata>
Created by potrace 1.16, written by Peter Selinger 2001-2019
</metadata>
<g transform="translate(0.000000,84.000000) scale(0.100000,-0.100000)"
fill="#000000" stroke="none">
<path d="M0 420 l0 -420 181 0 180 0 -15 21 c-8 12 -12 27 -10 34 3 7 1 16 -5
19 -6 4 -8 20 -4 37 5 25 0 36 -24 62 -36 38 -53 68 -53 95 0 11 -10 27 -22
35 -18 12 -19 16 -7 16 9 1 22 8 29 16 9 10 16 12 20 5 11 -18 86 27 111 67
17 29 24 34 27 21 5 -26 -64 -105 -104 -118 -19 -6 -34 -15 -33 -18 0 -7 119
-112 152 -135 10 -7 19 -24 21 -38 3 -29 13 -49 26 -49 5 0 1 19 -9 43 -17 39
-34 106 -44 170 -5 31 8 37 18 8 3 -10 25 -40 49 -66 40 -42 47 -46 75 -40 32
7 40 -2 20 -22 -6 -6 -8 -16 -4 -23 9 -14 47 19 77 68 l20 33 23 -21 c15 -14
28 -18 41 -13 16 6 17 5 6 -9 -11 -14 -8 -21 23 -51 40 -39 44 -68 13 -97 -27
-25 -41 -25 -97 0 -36 17 -47 18 -60 8 -37 -30 -63 -40 -74 -29 -18 18 -50 14
-43 -5 3 -9 6 -18 6 -20 0 -2 101 -4 225 -4 l225 0 0 420 0 420 -480 0 -480 0
0 -420z m612 -117 c25 -11 26 -15 17 -42 -12 -35 -35 -45 -83 -36 -23 5 -36
14 -40 28 -8 29 -8 92 0 100 3 3 23 -4 43 -16 20 -13 48 -28 63 -34z"/>
<path d="M737 85 c-25 -22 -26 -25 -8 -25 20 0 51 24 51 41 0 15 -13 10 -43
-16z"/>
</g>
</svg>
