<?xml version="1.0" standalone="no"?>
<!DOCTYPE svg PUBLIC "-//W3C//DTD SVG 20010904//EN"
 "http://www.w3.org/TR/2001/REC-SVG-20010904/DTD/svg10.dtd">
<svg version="1.0" xmlns="http://www.w3.org/2000/svg"
 width="96.000000pt" height="84.000000pt" viewBox="0 0 96.000000 84.000000"
 preserveAspectRatio="xMidYMid meet">
<metadata>
Created by potrace 1.16, written by Peter Selinger 2001-2019
</metadata>
<g transform="translate(0.000000,84.000000) scale(0.100000,-0.100000)"
fill="#000000" stroke="none">
<path d="M0 420 l0 -420 182 0 c178 0 181 0 164 19 -11 13 -15 27 -11 40 4 13
2 21 -5 21 -6 0 -10 15 -8 34 2 28 -4 39 -31 62 -53 44 -91 150 -61 169 5 3
10 14 10 23 0 9 12 26 26 37 19 15 27 34 33 75 6 43 9 49 14 30 15 -62 16 -95
7 -131 -10 -38 -45 -73 -62 -63 -11 7 -10 -28 2 -46 8 -12 10 -12 10 5 1 18 2
18 11 3 5 -10 38 -38 72 -64 75 -57 87 -71 87 -101 0 -12 9 -27 20 -33 24 -13
24 -10 6 72 -15 68 -28 168 -21 168 2 0 18 -27 36 -60 27 -50 37 -61 65 -66
18 -3 37 -3 43 1 17 10 13 -6 -5 -27 -14 -14 -14 -20 -4 -33 16 -19 42 -1 33
22 -4 10 -2 14 4 10 12 -7 32 9 57 44 12 18 17 19 35 7 17 -10 25 -10 41 0 24
15 26 5 4 -20 -16 -17 -14 -20 24 -62 29 -31 40 -51 35 -63 -16 -46 -67 -56
-121 -23 l-33 20 -27 -20 c-21 -17 -34 -20 -67 -14 -22 3 -46 11 -53 17 -10 8
-12 3 -10 -22 l2 -31 228 0 228 0 0 420 0 420 -480 0 -480 0 0 -420z m607
-100 c38 -17 42 -22 34 -42 -9 -24 -45 -34 -86 -24 -28 7 -48 54 -39 90 6 25
8 26 28 11 11 -8 40 -24 63 -35z"/>
<path d="M771 86 c-7 -9 -20 -16 -27 -16 -8 0 -14 -4 -14 -10 0 -5 6 -10 13
-10 21 0 50 25 46 39 -4 10 -8 9 -18 -3z"/>
</g>
</svg>
