<?xml version="1.0" standalone="no"?>
<!DOCTYPE svg PUBLIC "-//W3C//DTD SVG 20010904//EN"
 "http://www.w3.org/TR/2001/REC-SVG-20010904/DTD/svg10.dtd">
<svg version="1.0" xmlns="http://www.w3.org/2000/svg"
 width="96.000000pt" height="84.000000pt" viewBox="0 0 96.000000 84.000000"
 preserveAspectRatio="xMidYMid meet">
<metadata>
Created by potrace 1.16, written by Peter Selinger 2001-2019
</metadata>
<g transform="translate(0.000000,84.000000) scale(0.100000,-0.100000)"
fill="#000000" stroke="none">
<path d="M0 420 l0 -420 182 0 c179 0 181 0 163 20 -10 11 -15 28 -12 40 3 11
-1 27 -10 35 -8 9 -12 23 -8 35 5 14 -2 25 -28 41 -60 40 -102 128 -82 176 5
14 10 8 21 -28 7 -25 24 -54 36 -65 13 -10 17 -12 11 -4 -7 8 -13 20 -13 28 0
9 15 0 39 -21 22 -20 58 -46 80 -59 27 -14 43 -32 47 -48 3 -14 9 -31 13 -39
9 -17 38 -37 44 -31 2 3 0 48 -5 100 -5 52 -7 106 -6 120 3 21 7 17 27 -28 26
-57 44 -72 88 -72 l28 -1 -23 -19 c-19 -16 -21 -23 -12 -40 14 -26 22 -25 49
4 22 23 22 25 4 35 -16 9 -15 10 8 11 14 0 34 9 44 20 14 16 26 19 47 14 17
-3 35 -1 43 6 23 19 18 -1 -7 -27 l-22 -23 37 -38 c41 -42 48 -79 19 -105 -27
-25 -57 -21 -95 13 -40 35 -47 37 -47 11 0 -11 -12 -23 -30 -31 -26 -11 -35
-9 -80 13 l-50 25 0 -28 c0 -16 -6 -31 -12 -33 -7 -3 96 -6 230 -6 l242 -1 0
420 0 420 -480 0 -480 0 0 -420z m304 69 c26 -31 39 -86 14 -61 -7 7 -20 12
-29 12 -10 0 -26 14 -36 30 -9 17 -25 33 -35 36 -25 8 -22 22 5 26 29 5 50 -5
81 -43z m257 -126 c8 -9 33 -25 56 -35 34 -15 40 -22 36 -39 -5 -18 -11 -21
-45 -16 -52 7 -78 32 -78 74 0 36 10 42 31 16z"/>
<path d="M720 65 c16 -19 54 -19 70 0 11 14 10 14 -11 7 -14 -6 -34 -6 -48 -1
-21 8 -22 7 -11 -6z"/>
</g>
</svg>
