<?xml version="1.0" standalone="no"?>
<!DOCTYPE svg PUBLIC "-//W3C//DTD SVG 20010904//EN"
 "http://www.w3.org/TR/2001/REC-SVG-20010904/DTD/svg10.dtd">
<svg version="1.0" xmlns="http://www.w3.org/2000/svg"
 width="96.000000pt" height="84.000000pt" viewBox="0 0 96.000000 84.000000"
 preserveAspectRatio="xMidYMid meet">
<metadata>
Created by potrace 1.16, written by Peter Selinger 2001-2019
</metadata>
<g transform="translate(0.000000,84.000000) scale(0.100000,-0.100000)"
fill="#000000" stroke="none">
<path d="M0 420 l0 -420 187 0 c173 0 186 1 165 16 -15 10 -22 25 -22 48 0 19
-7 39 -15 46 -9 7 -13 21 -10 31 4 13 -3 22 -29 34 -59 28 -113 115 -101 162
8 33 22 28 29 -10 6 -32 43 -83 53 -74 2 3 0 15 -7 26 -14 28 -2 27 20 -2 10
-12 48 -40 84 -61 36 -21 66 -43 66 -48 0 -25 34 -78 50 -78 16 0 29 -26 30
-56 0 -6 -10 -16 -22 -22 -17 -8 40 -11 230 -11 l252 -1 0 420 0 420 -480 0
-480 0 0 -420z m290 202 c25 -31 25 -51 3 -59 -10 -3 -39 -23 -65 -45 l-48
-39 2 80 c2 77 3 81 27 89 35 12 58 4 81 -26z m286 -253 c10 -12 34 -28 52
-36 29 -12 40 -31 26 -46 -9 -9 -67 14 -91 36 -22 20 -32 67 -15 67 5 0 17
-10 28 -21z m-46 -107 c14 -41 20 -47 48 -50 38 -4 39 -8 11 -31 l-21 -17 21
-24 20 -25 38 38 c37 36 37 38 16 43 -13 4 -23 11 -23 16 0 5 9 6 21 3 14 -5
28 0 43 14 20 19 27 20 50 10 20 -10 29 -10 38 -1 7 7 16 12 22 12 14 0 -24
-39 -45 -45 -27 -9 -24 -20 21 -69 45 -48 50 -76 20 -106 -29 -29 -48 -25 -88
17 -19 21 -41 38 -48 39 -21 3 -27 -15 -13 -33 11 -13 10 -17 -6 -29 -25 -18
-30 -18 -81 8 -55 27 -102 93 -85 120 6 10 11 52 11 95 0 84 5 87 30 15z"/>
<path d="M730 71 c0 -13 24 -31 41 -31 33 0 29 17 -6 28 -19 5 -35 7 -35 3z"/>
</g>
</svg>
