<?xml version="1.0" standalone="no"?>
<!DOCTYPE svg PUBLIC "-//W3C//DTD SVG 20010904//EN"
 "http://www.w3.org/TR/2001/REC-SVG-20010904/DTD/svg10.dtd">
<svg version="1.0" xmlns="http://www.w3.org/2000/svg"
 width="96.000000pt" height="84.000000pt" viewBox="0 0 96.000000 84.000000"
 preserveAspectRatio="xMidYMid meet">
<metadata>
Created by potrace 1.16, written by Peter Selinger 2001-2019
</metadata>
<g transform="translate(0.000000,84.000000) scale(0.100000,-0.100000)"
fill="#000000" stroke="none">
<path d="M0 420 l0 -420 193 0 c160 0 188 2 167 13 -16 8 -27 25 -32 52 -5 22
-13 44 -18 49 -6 6 -10 20 -10 32 0 15 -8 23 -27 27 -51 10 -123 96 -123 145
0 44 14 47 29 7 11 -32 53 -75 73 -75 4 0 1 11 -8 25 -21 33 -13 32 25 -3 17
-15 56 -40 86 -56 44 -22 57 -34 62 -56 3 -16 13 -31 22 -33 9 -3 6 -5 -9 -6
-20 -1 -22 -3 -10 -11 8 -5 25 -10 38 -10 15 0 26 -9 32 -26 15 -38 13 -40
-28 -57 -37 -16 -37 -16 63 -16 55 0 93 3 85 6 -29 11 -75 56 -99 95 -21 37
-22 43 -11 84 7 25 17 47 21 50 5 3 9 21 9 40 0 47 16 43 24 -7 5 -32 12 -43
36 -52 28 -12 28 -13 9 -25 -19 -12 -19 -13 2 -55 12 -23 35 -58 50 -78 34
-43 35 -46 12 -52 -10 -3 11 -5 46 -6 l65 -1 -26 27 c-14 16 -28 36 -32 47 -5
14 -12 17 -32 12 -18 -5 -32 -2 -45 10 -18 16 -16 18 32 62 l50 45 -30 13
c-36 15 -41 29 -8 20 14 -3 33 1 46 10 18 13 28 14 47 5 19 -8 31 -8 46 0 16
9 19 8 16 -3 -2 -7 -25 -20 -51 -29 l-47 -16 26 -38 c14 -21 37 -47 50 -57 28
-23 25 -62 -8 -91 -19 -16 -17 -17 66 -17 l86 0 0 420 0 420 -480 0 -480 0 0
-420z m180 305 l48 -25 4 -77 c2 -43 1 -81 -2 -86 -6 -8 -98 101 -119 140 -12
24 -5 73 10 73 6 0 32 -11 59 -25z m405 -351 c14 -14 39 -30 55 -36 27 -9 43
-38 21 -38 -41 0 -111 51 -111 82 0 24 4 23 35 -8z"/>
<path d="M740 81 c0 -21 20 -51 34 -51 8 0 19 7 26 15 10 12 9 15 -5 15 -10 0
-27 7 -37 17 -12 10 -18 12 -18 4z"/>
</g>
</svg>
