<?xml version="1.0" standalone="no"?>
<!DOCTYPE svg PUBLIC "-//W3C//DTD SVG 20010904//EN"
 "http://www.w3.org/TR/2001/REC-SVG-20010904/DTD/svg10.dtd">
<svg version="1.0" xmlns="http://www.w3.org/2000/svg"
 width="96.000000pt" height="84.000000pt" viewBox="0 0 96.000000 84.000000"
 preserveAspectRatio="xMidYMid meet">
<metadata>
Created by potrace 1.16, written by Peter Selinger 2001-2019
</metadata>
<g transform="translate(0.000000,84.000000) scale(0.100000,-0.100000)"
fill="#000000" stroke="none">
<path d="M547 834 c-4 -4 -37 -6 -73 -6 -68 1 -104 -9 -104 -31 0 -26 34 -97
46 -97 15 0 17 -16 16 -125 0 -82 -11 -132 -29 -139 -10 -4 -13 -14 -9 -28 3
-13 -8 -60 -25 -110 -16 -48 -29 -94 -28 -100 1 -7 -1 -26 -6 -41 -6 -23 -3
-32 19 -52 15 -14 28 -39 32 -64 l7 -41 171 0 171 0 -6 73 c-3 39 -2 76 2 81
4 5 -6 45 -23 90 -16 44 -30 102 -31 128 0 29 -6 49 -14 52 -7 3 -13 21 -13
39 0 20 -9 44 -20 58 -18 20 -20 31 -14 79 3 30 13 62 20 71 11 13 11 18 -1
36 -13 19 -13 21 5 26 17 4 20 14 20 56 l0 51 -53 0 c-30 0 -57 -3 -60 -6z
m66 -554 c4 -48 3 -68 -3 -55 -8 19 -14 143 -6 134 2 -2 6 -38 9 -79z"/>
</g>
</svg>
