<?xml version="1.0" standalone="no"?>
<!DOCTYPE svg PUBLIC "-//W3C//DTD SVG 20010904//EN"
 "http://www.w3.org/TR/2001/REC-SVG-20010904/DTD/svg10.dtd">
<svg version="1.0" xmlns="http://www.w3.org/2000/svg"
 width="96.000000pt" height="84.000000pt" viewBox="0 0 96.000000 84.000000"
 preserveAspectRatio="xMidYMid meet">
<metadata>
Created by potrace 1.16, written by Peter Selinger 2001-2019
</metadata>
<g transform="translate(0.000000,84.000000) scale(0.100000,-0.100000)"
fill="#000000" stroke="none">
<path d="M0 420 l0 -420 193 1 c105 1 181 4 167 8 -15 4 -27 16 -30 31 -3 14
-14 48 -25 77 -17 45 -23 52 -59 63 -49 15 -111 77 -121 120 -11 49 9 57 33
16 21 -36 66 -65 79 -52 4 3 1 12 -5 18 -28 28 -9 29 21 1 17 -17 60 -45 95
-62 38 -19 62 -38 62 -48 0 -8 8 -22 18 -29 15 -12 12 -13 -23 -14 -32 -1 -36
-3 -20 -10 11 -5 36 -9 57 -9 31 -1 37 -5 47 -33 13 -36 6 -43 -59 -65 -31
-10 -24 -12 69 -12 l105 -1 -31 32 c-17 18 -34 44 -38 57 -4 14 -17 32 -28 41
-19 16 -20 18 -2 62 10 27 25 48 36 51 12 3 19 14 19 30 0 14 5 29 10 32 6 4
10 -6 10 -24 0 -39 9 -61 26 -61 17 0 19 -17 2 -22 -17 -6 3 -69 44 -138 29
-49 37 -55 70 -58 l36 -3 -18 48 c-14 37 -23 47 -38 46 -11 -1 -27 6 -36 16
-16 17 -14 20 24 55 46 41 56 44 65 15 4 -11 28 -41 53 -66 27 -27 41 -48 34
-51 -7 -2 -12 -11 -12 -21 0 -9 -5 -22 -12 -29 -9 -9 5 -12 65 -12 l77 0 0
420 0 420 -480 0 -480 0 0 -420z m100 295 c19 -1 45 -7 58 -13 13 -8 36 -10
57 -6 29 5 34 4 29 -9 -8 -21 -94 -32 -137 -18 -19 7 -45 23 -58 38 -21 23
-22 25 -4 18 11 -5 36 -9 55 -10z m510 -345 c19 -16 40 -29 47 -30 24 0 23
-20 -1 -20 -25 0 -96 53 -96 71 0 16 15 10 50 -21z m229 -110 c23 12 29 -1 9
-18 -36 -28 -155 -17 -166 16 -3 11 0 12 17 3 16 -9 27 -8 48 3 24 12 30 12
49 -1 17 -11 27 -12 43 -3z"/>
<path d="M760 65 c0 -11 5 -27 10 -35 8 -13 11 -13 27 3 13 12 14 17 4 17 -8
0 -20 8 -27 18 -13 16 -13 16 -14 -3z"/>
</g>
</svg>
