<?xml version="1.0" standalone="no"?>
<!DOCTYPE svg PUBLIC "-//W3C//DTD SVG 20010904//EN"
 "http://www.w3.org/TR/2001/REC-SVG-20010904/DTD/svg10.dtd">
<svg version="1.0" xmlns="http://www.w3.org/2000/svg"
 width="96.000000pt" height="84.000000pt" viewBox="0 0 96.000000 84.000000"
 preserveAspectRatio="xMidYMid meet">
<metadata>
Created by potrace 1.16, written by Peter Selinger 2001-2019
</metadata>
<g transform="translate(0.000000,84.000000) scale(0.100000,-0.100000)"
fill="#000000" stroke="none">
<path d="M0 420 l0 -420 174 0 174 0 -8 33 c-4 17 -15 51 -24 74 -15 34 -23
42 -52 48 -62 11 -134 91 -134 150 0 30 16 33 25 5 8 -26 62 -70 86 -70 19 0
19 1 2 27 -18 28 -18 28 22 -4 22 -18 66 -44 97 -58 42 -19 60 -33 64 -51 3
-13 14 -24 23 -24 32 0 -12 -20 -49 -21 l-35 -1 30 -8 c17 -4 46 -8 65 -9 30
-1 37 -6 48 -33 11 -29 10 -35 -5 -45 -14 -11 -8 -13 42 -13 l58 0 -21 23
c-13 14 -22 36 -22 55 0 24 -4 30 -15 26 -9 -4 -19 3 -26 19 -17 38 10 102 42
102 16 0 25 7 27 20 7 38 19 36 26 -4 3 -23 12 -41 18 -41 9 0 9 -3 1 -11 -12
-12 2 -67 36 -144 19 -42 22 -45 59 -45 l39 0 -11 40 c-6 24 -15 39 -22 36
-15 -6 -54 22 -53 37 0 7 18 27 39 45 l38 33 24 -43 c13 -23 34 -48 48 -55 26
-13 45 -49 30 -58 -6 -4 -10 -13 -10 -21 0 -10 14 -14 55 -14 l55 0 0 420 0
420 -480 0 -480 0 0 -420z m175 320 c-16 -47 -62 -100 -89 -100 -6 0 -22 7
-34 16 -22 15 -22 17 -6 35 9 10 27 19 39 19 30 0 70 33 86 71 20 49 23 16 4
-41z m444 -370 c7 0 29 -16 49 -37 21 -21 29 -33 19 -30 -10 4 -23 7 -27 7
-17 0 -80 62 -80 79 1 14 2 14 14 -1 7 -10 19 -18 25 -18z m205 -125 c13 -10
25 -11 42 -5 26 10 41 -2 21 -17 -34 -27 -134 -20 -165 11 -14 14 -12 15 20
10 21 -4 38 -2 42 5 9 14 17 14 40 -4z"/>
<path d="M785 35 c8 -36 12 -42 25 -29 5 5 1 19 -11 34 l-21 25 7 -30z"/>
</g>
</svg>
