<?xml version="1.0" standalone="no"?>
<!DOCTYPE svg PUBLIC "-//W3C//DTD SVG 20010904//EN"
 "http://www.w3.org/TR/2001/REC-SVG-20010904/DTD/svg10.dtd">
<svg version="1.0" xmlns="http://www.w3.org/2000/svg"
 width="96.000000pt" height="84.000000pt" viewBox="0 0 96.000000 84.000000"
 preserveAspectRatio="xMidYMid meet">
<metadata>
Created by potrace 1.16, written by Peter Selinger 2001-2019
</metadata>
<g transform="translate(0.000000,84.000000) scale(0.100000,-0.100000)"
fill="#000000" stroke="none">
<path d="M0 420 l0 -420 200 0 c110 0 200 2 200 5 0 2 -19 13 -42 23 -57 25
-125 100 -134 147 -7 41 3 59 20 31 23 -39 52 -64 79 -70 l29 -7 -21 30 c-30
42 -26 47 12 15 17 -15 60 -39 93 -54 48 -22 64 -34 72 -59 6 -17 17 -31 24
-32 7 -1 -14 -7 -47 -14 l-60 -12 97 -2 98 -1 -19 31 c-18 29 -18 33 -3 72 9
23 16 43 17 45 1 1 16 -3 33 -9 26 -9 34 -8 49 7 17 17 19 14 36 -64 12 -55
23 -82 32 -82 8 0 12 6 9 13 -3 8 2 20 11 27 8 7 15 18 15 26 0 7 9 19 21 27
13 9 16 17 10 22 -18 11 -13 28 7 19 9 -4 41 -8 70 -9 l52 -2 0 359 0 358
-480 0 -480 0 0 -420z m185 297 c15 -26 25 -59 25 -81 l0 -38 -32 21 c-36 22
-51 77 -26 92 10 7 10 11 0 21 -14 14 -16 28 -2 28 5 0 21 -20 35 -43z m479
-402 c3 -8 11 -15 18 -15 7 -1 31 -16 53 -35 31 -27 36 -35 21 -35 -29 0 -79
35 -99 69 -10 17 -14 31 -9 31 6 0 12 -7 16 -15z"/>
<path d="M850 94 c0 -4 11 -27 25 -51 21 -35 31 -43 55 -43 28 0 30 2 30 40 0
39 -1 40 -36 40 -19 0 -44 5 -55 10 -10 6 -19 8 -19 4z"/>
<path d="M653 38 c-21 -28 -24 -38 -9 -38 8 0 18 9 21 21 8 25 2 34 -12 17z"/>
</g>
</svg>
