<?xml version="1.0" standalone="no"?>
<!DOCTYPE svg PUBLIC "-//W3C//DTD SVG 20010904//EN"
 "http://www.w3.org/TR/2001/REC-SVG-20010904/DTD/svg10.dtd">
<svg version="1.0" xmlns="http://www.w3.org/2000/svg"
 width="96.000000pt" height="84.000000pt" viewBox="0 0 96.000000 84.000000"
 preserveAspectRatio="xMidYMid meet">
<metadata>
Created by potrace 1.16, written by Peter Selinger 2001-2019
</metadata>
<g transform="translate(0.000000,84.000000) scale(0.100000,-0.100000)"
fill="#000000" stroke="none">
<path d="M0 420 l0 -420 189 0 c185 0 189 0 184 20 -4 15 -2 19 10 14 9 -3 18
-12 21 -20 3 -8 17 -14 31 -14 25 0 25 1 9 25 -21 32 -10 32 28 0 l29 -25 229
1 230 0 0 419 0 420 -480 0 -480 0 0 -420z m273 261 c34 -13 57 -39 57 -64 0
-21 -5 -22 -74 -23 -81 0 -80 -1 -48 64 18 34 27 37 65 23z m576 -534 c23 -16
41 -33 41 -38 0 -19 -76 22 -107 58 -41 45 -43 63 -4 31 16 -12 48 -36 70 -51z"/>
</g>
</svg>
