<?xml version="1.0" standalone="no"?>
<!DOCTYPE svg PUBLIC "-//W3C//DTD SVG 20010904//EN"
 "http://www.w3.org/TR/2001/REC-SVG-20010904/DTD/svg10.dtd">
<svg version="1.0" xmlns="http://www.w3.org/2000/svg"
 width="96.000000pt" height="84.000000pt" viewBox="0 0 96.000000 84.000000"
 preserveAspectRatio="xMidYMid meet">
<metadata>
Created by potrace 1.16, written by Peter Selinger 2001-2019
</metadata>
<g transform="translate(0.000000,84.000000) scale(0.100000,-0.100000)"
fill="#000000" stroke="none">
<path d="M0 420 l0 -420 466 0 c489 0 474 -2 436 43 -8 9 -12 20 -8 24 4 5 12
0 17 -9 6 -10 19 -22 29 -28 20 -11 20 -5 20 400 l0 410 -480 0 -480 0 0 -420z
m383 212 l24 -32 -26 -52 c-14 -29 -31 -66 -37 -83 l-10 -30 -16 30 c-9 17
-20 63 -23 103 -7 68 -6 73 16 91 28 22 39 18 72 -27z"/>
</g>
</svg>
