<?xml version="1.0" standalone="no"?>
<!DOCTYPE svg PUBLIC "-//W3C//DTD SVG 20010904//EN"
 "http://www.w3.org/TR/2001/REC-SVG-20010904/DTD/svg10.dtd">
<svg version="1.0" xmlns="http://www.w3.org/2000/svg"
 width="96.000000pt" height="84.000000pt" viewBox="0 0 96.000000 84.000000"
 preserveAspectRatio="xMidYMid meet">
<metadata>
Created by potrace 1.16, written by Peter Selinger 2001-2019
</metadata>
<g transform="translate(0.000000,84.000000) scale(0.100000,-0.100000)"
fill="#000000" stroke="none">
<path d="M588 818 c-16 -5 -28 -14 -28 -20 0 -7 -27 -8 -79 -3 -71 6 -80 5
-89 -12 -12 -25 14 -113 35 -113 11 0 14 -6 9 -24 -3 -14 -2 -27 3 -31 11 -6
8 -101 -4 -152 -4 -19 -15 -33 -27 -36 -15 -4 -18 -11 -13 -26 4 -13 -6 -48
-25 -93 -35 -80 -48 -175 -26 -184 7 -3 22 -32 32 -64 l19 -60 132 0 c96 0
133 3 136 13 4 9 6 9 6 0 1 -7 13 -13 29 -13 l27 0 -2 93 c-1 75 -6 103 -27
150 -26 60 -35 114 -22 135 4 7 1 15 -8 18 -10 4 -16 19 -16 42 0 19 -6 43
-14 51 -25 28 -25 121 1 146 13 14 14 21 5 36 -15 24 -15 29 2 29 16 0 31 79
21 110 -7 22 -33 25 -77 8z"/>
</g>
</svg>
