<?xml version="1.0" standalone="no"?>
<!DOCTYPE svg PUBLIC "-//W3C//DTD SVG 20010904//EN"
 "http://www.w3.org/TR/2001/REC-SVG-20010904/DTD/svg10.dtd">
<svg version="1.0" xmlns="http://www.w3.org/2000/svg"
 width="96.000000pt" height="84.000000pt" viewBox="0 0 96.000000 84.000000"
 preserveAspectRatio="xMidYMid meet">
<metadata>
Created by potrace 1.16, written by Peter Selinger 2001-2019
</metadata>
<g transform="translate(0.000000,84.000000) scale(0.100000,-0.100000)"
fill="#000000" stroke="none">
<path d="M0 420 l0 -420 480 0 480 0 0 420 0 420 -480 0 -480 0 0 -420z m530
113 c16 -27 30 -53 30 -60 0 -7 -13 -34 -30 -60 -16 -26 -30 -52 -30 -57 0 -6
-5 -28 -11 -50 -9 -32 -13 -36 -23 -25 -13 14 -36 147 -36 203 0 29 42 96 60
96 6 0 23 -21 40 -47z"/>
</g>
</svg>
