<?xml version="1.0" standalone="no"?>
<!DOCTYPE svg PUBLIC "-//W3C//DTD SVG 20010904//EN"
 "http://www.w3.org/TR/2001/REC-SVG-20010904/DTD/svg10.dtd">
<svg version="1.0" xmlns="http://www.w3.org/2000/svg"
 width="96.000000pt" height="84.000000pt" viewBox="0 0 96.000000 84.000000"
 preserveAspectRatio="xMidYMid meet">
<metadata>
Created by potrace 1.16, written by Peter Selinger 2001-2019
</metadata>
<g transform="translate(0.000000,84.000000) scale(0.100000,-0.100000)"
fill="#000000" stroke="none">
<path d="M0 420 l0 -420 480 0 480 0 0 420 0 420 -480 0 -480 0 0 -420z m458
113 c28 -5 37 -12 53 -50 10 -25 19 -53 19 -62 0 -10 14 -35 30 -56 17 -21 30
-42 30 -46 0 -12 -37 -12 -44 0 -3 5 -30 20 -59 35 -68 33 -90 59 -106 123
-14 60 -8 78 23 68 11 -4 36 -9 54 -12z"/>
</g>
</svg>
