<?xml version="1.0" standalone="no"?>
<!DOCTYPE svg PUBLIC "-//W3C//DTD SVG 20010904//EN"
 "http://www.w3.org/TR/2001/REC-SVG-20010904/DTD/svg10.dtd">
<svg version="1.0" xmlns="http://www.w3.org/2000/svg"
 width="96.000000pt" height="84.000000pt" viewBox="0 0 96.000000 84.000000"
 preserveAspectRatio="xMidYMid meet">
<metadata>
Created by potrace 1.16, written by Peter Selinger 2001-2019
</metadata>
<g transform="translate(0.000000,84.000000) scale(0.100000,-0.100000)"
fill="#000000" stroke="none">
<path d="M0 420 l0 -420 480 0 480 0 0 420 0 420 -480 0 -480 0 0 -420z m550
106 c-7 -29 -9 -59 -6 -65 4 -6 2 -36 -4 -66 -12 -57 -36 -85 -74 -85 -10 0
-29 -11 -42 -25 -13 -14 -27 -25 -32 -25 -18 0 -22 31 -7 46 16 16 18 30 15
77 -1 15 4 35 11 44 7 8 18 25 24 37 6 11 18 21 26 21 25 0 47 23 60 63 16 50
20 55 32 43 7 -7 6 -27 -3 -65z"/>
</g>
</svg>
