<?xml version="1.0" standalone="no"?>
<!DOCTYPE svg PUBLIC "-//W3C//DTD SVG 20010904//EN"
 "http://www.w3.org/TR/2001/REC-SVG-20010904/DTD/svg10.dtd">
<svg version="1.0" xmlns="http://www.w3.org/2000/svg"
 width="96.000000pt" height="84.000000pt" viewBox="0 0 96.000000 84.000000"
 preserveAspectRatio="xMidYMid meet">
<metadata>
Created by potrace 1.16, written by Peter Selinger 2001-2019
</metadata>
<g transform="translate(0.000000,84.000000) scale(0.100000,-0.100000)"
fill="#000000" stroke="none">
<path d="M0 420 l0 -420 480 0 480 0 0 420 0 420 -480 0 -480 0 0 -420z m449
135 c14 -33 26 -45 41 -45 14 0 30 -16 50 -47 36 -56 36 -58 10 -108 -12 -24
-19 -56 -18 -82 2 -69 -26 -73 -38 -5 -4 20 -18 48 -31 62 -14 14 -32 45 -40
69 -13 40 -13 45 1 53 23 13 20 46 -8 95 -13 23 -21 44 -18 47 15 16 33 2 51
-39z"/>
</g>
</svg>
