<?xml version="1.0" standalone="no"?>
<!DOCTYPE svg PUBLIC "-//W3C//DTD SVG 20010904//EN"
 "http://www.w3.org/TR/2001/REC-SVG-20010904/DTD/svg10.dtd">
<svg version="1.0" xmlns="http://www.w3.org/2000/svg"
 width="96.000000pt" height="84.000000pt" viewBox="0 0 96.000000 84.000000"
 preserveAspectRatio="xMidYMid meet">
<metadata>
Created by potrace 1.16, written by Peter Selinger 2001-2019
</metadata>
<g transform="translate(0.000000,84.000000) scale(0.100000,-0.100000)"
fill="#000000" stroke="none">
<path d="M0 420 l0 -420 480 0 480 0 0 420 0 420 -480 0 -480 0 0 -420z m549
64 c12 -15 21 -41 21 -59 0 -26 6 -35 35 -51 38 -20 51 -42 35 -58 -7 -7 -20
-2 -42 14 -24 18 -46 24 -101 26 -69 3 -105 17 -80 32 10 6 9 13 -3 30 -12 18
-25 22 -65 22 -50 0 -62 13 -38 37 8 8 23 8 55 -2 41 -12 44 -12 59 11 12 19
24 24 60 24 35 0 47 -5 64 -26z"/>
</g>
</svg>
