<?xml version="1.0" standalone="no"?>
<!DOCTYPE svg PUBLIC "-//W3C//DTD SVG 20010904//EN"
 "http://www.w3.org/TR/2001/REC-SVG-20010904/DTD/svg10.dtd">
<svg version="1.0" xmlns="http://www.w3.org/2000/svg"
 width="96.000000pt" height="84.000000pt" viewBox="0 0 96.000000 84.000000"
 preserveAspectRatio="xMidYMid meet">
<metadata>
Created by potrace 1.16, written by Peter Selinger 2001-2019
</metadata>
<g transform="translate(0.000000,84.000000) scale(0.100000,-0.100000)"
fill="#000000" stroke="none">
<path d="M0 420 l0 -420 480 0 480 0 0 420 0 420 -480 0 -480 0 0 -420z m537
86 l28 -24 38 20 c46 23 73 18 58 -11 -6 -11 -26 -21 -51 -25 -34 -5 -42 -12
-54 -41 -9 -20 -22 -38 -31 -41 -9 -4 -23 -20 -31 -36 -16 -30 -41 -34 -36 -4
6 32 -36 16 -76 -29 -22 -25 -42 -45 -45 -45 -2 0 -7 9 -10 20 -3 14 6 30 33
54 34 30 38 39 34 68 -5 26 1 42 25 76 37 50 74 56 118 18z"/>
</g>
</svg>
