<?xml version="1.0" standalone="no"?>
<!DOCTYPE svg PUBLIC "-//W3C//DTD SVG 20010904//EN"
 "http://www.w3.org/TR/2001/REC-SVG-20010904/DTD/svg10.dtd">
<svg version="1.0" xmlns="http://www.w3.org/2000/svg"
 width="96.000000pt" height="84.000000pt" viewBox="0 0 96.000000 84.000000"
 preserveAspectRatio="xMidYMid meet">
<metadata>
Created by potrace 1.16, written by Peter Selinger 2001-2019
</metadata>
<g transform="translate(0.000000,84.000000) scale(0.100000,-0.100000)"
fill="#000000" stroke="none">
<path d="M0 420 l0 -420 480 0 480 0 0 420 0 420 -480 0 -480 0 0 -420z m400
146 c27 -47 37 -56 75 -67 25 -7 45 -17 45 -21 0 -5 11 -13 25 -18 14 -5 25
-16 25 -24 0 -10 -6 -13 -15 -10 -8 4 -15 1 -15 -5 0 -20 48 -61 97 -83 43
-19 45 -22 28 -34 -26 -19 -32 -18 -78 18 l-40 32 -15 -22 c-8 -13 -25 -22
-39 -22 -31 0 -99 35 -107 55 -10 27 -7 100 5 112 14 14 5 42 -24 73 -33 35
-41 70 -16 70 12 0 29 -18 49 -54z"/>
</g>
</svg>
