<?xml version="1.0" standalone="no"?>
<!DOCTYPE svg PUBLIC "-//W3C//DTD SVG 20010904//EN"
 "http://www.w3.org/TR/2001/REC-SVG-20010904/DTD/svg10.dtd">
<svg version="1.0" xmlns="http://www.w3.org/2000/svg"
 width="96.000000pt" height="84.000000pt" viewBox="0 0 96.000000 84.000000"
 preserveAspectRatio="xMidYMid meet">
<metadata>
Created by potrace 1.16, written by Peter Selinger 2001-2019
</metadata>
<g transform="translate(0.000000,84.000000) scale(0.100000,-0.100000)"
fill="#000000" stroke="none">
<path d="M0 420 l0 -420 480 0 480 0 0 420 0 420 -480 0 -480 0 0 -420z m678
113 c-2 -23 -14 -33 -60 -55 -56 -27 -57 -28 -47 -57 7 -21 7 -36 0 -50 -16
-29 -74 -71 -100 -71 -32 0 -67 27 -82 62 -11 26 -16 29 -43 25 -17 -3 -38 -8
-46 -11 -9 -4 -23 -1 -33 6 -29 22 -5 41 56 43 39 2 64 9 86 26 17 12 31 26
31 30 0 8 57 39 72 39 5 0 6 -10 3 -21 -7 -20 -5 -21 25 -15 18 3 53 21 79 40
56 42 63 43 59 9z"/>
</g>
</svg>
