<?xml version="1.0" standalone="no"?>
<!DOCTYPE svg PUBLIC "-//W3C//DTD SVG 20010904//EN"
 "http://www.w3.org/TR/2001/REC-SVG-20010904/DTD/svg10.dtd">
<svg version="1.0" xmlns="http://www.w3.org/2000/svg"
 width="96.000000pt" height="84.000000pt" viewBox="0 0 96.000000 84.000000"
 preserveAspectRatio="xMidYMid meet">
<metadata>
Created by potrace 1.16, written by Peter Selinger 2001-2019
</metadata>
<g transform="translate(0.000000,84.000000) scale(0.100000,-0.100000)"
fill="#000000" stroke="none">
<path d="M570 808 c-36 -14 -82 -17 -104 -6 -10 6 -33 7 -52 3 -31 -5 -34 -9
-33 -38 2 -49 13 -82 29 -82 10 0 14 -9 12 -28 -2 -15 4 -37 13 -49 21 -31 19
-81 -5 -103 -11 -10 -20 -29 -20 -42 0 -13 -7 -26 -15 -29 -9 -4 -14 -18 -13
-37 0 -18 -12 -61 -27 -97 -29 -70 -39 -155 -19 -171 14 -11 28 -73 25 -106
-2 -23 -2 -23 138 -23 l141 0 -6 27 c-4 16 -11 38 -15 51 -20 52 -7 43 21 -15
25 -53 33 -63 55 -63 24 0 25 3 20 33 -3 17 -7 64 -9 102 -2 46 -11 87 -26
120 -14 31 -23 70 -24 102 0 33 -5 54 -13 57 -7 3 -13 21 -13 39 0 19 -3 37
-6 40 -11 10 -10 206 0 204 13 -3 40 93 29 103 -15 14 -58 18 -83 8z m10 -582
c-12 -12 -14 84 -2 124 5 18 8 5 10 -44 2 -39 -2 -74 -8 -80z"/>
</g>
</svg>
