<?xml version="1.0" standalone="no"?>
<!DOCTYPE svg PUBLIC "-//W3C//DTD SVG 20010904//EN"
 "http://www.w3.org/TR/2001/REC-SVG-20010904/DTD/svg10.dtd">
<svg version="1.0" xmlns="http://www.w3.org/2000/svg"
 width="96.000000pt" height="84.000000pt" viewBox="0 0 96.000000 84.000000"
 preserveAspectRatio="xMidYMid meet">
<metadata>
Created by potrace 1.16, written by Peter Selinger 2001-2019
</metadata>
<g transform="translate(0.000000,84.000000) scale(0.100000,-0.100000)"
fill="#000000" stroke="none">
<path d="M0 420 l0 -420 480 0 480 0 0 420 0 420 -480 0 -480 0 0 -420z m523
259 c11 -14 13 -30 7 -52 -4 -18 -10 -49 -13 -69 -5 -33 -3 -39 21 -50 23 -11
28 -21 32 -70 3 -31 3 -67 0 -80 -8 -33 -67 -70 -100 -63 -25 5 -29 2 -45 -42
-23 -61 -43 -82 -56 -62 -12 19 -11 36 1 44 6 4 19 24 31 46 16 33 20 57 18
132 -1 61 2 92 10 95 6 2 11 -1 11 -7 0 -6 5 -11 11 -11 19 0 39 69 39 140 0
72 8 85 33 49z"/>
</g>
</svg>
