<?xml version="1.0" standalone="no"?>
<!DOCTYPE svg PUBLIC "-//W3C//DTD SVG 20010904//EN"
 "http://www.w3.org/TR/2001/REC-SVG-20010904/DTD/svg10.dtd">
<svg version="1.0" xmlns="http://www.w3.org/2000/svg"
 width="96.000000pt" height="84.000000pt" viewBox="0 0 96.000000 84.000000"
 preserveAspectRatio="xMidYMid meet">
<metadata>
Created by potrace 1.16, written by Peter Selinger 2001-2019
</metadata>
<g transform="translate(0.000000,84.000000) scale(0.100000,-0.100000)"
fill="#000000" stroke="none">
<path d="M0 420 l0 -420 480 0 480 0 0 420 0 420 -480 0 -480 0 0 -420z m386
149 c38 -48 57 -59 69 -39 10 17 35 11 75 -17 63 -45 75 -90 40 -157 l-19 -39
22 -41 c26 -50 32 -96 13 -96 -20 0 -31 18 -46 73 -10 38 -21 54 -49 72 -20
13 -44 32 -53 44 -10 12 -25 21 -33 21 -9 0 -15 9 -15 25 0 18 4 23 15 19 43
-17 -4 77 -59 117 -50 38 -59 63 -22 65 17 1 34 -12 62 -47z"/>
</g>
</svg>
