<?xml version="1.0" standalone="no"?>
<!DOCTYPE svg PUBLIC "-//W3C//DTD SVG 20010904//EN"
 "http://www.w3.org/TR/2001/REC-SVG-20010904/DTD/svg10.dtd">
<svg version="1.0" xmlns="http://www.w3.org/2000/svg"
 width="96.000000pt" height="84.000000pt" viewBox="0 0 96.000000 84.000000"
 preserveAspectRatio="xMidYMid meet">
<metadata>
Created by potrace 1.16, written by Peter Selinger 2001-2019
</metadata>
<g transform="translate(0.000000,84.000000) scale(0.100000,-0.100000)"
fill="#000000" stroke="none">
<path d="M0 420 l0 -420 480 0 480 0 0 420 0 420 -480 0 -480 0 0 -420z m543
100 c14 -11 31 -36 38 -55 10 -27 19 -35 48 -40 79 -13 91 -17 91 -30 0 -15
-34 -38 -43 -29 -3 3 -25 12 -50 19 -42 13 -48 12 -70 -5 -13 -10 -37 -22 -53
-26 -16 -4 -37 -14 -47 -22 -14 -13 -20 -13 -30 -3 -9 11 -9 14 1 18 21 8 -16
43 -44 43 -13 0 -47 -9 -75 -20 -60 -22 -72 -19 -56 14 9 18 26 27 72 37 55
13 60 17 65 44 4 21 16 36 45 52 50 28 75 29 108 3z"/>
</g>
</svg>
