<?xml version="1.0" standalone="no"?>
<!DOCTYPE svg PUBLIC "-//W3C//DTD SVG 20010904//EN"
 "http://www.w3.org/TR/2001/REC-SVG-20010904/DTD/svg10.dtd">
<svg version="1.0" xmlns="http://www.w3.org/2000/svg"
 width="96.000000pt" height="84.000000pt" viewBox="0 0 96.000000 84.000000"
 preserveAspectRatio="xMidYMid meet">
<metadata>
Created by potrace 1.16, written by Peter Selinger 2001-2019
</metadata>
<g transform="translate(0.000000,84.000000) scale(0.100000,-0.100000)"
fill="#000000" stroke="none">
<path d="M0 420 l0 -420 480 0 480 0 0 420 0 420 -480 0 -480 0 0 -420z m650
222 c0 -18 -15 -41 -47 -74 -43 -43 -47 -51 -49 -103 -2 -31 -8 -63 -14 -70
-6 -7 -9 -28 -8 -46 2 -26 -1 -34 -16 -37 -14 -3 -17 0 -13 12 7 19 3 20 -25
5 -25 -13 -46 -63 -54 -125 -8 -73 -21 -83 -42 -34 -10 22 -11 34 -2 50 19 35
39 110 29 110 -5 0 -16 11 -24 24 -14 21 -15 34 -5 88 7 34 19 71 27 80 23 26
78 41 102 29 17 -9 24 -4 55 38 20 27 36 54 36 60 0 6 7 11 15 11 8 0 15 5 15
11 0 5 5 7 10 4 6 -3 10 -18 10 -33z"/>
</g>
</svg>
