<?xml version="1.0" standalone="no"?>
<!DOCTYPE svg PUBLIC "-//W3C//DTD SVG 20010904//EN"
 "http://www.w3.org/TR/2001/REC-SVG-20010904/DTD/svg10.dtd">
<svg version="1.0" xmlns="http://www.w3.org/2000/svg"
 width="96.000000pt" height="84.000000pt" viewBox="0 0 96.000000 84.000000"
 preserveAspectRatio="xMidYMid meet">
<metadata>
Created by potrace 1.16, written by Peter Selinger 2001-2019
</metadata>
<g transform="translate(0.000000,84.000000) scale(0.100000,-0.100000)"
fill="#000000" stroke="none">
<path d="M0 420 l0 -420 480 0 480 0 0 420 0 420 -480 0 -480 0 0 -420z m421
352 c9 -10 19 -47 22 -81 9 -80 25 -113 57 -118 30 -4 70 -46 70 -74 0 -11 -5
-29 -11 -41 -9 -16 -7 -24 10 -42 24 -25 27 -52 9 -59 -21 -6 86 -147 112
-147 6 0 10 -9 10 -19 0 -16 -7 -19 -42 -18 -38 2 -43 5 -65 46 -13 25 -31 53
-39 63 -16 17 -18 17 -42 -2 -13 -11 -35 -20 -47 -20 -30 0 -111 89 -117 127
-7 51 11 111 42 137 20 17 30 34 30 53 0 27 -31 137 -41 148 -10 9 3 65 15 65
6 0 19 -8 27 -18z"/>
</g>
</svg>
