<?xml version="1.0" standalone="no"?>
<!DOCTYPE svg PUBLIC "-//W3C//DTD SVG 20010904//EN"
 "http://www.w3.org/TR/2001/REC-SVG-20010904/DTD/svg10.dtd">
<svg version="1.0" xmlns="http://www.w3.org/2000/svg"
 width="96.000000pt" height="84.000000pt" viewBox="0 0 96.000000 84.000000"
 preserveAspectRatio="xMidYMid meet">
<metadata>
Created by potrace 1.16, written by Peter Selinger 2001-2019
</metadata>
<g transform="translate(0.000000,84.000000) scale(0.100000,-0.100000)"
fill="#000000" stroke="none">
<path d="M0 420 l0 -420 480 0 480 0 0 420 0 420 -480 0 -480 0 0 -420z m539
244 c15 -19 21 -41 21 -76 0 -41 3 -49 18 -47 9 1 28 -3 42 -8 14 -6 53 -13
85 -14 33 -2 63 -8 66 -12 3 -5 22 -2 42 6 36 15 77 13 77 -4 0 -6 -7 -12 -15
-15 -8 -4 -15 -12 -15 -20 0 -22 -37 -35 -83 -28 -105 16 -155 16 -182 -2
l-26 -17 32 -34 c26 -26 30 -36 21 -45 -7 -7 -12 -31 -12 -53 0 -52 -25 -77
-96 -98 -62 -18 -101 -12 -137 22 -72 66 -87 171 -32 218 14 13 35 23 46 23
21 0 27 29 7 34 -7 2 -33 10 -58 18 -32 11 -69 14 -123 10 -65 -4 -76 -2 -72
10 4 9 -4 19 -22 27 -25 11 -26 14 -10 22 10 6 26 8 36 4 11 -3 22 -1 26 5 5
8 11 8 20 0 8 -7 18 -10 22 -7 4 2 33 1 63 -3 86 -12 115 -4 129 36 7 19 9 38
6 44 -3 5 3 10 14 10 11 0 23 5 26 10 13 20 63 11 84 -16z"/>
</g>
</svg>
