<?xml version="1.0" standalone="no"?>
<!DOCTYPE svg PUBLIC "-//W3C//DTD SVG 20010904//EN"
 "http://www.w3.org/TR/2001/REC-SVG-20010904/DTD/svg10.dtd">
<svg version="1.0" xmlns="http://www.w3.org/2000/svg"
 width="96.000000pt" height="84.000000pt" viewBox="0 0 96.000000 84.000000"
 preserveAspectRatio="xMidYMid meet">
<metadata>
Created by potrace 1.16, written by Peter Selinger 2001-2019
</metadata>
<g transform="translate(0.000000,84.000000) scale(0.100000,-0.100000)"
fill="#000000" stroke="none">
<path d="M0 420 l0 -420 220 0 220 0 0 23 c0 16 -10 27 -39 39 -21 9 -53 31
-71 49 -29 29 -32 37 -27 76 4 37 13 52 61 97 31 30 56 61 56 70 0 20 -9 20
-32 -1 -18 -16 -19 -16 -24 4 -11 40 -30 31 -80 -35 -27 -37 -48 -68 -47 -69
2 -2 -10 -15 -25 -30 -18 -18 -38 -27 -60 -28 -20 0 -39 -8 -47 -18 -7 -9 -18
-17 -24 -17 -12 0 45 73 104 134 48 49 113 138 130 180 11 26 26 42 49 51 32
14 34 17 26 49 -4 18 -11 39 -15 47 -5 7 -9 36 -11 64 -1 40 2 53 15 61 67 36
72 37 108 28 46 -11 63 -41 63 -112 0 -48 2 -53 19 -47 11 3 28 1 38 -6 14 -8
39 -7 111 8 86 19 91 19 77 3 -13 -14 -13 -19 -3 -22 18 -6 -80 -38 -117 -38
-18 0 -44 -9 -58 -20 -14 -11 -33 -20 -42 -20 -15 0 -17 -6 -11 -37 3 -21 6
-48 6 -60 0 -16 6 -23 20 -23 22 0 26 -20 9 -37 -8 -8 -3 -15 19 -27 64 -33
76 -79 42 -168 -26 -69 -59 -109 -101 -123 -19 -7 -35 -19 -37 -28 -3 -15 17
-17 217 -17 l221 0 0 420 0 420 -480 0 -480 0 0 -420z"/>
<path d="M400 575 c0 -8 7 -15 15 -15 9 0 12 6 9 15 -4 8 -10 15 -15 15 -5 0
-9 -7 -9 -15z"/>
<path d="M397 431 c-3 -14 0 -21 9 -21 16 0 18 9 5 28 -6 10 -10 9 -14 -7z"/>
</g>
</svg>
