<?xml version="1.0" standalone="no"?>
<!DOCTYPE svg PUBLIC "-//W3C//DTD SVG 20010904//EN"
 "http://www.w3.org/TR/2001/REC-SVG-20010904/DTD/svg10.dtd">
<svg version="1.0" xmlns="http://www.w3.org/2000/svg"
 width="96.000000pt" height="84.000000pt" viewBox="0 0 96.000000 84.000000"
 preserveAspectRatio="xMidYMid meet">
<metadata>
Created by potrace 1.16, written by Peter Selinger 2001-2019
</metadata>
<g transform="translate(0.000000,84.000000) scale(0.100000,-0.100000)"
fill="#000000" stroke="none">
<path d="M0 420 l0 -420 170 0 c159 0 170 1 170 19 0 10 8 29 19 42 23 30 36
69 22 69 -10 0 -25 -18 -27 -35 0 -5 -2 -16 -2 -22 -3 -23 -20 -14 -36 18 -11
22 -12 37 -5 56 5 14 7 28 5 31 -3 2 1 17 9 33 8 15 15 37 15 49 0 11 6 20 14
20 19 0 26 43 14 89 -7 28 -6 47 4 72 18 43 23 119 9 119 -6 0 -11 21 -11 49
0 28 -4 52 -9 55 -13 8 -3 42 18 60 21 19 91 35 125 29 17 -4 26 -12 26 -24 0
-10 5 -21 10 -24 6 -4 7 -13 2 -23 -5 -9 -6 -28 -2 -42 4 -14 5 -39 2 -55 -6
-42 42 -94 85 -93 39 1 50 -6 55 -36 4 -20 0 -25 -25 -30 -16 -3 -34 -3 -40 1
-7 4 -20 8 -29 8 -16 2 -18 -9 -18 -101 0 -115 4 -134 30 -134 10 0 28 -12 39
-26 23 -29 45 -124 36 -154 -6 -19 -2 -20 139 -20 l146 0 0 420 0 420 -480 0
-480 0 0 -420z"/>
<path d="M404 526 c-4 -9 -4 -20 0 -23 3 -4 12 -1 18 5 9 9 9 15 0 24 -9 9
-13 7 -18 -6z"/>
</g>
</svg>
