<?xml version="1.0" standalone="no"?>
<!DOCTYPE svg PUBLIC "-//W3C//DTD SVG 20010904//EN"
 "http://www.w3.org/TR/2001/REC-SVG-20010904/DTD/svg10.dtd">
<svg version="1.0" xmlns="http://www.w3.org/2000/svg"
 width="96.000000pt" height="84.000000pt" viewBox="0 0 96.000000 84.000000"
 preserveAspectRatio="xMidYMid meet">
<metadata>
Created by potrace 1.16, written by Peter Selinger 2001-2019
</metadata>
<g transform="translate(0.000000,84.000000) scale(0.100000,-0.100000)"
fill="#000000" stroke="none">
<path d="M0 420 l0 -420 133 0 c122 0 134 2 159 23 46 38 86 96 81 116 -7 26
14 88 32 95 19 7 19 43 0 80 -13 25 -14 38 -4 82 10 46 10 56 -5 79 -11 16
-16 41 -15 64 2 20 0 42 -4 48 -10 15 27 79 43 75 7 -2 16 2 20 9 9 13 75 -4
86 -23 3 -5 7 -45 9 -88 1 -59 -2 -80 -12 -84 -19 -8 -16 -33 7 -66 11 -16 23
-42 26 -59 4 -17 11 -34 15 -37 13 -8 11 -72 -2 -80 -7 -4 -9 -22 -5 -48 3
-22 8 -68 9 -101 2 -34 7 -66 11 -73 5 -9 59 -12 192 -12 l184 0 0 420 0 420
-480 0 -480 0 0 -420z"/>
<path d="M386 105 c-11 -20 -37 -52 -58 -71 l-38 -34 54 0 55 0 6 43 c4 24 5
56 3 71 l-3 27 -19 -36z"/>
</g>
</svg>
