<?xml version="1.0" standalone="no"?>
<!DOCTYPE svg PUBLIC "-//W3C//DTD SVG 20010904//EN"
 "http://www.w3.org/TR/2001/REC-SVG-20010904/DTD/svg10.dtd">
<svg version="1.0" xmlns="http://www.w3.org/2000/svg"
 width="96.000000pt" height="84.000000pt" viewBox="0 0 96.000000 84.000000"
 preserveAspectRatio="xMidYMid meet">
<metadata>
Created by potrace 1.16, written by Peter Selinger 2001-2019
</metadata>
<g transform="translate(0.000000,84.000000) scale(0.100000,-0.100000)"
fill="#000000" stroke="none">
<path d="M0 420 l0 -420 168 0 167 0 23 34 c13 19 27 60 32 93 10 74 18 93 38
93 13 0 12 3 -3 20 -10 11 -15 26 -11 36 3 9 1 33 -5 55 -9 30 -9 42 0 53 12
15 7 55 -9 66 -11 8 -19 130 -9 130 5 0 9 6 9 14 0 17 57 48 65 36 3 -5 12 -7
20 -3 8 3 15 0 15 -6 0 -6 6 -11 14 -11 11 0 15 -19 18 -76 2 -42 -1 -78 -5
-81 -24 -14 -23 -49 1 -85 14 -21 27 -58 29 -85 4 -38 12 -54 38 -78 38 -34
55 -95 35 -120 -19 -23 -33 -18 -26 10 4 17 2 27 -8 31 -8 3 -17 15 -20 27
-10 38 -17 11 -19 -72 l-2 -81 202 0 203 0 0 420 0 420 -480 0 -480 0 0 -420z"/>
<path d="M388 50 c-16 -48 -15 -50 3 -50 16 0 19 7 19 50 0 28 -1 50 -3 50 -2
0 -10 -23 -19 -50z"/>
</g>
</svg>
