<?xml version="1.0" standalone="no"?>
<!DOCTYPE svg PUBLIC "-//W3C//DTD SVG 20010904//EN"
 "http://www.w3.org/TR/2001/REC-SVG-20010904/DTD/svg10.dtd">
<svg version="1.0" xmlns="http://www.w3.org/2000/svg"
 width="96.000000pt" height="84.000000pt" viewBox="0 0 96.000000 84.000000"
 preserveAspectRatio="xMidYMid meet">
<metadata>
Created by potrace 1.16, written by Peter Selinger 2001-2019
</metadata>
<g transform="translate(0.000000,84.000000) scale(0.100000,-0.100000)"
fill="#000000" stroke="none">
<path d="M377 813 c-20 -20 2 -121 24 -108 12 8 11 -2 -2 -27 -9 -17 -8 -24 3
-32 23 -17 40 -76 27 -92 -6 -8 -9 -14 -5 -14 3 0 -3 -9 -14 -20 -11 -11 -20
-33 -20 -50 0 -17 -6 -33 -14 -36 -8 -3 -13 -20 -13 -42 0 -20 -12 -66 -26
-102 -27 -69 -29 -130 -8 -185 7 -16 9 -46 6 -67 l-7 -38 146 0 c80 0 146 4
146 8 0 4 -9 35 -19 68 -45 141 -51 167 -52 228 -1 69 7 98 22 75 5 -8 9 -50
9 -94 0 -92 15 -157 54 -232 19 -38 32 -53 47 -53 18 0 20 4 14 32 -4 17 -9
66 -10 107 -2 46 -11 100 -25 136 -11 33 -22 79 -23 102 -1 24 -5 43 -8 43 -9
0 -19 53 -26 130 -9 97 -7 115 11 154 9 19 19 48 22 64 8 38 -13 46 -100 37
-42 -5 -66 -3 -70 4 -8 12 -78 15 -89 4z m190 -405 c-3 -7 -5 -2 -5 12 0 14 2
19 5 13 2 -7 2 -19 0 -25z"/>
</g>
</svg>
