<?xml version="1.0" standalone="no"?>
<!DOCTYPE svg PUBLIC "-//W3C//DTD SVG 20010904//EN"
 "http://www.w3.org/TR/2001/REC-SVG-20010904/DTD/svg10.dtd">
<svg version="1.0" xmlns="http://www.w3.org/2000/svg"
 width="96.000000pt" height="84.000000pt" viewBox="0 0 96.000000 84.000000"
 preserveAspectRatio="xMidYMid meet">
<metadata>
Created by potrace 1.16, written by Peter Selinger 2001-2019
</metadata>
<g transform="translate(0.000000,84.000000) scale(0.100000,-0.100000)"
fill="#000000" stroke="none">
<path d="M0 420 l0 -420 189 0 189 0 6 44 c4 24 4 55 1 69 -8 30 19 97 39 97
23 0 30 20 11 34 -19 14 -29 75 -25 159 1 10 -4 25 -11 33 -14 17 -19 134 -7
134 5 0 8 8 6 17 -2 11 5 19 17 21 11 3 23 9 27 15 4 7 19 6 45 -4 l38 -15 3
-82 c2 -52 -1 -82 -8 -82 -16 0 -12 -56 5 -70 8 -7 20 -31 27 -54 7 -23 28
-57 49 -77 52 -51 66 -129 23 -129 -10 0 -13 7 -8 25 5 19 2 25 -10 25 -9 0
-16 5 -16 11 0 6 -6 17 -14 24 -23 23 -26 -3 -13 -104 l11 -91 193 0 193 0 0
420 0 420 -480 0 -480 0 0 -420z"/>
</g>
</svg>
