<?xml version="1.0" standalone="no"?>
<!DOCTYPE svg PUBLIC "-//W3C//DTD SVG 20010904//EN"
 "http://www.w3.org/TR/2001/REC-SVG-20010904/DTD/svg10.dtd">
<svg version="1.0" xmlns="http://www.w3.org/2000/svg"
 width="96.000000pt" height="84.000000pt" viewBox="0 0 96.000000 84.000000"
 preserveAspectRatio="xMidYMid meet">
<metadata>
Created by potrace 1.16, written by Peter Selinger 2001-2019
</metadata>
<g transform="translate(0.000000,84.000000) scale(0.100000,-0.100000)"
fill="#000000" stroke="none">
<path d="M0 420 l0 -420 184 0 c213 0 201 -7 198 109 -2 75 9 101 43 101 33 0
33 30 -1 88 -20 33 -24 52 -20 77 5 22 2 38 -8 48 -16 16 -23 106 -11 149 11
41 55 60 103 44 l37 -13 1 -82 c1 -45 -2 -84 -7 -87 -5 -3 -9 -12 -9 -20 0
-20 63 -114 76 -114 25 0 68 -87 57 -115 -8 -23 -33 -26 -33 -4 0 20 -36 67
-45 58 -10 -11 -8 -89 5 -162 l14 -77 188 0 188 0 0 420 0 420 -480 0 -480 0
0 -420z"/>
</g>
</svg>
