<?xml version="1.0" standalone="no"?>
<!DOCTYPE svg PUBLIC "-//W3C//DTD SVG 20010904//EN"
 "http://www.w3.org/TR/2001/REC-SVG-20010904/DTD/svg10.dtd">
<svg version="1.0" xmlns="http://www.w3.org/2000/svg"
 width="96.000000pt" height="84.000000pt" viewBox="0 0 96.000000 84.000000"
 preserveAspectRatio="xMidYMid meet">
<metadata>
Created by potrace 1.16, written by Peter Selinger 2001-2019
</metadata>
<g transform="translate(0.000000,84.000000) scale(0.100000,-0.100000)"
fill="#000000" stroke="none">
<path d="M0 420 l0 -420 179 0 179 0 15 45 c11 32 13 53 6 73 -15 43 2 86 37
92 38 7 41 31 10 84 -18 30 -25 57 -24 85 1 22 -4 46 -10 53 -13 16 -17 103
-7 141 7 28 56 59 85 54 47 -9 55 -23 58 -102 1 -50 -2 -83 -10 -92 -10 -13
-6 -20 22 -44 63 -53 70 -62 81 -102 7 -28 7 -42 -2 -53 -17 -21 -36 -17 -35
7 1 12 -4 24 -11 26 -13 5 -7 -58 8 -89 12 -22 11 -71 0 -83 -5 -6 -6 -28 -2
-50 l6 -40 188 -3 187 -2 0 420 0 420 -480 0 -480 0 0 -420z"/>
</g>
</svg>
