<?xml version="1.0" standalone="no"?>
<!DOCTYPE svg PUBLIC "-//W3C//DTD SVG 20010904//EN"
 "http://www.w3.org/TR/2001/REC-SVG-20010904/DTD/svg10.dtd">
<svg version="1.0" xmlns="http://www.w3.org/2000/svg"
 width="96.000000pt" height="84.000000pt" viewBox="0 0 96.000000 84.000000"
 preserveAspectRatio="xMidYMid meet">
<metadata>
Created by potrace 1.16, written by Peter Selinger 2001-2019
</metadata>
<g transform="translate(0.000000,84.000000) scale(0.100000,-0.100000)"
fill="#000000" stroke="none">
<path d="M0 420 l0 -420 175 0 176 0 20 47 c16 38 18 52 9 74 -6 14 -10 42 -8
60 3 31 6 34 41 37 20 2 37 9 37 15 -1 21 -36 91 -53 106 -21 17 -22 54 -2 71
14 11 14 15 0 36 -9 15 -13 34 -9 53 4 18 2 37 -5 45 -9 11 -8 18 4 30 9 9 13
16 9 16 -3 0 -1 7 6 15 7 8 16 13 20 10 4 -3 13 2 20 10 7 8 17 12 23 8 7 -4
20 -8 30 -8 30 -3 36 -17 39 -91 2 -51 -1 -76 -12 -89 -13 -15 -12 -19 5 -32
11 -8 27 -20 35 -26 16 -12 40 -98 40 -139 0 -12 7 -30 17 -40 10 -12 12 -18
4 -18 -8 0 -10 -7 -6 -21 7 -19 4 -21 -24 -17 -24 3 -31 1 -27 -9 3 -7 8 -42
12 -78 l7 -65 188 0 189 0 0 420 0 420 -480 0 -480 0 0 -420z"/>
</g>
</svg>
