<?xml version="1.0" standalone="no"?>
<!DOCTYPE svg PUBLIC "-//W3C//DTD SVG 20010904//EN"
 "http://www.w3.org/TR/2001/REC-SVG-20010904/DTD/svg10.dtd">
<svg version="1.0" xmlns="http://www.w3.org/2000/svg"
 width="96.000000pt" height="84.000000pt" viewBox="0 0 96.000000 84.000000"
 preserveAspectRatio="xMidYMid meet">
<metadata>
Created by potrace 1.16, written by Peter Selinger 2001-2019
</metadata>
<g transform="translate(0.000000,84.000000) scale(0.100000,-0.100000)"
fill="#000000" stroke="none">
<path d="M0 420 l0 -420 174 0 173 0 26 57 c15 34 22 60 16 63 -10 7 -29 65
-29 92 0 14 8 18 35 18 31 0 35 3 35 25 0 39 -27 85 -46 78 -19 -7 -64 34 -64
58 0 17 48 36 78 30 6 -1 12 7 12 19 0 11 -4 20 -10 20 -5 0 -10 17 -10 38 0
21 -5 43 -11 49 -9 9 -4 20 19 43 27 27 37 30 72 26 22 -3 44 -7 49 -10 4 -3
11 -35 14 -72 5 -53 3 -69 -10 -82 -14 -15 -12 -19 22 -50 20 -18 38 -42 40
-52 2 -10 11 -32 20 -50 11 -21 14 -41 9 -59 -4 -14 -7 -29 -6 -33 1 -4 -11
-17 -26 -30 -28 -23 -28 -24 -15 -73 7 -28 13 -62 13 -77 l0 -28 190 0 190 0
0 420 0 420 -480 0 -480 0 0 -420z"/>
<path d="M556 264 c-8 -21 -4 -25 14 -14 11 7 12 12 4 20 -8 8 -13 7 -18 -6z"/>
</g>
</svg>
