<?xml version="1.0" standalone="no"?>
<!DOCTYPE svg PUBLIC "-//W3C//DTD SVG 20010904//EN"
 "http://www.w3.org/TR/2001/REC-SVG-20010904/DTD/svg10.dtd">
<svg version="1.0" xmlns="http://www.w3.org/2000/svg"
 width="96.000000pt" height="84.000000pt" viewBox="0 0 96.000000 84.000000"
 preserveAspectRatio="xMidYMid meet">
<metadata>
Created by potrace 1.16, written by Peter Selinger 2001-2019
</metadata>
<g transform="translate(0.000000,84.000000) scale(0.100000,-0.100000)"
fill="#000000" stroke="none">
<path d="M0 420 l0 -420 174 0 175 0 26 86 c19 63 25 97 20 125 -6 32 -4 39 9
39 11 0 16 9 16 30 0 20 -5 30 -15 30 -8 0 -15 4 -15 8 0 7 -29 19 -97 38 -21
6 -15 20 20 47 29 22 39 24 72 17 l37 -8 -6 31 c-3 18 -10 50 -14 73 -9 40 -3
76 11 75 4 -1 20 5 35 13 29 14 61 8 87 -17 7 -8 15 -39 16 -69 2 -43 -2 -60
-16 -74 -18 -19 -18 -19 7 -28 41 -14 58 -54 51 -117 -3 -30 -10 -59 -15 -65
-5 -8 -1 -14 14 -17 l22 -6 -21 -23 c-44 -49 -46 -84 -7 -160 l15 -28 179 0
180 0 0 420 0 420 -480 0 -480 0 0 -420z"/>
<path d="M440 430 c0 -5 5 -10 10 -10 6 0 10 5 10 10 0 6 -4 10 -10 10 -5 0
-10 -4 -10 -10z"/>
</g>
</svg>
