<?xml version="1.0" standalone="no"?>
<!DOCTYPE svg PUBLIC "-//W3C//DTD SVG 20010904//EN"
 "http://www.w3.org/TR/2001/REC-SVG-20010904/DTD/svg10.dtd">
<svg version="1.0" xmlns="http://www.w3.org/2000/svg"
 width="96.000000pt" height="84.000000pt" viewBox="0 0 96.000000 84.000000"
 preserveAspectRatio="xMidYMid meet">
<metadata>
Created by potrace 1.16, written by Peter Selinger 2001-2019
</metadata>
<g transform="translate(0.000000,84.000000) scale(0.100000,-0.100000)"
fill="#000000" stroke="none">
<path d="M0 420 l0 -420 160 0 159 0 24 43 c14 23 30 60 37 82 7 22 16 44 21
49 15 16 10 25 -16 28 -32 4 -33 22 -2 23 19 0 22 6 25 40 3 35 -1 42 -27 58
-19 11 -39 15 -55 11 -31 -7 -49 22 -25 40 9 6 18 19 22 29 5 13 18 17 63 17
54 0 56 1 50 23 -4 12 -10 51 -12 87 l-5 65 34 17 c19 9 38 14 42 10 4 -4 10
-7 14 -7 3 0 18 -9 32 -20 22 -17 26 -29 28 -82 2 -54 0 -62 -19 -68 -20 -6
-28 -25 -10 -25 19 0 50 -40 50 -64 0 -12 -11 -35 -25 -50 -50 -54 -43 -96 18
-96 32 0 34 -12 11 -66 -15 -37 -17 -38 -31 -19 -14 19 -14 18 -8 -15 4 -19
14 -52 22 -73 l15 -37 184 0 184 0 0 420 0 420 -480 0 -480 0 0 -420z"/>
<path d="M450 440 c0 -5 5 -10 11 -10 5 0 7 5 4 10 -3 6 -8 10 -11 10 -2 0 -4
-4 -4 -10z"/>
</g>
</svg>
