<?xml version="1.0" standalone="no"?>
<!DOCTYPE svg PUBLIC "-//W3C//DTD SVG 20010904//EN"
 "http://www.w3.org/TR/2001/REC-SVG-20010904/DTD/svg10.dtd">
<svg version="1.0" xmlns="http://www.w3.org/2000/svg"
 width="96.000000pt" height="84.000000pt" viewBox="0 0 96.000000 84.000000"
 preserveAspectRatio="xMidYMid meet">
<metadata>
Created by potrace 1.16, written by Peter Selinger 2001-2019
</metadata>
<g transform="translate(0.000000,84.000000) scale(0.100000,-0.100000)"
fill="#000000" stroke="none">
<path d="M0 420 l0 -420 165 0 c119 0 165 3 165 12 0 6 6 19 14 27 7 9 24 51
36 94 26 88 23 97 -38 97 -23 0 -32 4 -29 13 2 6 10 11 17 9 20 -4 80 41 80
61 0 20 -31 23 -60 4 -27 -16 -44 7 -27 37 6 12 10 26 9 32 -3 17 42 44 64 38
11 -3 35 2 54 10 33 14 34 17 9 20 -17 2 -34 66 -31 116 2 36 8 48 25 56 31
14 98 -4 105 -28 2 -10 7 -18 11 -18 3 0 8 -27 9 -59 3 -52 1 -60 -17 -66 -25
-8 -27 -21 -4 -34 23 -12 23 -79 0 -95 -9 -7 -20 -31 -26 -55 -9 -42 -9 -42
30 -62 44 -22 49 -43 20 -81 l-20 -25 32 -49 32 -49 168 -3 167 -2 0 420 0
420 -480 0 -480 0 0 -420z"/>
<path d="M580 10 c0 -6 7 -10 15 -10 8 0 15 2 15 4 0 2 -7 6 -15 10 -8 3 -15
1 -15 -4z"/>
</g>
</svg>
