<?xml version="1.0" standalone="no"?>
<!DOCTYPE svg PUBLIC "-//W3C//DTD SVG 20010904//EN"
 "http://www.w3.org/TR/2001/REC-SVG-20010904/DTD/svg10.dtd">
<svg version="1.0" xmlns="http://www.w3.org/2000/svg"
 width="96.000000pt" height="84.000000pt" viewBox="0 0 96.000000 84.000000"
 preserveAspectRatio="xMidYMid meet">
<metadata>
Created by potrace 1.16, written by Peter Selinger 2001-2019
</metadata>
<g transform="translate(0.000000,84.000000) scale(0.100000,-0.100000)"
fill="#000000" stroke="none">
<path d="M0 420 l0 -420 175 0 174 0 6 38 c3 20 15 71 26 113 32 119 26 131
-68 129 -33 0 -41 3 -37 15 3 8 9 14 12 13 4 -1 17 1 29 5 21 8 40 57 29 75
-3 5 8 22 24 37 17 16 30 23 30 17 0 -16 22 -15 56 3 25 13 26 20 2 16 -4 0
-12 16 -18 37 -21 75 -8 145 29 155 12 3 23 1 26 -3 3 -5 19 -11 36 -15 36 -8
49 -36 49 -106 0 -47 -19 -87 -34 -72 -3 4 -6 1 -6 -5 0 -6 5 -14 10 -17 15
-9 12 -66 -5 -85 -8 -9 -18 -37 -21 -61 -6 -44 -5 -46 35 -72 23 -15 41 -32
41 -38 0 -5 -10 -23 -21 -39 -26 -34 -21 -64 17 -109 l26 -31 169 0 169 0 0
420 0 420 -480 0 -480 0 0 -420z"/>
</g>
</svg>
