<?xml version="1.0" standalone="no"?>
<!DOCTYPE svg PUBLIC "-//W3C//DTD SVG 20010904//EN"
 "http://www.w3.org/TR/2001/REC-SVG-20010904/DTD/svg10.dtd">
<svg version="1.0" xmlns="http://www.w3.org/2000/svg"
 width="96.000000pt" height="84.000000pt" viewBox="0 0 96.000000 84.000000"
 preserveAspectRatio="xMidYMid meet">
<metadata>
Created by potrace 1.16, written by Peter Selinger 2001-2019
</metadata>
<g transform="translate(0.000000,84.000000) scale(0.100000,-0.100000)"
fill="#000000" stroke="none">
<path d="M0 420 l0 -420 174 0 c160 0 175 2 175 18 0 31 21 128 36 172 8 23
15 63 15 87 0 38 -2 44 -14 34 -11 -10 -17 -7 -30 10 -12 18 -25 23 -66 23
-33 1 -50 5 -50 14 0 6 6 12 14 12 7 0 25 9 39 21 15 11 32 19 39 18 26 -3 35
2 46 25 8 19 16 22 37 18 17 -3 30 0 36 9 7 11 9 11 9 1 0 -7 5 -10 11 -6 8 5
4 13 -11 24 -19 14 -22 26 -22 81 0 35 0 72 1 82 3 22 40 38 62 26 9 -4 19 -5
23 -2 3 3 6 2 6 -4 0 -6 8 -13 18 -16 35 -8 46 -147 14 -176 -9 -9 -18 -29
-18 -46 -1 -16 -9 -59 -18 -95 l-17 -65 33 -27 c18 -16 36 -28 40 -28 14 0 8
-45 -9 -70 -19 -27 -19 -44 -1 -102 l11 -38 189 0 188 0 0 420 0 420 -480 0
-480 0 0 -420z"/>
</g>
</svg>
