<?xml version="1.0" standalone="no"?>
<!DOCTYPE svg PUBLIC "-//W3C//DTD SVG 20010904//EN"
 "http://www.w3.org/TR/2001/REC-SVG-20010904/DTD/svg10.dtd">
<svg version="1.0" xmlns="http://www.w3.org/2000/svg"
 width="96.000000pt" height="84.000000pt" viewBox="0 0 96.000000 84.000000"
 preserveAspectRatio="xMidYMid meet">
<metadata>
Created by potrace 1.16, written by Peter Selinger 2001-2019
</metadata>
<g transform="translate(0.000000,84.000000) scale(0.100000,-0.100000)"
fill="#000000" stroke="none">
<path d="M377 813 c-9 -8 -9 -66 -1 -87 3 -9 13 -16 20 -16 12 0 11 -5 -2 -25
-15 -23 -15 -27 -1 -38 9 -7 17 -33 20 -63 4 -42 1 -55 -14 -68 -11 -9 -19
-27 -19 -40 0 -14 -6 -31 -13 -38 -8 -7 -17 -34 -20 -60 -4 -26 -17 -74 -30
-106 -22 -53 -23 -65 -14 -123 5 -35 10 -83 11 -106 l1 -43 148 0 c81 0 147 2
147 5 0 2 -9 26 -19 52 -38 96 -65 241 -55 292 12 59 21 31 26 -76 4 -95 9
-118 39 -188 46 -107 68 -113 67 -18 -1 37 -5 76 -9 85 -5 10 -5 19 0 23 6 3
5 20 -3 43 -7 20 -16 71 -20 112 -4 40 -17 97 -28 125 -11 27 -21 71 -23 96
-3 26 -5 51 -6 55 -3 14 12 61 32 101 28 55 25 80 -11 88 -16 4 -40 3 -52 -1
-29 -10 -57 -6 -82 12 -21 14 -78 19 -89 7z"/>
</g>
</svg>
