<?xml version="1.0" standalone="no"?>
<!DOCTYPE svg PUBLIC "-//W3C//DTD SVG 20010904//EN"
 "http://www.w3.org/TR/2001/REC-SVG-20010904/DTD/svg10.dtd">
<svg version="1.0" xmlns="http://www.w3.org/2000/svg"
 width="96.000000pt" height="84.000000pt" viewBox="0 0 96.000000 84.000000"
 preserveAspectRatio="xMidYMid meet">
<metadata>
Created by potrace 1.16, written by Peter Selinger 2001-2019
</metadata>
<g transform="translate(0.000000,84.000000) scale(0.100000,-0.100000)"
fill="#000000" stroke="none">
<path d="M0 420 l0 -420 178 0 177 0 2 56 c1 30 10 78 18 107 9 29 18 76 21
105 5 48 4 53 -13 50 -14 -2 -18 4 -19 32 0 26 -5 36 -20 39 -10 2 -23 6 -29
11 -5 4 -31 6 -57 6 -30 -1 -49 3 -52 11 -3 7 -1 13 5 13 6 0 26 12 45 27 l35
26 42 -22 c37 -20 43 -21 53 -7 6 9 21 16 33 16 11 0 21 6 21 13 0 8 3 7 10
-3 7 -11 12 -12 21 -3 8 8 6 13 -9 17 -26 9 -37 89 -20 145 15 47 43 59 87 36
41 -21 45 -30 48 -109 2 -68 -9 -96 -37 -96 -6 0 -9 -8 -5 -18 3 -11 -1 -51
-10 -91 -20 -96 -20 -95 20 -122 27 -19 35 -31 35 -55 0 -17 -6 -37 -14 -43
-10 -8 -11 -23 -5 -58 14 -89 -2 -83 210 -83 l189 0 0 420 0 420 -480 0 -480
0 0 -420z"/>
</g>
</svg>
