<?xml version="1.0" standalone="no"?>
<!DOCTYPE svg PUBLIC "-//W3C//DTD SVG 20010904//EN"
 "http://www.w3.org/TR/2001/REC-SVG-20010904/DTD/svg10.dtd">
<svg version="1.0" xmlns="http://www.w3.org/2000/svg"
 width="96.000000pt" height="84.000000pt" viewBox="0 0 96.000000 84.000000"
 preserveAspectRatio="xMidYMid meet">
<metadata>
Created by potrace 1.16, written by Peter Selinger 2001-2019
</metadata>
<g transform="translate(0.000000,84.000000) scale(0.100000,-0.100000)"
fill="#000000" stroke="none">
<path d="M0 420 l0 -420 186 0 c138 0 183 3 178 12 -11 17 -6 83 12 151 9 34
18 86 21 115 4 48 3 52 -17 52 -20 0 -21 3 -15 50 6 46 5 51 -17 59 -12 5 -27
7 -31 4 -4 -3 -14 1 -22 7 -8 6 -19 9 -25 5 -5 -3 -10 -1 -10 4 0 6 -18 11
-40 11 -55 0 -52 21 7 48 37 17 50 19 61 9 8 -6 20 -12 26 -12 6 -1 28 -9 49
-19 64 -28 72 -21 72 61 0 41 5 77 12 84 6 6 9 18 6 25 -3 8 5 18 22 24 22 8
33 6 61 -11 19 -11 34 -29 34 -39 0 -10 5 -22 11 -25 6 -5 8 -27 3 -63 -7 -55
-21 -82 -44 -82 -6 0 -8 -5 -5 -10 4 -6 -1 -49 -11 -97 l-17 -86 37 -34 c37
-35 44 -60 26 -94 -6 -11 -8 -45 -4 -84 l7 -65 193 0 194 0 0 420 0 420 -480
0 -480 0 0 -420z"/>
<path d="M450 494 c0 -8 5 -12 10 -9 6 4 8 11 5 16 -9 14 -15 11 -15 -7z"/>
</g>
</svg>
