<?xml version="1.0" standalone="no"?>
<!DOCTYPE svg PUBLIC "-//W3C//DTD SVG 20010904//EN"
 "http://www.w3.org/TR/2001/REC-SVG-20010904/DTD/svg10.dtd">
<svg version="1.0" xmlns="http://www.w3.org/2000/svg"
 width="96.000000pt" height="84.000000pt" viewBox="0 0 96.000000 84.000000"
 preserveAspectRatio="xMidYMid meet">
<metadata>
Created by potrace 1.16, written by Peter Selinger 2001-2019
</metadata>
<g transform="translate(0.000000,84.000000) scale(0.100000,-0.100000)"
fill="#000000" stroke="none">
<path d="M0 420 l0 -420 183 0 183 0 2 55 c1 31 6 72 11 93 6 20 13 76 16 125
5 86 5 87 -14 75 -35 -21 -44 1 -24 56 17 46 17 48 -2 62 -11 8 -25 12 -31 10
-7 -3 -18 2 -24 10 -7 8 -21 14 -31 14 -11 0 -19 3 -19 8 0 4 -9 12 -21 17
-24 11 -56 61 -46 71 3 4 18 -1 31 -10 14 -9 34 -16 45 -16 10 0 48 -16 84
-35 36 -19 71 -35 80 -35 18 0 27 42 15 64 -11 19 -2 54 20 79 8 9 11 17 6 17
-5 0 2 9 15 19 24 18 25 18 57 -1 41 -24 59 -73 50 -142 -3 -34 -12 -57 -26
-68 -11 -9 -20 -24 -20 -35 0 -10 -9 -49 -20 -87 l-19 -69 33 -31 c40 -37 51
-68 36 -97 -9 -16 -9 -36 1 -85 l13 -64 188 0 188 0 0 420 0 420 -480 0 -480
0 0 -420z"/>
</g>
</svg>
