<?xml version="1.0" standalone="no"?>
<!DOCTYPE svg PUBLIC "-//W3C//DTD SVG 20010904//EN"
 "http://www.w3.org/TR/2001/REC-SVG-20010904/DTD/svg10.dtd">
<svg version="1.0" xmlns="http://www.w3.org/2000/svg"
 width="96.000000pt" height="84.000000pt" viewBox="0 0 96.000000 84.000000"
 preserveAspectRatio="xMidYMid meet">
<metadata>
Created by potrace 1.16, written by Peter Selinger 2001-2019
</metadata>
<g transform="translate(0.000000,84.000000) scale(0.100000,-0.100000)"
fill="#000000" stroke="none">
<path d="M0 420 l0 -420 189 0 188 0 8 93 c4 50 8 131 9 178 l1 86 -30 -1
c-34 -1 -35 6 -12 69 14 38 14 40 -7 55 -11 8 -25 14 -29 12 -5 -1 -11 7 -14
18 -3 11 -9 17 -14 14 -5 -3 -12 3 -16 12 -3 10 -15 26 -25 36 -16 16 -27 88
-13 88 3 0 11 -16 19 -35 10 -23 22 -35 34 -35 11 0 22 -7 26 -15 3 -8 9 -15
14 -15 5 0 27 -16 48 -35 51 -47 70 -43 67 15 -3 48 23 120 44 120 6 0 13 5
15 11 2 7 17 3 39 -10 47 -28 67 -91 49 -157 -7 -25 -21 -51 -32 -57 -10 -7
-18 -20 -18 -29 0 -10 -9 -45 -21 -77 -19 -57 -19 -61 -3 -85 9 -15 20 -26 26
-26 16 0 37 -63 28 -86 -9 -21 -8 -30 11 -106 l10 -38 184 0 185 0 0 420 0
420 -480 0 -480 0 0 -420z"/>
</g>
</svg>
