<?xml version="1.0" standalone="no"?>
<!DOCTYPE svg PUBLIC "-//W3C//DTD SVG 20010904//EN"
 "http://www.w3.org/TR/2001/REC-SVG-20010904/DTD/svg10.dtd">
<svg version="1.0" xmlns="http://www.w3.org/2000/svg"
 width="96.000000pt" height="84.000000pt" viewBox="0 0 96.000000 84.000000"
 preserveAspectRatio="xMidYMid meet">
<metadata>
Created by potrace 1.16, written by Peter Selinger 2001-2019
</metadata>
<g transform="translate(0.000000,84.000000) scale(0.100000,-0.100000)"
fill="#000000" stroke="none">
<path d="M0 420 l0 -420 195 0 195 0 1 93 c0 50 2 131 2 180 l2 87 -27 -5
c-38 -9 -43 9 -18 67 20 47 20 51 4 69 -9 10 -23 19 -31 19 -7 0 -13 7 -13 15
0 9 -7 18 -15 21 -8 4 -15 12 -15 19 0 7 -7 18 -16 25 -18 15 -16 81 3 87 8 3
10 -4 7 -21 -3 -21 1 -29 21 -38 14 -6 25 -17 25 -25 0 -7 4 -13 9 -13 6 0 23
-13 38 -29 15 -16 41 -37 57 -47 l29 -18 -7 50 c-5 42 -3 55 14 76 10 14 17
28 13 31 -3 4 7 11 23 17 20 8 30 8 32 1 2 -6 8 -9 13 -5 5 3 9 0 9 -5 0 -6 7
-11 15 -11 19 0 39 -75 30 -120 -4 -19 -7 -42 -7 -51 0 -9 -10 -22 -24 -29
-13 -8 -24 -20 -24 -29 0 -9 -10 -44 -22 -79 l-22 -62 26 -28 c34 -36 48 -65
48 -98 0 -15 5 -54 12 -86 l12 -58 183 0 183 0 0 420 0 420 -480 0 -480 0 0
-420z"/>
</g>
</svg>
