<?xml version="1.0" standalone="no"?>
<!DOCTYPE svg PUBLIC "-//W3C//DTD SVG 20010904//EN"
 "http://www.w3.org/TR/2001/REC-SVG-20010904/DTD/svg10.dtd">
<svg version="1.0" xmlns="http://www.w3.org/2000/svg"
 width="96.000000pt" height="84.000000pt" viewBox="0 0 96.000000 84.000000"
 preserveAspectRatio="xMidYMid meet">
<metadata>
Created by potrace 1.16, written by Peter Selinger 2001-2019
</metadata>
<g transform="translate(0.000000,84.000000) scale(0.100000,-0.100000)"
fill="#000000" stroke="none">
<path d="M0 420 l0 -420 198 0 197 0 0 180 0 179 -30 -2 c-24 -2 -30 2 -29 18
2 27 27 88 39 97 11 8 -23 48 -42 48 -7 0 -18 11 -23 25 -5 14 -13 25 -17 25
-17 0 -35 60 -26 87 13 37 38 45 31 9 -3 -15 0 -31 8 -37 8 -6 14 -18 14 -25
0 -8 5 -14 10 -14 6 0 26 -16 45 -35 19 -19 44 -39 56 -46 21 -11 21 -9 14 39
-5 38 -3 53 9 65 9 8 16 22 16 29 0 7 10 18 23 24 55 25 118 -65 101 -145 -4
-20 -8 -40 -8 -46 -1 -5 -9 -18 -20 -27 -10 -10 -29 -48 -42 -85 -24 -72 -29
-99 -16 -105 25 -11 55 -62 58 -97 1 -21 10 -66 19 -100 l18 -61 178 0 179 0
0 420 0 420 -480 0 -480 0 0 -420z"/>
</g>
</svg>
