<?xml version="1.0" standalone="no"?>
<!DOCTYPE svg PUBLIC "-//W3C//DTD SVG 20010904//EN"
 "http://www.w3.org/TR/2001/REC-SVG-20010904/DTD/svg10.dtd">
<svg version="1.0" xmlns="http://www.w3.org/2000/svg"
 width="96.000000pt" height="84.000000pt" viewBox="0 0 96.000000 84.000000"
 preserveAspectRatio="xMidYMid meet">
<metadata>
Created by potrace 1.16, written by Peter Selinger 2001-2019
</metadata>
<g transform="translate(0.000000,84.000000) scale(0.100000,-0.100000)"
fill="#000000" stroke="none">
<path d="M0 420 l0 -420 198 0 197 0 0 180 0 180 -27 -5 c-15 -4 -29 -1 -33 5
-6 10 10 62 35 111 9 18 -25 59 -48 59 -7 0 -12 5 -12 12 0 6 -6 19 -14 27
-24 29 -35 75 -21 94 17 24 48 23 40 -2 -8 -25 11 -71 30 -71 8 0 14 -4 13 -8
-4 -11 66 -72 81 -72 9 0 10 13 5 45 -5 34 -2 50 8 63 8 9 18 25 21 35 4 10
11 15 17 12 5 -3 10 -1 10 5 0 15 38 3 60 -19 8 -9 21 -33 29 -54 17 -50 -2
-132 -36 -154 -14 -9 -23 -25 -23 -40 0 -14 -8 -48 -17 -75 l-18 -50 26 -22
c36 -31 50 -60 48 -98 -1 -18 6 -61 16 -95 l18 -63 178 0 179 0 0 420 0 420
-480 0 -480 0 0 -420z"/>
</g>
</svg>
