<?xml version="1.0" standalone="no"?>
<!DOCTYPE svg PUBLIC "-//W3C//DTD SVG 20010904//EN"
 "http://www.w3.org/TR/2001/REC-SVG-20010904/DTD/svg10.dtd">
<svg version="1.0" xmlns="http://www.w3.org/2000/svg"
 width="96.000000pt" height="84.000000pt" viewBox="0 0 96.000000 84.000000"
 preserveAspectRatio="xMidYMid meet">
<metadata>
Created by potrace 1.16, written by Peter Selinger 2001-2019
</metadata>
<g transform="translate(0.000000,84.000000) scale(0.100000,-0.100000)"
fill="#000000" stroke="none">
<path d="M0 420 l0 -420 201 0 202 0 -7 38 c-3 20 -6 101 -6 178 l0 141 -24
-4 c-35 -7 -38 8 -15 73 l21 59 -30 26 c-17 15 -33 36 -37 48 -3 12 -11 21
-17 21 -5 0 -8 6 -5 13 2 6 1 22 -4 33 -5 14 -3 28 5 39 15 21 38 12 35 -13
-2 -28 13 -62 27 -62 8 0 14 -6 14 -14 0 -15 65 -76 81 -76 7 0 8 19 4 53 -5
42 -3 57 9 70 9 8 16 23 16 31 0 9 6 16 14 16 8 0 17 6 19 13 4 9 7 9 14 0 5
-6 21 -16 36 -22 17 -7 27 -18 27 -31 0 -12 5 -31 11 -42 16 -29 -7 -124 -35
-143 -11 -8 -22 -27 -23 -41 -2 -15 -13 -49 -23 -77 -18 -47 -18 -51 -2 -63 9
-8 25 -16 34 -19 19 -7 29 -42 27 -95 -1 -19 6 -61 15 -92 l17 -58 180 0 179
0 0 420 0 420 -480 0 -480 0 0 -420z"/>
</g>
</svg>
