<?xml version="1.0" standalone="no"?>
<!DOCTYPE svg PUBLIC "-//W3C//DTD SVG 20010904//EN"
 "http://www.w3.org/TR/2001/REC-SVG-20010904/DTD/svg10.dtd">
<svg version="1.0" xmlns="http://www.w3.org/2000/svg"
 width="96.000000pt" height="84.000000pt" viewBox="0 0 96.000000 84.000000"
 preserveAspectRatio="xMidYMid meet">
<metadata>
Created by potrace 1.16, written by Peter Selinger 2001-2019
</metadata>
<g transform="translate(0.000000,84.000000) scale(0.100000,-0.100000)"
fill="#000000" stroke="none">
<path d="M0 420 l0 -420 190 0 190 0 2 58 c4 132 3 282 -2 282 -4 0 -11 -5
-18 -12 -9 -9 -15 -9 -24 0 -9 9 -8 20 5 47 22 46 21 62 -3 77 -12 8 -20 24
-20 41 0 22 -4 28 -15 23 -10 -4 -14 1 -14 17 1 12 -1 29 -5 37 -3 9 0 24 7
34 18 25 51 14 42 -13 -3 -11 -1 -22 4 -25 6 -4 8 -13 4 -21 -3 -8 0 -15 6
-15 6 0 17 -11 23 -25 6 -14 17 -24 24 -21 8 3 16 1 19 -5 10 -16 25 1 25 28
0 15 -5 41 -12 59 -9 27 -9 37 5 58 9 14 17 32 17 41 0 8 6 15 14 15 8 0 16 4
18 10 4 14 88 -29 88 -45 0 -6 7 -25 14 -41 12 -22 13 -39 5 -73 -5 -24 -8
-46 -5 -49 7 -6 -20 -32 -33 -32 -6 0 -11 -15 -11 -33 0 -18 -9 -58 -20 -90
-11 -31 -20 -60 -20 -65 0 -5 15 -16 34 -25 30 -14 36 -22 41 -61 4 -24 4 -49
0 -55 -3 -6 -1 -36 6 -66 l12 -55 184 0 183 0 0 420 0 420 -480 0 -480 0 0
-420z"/>
<path d="M450 480 c0 -5 5 -10 11 -10 5 0 7 5 4 10 -3 6 -8 10 -11 10 -2 0 -4
-4 -4 -10z"/>
</g>
</svg>
