<?xml version="1.0" standalone="no"?>
<!DOCTYPE svg PUBLIC "-//W3C//DTD SVG 20010904//EN"
 "http://www.w3.org/TR/2001/REC-SVG-20010904/DTD/svg10.dtd">
<svg version="1.0" xmlns="http://www.w3.org/2000/svg"
 width="96.000000pt" height="84.000000pt" viewBox="0 0 96.000000 84.000000"
 preserveAspectRatio="xMidYMid meet">
<metadata>
Created by potrace 1.16, written by Peter Selinger 2001-2019
</metadata>
<g transform="translate(0.000000,84.000000) scale(0.100000,-0.100000)"
fill="#000000" stroke="none">
<path d="M0 420 l0 -420 174 0 174 0 18 78 c19 77 20 243 1 215 -13 -20 -35
-15 -42 8 -5 14 0 28 14 43 26 27 26 32 2 39 -28 7 -39 82 -15 108 25 28 34
24 51 -21 17 -42 30 -50 39 -25 4 8 18 15 32 15 28 0 25 10 -5 14 -12 2 -19
13 -21 31 -2 16 -10 38 -18 49 -18 27 -18 51 2 81 9 13 13 29 9 34 -3 6 2 18
12 28 16 16 24 17 55 8 77 -21 111 -78 104 -168 -2 -34 -5 -63 -5 -64 -1 -1
-13 -9 -28 -17 -20 -11 -23 -15 -11 -16 42 -1 50 -74 13 -118 -13 -16 -27 -47
-31 -69 -6 -38 -5 -41 22 -47 62 -16 81 -68 49 -130 -8 -15 -12 -39 -9 -52 l6
-24 184 0 184 0 0 420 0 420 -480 0 -480 0 0 -420z"/>
</g>
</svg>
