<?xml version="1.0" standalone="no"?>
<!DOCTYPE svg PUBLIC "-//W3C//DTD SVG 20010904//EN"
 "http://www.w3.org/TR/2001/REC-SVG-20010904/DTD/svg10.dtd">
<svg version="1.0" xmlns="http://www.w3.org/2000/svg"
 width="96.000000pt" height="84.000000pt" viewBox="0 0 96.000000 84.000000"
 preserveAspectRatio="xMidYMid meet">
<metadata>
Created by potrace 1.16, written by Peter Selinger 2001-2019
</metadata>
<g transform="translate(0.000000,84.000000) scale(0.100000,-0.100000)"
fill="#000000" stroke="none">
<path d="M382 807 c-5 -7 -13 -31 -17 -53 -5 -31 -2 -45 10 -57 13 -14 14 -20
3 -38 -10 -17 -10 -23 0 -26 6 -3 12 -17 12 -33 0 -16 4 -40 9 -53 8 -20 6
-29 -8 -41 -10 -10 -21 -35 -25 -57 -4 -22 -11 -37 -16 -34 -6 3 -10 -5 -10
-19 0 -14 -14 -62 -30 -108 -29 -80 -30 -86 -20 -168 6 -47 11 -93 12 -102 2
-16 17 -18 150 -18 l147 0 -19 45 c-44 103 -69 250 -51 295 8 20 10 13 10 -41
1 -92 16 -163 51 -236 46 -100 58 -87 54 62 -4 154 -21 261 -50 324 -29 63
-40 134 -26 165 42 92 54 126 49 139 -7 18 -63 30 -84 18 -19 -10 -52 -3 -73
15 -27 23 -67 34 -78 21z"/>
</g>
</svg>
