<?xml version="1.0" standalone="no"?>
<!DOCTYPE svg PUBLIC "-//W3C//DTD SVG 20010904//EN"
 "http://www.w3.org/TR/2001/REC-SVG-20010904/DTD/svg10.dtd">
<svg version="1.0" xmlns="http://www.w3.org/2000/svg"
 width="96.000000pt" height="84.000000pt" viewBox="0 0 96.000000 84.000000"
 preserveAspectRatio="xMidYMid meet">
<metadata>
Created by potrace 1.16, written by Peter Selinger 2001-2019
</metadata>
<g transform="translate(0.000000,84.000000) scale(0.100000,-0.100000)"
fill="#000000" stroke="none">
<path d="M0 420 l0 -420 168 0 168 0 28 65 c34 78 31 127 -9 159 -24 20 -25
24 -18 91 5 61 10 74 38 102 27 27 32 39 29 70 -1 22 -11 43 -22 52 -27 22
-34 59 -17 92 8 15 12 34 9 43 -11 28 13 53 48 51 112 -5 165 -61 169 -180 2
-52 0 -59 -27 -80 l-28 -22 33 -8 c27 -6 37 -16 53 -53 19 -42 19 -47 4 -79
-9 -18 -16 -47 -16 -64 0 -18 -9 -39 -25 -54 -13 -14 -19 -25 -12 -25 7 0 29
-5 50 -11 44 -12 49 -37 17 -99 -18 -36 -40 -53 -40 -32 0 5 -7 17 -15 28 -13
18 -14 17 -6 -11 l7 -30 187 -3 187 -2 0 420 0 420 -480 0 -480 0 0 -420z"/>
<path d="M428 453 c6 -2 18 -2 25 0 6 3 1 5 -13 5 -14 0 -19 -2 -12 -5z"/>
</g>
</svg>
