<?xml version="1.0" standalone="no"?>
<!DOCTYPE svg PUBLIC "-//W3C//DTD SVG 20010904//EN"
 "http://www.w3.org/TR/2001/REC-SVG-20010904/DTD/svg10.dtd">
<svg version="1.0" xmlns="http://www.w3.org/2000/svg"
 width="96.000000pt" height="84.000000pt" viewBox="0 0 96.000000 84.000000"
 preserveAspectRatio="xMidYMid meet">
<metadata>
Created by potrace 1.16, written by Peter Selinger 2001-2019
</metadata>
<g transform="translate(0.000000,84.000000) scale(0.100000,-0.100000)"
fill="#000000" stroke="none">
<path d="M0 420 l0 -420 178 0 177 0 23 42 c19 36 20 43 8 57 -7 9 -17 26 -20
39 -6 18 -4 22 14 22 17 0 21 4 15 18 -4 9 -11 30 -16 46 -4 16 -16 37 -26 48
-30 33 -12 135 26 145 14 3 18 12 16 36 -2 18 -3 40 -4 50 -1 9 -7 17 -14 17
-38 0 -58 60 -37 114 6 16 6 27 0 31 -7 4 -7 13 0 24 6 12 5 22 -2 29 -11 11
0 17 25 13 4 0 7 3 7 7 0 19 125 -6 166 -33 32 -21 54 -72 54 -124 0 -22 4
-42 9 -45 13 -9 0 -57 -18 -64 -22 -8 -43 -30 -34 -35 5 -3 23 -8 42 -12 28
-6 37 -15 58 -62 19 -41 23 -60 16 -76 -5 -12 -8 -56 -6 -97 3 -57 8 -78 21
-88 16 -12 16 -15 -6 -52 -12 -21 -22 -41 -22 -44 0 -4 70 -6 155 -6 l155 0 0
420 0 420 -480 0 -480 0 0 -420z"/>
<path d="M420 438 c0 -4 7 -8 15 -8 8 0 15 4 15 8 0 5 -7 9 -15 9 -8 0 -15 -4
-15 -9z"/>
</g>
</svg>
