<?xml version="1.0" standalone="no"?>
<!DOCTYPE svg PUBLIC "-//W3C//DTD SVG 20010904//EN"
 "http://www.w3.org/TR/2001/REC-SVG-20010904/DTD/svg10.dtd">
<svg version="1.0" xmlns="http://www.w3.org/2000/svg"
 width="96.000000pt" height="84.000000pt" viewBox="0 0 96.000000 84.000000"
 preserveAspectRatio="xMidYMid meet">
<metadata>
Created by potrace 1.16, written by Peter Selinger 2001-2019
</metadata>
<g transform="translate(0.000000,84.000000) scale(0.100000,-0.100000)"
fill="#000000" stroke="none">
<path d="M0 420 l0 -420 191 0 190 0 -7 23 c-3 12 -15 34 -25 49 -11 14 -19
36 -19 47 0 18 4 20 28 16 78 -17 73 -18 66 12 -4 16 -18 57 -32 93 -31 77
-34 136 -9 155 9 7 17 21 17 32 0 38 -12 83 -21 77 -5 -3 -21 7 -35 21 -23 23
-26 32 -20 68 13 81 13 102 3 115 -11 14 9 35 25 26 4 -3 8 -1 8 4 0 12 25 11
99 -4 104 -21 131 -58 146 -201 6 -56 5 -64 -12 -70 -10 -4 -24 -13 -31 -20
-11 -11 -11 -13 3 -13 9 0 27 -11 41 -25 30 -30 30 -30 37 -6 7 28 77 36 77 9
0 -6 7 -16 16 -22 21 -16 9 -66 -17 -66 -12 0 -21 -9 -25 -25 -3 -14 -12 -25
-19 -25 -7 0 -19 -7 -26 -16 -11 -14 -11 -18 4 -29 9 -7 17 -17 17 -23 0 -5 6
-12 14 -15 7 -3 18 -19 24 -37 9 -25 9 -32 -3 -37 -8 -3 -15 -16 -15 -28 0
-13 -14 -37 -31 -54 l-31 -31 166 0 166 0 0 420 0 420 -480 0 -480 0 0 -420z"/>
<path d="M420 420 c0 -13 11 -13 30 0 12 8 11 10 -7 10 -13 0 -23 -4 -23 -10z"/>
</g>
</svg>
