<?xml version="1.0" standalone="no"?>
<!DOCTYPE svg PUBLIC "-//W3C//DTD SVG 20010904//EN"
 "http://www.w3.org/TR/2001/REC-SVG-20010904/DTD/svg10.dtd">
<svg version="1.0" xmlns="http://www.w3.org/2000/svg"
 width="96.000000pt" height="84.000000pt" viewBox="0 0 96.000000 84.000000"
 preserveAspectRatio="xMidYMid meet">
<metadata>
Created by potrace 1.16, written by Peter Selinger 2001-2019
</metadata>
<g transform="translate(0.000000,84.000000) scale(0.100000,-0.100000)"
fill="#000000" stroke="none">
<path d="M0 420 l0 -420 190 0 190 0 -10 25 c-5 14 -16 38 -25 55 -25 48 -21
53 37 46 28 -4 56 -8 62 -9 15 -3 10 21 -26 133 -28 90 -29 97 -14 125 24 47
15 90 -27 129 -37 33 -37 35 -34 98 2 35 7 69 10 75 4 7 3 14 -3 18 -19 12
-10 26 25 41 26 10 41 12 55 4 10 -5 31 -10 45 -10 42 0 93 -29 115 -64 11
-18 25 -68 31 -111 l12 -78 -33 -28 c-30 -26 -31 -29 -11 -29 14 0 28 -11 39
-30 17 -29 38 -42 29 -17 -2 6 2 20 11 29 10 12 15 40 15 88 0 38 4 70 8 70 5
0 10 28 10 63 l1 62 9 -49 c4 -27 13 -52 19 -56 6 -4 10 -11 9 -16 -4 -12 11
-72 24 -104 17 -40 16 -64 -4 -78 -11 -7 -19 -24 -19 -38 0 -14 -4 -23 -9 -20
-5 4 -21 -14 -34 -39 -22 -38 -24 -48 -14 -69 7 -14 19 -27 28 -29 20 -5 37
-69 20 -75 -6 -2 -11 -13 -11 -25 -1 -13 -13 -30 -32 -42 -63 -40 -51 -45 116
-45 l156 0 0 420 0 420 -480 0 -480 0 0 -420z"/>
<path d="M450 420 c-13 -8 -12 -10 3 -10 9 0 17 5 17 10 0 12 -1 12 -20 0z"/>
</g>
</svg>
