<?xml version="1.0" standalone="no"?>
<!DOCTYPE svg PUBLIC "-//W3C//DTD SVG 20010904//EN"
 "http://www.w3.org/TR/2001/REC-SVG-20010904/DTD/svg10.dtd">
<svg version="1.0" xmlns="http://www.w3.org/2000/svg"
 width="96.000000pt" height="84.000000pt" viewBox="0 0 96.000000 84.000000"
 preserveAspectRatio="xMidYMid meet">
<metadata>
Created by potrace 1.16, written by Peter Selinger 2001-2019
</metadata>
<g transform="translate(0.000000,84.000000) scale(0.100000,-0.100000)"
fill="#000000" stroke="none">
<path d="M0 420 l0 -420 211 0 211 0 -26 46 c-40 72 -37 78 39 72 36 -3 65 -3
65 1 0 3 -12 42 -26 86 -24 76 -27 101 -23 218 1 44 -2 52 -35 81 -35 33 -36
35 -32 98 1 36 6 70 10 76 3 6 2 13 -4 17 -22 14 -5 30 43 41 4 1 10 3 15 4 4
1 11 2 16 1 5 -1 32 -6 59 -11 27 -6 61 -19 77 -30 32 -23 60 -85 60 -135 0
-18 4 -36 9 -39 5 -4 5 -23 -1 -46 -9 -33 -13 -38 -24 -29 -11 9 -14 8 -14 -4
0 -8 -6 -18 -12 -20 -7 -3 -3 -6 10 -6 14 -1 29 -13 41 -32 17 -28 20 -30 29
-13 5 11 7 24 5 31 -2 6 5 16 15 22 17 9 19 16 11 51 -5 22 -7 65 -4 95 4 38
2 55 -6 55 -8 0 -8 4 1 15 6 8 9 22 6 32 -3 10 -7 51 -8 91 l-2 72 -358 0
-358 0 0 -420z"/>
<path d="M734 808 c3 -18 8 -59 11 -90 5 -41 11 -58 21 -58 20 0 18 -16 -3
-24 -14 -6 -15 -9 -4 -16 21 -12 44 -80 43 -122 -1 -21 3 -38 8 -38 6 0 3 -11
-5 -24 -9 -13 -15 -37 -13 -53 2 -17 -2 -27 -8 -26 -13 2 -64 -108 -64 -137 0
-11 12 -25 27 -32 19 -9 28 -22 30 -45 3 -20 0 -33 -7 -33 -6 0 -10 -10 -8
-21 2 -13 -5 -26 -16 -33 -30 -17 -56 -40 -56 -48 0 -5 61 -8 135 -8 l135 0 0
420 0 420 -115 0 -116 0 5 -32z"/>
<path d="M488 413 c6 -2 18 -2 25 0 6 3 1 5 -13 5 -14 0 -19 -2 -12 -5z"/>
</g>
</svg>
