<?xml version="1.0" standalone="no"?>
<!DOCTYPE svg PUBLIC "-//W3C//DTD SVG 20010904//EN"
 "http://www.w3.org/TR/2001/REC-SVG-20010904/DTD/svg10.dtd">
<svg version="1.0" xmlns="http://www.w3.org/2000/svg"
 width="96.000000pt" height="84.000000pt" viewBox="0 0 96.000000 84.000000"
 preserveAspectRatio="xMidYMid meet">
<metadata>
Created by potrace 1.16, written by Peter Selinger 2001-2019
</metadata>
<g transform="translate(0.000000,84.000000) scale(0.100000,-0.100000)"
fill="#000000" stroke="none">
<path d="M0 420 l0 -420 230 0 c244 0 247 1 215 47 -8 11 -19 33 -25 48 l-10
27 65 -4 c76 -5 76 -3 46 85 -25 72 -37 163 -23 180 6 7 8 31 5 55 -4 32 -13
47 -39 67 l-34 26 4 97 c3 80 6 98 20 100 9 2 16 7 16 11 0 18 136 -8 175 -33
32 -21 54 -64 62 -123 3 -27 10 -54 16 -60 6 -9 6 -13 -1 -13 -6 0 -9 -7 -6
-15 7 -18 -14 -47 -27 -39 -5 3 -9 -1 -9 -10 0 -8 -6 -17 -12 -19 -7 -3 -3 -6
10 -6 14 -1 29 -13 41 -31 19 -32 31 -30 31 4 0 12 9 27 19 33 17 11 18 17 10
48 -6 19 -8 60 -5 89 3 37 0 56 -7 59 -9 3 -9 8 -1 16 7 8 8 35 2 84 -5 39 -7
82 -5 95 l4 22 -383 0 -384 0 0 -420z"/>
<path d="M784 778 c10 -95 17 -128 26 -123 5 3 11 1 14 -4 3 -5 -1 -12 -10
-15 -15 -6 -15 -8 -2 -24 20 -23 38 -78 38 -118 0 -18 6 -34 12 -36 9 -3 8 -9
-5 -22 -9 -10 -17 -32 -17 -52 0 -19 -5 -34 -11 -34 -13 0 -59 -103 -59 -134
0 -15 7 -26 20 -29 24 -6 46 -55 30 -71 -5 -5 -10 -17 -10 -25 0 -9 -19 -32
-42 -53 l-43 -37 118 -1 117 0 0 420 0 420 -91 0 -92 0 7 -62z"/>
<path d="M540 420 c-13 -8 -12 -10 3 -10 9 0 17 5 17 10 0 12 -1 12 -20 0z"/>
</g>
</svg>
