<?xml version="1.0" standalone="no"?>
<!DOCTYPE svg PUBLIC "-//W3C//DTD SVG 20010904//EN"
 "http://www.w3.org/TR/2001/REC-SVG-20010904/DTD/svg10.dtd">
<svg version="1.0" xmlns="http://www.w3.org/2000/svg"
 width="96.000000pt" height="84.000000pt" viewBox="0 0 96.000000 84.000000"
 preserveAspectRatio="xMidYMid meet">
<metadata>
Created by potrace 1.16, written by Peter Selinger 2001-2019
</metadata>
<g transform="translate(0.000000,84.000000) scale(0.100000,-0.100000)"
fill="#000000" stroke="none">
<path d="M0 420 l0 -420 250 0 c171 0 250 3 250 11 0 6 -12 31 -26 55 -35 59
-25 71 48 56 29 -5 54 -9 56 -7 2 2 -11 54 -29 115 -28 102 -30 116 -19 150
18 53 6 100 -31 131 -23 19 -31 34 -31 55 1 16 2 59 3 97 2 57 5 67 21 67 10
0 18 4 18 9 0 12 71 7 125 -8 59 -16 93 -55 106 -126 7 -33 17 -66 22 -73 7
-9 7 -16 0 -20 -5 -4 -13 -20 -17 -35 -4 -15 -11 -25 -16 -22 -6 3 -10 1 -10
-4 0 -6 -7 -11 -17 -11 -16 0 -10 -14 8 -16 5 -1 14 -2 19 -3 6 0 19 -15 29
-32 11 -18 22 -26 25 -20 4 6 5 15 1 20 -3 5 3 16 13 23 15 11 17 28 17 105 0
68 -3 93 -12 93 -7 0 -13 5 -13 10 0 6 5 10 10 10 7 0 8 36 4 103 -8 122 5
122 20 -1 8 -59 15 -86 24 -85 16 4 16 -9 0 -25 -9 -9 -9 -15 -2 -20 18 -12
46 -102 40 -127 -4 -14 -1 -25 7 -28 9 -4 9 -7 0 -18 -7 -7 -13 -32 -13 -56 0
-31 -3 -41 -13 -37 -9 3 -23 -15 -40 -54 -33 -73 -33 -80 -3 -91 25 -10 46
-73 26 -79 -5 -2 -10 -12 -10 -23 0 -10 -17 -34 -37 -54 l-38 -34 98 -1 97 0
0 420 0 420 -480 0 -480 0 0 -420z"/>
<path d="M565 420 c-3 -5 3 -10 14 -10 12 0 21 5 21 10 0 6 -6 10 -14 10 -8 0
-18 -4 -21 -10z"/>
</g>
</svg>
