<?xml version="1.0" standalone="no"?>
<!DOCTYPE svg PUBLIC "-//W3C//DTD SVG 20010904//EN"
 "http://www.w3.org/TR/2001/REC-SVG-20010904/DTD/svg10.dtd">
<svg version="1.0" xmlns="http://www.w3.org/2000/svg"
 width="96.000000pt" height="84.000000pt" viewBox="0 0 96.000000 84.000000"
 preserveAspectRatio="xMidYMid meet">
<metadata>
Created by potrace 1.16, written by Peter Selinger 2001-2019
</metadata>
<g transform="translate(0.000000,84.000000) scale(0.100000,-0.100000)"
fill="#000000" stroke="none">
<path d="M0 420 l0 -420 261 0 261 0 -25 43 c-13 23 -28 53 -32 66 l-7 24 66
-8 c36 -3 66 -3 66 2 0 4 -9 42 -21 83 -39 145 -39 143 -25 171 10 20 11 40 5
71 -4 23 -8 47 -9 52 0 5 -3 6 -7 3 -3 -4 -17 3 -30 15 -24 22 -31 79 -14 107
6 9 5 21 -2 32 -8 13 -8 21 1 31 8 11 9 17 0 26 -8 8 -4 13 16 18 14 3 26 11
26 16 0 7 5 6 13 -1 8 -6 18 -7 23 -2 5 5 37 -1 74 -13 76 -25 105 -59 115
-134 3 -26 10 -55 16 -64 6 -12 6 -18 0 -18 -6 0 -13 -16 -17 -36 -5 -25 -9
-32 -15 -22 -7 10 -9 9 -9 -4 0 -10 -8 -18 -17 -19 -10 0 -3 -5 16 -10 23 -7
37 -19 44 -40 16 -41 33 -37 28 8 -1 7 7 17 18 22 17 9 18 16 10 43 -5 18 -7
62 -3 97 5 46 4 62 -5 57 -6 -4 -11 -2 -11 3 0 6 5 11 10 11 6 0 8 37 5 103
-5 113 9 95 20 -25 5 -52 10 -66 21 -61 8 3 14 1 14 -5 0 -5 -8 -13 -17 -17
-17 -6 -17 -7 0 -19 9 -7 17 -20 17 -27 0 -8 7 -25 16 -38 11 -15 14 -34 11
-56 -3 -21 -1 -35 6 -38 7 -2 5 -11 -6 -27 -9 -14 -17 -37 -17 -52 0 -16 -5
-28 -13 -28 -7 0 -25 -30 -41 -66 l-29 -66 26 -21 c28 -23 47 -77 28 -77 -6 0
-11 -9 -11 -20 0 -11 -17 -35 -37 -55 l-38 -34 93 -1 92 0 0 420 0 420 -480 0
-480 0 0 -420z"/>
<path d="M578 423 c6 -2 18 -2 25 0 6 3 1 5 -13 5 -14 0 -19 -2 -12 -5z"/>
</g>
</svg>
