<?xml version="1.0" standalone="no"?>
<!DOCTYPE svg PUBLIC "-//W3C//DTD SVG 20010904//EN"
 "http://www.w3.org/TR/2001/REC-SVG-20010904/DTD/svg10.dtd">
<svg version="1.0" xmlns="http://www.w3.org/2000/svg"
 width="96.000000pt" height="84.000000pt" viewBox="0 0 96.000000 84.000000"
 preserveAspectRatio="xMidYMid meet">
<metadata>
Created by potrace 1.16, written by Peter Selinger 2001-2019
</metadata>
<g transform="translate(0.000000,84.000000) scale(0.100000,-0.100000)"
fill="#000000" stroke="none">
<path d="M0 420 l0 -420 260 0 c290 0 273 -5 223 70 -38 57 -33 64 42 58 63
-5 65 -5 65 17 0 13 -9 52 -20 88 -11 36 -20 83 -20 104 0 21 0 65 0 98 0 54
-3 63 -29 85 -34 30 -45 69 -30 104 9 18 9 29 1 39 -7 8 -7 18 -2 27 5 8 7 22
5 30 -6 19 49 52 63 38 6 -6 12 -6 16 0 7 12 113 -22 139 -46 26 -24 47 -66
47 -97 0 -14 7 -41 15 -61 8 -19 10 -32 6 -29 -5 2 -12 -11 -15 -31 -6 -29
-10 -33 -22 -24 -11 10 -14 9 -14 -4 0 -9 -7 -16 -16 -16 -8 0 -12 -4 -9 -10
3 -5 19 -10 35 -10 24 0 31 -6 41 -35 10 -27 16 -32 26 -23 8 6 11 18 8 25 -3
8 5 23 16 32 20 16 21 21 9 55 -7 22 -9 48 -4 64 12 43 12 66 0 75 -8 5 -8 9
1 15 9 6 12 36 10 105 l-2 97 -422 0 -423 0 0 -420z"/>
<path d="M860 806 c0 -65 13 -155 21 -150 5 3 9 1 9 -5 0 -5 -4 -12 -9 -15
-11 -7 27 -86 41 -86 7 0 9 -18 6 -45 -4 -34 -2 -45 8 -45 10 0 8 -6 -6 -20
-12 -12 -20 -33 -20 -55 0 -25 -4 -35 -15 -35 -10 0 -30 -29 -50 -72 l-35 -72
25 -21 c26 -22 45 -75 26 -75 -6 0 -10 -10 -8 -22 1 -14 -6 -26 -19 -33 -30
-15 -54 -36 -54 -46 0 -5 41 -9 90 -9 l90 0 0 420 0 420 -50 0 -50 0 0 -34z"/>
<path d="M583 429 c14 -8 22 -8 30 0 8 8 3 11 -18 11 -26 -1 -28 -2 -12 -11z"/>
</g>
</svg>
