<?xml version="1.0" standalone="no"?>
<!DOCTYPE svg PUBLIC "-//W3C//DTD SVG 20010904//EN"
 "http://www.w3.org/TR/2001/REC-SVG-20010904/DTD/svg10.dtd">
<svg version="1.0" xmlns="http://www.w3.org/2000/svg"
 width="96.000000pt" height="84.000000pt" viewBox="0 0 96.000000 84.000000"
 preserveAspectRatio="xMidYMid meet">
<metadata>
Created by potrace 1.16, written by Peter Selinger 2001-2019
</metadata>
<g transform="translate(0.000000,84.000000) scale(0.100000,-0.100000)"
fill="#000000" stroke="none">
<path d="M0 420 l0 -420 255 0 c287 0 278 -3 230 75 -40 64 -36 69 45 62 39
-3 70 -2 70 2 0 4 -9 43 -20 87 -12 43 -21 102 -20 129 1 138 1 139 -30 168
-36 34 -46 66 -31 108 8 24 8 36 0 45 -9 10 -8 18 0 28 6 7 9 21 5 30 -6 14 5
21 29 17 4 0 7 5 7 12 0 20 83 11 137 -15 58 -28 83 -61 90 -119 3 -24 12 -56
20 -71 7 -16 10 -28 5 -28 -4 0 -13 -14 -19 -31 -7 -17 -17 -28 -22 -24 -6 3
-11 1 -11 -4 0 -6 -7 -11 -16 -11 -8 0 -12 -4 -9 -10 3 -6 17 -10 30 -10 26 0
55 -33 55 -64 0 -20 0 -20 15 0 8 10 15 28 15 39 0 11 9 26 19 32 17 11 18 17
9 48 -8 24 -8 52 -1 90 5 30 7 55 4 55 -3 0 -5 45 -3 100 l3 100 -430 0 -431
0 0 -420z"/>
<path d="M874 788 c3 -29 6 -68 6 -85 0 -24 5 -33 16 -33 13 0 14 -3 5 -13
-11 -13 10 -67 39 -102 7 -9 9 -26 5 -45 -4 -19 -3 -30 4 -30 8 0 11 58 11
180 l0 180 -46 0 -47 0 7 -52z"/>
<path d="M575 449 c7 -11 44 -18 50 -9 3 4 -8 10 -25 12 -16 2 -27 1 -25 -3z"/>
<path d="M935 438 c-2 -13 -6 -34 -7 -48 -2 -14 -9 -25 -16 -25 -12 0 -92
-138 -92 -158 0 -5 10 -17 22 -27 37 -29 24 -134 -16 -129 -28 3 -36 -3 -36
-26 0 -25 1 -25 85 -25 l85 0 0 230 c0 144 -4 230 -10 230 -5 0 -12 -10 -15
-22z"/>
</g>
</svg>
