<?xml version="1.0" standalone="no"?>
<!DOCTYPE svg PUBLIC "-//W3C//DTD SVG 20010904//EN"
 "http://www.w3.org/TR/2001/REC-SVG-20010904/DTD/svg10.dtd">
<svg version="1.0" xmlns="http://www.w3.org/2000/svg"
 width="96.000000pt" height="84.000000pt" viewBox="0 0 96.000000 84.000000"
 preserveAspectRatio="xMidYMid meet">
<metadata>
Created by potrace 1.16, written by Peter Selinger 2001-2019
</metadata>
<g transform="translate(0.000000,84.000000) scale(0.100000,-0.100000)"
fill="#000000" stroke="none">
<path d="M367 803 c-6 -9 -11 -69 -8 -95 0 -10 8 -18 16 -18 14 0 14 -3 0 -30
-9 -16 -12 -30 -7 -30 17 0 22 -109 7 -138 -8 -15 -17 -40 -20 -55 -3 -15 -10
-25 -15 -22 -6 4 -10 -7 -10 -24 0 -17 -12 -61 -27 -98 -20 -52 -27 -89 -29
-157 -4 -143 -12 -136 170 -136 111 0 156 3 164 12 9 12 23 102 22 138 0 8 0
38 0 65 1 74 -17 152 -50 224 -40 85 -40 145 0 226 16 33 30 65 30 72 0 20
-35 33 -87 32 -30 0 -62 7 -88 20 -41 22 -61 26 -68 14z m160 -560 c-2 -21 -4
-6 -4 32 0 39 2 55 4 38 2 -18 2 -50 0 -70z"/>
</g>
</svg>
