<?xml version="1.0" standalone="no"?>
<!DOCTYPE svg PUBLIC "-//W3C//DTD SVG 20010904//EN"
 "http://www.w3.org/TR/2001/REC-SVG-20010904/DTD/svg10.dtd">
<svg version="1.0" xmlns="http://www.w3.org/2000/svg"
 width="96.000000pt" height="84.000000pt" viewBox="0 0 96.000000 84.000000"
 preserveAspectRatio="xMidYMid meet">
<metadata>
Created by potrace 1.16, written by Peter Selinger 2001-2019
</metadata>
<g transform="translate(0.000000,84.000000) scale(0.100000,-0.100000)"
fill="#000000" stroke="none">
<path d="M0 420 l0 -420 254 0 c194 0 255 3 259 13 3 6 -8 36 -24 64 -16 29
-29 57 -29 62 0 14 42 20 93 12 l47 -8 0 42 c0 23 -5 67 -11 96 -5 30 -10 95
-10 146 -1 84 -3 93 -26 115 -36 33 -46 64 -32 106 9 28 9 36 -2 43 -11 7 -12
12 -2 28 7 11 10 27 7 36 -6 13 6 20 29 16 4 0 7 5 7 12 0 34 167 -9 201 -51
10 -13 23 -49 29 -80 6 -31 15 -65 20 -74 13 -23 13 -31 0 -23 -6 3 -10 -2
-10 -12 -1 -17 -30 -66 -30 -49 0 4 -7 1 -15 -8 -20 -20 -19 -26 5 -26 21 0
40 -28 49 -73 l6 -29 33 46 c18 25 31 50 27 55 -3 6 3 15 14 20 14 8 18 19 15
38 -2 16 -7 52 -10 81 -4 28 -12 52 -17 52 -8 0 -8 3 0 11 8 8 7 26 -4 66 -8
30 -13 67 -11 81 3 20 9 7 23 -45 12 -45 25 -73 33 -73 9 0 11 -7 7 -20 -3
-11 -2 -20 3 -20 6 0 15 -12 20 -27 8 -22 11 0 11 95 l1 122 -480 0 -480 0 0
-420z"/>
<path d="M924 373 c-52 -85 -66 -103 -78 -103 -8 0 -16 -15 -19 -36 -5 -28 -2
-40 13 -53 22 -19 38 -71 21 -71 -6 0 -8 -7 -5 -15 9 -23 -15 -46 -41 -39 -19
5 -23 1 -27 -25 l-5 -31 89 0 88 0 0 194 c0 113 -4 197 -10 201 -5 3 -17 -7
-26 -22z"/>
</g>
</svg>
