<?xml version="1.0" standalone="no"?>
<!DOCTYPE svg PUBLIC "-//W3C//DTD SVG 20010904//EN"
 "http://www.w3.org/TR/2001/REC-SVG-20010904/DTD/svg10.dtd">
<svg version="1.0" xmlns="http://www.w3.org/2000/svg"
 width="96.000000pt" height="84.000000pt" viewBox="0 0 96.000000 84.000000"
 preserveAspectRatio="xMidYMid meet">
<metadata>
Created by potrace 1.16, written by Peter Selinger 2001-2019
</metadata>
<g transform="translate(0.000000,84.000000) scale(0.100000,-0.100000)"
fill="#000000" stroke="none">
<path d="M0 420 l0 -420 254 0 254 0 -9 41 c-6 23 -14 50 -19 60 -6 10 -10 28
-10 40 0 20 3 21 49 16 l50 -6 -15 47 c-8 26 -17 57 -20 70 -6 22 -6 22 -41
-8 -27 -24 -39 -29 -61 -23 -31 9 -65 8 -106 -2 -20 -6 -31 -4 -37 6 -17 26
-9 50 27 83 21 20 34 38 30 45 -9 14 33 51 50 44 7 -2 18 5 24 17 8 15 15 18
24 11 9 -7 21 -4 44 12 33 23 37 44 7 39 -45 -8 -67 52 -45 127 6 23 6 39 0
46 -7 8 -6 21 4 39 11 23 15 24 26 11 17 -21 27 -19 57 11 18 18 29 22 36 15
6 -6 21 -11 34 -11 32 0 90 -54 104 -98 6 -20 22 -47 35 -60 14 -13 22 -27 19
-33 -8 -12 17 -12 49 1 53 20 24 -10 -39 -41 -36 -17 -65 -38 -65 -46 0 -8 8
-27 19 -41 46 -67 63 -114 56 -159 -6 -40 -5 -44 12 -39 21 7 83 -28 83 -46 0
-7 3 -23 6 -35 5 -17 2 -23 -10 -23 -10 0 -16 -9 -16 -24 0 -24 -33 -46 -47
-32 -10 10 -33 -15 -33 -35 0 -17 9 -19 90 -19 l90 0 0 420 0 420 -480 0 -480
0 0 -420z"/>
<path d="M660 452 c0 -12 19 -26 26 -19 2 2 -2 10 -11 17 -9 8 -15 8 -15 2z"/>
<path d="M552 43 c-7 -2 -17 -14 -23 -26 -11 -21 -10 -20 15 2 14 14 26 26 26
28 0 3 0 3 -18 -4z"/>
</g>
</svg>
