<?xml version="1.0" standalone="no"?>
<!DOCTYPE svg PUBLIC "-//W3C//DTD SVG 20010904//EN"
 "http://www.w3.org/TR/2001/REC-SVG-20010904/DTD/svg10.dtd">
<svg version="1.0" xmlns="http://www.w3.org/2000/svg"
 width="96.000000pt" height="84.000000pt" viewBox="0 0 96.000000 84.000000"
 preserveAspectRatio="xMidYMid meet">
<metadata>
Created by potrace 1.16, written by Peter Selinger 2001-2019
</metadata>
<g transform="translate(0.000000,84.000000) scale(0.100000,-0.100000)"
fill="#000000" stroke="none">
<path d="M0 420 l0 -420 315 0 c173 0 315 3 315 7 0 4 -11 23 -25 43 -14 20
-31 68 -41 115 -9 44 -25 94 -35 111 -10 17 -19 38 -19 46 0 8 -11 25 -24 37
-14 13 -22 29 -19 37 3 9 -6 18 -26 25 -36 13 -46 40 -38 104 5 37 4 43 -9 38
-12 -5 -13 -2 -3 21 12 25 49 37 49 16 0 -6 17 1 37 15 76 51 164 20 203 -70
13 -31 25 -44 42 -47 13 -2 22 -9 20 -16 -1 -6 4 -12 10 -12 10 0 10 -2 0 -9
-8 -4 -13 -11 -13 -15 3 -24 -1 -36 -14 -36 -8 0 -15 -5 -15 -11 0 -7 -12 -10
-29 -7 -17 2 -28 1 -25 -4 3 -4 -1 -8 -8 -8 -19 0 102 -114 143 -135 41 -21
89 -64 89 -80 0 -7 -11 -33 -25 -58 -29 -56 -22 -64 54 -59 l51 4 0 394 0 394
-480 0 -480 0 0 -420z"/>
</g>
</svg>
