<?xml version="1.0" standalone="no"?>
<!DOCTYPE svg PUBLIC "-//W3C//DTD SVG 20010904//EN"
 "http://www.w3.org/TR/2001/REC-SVG-20010904/DTD/svg10.dtd">
<svg version="1.0" xmlns="http://www.w3.org/2000/svg"
 width="96.000000pt" height="84.000000pt" viewBox="0 0 96.000000 84.000000"
 preserveAspectRatio="xMidYMid meet">
<metadata>
Created by potrace 1.16, written by Peter Selinger 2001-2019
</metadata>
<g transform="translate(0.000000,84.000000) scale(0.100000,-0.100000)"
fill="#000000" stroke="none">
<path d="M0 420 l0 -420 460 0 c253 0 460 2 460 4 0 3 -13 18 -29 34 -37 37
-73 150 -68 215 2 26 1 47 -2 48 -79 11 -101 27 -101 74 0 24 -7 37 -25 49
-30 20 -31 44 -8 116 21 64 50 80 147 80 55 0 69 -4 95 -26 l31 -26 0 136 0
136 -480 0 -480 0 0 -420z"/>
</g>
</svg>
