<?xml version="1.0" standalone="no"?>
<!DOCTYPE svg PUBLIC "-//W3C//DTD SVG 20010904//EN"
 "http://www.w3.org/TR/2001/REC-SVG-20010904/DTD/svg10.dtd">
<svg version="1.0" xmlns="http://www.w3.org/2000/svg"
 width="96.000000pt" height="84.000000pt" viewBox="0 0 96.000000 84.000000"
 preserveAspectRatio="xMidYMid meet">
<metadata>
Created by potrace 1.16, written by Peter Selinger 2001-2019
</metadata>
<g transform="translate(0.000000,84.000000) scale(0.100000,-0.100000)"
fill="#000000" stroke="none">
<path d="M0 420 l0 -420 480 0 480 0 0 420 0 420 -480 0 -480 0 0 -420z m346
-40 c22 0 34 -5 34 -13 0 -9 -10 -12 -30 -9 -20 3 -32 -1 -36 -11 -5 -13 -9
-13 -32 -1 -15 8 -56 14 -94 14 -39 0 -68 4 -68 10 0 6 35 10 84 10 70 0 85 3
91 18 8 16 8 16 12 0 3 -13 14 -18 39 -18z"/>
</g>
</svg>
