<?xml version="1.0" standalone="no"?>
<!DOCTYPE svg PUBLIC "-//W3C//DTD SVG 20010904//EN"
 "http://www.w3.org/TR/2001/REC-SVG-20010904/DTD/svg10.dtd">
<svg version="1.0" xmlns="http://www.w3.org/2000/svg"
 width="96.000000pt" height="84.000000pt" viewBox="0 0 96.000000 84.000000"
 preserveAspectRatio="xMidYMid meet">
<metadata>
Created by potrace 1.16, written by Peter Selinger 2001-2019
</metadata>
<g transform="translate(0.000000,84.000000) scale(0.100000,-0.100000)"
fill="#000000" stroke="none">
<path d="M0 420 l0 -420 480 0 480 0 0 420 0 420 -480 0 -480 0 0 -420z m510
-25 c0 -11 12 -15 45 -15 34 0 45 -4 45 -16 0 -11 -8 -15 -27 -14 -50 4 -63 0
-63 -15 0 -8 -4 -15 -10 -15 -5 0 -10 6 -10 14 0 11 -21 15 -90 18 -53 2 -94
8 -102 16 -10 9 8 12 90 12 84 0 102 3 102 15 0 8 5 15 10 15 6 0 10 -7 10
-15z"/>
</g>
</svg>
