<?xml version="1.0" standalone="no"?>
<!DOCTYPE svg PUBLIC "-//W3C//DTD SVG 20010904//EN"
 "http://www.w3.org/TR/2001/REC-SVG-20010904/DTD/svg10.dtd">
<svg version="1.0" xmlns="http://www.w3.org/2000/svg"
 width="96.000000pt" height="84.000000pt" viewBox="0 0 96.000000 84.000000"
 preserveAspectRatio="xMidYMid meet">
<metadata>
Created by potrace 1.16, written by Peter Selinger 2001-2019
</metadata>
<g transform="translate(0.000000,84.000000) scale(0.100000,-0.100000)"
fill="#000000" stroke="none">
<path d="M0 420 l0 -420 480 0 480 0 0 420 0 420 -480 0 -480 0 0 -420z m580
-10 c0 -17 7 -20 51 -20 43 0 50 -3 47 -17 -3 -15 -12 -17 -51 -15 -43 3 -47
2 -47 -18 0 -13 -5 -20 -12 -17 -7 2 -13 10 -13 18 0 11 -25 15 -110 20 -60 4
-112 7 -115 9 -17 7 58 18 133 19 80 1 89 3 94 21 3 11 9 20 14 20 5 0 9 -9 9
-20z"/>
</g>
</svg>
