<?xml version="1.0" standalone="no"?>
<!DOCTYPE svg PUBLIC "-//W3C//DTD SVG 20010904//EN"
 "http://www.w3.org/TR/2001/REC-SVG-20010904/DTD/svg10.dtd">
<svg version="1.0" xmlns="http://www.w3.org/2000/svg"
 width="96.000000pt" height="84.000000pt" viewBox="0 0 96.000000 84.000000"
 preserveAspectRatio="xMidYMid meet">
<metadata>
Created by potrace 1.16, written by Peter Selinger 2001-2019
</metadata>
<g transform="translate(0.000000,84.000000) scale(0.100000,-0.100000)"
fill="#000000" stroke="none">
<path d="M0 420 l0 -420 480 0 480 0 0 420 0 420 -480 0 -480 0 0 -420z m660
14 c0 -26 1 -26 60 -22 58 4 60 4 60 -20 0 -23 -3 -24 -37 -19 -51 9 -83 -1
-83 -24 0 -11 -7 -19 -15 -19 -8 0 -15 9 -15 20 0 19 -7 20 -97 20 -101 0
-178 14 -168 31 4 5 64 9 136 9 118 0 129 2 129 18 0 10 3 22 7 25 13 14 23 6
23 -19z"/>
</g>
</svg>
