<?xml version="1.0" standalone="no"?>
<!DOCTYPE svg PUBLIC "-//W3C//DTD SVG 20010904//EN"
 "http://www.w3.org/TR/2001/REC-SVG-20010904/DTD/svg10.dtd">
<svg version="1.0" xmlns="http://www.w3.org/2000/svg"
 width="96.000000pt" height="84.000000pt" viewBox="0 0 96.000000 84.000000"
 preserveAspectRatio="xMidYMid meet">
<metadata>
Created by potrace 1.16, written by Peter Selinger 2001-2019
</metadata>
<g transform="translate(0.000000,84.000000) scale(0.100000,-0.100000)"
fill="#000000" stroke="none">
<path d="M346 794 c-15 -39 -3 -94 20 -94 12 0 11 -5 -3 -26 -14 -23 -15 -27
-2 -34 12 -7 13 -22 8 -72 -9 -81 -24 -139 -40 -148 -6 -4 -9 -12 -5 -18 3 -6
-8 -48 -25 -94 -25 -69 -31 -100 -33 -183 -2 -55 -1 -105 1 -112 7 -17 325
-18 322 -1 -1 7 0 20 4 28 3 8 8 33 12 55 20 140 10 226 -43 353 -25 60 -27
74 -21 134 5 42 15 77 28 95 11 15 23 40 26 54 5 22 2 28 -22 37 -15 6 -49 10
-74 10 -28 -1 -55 5 -70 15 -30 21 -75 22 -83 1z m31 -481 c-3 -10 -5 -2 -5
17 0 19 2 27 5 18 2 -10 2 -26 0 -35z"/>
</g>
</svg>
