<?xml version="1.0" standalone="no"?>
<!DOCTYPE svg PUBLIC "-//W3C//DTD SVG 20010904//EN"
 "http://www.w3.org/TR/2001/REC-SVG-20010904/DTD/svg10.dtd">
<svg version="1.0" xmlns="http://www.w3.org/2000/svg"
 width="96.000000pt" height="84.000000pt" viewBox="0 0 96.000000 84.000000"
 preserveAspectRatio="xMidYMid meet">
<metadata>
Created by potrace 1.16, written by Peter Selinger 2001-2019
</metadata>
<g transform="translate(0.000000,84.000000) scale(0.100000,-0.100000)"
fill="#000000" stroke="none">
<path d="M0 420 l0 -420 480 0 480 0 0 190 0 190 -65 0 c-65 0 -65 0 -65 -28
0 -35 -6 -41 -31 -35 -13 4 -19 14 -19 34 l0 29 -149 0 c-111 0 -162 4 -200
16 -28 9 -48 21 -45 25 3 5 86 9 184 9 98 0 185 3 194 6 9 3 16 16 16 29 0 26
24 50 40 40 5 -3 10 -19 10 -35 0 -31 14 -40 65 -40 68 0 65 -8 65 211 l0 199
-480 0 -480 0 0 -420z"/>
</g>
</svg>
