<?xml version="1.0" standalone="no"?>
<!DOCTYPE svg PUBLIC "-//W3C//DTD SVG 20010904//EN"
 "http://www.w3.org/TR/2001/REC-SVG-20010904/DTD/svg10.dtd">
<svg version="1.0" xmlns="http://www.w3.org/2000/svg"
 width="96.000000pt" height="84.000000pt" viewBox="0 0 96.000000 84.000000"
 preserveAspectRatio="xMidYMid meet">
<metadata>
Created by potrace 1.16, written by Peter Selinger 2001-2019
</metadata>
<g transform="translate(0.000000,84.000000) scale(0.100000,-0.100000)"
fill="#000000" stroke="none">
<path d="M0 420 l0 -420 285 0 c324 0 294 -11 271 98 -12 57 -12 68 6 125 10
33 25 68 33 77 8 9 12 25 9 36 -5 19 -18 21 -183 32 -180 12 -241 22 -207 35
10 4 126 16 259 27 133 11 295 27 359 35 64 8 119 15 122 15 3 0 6 81 6 180
l0 180 -480 0 -480 0 0 -420z"/>
<path d="M875 373 c-16 -1 -58 -6 -92 -9 -52 -5 -62 -9 -67 -27 -3 -13 2 -29
13 -42 10 -11 26 -48 36 -83 16 -54 17 -71 7 -126 -7 -35 -12 -68 -12 -75 0
-7 24 -11 70 -11 50 0 70 4 70 13 -1 6 -9 52 -19 101 -19 89 -19 90 2 145 11
31 26 63 34 72 17 20 17 49 1 48 -7 -1 -26 -4 -43 -6z"/>
</g>
</svg>
