<?xml version="1.0" standalone="no"?>
<!DOCTYPE svg PUBLIC "-//W3C//DTD SVG 20010904//EN"
 "http://www.w3.org/TR/2001/REC-SVG-20010904/DTD/svg10.dtd">
<svg version="1.0" xmlns="http://www.w3.org/2000/svg"
 width="96.000000pt" height="84.000000pt" viewBox="0 0 96.000000 84.000000"
 preserveAspectRatio="xMidYMid meet">
<metadata>
Created by potrace 1.16, written by Peter Selinger 2001-2019
</metadata>
<g transform="translate(0.000000,84.000000) scale(0.100000,-0.100000)"
fill="#000000" stroke="none">
<path d="M0 615 l0 -225 26 0 c14 0 125 9 247 20 330 30 500 63 640 122 l47
20 0 144 0 144 -480 0 -480 0 0 -225z"/>
<path d="M914 426 c-16 -13 -17 -18 -6 -33 6 -10 17 -29 22 -43 27 -66 29 -66
29 13 1 82 -6 91 -45 63z"/>
<path d="M714 393 c-52 -12 -63 -18 -66 -38 -3 -13 1 -30 7 -37 7 -7 19 -34
28 -59 14 -43 13 -54 -4 -135 -27 -133 -32 -124 61 -124 62 0 80 3 80 14 0 8
-12 68 -26 133 -27 124 -26 155 5 216 27 53 21 55 -85 30z"/>
<path d="M0 183 l0 -183 140 0 c77 0 140 3 140 8 0 4 -7 45 -17 91 -14 71 -14
91 -3 135 7 28 17 57 23 64 6 8 11 22 12 33 2 17 -6 19 -89 20 -50 0 -117 4
-148 8 l-58 7 0 -183z"/>
<path d="M433 353 c-44 -3 -53 -7 -53 -23 0 -10 4 -21 9 -25 5 -3 17 -30 26
-61 15 -52 15 -61 -3 -150 l-19 -94 78 0 c92 0 87 -10 60 126 -15 81 -16 97
-3 140 7 27 20 56 28 65 26 29 13 31 -123 22z"/>
<path d="M930 138 c-13 -62 -25 -119 -28 -125 -3 -9 6 -13 27 -13 l31 0 0 125
c0 69 -2 125 -3 125 -2 0 -14 -51 -27 -112z"/>
</g>
</svg>
