<?xml version="1.0" standalone="no"?>
<!DOCTYPE svg PUBLIC "-//W3C//DTD SVG 20010904//EN"
 "http://www.w3.org/TR/2001/REC-SVG-20010904/DTD/svg10.dtd">
<svg version="1.0" xmlns="http://www.w3.org/2000/svg"
 width="96.000000pt" height="84.000000pt" viewBox="0 0 96.000000 84.000000"
 preserveAspectRatio="xMidYMid meet">
<metadata>
Created by potrace 1.16, written by Peter Selinger 2001-2019
</metadata>
<g transform="translate(0.000000,84.000000) scale(0.100000,-0.100000)"
fill="#000000" stroke="none">
<path d="M0 612 l0 -228 133 13 c290 27 449 70 598 160 49 29 97 53 108 53 11
0 42 -24 70 -52 l51 -53 0 168 0 167 -480 0 -480 0 0 -228z"/>
<path d="M799 523 c-17 -19 -14 -38 11 -89 11 -21 20 -49 20 -62 0 -50 -42
-237 -56 -248 -8 -6 -14 -16 -14 -23 0 -6 -4 -11 -9 -11 -5 0 -21 65 -37 144
-26 136 -27 146 -12 184 l16 40 -57 -25 c-75 -34 -78 -38 -59 -71 8 -15 18
-40 22 -57 9 -37 -32 -266 -51 -281 -7 -6 -13 -14 -13 -18 0 -3 90 -6 200 -6
l200 0 -1 78 c-1 42 -3 69 -6 59 -5 -19 -42 -61 -48 -55 -2 2 -17 62 -32 134
-30 135 -29 167 3 205 22 25 16 53 -19 87 -38 37 -40 38 -58 15z"/>
<path d="M448 381 c-65 -15 -89 -36 -67 -58 4 -4 14 -26 21 -48 12 -35 11 -53
-9 -150 -12 -60 -22 -113 -23 -117 0 -5 38 -8 85 -8 47 0 85 4 85 9 0 4 -11
63 -25 131 -30 147 -30 156 -6 202 10 20 15 40 12 45 -3 5 -36 2 -73 -6z"/>
<path d="M193 343 c-48 -5 -50 -8 -28 -49 26 -49 28 -91 10 -181 -10 -49 -20
-94 -22 -101 -4 -9 15 -12 76 -12 45 0 81 4 81 9 0 5 -9 53 -20 106 -11 53
-20 107 -20 119 0 12 9 39 20 61 11 22 20 43 20 47 0 8 -35 8 -117 1z"/>
<path d="M0 170 l0 -170 40 0 c47 0 47 -2 20 119 -18 83 -18 92 -4 135 9 25
20 48 24 51 22 13 -4 35 -41 35 l-39 0 0 -170z"/>
</g>
</svg>
