<?xml version="1.0" standalone="no"?>
<!DOCTYPE svg PUBLIC "-//W3C//DTD SVG 20010904//EN"
 "http://www.w3.org/TR/2001/REC-SVG-20010904/DTD/svg10.dtd">
<svg version="1.0" xmlns="http://www.w3.org/2000/svg"
 width="96.000000pt" height="84.000000pt" viewBox="0 0 96.000000 84.000000"
 preserveAspectRatio="xMidYMid meet">
<metadata>
Created by potrace 1.16, written by Peter Selinger 2001-2019
</metadata>
<g transform="translate(0.000000,84.000000) scale(0.100000,-0.100000)"
fill="#000000" stroke="none">
<path d="M0 611 l0 -230 38 5 c217 29 340 62 437 119 33 19 75 43 93 52 l32
17 41 -40 c23 -21 72 -76 111 -122 79 -93 100 -110 153 -119 50 -8 55 3 53
112 -1 50 -3 74 -5 56 -6 -47 -32 -66 -55 -42 -21 23 -38 84 -38 138 0 41 0
42 -30 33 -44 -13 -38 6 18 59 62 58 88 112 75 155 l-9 31 -457 3 -457 2 0
-229z"/>
<path d="M563 495 c-23 -16 -22 -36 4 -85 7 -14 13 -38 13 -55 -1 -52 -37
-206 -52 -221 -13 -13 -18 1 -39 105 -21 102 -23 126 -13 160 l12 40 -37 -20
c-19 -10 -41 -19 -47 -19 -28 0 -33 -26 -14 -66 l20 -40 -21 -115 c-21 -111
-35 -148 -49 -132 -4 4 -18 61 -30 125 -23 112 -23 119 -7 159 9 23 15 44 13
47 -7 6 -116 -20 -122 -30 -3 -4 3 -29 12 -55 16 -46 16 -52 -8 -171 l-25
-122 299 0 298 0 -5 22 c-17 74 -35 172 -35 191 0 12 7 35 15 51 20 38 19 56
-6 86 -14 16 -19 19 -15 7 13 -42 -49 -269 -68 -246 -2 2 -13 56 -26 119 l-23
115 20 46 21 46 -32 37 c-29 35 -32 36 -53 21z"/>
<path d="M11 331 c-11 -7 -11 -16 4 -55 17 -43 17 -51 1 -129 -9 -45 -16 -97
-16 -114 l0 -33 74 0 74 0 -25 118 c-26 117 -25 141 2 205 6 15 1 17 -46 17
-30 0 -60 -4 -68 -9z"/>
<path d="M835 243 c4 -16 7 -37 7 -47 -2 -42 -36 -181 -46 -188 -6 -4 10 -8
37 -8 26 0 47 4 47 9 0 5 -7 44 -16 86 -15 73 -15 80 2 117 15 34 16 41 3 49
-28 18 -42 11 -34 -18z"/>
<path d="M946 227 c3 -10 9 -15 12 -12 3 3 0 11 -7 18 -10 9 -11 8 -5 -6z"/>
</g>
</svg>
