<?xml version="1.0" standalone="no"?>
<!DOCTYPE svg PUBLIC "-//W3C//DTD SVG 20010904//EN"
 "http://www.w3.org/TR/2001/REC-SVG-20010904/DTD/svg10.dtd">
<svg version="1.0" xmlns="http://www.w3.org/2000/svg"
 width="96.000000pt" height="84.000000pt" viewBox="0 0 96.000000 84.000000"
 preserveAspectRatio="xMidYMid meet">
<metadata>
Created by potrace 1.16, written by Peter Selinger 2001-2019
</metadata>
<g transform="translate(0.000000,84.000000) scale(0.100000,-0.100000)"
fill="#000000" stroke="none">
<path d="M0 614 l0 -227 48 7 c114 15 215 52 333 122 l46 28 43 -45 c23 -24
71 -76 107 -116 103 -115 164 -122 222 -26 26 43 44 60 79 75 43 19 44 22 27
34 -22 16 -35 18 -35 4 0 -5 -7 -10 -15 -10 -8 0 -15 7 -15 16 0 8 -4 12 -10
9 -6 -3 -10 5 -10 18 0 22 -26 45 -37 34 -2 -2 -8 -32 -14 -65 -19 -106 -58
-107 -78 -3 -6 32 -8 66 -5 76 6 15 3 17 -14 13 -30 -8 -28 9 6 40 39 39 62
78 52 88 -17 17 -14 101 4 128 l16 26 -375 0 -375 0 0 -226z"/>
<path d="M788 828 c9 -9 15 -9 24 0 9 9 7 12 -12 12 -19 0 -21 -3 -12 -12z"/>
<path d="M388 468 c-15 -11 -15 -15 3 -61 19 -47 19 -52 2 -143 -24 -135 -36
-146 -57 -53 -26 117 -29 146 -17 179 6 17 7 30 3 28 -4 -2 -29 -12 -55 -23
-41 -18 -64 -45 -37 -45 20 0 22 -73 5 -163 -26 -136 -37 -139 -63 -15 -26
122 -26 125 -7 162 9 16 13 31 10 34 -10 10 -115 -19 -115 -32 0 -8 6 -29 14
-47 13 -30 12 -46 -8 -144 -12 -60 -26 -110 -31 -110 -5 0 -14 20 -21 45 l-12
45 -1 -62 -1 -63 349 0 348 0 -19 95 c-18 88 -18 98 -4 127 20 39 20 37 -6 47
-31 12 -39 5 -28 -24 15 -40 -27 -234 -48 -221 -5 3 -17 50 -27 104 -17 93
-17 101 -1 132 21 43 20 50 -10 85 -16 19 -23 23 -20 11 7 -22 -23 -195 -38
-214 -14 -19 -21 -3 -41 108 -17 91 -17 98 0 133 17 36 17 37 -6 66 -26 33
-36 36 -61 19z"/>
<path d="M744 234 c16 -42 16 -66 -2 -147 -13 -60 -15 -87 -7 -87 10 0 22 44
43 166 6 37 5 56 -3 68 -16 21 -39 21 -31 0z"/>
</g>
</svg>
