<?xml version="1.0" standalone="no"?>
<!DOCTYPE svg PUBLIC "-//W3C//DTD SVG 20010904//EN"
 "http://www.w3.org/TR/2001/REC-SVG-20010904/DTD/svg10.dtd">
<svg version="1.0" xmlns="http://www.w3.org/2000/svg"
 width="96.000000pt" height="84.000000pt" viewBox="0 0 96.000000 84.000000"
 preserveAspectRatio="xMidYMid meet">
<metadata>
Created by potrace 1.16, written by Peter Selinger 2001-2019
</metadata>
<g transform="translate(0.000000,84.000000) scale(0.100000,-0.100000)"
fill="#000000" stroke="none">
<path d="M0 614 c0 -210 1 -225 18 -220 9 3 37 10 62 16 25 6 83 32 129 56 46
24 89 44 96 44 8 0 56 -45 107 -100 99 -106 132 -126 192 -115 29 6 39 15 59
54 16 31 38 54 66 69 34 19 40 27 30 38 -15 18 -29 18 -29 -1 0 -8 -4 -15 -10
-15 -5 0 -10 7 -10 15 0 8 -4 15 -10 15 -5 0 -10 9 -10 19 0 11 -11 32 -25 47
-19 20 -25 23 -25 10 0 -9 4 -16 9 -16 5 0 2 -26 -6 -57 -17 -65 -30 -93 -42
-93 -14 0 -41 77 -41 114 0 19 -4 36 -10 38 -5 2 6 26 25 53 27 40 31 52 19
58 -23 13 -18 99 6 125 22 24 45 28 55 11 5 -7 15 -4 29 9 37 34 63 42 135 42
57 0 75 -4 90 -19 24 -24 45 -94 36 -121 -3 -10 -1 -21 5 -25 7 -4 10 24 10
84 l0 91 -480 0 -480 0 0 -226z"/>
<path d="M950 557 c0 -25 -25 -51 -60 -62 -36 -11 -22 -51 28 -81 l42 -25 0
95 c0 53 -2 96 -5 96 -3 0 -5 -10 -5 -23z"/>
<path d="M278 459 c-22 -12 -22 -27 -2 -68 15 -30 15 -39 -2 -128 -11 -52 -23
-96 -28 -97 -5 0 -18 39 -29 89 -14 68 -16 98 -9 122 6 18 9 33 7 33 -5 0 -95
-41 -95 -43 0 -1 6 -19 14 -40 11 -34 11 -51 -6 -130 -26 -130 -28 -130 -57 2
-18 83 -19 96 -6 127 14 33 13 34 -10 34 -56 0 -55 2 -55 -186 l0 -174 310 0
310 0 5 23 c14 61 31 207 23 207 -4 0 -8 7 -8 15 0 8 -9 15 -20 15 -19 0 -20
-4 -14 -36 10 -56 -22 -221 -40 -203 -3 3 -13 43 -22 90 -13 68 -14 90 -4 117
13 38 14 37 -19 47 -22 7 -23 5 -18 -21 8 -37 -24 -205 -37 -201 -6 2 -18 43
-28 92 -16 79 -16 91 -3 118 20 40 19 47 -10 82 -25 30 -25 30 -20 5 6 -31
-27 -190 -40 -193 -5 -1 -17 40 -28 90 -17 88 -17 95 -1 129 17 36 17 36 -12
64 -23 23 -33 27 -46 19z"/>
</g>
</svg>
