<?xml version="1.0" standalone="no"?>
<!DOCTYPE svg PUBLIC "-//W3C//DTD SVG 20010904//EN"
 "http://www.w3.org/TR/2001/REC-SVG-20010904/DTD/svg10.dtd">
<svg version="1.0" xmlns="http://www.w3.org/2000/svg"
 width="96.000000pt" height="84.000000pt" viewBox="0 0 96.000000 84.000000"
 preserveAspectRatio="xMidYMid meet">
<metadata>
Created by potrace 1.16, written by Peter Selinger 2001-2019
</metadata>
<g transform="translate(0.000000,84.000000) scale(0.100000,-0.100000)"
fill="#000000" stroke="none">
<path d="M0 619 l0 -221 25 6 c32 8 118 48 168 78 l39 23 92 -98 c97 -102 126
-119 194 -113 29 3 37 10 52 42 20 45 43 68 84 83 23 10 26 14 16 26 -17 20
-30 19 -30 -2 -1 -16 -2 -16 -15 1 -8 11 -15 28 -15 39 0 10 -9 21 -19 24 -14
4 -21 16 -24 42 -2 24 -4 17 -5 -24 -2 -67 -17 -131 -33 -141 -20 -12 -41 24
-48 83 -5 49 -3 65 17 102 18 35 20 46 10 52 -7 5 -16 9 -20 9 -14 0 6 86 25
108 24 26 43 28 55 5 9 -14 11 -14 22 6 23 43 129 66 193 42 30 -12 62 -88 53
-126 -5 -18 -2 -27 9 -31 8 -4 15 -16 15 -28 0 -21 -29 -109 -30 -91 0 6 -5 3
-10 -5 -5 -8 -15 -15 -21 -15 -7 0 -18 -14 -26 -32 -12 -31 -12 -32 29 -55 31
-17 45 -33 57 -65 16 -44 28 -50 79 -37 l22 6 0 264 0 264 -480 0 -480 0 0
-221z"/>
<path d="M199 443 c-18 -21 -17 -28 1 -65 11 -23 10 -41 -5 -117 -10 -50 -21
-91 -25 -91 -4 0 -15 41 -25 91 -14 70 -15 96 -6 115 6 14 11 26 11 28 0 2
-22 -8 -50 -21 -28 -13 -50 -25 -50 -27 0 -2 6 -16 14 -32 13 -26 13 -39 -3
-117 -25 -120 -29 -122 -49 -27 -9 39 -10 30 -11 -67 l-1 -113 269 0 269 0 10
63 c10 58 16 150 12 172 -1 6 -2 13 -1 18 0 4 -12 7 -28 7 -29 0 -30 -1 -19
-30 7 -23 6 -49 -7 -108 -10 -42 -20 -81 -23 -87 -3 -5 -14 28 -24 75 -13 66
-15 93 -6 119 8 26 7 35 -3 42 -26 16 -42 10 -35 -13 6 -24 -24 -198 -34 -198
-3 0 -14 41 -23 91 -16 82 -16 93 -2 121 14 29 13 33 -6 64 -25 40 -38 44 -31
9 4 -23 -10 -118 -24 -168 -10 -32 -21 -9 -35 70 -14 84 -14 96 3 131 10 20 8
27 -18 53 -29 28 -31 29 -45 12z"/>
<path d="M0 345 c0 -8 2 -15 4 -15 2 0 6 7 10 15 3 8 1 15 -4 15 -6 0 -10 -7
-10 -15z"/>
<path d="M885 253 c16 -38 16 -64 2 -130 -9 -37 -13 -80 -10 -95 5 -25 10 -28
44 -28 l39 0 0 54 c0 30 -5 77 -11 104 -9 36 -9 58 -1 81 l11 31 -41 0 c-34 0
-39 -3 -33 -17z"/>
</g>
</svg>
