<?xml version="1.0" standalone="no"?>
<!DOCTYPE svg PUBLIC "-//W3C//DTD SVG 20010904//EN"
 "http://www.w3.org/TR/2001/REC-SVG-20010904/DTD/svg10.dtd">
<svg version="1.0" xmlns="http://www.w3.org/2000/svg"
 width="96.000000pt" height="84.000000pt" viewBox="0 0 96.000000 84.000000"
 preserveAspectRatio="xMidYMid meet">
<metadata>
Created by potrace 1.16, written by Peter Selinger 2001-2019
</metadata>
<g transform="translate(0.000000,84.000000) scale(0.100000,-0.100000)"
fill="#000000" stroke="none">
<path d="M334 806 c-10 -26 0 -101 14 -98 14 2 16 -14 2 -23 -13 -8 -13 -42 0
-47 15 -5 16 -116 2 -130 -7 -7 -12 -22 -12 -34 0 -13 -6 -29 -13 -36 -7 -7
-13 -29 -14 -49 -1 -19 -12 -64 -26 -100 -20 -52 -25 -84 -26 -171 -2 -105 7
-137 28 -101 10 17 10 17 11 1 0 -16 13 -18 140 -18 l139 0 0 28 c0 40 12 105
22 118 12 15 3 108 -19 191 -11 40 -17 75 -14 78 3 2 -2 13 -11 22 -20 23 -29
61 -29 126 -1 58 3 71 38 138 13 26 24 50 24 53 0 13 -66 34 -91 29 -16 -3
-47 4 -74 16 -55 24 -83 27 -91 7z m43 -468 c-3 -7 -5 -2 -5 12 0 14 2 19 5
13 2 -7 2 -19 0 -25z m-6 -55 c-4 -28 -6 -32 -9 -15 -3 22 3 52 11 52 1 0 1
-17 -2 -37z"/>
</g>
</svg>
