<?xml version="1.0" standalone="no"?>
<!DOCTYPE svg PUBLIC "-//W3C//DTD SVG 20010904//EN"
 "http://www.w3.org/TR/2001/REC-SVG-20010904/DTD/svg10.dtd">
<svg version="1.0" xmlns="http://www.w3.org/2000/svg"
 width="96.000000pt" height="84.000000pt" viewBox="0 0 96.000000 84.000000"
 preserveAspectRatio="xMidYMid meet">
<metadata>
Created by potrace 1.16, written by Peter Selinger 2001-2019
</metadata>
<g transform="translate(0.000000,84.000000) scale(0.100000,-0.100000)"
fill="#000000" stroke="none">
<path d="M0 620 l0 -219 43 18 c23 10 66 31 94 47 l53 29 94 -97 c63 -66 101
-98 117 -99 102 -7 99 -7 125 44 17 32 36 53 60 64 34 17 42 42 17 51 -8 2
-13 -5 -13 -19 0 -22 0 -22 -15 -3 -8 10 -15 29 -15 42 0 13 -6 22 -15 22 -16
0 -18 9 -15 48 1 12 -3 22 -8 22 -5 0 -12 -39 -14 -86 -4 -70 -8 -89 -23 -101
-17 -12 -21 -11 -33 13 -19 37 -19 111 1 158 21 49 21 53 -3 59 -17 4 -19 11
-14 39 12 65 57 109 78 75 9 -14 14 -12 37 15 23 29 32 32 92 36 50 3 73 0 92
-12 26 -17 50 -85 41 -119 -3 -12 -1 -26 3 -31 15 -19 21 -65 10 -71 -6 -4 -8
-13 -5 -21 3 -7 1 -16 -4 -19 -6 -4 -10 0 -11 7 0 7 -4 3 -10 -10 -5 -13 -13
-21 -18 -18 -5 3 -14 -9 -20 -26 -8 -23 -8 -34 -1 -36 27 -9 70 -56 80 -86
l11 -34 67 3 c37 1 70 3 75 4 4 0 7 120 7 266 l0 265 -480 0 -480 0 0 -220z"/>
<path d="M150 435 c-10 -12 -9 -22 3 -52 13 -34 13 -47 -1 -120 -9 -46 -19
-83 -22 -83 -4 0 -15 37 -24 82 -13 63 -15 90 -7 111 10 25 0 39 -14 18 -3 -5
-19 -12 -35 -16 -39 -9 -43 -17 -25 -52 14 -27 13 -40 -5 -128 -11 -53 -20
-119 -20 -146 l0 -49 249 0 249 0 7 88 c15 172 15 172 -25 172 -27 0 -28 -2
-20 -28 8 -30 -16 -182 -30 -182 -8 0 -30 115 -30 157 0 16 6 35 12 41 10 10
10 15 -2 22 -8 5 -23 10 -34 10 -14 0 -17 -5 -12 -22 7 -29 -25 -195 -34 -176
-4 7 -13 44 -20 81 -10 55 -10 76 0 107 11 35 11 41 -9 69 -26 36 -36 40 -28
9 6 -20 -15 -143 -30 -178 -3 -8 -14 25 -24 74 -17 81 -17 91 -3 121 15 32 14
34 -11 59 -30 30 -38 32 -55 11z"/>
<path d="M937 258 c4 -13 8 -39 7 -58 -1 -50 -24 -151 -33 -145 -7 4 -37 151
-34 165 0 3 4 15 8 28 6 20 3 22 -34 22 -40 0 -40 0 -29 -26 9 -19 9 -42 0
-95 -7 -38 -12 -87 -12 -109 l0 -40 75 0 75 0 0 140 c0 120 -2 140 -16 140
-12 0 -13 -5 -7 -22z"/>
</g>
</svg>
