<?xml version="1.0" standalone="no"?>
<!DOCTYPE svg PUBLIC "-//W3C//DTD SVG 20010904//EN"
 "http://www.w3.org/TR/2001/REC-SVG-20010904/DTD/svg10.dtd">
<svg version="1.0" xmlns="http://www.w3.org/2000/svg"
 width="96.000000pt" height="84.000000pt" viewBox="0 0 96.000000 84.000000"
 preserveAspectRatio="xMidYMid meet">
<metadata>
Created by potrace 1.16, written by Peter Selinger 2001-2019
</metadata>
<g transform="translate(0.000000,84.000000) scale(0.100000,-0.100000)"
fill="#000000" stroke="none">
<path d="M0 625 c0 -130 4 -215 10 -215 14 0 60 22 113 53 l47 29 38 -33 c20
-18 64 -61 97 -96 41 -42 68 -63 85 -64 109 -5 100 -8 126 44 17 33 36 53 60
64 20 10 33 23 32 32 -4 21 -28 26 -28 5 0 -16 -1 -16 -15 2 -8 10 -15 27 -15
37 0 9 -7 17 -15 17 -16 0 -18 9 -15 48 1 12 -3 22 -8 22 -5 0 -12 -36 -14
-80 -3 -58 -10 -85 -23 -100 -18 -20 -18 -20 -31 6 -20 38 -17 123 4 166 l19
36 -25 11 c-16 8 -22 17 -18 27 3 9 6 24 6 35 0 27 45 70 64 63 9 -3 16 -14
16 -23 0 -10 8 -3 20 16 23 39 80 57 145 47 59 -8 77 -31 83 -102 2 -31 9 -63
14 -69 6 -8 7 -32 3 -60 -4 -29 -10 -42 -15 -33 -6 9 -10 7 -15 -9 -3 -12 -10
-19 -15 -16 -10 6 -15 -1 -24 -37 -5 -23 -2 -30 24 -43 20 -10 38 -32 50 -59
l18 -43 69 2 c37 1 74 3 81 4 9 1 12 61 12 266 l0 265 -480 0 -480 0 0 -215z"/>
<path d="M148 439 c-22 -12 -22 -27 -4 -65 12 -25 12 -40 -2 -111 -9 -46 -19
-83 -22 -83 -15 0 -40 160 -30 186 14 36 14 36 -27 17 -61 -28 -63 -30 -47
-62 12 -25 12 -38 -1 -100 -8 -40 -15 -106 -15 -147 l0 -74 244 0 244 0 8 83
c6 68 8 132 5 170 -1 4 -15 7 -32 7 -27 0 -30 -3 -24 -22 4 -13 8 -25 8 -28 3
-15 -27 -160 -33 -160 -5 0 -14 39 -21 86 -10 70 -10 90 0 106 14 23 2 38 -33
38 -14 0 -17 -5 -13 -21 7 -26 -23 -180 -33 -174 -4 2 -13 38 -20 79 -10 60
-10 81 0 105 15 36 8 60 -26 92 l-26 24 7 -25 c4 -14 8 -27 8 -30 3 -15 -27
-160 -33 -160 -4 0 -15 37 -24 82 -14 72 -14 84 -1 111 14 27 13 31 -8 58 -25
32 -26 32 -49 18z"/>
<path d="M927 283 c-13 -3 -16 -10 -12 -21 4 -10 10 -25 13 -35 6 -21 -18
-156 -28 -162 -4 -3 -15 31 -24 73 -12 58 -14 85 -7 105 10 26 10 27 -29 27
-22 0 -40 -2 -40 -4 0 -1 5 -17 11 -33 7 -22 7 -46 -3 -89 -7 -33 -12 -78 -10
-101 l3 -43 80 0 79 0 0 145 c0 80 -3 144 -7 144 -5 -1 -16 -3 -26 -6z"/>
</g>
</svg>
