<?xml version="1.0" standalone="no"?>
<!DOCTYPE svg PUBLIC "-//W3C//DTD SVG 20010904//EN"
 "http://www.w3.org/TR/2001/REC-SVG-20010904/DTD/svg10.dtd">
<svg version="1.0" xmlns="http://www.w3.org/2000/svg"
 width="96.000000pt" height="84.000000pt" viewBox="0 0 96.000000 84.000000"
 preserveAspectRatio="xMidYMid meet">
<metadata>
Created by potrace 1.16, written by Peter Selinger 2001-2019
</metadata>
<g transform="translate(0.000000,84.000000) scale(0.100000,-0.100000)"
fill="#000000" stroke="none">
<path d="M0 625 c0 -130 4 -215 10 -215 14 0 60 22 113 53 l47 29 43 -38 c23
-21 67 -64 97 -96 l56 -58 65 0 65 0 18 41 c16 35 52 68 91 83 6 2 2 12 -7 22
-17 18 -18 18 -18 0 0 -15 -3 -16 -15 -6 -8 7 -15 23 -15 36 0 15 -6 24 -15
24 -16 0 -19 9 -15 49 1 13 -3 21 -8 17 -5 -3 -12 -39 -14 -81 -4 -53 -10 -81
-23 -95 -18 -20 -18 -20 -31 6 -18 35 -18 116 1 160 16 39 13 54 -12 54 -12 0
-14 7 -9 31 3 17 6 35 6 39 0 4 12 20 27 34 l27 28 18 -22 c10 -12 18 -17 18
-11 0 7 11 23 25 36 21 22 33 25 100 25 74 0 76 0 95 -32 12 -20 20 -51 20
-78 0 -26 5 -51 11 -57 17 -17 2 -104 -17 -96 -9 3 -14 -1 -14 -13 0 -15 -2
-16 -9 -5 -10 16 -16 7 -25 -36 -7 -29 -4 -33 24 -48 20 -10 38 -32 49 -58
l19 -43 63 2 c35 1 72 2 82 3 16 1 17 21 17 266 l0 265 -480 0 -480 0 0 -215z"/>
<path d="M148 439 c-22 -12 -22 -27 -4 -65 13 -26 13 -38 -2 -106 -9 -42 -20
-79 -23 -82 -3 -4 -14 32 -23 79 -12 61 -14 90 -6 104 5 11 10 22 10 25 0 4
-88 -31 -98 -39 -1 -1 5 -16 13 -33 14 -28 14 -37 0 -97 -8 -36 -15 -102 -15
-146 l0 -79 244 0 244 0 7 98 c11 176 12 170 -25 164 -26 -4 -29 -7 -24 -29 7
-27 -14 -171 -26 -178 -4 -2 -13 29 -20 70 -11 67 -11 87 1 135 3 10 -5 16
-25 18 -25 3 -28 1 -23 -18 7 -26 -22 -182 -33 -175 -4 2 -13 38 -20 79 -10
60 -10 81 0 105 15 36 8 60 -26 92 l-26 24 7 -25 c4 -14 8 -27 8 -30 2 -14
-27 -152 -33 -155 -4 -3 -15 32 -24 77 -14 72 -14 84 -1 111 14 27 13 31 -8
58 -25 32 -26 32 -49 18z"/>
<path d="M928 283 c-21 -5 -21 -5 -6 -38 9 -20 9 -41 -2 -93 -18 -95 -26 -104
-38 -46 -22 104 -24 122 -13 143 11 20 9 21 -29 21 -45 0 -44 1 -30 -35 7 -17
6 -45 -3 -88 -7 -34 -11 -81 -9 -104 l4 -43 79 0 80 0 -2 145 c-1 80 -4 144
-8 144 -3 -1 -14 -3 -23 -6z"/>
</g>
</svg>
