<?xml version="1.0" standalone="no"?>
<!DOCTYPE svg PUBLIC "-//W3C//DTD SVG 20010904//EN"
 "http://www.w3.org/TR/2001/REC-SVG-20010904/DTD/svg10.dtd">
<svg version="1.0" xmlns="http://www.w3.org/2000/svg"
 width="96.000000pt" height="84.000000pt" viewBox="0 0 96.000000 84.000000"
 preserveAspectRatio="xMidYMid meet">
<metadata>
Created by potrace 1.16, written by Peter Selinger 2001-2019
</metadata>
<g transform="translate(0.000000,84.000000) scale(0.100000,-0.100000)"
fill="#000000" stroke="none">
<path d="M0 625 c0 -165 3 -215 13 -215 6 0 45 18 86 40 l73 40 42 -37 c22
-20 64 -61 92 -92 l51 -55 69 -4 69 -4 13 36 c14 37 63 86 88 86 18 0 18 14
-1 30 -12 10 -15 9 -15 -5 0 -14 -3 -15 -15 -5 -8 7 -15 20 -15 29 0 9 -9 24
-21 34 -13 12 -18 24 -14 37 4 11 2 20 -3 20 -5 0 -12 -34 -14 -75 -4 -54 -10
-81 -23 -96 l-19 -20 -14 27 c-19 37 -19 111 2 158 16 39 11 55 -18 56 -16 0
3 73 25 96 26 28 47 31 56 8 4 -12 10 -8 24 15 22 36 45 43 123 39 50 -3 62
-7 78 -29 11 -14 22 -46 25 -70 2 -24 9 -56 15 -71 6 -15 7 -36 3 -45 -5 -10
-7 -24 -6 -32 2 -9 -3 -12 -13 -8 -12 5 -16 0 -16 -16 0 -16 -3 -18 -9 -8 -10
16 -16 7 -26 -36 -6 -29 -3 -34 20 -45 15 -7 37 -32 50 -58 l23 -46 69 4 c37
2 74 5 81 7 9 3 12 65 12 265 l0 260 -480 0 -480 0 0 -215z"/>
<path d="M148 439 c-22 -12 -23 -28 -4 -63 11 -23 11 -37 -1 -94 -16 -81 -23
-105 -29 -99 -2 2 -11 39 -19 83 -11 54 -13 87 -6 106 l10 27 -37 -17 c-60
-27 -62 -29 -46 -62 13 -25 13 -37 -1 -95 -8 -36 -15 -102 -15 -146 l0 -79
244 0 243 0 6 67 c12 121 9 203 -7 203 -34 0 -45 -12 -39 -41 5 -27 -13 -153
-26 -174 -3 -5 -13 26 -22 70 -13 67 -14 85 -3 113 10 26 11 34 1 36 -7 2 -20
7 -29 10 -15 4 -18 0 -16 -27 2 -41 -23 -178 -32 -172 -4 2 -13 39 -20 81 -10
60 -11 83 -1 110 13 37 7 56 -29 89 l-21 19 7 -28 c7 -29 -14 -173 -26 -181
-4 -2 -15 32 -24 77 -14 73 -14 84 -1 112 15 29 14 31 -12 58 -22 21 -32 25
-45 17z"/>
<path d="M916 281 c-4 -5 -1 -22 4 -37 8 -21 7 -47 -6 -107 -19 -88 -26 -85
-44 19 -9 52 -10 76 -1 91 10 19 8 21 -30 25 -40 4 -59 -5 -39 -17 13 -8 13
-67 -1 -124 -5 -24 -7 -64 -3 -88 l6 -43 80 0 79 0 -2 145 c-3 130 -5 145 -20
145 -10 0 -20 -4 -23 -9z"/>
</g>
</svg>
