<?xml version="1.0" standalone="no"?>
<!DOCTYPE svg PUBLIC "-//W3C//DTD SVG 20010904//EN"
 "http://www.w3.org/TR/2001/REC-SVG-20010904/DTD/svg10.dtd">
<svg version="1.0" xmlns="http://www.w3.org/2000/svg"
 width="96.000000pt" height="84.000000pt" viewBox="0 0 96.000000 84.000000"
 preserveAspectRatio="xMidYMid meet">
<metadata>
Created by potrace 1.16, written by Peter Selinger 2001-2019
</metadata>
<g transform="translate(0.000000,84.000000) scale(0.100000,-0.100000)"
fill="#000000" stroke="none">
<path d="M0 625 c0 -165 3 -215 13 -215 6 0 45 18 85 40 l73 40 53 -46 c30
-25 63 -59 75 -75 36 -48 79 -69 141 -69 55 1 55 1 75 43 12 24 36 52 57 66
30 19 35 27 27 38 -10 11 -14 10 -25 -4 -12 -16 -14 -15 -20 16 -4 20 -14 36
-25 38 -11 3 -16 13 -14 29 1 14 -1 27 -5 29 -4 3 -9 -26 -12 -63 -2 -45 -10
-79 -23 -98 l-19 -29 -18 40 c-21 46 -18 106 7 155 9 18 15 33 13 35 -2 1 -13
7 -25 14 -18 9 -20 16 -13 38 15 50 21 60 47 74 22 12 27 11 39 -6 8 -10 14
-13 14 -6 0 6 11 23 25 36 20 21 34 25 84 25 33 0 67 -3 76 -6 24 -9 45 -58
45 -103 0 -22 4 -42 9 -45 12 -8 20 -66 9 -72 -4 -3 -8 -15 -8 -27 0 -18 -2
-19 -10 -7 -8 13 -10 12 -10 -2 0 -10 -7 -18 -15 -18 -8 0 -18 -14 -23 -32 -8
-31 -6 -34 23 -50 21 -11 38 -32 49 -58 l16 -40 69 0 c110 0 101 -25 101 271
l0 259 -480 0 -480 0 0 -215z"/>
<path d="M148 439 c-22 -12 -23 -28 -4 -63 12 -23 11 -38 -4 -107 -10 -44 -20
-83 -23 -85 -2 -2 -12 33 -21 79 -12 61 -14 92 -6 111 5 14 8 26 7 26 -6 0
-87 -41 -87 -44 0 -2 5 -17 11 -33 7 -23 6 -47 -5 -97 -9 -37 -16 -103 -16
-147 l0 -79 244 0 244 0 7 98 c3 53 5 114 4 135 -3 35 -5 37 -36 37 -31 0 -32
-1 -21 -25 8 -19 8 -42 -1 -93 -18 -101 -26 -104 -44 -15 -13 67 -14 82 -2
106 13 26 12 28 -11 37 -37 15 -44 12 -36 -11 9 -22 -17 -179 -28 -179 -4 0
-13 34 -20 76 -10 60 -11 83 -1 110 13 37 7 56 -28 88 -21 19 -21 19 -15 -11
7 -35 -20 -192 -32 -181 -2 3 -10 39 -19 82 -12 68 -13 83 0 112 13 32 13 35
-11 59 -14 14 -26 25 -27 25 -1 0 -10 -5 -19 -11z"/>
<path d="M908 284 c-3 -3 -1 -18 5 -33 11 -30 -8 -181 -23 -181 -7 0 -34 119
-34 150 0 8 4 25 8 38 7 20 4 22 -34 22 -37 0 -41 -2 -34 -17 9 -21 9 -55 -1
-175 l-8 -88 88 0 87 0 -3 145 c-4 139 -5 145 -25 145 -11 0 -23 -3 -26 -6z"/>
</g>
</svg>
