<?xml version="1.0" standalone="no"?>
<!DOCTYPE svg PUBLIC "-//W3C//DTD SVG 20010904//EN"
 "http://www.w3.org/TR/2001/REC-SVG-20010904/DTD/svg10.dtd">
<svg version="1.0" xmlns="http://www.w3.org/2000/svg"
 width="96.000000pt" height="84.000000pt" viewBox="0 0 96.000000 84.000000"
 preserveAspectRatio="xMidYMid meet">
<metadata>
Created by potrace 1.16, written by Peter Selinger 2001-2019
</metadata>
<g transform="translate(0.000000,84.000000) scale(0.100000,-0.100000)"
fill="#000000" stroke="none">
<path d="M0 625 c0 -165 3 -215 13 -215 6 0 45 18 85 40 l74 40 53 -45 c29
-26 65 -62 80 -80 35 -47 60 -59 126 -60 l55 -2 25 46 c16 31 36 52 62 65 30
14 36 21 26 32 -15 19 -27 18 -31 -3 -3 -12 -9 -6 -18 20 -8 20 -20 37 -27 37
-8 0 -13 12 -13 32 0 54 -11 23 -14 -38 -5 -104 -42 -150 -65 -83 -16 48 -13
95 9 142 11 23 17 43 12 45 -5 1 -17 8 -26 15 -15 11 -15 17 -4 52 15 45 62
80 77 57 6 -10 15 -6 39 17 27 28 37 31 91 31 78 0 110 -24 117 -90 3 -25 10
-57 16 -72 12 -32 2 -102 -13 -92 -6 3 -13 -4 -16 -16 -4 -15 -8 -18 -13 -9
-5 8 -12 -2 -19 -27 -7 -24 -7 -40 -1 -42 25 -9 60 -46 71 -76 l12 -34 71 0
c114 0 106 -21 106 273 l0 255 -480 0 -480 0 0 -215z"/>
<path d="M140 435 c-10 -12 -9 -22 2 -52 14 -32 13 -45 -3 -115 -9 -44 -19
-82 -22 -84 -2 -2 -12 33 -21 79 -12 61 -14 92 -6 111 5 14 8 26 5 26 -4 0
-74 -31 -83 -37 -2 -1 1 -17 7 -36 10 -28 9 -49 -4 -102 -8 -36 -15 -102 -15
-146 l0 -79 245 0 245 0 2 63 c1 34 3 95 3 135 l2 72 -33 0 c-31 0 -32 -1 -22
-27 8 -21 6 -47 -7 -106 -9 -43 -18 -77 -20 -75 -2 2 -10 38 -19 80 -11 57
-13 85 -5 105 10 28 0 43 -32 43 -12 0 -14 -7 -11 -31 4 -28 -14 -142 -27
-164 -7 -13 -30 98 -31 147 0 20 4 40 10 43 17 11 11 34 -17 65 l-28 31 -2
-63 c0 -35 -7 -83 -15 -108 l-14 -45 -17 87 c-17 80 -17 90 -2 118 15 30 15
32 -7 55 -27 29 -41 31 -58 10z"/>
<path d="M922 293 c-20 -4 -23 -9 -16 -26 10 -32 9 -74 -6 -141 -14 -70 -22
-62 -40 40 -10 54 -10 76 -1 92 11 21 10 22 -29 22 -44 0 -44 1 -31 -33 6 -15
5 -45 -3 -85 -7 -33 -11 -83 -8 -111 l5 -51 85 0 85 0 -8 112 c-3 62 -7 130
-7 151 0 20 -1 36 -1 36 -1 -1 -13 -4 -25 -6z"/>
</g>
</svg>
