<?xml version="1.0" standalone="no"?>
<!DOCTYPE svg PUBLIC "-//W3C//DTD SVG 20010904//EN"
 "http://www.w3.org/TR/2001/REC-SVG-20010904/DTD/svg10.dtd">
<svg version="1.0" xmlns="http://www.w3.org/2000/svg"
 width="96.000000pt" height="84.000000pt" viewBox="0 0 96.000000 84.000000"
 preserveAspectRatio="xMidYMid meet">
<metadata>
Created by potrace 1.16, written by Peter Selinger 2001-2019
</metadata>
<g transform="translate(0.000000,84.000000) scale(0.100000,-0.100000)"
fill="#000000" stroke="none">
<path d="M0 625 c0 -118 3 -215 7 -215 4 0 44 18 90 41 l82 41 46 -38 c25 -21
59 -55 76 -76 44 -55 72 -70 133 -72 l54 -2 21 44 c13 25 35 51 56 64 30 17
34 23 23 36 -12 14 -13 13 -16 -1 -4 -21 -22 -22 -22 -2 0 8 -4 15 -10 15 -5
0 -10 7 -10 15 0 9 -7 18 -15 21 -9 4 -15 19 -15 42 0 19 -3 33 -6 29 -4 -3
-7 -42 -8 -85 -1 -73 -13 -112 -36 -112 -14 0 -30 52 -30 95 0 27 -5 45 -12
45 -7 0 -6 6 4 18 24 28 41 76 29 80 -6 2 -19 11 -30 20 -17 15 -18 20 -5 49
18 42 60 70 83 56 13 -8 23 -5 46 14 25 22 36 25 88 21 50 -4 64 -9 84 -32 15
-17 23 -40 23 -63 0 -20 6 -41 15 -47 13 -9 14 -20 4 -68 -6 -32 -16 -55 -20
-52 -5 3 -9 0 -9 -6 0 -6 -5 -8 -10 -5 -9 6 -30 -33 -30 -55 0 -4 16 -18 36
-29 23 -14 41 -35 51 -60 l15 -38 71 5 c116 8 107 -15 107 272 l0 250 -480 0
-480 0 0 -215z"/>
<path d="M151 441 c-12 -8 -13 -16 -2 -51 11 -36 10 -53 -5 -114 -9 -39 -20
-75 -24 -79 -13 -15 -33 149 -22 182 l10 29 -39 -17 c-52 -24 -53 -25 -41 -60
8 -23 6 -46 -9 -103 -10 -41 -19 -107 -19 -150 l0 -78 238 0 238 0 12 87 c7
49 12 111 11 139 -2 49 -3 50 -30 46 -25 -4 -28 -8 -23 -29 6 -24 -12 -134
-27 -163 -15 -30 -33 146 -19 190 4 11 -3 16 -24 18 -25 3 -28 1 -23 -18 6
-23 -24 -170 -34 -170 -4 0 -12 35 -19 79 -10 67 -10 82 3 108 15 29 15 31
-14 64 -29 32 -30 33 -25 9 5 -23 -25 -165 -37 -176 -5 -5 -27 110 -27 141 0
10 5 33 11 50 11 28 9 35 -10 54 -23 23 -29 25 -50 12z"/>
<path d="M903 294 c-9 -4 -8 -12 1 -35 10 -25 10 -42 -2 -97 -8 -37 -18 -71
-22 -75 -10 -11 -34 136 -26 166 5 22 2 25 -29 29 -36 4 -40 -1 -26 -37 5 -11
2 -44 -5 -75 -7 -30 -13 -81 -14 -112 l0 -58 91 0 92 0 -8 108 c-4 59 -8 126
-8 150 -1 42 -11 49 -44 36z"/>
</g>
</svg>
