<?xml version="1.0" standalone="no"?>
<!DOCTYPE svg PUBLIC "-//W3C//DTD SVG 20010904//EN"
 "http://www.w3.org/TR/2001/REC-SVG-20010904/DTD/svg10.dtd">
<svg version="1.0" xmlns="http://www.w3.org/2000/svg"
 width="96.000000pt" height="84.000000pt" viewBox="0 0 96.000000 84.000000"
 preserveAspectRatio="xMidYMid meet">
<metadata>
Created by potrace 1.16, written by Peter Selinger 2001-2019
</metadata>
<g transform="translate(0.000000,84.000000) scale(0.100000,-0.100000)"
fill="#000000" stroke="none">
<path d="M0 629 l0 -211 28 7 c15 3 60 23 101 43 l74 37 88 -94 c87 -94 88
-94 142 -99 54 -4 56 -4 72 29 22 43 55 79 72 79 7 0 13 4 13 10 0 12 -32 28
-47 23 -6 -2 -14 5 -18 16 -12 38 -32 32 -44 -13 -6 -24 -17 -49 -25 -55 -24
-20 -50 40 -42 94 7 41 6 42 -19 38 -36 -8 -31 11 15 47 35 28 54 70 32 70 -5
0 -16 6 -27 13 -17 13 -17 15 0 44 21 35 70 67 91 59 8 -3 27 -1 42 5 71 27
172 -25 172 -90 0 -28 8 -38 58 -67 6 -3 -11 -34 -20 -34 -17 0 -38 -28 -38
-50 0 -12 -11 -31 -24 -41 -30 -24 -25 -49 15 -72 18 -10 38 -34 47 -57 l17
-40 75 6 c120 10 110 -13 110 269 l0 245 -480 0 -480 0 0 -211z"/>
<path d="M164 446 c-3 -8 -1 -30 4 -49 8 -29 5 -51 -16 -118 -14 -46 -27 -79
-29 -73 -1 5 -7 43 -11 84 -7 58 -6 81 5 103 12 24 2 40 -12 18 -3 -5 -19 -12
-35 -16 -33 -7 -35 -12 -20 -49 7 -20 3 -46 -20 -117 -22 -65 -30 -110 -30
-160 l0 -69 238 0 238 0 13 108 c7 59 14 112 16 119 2 7 0 15 -5 18 -5 3 -7
12 -4 19 4 10 -2 12 -19 9 -19 -4 -23 -9 -19 -33 2 -16 -6 -62 -19 -102 l-23
-73 -7 45 c-11 67 -10 129 2 152 12 23 12 23 -24 32 -27 6 -28 5 -23 -21 4
-17 -4 -58 -18 -103 -21 -68 -24 -72 -29 -45 -16 83 -17 141 -2 168 16 32 11
50 -25 82 l-23 20 8 -24 c9 -28 -34 -190 -45 -169 -4 7 -10 45 -14 83 -5 53
-3 77 9 99 15 27 14 31 -7 53 -24 26 -46 30 -54 9z"/>
<path d="M903 304 c-9 -4 -8 -13 1 -36 11 -26 11 -41 -5 -100 -9 -38 -20 -72
-23 -75 -8 -8 -20 68 -20 134 l-1 63 -32 0 c-37 0 -37 1 -23 -35 7 -19 5 -43
-8 -93 -11 -39 -17 -87 -14 -114 l4 -48 90 0 91 0 -8 107 c-4 60 -8 129 -9
156 -1 47 -9 54 -43 41z"/>
</g>
</svg>
