<?xml version="1.0" standalone="no"?>
<!DOCTYPE svg PUBLIC "-//W3C//DTD SVG 20010904//EN"
 "http://www.w3.org/TR/2001/REC-SVG-20010904/DTD/svg10.dtd">
<svg version="1.0" xmlns="http://www.w3.org/2000/svg"
 width="96.000000pt" height="84.000000pt" viewBox="0 0 96.000000 84.000000"
 preserveAspectRatio="xMidYMid meet">
<metadata>
Created by potrace 1.16, written by Peter Selinger 2001-2019
</metadata>
<g transform="translate(0.000000,84.000000) scale(0.100000,-0.100000)"
fill="#000000" stroke="none">
<path d="M0 636 l0 -204 42 9 c24 6 75 25 115 44 l72 33 81 -94 c45 -53 93
-99 107 -105 50 -19 70 -11 95 33 13 24 38 52 55 63 18 11 32 24 33 29 0 5 -3
6 -7 3 -3 -4 -15 1 -26 10 -10 10 -22 16 -26 13 -3 -3 -7 8 -9 24 -4 28 -4 28
-35 -20 -18 -27 -37 -47 -42 -44 -6 3 -10 31 -9 63 1 50 -1 57 -16 52 -14 -5
-17 1 -17 35 0 33 5 44 27 60 16 11 30 33 34 51 3 17 21 46 40 65 29 29 41 34
80 34 85 0 146 -51 146 -121 0 -30 6 -42 25 -55 28 -18 33 -34 10 -34 -13 0
-17 -6 -14 -26 0 -3 -9 -14 -21 -24 -12 -10 -22 -22 -22 -27 -3 -20 -25 -31
-42 -21 -14 8 -17 7 -12 -3 3 -8 8 -21 12 -29 3 -8 18 -23 34 -32 16 -9 36
-33 44 -53 l16 -36 77 6 c125 9 113 -20 113 261 l0 244 -480 0 -480 0 0 -204z"/>
<path d="M198 469 c-17 -9 -17 -14 -4 -61 6 -20 0 -49 -19 -103 -15 -41 -32
-75 -36 -75 -16 0 -10 163 6 187 l16 22 -38 -15 c-54 -23 -52 -21 -43 -54 7
-24 2 -46 -23 -106 l-32 -77 -7 39 c-11 62 -8 117 7 144 19 34 18 39 -5 33
-19 -5 -20 -14 -20 -204 l0 -199 233 0 234 0 17 97 c26 147 26 153 16 153 -5
0 -7 7 -4 15 4 10 0 15 -13 15 -16 0 -18 -6 -15 -34 2 -20 -6 -64 -19 -103
l-23 -68 -8 45 c-8 40 -6 99 3 155 3 14 -2 21 -18 23 -19 3 -23 -1 -23 -24 0
-15 -10 -59 -22 -96 -26 -81 -36 -71 -37 37 -1 49 4 77 15 93 15 21 14 25 -11
57 -30 41 -38 44 -30 12 4 -13 -6 -55 -23 -101 l-29 -79 -6 48 c-11 77 -8 129
8 153 12 16 13 27 6 40 -16 31 -35 41 -53 31z"/>
<path d="M906 311 c-4 -5 -2 -20 3 -34 7 -18 4 -46 -12 -102 -23 -85 -30 -82
-42 22 -4 39 -3 68 4 82 11 20 9 21 -28 21 l-39 0 10 -33 c8 -26 6 -48 -11
-104 -12 -38 -21 -91 -21 -117 l0 -46 96 0 97 0 -8 113 c-4 61 -8 133 -9 160
-1 37 -4 47 -18 47 -9 0 -19 -4 -22 -9z"/>
</g>
</svg>
