<?xml version="1.0" standalone="no"?>
<!DOCTYPE svg PUBLIC "-//W3C//DTD SVG 20010904//EN"
 "http://www.w3.org/TR/2001/REC-SVG-20010904/DTD/svg10.dtd">
<svg version="1.0" xmlns="http://www.w3.org/2000/svg"
 width="96.000000pt" height="84.000000pt" viewBox="0 0 96.000000 84.000000"
 preserveAspectRatio="xMidYMid meet">
<metadata>
Created by potrace 1.16, written by Peter Selinger 2001-2019
</metadata>
<g transform="translate(0.000000,84.000000) scale(0.100000,-0.100000)"
fill="#000000" stroke="none">
<path d="M0 644 l0 -197 51 6 c28 4 82 21 120 38 82 38 76 41 170 -83 50 -65
66 -79 101 -89 46 -12 45 -12 80 51 10 17 31 38 47 48 17 9 32 24 34 34 4 14
2 15 -17 5 -11 -7 -29 -19 -39 -27 -17 -13 -20 -13 -33 5 -9 12 -12 31 -8 51
7 39 -22 74 -61 74 -31 0 -32 16 -4 47 18 18 20 25 10 37 -10 11 -8 17 6 28
10 7 27 30 37 51 67 131 256 84 256 -64 0 -33 6 -51 20 -64 24 -21 26 -37 5
-29 -10 4 -15 0 -15 -12 0 -25 -56 -88 -65 -74 -10 16 -25 1 -22 -21 2 -11 17
-28 34 -39 18 -11 36 -33 43 -54 l11 -35 67 5 c37 3 82 10 100 16 l32 10 0
239 0 239 -480 0 -480 0 0 -196z"/>
<path d="M216 477 c-16 -12 -17 -18 -7 -50 11 -33 9 -45 -16 -112 -32 -86 -41
-80 -42 25 -1 43 4 73 14 87 l15 21 -40 -15 c-38 -15 -40 -19 -34 -46 6 -29
-42 -177 -58 -177 -15 0 -9 150 7 180 15 28 14 30 -4 30 -52 0 -51 2 -51 -216
l0 -204 232 2 232 3 8 35 c20 85 35 205 26 208 -5 2 -4 10 3 18 9 11 8 14 -8
14 -16 0 -18 -6 -15 -34 2 -20 -6 -63 -19 -103 l-24 -68 -9 74 c-7 54 -6 83 3
108 14 39 15 38 -17 47 -20 7 -22 4 -20 -21 1 -15 -9 -59 -22 -98 l-24 -70 -7
45 c-12 75 -10 120 7 150 16 26 16 29 -10 66 l-26 39 0 -35 c0 -39 -39 -160
-52 -160 -15 0 -9 164 7 188 15 20 14 24 -6 52 -13 16 -23 30 -24 30 -1 0 -9
-6 -19 -13z"/>
<path d="M911 321 c-10 -7 -11 -16 -4 -37 7 -22 5 -47 -10 -102 -11 -40 -21
-71 -23 -69 -2 1 -8 36 -15 76 -8 53 -8 80 0 97 10 23 9 24 -23 24 -41 0 -47
-6 -34 -35 8 -18 6 -41 -7 -94 -9 -39 -21 -71 -26 -71 -5 0 -9 -25 -9 -55 l0
-55 101 0 102 0 -8 118 c-4 64 -8 138 -9 165 -1 47 -8 55 -35 38z"/>
</g>
</svg>
