<?xml version="1.0" standalone="no"?>
<!DOCTYPE svg PUBLIC "-//W3C//DTD SVG 20010904//EN"
 "http://www.w3.org/TR/2001/REC-SVG-20010904/DTD/svg10.dtd">
<svg version="1.0" xmlns="http://www.w3.org/2000/svg"
 width="96.000000pt" height="84.000000pt" viewBox="0 0 96.000000 84.000000"
 preserveAspectRatio="xMidYMid meet">
<metadata>
Created by potrace 1.16, written by Peter Selinger 2001-2019
</metadata>
<g transform="translate(0.000000,84.000000) scale(0.100000,-0.100000)"
fill="#000000" stroke="none">
<path d="M0 644 l0 -197 51 6 c28 4 82 21 120 38 l70 32 30 -29 c17 -16 51
-57 76 -91 25 -34 58 -66 72 -72 67 -25 69 -25 95 26 13 27 36 55 50 62 28 16
34 31 12 31 -8 0 -17 7 -20 16 -3 8 -10 12 -16 9 -6 -3 -7 1 -4 9 3 9 2 16 -4
16 -6 0 -8 9 -5 20 4 15 0 20 -16 20 -12 0 -24 7 -27 15 -4 9 -14 13 -23 11
-9 -3 -23 -1 -31 4 -12 8 -10 14 12 37 20 21 26 35 21 52 -4 15 -1 28 8 35 8
6 20 24 28 39 33 62 125 86 188 47 43 -26 64 -70 62 -125 -2 -34 2 -50 19 -68
25 -27 28 -39 8 -35 -8 2 -15 -1 -15 -5 0 -5 -8 -16 -19 -25 -10 -9 -17 -23
-15 -30 3 -7 -1 -10 -11 -6 -9 3 -16 1 -16 -5 0 -6 -7 -8 -15 -5 -30 12 -17
-35 14 -51 18 -9 35 -29 43 -51 l13 -36 80 7 c132 11 125 -4 125 265 l0 230
-480 0 -480 0 0 -196z"/>
<path d="M216 477 c-17 -12 -17 -17 -5 -50 11 -31 10 -47 -5 -113 -21 -89 -32
-84 -41 22 -5 47 -3 79 4 93 12 22 12 22 -25 6 -49 -20 -48 -19 -37 -52 7 -20
4 -47 -9 -97 -10 -38 -20 -71 -22 -74 -16 -16 -27 160 -12 191 6 13 4 17 -12
17 -50 0 -49 2 -51 -216 l-2 -204 230 0 231 0 6 28 c3 15 8 34 11 42 9 28 29
175 25 193 -2 9 -8 17 -14 17 -6 0 -8 -10 -4 -22 6 -24 -22 -178 -33 -178 -4
0 -12 35 -18 78 -9 62 -9 82 2 105 12 24 12 28 -5 37 -30 16 -42 12 -35 -10 8
-24 -25 -174 -36 -163 -4 5 -11 40 -17 78 -8 57 -7 76 5 102 14 30 13 35 -7
68 -24 39 -35 45 -25 15 7 -22 -24 -170 -35 -170 -4 0 -12 35 -18 78 -9 63 -8
82 3 106 13 26 13 31 -6 57 -24 34 -20 33 -43 16z"/>
<path d="M913 330 c-20 -8 -22 -13 -12 -37 8 -20 7 -44 -2 -88 -18 -92 -25
-95 -39 -19 -15 79 -15 82 -7 109 6 19 4 21 -28 17 -39 -5 -39 -5 -24 -34 8
-15 6 -39 -7 -96 l-17 -77 -12 45 c-12 43 -12 41 -11 -52 l1 -98 103 0 102 0
0 79 c0 44 -7 111 -15 149 -7 38 -11 78 -8 90 3 12 4 22 2 21 -2 0 -14 -4 -26
-9z"/>
</g>
</svg>
