<?xml version="1.0" standalone="no"?>
<!DOCTYPE svg PUBLIC "-//W3C//DTD SVG 20010904//EN"
 "http://www.w3.org/TR/2001/REC-SVG-20010904/DTD/svg10.dtd">
<svg version="1.0" xmlns="http://www.w3.org/2000/svg"
 width="96.000000pt" height="84.000000pt" viewBox="0 0 96.000000 84.000000"
 preserveAspectRatio="xMidYMid meet">
<metadata>
Created by potrace 1.16, written by Peter Selinger 2001-2019
</metadata>
<g transform="translate(0.000000,84.000000) scale(0.100000,-0.100000)"
fill="#000000" stroke="none">
<path d="M0 640 l0 -200 28 6 c58 12 128 36 160 55 18 10 39 19 45 19 12 0 74
-67 135 -147 22 -28 44 -45 70 -53 51 -14 49 -14 62 25 6 19 29 50 51 68 41
36 47 47 26 47 -21 0 -59 41 -53 56 4 9 -3 18 -18 24 -13 4 -26 15 -29 23 -4
10 -13 13 -25 10 -32 -8 -36 16 -8 46 18 18 24 33 20 48 -7 27 44 96 87 118
32 17 86 19 122 6 43 -16 72 -69 70 -126 -1 -35 5 -57 18 -76 23 -33 24 -40 4
-33 -9 4 -15 0 -15 -10 0 -9 -5 -16 -11 -16 -5 0 -7 -4 -4 -10 3 -5 1 -10 -4
-10 -6 0 -11 -7 -11 -16 0 -8 -4 -12 -10 -9 -5 3 -12 -6 -16 -21 -5 -19 -2
-31 9 -39 9 -7 24 -29 32 -49 l16 -37 77 7 c49 4 86 12 102 24 l25 17 3 227 2
226 -480 0 -480 0 0 -200z"/>
<path d="M210 476 c-10 -13 -10 -22 0 -46 13 -32 5 -180 -9 -180 -7 0 -47 126
-44 140 0 3 3 17 7 32 l6 28 -37 -17 c-21 -10 -39 -18 -41 -19 -2 -1 2 -12 8
-24 13 -25 4 -179 -9 -164 -5 5 -18 36 -30 70 -17 47 -20 66 -12 87 12 30 4
39 -27 30 -22 -5 -22 -8 -22 -209 l0 -204 230 0 230 0 6 28 c3 15 10 40 15 56
5 16 8 45 8 65 -1 31 -3 29 -11 -18 -12 -64 -20 -56 -39 37 -10 48 -10 70 -2
93 11 28 10 31 -13 40 -14 5 -26 9 -27 9 -1 0 -2 -26 -2 -58 0 -31 -4 -75 -9
-97 -10 -49 -19 -35 -36 57 -11 52 -11 73 -2 93 10 21 9 32 -3 55 -23 45 -30
42 -31 -14 -1 -56 -13 -131 -20 -123 -2 2 -13 34 -23 71 -15 53 -17 75 -8 107
9 37 8 43 -15 65 -22 22 -26 23 -38 10z"/>
<path d="M897 333 c-13 -3 -16 -9 -10 -21 11 -22 7 -146 -5 -167 -12 -23 -45
107 -37 146 6 24 3 29 -13 29 -41 0 -52 -10 -40 -35 12 -26 2 -151 -12 -160
-4 -3 -11 12 -15 33 -3 20 -11 44 -16 52 -8 11 -9 6 -5 -19 3 -18 6 -69 6
-112 l0 -79 105 0 105 0 0 81 c0 45 -7 109 -16 143 -9 33 -16 73 -15 89 1 15
-2 26 -6 26 -5 -1 -16 -3 -26 -6z"/>
<path d="M740 299 c0 -5 5 -7 10 -4 6 3 10 8 10 11 0 2 -4 4 -10 4 -5 0 -10
-5 -10 -11z"/>
<path d="M487 238 c8 -59 15 -62 12 -5 -2 26 -6 47 -10 47 -4 0 -5 -19 -2 -42z"/>
</g>
</svg>
