<?xml version="1.0" standalone="no"?>
<!DOCTYPE svg PUBLIC "-//W3C//DTD SVG 20010904//EN"
 "http://www.w3.org/TR/2001/REC-SVG-20010904/DTD/svg10.dtd">
<svg version="1.0" xmlns="http://www.w3.org/2000/svg"
 width="96.000000pt" height="84.000000pt" viewBox="0 0 96.000000 84.000000"
 preserveAspectRatio="xMidYMid meet">
<metadata>
Created by potrace 1.16, written by Peter Selinger 2001-2019
</metadata>
<g transform="translate(0.000000,84.000000) scale(0.100000,-0.100000)"
fill="#000000" stroke="none">
<path d="M0 640 c0 -110 3 -200 8 -200 24 1 115 31 161 54 29 15 59 25 66 22
7 -2 45 -44 85 -91 67 -80 123 -122 151 -113 5 2 19 23 31 48 13 25 37 54 55
65 35 22 42 35 18 35 -21 0 -65 48 -59 65 3 7 -5 15 -20 19 -14 3 -26 13 -26
21 0 11 -7 14 -24 9 -37 -9 -42 14 -10 47 21 22 28 38 26 59 -2 17 1 30 7 30
5 0 13 9 16 20 4 11 23 31 43 45 95 65 221 -4 209 -113 -4 -35 0 -49 19 -71
24 -29 23 -44 -2 -34 -8 3 -14 -1 -14 -10 0 -21 -57 -80 -70 -72 -22 14 -8
-17 20 -41 16 -15 34 -42 40 -60 7 -19 17 -34 23 -34 85 4 161 20 183 41 24
22 24 23 24 241 l0 218 -480 0 -480 0 0 -200z"/>
<path d="M200 470 c-13 -8 -13 -13 3 -41 12 -21 17 -53 17 -105 0 -41 -3 -74
-7 -74 -17 0 -64 137 -57 163 7 32 7 32 -41 12 -36 -16 -36 -16 -20 -41 12
-18 15 -43 13 -97 l-3 -72 -33 59 c-20 38 -32 73 -32 98 0 31 -3 38 -20 38
-19 0 -20 -7 -20 -205 l0 -205 233 2 232 3 3 32 c2 18 -6 64 -18 103 -12 39
-20 89 -18 112 2 33 -1 42 -18 48 -19 8 -20 5 -16 -49 2 -31 -1 -74 -5 -96
l-9 -40 -23 69 c-18 51 -22 80 -17 116 5 37 3 52 -11 69 -18 22 -18 22 -15
-21 1 -24 -1 -63 -5 -88 l-9 -45 -27 74 c-24 64 -26 78 -16 108 10 31 9 37
-12 59 -25 27 -28 28 -49 14z"/>
<path d="M884 334 c-9 -4 -8 -12 2 -33 11 -21 11 -41 3 -91 -6 -36 -12 -66
-13 -68 -2 -2 -13 27 -24 64 -14 47 -18 74 -11 90 8 22 6 24 -27 24 -32 0 -35
-2 -27 -22 9 -25 5 -146 -4 -162 -4 -5 -14 12 -24 40 l-17 49 1 -112 2 -113
108 0 107 0 0 83 c0 59 -6 102 -21 143 -11 32 -18 71 -16 87 4 27 -9 33 -39
21z"/>
<path d="M482 260 c7 -10 14 -18 15 -16 6 6 -9 36 -18 36 -5 0 -4 -9 3 -20z"/>
</g>
</svg>
