<?xml version="1.0" standalone="no"?>
<!DOCTYPE svg PUBLIC "-//W3C//DTD SVG 20010904//EN"
 "http://www.w3.org/TR/2001/REC-SVG-20010904/DTD/svg10.dtd">
<svg version="1.0" xmlns="http://www.w3.org/2000/svg"
 width="96.000000pt" height="84.000000pt" viewBox="0 0 96.000000 84.000000"
 preserveAspectRatio="xMidYMid meet">
<metadata>
Created by potrace 1.16, written by Peter Selinger 2001-2019
</metadata>
<g transform="translate(0.000000,84.000000) scale(0.100000,-0.100000)"
fill="#000000" stroke="none">
<path d="M0 639 l0 -201 37 6 c21 4 71 23 112 42 l74 35 35 -33 c18 -18 56
-61 83 -95 45 -55 86 -83 124 -83 7 0 20 21 30 46 12 32 28 52 52 67 l35 20
-23 18 c-13 10 -27 15 -31 13 -4 -3 -5 1 -2 9 3 8 1 18 -5 21 -6 4 -8 13 -4
21 3 10 -1 15 -16 15 -11 0 -25 9 -31 20 -8 14 -17 19 -30 15 -30 -10 -34 15
-6 44 18 18 26 38 26 61 0 27 9 42 46 77 40 38 50 43 92 43 26 0 58 -6 72 -13
36 -18 70 -90 63 -133 -4 -27 -1 -42 16 -64 26 -36 26 -40 -1 -32 -16 4 -20 2
-16 -10 4 -8 -2 -21 -12 -28 -11 -8 -17 -17 -14 -22 3 -4 -2 -8 -10 -8 -9 0
-16 -5 -16 -11 0 -8 -5 -8 -15 1 -13 10 -15 9 -15 -9 0 -15 9 -25 29 -32 22
-8 33 -21 44 -52 15 -46 7 -44 125 -35 32 3 64 13 80 25 l27 20 3 222 2 221
-480 0 -480 0 0 -201z"/>
<path d="M190 466 c-9 -12 -7 -21 10 -43 18 -25 20 -41 18 -109 l-3 -79 -33
70 c-23 48 -33 79 -30 102 2 18 3 33 2 33 -4 0 -79 -33 -83 -36 -2 -2 3 -12
11 -21 16 -18 33 -163 20 -163 -4 0 -22 26 -40 57 -24 41 -32 66 -30 92 2 27
-1 36 -12 36 -13 0 -15 -31 -18 -202 l-2 -203 234 0 235 0 3 33 c2 17 -7 64
-20 102 -14 43 -22 87 -20 115 3 39 0 45 -17 48 -19 3 -20 -2 -17 -78 5 -117
-5 -130 -35 -45 -18 53 -23 82 -19 120 5 39 2 55 -11 73 -18 21 -18 20 -15
-63 2 -47 -1 -85 -6 -85 -5 0 -22 32 -37 70 -24 59 -27 75 -18 103 9 29 7 37
-13 60 -26 31 -37 33 -54 13z"/>
<path d="M875 330 c-3 -5 -1 -19 5 -30 12 -23 4 -150 -10 -150 -12 0 -42 127
-35 149 6 19 2 21 -29 21 -35 0 -47 -12 -26 -25 11 -7 12 -93 1 -140 l-7 -30
-14 45 c-7 25 -18 50 -23 55 -7 7 -8 4 -3 -8 3 -10 6 -63 6 -118 l0 -99 110 0
110 0 0 78 c0 57 -7 98 -24 150 -14 39 -22 80 -19 91 4 16 1 21 -15 21 -12 0
-24 -4 -27 -10z"/>
<path d="M485 250 c3 -5 8 -10 11 -10 2 0 4 5 4 10 0 6 -5 10 -11 10 -5 0 -7
-4 -4 -10z"/>
</g>
</svg>
