<?xml version="1.0" standalone="no"?>
<!DOCTYPE svg PUBLIC "-//W3C//DTD SVG 20010904//EN"
 "http://www.w3.org/TR/2001/REC-SVG-20010904/DTD/svg10.dtd">
<svg version="1.0" xmlns="http://www.w3.org/2000/svg"
 width="96.000000pt" height="84.000000pt" viewBox="0 0 96.000000 84.000000"
 preserveAspectRatio="xMidYMid meet">
<metadata>
Created by potrace 1.16, written by Peter Selinger 2001-2019
</metadata>
<g transform="translate(0.000000,84.000000) scale(0.100000,-0.100000)"
fill="#000000" stroke="none">
<path d="M0 639 l0 -201 37 6 c21 4 71 23 112 42 87 40 74 46 177 -78 59 -69
99 -98 139 -98 6 0 17 18 24 39 6 22 25 51 41 65 35 29 37 40 12 58 -11 7 -23
27 -29 43 -5 17 -15 30 -22 30 -7 0 -19 8 -26 19 -8 10 -21 16 -29 13 -32 -12
-35 17 -5 47 19 19 29 40 29 59 0 53 69 117 126 117 61 0 89 -12 117 -48 25
-32 28 -44 24 -85 -3 -40 0 -54 19 -76 24 -28 23 -44 -1 -35 -7 3 -15 -5 -19
-21 -4 -14 -11 -23 -16 -20 -6 3 -10 -1 -10 -10 0 -9 -4 -13 -10 -10 -5 3 -10
0 -10 -8 0 -10 -7 -13 -20 -10 -29 8 -15 -26 17 -38 14 -5 31 -26 43 -54 17
-39 23 -45 42 -40 13 3 49 7 81 8 47 3 63 9 87 32 l30 29 0 213 0 213 -480 0
-480 0 0 -201z"/>
<path d="M192 468 c-16 -16 -15 -28 3 -48 12 -14 15 -37 13 -106 l-3 -89 -32
76 c-27 63 -31 82 -23 109 7 23 6 30 -3 26 -7 -2 -29 -10 -49 -17 l-37 -12 20
-28 c17 -24 19 -41 17 -106 l-3 -78 -37 71 c-31 61 -36 77 -28 103 9 31 -1 48
-20 36 -6 -4 -10 -83 -10 -206 l0 -199 235 0 235 0 0 38 c0 21 -11 72 -25 113
-20 59 -23 79 -15 102 11 34 8 43 -19 50 -18 4 -19 1 -15 -42 3 -25 2 -71 -3
-101 l-9 -55 -28 77 c-25 68 -27 80 -16 112 10 32 9 40 -9 69 -19 31 -20 31
-19 7 4 -66 -3 -163 -11 -155 -5 6 -19 38 -31 72 -17 47 -21 74 -16 104 6 35
3 46 -15 65 -26 27 -30 29 -47 12z"/>
<path d="M873 333 c-10 -3 -9 -10 2 -26 12 -19 12 -34 3 -90 -6 -37 -14 -67
-17 -67 -4 0 -14 30 -24 66 -12 47 -14 71 -7 85 10 17 7 19 -26 19 -31 0 -35
-3 -28 -17 10 -21 10 -86 -1 -139 l-8 -39 -18 50 c-16 40 -18 44 -14 16 3 -18
5 -69 5 -112 l0 -79 110 0 110 0 -1 103 c0 56 -4 93 -8 83 -5 -14 -12 -2 -25
48 -10 36 -16 75 -13 86 5 20 -11 25 -40 13z"/>
</g>
</svg>
