<?xml version="1.0" standalone="no"?>
<!DOCTYPE svg PUBLIC "-//W3C//DTD SVG 20010904//EN"
 "http://www.w3.org/TR/2001/REC-SVG-20010904/DTD/svg10.dtd">
<svg version="1.0" xmlns="http://www.w3.org/2000/svg"
 width="96.000000pt" height="84.000000pt" viewBox="0 0 96.000000 84.000000"
 preserveAspectRatio="xMidYMid meet">
<metadata>
Created by potrace 1.16, written by Peter Selinger 2001-2019
</metadata>
<g transform="translate(0.000000,84.000000) scale(0.100000,-0.100000)"
fill="#000000" stroke="none">
<path d="M0 635 c0 -113 2 -205 5 -205 20 0 108 38 143 61 24 16 47 29 52 29
4 0 44 -39 88 -86 72 -79 83 -87 123 -91 43 -5 45 -4 57 31 8 20 25 47 39 61
22 20 24 26 14 39 -7 9 -17 13 -22 10 -8 -5 -13 12 -12 44 1 7 -10 15 -22 18
-13 3 -26 12 -29 21 -4 9 -13 12 -25 8 -34 -10 -34 16 -1 50 22 23 31 40 27
54 -10 41 66 121 117 121 82 0 136 -54 136 -137 0 -37 5 -54 20 -68 20 -18 18
-38 -3 -29 -8 3 -18 -10 -26 -31 -7 -19 -17 -33 -22 -30 -5 4 -12 0 -15 -9 -3
-8 -12 -12 -20 -9 -26 10 -3 -27 26 -42 17 -9 33 -29 40 -50 l12 -35 82 0 c80
0 85 1 130 35 l46 36 0 204 0 205 -480 0 -480 0 0 -205z"/>
<path d="M180 480 c-13 -8 -13 -14 -1 -42 14 -36 15 -117 2 -164 -8 -27 -10
-24 -31 44 -13 42 -19 83 -16 97 7 29 6 29 -29 13 -28 -12 -30 -20 -15 -49 8
-14 8 -38 0 -82 -18 -96 -22 -97 -40 -18 -13 52 -15 82 -9 99 11 30 9 33 -17
26 -20 -5 -21 -13 -23 -205 l-2 -199 214 0 215 0 21 70 c27 87 29 240 4 240
-11 0 -13 -6 -9 -22 10 -30 7 -133 -3 -161 -7 -18 -12 -9 -31 52 -14 47 -19
86 -16 106 5 25 3 34 -10 39 -28 11 -35 7 -25 -12 11 -20 3 -172 -9 -172 -4 0
-17 34 -29 76 -19 64 -20 82 -11 105 11 24 9 33 -9 61 -19 31 -20 32 -19 8 4
-60 -3 -160 -10 -160 -5 0 -19 34 -32 76 -20 64 -22 80 -12 107 11 28 10 34
-11 54 -15 16 -26 20 -37 13z"/>
<path d="M936 381 c-13 -14 -16 -28 -11 -54 7 -36 -12 -147 -25 -147 -11 0
-32 118 -25 140 5 16 2 20 -19 20 -26 0 -33 -14 -17 -38 8 -13 -10 -127 -22
-139 -9 -9 -31 79 -30 125 0 40 -2 42 -29 42 -31 0 -33 -3 -17 -31 8 -15 6
-41 -5 -98 -9 -43 -16 -106 -16 -139 l0 -62 120 0 121 0 -2 200 c0 110 -2 200
-4 200 -1 0 -10 -9 -19 -19z"/>
<path d="M661 154 c0 -11 3 -14 6 -6 3 7 2 16 -1 19 -3 4 -6 -2 -5 -13z"/>
</g>
</svg>
