<?xml version="1.0" standalone="no"?>
<!DOCTYPE svg PUBLIC "-//W3C//DTD SVG 20010904//EN"
 "http://www.w3.org/TR/2001/REC-SVG-20010904/DTD/svg10.dtd">
<svg version="1.0" xmlns="http://www.w3.org/2000/svg"
 width="96.000000pt" height="84.000000pt" viewBox="0 0 96.000000 84.000000"
 preserveAspectRatio="xMidYMid meet">
<metadata>
Created by potrace 1.16, written by Peter Selinger 2001-2019
</metadata>
<g transform="translate(0.000000,84.000000) scale(0.100000,-0.100000)"
fill="#000000" stroke="none">
<path d="M0 605 c0 -129 3 -235 6 -235 13 0 72 46 124 96 l55 53 82 -73 c90
-81 137 -102 160 -70 7 10 13 25 13 34 0 9 11 27 25 40 23 21 23 24 7 36 -9 7
-20 10 -24 8 -5 -3 -8 6 -8 21 0 18 -7 28 -24 35 -13 5 -27 14 -31 20 -4 6
-15 8 -26 5 -27 -9 -24 11 6 43 17 18 25 38 25 63 0 68 64 116 141 106 22 -3
49 -13 59 -22 23 -21 50 -97 44 -123 -3 -10 2 -24 10 -31 19 -16 21 -32 4 -26
-14 5 -41 -42 -32 -56 3 -5 -2 -9 -10 -9 -9 0 -16 -4 -16 -10 0 -5 -7 -7 -15
-4 -11 5 -14 2 -8 -12 3 -11 12 -23 20 -27 7 -4 22 -26 33 -47 l20 -39 72 6
c66 5 80 10 146 54 41 27 80 49 88 49 11 0 14 31 14 175 l0 175 -480 0 -480 0
0 -235z"/>
<path d="M163 464 c-3 -9 -1 -31 5 -50 7 -25 6 -49 -5 -96 -9 -35 -19 -67 -23
-71 -10 -11 -31 127 -24 150 7 17 6 17 -12 1 -13 -13 -18 -30 -16 -60 1 -30
-7 -61 -28 -103 l-29 -60 2 88 c1 48 -1 87 -5 87 -5 0 -8 -18 -8 -39 0 -22 -5
-43 -10 -46 -6 -4 -10 -60 -10 -136 l0 -129 174 0 174 0 12 30 c7 16 28 51 46
77 29 42 34 56 34 107 0 67 -11 65 -30 -7 -7 -26 -16 -50 -20 -52 -14 -8 -22
132 -10 156 10 17 9 23 -1 30 -28 17 -42 10 -37 -18 3 -16 -4 -59 -17 -98
l-22 -70 -7 50 c-11 81 -10 123 4 140 11 13 10 20 -7 42 -30 41 -38 37 -39
-15 0 -26 -6 -67 -13 -92 -11 -37 -15 -41 -21 -25 -16 43 -21 132 -9 158 10
23 9 30 -6 47 -22 24 -34 25 -42 4z"/>
<path d="M926 447 c-15 -11 -17 -17 -7 -35 9 -17 9 -38 0 -88 -6 -36 -15 -62
-19 -57 -10 11 -34 104 -33 125 2 22 -10 23 -27 3 -10 -12 -10 -21 -2 -40 12
-25 6 -106 -8 -134 -10 -19 -43 94 -37 126 3 19 0 23 -20 23 -20 0 -24 -3 -17
-17 15 -33 3 -159 -15 -149 -12 8 -35 122 -28 141 5 11 0 15 -16 15 -22 0 -22
-1 -21 -152 1 -84 5 -165 9 -180 l7 -28 134 0 134 0 -1 163 c-1 89 -4 173 -8
187 -4 14 -3 40 3 58 12 40 -1 58 -28 39z"/>
<path d="M420 320 c0 -5 5 -10 10 -10 6 0 10 5 10 10 0 6 -4 10 -10 10 -5 0
-10 -4 -10 -10z"/>
<path d="M593 224 c10 -65 16 -87 28 -98 10 -11 9 9 -7 96 -9 46 -28 47 -21 2z"/>
</g>
</svg>
