<?xml version="1.0" standalone="no"?>
<!DOCTYPE svg PUBLIC "-//W3C//DTD SVG 20010904//EN"
 "http://www.w3.org/TR/2001/REC-SVG-20010904/DTD/svg10.dtd">
<svg version="1.0" xmlns="http://www.w3.org/2000/svg"
 width="96.000000pt" height="84.000000pt" viewBox="0 0 96.000000 84.000000"
 preserveAspectRatio="xMidYMid meet">
<metadata>
Created by potrace 1.16, written by Peter Selinger 2001-2019
</metadata>
<g transform="translate(0.000000,84.000000) scale(0.100000,-0.100000)"
fill="#000000" stroke="none">
<path d="M0 549 l0 -290 45 32 c47 34 131 118 177 178 24 31 29 34 51 24 13
-6 49 -32 81 -57 31 -26 56 -40 56 -33 0 7 9 30 19 50 l19 38 -24 11 c-13 6
-24 15 -24 20 0 5 -14 22 -32 38 -23 21 -34 26 -40 17 -5 -9 -10 -9 -19 0 -9
9 -7 18 10 39 13 16 21 41 21 63 0 46 22 77 68 97 31 13 45 14 87 4 63 -16 70
-22 91 -77 17 -43 17 -46 0 -55 -17 -9 -17 -11 0 -29 16 -17 16 -19 1 -19 -10
0 -17 -8 -17 -19 0 -11 -6 -26 -13 -33 -33 -32 -37 -54 -20 -97 14 -35 20 -41
37 -37 12 3 33 6 47 6 17 0 47 17 81 45 30 25 58 45 62 45 4 0 28 -20 54 -43
48 -45 121 -97 134 -97 5 0 8 106 8 235 l0 235 -480 0 -480 0 0 -291z"/>
<path d="M756 471 c-4 -5 -2 -12 3 -15 5 -4 12 -2 15 3 4 5 2 12 -3 15 -5 4
-12 2 -15 -3z"/>
<path d="M242 443 c-5 -10 -5 -31 -1 -48 3 -16 7 -22 8 -12 0 9 10 25 21 34
14 13 17 20 8 30 -14 18 -26 16 -36 -4z"/>
<path d="M706 432 c-3 -5 0 -22 8 -38 8 -16 16 -42 20 -59 6 -29 5 -29 -38 18
-24 26 -47 47 -51 47 -4 0 -2 -6 4 -14 14 -16 28 -115 14 -101 -5 6 -19 22
-30 38 l-21 27 -6 -37 c-10 -64 -9 -252 2 -305 1 -5 81 -8 177 -8 l175 0 0
139 0 140 -42 28 c-23 15 -56 43 -73 61 -29 29 -64 45 -50 22 3 -5 4 -10 0
-10 -10 0 -59 33 -72 47 -6 8 -14 10 -17 5z"/>
<path d="M324 386 c-4 -19 -82 -86 -99 -86 -2 0 0 12 5 26 6 14 10 27 10 29 0
3 -20 -9 -45 -26 -25 -17 -45 -37 -45 -45 0 -7 -19 -26 -42 -41 -24 -16 -45
-31 -46 -36 -2 -4 -17 -14 -33 -22 -29 -15 -29 -17 -29 -100 l0 -85 150 0
c128 0 149 2 144 15 -8 19 38 98 73 125 16 12 31 35 34 51 6 26 4 29 -12 24
-18 -6 -18 -4 -4 36 9 23 14 43 12 45 -1 2 -22 -13 -46 -32 -24 -19 -46 -33
-48 -31 -9 9 42 119 59 128 19 10 19 12 2 30 -23 25 -32 24 -40 -5z"/>
<path d="M590 380 c0 -5 5 -10 10 -10 6 0 10 5 10 10 0 6 -4 10 -10 10 -5 0
-10 -4 -10 -10z"/>
<path d="M520 264 c0 -11 7 -29 15 -40 14 -19 14 -19 15 2 0 11 -7 29 -15 40
-14 19 -14 19 -15 -2z"/>
<path d="M357 64 c-20 -21 -24 -32 -16 -46 17 -31 36 -21 43 23 4 23 5 44 2
46 -2 2 -15 -8 -29 -23z"/>
</g>
</svg>
