<?xml version="1.0" standalone="no"?>
<!DOCTYPE svg PUBLIC "-//W3C//DTD SVG 20010904//EN"
 "http://www.w3.org/TR/2001/REC-SVG-20010904/DTD/svg10.dtd">
<svg version="1.0" xmlns="http://www.w3.org/2000/svg"
 width="96.000000pt" height="84.000000pt" viewBox="0 0 96.000000 84.000000"
 preserveAspectRatio="xMidYMid meet">
<metadata>
Created by potrace 1.16, written by Peter Selinger 2001-2019
</metadata>
<g transform="translate(0.000000,84.000000) scale(0.100000,-0.100000)"
fill="#000000" stroke="none">
<path d="M0 420 l0 -420 73 0 c68 0 75 2 101 29 l28 29 -31 7 c-17 3 -34 11
-37 17 -12 19 48 58 89 58 42 0 50 15 12 24 -14 4 -25 10 -25 15 0 15 87 61
114 61 40 0 30 16 -16 27 l-43 10 53 23 c42 18 52 27 52 46 0 15 -6 24 -15 24
-23 0 -18 16 10 28 17 8 25 20 25 37 0 14 9 34 21 46 l20 20 -30 12 c-17 6
-31 16 -31 23 0 18 -37 46 -64 48 -32 1 -32 8 -1 42 20 22 24 33 19 64 -9 57
24 89 99 97 45 5 61 2 75 -10 11 -10 27 -14 39 -11 17 5 27 -1 43 -27 28 -47
23 -83 -13 -87 -29 -4 -34 -11 -16 -29 8 -8 8 -13 0 -17 -6 -4 -11 -26 -11
-49 0 -46 12 -59 68 -72 31 -6 32 -8 15 -21 -15 -11 -15 -13 -3 -14 16 0 30
-9 80 -50 l25 -21 -50 4 c-27 3 -60 8 -73 12 -18 6 -21 4 -16 -10 4 -10 -2
-28 -15 -45 -11 -16 -21 -34 -21 -40 0 -6 -4 -9 -9 -6 -14 9 -18 -115 -5 -149
7 -16 19 -56 28 -87 l17 -58 190 0 189 0 0 420 0 420 -480 0 -480 0 0 -420z"/>
<path d="M342 138 c-13 -13 -16 -38 -4 -38 4 0 15 12 25 25 13 19 15 25 4 25
-7 0 -18 -5 -25 -12z"/>
<path d="M295 51 c-3 -5 -20 -8 -38 -5 -24 3 -39 -2 -62 -21 l-30 -25 75 0 75
0 1 30 c1 29 -9 39 -21 21z"/>
</g>
</svg>
