<?xml version="1.0" standalone="no"?>
<!DOCTYPE svg PUBLIC "-//W3C//DTD SVG 20010904//EN"
 "http://www.w3.org/TR/2001/REC-SVG-20010904/DTD/svg10.dtd">
<svg version="1.0" xmlns="http://www.w3.org/2000/svg"
 width="96.000000pt" height="84.000000pt" viewBox="0 0 96.000000 84.000000"
 preserveAspectRatio="xMidYMid meet">
<metadata>
Created by potrace 1.16, written by Peter Selinger 2001-2019
</metadata>
<g transform="translate(0.000000,84.000000) scale(0.100000,-0.100000)"
fill="#000000" stroke="none">
<path d="M0 420 l0 -420 173 0 173 0 23 99 c19 81 22 113 16 177 -4 44 -11 84
-15 89 -8 10 -10 16 -10 36 0 6 -16 9 -40 8 -21 -2 -42 -1 -45 2 -3 4 -3 31 1
61 l6 56 27 -14 c14 -7 35 -16 46 -19 20 -6 20 -7 1 -21 -18 -12 -18 -14 -3
-14 14 0 46 15 76 37 11 8 -24 33 -40 28 -14 -5 -19 -1 -19 13 0 20 -29 52
-47 52 -20 0 -22 28 -2 46 14 12 19 30 19 64 0 64 22 83 103 88 53 3 65 1 81
-16 15 -17 21 -19 36 -9 25 15 56 -13 70 -61 11 -42 8 -49 -28 -57 -26 -5 -27
-8 -27 -74 0 -38 -6 -75 -13 -83 -9 -11 -9 -22 0 -46 11 -28 17 -32 53 -34 65
-2 79 1 97 23 31 37 118 74 118 50 0 -6 11 -22 25 -37 14 -15 25 -35 25 -45 0
-10 12 -27 27 -39 15 -12 33 -34 39 -48 10 -22 13 27 13 251 l1 277 -480 0
-480 0 0 -420z"/>
<path d="M720 381 c0 -23 -23 -43 -42 -36 -8 3 -36 -3 -61 -14 l-47 -20 6 -54
c4 -34 2 -62 -5 -75 -13 -24 -3 -76 26 -144 l16 -38 174 0 173 0 0 88 c0 81
-2 88 -22 97 -28 12 -35 47 -14 68 22 21 21 22 -26 24 -44 3 -62 18 -52 43 17
41 16 50 -3 50 -10 0 -27 6 -38 13 -11 7 -35 14 -52 15 -26 2 -33 -2 -33 -17z"/>
<path d="M575 379 c-4 -6 -5 -13 -2 -16 7 -7 27 6 27 18 0 12 -17 12 -25 -2z"/>
</g>
</svg>
