<?xml version="1.0" standalone="no"?>
<!DOCTYPE svg PUBLIC "-//W3C//DTD SVG 20010904//EN"
 "http://www.w3.org/TR/2001/REC-SVG-20010904/DTD/svg10.dtd">
<svg version="1.0" xmlns="http://www.w3.org/2000/svg"
 width="96.000000pt" height="84.000000pt" viewBox="0 0 96.000000 84.000000"
 preserveAspectRatio="xMidYMid meet">
<metadata>
Created by potrace 1.16, written by Peter Selinger 2001-2019
</metadata>
<g transform="translate(0.000000,84.000000) scale(0.100000,-0.100000)"
fill="#000000" stroke="none">
<path d="M315 779 c-13 -20 5 -99 22 -99 13 0 13 -3 2 -16 -9 -11 -10 -21 -3
-32 16 -26 2 -222 -15 -222 -5 0 -8 -20 -8 -44 -1 -24 -11 -63 -24 -87 -18
-37 -23 -63 -25 -156 -1 -62 2 -115 7 -118 5 -4 18 9 30 27 l21 33 -6 -32 -5
-33 138 0 139 0 -9 35 c-7 26 -6 48 6 87 21 73 19 120 -10 201 -14 38 -23 78
-20 88 4 12 1 21 -9 25 -9 3 -16 14 -16 23 0 9 -7 27 -16 39 -11 16 -14 35
-11 60 9 61 19 96 32 107 17 14 35 72 28 90 -4 12 -21 15 -72 13 -36 -1 -76 4
-88 10 -27 15 -80 16 -88 1z"/>
</g>
</svg>
