<?xml version="1.0" standalone="no"?>
<!DOCTYPE svg PUBLIC "-//W3C//DTD SVG 20010904//EN"
 "http://www.w3.org/TR/2001/REC-SVG-20010904/DTD/svg10.dtd">
<svg version="1.0" xmlns="http://www.w3.org/2000/svg"
 width="96.000000pt" height="84.000000pt" viewBox="0 0 96.000000 84.000000"
 preserveAspectRatio="xMidYMid meet">
<metadata>
Created by potrace 1.16, written by Peter Selinger 2001-2019
</metadata>
<g transform="translate(0.000000,84.000000) scale(0.100000,-0.100000)"
fill="#000000" stroke="none">
<path d="M0 625 c0 -118 2 -215 5 -215 13 0 64 38 59 43 -4 3 6 12 22 19 16 6
37 21 46 32 16 20 17 20 75 -30 51 -45 65 -52 114 -56 54 -6 56 -5 66 22 7 18
21 32 37 36 31 7 32 15 6 39 -18 16 -20 16 -26 1 -10 -25 -27 -19 -22 9 4 17
-3 32 -23 51 l-29 28 21 22 c14 15 19 29 14 43 -9 29 12 89 33 95 9 2 40 7 68
11 45 6 55 4 80 -18 23 -20 32 -22 46 -13 23 14 54 -15 68 -62 8 -29 6 -34
-14 -44 -21 -9 -24 -16 -22 -73 1 -51 -3 -69 -21 -94 -31 -41 -21 -58 36 -66
43 -6 56 -2 127 34 l79 41 20 -24 c11 -13 36 -26 58 -30 l37 -7 0 211 0 210
-480 0 -480 0 0 -215z"/>
<path d="M521 520 c-17 -10 -7 -40 14 -40 8 0 15 9 15 19 0 24 -12 32 -29 21z"/>
<path d="M184 439 c-3 -6 -17 -8 -31 -5 -18 5 -31 0 -53 -23 -16 -16 -45 -32
-65 -35 l-35 -7 0 -185 0 -184 170 2 c94 2 170 6 171 10 1 4 12 58 25 120 25
119 31 194 14 200 -5 2 -11 15 -12 31 -2 27 -21 37 -33 17 -10 -16 -45 -12
-45 5 0 18 -31 20 -48 3 -9 -9 -16 -7 -32 7 -19 17 -20 21 -6 31 9 6 13 14 9
17 -9 10 -21 8 -29 -4z"/>
<path d="M756 411 c-4 -5 7 -12 24 -16 41 -9 38 -19 -11 -32 -32 -8 -43 -8
-54 3 -7 8 -21 14 -30 14 -13 0 -14 -4 -5 -20 9 -17 8 -20 -14 -20 -14 0 -31
9 -40 21 -31 46 -39 19 -39 -137 0 -115 3 -158 16 -187 l16 -37 170 0 171 0 0
150 c0 140 -2 153 -22 181 -28 37 -85 71 -107 64 -9 -3 -26 2 -37 10 -22 17
-31 18 -38 6z"/>
<path d="M945 370 c3 -5 8 -10 11 -10 2 0 4 5 4 10 0 6 -5 10 -11 10 -5 0 -7
-4 -4 -10z"/>
</g>
</svg>
