<?xml version="1.0" standalone="no"?>
<!DOCTYPE svg PUBLIC "-//W3C//DTD SVG 20010904//EN"
 "http://www.w3.org/TR/2001/REC-SVG-20010904/DTD/svg10.dtd">
<svg version="1.0" xmlns="http://www.w3.org/2000/svg"
 width="96.000000pt" height="84.000000pt" viewBox="0 0 96.000000 84.000000"
 preserveAspectRatio="xMidYMid meet">
<metadata>
Created by potrace 1.16, written by Peter Selinger 2001-2019
</metadata>
<g transform="translate(0.000000,84.000000) scale(0.100000,-0.100000)"
fill="#000000" stroke="none">
<path d="M0 629 c0 -197 1 -211 17 -204 10 4 28 10 41 12 12 3 31 16 42 30 18
24 19 24 52 7 18 -9 49 -28 69 -41 26 -17 52 -24 97 -26 54 -2 62 0 71 20 6
12 24 29 41 38 27 14 29 18 19 37 -11 20 -13 20 -24 5 -17 -24 -25 -21 -25 7
0 14 -5 28 -10 31 -6 4 -8 10 -5 15 3 5 -4 11 -15 15 -24 8 -25 18 -5 35 10 8
15 30 15 61 0 71 21 89 105 89 62 0 66 -2 83 -30 17 -27 20 -28 35 -13 15 15
18 15 36 -2 30 -26 38 -82 16 -99 -14 -10 -15 -17 -6 -34 20 -38 6 -142 -19
-142 -15 0 -31 29 -37 64 -7 42 -21 45 -51 13 -29 -31 -28 -39 8 -60 16 -10
32 -28 35 -40 5 -19 14 -22 65 -25 52 -2 67 2 125 34 l66 37 32 -29 c18 -16
44 -40 60 -53 l27 -24 0 241 0 242 -480 0 -480 0 0 -211z"/>
<path d="M170 415 c-7 -8 -25 -15 -41 -15 -39 0 -73 -14 -103 -45 -26 -26 -26
-26 -26 -190 l0 -165 164 0 164 0 7 48 c3 26 15 87 27 135 15 65 18 104 13
144 -7 60 -24 74 -52 46 -14 -14 -31 -18 -68 -16 -28 1 -69 2 -92 2 -54 1 -55
13 -2 32 22 8 41 19 41 24 -1 16 -18 16 -32 0z"/>
<path d="M766 402 c-3 -6 1 -13 10 -16 23 -9 28 -2 10 13 -8 7 -17 8 -20 3z"/>
<path d="M834 371 c8 -13 -74 -41 -121 -41 -30 0 -48 6 -62 21 -10 11 -27 19
-38 17 -17 -3 -18 -15 -16 -153 1 -83 5 -165 8 -182 l6 -33 174 0 175 0 0 154
c0 145 -1 154 -20 159 -11 3 -24 17 -30 31 -6 16 -15 24 -24 20 -8 -3 -17 -1
-21 5 -3 6 -13 11 -21 11 -8 0 -13 -4 -10 -9z"/>
</g>
</svg>
