<?xml version="1.0" standalone="no"?>
<!DOCTYPE svg PUBLIC "-//W3C//DTD SVG 20010904//EN"
 "http://www.w3.org/TR/2001/REC-SVG-20010904/DTD/svg10.dtd">
<svg version="1.0" xmlns="http://www.w3.org/2000/svg"
 width="96.000000pt" height="84.000000pt" viewBox="0 0 96.000000 84.000000"
 preserveAspectRatio="xMidYMid meet">
<metadata>
Created by potrace 1.16, written by Peter Selinger 2001-2019
</metadata>
<g transform="translate(0.000000,84.000000) scale(0.100000,-0.100000)"
fill="#000000" stroke="none">
<path d="M0 610 c0 -260 -4 -252 74 -171 l40 41 73 -40 c64 -35 82 -39 133
-38 50 1 60 5 69 24 5 13 24 30 40 39 20 10 28 20 25 30 -8 20 -22 19 -27 -2
-3 -16 -5 -16 -12 2 -24 62 -32 76 -48 81 -17 5 -17 7 -2 24 10 11 17 39 19
69 3 65 19 82 85 87 61 4 97 -8 105 -34 4 -13 13 -18 24 -15 29 7 52 -29 57
-88 2 -30 7 -71 11 -91 8 -49 -2 -89 -20 -82 -20 8 -46 77 -46 120 0 23 -4 33
-11 28 -6 -3 -9 -15 -6 -25 3 -11 -1 -22 -8 -27 -6 -4 -19 -20 -28 -37 -13
-24 -16 -26 -17 -10 0 16 -2 17 -10 5 -6 -10 1 -24 31 -51 21 -20 39 -42 39
-49 0 -6 6 -10 14 -7 8 3 29 2 45 -3 31 -8 57 2 152 57 26 15 27 15 64 -26 21
-23 51 -51 67 -62 l28 -20 0 250 0 251 -480 0 -480 0 0 -230z"/>
<path d="M107 443 c-4 -3 -7 -17 -7 -31 l0 -24 19 23 c18 23 19 39 2 39 -4 0
-11 -3 -14 -7z"/>
<path d="M809 423 c-1 -5 0 -18 1 -30 1 -17 -4 -23 -19 -23 -12 0 -21 6 -21
15 0 8 -7 15 -15 15 -19 0 -19 -5 2 -37 13 -20 14 -28 5 -31 -7 -2 -10 -8 -7
-13 8 -12 -86 1 -102 14 -7 5 -13 16 -13 23 0 15 -35 20 -43 7 -3 -5 -1 -35 4
-67 6 -36 6 -62 1 -65 -6 -4 -5 -32 3 -71 7 -36 16 -86 20 -113 l6 -47 165 0
164 0 0 144 c0 137 -1 144 -21 149 -17 4 -19 10 -13 29 6 20 5 21 -9 9 -23
-18 -51 -6 -44 19 4 17 1 19 -19 14 -27 -7 -43 18 -25 40 6 7 8 16 4 19 -9 9
-23 9 -24 0z"/>
<path d="M170 400 c-13 -25 -72 -50 -99 -43 -14 3 -28 -4 -46 -22 -25 -27 -25
-31 -25 -181 l0 -154 159 0 158 0 13 78 c6 42 17 102 23 132 7 30 12 80 12
110 0 44 -3 55 -18 58 -10 2 -25 -6 -35 -17 -11 -14 -36 -25 -72 -30 -30 -5
-63 -12 -72 -16 -28 -11 -21 8 17 50 27 29 32 40 23 47 -20 12 -26 10 -38 -12z"/>
<path d="M391 178 c0 -9 -4 -25 -7 -35 -5 -17 -5 -17 6 0 6 10 9 25 7 35 -4
15 -5 15 -6 0z"/>
<path d="M362 79 c-6 -23 -7 -38 -2 -33 9 10 24 74 17 74 -3 0 -9 -19 -15 -41z"/>
</g>
</svg>
