<?xml version="1.0" standalone="no"?>
<!DOCTYPE svg PUBLIC "-//W3C//DTD SVG 20010904//EN"
 "http://www.w3.org/TR/2001/REC-SVG-20010904/DTD/svg10.dtd">
<svg version="1.0" xmlns="http://www.w3.org/2000/svg"
 width="96.000000pt" height="84.000000pt" viewBox="0 0 96.000000 84.000000"
 preserveAspectRatio="xMidYMid meet">
<metadata>
Created by potrace 1.16, written by Peter Selinger 2001-2019
</metadata>
<g transform="translate(0.000000,84.000000) scale(0.100000,-0.100000)"
fill="#000000" stroke="none">
<path d="M0 610 l0 -230 25 16 c14 9 36 30 49 47 23 29 25 30 58 17 18 -8 51
-25 72 -38 40 -25 57 -28 132 -24 33 2 43 7 52 27 7 14 23 30 37 37 14 6 25
18 25 27 0 13 -2 14 -9 2 -7 -11 -13 -7 -25 18 -9 17 -21 31 -27 31 -6 0 -9 6
-6 14 4 9 -3 16 -16 20 -20 5 -20 6 -4 24 11 12 17 35 17 65 0 68 22 87 101
87 48 0 67 -5 91 -22 72 -55 75 -61 83 -169 8 -117 -2 -141 -34 -88 -12 20
-21 51 -21 76 0 23 -4 45 -10 48 -6 4 -10 -7 -10 -24 0 -17 -4 -31 -10 -31 -5
0 -14 -15 -19 -32 -5 -18 -10 -25 -10 -15 -1 22 -25 18 -29 -5 -1 -8 8 -20 22
-26 14 -6 32 -24 40 -40 13 -26 21 -29 66 -31 43 -1 61 4 108 34 32 19 61 35
64 35 4 0 27 -21 50 -46 23 -25 55 -52 70 -60 l28 -15 0 251 0 250 -480 0
-480 0 0 -230z"/>
<path d="M95 431 c-3 -6 -1 -20 5 -31 8 -15 6 -29 -6 -57 -17 -40 -19 -39 -38
21 -9 28 -38 1 -30 -29 3 -13 -1 -37 -10 -53 -12 -24 -16 -62 -16 -157 l0
-125 145 0 144 0 21 73 c12 39 28 93 36 119 17 57 19 101 3 78 -7 -11 -8 -2
-3 30 11 69 10 74 -7 78 -11 2 -19 -6 -23 -22 -7 -28 -62 -74 -95 -81 -19 -3
-21 1 -21 39 0 23 5 47 12 54 8 8 8 15 -2 27 -19 23 -24 19 -39 -30 -21 -72
-33 -59 -35 40 -1 30 -27 47 -41 26z"/>
<path d="M795 427 c-10 -8 -15 -19 -11 -26 8 -12 -19 -51 -36 -51 -4 0 -8 12
-8 27 0 39 -14 18 -16 -23 -1 -51 -16 -61 -59 -41 -23 11 -35 24 -35 37 0 14
-7 20 -21 20 -17 0 -20 -5 -16 -22 4 -13 9 -43 12 -68 5 -35 4 -42 -5 -30 -13
17 -14 23 20 -142 l23 -108 158 0 159 0 0 135 c0 148 4 138 -64 159 -17 6 -18
8 -2 24 18 21 21 32 6 32 -5 0 -10 -7 -10 -15 0 -10 -10 -15 -31 -15 -31 0
-31 0 -15 25 22 33 11 50 -14 25 -11 -11 -24 -20 -30 -20 -16 0 -11 29 9 49
24 24 13 47 -14 28z"/>
<path d="M250 364 c0 -14 3 -14 15 -4 8 7 15 14 15 16 0 2 -7 4 -15 4 -8 0
-15 -7 -15 -16z"/>
<path d="M371 142 c-23 -64 -40 -153 -27 -141 9 9 57 181 54 195 -2 7 -14 -17
-27 -54z"/>
<path d="M591 54 c0 -11 3 -14 6 -6 3 7 2 16 -1 19 -3 4 -6 -2 -5 -13z"/>
</g>
</svg>
