<?xml version="1.0" standalone="no"?>
<!DOCTYPE svg PUBLIC "-//W3C//DTD SVG 20010904//EN"
 "http://www.w3.org/TR/2001/REC-SVG-20010904/DTD/svg10.dtd">
<svg version="1.0" xmlns="http://www.w3.org/2000/svg"
 width="96.000000pt" height="84.000000pt" viewBox="0 0 96.000000 84.000000"
 preserveAspectRatio="xMidYMid meet">
<metadata>
Created by potrace 1.16, written by Peter Selinger 2001-2019
</metadata>
<g transform="translate(0.000000,84.000000) scale(0.100000,-0.100000)"
fill="#000000" stroke="none">
<path d="M0 610 c0 -126 4 -230 8 -230 4 0 28 20 52 45 l44 45 73 -40 c65 -35
80 -39 133 -37 33 1 60 6 60 11 0 5 15 23 34 41 l35 32 -32 36 c-18 19 -31 40
-29 46 2 6 -3 11 -12 11 -19 0 -21 11 -5 27 7 7 12 34 13 62 3 73 23 91 102
91 53 0 65 -3 81 -22 10 -13 25 -23 33 -23 8 0 24 -14 35 -31 17 -26 21 -45
19 -110 -2 -111 -2 -114 -17 -114 -21 0 -37 45 -37 101 0 32 -4 48 -10 44 -6
-4 -9 -19 -8 -33 2 -17 -1 -26 -9 -24 -8 1 -13 -8 -13 -22 0 -14 -4 -28 -10
-31 -5 -3 -10 1 -10 11 0 13 -3 14 -15 4 -21 -17 -19 -25 10 -38 14 -7 33 -25
42 -40 14 -24 23 -28 67 -30 44 -2 60 3 116 38 l65 40 35 -39 c33 -36 90 -81
104 -81 3 0 6 110 6 245 l0 245 -480 0 -480 0 0 -230z"/>
<path d="M91 426 c-10 -11 -9 -16 4 -23 15 -9 35 -68 34 -103 0 -19 -57 47
-61 71 -3 16 -5 16 -27 -2 -19 -16 -22 -22 -12 -29 8 -4 16 -32 19 -61 l5 -54
-26 30 -26 30 -1 -142 0 -143 173 0 174 0 22 78 c28 94 38 168 20 137 -32 -54
-87 -118 -112 -132 -33 -16 -49 -8 -73 38 -18 36 -18 43 2 35 9 -4 23 -1 31 5
10 9 20 9 37 1 22 -10 26 -7 55 39 34 55 40 79 16 59 -12 -10 -15 -9 -15 6 1
11 7 37 15 59 8 22 15 41 15 43 0 1 -9 2 -20 2 -14 0 -20 -7 -20 -22 0 -29
-30 -108 -41 -108 -11 0 -11 31 0 88 7 35 6 42 -8 42 -13 0 -16 -10 -13 -62
l2 -63 -21 40 c-12 22 -22 54 -21 72 1 19 -4 33 -14 37 -12 5 -14 -2 -8 -44 4
-28 4 -50 2 -50 -14 0 -60 82 -56 98 3 12 -2 23 -13 30 -24 15 -24 15 -38 -2z"/>
<path d="M792 428 c-7 -7 -12 -20 -12 -29 0 -17 -110 -109 -130 -109 -17 0
-41 46 -34 65 5 13 3 16 -12 13 -11 -2 -17 -11 -15 -19 2 -8 5 -41 6 -74 1
-33 12 -98 24 -145 11 -47 21 -95 21 -107 0 -23 1 -23 160 -23 l160 0 0 129 0
129 -31 11 c-18 6 -40 11 -50 11 -11 0 -19 3 -19 8 0 7 34 32 60 43 13 6 12 8
-3 14 -11 5 -23 0 -35 -13 -18 -21 -72 -39 -72 -23 0 5 14 21 32 36 28 24 30
28 16 42 -14 14 -17 13 -22 -4 -5 -16 -76 -61 -76 -48 0 16 45 75 57 75 8 0
13 5 11 12 -6 17 -22 20 -36 6z"/>
<path d="M710 375 c0 -8 2 -15 4 -15 2 0 6 7 10 15 3 8 1 15 -4 15 -6 0 -10
-7 -10 -15z"/>
<path d="M656 355 c4 -8 8 -15 10 -15 2 0 4 7 4 15 0 8 -4 15 -10 15 -5 0 -7
-7 -4 -15z"/>
<path d="M550 178 c0 -4 5 -19 11 -35 6 -15 17 -48 24 -73 7 -25 14 -36 14
-24 1 23 -27 114 -40 129 -5 5 -9 6 -9 3z"/>
</g>
</svg>
