<?xml version="1.0" standalone="no"?>
<!DOCTYPE svg PUBLIC "-//W3C//DTD SVG 20010904//EN"
 "http://www.w3.org/TR/2001/REC-SVG-20010904/DTD/svg10.dtd">
<svg version="1.0" xmlns="http://www.w3.org/2000/svg"
 width="96.000000pt" height="84.000000pt" viewBox="0 0 96.000000 84.000000"
 preserveAspectRatio="xMidYMid meet">
<metadata>
Created by potrace 1.16, written by Peter Selinger 2001-2019
</metadata>
<g transform="translate(0.000000,84.000000) scale(0.100000,-0.100000)"
fill="#000000" stroke="none">
<path d="M0 605 l0 -236 29 22 c16 12 39 34 51 51 l21 29 75 -41 c66 -36 80
-40 128 -37 47 4 58 9 95 46 22 22 41 47 41 54 0 9 -2 9 -9 -1 -6 -10 -13 -5
-28 20 -11 18 -19 37 -19 42 1 5 -10 13 -23 18 -22 8 -23 10 -7 26 10 12 16
36 16 63 0 25 7 55 16 67 13 19 24 22 84 22 60 0 71 -3 87 -23 10 -13 23 -22
30 -20 6 2 20 -8 31 -22 17 -21 21 -40 20 -103 0 -106 -21 -168 -44 -131 -3 6
-10 43 -14 82 -4 43 -8 57 -9 34 0 -23 -5 -36 -11 -32 -6 4 -13 -8 -17 -26 -6
-29 -7 -30 -19 -14 -13 17 -14 17 -21 0 -4 -12 -2 -20 8 -23 8 -3 28 -19 44
-37 22 -23 44 -34 75 -39 41 -6 51 -2 110 34 36 22 70 40 76 40 6 0 19 -10 30
-21 23 -26 94 -79 106 -79 4 0 8 106 8 235 l0 235 -480 0 -480 0 0 -235z"/>
<path d="M797 436 c-9 -7 -17 -23 -17 -34 0 -21 -64 -82 -86 -82 -6 0 -19 -9
-29 -20 -30 -33 -36 -23 -15 26 24 55 24 54 4 54 -11 0 -13 -6 -9 -19 4 -13
-4 -31 -26 -56 l-32 -36 22 -92 c12 -51 25 -110 29 -132 l8 -40 157 -3 157 -3
0 120 c0 103 -2 120 -15 115 -20 -8 -19 5 2 28 20 22 7 23 -41 3 -20 -8 -36
-12 -36 -8 1 17 61 73 77 73 16 1 16 2 -1 15 -26 20 -33 19 -41 -5 -6 -19 -82
-67 -91 -57 -6 5 44 70 62 80 14 8 13 10 -3 23 -23 17 -33 17 -33 0 0 -17 -67
-72 -76 -63 -8 8 39 87 53 87 18 0 24 17 10 28 -8 7 -17 6 -30 -2z"/>
<path d="M94 425 c-4 -8 3 -23 13 -33 19 -16 49 -99 41 -108 -9 -8 -69 64 -71
85 -2 26 -9 27 -32 1 -16 -18 -17 -22 -3 -37 17 -20 43 -92 35 -99 -2 -2 -21
14 -41 36 l-36 40 0 -155 0 -155 174 0 174 0 13 53 c6 28 18 66 26 84 7 18 13
49 13 70 0 37 0 37 -15 15 -9 -12 -36 -33 -60 -48 -40 -23 -48 -24 -79 -14
-27 8 -38 19 -46 47 -18 51 0 61 41 24 38 -35 38 -35 63 -16 19 15 20 16 2 65
-10 28 -16 59 -13 70 4 15 0 20 -13 20 -17 0 -17 -3 -4 -47 8 -27 13 -54 12
-62 -5 -24 -60 58 -62 91 -1 16 -9 34 -18 39 -16 9 -15 4 2 -46 10 -30 17 -55
15 -55 -16 0 -75 79 -75 101 0 32 -47 60 -56 34z"/>
<path d="M717 393 c-4 -3 -7 -11 -7 -17 0 -6 5 -5 12 2 6 6 9 14 7 17 -3 3 -9
2 -12 -2z"/>
<path d="M593 372 c-7 -4 -9 -19 -5 -37 l6 -30 7 35 c8 39 8 42 -8 32z"/>
<path d="M327 358 c6 -7 13 -20 16 -28 3 -9 6 -3 6 13 1 19 -4 27 -15 27 -12
0 -14 -4 -7 -12z"/>
<path d="M550 176 c0 -4 5 -16 10 -26 6 -10 17 -43 24 -72 9 -32 15 -43 15
-28 1 14 -7 46 -17 72 -17 45 -32 70 -32 54z"/>
</g>
</svg>
