<?xml version="1.0" standalone="no"?>
<!DOCTYPE svg PUBLIC "-//W3C//DTD SVG 20010904//EN"
 "http://www.w3.org/TR/2001/REC-SVG-20010904/DTD/svg10.dtd">
<svg version="1.0" xmlns="http://www.w3.org/2000/svg"
 width="96.000000pt" height="84.000000pt" viewBox="0 0 96.000000 84.000000"
 preserveAspectRatio="xMidYMid meet">
<metadata>
Created by potrace 1.16, written by Peter Selinger 2001-2019
</metadata>
<g transform="translate(0.000000,84.000000) scale(0.100000,-0.100000)"
fill="#000000" stroke="none">
<path d="M0 605 c0 -129 4 -235 8 -235 4 0 28 20 52 45 24 25 50 45 56 45 7 0
43 -16 80 -36 60 -32 72 -35 117 -29 41 6 57 15 88 48 22 22 39 47 39 56 0 13
-2 13 -9 2 -10 -15 -31 -7 -31 12 0 7 -14 28 -30 46 -28 30 -30 35 -15 50 9
11 15 36 15 64 0 37 5 49 26 66 38 30 126 29 156 -1 12 -12 29 -23 37 -25 36
-5 46 -32 47 -126 2 -137 -40 -202 -53 -84 -6 53 -25 54 -48 3 -9 -20 -14 -25
-14 -13 -1 10 -5 15 -11 12 -17 -11 -11 -24 18 -39 15 -8 33 -25 40 -38 11
-19 22 -23 65 -25 45 -2 61 3 117 37 37 22 70 40 74 40 5 0 28 -17 51 -39 23
-21 52 -44 64 -50 l21 -12 0 231 0 230 -480 0 -480 0 0 -235z"/>
<path d="M572 580 c0 -14 2 -19 5 -12 2 6 2 18 0 25 -3 6 -5 1 -5 -13z"/>
<path d="M807 449 c-9 -6 -17 -21 -17 -34 0 -22 -67 -111 -77 -102 -2 2 4 23
12 47 8 23 15 45 15 49 -1 14 -30 -34 -30 -49 0 -9 -18 -34 -41 -55 l-40 -40
21 54 c12 30 23 58 26 62 2 4 -5 5 -16 2 -13 -3 -20 -14 -20 -28 0 -13 -11
-30 -26 -40 -30 -19 -30 -14 9 -195 l24 -115 157 -3 156 -3 0 132 0 132 -25
-23 c-32 -30 -32 -13 1 57 22 45 24 57 13 64 -22 14 -29 11 -29 -14 0 -14 -16
-39 -40 -62 -22 -21 -40 -34 -40 -28 0 18 31 87 48 106 14 16 14 19 -4 31 -17
13 -20 12 -36 -17 -9 -18 -28 -43 -43 -57 l-28 -25 7 29 c12 49 34 96 45 96
13 0 15 26 3 34 -4 2 -15 0 -25 -5z"/>
<path d="M102 428 c-9 -9 -7 -17 8 -33 18 -19 54 -114 46 -122 -7 -7 -76 86
-76 102 0 14 -3 14 -24 -2 -23 -17 -24 -19 -7 -38 18 -20 46 -103 38 -111 -8
-8 -68 75 -70 96 -1 11 -5 20 -10 20 -11 0 -4 -114 9 -144 5 -14 4 -17 -4 -12
-9 5 -12 -18 -12 -88 l0 -96 175 0 174 0 11 43 c6 23 18 62 25 86 17 50 21
143 5 104 -13 -32 -111 -94 -159 -100 -47 -6 -81 15 -81 50 0 19 1 19 18 4 20
-18 47 -23 37 -7 -9 15 21 23 42 11 16 -8 27 -3 62 27 l42 37 -26 37 c-14 20
-25 49 -25 64 0 20 -4 25 -16 20 -9 -3 -17 -6 -19 -6 -2 0 3 -12 10 -27 14
-29 31 -102 22 -93 -29 27 -67 87 -67 105 0 12 -7 28 -15 35 -19 15 -19 6 -1
-53 8 -26 11 -47 8 -46 -16 1 -72 83 -72 105 0 28 -31 49 -48 32z"/>
<path d="M330 371 c0 -5 7 -14 15 -21 16 -14 18 -10 9 14 -6 17 -24 22 -24 7z"/>
<path d="M585 369 c-11 -17 1 -21 15 -4 8 9 8 15 2 15 -6 0 -14 -5 -17 -11z"/>
<path d="M574 116 c12 -35 23 -62 25 -60 6 6 -31 124 -39 124 -3 0 3 -29 14
-64z"/>
</g>
</svg>
