<?xml version="1.0" standalone="no"?>
<!DOCTYPE svg PUBLIC "-//W3C//DTD SVG 20010904//EN"
 "http://www.w3.org/TR/2001/REC-SVG-20010904/DTD/svg10.dtd">
<svg version="1.0" xmlns="http://www.w3.org/2000/svg"
 width="96.000000pt" height="84.000000pt" viewBox="0 0 96.000000 84.000000"
 preserveAspectRatio="xMidYMid meet">
<metadata>
Created by potrace 1.16, written by Peter Selinger 2001-2019
</metadata>
<g transform="translate(0.000000,84.000000) scale(0.100000,-0.100000)"
fill="#000000" stroke="none">
<path d="M0 605 c0 -129 4 -235 8 -235 4 0 30 22 57 50 l49 50 73 -40 c68 -38
76 -40 129 -34 45 6 58 11 66 30 6 13 22 31 35 39 23 15 32 45 13 45 -5 0 -10
-5 -10 -11 0 -5 -4 -7 -10 -4 -6 3 -10 15 -10 26 0 11 -7 22 -16 26 -8 3 -13
12 -10 19 3 9 -2 14 -14 14 -24 0 -26 13 -5 30 10 8 15 30 15 61 0 71 21 89
105 89 58 0 66 -3 81 -25 9 -14 20 -22 25 -19 5 3 17 0 28 -6 23 -12 47 -83
31 -88 -7 -3 -8 -25 -4 -63 4 -39 2 -69 -6 -89 -24 -57 -46 -22 -51 80 -1 38
-3 45 -6 23 -2 -18 -9 -33 -14 -33 -5 0 -14 -12 -20 -27 -7 -16 -13 -23 -16
-15 -3 6 -9 10 -14 6 -15 -9 -10 -20 16 -32 14 -6 33 -24 43 -39 15 -25 23
-28 73 -28 43 0 64 6 95 26 98 65 95 64 113 41 19 -25 90 -82 102 -82 5 0 9
101 9 225 l0 225 -480 0 -480 0 0 -235z"/>
<path d="M805 446 c-11 -8 -16 -19 -12 -30 4 -10 -5 -37 -24 -69 l-31 -52 6
64 c5 56 4 62 -9 51 -8 -7 -15 -24 -15 -37 0 -22 -57 -109 -66 -100 -2 1 3 27
11 57 8 30 12 56 10 58 -8 8 -36 -8 -30 -17 3 -6 -9 -26 -26 -46 l-31 -35 20
-88 c11 -48 24 -105 27 -127 14 -81 -1 -75 171 -75 l154 0 -2 182 c-2 142 -6
182 -17 186 -9 3 -11 -1 -7 -14 3 -11 -5 -41 -18 -69 l-24 -50 -1 62 c-1 34 4
65 10 68 7 5 4 14 -7 26 -18 19 -40 27 -29 9 6 -9 -40 -110 -51 -110 -10 0 8
115 21 130 12 15 10 40 -4 40 -4 0 -16 -6 -26 -14z"/>
<path d="M104 425 c-4 -8 0 -23 9 -33 8 -9 18 -39 22 -67 l7 -50 -31 40 c-17
22 -31 49 -31 60 0 19 -1 19 -22 -2 -20 -20 -20 -24 -6 -40 8 -10 18 -38 22
-63 l6 -45 -30 35 c-16 19 -30 45 -30 58 0 12 -4 22 -9 22 -5 0 -9 -76 -10
-170 l-1 -170 175 0 174 0 12 42 c6 24 18 63 25 87 8 25 14 65 14 90 l-1 46
-13 -31 c-16 -35 -92 -95 -154 -119 -36 -15 -48 -16 -70 -5 -15 7 -22 14 -17
15 6 2 23 6 38 10 20 4 27 10 23 20 -4 11 3 15 26 15 24 0 43 10 75 42 49 48
51 55 23 91 -11 14 -21 36 -23 48 -3 15 -12 25 -25 27 -23 4 -29 -7 -13 -23 6
-6 13 -30 17 -55 l7 -45 -32 39 c-17 21 -31 51 -31 65 0 16 -8 31 -21 40 -19
11 -21 11 -15 -4 3 -9 9 -35 12 -58 l5 -42 -26 30 c-14 17 -28 41 -31 55 -11
52 -38 76 -50 45z"/>
<path d="M330 376 c0 -2 7 -9 15 -16 13 -11 14 -10 9 4 -5 14 -24 23 -24 12z"/>
<path d="M585 369 c-11 -17 1 -21 15 -4 8 9 8 15 2 15 -6 0 -14 -5 -17 -11z"/>
<path d="M561 174 c0 -11 3 -14 6 -6 3 7 2 16 -1 19 -3 4 -6 -2 -5 -13z"/>
<path d="M591 73 c-1 -12 4 -25 9 -28 12 -7 12 2 0 30 -8 19 -9 19 -9 -2z"/>
</g>
</svg>
