<?xml version="1.0" standalone="no"?>
<!DOCTYPE svg PUBLIC "-//W3C//DTD SVG 20010904//EN"
 "http://www.w3.org/TR/2001/REC-SVG-20010904/DTD/svg10.dtd">
<svg version="1.0" xmlns="http://www.w3.org/2000/svg"
 width="96.000000pt" height="84.000000pt" viewBox="0 0 96.000000 84.000000"
 preserveAspectRatio="xMidYMid meet">
<metadata>
Created by potrace 1.16, written by Peter Selinger 2001-2019
</metadata>
<g transform="translate(0.000000,84.000000) scale(0.100000,-0.100000)"
fill="#000000" stroke="none">
<path d="M0 605 c0 -266 -4 -257 74 -176 l39 40 79 -40 c65 -33 86 -39 111
-33 18 4 39 7 49 5 9 -1 24 11 34 28 9 16 28 34 40 40 15 7 22 16 18 26 -7 17
-24 20 -24 4 0 -5 -4 -7 -10 -4 -6 3 -10 15 -10 26 0 11 -7 22 -16 26 -8 3
-13 12 -10 19 3 9 -2 14 -14 14 -24 0 -26 13 -5 30 9 7 15 29 15 52 0 40 14
77 34 90 6 4 39 8 73 8 52 0 64 -3 80 -23 10 -12 25 -21 34 -19 8 1 22 -5 31
-15 19 -23 31 -80 17 -89 -6 -3 -7 -19 -4 -36 10 -46 8 -93 -5 -118 -19 -36
-40 -4 -49 76 -5 38 -9 54 -10 37 0 -18 -6 -33 -11 -33 -6 0 -15 -12 -21 -27
-7 -20 -12 -24 -18 -14 -6 10 -10 10 -16 1 -4 -6 -5 -12 -4 -14 2 -1 17 -10
32 -20 15 -9 32 -27 38 -39 9 -20 18 -23 67 -22 48 0 66 6 117 38 68 41 85 45
101 20 6 -10 32 -33 58 -51 l46 -33 0 230 0 231 -480 0 -480 0 0 -235z"/>
<path d="M809 447 c-11 -8 -14 -19 -9 -32 4 -11 1 -42 -8 -70 l-15 -50 -9 40
c-5 22 -7 52 -5 68 3 26 2 26 -17 13 -14 -9 -20 -23 -18 -40 1 -14 -9 -47 -23
-73 l-26 -48 4 68 c3 59 1 67 -15 67 -11 0 -18 -7 -18 -20 0 -10 -13 -34 -29
-52 -27 -31 -28 -37 -20 -78 5 -25 17 -88 27 -140 l18 -95 157 -3 157 -3 0
180 c0 99 -4 182 -8 185 -4 2 -6 -24 -4 -60 2 -35 1 -64 -2 -64 -13 0 -47 95
-42 116 4 13 0 27 -9 34 -12 10 -15 4 -21 -39 -4 -28 -10 -53 -14 -56 -13 -8
-33 100 -23 121 10 19 7 44 -5 44 -4 0 -14 -6 -23 -13z"/>
<path d="M103 424 c-3 -8 -1 -20 6 -27 6 -6 11 -34 11 -61 l-1 -51 -19 35
c-11 19 -19 44 -20 55 0 19 -1 19 -22 -2 -17 -18 -19 -25 -9 -37 7 -8 11 -34
9 -58 l-3 -43 -24 38 c-13 21 -21 46 -18 57 3 11 1 18 -4 14 -5 -3 -9 -81 -9
-175 l0 -169 175 0 174 0 12 42 c6 24 17 61 25 83 13 37 19 105 10 105 -2 0
-20 -16 -41 -36 -46 -43 -133 -94 -160 -94 -11 1 -31 7 -45 15 l-25 14 27 1
c39 0 57 10 51 26 -4 10 4 14 28 14 26 0 43 10 76 42 48 47 53 66 24 92 -11
10 -21 30 -23 45 -2 19 -10 27 -26 29 -19 3 -23 0 -19 -15 12 -43 17 -93 10
-93 -14 0 -43 61 -43 90 0 19 -7 33 -19 40 -27 14 -27 14 -23 -24 2 -18 2 -42
0 -52 -6 -29 -41 43 -35 73 3 16 -1 27 -14 33 -24 13 -29 13 -36 -6z"/>
<path d="M330 376 c0 -2 7 -9 15 -16 13 -11 14 -10 9 4 -5 14 -24 23 -24 12z"/>
<path d="M585 371 c-3 -5 -1 -12 4 -15 5 -3 11 1 15 9 6 16 -9 21 -19 6z"/>
<path d="M561 174 c0 -11 3 -14 6 -6 3 7 2 16 -1 19 -3 4 -6 -2 -5 -13z"/>
<path d="M591 73 c-1 -12 4 -25 9 -28 12 -7 12 2 0 30 -8 19 -9 19 -9 -2z"/>
</g>
</svg>
