<?xml version="1.0" standalone="no"?>
<!DOCTYPE svg PUBLIC "-//W3C//DTD SVG 20010904//EN"
 "http://www.w3.org/TR/2001/REC-SVG-20010904/DTD/svg10.dtd">
<svg version="1.0" xmlns="http://www.w3.org/2000/svg"
 width="96.000000pt" height="84.000000pt" viewBox="0 0 96.000000 84.000000"
 preserveAspectRatio="xMidYMid meet">
<metadata>
Created by potrace 1.16, written by Peter Selinger 2001-2019
</metadata>
<g transform="translate(0.000000,84.000000) scale(0.100000,-0.100000)"
fill="#000000" stroke="none">
<path d="M0 604 c0 -266 -7 -250 76 -171 l42 39 77 -41 c59 -31 84 -39 104
-34 14 4 35 6 45 5 22 -1 109 85 100 99 -4 6 -10 6 -19 -1 -10 -8 -15 -4 -23
20 -6 16 -16 30 -21 30 -6 0 -8 6 -5 14 3 8 -4 16 -17 19 -22 6 -22 7 -5 26
10 11 18 38 20 65 4 68 25 86 102 86 59 0 94 -15 94 -40 0 -4 8 -6 18 -3 34 8
75 -72 53 -106 -5 -7 -4 -31 1 -55 10 -42 -6 -116 -24 -116 -11 0 -29 46 -31
82 -1 15 -4 28 -7 28 -11 0 -28 -16 -40 -39 -8 -16 -14 -20 -20 -12 -5 10 -9
9 -13 -3 -4 -9 1 -17 13 -21 11 -3 31 -20 46 -38 22 -27 35 -32 77 -35 43 -2
58 2 118 39 l69 41 56 -51 c30 -28 60 -51 65 -51 5 0 9 97 9 230 l0 230 -480
0 -480 0 0 -236z"/>
<path d="M574 589 c-3 -6 -1 -16 5 -22 8 -8 11 -5 11 11 0 24 -5 28 -16 11z"/>
<path d="M811 441 c-10 -6 -10 -13 -3 -28 7 -12 8 -39 4 -69 l-8 -49 -17 43
c-9 23 -17 51 -17 62 0 24 -8 25 -31 4 -14 -12 -16 -21 -9 -35 7 -12 6 -36 -1
-71 -11 -48 -13 -51 -21 -28 -5 14 -10 44 -11 67 -2 37 -5 43 -24 43 -18 0
-23 -6 -23 -25 0 -14 -12 -43 -26 -64 l-25 -39 15 -73 c8 -41 18 -98 22 -126
l7 -53 158 0 159 0 0 131 c0 124 -1 132 -25 163 -14 18 -25 45 -25 59 0 15 -5
27 -11 27 -8 0 -10 -14 -6 -45 4 -25 5 -45 2 -45 -15 0 -55 92 -53 120 3 34
-8 45 -31 31z"/>
<path d="M105 431 c-3 -6 -1 -20 5 -31 8 -15 8 -31 -1 -60 -14 -46 -24 -44
-33 4 -5 26 -11 34 -22 29 -11 -4 -13 -14 -9 -33 6 -29 -3 -80 -14 -80 -4 0
-12 12 -18 28 -9 21 -11 -6 -12 -130 l-1 -158 175 0 174 0 16 57 c9 32 20 68
26 81 5 13 9 46 9 75 -1 52 -1 52 -14 22 -27 -62 -156 -141 -212 -130 -40 7
-55 25 -20 25 36 0 55 10 49 26 -4 10 4 14 28 14 26 0 43 10 76 42 24 23 43
46 43 50 0 5 -11 26 -25 47 -15 22 -23 45 -19 54 5 13 0 17 -19 17 -20 0 -26
-5 -25 -22 3 -45 -2 -78 -11 -78 -13 0 -32 61 -29 89 2 15 -5 29 -21 39 -23
16 -23 15 -17 -4 3 -11 0 -38 -8 -60 l-13 -39 -11 40 c-6 22 -10 51 -9 65 2
25 -25 41 -38 21z"/>
<path d="M342 360 c14 -22 24 -19 15 5 -4 8 -11 15 -17 15 -6 0 -6 -7 2 -20z"/>
<path d="M588 373 c-2 -5 -2 -24 1 -43 l6 -34 11 42 c9 34 9 42 -2 42 -7 0
-14 -3 -16 -7z"/>
<path d="M561 174 c0 -11 3 -14 6 -6 3 7 2 16 -1 19 -3 4 -6 -2 -5 -13z"/>
</g>
</svg>
