<?xml version="1.0" standalone="no"?>
<!DOCTYPE svg PUBLIC "-//W3C//DTD SVG 20010904//EN"
 "http://www.w3.org/TR/2001/REC-SVG-20010904/DTD/svg10.dtd">
<svg version="1.0" xmlns="http://www.w3.org/2000/svg"
 width="96.000000pt" height="84.000000pt" viewBox="0 0 96.000000 84.000000"
 preserveAspectRatio="xMidYMid meet">
<metadata>
Created by potrace 1.16, written by Peter Selinger 2001-2019
</metadata>
<g transform="translate(0.000000,84.000000) scale(0.100000,-0.100000)"
fill="#000000" stroke="none">
<path d="M324 779 c-7 -12 15 -89 25 -89 12 0 1 -243 -12 -258 -6 -7 -11 -34
-13 -60 -1 -26 -11 -68 -23 -94 -16 -35 -22 -70 -24 -147 -2 -56 0 -107 4
-113 9 -14 34 25 65 99 29 71 32 48 4 -32 -11 -32 -20 -64 -20 -72 0 -10 30
-13 144 -13 l144 0 -15 57 c-11 43 -12 66 -4 93 19 66 18 91 -6 158 -15 41
-22 78 -19 95 4 19 1 30 -9 33 -8 4 -15 19 -15 34 0 15 -7 33 -15 40 -8 7 -15
18 -15 25 0 8 -5 15 -12 17 -8 3 -4 17 12 45 13 24 20 50 17 62 -3 14 0 21 9
21 14 0 38 74 31 94 -6 15 -244 19 -253 5z m78 -464 c-2 -101 -21 -119 -22
-19 0 74 6 102 18 89 3 -2 4 -34 4 -70z"/>
</g>
</svg>
