<?xml version="1.0" standalone="no"?>
<!DOCTYPE svg PUBLIC "-//W3C//DTD SVG 20010904//EN"
 "http://www.w3.org/TR/2001/REC-SVG-20010904/DTD/svg10.dtd">
<svg version="1.0" xmlns="http://www.w3.org/2000/svg"
 width="96.000000pt" height="84.000000pt" viewBox="0 0 96.000000 84.000000"
 preserveAspectRatio="xMidYMid meet">
<metadata>
Created by potrace 1.16, written by Peter Selinger 2001-2019
</metadata>
<g transform="translate(0.000000,84.000000) scale(0.100000,-0.100000)"
fill="#000000" stroke="none">
<path d="M0 610 c0 -126 4 -230 9 -230 4 0 31 22 58 49 l50 49 71 -39 c62 -34
78 -39 130 -37 52 1 62 5 71 24 5 13 22 30 36 40 25 16 34 44 15 44 -5 0 -10
-4 -10 -10 0 -5 -4 -10 -10 -10 -5 0 -10 8 -10 19 0 10 -7 24 -15 31 -9 7 -14
19 -11 27 3 8 -2 13 -14 13 -24 0 -24 4 -6 33 8 12 14 39 14 60 0 20 7 49 16
62 15 23 23 25 86 25 63 0 71 -2 86 -24 8 -14 21 -23 28 -20 7 3 21 -5 31 -16
33 -37 29 -260 -5 -260 -14 0 -30 62 -30 118 0 31 -3 52 -7 49 -3 -4 -6 -20
-5 -37 0 -19 -4 -30 -13 -30 -7 0 -15 -9 -18 -20 -3 -13 -10 -18 -21 -14 -29
11 -18 -25 12 -40 15 -8 33 -26 39 -39 9 -19 20 -25 47 -26 20 -1 43 -2 52 -3
9 -1 50 16 90 38 l72 39 56 -53 c30 -28 57 -52 60 -52 3 0 6 106 6 235 l0 235
-480 0 -480 0 0 -230z"/>
<path d="M107 443 c-4 -3 -4 -23 -1 -43 4 -27 1 -45 -15 -71 l-21 -34 0 43 c0
31 -4 42 -12 39 -7 -2 -13 -15 -13 -28 0 -29 -24 -89 -36 -89 -5 0 -9 -58 -9
-130 l0 -130 175 0 174 0 16 57 c9 32 20 68 26 81 5 13 9 44 8 70 0 36 -2 42
-9 26 -11 -27 -82 -85 -139 -114 -31 -16 -53 -20 -77 -15 -40 7 -55 25 -20 25
36 0 55 10 49 26 -4 10 4 14 28 14 46 1 116 66 127 118 10 51 4 92 -14 92 -12
0 -12 -4 -4 -20 6 -11 7 -37 4 -61 l-7 -42 -19 38 c-11 21 -18 48 -15 61 3 20
0 24 -19 24 -19 0 -24 -5 -24 -24 0 -31 -25 -91 -33 -79 -10 15 -12 78 -3 92
5 7 1 20 -10 32 -23 26 -34 24 -34 -6 0 -15 -8 -40 -17 -58 l-18 -32 -3 49
c-2 27 1 53 7 59 7 7 5 14 -7 23 -20 15 -26 17 -35 7z"/>
<path d="M817 438 c-14 -7 -16 -13 -7 -23 12 -15 31 -125 21 -125 -11 0 -51
85 -51 108 0 25 -7 27 -34 7 -16 -12 -17 -18 -7 -43 7 -16 11 -51 9 -78 l-3
-49 -22 49 c-13 27 -23 59 -23 72 0 19 -5 24 -24 24 -19 0 -23 -4 -19 -20 6
-23 -15 -108 -29 -116 -6 -4 -8 22 -6 65 2 59 0 71 -12 69 -21 -5 -17 -96 9
-225 12 -55 21 -113 21 -127 l0 -26 160 0 160 0 0 138 c0 126 -2 141 -20 157
-11 10 -20 28 -20 41 0 13 -5 26 -11 30 -12 7 -9 -11 8 -71 7 -24 4 -22 -36
29 -22 28 -31 49 -31 77 0 43 -8 52 -33 37z"/>
<path d="M560 174 c0 -10 5 -26 10 -34 8 -11 9 -7 4 15 -8 37 -14 45 -14 19z"/>
</g>
</svg>
