<?xml version="1.0" standalone="no"?>
<!DOCTYPE svg PUBLIC "-//W3C//DTD SVG 20010904//EN"
 "http://www.w3.org/TR/2001/REC-SVG-20010904/DTD/svg10.dtd">
<svg version="1.0" xmlns="http://www.w3.org/2000/svg"
 width="96.000000pt" height="84.000000pt" viewBox="0 0 96.000000 84.000000"
 preserveAspectRatio="xMidYMid meet">
<metadata>
Created by potrace 1.16, written by Peter Selinger 2001-2019
</metadata>
<g transform="translate(0.000000,84.000000) scale(0.100000,-0.100000)"
fill="#000000" stroke="none">
<path d="M0 609 c0 -261 -7 -245 76 -167 l41 39 71 -40 c63 -36 78 -41 130
-39 54 1 61 4 76 29 9 15 25 31 36 34 11 4 20 15 20 26 0 21 -16 26 -23 7 -3
-8 -7 -6 -12 7 -5 11 -15 28 -22 37 -8 9 -12 22 -8 27 3 7 -2 11 -14 11 -25 0
-26 8 -6 34 8 11 15 38 15 61 0 22 7 51 16 63 13 19 24 22 84 22 60 0 71 -3
87 -23 10 -13 23 -22 30 -20 27 9 77 -87 52 -102 -4 -3 -5 -31 -2 -63 3 -32 0
-70 -6 -86 -11 -26 -13 -28 -27 -14 -9 8 -19 45 -23 84 -5 38 -9 54 -10 37 0
-18 -6 -33 -11 -33 -6 0 -15 -12 -21 -27 -7 -16 -13 -23 -16 -15 -3 6 -9 10
-14 6 -16 -10 -10 -23 19 -38 15 -8 34 -25 41 -39 10 -19 24 -26 62 -31 44 -6
56 -3 123 34 l74 41 51 -51 c27 -27 55 -50 61 -50 7 0 10 78 10 235 l0 235
-480 0 -480 0 0 -231z"/>
<path d="M107 443 c-4 -4 -5 -21 -1 -38 4 -23 -1 -42 -18 -71 l-23 -39 -3 43
c-2 28 -7 42 -15 39 -7 -2 -11 -16 -9 -31 2 -14 -6 -41 -17 -60 -18 -29 -21
-49 -21 -160 l0 -126 176 2 176 3 24 80 c22 77 34 198 14 148 -11 -27 -101
-99 -148 -119 -42 -17 -67 -18 -95 -2 -21 12 -20 13 18 18 32 4 39 9 37 23 -3
15 2 18 26 16 23 -3 40 6 75 38 49 45 67 88 59 141 -7 51 -27 38 -29 -19 -2
-68 -17 -82 -31 -28 -7 28 -7 49 -1 61 8 15 6 18 -20 18 -24 0 -28 -4 -24 -19
2 -10 -6 -38 -19 -62 l-23 -44 -3 47 c-2 26 2 57 8 68 10 18 8 24 -7 36 -26
19 -33 17 -33 -8 0 -13 -11 -41 -25 -63 l-24 -40 -1 51 c0 35 5 56 16 65 14
12 14 14 -2 26 -20 15 -28 16 -37 6z"/>
<path d="M812 428 c-9 -9 -8 -16 3 -28 9 -10 18 -41 21 -71 l6 -54 -31 48
c-17 26 -31 57 -31 67 0 24 -9 25 -35 6 -16 -11 -17 -16 -6 -29 7 -9 15 -42
17 -74 4 -44 3 -54 -6 -43 -24 33 -47 86 -42 99 5 14 -14 31 -36 31 -9 0 -10
-11 -6 -40 4 -21 3 -56 -1 -77 l-7 -38 -15 40 c-8 22 -14 56 -14 76 0 31 -3
36 -19 32 -16 -4 -18 -13 -14 -71 3 -37 9 -80 14 -97 7 -25 40 -188 40 -201 0
-2 70 -4 155 -4 l155 0 0 133 c0 119 -2 136 -19 151 -13 12 -20 14 -23 5 -7
-22 -70 69 -68 98 3 44 1 53 -13 53 -7 0 -18 -5 -25 -12z"/>
<path d="M908 335 c2 -14 6 -25 8 -25 2 0 4 11 4 25 0 14 -4 25 -9 25 -4 0 -6
-11 -3 -25z"/>
<path d="M561 185 c0 -24 48 -167 48 -145 1 8 -10 49 -24 90 -13 41 -24 66
-24 55z"/>
</g>
</svg>
