<?xml version="1.0" standalone="no"?>
<!DOCTYPE svg PUBLIC "-//W3C//DTD SVG 20010904//EN"
 "http://www.w3.org/TR/2001/REC-SVG-20010904/DTD/svg10.dtd">
<svg version="1.0" xmlns="http://www.w3.org/2000/svg"
 width="96.000000pt" height="84.000000pt" viewBox="0 0 96.000000 84.000000"
 preserveAspectRatio="xMidYMid meet">
<metadata>
Created by potrace 1.16, written by Peter Selinger 2001-2019
</metadata>
<g transform="translate(0.000000,84.000000) scale(0.100000,-0.100000)"
fill="#000000" stroke="none">
<path d="M0 615 c0 -125 4 -225 9 -225 5 0 32 21 60 46 l51 46 70 -41 c62 -37
75 -41 127 -39 53 2 61 6 96 42 37 39 54 83 22 56 -12 -10 -16 -9 -21 6 -4 11
-14 27 -21 36 -8 9 -12 22 -8 27 3 7 -2 11 -14 11 -25 0 -27 13 -6 30 9 8 15
30 15 60 0 71 20 89 99 92 57 2 66 0 85 -23 12 -14 27 -24 34 -21 7 2 19 -2
27 -8 20 -16 36 -79 26 -98 -4 -8 -4 -34 1 -57 7 -32 5 -52 -6 -80 -19 -45
-31 -39 -46 24 -13 56 -30 59 -51 9 -11 -26 -14 -28 -19 -13 -5 15 -8 16 -15
5 -7 -12 1 -22 40 -48 6 -4 17 -18 26 -31 12 -19 25 -25 71 -28 48 -4 63 0 98
22 79 50 88 50 134 7 83 -78 76 -95 76 177 l0 241 -480 0 -480 0 0 -225z"/>
<path d="M580 580 c0 -11 5 -20 10 -20 6 0 10 9 10 20 0 11 -4 20 -10 20 -5 0
-10 -9 -10 -20z"/>
<path d="M105 440 c-4 -6 -4 -24 0 -40 5 -22 0 -41 -20 -75 -15 -25 -28 -45
-30 -45 -2 0 -1 26 2 58 6 52 5 56 -10 43 -11 -9 -15 -21 -11 -37 4 -15 -2
-36 -15 -57 -18 -30 -21 -50 -21 -161 l0 -126 176 2 176 3 24 80 c13 44 23
100 23 125 0 43 0 44 -12 18 -7 -15 -33 -43 -58 -62 -83 -63 -162 -83 -190
-49 -12 15 -12 16 4 10 24 -9 76 11 58 22 -18 12 2 23 32 19 16 -2 39 11 71
39 51 45 67 84 58 141 -5 40 -33 44 -30 5 2 -31 -22 -103 -34 -103 -13 0 -9
105 4 118 9 9 5 12 -21 12 -27 0 -31 -3 -26 -19 3 -11 -5 -39 -20 -66 l-25
-48 0 52 c0 29 5 61 11 72 8 17 7 23 -8 35 -26 19 -33 17 -33 -8 -1 -13 -12
-43 -25 -68 l-24 -45 -1 56 c0 40 5 60 16 70 14 12 14 14 -2 26 -21 16 -31 16
-39 3z"/>
<path d="M812 423 c-11 -4 -10 -8 1 -22 9 -9 18 -43 22 -76 l6 -60 -27 44
c-15 25 -30 57 -33 73 -6 27 -7 28 -28 13 -21 -14 -21 -18 -9 -38 11 -18 29
-127 20 -127 -9 0 -54 94 -54 114 0 21 -5 26 -25 26 -22 0 -24 -3 -15 -19 5
-11 10 -44 10 -73 l-1 -53 -25 49 c-15 29 -24 59 -21 73 4 20 1 24 -17 21 -19
-3 -21 -9 -19 -62 3 -60 39 -172 74 -232 11 -17 19 -41 19 -53 0 -20 4 -21
135 -21 l135 0 0 123 c0 106 -3 125 -20 147 -11 14 -20 40 -20 58 0 17 -4 32
-10 32 -6 0 -7 -18 -3 -45 3 -25 3 -45 0 -45 -17 0 -57 90 -55 121 3 34 -10
44 -40 32z"/>
<path d="M563 180 c6 -43 44 -171 53 -179 4 -3 9 0 11 7 3 6 9 10 14 6 11 -7
11 1 0 24 -5 9 -25 53 -46 97 -28 61 -35 72 -32 45z"/>
</g>
</svg>
