<?xml version="1.0" standalone="no"?>
<!DOCTYPE svg PUBLIC "-//W3C//DTD SVG 20010904//EN"
 "http://www.w3.org/TR/2001/REC-SVG-20010904/DTD/svg10.dtd">
<svg version="1.0" xmlns="http://www.w3.org/2000/svg"
 width="96.000000pt" height="84.000000pt" viewBox="0 0 96.000000 84.000000"
 preserveAspectRatio="xMidYMid meet">
<metadata>
Created by potrace 1.16, written by Peter Selinger 2001-2019
</metadata>
<g transform="translate(0.000000,84.000000) scale(0.100000,-0.100000)"
fill="#000000" stroke="none">
<path d="M0 615 c0 -223 0 -226 20 -215 11 6 36 26 55 45 19 19 38 35 43 35 4
0 38 -18 75 -40 57 -35 73 -40 122 -39 53 2 60 5 100 44 31 30 41 45 34 56 -6
10 -9 10 -9 2 0 -22 -20 -14 -30 11 -5 13 -13 27 -19 30 -6 4 -7 14 -4 23 4 9
2 14 -3 10 -6 -3 -16 -2 -24 3 -12 7 -12 12 3 28 11 12 17 35 17 63 0 63 16
81 81 89 62 8 106 -3 114 -30 4 -11 12 -16 23 -13 37 9 53 -28 57 -132 4 -96
-7 -149 -29 -142 -15 5 -24 43 -25 112 -1 47 -4 56 -12 42 -6 -10 -8 -25 -5
-32 3 -8 -1 -18 -8 -22 -7 -5 -20 -21 -29 -38 -13 -24 -16 -26 -17 -10 0 16
-2 17 -10 5 -6 -10 1 -24 31 -51 21 -20 39 -41 39 -48 0 -7 8 -11 18 -10 9 2
32 -1 50 -5 27 -6 45 -1 111 33 l78 40 49 -50 c26 -27 52 -49 56 -49 4 0 8
108 8 240 l0 240 -480 0 -480 0 0 -225z"/>
<path d="M105 440 c-4 -6 -4 -23 0 -39 4 -19 -2 -45 -19 -82 l-24 -54 -1 64
c-1 55 -3 62 -16 51 -9 -7 -13 -21 -9 -34 3 -12 -4 -42 -15 -66 -17 -37 -21
-66 -21 -163 l0 -117 176 2 176 3 24 80 c13 44 23 98 23 120 l0 40 -14 -27
c-17 -30 -118 -101 -169 -118 -28 -9 -40 -8 -63 4 l-28 15 26 1 c28 0 75 29
49 30 -12 0 -11 3 3 11 9 6 25 8 35 5 11 -3 35 10 65 37 50 45 65 81 59 145
-4 42 -32 44 -32 2 0 -39 -42 -124 -48 -96 -5 23 2 85 12 109 7 14 3 17 -19
17 -21 0 -25 -4 -20 -19 3 -10 -6 -42 -20 -72 l-25 -54 0 58 c0 32 5 67 11 78
8 17 7 23 -8 35 -26 19 -33 17 -33 -10 0 -13 -10 -45 -22 -72 l-23 -49 -3 59
c-2 43 1 63 13 76 16 17 15 19 -4 29 -24 14 -28 14 -36 1z"/>
<path d="M821 421 c-10 -6 -11 -13 -2 -29 6 -11 11 -45 11 -74 l-1 -53 -25 49
c-14 27 -23 57 -21 67 6 22 -10 24 -37 4 -17 -13 -17 -15 -2 -37 10 -13 16
-42 16 -73 l-1 -50 -21 40 c-12 22 -24 54 -28 70 -4 22 -12 31 -30 33 -21 3
-22 2 -11 -11 7 -9 15 -42 18 -74 l5 -58 -26 40 c-14 22 -26 55 -26 73 0 26
-4 33 -17 30 -14 -2 -19 -15 -21 -61 -3 -49 1 -62 22 -90 23 -28 31 -32 75
-32 27 0 47 3 44 8 -2 4 1 7 6 7 19 0 11 -44 -13 -73 -20 -25 -25 -27 -52 -17
-33 13 -102 76 -114 105 -19 46 -8 -53 14 -130 l24 -80 176 -3 176 -2 0 100
c0 84 -4 108 -22 143 -12 23 -21 56 -19 74 1 17 -3 34 -9 38 -6 4 -10 -12 -10
-44 0 -28 -3 -51 -7 -51 -15 0 -43 86 -40 124 2 40 -8 52 -32 37z"/>
</g>
</svg>
