<?xml version="1.0" standalone="no"?>
<!DOCTYPE svg PUBLIC "-//W3C//DTD SVG 20010904//EN"
 "http://www.w3.org/TR/2001/REC-SVG-20010904/DTD/svg10.dtd">
<svg version="1.0" xmlns="http://www.w3.org/2000/svg"
 width="96.000000pt" height="84.000000pt" viewBox="0 0 96.000000 84.000000"
 preserveAspectRatio="xMidYMid meet">
<metadata>
Created by potrace 1.16, written by Peter Selinger 2001-2019
</metadata>
<g transform="translate(0.000000,84.000000) scale(0.100000,-0.100000)"
fill="#000000" stroke="none">
<path d="M0 614 c0 -255 -7 -239 75 -163 l40 37 70 -44 c63 -39 76 -43 129
-42 55 1 61 3 101 43 29 30 40 47 34 56 -6 10 -9 11 -9 2 0 -7 -3 -13 -7 -13
-11 0 -47 63 -44 78 1 6 -7 12 -19 12 -24 0 -26 13 -5 30 10 8 15 30 15 62 0
70 27 96 104 97 48 0 62 -4 82 -24 14 -14 31 -25 38 -25 7 0 21 -9 31 -20 33
-36 29 -260 -4 -260 -15 0 -31 60 -31 119 0 40 -3 52 -10 41 -5 -8 -7 -23 -4
-33 3 -10 -1 -19 -10 -23 -9 -3 -16 -11 -16 -18 0 -6 -5 -18 -10 -26 -8 -12
-12 -13 -19 -2 -7 11 -9 11 -14 -1 -4 -10 6 -25 28 -41 18 -14 36 -34 40 -45
4 -14 19 -20 60 -25 49 -6 61 -3 130 31 l75 37 55 -54 55 -54 0 247 0 247
-480 0 -480 0 0 -226z"/>
<path d="M105 450 c-3 -5 -3 -25 1 -44 4 -23 0 -53 -12 -88 l-18 -53 -8 50
c-4 28 -6 58 -4 67 3 15 1 16 -15 7 -16 -8 -18 -17 -14 -42 4 -22 -1 -50 -14
-85 -17 -42 -21 -75 -21 -158 l0 -104 176 2 176 3 24 80 c13 44 23 98 24 120
l0 40 -18 -27 c-23 -37 -111 -101 -162 -118 -35 -12 -45 -11 -73 3 l-32 16 30
1 c31 1 80 18 58 19 -28 2 -11 21 18 21 44 0 124 70 135 118 13 56 6 102 -15
102 -14 0 -17 -6 -14 -23 3 -12 -7 -47 -20 -77 l-25 -55 -1 58 c-1 32 4 67 9
78 9 16 7 19 -13 19 -19 0 -23 -5 -23 -32 -1 -18 -9 -51 -20 -73 l-19 -40 -3
57 c-2 32 2 67 9 79 10 19 9 25 -7 36 -27 20 -31 17 -37 -29 -5 -45 -25 -104
-32 -97 -7 7 -7 113 0 136 5 15 1 24 -13 32 -14 7 -23 8 -27 1z"/>
<path d="M825 417 c-14 -11 -15 -18 -7 -33 9 -18 2 -97 -11 -110 -8 -8 -30 95
-23 111 7 19 -4 19 -32 -1 -18 -12 -20 -19 -12 -29 6 -7 10 -37 8 -67 l-4 -53
-17 37 c-9 21 -17 48 -17 62 0 22 -16 36 -42 36 -7 0 -6 -5 1 -14 7 -8 15 -41
18 -73 l5 -58 -26 40 c-14 22 -26 55 -26 73 0 20 -5 32 -14 32 -17 0 -22 -13
-25 -70 -1 -39 3 -50 29 -75 26 -25 40 -30 81 -30 27 0 49 3 49 6 0 4 7 9 15
13 23 9 18 -30 -7 -54 -32 -29 -91 -27 -144 7 -24 15 -47 37 -53 48 -20 41
-11 -48 13 -130 l24 -80 176 -3 176 -2 -1 137 c0 122 -2 134 -13 104 -7 -19
-15 -31 -18 -25 -14 21 -19 83 -9 102 8 15 6 23 -9 37 -20 18 -20 17 -21 -16
-1 -47 -15 -89 -22 -69 -22 62 -24 78 -12 108 17 38 0 60 -30 39z"/>
</g>
</svg>
