<?xml version="1.0" standalone="no"?>
<!DOCTYPE svg PUBLIC "-//W3C//DTD SVG 20010904//EN"
 "http://www.w3.org/TR/2001/REC-SVG-20010904/DTD/svg10.dtd">
<svg version="1.0" xmlns="http://www.w3.org/2000/svg"
 width="96.000000pt" height="84.000000pt" viewBox="0 0 96.000000 84.000000"
 preserveAspectRatio="xMidYMid meet">
<metadata>
Created by potrace 1.16, written by Peter Selinger 2001-2019
</metadata>
<g transform="translate(0.000000,84.000000) scale(0.100000,-0.100000)"
fill="#000000" stroke="none">
<path d="M0 620 c0 -248 -3 -240 72 -165 36 36 36 36 67 20 18 -9 52 -29 77
-45 39 -24 56 -29 106 -27 53 1 61 4 73 27 7 14 25 31 39 38 18 8 24 16 19 28
-4 11 -8 12 -13 4 -4 -7 -17 2 -34 25 -15 19 -24 40 -21 45 3 6 -1 10 -9 10
-23 0 -29 18 -12 36 9 9 16 32 16 55 0 41 14 78 34 91 6 4 39 8 74 8 54 0 66
-3 86 -25 13 -14 31 -25 39 -25 31 0 44 -41 45 -138 1 -51 -3 -105 -9 -119 -9
-24 -11 -25 -26 -11 -10 11 -17 41 -21 88 -3 44 -8 67 -13 58 -5 -7 -6 -21 -3
-31 3 -10 -1 -19 -9 -23 -8 -3 -17 -14 -20 -25 -3 -12 -11 -17 -20 -13 -28 10
-27 -25 1 -45 15 -11 34 -31 42 -45 7 -15 21 -26 29 -25 9 1 33 -1 53 -5 32
-7 48 -3 107 28 39 20 75 36 82 36 6 0 29 -20 51 -45 22 -25 44 -45 49 -45 5
0 9 102 9 240 l0 240 -480 0 -480 0 0 -220z"/>
<path d="M97 448 c-2 -7 0 -23 6 -35 11 -24 0 -133 -13 -133 -10 0 -26 85 -22
115 2 19 2 19 -14 3 -11 -11 -17 -36 -19 -75 -1 -32 -5 -69 -10 -83 l-9 -25
-7 25 c-4 14 -7 -35 -8 -108 l-1 -132 176 2 176 3 24 80 c13 44 23 98 23 120
l0 40 -14 -26 c-27 -50 -155 -129 -209 -129 -12 0 -31 6 -42 14 -18 14 -17 15
12 14 39 -1 55 8 47 27 -4 11 3 15 27 15 45 0 125 69 136 118 13 55 6 102 -14
102 -13 0 -17 -10 -18 -38 -1 -20 -10 -55 -20 -77 l-19 -40 -3 57 c-2 32 2 67
8 78 9 18 8 20 -15 20 -16 0 -24 -4 -19 -11 8 -13 -15 -129 -26 -129 -12 0
-21 110 -10 130 14 25 14 25 -15 44 -25 17 -26 16 -23 -6 1 -13 -1 -47 -6 -76
-11 -73 -27 -54 -31 36 -1 38 -6 75 -9 81 -10 15 -33 14 -39 -1z"/>
<path d="M828 419 c-13 -7 -16 -17 -12 -38 8 -37 -15 -111 -27 -89 -11 20 -15
81 -5 96 10 17 -5 15 -32 -4 -18 -12 -20 -19 -12 -30 7 -8 9 -28 5 -51 -10
-64 -21 -70 -34 -18 -6 25 -9 51 -5 57 6 9 -12 27 -26 28 -3 0 -4 -30 -3 -67
l4 -68 -22 40 c-13 22 -22 52 -21 68 2 17 -3 27 -12 27 -19 0 -23 -15 -22 -74
1 -44 5 -52 44 -85 26 -23 52 -36 72 -37 36 -1 50 -12 31 -23 -16 -10 8 -21
45 -21 32 0 31 -18 -2 -30 -20 -8 -36 -5 -78 15 -71 34 -135 81 -146 108 -20
50 -9 -60 14 -138 l24 -80 176 -3 176 -2 0 147 -1 148 -24 -45 -24 -45 -1 56
c0 30 5 60 10 65 7 7 4 16 -10 29 -19 18 -20 18 -21 -1 0 -10 -8 -37 -18 -59
l-18 -40 -7 48 c-6 36 -4 54 8 72 9 13 13 31 10 39 -7 18 -13 19 -36 5z"/>
<path d="M951 314 c0 -11 3 -14 6 -6 3 7 2 16 -1 19 -3 4 -6 -2 -5 -13z"/>
</g>
</svg>
