<?xml version="1.0" standalone="no"?>
<!DOCTYPE svg PUBLIC "-//W3C//DTD SVG 20010904//EN"
 "http://www.w3.org/TR/2001/REC-SVG-20010904/DTD/svg10.dtd">
<svg version="1.0" xmlns="http://www.w3.org/2000/svg"
 width="96.000000pt" height="84.000000pt" viewBox="0 0 96.000000 84.000000"
 preserveAspectRatio="xMidYMid meet">
<metadata>
Created by potrace 1.16, written by Peter Selinger 2001-2019
</metadata>
<g transform="translate(0.000000,84.000000) scale(0.100000,-0.100000)"
fill="#000000" stroke="none">
<path d="M0 620 c0 -121 2 -220 5 -220 3 0 28 21 55 46 l50 46 73 -45 c68 -43
78 -46 135 -44 53 1 63 4 74 25 7 13 25 30 40 38 27 14 31 48 4 38 -16 -6 -57
51 -50 71 4 11 2 14 -9 9 -22 -8 -31 15 -13 35 10 11 16 35 16 63 0 68 21 88
98 94 58 4 65 2 90 -23 15 -15 33 -28 41 -28 8 0 22 -11 32 -25 17 -23 20 -38
18 -95 0 -11 0 -43 2 -70 1 -28 -3 -61 -10 -74 -21 -38 -42 -6 -51 80 -4 41
-8 59 -9 41 0 -18 -7 -35 -15 -38 -8 -3 -17 -17 -21 -32 -5 -20 -8 -23 -16
-11 -7 12 -10 12 -18 0 -6 -9 3 -25 30 -52 22 -22 39 -43 39 -48 0 -4 26 -11
59 -15 55 -6 62 -4 134 34 l75 41 32 -41 c18 -22 41 -45 51 -51 18 -9 19 -2
19 231 l0 240 -480 0 -480 0 0 -220z"/>
<path d="M94 446 c-3 -8 1 -25 9 -38 10 -17 12 -39 7 -83 -6 -60 -6 -60 -19
-30 -7 17 -16 49 -18 72 -5 41 -6 42 -29 26 -19 -12 -22 -19 -14 -33 11 -21
13 -100 3 -126 -5 -14 -9 -11 -19 17 -11 30 -13 17 -13 -108 l-1 -143 175 0
c132 0 176 3 179 13 2 6 13 44 25 83 11 39 21 88 21 110 l-1 39 -14 -26 c-17
-31 -104 -98 -162 -123 -36 -16 -47 -17 -73 -6 -33 14 -41 31 -11 23 24 -6 62
13 58 30 -1 7 9 12 24 12 42 1 122 75 135 124 6 23 8 43 4 46 -4 2 -5 16 -2
30 3 20 0 25 -15 25 -16 0 -19 -5 -16 -24 3 -14 -3 -49 -13 -78 l-18 -53 -8
59 c-5 35 -4 65 3 77 8 16 6 19 -16 19 -16 0 -24 -4 -20 -11 8 -13 -4 -129
-14 -129 -13 0 -31 111 -21 130 7 13 3 23 -16 40 l-24 24 5 -30 c3 -16 2 -51
-3 -79 l-8 -50 -18 53 c-10 31 -16 66 -12 83 4 22 1 31 -14 39 -25 13 -30 13
-36 -4z"/>
<path d="M834 418 c-15 -7 -19 -16 -16 -37 2 -16 -5 -45 -16 -66 l-19 -38 -7
42 c-3 24 -2 50 4 61 12 23 3 25 -23 5 -14 -10 -17 -21 -13 -42 3 -17 -1 -43
-13 -68 l-18 -40 -7 47 c-4 27 -4 53 0 59 3 6 0 15 -7 20 -24 15 -30 10 -24
-23 3 -18 2 -51 -3 -73 l-8 -40 -17 49 c-9 27 -14 59 -11 72 4 17 2 24 -9 24
-17 0 -30 -63 -21 -106 6 -32 79 -94 110 -94 27 0 46 -14 42 -31 -2 -8 10 -18
30 -24 18 -5 31 -14 29 -20 -8 -23 -49 -14 -117 24 -94 54 -112 67 -127 93
-12 22 -12 22 -13 -11 0 -19 10 -66 21 -105 12 -39 23 -77 25 -83 3 -10 47
-13 179 -13 l175 0 -1 168 c-1 92 -4 154 -8 137 -6 -31 -41 -95 -51 -95 -11 0
6 98 20 115 11 13 10 18 -6 30 -17 12 -20 11 -25 -8 -3 -12 -16 -38 -27 -57
l-22 -35 0 56 c0 38 5 61 15 69 30 25 15 54 -21 38z"/>
</g>
</svg>
