<?xml version="1.0" standalone="no"?>
<!DOCTYPE svg PUBLIC "-//W3C//DTD SVG 20010904//EN"
 "http://www.w3.org/TR/2001/REC-SVG-20010904/DTD/svg10.dtd">
<svg version="1.0" xmlns="http://www.w3.org/2000/svg"
 width="96.000000pt" height="84.000000pt" viewBox="0 0 96.000000 84.000000"
 preserveAspectRatio="xMidYMid meet">
<metadata>
Created by potrace 1.16, written by Peter Selinger 2001-2019
</metadata>
<g transform="translate(0.000000,84.000000) scale(0.100000,-0.100000)"
fill="#000000" stroke="none">
<path d="M0 620 c0 -121 2 -220 5 -220 3 0 27 20 54 45 l48 45 74 -45 c67 -40
80 -44 135 -44 56 1 62 3 78 29 9 16 25 32 36 35 11 4 20 15 20 27 0 17 -2 18
-15 8 -13 -11 -17 -8 -26 19 -6 17 -15 31 -21 31 -5 0 -6 10 -3 21 5 14 3 19
-3 15 -6 -3 -17 -3 -26 0 -14 5 -14 9 3 30 13 16 19 40 19 72 0 65 32 92 108
92 47 0 59 -4 82 -27 15 -15 32 -27 38 -25 31 6 71 -82 52 -114 -4 -5 -2 -30
3 -56 8 -36 7 -54 -5 -83 -9 -20 -20 -34 -25 -30 -14 8 -31 72 -32 125 -2 33
-3 37 -6 15 -2 -16 -10 -35 -17 -40 -7 -6 -16 -21 -21 -34 -5 -18 -9 -21 -16
-10 -8 12 -10 12 -18 0 -7 -11 1 -25 30 -53 21 -21 39 -42 39 -47 0 -4 26 -11
59 -15 55 -6 62 -4 134 34 l75 41 51 -53 51 -53 0 243 0 242 -480 0 -480 0 0
-220z"/>
<path d="M94 445 c-4 -8 1 -26 10 -40 16 -25 19 -71 7 -114 -5 -20 -9 -17 -26
30 -10 30 -18 62 -16 73 3 18 2 18 -23 0 -28 -21 -31 -30 -16 -39 6 -3 10 -36
9 -73 l-1 -67 -19 40 -18 40 -1 -147 0 -148 175 0 c132 0 176 3 179 13 2 6 13
44 25 83 11 39 21 88 21 110 l0 39 -19 -31 c-10 -17 -41 -46 -67 -66 -93 -68
-141 -82 -179 -55 -16 13 -14 15 23 21 38 6 60 26 30 26 -7 0 -5 5 5 11 9 6
26 8 36 4 13 -4 34 8 71 43 l53 48 1 64 c1 54 -2 65 -16 68 -15 3 -17 -2 -12
-27 4 -16 0 -54 -7 -83 -12 -52 -13 -52 -21 -23 -11 42 -13 97 -4 118 7 13 3
17 -15 17 -23 0 -24 -2 -21 -70 2 -38 0 -70 -5 -70 -16 0 -43 100 -33 125 7
17 4 27 -9 39 -10 9 -20 16 -22 16 -3 0 -3 -27 -1 -59 2 -33 2 -65 -1 -73 -8
-23 -49 85 -44 118 4 22 0 33 -14 42 -24 15 -28 15 -35 -3z"/>
<path d="M838 419 c-11 -6 -18 -22 -18 -40 0 -16 -10 -49 -22 -72 l-23 -42 -3
47 c-2 26 2 56 8 68 12 23 3 25 -24 5 -13 -10 -17 -21 -12 -38 5 -23 -27 -117
-41 -117 -3 0 -3 29 -1 65 3 48 0 66 -10 70 -22 8 -25 6 -19 -21 2 -14 -1 -47
-8 -72 -10 -39 -14 -44 -21 -27 -4 11 -8 44 -9 72 0 57 -14 65 -27 18 -14 -55
0 -97 46 -132 24 -18 48 -33 54 -33 6 0 23 -5 39 -11 20 -7 24 -12 14 -18 -10
-7 -8 -12 10 -25 13 -9 32 -16 42 -16 10 0 15 -4 12 -10 -10 -17 -69 -11 -95
10 -14 11 -29 20 -33 20 -17 0 -112 71 -124 92 -12 22 -12 22 -13 -11 0 -19
10 -66 21 -105 12 -39 23 -77 25 -83 3 -10 47 -13 179 -13 l175 0 0 143 c-1
142 -1 142 -20 117 -53 -70 -51 -69 -44 -20 7 46 20 81 36 91 4 3 -3 16 -17
29 l-25 23 0 -22 c0 -22 -40 -101 -51 -101 -10 0 7 105 21 127 18 28 4 47 -22
32z"/>
</g>
</svg>
