<?xml version="1.0" standalone="no"?>
<!DOCTYPE svg PUBLIC "-//W3C//DTD SVG 20010904//EN"
 "http://www.w3.org/TR/2001/REC-SVG-20010904/DTD/svg10.dtd">
<svg version="1.0" xmlns="http://www.w3.org/2000/svg"
 width="96.000000pt" height="84.000000pt" viewBox="0 0 96.000000 84.000000"
 preserveAspectRatio="xMidYMid meet">
<metadata>
Created by potrace 1.16, written by Peter Selinger 2001-2019
</metadata>
<g transform="translate(0.000000,84.000000) scale(0.100000,-0.100000)"
fill="#000000" stroke="none">
<path d="M0 620 c0 -121 3 -220 7 -220 4 0 27 19 51 43 l43 42 42 -24 c101
-58 130 -68 183 -64 43 4 54 9 63 29 6 13 22 29 36 36 14 6 25 19 25 30 0 20
-16 25 -23 6 -3 -8 -9 -2 -15 14 -6 14 -16 29 -21 33 -6 3 -11 15 -11 26 0 10
-3 18 -7 18 -30 -5 -33 3 -14 29 12 17 18 37 15 50 -8 29 14 90 36 102 10 6
46 10 79 10 52 0 62 -3 79 -25 11 -14 29 -25 40 -25 11 0 25 -7 32 -15 17 -20
29 -80 19 -97 -4 -8 -3 -34 2 -59 12 -50 -4 -123 -24 -116 -18 5 -36 65 -37
122 0 32 -3 45 -9 36 -5 -7 -6 -22 -4 -32 3 -11 -1 -21 -10 -25 -8 -3 -18 -17
-22 -31 -5 -20 -9 -22 -20 -13 -9 8 -15 8 -20 0 -4 -6 12 -29 34 -50 23 -22
41 -44 41 -49 0 -4 25 -11 56 -15 53 -6 62 -4 137 35 l81 42 29 -37 c16 -20
38 -41 48 -47 18 -9 19 -2 19 226 l0 235 -480 0 -480 0 0 -220z"/>
<path d="M87 438 c-2 -7 1 -20 8 -28 14 -17 30 -140 18 -140 -15 0 -54 105
-47 126 5 15 1 13 -22 -8 -22 -22 -26 -30 -16 -40 7 -7 12 -38 12 -72 l-1 -61
-19 35 -19 35 -1 -142 0 -143 175 0 c132 0 176 3 179 13 2 6 11 39 21 72 10
33 20 83 22 110 l4 50 -20 -32 c-23 -37 -109 -102 -167 -127 -38 -17 -44 -17
-73 -2 -34 18 -42 30 -13 22 9 -3 31 1 47 9 17 7 24 14 18 14 -7 1 -13 6 -13
11 0 6 17 10 38 10 29 0 45 7 67 30 28 29 28 29 15 89 -7 33 -10 71 -6 85 5
22 3 26 -17 26 -22 0 -22 -2 -19 -77 3 -49 0 -74 -5 -68 -19 20 -44 105 -38
125 4 14 1 28 -11 41 -23 25 -38 24 -24 -1 6 -11 10 -44 8 -73 l-3 -52 -22 45
c-13 25 -23 61 -23 81 0 24 -5 39 -16 43 -23 9 -32 7 -37 -6z"/>
<path d="M831 416 c-6 -7 -10 -24 -10 -37 1 -13 -9 -46 -22 -74 l-24 -50 -3
52 c-2 29 2 62 8 73 12 23 3 25 -23 6 -12 -10 -16 -21 -12 -38 4 -14 -3 -44
-19 -78 l-26 -55 2 75 c3 69 1 75 -17 75 -15 0 -19 -6 -17 -24 5 -31 -18 -111
-30 -111 -6 0 -9 28 -6 70 4 72 -9 90 -24 35 -15 -58 0 -100 52 -139 26 -20
59 -36 73 -36 28 0 44 -15 25 -23 -17 -7 7 -25 45 -34 33 -7 31 -27 -4 -31
-34 -3 -197 95 -221 133 l-18 30 0 -38 c0 -21 10 -68 22 -105 12 -37 23 -73
24 -79 3 -10 47 -13 179 -13 l175 0 -1 138 c0 120 -2 135 -14 117 -45 -64 -46
-64 -39 -5 3 30 13 63 22 73 8 9 13 18 11 20 -2 1 -15 11 -28 22 -22 18 -24
18 -18 2 4 -11 -4 -37 -23 -70 l-30 -52 0 56 c0 40 5 63 19 80 28 37 2 71 -28
35z"/>
<path d="M325 300 c-1 -66 1 -78 12 -67 17 16 25 118 11 135 -19 23 -23 12
-23 -68z"/>
</g>
</svg>
