<?xml version="1.0" standalone="no"?>
<!DOCTYPE svg PUBLIC "-//W3C//DTD SVG 20010904//EN"
 "http://www.w3.org/TR/2001/REC-SVG-20010904/DTD/svg10.dtd">
<svg version="1.0" xmlns="http://www.w3.org/2000/svg"
 width="96.000000pt" height="84.000000pt" viewBox="0 0 96.000000 84.000000"
 preserveAspectRatio="xMidYMid meet">
<metadata>
Created by potrace 1.16, written by Peter Selinger 2001-2019
</metadata>
<g transform="translate(0.000000,84.000000) scale(0.100000,-0.100000)"
fill="#000000" stroke="none">
<path d="M0 613 l0 -227 49 48 49 48 73 -43 c66 -39 81 -44 136 -44 57 0 63 2
78 28 9 16 28 33 41 39 24 11 32 32 15 42 -5 4 -11 0 -14 -6 -3 -8 -9 -2 -15
12 -5 14 -17 32 -25 39 -9 7 -13 20 -10 28 4 9 2 14 -3 10 -6 -3 -16 -2 -24 3
-12 7 -12 12 3 28 11 12 17 35 17 64 0 31 7 54 21 72 18 23 27 26 88 26 59 0
70 -3 91 -25 13 -14 31 -25 41 -25 9 0 22 -6 28 -14 19 -23 31 -77 21 -95 -5
-11 -5 -35 1 -62 7 -31 7 -55 -1 -81 -20 -70 -51 -37 -58 63 -3 39 -8 65 -12
59 -4 -7 -5 -21 -3 -31 3 -10 0 -19 -6 -19 -6 0 -18 -14 -27 -31 -11 -22 -18
-28 -24 -19 -5 9 -9 9 -15 1 -4 -7 11 -29 34 -51 23 -22 41 -45 41 -51 0 -6
10 -9 23 -8 12 1 37 -1 54 -5 27 -6 47 0 116 35 l83 42 47 -49 47 -49 0 238 0
237 -480 0 -480 0 0 -227z"/>
<path d="M86 434 c-4 -9 0 -24 9 -34 10 -11 15 -36 14 -81 l-1 -64 -24 50
c-13 28 -24 61 -24 74 l0 24 -25 -23 c-23 -21 -24 -25 -9 -41 11 -12 14 -33
12 -75 l-3 -59 -17 35 c-16 35 -16 33 -17 -102 l-1 -138 175 0 c132 0 176 3
179 13 2 6 11 39 21 72 10 33 19 80 21 105 4 41 3 43 -10 26 -9 -10 -17 -22
-18 -25 -7 -14 -96 -80 -137 -101 -31 -16 -53 -20 -77 -15 -40 7 -55 25 -22
25 24 1 82 29 61 30 -7 0 -13 5 -13 11 0 8 12 10 34 6 29 -5 38 0 70 32 l36
37 -16 47 c-9 26 -14 61 -12 77 4 25 1 30 -17 30 -20 0 -21 -4 -17 -59 6 -83
-2 -94 -27 -36 -15 33 -20 60 -16 81 4 25 1 34 -17 46 l-23 15 3 -76 3 -76
-26 54 c-18 37 -24 63 -20 82 5 21 2 30 -14 38 -26 14 -28 14 -35 -5z"/>
<path d="M832 421 c-8 -5 -11 -17 -7 -33 4 -16 -3 -43 -19 -79 l-25 -54 2 73
c1 39 0 72 -3 72 -3 0 -13 -7 -23 -15 -13 -9 -17 -20 -12 -35 4 -13 0 -41 -10
-68 -29 -77 -37 -74 -33 8 3 69 1 75 -17 75 -16 0 -19 -6 -17 -28 2 -15 -4
-48 -14 -74 l-18 -46 34 -29 c19 -15 43 -28 55 -28 11 0 27 -5 35 -10 12 -8
13 -12 2 -19 -10 -6 -4 -13 21 -25 19 -9 40 -16 47 -16 6 0 8 -4 5 -10 -12
-19 -67 -10 -111 17 -24 16 -65 42 -91 58 -26 17 -53 41 -60 55 -13 23 -13 22
-10 -20 1 -25 11 -72 21 -105 10 -33 20 -66 22 -72 3 -10 47 -13 179 -13 l175
0 0 133 -1 132 -20 -37 c-11 -21 -22 -38 -25 -38 -10 0 7 124 19 138 8 10 5
19 -11 35 l-22 21 0 -21 c0 -11 -10 -42 -22 -69 l-23 -49 -3 57 c-2 40 2 65
13 82 24 36 3 60 -33 37z"/>
<path d="M326 359 c4 -7 6 -39 5 -73 -2 -74 18 -66 23 10 3 58 -1 74 -21 74
-8 0 -11 -5 -7 -11z"/>
<path d="M609 358 c-5 -70 -1 -128 11 -128 5 0 9 24 7 53 -1 28 2 60 7 70 6
12 4 17 -8 17 -9 0 -16 -6 -17 -12z"/>
</g>
</svg>
