<?xml version="1.0" standalone="no"?>
<!DOCTYPE svg PUBLIC "-//W3C//DTD SVG 20010904//EN"
 "http://www.w3.org/TR/2001/REC-SVG-20010904/DTD/svg10.dtd">
<svg version="1.0" xmlns="http://www.w3.org/2000/svg"
 width="96.000000pt" height="84.000000pt" viewBox="0 0 96.000000 84.000000"
 preserveAspectRatio="xMidYMid meet">
<metadata>
Created by potrace 1.16, written by Peter Selinger 2001-2019
</metadata>
<g transform="translate(0.000000,84.000000) scale(0.100000,-0.100000)"
fill="#000000" stroke="none">
<path d="M505 796 c-13 -8 -35 -12 -60 -9 -57 7 -97 5 -108 -6 -11 -11 12 -91
29 -98 7 -2 10 -17 8 -36 -2 -18 -5 -54 -8 -82 -2 -27 -11 -72 -20 -98 -9 -26
-16 -72 -16 -103 0 -30 -6 -70 -14 -88 -8 -19 -14 -57 -14 -86 -1 -29 -4 -76
-7 -105 -10 -76 8 -78 45 -4 37 73 60 170 60 257 0 40 4 61 10 57 6 -3 10 -37
10 -74 0 -59 -34 -196 -77 -307 -4 -12 19 -14 147 -14 139 0 151 1 146 18 -23
80 -27 107 -18 126 21 42 19 90 -5 161 -13 38 -22 83 -20 98 2 18 -1 31 -10
34 -7 3 -13 17 -13 32 0 14 -11 43 -24 62 -22 32 -24 40 -14 73 6 20 18 36 26
36 9 0 12 6 8 15 -3 8 -9 22 -12 30 -4 9 -1 15 9 15 18 0 29 78 14 98 -13 16
-48 15 -72 -2z"/>
</g>
</svg>
