<?xml version="1.0" standalone="no"?>
<!DOCTYPE svg PUBLIC "-//W3C//DTD SVG 20010904//EN"
 "http://www.w3.org/TR/2001/REC-SVG-20010904/DTD/svg10.dtd">
<svg version="1.0" xmlns="http://www.w3.org/2000/svg"
 width="96.000000pt" height="84.000000pt" viewBox="0 0 96.000000 84.000000"
 preserveAspectRatio="xMidYMid meet">
<metadata>
Created by potrace 1.16, written by Peter Selinger 2001-2019
</metadata>
<g transform="translate(0.000000,84.000000) scale(0.100000,-0.100000)"
fill="#000000" stroke="none">
<path d="M0 613 l0 -227 48 47 48 47 74 -45 c70 -41 80 -44 137 -42 56 2 63 5
78 30 9 16 28 33 41 39 25 12 32 32 14 43 -5 3 -10 1 -10 -6 0 -8 -4 -8 -15 1
-8 7 -15 18 -15 25 0 7 -6 18 -14 25 -8 6 -12 18 -9 26 3 8 2 14 -3 13 -5 -1
-18 -1 -28 0 -19 1 -18 2 2 24 15 16 22 36 22 65 0 49 17 90 39 96 17 5 95 10
124 7 9 0 27 -12 38 -25 12 -14 27 -22 33 -20 31 12 75 -81 56 -117 -5 -8 -4
-35 1 -60 12 -51 -3 -119 -26 -119 -18 0 -35 60 -35 125 0 35 -3 46 -10 35 -5
-8 -7 -25 -3 -37 3 -16 1 -23 -10 -23 -8 0 -20 -14 -28 -32 -11 -26 -14 -28
-19 -13 -5 13 -9 15 -14 6 -5 -7 8 -27 33 -51 23 -22 41 -44 41 -50 0 -5 17
-10 38 -10 20 -1 51 -2 67 -2 17 -1 48 10 70 23 22 14 55 31 73 38 32 13 33
13 68 -28 20 -22 40 -41 45 -41 5 0 9 96 9 230 l0 230 -480 0 -480 0 0 -227z"/>
<path d="M83 434 c-3 -9 1 -28 10 -43 12 -20 14 -40 9 -81 l-7 -55 -22 52
c-12 30 -19 62 -16 75 l6 23 -26 -24 c-24 -21 -25 -26 -13 -50 7 -15 11 -48 8
-81 -4 -54 -4 -54 -17 -25 -12 27 -13 16 -14 -98 l-1 -127 176 2 177 3 13 50
c36 130 42 208 13 152 -17 -31 -106 -101 -157 -123 -43 -18 -86 -18 -101 0 -9
11 -4 15 29 20 22 3 40 11 40 16 0 6 -5 10 -11 10 -5 0 -7 5 -3 11 4 6 20 9
39 6 28 -5 38 0 69 32 l36 37 -18 55 c-13 36 -16 62 -11 77 7 20 5 22 -22 22
-27 0 -29 -2 -19 -21 7 -12 9 -41 4 -76 l-7 -56 -19 49 c-11 28 -17 62 -14 81
4 30 -6 47 -42 68 -11 6 -12 3 -3 -13 13 -24 14 -101 3 -119 -12 -19 -45 82
-39 116 5 23 2 30 -19 40 -20 9 -26 8 -31 -5z"/>
<path d="M833 424 c-7 -3 -10 -18 -6 -39 3 -19 -2 -55 -13 -86 l-18 -54 -9 59
c-5 39 -5 68 2 83 10 22 9 23 -9 13 -26 -14 -35 -30 -31 -63 1 -15 -5 -51 -15
-80 l-18 -52 -8 59 c-4 34 -4 66 2 76 8 15 6 20 -10 25 -28 9 -38 0 -33 -29 3
-14 -3 -46 -13 -72 l-18 -47 32 -28 c18 -16 42 -29 55 -29 31 0 49 -14 42 -32
-6 -15 31 -38 62 -38 13 0 14 -3 6 -11 -6 -6 -22 -11 -36 -11 -31 0 -162 75
-205 118 l-33 33 4 -37 c1 -20 11 -64 21 -97 10 -33 20 -66 22 -72 3 -10 47
-13 179 -13 l175 0 -1 113 c0 91 -2 107 -11 87 -11 -23 -12 -20 -18 35 -5 44
-3 66 7 83 8 13 13 25 11 25 -2 1 -14 11 -27 22 -21 17 -24 18 -18 3 5 -15 -8
-70 -30 -118 -4 -8 -10 11 -13 45 -5 44 -3 66 7 83 23 37 5 61 -34 46z"/>
<path d="M324 354 c3 -9 6 -41 6 -72 0 -39 3 -53 10 -46 6 6 11 33 12 60 1 70
0 74 -18 74 -11 0 -14 -5 -10 -16z"/>
<path d="M613 353 c-8 -17 -9 -30 -5 -95 3 -51 19 -29 18 25 0 28 3 60 8 70 5
11 4 17 -3 17 -5 0 -14 -8 -18 -17z"/>
</g>
</svg>
