<?xml version="1.0" standalone="no"?>
<!DOCTYPE svg PUBLIC "-//W3C//DTD SVG 20010904//EN"
 "http://www.w3.org/TR/2001/REC-SVG-20010904/DTD/svg10.dtd">
<svg version="1.0" xmlns="http://www.w3.org/2000/svg"
 width="96.000000pt" height="84.000000pt" viewBox="0 0 96.000000 84.000000"
 preserveAspectRatio="xMidYMid meet">
<metadata>
Created by potrace 1.16, written by Peter Selinger 2001-2019
</metadata>
<g transform="translate(0.000000,84.000000) scale(0.100000,-0.100000)"
fill="#000000" stroke="none">
<path d="M0 613 l0 -227 43 42 c23 23 47 42 53 42 6 0 40 -18 76 -40 61 -36
71 -39 132 -38 36 1 66 6 66 10 0 4 18 26 41 48 23 22 38 44 34 51 -6 8 -10 8
-15 -1 -10 -17 -30 -4 -30 19 0 10 -6 24 -14 31 -8 6 -12 19 -9 27 4 10 2 14
-4 10 -6 -4 -18 -4 -27 -1 -14 5 -13 9 4 31 14 18 20 41 20 73 0 75 20 91 109
93 66 2 74 0 93 -23 11 -14 25 -25 32 -25 42 -3 78 -74 57 -113 -6 -12 -6 -34
0 -63 11 -45 -1 -112 -21 -124 -17 -10 -40 61 -40 122 0 40 -3 53 -10 43 -5
-8 -7 -25 -3 -37 3 -16 1 -23 -9 -23 -8 0 -22 -15 -31 -32 -10 -22 -16 -27
-16 -15 -1 10 -5 15 -11 12 -18 -11 -11 -31 14 -43 13 -6 32 -24 41 -40 16
-26 25 -30 77 -36 55 -5 63 -3 138 37 l79 42 45 -45 46 -44 0 232 0 232 -480
0 -480 0 0 -227z"/>
<path d="M77 428 c-2 -7 3 -23 11 -35 10 -17 12 -38 7 -84 l-7 -62 -14 33 c-8
18 -17 51 -21 72 -6 39 -6 39 -25 20 -17 -16 -18 -23 -8 -42 14 -27 4 -142
-11 -119 -5 9 -9 -29 -9 -99 l0 -112 176 2 177 3 13 50 c22 81 35 148 29 154
-3 3 -16 -6 -28 -20 -47 -55 -165 -129 -205 -129 -11 0 -30 9 -43 19 -22 18
-23 20 -4 19 30 -2 75 11 75 22 0 6 -6 10 -12 10 -9 0 -8 4 2 10 8 6 26 8 40
5 20 -4 33 3 63 33 l38 39 -20 49 c-10 28 -17 62 -14 77 5 23 2 27 -19 27 -24
0 -24 -2 -20 -54 2 -29 0 -62 -6 -71 -8 -15 -12 -10 -25 33 -8 28 -12 63 -9
77 3 18 -1 30 -14 40 -28 21 -29 19 -26 -30 2 -25 1 -58 -3 -73 -7 -26 -8 -24
-26 26 -13 38 -16 60 -9 77 8 20 6 27 -10 35 -25 13 -37 13 -43 -2z"/>
<path d="M842 424 c-17 -12 -20 -19 -12 -34 10 -19 -5 -115 -21 -133 -10 -12
-22 107 -14 134 6 16 4 20 -6 14 -38 -22 -48 -37 -39 -61 7 -16 4 -41 -9 -81
l-18 -58 -8 47 c-4 27 -5 61 -3 78 3 19 0 31 -10 35 -27 10 -33 5 -30 -27 1
-18 -7 -54 -17 -81 -10 -26 -16 -49 -14 -50 2 -2 19 -15 37 -30 19 -15 37 -25
42 -22 5 3 21 0 36 -6 23 -8 25 -12 14 -20 -13 -8 -13 -10 0 -19 8 -6 27 -13
43 -17 15 -3 27 -9 27 -13 0 -12 -46 -21 -66 -13 -38 14 -150 87 -182 117
l-33 31 4 -35 c2 -19 12 -62 22 -95 9 -33 19 -66 21 -72 3 -10 47 -13 179 -13
l175 0 0 78 c0 42 -7 110 -15 150 -12 55 -13 78 -4 94 9 17 7 24 -10 41 l-21
21 -1 -34 c0 -19 -6 -53 -13 -75 -10 -32 -13 -36 -18 -20 -16 52 -18 98 -7
130 16 44 3 62 -29 39z"/>
<path d="M318 357 c6 -7 12 -42 14 -77 l3 -65 10 45 c15 64 8 110 -17 110 -16
0 -18 -3 -10 -13z"/>
<path d="M612 353 c-12 -23 -6 -113 8 -127 8 -8 11 4 9 44 -1 30 1 65 5 78 9
26 -9 30 -22 5z"/>
</g>
</svg>
