<?xml version="1.0" standalone="no"?>
<!DOCTYPE svg PUBLIC "-//W3C//DTD SVG 20010904//EN"
 "http://www.w3.org/TR/2001/REC-SVG-20010904/DTD/svg10.dtd">
<svg version="1.0" xmlns="http://www.w3.org/2000/svg"
 width="96.000000pt" height="84.000000pt" viewBox="0 0 96.000000 84.000000"
 preserveAspectRatio="xMidYMid meet">
<metadata>
Created by potrace 1.16, written by Peter Selinger 2001-2019
</metadata>
<g transform="translate(0.000000,84.000000) scale(0.100000,-0.100000)"
fill="#000000" stroke="none">
<path d="M0 613 l0 -227 44 43 44 43 87 -46 c62 -33 94 -44 109 -40 12 4 36 6
54 6 18 -1 32 4 32 10 0 6 18 28 41 49 24 22 38 42 34 49 -6 9 -9 9 -15 0 -10
-17 -30 -4 -30 19 0 10 -7 24 -15 31 -9 7 -14 19 -11 27 3 8 2 12 -3 8 -5 -3
-16 -2 -25 1 -14 5 -13 9 2 32 10 15 17 47 18 76 1 70 29 93 114 94 54 1 65
-2 89 -26 14 -14 35 -26 46 -27 29 0 61 -70 49 -104 -6 -16 -7 -42 -2 -66 10
-46 4 -93 -16 -121 -14 -18 -15 -17 -30 18 -9 21 -16 63 -16 95 0 38 -3 53 -9
44 -5 -8 -7 -21 -3 -29 3 -8 -2 -20 -10 -26 -8 -6 -22 -24 -31 -41 -12 -21
-16 -25 -17 -12 0 10 -4 15 -10 12 -18 -11 -11 -31 14 -43 13 -6 32 -24 41
-40 15 -25 26 -31 74 -36 53 -7 61 -5 138 36 l82 43 45 -45 46 -44 0 232 0
232 -480 0 -480 0 0 -227z"/>
<path d="M77 428 c-2 -7 1 -24 8 -38 11 -20 11 -37 1 -85 l-13 -60 -13 45 c-7
25 -13 55 -14 67 -1 27 -9 29 -26 8 -9 -11 -10 -22 -3 -38 7 -15 6 -41 -3 -82
-7 -33 -13 -102 -13 -153 l-1 -92 176 2 177 3 14 50 c8 28 16 75 19 105 6 52
5 54 -10 33 -21 -28 -111 -94 -159 -116 -46 -20 -64 -21 -95 -4 -21 12 -20 13
25 26 27 7 42 15 36 18 -26 10 -12 23 24 23 29 0 45 8 74 36 l36 36 -19 50
c-12 32 -17 61 -13 79 6 26 4 29 -17 29 -22 0 -23 -4 -25 -59 -2 -90 -17 -107
-31 -34 -6 32 -10 69 -9 82 1 15 -6 29 -22 39 -23 16 -23 15 -17 -6 4 -12 2
-48 -5 -80 l-12 -57 -14 45 c-8 25 -12 61 -10 82 5 36 -6 58 -29 58 -7 0 -14
-6 -17 -12z"/>
<path d="M850 430 c-9 -6 -14 -32 -15 -83 -1 -41 -6 -81 -11 -88 -11 -18 -35
88 -28 125 6 28 6 28 -17 13 -19 -14 -23 -26 -25 -79 -1 -35 -6 -74 -12 -88
-9 -23 -10 -20 -21 32 -7 32 -10 67 -6 78 5 17 2 20 -20 20 -23 0 -26 -3 -21
-22 3 -13 -2 -47 -11 -76 l-17 -52 29 -30 c20 -21 38 -30 61 -30 34 0 53 -15
32 -23 -17 -7 7 -25 45 -34 15 -3 27 -9 27 -13 0 -9 -25 -20 -47 -20 -22 0
-171 90 -205 124 l-29 28 4 -33 c2 -19 12 -61 22 -94 9 -33 19 -66 21 -72 3
-10 47 -13 180 -13 l176 0 -6 133 c-4 72 -8 151 -9 174 -1 23 -9 49 -17 57
-13 14 -15 9 -17 -40 -4 -86 -17 -97 -35 -28 -12 49 -12 64 -2 91 11 25 11 33
1 41 -7 7 -18 7 -27 2z"/>
<path d="M320 349 c8 -14 10 -43 7 -76 -7 -63 8 -71 20 -10 12 55 2 101 -21
105 -15 3 -16 1 -6 -19z"/>
<path d="M608 333 c-3 -48 3 -98 13 -107 5 -6 9 11 9 46 0 31 3 63 6 72 4 11
1 16 -10 16 -10 0 -17 -10 -18 -27z"/>
</g>
</svg>
