<?xml version="1.0" standalone="no"?>
<!DOCTYPE svg PUBLIC "-//W3C//DTD SVG 20010904//EN"
 "http://www.w3.org/TR/2001/REC-SVG-20010904/DTD/svg10.dtd">
<svg version="1.0" xmlns="http://www.w3.org/2000/svg"
 width="96.000000pt" height="84.000000pt" viewBox="0 0 96.000000 84.000000"
 preserveAspectRatio="xMidYMid meet">
<metadata>
Created by potrace 1.16, written by Peter Selinger 2001-2019
</metadata>
<g transform="translate(0.000000,84.000000) scale(0.100000,-0.100000)"
fill="#000000" stroke="none">
<path d="M0 613 l0 -227 44 43 44 44 49 -28 c106 -62 115 -65 175 -58 44 4 59
10 63 24 4 11 22 31 41 45 38 30 45 55 13 51 -15 -1 -26 9 -42 38 -22 39 -32
51 -52 58 -5 2 -1 14 10 27 13 14 20 38 21 66 2 67 25 94 82 96 82 3 96 -1
121 -29 14 -15 31 -27 39 -25 35 8 83 -89 53 -107 -8 -5 -8 -21 0 -62 9 -46 8
-61 -5 -93 -13 -32 -18 -36 -31 -26 -8 7 -18 34 -21 61 -4 27 -9 49 -11 49 -7
0 -26 -22 -46 -50 -9 -13 -17 -19 -17 -12 0 6 -4 12 -10 12 -20 0 -9 -37 14
-48 13 -6 32 -24 42 -40 15 -26 25 -31 75 -36 55 -7 62 -5 140 38 l82 44 43
-46 43 -47 1 233 0 232 -480 0 -480 0 0 -227z"/>
<path d="M586 603 c-4 -9 -2 -21 4 -27 7 -7 10 -2 10 17 0 31 -5 34 -14 10z"/>
<path d="M76 424 c-3 -8 -1 -25 5 -36 12 -23 -7 -142 -21 -133 -5 3 -11 32
-15 66 -7 58 -8 60 -26 43 -14 -13 -16 -21 -8 -36 8 -14 8 -33 0 -63 -6 -24
-11 -94 -11 -155 l0 -110 176 2 177 3 14 50 c8 28 17 73 20 101 l5 52 -52 -49
c-28 -26 -78 -62 -111 -78 -51 -25 -64 -28 -89 -19 -37 12 -48 28 -21 28 28 0
79 21 64 27 -27 10 -12 25 20 20 28 -4 39 1 86 45 53 48 54 50 57 113 2 46 0
65 -10 68 -20 8 -27 -3 -16 -23 10 -19 2 -120 -10 -120 -13 0 -33 98 -26 126
6 22 4 25 -16 22 -17 -2 -23 -10 -24 -28 -1 -34 -14 -102 -22 -114 -11 -19
-31 97 -20 123 7 21 5 28 -14 43 -31 24 -39 22 -29 -4 7 -20 -9 -111 -22 -124
-2 -3 -9 21 -15 52 -9 41 -9 61 -1 77 9 17 8 23 -7 34 -23 17 -31 16 -38 -3z"/>
<path d="M847 426 c-14 -11 -15 -19 -8 -39 9 -24 1 -120 -11 -133 -11 -10 -35
112 -27 134 10 27 2 28 -31 3 -21 -17 -23 -22 -13 -43 8 -18 8 -42 -1 -89
l-12 -64 -16 63 c-9 34 -14 72 -11 82 4 16 0 20 -21 20 -23 0 -25 -3 -20 -28
3 -16 -1 -52 -10 -81 l-15 -53 27 -23 c15 -14 37 -25 49 -25 29 0 53 -10 53
-22 0 -5 -4 -6 -10 -3 -5 3 -10 2 -10 -3 0 -13 62 -42 73 -35 5 3 8 0 5 -8 -2
-8 -18 -15 -35 -17 -34 -3 -182 80 -221 126 l-23 27 6 -45 c4 -25 14 -67 22
-95 9 -27 18 -56 19 -62 3 -10 47 -13 179 -13 l175 0 0 119 c0 66 -4 131 -10
145 -6 16 -6 35 0 50 7 19 5 28 -11 42 -19 17 -19 16 -20 -27 -1 -24 -4 -55
-8 -69 -7 -22 -10 -18 -25 35 -15 48 -16 66 -7 90 14 38 -4 61 -32 41z"/>
<path d="M607 328 c-7 -49 3 -106 21 -113 13 -5 14 3 8 50 -4 33 -2 64 4 75 9
17 7 20 -9 20 -14 0 -20 -9 -24 -32z"/>
</g>
</svg>
