<?xml version="1.0" standalone="no"?>
<!DOCTYPE svg PUBLIC "-//W3C//DTD SVG 20010904//EN"
 "http://www.w3.org/TR/2001/REC-SVG-20010904/DTD/svg10.dtd">
<svg version="1.0" xmlns="http://www.w3.org/2000/svg"
 width="96.000000pt" height="84.000000pt" viewBox="0 0 96.000000 84.000000"
 preserveAspectRatio="xMidYMid meet">
<metadata>
Created by potrace 1.16, written by Peter Selinger 2001-2019
</metadata>
<g transform="translate(0.000000,84.000000) scale(0.100000,-0.100000)"
fill="#000000" stroke="none">
<path d="M0 613 l0 -227 42 42 43 41 55 -31 c30 -17 66 -37 80 -44 18 -10 41
-12 79 -8 48 6 61 13 103 55 52 52 60 72 27 67 -16 -2 -26 7 -42 36 -12 22
-31 48 -42 57 -20 17 -20 17 4 42 12 14 20 30 17 36 -12 18 13 89 37 106 13 9
43 15 75 15 47 0 57 -4 85 -32 23 -23 40 -31 59 -29 32 3 41 -19 37 -87 -2
-26 1 -66 5 -88 10 -54 -16 -123 -39 -104 -7 6 -17 32 -21 56 -3 24 -8 44 -11
44 -2 0 -15 -13 -29 -29 -16 -20 -30 -27 -43 -24 -16 4 -19 1 -14 -16 3 -11
14 -23 24 -26 11 -4 30 -22 43 -42 22 -32 29 -35 83 -39 45 -3 66 0 93 16 19
11 56 31 82 45 l47 25 26 -34 c54 -71 55 -67 55 179 l0 225 -480 0 -480 0 0
-227z"/>
<path d="M586 608 c-3 -13 -1 -27 4 -32 7 -7 10 1 10 22 0 37 -5 41 -14 10z"/>
<path d="M74 425 c-3 -8 -1 -28 4 -44 14 -39 -15 -150 -29 -113 -5 12 -10 40
-11 62 -3 43 -9 48 -27 26 -7 -9 -8 -22 -3 -37 5 -13 6 -33 1 -44 -4 -11 -8
-77 -8 -148 l-1 -127 176 2 177 3 14 50 c8 28 17 73 20 101 l5 51 -55 -52
c-62 -58 -159 -109 -191 -101 -12 3 -30 12 -41 20 -19 15 -18 15 15 16 41 0
62 11 58 31 -2 10 7 14 28 14 22 0 45 13 84 46 l53 46 1 64 c1 53 -2 64 -17
67 -14 3 -16 -1 -9 -20 5 -13 4 -46 -3 -78 -7 -30 -15 -48 -18 -40 -15 42 -23
99 -16 118 7 19 5 22 -20 22 -24 0 -28 -3 -24 -20 6 -24 -16 -122 -27 -115
-13 8 -21 104 -11 124 8 14 6 22 -7 33 -33 29 -37 27 -38 -20 -1 -26 -7 -60
-14 -77 l-13 -30 -10 59 c-7 44 -7 64 2 79 10 16 9 21 -6 33 -23 17 -32 17
-39 -1z"/>
<path d="M855 428 c-11 -6 -21 -12 -23 -14 -2 -1 2 -12 8 -24 13 -24 4 -148
-10 -133 -15 17 -32 103 -26 128 l7 27 -31 -19 c-24 -14 -30 -23 -24 -38 12
-37 9 -145 -4 -145 -12 0 -36 104 -29 129 4 18 1 21 -24 21 -25 0 -27 -3 -20
-22 4 -13 2 -48 -6 -86 -13 -62 -12 -64 9 -83 13 -10 34 -19 48 -19 14 0 32
-5 40 -10 13 -8 13 -11 1 -19 -11 -7 -9 -11 10 -21 12 -7 34 -16 48 -20 l26
-7 -27 -11 c-15 -6 -36 -9 -45 -5 -38 13 -152 84 -183 113 -18 17 -34 29 -35
28 -4 -4 12 -87 28 -143 l14 -50 177 -3 177 -2 -2 176 c-3 149 -6 177 -19 184
-12 7 -16 4 -16 -8 0 -64 -5 -112 -11 -112 -5 0 -15 25 -25 56 -12 42 -14 64
-6 85 13 38 0 61 -27 47z"/>
<path d="M609 333 c-4 -63 4 -108 20 -120 21 -16 25 0 12 57 -6 26 -6 52 0 66
7 20 5 24 -11 24 -15 0 -20 -7 -21 -27z"/>
</g>
</svg>
