<?xml version="1.0" standalone="no"?>
<!DOCTYPE svg PUBLIC "-//W3C//DTD SVG 20010904//EN"
 "http://www.w3.org/TR/2001/REC-SVG-20010904/DTD/svg10.dtd">
<svg version="1.0" xmlns="http://www.w3.org/2000/svg"
 width="96.000000pt" height="84.000000pt" viewBox="0 0 96.000000 84.000000"
 preserveAspectRatio="xMidYMid meet">
<metadata>
Created by potrace 1.16, written by Peter Selinger 2001-2019
</metadata>
<g transform="translate(0.000000,84.000000) scale(0.100000,-0.100000)"
fill="#000000" stroke="none">
<path d="M0 613 l0 -228 41 41 41 42 78 -44 c72 -40 83 -44 139 -42 33 2 61 6
61 11 0 4 19 26 42 49 46 46 58 73 28 65 -18 -5 -68 48 -62 67 2 5 -6 15 -18
23 -26 18 -25 35 1 51 13 8 18 19 15 29 -10 25 4 79 25 102 16 17 32 21 79 21
73 0 87 -5 105 -41 14 -26 18 -27 40 -17 14 6 28 8 33 4 7 -7 15 -138 13 -219
-1 -42 -17 -80 -31 -72 -15 9 -30 75 -30 129 0 56 -9 57 -13 2 -4 -43 -40 -86
-67 -79 -15 4 -18 1 -13 -16 3 -11 14 -23 24 -26 11 -4 30 -22 43 -42 22 -32
28 -35 86 -39 56 -4 68 -1 109 25 104 65 101 65 149 18 l42 -41 0 227 0 227
-480 0 -480 0 0 -227z"/>
<path d="M72 423 c-7 -11 -6 -25 1 -40 11 -24 -6 -127 -23 -138 -4 -2 -11 25
-15 61 -5 49 -10 63 -19 55 -8 -7 -13 -64 -15 -186 l-2 -175 177 2 177 3 14
50 c8 28 17 75 19 105 5 54 4 55 -12 30 -33 -51 -169 -140 -213 -140 -24 0
-71 20 -71 31 0 4 8 5 18 2 21 -5 83 17 64 24 -22 8 -2 23 31 23 24 0 46 12
85 48 51 45 54 49 56 102 4 64 -1 80 -20 80 -10 0 -13 -7 -8 -24 6 -24 -14
-142 -22 -133 -2 2 -9 29 -15 60 -7 40 -7 62 1 77 10 18 8 20 -20 20 -27 0
-30 -3 -25 -20 4 -11 -2 -46 -11 -78 l-18 -57 -10 54 c-6 37 -6 63 1 82 10 26
9 31 -20 51 l-30 22 6 -25 c4 -13 -1 -51 -10 -84 -16 -56 -17 -58 -25 -30 -10
38 -11 94 -3 122 9 29 -29 52 -43 26z"/>
<path d="M853 427 c-25 -11 -29 -22 -13 -32 11 -7 11 -74 1 -120 -7 -29 -8
-28 -25 28 -10 32 -15 70 -12 84 7 26 -1 25 -35 -4 -14 -11 -15 -20 -6 -42 6
-18 7 -47 0 -86 l-9 -60 -18 59 c-9 32 -15 70 -12 82 6 21 3 24 -24 24 -27 0
-30 -2 -20 -19 10 -20 4 -104 -10 -130 -10 -19 -34 92 -27 125 3 19 0 24 -16
24 -15 0 -18 -5 -15 -25 3 -14 2 -27 -1 -29 -4 -3 -5 -22 -3 -44 3 -34 11 -45
55 -78 28 -22 63 -39 79 -40 34 -2 47 -12 30 -23 -17 -10 27 -41 58 -41 33 0
23 -19 -15 -26 -28 -5 -43 -1 -73 18 -20 14 -63 41 -95 62 -32 20 -60 43 -64
51 -3 8 -8 13 -13 10 -8 -5 2 -65 23 -140 l14 -50 177 -3 177 -2 -2 175 c-3
151 -6 178 -20 191 -16 14 -17 14 -13 -3 3 -10 1 -43 -4 -73 l-9 -55 -13 30
c-8 17 -14 60 -15 97 0 36 -2 68 -5 71 -3 2 -15 0 -27 -6z"/>
</g>
</svg>
