<?xml version="1.0" standalone="no"?>
<!DOCTYPE svg PUBLIC "-//W3C//DTD SVG 20010904//EN"
 "http://www.w3.org/TR/2001/REC-SVG-20010904/DTD/svg10.dtd">
<svg version="1.0" xmlns="http://www.w3.org/2000/svg"
 width="96.000000pt" height="84.000000pt" viewBox="0 0 96.000000 84.000000"
 preserveAspectRatio="xMidYMid meet">
<metadata>
Created by potrace 1.16, written by Peter Selinger 2001-2019
</metadata>
<g transform="translate(0.000000,84.000000) scale(0.100000,-0.100000)"
fill="#000000" stroke="none">
<path d="M0 613 l1 -228 34 38 c20 20 41 37 48 37 7 0 43 -18 80 -40 61 -37
71 -40 131 -37 36 1 66 5 66 10 0 4 19 26 42 49 46 46 57 71 29 66 -20 -3 -74
50 -65 64 4 5 -3 16 -15 24 -25 18 -27 33 -5 48 9 7 16 30 18 58 1 25 10 58
20 72 16 26 20 27 94 24 73 -3 77 -4 97 -34 17 -25 25 -30 39 -22 36 20 43 4
48 -109 9 -202 -39 -251 -62 -63 -5 43 -8 53 -9 28 -1 -46 -42 -98 -70 -91
-16 4 -19 1 -14 -16 3 -11 14 -23 24 -26 11 -4 30 -22 43 -42 22 -32 28 -35
87 -39 58 -4 67 -2 118 29 106 65 97 64 141 15 l39 -43 1 228 0 227 -480 0
-480 0 0 -227z"/>
<path d="M855 426 c-16 -11 -17 -18 -9 -37 7 -17 7 -42 -1 -84 l-11 -60 -17
57 c-10 34 -15 69 -11 84 6 21 4 25 -7 19 -40 -23 -47 -36 -36 -64 6 -18 7
-47 0 -86 l-9 -60 -14 45 c-7 25 -14 62 -14 83 0 34 -3 37 -29 37 -25 0 -27
-2 -16 -21 12 -23 2 -147 -11 -132 -15 17 -32 103 -26 128 6 22 4 26 -11 23
-11 -2 -18 -12 -18 -25 0 -12 -3 -24 -6 -27 -3 -3 -3 -23 0 -45 5 -31 16 -47
56 -80 27 -23 59 -41 71 -41 30 0 54 -10 54 -22 0 -5 -4 -6 -10 -3 -5 3 -10 1
-10 -5 0 -13 61 -40 74 -33 5 3 7 0 4 -8 -2 -8 -19 -15 -36 -17 -35 -4 -145
55 -207 110 l-35 30 0 -33 c0 -18 10 -61 21 -96 l22 -63 174 0 174 0 -2 175
c-2 161 -4 177 -22 193 -11 9 -17 11 -13 5 8 -15 -4 -133 -14 -133 -4 0 -13
25 -20 56 -11 44 -11 63 -2 87 9 25 9 34 -1 44 -11 11 -16 11 -32 -1z"/>
<path d="M65 419 c-4 -5 -1 -23 5 -40 10 -23 10 -39 0 -77 -7 -26 -16 -51 -19
-57 -7 -13 -18 37 -20 89 -1 31 -4 36 -14 27 -10 -8 -14 -55 -16 -186 l-2
-175 174 0 174 0 22 65 c11 36 21 82 21 103 l0 37 -23 -26 c-32 -38 -100 -88
-157 -115 -49 -23 -51 -24 -88 -8 l-37 17 38 7 c38 7 75 30 48 30 -7 0 -9 5
-5 11 3 6 19 9 35 7 24 -4 39 4 85 46 51 48 55 55 59 104 5 61 -1 82 -22 82
-11 0 -13 -7 -9 -25 6 -25 -10 -113 -24 -128 -10 -12 -24 106 -15 132 5 18 2
21 -20 21 -23 0 -26 -3 -21 -23 3 -12 -3 -49 -13 -82 l-18 -60 -7 50 c-4 28
-8 55 -9 60 -1 6 2 23 6 39 6 21 4 31 -10 42 -26 19 -36 17 -30 -6 6 -22 -22
-134 -31 -125 -13 13 -20 108 -10 131 10 20 9 27 -3 35 -19 12 -36 11 -44 -2z"/>
</g>
</svg>
