<?xml version="1.0" standalone="no"?>
<!DOCTYPE svg PUBLIC "-//W3C//DTD SVG 20010904//EN"
 "http://www.w3.org/TR/2001/REC-SVG-20010904/DTD/svg10.dtd">
<svg version="1.0" xmlns="http://www.w3.org/2000/svg"
 width="96.000000pt" height="84.000000pt" viewBox="0 0 96.000000 84.000000"
 preserveAspectRatio="xMidYMid meet">
<metadata>
Created by potrace 1.16, written by Peter Selinger 2001-2019
</metadata>
<g transform="translate(0.000000,84.000000) scale(0.100000,-0.100000)"
fill="#000000" stroke="none">
<path d="M0 613 l1 -228 35 40 35 40 82 -43 c74 -38 88 -42 144 -40 35 2 63 6
63 11 0 4 19 26 42 49 47 47 58 73 28 65 -21 -5 -74 49 -64 65 4 5 -3 16 -15
24 -24 17 -27 37 -7 53 7 6 16 35 18 63 7 72 38 98 115 98 51 0 59 -3 89 -35
26 -28 38 -34 58 -29 13 3 27 1 30 -4 3 -6 7 -66 9 -135 1 -96 -1 -128 -12
-141 -14 -16 -16 -16 -29 9 -8 15 -17 57 -22 94 -5 42 -8 53 -9 29 -1 -46 -42
-98 -70 -91 -16 4 -19 1 -14 -16 3 -11 14 -23 24 -26 11 -4 30 -22 43 -42 22
-32 28 -35 86 -39 58 -4 66 -2 142 41 l81 46 39 -38 38 -37 0 222 0 222 -480
0 -480 0 0 -227z"/>
<path d="M857 426 c-14 -11 -15 -19 -8 -38 9 -23 2 -78 -16 -128 -8 -24 -33
92 -27 124 l6 29 -32 -23 c-22 -16 -28 -26 -21 -33 17 -17 9 -147 -8 -147 -11
0 -32 116 -25 134 5 13 -1 16 -27 16 -26 0 -30 -3 -21 -12 13 -13 14 -74 3
-123 -7 -29 -8 -28 -25 28 -10 32 -15 69 -12 83 5 17 2 24 -8 24 -15 0 -29
-27 -21 -40 3 -5 2 -11 -3 -14 -5 -3 -6 -23 -3 -45 5 -33 15 -48 55 -81 30
-25 58 -40 76 -40 15 0 33 -7 40 -15 10 -12 10 -15 -1 -15 -22 0 5 -20 47 -35
l39 -13 -29 -11 c-16 -7 -37 -9 -48 -5 -31 10 -119 64 -170 107 l-48 38 0 -32
c0 -18 10 -61 21 -96 l22 -63 174 0 174 0 -2 181 c-2 159 -4 181 -20 189 -14
8 -16 6 -12 -10 3 -11 -1 -43 -8 -72 l-13 -53 -12 40 c-16 51 -17 98 -3 112
11 11 4 53 -9 53 -4 0 -15 -7 -25 -14z"/>
<path d="M64 416 c-3 -8 0 -24 6 -37 9 -17 9 -35 0 -81 -7 -32 -16 -61 -20
-63 -8 -5 -25 100 -21 124 2 12 0 12 -12 3 -11 -10 -15 -48 -16 -187 l-2 -175
174 0 174 0 22 63 c11 35 21 81 21 102 l0 39 -27 -31 c-36 -39 -97 -85 -152
-113 -49 -24 -99 -22 -122 7 -12 15 -12 16 4 10 24 -9 97 21 78 32 -20 13 4
24 37 16 23 -5 35 2 79 47 49 49 53 57 54 103 3 77 1 85 -21 85 -17 0 -18 -3
-9 -23 8 -18 6 -38 -7 -83 l-17 -59 -10 35 c-5 19 -7 56 -4 83 4 45 3 47 -21
47 -21 0 -24 -3 -19 -27 3 -16 -3 -53 -12 -83 l-17 -55 -11 60 c-7 37 -7 69
-2 84 7 18 5 28 -7 42 -24 27 -46 25 -35 -3 7 -20 -16 -144 -25 -135 -2 2 -9
29 -15 60 -7 42 -7 62 2 78 10 19 8 25 -7 36 -23 17 -33 16 -40 -1z"/>
</g>
</svg>
