<?xml version="1.0" standalone="no"?>
<!DOCTYPE svg PUBLIC "-//W3C//DTD SVG 20010904//EN"
 "http://www.w3.org/TR/2001/REC-SVG-20010904/DTD/svg10.dtd">
<svg version="1.0" xmlns="http://www.w3.org/2000/svg"
 width="96.000000pt" height="84.000000pt" viewBox="0 0 96.000000 84.000000"
 preserveAspectRatio="xMidYMid meet">
<metadata>
Created by potrace 1.16, written by Peter Selinger 2001-2019
</metadata>
<g transform="translate(0.000000,84.000000) scale(0.100000,-0.100000)"
fill="#000000" stroke="none">
<path d="M0 613 l0 -228 35 40 34 40 83 -43 c75 -38 89 -42 146 -40 34 1 62 6
62 10 0 4 19 27 42 50 47 47 58 73 28 65 -21 -6 -72 47 -64 67 3 7 -7 18 -21
26 -30 16 -31 22 -5 45 12 11 20 31 20 51 0 42 16 84 38 100 22 17 132 17 153
1 9 -7 21 -22 28 -35 10 -19 18 -22 42 -17 36 8 36 8 44 -124 5 -99 -5 -171
-25 -171 -16 0 -35 67 -34 123 1 61 -12 67 -18 7 -3 -38 -40 -77 -69 -72 -24
4 -13 -35 12 -43 11 -4 30 -23 44 -42 23 -34 28 -36 86 -40 57 -3 67 0 142 42
l80 46 39 -38 38 -37 0 222 0 222 -480 0 -480 0 0 -227z"/>
<path d="M857 426 c-14 -11 -15 -19 -8 -39 9 -22 -7 -119 -22 -133 -2 -3 -10
22 -16 55 -9 44 -9 66 -1 81 13 23 3 25 -24 5 -16 -12 -20 -28 -21 -90 -2 -95
-17 -115 -33 -43 -7 29 -9 63 -6 76 5 18 2 22 -19 22 -23 0 -24 -3 -20 -42 2
-24 0 -61 -5 -83 l-9 -40 -17 57 c-10 32 -14 67 -10 82 5 20 2 26 -10 26 -9 0
-17 -6 -18 -12 0 -7 -2 -17 -2 -23 -1 -5 -4 -14 -7 -20 -4 -5 -1 -29 5 -51 12
-46 95 -127 120 -118 20 8 62 -16 46 -26 -17 -10 26 -40 60 -40 24 -1 24 -1 6
-15 -31 -23 -53 -18 -135 31 -88 52 -113 72 -129 99 -21 36 -14 -52 9 -122
l22 -63 174 0 174 0 -2 180 c-2 136 -6 183 -16 191 -10 9 -13 7 -13 -9 0 -35
-23 -121 -31 -117 -14 10 -21 122 -8 142 12 20 7 53 -8 53 -4 0 -16 -7 -26
-14z"/>
<path d="M63 419 c-9 -9 -8 -19 3 -41 12 -24 13 -38 3 -88 -6 -33 -15 -58 -19
-55 -9 6 -25 92 -22 119 2 15 0 16 -12 7 -12 -10 -15 -48 -16 -187 l0 -174
174 0 174 0 21 62 c12 34 21 79 21 99 l0 38 -48 -47 c-52 -51 -156 -112 -190
-112 -12 0 -33 5 -47 12 l-27 12 44 11 c32 8 42 14 40 28 -2 14 5 17 35 17 33
0 46 7 90 53 53 53 58 69 54 155 -1 25 -5 32 -21 32 -16 0 -18 -4 -11 -24 7
-15 4 -44 -7 -87 -15 -60 -16 -62 -24 -34 -11 41 -13 107 -4 128 7 14 3 17
-19 17 -23 0 -26 -4 -24 -27 4 -35 -11 -122 -21 -128 -13 -8 -29 107 -18 135
8 20 5 28 -12 42 -30 24 -41 23 -31 -4 7 -19 -10 -122 -22 -134 -3 -3 -10 24
-17 59 -9 48 -9 70 -1 86 9 17 8 22 -8 31 -24 13 -24 13 -38 -1z"/>
</g>
</svg>
