<?xml version="1.0" standalone="no"?>
<!DOCTYPE svg PUBLIC "-//W3C//DTD SVG 20010904//EN"
 "http://www.w3.org/TR/2001/REC-SVG-20010904/DTD/svg10.dtd">
<svg version="1.0" xmlns="http://www.w3.org/2000/svg"
 width="96.000000pt" height="84.000000pt" viewBox="0 0 96.000000 84.000000"
 preserveAspectRatio="xMidYMid meet">
<metadata>
Created by potrace 1.16, written by Peter Selinger 2001-2019
</metadata>
<g transform="translate(0.000000,84.000000) scale(0.100000,-0.100000)"
fill="#000000" stroke="none">
<path d="M0 613 l0 -228 31 38 c17 20 36 37 43 37 7 0 43 -18 80 -41 51 -31
77 -40 105 -39 20 1 51 2 69 2 17 0 32 4 32 9 0 5 17 26 38 47 48 48 61 77 33
69 -22 -6 -73 47 -65 67 3 7 -7 18 -21 26 -30 16 -31 25 -5 47 14 12 20 30 20
56 0 43 22 92 45 101 9 3 43 6 76 6 50 0 64 -4 84 -25 14 -13 25 -29 25 -35 0
-7 12 -9 35 -4 30 5 35 3 35 -12 1 -11 3 -67 5 -126 7 -154 -19 -209 -50 -107
-9 32 -12 68 -9 93 5 28 3 38 -4 31 -6 -5 -12 -26 -14 -45 -3 -38 -40 -77 -69
-72 -24 4 -13 -35 12 -43 11 -4 30 -23 44 -42 23 -34 28 -36 86 -40 57 -3 67
0 145 43 l85 46 34 -38 34 -39 1 223 0 222 -480 0 -480 0 0 -227z"/>
<path d="M857 426 c-14 -11 -15 -19 -8 -39 7 -18 5 -41 -8 -83 -16 -50 -19
-55 -24 -34 -15 65 -17 101 -6 121 11 21 11 21 -19 3 -29 -16 -30 -21 -26 -63
3 -27 0 -62 -9 -86 l-14 -40 -12 53 c-6 29 -8 64 -5 78 5 21 3 24 -21 24 -22
0 -25 -3 -20 -21 8 -25 -4 -141 -14 -134 -4 2 -13 29 -20 59 -9 40 -9 60 -1
76 9 17 8 20 -10 20 -11 0 -20 -3 -21 -7 -15 -103 -7 -132 47 -177 26 -22 60
-40 77 -42 33 -4 63 -24 36 -24 -25 -1 31 -40 57 -40 27 0 32 -15 8 -24 -32
-12 -57 -5 -122 34 -101 59 -124 77 -138 102 -13 22 -13 21 -14 -16 0 -22 10
-68 21 -103 l22 -63 174 0 174 0 -2 180 c-2 134 -6 184 -16 192 -10 8 -13 5
-13 -14 0 -13 -8 -47 -17 -74 -17 -49 -17 -49 -24 -19 -12 52 -9 109 6 129 11
14 12 23 4 33 -14 16 -19 16 -42 -1z"/>
<path d="M57 418 c-2 -7 2 -26 10 -41 11 -22 12 -39 3 -84 -5 -31 -12 -58 -14
-60 -7 -8 -34 109 -29 125 6 15 4 15 -9 4 -14 -11 -17 -40 -18 -188 l0 -174
174 0 174 0 21 62 c12 34 21 80 20 102 0 41 0 41 -16 18 -24 -34 -120 -106
-175 -131 -46 -20 -49 -21 -85 -5 l-38 17 35 7 c47 8 60 17 53 37 -5 13 0 15
30 11 33 -4 41 1 91 52 56 57 61 71 57 158 -1 25 -5 32 -22 32 -16 0 -19 -4
-13 -17 10 -24 8 -63 -7 -115 l-12 -43 -8 30 c-12 41 -14 106 -5 128 7 14 3
17 -19 17 -23 0 -26 -4 -23 -27 3 -37 -12 -133 -21 -133 -14 0 -29 113 -19
140 7 20 5 27 -14 42 -31 24 -39 22 -30 -4 9 -25 -10 -149 -20 -133 -3 6 -11
35 -18 66 -9 42 -10 61 -1 77 9 18 8 23 -8 32 -26 13 -38 13 -44 -2z"/>
</g>
</svg>
