<?xml version="1.0" standalone="no"?>
<!DOCTYPE svg PUBLIC "-//W3C//DTD SVG 20010904//EN"
 "http://www.w3.org/TR/2001/REC-SVG-20010904/DTD/svg10.dtd">
<svg version="1.0" xmlns="http://www.w3.org/2000/svg"
 width="96.000000pt" height="84.000000pt" viewBox="0 0 96.000000 84.000000"
 preserveAspectRatio="xMidYMid meet">
<metadata>
Created by potrace 1.16, written by Peter Selinger 2001-2019
</metadata>
<g transform="translate(0.000000,84.000000) scale(0.100000,-0.100000)"
fill="#000000" stroke="none">
<path d="M505 794 c-18 -9 -57 -17 -95 -18 -77 -1 -84 -12 -48 -84 32 -65 30
-142 -6 -221 -16 -36 -29 -85 -31 -123 -10 -130 -12 -308 -4 -313 25 -16 77
120 94 245 13 94 13 95 14 32 1 -63 -19 -152 -58 -252 -11 -30 -21 -56 -21
-57 0 -2 68 -3 151 -3 138 0 150 1 145 18 -13 46 -17 93 -8 105 24 30 21 99
-9 188 -16 48 -27 94 -23 102 3 8 -2 17 -10 20 -9 4 -16 18 -16 33 0 15 -8 36
-17 46 -21 24 -19 107 3 125 12 9 13 16 5 32 -13 24 -14 34 -2 27 14 -9 22 44
13 79 -10 36 -35 42 -77 19z m-148 -456 c-3 -8 -6 -5 -6 6 -1 11 2 17 5 13 3
-3 4 -12 1 -19z"/>
</g>
</svg>
