<?xml version="1.0" standalone="no"?>
<!DOCTYPE svg PUBLIC "-//W3C//DTD SVG 20010904//EN"
 "http://www.w3.org/TR/2001/REC-SVG-20010904/DTD/svg10.dtd">
<svg version="1.0" xmlns="http://www.w3.org/2000/svg"
 width="96.000000pt" height="84.000000pt" viewBox="0 0 96.000000 84.000000"
 preserveAspectRatio="xMidYMid meet">
<metadata>
Created by potrace 1.16, written by Peter Selinger 2001-2019
</metadata>
<g transform="translate(0.000000,84.000000) scale(0.100000,-0.100000)"
fill="#000000" stroke="none">
<path d="M0 613 l0 -228 36 36 36 36 79 -43 c75 -42 84 -44 142 -40 57 4 64 7
81 35 10 18 31 38 47 47 28 14 34 32 14 46 -5 4 -12 2 -16 -4 -4 -6 -12 -1
-20 13 -6 13 -18 29 -25 37 -7 7 -10 20 -7 30 3 9 2 14 -2 9 -5 -4 -17 0 -27
10 -18 16 -18 17 1 37 11 13 20 41 23 74 7 75 26 91 112 94 66 3 69 2 95 -29
20 -24 36 -33 58 -33 36 0 43 -17 38 -90 -2 -25 0 -62 5 -83 9 -42 -7 -118
-27 -124 -10 -4 -24 27 -37 90 -4 15 -12 27 -18 27 -6 0 -9 -3 -6 -6 9 -9 -43
-59 -58 -56 -26 5 -14 -16 34 -66 43 -44 53 -49 103 -55 48 -6 62 -3 100 18
24 14 63 35 87 47 l43 23 34 -40 34 -40 1 228 0 227 -480 0 -480 0 0 -227z"/>
<path d="M597 613 c-11 -10 -8 -43 3 -43 6 0 10 11 10 25 0 26 -2 29 -13 18z"/>
<path d="M61 412 c-7 -14 -6 -25 5 -41 12 -17 14 -36 9 -86 -4 -36 -11 -65
-15 -65 -8 0 -35 108 -31 127 1 7 -4 10 -12 7 -12 -4 -15 -40 -16 -180 l-2
-174 176 2 176 3 19 55 c11 30 19 75 20 100 l0 44 -17 -24 c-9 -14 -24 -31
-33 -38 -23 -19 -174 -92 -191 -92 -8 0 -30 10 -49 22 l-35 22 48 7 c56 9 68
16 47 29 -22 14 10 23 41 12 18 -7 31 -5 54 11 17 11 31 21 32 21 1 1 -5 30
-12 66 -9 41 -10 70 -4 81 14 26 12 29 -21 29 -28 0 -30 -2 -20 -20 8 -14 7
-39 -1 -85 -6 -37 -13 -65 -15 -63 -12 13 -30 127 -22 147 6 18 4 29 -8 42
-22 25 -48 26 -35 2 8 -16 -3 -130 -13 -141 -2 -1 -11 26 -21 61 -13 49 -15
69 -6 85 9 17 7 23 -14 36 -23 15 -25 15 -34 -2z"/>
<path d="M856 417 c-13 -9 -15 -18 -8 -36 9 -24 -14 -131 -28 -131 -13 0 -21
110 -10 130 13 24 7 25 -26 4 -21 -14 -23 -22 -18 -50 6 -33 -14 -134 -27
-134 -9 0 -21 113 -13 133 5 13 0 17 -17 17 -23 0 -24 -4 -25 -63 0 -34 -6
-72 -12 -84 -11 -19 -9 -24 10 -35 13 -7 46 -15 73 -18 28 -3 48 -9 45 -15 -3
-5 -9 -9 -15 -7 -5 2 -2 -5 7 -14 10 -10 33 -18 53 -18 19 -1 35 -4 35 -8 0
-13 -38 -28 -72 -27 -46 1 -210 87 -225 119 -12 24 -13 22 -13 -20 1 -25 9
-70 20 -100 l19 -55 176 -3 176 -2 -3 176 c-2 125 -7 179 -15 186 -10 8 -13 6
-13 -7 0 -10 -8 -43 -17 -73 -15 -48 -18 -52 -24 -31 -11 39 -10 108 3 128 11
19 5 51 -10 51 -4 0 -16 -6 -26 -13z"/>
<path d="M310 329 c9 -15 9 -33 0 -70 -14 -55 -11 -72 9 -60 15 10 33 89 21
96 -4 2 -5 16 -2 30 3 20 0 25 -17 25 -19 0 -20 -3 -11 -21z"/>
<path d="M617 343 c-11 -18 3 -127 17 -142 24 -23 29 -7 16 49 -7 28 -9 62 -6
75 5 18 2 25 -8 25 -8 0 -17 -3 -19 -7z"/>
</g>
</svg>
