<?xml version="1.0" standalone="no"?>
<!DOCTYPE svg PUBLIC "-//W3C//DTD SVG 20010904//EN"
 "http://www.w3.org/TR/2001/REC-SVG-20010904/DTD/svg10.dtd">
<svg version="1.0" xmlns="http://www.w3.org/2000/svg"
 width="96.000000pt" height="84.000000pt" viewBox="0 0 96.000000 84.000000"
 preserveAspectRatio="xMidYMid meet">
<metadata>
Created by potrace 1.16, written by Peter Selinger 2001-2019
</metadata>
<g transform="translate(0.000000,84.000000) scale(0.100000,-0.100000)"
fill="#000000" stroke="none">
<path d="M0 629 l0 -211 35 31 c20 17 39 31 43 31 4 0 32 -16 62 -36 74 -50
106 -61 165 -59 44 2 55 7 93 43 23 23 42 48 42 57 0 18 -17 20 -22 3 -5 -14
-53 62 -49 80 1 6 -5 12 -12 12 -8 0 -20 6 -26 13 -8 11 -6 18 9 32 14 13 20
31 20 61 0 83 30 111 118 112 57 1 90 -12 103 -42 7 -15 17 -22 28 -19 9 2 25
-5 35 -16 21 -23 37 -86 25 -98 -5 -5 -4 -33 3 -65 10 -46 9 -62 -3 -94 -8
-22 -19 -38 -24 -37 -16 2 -36 75 -36 131 0 29 -4 50 -10 47 -5 -4 -9 -22 -9
-41 0 -19 -5 -34 -10 -34 -6 0 -19 -15 -30 -32 -13 -22 -20 -27 -20 -15 0 9
-4 17 -10 17 -19 0 -10 -39 13 -51 12 -7 34 -26 49 -43 19 -23 29 -28 38 -20
6 6 31 9 58 7 43 -4 54 0 125 47 l78 52 35 -31 c19 -17 37 -31 39 -31 3 0 5
92 5 205 l0 205 -480 0 -480 0 0 -211z"/>
<path d="M856 437 c-15 -11 -16 -18 -8 -33 8 -15 7 -37 -5 -83 -19 -75 -32
-64 -36 29 -1 33 -5 60 -8 60 -3 0 -13 -8 -23 -19 -12 -13 -14 -24 -8 -41 12
-32 -17 -150 -30 -126 -5 9 -10 46 -11 81 -2 59 -4 65 -23 65 -19 0 -21 -4
-17 -42 2 -24 -2 -63 -10 -88 l-14 -45 -12 58 c-7 32 -10 70 -7 83 5 17 2 24
-8 24 -18 0 -26 -31 -21 -86 6 -70 13 -82 60 -100 43 -16 48 -16 91 1 49 18
70 14 38 -9 -18 -14 -18 -15 9 -21 15 -4 39 -5 52 -3 32 7 32 -12 0 -42 -21
-20 -31 -22 -77 -17 -29 3 -83 15 -121 27 -57 18 -69 26 -81 53 l-14 32 0 -45
c0 -25 7 -67 17 -95 l18 -50 176 -3 177 -2 0 189 c0 147 -3 191 -14 200 -11 9
-14 2 -19 -36 -3 -27 -11 -61 -18 -78 -12 -30 -12 -30 -22 30 -6 42 -5 70 3
92 17 48 1 66 -34 40z"/>
<path d="M65 429 c-4 -5 -2 -23 5 -38 8 -21 9 -44 1 -86 -6 -32 -13 -60 -15
-62 -6 -7 -37 128 -31 137 3 6 -1 7 -9 4 -14 -5 -16 -34 -16 -195 l0 -189 176
2 176 3 19 50 c10 28 19 73 19 100 l0 50 -22 -37 c-18 -30 -33 -41 -90 -62
-93 -35 -157 -35 -192 0 -36 37 -33 45 18 38 44 -6 72 10 46 26 -7 4 -8 10 -3
13 5 3 24 -3 43 -14 32 -20 35 -20 76 -4 23 9 48 22 54 30 7 8 13 47 13 87 2
63 0 73 -16 76 -16 3 -17 1 -8 -17 9 -15 8 -38 0 -86 -7 -36 -16 -62 -19 -58
-14 16 -28 117 -19 140 7 20 5 23 -17 23 -20 0 -24 -4 -22 -22 5 -39 -13 -143
-22 -128 -18 36 -31 119 -21 138 8 16 5 24 -15 43 l-26 24 4 -25 c4 -40 -13
-146 -22 -130 -19 37 -31 119 -21 139 9 16 8 22 -8 31 -25 13 -28 13 -36 -1z"/>
</g>
</svg>
