<?xml version="1.0" standalone="no"?>
<!DOCTYPE svg PUBLIC "-//W3C//DTD SVG 20010904//EN"
 "http://www.w3.org/TR/2001/REC-SVG-20010904/DTD/svg10.dtd">
<svg version="1.0" xmlns="http://www.w3.org/2000/svg"
 width="96.000000pt" height="84.000000pt" viewBox="0 0 96.000000 84.000000"
 preserveAspectRatio="xMidYMid meet">
<metadata>
Created by potrace 1.16, written by Peter Selinger 2001-2019
</metadata>
<g transform="translate(0.000000,84.000000) scale(0.100000,-0.100000)"
fill="#000000" stroke="none">
<path d="M0 674 l0 -165 23 6 c12 4 37 16 55 27 l32 20 67 -53 c52 -41 76 -53
112 -57 25 -2 54 -11 63 -19 15 -14 19 -14 33 0 8 9 24 18 34 22 34 11 33 51
-1 46 -4 0 -17 14 -30 32 -12 17 -26 34 -30 35 -5 2 -5 8 -2 13 3 6 -2 19 -12
30 -17 18 -16 20 4 42 16 16 22 36 22 66 0 34 6 49 30 72 28 29 33 30 87 24
65 -8 99 -25 115 -59 6 -15 16 -22 27 -19 38 10 87 -98 55 -121 -11 -9 -12
-18 -4 -46 5 -19 10 -50 10 -67 0 -18 5 -33 10 -33 6 0 40 25 77 54 l66 55 48
-25 c27 -13 53 -24 59 -24 6 0 10 55 10 155 l0 155 -480 0 -480 0 0 -166z"/>
<path d="M597 585 c-4 -8 -2 -17 3 -20 6 -4 10 3 10 14 0 25 -6 27 -13 6z"/>
<path d="M568 520 c-17 -18 -33 -27 -43 -24 -31 12 -14 -31 22 -54 l37 -24 18
24 c10 13 16 32 13 43 -3 11 -5 30 -5 43 0 29 -9 28 -42 -8z"/>
<path d="M833 529 c-8 -8 -8 -19 1 -43 8 -19 11 -53 7 -91 l-6 -60 -22 58
c-13 33 -23 71 -23 85 l0 26 -21 -21 c-19 -18 -20 -24 -9 -54 8 -24 9 -52 3
-94 l-9 -60 -22 68 c-12 37 -19 74 -15 83 4 12 0 15 -18 12 -22 -3 -24 -7 -21
-55 2 -29 0 -72 -4 -95 l-7 -43 -18 60 c-11 33 -19 73 -19 89 0 24 -2 27 -15
16 -11 -9 -12 -16 -4 -26 6 -7 9 -21 7 -31 -1 -10 1 -23 5 -30 4 -6 3 -14 -1
-17 -8 -4 10 -123 20 -131 2 -1 26 -14 55 -29 l52 -26 25 30 c29 35 50 40 41
10 -5 -17 -2 -20 21 -20 15 0 36 8 47 18 20 17 20 16 14 -26 -8 -62 -25 -77
-94 -80 -48 -2 -70 3 -126 29 -47 23 -71 41 -79 61 -7 15 -16 28 -19 28 -11 0
1 -80 18 -127 l16 -43 173 0 174 0 -1 203 c-1 218 -7 288 -26 295 -10 3 -13
-16 -14 -70 l-1 -73 -24 50 c-16 33 -23 63 -22 90 3 41 -15 58 -39 34z"/>
<path d="M85 488 c4 -23 -1 -51 -19 -93 -23 -57 -25 -59 -31 -32 -4 15 -5 50
-3 77 4 35 2 47 -7 44 -18 -7 -25 -87 -25 -296 l0 -188 174 0 173 0 17 43 c9
24 16 69 15 102 l-1 60 -20 -47 c-17 -40 -29 -51 -82 -79 -56 -29 -66 -31
-120 -25 -62 8 -91 28 -102 71 -8 34 1 42 24 22 10 -10 31 -17 45 -17 27 0 36
13 17 25 -6 4 -7 11 -4 17 4 5 20 -4 39 -22 l33 -32 51 28 c48 27 51 32 63 89
8 33 10 62 5 63 -4 2 -2 10 4 18 9 11 9 18 1 26 -8 8 -14 -2 -23 -36 -6 -25
-15 -48 -19 -51 -12 -8 -22 123 -10 144 14 28 13 31 -15 31 -19 0 -25 -5 -25
-22 0 -12 -8 -49 -17 -82 -13 -46 -18 -55 -24 -40 -11 28 -11 122 1 143 7 14
3 24 -17 42 -25 23 -25 23 -19 3 4 -13 -3 -47 -17 -85 l-25 -64 -7 48 c-4 26
-4 60 -1 75 14 55 12 67 -12 70 -21 3 -23 1 -17 -30z"/>
<path d="M320 410 c0 -25 16 -44 25 -30 4 7 0 19 -9 28 -13 14 -16 14 -16 2z"/>
</g>
</svg>
