<?xml version="1.0" standalone="no"?>
<!DOCTYPE svg PUBLIC "-//W3C//DTD SVG 20010904//EN"
 "http://www.w3.org/TR/2001/REC-SVG-20010904/DTD/svg10.dtd">
<svg version="1.0" xmlns="http://www.w3.org/2000/svg"
 width="96.000000pt" height="84.000000pt" viewBox="0 0 96.000000 84.000000"
 preserveAspectRatio="xMidYMid meet">
<metadata>
Created by potrace 1.16, written by Peter Selinger 2001-2019
</metadata>
<g transform="translate(0.000000,84.000000) scale(0.100000,-0.100000)"
fill="#000000" stroke="none">
<path d="M450 822 c-29 -9 -50 -36 -61 -76 -12 -45 -27 -68 -39 -61 -4 3 -11
-2 -14 -10 -6 -17 13 -55 27 -55 5 0 6 -7 3 -16 -8 -20 17 -67 49 -92 33 -26
32 -36 -10 -61 -34 -20 -35 -20 -45 -1 -9 16 -21 20 -62 20 -42 0 -62 7 -116
41 l-65 41 -26 -20 c-14 -10 -41 -26 -59 -36 -27 -14 -32 -22 -32 -52 0 -21 4
-33 10 -29 5 3 10 15 10 26 0 10 4 19 9 19 4 0 4 -23 -1 -51 -5 -28 -8 -53 -5
-55 2 -2 18 17 35 41 21 30 32 57 32 80 0 38 14 52 34 35 12 -9 12 -15 -1 -40
-8 -18 -13 -50 -11 -82 l3 -53 28 52 c15 29 27 64 27 78 0 29 11 32 33 8 13
-16 14 -20 1 -37 -15 -21 -20 -146 -6 -146 13 0 51 117 45 139 -5 18 -1 21 31
21 36 0 37 0 22 -22 -17 -24 -20 -74 -9 -129 l6 -34 18 40 17 40 -3 -40 c-6
-103 -15 -122 -71 -165 l-54 -41 -26 31 c-29 34 -48 40 -39 11 4 -14 -1 -20
-22 -24 -18 -4 -32 -1 -39 9 -16 20 -24 17 -24 -10 0 -39 30 -67 75 -70 22 -2
50 -6 61 -10 16 -5 38 5 85 36 64 44 70 50 91 103 12 29 13 29 16 -27 2 -35
-3 -70 -13 -93 -8 -21 -15 -41 -15 -46 0 -5 58 -9 130 -9 72 0 130 4 130 9 0
5 -7 25 -15 44 -8 20 -15 60 -15 89 l0 53 19 -41 c14 -31 35 -51 85 -82 68
-44 88 -48 130 -32 16 6 27 6 31 0 11 -19 53 20 59 56 8 40 -2 65 -16 40 -9
-16 -58 -22 -71 -9 -4 3 -2 12 4 19 6 7 6 14 1 18 -6 3 -22 -10 -36 -29 l-26
-34 -58 40 c-46 32 -58 47 -65 77 -10 47 -17 132 -11 132 3 0 13 -17 22 -37
l16 -38 6 80 c3 44 9 86 13 93 14 21 27 13 27 -15 0 -16 11 -50 24 -78 l24
-50 1 68 c1 38 -4 76 -11 88 -11 17 -10 22 6 35 27 19 38 18 31 -5 -5 -18 48
-131 62 -131 11 0 -10 126 -23 141 -12 14 -12 18 -1 28 21 17 50 3 43 -21 -6
-27 7 -56 44 -98 l32 -35 -6 31 c-3 18 -8 43 -12 58 -4 16 -2 26 5 26 6 0 11
-8 11 -17 0 -10 5 -25 10 -33 7 -11 10 -4 10 25 0 39 -2 41 -64 74 l-63 34
-61 -42 c-34 -22 -65 -41 -70 -41 -16 0 -21 69 -10 126 14 71 1 108 -36 98
-21 -5 -27 -1 -39 28 -8 18 -20 38 -28 45 -19 15 -120 41 -139 35z m168 -282
c-1 -33 -5 -60 -10 -60 -5 0 -13 -11 -19 -24 l-11 -24 -34 20 c-28 17 -32 23
-23 35 9 10 14 11 19 3 5 -8 9 -7 13 4 4 9 13 16 20 16 9 0 19 18 26 45 6 25
13 45 16 45 3 0 4 -27 3 -60z m2 -121 c0 -26 -2 -30 -15 -19 -11 9 -12 16 -2
31 16 25 17 24 17 -12z m-266 -21 c-9 -14 -24 2 -24 25 1 21 1 21 15 3 8 -10
12 -23 9 -28z"/>
</g>
</svg>
