<?xml version="1.0" standalone="no"?>
<!DOCTYPE svg PUBLIC "-//W3C//DTD SVG 20010904//EN"
 "http://www.w3.org/TR/2001/REC-SVG-20010904/DTD/svg10.dtd">
<svg version="1.0" xmlns="http://www.w3.org/2000/svg"
 width="96.000000pt" height="84.000000pt" viewBox="0 0 96.000000 84.000000"
 preserveAspectRatio="xMidYMid meet">
<metadata>
Created by potrace 1.16, written by Peter Selinger 2001-2019
</metadata>
<g transform="translate(0.000000,84.000000) scale(0.100000,-0.100000)"
fill="#000000" stroke="none">
<path d="M420 802 c-16 -16 -32 -46 -36 -66 -4 -27 -13 -40 -30 -46 -13 -5
-24 -15 -24 -22 1 -18 25 -48 39 -48 8 0 9 -5 2 -17 -16 -30 36 -109 65 -98
26 9 0 -36 -32 -54 -33 -20 -34 -20 -44 -1 -8 16 -21 20 -61 20 -41 0 -62 7
-116 40 -62 37 -68 39 -87 25 -12 -8 -38 -24 -59 -35 -30 -17 -37 -26 -37 -51
0 -18 4 -28 10 -24 6 3 10 13 10 21 0 8 4 14 9 14 5 0 5 -17 0 -42 -16 -67 -7
-75 29 -25 21 31 32 57 32 81 0 39 14 54 35 36 11 -9 11 -17 -1 -46 -9 -21
-14 -57 -12 -87 l3 -52 29 60 c15 32 26 69 23 82 -5 27 1 28 31 7 20 -14 21
-17 7 -37 -16 -23 -19 -59 -8 -121 l6 -39 23 64 c13 35 21 74 18 86 -5 20 -2
23 25 23 34 0 36 -2 21 -31 -12 -22 -2 -149 11 -149 5 0 9 9 9 20 0 11 5 20
10 20 6 0 10 -3 10 -7 -1 -23 -30 -127 -37 -133 -4 -3 -28 -21 -51 -40 l-44
-33 -29 31 c-34 37 -43 40 -34 13 4 -15 -1 -20 -27 -25 -24 -5 -36 -2 -44 9
-20 26 -26 -11 -9 -46 14 -25 31 -35 58 -30 4 1 27 -4 51 -10 43 -11 46 -10
105 30 58 40 91 82 91 116 0 8 5 15 10 15 15 0 12 -106 -5 -147 -8 -19 -15
-39 -15 -44 0 -5 58 -9 130 -9 72 0 130 4 130 9 0 5 -7 25 -15 44 -8 20 -15
60 -15 89 l0 53 19 -41 c14 -31 35 -51 85 -83 60 -38 71 -41 124 -39 34 2 63
9 72 18 21 20 37 61 32 83 -4 21 -22 23 -22 2 0 -11 -11 -15 -36 -15 -31 0
-36 3 -31 20 6 25 -18 27 -32 3 -27 -47 -27 -47 -76 -10 -25 20 -51 37 -56 39
-15 5 -41 130 -30 141 6 6 13 0 17 -19 8 -29 8 -29 15 11 5 22 8 59 8 82 1 23
4 48 7 57 10 25 34 19 34 -8 0 -13 10 -50 23 -83 l22 -58 5 65 c4 45 1 72 -8
88 -12 21 -11 26 4 43 24 27 34 24 34 -12 0 -27 44 -119 57 -119 11 0 -10 126
-23 141 -12 14 -12 18 -1 28 24 19 47 2 47 -35 0 -23 10 -45 32 -71 18 -21 34
-40 35 -42 10 -14 11 11 2 43 -12 45 -6 71 9 36 10 -24 11 -23 11 13 1 22 -4
37 -11 37 -6 0 -33 14 -59 31 l-48 30 -46 -28 c-25 -15 -59 -36 -74 -46 l-28
-17 -7 48 c-4 34 -2 60 9 85 16 39 11 95 -11 104 -7 2 -21 0 -32 -6 -18 -10
-21 -7 -27 18 -8 39 -42 68 -101 86 -66 20 -71 19 -104 -13z m190 -320 c-6 -2
-15 -15 -20 -28 l-9 -24 -36 21 c-30 18 -33 24 -23 36 10 13 13 13 19 -4 5
-16 7 -16 13 5 4 12 14 22 21 22 8 0 17 12 21 28 14 63 19 65 22 7 2 -38 -1
-61 -8 -63z m6 -79 c-13 -14 -25 9 -13 28 12 20 12 20 15 -1 2 -12 1 -24 -2
-27z m-266 6 c0 -11 -4 -17 -10 -14 -5 3 -10 15 -10 26 0 11 5 17 10 14 6 -3
10 -15 10 -26z"/>
</g>
</svg>
