<?xml version="1.0" standalone="no"?>
<!DOCTYPE svg PUBLIC "-//W3C//DTD SVG 20010904//EN"
 "http://www.w3.org/TR/2001/REC-SVG-20010904/DTD/svg10.dtd">
<svg version="1.0" xmlns="http://www.w3.org/2000/svg"
 width="96.000000pt" height="84.000000pt" viewBox="0 0 96.000000 84.000000"
 preserveAspectRatio="xMidYMid meet">
<metadata>
Created by potrace 1.16, written by Peter Selinger 2001-2019
</metadata>
<g transform="translate(0.000000,84.000000) scale(0.100000,-0.100000)"
fill="#000000" stroke="none">
<path d="M421 812 c-20 -19 -33 -45 -37 -71 -4 -26 -13 -42 -24 -46 -28 -9
-31 -31 -8 -60 16 -21 18 -28 8 -40 -7 -8 -8 -15 -3 -15 5 0 17 -13 26 -30 10
-16 29 -33 41 -36 33 -8 23 -37 -21 -58 -33 -16 -36 -16 -48 1 -9 12 -24 17
-56 15 -30 -2 -56 4 -79 18 -19 11 -51 29 -72 40 l-36 19 -56 -32 c-51 -29
-55 -35 -55 -67 1 -30 2 -31 8 -11 4 14 11 26 17 28 7 2 8 -18 2 -64 -4 -36
-6 -68 -4 -70 2 -2 18 22 36 53 23 41 30 65 26 85 -7 34 16 58 39 39 12 -10
12 -15 1 -33 -10 -16 -12 -39 -7 -87 l7 -65 22 60 c13 33 21 70 19 82 -5 27
14 31 33 8 10 -12 10 -21 1 -41 -12 -27 -4 -162 9 -147 12 14 34 106 32 135
-2 25 1 28 28 28 33 0 35 -2 20 -31 -7 -13 -7 -39 1 -85 11 -65 12 -66 26 -43
11 19 13 20 9 4 -3 -11 -10 -42 -16 -69 -6 -27 -19 -55 -28 -63 -9 -7 -34 -24
-54 -39 l-37 -26 -27 31 c-30 36 -45 40 -41 9 2 -17 -4 -22 -30 -25 -25 -3
-33 0 -33 11 0 21 -16 21 -24 0 -7 -18 20 -73 37 -75 31 -4 65 -8 102 -13 36
-6 46 -2 100 36 50 36 63 51 75 91 8 26 18 47 23 47 13 0 7 -117 -8 -153 -8
-20 -15 -41 -15 -47 0 -6 47 -10 130 -10 72 0 130 4 130 9 0 5 -6 24 -14 42
-7 19 -14 61 -14 94 l-1 60 16 -43 c12 -36 27 -51 84 -89 56 -37 77 -46 107
-43 20 1 49 2 65 2 15 -1 27 3 27 8 0 6 6 10 13 10 14 0 34 56 29 83 -5 23
-18 22 -25 -2 -4 -16 -10 -18 -38 -12 -24 5 -33 12 -31 24 4 25 -9 21 -37 -14
l-26 -30 -56 40 c-49 35 -58 47 -68 88 -7 26 -14 56 -17 66 -3 9 -1 17 5 17 6
0 11 -10 12 -22 1 -45 19 21 27 97 6 62 10 70 29 73 17 3 20 -1 16 -17 -3 -11
5 -50 18 -88 l24 -68 6 70 c5 50 3 78 -7 96 -12 23 -11 29 5 43 25 23 31 20
31 -13 0 -16 11 -53 25 -82 l25 -54 -3 75 c-2 41 -6 82 -11 91 -5 11 -2 19 11
23 22 9 43 -17 36 -45 -4 -12 8 -40 31 -75 21 -31 39 -54 41 -52 2 1 -1 23 -5
48 -5 25 -9 54 -9 65 0 20 0 20 14 1 14 -19 15 -19 15 5 0 18 -9 30 -32 42
-18 9 -45 24 -60 33 -26 17 -27 17 -80 -17 -29 -20 -64 -41 -77 -48 l-24 -13
7 88 c12 159 8 177 -39 156 -22 -10 -25 -9 -25 7 0 31 -48 80 -88 90 -93 25
-90 25 -121 -7z m203 -264 c-4 -35 -10 -65 -14 -68 -4 -3 -12 -15 -19 -27
l-11 -22 -35 22 c-38 25 -42 32 -20 41 8 3 15 0 15 -6 0 -6 14 4 30 22 17 18
30 40 30 47 0 16 18 53 26 53 3 0 2 -28 -2 -62z m-1 -118 c-6 -24 -23 -37 -23
-18 0 12 18 38 26 38 1 0 0 -9 -3 -20z m-273 -16 c0 -8 -4 -12 -10 -9 -5 3
-10 13 -10 21 0 8 5 12 10 9 6 -3 10 -13 10 -21z"/>
</g>
</svg>
