<?xml version="1.0" standalone="no"?>
<!DOCTYPE svg PUBLIC "-//W3C//DTD SVG 20010904//EN"
 "http://www.w3.org/TR/2001/REC-SVG-20010904/DTD/svg10.dtd">
<svg version="1.0" xmlns="http://www.w3.org/2000/svg"
 width="96.000000pt" height="84.000000pt" viewBox="0 0 96.000000 84.000000"
 preserveAspectRatio="xMidYMid meet">
<metadata>
Created by potrace 1.16, written by Peter Selinger 2001-2019
</metadata>
<g transform="translate(0.000000,84.000000) scale(0.100000,-0.100000)"
fill="#000000" stroke="none">
<path d="M401 801 c-12 -22 -21 -50 -21 -61 0 -11 -8 -24 -17 -27 -38 -14 -42
-40 -12 -72 17 -18 18 -25 9 -36 -7 -9 -8 -15 -2 -15 5 0 15 -14 22 -31 7 -17
24 -35 37 -40 33 -12 28 -34 -14 -59 -29 -17 -38 -18 -44 -8 -5 7 -9 16 -9 21
0 4 -25 7 -56 7 -47 0 -65 6 -122 40 -36 22 -69 39 -72 38 -50 -26 -99 -67
-100 -83 0 -15 3 -16 12 -7 20 20 23 14 20 -48 -2 -34 -1 -69 3 -78 11 -28 53
95 47 139 -5 42 12 59 35 36 12 -11 13 -19 4 -36 -9 -15 -9 -38 0 -86 6 -37
13 -65 14 -63 2 2 11 31 19 66 12 46 14 67 6 82 -14 25 1 26 31 1 20 -16 21
-21 10 -35 -14 -16 -8 -119 9 -145 11 -18 33 80 28 124 -4 32 -2 35 22 35 35
0 41 -7 28 -35 -8 -18 -7 -40 6 -91 11 -43 15 -82 10 -111 -6 -38 -13 -49 -65
-89 l-58 -44 -22 30 c-26 35 -54 41 -44 10 6 -17 2 -20 -29 -20 -22 0 -38 6
-44 17 -9 14 -10 14 -16 -5 -8 -24 18 -82 37 -83 40 -2 76 -7 102 -13 25 -6
40 0 99 41 61 42 72 54 86 98 14 41 18 46 24 29 6 -20 -6 -123 -20 -171 l-6
-23 131 0 c75 0 131 4 131 9 0 5 -5 22 -11 38 -11 30 -23 143 -15 143 3 0 14
-20 25 -44 15 -36 32 -51 88 -85 63 -37 74 -40 131 -38 34 1 62 5 62 10 0 4 7
7 15 7 17 0 36 60 28 90 -7 26 -19 26 -26 0 -4 -16 -12 -19 -39 -17 -27 3 -33
7 -31 25 4 30 -6 28 -38 -10 l-27 -33 -58 42 c-84 59 -87 78 -35 298 4 17 14
31 25 33 15 3 17 -1 12 -25 -4 -16 2 -56 13 -93 l19 -65 7 39 c8 40 10 105 4
145 -3 16 3 28 20 39 24 17 24 16 17 -11 -7 -29 20 -147 34 -147 12 0 19 121
9 148 -11 28 4 54 27 45 9 -3 14 -20 14 -47 0 -40 38 -145 52 -146 4 0 5 35 1
78 -6 71 -5 76 10 63 15 -12 17 -11 17 8 0 11 -4 21 -8 21 -5 0 -29 14 -55 31
l-47 31 -68 -46 c-37 -25 -71 -46 -74 -46 -12 0 -15 86 -5 143 5 31 6 69 3 83
-6 23 -11 26 -40 21 -29 -5 -33 -2 -42 26 -14 48 -54 71 -134 75 l-68 4 -21
-41z m211 -319 c-11 -11 -21 -25 -24 -32 -2 -8 -15 -5 -41 10 -31 18 -35 25
-26 37 10 11 14 11 21 1 6 -10 12 -9 24 7 8 11 20 19 25 18 5 -2 10 5 10 15 2
27 4 35 14 62 8 21 10 15 13 -37 2 -50 -1 -66 -16 -81z m-137 60 c-3 -3 -11 0
-18 7 -9 10 -8 11 6 5 10 -3 15 -9 12 -12z m-125 -129 c0 -20 -16 -8 -23 17
-4 17 -3 19 9 9 8 -6 14 -18 14 -26z m273 17 c-5 -19 -23 -29 -23 -12 0 7 20
32 26 32 1 0 0 -9 -3 -20z"/>
</g>
</svg>
