<?xml version="1.0" standalone="no"?>
<!DOCTYPE svg PUBLIC "-//W3C//DTD SVG 20010904//EN"
 "http://www.w3.org/TR/2001/REC-SVG-20010904/DTD/svg10.dtd">
<svg version="1.0" xmlns="http://www.w3.org/2000/svg"
 width="96.000000pt" height="84.000000pt" viewBox="0 0 96.000000 84.000000"
 preserveAspectRatio="xMidYMid meet">
<metadata>
Created by potrace 1.16, written by Peter Selinger 2001-2019
</metadata>
<g transform="translate(0.000000,84.000000) scale(0.100000,-0.100000)"
fill="#000000" stroke="none">
<path d="M389 798 c-6 -24 -13 -49 -15 -56 -2 -8 -13 -16 -23 -19 -33 -8 -35
-36 -5 -61 18 -16 23 -27 16 -34 -11 -11 -5 -48 8 -48 5 0 12 -9 15 -21 4 -11
18 -24 31 -29 34 -13 30 -35 -13 -60 -37 -21 -37 -21 -52 -2 -13 16 -27 20
-68 19 -38 -1 -61 5 -80 19 -16 11 -46 31 -69 43 l-41 23 -46 -33 c-46 -32
-65 -65 -30 -52 12 5 15 2 11 -9 -6 -14 15 -125 25 -135 11 -10 28 110 22 146
-7 43 6 61 30 41 9 -8 12 -22 8 -42 -6 -32 15 -138 28 -138 11 0 22 105 15
135 -8 30 4 32 28 6 13 -14 14 -24 7 -43 -13 -35 17 -159 32 -133 5 10 10 49
11 87 1 72 5 77 50 59 14 -5 16 -10 8 -15 -16 -10 -15 -48 4 -112 13 -44 13
-64 4 -108 -9 -47 -17 -57 -57 -87 -73 -54 -71 -53 -99 -20 -29 35 -48 40 -39
11 5 -15 2 -20 -12 -20 -10 0 -28 -3 -39 -6 -16 -4 -23 0 -28 18 l-7 23 -10
-24 c-6 -16 -6 -32 3 -52 13 -29 34 -40 83 -43 17 -1 44 -5 60 -9 25 -6 41 0
100 41 63 44 72 54 92 108 l22 59 0 -76 c1 -47 -5 -91 -14 -113 l-15 -36 140
0 140 0 -15 36 c-8 20 -15 64 -14 98 l1 61 15 -43 c13 -37 27 -51 87 -90 67
-45 75 -47 141 -47 56 0 74 4 91 20 27 26 35 60 22 94 l-10 26 -9 -22 c-6 -18
-16 -23 -45 -23 -34 0 -36 2 -30 25 9 35 -4 31 -39 -10 l-30 -36 -61 43 c-55
39 -63 48 -73 92 -10 44 -8 59 15 143 16 54 34 98 43 102 14 8 16 0 17 -63 0
-39 4 -80 8 -91 14 -33 45 101 33 144 -8 30 -6 37 14 52 28 21 32 19 21 -11
-8 -21 7 -132 19 -144 10 -10 31 105 27 149 -2 32 0 40 16 43 25 5 36 -16 25
-47 -7 -18 -5 -43 7 -89 21 -76 34 -65 37 32 1 46 5 62 15 59 29 -11 9 27 -25
48 -21 13 -43 27 -49 31 -7 4 -42 -12 -80 -37 -38 -25 -72 -45 -75 -45 -13 0
-17 77 -7 142 13 83 6 118 -25 118 -13 0 -28 -5 -35 -12 -9 -9 -12 -8 -12 8 0
10 -9 34 -20 52 l-20 32 -99 0 -100 0 -12 -42z m244 -230 c-3 -35 -12 -68 -19
-75 -7 -7 -15 -22 -19 -32 -6 -18 -8 -18 -45 6 -30 20 -36 28 -27 39 10 10 14
10 24 -2 10 -13 12 -13 18 5 3 12 13 21 21 21 8 0 14 7 14 15 0 8 4 15 10 15
5 0 7 6 4 14 -5 13 11 56 21 56 3 0 2 -28 -2 -62z m-6 -133 c-4 -8 -11 -15
-17 -15 -6 0 -6 7 2 20 14 22 24 19 15 -5z m-277 -16 c0 -18 -18 -9 -23 12 -4
16 -3 18 9 8 8 -6 14 -15 14 -20z"/>
</g>
</svg>
