<?xml version="1.0" standalone="no"?>
<!DOCTYPE svg PUBLIC "-//W3C//DTD SVG 20010904//EN"
 "http://www.w3.org/TR/2001/REC-SVG-20010904/DTD/svg10.dtd">
<svg version="1.0" xmlns="http://www.w3.org/2000/svg"
 width="96.000000pt" height="84.000000pt" viewBox="0 0 96.000000 84.000000"
 preserveAspectRatio="xMidYMid meet">
<metadata>
Created by potrace 1.16, written by Peter Selinger 2001-2019
</metadata>
<g transform="translate(0.000000,84.000000) scale(0.100000,-0.100000)"
fill="#000000" stroke="none">
<path d="M387 833 c-4 -3 -7 -16 -7 -29 0 -21 -39 -80 -40 -60 0 6 -6 1 -14
-10 -13 -17 -12 -23 11 -52 20 -26 22 -36 13 -47 -7 -8 -8 -15 -3 -15 5 0 17
-15 28 -32 20 -36 46 -59 57 -52 4 2 6 -5 5 -17 -2 -28 -75 -68 -88 -47 -5 7
-9 16 -9 21 0 4 -26 7 -58 7 -51 0 -66 5 -128 44 l-71 44 -41 -27 c-23 -14
-41 -34 -42 -44 0 -10 4 -15 10 -12 6 4 10 -5 10 -21 0 -30 31 -124 41 -124
15 0 15 115 0 142 -18 32 -5 54 26 44 16 -5 19 -16 19 -59 0 -30 7 -69 18 -92
l19 -40 8 64 c5 39 4 71 -2 82 -12 24 3 25 24 1 12 -13 14 -26 8 -47 -10 -40
28 -161 40 -128 11 30 14 114 5 136 -6 13 -3 17 12 17 42 0 51 -9 40 -41 -8
-22 -5 -42 10 -89 15 -43 18 -68 12 -92 -4 -18 -11 -45 -14 -59 -4 -18 -27
-43 -67 -72 l-61 -46 -30 35 c-35 40 -53 44 -44 10 5 -21 2 -24 -29 -28 -19
-2 -40 1 -46 7 -7 7 -9 -3 -7 -35 2 -27 8 -46 16 -46 6 -1 13 -2 15 -3 1 -1
20 -3 42 -5 22 -2 51 -6 65 -10 21 -6 41 3 102 42 67 44 78 56 93 99 32 90 34
92 34 33 0 -57 -11 -133 -24 -162 -7 -17 3 -18 134 -18 78 0 141 2 141 4 0 2
-6 19 -14 37 -7 19 -14 61 -14 94 l-1 60 21 -47 c17 -40 33 -56 99 -98 77 -49
79 -50 146 -46 101 6 103 7 102 80 0 47 -2 56 -9 39 -7 -18 -17 -23 -44 -23
-39 0 -53 14 -36 35 12 14 0 28 -16 17 -5 -4 -17 -19 -27 -34 -10 -16 -22 -28
-28 -28 -25 0 -130 84 -135 109 -3 14 -9 40 -13 56 -12 49 47 225 75 225 11 0
12 -4 5 -18 -10 -19 -3 -140 9 -147 14 -9 42 107 35 151 -5 36 -3 44 14 53 28
15 33 14 22 -7 -6 -11 -7 -47 -2 -88 l7 -69 19 40 c11 24 19 62 19 96 0 43 5
60 17 68 28 17 45 -11 29 -49 -13 -31 -4 -159 10 -143 15 16 42 114 37 134 -3
10 -1 19 4 19 22 0 6 30 -31 55 l-40 27 -74 -46 c-40 -25 -76 -46 -79 -46 -10
0 -14 92 -5 137 14 71 12 113 -5 131 -14 14 -18 14 -40 -1 -24 -15 -24 -15
-36 24 l-12 39 -118 0 c-65 0 -121 -3 -124 -7z m255 -250 c-3 -38 -8 -70 -13
-71 -5 -2 -16 -17 -24 -32 l-15 -29 -40 26 c-36 24 -38 27 -22 39 14 10 18 10
20 -2 3 -11 9 -8 24 11 11 14 24 23 29 20 5 -4 10 0 10 7 5 45 7 56 18 76 6
12 13 22 14 22 2 0 1 -30 -1 -67z m-8 -137 c-3 -9 -10 -16 -15 -16 -6 0 -5 9
1 21 13 24 24 20 14 -5z m-294 -14 c0 -15 -2 -15 -10 -2 -13 20 -13 33 0 25 6
-3 10 -14 10 -23z"/>
</g>
</svg>
