<?xml version="1.0" standalone="no"?>
<!DOCTYPE svg PUBLIC "-//W3C//DTD SVG 20010904//EN"
 "http://www.w3.org/TR/2001/REC-SVG-20010904/DTD/svg10.dtd">
<svg version="1.0" xmlns="http://www.w3.org/2000/svg"
 width="96.000000pt" height="84.000000pt" viewBox="0 0 96.000000 84.000000"
 preserveAspectRatio="xMidYMid meet">
<metadata>
Created by potrace 1.16, written by Peter Selinger 2001-2019
</metadata>
<g transform="translate(0.000000,84.000000) scale(0.100000,-0.100000)"
fill="#000000" stroke="none">
<path d="M370 815 c0 -22 -31 -51 -42 -39 -3 3 -9 -8 -13 -23 -5 -22 -2 -32
20 -50 21 -19 24 -26 15 -43 -7 -13 -7 -20 -1 -20 6 0 13 -11 17 -24 6 -25 58
-79 67 -70 3 3 4 -3 4 -13 -2 -15 -75 -70 -82 -61 -1 2 -7 12 -13 24 -10 18
-18 21 -60 16 -51 -4 -69 3 -172 67 l-45 28 -33 -25 c-44 -33 -44 -83 -1 -158
17 -30 32 -54 34 -54 10 0 -10 137 -22 156 -11 18 -11 23 2 34 24 20 48 -6 41
-44 -4 -22 2 -48 22 -91 l29 -60 6 64 c6 50 4 70 -8 88 -18 28 -9 29 24 4 21
-16 23 -22 13 -50 -9 -27 -8 -42 10 -89 29 -80 38 -85 40 -21 3 78 2 92 -7
112 -6 14 -2 17 29 17 41 0 40 1 26 -36 -8 -21 -6 -41 10 -90 21 -61 21 -67 6
-131 -8 -37 -21 -70 -28 -74 -7 -4 -37 -26 -67 -48 l-54 -40 -26 34 c-14 19
-34 34 -45 35 -15 0 -16 -3 -6 -15 17 -20 4 -35 -31 -35 -28 0 -29 -2 -29 -43
l0 -43 85 -2 85 -2 62 42 c34 24 66 46 71 49 5 3 19 35 33 70 l24 64 -3 -95
c-2 -52 -7 -103 -11 -112 -8 -17 2 -18 134 -18 132 0 142 1 134 18 -4 9 -9 53
-10 97 -2 44 0 71 3 60 16 -60 38 -87 107 -130 72 -44 74 -45 160 -45 l87 0
-3 48 c-3 42 -6 47 -28 50 -44 5 -55 11 -42 24 16 16 15 28 -2 28 -8 0 -23
-16 -35 -35 -11 -19 -25 -35 -31 -35 -8 0 -107 61 -138 86 -2 1 -9 31 -17 66
-12 58 -11 68 8 128 23 72 48 129 60 137 15 9 19 -5 7 -27 -13 -23 -3 -158 10
-143 4 4 17 34 29 65 16 45 18 64 10 84 -8 23 -6 31 12 51 30 31 40 29 25 -4
-9 -19 -11 -50 -7 -93 l6 -65 28 67 c20 47 27 76 22 96 -8 39 18 63 42 40 14
-15 14 -18 -1 -39 -11 -17 -16 -44 -16 -94 l1 -70 29 55 c21 39 29 70 29 105
1 44 -3 52 -27 68 -15 11 -30 20 -33 20 -4 1 -41 -20 -83 -47 -43 -26 -79 -46
-82 -44 -9 10 -5 157 5 176 15 29 14 85 -4 108 -13 18 -16 18 -44 2 -29 -16
-29 -16 -35 8 -6 24 -7 24 -146 24 l-140 0 0 -25z m282 -220 c-3 -53 -7 -75
-17 -75 -7 0 -18 -13 -25 -29 l-12 -29 -36 24 c-48 33 -47 31 -28 49 14 15 16
15 16 1 0 -9 2 -16 5 -16 8 0 55 51 55 60 0 6 5 10 11 10 5 0 7 5 4 11 -7 11
13 69 24 69 3 0 5 -34 3 -75z m-316 -162 c-8 -8 -12 -3 -21 27 l-7 25 17 -23
c9 -13 14 -26 11 -29z m302 21 c-7 -15 -14 -21 -16 -15 -2 7 2 18 8 26 18 22
21 18 8 -11z"/>
</g>
</svg>
