<?xml version="1.0" standalone="no"?>
<!DOCTYPE svg PUBLIC "-//W3C//DTD SVG 20010904//EN"
 "http://www.w3.org/TR/2001/REC-SVG-20010904/DTD/svg10.dtd">
<svg version="1.0" xmlns="http://www.w3.org/2000/svg"
 width="96.000000pt" height="84.000000pt" viewBox="0 0 96.000000 84.000000"
 preserveAspectRatio="xMidYMid meet">
<metadata>
Created by potrace 1.16, written by Peter Selinger 2001-2019
</metadata>
<g transform="translate(0.000000,84.000000) scale(0.100000,-0.100000)"
fill="#000000" stroke="none">
<path d="M525 779 c-26 -13 -58 -20 -90 -20 -60 1 -85 -6 -85 -23 0 -7 13 -42
29 -77 24 -54 27 -72 22 -115 -4 -27 -17 -66 -29 -85 -37 -61 -56 -154 -47
-239 4 -41 8 -99 9 -129 0 -30 6 -56 12 -58 6 -2 25 27 42 64 40 86 42 65 2
-28 l-29 -69 144 0 145 0 0 33 c0 17 7 65 15 104 15 72 15 74 -10 135 -14 35
-29 82 -32 105 -3 24 -9 40 -14 37 -5 -3 -12 13 -15 35 -4 22 -12 45 -19 51
-15 12 -8 111 9 122 8 5 7 13 -2 29 -11 18 -11 23 4 34 15 11 16 19 8 61 -5
26 -14 49 -19 51 -6 2 -28 -6 -50 -18z m-150 -436 c-3 -21 -11 -42 -17 -48 -9
-10 -2 59 9 78 11 18 15 4 8 -30z m55 -143 c-10 -23 -10 -22 -5 9 3 18 6 57 7
85 l2 51 3 -60 c2 -34 -1 -72 -7 -85z"/>
</g>
</svg>
