<?xml version="1.0" standalone="no"?>
<!DOCTYPE svg PUBLIC "-//W3C//DTD SVG 20010904//EN"
 "http://www.w3.org/TR/2001/REC-SVG-20010904/DTD/svg10.dtd">
<svg version="1.0" xmlns="http://www.w3.org/2000/svg"
 width="96.000000pt" height="84.000000pt" viewBox="0 0 96.000000 84.000000"
 preserveAspectRatio="xMidYMid meet">
<metadata>
Created by potrace 1.16, written by Peter Selinger 2001-2019
</metadata>
<g transform="translate(0.000000,84.000000) scale(0.100000,-0.100000)"
fill="#000000" stroke="none">
<path d="M360 825 c-7 -8 -20 -15 -30 -15 -36 0 -32 -56 6 -95 13 -12 14 -19
5 -28 -14 -14 -15 -30 -1 -22 6 3 10 -1 10 -9 0 -9 5 -16 10 -16 6 0 10 -7 10
-15 0 -19 51 -66 64 -58 5 4 7 -1 3 -11 -4 -10 -7 -22 -7 -27 0 -5 -6 -9 -14
-9 -7 0 -25 -9 -40 -21 l-26 -20 -12 25 c-10 24 -16 26 -72 26 -55 0 -69 5
-141 49 -76 46 -81 47 -102 32 -19 -14 -22 -26 -23 -82 0 -53 5 -76 25 -110
l25 -44 0 66 c0 52 -4 72 -21 93 -17 21 -19 29 -9 41 15 18 20 18 42 1 15 -11
16 -18 8 -43 -9 -25 -6 -39 22 -98 29 -64 33 -67 36 -41 5 40 -2 127 -13 150
-8 18 -7 18 19 1 24 -16 26 -22 20 -60 -4 -31 0 -59 16 -104 13 -33 27 -61 31
-61 5 0 10 30 10 68 2 80 2 73 -6 95 -6 14 -1 17 30 17 31 0 36 -3 30 -17 -17
-41 -16 -55 5 -117 21 -64 21 -67 5 -134 -17 -68 -18 -69 -88 -120 l-71 -51
-34 39 c-39 46 -57 52 -48 14 5 -20 3 -27 -14 -31 -16 -4 -20 -13 -20 -44 l0
-39 87 0 c79 0 90 3 133 30 65 42 87 68 109 131 19 53 20 53 21 19 3 -70 -2
-145 -11 -162 -9 -17 0 -18 141 -18 140 0 150 1 141 18 -10 20 -26 162 -17
162 3 0 15 -22 26 -48 17 -39 33 -56 85 -90 64 -41 66 -42 155 -42 l90 0 0 45
c0 38 -3 45 -19 45 -25 0 -36 17 -21 35 12 14 0 28 -16 17 -5 -4 -17 -20 -27
-35 -10 -15 -24 -30 -32 -33 -7 -3 -45 16 -83 42 -70 47 -71 48 -85 112 -14
61 -13 67 10 140 30 96 51 142 65 142 6 0 7 -7 3 -17 -9 -21 -9 -26 -7 -112 2
-73 9 -71 42 12 16 41 21 68 17 94 -5 27 -2 42 10 55 22 24 36 23 23 -2 -6
-11 -10 -53 -8 -93 l3 -72 33 65 c26 52 31 73 26 102 -4 30 -2 38 14 47 34 18
55 -18 28 -48 -8 -9 -17 -47 -21 -86 -7 -62 -6 -68 8 -57 27 23 38 67 35 142
-2 60 -7 75 -23 86 -18 11 -29 7 -95 -37 -41 -27 -79 -49 -85 -49 -15 0 -12
148 4 195 7 22 11 54 9 70 l-3 30 -196 3 c-166 2 -198 0 -209 -13z m302 -212
c-2 -46 -8 -80 -13 -77 -4 2 -16 -8 -26 -23 -9 -15 -18 -30 -19 -32 -2 -2 -15
6 -30 18 -15 11 -33 21 -40 21 -8 0 -14 7 -14 16 0 8 5 12 10 9 6 -3 10 -1 10
4 0 6 5 11 10 11 6 0 10 -6 10 -14 0 -9 11 -3 30 16 17 16 30 34 30 39 0 5 4
9 10 9 5 0 7 6 4 14 -5 13 24 82 30 74 2 -1 1 -40 -2 -85z m-12 -142 c-6 -12
-15 -21 -21 -21 -5 0 -2 11 7 25 20 30 31 26 14 -4z m-320 -20 c-1 -13 -3 -13
-15 3 -19 26 -19 42 0 26 8 -7 15 -20 15 -29z"/>
</g>
</svg>
