<?xml version="1.0" standalone="no"?>
<!DOCTYPE svg PUBLIC "-//W3C//DTD SVG 20010904//EN"
 "http://www.w3.org/TR/2001/REC-SVG-20010904/DTD/svg10.dtd">
<svg version="1.0" xmlns="http://www.w3.org/2000/svg"
 width="96.000000pt" height="84.000000pt" viewBox="0 0 96.000000 84.000000"
 preserveAspectRatio="xMidYMid meet">
<metadata>
Created by potrace 1.16, written by Peter Selinger 2001-2019
</metadata>
<g transform="translate(0.000000,84.000000) scale(0.100000,-0.100000)"
fill="#000000" stroke="none">
<path d="M296 824 c-10 -25 -8 -30 21 -64 22 -27 25 -35 15 -51 -8 -12 -8 -19
-2 -19 5 0 10 -7 10 -16 0 -8 5 -12 10 -9 6 3 10 -1 10 -10 0 -18 59 -77 70
-70 4 2 5 -6 3 -18 -3 -14 -21 -30 -50 -43 l-44 -22 -11 23 c-10 21 -17 23
-73 22 -58 -2 -66 1 -148 51 -87 54 -107 58 -107 21 0 -12 5 -17 10 -14 22 13
41 -16 34 -52 -5 -26 1 -53 21 -104 16 -38 32 -69 37 -69 12 0 10 148 -2 171
-14 25 4 25 29 0 17 -17 18 -24 8 -50 -9 -25 -7 -43 13 -106 13 -42 27 -78 31
-80 11 -7 20 151 9 179 -9 25 -8 26 30 26 41 0 49 -7 29 -27 -15 -15 -13 -60
8 -133 17 -61 18 -70 3 -132 -15 -66 -15 -66 -94 -124 l-78 -57 -35 42 c-20
22 -39 41 -42 41 -4 0 -8 -29 -9 -65 l-2 -65 87 0 c79 0 90 3 133 30 65 41 79
60 99 125 18 57 18 58 25 24 6 -30 1 -102 -10 -156 l-4 -23 151 0 c140 0 151
1 144 18 -13 32 -18 165 -6 158 6 -4 11 -15 11 -24 0 -32 39 -81 92 -116 51
-35 56 -36 145 -36 l93 0 0 36 c0 19 -5 44 -10 55 -7 13 -7 19 0 19 5 0 10 7
10 15 0 25 -28 17 -45 -12 -38 -70 -35 -70 -127 -8 l-84 56 -13 62 c-11 57
-10 70 11 152 25 94 52 155 68 155 13 0 13 -7 -1 -32 -12 -22 -2 -186 11 -171
3 4 17 37 29 72 17 46 21 75 17 105 -6 35 -3 46 14 61 24 22 36 15 21 -13 -13
-25 -15 -162 -2 -162 5 0 21 29 36 65 21 49 26 73 21 103 -5 34 -3 40 19 52
25 14 33 34 16 45 -6 3 -45 -17 -89 -45 -43 -27 -83 -50 -88 -50 -16 0 -15
169 1 201 8 15 15 39 15 54 l0 25 -244 0 c-213 0 -245 -2 -250 -16z m381 -184
c-2 -78 -4 -90 -19 -90 -10 0 -25 -14 -34 -31 l-16 -31 -21 20 c-12 11 -32 25
-44 31 -13 6 -23 16 -23 22 0 6 5 7 10 4 6 -3 13 1 17 11 5 15 8 14 16 -7 7
-18 11 -20 14 -9 9 24 35 50 44 44 5 -3 9 4 9 16 0 13 4 19 11 14 7 -4 9 0 5
14 -6 18 17 82 29 82 2 0 3 -40 2 -90z m-197 -6 c0 -2 -9 0 -20 6 -11 6 -20
13 -20 16 0 2 9 0 20 -6 11 -6 20 -13 20 -16z m-160 -166 c0 -4 -4 -8 -10 -8
-5 0 -10 4 -10 9 0 5 -3 18 -6 28 -5 16 -4 16 10 -1 9 -11 16 -23 16 -28z
m339 10 c-8 -14 -14 -18 -17 -10 -4 13 17 46 25 38 3 -2 -1 -15 -8 -28z"/>
<path d="M0 490 c1 -39 7 -75 16 -90 14 -23 14 -20 12 52 -4 100 -28 133 -28
38z"/>
<path d="M946 538 c-3 -7 -7 -44 -10 -83 -5 -64 -5 -68 9 -51 10 13 15 42 15
83 0 59 -6 79 -14 51z"/>
</g>
</svg>
