<?xml version="1.0" standalone="no"?>
<!DOCTYPE svg PUBLIC "-//W3C//DTD SVG 20010904//EN"
 "http://www.w3.org/TR/2001/REC-SVG-20010904/DTD/svg10.dtd">
<svg version="1.0" xmlns="http://www.w3.org/2000/svg"
 width="96.000000pt" height="84.000000pt" viewBox="0 0 96.000000 84.000000"
 preserveAspectRatio="xMidYMid meet">
<metadata>
Created by potrace 1.16, written by Peter Selinger 2001-2019
</metadata>
<g transform="translate(0.000000,84.000000) scale(0.100000,-0.100000)"
fill="#000000" stroke="none">
<path d="M280 831 c0 -5 13 -23 29 -39 28 -27 28 -30 13 -46 -10 -10 -12 -16
-4 -16 7 0 12 -9 12 -21 0 -11 5 -17 10 -14 6 3 10 -1 10 -9 0 -8 18 -34 40
-57 22 -23 40 -45 40 -49 0 -4 -23 -19 -51 -33 l-50 -25 -11 24 c-10 21 -17
23 -77 22 -69 -2 -72 -1 -181 67 -52 33 -55 34 -58 14 -2 -11 4 -26 13 -33 14
-10 15 -17 6 -34 -6 -11 -11 -28 -11 -37 0 -24 51 -165 60 -165 4 0 10 37 13
82 4 62 2 89 -9 111 -15 27 -14 28 5 18 34 -18 52 -42 43 -55 -21 -27 -20 -64
5 -145 22 -69 28 -80 34 -62 12 31 16 173 5 194 -7 15 -3 17 31 17 49 0 56 -7
38 -34 -18 -25 -19 -49 -3 -116 10 -45 14 -51 32 -45 66 19 179 36 313 46
l152 12 6 31 c11 51 38 106 52 106 10 0 11 -5 3 -19 -11 -21 -13 -64 -4 -97 4
-15 12 -20 28 -17 33 7 49 65 35 118 -10 37 -9 41 17 62 33 26 40 24 24 -6
-14 -27 -9 -163 6 -168 20 -6 57 115 50 163 -3 24 -1 46 4 49 12 8 13 45 2 45
-5 0 -40 -20 -78 -45 -38 -24 -73 -45 -79 -45 -15 0 -13 206 3 221 35 37 20
39 -253 39 -155 0 -265 -4 -265 -9z m416 -77 c-3 -9 -6 -54 -6 -101 0 -73 -2
-84 -15 -79 -11 4 -23 -6 -37 -30 l-21 -35 -21 20 c-11 11 -33 24 -49 30 l-27
11 20 20 c24 24 30 25 30 5 0 -8 5 -15 10 -15 6 0 10 4 10 8 0 15 37 52 44 45
3 -3 6 1 6 10 0 10 6 17 14 17 9 0 12 8 8 25 -5 28 15 85 30 85 6 0 7 -7 4
-16z m-231 -82 c-3 -3 -11 0 -18 7 -9 10 -8 11 6 5 10 -3 15 -9 12 -12z m215
-154 c0 -19 -18 -43 -25 -36 -4 3 -2 16 5 27 12 24 20 27 20 9z m-378 -40 c-8
-8 -12 -9 -12 -1 0 6 -3 20 -6 30 -7 17 -6 17 12 1 14 -14 16 -20 6 -30z"/>
<path d="M561 308 c-74 -5 -173 -14 -220 -21 l-86 -12 -14 -60 c-14 -60 -14
-61 -100 -121 l-86 -62 -27 31 -28 31 0 -47 0 -47 91 0 c89 0 93 1 140 35 37
28 52 48 68 91 12 30 22 62 22 72 1 9 5 4 9 -13 4 -16 5 -65 2 -107 l-5 -78
152 0 153 0 -6 93 c-6 94 -4 95 28 15 9 -23 33 -50 63 -72 47 -35 50 -36 146
-36 l97 0 -1 58 c0 39 -3 51 -8 37 -5 -11 -18 -28 -29 -39 -21 -18 -22 -18
-111 40 -90 57 -90 58 -103 113 -6 31 -11 68 -10 84 1 15 0 26 -1 26 -1 -1
-62 -6 -136 -11z"/>
</g>
</svg>
