<?xml version="1.0" standalone="no"?>
<!DOCTYPE svg PUBLIC "-//W3C//DTD SVG 20010904//EN"
 "http://www.w3.org/TR/2001/REC-SVG-20010904/DTD/svg10.dtd">
<svg version="1.0" xmlns="http://www.w3.org/2000/svg"
 width="96.000000pt" height="84.000000pt" viewBox="0 0 96.000000 84.000000"
 preserveAspectRatio="xMidYMid meet">
<metadata>
Created by potrace 1.16, written by Peter Selinger 2001-2019
</metadata>
<g transform="translate(0.000000,84.000000) scale(0.100000,-0.100000)"
fill="#000000" stroke="none">
<path d="M308 822 c21 -16 22 -20 8 -31 -17 -15 -22 -36 -6 -26 6 4 10 -5 10
-20 0 -15 4 -24 10 -20 6 3 10 0 10 -8 0 -18 73 -91 82 -82 2 2 4 -5 4 -17 0
-14 -11 -25 -36 -35 -19 -8 -43 -22 -52 -30 -15 -13 -18 -12 -31 12 -13 26
-18 28 -93 29 -76 1 -82 3 -144 44 l-65 43 -3 -108 c-3 -102 9 -183 27 -183 5
0 13 39 19 86 10 72 9 91 -3 115 -18 35 -6 37 30 7 26 -22 26 -24 11 -60 -9
-20 -14 -43 -11 -50 2 -7 9 -32 15 -55 8 -32 16 -43 30 -43 12 0 22 9 25 23 9
37 10 101 2 125 -8 21 -6 22 37 22 49 0 53 -4 31 -34 -15 -20 -19 -65 -9 -102
6 -22 7 -22 267 -17 280 5 287 7 287 57 0 30 40 106 56 106 12 0 12 -4 -1 -30
-12 -23 -14 -42 -8 -77 7 -42 12 -48 33 -48 20 0 26 7 38 47 12 42 11 52 -4
84 l-18 37 28 23 c43 37 57 31 33 -14 -10 -17 -11 -41 -4 -95 5 -40 13 -76 17
-81 20 -20 31 39 28 154 l-3 120 -45 -31 c-25 -16 -56 -36 -70 -43 l-25 -14
-4 82 c-2 44 -4 98 -5 119 l0 37 -261 0 c-252 0 -259 -1 -237 -18z m400 -112
c-2 -99 -4 -110 -21 -110 -10 0 -27 -15 -38 -35 l-21 -34 -26 25 c-15 13 -37
27 -49 30 -13 4 -23 13 -23 21 0 8 5 11 10 8 6 -3 13 1 17 11 5 14 8 13 18 -7
l13 -22 12 24 c22 39 35 50 49 36 10 -9 11 -6 6 16 -6 20 -4 27 8 27 10 0 13
6 10 20 -5 18 23 100 33 100 2 0 3 -49 2 -110z m-228 -7 c0 -7 -39 17 -46 28
-3 6 5 3 20 -6 14 -10 26 -19 26 -22z m-186 -205 c-8 -13 -20 1 -28 32 l-7 25
20 -24 c12 -12 18 -28 15 -33z m406 45 c-1 -20 -28 -55 -34 -45 -4 6 -1 20 6
32 13 20 28 27 28 13z"/>
<path d="M323 323 l-92 -4 1 -27 c1 -15 -4 -53 -11 -84 -12 -57 -13 -58 -106
-123 -51 -36 -98 -65 -104 -65 -6 0 -11 -4 -11 -10 0 -6 38 -10 94 -10 l93 0
42 37 c31 29 47 55 65 108 l25 70 0 -107 1 -108 161 0 162 0 -6 72 c-4 41 -2
80 3 88 8 13 10 12 10 -2 0 -41 35 -101 73 -129 38 -27 46 -29 139 -29 59 0
98 4 98 10 0 6 -5 10 -12 10 -6 0 -55 28 -109 63 -87 55 -99 66 -104 97 -4 19
-14 61 -22 93 l-16 57 -141 -2 c-77 -1 -182 -4 -233 -5z"/>
<path d="M710 315 c0 -8 5 -15 10 -15 6 0 10 7 10 15 0 8 -4 15 -10 15 -5 0
-10 -7 -10 -15z"/>
</g>
</svg>
