<?xml version="1.0" standalone="no"?>
<!DOCTYPE svg PUBLIC "-//W3C//DTD SVG 20010904//EN"
 "http://www.w3.org/TR/2001/REC-SVG-20010904/DTD/svg10.dtd">
<svg version="1.0" xmlns="http://www.w3.org/2000/svg"
 width="96.000000pt" height="84.000000pt" viewBox="0 0 96.000000 84.000000"
 preserveAspectRatio="xMidYMid meet">
<metadata>
Created by potrace 1.16, written by Peter Selinger 2001-2019
</metadata>
<g transform="translate(0.000000,84.000000) scale(0.100000,-0.100000)"
fill="#000000" stroke="none">
<path d="M293 833 c-18 -7 -16 -23 2 -23 8 0 15 -9 15 -21 0 -11 5 -17 10 -14
6 3 10 -3 10 -15 0 -22 53 -84 63 -73 4 3 7 -1 7 -10 0 -10 5 -14 14 -11 11 4
13 0 9 -16 -4 -14 -22 -29 -48 -40 -24 -10 -46 -23 -49 -29 -12 -18 -26 -12
-36 14 -9 23 -13 24 -89 22 -76 -1 -81 0 -135 36 -31 20 -58 37 -61 37 -14 0
-2 -39 14 -45 10 -3 26 -14 36 -25 17 -18 17 -21 0 -56 -15 -32 -15 -44 -5
-100 13 -68 19 -78 44 -68 22 8 41 109 28 150 -9 30 -8 33 12 36 11 2 33 2 47
0 l26 -4 -19 -36 c-12 -25 -16 -47 -12 -72 12 -75 10 -73 73 -66 31 3 160 6
288 7 260 1 236 -7 249 82 3 26 10 47 14 47 4 0 11 11 14 25 4 14 13 25 21 25
18 0 18 1 4 -38 -8 -23 -7 -46 1 -87 10 -48 14 -55 35 -55 20 0 25 7 34 50 14
67 14 76 -6 117 -16 35 -16 36 4 52 11 9 28 21 38 26 10 6 16 18 14 27 -3 14
-12 12 -59 -17 -65 -42 -73 -43 -59 -8 6 17 6 50 -1 100 -5 41 -10 76 -10 79
0 2 -22 4 -50 4 l-50 0 0 -109 0 -108 -25 4 c-20 4 -27 -1 -41 -31 -20 -40
-26 -43 -45 -20 -7 8 -30 24 -51 35 -35 18 -55 45 -25 33 8 -3 18 5 25 18 l11
23 0 -22 c1 -35 14 -34 41 3 14 18 31 32 38 29 7 -3 12 5 12 20 0 16 6 25 16
25 12 0 14 3 6 13 -7 8 -6 23 3 50 l13 37 -202 -1 c-110 0 -207 -3 -213 -6z
m197 -89 c0 -2 -13 2 -30 11 -16 9 -30 18 -30 21 0 2 14 -2 30 -11 17 -9 30
-18 30 -21z m217 -204 c-8 -22 -14 -26 -24 -19 -10 9 -9 16 5 34 23 30 33 22
19 -15z m-437 10 c6 -11 8 -25 4 -32 -6 -10 -33 25 -34 45 0 15 20 6 30 -13z"/>
<path d="M1 548 l1 -83 12 55 c11 48 5 110 -10 110 -2 0 -3 -37 -3 -82z"/>
<path d="M944 606 c-3 -13 -1 -43 4 -67 l10 -44 1 68 c1 69 -4 85 -15 43z"/>
<path d="M284 323 l-70 -4 -13 -87 -13 -87 -94 -64 c-52 -35 -94 -68 -94 -72
0 -5 43 -9 96 -9 96 0 97 0 128 33 19 20 40 61 54 105 13 40 26 72 29 72 3 0
3 -46 1 -102 l-3 -103 175 0 175 0 -2 85 -2 85 20 -58 c11 -31 34 -71 51 -87
29 -29 31 -30 134 -30 57 0 104 3 104 8 0 4 -45 36 -99 71 -96 62 -99 65 -106
108 -3 24 -13 66 -21 94 l-15 49 -182 -2 c-100 -1 -214 -4 -253 -5z"/>
<path d="M740 308 c0 -19 2 -20 10 -8 13 19 13 30 0 30 -5 0 -10 -10 -10 -22z"/>
</g>
</svg>
