<?xml version="1.0" standalone="no"?>
<!DOCTYPE svg PUBLIC "-//W3C//DTD SVG 20010904//EN"
 "http://www.w3.org/TR/2001/REC-SVG-20010904/DTD/svg10.dtd">
<svg version="1.0" xmlns="http://www.w3.org/2000/svg"
 width="96.000000pt" height="84.000000pt" viewBox="0 0 96.000000 84.000000"
 preserveAspectRatio="xMidYMid meet">
<metadata>
Created by potrace 1.16, written by Peter Selinger 2001-2019
</metadata>
<g transform="translate(0.000000,84.000000) scale(0.100000,-0.100000)"
fill="#000000" stroke="none">
<path d="M290 825 c0 -9 6 -12 15 -9 11 5 15 -1 15 -18 0 -26 32 -63 43 -51 4
3 7 -1 7 -10 0 -11 5 -14 17 -10 13 5 15 2 10 -11 -5 -13 -3 -17 6 -13 10 4
13 -2 9 -18 -2 -15 -15 -28 -33 -34 -17 -6 -43 -19 -58 -31 -37 -25 -36 -25
-50 8 -12 29 -12 29 -91 24 -71 -4 -83 -2 -126 22 -55 31 -54 31 -54 8 0 -9 9
-23 20 -30 20 -12 28 -42 11 -42 -21 0 -31 -63 -21 -124 16 -87 19 -96 40 -96
27 0 58 134 43 185 l-11 35 55 0 c52 0 55 -1 41 -17 -29 -36 -35 -66 -24 -128
l11 -60 310 3 c171 2 313 7 317 11 4 3 12 37 17 74 5 37 17 74 25 83 9 8 16
22 16 30 0 8 7 14 15 14 18 0 18 1 4 -39 -10 -29 -6 -69 18 -153 7 -28 42 -22
54 10 19 47 17 157 -4 179 -16 19 -16 21 3 38 18 17 28 55 14 55 -3 0 -18 -8
-32 -18 -15 -10 -32 -22 -38 -25 -8 -5 -10 18 -6 84 l5 90 -64 -3 -64 -3 1
-87 1 -87 -31 -3 c-18 -2 -35 -11 -41 -23 -23 -46 -25 -46 -63 -16 -20 16 -47
32 -59 36 -13 3 -23 14 -23 23 0 14 2 15 10 2 7 -11 11 -8 21 15 12 28 13 29
16 8 6 -32 24 -28 53 11 18 25 28 31 38 24 9 -8 12 -3 12 20 0 24 4 30 15 26
17 -7 21 11 4 21 -6 4 -8 13 -5 21 4 12 -18 14 -132 14 -123 -1 -135 -2 -118
-15 11 -8 24 -15 30 -15 5 0 7 -2 4 -5 -7 -8 -58 16 -58 27 0 4 -31 8 -70 8
-55 0 -70 -3 -70 -15z m435 -255 c-5 -25 -10 -29 -21 -20 -11 10 -11 16 3 36
20 31 27 25 18 -16z m-475 10 c6 -11 8 -25 4 -32 -6 -10 -33 25 -34 45 0 15
20 6 30 -13z"/>
<path d="M263 323 c-82 -4 -82 -4 -81 -31 1 -15 -5 -56 -12 -92 l-14 -65 -75
-50 c-42 -28 -77 -58 -79 -68 -3 -15 7 -17 89 -17 115 0 127 9 166 124 l28 81
3 -102 3 -103 189 0 190 0 1 83 0 82 23 -63 c37 -99 41 -102 163 -102 130 0
133 10 20 79 l-83 51 -23 100 -22 100 -202 -2 c-111 -1 -239 -4 -284 -5z"/>
<path d="M760 321 c0 -6 5 -13 10 -16 6 -3 10 1 10 9 0 9 -4 16 -10 16 -5 0
-10 -4 -10 -9z"/>
</g>
</svg>
