<?xml version="1.0" standalone="no"?>
<!DOCTYPE svg PUBLIC "-//W3C//DTD SVG 20010904//EN"
 "http://www.w3.org/TR/2001/REC-SVG-20010904/DTD/svg10.dtd">
<svg version="1.0" xmlns="http://www.w3.org/2000/svg"
 width="96.000000pt" height="84.000000pt" viewBox="0 0 96.000000 84.000000"
 preserveAspectRatio="xMidYMid meet">
<metadata>
Created by potrace 1.16, written by Peter Selinger 2001-2019
</metadata>
<g transform="translate(0.000000,84.000000) scale(0.100000,-0.100000)"
fill="#000000" stroke="none">
<path d="M310 832 c0 -14 36 -43 43 -35 4 3 7 -4 7 -17 0 -23 0 -23 15 -4 14
18 14 18 15 -7 0 -14 5 -30 12 -37 15 -15 5 -24 -42 -42 -19 -7 -47 -24 -62
-38 l-26 -24 -15 28 c-15 29 -16 29 -109 29 -74 0 -99 4 -120 19 l-28 18 0
-166 c0 -134 3 -166 14 -166 9 0 21 30 35 85 20 82 20 125 -1 151 -11 14 12
24 55 24 44 0 63 -13 43 -29 -29 -24 -34 -73 -15 -167 l10 -50 337 4 c215 3
339 8 344 15 3 5 9 35 13 65 11 91 15 107 30 118 8 6 15 19 15 28 0 9 8 16 19
16 17 0 18 -3 5 -38 -11 -34 -10 -48 5 -109 10 -39 22 -76 25 -82 20 -32 26 1
26 149 l0 160 -26 -17 -27 -17 7 34 c4 19 8 51 9 70 l2 35 -74 3 -74 3 7 -75
7 -75 -34 6 c-32 5 -36 2 -57 -36 l-23 -40 -36 32 c-20 18 -51 39 -69 46 -17
7 -32 18 -32 23 0 5 5 6 11 2 7 -4 20 4 30 17 l19 24 0 -22 c0 -29 7 -29 35 1
13 14 25 22 28 20 3 -3 8 5 12 17 7 22 8 22 21 4 13 -17 14 -16 14 18 l0 37
-200 0 c-110 0 -200 -4 -200 -8z m442 -223 c-5 -11 -11 -20 -15 -20 -4 1 -12
1 -17 1 -6 0 -3 11 6 25 19 29 37 24 26 -6z m-521 0 c7 -15 8 -24 0 -32 -7 -7
-13 -2 -21 17 -12 34 -12 36 0 36 5 0 14 -9 21 -21z"/>
<path d="M254 323 l-91 -4 -17 -77 c-9 -42 -19 -86 -21 -98 -3 -12 -29 -36
-65 -58 -47 -29 -60 -43 -60 -62 0 -24 1 -24 94 -24 l93 0 25 58 c14 31 29 72
32 90 15 65 26 42 26 -52 l0 -96 210 0 210 0 0 78 1 77 25 -64 c13 -35 29 -70
35 -78 8 -9 40 -13 111 -13 97 0 99 1 96 22 -2 16 -23 34 -68 60 -60 35 -66
41 -72 80 -4 24 -15 71 -24 106 l-16 62 -217 -2 c-119 -1 -257 -4 -307 -5z"/>
<path d="M790 314 c0 -8 5 -12 10 -9 6 3 10 10 10 16 0 5 -4 9 -10 9 -5 0 -10
-7 -10 -16z"/>
</g>
</svg>
