<?xml version="1.0" standalone="no"?>
<!DOCTYPE svg PUBLIC "-//W3C//DTD SVG 20010904//EN"
 "http://www.w3.org/TR/2001/REC-SVG-20010904/DTD/svg10.dtd">
<svg version="1.0" xmlns="http://www.w3.org/2000/svg"
 width="96.000000pt" height="84.000000pt" viewBox="0 0 96.000000 84.000000"
 preserveAspectRatio="xMidYMid meet">
<metadata>
Created by potrace 1.16, written by Peter Selinger 2001-2019
</metadata>
<g transform="translate(0.000000,84.000000) scale(0.100000,-0.100000)"
fill="#000000" stroke="none">
<path d="M350 825 c0 -8 2 -15 4 -15 2 0 6 7 10 15 3 8 1 15 -4 15 -6 0 -10
-7 -10 -15z"/>
<path d="M380 809 c0 -19 4 -28 11 -23 7 4 10 0 7 -11 -2 -10 -20 -24 -42 -32
-22 -7 -55 -25 -74 -40 -23 -17 -37 -23 -40 -15 -2 6 -11 20 -20 31 -15 18
-23 18 -79 9 -43 -7 -75 -7 -103 0 -40 10 -40 10 -40 -19 l0 -29 65 0 c60 0
84 -11 52 -23 -29 -11 -36 -74 -20 -166 l16 -88 361 5 c199 2 364 7 369 11 11
11 37 169 30 188 -4 10 -2 14 4 10 6 -4 13 7 17 26 5 25 9 29 16 17 8 -12 11
-11 16 8 4 12 12 22 19 22 10 0 14 20 14 75 l0 75 -70 0 -70 0 6 -54 7 -54
-45 5 c-45 5 -46 5 -67 -36 l-21 -42 -20 26 c-12 14 -40 36 -63 48 l-43 22 15
35 c15 34 16 35 21 10 3 -14 11 -25 18 -25 10 0 63 50 63 61 0 2 -70 4 -155 4
l-155 0 0 -31z m177 -41 c-3 -8 -6 -5 -6 6 -1 11 2 17 5 13 3 -3 4 -12 1 -19z
m223 -105 c0 -28 -17 -50 -29 -38 -8 8 -6 18 5 33 18 27 24 28 24 5z m-566
-44 c-3 -5 -9 -9 -13 -9 -11 0 -31 47 -23 55 9 9 43 -35 36 -46z"/>
<path d="M940 638 c-9 -33 -9 -52 3 -92 l15 -51 1 93 c1 50 -1 92 -4 92 -2 0
-9 -19 -15 -42z"/>
<path d="M1 565 l0 -110 19 69 c14 53 16 75 8 100 -21 63 -28 48 -27 -59z"/>
<path d="M243 323 l-112 -4 -21 -65 c-11 -37 -20 -79 -20 -96 0 -30 -35 -72
-71 -83 -14 -5 -19 -16 -19 -41 l0 -34 84 0 85 0 29 78 c16 42 32 84 35 92 3
8 6 -27 6 -77 l1 -93 240 0 240 0 -5 37 c-3 21 -1 52 4 68 5 17 10 25 10 18 1
-7 10 -37 22 -68 l20 -55 95 0 94 0 0 28 c0 22 -9 32 -48 54 l-48 27 -18 88
c-10 48 -18 98 -18 111 l0 22 -237 -2 c-130 -1 -286 -4 -348 -5z"/>
</g>
</svg>
