<?xml version="1.0" standalone="no"?>
<!DOCTYPE svg PUBLIC "-//W3C//DTD SVG 20010904//EN"
 "http://www.w3.org/TR/2001/REC-SVG-20010904/DTD/svg10.dtd">
<svg version="1.0" xmlns="http://www.w3.org/2000/svg"
 width="96.000000pt" height="84.000000pt" viewBox="0 0 96.000000 84.000000"
 preserveAspectRatio="xMidYMid meet">
<metadata>
Created by potrace 1.16, written by Peter Selinger 2001-2019
</metadata>
<g transform="translate(0.000000,84.000000) scale(0.100000,-0.100000)"
fill="#000000" stroke="none">
<path d="M387 827 c-3 -7 -24 -19 -47 -26 -22 -7 -58 -28 -79 -46 l-38 -34
-17 35 c-12 27 -21 34 -34 29 -9 -4 -52 -9 -95 -12 -73 -6 -77 -7 -77 -29 0
-22 4 -24 51 -24 l50 0 -20 -26 c-29 -37 -35 -84 -20 -162 7 -37 13 -71 14
-77 0 -5 4 -20 8 -31 l8 -21 387 5 c256 3 389 8 394 15 4 6 14 53 24 103 14
76 15 100 6 132 -17 56 -14 74 5 30 16 -41 33 -42 33 -3 0 13 5 27 10 30 6 3
10 33 10 66 l0 59 -46 0 c-46 0 -46 0 -40 -30 l6 -31 -58 7 -58 6 -18 -41 -19
-41 -44 40 c-24 22 -55 45 -69 50 -17 7 -24 15 -20 25 3 9 0 15 -8 15 -8 0
-17 -6 -19 -12 -4 -10 -6 -10 -6 0 -1 18 -167 17 -174 -1z m493 -107 c0 -5 -2
-10 -4 -10 -3 0 -8 5 -11 10 -3 6 -1 10 4 10 6 0 11 -4 11 -10z m-70 -12 c0
-21 -17 -41 -29 -34 -7 5 -7 13 2 26 13 23 27 26 27 8z m-633 -17 c10 -15 9
-22 -2 -31 -8 -7 -15 -9 -15 -4 0 5 -3 19 -6 32 -8 27 7 29 23 3z"/>
<path d="M620 829 c0 -5 5 -7 10 -4 6 3 10 8 10 11 0 2 -4 4 -10 4 -5 0 -10
-5 -10 -11z"/>
<path d="M218 321 c-69 -3 -129 -9 -133 -13 -11 -10 -45 -148 -45 -179 0 -18
-7 -32 -20 -39 -15 -8 -20 -21 -20 -51 l0 -40 72 3 73 3 30 80 30 80 3 -83 3
-82 270 0 269 0 -5 23 c-2 12 -1 37 3 55 l7 34 19 -56 19 -56 84 0 83 0 0 35
c0 19 -4 35 -10 35 -21 0 -50 41 -50 72 0 17 -9 67 -21 110 l-21 78 -257 -2
c-141 -1 -313 -4 -383 -7z"/>
</g>
</svg>
