<?xml version="1.0" standalone="no"?>
<!DOCTYPE svg PUBLIC "-//W3C//DTD SVG 20010904//EN"
 "http://www.w3.org/TR/2001/REC-SVG-20010904/DTD/svg10.dtd">
<svg version="1.0" xmlns="http://www.w3.org/2000/svg"
 width="96.000000pt" height="84.000000pt" viewBox="0 0 96.000000 84.000000"
 preserveAspectRatio="xMidYMid meet">
<metadata>
Created by potrace 1.16, written by Peter Selinger 2001-2019
</metadata>
<g transform="translate(0.000000,84.000000) scale(0.100000,-0.100000)"
fill="#000000" stroke="none">
<path d="M110 830 c-14 -4 -44 -8 -67 -9 -39 -1 -43 -3 -43 -26 0 -21 5 -25
30 -25 36 0 36 -2 9 -39 -29 -39 -34 -95 -14 -170 13 -52 14 -66 3 -72 -10 -6
-8 -13 9 -31 11 -13 23 -32 25 -42 3 -17 12 -19 93 -17 49 1 92 4 96 7 5 2
150 5 323 5 l316 0 17 37 c9 20 15 41 14 46 -1 5 5 41 14 79 18 81 13 134 -17
172 -11 14 -18 28 -15 31 10 10 46 -7 50 -24 3 -9 5 6 5 33 l-1 50 -84 2 -84
2 -16 -35 c-9 -18 -20 -34 -23 -34 -3 0 -20 16 -37 35 l-31 35 -211 0 -210 0
-33 -29 -34 -29 -16 29 c-18 30 -26 32 -68 19z m726 -97 c-5 -12 -10 -13 -18
-5 -8 8 -8 15 3 28 15 18 25 4 15 -23z m-686 -9 c0 -17 -12 -18 -27 -3 -17 17
-5 43 13 28 8 -6 14 -18 14 -25z"/>
<path d="M210 319 c-74 -3 -145 -7 -157 -8 -33 -2 -53 -80 -53 -208 l0 -103
58 0 58 0 27 73 26 72 0 -72 1 -73 305 0 305 0 0 47 c0 52 11 49 30 -9 l12
-38 70 0 71 0 -5 83 c-3 45 -16 119 -28 165 l-22 82 -282 -2 c-154 -1 -342 -5
-416 -9z"/>
</g>
</svg>
