<?xml version="1.0" standalone="no"?>
<!DOCTYPE svg PUBLIC "-//W3C//DTD SVG 20010904//EN"
 "http://www.w3.org/TR/2001/REC-SVG-20010904/DTD/svg10.dtd">
<svg version="1.0" xmlns="http://www.w3.org/2000/svg"
 width="96.000000pt" height="84.000000pt" viewBox="0 0 96.000000 84.000000"
 preserveAspectRatio="xMidYMid meet">
<metadata>
Created by potrace 1.16, written by Peter Selinger 2001-2019
</metadata>
<g transform="translate(0.000000,84.000000) scale(0.100000,-0.100000)"
fill="#000000" stroke="none">
<path d="M525 784 c-17 -9 -52 -16 -80 -16 -28 1 -60 -5 -73 -14 l-22 -15 31
-59 c44 -85 44 -161 0 -247 -18 -34 -39 -98 -47 -142 -14 -72 -14 -84 0 -113
8 -18 16 -53 18 -77 3 -48 22 -65 33 -31 4 12 9 20 11 17 2 -2 -3 -20 -11 -40
-8 -20 -15 -39 -15 -42 0 -3 65 -5 144 -5 168 0 155 -10 166 128 7 87 6 96
-21 165 -15 39 -28 84 -29 99 0 14 -5 28 -11 30 -24 8 -48 196 -26 210 7 4 5
15 -6 31 -15 24 -15 25 3 30 15 4 20 14 20 40 0 69 -24 84 -85 51z"/>
</g>
</svg>
