<?xml version="1.0" standalone="no"?>
<!DOCTYPE svg PUBLIC "-//W3C//DTD SVG 20010904//EN"
 "http://www.w3.org/TR/2001/REC-SVG-20010904/DTD/svg10.dtd">
<svg version="1.0" xmlns="http://www.w3.org/2000/svg"
 width="96.000000pt" height="84.000000pt" viewBox="0 0 96.000000 84.000000"
 preserveAspectRatio="xMidYMid meet">
<metadata>
Created by potrace 1.16, written by Peter Selinger 2001-2019
</metadata>
<g transform="translate(0.000000,84.000000) scale(0.100000,-0.100000)"
fill="#000000" stroke="none">
<path d="M0 834 c0 -4 8 -13 18 -20 16 -12 16 -13 0 -19 -16 -6 -18 -24 -18
-166 0 -108 3 -159 11 -159 7 0 8 -14 4 -40 l-7 -41 39 6 c80 11 453 25 664
25 205 0 219 1 219 18 0 10 7 27 15 38 20 26 22 329 2 321 -7 -3 -13 3 -14 13
-1 11 6 21 15 23 9 2 -200 5 -465 6 -266 1 -483 -2 -483 -5z m873 -47 c-3 -5
-10 -4 -15 1 -6 6 -7 16 -3 22 6 9 9 9 16 -1 4 -7 5 -17 2 -22z m-758 -15
c-11 -11 -34 8 -28 24 6 15 7 15 20 -1 7 -10 11 -21 8 -23z"/>
<path d="M330 330 c-91 -4 -202 -8 -247 -9 l-83 -1 0 -161 0 -160 42 3 c42 3
43 4 63 58 l20 55 3 -58 3 -57 344 0 345 0 0 25 c0 32 16 32 24 0 6 -23 11
-25 61 -25 l55 0 0 169 0 169 -232 -1 c-128 0 -307 -3 -398 -7z"/>
</g>
</svg>
