<?xml version="1.0" standalone="no"?>
<!DOCTYPE svg PUBLIC "-//W3C//DTD SVG 20010904//EN"
 "http://www.w3.org/TR/2001/REC-SVG-20010904/DTD/svg10.dtd">
<svg version="1.0" xmlns="http://www.w3.org/2000/svg"
 width="96.000000pt" height="84.000000pt" viewBox="0 0 96.000000 84.000000"
 preserveAspectRatio="xMidYMid meet">
<metadata>
Created by potrace 1.16, written by Peter Selinger 2001-2019
</metadata>
<g transform="translate(0.000000,84.000000) scale(0.100000,-0.100000)"
fill="#000000" stroke="none">
<path d="M0 619 l0 -221 58 6 c122 14 488 24 690 18 l212 -5 0 212 0 211 -438
0 c-337 0 -441 -3 -451 -12 -11 -10 -14 -10 -18 0 -3 6 -16 12 -29 12 l-24 0
0 -221z"/>
<path d="M185 339 c-72 -3 -142 -7 -157 -8 l-28 -1 0 -165 0 -165 24 0 c18 0
28 9 39 38 l16 37 0 -37 1 -38 394 0 c306 0 395 3 399 13 4 9 6 9 6 0 1 -8 16
-13 41 -13 l40 0 0 175 0 175 -322 -2 c-178 -1 -381 -5 -453 -9z"/>
</g>
</svg>
