<?xml version="1.0" standalone="no"?>
<!DOCTYPE svg PUBLIC "-//W3C//DTD SVG 20010904//EN"
 "http://www.w3.org/TR/2001/REC-SVG-20010904/DTD/svg10.dtd">
<svg version="1.0" xmlns="http://www.w3.org/2000/svg"
 width="96.000000pt" height="84.000000pt" viewBox="0 0 96.000000 84.000000"
 preserveAspectRatio="xMidYMid meet">
<metadata>
Created by potrace 1.16, written by Peter Selinger 2001-2019
</metadata>
<g transform="translate(0.000000,84.000000) scale(0.100000,-0.100000)"
fill="#000000" stroke="none">
<path d="M0 624 l0 -216 38 6 c81 13 537 27 712 22 l186 -4 12 39 c7 24 12
102 12 204 l0 165 -480 0 -480 0 0 -216z"/>
<path d="M200 359 c-74 -3 -150 -7 -167 -8 l-33 -1 0 -175 c0 -96 4 -175 8
-175 5 0 14 10 20 23 l11 22 0 -22 1 -23 461 0 460 0 -3 168 c-2 125 -7 173
-17 185 -12 15 -45 17 -310 15 -163 -1 -357 -5 -431 -9z"/>
</g>
</svg>
