<?xml version="1.0" standalone="no"?>
<!DOCTYPE svg PUBLIC "-//W3C//DTD SVG 20010904//EN"
 "http://www.w3.org/TR/2001/REC-SVG-20010904/DTD/svg10.dtd">
<svg version="1.0" xmlns="http://www.w3.org/2000/svg"
 width="96.000000pt" height="84.000000pt" viewBox="0 0 96.000000 84.000000"
 preserveAspectRatio="xMidYMid meet">
<metadata>
Created by potrace 1.16, written by Peter Selinger 2001-2019
</metadata>
<g transform="translate(0.000000,84.000000) scale(0.100000,-0.100000)"
fill="#000000" stroke="none">
<path d="M0 634 l0 -206 26 6 c59 15 240 25 447 26 186 0 217 2 217 15 0 18
16 20 26 4 4 -7 20 -9 40 -6 20 4 37 1 44 -7 5 -8 29 -16 52 -19 39 -5 44 -3
75 31 l32 37 1 163 0 162 -480 0 -480 0 0 -206z"/>
<path d="M844 405 c22 -16 56 -20 56 -6 0 9 -34 21 -60 21 -11 -1 -10 -4 4
-15z"/>
<path d="M63 403 l-63 -4 0 -199 0 -200 480 0 480 0 0 94 c0 59 -4 97 -11 102
-7 4 -9 23 -5 50 l5 43 -52 29 c-28 16 -69 35 -89 41 -20 7 -48 21 -61 31 -21
17 -26 18 -31 5 -7 -19 -26 -19 -26 0 0 13 -37 15 -282 13 -156 -1 -311 -3
-345 -5z"/>
</g>
</svg>
