<?xml version="1.0" standalone="no"?>
<!DOCTYPE svg PUBLIC "-//W3C//DTD SVG 20010904//EN"
 "http://www.w3.org/TR/2001/REC-SVG-20010904/DTD/svg10.dtd">
<svg version="1.0" xmlns="http://www.w3.org/2000/svg"
 width="96.000000pt" height="84.000000pt" viewBox="0 0 96.000000 84.000000"
 preserveAspectRatio="xMidYMid meet">
<metadata>
Created by potrace 1.16, written by Peter Selinger 2001-2019
</metadata>
<g transform="translate(0.000000,84.000000) scale(0.100000,-0.100000)"
fill="#000000" stroke="none">
<path d="M0 631 l0 -210 36 15 c39 16 274 33 468 33 87 0 121 3 128 13 6 11
10 10 17 -1 6 -9 18 -11 35 -7 17 4 35 1 49 -9 35 -24 70 -19 89 13 10 16 44
43 78 61 l60 32 0 135 0 134 -480 0 -480 0 0 -209z"/>
<path d="M187 420 c-86 -4 -164 -10 -172 -14 -13 -4 -15 -37 -15 -206 l0 -200
305 0 c300 0 305 0 293 20 -20 31 -3 34 39 6 35 -24 45 -26 157 -26 l119 0 -7
63 c-8 75 -8 75 0 109 5 22 2 29 -12 34 -46 17 -70 64 -44 90 5 5 6 14 2 19
-9 13 -113 65 -129 65 -6 0 -25 12 -42 26 l-31 26 0 -24 c-1 -21 -2 -22 -14
-5 -12 15 -34 18 -152 21 -77 2 -210 1 -297 -4z"/>
<path d="M754 421 c10 -16 46 -20 46 -5 0 8 -10 14 -26 14 -14 0 -23 -4 -20
-9z"/>
</g>
</svg>
