<?xml version="1.0" standalone="no"?>
<!DOCTYPE svg PUBLIC "-//W3C//DTD SVG 20010904//EN"
 "http://www.w3.org/TR/2001/REC-SVG-20010904/DTD/svg10.dtd">
<svg version="1.0" xmlns="http://www.w3.org/2000/svg"
 width="96.000000pt" height="84.000000pt" viewBox="0 0 96.000000 84.000000"
 preserveAspectRatio="xMidYMid meet">
<metadata>
Created by potrace 1.16, written by Peter Selinger 2001-2019
</metadata>
<g transform="translate(0.000000,84.000000) scale(0.100000,-0.100000)"
fill="#000000" stroke="none">
<path d="M0 420 l0 -420 337 0 337 0 -67 42 c-37 24 -67 49 -67 55 0 19 6 17
86 -33 52 -32 79 -44 94 -39 13 4 22 1 26 -9 3 -9 16 -16 29 -16 40 0 46 20
36 111 -5 46 -6 90 -1 99 10 20 2 40 -15 40 -24 0 -39 39 -26 68 7 13 10 25 9
26 -2 1 -32 15 -68 31 -36 16 -75 38 -87 49 -23 19 -23 19 -23 0 0 -15 -2 -16
-9 -5 -7 11 -58 13 -284 9 -152 -2 -274 0 -271 4 13 20 99 30 309 35 129 3
236 10 243 15 7 6 12 6 12 1 0 -5 16 -7 35 -5 21 3 35 0 35 -7 0 -6 13 -11 30
-11 20 0 35 8 46 25 18 28 107 75 141 75 19 0 23 -5 23 -29 0 -16 6 -31 15
-35 9 -3 15 -18 15 -35 0 -16 4 -33 10 -36 14 -9 13 327 -2 376 l-11 39 -469
0 -468 0 0 -420z"/>
<path d="M695 430 c3 -5 13 -10 21 -10 8 0 12 5 9 10 -3 6 -13 10 -21 10 -8 0
-12 -4 -9 -10z"/>
</g>
</svg>
