<?xml version="1.0" standalone="no"?>
<!DOCTYPE svg PUBLIC "-//W3C//DTD SVG 20010904//EN"
 "http://www.w3.org/TR/2001/REC-SVG-20010904/DTD/svg10.dtd">
<svg version="1.0" xmlns="http://www.w3.org/2000/svg"
 width="96.000000pt" height="84.000000pt" viewBox="0 0 96.000000 84.000000"
 preserveAspectRatio="xMidYMid meet">
<metadata>
Created by potrace 1.16, written by Peter Selinger 2001-2019
</metadata>
<g transform="translate(0.000000,84.000000) scale(0.100000,-0.100000)"
fill="#000000" stroke="none">
<path d="M0 420 l0 -420 340 2 c220 2 339 7 338 13 -2 6 -11 9 -20 8 -11 -2
-18 4 -18 15 0 10 -24 30 -61 52 -62 36 -86 56 -76 66 3 3 36 -13 73 -35 51
-31 70 -38 81 -30 10 9 14 7 20 -7 10 -29 26 -35 46 -17 15 14 17 31 15 112
-2 82 -5 98 -22 112 -18 15 -19 20 -8 43 12 27 11 28 -55 58 -38 17 -71 35
-75 42 -6 8 -11 7 -18 -4 -8 -12 -10 -12 -10 -1 0 11 -41 13 -252 9 -204 -4
-248 -3 -234 8 27 19 101 26 296 28 98 1 181 4 185 7 5 6 57 -2 101 -16 16 -5
25 0 38 20 18 27 92 65 127 65 13 0 19 -7 19 -24 0 -13 7 -27 16 -30 10 -4 13
-13 9 -26 -4 -12 -1 -28 6 -36 8 -10 13 -57 15 -137 1 -76 7 -140 17 -170 14
-43 14 -48 -1 -56 -27 -15 -5 -25 30 -15 l33 10 3 282 2 283 -29 25 c-17 14
-39 48 -49 77 -11 29 -26 64 -33 80 l-12 27 -419 0 -418 0 0 -420z"/>
<path d="M897 793 c16 -48 39 -83 55 -83 4 0 8 29 8 65 l0 65 -39 0 -40 0 16
-47z"/>
</g>
</svg>
