<?xml version="1.0" standalone="no"?>
<!DOCTYPE svg PUBLIC "-//W3C//DTD SVG 20010904//EN"
 "http://www.w3.org/TR/2001/REC-SVG-20010904/DTD/svg10.dtd">
<svg version="1.0" xmlns="http://www.w3.org/2000/svg"
 width="96.000000pt" height="84.000000pt" viewBox="0 0 96.000000 84.000000"
 preserveAspectRatio="xMidYMid meet">
<metadata>
Created by potrace 1.16, written by Peter Selinger 2001-2019
</metadata>
<g transform="translate(0.000000,84.000000) scale(0.100000,-0.100000)"
fill="#000000" stroke="none">
<path d="M0 420 l0 -420 244 0 c189 0 243 3 242 13 0 6 4 12 9 12 6 0 9 -6 9
-12 -2 -17 3 -16 59 3 46 15 74 45 62 64 -3 5 -12 7 -20 3 -9 -3 -15 1 -15 11
0 8 -15 23 -32 32 -54 28 -89 55 -82 65 4 6 12 5 22 -4 27 -23 96 -55 109 -50
7 3 16 -2 19 -11 8 -20 28 -21 44 -1 18 22 19 173 1 180 -10 4 -12 16 -8 41 6
35 5 36 -51 61 -31 15 -60 31 -64 37 -6 8 -11 6 -18 -4 -6 -10 -10 -11 -10 -2
0 14 -209 16 -357 4 -81 -7 -106 0 -60 17 45 17 469 33 484 18 13 -14 35 -6
63 21 28 29 103 58 120 47 5 -3 7 -12 3 -21 -3 -8 3 -21 13 -29 15 -11 16 -16
7 -26 -9 -9 -9 -17 -1 -33 6 -12 11 -57 10 -101 0 -44 4 -109 10 -144 9 -52 8
-65 -3 -72 -31 -19 22 -8 86 18 l65 27 0 227 0 227 -40 7 c-54 9 -85 37 -105
93 -9 26 -21 55 -26 65 -11 20 -3 41 12 32 5 -4 14 -26 20 -50 14 -56 37 -76
94 -82 l45 -6 0 82 0 81 -480 0 -480 0 0 -420z"/>
<path d="M888 83 c-50 -19 -68 -30 -68 -44 0 -26 30 -39 89 -39 l51 0 0 55 c0
30 -1 54 -2 54 -2 -1 -33 -13 -70 -26z"/>
</g>
</svg>
