<?xml version="1.0" standalone="no"?>
<!DOCTYPE svg PUBLIC "-//W3C//DTD SVG 20010904//EN"
 "http://www.w3.org/TR/2001/REC-SVG-20010904/DTD/svg10.dtd">
<svg version="1.0" xmlns="http://www.w3.org/2000/svg"
 width="96.000000pt" height="84.000000pt" viewBox="0 0 96.000000 84.000000"
 preserveAspectRatio="xMidYMid meet">
<metadata>
Created by potrace 1.16, written by Peter Selinger 2001-2019
</metadata>
<g transform="translate(0.000000,84.000000) scale(0.100000,-0.100000)"
fill="#000000" stroke="none">
<path d="M531 794 c-16 -12 -41 -17 -75 -16 -96 3 -105 -13 -58 -101 23 -43
27 -63 26 -118 -1 -37 -9 -82 -17 -100 -21 -45 -54 -145 -67 -203 -8 -37 -7
-52 5 -76 8 -16 15 -39 15 -52 0 -13 7 -34 16 -47 13 -18 14 -28 5 -47 -6 -14
-11 -27 -11 -29 0 -3 68 -5 151 -5 111 0 148 3 143 12 -5 7 -3 8 6 3 21 -13
26 11 24 117 -2 83 -7 116 -28 171 -14 37 -26 80 -26 96 0 16 -4 31 -10 33
-10 3 -40 134 -40 178 0 16 6 30 13 33 9 3 9 9 -1 27 -11 19 -11 24 3 34 12 8
15 24 13 56 -3 42 -5 45 -33 48 -16 1 -41 -5 -54 -14z m56 -476 c-2 -13 -4 -5
-4 17 -1 22 1 32 4 23 2 -10 2 -28 0 -40z"/>
</g>
</svg>
