<?xml version="1.0" standalone="no"?>
<!DOCTYPE svg PUBLIC "-//W3C//DTD SVG 20010904//EN"
 "http://www.w3.org/TR/2001/REC-SVG-20010904/DTD/svg10.dtd">
<svg version="1.0" xmlns="http://www.w3.org/2000/svg"
 width="96.000000pt" height="84.000000pt" viewBox="0 0 96.000000 84.000000"
 preserveAspectRatio="xMidYMid meet">
<metadata>
Created by potrace 1.16, written by Peter Selinger 2001-2019
</metadata>
<g transform="translate(0.000000,84.000000) scale(0.100000,-0.100000)"
fill="#000000" stroke="none">
<path d="M0 420 l0 -420 259 0 c222 0 260 2 272 16 11 13 9 14 -17 7 -41 -11
-98 -10 -104 2 -3 6 7 11 23 13 19 2 27 9 27 23 0 10 5 19 10 19 6 0 10 -6 10
-14 0 -13 7 -12 48 1 26 9 50 21 54 27 13 19 9 38 -7 32 -8 -3 -19 2 -24 12
-5 9 -30 28 -55 42 -25 13 -46 28 -46 32 0 13 11 9 57 -18 25 -14 51 -23 58
-20 8 3 19 -3 24 -12 8 -13 14 -15 28 -6 14 9 19 26 21 80 1 39 -2 78 -9 91
-6 12 -9 29 -5 38 8 23 -11 55 -33 55 -10 0 -30 9 -45 21 -14 11 -26 17 -26
12 0 -4 -92 -8 -205 -8 -113 0 -205 3 -205 6 0 19 17 20 367 33 61 2 94 -1 96
-8 3 -6 17 1 33 16 46 43 133 67 121 34 -3 -8 1 -20 8 -26 11 -9 12 -17 5 -30
-7 -13 -7 -21 1 -25 5 -4 9 -17 8 -28 -1 -12 1 -30 6 -40 4 -9 2 -30 -4 -45
-9 -21 -9 -46 -1 -96 6 -37 8 -71 5 -77 -6 -9 77 21 118 42 13 8 22 8 29 1 20
-20 -1 -39 -69 -64 -100 -37 -98 -55 11 -102 46 -20 92 -36 100 -36 14 0 16
34 16 310 l0 310 -67 -6 c-83 -8 -104 5 -133 84 -24 63 -17 69 10 7 20 -48 48
-63 95 -51 21 5 24 10 15 26 -14 26 -12 81 3 101 7 9 28 26 47 38 l35 21 -482
0 -483 0 0 -420z"/>
<path d="M780 19 c0 -13 24 -22 47 -17 13 3 9 7 -14 15 -20 7 -33 8 -33 2z"/>
</g>
</svg>
