<?xml version="1.0" standalone="no"?>
<!DOCTYPE svg PUBLIC "-//W3C//DTD SVG 20010904//EN"
 "http://www.w3.org/TR/2001/REC-SVG-20010904/DTD/svg10.dtd">
<svg version="1.0" xmlns="http://www.w3.org/2000/svg"
 width="96.000000pt" height="84.000000pt" viewBox="0 0 96.000000 84.000000"
 preserveAspectRatio="xMidYMid meet">
<metadata>
Created by potrace 1.16, written by Peter Selinger 2001-2019
</metadata>
<g transform="translate(0.000000,84.000000) scale(0.100000,-0.100000)"
fill="#000000" stroke="none">
<path d="M0 687 c0 -97 4 -157 11 -164 6 -6 12 -34 14 -63 2 -29 11 -60 20
-70 14 -16 14 -18 -1 -31 -13 -11 -15 -26 -12 -80 4 -54 3 -66 -8 -62 -17 6
-18 -9 -2 -25 9 -9 8 -12 -5 -12 -15 0 -17 -12 -17 -90 l0 -90 233 0 232 0 22
32 c12 18 21 33 20 34 -2 2 -22 -2 -45 -8 -44 -11 -78 -5 -67 12 3 5 15 10 26
10 13 0 19 7 19 23 1 19 2 20 13 6 11 -15 16 -15 57 0 28 10 46 24 48 35 3 14
0 17 -12 13 -10 -4 -19 -1 -22 8 -3 8 -26 26 -51 40 -55 33 -48 47 8 16 22
-13 46 -20 54 -18 7 3 16 -1 19 -9 7 -17 32 -18 42 -2 11 18 13 147 3 154 -5
3 -7 15 -4 27 6 27 0 36 -44 67 -33 23 -35 23 -223 16 -114 -3 -187 -2 -184 3
9 15 68 21 256 26 129 4 178 9 190 20 17 16 64 35 86 35 8 0 14 -9 14 -19 0
-11 5 -23 10 -26 6 -4 8 -11 4 -16 -3 -5 0 -34 6 -65 9 -42 9 -58 0 -69 -8
-10 -10 -36 -5 -85 4 -38 9 -70 11 -70 2 0 29 11 60 25 45 20 59 23 66 13 13
-22 10 -24 -62 -52 -96 -38 -94 -54 13 -96 45 -17 86 -36 92 -41 18 -18 -40
-9 -97 15 -32 13 -58 21 -58 19 0 -3 9 -21 21 -39 l21 -34 94 0 94 0 -2 308
-3 307 -30 -2 c-144 -8 -154 -7 -174 11 -28 25 -27 41 1 22 34 -24 38 -20 31
33 -5 44 -3 52 20 75 36 36 82 35 101 -2 8 -15 23 -36 35 -46 l21 -19 0 76 0
77 -480 0 -480 0 0 -153z"/>
</g>
</svg>
