<?xml version="1.0" standalone="no"?>
<!DOCTYPE svg PUBLIC "-//W3C//DTD SVG 20010904//EN"
 "http://www.w3.org/TR/2001/REC-SVG-20010904/DTD/svg10.dtd">
<svg version="1.0" xmlns="http://www.w3.org/2000/svg"
 width="96.000000pt" height="84.000000pt" viewBox="0 0 96.000000 84.000000"
 preserveAspectRatio="xMidYMid meet">
<metadata>
Created by potrace 1.16, written by Peter Selinger 2001-2019
</metadata>
<g transform="translate(0.000000,84.000000) scale(0.100000,-0.100000)"
fill="#000000" stroke="none">
<path d="M0 623 c1 -158 4 -213 11 -200 6 10 13 35 15 55 6 46 18 59 39 42 9
-8 15 -29 15 -57 0 -24 7 -54 16 -68 14 -21 14 -24 -2 -33 -14 -8 -16 -19 -11
-71 5 -46 4 -60 -5 -55 -7 5 -9 0 -6 -14 5 -19 1 -23 -33 -28 l-39 -7 0 -93 0
-94 213 0 213 0 31 47 c18 27 30 49 28 51 -2 2 -22 -2 -44 -9 -31 -9 -45 -9
-53 -1 -8 8 -4 13 16 18 18 4 25 11 22 20 -3 8 -1 14 3 14 5 0 11 -5 13 -11 2
-7 17 -5 45 6 46 18 65 45 33 45 -11 0 -20 4 -20 9 0 6 -18 20 -40 32 -52 30
-52 46 0 19 23 -11 45 -18 51 -14 6 3 16 -2 24 -12 27 -38 52 26 46 121 -4 55
-11 79 -29 96 -12 11 -22 23 -22 27 0 5 -15 7 -32 5 -107 -8 -328 -9 -320 -1
13 13 140 27 264 29 85 1 109 5 149 25 56 29 69 30 69 6 0 -10 3 -22 8 -26 4
-4 7 -20 8 -34 0 -15 4 -42 8 -60 5 -21 4 -38 -4 -47 -12 -14 -10 -118 2 -130
3 -3 26 4 53 16 39 17 49 19 56 8 7 -11 -7 -21 -56 -43 -36 -16 -65 -33 -65
-37 0 -18 34 -39 95 -59 36 -12 65 -26 65 -31 0 -14 -25 -11 -82 11 -28 11
-53 18 -55 17 -1 -2 13 -26 33 -55 l35 -52 99 0 100 0 0 420 0 420 -480 0
-480 0 0 -217z m837 113 c17 -17 50 -46 72 -65 40 -32 52 -63 31 -76 -6 -4
-17 -1 -26 5 -10 9 -37 11 -92 6 -46 -4 -83 -2 -92 4 -11 7 -12 10 -2 10 9 0
7 8 -7 26 -29 37 -26 70 9 105 35 36 58 33 107 -15z"/>
<path d="M820 641 c0 -4 11 -6 25 -3 14 2 25 6 25 8 0 2 -11 4 -25 4 -14 0
-25 -4 -25 -9z"/>
<path d="M0 271 c0 -51 3 -61 17 -61 13 0 14 3 5 12 -7 7 -9 27 -5 53 3 26 1
45 -6 49 -8 5 -11 -11 -11 -53z"/>
</g>
</svg>
