<?xml version="1.0" standalone="no"?>
<!DOCTYPE svg PUBLIC "-//W3C//DTD SVG 20010904//EN"
 "http://www.w3.org/TR/2001/REC-SVG-20010904/DTD/svg10.dtd">
<svg version="1.0" xmlns="http://www.w3.org/2000/svg"
 width="96.000000pt" height="84.000000pt" viewBox="0 0 96.000000 84.000000"
 preserveAspectRatio="xMidYMid meet">
<metadata>
Created by potrace 1.16, written by Peter Selinger 2001-2019
</metadata>
<g transform="translate(0.000000,84.000000) scale(0.100000,-0.100000)"
fill="#000000" stroke="none">
<path d="M0 530 l0 -310 28 0 c27 0 28 1 26 58 -1 31 -5 71 -8 89 -5 21 -2 42
8 62 9 17 16 43 16 60 0 16 5 33 10 36 21 13 39 -16 38 -59 0 -24 5 -53 12
-66 10 -18 9 -24 0 -30 -10 -6 -11 -25 -7 -70 5 -42 3 -59 -4 -55 -6 4 -9 0
-7 -11 2 -16 -7 -21 -54 -28 l-58 -9 0 -99 0 -98 205 0 204 0 19 43 c10 23 26
48 35 56 29 24 18 31 -25 15 -43 -15 -74 -12 -63 6 3 5 15 10 27 10 14 0 18 5
14 15 -3 8 -1 15 3 15 5 0 11 -5 13 -11 2 -7 17 -5 43 7 37 18 58 44 36 44 -5
0 -26 11 -46 24 -20 14 -41 27 -48 29 -7 2 -9 7 -6 11 4 4 22 -2 40 -13 18
-11 36 -18 41 -15 5 3 16 0 24 -7 12 -9 17 -10 27 0 12 12 13 19 16 96 3 79 1
87 -30 117 l-30 31 -132 -7 c-73 -4 -143 -10 -157 -13 -20 -4 -23 -3 -13 7 17
18 95 29 221 30 65 1 115 7 127 14 11 7 35 18 53 24 28 10 34 9 39 -6 3 -9 12
-24 19 -33 16 -18 14 -110 -3 -131 -6 -7 -9 -35 -6 -66 6 -57 10 -59 74 -26
25 13 39 10 39 -8 0 -4 -25 -19 -56 -33 -75 -33 -71 -52 19 -84 37 -13 67 -27
67 -32 0 -13 -14 -11 -76 11 l-56 19 17 -27 c10 -15 28 -41 41 -59 13 -17 24
-36 24 -42 0 -7 39 -11 110 -11 l110 0 0 420 0 420 -121 0 -120 0 20 -26 c11
-14 23 -41 27 -59 5 -26 17 -40 57 -66 29 -19 60 -37 70 -41 25 -11 18 -44 -8
-40 -29 5 -76 3 -109 -4 -18 -4 -26 -2 -22 4 3 5 22 13 41 16 44 9 38 22 -15
31 -22 4 -42 11 -46 16 -3 5 -18 9 -34 9 -62 0 -92 89 -45 135 l24 25 -339 0
-340 0 0 -310z"/>
<path d="M640 460 c0 -5 5 -10 10 -10 6 0 10 5 10 10 0 6 -4 10 -10 10 -5 0
-10 -4 -10 -10z"/>
</g>
</svg>
