<?xml version="1.0" standalone="no"?>
<!DOCTYPE svg PUBLIC "-//W3C//DTD SVG 20010904//EN"
 "http://www.w3.org/TR/2001/REC-SVG-20010904/DTD/svg10.dtd">
<svg version="1.0" xmlns="http://www.w3.org/2000/svg"
 width="96.000000pt" height="84.000000pt" viewBox="0 0 96.000000 84.000000"
 preserveAspectRatio="xMidYMid meet">
<metadata>
Created by potrace 1.16, written by Peter Selinger 2001-2019
</metadata>
<g transform="translate(0.000000,84.000000) scale(0.100000,-0.100000)"
fill="#000000" stroke="none">
<path d="M0 532 l0 -309 32 4 c49 6 60 12 52 24 -9 14 -7 146 2 211 11 82 54
92 54 13 0 -24 5 -56 12 -70 10 -21 9 -28 -2 -35 -11 -7 -12 -18 -3 -57 6 -26
8 -50 4 -53 -4 -3 -10 -12 -13 -21 -4 -11 -24 -19 -57 -23 -84 -11 -81 -6 -81
-117 l0 -99 199 0 199 0 13 38 c7 20 24 52 38 71 l26 35 -25 -7 c-57 -16 -80
-19 -80 -9 0 5 9 12 21 15 13 4 18 10 14 17 -5 9 -1 10 12 6 23 -7 74 9 85 27
6 11 -3 18 -69 53 -46 25 -41 39 5 16 20 -11 43 -17 50 -15 6 3 12 0 12 -6 0
-18 28 -13 38 6 5 10 9 53 8 96 -1 63 -4 80 -18 88 -10 6 -18 17 -18 24 0 17
-89 19 -217 6 -70 -6 -93 -1 -55 14 9 3 78 10 152 15 91 5 145 13 165 24 38
20 65 20 65 1 0 -8 11 -17 24 -21 29 -7 36 -21 25 -49 -7 -19 -8 -18 -8 3 -1
13 -6 22 -12 20 -11 -4 -12 -9 -2 -47 3 -13 1 -32 -6 -42 -11 -18 -16 -129 -6
-129 3 0 23 9 45 20 46 24 50 24 50 7 0 -8 -22 -24 -50 -37 -71 -33 -67 -53
18 -81 48 -17 61 -24 44 -27 -13 -2 -37 1 -54 7 -17 6 -33 9 -36 7 -2 -3 12
-28 33 -55 25 -36 35 -57 30 -71 -6 -19 -2 -20 119 -20 l126 0 0 420 0 420
-134 0 -134 0 9 -40 c13 -59 28 -79 79 -105 60 -31 105 -78 96 -102 -7 -16 -9
-16 -25 6 -13 17 -24 22 -36 17 -15 -5 -16 -4 -6 8 11 13 8 16 -16 21 -51 11
-96 39 -122 77 -16 23 -34 37 -48 38 -23 0 -63 43 -63 66 0 12 -50 14 -280 14
l-280 0 0 -308z"/>
<path d="M105 240 c3 -5 8 -10 11 -10 2 0 4 5 4 10 0 6 -5 10 -11 10 -5 0 -7
-4 -4 -10z"/>
</g>
</svg>
