<?xml version="1.0" standalone="no"?>
<!DOCTYPE svg PUBLIC "-//W3C//DTD SVG 20010904//EN"
 "http://www.w3.org/TR/2001/REC-SVG-20010904/DTD/svg10.dtd">
<svg version="1.0" xmlns="http://www.w3.org/2000/svg"
 width="96.000000pt" height="84.000000pt" viewBox="0 0 96.000000 84.000000"
 preserveAspectRatio="xMidYMid meet">
<metadata>
Created by potrace 1.16, written by Peter Selinger 2001-2019
</metadata>
<g transform="translate(0.000000,84.000000) scale(0.100000,-0.100000)"
fill="#000000" stroke="none">
<path d="M0 530 l0 -310 26 10 c14 6 35 10 48 10 21 0 22 4 23 93 1 105 11
179 27 189 19 13 34 -12 34 -57 -1 -24 5 -51 12 -60 11 -13 10 -18 -3 -28 -13
-10 -13 -19 -3 -59 11 -40 11 -48 -1 -48 -8 0 -13 -8 -11 -17 2 -14 -11 -20
-74 -32 l-78 -14 0 -104 0 -103 190 0 190 0 26 53 c14 28 33 60 42 70 20 23
11 30 -22 17 -34 -13 -56 -13 -56 0 0 6 7 10 15 10 8 0 15 8 15 17 0 13 3 14
11 6 9 -9 21 -7 50 8 37 18 52 39 29 39 -6 0 -31 13 -58 30 -50 31 -46 41 6
14 18 -8 36 -13 41 -10 5 4 11 0 14 -6 8 -23 42 7 44 38 6 93 3 129 -11 140
-9 6 -16 19 -16 28 0 13 -11 16 -62 15 -35 0 -97 -4 -138 -8 -41 -4 -77 -7
-78 -5 -14 11 57 26 162 34 68 6 140 17 160 25 44 19 56 19 56 1 0 -8 14 -17
31 -21 35 -8 45 -26 30 -52 -9 -16 -10 -14 -11 12 0 23 -3 26 -12 17 -7 -7
-11 -30 -9 -51 1 -21 -2 -42 -8 -46 -12 -7 -15 -115 -3 -115 4 0 21 9 37 20
36 24 45 25 45 5 0 -9 -19 -24 -44 -35 -24 -10 -47 -23 -50 -28 -10 -17 21
-39 74 -53 27 -7 50 -16 50 -21 0 -12 -22 -10 -69 7 -22 8 -41 12 -41 9 0 -3
18 -28 39 -57 33 -43 38 -54 29 -72 -6 -11 -16 -23 -22 -27 -6 -4 55 -8 137
-8 l147 0 0 420 0 420 -161 0 -161 0 27 -47 c30 -53 67 -90 144 -143 28 -19
51 -38 51 -42 0 -15 -23 -8 -54 16 -17 13 -45 26 -62 30 -35 8 -84 52 -121
107 -18 27 -29 35 -43 32 -31 -8 -68 5 -75 27 -6 19 -15 20 -256 20 l-249 0 0
-310z"/>
<path d="M120 250 c0 -5 5 -10 10 -10 6 0 10 5 10 10 0 6 -4 10 -10 10 -5 0
-10 -4 -10 -10z"/>
<path d="M420 15 c-11 -13 -8 -15 20 -15 19 0 31 1 29 3 -2 1 -11 8 -20 15
-13 10 -19 9 -29 -3z"/>
</g>
</svg>
