<?xml version="1.0" standalone="no"?>
<!DOCTYPE svg PUBLIC "-//W3C//DTD SVG 20010904//EN"
 "http://www.w3.org/TR/2001/REC-SVG-20010904/DTD/svg10.dtd">
<svg version="1.0" xmlns="http://www.w3.org/2000/svg"
 width="96.000000pt" height="84.000000pt" viewBox="0 0 96.000000 84.000000"
 preserveAspectRatio="xMidYMid meet">
<metadata>
Created by potrace 1.16, written by Peter Selinger 2001-2019
</metadata>
<g transform="translate(0.000000,84.000000) scale(0.100000,-0.100000)"
fill="#000000" stroke="none">
<path d="M0 534 l0 -306 26 6 c15 4 38 9 53 12 27 6 27 7 24 72 -1 37 2 97 8
135 9 56 14 67 30 67 20 0 22 -7 19 -54 -1 -16 4 -40 11 -53 11 -20 11 -26 0
-32 -11 -7 -10 -18 2 -61 13 -45 13 -51 0 -46 -10 4 -13 1 -8 -13 5 -15 -3
-20 -51 -30 -32 -6 -70 -11 -86 -11 l-28 0 0 -110 0 -110 185 0 c181 0 185 0
198 22 7 13 28 47 45 76 18 29 32 55 32 57 0 2 -16 -3 -36 -11 -20 -8 -44 -12
-53 -9 -13 6 -12 8 7 16 12 4 22 13 22 18 0 5 8 7 18 5 9 -3 33 6 52 18 32 21
33 23 13 26 -13 2 -23 8 -23 13 0 5 -17 16 -37 25 -21 9 -33 18 -26 21 6 2 25
-3 41 -11 16 -8 33 -12 36 -8 4 3 11 0 16 -8 8 -13 11 -13 25 1 11 11 17 38
19 89 3 61 0 75 -15 89 -11 8 -19 21 -19 28 0 16 -55 17 -169 3 -46 -6 -86 -9
-89 -6 -11 12 53 26 162 35 65 6 128 17 145 26 36 18 62 20 59 3 -2 -7 12 -15
32 -18 31 -4 35 -9 37 -35 1 -20 0 -23 -4 -7 -2 12 -11 22 -19 22 -15 0 -17
-7 -14 -56 1 -17 -6 -36 -14 -43 -18 -15 -23 -111 -6 -111 6 0 25 7 42 16 20
10 34 12 40 6 7 -7 -7 -19 -41 -37 -67 -33 -65 -53 6 -75 28 -8 55 -18 59 -22
11 -11 -30 -10 -62 2 -15 6 -29 8 -31 6 -3 -3 11 -26 31 -52 20 -26 36 -51 36
-56 0 -5 -11 -20 -25 -33 l-24 -25 154 0 155 0 0 420 0 420 -176 0 c-200 0
-187 10 -106 -88 24 -29 62 -62 83 -72 21 -11 47 -33 56 -48 10 -15 22 -30 27
-34 6 -4 7 -10 3 -14 -4 -4 -14 2 -22 14 -27 38 -46 52 -69 52 -27 0 -61 24
-131 92 l-51 48 -22 -30 c-41 -54 -106 -26 -106 45 l0 35 -223 0 -223 0 0
-306z"/>
<path d="M417 23 c-16 -15 -4 -23 36 -23 l42 1 -34 14 c-39 17 -36 17 -44 8z"/>
</g>
</svg>
