<?xml version="1.0" standalone="no"?>
<!DOCTYPE svg PUBLIC "-//W3C//DTD SVG 20010904//EN"
 "http://www.w3.org/TR/2001/REC-SVG-20010904/DTD/svg10.dtd">
<svg version="1.0" xmlns="http://www.w3.org/2000/svg"
 width="96.000000pt" height="84.000000pt" viewBox="0 0 96.000000 84.000000"
 preserveAspectRatio="xMidYMid meet">
<metadata>
Created by potrace 1.16, written by Peter Selinger 2001-2019
</metadata>
<g transform="translate(0.000000,84.000000) scale(0.100000,-0.100000)"
fill="#000000" stroke="none">
<path d="M0 534 c0 -288 1 -306 17 -299 10 4 34 9 53 12 l35 5 2 111 c1 115
14 172 36 165 7 -3 13 -26 15 -54 2 -26 8 -55 14 -62 9 -10 8 -16 -2 -22 -10
-6 -11 -17 -1 -56 9 -34 9 -49 1 -54 -6 -4 -10 -13 -8 -21 2 -10 -20 -18 -79
-28 l-83 -15 0 -108 0 -108 185 0 c181 0 185 0 198 22 7 13 28 47 46 77 30 51
31 53 9 46 -51 -15 -68 -17 -68 -6 0 6 7 11 15 11 8 0 15 8 16 18 0 9 3 12 5
6 4 -9 16 -8 44 3 43 17 61 43 30 43 -11 0 -20 4 -20 8 0 5 -16 16 -36 26 -20
9 -34 19 -31 22 3 3 19 -2 36 -10 17 -9 34 -15 38 -15 4 1 16 -1 27 -6 23 -10
32 4 39 64 8 66 1 113 -17 123 -9 5 -16 16 -16 23 0 18 -66 19 -179 5 -41 -6
-77 -8 -79 -5 -11 11 53 24 162 34 66 7 131 18 151 28 32 15 36 15 48 0 6 -8
26 -17 42 -19 26 -3 30 -7 32 -33 1 -21 0 -23 -4 -7 -7 36 -28 20 -31 -25 -2
-23 -10 -47 -18 -53 -13 -11 -22 -120 -10 -120 3 0 21 10 41 21 26 15 39 19
47 11 7 -7 -5 -18 -41 -37 -69 -34 -65 -52 19 -81 65 -22 51 -34 -18 -15 -17
5 -32 7 -32 5 0 -3 16 -26 35 -51 42 -55 43 -65 9 -92 l-27 -21 157 0 156 0 0
420 0 420 -187 0 -188 -1 27 -20 c15 -11 43 -42 62 -69 23 -32 52 -57 80 -71
24 -11 52 -30 63 -42 18 -21 18 -21 -7 -6 -14 8 -44 21 -68 28 -30 8 -59 29
-99 71 -31 33 -63 60 -70 60 -8 0 -25 -7 -39 -16 -34 -23 -72 -6 -80 36 l-6
30 -224 0 -224 0 0 -306z"/>
<path d="M130 260 c0 -5 5 -10 11 -10 5 0 7 5 4 10 -3 6 -8 10 -11 10 -2 0 -4
-4 -4 -10z"/>
<path d="M417 23 c-16 -15 -4 -23 36 -23 l42 1 -34 14 c-39 17 -36 17 -44 8z"/>
</g>
</svg>
