<?xml version="1.0" standalone="no"?>
<!DOCTYPE svg PUBLIC "-//W3C//DTD SVG 20010904//EN"
 "http://www.w3.org/TR/2001/REC-SVG-20010904/DTD/svg10.dtd">
<svg version="1.0" xmlns="http://www.w3.org/2000/svg"
 width="96.000000pt" height="84.000000pt" viewBox="0 0 96.000000 84.000000"
 preserveAspectRatio="xMidYMid meet">
<metadata>
Created by potrace 1.16, written by Peter Selinger 2001-2019
</metadata>
<g transform="translate(0.000000,84.000000) scale(0.100000,-0.100000)"
fill="#000000" stroke="none">
<path d="M0 539 l0 -301 31 6 c17 3 41 6 53 6 20 0 21 5 20 82 0 46 2 108 5
138 5 46 9 55 26 55 16 0 20 -7 21 -38 1 -21 7 -49 15 -63 11 -21 11 -27 0
-33 -12 -8 -11 -36 6 -94 3 -11 0 -16 -8 -15 -7 2 -13 -6 -14 -17 0 -21 -42
-33 -117 -34 l-38 -1 0 -115 0 -115 185 0 185 0 16 27 c9 16 30 47 45 71 16
23 29 45 29 47 0 2 -19 -3 -42 -11 -25 -9 -45 -11 -51 -5 -5 5 -1 12 12 16 12
3 21 14 21 23 0 14 2 14 9 3 7 -11 15 -11 47 5 20 11 35 24 33 29 -2 6 -7 9
-11 7 -5 -1 -8 3 -8 8 0 6 -18 17 -40 26 -22 9 -40 19 -40 24 0 7 84 -19 106
-33 22 -13 36 23 38 99 2 64 -1 79 -17 94 -12 12 -17 25 -13 37 6 20 18 18
-221 50 -24 3 -43 10 -43 16 0 12 126 2 219 -17 54 -12 68 -12 98 0 35 15 53
12 53 -10 0 -7 16 -18 35 -26 24 -9 35 -20 35 -34 0 -19 -1 -19 -13 -1 -19 25
-40 10 -32 -24 4 -19 1 -32 -10 -41 -10 -8 -15 -30 -15 -66 0 -58 7 -64 50
-39 29 17 50 19 50 5 0 -5 -23 -21 -51 -35 -28 -14 -49 -31 -46 -38 2 -7 30
-21 63 -32 69 -23 69 -23 61 -31 -3 -4 -27 -1 -53 5 -25 7 -48 10 -50 8 -2 -2
12 -26 33 -52 36 -47 36 -49 20 -77 l-16 -28 144 0 145 0 0 420 0 420 -186 0
-186 0 73 -80 c39 -44 77 -80 84 -80 7 0 23 -9 36 -21 23 -19 23 -20 2 -10
-12 6 -31 11 -41 11 -11 0 -57 34 -102 75 -52 48 -90 75 -105 75 -12 0 -28 7
-35 15 -10 13 -52 15 -256 15 l-244 0 0 -301z"/>
<path d="M417 23 c-15 -14 -5 -23 25 -23 30 0 31 1 12 15 -22 16 -28 18 -37 8z"/>
</g>
</svg>
