<?xml version="1.0" standalone="no"?>
<!DOCTYPE svg PUBLIC "-//W3C//DTD SVG 20010904//EN"
 "http://www.w3.org/TR/2001/REC-SVG-20010904/DTD/svg10.dtd">
<svg version="1.0" xmlns="http://www.w3.org/2000/svg"
 width="96.000000pt" height="84.000000pt" viewBox="0 0 96.000000 84.000000"
 preserveAspectRatio="xMidYMid meet">
<metadata>
Created by potrace 1.16, written by Peter Selinger 2001-2019
</metadata>
<g transform="translate(0.000000,84.000000) scale(0.100000,-0.100000)"
fill="#000000" stroke="none">
<path d="M0 540 l0 -300 47 7 c27 3 50 7 52 9 8 7 6 134 -2 137 -5 1 -3 15 2
30 6 16 11 46 11 67 0 24 5 40 14 43 22 9 36 -15 30 -52 -4 -23 0 -39 12 -53
15 -16 16 -21 4 -28 -11 -7 -12 -19 -3 -65 8 -48 8 -55 -5 -50 -10 4 -13 0 -9
-14 6 -24 -2 -27 -86 -36 l-67 -7 0 -114 0 -114 188 2 187 3 15 30 c9 17 28
51 43 76 15 25 27 49 27 53 0 3 -18 -3 -40 -14 -42 -21 -70 -26 -70 -11 0 5 9
13 20 16 11 3 20 11 20 16 0 5 7 9 15 9 20 0 75 28 75 38 0 4 -25 18 -55 31
-30 13 -55 27 -55 32 0 4 16 1 35 -7 20 -8 41 -12 47 -8 5 4 14 1 18 -7 12
-18 40 6 40 35 0 11 1 47 3 79 4 49 1 62 -16 77 -11 11 -17 26 -14 34 7 17 7
17 -146 56 -61 15 -113 33 -115 39 -5 14 12 10 160 -34 93 -28 109 -30 131
-18 29 15 87 7 87 -11 0 -12 21 -36 55 -64 8 -7 15 -18 15 -24 0 -6 -8 -4 -18
5 -25 23 -32 21 -32 -7 0 -13 -7 -29 -15 -36 -18 -15 -21 -100 -4 -100 7 0 26
9 44 20 28 18 34 18 39 5 4 -11 -10 -25 -45 -46 -58 -36 -54 -54 15 -64 24 -4
49 -11 57 -15 26 -17 -1 -23 -48 -13 -27 6 -49 10 -50 9 -1 -1 16 -23 38 -49
46 -54 47 -89 4 -109 -14 -6 -25 -15 -25 -20 0 -4 74 -8 165 -8 l165 0 0 420
0 420 -180 0 c-99 0 -180 -4 -180 -9 0 -5 7 -15 17 -22 9 -8 34 -38 55 -67 22
-30 54 -60 71 -68 20 -8 25 -13 14 -14 -31 0 -60 19 -114 78 -42 46 -54 55
-64 45 -7 -7 -25 -13 -40 -13 -20 0 -32 9 -48 35 l-20 35 -236 0 -235 0 0
-300z"/>
<path d="M412 20 c-12 -20 -10 -20 85 -18 69 1 81 3 39 5 -33 2 -68 11 -80 19
-26 18 -29 18 -44 -6z"/>
</g>
</svg>
