<?xml version="1.0" standalone="no"?>
<!DOCTYPE svg PUBLIC "-//W3C//DTD SVG 20010904//EN"
 "http://www.w3.org/TR/2001/REC-SVG-20010904/DTD/svg10.dtd">
<svg version="1.0" xmlns="http://www.w3.org/2000/svg"
 width="96.000000pt" height="84.000000pt" viewBox="0 0 96.000000 84.000000"
 preserveAspectRatio="xMidYMid meet">
<metadata>
Created by potrace 1.16, written by Peter Selinger 2001-2019
</metadata>
<g transform="translate(0.000000,84.000000) scale(0.100000,-0.100000)"
fill="#000000" stroke="none">
<path d="M577 820 c-16 -5 -35 -14 -43 -21 -8 -6 -40 -11 -72 -10 -31 0 -63
-3 -71 -8 -18 -11 -5 -67 21 -93 18 -18 21 -34 21 -116 1 -77 -2 -97 -16 -107
-9 -7 -17 -26 -17 -42 0 -17 -13 -54 -29 -84 -34 -66 -47 -132 -27 -148 7 -6
16 -29 20 -51 3 -21 13 -43 22 -48 14 -8 15 -14 5 -42 -6 -18 -11 -37 -11 -41
0 -5 65 -9 145 -9 l145 0 -6 28 c-6 25 -5 26 8 8 24 -31 41 -11 33 43 -3 25
-6 71 -7 101 0 33 -10 80 -24 117 -13 34 -24 77 -24 97 0 19 -4 38 -10 41 -5
3 -10 16 -10 28 0 12 -7 35 -15 51 -18 35 -20 133 -3 138 10 4 10 10 1 31 -11
23 -10 27 2 27 10 0 15 11 16 30 1 17 2 36 3 43 3 15 -12 47 -22 46 -4 0 -20
-5 -35 -9z m21 -530 l0 -35 -9 40 c-4 22 -8 49 -7 60 0 16 2 15 8 -5 4 -14 8
-41 8 -60z"/>
</g>
</svg>
