<?xml version="1.0" standalone="no"?>
<!DOCTYPE svg PUBLIC "-//W3C//DTD SVG 20010904//EN"
 "http://www.w3.org/TR/2001/REC-SVG-20010904/DTD/svg10.dtd">
<svg version="1.0" xmlns="http://www.w3.org/2000/svg"
 width="96.000000pt" height="84.000000pt" viewBox="0 0 96.000000 84.000000"
 preserveAspectRatio="xMidYMid meet">
<metadata>
Created by potrace 1.16, written by Peter Selinger 2001-2019
</metadata>
<g transform="translate(0.000000,84.000000) scale(0.100000,-0.100000)"
fill="#000000" stroke="none">
<path d="M0 540 l0 -300 33 6 c77 13 72 7 73 79 0 36 -3 65 -9 65 -5 0 -6 8
-2 17 3 10 8 40 11 68 3 27 10 55 15 60 15 15 37 -20 31 -50 -2 -14 3 -36 13
-51 13 -21 14 -28 5 -34 -9 -6 -11 -24 -6 -64 4 -38 3 -56 -5 -56 -6 0 -9 -7
-6 -14 7 -18 -6 -22 -90 -31 l-63 -7 0 -114 0 -114 179 0 c131 0 181 3 188 13
21 29 44 125 41 171 -3 44 -5 48 -18 35 -16 -15 -65 -39 -80 -39 -24 0 -5 20
50 54 62 38 75 56 41 56 -11 0 -22 4 -25 9 -3 5 -22 12 -41 15 -19 4 -35 11
-35 15 0 5 17 5 38 1 20 -4 50 -7 67 -7 27 2 30 6 36 42 4 22 4 55 2 72 -3 18
-1 39 5 45 16 20 -2 36 -117 111 -57 38 -101 71 -97 74 3 3 45 -22 94 -55 84
-58 88 -59 97 -39 14 29 38 41 69 33 34 -8 69 -43 59 -59 -4 -7 -8 -18 -10
-26 -1 -8 -8 -18 -15 -22 -9 -6 -7 -9 8 -9 12 0 26 -11 34 -25 7 -13 27 -29
44 -36 23 -9 26 -13 14 -16 -9 -2 -15 -10 -13 -16 2 -7 -16 -27 -40 -45 -25
-18 -45 -36 -45 -41 0 -12 37 -21 88 -21 32 0 42 -4 42 -16 0 -14 -8 -15 -56
-9 l-56 7 38 -46 c21 -25 42 -46 46 -46 18 0 6 -33 -19 -56 -25 -21 -28 -30
-25 -74 l4 -50 184 0 184 0 0 420 0 420 -191 0 -192 0 49 -53 c76 -82 105
-119 99 -125 -3 -3 -29 21 -59 53 -50 54 -54 57 -61 36 -3 -12 -18 -29 -31
-38 -34 -22 -52 -4 -58 59 -2 26 -7 52 -11 58 -4 6 -53 10 -118 10 -104 0
-110 -1 -89 -16 24 -16 52 -64 52 -87 0 -22 -30 -26 -83 -10 -56 16 -84 51
-68 82 6 11 11 22 11 25 0 3 -47 6 -105 6 l-105 0 0 -300z"/>
<path d="M530 425 c-8 -9 -9 -23 -3 -39 l8 -26 34 27 c31 25 32 27 15 40 -23
17 -39 17 -54 -2z"/>
<path d="M416 52 c-9 -18 -16 -37 -16 -42 0 -6 35 -10 80 -10 86 0 86 0 74 57
-6 29 -7 30 -64 29 -56 -1 -59 -2 -74 -34z"/>
</g>
</svg>
