<?xml version="1.0" standalone="no"?>
<!DOCTYPE svg PUBLIC "-//W3C//DTD SVG 20010904//EN"
 "http://www.w3.org/TR/2001/REC-SVG-20010904/DTD/svg10.dtd">
<svg version="1.0" xmlns="http://www.w3.org/2000/svg"
 width="96.000000pt" height="84.000000pt" viewBox="0 0 96.000000 84.000000"
 preserveAspectRatio="xMidYMid meet">
<metadata>
Created by potrace 1.16, written by Peter Selinger 2001-2019
</metadata>
<g transform="translate(0.000000,84.000000) scale(0.100000,-0.100000)"
fill="#000000" stroke="none">
<path d="M0 755 c0 -47 2 -85 5 -85 2 0 11 13 20 29 14 28 17 29 45 20 37 -13
100 -82 100 -110 0 -20 -4 -21 -52 -15 -56 8 -103 28 -111 48 -3 7 -6 -81 -6
-196 -1 -194 0 -208 17 -201 9 4 33 9 52 12 l35 5 3 64 c2 42 -1 64 -9 64 -6
0 -8 7 -4 17 3 10 8 40 11 68 3 27 10 53 17 57 17 11 35 -18 29 -47 -2 -14 3
-36 13 -51 13 -20 14 -28 5 -34 -8 -5 -10 -24 -5 -65 6 -45 5 -56 -5 -50 -9 5
-10 2 -6 -13 7 -22 0 -25 -101 -37 l-53 -7 0 -114 0 -114 180 0 c178 0 180 0
184 23 16 77 16 98 1 113 -8 9 -15 33 -15 55 l0 40 -30 -16 c-33 -17 -40 -18
-40 -7 0 4 21 21 46 37 52 33 89 84 49 69 -8 -4 -15 -2 -15 4 0 5 -20 13 -45
16 -25 4 -45 12 -45 17 0 6 8 8 19 4 10 -3 41 -8 68 -10 44 -5 51 -3 56 14 3
13 -1 21 -13 24 -15 4 -17 12 -13 48 3 24 12 55 19 70 12 24 10 27 -77 93 -50
38 -88 70 -85 73 2 2 36 -21 76 -51 40 -31 73 -56 74 -56 2 0 1 13 -2 29 -5
36 25 58 80 59 30 1 37 -3 42 -23 4 -16 -1 -40 -12 -64 -18 -37 -18 -38 2 -58
12 -11 29 -32 39 -47 11 -16 25 -25 33 -22 32 12 11 -26 -31 -56 -24 -18 -43
-37 -41 -43 1 -5 35 -11 74 -13 90 -4 95 -22 7 -22 -36 0 -65 -4 -65 -9 0 -4
19 -30 42 -56 l42 -48 -32 -27 c-27 -22 -32 -33 -32 -71 0 -95 -15 -89 216
-89 l204 0 0 420 0 420 -197 0 c-193 -1 -197 -1 -165 -18 20 -10 46 -40 68
-77 30 -51 32 -56 11 -37 l-25 23 -25 -25 c-15 -14 -33 -26 -41 -26 -22 0 -46
40 -46 77 0 21 -9 41 -25 58 l-26 25 -244 0 -245 0 0 -85z"/>
<path d="M492 411 c3 -41 8 -42 45 -8 21 19 21 21 5 33 -9 7 -25 14 -35 14
-14 0 -17 -7 -15 -39z"/>
<path d="M434 113 c-14 -3 -24 -14 -27 -32 -3 -16 -9 -40 -13 -55 l-6 -26 67
0 67 0 -7 46 c-11 78 -14 80 -81 67z"/>
</g>
</svg>
