<?xml version="1.0" standalone="no"?>
<!DOCTYPE svg PUBLIC "-//W3C//DTD SVG 20010904//EN"
 "http://www.w3.org/TR/2001/REC-SVG-20010904/DTD/svg10.dtd">
<svg version="1.0" xmlns="http://www.w3.org/2000/svg"
 width="96.000000pt" height="84.000000pt" viewBox="0 0 96.000000 84.000000"
 preserveAspectRatio="xMidYMid meet">
<metadata>
Created by potrace 1.16, written by Peter Selinger 2001-2019
</metadata>
<g transform="translate(0.000000,84.000000) scale(0.100000,-0.100000)"
fill="#000000" stroke="none">
<path d="M0 539 c0 -283 1 -301 18 -294 9 4 33 9 52 12 l35 5 3 63 c1 35 -2
66 -7 70 -7 4 -7 15 -1 31 6 14 10 43 10 64 0 21 5 42 10 45 17 10 41 -16 35
-36 -4 -10 2 -35 11 -56 13 -27 15 -38 6 -41 -7 -2 -10 -13 -8 -25 15 -71 17
-99 7 -92 -6 3 -11 -2 -11 -13 0 -20 -7 -23 -112 -38 l-48 -6 0 -114 0 -114
180 0 180 0 0 64 c0 54 -3 66 -21 78 -19 12 -20 17 -9 37 17 32 30 81 22 81
-4 0 -22 -9 -40 -20 -18 -11 -42 -20 -55 -19 l-22 0 23 16 c12 8 22 21 22 29
0 8 6 11 15 8 8 -3 28 4 45 16 31 22 41 46 15 37 -8 -4 -17 -2 -20 2 -2 5 -25
12 -50 15 -25 4 -45 11 -45 16 0 5 15 6 33 3 17 -4 48 -7 67 -8 34 0 35 1 37
43 1 23 -2 42 -8 42 -9 0 -13 -21 -10 -54 1 -16 -1 -17 -14 -6 -19 16 -19 54
0 70 9 7 13 20 10 28 -3 8 1 25 10 38 8 13 12 29 9 37 -3 8 -36 39 -74 68 -37
30 -74 62 -80 73 -6 10 17 -5 52 -33 34 -28 66 -51 70 -51 4 0 10 9 13 20 7
21 26 28 89 32 35 3 39 0 41 -22 2 -14 -4 -36 -12 -48 -8 -13 -12 -26 -9 -29
3 -3 -2 -12 -11 -18 -15 -11 -15 -13 5 -19 11 -4 24 -16 27 -27 4 -10 9 -19
13 -19 4 -1 22 -14 41 -30 l34 -29 -47 -32 c-25 -18 -46 -38 -46 -45 0 -11 63
-24 124 -24 27 -1 28 -2 13 -11 -11 -6 -38 -8 -68 -4 -27 4 -49 4 -49 0 0 -3
11 -23 25 -43 33 -48 33 -87 -1 -109 -24 -16 -26 -20 -19 -67 4 -28 7 -59 7
-68 -1 -17 16 -18 224 -18 l224 0 0 49 c0 30 -5 51 -12 54 -10 4 -10 6 0 6 9
1 12 81 12 366 l0 365 -120 0 -120 0 9 -22 c21 -59 -30 -114 -93 -102 -31 5
-47 18 -84 65 l-45 59 -254 0 -253 0 0 -301z m945 1 c3 -5 -1 -10 -10 -10 -9
0 -13 5 -10 10 3 6 8 10 10 10 2 0 7 -4 10 -10z"/>
<path d="M571 837 c2 -1 11 -8 20 -15 13 -10 19 -9 29 3 11 13 8 15 -20 15
-19 0 -31 -1 -29 -3z"/>
<path d="M455 428 c4 -24 9 -45 11 -47 1 -2 17 7 34 19 29 20 30 24 17 44 -8
11 -27 22 -42 24 -27 3 -27 3 -20 -40z"/>
<path d="M396 98 c-3 -13 -6 -40 -6 -60 l0 -38 48 0 49 0 -10 60 c-10 59 -10
60 -42 60 -25 0 -34 -5 -39 -22z"/>
</g>
</svg>
