<?xml version="1.0" standalone="no"?>
<!DOCTYPE svg PUBLIC "-//W3C//DTD SVG 20010904//EN"
 "http://www.w3.org/TR/2001/REC-SVG-20010904/DTD/svg10.dtd">
<svg version="1.0" xmlns="http://www.w3.org/2000/svg"
 width="96.000000pt" height="84.000000pt" viewBox="0 0 96.000000 84.000000"
 preserveAspectRatio="xMidYMid meet">
<metadata>
Created by potrace 1.16, written by Peter Selinger 2001-2019
</metadata>
<g transform="translate(0.000000,84.000000) scale(0.100000,-0.100000)"
fill="#000000" stroke="none">
<path d="M0 539 c0 -283 1 -301 18 -294 9 4 34 9 55 12 28 4 37 10 33 20 -3 8
-1 35 5 60 7 34 7 48 -2 53 -7 5 -9 19 -3 41 4 19 7 45 6 59 -2 33 12 54 32
47 11 -5 16 -19 16 -50 0 -28 6 -49 15 -57 12 -10 13 -16 4 -26 -8 -10 -9 -34
-5 -70 5 -40 3 -53 -5 -48 -7 4 -9 0 -5 -14 6 -18 0 -21 -79 -33 l-85 -12 0
-114 0 -113 178 2 177 3 0 67 c0 47 -3 69 -13 73 -10 4 -11 22 -6 80 l7 75
-47 -20 c-26 -11 -57 -20 -69 -19 l-22 0 23 16 c12 8 22 23 22 32 0 14 2 14
10 1 8 -12 13 -12 44 3 20 9 36 22 36 27 0 6 -4 9 -9 5 -5 -3 -12 -1 -15 4 -4
5 -24 12 -46 16 -22 4 -42 11 -46 16 -3 6 11 7 35 3 37 -6 41 -4 41 14 0 12 9
36 20 55 11 19 18 41 15 48 -3 8 1 23 8 33 20 28 -10 75 -111 170 -45 44 -80
81 -77 84 3 3 41 -29 85 -72 l79 -77 28 19 c39 27 110 20 115 -11 2 -12 -3
-33 -11 -46 -24 -38 -22 -47 21 -96 43 -48 41 -61 -2 -20 -22 21 -29 23 -38
12 -8 -9 -9 -24 -2 -46 5 -18 6 -39 3 -47 -8 -21 17 -17 62 11 46 28 55 30 55
13 0 -7 -21 -24 -48 -38 -26 -14 -47 -29 -47 -35 0 -5 21 -14 45 -18 92 -17
109 -27 37 -22 l-69 4 18 -27 c9 -15 23 -36 31 -47 20 -30 16 -61 -11 -82 -23
-17 -24 -21 -14 -73 5 -30 10 -63 9 -73 0 -16 18 -17 230 -17 l229 0 0 420 0
420 -65 0 c-59 0 -65 -2 -65 -21 0 -11 -12 -33 -28 -48 -27 -27 -30 -28 -122
-25 -92 3 -96 4 -121 34 -14 16 -31 30 -37 30 -7 0 -12 7 -12 15 0 13 -35 15
-255 15 l-255 0 0 -301z m897 -15 c-3 -3 -12 -4 -19 -1 -8 3 -5 6 6 6 11 1 17
-2 13 -5z"/>
<path d="M572 833 c-13 -5 -7 -23 9 -23 6 0 7 5 4 10 -3 6 -1 10 4 10 6 0 11
-4 11 -10 0 -13 19 -12 55 5 l30 13 -50 0 c-27 0 -56 -2 -63 -5z"/>
<path d="M333 438 c-17 -21 -10 -62 10 -66 16 -3 17 1 11 35 -8 46 -9 47 -21
31z"/>
<path d="M130 270 c0 -5 5 -10 10 -10 6 0 10 5 10 10 0 6 -4 10 -10 10 -5 0
-10 -4 -10 -10z"/>
<path d="M409 133 c-12 -3 -18 -21 -23 -59 -3 -31 -4 -60 -1 -65 4 -5 26 -9
51 -9 43 0 44 1 39 27 -24 112 -27 117 -66 106z"/>
</g>
</svg>
