<?xml version="1.0" standalone="no"?>
<!DOCTYPE svg PUBLIC "-//W3C//DTD SVG 20010904//EN"
 "http://www.w3.org/TR/2001/REC-SVG-20010904/DTD/svg10.dtd">
<svg version="1.0" xmlns="http://www.w3.org/2000/svg"
 width="96.000000pt" height="84.000000pt" viewBox="0 0 96.000000 84.000000"
 preserveAspectRatio="xMidYMid meet">
<metadata>
Created by potrace 1.16, written by Peter Selinger 2001-2019
</metadata>
<g transform="translate(0.000000,84.000000) scale(0.100000,-0.100000)"
fill="#000000" stroke="none">
<path d="M0 539 c0 -271 2 -301 16 -295 9 3 34 9 55 12 29 5 39 11 35 21 -3 8
-1 34 5 59 8 32 8 48 0 57 -7 9 -8 24 -1 45 5 18 7 42 5 55 -6 29 9 51 29 44
10 -4 16 -18 16 -39 0 -18 7 -46 15 -62 11 -21 12 -31 4 -36 -7 -5 -8 -26 -4
-64 5 -38 4 -56 -4 -56 -5 0 -8 -6 -5 -14 4 -10 -15 -17 -80 -26 l-86 -13 0
-114 0 -113 175 0 c133 0 175 3 176 13 5 55 -5 144 -18 159 -13 14 -15 32 -9
87 l6 69 -47 -14 c-25 -8 -54 -14 -65 -14 -37 0 -16 17 42 34 33 10 63 23 67
29 3 5 1 7 -5 3 -6 -3 -13 -2 -16 2 -3 5 -26 15 -51 22 -25 7 -45 17 -45 22 0
6 7 7 16 4 55 -21 60 -19 83 34 12 28 19 59 16 69 -3 11 1 26 10 35 15 14 15
18 1 31 -8 8 -18 25 -22 38 -4 12 -47 66 -96 120 l-90 97 -64 0 -64 0 0 -301z"/>
<path d="M180 803 c126 -138 132 -142 154 -128 17 11 83 14 116 6 12 -3 2 -54
-14 -73 -18 -21 -17 -36 11 -108 4 -10 -1 -9 -17 5 l-22 20 8 -35 c4 -19 8
-45 9 -57 2 -34 8 -35 60 -13 32 14 52 17 58 11 7 -7 1 -14 -16 -21 -15 -5
-39 -15 -53 -20 -40 -16 -23 -33 46 -47 86 -18 90 -27 7 -19 -68 7 -69 7 -62
-16 4 -13 16 -37 26 -54 24 -39 24 -49 -1 -72 -16 -15 -18 -23 -10 -52 5 -19
12 -56 15 -82 l6 -48 230 0 229 0 0 420 -1 420 -53 0 -54 0 11 -30 c24 -64
-47 -137 -93 -95 -11 10 -20 24 -20 31 0 10 -17 12 -79 7 l-80 -6 -42 47 -42
46 -180 0 -181 0 34 -37z m667 -289 c-3 -3 -12 -4 -19 -1 -8 3 -5 6 6 6 11 1
17 -2 13 -5z m50 -440 c-3 -3 -12 -4 -19 -1 -8 3 -5 6 6 6 11 1 17 -2 13 -5z"/>
<path d="M555 829 c16 -25 55 -28 112 -10 l58 19 -88 1 c-60 1 -86 -2 -82 -10z"/>
<path d="M332 448 c-17 -17 -15 -58 2 -58 10 0 14 11 13 35 -1 19 -1 35 -2 35
-1 0 -6 -5 -13 -12z"/>
<path d="M136 281 c-4 -7 -5 -15 -2 -18 9 -9 19 4 14 18 -4 11 -6 11 -12 0z"/>
<path d="M387 144 c-4 -4 -7 -38 -7 -76 l0 -68 49 0 49 0 -10 42 c-6 24 -13
57 -17 73 -5 22 -13 31 -32 33 -13 2 -28 0 -32 -4z"/>
</g>
</svg>
