<?xml version="1.0" standalone="no"?>
<!DOCTYPE svg PUBLIC "-//W3C//DTD SVG 20010904//EN"
 "http://www.w3.org/TR/2001/REC-SVG-20010904/DTD/svg10.dtd">
<svg version="1.0" xmlns="http://www.w3.org/2000/svg"
 width="96.000000pt" height="84.000000pt" viewBox="0 0 96.000000 84.000000"
 preserveAspectRatio="xMidYMid meet">
<metadata>
Created by potrace 1.16, written by Peter Selinger 2001-2019
</metadata>
<g transform="translate(0.000000,84.000000) scale(0.100000,-0.100000)"
fill="#000000" stroke="none">
<path d="M0 539 c0 -271 2 -301 16 -295 9 3 33 9 55 12 27 5 38 11 36 23 -1 9
2 36 7 59 5 28 4 48 -2 54 -6 6 -7 21 -1 41 5 18 9 46 9 64 0 57 36 51 43 -7
2 -20 9 -45 16 -58 6 -12 9 -28 5 -34 -4 -6 -6 -36 -5 -65 1 -32 -2 -53 -8
-53 -6 0 -8 -6 -5 -14 4 -10 -15 -17 -80 -26 l-86 -13 0 -114 0 -113 174 0
c105 0 176 4 178 10 2 5 2 41 0 79 -3 61 -6 70 -28 80 -29 13 -31 40 -8 118 9
30 14 56 12 59 -3 2 -30 -1 -62 -7 -40 -8 -60 -9 -67 -2 -8 8 2 13 33 18 39 7
57 18 58 37 0 3 -16 12 -35 18 -19 6 -35 16 -35 21 0 12 6 11 41 -6 16 -9 34
-13 39 -10 11 7 30 71 30 104 0 14 8 33 18 44 12 15 14 21 5 24 -7 3 -13 11
-13 18 0 8 -11 22 -25 33 -14 11 -25 23 -25 27 0 4 -33 45 -72 91 l-73 84 -72
0 -73 0 0 -301z"/>
<path d="M185 808 c54 -65 106 -118 114 -118 5 0 12 -7 15 -16 6 -15 9 -15 29
4 16 15 36 20 75 21 52 0 52 0 52 -31 0 -17 -8 -40 -17 -50 -13 -14 -18 -42
-21 -114 -2 -53 1 -94 6 -94 5 0 30 6 55 14 28 8 49 10 53 5 6 -10 -54 -39
-80 -39 -21 0 -28 -16 -13 -28 7 -6 35 -16 62 -23 54 -13 82 -29 50 -29 -11 0
-37 5 -58 11 -22 6 -40 9 -42 7 -2 -2 3 -25 12 -51 12 -38 13 -53 4 -73 -8
-19 -8 -47 1 -114 l12 -90 233 0 233 0 0 420 0 420 -205 -1 c-113 0 -205 -5
-205 -10 0 -23 42 -30 114 -18 90 14 132 3 176 -47 49 -56 32 -134 -29 -134
-39 0 -61 28 -61 78 l0 42 -69 0 c-87 0 -115 10 -130 48 -7 17 -22 33 -34 36
-12 3 -98 6 -190 6 l-169 0 27 -32z m690 -758 c3 -5 -1 -10 -9 -10 -9 0 -16 5
-16 10 0 6 4 10 9 10 6 0 13 -4 16 -10z"/>
<path d="M331 430 c-8 -24 -7 -30 4 -30 9 0 13 11 13 30 -1 17 -2 30 -4 30 -1
0 -7 -13 -13 -30z"/>
<path d="M136 281 c-4 -7 -5 -15 -2 -18 9 -9 19 4 14 18 -4 11 -6 11 -12 0z"/>
<path d="M387 153 c-4 -3 -7 -39 -7 -80 l0 -73 45 0 c42 0 45 2 41 23 -3 12
-10 48 -16 80 -10 49 -14 57 -34 57 -12 0 -26 -3 -29 -7z"/>
</g>
</svg>
