<?xml version="1.0" standalone="no"?>
<!DOCTYPE svg PUBLIC "-//W3C//DTD SVG 20010904//EN"
 "http://www.w3.org/TR/2001/REC-SVG-20010904/DTD/svg10.dtd">
<svg version="1.0" xmlns="http://www.w3.org/2000/svg"
 width="96.000000pt" height="84.000000pt" viewBox="0 0 96.000000 84.000000"
 preserveAspectRatio="xMidYMid meet">
<metadata>
Created by potrace 1.16, written by Peter Selinger 2001-2019
</metadata>
<g transform="translate(0.000000,84.000000) scale(0.100000,-0.100000)"
fill="#000000" stroke="none">
<path d="M0 420 l0 -420 178 2 177 3 3 65 3 65 -38 20 c-51 27 -54 57 -10 121
l34 50 -63 -4 c-43 -3 -64 -1 -64 7 0 6 7 11 16 11 8 0 12 5 9 10 -8 13 8 13
22 -1 7 -7 15 -5 27 6 23 23 20 31 -14 45 -16 7 -30 16 -30 21 0 5 13 3 30 -6
16 -8 33 -15 38 -15 11 0 42 72 42 97 0 9 10 27 21 39 20 21 20 24 5 39 -36
36 -8 105 43 105 12 0 32 7 45 15 23 15 24 15 35 -29 15 -61 15 -63 -13 -70
-30 -7 -43 -37 -21 -48 19 -11 19 -36 0 -81 -8 -20 -15 -46 -15 -58 0 -23 7
-23 84 -3 19 5 26 2 26 -9 0 -10 -17 -19 -50 -27 -72 -17 -65 -33 28 -65 28
-11 52 -23 52 -27 0 -8 -35 -2 -78 13 -32 12 -45 11 -36 -2 3 -6 8 -57 9 -113
2 -55 6 -118 10 -138 l7 -38 224 0 224 0 0 420 0 420 -175 0 c-110 0 -175 -4
-175 -10 0 -5 -5 -10 -11 -10 -5 0 -7 5 -4 10 3 6 -5 10 -19 10 -19 0 -24 -4
-20 -15 9 -23 51 -29 118 -17 134 25 136 25 156 7 41 -37 13 -125 -40 -125
-24 0 -60 34 -60 56 0 14 -8 16 -54 10 -69 -8 -101 5 -127 49 l-21 35 -264 0
-264 0 0 -420z m890 290 c0 -5 -5 -10 -11 -10 -5 0 -7 5 -4 10 3 6 8 10 11 10
2 0 4 -4 4 -10z m-732 -183 c6 -7 9 -22 8 -32 -2 -11 3 -35 10 -54 8 -18 11
-38 7 -44 -3 -6 -5 -35 -4 -64 1 -32 -2 -53 -8 -53 -6 0 -8 -6 -5 -13 4 -10
-14 -17 -65 -25 -84 -14 -94 -15 -87 -3 3 4 28 11 56 15 27 4 50 11 50 16 0 6
-5 10 -11 10 -7 0 -8 7 -3 18 11 25 13 96 2 103 -5 3 -4 17 2 33 5 15 10 42
10 60 0 45 16 59 38 33z m592 -37 c0 -5 -7 -10 -15 -10 -8 0 -15 5 -15 10 0 6
7 10 15 10 8 0 15 -4 15 -10z m100 -470 c0 -5 -4 -10 -9 -10 -6 0 -13 5 -16
10 -3 6 1 10 9 10 9 0 16 -4 16 -10z"/>
<path d="M136 281 c-4 -7 -5 -15 -2 -18 9 -9 19 4 14 18 -4 11 -6 11 -12 0z"/>
<path d="M362 420 c-13 -21 -9 -40 8 -40 5 0 8 14 8 30 -1 17 -2 30 -2 30 -1
0 -7 -9 -14 -20z"/>
<path d="M397 133 c-3 -5 -6 -35 -8 -68 l-4 -60 48 -3 c54 -4 55 0 35 87 -10
46 -14 51 -39 51 -15 0 -30 -3 -32 -7z"/>
</g>
</svg>
