<?xml version="1.0" standalone="no"?>
<!DOCTYPE svg PUBLIC "-//W3C//DTD SVG 20010904//EN"
 "http://www.w3.org/TR/2001/REC-SVG-20010904/DTD/svg10.dtd">
<svg version="1.0" xmlns="http://www.w3.org/2000/svg"
 width="96.000000pt" height="84.000000pt" viewBox="0 0 96.000000 84.000000"
 preserveAspectRatio="xMidYMid meet">
<metadata>
Created by potrace 1.16, written by Peter Selinger 2001-2019
</metadata>
<g transform="translate(0.000000,84.000000) scale(0.100000,-0.100000)"
fill="#000000" stroke="none">
<path d="M0 420 l0 -420 180 0 180 0 0 48 c0 26 3 57 6 69 4 16 0 23 -15 28
-26 8 -61 44 -61 62 0 7 12 19 28 27 28 15 78 74 69 83 -10 9 -47 -8 -47 -23
0 -8 -7 -14 -15 -14 -8 0 -15 8 -15 18 0 11 -8 17 -26 18 -34 2 -40 10 -20 29
9 9 16 12 16 6 0 -18 57 -13 64 5 4 9 5 18 4 19 -2 1 -16 11 -32 23 -33 26
-22 30 13 5 23 -15 25 -15 38 3 8 10 16 30 20 44 3 14 19 39 35 56 23 25 26
33 15 37 -8 3 -18 20 -22 38 -6 28 -3 36 19 56 15 13 36 23 46 23 10 0 22 5
25 10 9 14 42 12 42 -2 0 -7 3 -22 6 -34 5 -13 1 -27 -12 -40 -17 -19 -41 -58
-41 -67 0 -3 9 -7 19 -10 11 -2 29 -22 40 -43 11 -22 101 -120 200 -219 100
-99 176 -182 171 -183 -17 -6 -89 36 -130 76 -21 20 -59 66 -85 102 -26 36
-81 98 -124 138 -71 69 -76 72 -82 50 -4 -13 -7 -36 -8 -52 -1 -29 -1 -29 49
-23 38 5 50 3 50 -7 0 -9 -18 -16 -46 -21 -61 -9 -55 -29 21 -71 64 -36 51
-48 -15 -14 l-40 20 6 -44 c4 -28 2 -46 -5 -51 -8 -4 -10 -27 -6 -68 12 -120
-16 -107 230 -107 l215 0 0 420 0 420 -77 0 c-60 0 -74 -3 -65 -12 16 -16 15
-70 -1 -92 -18 -25 -67 -24 -88 2 -13 17 -30 22 -85 24 -67 3 -69 4 -93 41
l-24 37 -264 0 -263 0 0 -420z m860 286 c0 -3 -4 -8 -10 -11 -5 -3 -10 -1 -10
4 0 6 5 11 10 11 6 0 10 -2 10 -4z m-696 -182 c3 -9 6 -31 6 -49 0 -19 4 -36
9 -39 10 -7 1 -150 -10 -154 -4 -2 -6 -9 -3 -16 3 -8 -15 -16 -59 -24 -35 -7
-73 -12 -83 -12 -30 1 4 17 52 24 l41 7 -1 67 c-1 37 -5 70 -10 74 -6 4 -5 17
2 33 7 14 12 37 12 50 0 33 10 55 25 55 7 0 16 -7 19 -16z m533 -50 c-3 -3
-12 -4 -19 -1 -8 3 -5 6 6 6 11 1 17 -2 13 -5z"/>
<path d="M553 828 c2 -7 10 -12 16 -10 6 1 11 -5 11 -13 0 -18 10 -18 83 -4
31 7 62 18 68 25 10 12 -5 14 -86 14 -73 0 -96 -3 -92 -12z"/>
<path d="M405 416 c-17 -25 -15 -56 4 -56 8 0 22 70 15 78 -1 2 -10 -8 -19
-22z"/>
<path d="M434 123 c-33 -4 -44 -27 -44 -94 0 -28 1 -29 55 -29 41 0 55 4 55
15 0 28 -22 115 -28 113 -4 0 -21 -3 -38 -5z"/>
</g>
</svg>
