<?xml version="1.0" standalone="no"?>
<!DOCTYPE svg PUBLIC "-//W3C//DTD SVG 20010904//EN"
 "http://www.w3.org/TR/2001/REC-SVG-20010904/DTD/svg10.dtd">
<svg version="1.0" xmlns="http://www.w3.org/2000/svg"
 width="96.000000pt" height="84.000000pt" viewBox="0 0 96.000000 84.000000"
 preserveAspectRatio="xMidYMid meet">
<metadata>
Created by potrace 1.16, written by Peter Selinger 2001-2019
</metadata>
<g transform="translate(0.000000,84.000000) scale(0.100000,-0.100000)"
fill="#000000" stroke="none">
<path d="M0 420 l0 -420 180 0 180 0 2 58 c1 31 0 73 -1 93 -1 20 5 64 13 97
20 75 20 72 -5 72 -12 0 -23 -8 -26 -20 -6 -24 -21 -26 -29 -5 -4 9 -19 15
-40 15 -19 0 -34 5 -34 10 0 6 9 10 19 10 11 0 22 8 24 18 4 16 5 16 6 -1 1
-14 6 -17 24 -11 12 4 25 12 29 18 8 11 -19 40 -45 49 -6 2 -9 8 -5 12 4 4 17
0 30 -9 12 -9 26 -16 30 -16 10 0 38 55 38 76 0 10 12 30 26 45 l26 28 -21 27
c-26 33 -26 45 -1 72 16 17 32 22 71 22 55 0 72 -17 51 -51 -7 -10 -12 -25
-12 -34 0 -8 -10 -20 -22 -26 l-22 -12 27 -14 c15 -7 33 -28 41 -47 7 -18 32
-52 54 -75 23 -24 42 -47 44 -51 2 -4 69 -69 150 -145 82 -77 148 -144 148
-149 0 -11 -30 16 -198 179 -56 55 -108 102 -114 104 -6 2 -37 30 -70 63 -34
32 -62 57 -63 56 -1 -2 -5 -23 -8 -47 l-5 -43 50 6 c38 5 49 4 46 -6 -3 -7
-19 -15 -37 -19 -17 -4 -34 -9 -37 -11 -13 -13 13 -40 61 -63 46 -21 52 -28
48 -47 -7 -29 -40 -66 -75 -84 -25 -13 -28 -20 -28 -63 0 -86 -15 -81 226 -81
l213 0 1 420 0 420 -480 0 -480 0 0 -420z m799 363 c14 -49 14 -66 -1 -81 -30
-30 -98 -1 -98 43 0 20 -4 21 -55 17 -42 -3 -60 -1 -74 12 -10 9 -21 13 -24 9
-4 -3 -7 1 -7 10 0 9 5 17 10 17 6 0 10 -4 10 -9 0 -18 44 -19 108 -1 106 29
119 27 131 -17z m31 -87 c0 -3 -4 -8 -10 -11 -5 -3 -10 -1 -10 4 0 6 5 11 10
11 6 0 10 -2 10 -4z m-660 -207 c3 -24 11 -54 18 -66 8 -14 9 -24 2 -28 -5 -3
-10 -31 -10 -61 0 -30 -4 -54 -10 -54 -5 0 -7 -6 -4 -14 4 -10 -11 -17 -59
-25 -77 -13 -90 -14 -83 -2 3 4 29 11 57 15 37 5 48 10 42 19 -4 7 -8 37 -8
67 0 30 -4 58 -10 62 -7 5 -6 14 3 28 6 11 15 37 18 57 7 46 12 55 27 50 7 -2
14 -23 17 -48z m485 -29 c3 -5 1 -10 -4 -10 -6 0 -11 5 -11 10 0 6 2 10 4 10
3 0 8 -4 11 -10z"/>
<path d="M400 414 c-13 -35 -13 -57 2 -52 11 4 23 78 12 78 -2 0 -9 -12 -14
-26z"/>
<path d="M396 87 c-3 -16 -6 -42 -6 -58 0 -28 1 -29 56 -29 l56 0 -7 53 c-4
28 -9 55 -11 58 -2 4 -21 6 -43 6 -35 0 -40 -3 -45 -30z"/>
</g>
</svg>
