<?xml version="1.0" standalone="no"?>
<!DOCTYPE svg PUBLIC "-//W3C//DTD SVG 20010904//EN"
 "http://www.w3.org/TR/2001/REC-SVG-20010904/DTD/svg10.dtd">
<svg version="1.0" xmlns="http://www.w3.org/2000/svg"
 width="96.000000pt" height="84.000000pt" viewBox="0 0 96.000000 84.000000"
 preserveAspectRatio="xMidYMid meet">
<metadata>
Created by potrace 1.16, written by Peter Selinger 2001-2019
</metadata>
<g transform="translate(0.000000,84.000000) scale(0.100000,-0.100000)"
fill="#000000" stroke="none">
<path d="M0 420 l0 -420 180 0 180 0 2 63 c1 34 2 85 3 112 0 28 4 71 9 98 8
44 7 47 -13 47 -11 0 -21 -3 -21 -8 0 -9 -96 -9 -106 1 -4 4 0 7 9 7 8 0 22 7
31 15 9 9 17 11 21 5 3 -5 10 -10 15 -10 15 0 70 107 70 137 0 16 10 40 21 52
21 22 21 25 5 51 -19 34 -20 49 -1 74 14 19 94 39 118 30 27 -10 -4 -109 -37
-118 -19 -5 -18 -7 12 -26 18 -11 36 -28 39 -38 10 -27 83 -122 93 -122 6 0
10 -6 10 -13 0 -7 61 -73 136 -147 74 -74 140 -144 145 -155 6 -11 -57 49
-139 133 -82 83 -154 152 -160 152 -5 0 -18 12 -28 27 -10 16 -19 22 -21 16
-3 -7 -20 -15 -39 -19 -58 -11 -43 -43 34 -70 35 -13 51 -23 47 -32 -3 -8 -5
-20 -5 -28 0 -16 -55 -71 -80 -79 -14 -4 -16 -15 -13 -58 8 -108 -17 -97 228
-97 l215 0 0 420 0 420 -480 0 -480 0 0 -420z m803 361 c9 -9 9 -16 -1 -31 -6
-11 -12 -32 -12 -48 0 -26 -3 -28 -40 -30 -32 -2 -42 2 -56 23 -10 16 -14 34
-10 50 6 25 6 25 -47 19 -36 -4 -57 -3 -61 5 -5 7 4 11 26 12 18 1 44 5 58 10
34 11 128 5 143 -10z m-286 -13 c-3 -8 -6 -5 -6 6 -1 11 2 17 5 13 3 -3 4 -12
1 -19z m-344 -290 c4 -28 11 -56 16 -61 7 -7 7 -15 -1 -25 -7 -7 -11 -36 -9
-63 1 -29 -2 -49 -8 -49 -6 0 -8 -6 -5 -14 4 -9 -11 -16 -52 -25 -68 -13 -97
-14 -90 -2 3 4 28 11 56 15 32 4 48 11 44 17 -3 6 -7 34 -8 62 -2 29 -6 60
-10 69 -5 10 -2 26 8 40 9 12 16 37 16 55 0 26 4 33 19 33 15 0 19 -10 24 -52z
m163 -95 c-8 -8 -56 17 -56 29 0 5 14 1 31 -7 17 -9 28 -19 25 -22z"/>
<path d="M491 443 c-1 -17 -4 -39 -8 -48 -5 -15 -1 -16 28 -10 47 10 53 18 30
46 l-20 24 -1 -25 c-1 -22 -3 -21 -15 10 l-13 35 -1 -32z"/>
<path d="M390 409 c-10 -22 -10 -33 -1 -42 6 -6 12 -7 12 -1 7 61 8 74 5 74
-2 0 -9 -14 -16 -31z"/>
<path d="M396 98 c-3 -17 -6 -46 -6 -64 l0 -34 56 0 56 0 -7 57 c-4 32 -9 61
-11 64 -2 4 -21 7 -43 7 -35 1 -39 -2 -45 -30z"/>
</g>
</svg>
