<?xml version="1.0" standalone="no"?>
<!DOCTYPE svg PUBLIC "-//W3C//DTD SVG 20010904//EN"
 "http://www.w3.org/TR/2001/REC-SVG-20010904/DTD/svg10.dtd">
<svg version="1.0" xmlns="http://www.w3.org/2000/svg"
 width="96.000000pt" height="84.000000pt" viewBox="0 0 96.000000 84.000000"
 preserveAspectRatio="xMidYMid meet">
<metadata>
Created by potrace 1.16, written by Peter Selinger 2001-2019
</metadata>
<g transform="translate(0.000000,84.000000) scale(0.100000,-0.100000)"
fill="#000000" stroke="none">
<path d="M565 793 c-20 -11 -51 -16 -91 -15 -79 2 -90 -9 -69 -69 9 -24 20
-46 26 -50 15 -9 20 -136 8 -176 -5 -17 -16 -34 -24 -37 -8 -3 -14 -16 -13
-28 1 -13 -14 -50 -32 -83 -38 -65 -47 -127 -24 -159 8 -11 14 -28 14 -36 0
-9 7 -25 15 -36 13 -16 16 -17 25 -4 12 16 5 -24 -11 -68 -5 -13 -9 -25 -9
-28 0 -2 63 -4 140 -4 l140 0 -6 28 c-3 15 -7 33 -10 40 -6 22 4 13 26 -23 35
-56 43 -45 34 47 -4 46 -7 96 -6 111 1 15 -10 53 -25 83 -19 41 -24 64 -20 94
3 28 1 40 -9 44 -8 3 -14 20 -14 39 0 20 -7 40 -16 48 -13 10 -15 24 -9 63 3
28 11 56 16 63 6 7 8 21 4 33 -4 11 -2 20 4 20 13 0 25 63 17 95 -8 30 -36 32
-81 8z m32 -545 c-3 -8 -6 -5 -6 6 -1 11 2 17 5 13 3 -3 4 -12 1 -19z"/>
</g>
</svg>
