<?xml version="1.0" standalone="no"?>
<!DOCTYPE svg PUBLIC "-//W3C//DTD SVG 20010904//EN"
 "http://www.w3.org/TR/2001/REC-SVG-20010904/DTD/svg10.dtd">
<svg version="1.0" xmlns="http://www.w3.org/2000/svg"
 width="96.000000pt" height="84.000000pt" viewBox="0 0 96.000000 84.000000"
 preserveAspectRatio="xMidYMid meet">
<metadata>
Created by potrace 1.16, written by Peter Selinger 2001-2019
</metadata>
<g transform="translate(0.000000,84.000000) scale(0.100000,-0.100000)"
fill="#000000" stroke="none">
<path d="M0 420 l0 -420 179 0 179 0 4 68 c2 37 1 77 -3 88 -4 12 -1 48 6 80
23 96 25 93 -52 77 -40 -8 -70 -10 -75 -5 -6 6 1 12 16 16 14 3 26 12 26 19 0
9 2 9 8 0 10 -15 49 -6 56 13 4 10 -7 20 -29 31 -19 9 -35 20 -35 25 0 4 15
-1 33 -12 17 -11 35 -20 38 -20 9 0 24 69 21 96 -1 12 10 33 25 48 l26 27 -21
15 c-43 30 -13 104 42 104 14 0 28 5 31 10 12 20 45 11 46 -12 2 -38 -2 -52
-17 -64 -8 -6 -14 -18 -14 -27 0 -8 -8 -17 -17 -19 -14 -3 -11 -8 13 -22 18
-11 39 -33 47 -50 8 -17 29 -47 45 -66 17 -19 54 -63 84 -97 29 -34 96 -108
148 -164 52 -57 89 -99 82 -95 -7 4 -71 71 -143 149 -72 77 -141 146 -154 153
-25 13 -105 0 -105 -17 0 -17 32 -38 82 -55 33 -11 46 -19 35 -22 -10 -2 -32
1 -49 7 -42 15 -46 8 -14 -33 33 -43 32 -51 -1 -82 -23 -22 -26 -32 -24 -77 4
-94 -16 -87 227 -87 l214 0 0 420 0 420 -114 0 -114 0 39 -39 c41 -41 53 -84
22 -79 -10 1 -31 -6 -46 -16 -37 -25 -75 -9 -83 34 -5 24 -12 30 -33 31 l-26
1 28 10 c16 5 39 21 52 34 l24 24 -354 0 -355 0 0 -420z m170 66 c0 -23 7 -52
16 -64 14 -20 14 -23 -1 -28 -13 -5 -15 -16 -9 -60 4 -36 3 -54 -5 -54 -5 0
-8 -6 -5 -14 4 -10 -9 -17 -46 -25 -62 -13 -112 -14 -90 -2 8 5 31 11 50 15
34 6 35 8 37 49 1 23 -3 59 -8 79 -7 29 -6 45 6 67 8 17 15 41 15 54 0 29 7
37 26 30 9 -3 14 -20 14 -47z"/>
<path d="M492 440 c-6 -11 -12 -29 -12 -41 0 -16 4 -19 23 -14 12 4 30 9 39
11 16 5 16 8 -4 35 -26 34 -29 35 -46 9z"/>
<path d="M391 419 c-14 -41 -14 -52 1 -47 10 4 23 78 13 78 -1 0 -8 -14 -14
-31z"/>
<path d="M396 106 c-3 -12 -6 -40 -6 -63 l0 -43 56 0 55 0 -7 57 c-3 32 -8 61
-11 65 -2 4 -21 7 -43 6 -30 -1 -40 -6 -44 -22z"/>
</g>
</svg>
