<?xml version="1.0" standalone="no"?>
<!DOCTYPE svg PUBLIC "-//W3C//DTD SVG 20010904//EN"
 "http://www.w3.org/TR/2001/REC-SVG-20010904/DTD/svg10.dtd">
<svg version="1.0" xmlns="http://www.w3.org/2000/svg"
 width="96.000000pt" height="84.000000pt" viewBox="0 0 96.000000 84.000000"
 preserveAspectRatio="xMidYMid meet">
<metadata>
Created by potrace 1.16, written by Peter Selinger 2001-2019
</metadata>
<g transform="translate(0.000000,84.000000) scale(0.100000,-0.100000)"
fill="#000000" stroke="none">
<path d="M0 420 l0 -420 179 0 179 0 4 72 c2 40 1 75 -4 76 -12 5 -10 41 7 96
22 71 20 89 -7 83 -13 -3 -47 -9 -75 -13 -65 -8 -74 11 -10 21 91 14 98 24 36
55 -23 12 -39 24 -36 26 3 3 19 -2 36 -10 16 -9 40 -16 52 -16 21 0 21 1 5 25
-20 31 -9 85 25 121 18 19 19 24 7 24 -22 0 -31 46 -16 78 10 20 22 28 45 30
17 2 37 10 43 18 20 23 37 16 42 -15 4 -27 -5 -57 -21 -71 -3 -3 -12 -15 -19
-28 -10 -19 -10 -23 3 -28 9 -4 22 1 30 12 17 24 23 18 67 -71 19 -38 48 -97
65 -130 16 -33 59 -115 96 -182 62 -113 81 -163 57 -148 -5 3 -47 83 -94 178
-114 229 -115 231 -158 256 -46 26 -58 26 -58 0 0 -13 4 -18 13 -13 9 6 9 4 0
-7 -7 -7 -13 -22 -13 -32 0 -16 5 -18 28 -14 15 3 35 9 45 12 11 5 17 2 17 -8
0 -16 -20 -27 -50 -27 -10 0 -21 -4 -24 -9 -13 -20 8 -41 57 -57 29 -9 56 -20
62 -25 15 -14 -22 -11 -62 6 -45 19 -47 19 -38 -3 19 -45 22 -82 9 -107 -12
-24 -11 -87 2 -152 4 -23 4 -23 219 -23 l215 0 0 420 0 420 -105 0 c-98 0
-105 -1 -105 -20 0 -12 12 -26 31 -35 38 -20 33 -37 -14 -49 -29 -8 -40 -6
-55 7 -10 9 -26 17 -35 17 -18 0 -57 46 -57 66 0 12 -55 14 -310 14 l-310 0 0
-420z m170 59 c0 -22 6 -49 13 -60 10 -17 10 -23 0 -26 -15 -6 -17 -52 -3 -87
7 -21 6 -26 -5 -26 -8 0 -12 -6 -9 -14 4 -11 -9 -17 -50 -26 -31 -6 -68 -10
-83 -8 -22 3 -15 7 30 17 31 7 57 17 57 22 0 5 -3 9 -7 9 -9 0 -6 133 3 195 4
22 11 46 17 53 16 21 37 -6 37 -49z"/>
<path d="M135 270 c-3 -5 -1 -10 4 -10 6 0 11 5 11 10 0 6 -2 10 -4 10 -3 0
-8 -4 -11 -10z"/>
<path d="M510 541 c0 -21 13 -42 32 -52 11 -6 19 -7 16 -2 -25 51 -33 63 -40
63 -4 0 -8 -4 -8 -9z"/>
<path d="M380 446 c0 -8 4 -17 9 -20 10 -7 23 19 14 28 -11 11 -23 6 -23 -8z"/>
<path d="M433 132 c-33 -3 -39 -15 -44 -87 -3 -43 0 -45 56 -45 41 0 55 4 55
15 0 25 -21 115 -28 118 -4 1 -21 1 -39 -1z"/>
</g>
</svg>
