<?xml version="1.0" standalone="no"?>
<!DOCTYPE svg PUBLIC "-//W3C//DTD SVG 20010904//EN"
 "http://www.w3.org/TR/2001/REC-SVG-20010904/DTD/svg10.dtd">
<svg version="1.0" xmlns="http://www.w3.org/2000/svg"
 width="96.000000pt" height="84.000000pt" viewBox="0 0 96.000000 84.000000"
 preserveAspectRatio="xMidYMid meet">
<metadata>
Created by potrace 1.16, written by Peter Selinger 2001-2019
</metadata>
<g transform="translate(0.000000,84.000000) scale(0.100000,-0.100000)"
fill="#000000" stroke="none">
<path d="M0 420 l0 -420 180 0 179 0 3 73 c2 39 -1 79 -6 88 -5 10 -3 44 6 90
8 41 14 75 13 77 -1 1 -29 -4 -61 -11 -61 -14 -94 -12 -94 4 0 5 9 9 20 9 11
0 20 7 20 15 0 17 16 21 22 5 4 -12 68 -2 68 11 0 5 -18 18 -39 29 -22 11 -42
24 -46 30 -8 13 28 13 41 0 6 -6 25 -15 43 -20 33 -9 33 -9 15 12 -13 14 -19
36 -19 67 l0 46 -52 5 c-32 3 -55 1 -57 -5 -7 -15 -7 27 0 51 5 20 8 21 62 8
75 -18 72 -19 72 19 0 45 25 77 60 77 16 0 32 5 35 10 12 19 33 10 39 -16 6
-24 -22 -88 -47 -105 -5 -3 -2 -9 7 -12 20 -8 118 -22 130 -19 4 2 13 -1 20
-6 19 -16 123 -24 145 -12 17 8 19 8 15 -4 -4 -11 -30 -15 -122 -15 -185 -2
-172 2 -172 -55 0 -51 4 -53 65 -30 13 5 16 2 13 -12 -2 -11 -17 -22 -36 -28
-51 -14 -40 -33 38 -70 51 -24 52 -26 20 -22 -19 2 -44 8 -55 12 -17 6 -18 5
-8 -7 21 -26 27 -87 9 -113 -11 -18 -14 -39 -10 -78 11 -109 -16 -98 229 -98
l215 0 0 420 0 420 -120 0 c-127 0 -138 -5 -104 -46 8 -10 13 -13 9 -6 -12 23
34 12 51 -13 21 -33 13 -42 -38 -41 -38 1 -46 5 -67 39 -16 25 -32 37 -47 37
-12 0 -29 7 -38 15 -12 13 -61 15 -310 15 l-296 0 0 -420z m166 55 c1 -25 7
-52 14 -59 9 -11 8 -16 -4 -23 -14 -8 -14 -15 -2 -61 11 -43 11 -52 0 -52 -7
0 -11 -6 -8 -14 6 -15 -69 -36 -128 -36 -42 0 -31 9 23 18 l44 8 1 89 c1 50 5
110 9 135 14 78 48 74 51 -5z m364 -119 c0 -3 -4 -8 -10 -11 -5 -3 -10 -1 -10
4 0 6 5 11 10 11 6 0 10 -2 10 -4z"/>
<path d="M130 270 c0 -5 5 -10 11 -10 5 0 7 5 4 10 -3 6 -8 10 -11 10 -2 0 -4
-4 -4 -10z"/>
<path d="M385 451 c-3 -5 -1 -12 5 -16 5 -3 10 1 10 9 0 18 -6 21 -15 7z"/>
<path d="M404 125 c-9 -24 -20 -101 -16 -113 2 -7 24 -12 59 -12 l56 0 -7 33
c-4 17 -9 49 -13 69 -5 36 -7 38 -41 35 -19 -1 -36 -6 -38 -12z"/>
</g>
</svg>
