<?xml version="1.0" standalone="no"?>
<!DOCTYPE svg PUBLIC "-//W3C//DTD SVG 20010904//EN"
 "http://www.w3.org/TR/2001/REC-SVG-20010904/DTD/svg10.dtd">
<svg version="1.0" xmlns="http://www.w3.org/2000/svg"
 width="96.000000pt" height="84.000000pt" viewBox="0 0 96.000000 84.000000"
 preserveAspectRatio="xMidYMid meet">
<metadata>
Created by potrace 1.16, written by Peter Selinger 2001-2019
</metadata>
<g transform="translate(0.000000,84.000000) scale(0.100000,-0.100000)"
fill="#000000" stroke="none">
<path d="M0 419 l0 -419 179 0 179 0 4 78 c2 42 -1 85 -7 94 -6 11 -5 37 3 76
7 32 12 63 12 68 0 6 -30 0 -67 -12 -38 -13 -85 -24 -107 -24 -29 0 -37 -3
-33 -14 4 -11 -7 -17 -44 -25 -52 -12 -116 -15 -107 -6 3 3 25 9 49 13 l44 7
2 95 c1 52 4 106 6 120 3 14 6 33 6 43 1 10 9 17 21 17 21 0 23 -6 20 -54 -1
-16 4 -40 11 -53 11 -19 11 -26 0 -32 -9 -6 -10 -18 0 -54 6 -26 13 -47 14
-47 10 0 162 54 168 59 14 13 -3 36 -44 59 -22 13 -39 26 -36 28 2 3 20 -5 40
-16 36 -21 60 -13 38 13 -16 20 4 89 34 115 14 12 24 23 21 23 -3 1 -12 2 -18
3 -27 2 -21 71 8 101 9 8 24 13 34 10 9 -3 23 1 30 10 18 22 37 18 44 -8 6
-27 -3 -67 -15 -67 -5 0 -9 -7 -9 -15 0 -7 -8 -19 -17 -24 -22 -13 -14 -13 64
-2 58 9 188 65 224 97 9 8 18 12 21 9 3 -3 37 11 76 30 70 35 90 39 104 20 4
-5 8 16 8 48 l0 57 -125 0 c-69 0 -125 -2 -125 -5 0 -19 36 -55 54 -55 27 0
46 -18 46 -42 0 -19 -15 -24 -24 -9 -3 4 -17 6 -31 4 -19 -4 -33 3 -60 30
l-34 34 -16 -23 c-32 -49 -105 -18 -105 43 l0 24 -270 -1 -270 -1 0 -420z
m830 381 c0 -5 -4 -10 -10 -10 -5 0 -10 5 -10 10 0 6 5 10 10 10 6 0 10 -4 10
-10z m-180 -134 c0 -3 -4 -8 -10 -11 -5 -3 -10 -1 -10 4 0 6 5 11 10 11 6 0
10 -2 10 -4z"/>
<path d="M814 657 c-72 -29 -139 -61 -149 -71 -10 -9 -24 -15 -32 -12 -7 3
-36 -5 -63 -18 -26 -13 -59 -26 -73 -30 -22 -5 -24 -10 -23 -66 1 -49 4 -59
16 -54 26 10 32 9 37 -3 3 -7 -1 -13 -9 -13 -7 0 -19 -4 -26 -8 -24 -16 1 -44
62 -72 62 -29 54 -42 -9 -16 -41 17 -41 17 -15 -26 26 -43 25 -72 -3 -95 -18
-14 -22 -24 -16 -38 4 -11 8 -39 8 -62 2 -77 -12 -73 227 -73 l214 0 0 355
c-1 195 -4 355 -8 355 -4 0 -66 -24 -138 -53z"/>
<path d="M381 466 c-8 -9 -8 -21 -1 -40 13 -35 15 -33 17 14 2 44 1 46 -16 26z"/>
<path d="M396 120 c-5 -25 -9 -84 -7 -107 1 -9 19 -13 57 -13 l55 0 -7 47
c-14 93 -17 98 -57 98 -31 1 -37 -3 -41 -25z"/>
</g>
</svg>
