<?xml version="1.0" standalone="no"?>
<!DOCTYPE svg PUBLIC "-//W3C//DTD SVG 20010904//EN"
 "http://www.w3.org/TR/2001/REC-SVG-20010904/DTD/svg10.dtd">
<svg version="1.0" xmlns="http://www.w3.org/2000/svg"
 width="96.000000pt" height="84.000000pt" viewBox="0 0 96.000000 84.000000"
 preserveAspectRatio="xMidYMid meet">
<metadata>
Created by potrace 1.16, written by Peter Selinger 2001-2019
</metadata>
<g transform="translate(0.000000,84.000000) scale(0.100000,-0.100000)"
fill="#000000" stroke="none">
<path d="M0 420 l0 -420 178 2 177 3 6 75 c4 54 1 79 -8 91 -16 20 -16 41 1
107 8 29 11 52 8 50 -73 -39 -183 -87 -197 -87 -11 1 -51 -2 -90 -5 -47 -4
-64 -3 -50 3 11 5 34 10 50 10 l31 1 -2 78 c-3 111 14 204 35 200 12 -2 17
-16 19 -53 2 -27 8 -56 14 -63 9 -10 8 -16 -2 -22 -10 -6 -11 -17 -1 -56 10
-38 10 -49 -1 -55 -18 -12 -3 -22 21 -14 12 3 21 14 22 23 0 10 3 12 6 5 5
-14 79 19 123 55 25 20 25 20 5 42 -11 12 -32 29 -47 38 -16 9 -28 20 -28 25
0 5 12 0 28 -11 53 -37 55 -37 49 -10 -9 33 9 86 40 119 24 26 24 26 4 32 -28
7 -27 46 0 81 17 21 27 26 48 21 22 -5 30 -1 41 20 12 22 15 23 23 10 10 -19
1 -85 -12 -85 -5 0 -11 -10 -13 -23 l-4 -23 87 29 88 29 11 69 c7 38 15 67 20
64 4 -2 1 -33 -7 -67 -11 -46 -12 -68 -4 -80 6 -9 7 -19 3 -22 -5 -3 -9 -31
-9 -63 -1 -32 -7 -124 -14 -205 -11 -133 -14 -148 -31 -148 -14 0 -18 8 -18
40 0 37 -3 41 -42 58 -24 11 -44 18 -46 17 -1 -1 9 -23 24 -49 l26 -46 -30
-26 c-26 -24 -29 -30 -21 -58 5 -17 9 -45 9 -63 0 -66 -9 -63 226 -63 l214 0
0 420 0 420 -136 0 -136 0 28 -32 c15 -18 36 -34 46 -34 39 -3 41 -21 2 -29
-33 -6 -41 -3 -66 24 -16 17 -32 31 -36 31 -4 0 -15 -14 -24 -30 -33 -58 -108
-29 -108 42 l0 28 -265 0 -265 0 0 -420z"/>
<path d="M590 597 c-25 -11 -49 -26 -55 -33 -5 -7 -21 -17 -35 -22 -24 -9 -25
-12 -22 -88 2 -43 5 -87 8 -97 5 -15 102 -74 109 -65 2 3 43 322 41 324 -1 1
-21 -8 -46 -19z"/>
<path d="M375 469 c-9 -14 4 -81 14 -74 12 6 12 85 1 85 -5 0 -12 -5 -15 -11z"/>
<path d="M396 133 c-5 -18 -10 -97 -7 -120 1 -9 20 -13 57 -13 l56 0 -6 37
c-19 103 -24 113 -61 113 -23 0 -35 -5 -39 -17z"/>
</g>
</svg>
