<?xml version="1.0" standalone="no"?>
<!DOCTYPE svg PUBLIC "-//W3C//DTD SVG 20010904//EN"
 "http://www.w3.org/TR/2001/REC-SVG-20010904/DTD/svg10.dtd">
<svg version="1.0" xmlns="http://www.w3.org/2000/svg"
 width="96.000000pt" height="84.000000pt" viewBox="0 0 96.000000 84.000000"
 preserveAspectRatio="xMidYMid meet">
<metadata>
Created by potrace 1.16, written by Peter Selinger 2001-2019
</metadata>
<g transform="translate(0.000000,84.000000) scale(0.100000,-0.100000)"
fill="#000000" stroke="none">
<path d="M0 534 c0 -288 1 -306 17 -299 10 4 34 9 53 12 l35 5 -1 64 c0 35 -4
67 -7 70 -3 3 -3 12 0 20 3 8 8 38 12 67 5 43 9 52 26 52 17 0 20 -7 20 -46 0
-25 6 -54 14 -63 13 -15 13 -19 0 -26 -12 -8 -12 -17 2 -70 9 -33 12 -60 7
-60 -4 0 -8 5 -8 10 0 6 -4 10 -10 10 -5 0 -7 -7 -4 -15 4 -8 12 -15 19 -15
14 0 167 97 177 113 10 17 -8 43 -47 67 -19 12 -35 26 -35 32 0 6 15 -1 34
-16 41 -31 48 -32 45 -8 -4 32 14 77 43 108 19 20 26 34 19 38 -6 4 -11 4 -11
-1 0 -4 -5 0 -11 9 -7 12 -5 28 5 53 17 41 41 53 68 36 17 -10 20 -8 30 19 14
42 31 24 23 -24 -4 -20 -11 -36 -15 -36 -4 0 -7 -11 -7 -24 0 -27 2 -27 107
13 30 12 61 19 69 16 9 -3 32 12 57 36 24 23 44 36 48 31 3 -6 2 -13 -4 -17
-5 -3 -10 -3 -10 1 0 5 -15 -7 -34 -25 -24 -23 -32 -39 -28 -54 4 -16 2 -19
-12 -14 -12 5 -40 -16 -102 -75 -47 -45 -90 -91 -96 -101 -5 -10 -7 -36 -3
-58 6 -35 12 -42 67 -71 33 -18 55 -34 49 -36 -6 -2 -29 6 -51 17 -22 11 -40
18 -40 15 0 -2 9 -23 20 -45 23 -45 19 -75 -11 -84 -14 -5 -18 -12 -14 -23 4
-10 9 -35 12 -57 11 -94 -15 -85 228 -85 l215 0 0 420 0 420 -125 0 c-69 0
-125 -3 -125 -6 0 -3 9 -19 21 -35 15 -21 26 -28 39 -24 29 9 32 -11 5 -23
-23 -10 -30 -8 -66 25 -34 31 -47 37 -79 34 -26 -2 -39 2 -43 13 -6 14 -42 16
-297 16 l-290 0 0 -306z"/>
<path d="M595 598 c-22 -11 -49 -28 -60 -38 -11 -9 -28 -20 -37 -23 -19 -7
-26 -61 -10 -71 9 -5 159 141 151 148 -2 2 -22 -5 -44 -16z"/>
<path d="M380 465 c-13 -16 -6 -65 10 -65 5 0 9 10 9 23 -1 12 2 30 6 40 9 21
-8 23 -25 2z"/>
<path d="M295 294 c-70 -49 -144 -86 -156 -78 -8 4 -7 10 2 16 10 7 7 8 -11 4
-14 -3 -49 -8 -77 -12 l-53 -7 0 -108 0 -109 179 0 179 0 4 76 c2 64 0 77 -14
85 -22 12 -23 43 -3 99 16 47 19 70 8 69 -5 0 -30 -16 -58 -35z"/>
<path d="M125 260 c3 -5 8 -10 11 -10 2 0 4 5 4 10 0 6 -5 10 -11 10 -5 0 -7
-4 -4 -10z"/>
<path d="M396 128 c-3 -7 -7 -39 -9 -70 l-6 -58 60 0 c66 0 66 -2 46 85 -12
48 -13 50 -50 53 -24 2 -39 -1 -41 -10z"/>
</g>
</svg>
