<?xml version="1.0" standalone="no"?>
<!DOCTYPE svg PUBLIC "-//W3C//DTD SVG 20010904//EN"
 "http://www.w3.org/TR/2001/REC-SVG-20010904/DTD/svg10.dtd">
<svg version="1.0" xmlns="http://www.w3.org/2000/svg"
 width="96.000000pt" height="84.000000pt" viewBox="0 0 96.000000 84.000000"
 preserveAspectRatio="xMidYMid meet">
<metadata>
Created by potrace 1.16, written by Peter Selinger 2001-2019
</metadata>
<g transform="translate(0.000000,84.000000) scale(0.100000,-0.100000)"
fill="#000000" stroke="none">
<path d="M0 535 l0 -305 43 6 c63 9 71 12 59 27 -14 17 -3 249 13 265 2 3 11
2 20 -1 10 -4 15 -20 15 -47 0 -22 6 -49 13 -60 10 -17 9 -22 -1 -29 -10 -6
-10 -19 -1 -60 8 -38 8 -55 1 -60 -7 -4 -8 -12 -2 -21 7 -11 26 -2 97 42 107
68 115 88 54 133 -22 17 -41 34 -41 39 0 4 15 -3 34 -18 43 -32 46 -32 46 -2
0 14 4 28 10 31 6 3 10 14 10 24 0 9 14 30 30 46 32 31 39 48 15 39 -11 -5
-15 2 -15 26 0 44 51 96 79 80 28 -14 29 -14 37 23 7 31 7 32 16 8 5 -16 5
-28 -2 -35 -13 -13 -13 -86 1 -86 5 0 42 14 81 30 40 17 77 29 84 26 13 -5 84
64 84 82 0 7 -6 12 -14 12 -8 0 -23 11 -34 25 -13 16 -30 25 -48 25 -16 0 -40
9 -54 20 -24 18 -43 20 -327 20 l-303 0 0 -305z"/>
<path d="M730 834 c0 -16 44 -65 55 -60 8 3 15 -5 17 -19 4 -18 -5 -34 -39
-66 -30 -30 -41 -49 -37 -61 5 -16 1 -19 -21 -18 -3 1 -12 -5 -20 -12 -7 -7
-52 -47 -98 -88 -102 -90 -112 -107 -95 -161 9 -33 22 -46 72 -76 33 -20 54
-39 48 -41 -7 -2 -28 6 -48 17 -19 12 -37 21 -40 21 -2 0 3 -16 11 -36 20 -48
19 -63 -5 -89 -17 -18 -18 -26 -10 -55 6 -19 10 -47 10 -62 l0 -28 215 0 215
0 0 420 0 420 -115 0 c-63 0 -115 -3 -115 -6z"/>
<path d="M613 598 c-24 -11 -43 -24 -43 -30 0 -5 -16 -16 -35 -24 -29 -12 -35
-19 -35 -44 0 -26 3 -29 18 -21 17 10 150 141 142 141 -3 -1 -24 -10 -47 -22z"/>
<path d="M387 463 c-4 -3 -7 -22 -7 -40 0 -47 23 -38 27 10 2 35 -5 45 -20 30z"/>
<path d="M314 298 c-96 -61 -166 -98 -187 -98 -22 1 -22 1 -3 15 24 18 20 18
-61 4 l-63 -11 0 -104 0 -104 179 0 179 0 1 62 c0 51 -4 67 -22 86 l-22 23 27
77 c14 42 25 78 24 79 -1 2 -25 -11 -52 -29z"/>
<path d="M396 97 c-3 -12 -6 -39 -6 -59 l0 -38 56 0 56 0 -7 42 c-11 63 -20
75 -58 76 -28 1 -36 -3 -41 -21z"/>
</g>
</svg>
