<?xml version="1.0" standalone="no"?>
<!DOCTYPE svg PUBLIC "-//W3C//DTD SVG 20010904//EN"
 "http://www.w3.org/TR/2001/REC-SVG-20010904/DTD/svg10.dtd">
<svg version="1.0" xmlns="http://www.w3.org/2000/svg"
 width="96.000000pt" height="84.000000pt" viewBox="0 0 96.000000 84.000000"
 preserveAspectRatio="xMidYMid meet">
<metadata>
Created by potrace 1.16, written by Peter Selinger 2001-2019
</metadata>
<g transform="translate(0.000000,84.000000) scale(0.100000,-0.100000)"
fill="#000000" stroke="none">
<path d="M0 529 c0 -280 2 -311 16 -305 9 3 31 6 50 6 24 0 34 5 34 15 0 8 -4
15 -9 15 -16 0 1 246 19 264 18 18 38 -13 33 -52 -4 -27 -1 -42 11 -51 18 -15
21 -41 5 -41 -8 0 -10 -19 -5 -66 5 -44 3 -64 -4 -59 -12 7 -13 -5 -2 -23 6
-9 31 1 98 41 78 48 89 58 92 85 3 26 -4 38 -33 63 -19 17 -33 34 -30 37 3 3
19 -7 35 -23 16 -16 31 -27 33 -24 2 2 12 24 22 49 10 25 34 62 54 82 19 21
32 41 28 44 -4 4 -7 1 -7 -6 0 -11 -4 -10 -17 3 -17 17 -17 20 7 65 23 42 29
47 58 46 21 -1 32 3 32 12 0 8 4 14 9 14 5 0 12 8 14 18 3 9 5 0 6 -20 0 -20
-4 -40 -9 -43 -7 -4 -6 -13 1 -26 6 -11 8 -27 5 -35 -8 -21 12 -17 89 16 39
16 82 30 97 30 19 0 38 13 66 45 36 41 62 57 62 38 0 -5 -23 -27 -50 -51 -28
-24 -50 -51 -50 -61 0 -10 -12 -24 -27 -32 -48 -24 -231 -190 -237 -214 -12
-46 15 -97 74 -138 69 -48 78 -69 15 -34 -26 15 -49 27 -51 27 -2 0 3 -19 11
-41 20 -54 19 -65 -5 -89 -18 -18 -19 -24 -8 -65 l12 -45 208 0 208 0 0 420 0
420 -79 0 c-77 0 -79 -1 -85 -26 -4 -14 -2 -32 4 -39 9 -10 0 -15 -42 -20 -46
-7 -54 -5 -70 15 -10 12 -18 30 -18 40 0 10 -10 20 -22 24 -13 3 -164 6 -335
6 l-313 0 0 -311z"/>
<path d="M638 594 c-27 -13 -48 -29 -48 -34 0 -5 -17 -18 -37 -27 -32 -15 -39
-24 -41 -52 l-4 -34 39 33 c81 71 154 140 146 140 -4 -1 -29 -12 -55 -26z"/>
<path d="M396 441 c-18 -20 -19 -60 -1 -64 6 -1 11 9 11 23 1 14 5 33 9 43 9
22 2 22 -19 -2z"/>
<path d="M296 270 c-66 -42 -162 -90 -181 -90 -20 0 -19 10 3 27 15 12 12 13
-23 8 -22 -4 -52 -9 -67 -11 l-28 -6 0 -99 0 -99 178 0 179 0 2 47 c1 35 -4
51 -19 65 -26 24 -25 51 4 126 28 72 22 76 -48 32z"/>
<path d="M396 49 c-3 -17 -6 -35 -6 -40 0 -5 25 -9 55 -9 59 0 64 6 45 54 -8
22 -16 26 -49 26 -35 0 -39 -3 -45 -31z"/>
</g>
</svg>
