<?xml version="1.0" standalone="no"?>
<!DOCTYPE svg PUBLIC "-//W3C//DTD SVG 20010904//EN"
 "http://www.w3.org/TR/2001/REC-SVG-20010904/DTD/svg10.dtd">
<svg version="1.0" xmlns="http://www.w3.org/2000/svg"
 width="96.000000pt" height="84.000000pt" viewBox="0 0 96.000000 84.000000"
 preserveAspectRatio="xMidYMid meet">
<metadata>
Created by potrace 1.16, written by Peter Selinger 2001-2019
</metadata>
<g transform="translate(0.000000,84.000000) scale(0.100000,-0.100000)"
fill="#000000" stroke="none">
<path d="M0 524 c0 -284 2 -316 16 -310 9 3 28 6 42 6 26 0 27 2 30 69 1 40
-2 72 -8 76 -6 4 -8 10 -5 14 2 5 7 34 10 66 7 65 10 75 30 75 17 0 25 -24 23
-69 -1 -21 5 -39 16 -46 15 -11 15 -14 2 -28 -13 -12 -14 -25 -6 -73 6 -33 10
-60 10 -61 0 -1 -8 1 -17 4 -13 5 -15 2 -10 -11 9 -23 -15 -46 -42 -39 -11 3
-37 2 -56 -1 l-35 -7 0 -94 0 -95 180 0 180 0 0 28 c0 15 -9 35 -20 45 -26 22
-25 60 4 135 14 34 21 64 17 66 -4 3 -23 -4 -42 -16 -78 -48 -200 -108 -219
-108 -33 0 -23 15 28 39 87 42 200 112 206 127 14 37 5 61 -35 93 -22 18 -38
36 -35 39 3 3 24 -9 46 -27 22 -17 40 -26 40 -20 0 26 44 105 79 143 20 21 31
36 25 33 -7 -4 -17 0 -24 8 -11 13 -10 23 0 55 19 58 43 77 81 63 26 -10 30
-10 25 3 -3 7 -1 14 4 14 6 0 10 8 11 18 0 13 3 11 10 -6 5 -14 5 -31 0 -40
-5 -9 -6 -32 -4 -50 3 -18 0 -39 -6 -46 -11 -13 -5 -13 36 -2 26 8 74 25 106
39 32 15 65 23 73 20 10 -4 36 14 75 53 49 49 62 57 77 48 9 -6 18 -24 20 -40
l3 -29 -21 25 -20 25 -75 -77 c-41 -43 -71 -78 -67 -78 4 0 -7 -8 -25 -18 -46
-25 -209 -163 -221 -188 -7 -14 -7 -36 1 -69 10 -44 16 -51 79 -93 37 -25 68
-49 68 -53 0 -12 -29 0 -77 32 -24 16 -43 27 -43 24 0 -2 9 -24 20 -50 25 -59
25 -67 -4 -96 -18 -19 -22 -29 -15 -46 8 -23 10 -23 214 -23 l205 0 0 420 0
420 -36 0 c-29 0 -35 -3 -30 -16 10 -25 -23 -81 -54 -94 -44 -18 -66 -5 -90
55 l-22 55 -364 0 -364 0 0 -316z m237 -376 c-3 -8 -6 -5 -6 6 -1 11 2 17 5
13 3 -3 4 -12 1 -19z"/>
<path d="M673 586 c-23 -12 -50 -29 -61 -39 -11 -10 -33 -22 -48 -26 -23 -6
-30 -14 -35 -44 -3 -20 -3 -37 1 -37 11 0 194 159 188 164 -1 2 -22 -6 -45
-18z"/>
<path d="M396 428 c-20 -29 -21 -68 -1 -68 13 0 19 12 16 32 0 4 4 19 9 33 12
31 -3 33 -24 3z"/>
<path d="M360 329 c0 -5 5 -7 10 -4 6 3 10 8 10 11 0 2 -4 4 -10 4 -5 0 -10
-5 -10 -11z"/>
<path d="M400 19 c0 -16 8 -19 51 -19 42 0 50 3 47 17 -2 13 -14 18 -51 19
-40 1 -47 -1 -47 -17z"/>
</g>
</svg>
