<?xml version="1.0" standalone="no"?>
<!DOCTYPE svg PUBLIC "-//W3C//DTD SVG 20010904//EN"
 "http://www.w3.org/TR/2001/REC-SVG-20010904/DTD/svg10.dtd">
<svg version="1.0" xmlns="http://www.w3.org/2000/svg"
 width="96.000000pt" height="84.000000pt" viewBox="0 0 96.000000 84.000000"
 preserveAspectRatio="xMidYMid meet">
<metadata>
Created by potrace 1.16, written by Peter Selinger 2001-2019
</metadata>
<g transform="translate(0.000000,84.000000) scale(0.100000,-0.100000)"
fill="#000000" stroke="none">
<path d="M0 520 l0 -320 32 6 c54 9 64 14 50 23 -10 6 -10 19 -1 61 10 45 9
55 -3 64 -12 9 -13 17 -6 36 6 14 10 44 9 67 0 50 23 78 44 50 7 -9 10 -28 8
-41 -3 -13 3 -41 13 -61 12 -26 14 -39 6 -44 -8 -5 -9 -23 -2 -66 5 -33 10
-61 10 -62 0 -1 -7 0 -16 4 -13 5 -15 2 -10 -15 5 -15 2 -22 -13 -27 -12 -4
-18 -12 -14 -21 3 -7 0 -14 -6 -14 -6 0 -11 7 -11 16 0 13 -7 15 -31 10 -17
-3 -38 -6 -45 -6 -11 0 -14 -20 -14 -90 l0 -90 182 0 181 0 -21 23 c-27 29
-28 67 -2 143 11 32 19 64 18 71 -2 7 -26 -2 -63 -24 -96 -57 -215 -107 -228
-94 -6 6 -9 12 -6 13 2 2 51 27 109 55 166 83 170 86 170 133 0 22 -3 40 -7
40 -14 1 -86 70 -80 76 3 4 23 -8 43 -25 20 -18 37 -31 39 -29 2 2 15 32 30
68 15 36 41 79 59 95 18 17 30 29 27 28 -11 -6 -31 22 -31 44 0 34 26 85 50
101 17 10 26 10 51 -4 30 -15 31 -15 24 5 -4 12 -2 21 4 21 6 0 11 8 12 18 0
10 4 7 11 -11 7 -20 7 -32 -2 -42 -7 -8 -9 -27 -4 -50 6 -33 3 -40 -25 -66
-35 -32 -35 -34 5 -19 19 8 37 7 61 -1 29 -9 44 -8 95 11 34 12 70 19 83 16
20 -5 37 7 100 68 74 74 92 106 58 106 -36 0 -93 22 -122 45 l-29 25 -396 0
-396 0 0 -320z m193 -445 c4 -8 2 -17 -3 -20 -6 -4 -10 3 -10 14 0 25 6 27 13
6z"/>
<path d="M888 632 c-37 -31 -75 -67 -83 -79 -9 -13 -22 -23 -30 -23 -9 0 -12
-6 -9 -15 5 -11 2 -13 -9 -9 -10 3 -57 -24 -127 -77 l-112 -82 7 -51 c3 -27 9
-54 11 -58 3 -5 42 -33 86 -62 110 -74 85 -85 -31 -13 -33 20 -34 20 -27 1 38
-93 39 -104 17 -135 l-22 -29 201 0 200 0 0 345 c0 190 -1 345 -2 344 -2 0
-33 -26 -70 -57z"/>
<path d="M685 530 c-48 -19 -105 -32 -123 -28 -23 6 -32 -14 -32 -70 0 -40 3
-39 114 47 76 59 84 69 41 51z"/>
<path d="M402 427 c-28 -30 -31 -90 -4 -85 10 2 18 13 18 28 1 14 5 37 9 53 9
33 5 34 -23 4z"/>
<path d="M365 310 c-3 -5 -1 -10 4 -10 6 0 11 5 11 10 0 6 -2 10 -4 10 -3 0
-8 -4 -11 -10z"/>
</g>
</svg>
