<?xml version="1.0" standalone="no"?>
<!DOCTYPE svg PUBLIC "-//W3C//DTD SVG 20010904//EN"
 "http://www.w3.org/TR/2001/REC-SVG-20010904/DTD/svg10.dtd">
<svg version="1.0" xmlns="http://www.w3.org/2000/svg"
 width="96.000000pt" height="84.000000pt" viewBox="0 0 96.000000 84.000000"
 preserveAspectRatio="xMidYMid meet">
<metadata>
Created by potrace 1.16, written by Peter Selinger 2001-2019
</metadata>
<g transform="translate(0.000000,84.000000) scale(0.100000,-0.100000)"
fill="#000000" stroke="none">
<path d="M554 779 c-4 -7 -29 -9 -73 -5 -36 4 -72 3 -80 -2 -20 -14 -5 -89 20
-103 14 -7 18 -16 14 -30 -4 -11 -2 -25 3 -32 15 -18 18 -83 5 -99 -7 -7 -16
-26 -22 -41 -6 -15 -15 -27 -20 -27 -5 0 -9 -13 -9 -29 1 -15 -13 -53 -31 -83
-19 -35 -31 -69 -31 -92 0 -38 26 -132 42 -153 6 -7 5 -26 -1 -47 l-9 -36 140
0 141 0 -6 29 c-3 16 -9 42 -13 57 -6 24 -1 21 27 -20 36 -52 56 -58 51 -16
-1 14 -4 62 -6 106 -3 63 -11 94 -31 134 -19 37 -26 63 -22 84 3 19 -1 39 -9
51 -8 10 -14 29 -14 41 0 13 -5 26 -11 29 -5 4 -8 19 -5 33 3 15 7 54 8 87 1
33 6 63 11 66 11 8 25 79 19 97 -5 15 -78 16 -88 1z m23 -476 c-3 -10 -5 -2
-5 17 0 19 2 27 5 18 2 -10 2 -26 0 -35z"/>
</g>
</svg>
