<?xml version="1.0" standalone="no"?>
<!DOCTYPE svg PUBLIC "-//W3C//DTD SVG 20010904//EN"
 "http://www.w3.org/TR/2001/REC-SVG-20010904/DTD/svg10.dtd">
<svg version="1.0" xmlns="http://www.w3.org/2000/svg"
 width="96.000000pt" height="84.000000pt" viewBox="0 0 96.000000 84.000000"
 preserveAspectRatio="xMidYMid meet">
<metadata>
Created by potrace 1.16, written by Peter Selinger 2001-2019
</metadata>
<g transform="translate(0.000000,84.000000) scale(0.100000,-0.100000)"
fill="#000000" stroke="none">
<path d="M0 514 l0 -326 37 7 c46 8 49 11 35 28 -7 8 -10 16 -7 19 3 2 9 26
14 52 7 38 6 49 -6 53 -8 3 -12 12 -8 22 4 9 9 41 11 71 6 65 23 90 46 66 9
-8 13 -25 11 -39 -3 -14 3 -41 12 -61 13 -27 15 -39 6 -50 -6 -7 -9 -20 -7
-27 2 -8 7 -35 10 -61 5 -39 3 -46 -9 -42 -18 7 -20 -7 -4 -23 8 -8 -5 -14
-47 -23 -101 -20 -94 -12 -94 -101 l0 -79 160 0 160 0 0 38 c0 22 9 65 20 97
11 32 20 62 20 67 0 4 -35 -9 -78 -31 -99 -50 -200 -91 -224 -91 -32 0 -18 25
25 43 119 51 260 124 268 139 13 24 -10 61 -69 108 -29 22 -52 45 -52 50 0 17
9 12 59 -30 55 -46 61 -48 61 -17 1 45 38 129 74 166 38 39 45 54 22 45 -8 -3
-19 3 -25 14 -12 23 8 93 36 124 18 21 63 24 81 6 9 -9 12 -7 12 10 0 12 5 22
10 22 6 0 11 12 11 28 1 21 3 18 9 -13 4 -22 4 -47 0 -56 -5 -8 -6 -34 -3 -56
5 -38 2 -45 -28 -72 l-33 -31 44 0 c31 0 50 -6 66 -21 22 -20 27 -21 88 -9 35
6 73 9 84 6 14 -5 40 8 91 46 l71 53 0 96 0 96 -52 7 c-29 3 -245 6 -480 6
l-427 0 -1 -326z m100 -364 c0 -5 -7 -10 -15 -10 -8 0 -15 5 -15 10 0 6 7 10
15 10 8 0 15 -4 15 -10z"/>
<path d="M891 555 c-35 -24 -69 -54 -75 -67 -7 -13 -20 -22 -30 -21 -12 1 -15
-4 -12 -14 5 -11 2 -13 -10 -9 -10 4 -48 -15 -103 -49 -127 -82 -132 -87 -125
-127 11 -54 20 -64 116 -125 106 -67 97 -88 -11 -26 l-67 39 23 -65 c13 -35
22 -70 19 -78 -4 -10 28 -13 169 -13 l175 0 0 300 c0 165 -1 300 -3 300 -2 0
-32 -20 -66 -45z"/>
<path d="M545 457 c-4 -18 -5 -48 -3 -66 l3 -33 100 67 c65 43 90 64 70 59
-48 -12 -127 -14 -146 -3 -15 8 -19 4 -24 -24z"/>
<path d="M407 412 c-10 -11 -17 -35 -17 -62 0 -37 2 -41 16 -29 9 7 13 21 10
32 -3 11 0 29 5 39 15 29 6 42 -14 20z"/>
<path d="M100 210 c0 -5 5 -10 10 -10 6 0 10 5 10 10 0 6 -4 10 -10 10 -5 0
-10 -4 -10 -10z"/>
</g>
</svg>
