<?xml version="1.0" standalone="no"?>
<!DOCTYPE svg PUBLIC "-//W3C//DTD SVG 20010904//EN"
 "http://www.w3.org/TR/2001/REC-SVG-20010904/DTD/svg10.dtd">
<svg version="1.0" xmlns="http://www.w3.org/2000/svg"
 width="96.000000pt" height="84.000000pt" viewBox="0 0 96.000000 84.000000"
 preserveAspectRatio="xMidYMid meet">
<metadata>
Created by potrace 1.16, written by Peter Selinger 2001-2019
</metadata>
<g transform="translate(0.000000,84.000000) scale(0.100000,-0.100000)"
fill="#000000" stroke="none">
<path d="M0 510 c0 -359 -3 -342 55 -320 20 8 24 14 17 23 -7 8 -7 27 1 60 8
36 8 53 0 67 -8 11 -9 30 -3 56 5 21 8 40 8 43 0 3 0 21 1 39 1 29 4 33 24 30
19 -3 23 -11 27 -53 3 -27 12 -60 20 -73 12 -19 13 -24 2 -31 -13 -8 -11 -69
4 -123 4 -13 1 -16 -12 -11 -13 5 -15 2 -10 -15 6 -17 1 -21 -26 -27 -18 -4
-50 -11 -70 -16 l-38 -10 0 -74 0 -75 155 0 154 0 11 38 c5 20 16 58 24 85 8
26 13 47 10 47 -2 0 -36 -16 -74 -35 -109 -55 -220 -96 -241 -90 -28 9 -23 19
16 34 32 11 48 31 25 31 -5 0 -10 7 -10 15 0 8 5 15 10 15 6 0 10 -6 10 -14 0
-8 7 -16 15 -19 16 -7 244 105 257 125 14 23 9 51 -7 44 -9 -3 -15 0 -15 8 0
8 -29 35 -65 61 -36 25 -65 50 -65 56 0 15 9 11 74 -36 35 -24 66 -42 69 -39
3 4 4 18 1 33 -7 42 28 136 69 180 39 43 46 57 23 48 -8 -3 -20 1 -27 9 -29
35 35 164 81 164 8 0 26 -7 38 -16 21 -14 22 -14 22 5 0 11 4 23 10 26 5 3 10
18 11 33 1 20 4 16 11 -16 7 -31 6 -47 -2 -57 -7 -9 -9 -30 -5 -57 5 -34 3
-47 -9 -57 -9 -8 -16 -20 -16 -27 0 -8 -7 -14 -15 -14 -31 0 -14 -19 23 -26
20 -3 49 -17 63 -31 24 -22 35 -24 95 -23 38 1 77 0 87 -1 9 -2 46 16 82 41
l65 45 0 128 0 127 -480 0 -480 0 0 -330z"/>
<path d="M891 510 c-30 -22 -59 -50 -66 -63 -6 -12 -19 -21 -28 -21 -9 1 -17
-4 -17 -12 0 -7 -6 -11 -14 -8 -14 5 -124 -58 -178 -102 -15 -12 -32 -24 -37
-26 -7 -2 -7 -18 1 -46 11 -44 9 -42 173 -138 43 -24 47 -29 27 -32 -13 -2
-51 13 -90 35 -37 21 -70 39 -74 41 -4 2 6 -27 22 -65 l29 -68 160 -3 161 -2
0 275 c0 151 -3 275 -7 275 -5 -1 -32 -19 -62 -40z"/>
<path d="M546 408 c-3 -34 -3 -65 2 -70 7 -7 168 84 193 109 6 6 -22 8 -75 6
-51 -2 -87 0 -91 7 -14 22 -22 7 -29 -52z"/>
<path d="M409 403 c-10 -13 -13 -32 -9 -63 3 -31 7 -40 12 -27 4 9 5 23 2 30
-3 8 0 26 6 42 13 34 8 41 -11 18z"/>
<path d="M101 211 c-10 -6 -10 -10 -1 -16 13 -8 24 -1 19 14 -3 6 -10 7 -18 2z"/>
</g>
</svg>
