<?xml version="1.0" standalone="no"?>
<!DOCTYPE svg PUBLIC "-//W3C//DTD SVG 20010904//EN"
 "http://www.w3.org/TR/2001/REC-SVG-20010904/DTD/svg10.dtd">
<svg version="1.0" xmlns="http://www.w3.org/2000/svg"
 width="96.000000pt" height="84.000000pt" viewBox="0 0 96.000000 84.000000"
 preserveAspectRatio="xMidYMid meet">
<metadata>
Created by potrace 1.16, written by Peter Selinger 2001-2019
</metadata>
<g transform="translate(0.000000,84.000000) scale(0.100000,-0.100000)"
fill="#000000" stroke="none">
<path d="M0 509 l0 -330 33 3 c27 2 32 7 32 28 0 14 4 47 9 74 6 34 5 50 -3
55 -9 6 -9 20 0 60 6 28 8 58 6 65 -3 8 0 22 8 32 20 28 45 2 45 -46 0 -22 8
-47 19 -61 16 -20 17 -26 6 -39 -10 -11 -12 -31 -6 -78 6 -50 5 -62 -6 -58 -7
3 -13 -1 -13 -9 0 -8 6 -15 13 -15 28 -1 -20 -19 -80 -31 l-63 -13 0 -73 0
-73 158 0 158 0 16 67 c9 38 15 69 14 71 -2 1 -59 -24 -127 -57 -141 -67 -172
-76 -187 -58 -8 10 1 18 41 35 133 56 296 147 301 166 7 25 -11 47 -31 39 -10
-4 -14 -2 -10 4 4 7 -24 31 -68 59 -69 44 -90 64 -65 64 5 0 37 -18 72 -40 34
-22 67 -39 72 -37 6 2 10 17 8 33 -1 16 2 47 7 69 6 22 12 51 15 65 3 14 23
43 45 65 37 38 38 40 18 45 -40 10 -34 98 9 150 29 33 73 40 94 15 16 -19 18
-17 35 39 l14 46 -294 0 -295 0 0 -331z m91 -412 c-13 -13 -26 -3 -16 12 3 6
11 8 17 5 6 -4 6 -10 -1 -17z"/>
<path d="M603 796 c5 -31 3 -46 -6 -49 -7 -2 -12 -24 -12 -55 0 -28 -6 -57
-12 -63 -7 -7 -13 -19 -13 -25 0 -7 -10 -16 -21 -19 -20 -7 -20 -8 7 -26 16
-10 37 -19 47 -19 10 0 26 -13 35 -30 16 -29 20 -30 88 -30 40 0 75 -5 82 -12
8 -8 29 1 84 39 l73 51 3 141 3 141 -182 0 -182 0 6 -44z"/>
<path d="M889 485 c-35 -25 -66 -51 -68 -58 -6 -21 -33 -47 -42 -41 -5 3 -9 1
-9 -5 0 -6 -6 -8 -13 -5 -14 5 -137 -63 -137 -75 0 -4 -16 -15 -36 -24 -33
-16 -35 -20 -29 -50 9 -41 19 -49 144 -109 68 -33 99 -53 91 -58 -15 -10 -66
7 -141 46 -75 40 -75 40 -58 13 9 -13 24 -45 34 -71 l18 -48 158 0 159 0 0
265 c0 146 -1 265 -3 265 -2 0 -32 -20 -68 -45z"/>
<path d="M548 424 c-1 -22 -2 -50 -2 -64 -1 -14 -5 -31 -10 -38 -4 -7 -6 -15
-4 -18 6 -5 198 108 198 117 0 3 -34 9 -76 12 -41 3 -82 11 -90 17 -12 11 -14
6 -16 -26z"/>
<path d="M407 404 c-4 -4 -7 -17 -7 -28 1 -19 1 -20 11 -3 11 19 8 43 -4 31z"/>
<path d="M100 210 c-8 -5 -11 -12 -7 -16 4 -4 13 -2 19 4 15 15 7 24 -12 12z"/>
</g>
</svg>
