<?xml version="1.0" standalone="no"?>
<!DOCTYPE svg PUBLIC "-//W3C//DTD SVG 20010904//EN"
 "http://www.w3.org/TR/2001/REC-SVG-20010904/DTD/svg10.dtd">
<svg version="1.0" xmlns="http://www.w3.org/2000/svg"
 width="96.000000pt" height="84.000000pt" viewBox="0 0 96.000000 84.000000"
 preserveAspectRatio="xMidYMid meet">
<metadata>
Created by potrace 1.16, written by Peter Selinger 2001-2019
</metadata>
<g transform="translate(0.000000,84.000000) scale(0.100000,-0.100000)"
fill="#000000" stroke="none">
<path d="M0 505 c0 -263 3 -334 13 -331 6 3 25 7 40 11 24 5 27 8 17 20 -9 11
-9 22 -1 46 14 40 14 86 1 94 -6 4 -8 16 -4 28 4 12 10 46 13 76 3 30 11 56
16 58 22 6 36 -16 39 -60 1 -27 10 -55 20 -66 14 -16 15 -21 3 -32 -10 -10
-12 -31 -7 -76 4 -49 3 -63 -8 -63 -7 0 -12 -8 -10 -17 2 -14 -10 -21 -64 -33
l-68 -14 0 -73 0 -73 158 0 158 0 16 65 c8 36 13 65 9 63 -4 -2 -55 -27 -115
-57 -108 -53 -186 -75 -186 -52 0 6 16 17 35 25 36 15 47 36 19 36 -9 0 -14 5
-12 12 6 18 28 22 28 5 0 -28 25 -24 104 15 120 60 153 83 158 112 5 25 -1 30
-30 27 -7 -1 -11 3 -10 9 2 6 -28 30 -67 52 -77 44 -92 55 -83 64 4 3 41 -13
83 -36 42 -23 79 -40 82 -36 3 3 12 -2 19 -12 19 -24 18 2 -2 40 -14 27 -13
80 2 141 1 4 2 13 3 20 0 7 20 31 42 55 23 23 37 43 33 43 -5 1 -16 2 -24 3
-10 1 -16 15 -18 46 -3 55 22 108 61 130 25 14 30 13 56 -2 l30 -16 15 39 c9
22 16 42 16 44 0 3 -130 5 -290 5 l-290 0 0 -335z"/>
<path d="M590 824 c0 -8 5 -24 11 -35 8 -16 7 -25 -5 -38 -9 -10 -16 -34 -16
-54 0 -43 -28 -107 -47 -107 -25 0 -13 -19 31 -49 24 -17 46 -41 50 -55 5 -22
13 -25 73 -31 38 -4 73 -11 79 -16 7 -6 41 13 93 51 44 33 86 60 91 60 6 0 10
56 10 145 l0 145 -185 0 c-161 0 -185 -2 -185 -16z"/>
<path d="M860 463 c-36 -26 -72 -60 -80 -77 -8 -17 -21 -30 -28 -29 -6 2 -12
-2 -12 -8 0 -8 -4 -8 -13 -1 -10 8 -31 -1 -84 -37 -39 -27 -76 -50 -83 -53 -7
-2 -9 -13 -5 -31 8 -30 61 -62 183 -108 34 -13 62 -27 62 -31 0 -18 -60 -6
-134 27 -44 19 -81 33 -82 32 -2 -2 10 -31 26 -65 17 -34 30 -66 30 -72 0 -6
59 -10 160 -10 l160 0 0 241 c0 241 0 241 -20 218 l-19 -24 6 38 c3 20 4 37 2
37 -2 -1 -33 -22 -69 -47z"/>
<path d="M540 396 c0 -24 -3 -58 -6 -76 l-7 -32 41 26 c23 14 44 26 47 26 11
0 85 53 85 61 0 5 -21 9 -47 9 -27 1 -59 7 -73 15 -37 21 -40 19 -40 -29z"/>
<path d="M407 413 c-4 -3 -7 -16 -6 -27 0 -19 1 -19 10 3 10 24 8 36 -4 24z"/>
<path d="M100 205 c-8 -9 -8 -15 -2 -15 12 0 26 19 19 26 -2 2 -10 -2 -17 -11z"/>
</g>
</svg>
