<?xml version="1.0" standalone="no"?>
<!DOCTYPE svg PUBLIC "-//W3C//DTD SVG 20010904//EN"
 "http://www.w3.org/TR/2001/REC-SVG-20010904/DTD/svg10.dtd">
<svg version="1.0" xmlns="http://www.w3.org/2000/svg"
 width="96.000000pt" height="84.000000pt" viewBox="0 0 96.000000 84.000000"
 preserveAspectRatio="xMidYMid meet">
<metadata>
Created by potrace 1.16, written by Peter Selinger 2001-2019
</metadata>
<g transform="translate(0.000000,84.000000) scale(0.100000,-0.100000)"
fill="#000000" stroke="none">
<path d="M0 506 l0 -334 36 8 c43 10 53 18 35 29 -10 6 -10 13 -2 29 12 23 10
104 -3 114 -5 3 -4 20 4 39 8 18 13 47 12 64 -3 38 22 65 40 47 7 -7 13 -33
15 -59 1 -25 6 -50 10 -54 5 -5 51 -29 102 -54 64 -31 96 -42 101 -35 5 8 9 7
13 -4 4 -9 11 -16 17 -16 6 0 1 19 -11 41 -18 36 -20 51 -14 112 7 65 11 74
51 117 l44 47 -27 -1 c-28 -1 -28 0 -27 56 2 95 56 149 114 116 l29 -16 15 39
c9 22 16 42 16 44 0 3 -128 5 -285 5 l-285 0 0 -334z"/>
<path d="M580 836 c0 -1 5 -16 10 -33 8 -23 7 -36 -5 -59 -8 -16 -15 -41 -15
-55 0 -38 -28 -99 -45 -99 -23 0 -19 -9 25 -52 23 -24 40 -50 40 -63 0 -20 8
-25 63 -38 34 -8 69 -18 78 -21 11 -5 44 14 98 54 66 49 85 59 97 49 18 -15
18 -43 -1 -79 -21 -40 -24 -38 -18 10 3 22 2 40 -1 40 -18 0 -138 -95 -151
-119 -20 -38 -51 -61 -63 -49 -7 7 -30 -3 -74 -32 -35 -23 -63 -46 -62 -51 1
-5 2 -15 3 -23 1 -12 148 -75 214 -91 15 -4 27 -11 27 -16 0 -17 -48 -9 -132
20 -45 17 -84 29 -85 27 -2 -1 10 -33 26 -71 16 -38 27 -73 25 -77 -3 -4 69
-8 160 -8 l166 0 0 420 0 420 -190 0 c-104 0 -190 -2 -190 -4z"/>
<path d="M532 385 c3 -25 2 -48 -3 -51 -11 -7 -11 -15 0 -33 7 -11 17 -8 53
15 24 16 51 34 61 39 32 18 22 30 -31 38 -29 5 -52 12 -52 17 0 4 -7 11 -16
14 -14 6 -16 0 -12 -39z"/>
<path d="M396 395 c-3 -8 -1 -15 4 -15 6 0 10 7 10 15 0 8 -2 15 -4 15 -2 0
-6 -7 -10 -15z"/>
<path d="M154 335 c-3 -8 -4 -39 -2 -70 2 -39 -1 -55 -9 -55 -7 0 -13 -4 -13
-10 0 -5 5 -10 12 -10 26 0 -4 -13 -69 -29 l-68 -17 -3 -72 c-3 -71 -3 -72 23
-72 14 0 25 5 25 10 0 6 16 18 35 27 37 18 46 33 19 33 -9 0 -14 5 -12 12 6
18 28 22 28 5 0 -31 30 -23 130 33 109 62 120 71 120 109 0 18 -4 22 -19 18
-12 -3 -18 0 -15 7 2 6 -35 29 -86 53 -72 33 -92 39 -96 28z"/>
<path d="M107 213 c-4 -3 -7 -11 -7 -17 0 -6 5 -5 12 2 6 6 9 14 7 17 -3 3 -9
2 -12 -2z"/>
<path d="M220 59 l-115 -59 105 0 106 0 16 60 c9 33 13 59 9 59 -3 -1 -58 -28
-121 -60z"/>
</g>
</svg>
