<?xml version="1.0" standalone="no"?>
<!DOCTYPE svg PUBLIC "-//W3C//DTD SVG 20010904//EN"
 "http://www.w3.org/TR/2001/REC-SVG-20010904/DTD/svg10.dtd">
<svg version="1.0" xmlns="http://www.w3.org/2000/svg"
 width="96.000000pt" height="84.000000pt" viewBox="0 0 96.000000 84.000000"
 preserveAspectRatio="xMidYMid meet">
<metadata>
Created by potrace 1.16, written by Peter Selinger 2001-2019
</metadata>
<g transform="translate(0.000000,84.000000) scale(0.100000,-0.100000)"
fill="#000000" stroke="none">
<path d="M0 506 c0 -315 1 -334 17 -331 69 14 74 16 66 28 -5 7 -8 41 -7 77 1
36 -3 68 -9 72 -7 4 -6 17 4 40 8 18 14 40 15 48 1 8 2 25 3 38 1 27 29 41 42
21 5 -8 9 -32 9 -54 0 -22 7 -51 17 -64 20 -30 185 -109 191 -92 3 8 9 6 17
-6 26 -35 26 -4 0 35 -24 36 -25 45 -19 107 6 56 13 74 38 104 17 20 37 40 43
44 22 13 14 24 -14 23 -27 -1 -28 1 -27 49 0 61 20 104 57 125 25 14 30 13 56
-1 l28 -16 21 43 22 44 -285 0 -284 0 -1 -334z"/>
<path d="M580 826 c0 -8 4 -26 9 -40 7 -18 6 -28 -5 -36 -7 -7 -14 -21 -14
-32 0 -11 -7 -44 -16 -74 -12 -41 -20 -54 -35 -54 -10 0 -19 -2 -19 -5 0 -5
21 -31 58 -71 12 -14 22 -35 22 -48 0 -19 8 -26 48 -36 26 -7 57 -19 68 -26
20 -12 29 -8 103 46 109 80 126 79 119 -11 l-3 -44 -14 43 c-8 23 -16 42 -17
42 -2 0 -35 -23 -74 -52 -47 -33 -76 -63 -85 -85 -8 -19 -19 -32 -25 -28 -5 3
-10 1 -10 -6 0 -10 -3 -10 -11 -2 -9 9 -26 2 -68 -25 -31 -20 -58 -37 -59 -38
-2 -2 -1 -11 2 -22 5 -14 37 -28 126 -56 66 -21 120 -42 120 -47 0 -15 -32
-11 -125 16 -48 14 -89 24 -91 22 -3 -2 7 -29 21 -61 14 -31 25 -65 25 -76 0
-19 7 -20 165 -20 l165 0 0 420 0 420 -190 0 c-158 0 -190 -2 -190 -14z"/>
<path d="M525 352 c0 -37 2 -67 5 -67 16 1 119 72 116 80 -1 6 -24 15 -50 22
-26 6 -53 16 -59 22 -10 7 -12 -7 -12 -57z"/>
<path d="M393 395 c-3 -9 -3 -18 -1 -21 3 -3 8 4 11 16 6 23 -1 27 -10 5z"/>
<path d="M152 276 c2 -48 0 -66 -9 -66 -7 0 -13 -4 -13 -10 0 -5 5 -10 11 -10
22 0 -2 -18 -33 -24 -17 -3 -49 -11 -70 -17 l-38 -10 0 -69 c0 -64 2 -70 20
-70 26 0 100 37 100 50 0 6 -4 10 -10 10 -5 0 -10 7 -10 15 0 8 5 15 10 15 6
0 10 -6 10 -14 0 -30 32 -22 122 30 51 30 99 58 106 62 18 11 22 78 5 74 -7
-1 -13 2 -13 7 0 4 -21 16 -47 26 -27 10 -70 29 -96 42 l-49 24 4 -65z"/>
<path d="M100 199 c0 -5 5 -7 10 -4 6 3 10 8 10 11 0 2 -4 4 -10 4 -5 0 -10
-5 -10 -11z"/>
<path d="M235 54 l-100 -54 92 0 92 0 11 43 c6 23 13 48 15 55 6 18 -2 15
-110 -44z"/>
</g>
</svg>
