<?xml version="1.0" standalone="no"?>
<!DOCTYPE svg PUBLIC "-//W3C//DTD SVG 20010904//EN"
 "http://www.w3.org/TR/2001/REC-SVG-20010904/DTD/svg10.dtd">
<svg version="1.0" xmlns="http://www.w3.org/2000/svg"
 width="96.000000pt" height="84.000000pt" viewBox="0 0 96.000000 84.000000"
 preserveAspectRatio="xMidYMid meet">
<metadata>
Created by potrace 1.16, written by Peter Selinger 2001-2019
</metadata>
<g transform="translate(0.000000,84.000000) scale(0.100000,-0.100000)"
fill="#000000" stroke="none">
<path d="M0 506 l0 -333 40 7 c42 8 63 20 45 26 -5 2 -9 33 -9 69 1 44 -3 68
-12 76 -12 10 -12 16 3 38 9 14 20 46 23 71 4 37 9 45 25 45 17 0 21 -9 27
-58 10 -82 32 -107 123 -141 64 -25 78 -27 86 -15 7 11 9 11 9 -3 0 -10 7 -18
16 -18 16 0 14 6 -19 51 -17 23 -18 36 -12 105 7 76 9 81 51 123 24 24 44 45
44 46 0 1 -13 1 -30 -1 -25 -3 -31 1 -36 22 -9 36 13 104 44 137 26 27 65 36
77 17 12 -20 32 -9 48 25 9 20 17 38 17 40 0 3 -126 5 -280 5 l-280 0 0 -334z"/>
<path d="M583 795 c4 -27 3 -45 -3 -45 -6 0 -10 -18 -10 -40 0 -22 -4 -40 -9
-40 -5 0 -13 -17 -18 -37 -6 -28 -14 -39 -31 -41 -20 -3 -32 -22 -14 -22 16 0
74 -93 69 -111 -4 -13 7 -22 47 -39 28 -11 59 -25 70 -31 15 -9 32 0 97 50
107 82 111 82 124 -14 8 -56 -2 -53 -25 6 l-16 39 -71 -52 c-50 -37 -74 -62
-78 -80 -8 -32 -14 -37 -52 -42 -31 -3 -113 -51 -113 -65 0 -20 57 -43 208
-81 23 -6 42 -16 42 -22 0 -14 -75 -4 -159 22 -36 11 -67 18 -69 16 -2 -2 10
-31 27 -65 17 -33 31 -69 31 -80 0 -18 9 -19 165 -21 l165 -1 0 421 0 420
-191 0 -192 0 6 -45z m337 -605 c8 -5 11 -10 5 -10 -5 0 -17 5 -25 10 -8 5
-10 10 -5 10 6 0 17 -5 25 -10z"/>
<path d="M386 394 c-4 -9 -4 -19 -1 -22 2 -3 7 3 11 12 4 9 4 19 1 22 -2 3 -7
-3 -11 -12z"/>
<path d="M524 341 c1 -63 5 -65 66 -25 57 38 55 42 -36 71 l-31 10 1 -56z"/>
<path d="M153 277 c1 -48 -2 -67 -10 -67 -7 0 -13 -4 -13 -10 0 -5 5 -10 11
-10 22 0 -2 -18 -33 -24 -17 -3 -49 -11 -70 -17 l-38 -10 0 -69 0 -70 30 0
c34 0 90 25 90 40 0 5 6 7 13 5 21 -8 217 113 227 141 14 35 12 56 -2 51 -7
-2 -17 2 -23 8 -5 7 -47 27 -92 44 -45 18 -84 38 -87 44 -3 7 -4 -18 -3 -56z
m-33 -205 c0 -13 -12 -22 -22 -16 -10 6 -1 24 13 24 5 0 9 -4 9 -8z"/>
<path d="M315 91 c-6 -5 -44 -28 -85 -50 l-75 -41 82 0 c45 0 84 4 87 8 3 5 8
28 12 50 6 41 -1 52 -21 33z"/>
</g>
</svg>
