<?xml version="1.0" standalone="no"?>
<!DOCTYPE svg PUBLIC "-//W3C//DTD SVG 20010904//EN"
 "http://www.w3.org/TR/2001/REC-SVG-20010904/DTD/svg10.dtd">
<svg version="1.0" xmlns="http://www.w3.org/2000/svg"
 width="96.000000pt" height="84.000000pt" viewBox="0 0 96.000000 84.000000"
 preserveAspectRatio="xMidYMid meet">
<metadata>
Created by potrace 1.16, written by Peter Selinger 2001-2019
</metadata>
<g transform="translate(0.000000,84.000000) scale(0.100000,-0.100000)"
fill="#000000" stroke="none">
<path d="M0 420 c0 -405 1 -420 19 -420 10 0 21 7 25 15 3 8 10 15 17 15 6 0
9 -7 5 -15 -4 -11 2 -15 26 -15 26 0 118 51 219 120 4 3 10 28 14 55 4 32 3
45 -3 37 -7 -11 -10 -10 -14 5 -3 12 -29 26 -74 42 -93 32 -128 51 -117 62 5
5 47 -6 103 -29 66 -26 95 -33 98 -24 6 18 22 15 22 -5 0 -15 2 -15 9 -4 6 10
1 26 -15 51 -22 33 -24 46 -21 113 3 66 8 80 33 111 16 19 35 35 42 35 26 2
10 21 -17 21 -24 0 -31 5 -36 29 -7 31 8 95 28 122 7 8 24 23 39 33 25 16 29
16 58 1 18 -9 33 -15 34 -13 1 2 13 20 25 41 l23 37 -271 0 -271 0 0 -420z"/>
<path d="M560 820 c0 -12 5 -31 11 -42 9 -17 8 -23 -5 -30 -10 -6 -16 -22 -16
-45 0 -27 -3 -34 -15 -29 -12 4 -15 -3 -15 -35 0 -36 -3 -40 -30 -45 -35 -7
-35 -8 -15 -31 46 -53 65 -84 65 -106 0 -21 11 -32 67 -61 l67 -36 53 43 c30
23 64 50 78 61 37 30 55 15 55 -46 0 -56 -12 -56 -27 -1 l-8 33 -67 -53 c-50
-39 -68 -60 -73 -84 -4 -21 -12 -34 -23 -34 -9 -1 -24 -2 -32 -3 -24 -2 -113
-67 -103 -76 8 -9 160 -53 221 -65 18 -4 30 -11 26 -16 -9 -15 -54 -10 -147
15 l-88 23 6 -24 c3 -13 15 -48 26 -78 l20 -55 185 0 184 0 0 354 c0 315 -2
355 -16 360 -9 3 -14 13 -11 20 3 8 -2 25 -12 38 -10 13 -20 32 -22 43 -4 19
-13 20 -172 23 -164 2 -167 2 -167 -18z m215 -600 c3 -6 -1 -7 -9 -4 -18 7
-21 14 -7 14 6 0 13 -4 16 -10z"/>
<path d="M493 333 c0 -35 4 -66 9 -69 14 -9 98 49 98 69 0 10 -11 21 -27 27
-16 5 -40 16 -54 23 l-25 14 -1 -64z"/>
<path d="M262 35 c-48 -33 -49 -35 -9 -35 31 0 38 4 43 25 9 35 4 37 -34 10z"/>
</g>
</svg>
