<?xml version="1.0" standalone="no"?>
<!DOCTYPE svg PUBLIC "-//W3C//DTD SVG 20010904//EN"
 "http://www.w3.org/TR/2001/REC-SVG-20010904/DTD/svg10.dtd">
<svg version="1.0" xmlns="http://www.w3.org/2000/svg"
 width="96.000000pt" height="84.000000pt" viewBox="0 0 96.000000 84.000000"
 preserveAspectRatio="xMidYMid meet">
<metadata>
Created by potrace 1.16, written by Peter Selinger 2001-2019
</metadata>
<g transform="translate(0.000000,84.000000) scale(0.100000,-0.100000)"
fill="#000000" stroke="none">
<path d="M0 420 l0 -420 172 2 173 3 21 111 20 111 -33 18 c-18 10 -31 20 -29
22 2 3 14 0 25 -7 13 -7 21 -7 21 -1 0 6 -9 15 -20 21 -11 6 -20 17 -20 25 0
19 5 19 35 -1 23 -15 24 -15 31 20 4 22 1 48 -6 66 -7 16 -10 43 -6 60 3 16 9
44 12 61 5 23 2 33 -12 44 -28 20 -26 96 3 127 27 29 29 40 20 106 l-8 52
-199 0 -200 0 0 -420z"/>
<path d="M870 314 c-25 -8 -72 -17 -105 -19 -54 -4 -60 -6 -60 -27 0 -17 -8
-25 -35 -32 -30 -9 -79 -50 -80 -67 0 -3 29 -19 65 -35 35 -16 65 -32 65 -36
0 -15 -55 -8 -99 12 -24 11 -46 20 -48 20 -6 0 5 -93 13 -115 5 -13 36 -15
190 -15 l184 0 0 165 c0 188 5 180 -90 149z"/>
<path d="M546 275 c-4 -19 -3 -42 2 -50 7 -13 13 -10 36 14 34 35 31 65 -5 69
-23 3 -27 -1 -33 -33z"/>
</g>
</svg>
