<?xml version="1.0" standalone="no"?>
<!DOCTYPE svg PUBLIC "-//W3C//DTD SVG 20010904//EN"
 "http://www.w3.org/TR/2001/REC-SVG-20010904/DTD/svg10.dtd">
<svg version="1.0" xmlns="http://www.w3.org/2000/svg"
 width="96.000000pt" height="84.000000pt" viewBox="0 0 96.000000 84.000000"
 preserveAspectRatio="xMidYMid meet">
<metadata>
Created by potrace 1.16, written by Peter Selinger 2001-2019
</metadata>
<g transform="translate(0.000000,84.000000) scale(0.100000,-0.100000)"
fill="#000000" stroke="none">
<path d="M0 420 l0 -420 315 0 315 0 4 22 c35 184 38 208 25 224 -17 21 -34
17 -47 -10 -12 -26 -36 -32 -191 -40 -65 -4 -86 -2 -98 9 -8 8 -31 15 -52 15
-46 0 -59 14 -99 99 -33 70 -30 95 15 158 14 19 23 46 23 70 0 78 10 195 19
211 5 10 6 32 4 50 l-5 32 -114 0 -114 0 0 -420z"/>
<path d="M707 813 c-3 -16 -9 -39 -13 -53 -7 -24 -7 -24 13 -7 11 9 26 17 34
17 13 0 49 47 49 64 0 3 -17 6 -39 6 -34 0 -39 -3 -44 -27z"/>
<path d="M791 804 c-27 -45 -27 -52 1 -28 l22 19 -15 -25 c-9 -14 -19 -38 -23
-53 -3 -15 -11 -25 -16 -22 -6 3 -10 1 -10 -4 0 -6 -6 -11 -14 -11 -24 0 -46
-29 -46 -61 0 -16 3 -29 8 -29 20 0 52 34 52 55 0 13 5 27 12 31 8 5 9 0 6
-14 -4 -12 -4 -22 -2 -22 2 0 28 16 59 35 57 37 75 59 75 95 0 12 5 18 10 15
6 -4 10 5 10 19 0 32 27 35 33 4 4 -20 4 -19 6 5 l1 27 -74 0 -74 0 -21 -36z"/>
<path d="M926 743 c-14 -15 -5 -43 14 -43 13 0 20 7 20 19 0 19 -23 35 -34 24z"/>
<path d="M879 693 c-13 -15 -12 -15 9 -4 23 12 28 21 13 21 -5 0 -15 -7 -22
-17z"/>
<path d="M869 674 c-61 -19 -165 -110 -148 -130 7 -8 14 -12 17 -9 3 3 10 0
17 -5 7 -6 24 -2 51 12 21 12 50 27 64 35 14 7 35 13 48 13 12 0 22 5 22 11 0
5 5 7 10 4 16 -10 12 33 -6 60 -9 14 -19 25 -23 24 -3 -1 -26 -7 -52 -15z"/>
<path d="M855 549 c-11 -17 0 -20 21 -4 17 13 17 14 2 15 -9 0 -20 -5 -23 -11z"/>
<path d="M835 519 c-37 -9 -54 -23 -55 -43 0 -4 7 -5 16 -2 10 4 25 -1 36 -11
18 -16 20 -16 45 9 16 16 23 32 20 42 -7 18 -6 18 -62 5z"/>
<path d="M933 471 c-12 -15 -29 -43 -38 -63 -10 -19 -31 -43 -47 -52 -24 -15
-27 -20 -17 -32 7 -8 18 -13 26 -10 7 3 23 1 35 -4 22 -8 21 -9 -6 -9 l-29 -1
19 -22 c19 -22 19 -23 -1 -8 -11 8 -30 23 -42 34 -28 23 -42 13 -24 -16 11
-18 11 -23 -2 -33 -27 -19 -38 -117 -16 -139 5 -5 3 -14 -5 -20 -10 -8 -11
-22 -4 -54 l9 -42 85 0 84 0 0 250 c0 138 -1 250 -2 249 -2 0 -13 -13 -25 -28z"/>
<path d="M860 430 c-8 -5 -12 -12 -9 -15 4 -3 12 1 19 10 14 17 11 19 -10 5z"/>
</g>
</svg>
