<?xml version="1.0" standalone="no"?>
<!DOCTYPE svg PUBLIC "-//W3C//DTD SVG 20010904//EN"
 "http://www.w3.org/TR/2001/REC-SVG-20010904/DTD/svg10.dtd">
<svg version="1.0" xmlns="http://www.w3.org/2000/svg"
 width="96.000000pt" height="84.000000pt" viewBox="0 0 96.000000 84.000000"
 preserveAspectRatio="xMidYMid meet">
<metadata>
Created by potrace 1.16, written by Peter Selinger 2001-2019
</metadata>
<g transform="translate(0.000000,84.000000) scale(0.100000,-0.100000)"
fill="#000000" stroke="none">
<path d="M393 794 c-24 -10 -12 -104 13 -104 16 0 17 -9 5 -29 -6 -9 -3 -23 9
-40 24 -34 35 -71 20 -71 -6 0 -9 -4 -6 -8 3 -5 -4 -16 -15 -25 -10 -9 -19
-28 -19 -42 0 -14 -6 -28 -14 -31 -8 -3 -13 -20 -13 -42 0 -21 -12 -61 -27
-89 -30 -61 -32 -90 -10 -177 12 -48 13 -72 6 -100 l-10 -36 150 0 c129 0 149
2 144 15 -3 8 -17 54 -31 102 -15 49 -31 98 -36 111 -11 29 -12 149 0 156 4 3
11 -36 14 -87 6 -103 23 -158 69 -230 42 -66 53 -51 39 53 -6 45 -8 86 -6 91
3 4 -6 36 -21 71 -15 35 -27 81 -27 103 -1 22 -5 42 -9 45 -4 3 -12 59 -18
124 -9 99 -8 119 5 132 17 17 30 78 20 94 -4 6 -36 10 -78 9 -40 -1 -88 1
-107 5 -19 3 -41 3 -47 0z"/>
</g>
</svg>
