<?xml version="1.0" standalone="no"?>
<!DOCTYPE svg PUBLIC "-//W3C//DTD SVG 20010904//EN"
 "http://www.w3.org/TR/2001/REC-SVG-20010904/DTD/svg10.dtd">
<svg version="1.0" xmlns="http://www.w3.org/2000/svg"
 width="96.000000pt" height="84.000000pt" viewBox="0 0 96.000000 84.000000"
 preserveAspectRatio="xMidYMid meet">
<metadata>
Created by potrace 1.16, written by Peter Selinger 2001-2019
</metadata>
<g transform="translate(0.000000,84.000000) scale(0.100000,-0.100000)"
fill="#000000" stroke="none">
<path d="M0 420 l0 -420 269 0 268 0 12 63 c7 34 15 81 18 103 5 39 3 42 -26
52 -29 10 -33 9 -41 -13 -7 -17 -17 -25 -34 -25 -14 0 -37 -5 -52 -10 -19 -8
-37 -7 -61 1 -21 6 -38 7 -46 2 -20 -15 -64 -14 -77 2 -7 8 -25 15 -40 15 -38
0 -76 33 -90 78 -7 20 -16 41 -21 46 -12 13 -11 53 1 61 5 3 10 15 10 25 0 10
13 29 28 42 24 20 28 31 28 76 0 37 6 58 20 74 35 40 53 75 60 119 5 28 19 55
41 79 18 21 33 40 33 44 0 3 -67 6 -150 6 l-150 0 0 -420z"/>
<path d="M550 815 c0 -14 4 -25 10 -25 5 0 12 -16 16 -35 3 -19 10 -37 14 -40
7 -4 -3 -57 -24 -122 -6 -18 -4 -22 8 -17 9 3 15 13 14 22 -3 43 1 53 21 43
14 -8 23 -5 40 13 11 12 21 28 21 34 0 7 4 12 10 12 5 0 7 6 4 13 -2 7 0 24 6
38 9 21 9 20 4 -10 l-6 -34 38 29 39 29 -21 -27 c-11 -14 -35 -39 -53 -53 -17
-15 -31 -32 -30 -39 1 -6 -3 -22 -9 -36 -6 -14 -11 -19 -11 -11 -1 11 -6 9
-22 -5 -27 -24 -53 -84 -42 -95 12 -12 53 27 53 51 0 10 5 22 10 25 7 4 8 -3
4 -21 l-7 -28 29 20 c16 10 38 24 49 30 11 6 29 29 40 51 27 56 35 62 30 24
-5 -39 -51 -96 -85 -104 -14 -3 -44 -23 -68 -44 -40 -35 -42 -40 -29 -58 15
-19 16 -19 66 8 47 26 90 38 136 39 11 0 14 2 8 5 -7 3 -13 12 -13 22 0 22
-19 41 -43 41 -10 0 -16 4 -13 9 8 13 56 1 56 -15 0 -7 5 -16 11 -19 11 -7 7
34 -6 68 -4 9 -3 17 2 17 16 0 33 -23 33 -44 0 -12 5 -28 11 -36 9 -12 10 -11
4 5 -6 18 -4 18 15 -3 18 -19 40 -22 40 -6 0 3 -5 2 -11 -2 -6 -3 0 12 12 34
24 42 40 52 19 12 -16 -31 -20 -70 -6 -70 6 -1 0 -10 -13 -20 -13 -11 -18 -20
-13 -20 6 0 14 5 17 10 4 7 13 7 26 0 15 -8 19 -7 19 4 0 10 -6 13 -17 9 -17
-6 -17 -5 -1 13 13 16 16 45 18 177 l1 157 -206 0 -205 0 0 -25z m225 -85 c-3
-5 -12 -10 -18 -10 -7 0 -6 4 3 10 19 12 23 12 15 0z m51 -76 c-22 -16 -36
-18 -36 -6 0 13 7 18 32 19 22 2 22 1 4 -13z"/>
<path d="M561 664 c0 -11 3 -14 6 -6 3 7 2 16 -1 19 -3 4 -6 -2 -5 -13z"/>
<path d="M509 558 c-7 -20 -1 -72 9 -75 8 -3 12 8 12 36 0 23 -4 41 -10 41 -5
0 -10 -1 -11 -2z"/>
<path d="M755 460 c-3 -5 1 -10 9 -10 9 0 16 5 16 10 0 6 -4 10 -9 10 -6 0
-13 -4 -16 -10z"/>
<path d="M920 463 c-8 -3 -38 -16 -67 -30 l-52 -24 3 -69 c1 -38 8 -76 16 -85
8 -9 10 -28 7 -50 -4 -23 -1 -40 9 -49 8 -8 14 -23 14 -33 0 -13 -5 -11 -20
12 -24 36 -25 25 -5 -41 18 -61 19 -57 -5 -51 -16 4 -20 0 -20 -19 0 -23 2
-24 80 -24 l80 0 -2 232 c-2 144 -7 232 -13 234 -5 1 -17 0 -25 -3z"/>
<path d="M695 450 c-3 -5 1 -10 9 -10 8 0 18 5 21 10 3 6 -1 10 -9 10 -8 0
-18 -4 -21 -10z"/>
<path d="M693 433 c-18 -2 -33 -9 -33 -14 0 -6 -4 -8 -9 -5 -13 8 -22 -22 -15
-50 7 -27 27 -27 32 -1 3 12 -2 15 -15 11 -16 -5 -16 -4 2 11 19 15 20 14 29
-4 9 -20 9 -20 37 0 29 20 40 60 17 57 -7 0 -28 -3 -45 -5z"/>
<path d="M775 430 c-3 -5 -1 -10 4 -10 6 0 11 5 11 10 0 6 -2 10 -4 10 -3 0
-8 -4 -11 -10z"/>
<path d="M703 353 c-16 -6 -17 -33 -3 -33 11 0 26 28 19 34 -2 2 -10 1 -16 -1z"/>
<path d="M654 319 c-3 -6 -1 -16 6 -22 10 -9 11 -9 6 1 -4 6 -2 12 3 12 6 0
11 5 11 10 0 13 -17 13 -26 -1z"/>
<path d="M554 279 c-14 -23 -13 -37 4 -44 24 -9 32 7 18 34 -10 19 -15 21 -22
10z"/>
<path d="M680 280 c-19 -12 -7 -22 29 -25 21 -2 31 3 34 15 3 13 -2 17 -22 18
-15 0 -34 -3 -41 -8z"/>
<path d="M636 228 c-3 -13 -6 -69 -6 -125 l0 -103 69 0 c67 0 68 0 63 25 -2
14 -11 25 -19 25 -12 0 -13 8 -7 43 5 23 9 64 9 91 0 42 -3 50 -23 57 -21 8
-23 7 -16 -14 l6 -22 -24 23 c-13 12 -29 22 -35 22 -6 0 -13 -10 -17 -22z"/>
</g>
</svg>
