<?xml version="1.0" standalone="no"?>
<!DOCTYPE svg PUBLIC "-//W3C//DTD SVG 20010904//EN"
 "http://www.w3.org/TR/2001/REC-SVG-20010904/DTD/svg10.dtd">
<svg version="1.0" xmlns="http://www.w3.org/2000/svg"
 width="96.000000pt" height="84.000000pt" viewBox="0 0 96.000000 84.000000"
 preserveAspectRatio="xMidYMid meet">
<metadata>
Created by potrace 1.16, written by Peter Selinger 2001-2019
</metadata>
<g transform="translate(0.000000,84.000000) scale(0.100000,-0.100000)"
fill="#000000" stroke="none">
<path d="M0 420 l0 -420 260 0 260 0 0 38 c0 20 7 55 15 77 20 57 18 70 -12
84 -25 11 -29 10 -46 -13 -10 -14 -23 -24 -28 -20 -5 3 -24 0 -43 -6 -25 -8
-40 -8 -59 1 -15 7 -34 8 -44 4 -31 -14 -72 -13 -84 1 -6 8 -22 14 -36 14 -30
0 -70 39 -78 77 -4 15 -10 35 -15 44 -13 25 10 94 39 114 22 14 26 25 27 70 1
52 3 56 55 107 55 53 130 149 141 179 4 11 24 19 60 23 46 6 55 5 69 -13 10
-12 24 -21 33 -21 10 0 16 -9 16 -24 0 -14 4 -27 9 -30 4 -3 11 -20 15 -37 5
-28 8 -30 23 -18 16 12 17 12 6 -2 -7 -9 -14 -28 -15 -43 -1 -14 -6 -26 -10
-26 -4 0 -8 -7 -8 -16 0 -14 2 -14 16 1 9 9 22 14 29 11 17 -6 41 22 60 70 11
27 14 30 10 11 l-6 -29 33 23 32 23 -19 -25 c-11 -15 -29 -30 -40 -35 -11 -5
-19 -17 -19 -26 1 -10 -3 -16 -10 -15 -6 1 -10 -6 -8 -15 1 -9 -2 -19 -8 -23
-5 -3 -10 -1 -10 4 0 22 -16 10 -37 -29 -13 -21 -23 -46 -23 -55 0 -14 3 -14
25 1 14 9 25 25 25 35 0 10 5 21 11 25 8 4 9 0 4 -15 l-6 -21 41 21 c26 14 48
35 61 60 11 22 21 39 23 39 2 0 3 -13 2 -30 0 -18 -6 -30 -14 -30 -9 0 -11 -7
-7 -21 5 -14 3 -19 -7 -17 -18 4 -101 -38 -123 -62 -10 -11 -14 -26 -10 -38 6
-20 7 -20 48 4 23 13 52 24 65 24 13 0 38 11 56 25 25 19 32 31 30 55 -1 16 2
27 7 24 5 -3 9 -14 9 -25 0 -16 4 -19 21 -14 l22 7 -22 -23 c-23 -25 -27 -44
-11 -54 10 -6 14 7 11 33 -1 7 3 11 8 10 6 -2 21 8 33 22 13 14 19 20 15 14
-13 -20 -16 -68 -5 -81 12 -15 32 -18 24 -4 -6 10 24 25 32 16 3 -3 0 -5 -6
-5 -7 0 -12 -9 -12 -20 0 -18 -3 -19 -21 -10 -17 9 -31 7 -75 -15 -29 -14 -66
-40 -81 -57 -62 -68 -63 -68 -88 -62 -15 4 -25 2 -25 -5 0 -6 8 -8 18 -4 15 6
16 5 2 -11 -14 -18 -12 -18 22 -14 20 2 34 0 32 -4 -3 -4 -14 -8 -24 -8 -14 0
-18 -5 -14 -18 5 -16 5 -16 -9 0 -8 10 -19 18 -26 18 -13 0 -14 -7 -15 -127
l-1 -93 106 0 106 0 -5 32 c-2 18 -11 38 -19 45 -12 9 -14 21 -8 50 11 54 14
158 4 140 -10 -17 -59 -11 -59 8 0 15 63 55 86 55 13 0 18 -15 16 -50 0 -7 6
-27 15 -43 8 -16 13 -38 10 -48 -3 -10 1 -23 9 -30 8 -6 14 -16 14 -22 0 -5
-10 -2 -22 9 -21 19 -21 19 -14 -1 18 -50 19 -75 1 -75 -12 0 -15 -5 -11 -16
3 -9 6 -24 6 -35 0 -17 8 -19 65 -19 l65 0 0 420 0 420 -480 0 -480 0 0 -420z
m760 160 c0 -5 -5 -10 -11 -10 -5 0 -7 5 -4 10 3 6 8 10 11 10 2 0 4 -4 4 -10z
m158 -99 c-13 -16 -31 -34 -41 -40 -27 -18 -17 10 13 34 14 11 27 23 28 27 2
5 8 8 14 8 5 0 -1 -13 -14 -29z m-163 8 c11 -16 1 -19 -13 -3 -7 8 -8 14 -3
14 5 0 13 -5 16 -11z"/>
<path d="M536 611 c-4 -7 -5 -15 -2 -18 9 -9 19 4 14 18 -4 11 -6 11 -12 0z"/>
<path d="M535 530 c-3 -5 -2 -10 4 -10 5 0 13 5 16 10 3 6 2 10 -4 10 -5 0
-13 -4 -16 -10z"/>
<path d="M490 496 c0 -13 9 -34 20 -47 l19 -24 -8 30 c-4 17 -6 35 -4 41 2 6
-3 14 -12 17 -11 5 -15 0 -15 -17z"/>
<path d="M740 440 c0 -5 4 -10 9 -10 6 0 13 5 16 10 3 6 -1 10 -9 10 -9 0 -16
-4 -16 -10z"/>
<path d="M700 410 c-11 -11 -31 -20 -45 -20 -28 0 -32 -17 -11 -46 14 -19 15
-18 43 9 16 15 32 25 35 22 3 -3 11 2 19 12 12 15 12 16 -5 10 -16 -6 -17 -5
-7 7 20 23 -6 29 -29 6z"/>
<path d="M755 420 c-3 -5 -3 -15 1 -21 6 -11 23 6 24 24 0 10 -18 9 -25 -3z"/>
<path d="M655 410 c-3 -5 1 -10 9 -10 9 0 16 5 16 10 0 6 -4 10 -9 10 -6 0
-13 -4 -16 -10z"/>
<path d="M598 365 c-10 -10 4 -55 18 -55 20 0 26 17 14 40 -11 20 -22 25 -32
15z"/>
<path d="M671 321 c-13 -10 -22 -23 -20 -30 3 -7 16 0 34 19 32 33 24 40 -14
11z"/>
<path d="M615 290 c-3 -5 1 -10 9 -10 9 0 16 5 16 10 0 6 -4 10 -9 10 -6 0
-13 -4 -16 -10z"/>
<path d="M541 253 c-1 -6 -4 -18 -7 -27 -4 -11 -1 -16 10 -16 18 0 19 6 6 35
-5 11 -9 15 -9 8z"/>
</g>
</svg>
