<?xml version="1.0" standalone="no"?>
<!DOCTYPE svg PUBLIC "-//W3C//DTD SVG 20010904//EN"
 "http://www.w3.org/TR/2001/REC-SVG-20010904/DTD/svg10.dtd">
<svg version="1.0" xmlns="http://www.w3.org/2000/svg"
 width="96.000000pt" height="84.000000pt" viewBox="0 0 96.000000 84.000000"
 preserveAspectRatio="xMidYMid meet">
<metadata>
Created by potrace 1.16, written by Peter Selinger 2001-2019
</metadata>
<g transform="translate(0.000000,84.000000) scale(0.100000,-0.100000)"
fill="#000000" stroke="none">
<path d="M0 490 l0 -351 22 20 c13 12 22 35 23 56 3 40 17 61 34 51 13 -8 8
-85 -9 -158 -8 -32 -8 -53 -1 -66 7 -13 7 -22 -1 -30 -9 -9 45 -12 220 -12
l231 0 6 38 c3 20 10 51 15 68 16 51 12 73 -16 86 -25 12 -36 6 -46 -25 -2 -4
-54 -9 -116 -11 -84 -3 -121 0 -140 10 -15 8 -32 14 -38 14 -20 0 -52 45 -64
88 -13 52 0 102 34 129 17 14 23 30 24 68 2 43 8 55 38 83 19 19 40 35 47 36
22 3 67 43 67 59 0 12 29 73 46 96 2 2 21 7 43 11 40 7 69 -2 84 -27 4 -7 15
-13 22 -13 8 0 15 -7 15 -16 0 -9 5 -34 12 -55 10 -34 13 -37 27 -26 14 10 14
10 5 -3 -21 -28 -25 -67 -8 -74 10 -4 13 -2 8 7 -6 9 -4 9 8 -1 14 -11 19 -9
37 14 12 15 21 31 21 36 0 5 5 6 11 3 5 -4 20 1 31 12 20 18 21 18 8 -3 -7
-11 -22 -25 -34 -30 -11 -5 -28 -23 -36 -40 -8 -17 -20 -29 -26 -27 -12 4 -57
-71 -47 -80 9 -10 43 12 43 28 0 7 4 17 10 20 5 3 7 0 4 -9 -5 -12 1 -12 33 4
24 11 45 31 55 53 14 28 21 34 38 30 16 -4 18 -8 9 -14 -7 -4 -17 -5 -23 -2
-5 3 -6 1 -3 -4 4 -6 -2 -18 -13 -28 -15 -14 -17 -21 -8 -26 7 -4 -3 -10 -25
-14 -47 -9 -111 -64 -102 -87 6 -14 10 -15 28 -5 12 7 24 15 27 19 3 3 19 8
36 11 38 6 100 45 113 72 9 19 10 18 10 -5 2 -47 22 -53 53 -17 26 29 27 29
12 4 -22 -37 -14 -42 19 -12 42 40 45 29 3 -14 -24 -25 -35 -44 -31 -52 5 -7
4 -10 -3 -5 -16 10 -102 -40 -142 -83 -19 -21 -46 -44 -60 -51 -23 -12 -24
-14 -5 -21 11 -4 14 -8 6 -8 -8 -1 -11 -7 -7 -18 6 -15 5 -15 -13 1 -18 17
-19 17 -25 -1 -3 -10 -4 -58 -3 -106 l2 -88 120 3 120 3 -3 35 c-2 19 -8 39
-12 44 -5 5 -6 44 -3 87 4 53 2 83 -6 92 -9 11 -8 17 5 28 14 11 18 10 30 -5
7 -11 11 -23 8 -28 -3 -5 2 -20 11 -34 9 -14 13 -33 10 -44 -4 -12 0 -22 12
-29 10 -5 15 -13 11 -17 -4 -4 -14 -1 -23 6 -13 11 -13 8 -4 -20 9 -24 9 -34
0 -40 -8 -5 -10 -19 -6 -44 7 -35 9 -36 51 -36 l44 0 0 420 0 420 -480 0 -480
0 0 -350z m680 130 c0 -5 -4 -10 -10 -10 -5 0 -10 5 -10 10 0 6 5 10 10 10 6
0 10 -4 10 -10z m198 -230 c-7 -11 -15 -15 -17 -9 -2 6 3 15 10 20 20 12 21
11 7 -11z m-90 -113 c3 -15 -34 -44 -44 -34 -3 2 0 16 6 31 11 29 33 31 38 3z"/>
<path d="M542 580 c0 -14 2 -19 5 -12 2 6 2 18 0 25 -3 6 -5 1 -5 -13z"/>
<path d="M545 501 c-3 -5 -2 -12 3 -15 5 -3 9 1 9 9 0 17 -3 19 -12 6z"/>
<path d="M511 464 c0 -11 3 -14 6 -6 3 7 2 16 -1 19 -3 4 -6 -2 -5 -13z"/>
<path d="M730 420 c-13 -8 -12 -10 3 -10 15 0 16 -2 5 -14 -7 -8 -16 -10 -19
-5 -7 11 -39 1 -39 -12 0 -5 -5 -9 -11 -9 -5 0 -7 5 -3 11 4 7 1 10 -7 7 -8
-3 -13 -11 -11 -17 1 -6 -9 -11 -22 -11 -13 0 -26 -5 -28 -12 -6 -16 2 -58 11
-58 3 0 30 14 59 31 51 29 53 31 35 45 -16 14 -16 14 7 3 17 -8 25 -9 28 -1 2
6 9 9 17 6 20 -8 27 13 13 36 -15 23 -17 23 -38 10z"/>
<path d="M784 419 c-3 -6 -1 -16 5 -22 8 -8 11 -5 11 11 0 24 -5 28 -16 11z"/>
<path d="M673 308 c-13 -6 -23 -19 -23 -30 0 -25 5 -23 30 12 12 17 20 30 18
29 -2 0 -13 -5 -25 -11z"/>
<path d="M613 263 c-3 -10 -8 -21 -10 -25 -2 -4 3 -5 10 -2 17 6 30 44 16 44
-5 0 -12 -8 -16 -17z"/>
<path d="M526 208 c3 -4 12 -8 20 -8 8 0 14 4 14 8 0 4 -9 8 -19 8 -11 0 -17
-4 -15 -8z"/>
<path d="M1 63 c1 -63 2 -65 10 -28 11 56 11 95 -1 95 -6 0 -10 -28 -9 -67z"/>
</g>
</svg>
