<?xml version="1.0" standalone="no"?>
<!DOCTYPE svg PUBLIC "-//W3C//DTD SVG 20010904//EN"
 "http://www.w3.org/TR/2001/REC-SVG-20010904/DTD/svg10.dtd">
<svg version="1.0" xmlns="http://www.w3.org/2000/svg"
 width="96.000000pt" height="84.000000pt" viewBox="0 0 96.000000 84.000000"
 preserveAspectRatio="xMidYMid meet">
<metadata>
Created by potrace 1.16, written by Peter Selinger 2001-2019
</metadata>
<g transform="translate(0.000000,84.000000) scale(0.100000,-0.100000)"
fill="#000000" stroke="none">
<path d="M0 419 l0 -420 32 3 c33 3 33 3 36 66 2 44 -1 62 -9 62 -7 0 -2 11
10 24 15 16 24 39 25 68 2 32 7 44 20 46 10 2 15 10 13 17 -8 20 19 87 42 106
16 13 21 28 21 66 0 45 3 51 44 86 25 20 51 37 58 37 28 0 58 31 58 60 0 16 5
32 11 35 5 4 14 17 19 30 14 38 140 43 140 5 0 -6 6 -10 13 -10 14 0 38 -82
40 -137 1 -18 4 -33 7 -34 3 0 15 -2 28 -5 18 -3 27 3 40 27 9 17 23 38 30 47
11 15 11 15 5 -2 -5 -16 -3 -18 13 -13 10 4 1 -8 -20 -26 -24 -20 -36 -38 -32
-45 4 -7 2 -13 -3 -13 -6 -1 -16 -2 -21 -3 -13 -1 -50 -56 -50 -74 0 -10 5
-10 20 -2 11 6 20 17 20 25 0 7 5 17 12 21 8 5 9 2 5 -9 -6 -15 -1 -15 33 3
22 11 41 25 41 30 1 6 2 15 3 21 2 22 34 35 48 20 11 -12 10 -13 -5 -8 -10 4
-16 3 -12 -3 3 -5 -7 -21 -22 -36 -18 -17 -22 -25 -10 -21 9 4 17 2 17 -3 0
-6 -13 -10 -28 -10 -38 0 -116 -56 -108 -76 3 -9 6 -17 6 -20 0 -2 16 5 35 16
20 11 43 20 53 20 10 0 34 11 55 25 20 14 37 21 37 15 0 -24 20 -8 21 18 1 21
2 22 6 7 3 -11 10 -23 17 -27 8 -6 7 -8 -1 -8 -7 0 -13 -10 -13 -22 0 -20 5
-17 42 22 23 25 36 37 28 28 -15 -21 -8 -23 23 -6 15 7 9 -4 -18 -34 -22 -24
-60 -55 -85 -68 -25 -14 -64 -44 -88 -67 -24 -24 -48 -43 -54 -43 -5 0 -8 -7
-4 -15 3 -8 1 -15 -5 -15 -6 0 -8 -7 -5 -16 5 -14 4 -15 -9 -4 -18 15 -18 16
-19 -92 l-1 -88 143 0 144 0 -7 33 c-4 17 -11 37 -15 42 -9 11 -6 133 4 142 3
4 -1 14 -9 23 -14 15 -14 18 0 30 12 10 18 10 30 0 9 -7 14 -19 11 -26 -3 -7
3 -23 13 -36 14 -17 16 -29 10 -51 -4 -16 -6 -42 -2 -58 3 -16 1 -29 -4 -29
-18 0 1 -65 20 -68 14 -3 17 5 17 49 0 36 -6 59 -17 72 -17 19 -17 20 0 14 16
-6 17 15 17 348 l0 355 -480 0 -480 0 0 -421z m880 -44 c-7 -9 -15 -13 -19
-10 -3 3 1 10 9 15 21 14 24 12 10 -5z m-60 -105 c8 -15 6 -21 -9 -30 -29 -15
-31 -13 -31 20 0 35 23 41 40 10z"/>
<path d="M552 560 c0 -14 2 -19 5 -12 2 6 2 18 0 25 -3 6 -5 1 -5 -13z"/>
<path d="M585 500 c-10 -11 -21 -18 -24 -15 -4 2 -7 -5 -7 -15 0 -23 9 -18 36
20 24 34 22 39 -5 10z"/>
<path d="M748 412 c-10 -2 -18 -7 -18 -12 0 -5 8 -7 18 -4 10 4 13 3 6 -3 -6
-4 -16 -17 -23 -28 -9 -14 -11 -15 -7 -3 7 24 -9 31 -27 13 -18 -17 -31 -20
-22 -5 3 6 1 10 -5 10 -6 0 -13 -7 -16 -15 -4 -8 -14 -15 -24 -15 -10 0 -20
-6 -23 -14 -6 -15 2 -56 10 -56 12 0 83 44 83 52 0 4 9 8 21 8 13 0 18 -4 13
-12 -4 -7 -3 -8 5 -4 6 4 9 12 6 17 -4 5 -1 9 5 9 6 0 9 4 5 9 -3 5 -1 12 5
16 5 3 10 1 10 -6 0 -10 3 -10 11 -2 16 16 -10 50 -33 45z"/>
<path d="M683 297 c-13 -6 -23 -19 -23 -31 0 -19 2 -19 27 6 30 31 29 40 -4
25z"/>
<path d="M620 261 c0 -5 -3 -17 -7 -27 -5 -14 -3 -15 12 -7 22 13 29 43 9 43
-8 0 -14 -4 -14 -9z"/>
<path d="M131 193 c1 -21 -3 -60 -10 -86 -8 -34 -8 -53 -1 -68 6 -11 8 -24 5
-29 -4 -6 69 -10 203 -10 l210 0 6 48 c3 26 8 65 12 88 5 37 4 42 -18 48 -16
4 -28 0 -40 -14 -15 -18 -30 -21 -126 -23 -79 -2 -115 1 -128 10 -10 7 -26 13
-35 13 -9 0 -29 14 -42 30 -14 17 -28 30 -32 30 -3 0 -5 -17 -4 -37z"/>
</g>
</svg>
