<?xml version="1.0" standalone="no"?>
<!DOCTYPE svg PUBLIC "-//W3C//DTD SVG 20010904//EN"
 "http://www.w3.org/TR/2001/REC-SVG-20010904/DTD/svg10.dtd">
<svg version="1.0" xmlns="http://www.w3.org/2000/svg"
 width="96.000000pt" height="84.000000pt" viewBox="0 0 96.000000 84.000000"
 preserveAspectRatio="xMidYMid meet">
<metadata>
Created by potrace 1.16, written by Peter Selinger 2001-2019
</metadata>
<g transform="translate(0.000000,84.000000) scale(0.100000,-0.100000)"
fill="#000000" stroke="none">
<path d="M0 420 l0 -420 44 0 c37 0 45 4 50 23 10 36 7 59 -9 77 -13 14 -13
19 2 40 10 14 18 29 19 35 1 5 5 22 9 36 4 16 2 30 -5 34 -7 4 -8 11 -2 18 5
7 15 34 22 60 8 29 22 54 35 63 19 12 23 24 22 65 0 48 2 53 43 88 24 21 63
43 85 50 36 10 42 16 42 39 0 15 11 45 25 68 24 38 29 41 73 42 35 0 52 -5 68
-21 12 -12 25 -21 29 -20 3 1 9 -21 13 -50 4 -29 12 -58 17 -64 6 -7 8 -22 5
-33 -3 -11 -1 -18 3 -15 20 12 15 -23 -7 -49 -13 -16 -22 -31 -19 -33 7 -8
100 87 120 122 10 17 15 22 12 11 -5 -14 -2 -17 11 -12 10 4 -1 -10 -25 -32
-23 -21 -42 -44 -42 -51 0 -7 -4 -10 -9 -7 -8 6 -51 -52 -51 -68 0 -17 32 -3
40 19 5 14 12 25 14 25 3 0 3 -7 -1 -16 -5 -13 2 -12 36 5 31 16 43 29 48 51
4 21 11 30 24 30 11 0 19 -5 19 -11 0 -5 -5 -7 -10 -4 -5 3 -10 -1 -10 -10 0
-16 -47 -64 -64 -65 -17 0 -76 -51 -76 -66 0 -16 23 -18 49 -5 22 12 128 25
118 14 -4 -4 -20 -8 -35 -9 -15 -1 -37 -2 -49 -3 -13 0 -23 -7 -23 -16 0 -8
-9 -15 -19 -15 -27 0 -33 -13 -21 -44 6 -18 14 -24 25 -20 9 4 14 13 11 20 -3
8 -1 14 4 14 6 0 10 -5 10 -10 0 -7 6 -7 20 0 11 6 20 18 20 28 0 12 2 14 8 4
7 -10 16 -9 43 5 39 19 51 33 44 50 -2 7 0 15 6 19 5 3 7 13 5 22 -3 10 -1 24
4 32 8 12 10 9 10 -11 0 -15 6 -32 14 -38 11 -9 18 -6 35 16 15 20 19 22 15 8
-6 -16 -5 -18 7 -7 31 29 30 9 -2 -24 -30 -32 -31 -36 -11 -29 23 7 24 7 5
-12 -10 -11 -21 -18 -25 -16 -15 8 -111 -48 -160 -92 -48 -43 -78 -59 -61 -32
11 18 13 37 2 37 -4 0 -13 -9 -19 -21 -9 -17 -8 -23 7 -35 10 -7 13 -14 6 -14
-7 0 -10 -7 -7 -15 5 -11 2 -13 -10 -9 -14 6 -16 -4 -14 -80 l3 -86 173 0
c170 0 172 0 172 22 0 12 -7 29 -15 38 -12 13 -13 22 -3 48 10 25 10 37 1 51
-10 15 -10 20 0 24 9 3 9 10 -1 32 -12 25 -11 31 2 41 14 10 16 49 16 298 l0
286 -480 0 -480 0 0 -420z m760 156 c0 -3 -4 -8 -10 -11 -5 -3 -10 -1 -10 4 0
6 5 11 10 11 6 0 10 -2 10 -4z m7 -161 c-4 -8 -13 -15 -22 -15 -13 0 -12 3 3
18 19 21 27 20 19 -3z m101 -167 c8 -8 9 -15 1 -25 -15 -18 -36 -16 -43 3 -12
31 18 46 42 22z"/>
<path d="M827 404 c-4 -4 -7 -14 -7 -23 0 -11 3 -12 11 -4 6 6 10 16 7 23 -2
6 -7 8 -11 4z"/>
<path d="M722 305 c-18 -13 -38 -25 -44 -27 -5 -2 -9 -11 -7 -20 3 -12 15 -6
52 28 53 48 52 57 -1 19z"/>
<path d="M160 164 c0 -16 -4 -45 -10 -64 -5 -19 -7 -50 -4 -67 l6 -33 198 0
198 0 6 48 c14 103 13 117 -10 120 -12 2 -29 -4 -37 -13 -12 -12 -43 -16 -132
-19 -117 -4 -152 4 -200 44 -13 10 -15 8 -15 -16z"/>
</g>
</svg>
