<?xml version="1.0" standalone="no"?>
<!DOCTYPE svg PUBLIC "-//W3C//DTD SVG 20010904//EN"
 "http://www.w3.org/TR/2001/REC-SVG-20010904/DTD/svg10.dtd">
<svg version="1.0" xmlns="http://www.w3.org/2000/svg"
 width="96.000000pt" height="84.000000pt" viewBox="0 0 96.000000 84.000000"
 preserveAspectRatio="xMidYMid meet">
<metadata>
Created by potrace 1.16, written by Peter Selinger 2001-2019
</metadata>
<g transform="translate(0.000000,84.000000) scale(0.100000,-0.100000)"
fill="#000000" stroke="none">
<path d="M0 420 l0 -420 45 0 c38 0 45 3 45 19 0 11 3 26 6 35 3 9 1 16 -4 16
-6 0 -13 -8 -15 -17 -3 -10 -5 -4 -6 14 -1 21 6 39 20 52 22 20 22 36 3 143
-8 47 11 104 42 125 20 13 24 24 24 65 0 53 13 88 34 88 7 0 23 11 36 25 13
14 30 25 39 25 8 0 29 5 47 12 23 8 32 17 32 35 0 13 10 44 23 68 24 44 25 45
76 45 45 0 57 -4 83 -30 33 -32 66 -135 55 -169 -7 -24 14 -39 27 -20 7 10 7
7 3 -8 -7 -26 -3 -28 26 -12 18 9 19 8 7 -10 -7 -11 -14 -18 -16 -16 -10 9
-42 -44 -36 -59 9 -24 24 -19 24 7 0 16 3 18 9 9 7 -12 13 -11 37 1 36 19 66
54 54 62 -19 12 -10 24 15 22 14 -1 24 -7 23 -12 -2 -6 -6 -9 -10 -7 -5 1 -8
-4 -8 -11 0 -16 -51 -67 -67 -67 -23 0 -61 -40 -56 -60 4 -16 9 -18 24 -9 23
12 127 23 116 12 -7 -6 -18 -8 -86 -12 -16 -1 -21 -5 -17 -16 3 -9 0 -15 -9
-15 -17 0 -15 -52 3 -58 7 -2 10 2 6 12 -3 9 -2 16 4 16 6 0 12 -6 15 -12 3
-10 7 -10 20 1 24 19 21 40 -5 51 -20 9 -20 10 -3 7 11 -1 24 -11 29 -22 9
-21 9 -21 57 3 33 15 49 29 49 42 0 10 5 22 11 26 8 4 9 -1 4 -17 -7 -22 -7
-23 11 -9 10 7 33 27 50 42 23 22 31 25 31 12 0 -9 -13 -25 -28 -37 -23 -16
-27 -26 -22 -45 4 -18 2 -23 -6 -18 -16 10 -109 -35 -154 -75 -20 -19 -51 -45
-67 -59 -35 -30 -44 -64 -35 -136 l6 -54 170 0 169 0 0 420 0 420 -480 0 -480
0 0 -420z m430 400 c0 -5 -7 -10 -16 -10 -8 0 -12 5 -9 10 3 6 10 10 16 10 5
0 9 -4 9 -10z m300 -244 c0 -3 -13 -14 -30 -26 -16 -12 -30 -17 -30 -11 0 6
12 17 28 25 31 17 32 18 32 12z m109 -160 c-9 -8 -10 -7 -5 7 3 10 7 24 7 30
1 7 3 4 6 -7 3 -10 -1 -23 -8 -30z m-73 -15 c-4 -6 -15 -11 -24 -10 -11 0 -12
3 -4 6 6 2 12 12 12 21 0 12 3 13 11 5 6 -6 8 -16 5 -22z m166 -176 c3 -4 1
-17 -6 -30 -12 -27 -41 -33 -50 -10 -9 25 38 58 56 40z"/>
<path d="M580 485 c-7 -9 -10 -18 -7 -22 8 -7 37 15 37 28 0 14 -16 11 -30 -6z"/>
<path d="M718 290 c-27 -17 -48 -35 -48 -41 0 -5 -6 -7 -12 -3 -7 4 -10 3 -5
-1 4 -5 -1 -18 -10 -29 -18 -21 -18 -21 3 -3 11 9 25 17 30 17 12 1 111 90 99
90 -6 0 -31 -14 -57 -30z"/>
<path d="M505 134 c-20 -10 -54 -15 -100 -14 -38 0 -79 1 -90 1 -11 0 -35 -1
-53 -3 -19 -3 -37 1 -44 9 -17 21 -35 15 -41 -14 -3 -16 -10 -47 -15 -71 l-9
-42 196 2 196 3 11 67 c14 86 8 93 -51 62z"/>
</g>
</svg>
