<?xml version="1.0" standalone="no"?>
<!DOCTYPE svg PUBLIC "-//W3C//DTD SVG 20010904//EN"
 "http://www.w3.org/TR/2001/REC-SVG-20010904/DTD/svg10.dtd">
<svg version="1.0" xmlns="http://www.w3.org/2000/svg"
 width="96.000000pt" height="84.000000pt" viewBox="0 0 96.000000 84.000000"
 preserveAspectRatio="xMidYMid meet">
<metadata>
Created by potrace 1.16, written by Peter Selinger 2001-2019
</metadata>
<g transform="translate(0.000000,84.000000) scale(0.100000,-0.100000)"
fill="#000000" stroke="none">
<path d="M0 578 c0 -247 1 -261 16 -231 9 18 27 39 40 48 20 13 24 24 24 68 0
54 20 97 44 97 7 0 23 11 36 25 13 14 32 25 42 25 10 0 35 5 56 12 34 10 38
16 39 44 1 19 12 48 28 68 25 33 32 36 77 36 82 0 139 -43 162 -121 13 -42 13
-59 2 -124 l-5 -30 25 28 c13 15 24 24 24 20 0 -5 -5 -14 -12 -21 -9 -9 -9
-12 0 -12 7 0 19 8 27 18 56 69 55 68 48 47 -6 -18 -5 -18 10 -6 11 8 17 9 17
2 0 -6 -12 -17 -27 -25 -41 -22 -107 -93 -94 -101 6 -3 11 -3 12 2 0 4 4 0 7
-9 7 -17 9 -17 39 1 19 12 34 31 37 48 6 24 12 29 34 27 39 -2 39 -2 14 -20
-12 -8 -20 -20 -17 -25 4 -5 0 -9 -8 -9 -8 0 -20 -6 -26 -14 -10 -12 -8 -15
11 -19 13 -2 8 -4 -13 -4 -46 0 -59 -8 -59 -39 0 -34 39 -32 79 5 17 16 33 26
35 22 7 -11 -6 -25 -34 -39 -25 -11 -25 -11 5 -6 23 4 26 3 15 -5 -8 -6 -25
-11 -37 -11 -26 0 -31 -18 -7 -27 9 -3 20 0 25 8 6 9 9 10 9 2 0 -6 -4 -15
-10 -18 -19 -12 -11 -26 9 -15 11 5 26 10 33 9 9 0 9 -2 -2 -7 -43 -21 -90
-56 -90 -68 0 -19 14 -18 31 2 8 9 31 28 52 41 21 13 35 27 33 32 -3 4 5 14
19 21 16 9 26 25 30 51 4 22 10 39 15 39 13 0 19 -39 6 -43 -6 -2 -8 -8 -4
-12 4 -4 18 3 31 16 13 13 35 30 47 38 20 11 19 7 -9 -28 -18 -22 -30 -41 -27
-41 4 0 -1 -11 -10 -25 -9 -14 -22 -24 -28 -23 -20 4 -108 -41 -150 -77 -118
-102 -111 -89 -108 -177 l2 -48 195 0 195 0 0 420 0 420 -480 0 -480 0 0 -262z"/>
<path d="M626 298 c9 -32 12 -34 30 -16 19 19 11 38 -17 38 -16 0 -19 -4 -13
-22z"/>
<path d="M1 122 c-1 -122 -1 -123 22 -120 17 2 21 9 19 28 -2 20 3 28 28 37
27 10 31 16 25 35 -4 13 -21 36 -38 51 -18 15 -37 42 -44 60 -10 28 -12 15
-12 -91z"/>
<path d="M470 111 c0 -12 -138 -20 -190 -11 -69 13 -96 -6 -92 -62 1 -10 -3
-18 -8 -18 -6 0 -10 -4 -10 -10 0 -6 61 -10 164 -10 l164 0 7 42 c3 24 9 51
11 61 4 13 -1 17 -20 17 -14 0 -26 -4 -26 -9z"/>
</g>
</svg>
