<?xml version="1.0" standalone="no"?>
<!DOCTYPE svg PUBLIC "-//W3C//DTD SVG 20010904//EN"
 "http://www.w3.org/TR/2001/REC-SVG-20010904/DTD/svg10.dtd">
<svg version="1.0" xmlns="http://www.w3.org/2000/svg"
 width="96.000000pt" height="84.000000pt" viewBox="0 0 96.000000 84.000000"
 preserveAspectRatio="xMidYMid meet">
<metadata>
Created by potrace 1.16, written by Peter Selinger 2001-2019
</metadata>
<g transform="translate(0.000000,84.000000) scale(0.100000,-0.100000)"
fill="#000000" stroke="none">
<path d="M0 751 l0 -89 62 5 c73 5 75 5 83 42 3 16 20 47 37 70 l30 42 62 -7
c33 -4 72 -15 86 -24 14 -10 35 -21 48 -24 12 -4 22 -12 22 -17 0 -5 6 -9 13
-9 18 0 37 -92 32 -160 -3 -33 -2 -60 1 -60 3 0 27 17 52 37 26 20 41 31 34
23 -10 -12 -8 -16 10 -27 23 -12 22 -12 -8 -13 -21 0 -40 -10 -62 -33 -30 -31
-31 -34 -16 -55 12 -18 19 -20 35 -12 10 6 19 18 19 28 0 23 17 48 26 39 4 -3
3 -12 -2 -20 -5 -7 -1 -4 9 6 10 11 20 17 24 13 4 -3 -9 -22 -27 -41 l-34 -35
32 -11 c29 -10 44 -29 25 -29 -5 0 -19 -9 -33 -20 -21 -17 -22 -19 -5 -15 16
5 16 3 -2 -6 -23 -12 -32 -49 -12 -49 6 0 8 -7 5 -17 -6 -16 -6 -16 12 0 10 9
27 17 38 17 24 0 84 36 84 51 0 11 25 39 35 39 3 0 3 -4 0 -10 -9 -14 8 -13
23 2 9 9 15 9 24 0 9 -9 5 -19 -20 -43 -17 -17 -30 -34 -28 -38 3 -4 -29 -20
-71 -36 -65 -25 -80 -35 -110 -77 -19 -26 -40 -48 -46 -48 -7 0 -24 -10 -40
-23 -25 -20 -27 -26 -21 -69 l7 -48 263 0 264 0 0 420 0 420 -480 0 -480 0 0
-89z"/>
<path d="M524 422 c-7 -5 -6 -14 1 -28 8 -17 15 -19 33 -13 12 5 22 10 22 13
0 10 -48 34 -56 28z"/>
<path d="M557 264 c-35 -32 -28 -44 9 -15 15 11 33 21 40 21 7 0 16 5 19 10
13 21 -42 9 -68 -16z"/>
<path d="M41 90 c-8 -4 -20 -6 -28 -3 -10 4 -13 -7 -13 -41 0 -42 2 -46 25
-46 22 0 25 3 19 24 -3 13 0 34 6 46 13 25 10 32 -9 20z"/>
<path d="M216 81 c-30 -6 -46 -33 -38 -63 4 -15 16 -18 82 -18 l77 0 11 39 c7
21 12 40 12 42 0 7 -113 6 -144 0z"/>
</g>
</svg>
