<?xml version="1.0" standalone="no"?>
<!DOCTYPE svg PUBLIC "-//W3C//DTD SVG 20010904//EN"
 "http://www.w3.org/TR/2001/REC-SVG-20010904/DTD/svg10.dtd">
<svg version="1.0" xmlns="http://www.w3.org/2000/svg"
 width="96.000000pt" height="84.000000pt" viewBox="0 0 96.000000 84.000000"
 preserveAspectRatio="xMidYMid meet">
<metadata>
Created by potrace 1.16, written by Peter Selinger 2001-2019
</metadata>
<g transform="translate(0.000000,84.000000) scale(0.100000,-0.100000)"
fill="#000000" stroke="none">
<path d="M181 833 c13 -3 15 -13 11 -48 -3 -28 -1 -45 6 -45 6 0 8 -26 5 -72
l-5 -73 36 34 c20 19 36 30 36 25 0 -6 -5 -15 -12 -22 -9 -9 -8 -12 6 -12 27
0 10 -17 -25 -24 l-32 -6 27 -21 c15 -12 30 -19 33 -15 3 3 19 -21 36 -55 26
-53 28 -64 19 -99 -12 -47 -1 -51 33 -14 14 15 25 23 25 18 0 -5 4 -3 9 5 12
18 32 5 24 -16 -5 -13 -2 -15 13 -10 12 5 9 0 -8 -14 -16 -11 -28 -26 -28 -33
0 -7 -18 -18 -40 -25 l-39 -12 2 -50 c1 -31 -3 -53 -11 -58 -17 -10 -17 -52
-2 -128 l12 -63 324 0 324 0 0 420 0 420 -397 -1 c-219 -1 -391 -3 -382 -6z
m569 -54 c0 -5 -4 -9 -10 -9 -5 0 -10 7 -10 16 0 8 5 12 10 9 6 -3 10 -10 10
-16z m95 -419 c3 -5 1 -10 -4 -10 -6 0 -11 5 -11 10 0 6 2 10 4 10 3 0 8 -4
11 -10z m100 0 c-3 -5 -12 -10 -18 -10 -7 0 -6 4 3 10 19 12 23 12 15 0z m-45
-145 c0 -8 -7 -15 -15 -15 -26 0 -18 20 13 29 1 1 2 -6 2 -14z"/>
</g>
</svg>
