<?xml version="1.0" standalone="no"?>
<!DOCTYPE svg PUBLIC "-//W3C//DTD SVG 20010904//EN"
 "http://www.w3.org/TR/2001/REC-SVG-20010904/DTD/svg10.dtd">
<svg version="1.0" xmlns="http://www.w3.org/2000/svg"
 width="96.000000pt" height="84.000000pt" viewBox="0 0 96.000000 84.000000"
 preserveAspectRatio="xMidYMid meet">
<metadata>
Created by potrace 1.16, written by Peter Selinger 2001-2019
</metadata>
<g transform="translate(0.000000,84.000000) scale(0.100000,-0.100000)"
fill="#000000" stroke="none">
<path d="M0 746 c0 -99 6 -130 22 -120 6 4 5 -3 -1 -15 -9 -16 -9 -21 0 -21 8
0 9 -4 0 -13 -6 -8 -8 -17 -4 -20 3 -4 2 -7 -4 -7 -7 0 -11 -39 -12 -102 l-2
-103 30 29 c17 16 37 44 46 63 16 34 16 36 -7 60 -12 13 -22 33 -20 44 2 10
-2 19 -8 19 -6 0 -8 4 -5 10 3 5 18 7 33 4 25 -5 28 -2 41 40 7 26 26 60 42
77 27 29 31 30 101 27 67 -3 76 -6 106 -35 40 -40 52 -70 52 -129 0 -25 5 -54
11 -65 8 -16 7 -23 -4 -32 -19 -15 -30 -68 -18 -86 10 -16 3 -44 -9 -36 -4 3
-10 -10 -14 -27 -4 -21 -2 -34 6 -40 7 -4 13 -15 14 -25 1 -32 16 -93 25 -98
5 -3 6 -19 3 -34 -4 -17 -1 -32 5 -36 7 -4 9 -19 5 -41 l-6 -34 62 0 c61 0 62
1 47 18 -27 30 -20 63 24 111 32 34 43 41 50 30 13 -21 11 -86 -5 -124 l-15
-35 185 0 184 0 0 420 0 420 -480 0 -480 0 0 -94z m490 -246 c0 -5 -2 -10 -4
-10 -3 0 -8 5 -11 10 -3 6 -1 10 4 10 6 0 11 -4 11 -10z"/>
<path d="M0 170 c0 -148 2 -170 16 -170 10 0 15 8 13 23 -1 12 1 38 6 57 5 19
9 42 11 50 1 8 8 33 16 55 8 22 13 45 11 52 -2 7 5 18 16 25 27 16 27 28 1 28
-11 0 -30 11 -42 25 -44 51 -48 38 -48 -145z"/>
</g>
</svg>
