<?xml version="1.0" standalone="no"?>
<!DOCTYPE svg PUBLIC "-//W3C//DTD SVG 20010904//EN"
 "http://www.w3.org/TR/2001/REC-SVG-20010904/DTD/svg10.dtd">
<svg version="1.0" xmlns="http://www.w3.org/2000/svg"
 width="96.000000pt" height="84.000000pt" viewBox="0 0 96.000000 84.000000"
 preserveAspectRatio="xMidYMid meet">
<metadata>
Created by potrace 1.16, written by Peter Selinger 2001-2019
</metadata>
<g transform="translate(0.000000,84.000000) scale(0.100000,-0.100000)"
fill="#000000" stroke="none">
<path d="M387 803 c-4 -3 -7 -28 -7 -55 0 -36 4 -48 15 -48 12 0 13 -4 3 -25
-9 -21 -8 -27 5 -38 23 -17 26 -91 4 -115 -9 -10 -20 -33 -23 -50 -4 -18 -10
-32 -15 -32 -5 0 -9 -15 -9 -32 0 -18 -13 -64 -28 -102 -26 -63 -28 -73 -18
-130 5 -33 9 -87 9 -118 l0 -58 148 0 149 0 -25 65 c-45 120 -72 264 -57 305
7 18 10 4 15 -61 8 -104 27 -169 67 -233 36 -57 57 -52 45 11 -4 21 -8 61 -9
88 -1 28 -7 66 -13 85 -6 19 -14 63 -18 98 -3 34 -13 81 -21 104 -12 35 -26
126 -25 163 0 21 7 43 17 56 6 8 16 29 23 48 17 52 1 65 -71 57 -45 -5 -63 -3
-80 8 -23 16 -69 21 -81 9z"/>
</g>
</svg>
