<?xml version="1.0" standalone="no"?>
<!DOCTYPE svg PUBLIC "-//W3C//DTD SVG 20010904//EN"
 "http://www.w3.org/TR/2001/REC-SVG-20010904/DTD/svg10.dtd">
<svg version="1.0" xmlns="http://www.w3.org/2000/svg"
 width="96.000000pt" height="84.000000pt" viewBox="0 0 96.000000 84.000000"
 preserveAspectRatio="xMidYMid meet">
<metadata>
Created by potrace 1.16, written by Peter Selinger 2001-2019
</metadata>
<g transform="translate(0.000000,84.000000) scale(0.100000,-0.100000)"
fill="#000000" stroke="none">
<path d="M0 420 c0 -405 1 -420 19 -420 21 0 36 40 26 70 -3 10 -1 21 5 25 5
3 10 24 10 46 0 21 4 39 9 39 11 0 26 57 22 79 -2 8 4 20 13 26 14 10 12 14
-12 25 -15 8 -30 13 -34 12 -4 -1 1 13 12 31 10 17 25 56 34 84 l15 53 -28 16
c-22 13 -26 22 -23 45 2 16 9 29 16 28 30 -4 36 3 36 37 0 46 26 101 57 121
18 12 40 14 93 11 110 -8 147 -43 161 -156 4 -37 11 -77 15 -89 4 -14 2 -23
-5 -23 -15 0 -13 -44 8 -122 11 -44 13 -64 5 -57 -18 15 -43 0 -40 -24 8 -58
19 -97 28 -97 6 0 8 -12 5 -30 -4 -16 -2 -32 4 -36 6 -3 9 -18 6 -33 -3 -14
-3 -38 0 -53 l5 -28 249 0 249 0 0 420 0 420 -480 0 -480 0 0 -420z"/>
</g>
</svg>
