<?xml version="1.0" standalone="no"?>
<!DOCTYPE svg PUBLIC "-//W3C//DTD SVG 20010904//EN"
 "http://www.w3.org/TR/2001/REC-SVG-20010904/DTD/svg10.dtd">
<svg version="1.0" xmlns="http://www.w3.org/2000/svg"
 width="96.000000pt" height="84.000000pt" viewBox="0 0 96.000000 84.000000"
 preserveAspectRatio="xMidYMid meet">
<metadata>
Created by potrace 1.16, written by Peter Selinger 2001-2019
</metadata>
<g transform="translate(0.000000,84.000000) scale(0.100000,-0.100000)"
fill="#000000" stroke="none">
<path d="M0 420 c0 -239 4 -420 9 -420 13 0 22 46 15 74 -3 13 -1 27 5 30 6 4
11 19 11 34 0 15 7 46 15 70 9 24 13 47 10 52 -3 5 4 22 15 38 15 21 19 36 15
55 -4 15 -11 27 -16 27 -12 0 -12 43 0 55 4 6 11 24 14 41 5 28 3 33 -23 44
-24 10 -39 34 -40 61 0 4 14 9 30 13 22 4 30 11 30 27 0 44 24 101 53 125 26
22 37 24 101 22 65 -2 74 -5 108 -36 42 -39 60 -82 57 -139 -1 -21 3 -49 8
-63 7 -16 7 -30 0 -41 -13 -20 5 -68 41 -110 17 -21 20 -29 9 -29 -8 0 -20 -7
-27 -15 -7 -8 -29 -16 -49 -16 -20 -1 -28 -3 -18 -6 9 -2 18 -10 18 -16 5 -46
20 -97 30 -97 5 0 9 -13 9 -30 0 -16 5 -30 10 -30 6 0 8 -11 4 -25 -4 -15 1
-44 11 -70 l17 -45 244 0 244 0 0 124 c0 110 -2 125 -17 129 -17 4 -17 5 0 6
16 1 17 22 17 291 l0 290 -480 0 -480 0 0 -420z"/>
</g>
</svg>
