<?xml version="1.0" standalone="no"?>
<!DOCTYPE svg PUBLIC "-//W3C//DTD SVG 20010904//EN"
 "http://www.w3.org/TR/2001/REC-SVG-20010904/DTD/svg10.dtd">
<svg version="1.0" xmlns="http://www.w3.org/2000/svg"
 width="96.000000pt" height="84.000000pt" viewBox="0 0 96.000000 84.000000"
 preserveAspectRatio="xMidYMid meet">
<metadata>
Created by potrace 1.16, written by Peter Selinger 2001-2019
</metadata>
<g transform="translate(0.000000,84.000000) scale(0.100000,-0.100000)"
fill="#000000" stroke="none">
<path d="M0 725 c0 -103 2 -115 18 -115 9 0 22 4 28 8 14 10 35 106 23 110 -5
2 -7 8 -4 12 3 5 12 7 20 3 8 -3 15 0 15 6 0 19 61 43 99 38 25 -3 44 2 63 15
l27 19 7 -25 c3 -14 23 -43 44 -65 40 -41 58 -100 45 -141 -4 -12 -1 -35 6
-52 10 -24 10 -31 0 -37 -17 -11 1 -76 33 -124 16 -23 19 -34 10 -30 -8 3 -23
-2 -34 -12 -16 -14 -24 -15 -51 -6 -18 6 -37 11 -43 10 -6 0 5 -6 24 -13 21
-8 36 -21 38 -32 5 -32 24 -74 33 -74 5 0 9 -11 9 -24 0 -14 5 -28 10 -31 6
-3 10 -20 10 -36 0 -16 11 -52 25 -79 l25 -50 240 0 240 0 0 420 0 420 -480 0
-480 0 0 -115z"/>
<path d="M0 323 c0 -215 3 -260 14 -183 2 19 9 51 15 70 6 19 9 42 6 51 -6 17
15 39 59 61 22 12 25 16 13 21 -10 4 -20 -1 -26 -11 -8 -13 -10 -9 -11 21 0
24 -4 36 -12 35 -15 -3 -20 50 -7 58 5 3 9 22 9 43 0 31 -5 40 -25 49 -14 7
-28 12 -30 12 -3 0 -5 -102 -5 -227z"/>
</g>
</svg>
