<?xml version="1.0" standalone="no"?>
<!DOCTYPE svg PUBLIC "-//W3C//DTD SVG 20010904//EN"
 "http://www.w3.org/TR/2001/REC-SVG-20010904/DTD/svg10.dtd">
<svg version="1.0" xmlns="http://www.w3.org/2000/svg"
 width="96.000000pt" height="84.000000pt" viewBox="0 0 96.000000 84.000000"
 preserveAspectRatio="xMidYMid meet">
<metadata>
Created by potrace 1.16, written by Peter Selinger 2001-2019
</metadata>
<g transform="translate(0.000000,84.000000) scale(0.100000,-0.100000)"
fill="#000000" stroke="none">
<path d="M0 730 c0 -60 2 -110 4 -110 22 0 36 17 36 41 0 37 34 105 59 119 11
5 37 10 59 10 28 0 45 7 62 25 l23 25 -121 0 -122 0 0 -110z"/>
<path d="M266 813 c4 -16 23 -46 44 -68 45 -48 64 -101 55 -154 -4 -23 -2 -48
4 -60 8 -14 8 -22 0 -27 -14 -8 -3 -114 17 -162 18 -43 18 -51 1 -27 -13 17
-14 17 -29 -4 -14 -20 -14 -26 -2 -51 8 -15 21 -31 29 -34 9 -3 12 -12 9 -21
-4 -9 1 -21 11 -29 10 -7 16 -19 13 -27 -3 -8 10 -44 29 -81 l33 -68 240 0
240 0 0 420 0 420 -350 0 -350 0 6 -27z"/>
<path d="M2 362 c1 -97 4 -154 5 -127 4 49 6 52 49 75 l45 25 -33 7 c-18 4
-39 5 -47 2 -14 -5 -14 -4 6 142 4 32 2 42 -11 47 -14 6 -16 -12 -14 -171z"/>
<path d="M338 35 c-2 -19 0 -35 4 -35 4 0 8 16 8 35 0 19 -2 35 -4 35 -2 0 -6
-16 -8 -35z"/>
</g>
</svg>
