<?xml version="1.0" standalone="no"?>
<!DOCTYPE svg PUBLIC "-//W3C//DTD SVG 20010904//EN"
 "http://www.w3.org/TR/2001/REC-SVG-20010904/DTD/svg10.dtd">
<svg version="1.0" xmlns="http://www.w3.org/2000/svg"
 width="96.000000pt" height="84.000000pt" viewBox="0 0 96.000000 84.000000"
 preserveAspectRatio="xMidYMid meet">
<metadata>
Created by potrace 1.16, written by Peter Selinger 2001-2019
</metadata>
<g transform="translate(0.000000,84.000000) scale(0.100000,-0.100000)"
fill="#000000" stroke="none">
<path d="M0 715 c0 -79 4 -125 10 -125 6 0 12 6 14 13 2 6 9 32 16 56 14 54
59 101 95 101 17 0 36 12 56 35 17 19 35 35 39 35 4 0 13 -19 18 -43 8 -30 19
-48 37 -57 14 -8 36 -30 48 -49 20 -33 22 -49 23 -206 0 -93 4 -181 9 -195 7
-24 7 -24 -8 -5 -16 20 -16 20 -12 -2 5 -30 24 -63 35 -63 6 0 10 -9 10 -20 0
-11 7 -23 15 -26 8 -4 15 -17 15 -31 0 -14 8 -37 18 -51 10 -15 24 -39 32 -55
l13 -27 239 0 238 0 0 420 0 420 -480 0 -480 0 0 -125z"/>
<path d="M0 473 c0 -42 7 -40 20 6 7 24 6 31 -6 31 -10 0 -14 -12 -14 -37z"/>
<path d="M0 279 c0 -36 2 -40 13 -27 6 9 28 26 47 37 l35 21 -32 0 c-17 0 -38
3 -47 6 -13 5 -16 -2 -16 -37z"/>
<path d="M3 195 c0 -22 2 -30 4 -17 2 12 2 30 0 40 -3 9 -5 -1 -4 -23z"/>
<path d="M341 30 c0 -33 1 -34 11 -12 8 17 8 26 0 34 -9 9 -12 4 -11 -22z"/>
</g>
</svg>
