<?xml version="1.0" standalone="no"?>
<!DOCTYPE svg PUBLIC "-//W3C//DTD SVG 20010904//EN"
 "http://www.w3.org/TR/2001/REC-SVG-20010904/DTD/svg10.dtd">
<svg version="1.0" xmlns="http://www.w3.org/2000/svg"
 width="96.000000pt" height="84.000000pt" viewBox="0 0 96.000000 84.000000"
 preserveAspectRatio="xMidYMid meet">
<metadata>
Created by potrace 1.16, written by Peter Selinger 2001-2019
</metadata>
<g transform="translate(0.000000,84.000000) scale(0.100000,-0.100000)"
fill="#000000" stroke="none">
<path d="M0 715 c0 -69 2 -125 4 -125 3 0 16 4 29 9 20 8 25 18 30 56 5 47 30
92 58 105 56 26 74 38 87 58 l14 22 -111 0 -111 0 0 -125z"/>
<path d="M250 830 c0 -24 26 -62 56 -79 18 -11 42 -38 54 -60 18 -36 20 -53
15 -147 -3 -66 -1 -113 6 -126 8 -15 7 -28 -6 -54 -10 -21 -13 -42 -9 -52 4
-9 9 -21 10 -27 4 -26 27 -75 35 -75 5 0 9 -11 9 -24 0 -13 6 -26 14 -29 8 -3
12 -15 9 -30 -3 -14 6 -45 21 -76 l26 -51 235 0 235 0 0 420 0 420 -355 0
c-218 0 -355 -4 -355 -10z"/>
<path d="M0 470 c0 -39 2 -70 5 -70 8 0 45 82 45 101 0 9 -11 21 -25 27 l-25
12 0 -70z"/>
<path d="M0 182 c0 -108 4 -182 9 -182 6 0 10 26 10 58 0 31 3 71 6 87 3 17 8
54 12 82 5 51 7 53 54 75 26 13 48 26 49 30 0 12 -34 14 -67 4 -27 -7 -37 -6
-53 9 -20 18 -20 18 -20 -163z"/>
<path d="M112 20 c0 -14 2 -19 5 -12 2 6 2 18 0 25 -3 6 -5 1 -5 -13z"/>
</g>
</svg>
