<?xml version="1.0" standalone="no"?>
<!DOCTYPE svg PUBLIC "-//W3C//DTD SVG 20010904//EN"
 "http://www.w3.org/TR/2001/REC-SVG-20010904/DTD/svg10.dtd">
<svg version="1.0" xmlns="http://www.w3.org/2000/svg"
 width="96.000000pt" height="84.000000pt" viewBox="0 0 96.000000 84.000000"
 preserveAspectRatio="xMidYMid meet">
<metadata>
Created by potrace 1.16, written by Peter Selinger 2001-2019
</metadata>
<g transform="translate(0.000000,84.000000) scale(0.100000,-0.100000)"
fill="#000000" stroke="none">
<path d="M0 420 c0 -410 0 -420 20 -420 19 0 28 26 29 85 1 43 8 92 20 133 6
23 9 47 6 52 -9 14 28 46 69 61 36 13 48 29 21 29 -8 0 -26 -5 -40 -12 -19 -9
-31 -8 -49 2 -13 7 -29 9 -35 6 -5 -4 1 17 14 47 14 29 27 66 31 83 5 25 1 31
-28 47 -44 23 -46 57 -5 77 24 13 31 23 34 54 7 68 38 111 89 125 15 4 34 17
42 29 l14 22 -116 0 -116 0 0 -420z"/>
<path d="M275 810 c9 -16 22 -30 29 -30 20 0 65 -38 81 -71 25 -47 34 -366 12
-382 -8 -6 -5 -7 6 -3 14 5 18 1 16 -17 -3 -34 12 -88 26 -93 7 -3 10 -16 7
-31 -3 -17 1 -29 11 -35 12 -6 14 -15 8 -30 -5 -14 -1 -38 10 -67 l17 -46 231
-3 231 -2 0 419 0 420 -350 1 -351 0 16 -30z"/>
<path d="M140 33 c0 -18 5 -33 10 -33 13 0 13 30 0 50 -7 11 -10 7 -10 -17z"/>
</g>
</svg>
