<?xml version="1.0" standalone="no"?>
<!DOCTYPE svg PUBLIC "-//W3C//DTD SVG 20010904//EN"
 "http://www.w3.org/TR/2001/REC-SVG-20010904/DTD/svg10.dtd">
<svg version="1.0" xmlns="http://www.w3.org/2000/svg"
 width="96.000000pt" height="84.000000pt" viewBox="0 0 96.000000 84.000000"
 preserveAspectRatio="xMidYMid meet">
<metadata>
Created by potrace 1.16, written by Peter Selinger 2001-2019
</metadata>
<g transform="translate(0.000000,84.000000) scale(0.100000,-0.100000)"
fill="#000000" stroke="none">
<path d="M0 420 l0 -420 39 0 c36 0 40 3 46 30 4 18 2 36 -4 44 -6 7 -8 16 -5
19 3 3 8 25 10 49 9 110 17 149 36 162 16 12 17 15 3 26 -11 9 -18 10 -29 1
-11 -10 -11 -3 0 46 8 32 14 74 14 93 0 32 -4 37 -35 49 -19 7 -35 18 -35 26
0 7 -3 20 -6 29 -4 11 0 16 12 16 33 1 51 24 56 74 7 59 34 98 77 110 18 5 41
22 52 38 l20 28 -125 0 -126 0 0 -420z"/>
<path d="M273 814 c7 -14 31 -35 52 -47 54 -30 85 -79 85 -133 0 -56 8 -74 28
-66 15 5 15 4 0 -12 -10 -9 -18 -23 -18 -29 1 -15 35 -155 45 -182 5 -14 4
-16 -3 -7 -8 11 -13 12 -30 1 -17 -11 -19 -16 -9 -27 6 -8 12 -20 13 -26 3
-33 18 -78 29 -82 6 -3 10 -17 7 -32 -2 -18 2 -33 12 -41 11 -10 13 -17 6 -26
-7 -8 -5 -27 6 -58 l16 -47 224 0 224 0 0 420 0 420 -350 0 -351 0 14 -26z"/>
</g>
</svg>
