<?xml version="1.0" standalone="no"?>
<!DOCTYPE svg PUBLIC "-//W3C//DTD SVG 20010904//EN"
 "http://www.w3.org/TR/2001/REC-SVG-20010904/DTD/svg10.dtd">
<svg version="1.0" xmlns="http://www.w3.org/2000/svg"
 width="96.000000pt" height="84.000000pt" viewBox="0 0 96.000000 84.000000"
 preserveAspectRatio="xMidYMid meet">
<metadata>
Created by potrace 1.16, written by Peter Selinger 2001-2019
</metadata>
<g transform="translate(0.000000,84.000000) scale(0.100000,-0.100000)"
fill="#000000" stroke="none">
<path d="M0 420 l0 -420 59 0 59 0 0 78 c0 104 11 183 29 204 19 21 -1 35 -24
17 -14 -12 -15 -10 -10 16 14 72 19 178 8 171 -18 -11 -61 24 -61 50 0 13 3
23 8 22 4 -1 17 3 28 10 16 8 23 24 26 62 6 60 32 100 74 113 16 6 32 15 36
21 4 6 13 20 21 30 14 19 15 19 31 -11 10 -20 26 -34 44 -38 57 -12 105 -85
100 -154 -1 -21 2 -43 7 -51 5 -8 8 -27 7 -41 -4 -31 33 -132 53 -149 8 -7 15
-17 15 -22 0 -6 -7 -5 -16 3 -13 10 -17 10 -24 -1 -5 -9 -20 -11 -44 -7 -43 7
-45 2 -8 -17 23 -12 31 -26 42 -70 7 -31 18 -56 23 -56 5 0 7 -12 4 -26 -3
-17 2 -33 13 -44 12 -12 15 -21 8 -28 -7 -7 -6 -22 2 -46 l12 -36 219 0 219 0
0 420 0 420 -480 0 -480 0 0 -420z"/>
</g>
</svg>
