<?xml version="1.0" standalone="no"?>
<!DOCTYPE svg PUBLIC "-//W3C//DTD SVG 20010904//EN"
 "http://www.w3.org/TR/2001/REC-SVG-20010904/DTD/svg10.dtd">
<svg version="1.0" xmlns="http://www.w3.org/2000/svg"
 width="96.000000pt" height="84.000000pt" viewBox="0 0 96.000000 84.000000"
 preserveAspectRatio="xMidYMid meet">
<metadata>
Created by potrace 1.16, written by Peter Selinger 2001-2019
</metadata>
<g transform="translate(0.000000,84.000000) scale(0.100000,-0.100000)"
fill="#000000" stroke="none">
<path d="M0 420 l0 -420 69 0 c65 0 69 1 73 25 3 14 2 28 -3 31 -14 8 4 182
24 222 14 29 -8 48 -32 29 -12 -10 -13 -8 -8 13 4 14 10 55 13 91 l7 66 -31
12 c-26 11 -53 48 -40 54 48 25 62 36 60 47 -2 7 2 35 8 62 13 50 56 98 89 98
10 0 24 11 31 25 7 14 17 25 21 25 3 0 14 -11 23 -25 9 -14 25 -25 36 -25 28
0 87 -55 99 -93 6 -18 11 -50 10 -72 -2 -102 29 -255 51 -255 6 0 10 -5 10
-12 0 -9 -3 -9 -12 0 -8 8 -17 8 -30 1 -10 -5 -23 -7 -28 -4 -6 3 -10 2 -10
-2 0 -5 9 -14 20 -21 11 -7 20 -20 20 -30 0 -30 21 -93 29 -88 4 3 5 -8 3 -25
-3 -19 2 -37 12 -48 10 -11 13 -22 8 -25 -7 -4 -6 -19 1 -41 l10 -35 214 0
213 0 0 420 0 420 -480 0 -480 0 0 -420z"/>
</g>
</svg>
