<?xml version="1.0" standalone="no"?>
<!DOCTYPE svg PUBLIC "-//W3C//DTD SVG 20010904//EN"
 "http://www.w3.org/TR/2001/REC-SVG-20010904/DTD/svg10.dtd">
<svg version="1.0" xmlns="http://www.w3.org/2000/svg"
 width="96.000000pt" height="84.000000pt" viewBox="0 0 96.000000 84.000000"
 preserveAspectRatio="xMidYMid meet">
<metadata>
Created by potrace 1.16, written by Peter Selinger 2001-2019
</metadata>
<g transform="translate(0.000000,84.000000) scale(0.100000,-0.100000)"
fill="#000000" stroke="none">
<path d="M387 803 c-2 -4 -8 -27 -11 -49 -5 -30 -3 -45 7 -56 11 -10 12 -19 5
-32 -6 -11 -6 -21 0 -29 5 -7 12 -35 16 -63 5 -39 3 -54 -9 -64 -8 -6 -17 -27
-21 -46 -3 -19 -10 -34 -14 -34 -4 0 -10 -17 -12 -38 -3 -20 -17 -67 -31 -102
-25 -62 -26 -69 -16 -145 6 -44 11 -95 11 -112 l-1 -33 149 0 149 0 -30 71
c-16 40 -29 79 -28 88 0 9 6 0 13 -19 18 -48 56 -110 67 -110 12 0 2 285 -12
348 -5 24 -17 60 -26 80 -8 21 -19 61 -24 91 -7 48 -4 61 22 119 42 90 39 97
-44 98 -46 1 -73 6 -85 17 -21 19 -68 32 -75 20z m152 -510 l-1 -78 -9 55 c-7
49 -3 100 7 100 2 0 3 -35 3 -77z"/>
</g>
</svg>
