<?xml version="1.0" standalone="no"?>
<!DOCTYPE svg PUBLIC "-//W3C//DTD SVG 20010904//EN"
 "http://www.w3.org/TR/2001/REC-SVG-20010904/DTD/svg10.dtd">
<svg version="1.0" xmlns="http://www.w3.org/2000/svg"
 width="96.000000pt" height="84.000000pt" viewBox="0 0 96.000000 84.000000"
 preserveAspectRatio="xMidYMid meet">
<metadata>
Created by potrace 1.16, written by Peter Selinger 2001-2019
</metadata>
<g transform="translate(0.000000,84.000000) scale(0.100000,-0.100000)"
fill="#000000" stroke="none">
<path d="M0 420 l0 -420 59 0 c54 0 62 3 79 28 15 22 18 39 14 95 -3 43 0 73
7 80 6 6 11 27 11 46 0 20 4 43 9 51 13 19 -24 47 -43 31 -9 -7 -7 9 5 57 26
97 24 106 -14 120 -45 16 -48 52 -7 71 23 10 30 19 30 41 0 79 44 150 93 150
16 0 31 10 42 27 l18 26 19 -26 c11 -15 28 -27 38 -27 28 0 87 -56 99 -93 6
-18 11 -50 11 -72 -1 -22 1 -67 4 -100 3 -33 7 -82 9 -110 2 -27 7 -59 12 -70
8 -18 7 -18 -8 -7 -9 8 -21 11 -27 7 -8 -5 -4 -12 10 -22 11 -8 20 -20 19 -26
-4 -23 13 -87 23 -87 6 0 7 -11 4 -26 -4 -15 -2 -32 5 -41 7 -8 14 -34 15 -58
1 -23 4 -48 8 -54 5 -7 72 -11 212 -11 l204 0 0 420 0 420 -480 0 -480 0 0
-420z"/>
</g>
</svg>
