<?xml version="1.0" standalone="no"?>
<!DOCTYPE svg PUBLIC "-//W3C//DTD SVG 20010904//EN"
 "http://www.w3.org/TR/2001/REC-SVG-20010904/DTD/svg10.dtd">
<svg version="1.0" xmlns="http://www.w3.org/2000/svg"
 width="96.000000pt" height="84.000000pt" viewBox="0 0 96.000000 84.000000"
 preserveAspectRatio="xMidYMid meet">
<metadata>
Created by potrace 1.16, written by Peter Selinger 2001-2019
</metadata>
<g transform="translate(0.000000,84.000000) scale(0.100000,-0.100000)"
fill="#000000" stroke="none">
<path d="M0 420 l0 -420 54 0 c49 0 56 3 80 35 22 29 27 46 29 110 2 41 9 81
15 87 7 7 12 27 12 44 0 22 7 38 23 50 16 12 17 15 4 10 -10 -3 -27 -1 -38 5
-15 8 -24 7 -36 -3 -14 -11 -15 -11 -6 7 6 11 16 45 23 75 6 30 14 63 17 72 3
13 -6 23 -30 34 -44 21 -47 55 -6 73 24 11 29 19 29 49 1 62 34 120 77 138 52
20 66 28 71 42 3 9 -38 12 -157 12 l-161 0 0 -420z"/>
<path d="M348 824 c5 -10 29 -26 53 -38 58 -28 89 -75 89 -137 0 -26 5 -60 12
-74 10 -21 9 -28 -2 -35 -11 -7 -11 -18 2 -69 9 -38 11 -66 5 -76 -5 -9 -6
-27 -3 -40 5 -19 3 -22 -14 -18 -26 7 -26 -14 0 -22 12 -4 20 -14 19 -23 -3
-21 9 -69 23 -99 6 -11 7 -26 4 -32 -4 -6 -1 -21 5 -33 7 -13 13 -42 15 -64 1
-23 4 -47 8 -53 5 -7 69 -11 202 -11 l194 0 0 420 0 420 -310 0 c-286 0 -310
-1 -302 -16z"/>
</g>
</svg>
