<?xml version="1.0" standalone="no"?>
<!DOCTYPE svg PUBLIC "-//W3C//DTD SVG 20010904//EN"
 "http://www.w3.org/TR/2001/REC-SVG-20010904/DTD/svg10.dtd">
<svg version="1.0" xmlns="http://www.w3.org/2000/svg"
 width="96.000000pt" height="84.000000pt" viewBox="0 0 96.000000 84.000000"
 preserveAspectRatio="xMidYMid meet">
<metadata>
Created by potrace 1.16, written by Peter Selinger 2001-2019
</metadata>
<g transform="translate(0.000000,84.000000) scale(0.100000,-0.100000)"
fill="#000000" stroke="none">
<path d="M0 420 l0 -420 55 0 c53 0 56 1 82 41 15 23 28 53 29 68 5 65 17 115
30 128 8 8 14 24 14 35 0 12 8 30 17 40 15 17 15 18 1 13 -9 -4 -26 -2 -37 4
-13 7 -22 8 -26 1 -3 -5 -11 -10 -17 -10 -7 0 -7 4 0 13 19 23 59 193 43 183
-15 -9 -51 25 -51 48 0 17 7 26 24 30 19 5 24 14 29 55 3 28 13 64 22 80 16
32 61 61 93 61 10 0 24 11 30 25 l12 25 -175 0 -175 0 0 -420z"/>
<path d="M380 830 c0 -14 31 -42 69 -62 40 -22 76 -96 68 -143 -3 -21 0 -41
10 -54 12 -17 12 -25 3 -36 -8 -10 -10 -29 -5 -58 4 -23 9 -55 11 -72 2 -16 7
-43 9 -60 4 -22 3 -27 -6 -18 -9 9 -18 9 -32 2 -19 -11 -19 -11 1 -25 13 -8
22 -30 26 -62 3 -27 10 -52 14 -56 3 -4 8 -24 9 -44 2 -20 4 -50 6 -67 2 -16
5 -40 5 -52 l2 -23 195 0 195 0 0 358 c0 265 -3 361 -12 370 -9 9 -9 12 0 12
8 0 12 18 12 50 l0 50 -290 0 c-187 0 -290 -4 -290 -10z"/>
</g>
</svg>
