<?xml version="1.0" standalone="no"?>
<!DOCTYPE svg PUBLIC "-//W3C//DTD SVG 20010904//EN"
 "http://www.w3.org/TR/2001/REC-SVG-20010904/DTD/svg10.dtd">
<svg version="1.0" xmlns="http://www.w3.org/2000/svg"
 width="96.000000pt" height="84.000000pt" viewBox="0 0 96.000000 84.000000"
 preserveAspectRatio="xMidYMid meet">
<metadata>
Created by potrace 1.16, written by Peter Selinger 2001-2019
</metadata>
<g transform="translate(0.000000,84.000000) scale(0.100000,-0.100000)"
fill="#000000" stroke="none">
<path d="M0 420 l0 -420 55 0 c52 0 56 2 80 37 14 21 25 51 25 68 0 31 17 84
37 120 20 36 20 69 -1 73 -10 2 -23 -2 -28 -10 -7 -9 -8 -7 -3 7 18 48 35 122
35 151 0 23 -6 34 -25 42 -34 16 -36 69 -2 74 16 2 22 10 23 28 4 97 41 156
105 166 21 4 39 9 39 13 0 3 11 20 24 36 l24 30 19 -41 c10 -22 34 -54 54 -72
38 -33 65 -99 54 -132 -3 -10 0 -32 8 -47 10 -19 11 -33 5 -43 -6 -10 -1 -42
19 -100 32 -97 36 -91 -57 -91 -43 0 -44 -1 -19 -12 44 -20 57 -36 57 -71 0
-19 5 -43 11 -54 6 -11 11 -32 11 -48 0 -16 2 -45 4 -64 2 -19 4 -41 5 -47 1
-10 48 -13 201 -13 l200 0 0 420 0 420 -480 0 -480 0 0 -420z"/>
</g>
</svg>
