<?xml version="1.0" standalone="no"?>
<!DOCTYPE svg PUBLIC "-//W3C//DTD SVG 20010904//EN"
 "http://www.w3.org/TR/2001/REC-SVG-20010904/DTD/svg10.dtd">
<svg version="1.0" xmlns="http://www.w3.org/2000/svg"
 width="96.000000pt" height="84.000000pt" viewBox="0 0 96.000000 84.000000"
 preserveAspectRatio="xMidYMid meet">
<metadata>
Created by potrace 1.16, written by Peter Selinger 2001-2019
</metadata>
<g transform="translate(0.000000,84.000000) scale(0.100000,-0.100000)"
fill="#000000" stroke="none">
<path d="M0 420 l0 -420 49 0 c64 0 83 26 83 114 0 33 7 76 14 95 8 18 14 44
14 57 0 12 5 26 10 29 14 8 13 75 -1 75 -7 0 -9 12 -5 35 3 19 9 50 12 69 6
31 4 34 -24 41 -23 5 -31 12 -34 36 -3 18 0 29 7 29 21 0 45 36 45 69 0 69 57
131 121 131 30 0 42 6 59 30 l21 30 -185 0 -186 0 0 -420z"/>
<path d="M402 803 c5 -21 23 -51 38 -68 29 -30 48 -85 49 -140 2 -114 23 -185
69 -238 15 -16 14 -17 -1 -11 -10 3 -24 1 -32 -6 -12 -10 -21 -10 -38 -2 -12
7 -31 10 -42 8 -11 -3 -23 -5 -27 -5 -20 -2 -5 -20 21 -26 38 -8 47 -20 56
-73 4 -24 12 -48 19 -54 7 -6 10 -24 8 -40 -2 -15 1 -35 8 -43 6 -8 9 -19 5
-25 -4 -6 -4 -27 -1 -46 l7 -34 209 0 210 0 0 420 0 420 -284 0 -284 0 10 -37z"/>
<path d="M435 41 c-3 -5 -1 -12 5 -16 5 -3 10 1 10 9 0 18 -6 21 -15 7z"/>
</g>
</svg>
