<?xml version="1.0" standalone="no"?>
<!DOCTYPE svg PUBLIC "-//W3C//DTD SVG 20010904//EN"
 "http://www.w3.org/TR/2001/REC-SVG-20010904/DTD/svg10.dtd">
<svg version="1.0" xmlns="http://www.w3.org/2000/svg"
 width="96.000000pt" height="84.000000pt" viewBox="0 0 96.000000 84.000000"
 preserveAspectRatio="xMidYMid meet">
<metadata>
Created by potrace 1.16, written by Peter Selinger 2001-2019
</metadata>
<g transform="translate(0.000000,84.000000) scale(0.100000,-0.100000)"
fill="#000000" stroke="none">
<path d="M0 420 l0 -420 40 0 c48 0 60 17 60 87 0 82 0 87 12 123 6 19 11 46
10 61 0 15 6 33 14 40 17 14 18 52 3 77 -8 12 -8 36 -2 80 7 46 7 62 -2 62
-20 0 -45 35 -45 63 0 22 5 27 23 27 21 0 25 7 36 55 18 78 55 115 116 115 36
0 54 6 77 25 l30 25 -186 0 -186 0 0 -420z m49 308 c0 -28 -2 -30 -9 -13 -12
28 -12 45 0 45 6 0 10 -15 9 -32z"/>
<path d="M386 813 c3 -16 20 -48 36 -72 24 -34 33 -59 38 -115 4 -39 11 -79
15 -88 5 -13 2 -18 -9 -18 -13 0 -15 -6 -10 -27 10 -51 35 -111 50 -123 7 -7
14 -17 14 -22 0 -6 -6 -5 -15 2 -11 10 -18 9 -30 -3 -13 -14 -18 -14 -45 0
-17 8 -38 12 -48 8 -19 -8 -12 -12 49 -34 22 -8 28 -18 33 -55 4 -25 13 -52
21 -59 7 -8 11 -25 8 -40 -3 -15 0 -34 7 -42 7 -8 9 -22 6 -31 -3 -9 -1 -34 4
-55 l11 -39 219 0 220 0 0 420 0 420 -290 0 -290 0 6 -27z"/>
<path d="M405 45 c-3 -8 -7 -22 -10 -30 -2 -9 2 -15 10 -15 10 0 15 10 15 30
0 32 -8 40 -15 15z"/>
</g>
</svg>
