<?xml version="1.0" standalone="no"?>
<!DOCTYPE svg PUBLIC "-//W3C//DTD SVG 20010904//EN"
 "http://www.w3.org/TR/2001/REC-SVG-20010904/DTD/svg10.dtd">
<svg version="1.0" xmlns="http://www.w3.org/2000/svg"
 width="96.000000pt" height="84.000000pt" viewBox="0 0 96.000000 84.000000"
 preserveAspectRatio="xMidYMid meet">
<metadata>
Created by potrace 1.16, written by Peter Selinger 2001-2019
</metadata>
<g transform="translate(0.000000,84.000000) scale(0.100000,-0.100000)"
fill="#000000" stroke="none">
<path d="M0 420 l0 -420 29 0 c37 0 41 7 47 73 2 28 6 66 7 82 2 17 9 43 16
60 7 16 10 37 8 47 -3 11 6 27 24 42 27 23 40 44 19 31 -5 -3 -18 -1 -28 4
-13 7 -23 6 -32 -2 -10 -10 -12 -8 -6 8 4 11 14 51 22 89 8 37 17 72 20 77 3
5 -6 19 -20 31 -31 27 -26 65 7 70 16 2 23 13 29 42 17 83 74 135 135 123 20
-4 36 2 56 19 34 29 43 25 51 -20 4 -19 13 -40 22 -47 26 -22 38 -52 45 -119
4 -36 11 -75 14 -87 6 -18 3 -23 -10 -23 -16 0 -17 -7 -11 -69 3 -39 11 -82
16 -97 9 -22 8 -25 -3 -16 -19 16 -28 4 -21 -27 17 -75 26 -101 34 -101 5 0
10 17 12 38 3 32 6 37 28 37 l25 0 -2 -133 -2 -132 214 0 215 0 0 420 0 420
-480 0 -480 0 0 -420z m110 248 l-1 -33 -13 25 c-14 25 -13 40 5 40 5 0 9 -15
9 -32z"/>
<path d="M472 145 c0 -16 2 -22 5 -12 2 9 2 23 0 30 -3 6 -5 -1 -5 -18z"/>
<path d="M388 30 c-7 -24 -3 -38 8 -28 3 4 4 17 2 30 l-3 23 -7 -25z"/>
</g>
</svg>
