<?xml version="1.0" standalone="no"?>
<!DOCTYPE svg PUBLIC "-//W3C//DTD SVG 20010904//EN"
 "http://www.w3.org/TR/2001/REC-SVG-20010904/DTD/svg10.dtd">
<svg version="1.0" xmlns="http://www.w3.org/2000/svg"
 width="96.000000pt" height="84.000000pt" viewBox="0 0 96.000000 84.000000"
 preserveAspectRatio="xMidYMid meet">
<metadata>
Created by potrace 1.16, written by Peter Selinger 2001-2019
</metadata>
<g transform="translate(0.000000,84.000000) scale(0.100000,-0.100000)"
fill="#000000" stroke="none">
<path d="M0 420 c0 -405 1 -420 19 -420 21 0 31 19 31 60 0 16 4 32 10 35 5 3
10 21 10 39 0 17 4 36 9 42 5 5 13 29 18 54 7 38 15 48 48 68 l40 23 -47 -4
c-33 -3 -51 0 -59 10 -9 10 -15 11 -23 3 -21 -21 -28 -9 -7 14 12 13 33 50 46
81 l23 58 -24 21 c-28 25 -24 63 8 68 15 2 21 12 23 34 3 41 33 101 59 119 11
8 41 15 65 15 35 0 51 6 72 26 l28 26 10 -40 c6 -22 18 -42 26 -45 23 -10 45
-63 54 -135 5 -37 10 -74 12 -82 2 -9 -2 -14 -10 -12 -11 2 -12 -17 -8 -98 4
-85 2 -99 -9 -89 -9 8 -14 8 -14 1 0 -6 5 -14 10 -17 6 -4 8 -10 5 -15 -8 -13
14 -90 25 -90 5 0 6 -15 3 -34 -3 -19 -1 -36 6 -40 6 -4 7 -15 1 -30 -12 -32
-2 -66 19 -66 14 0 20 23 36 132 18 122 22 133 40 130 43 -7 43 -10 -2 -234
l-5 -28 206 0 206 0 0 420 0 420 -480 0 -480 0 0 -420z m810 -94 c0 -3 -4 -8
-10 -11 -5 -3 -10 -1 -10 4 0 6 5 11 10 11 6 0 10 -2 10 -4z"/>
</g>
</svg>
