<?xml version="1.0" standalone="no"?>
<!DOCTYPE svg PUBLIC "-//W3C//DTD SVG 20010904//EN"
 "http://www.w3.org/TR/2001/REC-SVG-20010904/DTD/svg10.dtd">
<svg version="1.0" xmlns="http://www.w3.org/2000/svg"
 width="96.000000pt" height="84.000000pt" viewBox="0 0 96.000000 84.000000"
 preserveAspectRatio="xMidYMid meet">
<metadata>
Created by potrace 1.16, written by Peter Selinger 2001-2019
</metadata>
<g transform="translate(0.000000,84.000000) scale(0.100000,-0.100000)"
fill="#000000" stroke="none">
<path d="M0 420 c0 -367 2 -420 15 -420 8 0 16 9 16 20 4 66 21 151 37 191 6
15 8 36 5 48 -3 12 -1 21 3 21 5 0 20 9 34 20 14 11 18 18 9 15 -9 -3 -22 1
-29 10 -12 14 -15 14 -31 -1 -23 -21 -25 -7 -3 17 16 18 31 65 41 126 4 28 2
34 -21 43 -14 5 -26 16 -26 24 0 8 -2 21 -6 29 -3 10 4 16 25 20 27 6 31 11
31 37 0 81 55 140 129 140 27 0 56 7 69 16 13 9 24 14 25 13 18 -34 37 -64 61
-94 23 -28 30 -48 33 -93 2 -31 6 -72 9 -91 5 -24 3 -32 -5 -27 -6 4 -11 4
-11 -1 0 -13 20 -135 26 -162 4 -20 3 -22 -9 -13 -11 10 -17 9 -24 0 -13 -16
8 -106 26 -118 7 -4 10 -17 6 -32 -5 -18 -2 -27 9 -31 12 -5 14 -12 7 -29 -10
-26 7 -89 26 -95 8 -3 13 37 18 136 4 78 12 141 17 141 19 0 98 -23 103 -29 2
-4 -9 -56 -26 -117 -16 -60 -29 -115 -29 -121 0 -10 47 -13 200 -13 l200 0 0
420 0 420 -480 0 -480 0 0 -420z m850 -114 c0 -3 -4 -8 -10 -11 -5 -3 -10 -1
-10 4 0 6 5 11 10 11 6 0 10 -2 10 -4z"/>
</g>
</svg>
