<?xml version="1.0" standalone="no"?>
<!DOCTYPE svg PUBLIC "-//W3C//DTD SVG 20010904//EN"
 "http://www.w3.org/TR/2001/REC-SVG-20010904/DTD/svg10.dtd">
<svg version="1.0" xmlns="http://www.w3.org/2000/svg"
 width="96.000000pt" height="84.000000pt" viewBox="0 0 96.000000 84.000000"
 preserveAspectRatio="xMidYMid meet">
<metadata>
Created by potrace 1.16, written by Peter Selinger 2001-2019
</metadata>
<g transform="translate(0.000000,84.000000) scale(0.100000,-0.100000)"
fill="#000000" stroke="none">
<path d="M0 418 c0 -401 4 -499 15 -338 3 40 11 91 19 115 8 23 12 51 10 63
-4 15 2 25 25 38 17 10 31 22 31 26 0 13 -28 9 -34 -4 -3 -7 -4 0 -1 15 3 16
1 35 -5 42 -10 12 -9 34 3 65 3 8 8 29 11 46 4 27 1 32 -30 43 -28 10 -34 17
-34 40 0 23 5 30 29 34 24 5 29 12 35 49 14 89 72 137 149 123 24 -5 37 -2 46
9 18 21 28 20 36 -4 3 -10 21 -34 40 -53 36 -36 59 -102 49 -142 -3 -14 -1
-39 6 -56 11 -25 11 -32 0 -39 -10 -6 -10 -18 0 -61 7 -30 19 -66 26 -81 13
-24 12 -27 -1 -22 -8 4 -21 1 -28 -4 -8 -7 -18 -7 -27 -2 -8 5 -18 6 -22 4 -4
-3 -8 0 -8 5 0 6 -7 11 -15 11 -27 0 -16 -17 18 -26 21 -7 32 -16 33 -29 3
-32 23 -75 35 -75 6 0 9 -9 6 -20 -3 -11 1 -26 8 -34 8 -7 12 -22 9 -32 -3
-11 7 -44 21 -74 14 -30 24 -44 21 -30 -2 14 -15 76 -27 138 -12 62 -19 116
-15 120 4 4 38 7 74 7 73 -1 162 -32 162 -58 0 -8 -20 -61 -45 -118 -25 -57
-45 -105 -45 -106 0 -2 86 -3 190 -3 l190 0 0 420 0 420 -480 0 -480 0 0 -422z
m457 196 c-3 -3 -12 -4 -19 -1 -8 3 -5 6 6 6 11 1 17 -2 13 -5z m423 -334 c0
-5 -5 -10 -11 -10 -5 0 -7 5 -4 10 3 6 8 10 11 10 2 0 4 -4 4 -10z"/>
</g>
</svg>
