<?xml version="1.0" standalone="no"?>
<!DOCTYPE svg PUBLIC "-//W3C//DTD SVG 20010904//EN"
 "http://www.w3.org/TR/2001/REC-SVG-20010904/DTD/svg10.dtd">
<svg version="1.0" xmlns="http://www.w3.org/2000/svg"
 width="96.000000pt" height="84.000000pt" viewBox="0 0 96.000000 84.000000"
 preserveAspectRatio="xMidYMid meet">
<metadata>
Created by potrace 1.16, written by Peter Selinger 2001-2019
</metadata>
<g transform="translate(0.000000,84.000000) scale(0.100000,-0.100000)"
fill="#000000" stroke="none">
<path d="M370 774 c-15 -37 -12 -84 4 -90 12 -5 13 -11 3 -31 -7 -17 -8 -26 0
-31 16 -11 22 -110 7 -123 -7 -5 -15 -28 -19 -50 -4 -21 -11 -39 -16 -39 -5 0
-9 -9 -9 -20 0 -12 -13 -55 -30 -98 -27 -71 -29 -85 -24 -162 9 -135 2 -130
166 -130 148 0 151 1 123 50 -22 39 -17 49 7 12 11 -18 24 -30 29 -25 4 4 11
62 15 128 7 134 -5 204 -51 295 -34 66 -32 114 7 201 30 68 31 72 13 85 -10 7
-40 13 -69 12 -36 -1 -61 5 -86 20 -45 28 -58 28 -70 -4z m217 -446 c-3 -7 -5
-2 -5 12 0 14 2 19 5 13 2 -7 2 -19 0 -25z m-60 -90 c-2 -18 -4 -4 -4 32 0 36
2 50 4 33 2 -18 2 -48 0 -65z"/>
</g>
</svg>
