<?xml version="1.0" standalone="no"?>
<!DOCTYPE svg PUBLIC "-//W3C//DTD SVG 20010904//EN"
 "http://www.w3.org/TR/2001/REC-SVG-20010904/DTD/svg10.dtd">
<svg version="1.0" xmlns="http://www.w3.org/2000/svg"
 width="96.000000pt" height="84.000000pt" viewBox="0 0 96.000000 84.000000"
 preserveAspectRatio="xMidYMid meet">
<metadata>
Created by potrace 1.16, written by Peter Selinger 2001-2019
</metadata>
<g transform="translate(0.000000,84.000000) scale(0.100000,-0.100000)"
fill="#000000" stroke="none">
<path d="M0 725 c0 -63 3 -115 8 -115 18 1 31 18 37 53 15 79 73 132 133 122
24 -4 40 0 62 15 l29 21 7 -25 c3 -13 19 -36 34 -50 44 -39 62 -81 59 -139 -3
-42 0 -53 14 -55 21 -4 23 -41 2 -48 -8 -4 -15 -19 -15 -35 0 -37 28 -118 49
-144 15 -18 15 -19 -1 -6 -15 11 -21 11 -33 1 -13 -11 -21 -10 -43 1 -15 7
-30 15 -34 17 -5 2 -8 -1 -8 -5 0 -5 14 -14 30 -20 18 -7 28 -17 25 -25 -3 -7
-1 -19 3 -26 7 -10 19 -8 58 9 57 26 144 29 195 9 37 -14 139 -86 139 -98 0
-4 -29 -44 -65 -89 -36 -46 -65 -85 -65 -88 0 -3 77 -5 170 -5 l170 0 0 420 0
419 -480 1 -480 0 0 -115z m480 -125 c-19 -13 -30 -13 -30 0 0 6 10 10 23 10
18 0 19 -2 7 -10z m435 -339 c3 -5 1 -12 -5 -16 -5 -3 -10 1 -10 9 0 18 6 21
15 7z"/>
<path d="M1 357 c0 -131 3 -175 10 -157 6 13 7 35 4 47 -4 18 3 29 35 52 34
24 37 29 21 34 -11 2 -25 0 -31 -7 -10 -8 -11 13 -6 95 7 102 6 107 -13 112
-21 5 -21 2 -20 -176z"/>
<path d="M343 35 c0 -22 2 -30 4 -17 2 12 2 30 0 40 -3 9 -5 -1 -4 -23z"/>
</g>
</svg>
