<?xml version="1.0" standalone="no"?>
<!DOCTYPE svg PUBLIC "-//W3C//DTD SVG 20010904//EN"
 "http://www.w3.org/TR/2001/REC-SVG-20010904/DTD/svg10.dtd">
<svg version="1.0" xmlns="http://www.w3.org/2000/svg"
 width="96.000000pt" height="84.000000pt" viewBox="0 0 96.000000 84.000000"
 preserveAspectRatio="xMidYMid meet">
<metadata>
Created by potrace 1.16, written by Peter Selinger 2001-2019
</metadata>
<g transform="translate(0.000000,84.000000) scale(0.100000,-0.100000)"
fill="#000000" stroke="none">
<path d="M0 715 c0 -106 2 -124 15 -119 8 4 15 17 15 30 0 72 54 134 115 134
31 0 47 6 65 25 31 33 37 32 44 -8 4 -22 15 -39 31 -47 44 -24 69 -76 70 -149
1 -36 3 -70 5 -76 2 -5 0 -18 -5 -28 -9 -21 10 -129 31 -171 12 -25 12 -27 -1
-16 -12 10 -18 10 -30 0 -17 -14 -20 -36 -6 -45 5 -3 30 6 55 19 129 69 277
25 367 -108 21 -32 39 -64 39 -71 0 -6 -26 -28 -58 -48 l-57 -36 133 -1 132 0
0 420 0 420 -480 0 -480 0 0 -125z m514 -129 c-7 -19 -34 -29 -34 -12 0 7 3
16 7 19 12 13 32 7 27 -7z m-24 -65 c0 -17 -12 -41 -21 -41 -5 0 -9 11 -9 25
0 16 6 25 15 25 8 0 15 -4 15 -9z m457 -293 c-3 -8 -6 -5 -6 6 -1 11 2 17 5
13 3 -3 4 -12 1 -19z"/>
<path d="M1 458 c1 -29 3 -44 6 -33 2 11 8 35 13 53 7 25 5 32 -6 32 -10 0
-14 -13 -13 -52z"/>
<path d="M0 285 c0 -35 1 -37 18 -23 9 9 31 23 47 31 l30 16 -30 -1 c-16 -1
-38 2 -47 6 -15 7 -18 3 -18 -29z"/>
<path d="M1 194 c0 -11 3 -14 6 -6 3 7 2 16 -1 19 -3 4 -6 -2 -5 -13z"/>
<path d="M342 30 c0 -19 2 -27 5 -17 2 9 2 25 0 35 -3 9 -5 1 -5 -18z"/>
</g>
</svg>
