<?xml version="1.0" standalone="no"?>
<!DOCTYPE svg PUBLIC "-//W3C//DTD SVG 20010904//EN"
 "http://www.w3.org/TR/2001/REC-SVG-20010904/DTD/svg10.dtd">
<svg version="1.0" xmlns="http://www.w3.org/2000/svg"
 width="96.000000pt" height="84.000000pt" viewBox="0 0 96.000000 84.000000"
 preserveAspectRatio="xMidYMid meet">
<metadata>
Created by potrace 1.16, written by Peter Selinger 2001-2019
</metadata>
<g transform="translate(0.000000,84.000000) scale(0.100000,-0.100000)"
fill="#000000" stroke="none">
<path d="M0 710 l0 -129 23 8 c12 5 23 14 24 22 13 97 48 149 100 149 20 0 39
10 58 30 27 29 31 30 42 14 7 -10 13 -25 13 -33 1 -9 15 -25 33 -36 17 -11 42
-36 55 -55 22 -32 23 -41 17 -146 -4 -78 -2 -120 7 -139 7 -17 8 -29 2 -33
-11 -8 -11 -48 1 -75 4 -10 3 -17 -4 -17 -8 0 -9 -5 -1 -19 10 -20 11 -19 58
2 136 62 307 -6 382 -153 24 -47 22 -53 -28 -80 l-37 -19 108 -1 107 0 0 420
0 420 -480 0 -480 0 0 -130z m540 -145 c0 -16 -6 -25 -15 -25 -18 0 -20 21 -3
38 17 17 18 16 18 -13z m40 -76 c-12 -22 -30 -25 -30 -6 0 17 21 38 32 31 4
-3 3 -14 -2 -25z"/>
<path d="M1 458 l0 -63 19 40 c24 52 24 62 0 75 -19 10 -20 8 -19 -52z"/>
<path d="M0 205 c0 -175 9 -175 25 0 2 22 4 45 4 51 1 6 23 22 50 35 59 28 56
44 -7 35 -28 -4 -50 -2 -58 5 -12 10 -14 -12 -14 -126z"/>
<path d="M0 20 c0 -11 2 -20 4 -20 2 0 6 9 9 20 3 11 1 20 -4 20 -5 0 -9 -9
-9 -20z"/>
</g>
</svg>
