<?xml version="1.0" standalone="no"?>
<!DOCTYPE svg PUBLIC "-//W3C//DTD SVG 20010904//EN"
 "http://www.w3.org/TR/2001/REC-SVG-20010904/DTD/svg10.dtd">
<svg version="1.0" xmlns="http://www.w3.org/2000/svg"
 width="96.000000pt" height="84.000000pt" viewBox="0 0 96.000000 84.000000"
 preserveAspectRatio="xMidYMid meet">
<metadata>
Created by potrace 1.16, written by Peter Selinger 2001-2019
</metadata>
<g transform="translate(0.000000,84.000000) scale(0.100000,-0.100000)"
fill="#000000" stroke="none">
<path d="M0 420 c0 -362 2 -420 15 -420 15 0 25 28 24 70 -1 37 6 90 19 135 6
22 10 49 9 60 -2 15 11 26 50 45 29 14 52 29 53 34 0 5 -24 6 -54 2 -40 -4
-57 -2 -66 8 -6 8 -19 12 -28 9 -12 -5 -11 0 6 25 12 17 29 50 38 74 14 39 14
44 -1 53 -33 20 -43 30 -49 51 -5 16 1 23 29 34 30 12 35 18 35 47 0 70 46
133 97 133 13 0 30 12 43 30 l21 30 -120 0 -121 0 0 -420z"/>
<path d="M263 813 c8 -14 31 -38 52 -52 72 -49 80 -68 80 -199 1 -64 5 -125 9
-135 6 -12 2 -32 -9 -57 -15 -34 -16 -42 -4 -56 8 -9 14 -22 15 -28 3 -37 18
-76 30 -76 7 0 11 -6 8 -13 -3 -10 19 -13 98 -12 88 0 110 -3 150 -24 56 -27
120 -89 138 -131 12 -29 15 -30 71 -30 l59 0 0 420 0 420 -355 0 -356 0 14
-27z m307 -273 c0 -11 -4 -20 -10 -20 -5 0 -10 9 -10 20 0 11 5 20 10 20 6 0
10 -9 10 -20z m110 -60 c-9 -17 -30 -28 -30 -16 0 16 15 36 26 36 12 0 12 -4
4 -20z"/>
<path d="M130 28 c0 -16 5 -28 10 -28 13 0 13 20 0 40 -8 12 -10 9 -10 -12z"/>
</g>
</svg>
