<?xml version="1.0" standalone="no"?>
<!DOCTYPE svg PUBLIC "-//W3C//DTD SVG 20010904//EN"
 "http://www.w3.org/TR/2001/REC-SVG-20010904/DTD/svg10.dtd">
<svg version="1.0" xmlns="http://www.w3.org/2000/svg"
 width="96.000000pt" height="84.000000pt" viewBox="0 0 96.000000 84.000000"
 preserveAspectRatio="xMidYMid meet">
<metadata>
Created by potrace 1.16, written by Peter Selinger 2001-2019
</metadata>
<g transform="translate(0.000000,84.000000) scale(0.100000,-0.100000)"
fill="#000000" stroke="none">
<path d="M0 420 l0 -420 34 0 c30 0 34 3 39 33 2 17 0 35 -5 38 -5 3 -4 17 2
34 6 16 9 34 6 42 -3 7 -1 26 5 41 6 15 11 42 11 60 0 22 8 38 24 51 l23 18
-24 13 c-13 7 -30 10 -38 7 -12 -4 -11 3 3 41 10 26 20 66 23 90 3 34 1 42
-12 42 -24 1 -47 22 -54 50 -5 22 -2 28 22 37 24 8 29 18 35 56 9 60 43 109
84 121 18 5 42 22 53 38 l20 28 -125 0 -126 0 0 -420z"/>
<path d="M260 835 c0 -22 29 -54 63 -71 52 -25 87 -81 87 -142 0 -24 5 -52 10
-62 6 -10 6 -21 1 -24 -4 -3 -5 -29 -1 -58 15 -99 20 -163 12 -151 -5 7 -13 9
-21 4 -11 -7 -11 -10 0 -17 8 -5 20 -31 27 -59 7 -27 17 -51 23 -53 5 -2 6
-15 3 -28 -4 -14 -1 -31 7 -41 8 -8 12 -26 11 -39 -3 -21 0 -22 45 -19 65 5
184 -21 238 -51 36 -19 58 -24 119 -24 l76 0 0 420 0 420 -350 0 c-192 0 -350
-2 -350 -5z m524 -369 c-6 -16 -34 -30 -34 -18 0 10 22 32 32 32 4 0 5 -6 2
-14z"/>
</g>
</svg>
