<?xml version="1.0" standalone="no"?>
<!DOCTYPE svg PUBLIC "-//W3C//DTD SVG 20010904//EN"
 "http://www.w3.org/TR/2001/REC-SVG-20010904/DTD/svg10.dtd">
<svg version="1.0" xmlns="http://www.w3.org/2000/svg"
 width="96.000000pt" height="84.000000pt" viewBox="0 0 96.000000 84.000000"
 preserveAspectRatio="xMidYMid meet">
<metadata>
Created by potrace 1.16, written by Peter Selinger 2001-2019
</metadata>
<g transform="translate(0.000000,84.000000) scale(0.100000,-0.100000)"
fill="#000000" stroke="none">
<path d="M0 420 l0 -420 54 0 54 0 0 78 c0 103 11 183 30 205 19 21 8 35 -17
20 -16 -10 -17 -7 -10 41 10 65 11 151 3 143 -4 -4 -20 1 -35 10 -39 23 -38
54 1 71 25 12 30 19 30 50 0 54 29 104 73 127 21 11 46 33 57 49 l19 29 21
-35 c13 -24 30 -38 49 -41 46 -9 84 -67 89 -135 2 -31 8 -62 13 -68 5 -6 7
-19 3 -28 -8 -21 31 -150 51 -166 8 -7 15 -17 15 -22 0 -6 -7 -5 -15 2 -11 9
-19 10 -27 2 -6 -6 -27 -8 -47 -5 l-36 4 38 -22 c24 -15 37 -30 37 -44 0 -28
20 -85 29 -85 4 0 6 -13 3 -28 -5 -38 11 -49 90 -56 37 -3 79 -11 95 -17 59
-24 114 -53 124 -66 8 -9 37 -13 90 -13 l79 0 0 420 0 420 -480 0 -480 0 0
-420z m630 86 c0 -8 -4 -18 -10 -21 -5 -3 -10 3 -10 14 0 12 5 21 10 21 6 0
10 -6 10 -14z m246 -72 c-11 -7 -22 -11 -25 -8 -3 3 3 12 13 20 11 7 22 11 25
8 3 -3 -3 -12 -13 -20z"/>
</g>
</svg>
