<?xml version="1.0" standalone="no"?>
<!DOCTYPE svg PUBLIC "-//W3C//DTD SVG 20010904//EN"
 "http://www.w3.org/TR/2001/REC-SVG-20010904/DTD/svg10.dtd">
<svg version="1.0" xmlns="http://www.w3.org/2000/svg"
 width="96.000000pt" height="84.000000pt" viewBox="0 0 96.000000 84.000000"
 preserveAspectRatio="xMidYMid meet">
<metadata>
Created by potrace 1.16, written by Peter Selinger 2001-2019
</metadata>
<g transform="translate(0.000000,84.000000) scale(0.100000,-0.100000)"
fill="#000000" stroke="none">
<path d="M0 420 l0 -420 70 0 70 0 -6 58 c-4 31 -8 59 -10 60 -1 2 4 25 12 50
7 26 14 58 14 73 0 14 5 30 11 36 17 17 -9 27 -28 11 -14 -12 -15 -9 -10 22 3
19 9 62 12 95 l6 60 -33 15 c-45 20 -49 52 -8 67 26 10 30 16 30 46 0 66 43
137 81 137 10 0 29 16 43 36 l24 36 15 -27 c8 -15 34 -37 58 -49 59 -28 89
-75 89 -138 0 -27 5 -58 10 -68 6 -11 6 -21 1 -24 -19 -12 25 -148 57 -173 16
-13 15 -14 -5 -8 -12 3 -24 1 -28 -5 -4 -7 -20 -9 -38 -5 -30 6 -31 5 -13 -9
10 -8 23 -17 29 -19 5 -1 11 -14 12 -27 1 -14 3 -28 4 -31 0 -4 19 -3 41 1 54
10 123 -4 177 -36 47 -27 111 -102 132 -153 13 -30 15 -31 77 -31 l64 0 0 200
c0 185 -1 199 -17 194 -17 -5 -17 -5 -1 9 16 13 18 36 18 226 l0 211 -480 0
-480 0 0 -420z m660 78 c0 -17 -20 -47 -20 -31 0 6 -3 18 -6 27 -4 11 -1 16
10 16 9 0 16 -6 16 -12z"/>
</g>
</svg>
