<?xml version="1.0" standalone="no"?>
<!DOCTYPE svg PUBLIC "-//W3C//DTD SVG 20010904//EN"
 "http://www.w3.org/TR/2001/REC-SVG-20010904/DTD/svg10.dtd">
<svg version="1.0" xmlns="http://www.w3.org/2000/svg"
 width="96.000000pt" height="84.000000pt" viewBox="0 0 96.000000 84.000000"
 preserveAspectRatio="xMidYMid meet">
<metadata>
Created by potrace 1.16, written by Peter Selinger 2001-2019
</metadata>
<g transform="translate(0.000000,84.000000) scale(0.100000,-0.100000)"
fill="#000000" stroke="none">
<path d="M0 420 l0 -421 67 3 c60 3 69 6 80 28 7 13 8 29 4 35 -9 10 -8 106 2
121 3 5 8 27 11 49 4 22 9 47 12 56 6 22 -24 33 -44 17 -14 -11 -15 -10 -8 7
5 11 14 52 21 90 l12 70 -31 15 c-17 8 -32 14 -32 15 -1 0 -4 9 -8 21 -5 16 0
23 25 35 27 13 31 20 35 63 5 68 31 108 81 125 22 8 47 26 56 40 l15 25 13
-26 c7 -17 23 -29 41 -33 15 -4 42 -18 58 -31 44 -38 53 -75 51 -219 -1 -22 4
-55 10 -73 6 -19 12 -48 13 -65 2 -18 6 -41 10 -52 6 -15 5 -16 -2 -6 -6 8
-17 11 -27 7 -16 -6 -16 -8 -2 -24 8 -9 17 -28 19 -42 3 -23 7 -25 46 -22 105
8 221 -63 284 -175 l30 -53 59 0 59 0 0 420 0 420 -480 0 -480 0 0 -420z m670
71 c0 -5 3 -18 6 -28 5 -16 4 -16 -10 1 -18 23 -20 36 -6 36 6 0 10 -4 10 -9z"/>
</g>
</svg>
