<?xml version="1.0" standalone="no"?>
<!DOCTYPE svg PUBLIC "-//W3C//DTD SVG 20010904//EN"
 "http://www.w3.org/TR/2001/REC-SVG-20010904/DTD/svg10.dtd">
<svg version="1.0" xmlns="http://www.w3.org/2000/svg"
 width="96.000000pt" height="84.000000pt" viewBox="0 0 96.000000 84.000000"
 preserveAspectRatio="xMidYMid meet">
<metadata>
Created by potrace 1.16, written by Peter Selinger 2001-2019
</metadata>
<g transform="translate(0.000000,84.000000) scale(0.100000,-0.100000)"
fill="#000000" stroke="none">
<path d="M0 541 c0 -230 3 -300 12 -304 10 -4 10 -6 1 -6 -10 -1 -13 -31 -13
-116 l0 -115 59 0 c80 0 98 23 99 129 1 40 6 79 12 86 5 7 14 32 18 57 8 39 6
47 -10 57 -15 10 -23 9 -36 -1 -14 -11 -15 -10 -8 7 13 34 36 128 36 147 0 10
-13 24 -30 33 -16 9 -30 20 -30 24 0 5 -2 16 -6 24 -3 10 4 16 25 20 26 5 31
11 31 34 0 80 53 163 103 163 14 0 31 10 41 23 l15 22 18 -21 c10 -11 31 -24
47 -28 57 -14 118 -113 100 -160 -3 -9 -1 -30 6 -46 9 -21 9 -34 2 -43 -8 -9
-8 -25 -1 -52 16 -66 17 -69 8 -92 -5 -14 -4 -34 2 -50 8 -23 8 -26 -2 -15
-15 14 -39 16 -39 3 0 -5 9 -13 20 -16 13 -4 20 -15 20 -30 0 -55 15 -72 72
-78 102 -10 209 -78 254 -162 18 -34 20 -35 76 -35 l58 0 0 420 0 420 -480 0
-480 0 0 -299z m680 -38 c0 -22 -2 -25 -10 -13 -13 20 -13 40 0 40 6 0 10 -12
10 -27z"/>
</g>
</svg>
