<?xml version="1.0" standalone="no"?>
<!DOCTYPE svg PUBLIC "-//W3C//DTD SVG 20010904//EN"
 "http://www.w3.org/TR/2001/REC-SVG-20010904/DTD/svg10.dtd">
<svg version="1.0" xmlns="http://www.w3.org/2000/svg"
 width="96.000000pt" height="84.000000pt" viewBox="0 0 96.000000 84.000000"
 preserveAspectRatio="xMidYMid meet">
<metadata>
Created by potrace 1.16, written by Peter Selinger 2001-2019
</metadata>
<g transform="translate(0.000000,84.000000) scale(0.100000,-0.100000)"
fill="#000000" stroke="none">
<path d="M0 420 l0 -420 58 0 c57 0 57 0 85 45 16 24 26 49 22 55 -8 13 12
111 31 150 9 16 13 34 10 39 -4 5 4 17 16 27 16 11 18 15 5 10 -10 -3 -26 0
-37 6 -14 9 -22 9 -36 -3 -16 -13 -17 -12 -10 6 12 28 46 147 46 160 0 6 -13
19 -30 28 -40 24 -40 59 0 74 21 8 28 16 24 27 -3 8 1 40 10 70 17 59 52 96
91 96 20 0 55 27 55 43 0 4 -76 7 -170 7 l-170 0 0 -420z"/>
<path d="M376 815 c9 -14 22 -25 29 -25 22 0 77 -52 91 -87 8 -18 14 -51 14
-73 0 -23 5 -50 11 -61 7 -15 7 -24 -1 -35 -8 -9 -10 -27 -5 -51 4 -21 9 -61
10 -90 2 -28 6 -57 11 -65 6 -11 5 -11 -8 0 -10 8 -23 9 -38 4 l-22 -8 25 -11
c19 -9 26 -22 31 -57 4 -26 13 -52 19 -58 7 -6 11 -26 9 -45 -2 -18 1 -40 8
-48 6 -8 9 -19 5 -24 -7 -12 16 -18 96 -25 31 -2 81 -16 111 -30 42 -20 71
-26 121 -26 l67 0 0 420 0 420 -300 0 -300 0 16 -25z m294 -286 c0 -11 -4 -17
-10 -14 -5 3 -10 13 -10 21 0 8 5 14 10 14 6 0 10 -9 10 -21z"/>
</g>
</svg>
