<?xml version="1.0" standalone="no"?>
<!DOCTYPE svg PUBLIC "-//W3C//DTD SVG 20010904//EN"
 "http://www.w3.org/TR/2001/REC-SVG-20010904/DTD/svg10.dtd">
<svg version="1.0" xmlns="http://www.w3.org/2000/svg"
 width="96.000000pt" height="84.000000pt" viewBox="0 0 96.000000 84.000000"
 preserveAspectRatio="xMidYMid meet">
<metadata>
Created by potrace 1.16, written by Peter Selinger 2001-2019
</metadata>
<g transform="translate(0.000000,84.000000) scale(0.100000,-0.100000)"
fill="#000000" stroke="none">
<path d="M373 803 c-20 -7 -17 -113 2 -113 18 0 18 -5 4 -32 -8 -14 -8 -23 0
-31 13 -13 15 -123 2 -131 -5 -3 -12 -23 -16 -43 -4 -21 -11 -41 -17 -44 -6
-4 -12 -24 -13 -46 -2 -22 -17 -72 -33 -110 -17 -39 -28 -73 -26 -76 3 -3 5
-43 5 -91 l0 -86 164 0 c184 0 185 1 185 74 0 19 5 38 10 41 29 18 -3 210 -52
317 -28 61 -30 74 -26 138 3 42 11 77 20 88 9 9 23 31 32 49 24 47 4 63 -80
62 -44 -1 -70 4 -82 14 -19 16 -61 27 -79 20z"/>
</g>
</svg>
