<?xml version="1.0" standalone="no"?>
<!DOCTYPE svg PUBLIC "-//W3C//DTD SVG 20010904//EN"
 "http://www.w3.org/TR/2001/REC-SVG-20010904/DTD/svg10.dtd">
<svg version="1.0" xmlns="http://www.w3.org/2000/svg"
 width="96.000000pt" height="84.000000pt" viewBox="0 0 96.000000 84.000000"
 preserveAspectRatio="xMidYMid meet">
<metadata>
Created by potrace 1.16, written by Peter Selinger 2001-2019
</metadata>
<g transform="translate(0.000000,84.000000) scale(0.100000,-0.100000)"
fill="#000000" stroke="none">
<path d="M0 420 l0 -420 59 0 c57 0 59 1 86 39 15 22 24 44 22 49 -8 11 13 93
28 112 7 8 15 29 18 46 4 23 1 33 -14 43 -14 8 -24 9 -33 2 -7 -6 -3 17 10 57
31 97 37 135 20 129 -8 -3 -20 1 -28 10 -20 24 -16 57 7 63 13 4 21 16 23 35
10 94 46 148 106 159 26 5 40 16 56 44 l23 37 19 -40 c11 -22 34 -49 52 -60
40 -26 66 -78 66 -136 0 -28 6 -51 14 -58 11 -9 12 -18 4 -39 -8 -21 -6 -45 9
-102 11 -41 23 -84 27 -95 5 -11 4 -15 -1 -9 -4 6 -32 10 -61 10 -52 0 -53 0
-25 -14 15 -8 33 -20 39 -27 5 -8 30 -16 55 -20 102 -14 200 -90 249 -191 22
-44 22 -44 76 -44 l54 0 0 420 0 420 -480 0 -480 0 0 -420z m647 108 c-3 -8
-6 -5 -6 6 -1 11 2 17 5 13 3 -3 4 -12 1 -19z"/>
</g>
</svg>
