<?xml version="1.0" standalone="no"?>
<!DOCTYPE svg PUBLIC "-//W3C//DTD SVG 20010904//EN"
 "http://www.w3.org/TR/2001/REC-SVG-20010904/DTD/svg10.dtd">
<svg version="1.0" xmlns="http://www.w3.org/2000/svg"
 width="96.000000pt" height="84.000000pt" viewBox="0 0 96.000000 84.000000"
 preserveAspectRatio="xMidYMid meet">
<metadata>
Created by potrace 1.16, written by Peter Selinger 2001-2019
</metadata>
<g transform="translate(0.000000,84.000000) scale(0.100000,-0.100000)"
fill="#000000" stroke="none">
<path d="M0 420 l0 -420 54 0 c51 0 56 2 76 35 12 19 19 39 16 44 -8 12 14
125 25 131 5 4 12 21 15 40 4 20 3 31 -2 27 -6 -3 -9 33 -7 95 3 91 2 100 -16
105 -25 6 -34 50 -12 62 11 7 16 25 16 63 2 99 51 158 132 158 34 0 43 5 66
37 23 33 27 35 33 17 15 -41 35 -81 59 -113 14 -19 25 -46 25 -61 0 -15 7 -41
15 -56 18 -34 21 -98 4 -74 -8 11 -9 8 -4 -15 8 -41 54 -135 66 -135 5 0 9 -5
9 -11 0 -8 -4 -8 -15 1 -11 10 -18 9 -30 -4 -12 -12 -21 -13 -35 -6 -22 12
-68 6 -83 -9 -7 -7 6 -17 37 -31 26 -11 50 -28 53 -38 3 -14 15 -17 61 -17
109 0 212 -73 269 -190 l27 -55 53 0 53 0 0 420 0 420 -480 0 -480 0 0 -420z"/>
</g>
</svg>
