<?xml version="1.0" standalone="no"?>
<!DOCTYPE svg PUBLIC "-//W3C//DTD SVG 20010904//EN"
 "http://www.w3.org/TR/2001/REC-SVG-20010904/DTD/svg10.dtd">
<svg version="1.0" xmlns="http://www.w3.org/2000/svg"
 width="96.000000pt" height="84.000000pt" viewBox="0 0 96.000000 84.000000"
 preserveAspectRatio="xMidYMid meet">
<metadata>
Created by potrace 1.16, written by Peter Selinger 2001-2019
</metadata>
<g transform="translate(0.000000,84.000000) scale(0.100000,-0.100000)"
fill="#000000" stroke="none">
<path d="M0 420 l0 -420 45 0 c52 0 67 18 71 90 6 98 8 115 16 121 14 10 27
101 17 127 -5 13 -6 28 -3 34 4 6 3 8 -3 5 -5 -4 -8 16 -5 52 4 56 3 58 -23
65 -19 5 -25 11 -21 22 3 9 6 22 6 30 0 8 6 14 13 14 10 0 13 13 9 54 -8 97
52 166 145 166 29 0 46 7 63 25 30 32 36 31 45 -2 3 -16 18 -45 31 -66 14 -22
28 -55 31 -75 4 -21 10 -39 14 -42 14 -9 24 -94 11 -86 -32 20 2 -90 41 -133
22 -23 22 -23 1 -17 -13 4 -26 1 -34 -9 -8 -10 -21 -13 -34 -9 -12 3 -28 8
-37 10 -9 2 -25 -4 -37 -14 l-21 -18 37 -13 c58 -20 82 -39 82 -64 0 -23 3
-23 78 -23 65 1 86 -4 134 -27 67 -33 138 -107 164 -172 l19 -45 53 0 52 0 0
420 0 420 -480 0 -480 0 0 -420z m631 53 c-8 -15 -10 -15 -11 -2 0 17 10 32
18 25 2 -3 -1 -13 -7 -23z"/>
<path d="M396 24 c-9 -23 -8 -24 14 -24 23 0 26 13 6 29 -11 9 -15 8 -20 -5z"/>
</g>
</svg>
