<?xml version="1.0" standalone="no"?>
<!DOCTYPE svg PUBLIC "-//W3C//DTD SVG 20010904//EN"
 "http://www.w3.org/TR/2001/REC-SVG-20010904/DTD/svg10.dtd">
<svg version="1.0" xmlns="http://www.w3.org/2000/svg"
 width="96.000000pt" height="84.000000pt" viewBox="0 0 96.000000 84.000000"
 preserveAspectRatio="xMidYMid meet">
<metadata>
Created by potrace 1.16, written by Peter Selinger 2001-2019
</metadata>
<g transform="translate(0.000000,84.000000) scale(0.100000,-0.100000)"
fill="#000000" stroke="none">
<path d="M0 420 l0 -420 34 0 c30 0 36 4 46 34 6 18 9 45 6 60 -3 14 0 26 5
26 5 0 9 18 9 40 0 22 4 40 9 40 5 0 11 10 14 23 3 12 9 32 12 45 6 19 4 22
-19 22 -20 0 -26 -5 -26 -22 0 -18 -2 -20 -10 -8 -5 9 -5 19 1 26 5 6 11 40
14 75 4 35 8 76 10 92 3 18 0 27 -9 27 -24 0 -36 23 -22 43 7 9 18 17 23 17 7
0 9 24 6 63 -7 99 37 152 136 164 43 5 54 11 70 37 l20 31 15 -37 c9 -20 27
-53 41 -74 14 -20 28 -54 31 -76 4 -22 12 -38 20 -38 10 0 14 -13 14 -40 0
-23 -5 -40 -11 -40 -6 0 -8 -7 -5 -17 4 -9 2 -19 -4 -23 -11 -7 -3 -60 15
-104 7 -15 5 -17 -12 -12 -13 4 -25 1 -33 -9 -7 -8 -20 -13 -29 -10 -9 2 -23
0 -31 -5 -11 -7 -6 -13 25 -25 64 -25 67 -28 81 -80 6 -27 17 -51 23 -53 6 -2
8 -16 5 -32 -6 -28 -6 -28 31 -20 66 15 158 1 232 -35 46 -22 113 -79 113 -97
0 -4 25 -8 55 -8 l55 0 0 420 0 420 -480 0 -480 0 0 -420z m649 38 c-8 -14
-14 -18 -17 -10 -4 13 17 46 25 38 3 -2 -1 -15 -8 -28z"/>
</g>
</svg>
