<?xml version="1.0" standalone="no"?>
<!DOCTYPE svg PUBLIC "-//W3C//DTD SVG 20010904//EN"
 "http://www.w3.org/TR/2001/REC-SVG-20010904/DTD/svg10.dtd">
<svg version="1.0" xmlns="http://www.w3.org/2000/svg"
 width="96.000000pt" height="84.000000pt" viewBox="0 0 96.000000 84.000000"
 preserveAspectRatio="xMidYMid meet">
<metadata>
Created by potrace 1.16, written by Peter Selinger 2001-2019
</metadata>
<g transform="translate(0.000000,84.000000) scale(0.100000,-0.100000)"
fill="#000000" stroke="none">
<path d="M0 420 l0 -420 24 0 c27 0 41 26 38 72 -1 15 2 29 8 33 5 3 10 22 10
41 0 19 4 34 9 34 5 0 15 23 22 51 7 28 19 54 26 56 22 8 15 21 -12 21 -13 0
-32 -9 -41 -19 -9 -11 -23 -19 -31 -19 -7 0 -16 -7 -19 -15 -8 -19 -24 -20
-24 -1 0 7 11 21 25 30 16 11 31 37 45 82 19 63 19 67 3 79 -17 12 -17 14 -1
32 13 14 15 31 11 84 -9 105 33 159 133 174 38 5 46 11 57 38 l13 32 19 -30
c11 -17 32 -45 47 -63 15 -18 31 -51 34 -73 4 -26 15 -46 29 -55 17 -11 21
-21 17 -42 -2 -15 -8 -31 -12 -37 -14 -19 -31 -123 -24 -150 6 -25 5 -26 -13
-15 -16 11 -25 9 -48 -6 l-28 -18 46 -16 c56 -18 65 -26 69 -65 2 -23 7 -29
23 -27 112 14 169 7 243 -30 54 -27 117 -89 143 -140 19 -36 22 -38 69 -38
l50 0 0 420 -1 420 -479 0 -480 0 0 -420z m680 31 c0 -13 -29 -35 -37 -28 -7
8 15 37 28 37 5 0 9 -4 9 -9z"/>
<path d="M367 20 c-3 -11 -1 -20 4 -20 5 0 9 9 9 20 0 11 -2 20 -4 20 -2 0 -6
-9 -9 -20z"/>
</g>
</svg>
