<?xml version="1.0" standalone="no"?>
<!DOCTYPE svg PUBLIC "-//W3C//DTD SVG 20010904//EN"
 "http://www.w3.org/TR/2001/REC-SVG-20010904/DTD/svg10.dtd">
<svg version="1.0" xmlns="http://www.w3.org/2000/svg"
 width="96.000000pt" height="84.000000pt" viewBox="0 0 96.000000 84.000000"
 preserveAspectRatio="xMidYMid meet">
<metadata>
Created by potrace 1.16, written by Peter Selinger 2001-2019
</metadata>
<g transform="translate(0.000000,84.000000) scale(0.100000,-0.100000)"
fill="#000000" stroke="none">
<path d="M0 420 c0 -413 0 -420 20 -420 17 0 20 7 20 44 0 25 4 48 10 51 5 3
10 19 10 35 0 15 8 48 18 72 11 24 17 48 15 55 -2 6 5 17 17 23 12 6 20 14 17
17 -5 4 -45 -15 -57 -27 -12 -12 -48 -28 -53 -23 -9 9 4 33 19 33 31 0 76 146
48 157 -10 4 -10 10 -2 29 9 19 9 33 0 58 -38 105 18 197 130 212 34 5 47 12
54 29 9 22 11 21 58 -31 33 -37 52 -70 60 -102 9 -36 17 -48 34 -50 22 -3 30
-26 13 -36 -5 -4 -12 -24 -16 -45 -4 -22 -12 -42 -20 -44 -9 -4 -11 -23 -8
-68 3 -55 2 -61 -11 -49 -13 10 -21 9 -47 -7 l-31 -20 49 -13 c60 -16 73 -26
73 -56 0 -28 2 -29 38 -10 124 63 286 -12 363 -170 l32 -64 53 0 54 0 0 420 0
420 -480 0 -480 0 0 -420z m698 8 c-3 -7 -15 -15 -28 -16 -21 -3 -22 -2 -11
12 16 19 44 21 39 4z"/>
<path d="M362 20 c0 -14 2 -19 5 -12 2 6 2 18 0 25 -3 6 -5 1 -5 -13z"/>
</g>
</svg>
