<?xml version="1.0" standalone="no"?>
<!DOCTYPE svg PUBLIC "-//W3C//DTD SVG 20010904//EN"
 "http://www.w3.org/TR/2001/REC-SVG-20010904/DTD/svg10.dtd">
<svg version="1.0" xmlns="http://www.w3.org/2000/svg"
 width="96.000000pt" height="84.000000pt" viewBox="0 0 96.000000 84.000000"
 preserveAspectRatio="xMidYMid meet">
<metadata>
Created by potrace 1.16, written by Peter Selinger 2001-2019
</metadata>
<g transform="translate(0.000000,84.000000) scale(0.100000,-0.100000)"
fill="#000000" stroke="none">
<path d="M0 420 c0 -280 3 -420 10 -420 6 0 10 17 10 38 -1 20 4 64 10 97 7
33 13 74 14 91 0 17 6 37 12 45 14 19 18 167 4 184 -7 9 -7 21 0 39 7 19 7 33
0 47 -13 23 -15 73 -5 117 10 46 81 92 142 92 38 0 45 3 54 27 l10 27 19 -32
c11 -18 24 -32 30 -32 16 0 48 -59 55 -101 5 -30 13 -40 35 -48 l29 -9 -20
-38 c-10 -21 -19 -43 -19 -50 0 -6 -9 -19 -19 -28 -18 -16 -18 -21 -6 -64 15
-48 12 -63 -6 -45 -8 8 -20 5 -43 -11 l-33 -21 56 -20 c50 -18 56 -23 59 -51
l3 -31 57 20 c137 46 286 -33 353 -188 l24 -55 63 0 62 0 0 420 0 420 -480 0
-480 0 0 -420z m700 5 c0 -8 -9 -15 -20 -15 -20 0 -26 11 -13 23 12 13 33 7
33 -8z"/>
<path d="M352 25 c0 -17 2 -22 5 -12 2 9 2 23 0 30 -3 6 -5 -1 -5 -18z"/>
</g>
</svg>
