<?xml version="1.0" standalone="no"?>
<!DOCTYPE svg PUBLIC "-//W3C//DTD SVG 20010904//EN"
 "http://www.w3.org/TR/2001/REC-SVG-20010904/DTD/svg10.dtd">
<svg version="1.0" xmlns="http://www.w3.org/2000/svg"
 width="96.000000pt" height="84.000000pt" viewBox="0 0 96.000000 84.000000"
 preserveAspectRatio="xMidYMid meet">
<metadata>
Created by potrace 1.16, written by Peter Selinger 2001-2019
</metadata>
<g transform="translate(0.000000,84.000000) scale(0.100000,-0.100000)"
fill="#000000" stroke="none">
<path d="M1 492 c0 -247 3 -340 11 -322 5 14 10 42 10 62 -1 21 3 40 9 43 13
9 11 169 -2 182 -9 9 -9 19 0 42 9 21 10 35 2 49 -16 29 -14 108 3 140 21 40
103 82 160 82 39 0 46 3 46 20 0 30 14 24 33 -15 9 -19 21 -35 25 -35 10 0 38
-61 46 -102 4 -18 16 -29 36 -37 27 -9 30 -13 20 -31 -6 -11 -14 -20 -18 -20
-4 0 -9 -12 -10 -27 -1 -15 -12 -37 -23 -49 -21 -23 -23 -54 -4 -98 7 -16 5
-17 -12 -7 -17 8 -24 7 -38 -9 -10 -11 -28 -20 -39 -20 -12 -1 8 -11 44 -23
51 -17 65 -27 66 -42 1 -27 22 -65 34 -65 6 0 10 -9 10 -21 0 -11 4 -18 9 -15
18 11 106 14 155 5 28 -5 75 -21 105 -36 54 -28 131 -104 131 -129 0 -11 18
-14 75 -14 l75 0 0 420 0 420 -480 0 -480 0 1 -348z m693 -28 c13 -5 14 -10 5
-20 -8 -10 -16 -11 -30 -3 -32 17 -10 36 25 23z"/>
<path d="M341 14 c0 -11 3 -14 6 -6 3 7 2 16 -1 19 -3 4 -6 -2 -5 -13z"/>
</g>
</svg>
