<?xml version="1.0" standalone="no"?>
<!DOCTYPE svg PUBLIC "-//W3C//DTD SVG 20010904//EN"
 "http://www.w3.org/TR/2001/REC-SVG-20010904/DTD/svg10.dtd">
<svg version="1.0" xmlns="http://www.w3.org/2000/svg"
 width="96.000000pt" height="84.000000pt" viewBox="0 0 96.000000 84.000000"
 preserveAspectRatio="xMidYMid meet">
<metadata>
Created by potrace 1.16, written by Peter Selinger 2001-2019
</metadata>
<g transform="translate(0.000000,84.000000) scale(0.100000,-0.100000)"
fill="#000000" stroke="none">
<path d="M0 754 l0 -87 20 26 c30 38 98 67 158 67 45 0 52 3 52 19 0 57 35 2
98 -151 7 -17 19 -28 31 -28 11 0 22 -4 25 -9 8 -13 -4 -41 -18 -41 -6 0 -12
-14 -13 -31 -1 -17 -12 -39 -24 -50 -18 -15 -22 -30 -22 -74 0 -34 -4 -52 -9
-47 -6 6 -22 3 -41 -6 l-32 -16 38 -8 c50 -10 77 -25 77 -43 0 -25 23 -65 37
-65 7 0 13 -11 13 -24 0 -13 7 -27 16 -30 9 -4 14 -13 10 -21 -5 -14 6 -20 29
-15 27 6 117 0 156 -10 63 -16 141 -55 169 -85 21 -23 31 -25 107 -25 l83 0 0
420 0 420 -480 0 -480 0 0 -86z m700 -293 c0 -4 -3 -11 -7 -14 -9 -9 -44 23
-37 34 6 10 44 -7 44 -20z"/>
<path d="M0 513 c0 -18 2 -33 4 -33 9 0 13 39 5 51 -6 10 -9 4 -9 -18z"/>
<path d="M0 393 c0 -25 2 -44 4 -42 8 10 13 89 5 89 -5 0 -9 -21 -9 -47z"/>
<path d="M1 194 c0 -11 3 -14 6 -6 3 7 2 16 -1 19 -3 4 -6 -2 -5 -13z"/>
</g>
</svg>
