<?xml version="1.0" standalone="no"?>
<!DOCTYPE svg PUBLIC "-//W3C//DTD SVG 20010904//EN"
 "http://www.w3.org/TR/2001/REC-SVG-20010904/DTD/svg10.dtd">
<svg version="1.0" xmlns="http://www.w3.org/2000/svg"
 width="96.000000pt" height="84.000000pt" viewBox="0 0 96.000000 84.000000"
 preserveAspectRatio="xMidYMid meet">
<metadata>
Created by potrace 1.16, written by Peter Selinger 2001-2019
</metadata>
<g transform="translate(0.000000,84.000000) scale(0.100000,-0.100000)"
fill="#000000" stroke="none">
<path d="M0 733 l0 -108 20 32 c27 44 106 83 169 83 49 0 50 1 53 33 4 32 4
31 32 -28 16 -33 36 -80 45 -105 13 -34 24 -47 46 -55 39 -12 38 -10 30 -34
-3 -12 -13 -21 -21 -21 -8 0 -14 -7 -14 -15 0 -25 -23 -65 -37 -65 -10 0 -13
-11 -11 -37 4 -45 -37 -98 -65 -87 -10 3 -17 1 -17 -5 0 -6 11 -11 25 -11 35
0 98 -27 90 -39 -5 -9 20 -71 28 -71 2 0 20 9 42 20 58 30 147 27 214 -6 58
-29 121 -100 153 -172 l19 -42 79 0 80 0 0 420 0 420 -480 0 -480 0 0 -107z
m680 -262 c6 -13 6 -22 1 -26 -9 -5 -31 24 -31 39 0 14 20 4 30 -13z"/>
<path d="M0 456 c0 -94 9 -110 16 -30 3 26 7 50 9 54 3 5 -2 21 -10 36 -14 28
-15 25 -15 -60z"/>
<path d="M27 273 c-27 -4 -27 -5 -27 -76 0 -50 3 -67 10 -57 5 8 10 33 10 55
0 45 6 57 35 73 21 12 19 12 -28 5z"/>
<path d="M2 95 c0 -16 2 -22 5 -12 2 9 2 23 0 30 -3 6 -5 -1 -5 -18z"/>
<path d="M1 14 c0 -11 3 -14 6 -6 3 7 2 16 -1 19 -3 4 -6 -2 -5 -13z"/>
</g>
</svg>
