<?xml version="1.0" standalone="no"?>
<!DOCTYPE svg PUBLIC "-//W3C//DTD SVG 20010904//EN"
 "http://www.w3.org/TR/2001/REC-SVG-20010904/DTD/svg10.dtd">
<svg version="1.0" xmlns="http://www.w3.org/2000/svg"
 width="96.000000pt" height="84.000000pt" viewBox="0 0 96.000000 84.000000"
 preserveAspectRatio="xMidYMid meet">
<metadata>
Created by potrace 1.16, written by Peter Selinger 2001-2019
</metadata>
<g transform="translate(0.000000,84.000000) scale(0.100000,-0.100000)"
fill="#000000" stroke="none">
<path d="M360 814 c-17 -20 -7 -104 15 -120 13 -10 14 -16 5 -33 -9 -17 -8
-25 5 -37 21 -21 21 -127 0 -144 -8 -7 -15 -25 -15 -41 0 -16 -8 -37 -18 -47
-13 -13 -17 -29 -14 -53 2 -23 -6 -62 -26 -111 -26 -67 -29 -85 -24 -152 l5
-76 188 0 c174 0 189 1 189 18 0 10 6 27 14 38 16 22 15 109 -2 140 -10 18
-39 124 -45 164 -1 8 -13 35 -27 60 -26 50 -33 97 -24 183 4 36 11 57 19 57
13 0 45 73 45 103 0 21 -55 37 -91 26 -30 -8 -76 -1 -104 16 -34 21 -82 26
-95 9z m207 -581 c-2 -16 -4 -5 -4 22 0 28 2 40 4 28 2 -13 2 -35 0 -50z"/>
</g>
</svg>
