<?xml version="1.0" standalone="no"?>
<!DOCTYPE svg PUBLIC "-//W3C//DTD SVG 20010904//EN"
 "http://www.w3.org/TR/2001/REC-SVG-20010904/DTD/svg10.dtd">
<svg version="1.0" xmlns="http://www.w3.org/2000/svg"
 width="96.000000pt" height="84.000000pt" viewBox="0 0 96.000000 84.000000"
 preserveAspectRatio="xMidYMid meet">
<metadata>
Created by potrace 1.16, written by Peter Selinger 2001-2019
</metadata>
<g transform="translate(0.000000,84.000000) scale(0.100000,-0.100000)"
fill="#000000" stroke="none">
<path d="M0 573 l1 -268 25 49 c33 62 39 133 19 193 -29 85 -5 138 85 192 22
13 52 21 82 21 43 0 47 2 50 28 3 26 4 26 30 -18 29 -48 49 -89 67 -132 8 -22
17 -28 41 -28 21 0 30 -5 30 -16 0 -23 -20 -55 -31 -49 -5 4 -9 -5 -9 -18 0
-13 -12 -34 -26 -48 -20 -18 -25 -32 -22 -56 2 -18 2 -30 -1 -28 -2 3 -9 -5
-15 -18 -7 -12 -25 -25 -41 -28 -32 -6 -32 -6 45 -30 27 -8 45 -20 46 -29 0
-8 4 -28 8 -43 7 -24 12 -27 30 -22 11 4 53 9 93 12 60 4 80 2 117 -17 62 -29
120 -91 153 -160 l28 -59 78 0 77 -1 0 420 0 420 -480 0 -480 0 0 -267z m337
191 c-3 -3 -12 -4 -19 -1 -8 3 -5 6 6 6 11 1 17 -2 13 -5z m336 -280 c8 -8 -3
-34 -14 -34 -5 0 -9 9 -9 20 0 19 11 26 23 14z"/>
<path d="M97 306 c-4 -10 -1 -13 9 -9 7 3 14 9 14 14 0 14 -17 10 -23 -5z"/>
<path d="M25 284 c-24 -26 -25 -32 -25 -156 0 -99 3 -129 13 -125 6 2 13 17
13 33 2 39 13 103 25 134 13 36 19 129 8 135 -5 4 -20 -6 -34 -21z"/>
<path d="M127 33 c-12 -12 -7 -33 8 -33 17 0 19 9 7 28 -5 7 -11 9 -15 5z"/>
</g>
</svg>
