<?xml version="1.0" standalone="no"?>
<!DOCTYPE svg PUBLIC "-//W3C//DTD SVG 20010904//EN"
 "http://www.w3.org/TR/2001/REC-SVG-20010904/DTD/svg10.dtd">
<svg version="1.0" xmlns="http://www.w3.org/2000/svg"
 width="96.000000pt" height="84.000000pt" viewBox="0 0 96.000000 84.000000"
 preserveAspectRatio="xMidYMid meet">
<metadata>
Created by potrace 1.16, written by Peter Selinger 2001-2019
</metadata>
<g transform="translate(0.000000,84.000000) scale(0.100000,-0.100000)"
fill="#000000" stroke="none">
<path d="M0 420 l0 -420 24 0 c31 0 39 12 39 64 -1 22 4 47 9 53 6 7 8 21 5
32 -2 10 0 26 5 36 6 10 12 41 14 69 2 42 1 48 -9 32 -7 -10 -20 -28 -29 -40
-16 -20 -17 -20 -24 -2 -5 12 -2 23 9 31 9 6 25 45 36 86 25 88 24 79 6 79
-18 0 -19 11 -3 45 9 20 8 31 -3 52 -8 14 -14 50 -14 79 0 45 4 57 29 83 39
40 103 71 148 71 29 0 37 4 40 20 2 17 9 13 40 -26 21 -26 43 -64 48 -85 10
-36 44 -68 57 -55 4 3 12 1 19 -4 16 -14 6 -53 -12 -46 -10 4 -14 -3 -14 -23
0 -17 -10 -39 -26 -54 -21 -21 -25 -34 -22 -61 2 -19 1 -33 -3 -31 -3 3 -11
-6 -17 -20 -7 -15 -21 -25 -39 -27 -31 -5 -24 -9 45 -27 23 -7 42 -17 41 -24
-2 -7 3 -30 10 -53 l13 -40 87 0 c71 1 94 -3 134 -23 60 -29 129 -96 156 -150
l21 -41 70 0 70 0 0 420 0 420 -480 0 -480 0 0 -420z m407 364 c-3 -3 -12 -4
-19 -1 -8 3 -5 6 6 6 11 1 17 -2 13 -5z m273 -293 c0 -12 -20 -25 -27 -18 -7
7 6 27 18 27 5 0 9 -4 9 -9z"/>
<path d="M135 320 c-3 -5 -1 -10 4 -10 6 0 11 5 11 10 0 6 -2 10 -4 10 -3 0
-8 -4 -11 -10z"/>
<path d="M171 104 c0 -11 3 -14 6 -6 3 7 2 16 -1 19 -3 4 -6 -2 -5 -13z"/>
<path d="M163 53 c-17 -36 -16 -53 2 -53 11 0 15 11 15 40 0 22 -1 40 -2 40
-2 0 -9 -12 -15 -27z"/>
</g>
</svg>
