<?xml version="1.0" standalone="no"?>
<!DOCTYPE svg PUBLIC "-//W3C//DTD SVG 20010904//EN"
 "http://www.w3.org/TR/2001/REC-SVG-20010904/DTD/svg10.dtd">
<svg version="1.0" xmlns="http://www.w3.org/2000/svg"
 width="96.000000pt" height="84.000000pt" viewBox="0 0 96.000000 84.000000"
 preserveAspectRatio="xMidYMid meet">
<metadata>
Created by potrace 1.16, written by Peter Selinger 2001-2019
</metadata>
<g transform="translate(0.000000,84.000000) scale(0.100000,-0.100000)"
fill="#000000" stroke="none">
<path d="M0 420 l0 -420 51 0 52 0 -7 48 c-3 27 -3 52 1 55 10 10 10 97 1 97
-11 0 -10 34 1 46 15 15 18 179 4 176 -14 -2 -16 22 -4 53 5 13 3 28 -6 42
-21 31 -20 116 1 148 21 32 102 85 130 85 45 0 65 12 68 39 3 26 3 26 22 -9
10 -19 26 -44 36 -55 10 -11 23 -37 29 -57 14 -43 17 -45 55 -52 35 -6 38 -9
30 -30 -4 -9 -13 -15 -20 -12 -10 4 -14 -4 -14 -30 0 -25 -7 -42 -26 -59 -20
-18 -24 -30 -21 -54 3 -17 2 -31 -3 -31 -4 0 -11 -11 -14 -25 -5 -18 -13 -25
-31 -25 -39 0 -29 -17 13 -25 51 -8 55 -12 75 -78 10 -31 23 -55 28 -51 6 3 7
-4 4 -19 -5 -18 -1 -31 14 -46 11 -11 16 -23 10 -26 -22 -14 6 -23 76 -23 102
-1 173 -17 229 -52 39 -25 57 -30 111 -30 l65 0 0 420 0 420 -480 0 -480 0 0
-420z m480 380 c0 -5 -4 -10 -10 -10 -5 0 -10 5 -10 10 0 6 5 10 10 10 6 0 10
-4 10 -10z m187 -306 c-3 -3 -12 -4 -19 -1 -8 3 -5 6 6 6 11 1 17 -2 13 -5z"/>
<path d="M192 20 c0 -14 2 -19 5 -12 2 6 2 18 0 25 -3 6 -5 1 -5 -13z"/>
</g>
</svg>
