<?xml version="1.0" standalone="no"?>
<!DOCTYPE svg PUBLIC "-//W3C//DTD SVG 20010904//EN"
 "http://www.w3.org/TR/2001/REC-SVG-20010904/DTD/svg10.dtd">
<svg version="1.0" xmlns="http://www.w3.org/2000/svg"
 width="96.000000pt" height="84.000000pt" viewBox="0 0 96.000000 84.000000"
 preserveAspectRatio="xMidYMid meet">
<metadata>
Created by potrace 1.16, written by Peter Selinger 2001-2019
</metadata>
<g transform="translate(0.000000,84.000000) scale(0.100000,-0.100000)"
fill="#000000" stroke="none">
<path d="M0 420 l0 -420 63 0 63 0 1 82 c1 47 -3 88 -9 96 -8 9 -8 16 0 24 15
15 16 198 3 198 -6 0 -6 12 1 30 7 22 7 34 -2 45 -20 24 -30 87 -20 126 13 47
65 87 150 116 53 18 65 26 63 43 -5 41 14 17 61 -75 44 -86 51 -95 77 -95 15
0 30 -4 33 -9 9 -14 -4 -41 -20 -41 -8 0 -14 -10 -14 -22 -1 -23 -29 -82 -30
-63 0 6 -5 3 -10 -5 -6 -8 -7 -28 -4 -44 3 -16 2 -31 -2 -35 -5 -3 -14 -15
-20 -26 -7 -11 -21 -20 -33 -19 -39 1 -15 -21 31 -29 40 -8 47 -12 52 -39 5
-26 9 -28 28 -21 47 17 151 9 202 -16 75 -37 155 -127 172 -195 6 -24 10 -26
65 -26 l59 0 0 420 0 419 -480 1 -480 0 0 -420z"/>
</g>
</svg>
