<?xml version="1.0" standalone="no"?>
<!DOCTYPE svg PUBLIC "-//W3C//DTD SVG 20010904//EN"
 "http://www.w3.org/TR/2001/REC-SVG-20010904/DTD/svg10.dtd">
<svg version="1.0" xmlns="http://www.w3.org/2000/svg"
 width="96.000000pt" height="84.000000pt" viewBox="0 0 96.000000 84.000000"
 preserveAspectRatio="xMidYMid meet">
<metadata>
Created by potrace 1.16, written by Peter Selinger 2001-2019
</metadata>
<g transform="translate(0.000000,84.000000) scale(0.100000,-0.100000)"
fill="#000000" stroke="none">
<path d="M0 420 l0 -420 63 0 c35 0 68 5 74 11 15 15 4 150 -15 172 -12 14
-13 22 -4 40 17 31 33 171 21 175 -5 2 -7 19 -3 37 4 21 1 41 -9 56 -60 96 0
204 136 244 46 13 57 20 57 38 0 15 13 3 45 -43 25 -35 45 -71 45 -80 0 -22
20 -40 46 -40 32 0 48 -24 34 -50 -6 -11 -15 -18 -19 -15 -5 2 -11 -13 -15
-35 -4 -26 -12 -40 -21 -40 -10 0 -15 -11 -15 -35 0 -52 -25 -95 -55 -95 -34
0 -32 -18 3 -26 58 -12 77 -21 78 -35 3 -41 13 -47 57 -32 89 31 209 -12 279
-101 34 -43 73 -115 66 -121 -2 -1 -12 -7 -23 -13 -16 -9 -5 -11 58 -12 l77 0
0 420 0 420 -480 0 -480 0 0 -420z"/>
</g>
</svg>
