<?xml version="1.0" standalone="no"?>
<!DOCTYPE svg PUBLIC "-//W3C//DTD SVG 20010904//EN"
 "http://www.w3.org/TR/2001/REC-SVG-20010904/DTD/svg10.dtd">
<svg version="1.0" xmlns="http://www.w3.org/2000/svg"
 width="96.000000pt" height="84.000000pt" viewBox="0 0 96.000000 84.000000"
 preserveAspectRatio="xMidYMid meet">
<metadata>
Created by potrace 1.16, written by Peter Selinger 2001-2019
</metadata>
<g transform="translate(0.000000,84.000000) scale(0.100000,-0.100000)"
fill="#000000" stroke="none">
<path d="M0 420 l0 -420 60 0 c80 0 92 18 95 136 1 55 -1 80 -7 70 -5 -9 -13
-16 -17 -16 -17 0 -21 31 -6 53 20 31 42 170 27 175 -7 2 -8 11 -2 28 7 19 5
34 -10 62 -13 23 -20 56 -20 90 0 49 3 55 47 97 31 30 65 51 100 62 40 13 53
21 53 36 0 28 75 -55 100 -110 17 -39 49 -61 69 -49 5 3 13 0 19 -7 12 -15 -3
-61 -18 -52 -6 4 -10 -6 -10 -25 0 -18 -8 -37 -20 -47 -12 -11 -20 -30 -20
-49 0 -54 -19 -94 -45 -94 -27 0 -44 -18 -23 -24 59 -17 107 -39 102 -47 -3
-5 -3 -18 1 -28 5 -16 11 -17 50 -9 88 19 197 -22 268 -101 33 -37 83 -119 75
-125 -2 -2 -12 -8 -23 -14 -16 -9 -8 -11 48 -12 l67 0 0 420 0 420 -480 0
-480 0 0 -420z m640 99 c0 -6 -4 -7 -10 -4 -5 3 -10 11 -10 16 0 6 5 7 10 4 6
-3 10 -11 10 -16z m-623 -61 c-3 -8 -6 -5 -6 6 -1 11 2 17 5 13 3 -3 4 -12 1
-19z"/>
</g>
</svg>
