<?xml version="1.0" standalone="no"?>
<!DOCTYPE svg PUBLIC "-//W3C//DTD SVG 20010904//EN"
 "http://www.w3.org/TR/2001/REC-SVG-20010904/DTD/svg10.dtd">
<svg version="1.0" xmlns="http://www.w3.org/2000/svg"
 width="96.000000pt" height="84.000000pt" viewBox="0 0 96.000000 84.000000"
 preserveAspectRatio="xMidYMid meet">
<metadata>
Created by potrace 1.16, written by Peter Selinger 2001-2019
</metadata>
<g transform="translate(0.000000,84.000000) scale(0.100000,-0.100000)"
fill="#000000" stroke="none">
<path d="M0 420 l0 -420 59 0 c56 0 60 2 79 33 23 41 36 171 16 163 -19 -7
-28 32 -12 48 17 17 44 176 32 185 -5 3 -10 22 -10 41 -1 19 -9 55 -19 80 -26
66 -15 109 43 165 30 29 63 51 92 59 32 9 46 19 48 34 3 18 8 16 47 -22 24
-23 51 -59 60 -79 16 -40 30 -49 74 -51 14 -1 26 -7 25 -13 -1 -7 -2 -20 -3
-29 0 -10 -7 -14 -16 -10 -12 4 -15 -3 -15 -29 0 -19 -8 -41 -17 -51 -10 -10
-19 -34 -19 -53 -2 -60 -22 -101 -50 -101 -15 0 -24 -6 -24 -15 0 -8 7 -15 15
-15 32 0 94 -32 94 -48 -1 -26 32 -112 42 -112 5 0 6 -6 4 -12 -4 -10 18 -13
87 -14 80 0 100 -4 144 -27 66 -33 120 -93 103 -113 -10 -12 -4 -14 35 -14
l46 0 0 420 0 420 -480 0 -480 0 0 -420z m625 129 c11 -17 0 -20 -21 -4 -17
13 -17 14 -2 15 9 0 20 -5 23 -11z"/>
</g>
</svg>
