<?xml version="1.0" standalone="no"?>
<!DOCTYPE svg PUBLIC "-//W3C//DTD SVG 20010904//EN"
 "http://www.w3.org/TR/2001/REC-SVG-20010904/DTD/svg10.dtd">
<svg version="1.0" xmlns="http://www.w3.org/2000/svg"
 width="96.000000pt" height="84.000000pt" viewBox="0 0 96.000000 84.000000"
 preserveAspectRatio="xMidYMid meet">
<metadata>
Created by potrace 1.16, written by Peter Selinger 2001-2019
</metadata>
<g transform="translate(0.000000,84.000000) scale(0.100000,-0.100000)"
fill="#000000" stroke="none">
<path d="M0 420 l0 -420 59 0 c54 0 62 3 79 28 23 31 37 120 23 142 -7 10 -6
19 3 30 20 22 41 171 26 180 -7 4 -9 20 -5 41 4 24 0 46 -15 74 -38 74 -20
142 54 201 20 16 57 36 83 45 44 15 48 18 45 45 -2 16 -2 27 1 24 17 -16 95
-123 109 -149 14 -26 23 -31 53 -31 28 0 35 -4 35 -20 0 -13 -7 -20 -18 -20
-16 0 -19 -8 -18 -45 1 -32 -4 -48 -17 -57 -12 -9 -17 -24 -16 -48 3 -54 -18
-100 -47 -100 -44 0 -25 -25 33 -45 50 -17 58 -24 58 -45 0 -24 2 -25 75 -26
116 -2 207 -53 274 -154 21 -33 21 -37 -11 -54 -27 -15 -27 -15 35 -16 l62 0
0 420 0 420 -480 0 -480 0 0 -420z m608 112 c2 -7 -3 -12 -12 -12 -9 0 -16 7
-16 16 0 17 22 14 28 -4z"/>
</g>
</svg>
