<?xml version="1.0" standalone="no"?>
<!DOCTYPE svg PUBLIC "-//W3C//DTD SVG 20010904//EN"
 "http://www.w3.org/TR/2001/REC-SVG-20010904/DTD/svg10.dtd">
<svg version="1.0" xmlns="http://www.w3.org/2000/svg"
 width="96.000000pt" height="84.000000pt" viewBox="0 0 96.000000 84.000000"
 preserveAspectRatio="xMidYMid meet">
<metadata>
Created by potrace 1.16, written by Peter Selinger 2001-2019
</metadata>
<g transform="translate(0.000000,84.000000) scale(0.100000,-0.100000)"
fill="#000000" stroke="none">
<path d="M0 420 l0 -420 56 0 c69 0 93 22 94 90 2 60 23 157 38 172 18 18 15
93 -4 109 -11 9 -14 22 -10 42 4 20 0 40 -13 61 -24 40 -34 88 -26 125 10 46
91 118 153 138 51 16 53 19 48 45 -3 15 -4 28 -2 28 8 0 93 -126 100 -148 8
-25 38 -44 58 -37 22 8 41 -11 33 -34 -3 -11 -12 -21 -18 -21 -7 0 -12 -16
-13 -36 0 -23 -7 -42 -18 -50 -12 -9 -17 -23 -15 -48 2 -19 0 -38 -4 -42 -4
-4 -7 -18 -7 -31 0 -19 -5 -23 -30 -23 -39 0 -41 -27 -2 -36 15 -4 43 -14 62
-22 21 -9 68 -16 115 -16 61 -1 89 -6 120 -23 58 -31 155 -139 155 -172 0 -5
-24 -23 -52 -40 l-53 -31 98 0 97 0 0 420 0 420 -480 0 -480 0 0 -420z m585
67 c-20 -11 -29 -3 -21 19 5 13 9 14 22 3 14 -11 14 -13 -1 -22z"/>
</g>
</svg>
