<?xml version="1.0" standalone="no"?>
<!DOCTYPE svg PUBLIC "-//W3C//DTD SVG 20010904//EN"
 "http://www.w3.org/TR/2001/REC-SVG-20010904/DTD/svg10.dtd">
<svg version="1.0" xmlns="http://www.w3.org/2000/svg"
 width="96.000000pt" height="84.000000pt" viewBox="0 0 96.000000 84.000000"
 preserveAspectRatio="xMidYMid meet">
<metadata>
Created by potrace 1.16, written by Peter Selinger 2001-2019
</metadata>
<g transform="translate(0.000000,84.000000) scale(0.100000,-0.100000)"
fill="#000000" stroke="none">
<path d="M0 420 l0 -420 50 0 c61 0 67 10 68 108 1 40 6 82 12 93 6 11 8 29 5
40 -4 13 0 28 12 41 23 26 23 106 -1 123 -11 9 -14 21 -11 41 4 19 -1 43 -15
69 -53 102 6 213 133 246 43 12 47 16 47 43 l0 29 33 -43 c17 -23 46 -66 62
-94 26 -43 36 -51 60 -51 27 0 30 -3 30 -30 0 -19 -5 -29 -12 -27 -8 1 -13 -9
-13 -27 0 -15 -9 -39 -19 -53 -20 -24 -24 -89 -8 -116 6 -8 1 -12 -12 -12 -12
0 -21 -4 -21 -9 0 -5 -10 -11 -22 -13 -38 -5 -23 -22 36 -42 45 -16 56 -24 56
-41 0 -22 1 -22 53 -8 82 21 163 2 239 -58 39 -32 108 -124 108 -145 0 -7 -19
-24 -43 -38 l-42 -25 88 -1 87 0 0 420 0 420 -480 0 -480 0 0 -420z m590 60
c0 -5 -6 -10 -14 -10 -8 0 -18 5 -21 10 -3 6 3 10 14 10 12 0 21 -4 21 -10z"/>
<path d="M425 27 c-4 -10 -5 -21 -1 -24 10 -10 18 4 13 24 -4 17 -4 17 -12 0z"/>
</g>
</svg>
