<?xml version="1.0" standalone="no"?>
<!DOCTYPE svg PUBLIC "-//W3C//DTD SVG 20010904//EN"
 "http://www.w3.org/TR/2001/REC-SVG-20010904/DTD/svg10.dtd">
<svg version="1.0" xmlns="http://www.w3.org/2000/svg"
 width="96.000000pt" height="84.000000pt" viewBox="0 0 96.000000 84.000000"
 preserveAspectRatio="xMidYMid meet">
<metadata>
Created by potrace 1.16, written by Peter Selinger 2001-2019
</metadata>
<g transform="translate(0.000000,84.000000) scale(0.100000,-0.100000)"
fill="#000000" stroke="none">
<path d="M352 775 c3 -50 9 -71 22 -81 14 -9 17 -20 12 -39 -4 -16 -2 -33 6
-42 20 -24 17 -137 -4 -160 -10 -11 -18 -35 -18 -54 0 -22 -7 -41 -20 -52 -17
-14 -18 -21 -10 -37 13 -25 5 -73 -27 -162 -17 -49 -22 -77 -17 -107 l7 -41
231 0 231 0 -1 52 c-1 37 -15 83 -45 153 -23 55 -41 112 -40 128 1 15 -4 27
-9 27 -6 0 -22 24 -35 53 -20 43 -24 65 -20 116 2 35 6 66 9 69 4 3 4 20 0 38
-5 27 -3 32 12 31 14 -2 23 11 36 51 9 29 15 59 12 67 -9 23 -69 38 -106 26
-42 -13 -91 -9 -112 8 -9 8 -40 16 -68 19 l-51 5 5 -68z m272 -640 c4 -60 5
-107 2 -104 -12 11 -36 201 -29 227 5 23 7 24 13 6 4 -10 10 -68 14 -129z"/>
</g>
</svg>
