<?xml version="1.0" standalone="no"?>
<!DOCTYPE svg PUBLIC "-//W3C//DTD SVG 20010904//EN"
 "http://www.w3.org/TR/2001/REC-SVG-20010904/DTD/svg10.dtd">
<svg version="1.0" xmlns="http://www.w3.org/2000/svg"
 width="96.000000pt" height="84.000000pt" viewBox="0 0 96.000000 84.000000"
 preserveAspectRatio="xMidYMid meet">
<metadata>
Created by potrace 1.16, written by Peter Selinger 2001-2019
</metadata>
<g transform="translate(0.000000,84.000000) scale(0.100000,-0.100000)"
fill="#000000" stroke="none">
<path d="M0 419 l0 -420 43 3 42 3 2 45 c3 66 10 111 22 157 6 22 9 48 5 56
-3 8 -1 18 5 22 15 9 14 145 0 145 -7 0 -9 11 -6 30 4 19 -1 45 -14 76 -23 51
-21 99 6 140 26 39 93 83 140 90 37 5 44 10 47 31 3 23 5 22 38 -23 19 -26 41
-59 48 -73 7 -14 17 -33 21 -41 4 -8 23 -17 42 -20 19 -3 34 -11 33 -17 -2
-29 -5 -32 -20 -26 -12 4 -15 0 -14 -18 4 -44 0 -58 -21 -78 -16 -15 -19 -27
-15 -55 4 -21 2 -36 -4 -36 -6 0 -10 -9 -10 -20 0 -15 -9 -22 -30 -27 -44 -8
-33 -24 32 -45 52 -18 56 -21 62 -56 10 -61 17 -66 72 -54 85 18 179 -4 256
-59 29 -21 88 -94 88 -110 0 -5 -12 -15 -27 -23 -27 -15 -25 -15 45 -16 l72 0
0 420 0 420 -480 0 -480 0 0 -421z"/>
</g>
</svg>
