<?xml version="1.0" standalone="no"?>
<!DOCTYPE svg PUBLIC "-//W3C//DTD SVG 20010904//EN"
 "http://www.w3.org/TR/2001/REC-SVG-20010904/DTD/svg10.dtd">
<svg version="1.0" xmlns="http://www.w3.org/2000/svg"
 width="96.000000pt" height="84.000000pt" viewBox="0 0 96.000000 84.000000"
 preserveAspectRatio="xMidYMid meet">
<metadata>
Created by potrace 1.16, written by Peter Selinger 2001-2019
</metadata>
<g transform="translate(0.000000,84.000000) scale(0.100000,-0.100000)"
fill="#000000" stroke="none">
<path d="M0 420 l0 -420 29 0 c22 0 30 6 35 24 3 14 3 32 0 40 -3 9 -2 22 4
29 17 21 19 91 2 103 -12 10 -12 16 -3 35 36 71 50 229 27 285 -18 43 -18 98
1 133 20 39 98 89 150 97 38 5 44 10 47 32 3 23 7 20 46 -38 23 -35 42 -69 42
-77 0 -22 38 -53 66 -53 19 0 25 -4 22 -17 -2 -10 -12 -17 -22 -16 -13 1 -16
-4 -13 -19 7 -25 -8 -67 -30 -83 -11 -8 -14 -23 -11 -47 2 -19 -1 -40 -7 -46
-5 -6 -16 -18 -23 -26 -6 -9 -19 -13 -27 -10 -9 4 -15 0 -15 -9 0 -10 21 -22
58 -34 l57 -20 9 -53 c4 -29 13 -58 20 -64 6 -6 55 -11 111 -12 55 0 110 -3
121 -6 83 -23 162 -95 155 -140 0 -5 24 -8 54 -8 l55 0 0 420 0 420 -480 0
-480 0 0 -420z m592 55 c0 -5 -5 -11 -11 -13 -6 -2 -11 4 -11 13 0 9 5 15 11
13 6 -2 11 -8 11 -13z"/>
</g>
</svg>
