<?xml version="1.0" standalone="no"?>
<!DOCTYPE svg PUBLIC "-//W3C//DTD SVG 20010904//EN"
 "http://www.w3.org/TR/2001/REC-SVG-20010904/DTD/svg10.dtd">
<svg version="1.0" xmlns="http://www.w3.org/2000/svg"
 width="96.000000pt" height="84.000000pt" viewBox="0 0 96.000000 84.000000"
 preserveAspectRatio="xMidYMid meet">
<metadata>
Created by potrace 1.16, written by Peter Selinger 2001-2019
</metadata>
<g transform="translate(0.000000,84.000000) scale(0.100000,-0.100000)"
fill="#000000" stroke="none">
<path d="M0 420 c0 -413 0 -420 20 -420 11 0 21 5 21 10 1 6 3 22 5 38 6 55
16 98 30 129 18 39 18 52 1 28 -8 -10 -19 -15 -25 -11 -15 9 -16 36 -2 36 21
0 63 148 48 167 -5 7 -7 26 -3 42 4 21 1 38 -9 53 -10 13 -16 43 -16 74 0 42
5 59 25 83 37 43 88 72 143 79 40 6 48 11 50 31 4 22 7 20 34 -24 17 -27 39
-68 49 -92 15 -36 29 -50 42 -41 1 1 12 -4 24 -10 24 -13 21 -57 -3 -48 -10 4
-14 -3 -14 -24 0 -17 -9 -39 -20 -50 -11 -11 -20 -33 -20 -48 0 -47 -28 -92
-57 -92 -41 0 -21 -23 34 -40 27 -8 57 -21 66 -28 12 -11 20 -11 38 -2 12 7
48 12 79 13 107 1 207 -68 265 -182 l25 -50 -37 -20 -38 -20 103 -1 102 0 0
420 0 420 -480 0 -480 0 0 -420z m610 60 c-12 -22 -25 -26 -36 -9 -7 12 12 29
34 29 10 0 10 -5 2 -20z"/>
</g>
</svg>
