<?xml version="1.0" standalone="no"?>
<!DOCTYPE svg PUBLIC "-//W3C//DTD SVG 20010904//EN"
 "http://www.w3.org/TR/2001/REC-SVG-20010904/DTD/svg10.dtd">
<svg version="1.0" xmlns="http://www.w3.org/2000/svg"
 width="96.000000pt" height="84.000000pt" viewBox="0 0 96.000000 84.000000"
 preserveAspectRatio="xMidYMid meet">
<metadata>
Created by potrace 1.16, written by Peter Selinger 2001-2019
</metadata>
<g transform="translate(0.000000,84.000000) scale(0.100000,-0.100000)"
fill="#000000" stroke="none">
<path d="M0 420 c0 -301 3 -420 11 -420 7 0 9 12 5 34 -4 20 -2 37 4 41 5 3
10 23 10 44 0 20 4 41 10 47 5 5 11 29 12 53 1 24 6 45 12 47 17 6 18 105 1
130 -9 14 -12 35 -8 58 3 21 1 42 -6 50 -22 26 -24 108 -4 146 24 46 99 92
163 98 44 4 49 7 52 30 3 23 7 19 40 -37 20 -34 42 -77 48 -96 11 -32 33 -50
50 -40 12 8 33 -23 26 -40 -3 -8 -11 -14 -18 -13 -7 2 -13 -4 -14 -12 0 -8 -2
-23 -2 -33 -1 -9 -11 -25 -22 -34 -12 -11 -20 -30 -20 -50 0 -32 -16 -71 -34
-84 -4 -4 -17 -4 -28 -1 -15 3 -19 1 -16 -9 3 -8 27 -21 54 -29 62 -19 77 -29
70 -46 -7 -17 -1 -17 49 1 127 46 268 -22 345 -166 31 -59 32 -63 15 -76 -16
-11 -7 -13 68 -13 l87 0 0 420 0 420 -480 0 -480 0 0 -420z m611 87 c-1 -4 -1
-14 -1 -22 0 -8 -7 -15 -15 -15 -16 0 -19 9 -9 35 6 15 26 17 25 2z"/>
</g>
</svg>
