<?xml version="1.0" standalone="no"?>
<!DOCTYPE svg PUBLIC "-//W3C//DTD SVG 20010904//EN"
 "http://www.w3.org/TR/2001/REC-SVG-20010904/DTD/svg10.dtd">
<svg version="1.0" xmlns="http://www.w3.org/2000/svg"
 width="96.000000pt" height="84.000000pt" viewBox="0 0 96.000000 84.000000"
 preserveAspectRatio="xMidYMid meet">
<metadata>
Created by potrace 1.16, written by Peter Selinger 2001-2019
</metadata>
<g transform="translate(0.000000,84.000000) scale(0.100000,-0.100000)"
fill="#000000" stroke="none">
<path d="M0 758 l0 -82 28 25 c47 43 79 58 136 65 46 6 56 10 56 25 0 11 3 19
8 19 10 -1 82 -126 82 -145 0 -23 37 -55 65 -55 31 0 34 -29 5 -37 -15 -4 -20
-14 -20 -37 0 -22 -8 -40 -25 -56 -20 -19 -24 -30 -20 -62 3 -21 1 -38 -5 -38
-5 0 -7 -6 -4 -14 5 -13 -22 -29 -50 -31 -5 0 -11 -4 -13 -10 -1 -5 23 -18 56
-27 57 -17 59 -19 65 -58 3 -22 8 -40 9 -40 2 0 25 7 51 16 59 20 144 15 209
-14 59 -26 138 -100 168 -157 l24 -45 67 0 68 0 0 420 0 420 -480 0 -480 0 0
-82z m596 -213 c4 -8 3 -23 0 -32 -6 -15 -8 -15 -16 -3 -13 20 -12 50 0 50 6
0 13 -7 16 -15z"/>
<path d="M0 483 c0 -18 2 -33 4 -33 9 0 13 39 5 51 -6 10 -9 4 -9 -18z"/>
<path d="M0 324 c0 -70 2 -83 13 -72 8 8 14 42 15 86 2 59 0 72 -13 72 -12 0
-15 -15 -15 -86z"/>
<path d="M2 205 c0 -16 2 -22 5 -12 2 9 2 23 0 30 -3 6 -5 -1 -5 -18z"/>
</g>
</svg>
