<?xml version="1.0" standalone="no"?>
<!DOCTYPE svg PUBLIC "-//W3C//DTD SVG 20010904//EN"
 "http://www.w3.org/TR/2001/REC-SVG-20010904/DTD/svg10.dtd">
<svg version="1.0" xmlns="http://www.w3.org/2000/svg"
 width="96.000000pt" height="84.000000pt" viewBox="0 0 96.000000 84.000000"
 preserveAspectRatio="xMidYMid meet">
<metadata>
Created by potrace 1.16, written by Peter Selinger 2001-2019
</metadata>
<g transform="translate(0.000000,84.000000) scale(0.100000,-0.100000)"
fill="#000000" stroke="none">
<path d="M0 790 c0 -27 2 -50 5 -50 3 0 17 7 30 16 15 10 48 17 80 18 51 1 55
3 61 29 6 27 7 27 41 -30 20 -32 44 -78 53 -103 15 -38 23 -46 54 -54 38 -10
49 -35 18 -43 -13 -3 -18 -15 -19 -41 -1 -25 -9 -43 -25 -57 -19 -16 -22 -28
-20 -63 2 -32 0 -42 -9 -36 -8 5 -10 -1 -7 -20 4 -20 1 -26 -13 -27 -38 -3
-42 -4 -46 -14 -2 -6 23 -17 54 -25 44 -11 59 -20 61 -35 6 -39 25 -75 38 -75
8 0 14 -10 14 -24 0 -13 7 -27 16 -30 11 -4 14 -13 10 -29 -11 -45 4 -51 131
-53 138 -2 161 -6 215 -35 10 -5 63 -9 118 -9 l100 0 0 420 0 420 -480 0 -480
0 0 -50z m576 -224 c7 -28 -2 -49 -17 -41 -12 8 -12 65 1 65 5 0 12 -11 16
-24z m-30 -464 c-9 -8 -26 10 -26 26 1 15 2 15 15 -2 8 -11 13 -21 11 -24z"/>
</g>
</svg>
