<?xml version="1.0" standalone="no"?>
<!DOCTYPE svg PUBLIC "-//W3C//DTD SVG 20010904//EN"
 "http://www.w3.org/TR/2001/REC-SVG-20010904/DTD/svg10.dtd">
<svg version="1.0" xmlns="http://www.w3.org/2000/svg"
 width="96.000000pt" height="84.000000pt" viewBox="0 0 96.000000 84.000000"
 preserveAspectRatio="xMidYMid meet">
<metadata>
Created by potrace 1.16, written by Peter Selinger 2001-2019
</metadata>
<g transform="translate(0.000000,84.000000) scale(0.100000,-0.100000)"
fill="#000000" stroke="none">
<path d="M0 784 c0 -47 3 -55 16 -50 9 3 38 6 65 6 42 0 49 3 49 19 0 56 13
52 53 -16 22 -37 48 -87 58 -110 16 -38 23 -43 58 -49 l40 -6 -24 -47 c-14
-25 -25 -53 -25 -62 0 -9 -9 -24 -21 -35 -16 -14 -20 -28 -17 -60 2 -24 -1
-42 -7 -41 -5 1 -14 -13 -20 -31 -8 -29 -12 -32 -37 -27 -57 13 -26 -11 33
-25 57 -14 62 -17 74 -53 7 -21 15 -40 17 -42 2 -3 25 7 52 20 89 45 189 43
282 -6 46 -25 117 -91 145 -136 20 -32 22 -33 95 -33 l74 0 0 420 0 420 -480
0 -480 0 0 -56z m550 -256 c0 -10 -5 -18 -10 -18 -14 0 -29 41 -22 59 4 11 8
10 19 -5 7 -10 13 -26 13 -36z"/>
</g>
</svg>
