<?xml version="1.0" standalone="no"?>
<!DOCTYPE svg PUBLIC "-//W3C//DTD SVG 20010904//EN"
 "http://www.w3.org/TR/2001/REC-SVG-20010904/DTD/svg10.dtd">
<svg version="1.0" xmlns="http://www.w3.org/2000/svg"
 width="96.000000pt" height="84.000000pt" viewBox="0 0 96.000000 84.000000"
 preserveAspectRatio="xMidYMid meet">
<metadata>
Created by potrace 1.16, written by Peter Selinger 2001-2019
</metadata>
<g transform="translate(0.000000,84.000000) scale(0.100000,-0.100000)"
fill="#000000" stroke="none">
<path d="M0 800 c0 -38 1 -40 33 -40 60 0 79 10 73 36 -9 35 9 29 33 -10 12
-19 32 -41 45 -49 13 -9 34 -40 46 -71 23 -54 55 -81 84 -70 24 9 28 -15 8
-44 -11 -15 -23 -42 -27 -59 -3 -18 -16 -40 -28 -48 -19 -13 -20 -19 -11 -65
9 -41 8 -48 -3 -39 -10 9 -13 7 -13 -7 -1 -28 -24 -54 -49 -54 -30 0 -26 -19
7 -26 56 -12 97 -30 97 -44 1 -23 26 -80 36 -80 5 0 28 10 51 23 34 17 59 22
123 22 103 0 157 -25 242 -112 l61 -63 76 0 76 0 0 420 0 420 -480 0 -480 0 0
-40z m520 -298 c0 -21 -2 -22 -15 -12 -8 7 -15 27 -15 44 1 29 1 30 15 12 8
-11 15 -31 15 -44z m-125 -2 c-3 -5 -10 -10 -16 -10 -5 0 -9 5 -9 10 0 6 7 10
16 10 8 0 12 -4 9 -10z"/>
</g>
</svg>
