<?xml version="1.0" standalone="no"?>
<!DOCTYPE svg PUBLIC "-//W3C//DTD SVG 20010904//EN"
 "http://www.w3.org/TR/2001/REC-SVG-20010904/DTD/svg10.dtd">
<svg version="1.0" xmlns="http://www.w3.org/2000/svg"
 width="96.000000pt" height="84.000000pt" viewBox="0 0 96.000000 84.000000"
 preserveAspectRatio="xMidYMid meet">
<metadata>
Created by potrace 1.16, written by Peter Selinger 2001-2019
</metadata>
<g transform="translate(0.000000,84.000000) scale(0.100000,-0.100000)"
fill="#000000" stroke="none">
<path d="M0 812 c0 -26 2 -28 35 -24 29 3 35 8 35 28 0 21 -5 24 -35 24 -32 0
-35 -3 -35 -28z"/>
<path d="M96 819 c10 -12 35 -32 56 -45 24 -15 45 -42 64 -79 29 -61 36 -66
84 -68 16 -1 29 -6 29 -12 -6 -30 -12 -45 -20 -45 -5 0 -9 -17 -9 -39 0 -26
-7 -46 -24 -64 -21 -22 -23 -31 -16 -69 5 -23 5 -45 2 -48 -4 -3 -15 -18 -24
-35 -10 -19 -26 -31 -42 -33 -48 -6 -28 -28 39 -41 36 -7 65 -16 66 -20 0 -3
2 -15 3 -26 2 -11 9 -39 16 -63 13 -41 15 -43 44 -35 17 4 72 8 121 8 82 0 96
-3 157 -34 37 -18 75 -42 84 -52 15 -16 32 -19 126 -19 l108 0 0 420 0 420
-442 0 -441 0 19 -21z m404 -313 c-1 -21 -1 -21 -15 -2 -8 11 -15 29 -15 40 1
21 1 21 15 2 8 -11 15 -29 15 -40z m-25 -46 c-3 -5 -11 -10 -16 -10 -6 0 -7 5
-4 10 3 6 11 10 16 10 6 0 7 -4 4 -10z"/>
</g>
</svg>
