<?xml version="1.0" standalone="no"?>
<!DOCTYPE svg PUBLIC "-//W3C//DTD SVG 20010904//EN"
 "http://www.w3.org/TR/2001/REC-SVG-20010904/DTD/svg10.dtd">
<svg version="1.0" xmlns="http://www.w3.org/2000/svg"
 width="96.000000pt" height="84.000000pt" viewBox="0 0 96.000000 84.000000"
 preserveAspectRatio="xMidYMid meet">
<metadata>
Created by potrace 1.16, written by Peter Selinger 2001-2019
</metadata>
<g transform="translate(0.000000,84.000000) scale(0.100000,-0.100000)"
fill="#000000" stroke="none">
<path d="M2 810 c0 -19 2 -27 5 -17 2 9 2 25 0 35 -3 9 -5 1 -5 -18z"/>
<path d="M97 772 c39 -37 78 -81 87 -99 20 -40 29 -45 77 -45 43 1 45 -2 24
-38 -8 -14 -14 -44 -15 -68 0 -42 -14 -81 -32 -93 -9 -6 1 -62 18 -104 7 -18
6 -18 -9 -6 -15 12 -17 11 -17 -3 0 -18 -20 -57 -35 -68 -5 -4 -20 -8 -32 -8
-25 0 -30 -14 -11 -26 6 -4 39 -12 72 -18 58 -11 61 -12 67 -46 15 -72 37
-125 52 -124 9 1 13 -4 10 -12 -4 -12 45 -14 301 -14 l306 0 0 420 0 420 -467
0 -468 -1 72 -67z m392 -252 c0 -9 -6 -4 -14 10 -8 14 -14 32 -14 40 0 9 6 4
14 -10 8 -14 14 -32 14 -40z"/>
</g>
</svg>
