<?xml version="1.0" standalone="no"?>
<!DOCTYPE svg PUBLIC "-//W3C//DTD SVG 20010904//EN"
 "http://www.w3.org/TR/2001/REC-SVG-20010904/DTD/svg10.dtd">
<svg version="1.0" xmlns="http://www.w3.org/2000/svg"
 width="96.000000pt" height="84.000000pt" viewBox="0 0 96.000000 84.000000"
 preserveAspectRatio="xMidYMid meet">
<metadata>
Created by potrace 1.16, written by Peter Selinger 2001-2019
</metadata>
<g transform="translate(0.000000,84.000000) scale(0.100000,-0.100000)"
fill="#000000" stroke="none">
<path d="M355 810 c-10 -16 4 -103 21 -135 8 -15 14 -38 14 -52 0 -13 5 -33
10 -43 7 -13 6 -50 -5 -119 -8 -56 -15 -116 -15 -135 0 -21 -6 -36 -15 -40
-12 -4 -14 -17 -9 -63 5 -44 1 -77 -15 -134 -11 -41 -21 -78 -21 -82 0 -4 75
-7 166 -7 l166 0 -6 38 c-3 20 -9 67 -12 105 -6 57 -4 67 9 67 22 0 37 -31 37
-78 0 -22 3 -60 6 -86 l7 -46 74 0 c68 0 74 2 68 18 -5 9 -20 52 -35 94 -15
42 -37 92 -49 111 -11 19 -21 46 -21 60 0 20 -6 28 -25 33 -37 9 -58 64 -58
152 0 60 3 75 19 86 18 14 18 16 1 50 l-17 36 24 -6 c18 -4 25 -1 30 18 13 43
17 123 7 137 -11 18 -102 20 -123 4 -18 -14 -75 -9 -120 11 -42 18 -104 21
-113 6z"/>
</g>
</svg>
