<?xml version="1.0" standalone="no"?>
<!DOCTYPE svg PUBLIC "-//W3C//DTD SVG 20010904//EN"
 "http://www.w3.org/TR/2001/REC-SVG-20010904/DTD/svg10.dtd">
<svg version="1.0" xmlns="http://www.w3.org/2000/svg"
 width="96.000000pt" height="84.000000pt" viewBox="0 0 96.000000 84.000000"
 preserveAspectRatio="xMidYMid meet">
<metadata>
Created by potrace 1.16, written by Peter Selinger 2001-2019
</metadata>
<g transform="translate(0.000000,84.000000) scale(0.100000,-0.100000)"
fill="#000000" stroke="none">
<path d="M0 783 c0 -54 2 -60 35 -86 19 -15 49 -49 67 -76 34 -53 72 -70 110
-50 11 6 26 8 35 5 12 -5 13 -9 3 -21 -7 -9 -10 -18 -7 -22 3 -3 0 -17 -7 -32
-7 -14 -17 -48 -20 -76 -4 -27 -14 -60 -22 -73 -8 -13 -13 -31 -10 -40 3 -9 6
-21 7 -27 0 -5 7 -25 15 -44 l14 -34 -21 19 -22 19 6 -30 c4 -16 9 -40 13 -53
5 -17 3 -21 -9 -16 -9 3 -25 -3 -36 -13 -12 -10 -30 -26 -40 -35 -11 -9 -22
-14 -25 -12 -3 2 -3 1 0 -3 3 -5 42 -15 87 -24 71 -13 82 -18 85 -37 l3 -22
350 0 349 0 0 420 0 420 -480 0 -480 0 0 -57z m484 -246 c11 -8 17 -19 15 -26
-3 -8 -13 -3 -28 13 -26 28 -17 35 13 13z"/>
</g>
</svg>
