<?xml version="1.0" standalone="no"?>
<!DOCTYPE svg PUBLIC "-//W3C//DTD SVG 20010904//EN"
 "http://www.w3.org/TR/2001/REC-SVG-20010904/DTD/svg10.dtd">
<svg version="1.0" xmlns="http://www.w3.org/2000/svg"
 width="96.000000pt" height="84.000000pt" viewBox="0 0 96.000000 84.000000"
 preserveAspectRatio="xMidYMid meet">
<metadata>
Created by potrace 1.16, written by Peter Selinger 2001-2019
</metadata>
<g transform="translate(0.000000,84.000000) scale(0.100000,-0.100000)"
fill="#000000" stroke="none">
<path d="M0 764 c0 -63 4 -83 25 -119 23 -38 31 -43 68 -47 25 -3 50 1 63 9
28 18 61 -4 49 -33 -4 -10 -9 -35 -10 -54 -4 -56 -17 -125 -26 -130 -11 -8
-41 -90 -46 -131 -3 -24 0 -41 11 -52 9 -8 11 -17 6 -19 -6 -2 -2 -19 9 -41
10 -20 15 -37 11 -37 -5 0 -12 4 -15 10 -3 5 -16 15 -27 21 -18 10 -20 9 -14
-6 3 -9 9 -29 12 -43 5 -21 4 -25 -6 -15 -20 19 -38 -6 -30 -42 l6 -30 437 -3
437 -2 0 420 0 420 -480 0 -480 0 0 -76z m470 -271 c0 -28 -3 -34 -10 -23 -13
20 -13 60 0 60 6 0 10 -17 10 -37z"/>
<path d="M48 3 c7 -3 16 -2 19 1 4 3 -2 6 -13 5 -11 0 -14 -3 -6 -6z"/>
</g>
</svg>
