<?xml version="1.0" standalone="no"?>
<!DOCTYPE svg PUBLIC "-//W3C//DTD SVG 20010904//EN"
 "http://www.w3.org/TR/2001/REC-SVG-20010904/DTD/svg10.dtd">
<svg version="1.0" xmlns="http://www.w3.org/2000/svg"
 width="96.000000pt" height="84.000000pt" viewBox="0 0 96.000000 84.000000"
 preserveAspectRatio="xMidYMid meet">
<metadata>
Created by potrace 1.16, written by Peter Selinger 2001-2019
</metadata>
<g transform="translate(0.000000,84.000000) scale(0.100000,-0.100000)"
fill="#000000" stroke="none">
<path d="M0 639 c0 -175 2 -200 14 -189 37 30 90 -10 68 -52 -7 -13 -12 -41
-10 -63 5 -88 -1 -145 -17 -145 -10 0 -15 -10 -15 -30 0 -16 -9 -44 -20 -62
-11 -18 -20 -48 -20 -65 l0 -33 480 0 480 0 0 420 0 420 -480 0 -480 0 0 -201z
m464 -139 c9 -22 16 -48 16 -58 1 -9 7 -34 14 -55 17 -47 3 -38 -49 33 -43 59
-62 105 -40 96 9 -3 18 1 21 9 10 25 21 17 38 -25z"/>
</g>
</svg>
