<?xml version="1.0" standalone="no"?>
<!DOCTYPE svg PUBLIC "-//W3C//DTD SVG 20010904//EN"
 "http://www.w3.org/TR/2001/REC-SVG-20010904/DTD/svg10.dtd">
<svg version="1.0" xmlns="http://www.w3.org/2000/svg"
 width="96.000000pt" height="84.000000pt" viewBox="0 0 96.000000 84.000000"
 preserveAspectRatio="xMidYMid meet">
<metadata>
Created by potrace 1.16, written by Peter Selinger 2001-2019
</metadata>
<g transform="translate(0.000000,84.000000) scale(0.100000,-0.100000)"
fill="#000000" stroke="none">
<path d="M635 816 c-30 -20 -98 -26 -120 -10 -19 14 -83 18 -122 8 -29 -8 -30
-52 -3 -113 11 -23 17 -47 14 -52 -3 -6 0 -32 6 -60 9 -37 9 -53 1 -63 -14
-17 -26 -156 -14 -156 5 0 15 28 23 63 12 48 16 56 18 33 2 -15 -4 -50 -12
-77 -10 -30 -14 -63 -10 -87 4 -28 2 -41 -10 -51 -20 -17 -20 -35 -2 -50 28
-24 25 -63 -10 -133 l-34 -68 161 0 162 0 -7 33 c-16 78 -18 106 -8 123 10 18
11 17 20 -6 5 -14 13 -53 17 -87 l7 -63 79 0 79 0 0 28 c0 44 -18 94 -51 147
-18 28 -35 61 -39 75 -4 15 -15 26 -28 28 -11 2 -24 12 -27 22 -3 10 -17 35
-31 56 -26 37 -26 39 -13 111 10 59 16 73 31 73 22 0 24 34 3 70 -20 35 -18
43 6 30 11 -7 24 -9 27 -5 4 4 9 41 10 84 3 62 1 81 -13 94 -20 21 -83 22
-110 3z"/>
</g>
</svg>
