<?xml version="1.0" standalone="no"?>
<!DOCTYPE svg PUBLIC "-//W3C//DTD SVG 20010904//EN"
 "http://www.w3.org/TR/2001/REC-SVG-20010904/DTD/svg10.dtd">
<svg version="1.0" xmlns="http://www.w3.org/2000/svg"
 width="96.000000pt" height="84.000000pt" viewBox="0 0 96.000000 84.000000"
 preserveAspectRatio="xMidYMid meet">
<metadata>
Created by potrace 1.16, written by Peter Selinger 2001-2019
</metadata>
<g transform="translate(0.000000,84.000000) scale(0.100000,-0.100000)"
fill="#000000" stroke="none">
<path d="M0 420 l0 -420 480 0 480 0 0 420 0 420 -480 0 -480 0 0 -420z m400
124 c0 -8 6 -14 13 -14 21 0 199 -70 250 -98 l48 -27 -3 -55 -3 -55 -53 -3
c-132 -8 -358 109 -399 205 -7 18 -13 37 -13 42 0 5 26 9 59 8 42 -2 57 1 50
9 -6 7 1 9 21 6 17 -2 30 -10 30 -18z"/>
</g>
</svg>
