<?xml version="1.0" standalone="no"?>
<!DOCTYPE svg PUBLIC "-//W3C//DTD SVG 20010904//EN"
 "http://www.w3.org/TR/2001/REC-SVG-20010904/DTD/svg10.dtd">
<svg version="1.0" xmlns="http://www.w3.org/2000/svg"
 width="96.000000pt" height="84.000000pt" viewBox="0 0 96.000000 84.000000"
 preserveAspectRatio="xMidYMid meet">
<metadata>
Created by potrace 1.16, written by Peter Selinger 2001-2019
</metadata>
<g transform="translate(0.000000,84.000000) scale(0.100000,-0.100000)"
fill="#000000" stroke="none">
<path d="M0 420 l0 -420 480 0 480 0 0 420 0 420 -480 0 -480 0 0 -420z m378
115 c-4 -21 -1 -25 18 -25 12 0 24 6 27 13 3 9 8 8 18 -4 9 -11 38 -19 79 -24
36 -3 93 -13 127 -22 61 -15 63 -17 74 -55 5 -22 9 -47 7 -56 -14 -73 -373
-38 -459 44 -39 37 -77 107 -50 89 5 -3 12 -1 16 5 3 5 28 10 56 10 50 0 58 6
37 29 -11 10 -10 11 3 6 10 -4 20 -2 24 4 12 21 27 11 23 -14z"/>
</g>
</svg>
