<?xml version="1.0" standalone="no"?>
<!DOCTYPE svg PUBLIC "-//W3C//DTD SVG 20010904//EN"
 "http://www.w3.org/TR/2001/REC-SVG-20010904/DTD/svg10.dtd">
<svg version="1.0" xmlns="http://www.w3.org/2000/svg"
 width="96.000000pt" height="84.000000pt" viewBox="0 0 96.000000 84.000000"
 preserveAspectRatio="xMidYMid meet">
<metadata>
Created by potrace 1.16, written by Peter Selinger 2001-2019
</metadata>
<g transform="translate(0.000000,84.000000) scale(0.100000,-0.100000)"
fill="#000000" stroke="none">
<path d="M0 420 l0 -420 480 0 480 0 0 420 0 420 -480 0 -480 0 0 -420z m365
111 c3 -10 5 -23 4 -27 -5 -29 2 -42 21 -37 20 5 25 19 21 62 -1 15 2 21 11
18 7 -2 12 -18 11 -36 -1 -26 2 -31 17 -26 42 13 158 35 189 35 35 0 91 -40
91 -65 0 -15 -48 -59 -85 -78 -56 -28 -170 -58 -250 -67 -94 -10 -129 2 -171
57 -25 33 -25 35 -8 48 11 8 36 17 57 20 22 4 42 15 48 27 6 11 9 21 7 22 -2
2 -12 8 -23 14 -20 11 -20 11 2 12 13 0 24 8 28 20 8 25 22 26 30 1z"/>
</g>
</svg>
