<?xml version="1.0" standalone="no"?>
<!DOCTYPE svg PUBLIC "-//W3C//DTD SVG 20010904//EN"
 "http://www.w3.org/TR/2001/REC-SVG-20010904/DTD/svg10.dtd">
<svg version="1.0" xmlns="http://www.w3.org/2000/svg"
 width="96.000000pt" height="84.000000pt" viewBox="0 0 96.000000 84.000000"
 preserveAspectRatio="xMidYMid meet">
<metadata>
Created by potrace 1.16, written by Peter Selinger 2001-2019
</metadata>
<g transform="translate(0.000000,84.000000) scale(0.100000,-0.100000)"
fill="#000000" stroke="none">
<path d="M664 830 c-12 -12 -71 -14 -131 -5 -24 4 -57 2 -78 -5 -36 -12 -37
-13 -30 -54 3 -22 6 -65 5 -95 0 -30 4 -69 10 -87 8 -24 8 -44 -1 -76 -14 -51
-13 -138 1 -152 7 -7 10 -2 10 15 1 31 23 116 34 126 10 10 -3 -76 -15 -99
-12 -23 -23 -155 -20 -246 2 -65 0 -77 -23 -107 -14 -18 -26 -36 -26 -39 0 -3
69 -6 153 -6 l152 0 0 70 c0 38 5 74 10 79 8 8 11 4 11 -12 1 -133 2 -137 34
-137 27 0 30 3 30 31 0 18 4 28 10 24 6 -3 7 -17 4 -31 -6 -24 -6 -24 69 -24
l76 0 -16 38 c-26 63 -51 108 -67 121 -9 8 -16 24 -16 36 0 12 -6 27 -12 33
-13 10 -19 12 -38 12 -5 0 -24 28 -41 61 l-31 62 18 88 c17 81 20 89 41 89 30
0 30 27 1 76 l-21 36 21 -6 c18 -6 22 -2 27 27 6 32 3 74 -11 140 -5 26 -8 27
-68 27 -34 0 -67 -5 -72 -10z"/>
</g>
</svg>
