<?xml version="1.0" standalone="no"?>
<!DOCTYPE svg PUBLIC "-//W3C//DTD SVG 20010904//EN"
 "http://www.w3.org/TR/2001/REC-SVG-20010904/DTD/svg10.dtd">
<svg version="1.0" xmlns="http://www.w3.org/2000/svg"
 width="96.000000pt" height="84.000000pt" viewBox="0 0 96.000000 84.000000"
 preserveAspectRatio="xMidYMid meet">
<metadata>
Created by potrace 1.16, written by Peter Selinger 2001-2019
</metadata>
<g transform="translate(0.000000,84.000000) scale(0.100000,-0.100000)"
fill="#000000" stroke="none">
<path d="M0 420 l0 -420 480 0 480 0 0 420 0 420 -480 0 -480 0 0 -420z m437
91 l-5 -40 52 21 c28 11 74 27 102 35 51 15 52 15 93 -12 l41 -27 -18 -31
c-20 -36 -151 -123 -207 -138 -22 -6 -63 -19 -90 -30 -83 -32 -117 -22 -170
47 l-26 34 56 25 c68 31 87 64 47 81 l-27 12 25 3 c17 3 26 11 28 27 6 42 39
21 39 -25 0 -43 11 -53 30 -28 9 12 13 32 9 53 -4 25 -1 32 11 32 12 0 15 -8
10 -39z"/>
</g>
</svg>
