<?xml version="1.0" standalone="no"?>
<!DOCTYPE svg PUBLIC "-//W3C//DTD SVG 20010904//EN"
 "http://www.w3.org/TR/2001/REC-SVG-20010904/DTD/svg10.dtd">
<svg version="1.0" xmlns="http://www.w3.org/2000/svg"
 width="96.000000pt" height="84.000000pt" viewBox="0 0 96.000000 84.000000"
 preserveAspectRatio="xMidYMid meet">
<metadata>
Created by potrace 1.16, written by Peter Selinger 2001-2019
</metadata>
<g transform="translate(0.000000,84.000000) scale(0.100000,-0.100000)"
fill="#000000" stroke="none">
<path d="M0 420 l0 -420 480 0 480 0 0 420 0 420 -480 0 -480 0 0 -420z m447
90 l-5 -38 75 39 75 38 42 -16 c58 -23 60 -26 37 -71 -23 -45 -117 -127 -171
-149 -19 -8 -50 -26 -68 -40 -66 -50 -118 -38 -172 37 l-21 30 50 31 c28 18
52 37 53 43 1 6 2 30 3 52 3 59 10 73 34 67 12 -3 18 -9 15 -14 -3 -5 -2 -24
1 -41 7 -30 8 -31 22 -12 9 11 12 32 9 51 -5 33 1 46 17 36 5 -3 7 -23 4 -43z
m-112 -40 c3 -5 -3 -10 -15 -10 -12 0 -18 5 -15 10 3 6 10 10 15 10 5 0 12 -4
15 -10z"/>
</g>
</svg>
