<?xml version="1.0" standalone="no"?>
<!DOCTYPE svg PUBLIC "-//W3C//DTD SVG 20010904//EN"
 "http://www.w3.org/TR/2001/REC-SVG-20010904/DTD/svg10.dtd">
<svg version="1.0" xmlns="http://www.w3.org/2000/svg"
 width="96.000000pt" height="84.000000pt" viewBox="0 0 96.000000 84.000000"
 preserveAspectRatio="xMidYMid meet">
<metadata>
Created by potrace 1.16, written by Peter Selinger 2001-2019
</metadata>
<g transform="translate(0.000000,84.000000) scale(0.100000,-0.100000)"
fill="#000000" stroke="none">
<path d="M0 420 l0 -420 480 0 480 0 0 420 0 420 -480 0 -480 0 0 -420z m470
70 c5 0 12 5 15 10 3 6 20 17 37 26 25 13 38 14 79 4 42 -10 49 -15 49 -37 0
-14 -7 -41 -16 -60 -18 -38 -198 -207 -232 -217 -30 -10 -56 7 -92 60 l-32 45
46 43 c25 23 46 47 46 53 0 6 3 18 6 27 8 20 -34 18 -58 -2 -10 -8 -18 -11
-18 -5 0 5 12 16 28 24 30 15 46 36 47 59 0 8 10 16 23 18 19 3 23 -1 22 -20
-3 -37 -1 -48 11 -48 6 0 9 16 8 38 -2 21 1 44 7 52 6 11 10 4 12 -27 2 -24 7
-43 12 -43z"/>
</g>
</svg>
