<?xml version="1.0" standalone="no"?>
<!DOCTYPE svg PUBLIC "-//W3C//DTD SVG 20010904//EN"
 "http://www.w3.org/TR/2001/REC-SVG-20010904/DTD/svg10.dtd">
<svg version="1.0" xmlns="http://www.w3.org/2000/svg"
 width="96.000000pt" height="84.000000pt" viewBox="0 0 96.000000 84.000000"
 preserveAspectRatio="xMidYMid meet">
<metadata>
Created by potrace 1.16, written by Peter Selinger 2001-2019
</metadata>
<g transform="translate(0.000000,84.000000) scale(0.100000,-0.100000)"
fill="#000000" stroke="none">
<path d="M0 420 l0 -420 480 0 480 0 0 420 0 420 -480 0 -480 0 0 -420z m530
100 c27 0 55 -3 64 -6 21 -8 30 -66 17 -106 -15 -43 -120 -180 -149 -193 -12
-5 -22 -13 -22 -17 0 -35 -83 41 -100 91 -12 39 -12 41 29 101 46 70 49 80 21
73 -26 -7 -26 9 1 25 12 8 19 21 17 35 -2 16 3 23 19 25 17 3 23 -3 26 -25 4
-28 4 -28 3 2 0 17 4 37 9 45 8 12 11 7 13 -17 3 -32 4 -33 52 -33z m-178 -82
c-7 -7 -12 -8 -12 -2 0 6 3 14 7 17 3 4 9 5 12 2 2 -3 -1 -11 -7 -17z"/>
</g>
</svg>
