<?xml version="1.0" standalone="no"?>
<!DOCTYPE svg PUBLIC "-//W3C//DTD SVG 20010904//EN"
 "http://www.w3.org/TR/2001/REC-SVG-20010904/DTD/svg10.dtd">
<svg version="1.0" xmlns="http://www.w3.org/2000/svg"
 width="96.000000pt" height="84.000000pt" viewBox="0 0 96.000000 84.000000"
 preserveAspectRatio="xMidYMid meet">
<metadata>
Created by potrace 1.16, written by Peter Selinger 2001-2019
</metadata>
<g transform="translate(0.000000,84.000000) scale(0.100000,-0.100000)"
fill="#000000" stroke="none">
<path d="M0 420 l0 -420 480 0 480 0 0 420 0 420 -480 0 -480 0 0 -420z m492
125 l-4 -45 35 0 c45 0 70 -35 74 -105 3 -43 -2 -59 -35 -115 -44 -76 -78 -98
-122 -80 -33 13 -80 102 -80 149 0 37 26 98 56 134 13 16 24 39 24 53 0 14 6
24 14 24 7 0 19 7 26 15 7 8 13 15 14 15 1 0 0 -20 -2 -45z"/>
</g>
</svg>
