<?xml version="1.0" standalone="no"?>
<!DOCTYPE svg PUBLIC "-//W3C//DTD SVG 20010904//EN"
 "http://www.w3.org/TR/2001/REC-SVG-20010904/DTD/svg10.dtd">
<svg version="1.0" xmlns="http://www.w3.org/2000/svg"
 width="96.000000pt" height="84.000000pt" viewBox="0 0 96.000000 84.000000"
 preserveAspectRatio="xMidYMid meet">
<metadata>
Created by potrace 1.16, written by Peter Selinger 2001-2019
</metadata>
<g transform="translate(0.000000,84.000000) scale(0.100000,-0.100000)"
fill="#000000" stroke="none">
<path d="M0 420 l0 -420 480 0 480 0 0 420 0 420 -480 0 -480 0 0 -420z m557
120 c2 -30 8 -75 15 -100 7 -25 11 -48 10 -53 -1 -4 9 -5 23 -1 21 5 25 3 25
-15 0 -12 6 -20 13 -18 16 3 15 -8 -6 -70 -20 -56 -23 -58 -110 -68 l-58 -7
-70 74 c-72 75 -85 101 -75 142 5 21 14 25 65 31 39 4 67 3 81 -5 12 -6 24 -9
27 -7 3 3 6 38 8 79 2 40 4 74 4 76 1 2 11 2 24 0 19 -3 22 -9 24 -58z"/>
</g>
</svg>
