<?xml version="1.0" standalone="no"?>
<!DOCTYPE svg PUBLIC "-//W3C//DTD SVG 20010904//EN"
 "http://www.w3.org/TR/2001/REC-SVG-20010904/DTD/svg10.dtd">
<svg version="1.0" xmlns="http://www.w3.org/2000/svg"
 width="96.000000pt" height="84.000000pt" viewBox="0 0 96.000000 84.000000"
 preserveAspectRatio="xMidYMid meet">
<metadata>
Created by potrace 1.16, written by Peter Selinger 2001-2019
</metadata>
<g transform="translate(0.000000,84.000000) scale(0.100000,-0.100000)"
fill="#000000" stroke="none">
<path d="M0 420 l0 -420 480 0 480 0 0 420 0 420 -480 0 -480 0 0 -420z m579
125 c0 -36 5 -74 11 -85 6 -10 11 -34 13 -52 3 -42 32 -50 48 -14 14 31 29 34
29 7 0 -11 5 -21 12 -23 9 -3 8 -13 -4 -39 -9 -19 -19 -44 -22 -55 -12 -39
-38 -51 -122 -57 -75 -6 -83 -4 -117 19 -20 14 -37 29 -37 34 0 5 -15 16 -32
25 -41 19 -82 77 -74 103 9 27 109 37 166 17 23 -8 45 -13 49 -10 15 9 44 87
35 93 -5 4 -10 28 -12 55 -2 46 -2 47 27 47 29 0 29 0 30 -65z m-62 -67 c-3
-8 -6 -5 -6 6 -1 11 2 17 5 13 3 -3 4 -12 1 -19z"/>
</g>
</svg>
