<?xml version="1.0" standalone="no"?>
<!DOCTYPE svg PUBLIC "-//W3C//DTD SVG 20010904//EN"
 "http://www.w3.org/TR/2001/REC-SVG-20010904/DTD/svg10.dtd">
<svg version="1.0" xmlns="http://www.w3.org/2000/svg"
 width="96.000000pt" height="84.000000pt" viewBox="0 0 96.000000 84.000000"
 preserveAspectRatio="xMidYMid meet">
<metadata>
Created by potrace 1.16, written by Peter Selinger 2001-2019
</metadata>
<g transform="translate(0.000000,84.000000) scale(0.100000,-0.100000)"
fill="#000000" stroke="none">
<path d="M0 420 l0 -420 480 0 480 0 0 420 0 420 -480 0 -480 0 0 -420z m590
168 c1 -60 6 -93 18 -136 7 -23 10 -47 7 -52 -9 -14 10 -20 43 -14 21 4 32 14
36 30 9 35 22 29 29 -11 4 -25 -2 -49 -23 -92 -15 -33 -34 -64 -41 -70 -8 -6
-61 -13 -117 -15 l-104 -5 -47 37 c-26 21 -58 41 -72 45 -32 10 -69 53 -69 81
0 20 6 23 58 30 41 5 75 2 124 -10 64 -17 95 -15 83 4 -3 5 4 24 15 42 13 23
18 46 15 73 -2 22 -5 47 -5 55 -1 8 -6 4 -10 -10 -7 -22 -8 -21 -9 13 -1 36 0
37 34 37 32 0 34 -2 35 -32z m-73 -125 c-2 -16 -4 -3 -4 27 0 30 2 43 4 28 2
-16 2 -40 0 -55z"/>
</g>
</svg>
