<?xml version="1.0" standalone="no"?>
<!DOCTYPE svg PUBLIC "-//W3C//DTD SVG 20010904//EN"
 "http://www.w3.org/TR/2001/REC-SVG-20010904/DTD/svg10.dtd">
<svg version="1.0" xmlns="http://www.w3.org/2000/svg"
 width="96.000000pt" height="84.000000pt" viewBox="0 0 96.000000 84.000000"
 preserveAspectRatio="xMidYMid meet">
<metadata>
Created by potrace 1.16, written by Peter Selinger 2001-2019
</metadata>
<g transform="translate(0.000000,84.000000) scale(0.100000,-0.100000)"
fill="#000000" stroke="none">
<path d="M0 420 l0 -420 480 0 480 0 0 420 0 420 -480 0 -480 0 0 -420z m550
199 c0 6 11 11 25 11 21 0 24 -5 25 -32 1 -71 3 -85 16 -130 7 -26 10 -57 7
-69 -5 -18 -3 -21 10 -16 8 3 31 9 49 12 26 5 37 14 46 37 6 16 15 27 20 24
12 -7 8 -72 -5 -88 -6 -7 -16 -29 -22 -50 -7 -20 -23 -48 -36 -63 -23 -24 -30
-26 -103 -24 -42 1 -93 -2 -113 -6 -40 -7 -68 3 -109 40 -22 20 -74 41 -92 37
-13 -3 -59 61 -56 77 2 11 20 19 57 24 51 9 95 3 241 -31 21 -4 23 -3 13 9
-10 12 -7 26 12 67 17 36 23 65 20 92 -9 90 -32 68 -36 -35 -2 -49 -3 -53 -6
-20 -3 22 -2 64 2 93 5 44 9 51 21 41 10 -8 14 -8 14 0z"/>
</g>
</svg>
