<?xml version="1.0" standalone="no"?>
<!DOCTYPE svg PUBLIC "-//W3C//DTD SVG 20010904//EN"
 "http://www.w3.org/TR/2001/REC-SVG-20010904/DTD/svg10.dtd">
<svg version="1.0" xmlns="http://www.w3.org/2000/svg"
 width="96.000000pt" height="84.000000pt" viewBox="0 0 96.000000 84.000000"
 preserveAspectRatio="xMidYMid meet">
<metadata>
Created by potrace 1.16, written by Peter Selinger 2001-2019
</metadata>
<g transform="translate(0.000000,84.000000) scale(0.100000,-0.100000)"
fill="#000000" stroke="none">
<path d="M700 831 c0 -15 -53 -20 -90 -10 -26 8 -45 7 -75 -4 -33 -11 -40 -19
-43 -43 -1 -16 -10 -58 -19 -92 -16 -61 -16 -66 2 -98 10 -19 22 -34 27 -34 5
0 6 -15 3 -33 -6 -29 -12 -164 -18 -370 l-2 -67 -53 -35 c-28 -20 -52 -38 -52
-40 0 -3 79 -5 175 -5 l175 0 0 31 c0 24 3 30 16 25 9 -3 18 -6 20 -6 2 0 4
-11 4 -25 0 -25 0 -25 95 -25 l95 0 -12 28 c-7 15 -25 45 -40 66 -15 22 -28
49 -28 60 0 12 -4 27 -9 35 -7 11 -11 10 -19 -5 -9 -16 -14 -11 -40 44 l-30
63 18 43 c11 23 22 73 26 111 5 53 11 74 27 86 l20 17 -26 45 c-32 53 -32 57
-11 57 14 0 16 8 10 58 -4 31 -11 74 -17 95 l-10 37 -59 0 c-33 0 -60 -4 -60
-9z m-120 -401 c0 -9 -31 -30 -44 -30 -3 0 -6 9 -6 20 0 15 7 20 25 20 14 0
25 -4 25 -10z m170 -335 c0 -8 -4 -15 -10 -15 -5 0 -7 7 -4 15 4 8 8 15 10 15
2 0 4 -7 4 -15z"/>
</g>
</svg>
