<?xml version="1.0" standalone="no"?>
<!DOCTYPE svg PUBLIC "-//W3C//DTD SVG 20010904//EN"
 "http://www.w3.org/TR/2001/REC-SVG-20010904/DTD/svg10.dtd">
<svg version="1.0" xmlns="http://www.w3.org/2000/svg"
 width="96.000000pt" height="84.000000pt" viewBox="0 0 96.000000 84.000000"
 preserveAspectRatio="xMidYMid meet">
<metadata>
Created by potrace 1.16, written by Peter Selinger 2001-2019
</metadata>
<g transform="translate(0.000000,84.000000) scale(0.100000,-0.100000)"
fill="#000000" stroke="none">
<path d="M0 420 l0 -420 480 0 480 0 0 420 0 420 -480 0 -480 0 0 -420z m530
186 c-6 -6 -10 -37 -11 -70 0 -34 -4 -70 -8 -81 -9 -21 -4 122 5 164 4 20 7
22 14 11 6 -9 5 -19 0 -24z m77 -6 c0 -19 4 -60 8 -90 4 -30 7 -72 7 -93 0
-30 3 -37 15 -33 9 4 35 11 58 17 29 7 46 18 54 35 17 38 33 30 25 -13 -8 -43
-68 -166 -90 -184 -9 -7 -58 -13 -132 -14 -64 -1 -124 -5 -132 -9 -10 -4 -37
9 -73 33 -31 22 -72 43 -91 46 -37 7 -93 72 -77 88 18 18 131 20 223 3 51 -9
107 -19 123 -21 l30 -5 -23 18 c-26 20 -24 33 15 94 23 38 23 39 3 123 -8 33
1 46 27 43 24 -3 28 -8 30 -38z"/>
</g>
</svg>
