<?xml version="1.0" standalone="no"?>
<!DOCTYPE svg PUBLIC "-//W3C//DTD SVG 20010904//EN"
 "http://www.w3.org/TR/2001/REC-SVG-20010904/DTD/svg10.dtd">
<svg version="1.0" xmlns="http://www.w3.org/2000/svg"
 width="96.000000pt" height="84.000000pt" viewBox="0 0 96.000000 84.000000"
 preserveAspectRatio="xMidYMid meet">
<metadata>
Created by potrace 1.16, written by Peter Selinger 2001-2019
</metadata>
<g transform="translate(0.000000,84.000000) scale(0.100000,-0.100000)"
fill="#000000" stroke="none">
<path d="M0 420 l0 -420 480 0 480 0 0 420 0 420 -480 0 -480 0 0 -420z m597
226 c4 -4 8 -23 9 -44 0 -20 6 -38 12 -40 7 -2 12 -8 12 -13 0 -6 -4 -7 -10
-4 -13 8 -13 -31 1 -57 6 -11 11 -39 11 -63 l0 -44 40 15 c22 8 49 14 59 14
10 0 25 13 34 30 9 17 20 30 26 30 20 0 0 -65 -46 -151 -44 -82 -70 -113 -86
-104 -15 10 -214 12 -239 3 -33 -13 -61 -4 -112 36 -25 18 -61 36 -82 40 -40
8 -85 49 -86 78 0 26 109 34 217 15 141 -25 193 -30 193 -19 0 6 -9 14 -20 17
-25 8 -19 42 17 96 21 32 23 41 14 79 -5 24 -16 50 -24 58 -14 13 -16 10 -21
-29 -3 -24 -8 -64 -9 -89 -2 -27 -4 -15 -5 30 -1 41 1 85 4 98 6 21 8 22 24 7
16 -15 18 -14 23 4 5 19 28 23 44 7z"/>
</g>
</svg>
