<?xml version="1.0" standalone="no"?>
<!DOCTYPE svg PUBLIC "-//W3C//DTD SVG 20010904//EN"
 "http://www.w3.org/TR/2001/REC-SVG-20010904/DTD/svg10.dtd">
<svg version="1.0" xmlns="http://www.w3.org/2000/svg"
 width="96.000000pt" height="84.000000pt" viewBox="0 0 96.000000 84.000000"
 preserveAspectRatio="xMidYMid meet">
<metadata>
Created by potrace 1.16, written by Peter Selinger 2001-2019
</metadata>
<g transform="translate(0.000000,84.000000) scale(0.100000,-0.100000)"
fill="#000000" stroke="none">
<path d="M0 420 l0 -420 480 0 480 0 0 420 0 420 -480 0 -480 0 0 -420z m603
211 c-10 -17 -8 -23 12 -43 28 -26 32 -40 10 -32 -19 8 -19 -18 -1 -71 8 -22
12 -53 9 -69 -6 -27 -4 -28 18 -22 13 3 46 12 73 20 35 9 53 20 63 39 15 30
33 36 33 11 0 -27 -93 -203 -127 -241 -27 -29 -36 -33 -47 -24 -8 7 -38 12
-68 13 -29 0 -72 4 -96 9 -29 6 -56 6 -82 -2 -49 -15 -78 -7 -132 35 -25 18
-60 36 -80 40 -35 6 -88 56 -88 82 0 27 112 31 240 10 134 -23 207 -29 214
-18 3 6 -8 15 -25 21 -21 7 -28 14 -23 23 5 7 9 18 10 23 1 6 14 28 28 50 23
33 26 46 21 80 -7 40 -38 85 -51 72 -4 -3 -10 -52 -14 -109 l-7 -103 -1 100
c0 55 3 111 7 124 6 21 8 22 20 7 17 -20 31 -21 31 -2 0 20 32 26 50 9 12 -11
12 -17 3 -32z"/>
</g>
</svg>
