<?xml version="1.0" standalone="no"?>
<!DOCTYPE svg PUBLIC "-//W3C//DTD SVG 20010904//EN"
 "http://www.w3.org/TR/2001/REC-SVG-20010904/DTD/svg10.dtd">
<svg version="1.0" xmlns="http://www.w3.org/2000/svg"
 width="96.000000pt" height="84.000000pt" viewBox="0 0 96.000000 84.000000"
 preserveAspectRatio="xMidYMid meet">
<metadata>
Created by potrace 1.16, written by Peter Selinger 2001-2019
</metadata>
<g transform="translate(0.000000,84.000000) scale(0.100000,-0.100000)"
fill="#000000" stroke="none">
<path d="M0 420 l0 -420 480 0 480 0 0 420 0 420 -480 0 -480 0 0 -420z m607
264 c3 -9 1 -25 -5 -35 -10 -15 -7 -21 14 -38 14 -11 30 -22 37 -24 7 -2 9 -8
5 -12 -4 -4 -14 -2 -23 5 -12 10 -16 9 -21 -4 -3 -9 -3 -26 1 -39 19 -63 22
-91 15 -118 -10 -35 -10 -35 63 -9 31 11 66 20 77 20 13 0 28 13 41 35 22 38
39 45 39 18 0 -28 -112 -223 -156 -270 -34 -36 -45 -43 -60 -35 -31 15 -88 34
-104 33 -8 0 -42 5 -75 10 -47 8 -69 7 -100 -4 -47 -17 -68 -11 -134 37 -25
18 -61 37 -78 41 -31 6 -93 69 -93 93 0 19 143 23 221 6 93 -20 279 -31 279
-17 0 6 -12 14 -26 17 -32 8 -28 32 17 104 25 41 29 56 24 85 -7 34 -37 77
-55 77 -9 0 -18 -61 -24 -165 -2 -33 -3 -5 -2 62 1 121 9 154 27 120 13 -23
26 -22 34 3 8 25 53 27 62 4z"/>
</g>
</svg>
