<?xml version="1.0" standalone="no"?>
<!DOCTYPE svg PUBLIC "-//W3C//DTD SVG 20010904//EN"
 "http://www.w3.org/TR/2001/REC-SVG-20010904/DTD/svg10.dtd">
<svg version="1.0" xmlns="http://www.w3.org/2000/svg"
 width="96.000000pt" height="84.000000pt" viewBox="0 0 96.000000 84.000000"
 preserveAspectRatio="xMidYMid meet">
<metadata>
Created by potrace 1.16, written by Peter Selinger 2001-2019
</metadata>
<g transform="translate(0.000000,84.000000) scale(0.100000,-0.100000)"
fill="#000000" stroke="none">
<path d="M0 625 l0 -215 88 0 c48 0 123 -7 167 -15 100 -20 286 -25 292 -8 2
6 -12 17 -32 23 -27 9 -34 15 -26 23 6 6 11 17 11 24 0 7 14 32 31 56 39 56
42 116 8 153 -12 13 -28 24 -34 24 -16 0 -25 -55 -26 -160 0 -57 -3 -78 -9
-64 -10 25 -6 222 5 247 7 17 9 17 31 -4 l23 -22 11 25 c13 27 43 34 61 12 9
-11 9 -21 1 -39 -9 -20 -8 -26 11 -38 12 -8 32 -17 45 -21 12 -4 20 -12 17
-17 -4 -5 -14 -5 -27 2 -16 9 -23 8 -29 -2 -12 -19 -11 -23 7 -85 11 -40 13
-62 5 -89 -5 -19 -6 -35 -3 -35 4 0 39 11 77 25 39 13 80 25 93 25 15 0 29 11
43 35 23 39 39 45 39 16 0 -34 -114 -224 -172 -285 -51 -55 -59 -60 -77 -49
-11 7 -30 13 -42 13 -12 0 -36 8 -53 19 -44 26 -181 35 -237 16 -39 -14 -45
-14 -85 7 -24 12 -54 32 -66 45 -12 13 -30 23 -40 23 -23 0 -78 27 -78 38 0 5
-7 17 -15 28 -13 17 -14 -1 -15 -168 l0 -188 480 0 480 0 0 420 0 420 -480 0
-480 0 0 -215z"/>
</g>
</svg>
