<?xml version="1.0" standalone="no"?>
<!DOCTYPE svg PUBLIC "-//W3C//DTD SVG 20010904//EN"
 "http://www.w3.org/TR/2001/REC-SVG-20010904/DTD/svg10.dtd">
<svg version="1.0" xmlns="http://www.w3.org/2000/svg"
 width="96.000000pt" height="84.000000pt" viewBox="0 0 96.000000 84.000000"
 preserveAspectRatio="xMidYMid meet">
<metadata>
Created by potrace 1.16, written by Peter Selinger 2001-2019
</metadata>
<g transform="translate(0.000000,84.000000) scale(0.100000,-0.100000)"
fill="#000000" stroke="none">
<path d="M0 630 l0 -210 53 0 c28 0 88 -7 132 -15 101 -20 257 -30 318 -21 57
9 63 32 12 42 -41 7 -51 19 -34 40 6 8 9 17 6 20 -3 4 12 29 34 56 33 42 39
57 39 98 0 43 -4 51 -37 81 l-38 32 -13 -44 c-7 -24 -12 -69 -12 -99 3 -105 0
-136 -10 -119 -10 17 -8 274 2 285 4 3 20 -3 37 -15 l30 -21 13 27 c18 38 64
44 77 11 6 -15 4 -30 -6 -45 -16 -24 -15 -25 50 -44 26 -7 47 -19 47 -26 0
-16 -9 -16 -40 2 -14 8 -28 14 -31 15 -15 0 -18 -63 -5 -98 20 -52 27 -102 16
-102 -6 0 -10 -13 -10 -30 0 -16 4 -30 8 -30 5 0 42 11 83 25 41 15 89 27 108
29 27 3 40 12 60 41 14 21 32 40 39 43 26 8 9 -38 -52 -143 -73 -123 -162
-237 -208 -265 -30 -18 -32 -18 -67 1 -20 10 -42 19 -50 19 -8 0 -33 11 -55
24 -56 32 -198 42 -272 19 -50 -15 -53 -15 -97 7 -26 13 -57 34 -69 47 -12 13
-30 23 -40 23 -17 0 -18 -11 -18 -145 l0 -145 480 0 480 0 0 420 0 420 -480 0
-480 0 0 -210z"/>
</g>
</svg>
