<?xml version="1.0" standalone="no"?>
<!DOCTYPE svg PUBLIC "-//W3C//DTD SVG 20010904//EN"
 "http://www.w3.org/TR/2001/REC-SVG-20010904/DTD/svg10.dtd">
<svg version="1.0" xmlns="http://www.w3.org/2000/svg"
 width="96.000000pt" height="84.000000pt" viewBox="0 0 96.000000 84.000000"
 preserveAspectRatio="xMidYMid meet">
<metadata>
Created by potrace 1.16, written by Peter Selinger 2001-2019
</metadata>
<g transform="translate(0.000000,84.000000) scale(0.100000,-0.100000)"
fill="#000000" stroke="none">
<path d="M0 636 l0 -204 63 -11 c151 -27 268 -35 362 -23 106 13 125 19 125
37 0 8 -19 16 -50 20 -48 7 -61 17 -40 30 6 4 10 14 8 24 -2 9 11 35 28 57 17
21 38 53 46 69 20 40 14 123 -9 144 -15 14 -67 41 -77 41 -11 0 -25 -139 -23
-223 1 -74 -1 -94 -9 -82 -17 23 -27 211 -15 265 6 25 11 48 11 53 0 4 -94 7
-210 7 l-210 0 0 -204z"/>
<path d="M483 829 c14 -8 22 -8 30 0 8 8 3 11 -18 11 -26 -1 -28 -2 -12 -11z"/>
<path d="M607 815 c-9 -13 -14 -26 -10 -28 5 -3 41 -10 81 -17 43 -8 71 -18
69 -24 -2 -6 -16 -10 -30 -8 -15 1 -39 3 -54 5 -39 3 -62 -43 -44 -87 27 -65
43 -140 32 -144 -15 -5 -14 -62 1 -62 6 0 61 16 121 36 61 19 120 33 132 30
16 -4 25 2 38 23 14 24 17 55 17 165 l0 136 -167 0 c-166 -1 -168 -1 -186 -25z"/>
<path d="M900 382 c-68 -108 -226 -272 -261 -272 -13 0 -37 8 -54 18 -16 10
-48 21 -69 25 -21 3 -57 18 -79 33 -33 22 -52 27 -93 25 -29 -1 -74 3 -100 9
-42 10 -58 8 -116 -11 -54 -17 -73 -19 -98 -11 l-30 11 0 -105 0 -104 480 0
480 0 0 235 c0 129 -1 235 -2 235 -2 0 -28 -40 -58 -88z"/>
</g>
</svg>
