<?xml version="1.0" standalone="no"?>
<!DOCTYPE svg PUBLIC "-//W3C//DTD SVG 20010904//EN"
 "http://www.w3.org/TR/2001/REC-SVG-20010904/DTD/svg10.dtd">
<svg version="1.0" xmlns="http://www.w3.org/2000/svg"
 width="96.000000pt" height="84.000000pt" viewBox="0 0 96.000000 84.000000"
 preserveAspectRatio="xMidYMid meet">
<metadata>
Created by potrace 1.16, written by Peter Selinger 2001-2019
</metadata>
<g transform="translate(0.000000,84.000000) scale(0.100000,-0.100000)"
fill="#000000" stroke="none">
<path d="M0 631 l0 -210 58 -7 c86 -12 203 -8 335 10 139 20 147 22 147 47 0
17 -8 19 -60 19 -64 0 -72 6 -40 35 15 14 17 20 8 26 -10 6 -7 15 10 36 59 74
76 115 78 185 l3 68 -74 0 -73 0 -4 -47 c-2 -27 -1 -68 3 -92 3 -25 2 -60 -3
-79 -7 -24 -6 -43 1 -59 7 -15 7 -23 1 -23 -19 0 -29 48 -36 174 l-7 126 -173
0 -174 0 0 -209z"/>
<path d="M636 821 c-26 -28 -30 -76 -11 -113 10 -18 19 -43 20 -55 2 -13 6
-41 10 -63 4 -26 3 -40 -4 -40 -13 0 -14 -39 -2 -59 7 -11 36 -5 160 34 l151
48 0 133 0 133 -154 0 c-133 -1 -157 -3 -170 -18z"/>
<path d="M905 329 c-63 -88 -215 -236 -251 -245 -18 -5 -45 -1 -74 10 -25 9
-74 24 -110 32 -36 8 -90 30 -123 50 -55 34 -63 36 -113 30 -30 -3 -85 -1
-122 4 -36 6 -77 8 -89 5 -22 -5 -23 -9 -23 -110 l0 -105 480 0 480 0 0 200
c0 110 -1 200 -2 199 -2 0 -25 -32 -53 -70z"/>
</g>
</svg>
