<?xml version="1.0" standalone="no"?>
<!DOCTYPE svg PUBLIC "-//W3C//DTD SVG 20010904//EN"
 "http://www.w3.org/TR/2001/REC-SVG-20010904/DTD/svg10.dtd">
<svg version="1.0" xmlns="http://www.w3.org/2000/svg"
 width="96.000000pt" height="84.000000pt" viewBox="0 0 96.000000 84.000000"
 preserveAspectRatio="xMidYMid meet">
<metadata>
Created by potrace 1.16, written by Peter Selinger 2001-2019
</metadata>
<g transform="translate(0.000000,84.000000) scale(0.100000,-0.100000)"
fill="#000000" stroke="none">
<path d="M0 630 l0 -211 47 6 c27 2 100 10 163 16 162 15 301 36 313 48 5 5 7
17 3 26 -5 15 -18 17 -76 13 -60 -3 -70 -1 -70 13 0 9 7 22 15 29 9 7 13 21
10 31 -4 12 14 45 55 99 33 45 60 87 60 93 0 7 -7 20 -14 30 -11 14 -29 17
-100 17 -95 0 -92 3 -75 -70 7 -32 7 -57 -1 -87 -10 -34 -10 -47 3 -72 9 -17
12 -31 7 -31 -18 0 -40 46 -40 85 0 22 -7 70 -16 108 l-17 67 -133 0 -134 0 0
-210z"/>
<path d="M600 826 c0 -7 11 -34 25 -59 14 -27 20 -49 15 -52 -6 -4 -10 -32
-10 -64 0 -31 -5 -62 -11 -68 -6 -6 -8 -25 -4 -45 l7 -35 96 27 c53 15 130 38
170 51 l72 23 0 118 0 118 -180 0 c-145 0 -180 -3 -180 -14z"/>
<path d="M570 500 c0 -5 5 -10 11 -10 5 0 7 5 4 10 -3 6 -8 10 -11 10 -2 0 -4
-4 -4 -10z"/>
<path d="M918 303 c-20 -27 -74 -85 -120 -129 -82 -80 -84 -82 -154 -94 -39
-7 -84 -10 -100 -7 -16 3 -69 12 -119 20 -67 12 -114 28 -182 62 l-92 47 -75
-7 -76 -7 0 -94 0 -94 480 0 480 0 0 175 c0 96 -1 175 -3 175 -2 0 -19 -21
-39 -47z"/>
</g>
</svg>
