<?xml version="1.0" standalone="no"?>
<!DOCTYPE svg PUBLIC "-//W3C//DTD SVG 20010904//EN"
 "http://www.w3.org/TR/2001/REC-SVG-20010904/DTD/svg10.dtd">
<svg version="1.0" xmlns="http://www.w3.org/2000/svg"
 width="96.000000pt" height="84.000000pt" viewBox="0 0 96.000000 84.000000"
 preserveAspectRatio="xMidYMid meet">
<metadata>
Created by potrace 1.16, written by Peter Selinger 2001-2019
</metadata>
<g transform="translate(0.000000,84.000000) scale(0.100000,-0.100000)"
fill="#000000" stroke="none">
<path d="M0 649 l0 -192 98 7 c108 7 345 33 380 41 13 3 22 13 22 25 0 24 -33
34 -112 35 -51 0 -58 2 -58 20 0 11 7 30 15 41 8 12 12 24 8 27 -15 15 12 59
74 120 l68 67 -110 0 -110 0 -1 -47 c-1 -27 -3 -67 -5 -90 -3 -30 1 -47 15
-62 21 -23 15 -27 -14 -11 -23 12 -40 63 -38 115 0 22 -4 52 -10 68 l-12 27
-105 0 -105 0 0 -191z"/>
<path d="M618 803 c11 -24 13 -37 6 -40 -6 -2 -9 -24 -6 -56 3 -44 1 -55 -17
-71 -14 -13 -21 -31 -21 -56 0 -20 -5 -41 -12 -48 -9 -9 -9 -12 3 -12 11 0
285 72 372 97 15 5 17 19 17 114 l0 109 -180 0 -180 0 18 -37z"/>
<path d="M933 317 c-12 -17 -48 -60 -80 -94 -51 -53 -70 -66 -148 -96 -144
-56 -212 -67 -340 -57 -121 9 -192 30 -292 85 -35 19 -66 35 -68 35 -3 0 -5
-43 -5 -95 l0 -95 480 0 480 0 0 175 c0 96 -1 175 -2 175 -2 0 -13 -15 -25
-33z"/>
</g>
</svg>
