<?xml version="1.0" standalone="no"?>
<!DOCTYPE svg PUBLIC "-//W3C//DTD SVG 20010904//EN"
 "http://www.w3.org/TR/2001/REC-SVG-20010904/DTD/svg10.dtd">
<svg version="1.0" xmlns="http://www.w3.org/2000/svg"
 width="96.000000pt" height="84.000000pt" viewBox="0 0 96.000000 84.000000"
 preserveAspectRatio="xMidYMid meet">
<metadata>
Created by potrace 1.16, written by Peter Selinger 2001-2019
</metadata>
<g transform="translate(0.000000,84.000000) scale(0.100000,-0.100000)"
fill="#000000" stroke="none">
<path d="M698 809 c-15 -26 -20 -28 -38 -19 -34 18 -74 2 -114 -45 -50 -60
-67 -110 -52 -153 6 -18 15 -30 19 -26 4 4 8 1 9 -7 0 -8 2 -25 4 -39 2 -14
11 -53 20 -88 16 -60 16 -66 -1 -120 -9 -31 -18 -62 -19 -69 -1 -7 -5 -16 -9
-19 -4 -4 -7 -33 -7 -64 l0 -57 -57 -13 c-32 -7 -63 -14 -69 -17 -6 -2 -18 15
-27 38 -12 32 -21 40 -34 36 -10 -2 -25 -6 -33 -8 -20 -5 -60 -58 -55 -72 2
-7 6 -24 9 -39 l6 -28 250 0 c193 0 250 3 250 13 0 9 2 9 9 -1 5 -9 30 -12 85
-10 l76 3 -26 39 c-21 31 -25 45 -20 77 4 24 2 39 -4 39 -5 0 -10 -4 -10 -9 0
-5 -7 -11 -15 -15 -10 -4 -20 6 -31 32 -16 38 -15 44 11 127 l15 50 -4 -47
c-5 -60 8 -62 23 -4 22 87 14 233 -20 362 -44 170 -51 184 -91 184 -26 0 -37
-6 -50 -31z m-96 -411 c-9 -9 -12 -7 -12 12 0 19 3 21 12 12 9 -9 9 -15 0 -24z"/>
</g>
</svg>
