<?xml version="1.0" standalone="no"?>
<!DOCTYPE svg PUBLIC "-//W3C//DTD SVG 20010904//EN"
 "http://www.w3.org/TR/2001/REC-SVG-20010904/DTD/svg10.dtd">
<svg version="1.0" xmlns="http://www.w3.org/2000/svg"
 width="96.000000pt" height="84.000000pt" viewBox="0 0 96.000000 84.000000"
 preserveAspectRatio="xMidYMid meet">
<metadata>
Created by potrace 1.16, written by Peter Selinger 2001-2019
</metadata>
<g transform="translate(0.000000,84.000000) scale(0.100000,-0.100000)"
fill="#000000" stroke="none">
<path d="M0 654 l0 -185 83 6 c45 4 145 13 222 21 77 8 148 14 158 14 11 0 17
8 17 24 0 20 -9 26 -57 40 -32 10 -71 22 -86 26 -15 5 -34 7 -42 4 -18 -7 -19
9 -3 39 6 12 13 35 15 52 4 41 30 74 87 113 l48 32 -94 0 -93 0 -13 -53 c-16
-70 -15 -97 5 -119 15 -17 15 -18 0 -18 -24 0 -47 52 -47 109 0 81 0 81 -106
81 l-94 0 0 -186z"/>
<path d="M609 823 c15 -28 -1 -179 -19 -168 -5 3 -12 -11 -15 -32 -3 -21 -9
-50 -14 -66 -8 -24 -7 -27 12 -27 23 0 259 60 340 86 l47 16 0 104 0 104 -180
0 c-168 0 -180 -1 -171 -17z"/>
<path d="M914 308 c-22 -29 -48 -54 -59 -57 -10 -2 -44 -25 -75 -51 -98 -85
-193 -120 -380 -140 -137 -16 -222 -9 -320 24 -41 14 -76 26 -77 26 -2 0 -3
-25 -3 -55 l0 -55 480 0 480 0 0 180 c0 99 -2 180 -4 180 -2 0 -21 -24 -42
-52z"/>
</g>
</svg>
