<?xml version="1.0" standalone="no"?>
<!DOCTYPE svg PUBLIC "-//W3C//DTD SVG 20010904//EN"
 "http://www.w3.org/TR/2001/REC-SVG-20010904/DTD/svg10.dtd">
<svg version="1.0" xmlns="http://www.w3.org/2000/svg"
 width="96.000000pt" height="84.000000pt" viewBox="0 0 96.000000 84.000000"
 preserveAspectRatio="xMidYMid meet">
<metadata>
Created by potrace 1.16, written by Peter Selinger 2001-2019
</metadata>
<g transform="translate(0.000000,84.000000) scale(0.100000,-0.100000)"
fill="#000000" stroke="none">
<path d="M0 645 c0 -189 1 -195 20 -195 32 0 412 39 438 45 34 8 30 53 -5 61
-16 3 -37 9 -48 14 -11 4 -48 16 -82 27 -35 10 -63 21 -63 25 0 3 11 20 25 36
16 19 21 32 14 39 -14 14 25 60 88 99 29 19 53 37 53 39 0 3 -45 5 -101 5 -85
0 -100 -2 -95 -15 3 -8 -2 -34 -10 -57 -16 -46 -12 -83 13 -110 18 -20 11 -23
-17 -8 -23 12 -40 61 -40 116 0 73 -1 74 -101 74 l-89 0 0 -195z"/>
<path d="M605 823 c4 -10 10 -54 12 -97 4 -69 3 -78 -11 -73 -14 5 -16 -3 -16
-54 0 -52 -3 -62 -20 -66 -20 -5 -28 -23 -11 -23 17 0 233 58 319 85 l82 26 0
109 0 110 -181 0 c-169 0 -181 -1 -174 -17z"/>
<path d="M917 304 c-22 -30 -46 -58 -55 -61 -24 -7 -82 -33 -112 -50 -199
-110 -382 -163 -559 -163 -47 0 -110 7 -139 14 l-52 14 0 -29 0 -29 480 0 480
0 0 180 c0 99 -1 180 -2 180 -2 -1 -20 -26 -41 -56z"/>
</g>
</svg>
