<?xml version="1.0" standalone="no"?>
<!DOCTYPE svg PUBLIC "-//W3C//DTD SVG 20010904//EN"
 "http://www.w3.org/TR/2001/REC-SVG-20010904/DTD/svg10.dtd">
<svg version="1.0" xmlns="http://www.w3.org/2000/svg"
 width="96.000000pt" height="84.000000pt" viewBox="0 0 96.000000 84.000000"
 preserveAspectRatio="xMidYMid meet">
<metadata>
Created by potrace 1.16, written by Peter Selinger 2001-2019
</metadata>
<g transform="translate(0.000000,84.000000) scale(0.100000,-0.100000)"
fill="#000000" stroke="none">
<path d="M0 628 l0 -211 133 7 c72 3 177 13 232 21 55 8 103 15 108 15 4 0 7
15 7 34 0 27 -5 36 -22 41 -87 23 -108 29 -151 47 -88 35 -132 95 -120 161 3
14 0 42 -7 61 l-12 36 -84 0 -84 0 0 -212z"/>
<path d="M233 803 c0 -21 -4 -59 -8 -84 -12 -78 21 -111 74 -70 20 15 21 19 7
24 -9 4 -16 10 -16 15 0 5 38 37 85 72 47 35 85 67 85 71 0 5 -51 9 -113 9
l-113 0 -1 -37z"/>
<path d="M590 835 c0 -4 6 -18 13 -33 6 -15 12 -58 12 -97 0 -55 -3 -70 -15
-70 -11 0 -14 -10 -12 -39 4 -52 -5 -86 -23 -86 -8 0 -15 -7 -15 -15 0 -24 28
-18 224 46 l186 61 0 119 0 119 -185 0 c-102 0 -185 -2 -185 -5z"/>
<path d="M916 270 c-20 -27 -43 -50 -52 -50 -9 0 -29 -11 -46 -25 -22 -19 -41
-25 -75 -25 -35 0 -74 -13 -155 -51 -60 -28 -155 -66 -211 -84 l-102 -34 343
-1 342 0 0 160 c0 88 -2 160 -4 160 -2 0 -20 -22 -40 -50z"/>
</g>
</svg>
