<?xml version="1.0" standalone="no"?>
<!DOCTYPE svg PUBLIC "-//W3C//DTD SVG 20010904//EN"
 "http://www.w3.org/TR/2001/REC-SVG-20010904/DTD/svg10.dtd">
<svg version="1.0" xmlns="http://www.w3.org/2000/svg"
 width="96.000000pt" height="84.000000pt" viewBox="0 0 96.000000 84.000000"
 preserveAspectRatio="xMidYMid meet">
<metadata>
Created by potrace 1.16, written by Peter Selinger 2001-2019
</metadata>
<g transform="translate(0.000000,84.000000) scale(0.100000,-0.100000)"
fill="#000000" stroke="none">
<path d="M0 614 l0 -227 103 7 c117 8 358 36 369 43 18 10 7 54 -14 62 -52 20
-184 61 -195 61 -15 0 -57 39 -71 67 -7 12 -12 44 -12 71 0 26 -7 69 -16 95
l-16 47 -74 0 -74 0 0 -226z"/>
<path d="M223 800 c8 -29 8 -49 -1 -73 -17 -48 -15 -91 7 -118 18 -22 19 -22
55 -5 37 18 48 36 20 36 -25 0 -11 23 32 52 21 14 61 47 88 72 42 38 47 48 36
61 -10 12 -36 15 -130 15 l-117 0 10 -40z"/>
<path d="M580 830 c0 -6 7 -25 16 -42 16 -32 28 -148 18 -180 -3 -10 -12 -18
-20 -18 -10 0 -14 -13 -14 -47 0 -29 -6 -53 -17 -65 -9 -10 -14 -20 -11 -23 6
-7 216 54 323 94 l80 29 3 131 3 131 -191 0 c-126 0 -190 -4 -190 -10z"/>
<path d="M925 234 c-16 -24 -35 -44 -41 -44 -5 0 -23 -14 -39 -30 -36 -38
-108 -60 -194 -60 -57 0 -80 -6 -174 -47 l-108 -48 292 -3 c161 -1 294 -1 296
1 2 3 2 65 1 140 l-3 135 -30 -44z"/>
</g>
</svg>
