<?xml version="1.0" standalone="no"?>
<!DOCTYPE svg PUBLIC "-//W3C//DTD SVG 20010904//EN"
 "http://www.w3.org/TR/2001/REC-SVG-20010904/DTD/svg10.dtd">
<svg version="1.0" xmlns="http://www.w3.org/2000/svg"
 width="96.000000pt" height="84.000000pt" viewBox="0 0 96.000000 84.000000"
 preserveAspectRatio="xMidYMid meet">
<metadata>
Created by potrace 1.16, written by Peter Selinger 2001-2019
</metadata>
<g transform="translate(0.000000,84.000000) scale(0.100000,-0.100000)"
fill="#000000" stroke="none">
<path d="M0 594 l0 -246 83 6 c137 11 364 38 375 45 6 3 13 18 17 32 6 24 3
27 -27 32 -91 15 -198 41 -198 49 0 5 23 19 51 30 l51 21 -26 14 c-14 8 -26
16 -26 18 0 3 18 16 40 30 22 14 60 53 85 86 l44 59 -22 35 -22 34 -114 1
-113 0 8 -37 c10 -45 10 -102 -1 -161 -7 -37 -4 -48 15 -74 19 -26 20 -29 5
-26 -32 6 -56 50 -56 103 0 28 -10 83 -22 123 l-21 72 -63 0 -63 0 0 -246z"/>
<path d="M577 799 c7 -23 20 -53 27 -68 7 -14 19 -56 26 -93 12 -65 8 -94 -11
-83 -5 4 -8 -21 -7 -59 1 -36 3 -66 5 -66 2 0 80 25 173 56 l170 56 0 149 0
149 -199 0 -199 0 15 -41z"/>
<path d="M550 420 c0 -5 7 -7 15 -4 8 4 15 8 15 10 0 2 -7 4 -15 4 -8 0 -15
-4 -15 -10z"/>
<path d="M950 200 c0 -17 -112 -121 -154 -142 -66 -34 -95 -40 -226 -47 -111
-7 -95 -8 133 -9 l257 -2 0 105 c0 58 -2 105 -5 105 -3 0 -5 -4 -5 -10z"/>
</g>
</svg>
