<?xml version="1.0" standalone="no"?>
<!DOCTYPE svg PUBLIC "-//W3C//DTD SVG 20010904//EN"
 "http://www.w3.org/TR/2001/REC-SVG-20010904/DTD/svg10.dtd">
<svg version="1.0" xmlns="http://www.w3.org/2000/svg"
 width="96.000000pt" height="84.000000pt" viewBox="0 0 96.000000 84.000000"
 preserveAspectRatio="xMidYMid meet">
<metadata>
Created by potrace 1.16, written by Peter Selinger 2001-2019
</metadata>
<g transform="translate(0.000000,84.000000) scale(0.100000,-0.100000)"
fill="#000000" stroke="none">
<path d="M0 570 c0 -148 3 -270 8 -270 32 1 320 32 383 41 73 10 79 13 79 35
0 26 2 25 -93 29 -115 6 -131 21 -52 55 56 24 62 36 22 44 l-32 7 42 37 c41
36 103 146 103 183 0 9 -9 24 -21 35 -15 13 -19 26 -15 46 l6 28 -125 0 c-143
0 -135 8 -108 -102 13 -56 14 -75 5 -102 -20 -54 -15 -104 13 -131 17 -18 20
-25 9 -25 -28 0 -62 46 -69 93 -4 25 -4 50 -1 56 4 6 -4 47 -19 91 -14 45 -25
90 -25 101 0 16 -7 19 -55 19 l-55 0 0 -270z"/>
<path d="M569 838 c-7 -13 -6 -57 0 -73 5 -11 18 -42 29 -70 27 -64 52 -163
45 -180 -2 -8 -11 -11 -19 -8 -12 4 -14 0 -9 -19 3 -13 7 -40 8 -60 2 -44 -7
-46 192 21 l140 47 3 172 2 172 -195 0 c-107 0 -196 -1 -196 -2z"/>
<path d="M455 811 c-3 -5 -1 -12 5 -16 5 -3 10 1 10 9 0 18 -6 21 -15 7z"/>
<path d="M908 66 l-47 -61 46 -3 c25 -2 47 -1 50 1 2 3 3 31 1 64 l-3 60 -47
-61z"/>
</g>
</svg>
