<?xml version="1.0" standalone="no"?>
<!DOCTYPE svg PUBLIC "-//W3C//DTD SVG 20010904//EN"
 "http://www.w3.org/TR/2001/REC-SVG-20010904/DTD/svg10.dtd">
<svg version="1.0" xmlns="http://www.w3.org/2000/svg"
 width="96.000000pt" height="84.000000pt" viewBox="0 0 96.000000 84.000000"
 preserveAspectRatio="xMidYMid meet">
<metadata>
Created by potrace 1.16, written by Peter Selinger 2001-2019
</metadata>
<g transform="translate(0.000000,84.000000) scale(0.100000,-0.100000)"
fill="#000000" stroke="none">
<path d="M0 544 l0 -297 103 7 c122 8 354 39 363 49 15 15 -8 20 -91 20 -47 1
-85 5 -85 10 0 5 20 28 45 50 51 46 57 62 20 53 -14 -4 -25 -4 -25 -2 0 2 15
22 34 44 18 22 48 76 65 121 l33 80 -22 30 c-16 21 -21 37 -16 55 3 14 9 37
12 51 l6 25 -136 0 -136 0 0 -51 c0 -28 7 -79 16 -112 12 -48 13 -69 5 -97
-21 -68 -17 -113 11 -140 23 -21 10 -27 -22 -10 -24 13 -40 62 -40 125 0 28
-9 78 -20 110 -11 32 -20 84 -20 117 l0 58 -50 0 -50 0 0 -296z"/>
<path d="M620 812 c-51 -26 -55 -30 -54 -62 2 -48 10 -76 34 -117 12 -20 19
-41 17 -48 -3 -6 -1 -35 5 -65 10 -56 4 -105 -12 -95 -6 4 -10 -14 -10 -45 0
-60 -25 -62 203 12 l157 52 0 192 0 192 -31 6 c-17 3 -82 6 -143 5 -100 0
-116 -3 -166 -27z"/>
<path d="M455 761 c-3 -5 -1 -12 5 -16 5 -3 10 1 10 9 0 18 -6 21 -15 7z"/>
<path d="M946 21 c-4 -7 -5 -15 -2 -18 9 -9 19 4 14 18 -4 11 -6 11 -12 0z"/>
</g>
</svg>
