<?xml version="1.0" standalone="no"?>
<!DOCTYPE svg PUBLIC "-//W3C//DTD SVG 20010904//EN"
 "http://www.w3.org/TR/2001/REC-SVG-20010904/DTD/svg10.dtd">
<svg version="1.0" xmlns="http://www.w3.org/2000/svg"
 width="96.000000pt" height="84.000000pt" viewBox="0 0 96.000000 84.000000"
 preserveAspectRatio="xMidYMid meet">
<metadata>
Created by potrace 1.16, written by Peter Selinger 2001-2019
</metadata>
<g transform="translate(0.000000,84.000000) scale(0.100000,-0.100000)"
fill="#000000" stroke="none">
<path d="M0 510 c0 -181 3 -330 8 -330 22 0 299 31 366 41 89 13 85 28 -9 32
-41 1 -58 -2 -65 -13 -22 -35 -9 37 15 82 29 55 30 59 10 52 -8 -4 -15 -3 -15
0 0 14 34 73 76 134 24 35 51 76 59 91 13 26 13 30 -5 46 -29 26 -33 50 -16
87 9 18 17 49 18 68 l3 35 -134 3 c-101 2 -136 -1 -143 -10 -13 -22 -9 -172 7
-224 13 -44 13 -54 -1 -98 -20 -58 -13 -110 17 -142 28 -29 11 -31 -24 -3 -30
23 -52 89 -43 132 4 19 -3 59 -19 109 -18 57 -25 101 -25 159 l0 79 -40 0 -40
0 0 -330z"/>
<path d="M569 818 c10 -25 35 -28 84 -9 42 16 23 31 -38 31 -52 0 -54 -1 -46
-22z"/>
<path d="M830 833 c109 -19 130 -20 130 -6 0 10 -18 13 -77 12 -43 -1 -67 -4
-53 -6z"/>
<path d="M723 806 c-10 -17 -126 -76 -149 -76 -25 0 -13 -86 21 -151 17 -33
23 -55 16 -57 -7 -2 -9 -27 -4 -76 5 -66 4 -75 -15 -94 -25 -25 -41 -92 -21
-92 15 0 212 61 317 97 l72 26 -2 190 -3 190 -105 29 c-123 33 -117 32 -127
14z"/>
</g>
</svg>
