<?xml version="1.0" standalone="no"?>
<!DOCTYPE svg PUBLIC "-//W3C//DTD SVG 20010904//EN"
 "http://www.w3.org/TR/2001/REC-SVG-20010904/DTD/svg10.dtd">
<svg version="1.0" xmlns="http://www.w3.org/2000/svg"
 width="96.000000pt" height="84.000000pt" viewBox="0 0 96.000000 84.000000"
 preserveAspectRatio="xMidYMid meet">
<metadata>
Created by potrace 1.16, written by Peter Selinger 2001-2019
</metadata>
<g transform="translate(0.000000,84.000000) scale(0.100000,-0.100000)"
fill="#000000" stroke="none">
<path d="M0 475 l0 -365 28 5 c15 2 103 12 196 22 l168 17 -40 17 c-23 10 -54
16 -71 14 -29 -4 -30 -3 -25 38 2 23 6 63 9 89 6 68 27 102 99 158 35 28 71
61 79 74 15 22 14 25 -9 47 -27 25 -27 28 -5 119 23 93 23 88 -4 83 -19 -4
-25 0 -31 21 l-6 26 -108 0 -108 0 -11 -30 c-22 -64 -24 -173 -6 -253 15 -63
16 -83 7 -115 -20 -66 -15 -117 14 -151 20 -24 22 -31 10 -31 -20 0 -54 33
-66 66 -6 14 -10 53 -10 87 0 38 -8 86 -20 121 -26 73 -34 162 -22 244 l9 62
-39 0 -38 0 0 -365z"/>
<path d="M533 834 c9 -10 159 -44 168 -39 4 3 22 -1 40 -9 19 -8 68 -19 109
-26 41 -6 83 -14 93 -16 15 -5 17 2 17 45 l0 51 -217 0 c-119 0 -214 -3 -210
-6z"/>
<path d="M560 790 c0 -4 5 -21 11 -39 10 -29 14 -32 43 -25 37 8 66 22 66 32
0 4 -27 15 -60 24 -33 9 -60 13 -60 8z"/>
<path d="M730 735 c-19 -23 -127 -76 -148 -73 -14 2 -17 -4 -16 -37 1 -53 8
-77 36 -127 17 -30 20 -42 11 -45 -9 -3 -13 -31 -13 -91 0 -70 -3 -89 -19
-106 -26 -29 -36 -66 -18 -66 17 0 258 72 337 101 l60 22 0 188 0 188 -82 25
c-128 38 -133 39 -148 21z"/>
</g>
</svg>
