<?xml version="1.0" standalone="no"?>
<!DOCTYPE svg PUBLIC "-//W3C//DTD SVG 20010904//EN"
 "http://www.w3.org/TR/2001/REC-SVG-20010904/DTD/svg10.dtd">
<svg version="1.0" xmlns="http://www.w3.org/2000/svg"
 width="96.000000pt" height="84.000000pt" viewBox="0 0 96.000000 84.000000"
 preserveAspectRatio="xMidYMid meet">
<metadata>
Created by potrace 1.16, written by Peter Selinger 2001-2019
</metadata>
<g transform="translate(0.000000,84.000000) scale(0.100000,-0.100000)"
fill="#000000" stroke="none">
<path d="M0 445 l0 -395 43 1 c23 0 94 6 157 12 113 12 114 13 80 26 -19 8
-39 13 -44 12 -30 -6 -40 54 -16 99 5 10 10 33 10 50 0 61 36 106 130 160 30
18 65 44 76 58 l22 27 -29 33 c-28 31 -28 33 -14 70 19 49 36 147 23 134 -16
-16 -43 -2 -54 26 -8 21 -26 34 -80 55 -106 41 -118 39 -144 -30 -31 -84 -38
-214 -15 -313 17 -74 17 -81 1 -121 -21 -53 -14 -108 21 -149 27 -33 26 -35
-10 -19 -41 19 -60 64 -62 153 -2 52 -9 95 -20 121 -25 56 -32 238 -12 323
l14 62 -38 0 -39 0 0 -395z"/>
<path d="M348 824 c18 -8 38 -12 44 -8 16 10 -12 24 -47 23 l-30 -1 33 -14z"/>
<path d="M557 804 c-16 -19 -27 -37 -25 -39 9 -8 161 -46 171 -42 7 2 23 -2
38 -9 23 -12 174 -44 205 -44 11 0 14 19 14 85 l0 85 -187 0 -188 0 -28 -36z"/>
<path d="M565 696 c11 -52 24 -59 78 -40 27 9 46 21 44 27 -2 6 -31 18 -66 27
l-62 17 6 -31z"/>
<path d="M739 653 c-19 -23 -118 -66 -151 -65 -26 1 -28 -2 -28 -38 0 -21 5
-42 10 -45 6 -3 10 -15 10 -27 0 -11 9 -33 20 -48 11 -16 19 -41 18 -57 -2
-15 1 -59 6 -96 8 -67 -1 -109 -28 -128 -5 -4 -7 -11 -5 -17 4 -9 73 8 272 69
l97 30 -2 191 -3 192 -85 28 c-100 32 -113 33 -131 11z"/>
</g>
</svg>
