<?xml version="1.0" standalone="no"?>
<!DOCTYPE svg PUBLIC "-//W3C//DTD SVG 20010904//EN"
 "http://www.w3.org/TR/2001/REC-SVG-20010904/DTD/svg10.dtd">
<svg version="1.0" xmlns="http://www.w3.org/2000/svg"
 width="96.000000pt" height="84.000000pt" viewBox="0 0 96.000000 84.000000"
 preserveAspectRatio="xMidYMid meet">
<metadata>
Created by potrace 1.16, written by Peter Selinger 2001-2019
</metadata>
<g transform="translate(0.000000,84.000000) scale(0.100000,-0.100000)"
fill="#000000" stroke="none">
<path d="M671 821 c-6 -11 -11 -27 -11 -35 0 -9 -21 -27 -47 -40 -27 -13 -58
-35 -70 -48 -47 -50 -57 -125 -21 -158 16 -14 19 -23 11 -31 -11 -11 19 -87
39 -100 20 -13 -12 -158 -38 -178 -5 -3 -9 -20 -10 -37 -2 -60 -7 -64 -79 -64
-44 0 -67 4 -69 13 -17 63 -23 72 -46 71 -14 -1 -28 4 -32 10 -5 7 -8 6 -8 -4
0 -8 -9 -21 -20 -28 -14 -9 -20 -23 -20 -51 0 -49 30 -88 75 -97 21 -4 35 -13
38 -25 5 -18 18 -19 251 -19 135 0 246 4 246 8 0 5 -7 17 -15 28 -19 25 -19
70 0 78 8 3 15 12 15 21 0 19 -5 19 -36 -1 -13 -9 -27 -14 -30 -11 -11 10 -16
86 -9 114 l8 28 13 -40 c10 -32 13 -35 13 -15 1 14 4 36 8 49 6 23 7 23 14 5
6 -16 8 -14 9 11 l1 30 14 -30 c13 -30 13 -30 14 25 2 148 -56 403 -99 433
-11 8 -31 34 -43 58 -26 49 -50 60 -66 30z"/>
</g>
</svg>
