<?xml version="1.0" standalone="no"?>
<!DOCTYPE svg PUBLIC "-//W3C//DTD SVG 20010904//EN"
 "http://www.w3.org/TR/2001/REC-SVG-20010904/DTD/svg10.dtd">
<svg version="1.0" xmlns="http://www.w3.org/2000/svg"
 width="96.000000pt" height="84.000000pt" viewBox="0 0 96.000000 84.000000"
 preserveAspectRatio="xMidYMid meet">
<metadata>
Created by potrace 1.16, written by Peter Selinger 2001-2019
</metadata>
<g transform="translate(0.000000,84.000000) scale(0.100000,-0.100000)"
fill="#000000" stroke="none">
<path d="M0 420 l0 -420 105 0 104 0 -25 25 -25 25 31 44 c17 25 27 51 24 60
-10 27 35 85 116 146 43 33 90 74 103 92 l26 32 -30 33 c-33 38 -34 44 -15 81
8 15 17 49 21 75 7 43 5 47 -13 47 -12 0 -24 11 -31 28 -10 23 -29 35 -106 65
-51 20 -98 37 -103 37 -16 0 -52 -119 -61 -202 -8 -75 -3 -136 19 -218 10 -37
9 -53 -5 -101 -20 -65 -15 -114 16 -153 27 -34 2 -36 -29 -3 -29 31 -42 78
-42 153 0 37 -8 84 -21 120 -17 47 -22 83 -22 174 -1 108 2 129 39 258 6 20 3
22 -35 22 l-41 0 0 -420z"/>
<path d="M186 826 c21 -15 192 -86 206 -86 4 0 8 5 8 10 0 6 -7 10 -15 10 -17
0 -20 25 -5 35 5 3 15 15 20 26 10 18 6 19 -112 19 -108 0 -120 -2 -102 -14z"/>
<path d="M577 806 c4 -27 0 -42 -23 -71 -33 -44 -31 -46 74 -69 42 -10 91 -22
107 -28 43 -14 187 -47 208 -48 15 0 17 13 17 125 l0 125 -194 0 -195 0 6 -34z"/>
<path d="M565 628 c20 -71 26 -74 104 -42 42 17 34 27 -38 48 -70 21 -74 20
-66 -6z"/>
<path d="M747 576 c-17 -26 -137 -77 -164 -70 -17 5 -20 0 -21 -30 -1 -19 3
-38 8 -41 6 -3 10 -15 10 -25 0 -10 9 -35 21 -54 11 -19 22 -50 24 -68 2 -18
8 -63 15 -100 9 -49 9 -76 2 -98 -6 -16 -10 -30 -9 -30 6 0 202 54 260 71 l67
21 0 193 c0 192 0 193 -22 199 -13 3 -58 17 -100 30 l-77 24 -14 -22z"/>
</g>
</svg>
