<?xml version="1.0" standalone="no"?>
<!DOCTYPE svg PUBLIC "-//W3C//DTD SVG 20010904//EN"
 "http://www.w3.org/TR/2001/REC-SVG-20010904/DTD/svg10.dtd">
<svg version="1.0" xmlns="http://www.w3.org/2000/svg"
 width="96.000000pt" height="84.000000pt" viewBox="0 0 96.000000 84.000000"
 preserveAspectRatio="xMidYMid meet">
<metadata>
Created by potrace 1.16, written by Peter Selinger 2001-2019
</metadata>
<g transform="translate(0.000000,84.000000) scale(0.100000,-0.100000)"
fill="#000000" stroke="none">
<path d="M0 420 l0 -420 76 0 76 0 -31 26 c-37 30 -51 77 -51 165 0 43 -8 86
-22 125 -30 81 -32 277 -4 374 11 36 20 77 21 93 1 15 3 29 4 32 1 7 70 -22
101 -43 38 -26 223 -101 234 -95 5 3 0 10 -10 16 -11 5 -20 11 -22 13 -5 3 47
85 71 112 l20 22 -231 0 -232 0 0 -420z"/>
<path d="M514 827 c45 -29 58 -45 65 -77 6 -30 3 -40 -26 -77 l-34 -41 43 -15
c92 -33 148 -48 157 -42 6 3 27 -3 48 -13 21 -10 65 -24 98 -31 33 -7 68 -15
78 -17 16 -5 17 7 17 160 l0 166 -232 -1 c-184 0 -229 -3 -214 -12z"/>
<path d="M141 668 c-42 -127 -45 -234 -10 -372 10 -42 10 -55 -6 -98 -22 -62
-14 -130 21 -165 l24 -24 30 21 c25 18 28 24 19 41 -9 17 -5 24 21 47 96 81
157 143 187 190 l34 53 -30 35 c-35 40 -36 45 -17 82 8 15 17 49 21 76 6 39 5
48 -6 44 -7 -2 -23 9 -34 25 -14 22 -46 41 -110 68 -50 21 -98 38 -107 39 -11
0 -23 -19 -37 -62z"/>
<path d="M570 553 c17 -60 22 -65 48 -58 13 3 38 9 54 12 43 9 31 33 -27 54
-74 26 -85 25 -75 -8z"/>
<path d="M748 496 c-21 -29 -129 -70 -161 -62 -24 6 -24 5 -15 -52 5 -31 20
-75 33 -98 13 -22 24 -49 23 -60 0 -10 6 -55 15 -100 9 -44 13 -91 10 -102 -3
-12 -2 -22 2 -22 7 0 215 52 270 68 l30 8 0 194 0 193 -85 29 c-46 15 -89 28
-95 28 -5 0 -18 -11 -27 -24z"/>
</g>
</svg>
