<?xml version="1.0" standalone="no"?>
<!DOCTYPE svg PUBLIC "-//W3C//DTD SVG 20010904//EN"
 "http://www.w3.org/TR/2001/REC-SVG-20010904/DTD/svg10.dtd">
<svg version="1.0" xmlns="http://www.w3.org/2000/svg"
 width="96.000000pt" height="84.000000pt" viewBox="0 0 96.000000 84.000000"
 preserveAspectRatio="xMidYMid meet">
<metadata>
Created by potrace 1.16, written by Peter Selinger 2001-2019
</metadata>
<g transform="translate(0.000000,84.000000) scale(0.100000,-0.100000)"
fill="#000000" stroke="none">
<path d="M0 420 l0 -420 41 0 c35 0 40 2 34 17 -5 10 -9 54 -10 98 -2 54 -10
101 -26 145 -32 91 -33 280 -2 390 12 41 21 84 20 95 -3 29 36 22 104 -20 54
-33 211 -105 230 -105 5 0 9 7 9 15 0 8 -7 15 -15 15 -24 0 -18 22 23 74 52
69 62 74 113 51 29 -13 46 -29 55 -52 20 -48 17 -65 -16 -96 -16 -16 -30 -35
-30 -42 0 -18 168 -81 193 -72 6 2 26 -3 42 -11 30 -15 158 -51 183 -52 9 0
12 46 12 195 l0 195 -480 0 -480 0 0 -420z"/>
<path d="M155 670 c-23 -37 -47 -139 -52 -217 -4 -69 -1 -115 12 -182 15 -74
16 -97 7 -128 -13 -44 -15 -54 -13 -105 l1 -38 54 0 c46 0 56 3 61 20 4 11 31
39 61 61 54 40 120 120 158 191 l20 36 -32 36 c-37 43 -36 37 -18 81 8 19 18
55 22 81 5 37 4 46 -7 42 -8 -3 -21 6 -29 20 -10 16 -50 40 -115 68 -104 46
-120 50 -130 34z"/>
<path d="M570 518 c0 -3 7 -25 15 -50 l16 -45 55 15 c64 18 69 38 14 57 -44
15 -100 28 -100 23z"/>
<path d="M758 436 c-24 -33 -143 -80 -168 -66 -18 10 -20 7 -20 -24 0 -19 5
-38 10 -41 6 -3 10 -15 10 -26 0 -11 12 -41 27 -67 16 -27 23 -47 16 -49 -7
-3 -8 -18 -2 -46 4 -23 10 -59 14 -79 l6 -38 123 0 c68 0 138 3 155 6 l31 7 0
192 0 193 -72 25 c-110 39 -111 39 -130 13z"/>
</g>
</svg>
