<?xml version="1.0" standalone="no"?>
<!DOCTYPE svg PUBLIC "-//W3C//DTD SVG 20010904//EN"
 "http://www.w3.org/TR/2001/REC-SVG-20010904/DTD/svg10.dtd">
<svg version="1.0" xmlns="http://www.w3.org/2000/svg"
 width="96.000000pt" height="84.000000pt" viewBox="0 0 96.000000 84.000000"
 preserveAspectRatio="xMidYMid meet">
<metadata>
Created by potrace 1.16, written by Peter Selinger 2001-2019
</metadata>
<g transform="translate(0.000000,84.000000) scale(0.100000,-0.100000)"
fill="#000000" stroke="none">
<path d="M0 420 l0 -420 30 0 30 0 0 73 c0 50 -7 93 -21 133 -16 44 -23 91
-26 185 -5 109 -2 137 17 210 13 46 23 94 22 107 0 13 6 22 14 22 16 0 91 -36
114 -54 14 -11 75 -40 173 -81 37 -15 37 -15 37 10 0 16 -6 25 -15 25 -22 0
-19 6 23 56 56 69 77 77 132 51 37 -18 47 -29 59 -65 l13 -43 -41 -41 c-39
-40 -40 -42 -21 -55 27 -19 158 -63 188 -63 13 0 36 -7 50 -15 15 -8 62 -23
105 -34 l77 -19 0 219 0 219 -480 0 -480 0 0 -420z"/>
<path d="M131 588 c-12 -35 -26 -104 -33 -154 -10 -83 -9 -100 12 -191 22 -96
22 -103 6 -149 -9 -26 -16 -58 -16 -71 0 -22 4 -23 68 -23 l68 0 96 97 c88 91
128 145 128 174 0 6 -13 27 -30 46 -28 32 -29 35 -17 66 8 18 17 50 21 72 4
22 9 47 12 56 3 13 -1 15 -19 12 -17 -3 -28 2 -41 21 -9 14 -21 26 -26 26 -6
0 -50 18 -99 40 -49 22 -93 40 -99 40 -6 0 -20 -28 -31 -62z"/>
<path d="M588 433 c9 -27 17 -49 18 -51 1 -2 24 3 50 11 67 19 67 44 -1 68
-83 29 -87 28 -67 -28z"/>
<path d="M765 395 c-23 -30 -138 -79 -167 -71 -19 4 -20 1 -14 -47 5 -32 19
-71 38 -100 22 -35 28 -51 19 -56 -8 -5 -10 -25 -5 -64 l7 -57 158 0 159 0 0
179 0 178 -77 28 c-43 16 -83 30 -88 32 -6 2 -20 -8 -30 -22z"/>
</g>
</svg>
