<?xml version="1.0" standalone="no"?>
<!DOCTYPE svg PUBLIC "-//W3C//DTD SVG 20010904//EN"
 "http://www.w3.org/TR/2001/REC-SVG-20010904/DTD/svg10.dtd">
<svg version="1.0" xmlns="http://www.w3.org/2000/svg"
 width="96.000000pt" height="84.000000pt" viewBox="0 0 96.000000 84.000000"
 preserveAspectRatio="xMidYMid meet">
<metadata>
Created by potrace 1.16, written by Peter Selinger 2001-2019
</metadata>
<g transform="translate(0.000000,84.000000) scale(0.100000,-0.100000)"
fill="#000000" stroke="none">
<path d="M1 633 c1 -156 4 -191 9 -141 5 37 16 93 25 124 9 31 14 65 12 76 -9
34 13 29 116 -25 56 -30 130 -66 164 -80 61 -25 61 -25 67 -4 3 13 -1 25 -12
33 -15 12 -13 17 28 59 25 26 53 51 62 56 25 14 101 -22 116 -55 16 -36 15
-75 -3 -82 -8 -3 -23 -20 -33 -38 -19 -31 -19 -32 2 -47 26 -20 142 -59 173
-59 13 0 36 -6 52 -14 15 -8 62 -23 104 -34 l77 -20 0 229 0 229 -480 0 -480
0 1 -207z"/>
<path d="M137 593 c-45 -117 -55 -280 -23 -399 18 -67 18 -73 3 -119 -26 -75
-26 -75 52 -75 65 0 71 2 90 29 12 16 56 58 99 93 42 36 86 81 97 101 l19 37
-32 33 c-36 37 -39 55 -17 97 9 16 18 49 21 73 6 39 4 43 -16 44 -13 1 -32 11
-44 21 -21 20 -201 102 -222 102 -7 0 -18 -17 -27 -37z"/>
<path d="M580 446 c0 -8 5 -18 10 -21 6 -3 10 -20 10 -36 0 -29 1 -30 33 -24
93 21 101 48 22 76 -63 22 -75 23 -75 5z"/>
<path d="M769 379 c-13 -24 -126 -79 -164 -79 -27 0 -33 -23 -17 -58 5 -9 22
-44 38 -76 21 -42 25 -60 17 -63 -8 -3 -11 -15 -7 -31 3 -15 7 -37 10 -50 4
-22 7 -22 159 -22 l155 0 0 169 0 169 -86 31 c-47 17 -87 31 -89 31 -2 0 -9
-9 -16 -21z"/>
<path d="M1 188 l-1 -188 30 0 30 0 0 63 c0 39 -8 87 -21 123 -11 32 -24 88
-28 124 -7 51 -9 23 -10 -122z"/>
<path d="M450 351 c0 -5 5 -13 10 -16 6 -3 10 -2 10 4 0 5 -4 13 -10 16 -5 3
-10 2 -10 -4z"/>
</g>
</svg>
