<?xml version="1.0" standalone="no"?>
<!DOCTYPE svg PUBLIC "-//W3C//DTD SVG 20010904//EN"
 "http://www.w3.org/TR/2001/REC-SVG-20010904/DTD/svg10.dtd">
<svg version="1.0" xmlns="http://www.w3.org/2000/svg"
 width="96.000000pt" height="84.000000pt" viewBox="0 0 96.000000 84.000000"
 preserveAspectRatio="xMidYMid meet">
<metadata>
Created by potrace 1.16, written by Peter Selinger 2001-2019
</metadata>
<g transform="translate(0.000000,84.000000) scale(0.100000,-0.100000)"
fill="#000000" stroke="none">
<path d="M1 628 c1 -154 4 -195 9 -148 4 36 15 91 25 122 9 32 14 67 10 78 -5
14 -2 20 10 20 18 0 92 -36 115 -55 18 -16 198 -95 217 -95 19 0 16 37 -4 49
-16 9 -12 16 32 60 27 28 57 54 67 57 10 3 37 -4 61 -14 38 -17 45 -25 55 -61
10 -41 9 -43 -29 -84 l-38 -42 27 -21 c29 -24 168 -71 178 -61 4 3 23 -2 43
-13 35 -17 145 -50 170 -50 8 0 11 70 11 235 l0 235 -480 0 -480 0 1 -212z"/>
<path d="M139 583 c-21 -55 -37 -131 -44 -206 -6 -62 -3 -95 15 -177 22 -93
22 -103 8 -147 l-15 -48 65 -3 65 -3 51 49 c28 27 73 66 101 86 84 63 105 111
60 140 -33 22 -40 56 -21 95 9 17 19 51 23 76 5 39 3 45 -12 45 -11 0 -28 8
-39 18 -24 21 -206 102 -230 102 -9 0 -21 -12 -27 -27z"/>
<path d="M580 442 c1 -4 7 -18 15 -32 8 -14 14 -36 15 -49 0 -18 4 -22 18 -16
9 3 29 9 44 12 32 6 50 24 40 39 -8 13 -132 56 -132 46z"/>
<path d="M769 359 c-12 -23 -126 -79 -160 -79 -20 0 -21 -4 -15 -42 4 -23 20
-66 37 -94 17 -30 25 -54 19 -56 -7 -2 -8 -17 -2 -43 l8 -40 152 -3 152 -3 -2
163 -3 162 -75 27 c-91 34 -96 34 -111 8z"/>
<path d="M1 178 l-1 -178 30 0 c30 0 30 0 30 58 0 33 -9 83 -21 117 -11 33
-24 86 -29 120 -6 46 -8 18 -9 -117z"/>
<path d="M450 330 c0 -5 5 -10 10 -10 6 0 10 5 10 10 0 6 -4 10 -10 10 -5 0
-10 -4 -10 -10z"/>
</g>
</svg>
