<?xml version="1.0" standalone="no"?>
<!DOCTYPE svg PUBLIC "-//W3C//DTD SVG 20010904//EN"
 "http://www.w3.org/TR/2001/REC-SVG-20010904/DTD/svg10.dtd">
<svg version="1.0" xmlns="http://www.w3.org/2000/svg"
 width="96.000000pt" height="84.000000pt" viewBox="0 0 96.000000 84.000000"
 preserveAspectRatio="xMidYMid meet">
<metadata>
Created by potrace 1.16, written by Peter Selinger 2001-2019
</metadata>
<g transform="translate(0.000000,84.000000) scale(0.100000,-0.100000)"
fill="#000000" stroke="none">
<path d="M0 420 l0 -420 29 0 c44 0 49 46 15 146 -35 107 -44 284 -18 394 9
41 18 90 19 108 1 18 4 35 8 38 5 6 102 -40 127 -61 25 -20 211 -96 221 -90
15 10 10 35 -6 35 -27 0 -16 24 38 83 l53 57 48 -16 c30 -10 50 -24 55 -38 22
-57 22 -65 2 -85 -12 -12 -21 -24 -21 -28 0 -3 -7 -15 -16 -25 -16 -16 -15
-19 7 -38 27 -22 138 -60 178 -60 15 0 36 -6 47 -14 11 -8 55 -23 97 -34 l77
-20 0 244 0 244 -480 0 -480 0 0 -420z"/>
<path d="M131 537 c-44 -132 -46 -262 -6 -400 12 -41 12 -53 0 -88 -8 -23 -15
-43 -15 -45 0 -2 36 -4 79 -4 l80 0 80 72 c45 40 92 89 106 109 l24 38 -34 41
c-39 47 -41 54 -21 92 22 42 32 118 15 118 -7 0 -22 9 -33 19 -22 20 -221 111
-242 111 -7 0 -22 -28 -33 -63z"/>
<path d="M595 400 c8 -16 15 -39 15 -51 0 -18 4 -21 28 -16 101 20 108 52 17
79 -78 23 -78 23 -60 -12z"/>
<path d="M774 346 c-16 -26 -124 -78 -161 -78 -17 0 -23 -6 -23 -24 0 -12 4
-25 9 -29 6 -3 9 -13 9 -23 -1 -9 11 -37 26 -60 15 -24 25 -50 22 -58 -3 -8
-3 -28 1 -44 l6 -30 149 0 149 0 -3 157 -3 156 -83 28 -82 28 -16 -23z"/>
<path d="M455 321 c-3 -5 -1 -12 5 -16 5 -3 10 1 10 9 0 18 -6 21 -15 7z"/>
</g>
</svg>
