<?xml version="1.0" standalone="no"?>
<!DOCTYPE svg PUBLIC "-//W3C//DTD SVG 20010904//EN"
 "http://www.w3.org/TR/2001/REC-SVG-20010904/DTD/svg10.dtd">
<svg version="1.0" xmlns="http://www.w3.org/2000/svg"
 width="96.000000pt" height="84.000000pt" viewBox="0 0 96.000000 84.000000"
 preserveAspectRatio="xMidYMid meet">
<metadata>
Created by potrace 1.16, written by Peter Selinger 2001-2019
</metadata>
<g transform="translate(0.000000,84.000000) scale(0.100000,-0.100000)"
fill="#000000" stroke="none">
<path d="M0 420 l0 -420 35 0 c34 0 35 1 35 38 0 21 -12 72 -26 113 -36 103
-43 253 -18 369 10 47 18 100 19 118 1 18 5 35 8 38 3 4 52 -18 109 -48 57
-30 134 -68 171 -83 58 -24 70 -26 78 -14 6 10 3 15 -11 17 -27 4 -25 16 7 60
57 78 73 91 107 85 48 -9 74 -30 85 -69 11 -38 6 -49 -53 -116 -13 -15 -11
-19 27 -41 55 -32 143 -60 167 -54 10 3 31 -3 47 -12 22 -14 145 -51 168 -51
3 0 5 110 5 245 l0 245 -480 0 -480 0 0 -420z"/>
<path d="M130 518 c-35 -109 -39 -242 -10 -357 18 -74 20 -96 11 -122 -6 -18
-11 -34 -11 -35 0 -2 45 -4 100 -4 l99 0 64 74 c34 41 72 90 82 110 l19 36
-38 39 c-38 39 -42 63 -16 96 5 6 11 31 15 58 6 39 5 47 -8 47 -9 0 -20 7 -25
16 -8 15 -223 114 -247 114 -6 0 -22 -33 -35 -72z"/>
<path d="M595 403 c4 -10 12 -31 19 -48 6 -16 11 -31 12 -33 3 -5 87 20 97 28
18 16 -8 38 -63 53 -74 21 -74 21 -65 0z"/>
<path d="M773 331 c-23 -29 -117 -71 -159 -71 -17 0 -24 -6 -24 -20 0 -22 2
-26 44 -108 17 -32 25 -60 21 -72 -4 -11 -3 -29 0 -40 6 -19 15 -20 156 -20
l149 0 0 153 0 154 -77 26 c-43 15 -80 27 -83 27 -3 -1 -15 -14 -27 -29z"/>
<path d="M461 314 c0 -11 3 -14 6 -6 3 7 2 16 -1 19 -3 4 -6 -2 -5 -13z"/>
</g>
</svg>
