<?xml version="1.0" standalone="no"?>
<!DOCTYPE svg PUBLIC "-//W3C//DTD SVG 20010904//EN"
 "http://www.w3.org/TR/2001/REC-SVG-20010904/DTD/svg10.dtd">
<svg version="1.0" xmlns="http://www.w3.org/2000/svg"
 width="96.000000pt" height="84.000000pt" viewBox="0 0 96.000000 84.000000"
 preserveAspectRatio="xMidYMid meet">
<metadata>
Created by potrace 1.16, written by Peter Selinger 2001-2019
</metadata>
<g transform="translate(0.000000,84.000000) scale(0.100000,-0.100000)"
fill="#000000" stroke="none">
<path d="M0 420 l0 -420 34 0 c51 0 53 24 14 138 -31 91 -33 105 -32 227 1 95
6 149 21 202 11 43 16 76 10 82 -34 34 81 3 123 -33 14 -13 77 -41 191 -86 41
-17 49 -17 49 -5 0 8 -7 15 -15 15 -8 0 -15 4 -15 9 0 17 50 97 74 120 50 47
146 1 146 -70 0 -17 -6 -32 -15 -35 -8 -4 -15 -12 -15 -20 0 -8 -9 -23 -19
-33 -18 -18 -18 -19 20 -44 43 -28 132 -57 176 -57 16 0 38 -6 49 -14 16 -12
137 -46 160 -46 2 0 4 110 4 245 l0 245 -480 0 -480 0 0 -420z"/>
<path d="M131 506 c-35 -119 -38 -232 -9 -346 15 -58 22 -103 17 -115 -17 -44
-14 -45 100 -45 l109 0 35 48 c47 63 97 150 97 166 0 8 -11 21 -25 30 -40 26
-50 57 -31 94 22 42 32 112 16 112 -6 0 -19 9 -28 20 -17 21 -214 110 -243
110 -11 0 -23 -22 -38 -74z"/>
<path d="M590 413 c1 -5 7 -19 15 -33 8 -14 14 -35 15 -46 0 -21 1 -21 55 -6
46 13 55 19 53 35 -2 14 -19 24 -63 38 -67 21 -75 22 -75 12z"/>
<path d="M782 331 c-23 -31 -142 -84 -167 -75 -9 4 -17 -1 -21 -11 -7 -17 -1
-35 47 -127 17 -33 25 -58 18 -60 -6 -2 -8 -14 -4 -31 l7 -27 149 0 149 0 0
154 0 154 -67 22 c-38 12 -73 23 -79 25 -6 2 -21 -9 -32 -24z"/>
<path d="M460 305 c0 -8 4 -15 10 -15 5 0 7 7 4 15 -4 8 -8 15 -10 15 -2 0 -4
-7 -4 -15z"/>
</g>
</svg>
