<?xml version="1.0" standalone="no"?>
<!DOCTYPE svg PUBLIC "-//W3C//DTD SVG 20010904//EN"
 "http://www.w3.org/TR/2001/REC-SVG-20010904/DTD/svg10.dtd">
<svg version="1.0" xmlns="http://www.w3.org/2000/svg"
 width="96.000000pt" height="84.000000pt" viewBox="0 0 96.000000 84.000000"
 preserveAspectRatio="xMidYMid meet">
<metadata>
Created by potrace 1.16, written by Peter Selinger 2001-2019
</metadata>
<g transform="translate(0.000000,84.000000) scale(0.100000,-0.100000)"
fill="#000000" stroke="none">
<path d="M0 420 l0 -420 40 0 c37 0 40 2 40 26 0 15 -14 66 -30 114 -41 119
-48 232 -24 360 10 52 18 110 18 128 0 23 4 32 15 32 20 0 100 -36 121 -54 16
-14 193 -86 210 -86 18 0 11 18 -10 25 -18 6 -18 9 12 58 48 79 57 87 100 87
50 0 74 -13 93 -51 15 -29 13 -69 -5 -69 -4 0 -11 -11 -14 -24 -3 -14 -13 -32
-22 -40 -14 -15 -13 -17 9 -25 14 -6 28 -14 31 -20 8 -13 143 -54 159 -48 7 2
28 -2 47 -10 19 -8 58 -21 85 -29 92 -25 85 -45 85 226 l0 240 -480 0 -480 0
0 -420z"/>
<path d="M132 508 c-12 -40 -25 -111 -28 -158 -6 -74 -3 -101 20 -191 21 -83
25 -111 17 -132 l-11 -28 113 3 112 3 58 85 c76 112 78 121 34 169 l-36 40 20
55 c24 69 24 96 2 96 -10 0 -26 11 -38 24 -17 22 -203 106 -232 106 -5 0 -20
-33 -31 -72z"/>
<path d="M605 390 c8 -16 15 -39 15 -51 0 -18 4 -21 28 -16 103 21 111 55 18
80 -82 22 -79 22 -61 -13z"/>
<path d="M783 333 c-24 -33 -131 -78 -164 -70 -21 6 -21 4 -16 -45 4 -32 18
-68 38 -100 25 -38 29 -52 19 -58 -8 -5 -10 -17 -6 -34 l6 -26 150 0 150 0 0
158 0 159 -74 21 c-41 12 -76 22 -78 22 -2 0 -13 -12 -25 -27z"/>
<path d="M460 305 c0 -8 4 -15 10 -15 5 0 7 7 4 15 -4 8 -8 15 -10 15 -2 0 -4
-7 -4 -15z"/>
</g>
</svg>
