<?xml version="1.0" standalone="no"?>
<!DOCTYPE svg PUBLIC "-//W3C//DTD SVG 20010904//EN"
 "http://www.w3.org/TR/2001/REC-SVG-20010904/DTD/svg10.dtd">
<svg version="1.0" xmlns="http://www.w3.org/2000/svg"
 width="96.000000pt" height="84.000000pt" viewBox="0 0 96.000000 84.000000"
 preserveAspectRatio="xMidYMid meet">
<metadata>
Created by potrace 1.16, written by Peter Selinger 2001-2019
</metadata>
<g transform="translate(0.000000,84.000000) scale(0.100000,-0.100000)"
fill="#000000" stroke="none">
<path d="M637 803 c-4 -3 -7 -22 -7 -40 0 -29 -5 -36 -32 -48 -83 -34 -123
-131 -77 -189 11 -14 18 -30 14 -35 -6 -11 25 -81 36 -81 4 0 10 -17 14 -37 7
-39 -16 -108 -44 -129 -7 -6 -12 -17 -9 -25 3 -8 -1 -26 -8 -41 -12 -23 -18
-26 -56 -21 -83 9 -85 10 -92 53 -7 44 -22 56 -60 46 -42 -10 -59 -35 -53 -79
6 -46 29 -74 68 -82 27 -6 29 -10 29 -51 l0 -44 235 0 c129 0 235 3 235 8 -1
4 -7 18 -15 32 -18 32 -19 70 -1 70 8 0 16 7 20 15 6 18 -15 20 -31 4 -21 -21
-33 2 -33 59 0 41 3 53 10 42 7 -12 10 -8 10 15 1 29 1 29 15 11 15 -20 15
-20 16 0 1 10 1 35 0 54 l-1 35 14 -30 c11 -24 15 -26 15 -10 1 17 3 18 12 5
22 -32 -15 198 -51 319 -22 74 -40 101 -68 101 -9 0 -27 18 -40 40 -21 37 -48
51 -65 33z"/>
</g>
</svg>
