<?xml version="1.0" standalone="no"?>
<!DOCTYPE svg PUBLIC "-//W3C//DTD SVG 20010904//EN"
 "http://www.w3.org/TR/2001/REC-SVG-20010904/DTD/svg10.dtd">
<svg version="1.0" xmlns="http://www.w3.org/2000/svg"
 width="96.000000pt" height="84.000000pt" viewBox="0 0 96.000000 84.000000"
 preserveAspectRatio="xMidYMid meet">
<metadata>
Created by potrace 1.16, written by Peter Selinger 2001-2019
</metadata>
<g transform="translate(0.000000,84.000000) scale(0.100000,-0.100000)"
fill="#000000" stroke="none">
<path d="M0 420 l0 -420 41 0 41 0 -5 43 c-2 23 -17 76 -32 117 -26 68 -29 87
-29 205 0 91 5 148 17 192 9 33 15 68 11 76 -3 8 -1 18 4 21 11 7 97 -28 122
-48 15 -12 182 -79 184 -74 15 31 53 100 69 125 39 58 124 52 154 -11 14 -30
14 -37 2 -52 -7 -9 -14 -22 -15 -28 -3 -30 -5 -36 -18 -49 -13 -12 -9 -18 25
-41 41 -26 137 -56 174 -54 11 0 47 -8 80 -19 33 -12 77 -24 98 -27 l37 -7 0
236 0 235 -480 0 -480 0 0 -420z"/>
<path d="M135 528 c-23 -76 -38 -205 -30 -263 3 -27 15 -83 26 -124 12 -43 19
-89 16 -108 l-6 -33 101 0 c84 0 103 3 115 18 41 52 123 181 123 194 0 8 -13
27 -30 43 -30 29 -38 62 -21 93 5 9 12 37 16 61 6 39 5 43 -9 38 -12 -5 -22 2
-33 21 -12 22 -39 36 -122 67 -58 22 -111 41 -118 43 -7 2 -19 -19 -28 -50z"/>
<path d="M378 523 c7 -3 16 -2 19 1 4 3 -2 6 -13 5 -11 0 -14 -3 -6 -6z"/>
<path d="M600 410 c0 -10 5 -22 10 -25 6 -3 10 -16 10 -29 0 -33 5 -34 60 -17
40 13 50 20 48 36 -2 15 -18 24 -65 37 -61 16 -63 16 -63 -2z"/>
<path d="M783 342 c-23 -32 -143 -85 -169 -75 -27 10 -10 -79 28 -145 17 -31
27 -57 22 -59 -6 -2 -8 -17 -6 -33 l4 -30 149 0 149 0 0 165 0 164 -69 21
c-86 25 -83 25 -108 -8z"/>
<path d="M460 318 c0 -9 5 -20 10 -23 13 -8 13 5 0 25 -8 13 -10 13 -10 -2z"/>
</g>
</svg>
