<?xml version="1.0" standalone="no"?>
<!DOCTYPE svg PUBLIC "-//W3C//DTD SVG 20010904//EN"
 "http://www.w3.org/TR/2001/REC-SVG-20010904/DTD/svg10.dtd">
<svg version="1.0" xmlns="http://www.w3.org/2000/svg"
 width="96.000000pt" height="84.000000pt" viewBox="0 0 96.000000 84.000000"
 preserveAspectRatio="xMidYMid meet">
<metadata>
Created by potrace 1.16, written by Peter Selinger 2001-2019
</metadata>
<g transform="translate(0.000000,84.000000) scale(0.100000,-0.100000)"
fill="#000000" stroke="none">
<path d="M0 420 l0 -420 45 0 c41 0 45 2 45 25 0 13 -13 58 -29 98 -53 132
-63 308 -26 448 10 36 11 57 4 65 -19 23 9 25 61 4 28 -11 61 -27 74 -35 24
-16 161 -65 182 -65 7 0 20 24 30 53 24 74 39 92 84 106 46 14 70 5 96 -34 13
-20 14 -31 6 -53 -6 -15 -13 -39 -16 -54 -4 -16 -11 -28 -16 -28 -21 0 -8 -19
28 -41 45 -28 114 -49 165 -49 21 0 50 -6 65 -14 15 -7 45 -16 67 -20 22 -4
52 -9 68 -12 l27 -6 0 226 0 226 -480 0 -480 0 0 -420z"/>
<path d="M136 533 c-23 -69 -38 -199 -30 -263 4 -30 17 -90 31 -133 19 -63 22
-85 14 -108 l-10 -29 104 0 103 0 66 102 c36 57 66 110 66 118 0 9 -13 29 -30
45 -30 29 -38 61 -21 93 4 9 11 34 15 54 5 30 4 37 -7 32 -7 -2 -22 5 -33 17
-10 13 -13 19 -7 15 9 -5 11 -2 7 7 -4 12 -222 97 -247 97 -3 0 -12 -21 -21
-47z"/>
<path d="M604 419 c5 -13 10 -36 13 -51 6 -33 6 -33 66 -12 64 22 64 47 0 63
-27 7 -57 14 -67 18 -16 4 -18 2 -12 -18z"/>
<path d="M781 358 c-27 -33 -116 -78 -156 -78 -21 0 -25 -5 -25 -29 0 -17 5
-33 10 -36 6 -4 8 -11 4 -16 -3 -5 9 -32 26 -60 19 -31 29 -58 25 -69 -3 -10
-3 -30 1 -44 l6 -26 144 0 144 0 0 174 c0 158 -2 175 -17 180 -10 3 -38 10
-63 16 -25 6 -52 13 -60 15 -8 2 -26 -10 -39 -27z"/>
<path d="M460 326 c0 -8 5 -18 10 -21 6 -3 10 1 10 9 0 8 -4 18 -10 21 -5 3
-10 -1 -10 -9z"/>
</g>
</svg>
