<?xml version="1.0" standalone="no"?>
<!DOCTYPE svg PUBLIC "-//W3C//DTD SVG 20010904//EN"
 "http://www.w3.org/TR/2001/REC-SVG-20010904/DTD/svg10.dtd">
<svg version="1.0" xmlns="http://www.w3.org/2000/svg"
 width="96.000000pt" height="84.000000pt" viewBox="0 0 96.000000 84.000000"
 preserveAspectRatio="xMidYMid meet">
<metadata>
Created by potrace 1.16, written by Peter Selinger 2001-2019
</metadata>
<g transform="translate(0.000000,84.000000) scale(0.100000,-0.100000)"
fill="#000000" stroke="none">
<path d="M0 420 l0 -420 45 0 c44 0 45 1 45 33 0 17 -13 66 -29 107 -52 134
-61 321 -22 456 6 20 5 36 -1 42 -18 18 11 24 50 11 20 -7 62 -24 92 -39 65
-32 156 -63 171 -58 6 2 20 33 32 68 22 66 36 80 98 95 36 9 94 -38 84 -69 -4
-12 -6 -32 -6 -45 1 -14 -6 -35 -14 -48 -17 -25 -13 -43 9 -43 8 0 19 -6 25
-14 14 -17 94 -37 162 -41 27 -2 55 -7 62 -13 6 -5 32 -13 57 -16 25 -4 57 -9
73 -12 l27 -6 0 216 0 216 -480 0 -480 0 0 -420z"/>
<path d="M146 572 c-18 -29 -36 -144 -36 -230 0 -81 5 -117 26 -183 18 -59 24
-94 20 -121 l-6 -38 92 0 93 0 50 72 c64 93 95 146 95 165 0 8 -13 26 -30 40
-32 26 -38 59 -19 95 14 26 21 80 9 73 -12 -7 -40 23 -40 44 0 13 -27 26 -109
54 -112 38 -136 43 -145 29z"/>
<path d="M600 436 c0 -8 5 -18 10 -21 6 -3 10 -20 10 -36 0 -27 3 -29 22 -23
103 32 114 60 33 81 -64 16 -75 16 -75 -1z"/>
<path d="M790 384 c-18 -33 -143 -98 -172 -88 -18 5 -20 3 -15 -27 8 -58 15
-77 43 -125 19 -33 24 -48 15 -53 -6 -4 -10 -14 -7 -22 2 -8 7 -26 10 -42 l6
-27 145 0 145 0 0 184 c0 167 -2 185 -17 190 -10 3 -38 10 -63 16 -25 6 -52
13 -61 16 -9 2 -21 -6 -29 -22z"/>
<path d="M460 336 c0 -8 5 -18 10 -21 6 -3 10 3 10 14 0 12 -4 21 -10 21 -5 0
-10 -6 -10 -14z"/>
</g>
</svg>
