<?xml version="1.0" standalone="no"?>
<!DOCTYPE svg PUBLIC "-//W3C//DTD SVG 20010904//EN"
 "http://www.w3.org/TR/2001/REC-SVG-20010904/DTD/svg10.dtd">
<svg version="1.0" xmlns="http://www.w3.org/2000/svg"
 width="96.000000pt" height="84.000000pt" viewBox="0 0 96.000000 84.000000"
 preserveAspectRatio="xMidYMid meet">
<metadata>
Created by potrace 1.16, written by Peter Selinger 2001-2019
</metadata>
<g transform="translate(0.000000,84.000000) scale(0.100000,-0.100000)"
fill="#000000" stroke="none">
<path d="M0 420 l0 -420 50 0 c49 0 50 1 50 30 0 17 -11 57 -25 90 -14 33 -32
86 -40 117 -19 72 -19 246 -1 333 9 41 10 69 4 77 -13 16 7 26 35 18 12 -4 47
-20 78 -35 44 -22 177 -70 194 -70 2 0 7 15 11 32 14 66 37 98 82 118 56 25
63 25 96 -1 25 -19 26 -25 22 -82 -3 -33 -11 -64 -17 -68 -10 -6 -10 -11 0
-23 8 -9 18 -16 24 -16 6 0 18 -6 26 -14 20 -16 98 -36 144 -36 19 0 52 -6 73
-14 22 -7 65 -16 97 -20 l57 -7 0 205 0 206 -480 0 -480 0 0 -420z"/>
<path d="M145 578 c-19 -53 -35 -157 -35 -230 0 -70 6 -106 30 -182 24 -75 28
-99 20 -121 -5 -14 -10 -31 -10 -36 0 -5 35 -9 78 -9 l79 0 69 87 c38 48 79
104 91 125 l22 39 -34 38 c-37 41 -42 60 -24 93 17 32 20 78 4 72 -8 -3 -22
10 -36 35 -15 28 -30 41 -44 41 -11 0 -25 4 -31 9 -12 11 -133 51 -156 51 -10
0 -21 -6 -23 -12z"/>
<path d="M605 447 c4 -12 9 -34 12 -49 6 -33 6 -33 66 -12 34 11 47 21 47 35
0 10 -3 19 -7 19 -5 1 -34 7 -66 15 -59 14 -59 14 -52 -8z"/>
<path d="M786 395 c-19 -29 -124 -85 -161 -85 -21 0 -25 -5 -25 -29 0 -17 5
-33 10 -36 6 -3 10 -15 10 -26 0 -11 11 -37 25 -59 27 -42 31 -60 15 -60 -6 0
-8 -11 -5 -25 3 -14 7 -36 10 -50 l5 -25 145 0 145 0 0 194 0 194 -69 16 c-89
20 -86 21 -105 -9z"/>
<path d="M460 351 c0 -6 5 -13 10 -16 6 -3 10 1 10 9 0 9 -4 16 -10 16 -5 0
-10 -4 -10 -9z"/>
</g>
</svg>
