<?xml version="1.0" standalone="no"?>
<!DOCTYPE svg PUBLIC "-//W3C//DTD SVG 20010904//EN"
 "http://www.w3.org/TR/2001/REC-SVG-20010904/DTD/svg10.dtd">
<svg version="1.0" xmlns="http://www.w3.org/2000/svg"
 width="96.000000pt" height="84.000000pt" viewBox="0 0 96.000000 84.000000"
 preserveAspectRatio="xMidYMid meet">
<metadata>
Created by potrace 1.16, written by Peter Selinger 2001-2019
</metadata>
<g transform="translate(0.000000,84.000000) scale(0.100000,-0.100000)"
fill="#000000" stroke="none">
<path d="M0 420 l0 -420 50 0 50 0 0 40 c0 22 -12 68 -26 102 -54 128 -67 276
-39 422 8 42 12 83 9 91 -9 23 34 18 96 -11 30 -14 85 -37 122 -49 l68 -24 30
64 c27 56 37 67 78 86 46 20 48 20 82 2 35 -18 35 -18 33 -83 -2 -36 -7 -66
-13 -68 -18 -6 -10 -18 30 -45 37 -24 92 -39 190 -51 19 -2 53 -9 75 -14 22
-5 59 -13 83 -16 l42 -6 0 200 0 200 -480 0 -480 0 0 -420z"/>
<path d="M134 538 c-12 -43 -18 -97 -18 -173 -1 -96 3 -121 28 -193 27 -79 28
-95 10 -154 -5 -16 3 -18 63 -18 l69 0 76 89 c43 50 89 108 104 131 l27 41
-36 37 c-39 40 -44 60 -26 94 6 11 13 35 16 51 4 27 3 29 -10 18 -13 -10 -18
-8 -32 13 -10 14 -15 32 -12 40 4 10 1 13 -10 9 -8 -3 -19 0 -23 7 -7 11 -170
70 -196 70 -6 0 -20 -28 -30 -62z"/>
<path d="M600 472 c0 -8 29 -83 34 -89 4 -5 101 35 99 41 -1 4 -3 11 -5 17 -2
5 -24 15 -48 20 -25 5 -53 12 -62 15 -10 3 -18 1 -18 -4z"/>
<path d="M786 405 c-21 -32 -137 -89 -163 -81 -15 5 -19 0 -21 -22 -3 -29 1
-39 38 -116 16 -32 25 -70 26 -107 2 -32 5 -63 9 -69 4 -6 62 -10 146 -10
l139 0 0 200 0 199 -37 11 c-21 6 -56 13 -79 16 -36 6 -42 3 -58 -21z"/>
<path d="M460 361 c0 -6 5 -13 10 -16 6 -3 10 1 10 9 0 9 -4 16 -10 16 -5 0
-10 -4 -10 -9z"/>
</g>
</svg>
