<?xml version="1.0" standalone="no"?>
<!DOCTYPE svg PUBLIC "-//W3C//DTD SVG 20010904//EN"
 "http://www.w3.org/TR/2001/REC-SVG-20010904/DTD/svg10.dtd">
<svg version="1.0" xmlns="http://www.w3.org/2000/svg"
 width="96.000000pt" height="84.000000pt" viewBox="0 0 96.000000 84.000000"
 preserveAspectRatio="xMidYMid meet">
<metadata>
Created by potrace 1.16, written by Peter Selinger 2001-2019
</metadata>
<g transform="translate(0.000000,84.000000) scale(0.100000,-0.100000)"
fill="#000000" stroke="none">
<path d="M0 420 l0 -420 55 0 55 0 0 36 c0 19 -13 65 -28 102 -53 123 -70 247
-52 368 7 43 14 99 15 124 3 41 6 45 27 42 13 -1 50 -15 83 -31 33 -16 79 -34
103 -41 24 -6 49 -13 57 -16 9 -4 24 14 44 54 23 46 39 64 71 81 51 26 70 26
104 0 23 -18 26 -26 22 -75 -2 -30 -9 -61 -16 -69 -15 -18 -5 -35 21 -35 11 0
22 -7 25 -14 6 -16 100 -39 151 -38 18 1 50 -5 71 -12 22 -8 65 -17 96 -21
l56 -7 0 196 0 196 -480 0 -480 0 0 -420z"/>
<path d="M136 531 c-26 -112 -21 -250 11 -349 23 -73 26 -89 17 -132 l-11 -50
63 0 c53 0 64 3 77 23 8 12 50 61 93 108 44 47 85 98 93 112 14 26 13 29 -22
61 -40 36 -44 57 -22 96 22 39 19 70 -7 67 -17 -1 -24 5 -31 31 -6 17 -16 32
-23 32 -7 0 -14 4 -16 9 -4 10 -156 61 -185 61 -18 0 -24 -10 -37 -69z"/>
<path d="M600 475 c0 -4 31 -74 37 -84 1 -2 25 5 53 15 33 12 50 23 48 33 -4
19 -138 55 -138 36z"/>
<path d="M781 408 c-25 -31 -115 -78 -151 -78 -10 0 -22 -9 -25 -21 -7 -22 -2
-38 46 -131 18 -35 25 -58 18 -60 -8 -3 -9 -20 -3 -58 l9 -55 143 -3 142 -3 0
205 0 204 -69 16 c-39 9 -74 16 -78 15 -4 0 -19 -14 -32 -31z"/>
<path d="M466 371 c-5 -7 -3 -18 3 -24 14 -14 20 -6 11 17 -5 15 -9 16 -14 7z"/>
</g>
</svg>
