<?xml version="1.0" standalone="no"?>
<!DOCTYPE svg PUBLIC "-//W3C//DTD SVG 20010904//EN"
 "http://www.w3.org/TR/2001/REC-SVG-20010904/DTD/svg10.dtd">
<svg version="1.0" xmlns="http://www.w3.org/2000/svg"
 width="96.000000pt" height="84.000000pt" viewBox="0 0 96.000000 84.000000"
 preserveAspectRatio="xMidYMid meet">
<metadata>
Created by potrace 1.16, written by Peter Selinger 2001-2019
</metadata>
<g transform="translate(0.000000,84.000000) scale(0.100000,-0.100000)"
fill="#000000" stroke="none">
<path d="M0 420 l0 -420 55 0 55 0 0 39 c0 22 -14 73 -30 115 -17 41 -35 99
-40 127 -14 74 -12 223 4 299 9 41 10 69 4 77 -16 20 8 23 58 6 27 -9 54 -20
60 -24 12 -10 122 -49 135 -49 5 0 26 24 48 54 25 34 56 61 84 75 52 25 61 26
97 4 26 -15 28 -21 28 -74 0 -38 -5 -62 -14 -70 -11 -9 -11 -15 -3 -25 6 -8
16 -14 21 -14 5 0 21 -9 34 -19 23 -18 110 -37 147 -32 10 1 39 -4 65 -13 26
-8 71 -18 100 -21 l52 -7 0 196 0 196 -480 0 -480 0 0 -420z"/>
<path d="M156 588 c-3 -7 -10 -29 -16 -48 -7 -19 -14 -84 -17 -145 -5 -104 -3
-116 27 -208 26 -83 30 -103 21 -129 -19 -53 -15 -58 38 -58 39 0 51 4 55 18
6 18 64 78 157 160 25 23 51 52 59 67 13 24 11 28 -24 64 l-38 39 21 61 c26
75 26 72 -2 62 -32 -12 -50 1 -49 36 0 27 -4 29 -96 61 -106 35 -131 39 -136
20z"/>
<path d="M614 452 c9 -17 16 -38 16 -47 0 -19 5 -19 63 1 77 26 58 54 -47 69
l-48 8 16 -31z"/>
<path d="M790 415 c-16 -31 -131 -90 -159 -82 -13 3 -21 -1 -23 -12 -6 -28 19
-108 46 -148 30 -43 33 -58 11 -49 -13 4 -14 -2 -9 -37 13 -96 -4 -87 159 -87
l145 0 0 205 0 205 -27 6 c-16 3 -44 10 -63 15 -53 14 -65 11 -80 -16z"/>
<path d="M466 372 c-3 -5 1 -15 9 -22 16 -14 20 -3 6 19 -5 8 -11 9 -15 3z"/>
</g>
</svg>
