<?xml version="1.0" standalone="no"?>
<!DOCTYPE svg PUBLIC "-//W3C//DTD SVG 20010904//EN"
 "http://www.w3.org/TR/2001/REC-SVG-20010904/DTD/svg10.dtd">
<svg version="1.0" xmlns="http://www.w3.org/2000/svg"
 width="96.000000pt" height="84.000000pt" viewBox="0 0 96.000000 84.000000"
 preserveAspectRatio="xMidYMid meet">
<metadata>
Created by potrace 1.16, written by Peter Selinger 2001-2019
</metadata>
<g transform="translate(0.000000,84.000000) scale(0.100000,-0.100000)"
fill="#000000" stroke="none">
<path d="M0 420 l0 -420 60 0 60 0 0 33 c-1 17 -8 50 -17 72 -72 184 -86 288
-59 442 9 51 13 100 9 109 -5 15 -1 16 28 12 19 -4 64 -20 99 -36 104 -49 112
-49 155 -5 21 21 44 48 52 61 9 12 21 22 28 22 7 0 26 7 41 15 16 8 36 15 44
15 24 -1 61 -34 60 -55 0 -11 0 -37 0 -59 1 -21 -4 -44 -10 -52 -13 -15 -5
-34 14 -34 7 0 20 -8 30 -18 17 -20 147 -49 166 -37 6 3 24 0 40 -9 16 -8 59
-18 95 -21 l65 -7 0 196 0 196 -480 0 -480 0 0 -420z"/>
<path d="M145 529 c-28 -114 -25 -236 10 -347 24 -80 27 -98 18 -137 l-10 -45
37 0 c31 0 39 4 44 23 8 32 73 95 134 130 50 28 122 91 122 107 0 3 -16 21
-35 40 -38 36 -45 71 -22 105 14 21 23 98 10 79 -25 -34 -66 -20 -65 23 0 27
-4 29 -96 61 -53 17 -104 32 -113 32 -12 0 -21 -19 -34 -71z"/>
<path d="M610 479 c0 -2 8 -25 18 -50 l17 -46 52 20 c45 16 51 22 43 37 -5 10
-26 21 -47 25 -21 3 -48 9 -60 12 -13 3 -23 4 -23 2z"/>
<path d="M802 415 c-13 -29 -144 -98 -167 -88 -18 6 -32 -44 -16 -60 6 -6 11
-20 11 -32 0 -11 11 -37 25 -57 28 -41 31 -54 14 -60 -8 -3 -10 -21 -5 -61 l7
-57 145 0 144 0 0 204 0 204 -52 12 c-29 6 -62 13 -73 16 -16 4 -24 -1 -33
-21z"/>
<path d="M474 369 c-3 -6 -1 -16 5 -22 8 -8 11 -5 11 11 0 24 -5 28 -16 11z"/>
</g>
</svg>
