<?xml version="1.0" standalone="no"?>
<!DOCTYPE svg PUBLIC "-//W3C//DTD SVG 20010904//EN"
 "http://www.w3.org/TR/2001/REC-SVG-20010904/DTD/svg10.dtd">
<svg version="1.0" xmlns="http://www.w3.org/2000/svg"
 width="96.000000pt" height="84.000000pt" viewBox="0 0 96.000000 84.000000"
 preserveAspectRatio="xMidYMid meet">
<metadata>
Created by potrace 1.16, written by Peter Selinger 2001-2019
</metadata>
<g transform="translate(0.000000,84.000000) scale(0.100000,-0.100000)"
fill="#000000" stroke="none">
<path d="M0 420 l0 -420 65 0 65 0 0 36 c0 20 -13 66 -30 103 -16 37 -34 89
-40 117 -16 67 -14 256 3 327 8 31 11 60 6 63 -5 3 -9 10 -9 16 0 15 63 3 113
-21 57 -28 159 -62 165 -56 3 3 0 5 -7 5 -23 0 94 111 138 130 54 25 62 25 93
0 22 -17 25 -28 26 -77 0 -39 -5 -64 -15 -75 -14 -15 -12 -18 18 -33 19 -9 46
-22 61 -31 15 -8 58 -17 95 -20 37 -4 87 -12 111 -20 23 -8 56 -14 72 -14 l30
0 0 195 0 195 -480 0 -480 0 0 -420z"/>
<path d="M171 563 c-41 -153 -40 -280 4 -403 24 -70 26 -99 10 -142 -6 -14 -2
-18 19 -18 18 0 30 8 40 28 23 44 76 87 152 125 62 31 124 84 124 106 0 4 -16
22 -35 41 -38 37 -43 61 -20 100 18 32 21 90 3 72 -30 -30 -73 2 -61 46 4 16
1 22 -12 22 -9 0 -55 14 -102 30 -46 17 -91 30 -98 30 -8 0 -19 -17 -24 -37z"/>
<path d="M644 459 c4 -13 10 -36 13 -51 6 -33 6 -33 66 -12 33 11 47 21 47 34
0 15 -13 21 -57 30 -32 7 -62 15 -67 18 -5 3 -6 -5 -2 -19z"/>
<path d="M833 407 c-14 -30 -123 -87 -166 -87 -27 0 -29 -2 -24 -32 8 -57 15
-76 43 -124 20 -35 24 -48 14 -54 -9 -5 -10 -22 -5 -59 l7 -51 129 0 129 0 0
204 c0 225 5 210 -72 221 -40 6 -45 5 -55 -18z"/>
<path d="M495 361 c-3 -5 -1 -12 5 -16 5 -3 10 1 10 9 0 18 -6 21 -15 7z"/>
</g>
</svg>
