<?xml version="1.0" standalone="no"?>
<!DOCTYPE svg PUBLIC "-//W3C//DTD SVG 20010904//EN"
 "http://www.w3.org/TR/2001/REC-SVG-20010904/DTD/svg10.dtd">
<svg version="1.0" xmlns="http://www.w3.org/2000/svg"
 width="96.000000pt" height="84.000000pt" viewBox="0 0 96.000000 84.000000"
 preserveAspectRatio="xMidYMid meet">
<metadata>
Created by potrace 1.16, written by Peter Selinger 2001-2019
</metadata>
<g transform="translate(0.000000,84.000000) scale(0.100000,-0.100000)"
fill="#000000" stroke="none">
<path d="M0 420 l0 -420 75 0 75 0 0 34 c0 18 -13 62 -29 97 -16 35 -34 88
-40 117 -15 72 -14 264 3 334 7 31 9 62 5 70 -4 7 -3 15 3 19 12 7 113 -24
134 -42 7 -6 39 -18 71 -28 l59 -18 54 59 c82 89 148 117 197 83 19 -13 22
-25 22 -78 -1 -34 -5 -68 -11 -74 -11 -14 6 -43 25 -43 6 0 20 -8 31 -19 24
-21 137 -45 166 -36 11 4 34 -1 52 -9 69 -35 68 -38 68 179 l0 195 -480 0
-480 0 0 -420z"/>
<path d="M206 592 c-19 -32 -39 -151 -39 -242 0 -93 4 -116 32 -198 27 -77 31
-99 22 -123 -15 -44 16 -38 70 13 24 24 82 63 127 87 46 25 97 60 113 79 l31
35 -41 41 c-44 45 -49 62 -27 104 7 15 16 40 20 55 6 26 5 27 -13 18 -36 -20
-64 6 -56 49 3 16 -1 20 -21 20 -13 0 -24 4 -24 8 0 5 -40 21 -88 35 -99 30
-99 30 -106 19z"/>
<path d="M697 424 c10 -27 18 -51 20 -53 3 -6 103 30 109 40 10 17 -15 36 -59
43 -23 4 -52 9 -64 13 l-23 5 17 -48z"/>
<path d="M887 395 c-22 -31 -148 -96 -179 -92 -17 1 -24 -4 -26 -22 -2 -13 1
-28 7 -34 6 -6 11 -20 11 -30 0 -11 14 -42 31 -70 20 -33 27 -52 19 -57 -6 -4
-9 -13 -6 -21 2 -8 7 -26 10 -42 l6 -27 100 0 100 0 0 210 0 210 -27 0 c-18
-1 -35 -10 -46 -25z"/>
<path d="M533 354 c-3 -8 -1 -20 6 -27 8 -8 11 -4 11 16 0 30 -7 35 -17 11z"/>
</g>
</svg>
