<?xml version="1.0" standalone="no"?>
<!DOCTYPE svg PUBLIC "-//W3C//DTD SVG 20010904//EN"
 "http://www.w3.org/TR/2001/REC-SVG-20010904/DTD/svg10.dtd">
<svg version="1.0" xmlns="http://www.w3.org/2000/svg"
 width="96.000000pt" height="84.000000pt" viewBox="0 0 96.000000 84.000000"
 preserveAspectRatio="xMidYMid meet">
<metadata>
Created by potrace 1.16, written by Peter Selinger 2001-2019
</metadata>
<g transform="translate(0.000000,84.000000) scale(0.100000,-0.100000)"
fill="#000000" stroke="none">
<path d="M616 794 c-3 -9 -6 -29 -6 -44 0 -23 -7 -32 -34 -45 -37 -18 -57 -42
-73 -90 -12 -36 1 -93 23 -102 9 -3 12 -12 8 -25 -3 -12 3 -33 18 -56 39 -59
34 -150 -8 -175 -8 -4 -14 -18 -14 -31 0 -12 -6 -30 -13 -40 -12 -16 -19 -17
-75 -6 -64 13 -65 14 -74 75 -5 29 -60 33 -87 6 -40 -40 -16 -124 39 -136 l31
-7 -7 -59 -7 -59 242 0 c162 0 241 3 241 10 0 6 -7 25 -16 41 -17 34 -13 59
10 59 7 0 16 7 20 15 6 17 -19 21 -29 5 -14 -22 -22 -7 -28 45 -7 69 8 122 29
104 13 -10 14 -5 9 32 -4 34 -3 39 4 22 14 -30 25 -29 19 2 -3 13 -1 22 3 19
5 -3 9 -4 9 -2 0 33 -26 193 -41 253 -24 96 -41 125 -73 125 -16 0 -31 12 -50
40 -27 41 -59 52 -70 24z"/>
</g>
</svg>
