<?xml version="1.0" standalone="no"?>
<!DOCTYPE svg PUBLIC "-//W3C//DTD SVG 20010904//EN"
 "http://www.w3.org/TR/2001/REC-SVG-20010904/DTD/svg10.dtd">
<svg version="1.0" xmlns="http://www.w3.org/2000/svg"
 width="96.000000pt" height="84.000000pt" viewBox="0 0 96.000000 84.000000"
 preserveAspectRatio="xMidYMid meet">
<metadata>
Created by potrace 1.16, written by Peter Selinger 2001-2019
</metadata>
<g transform="translate(0.000000,84.000000) scale(0.100000,-0.100000)"
fill="#000000" stroke="none">
<path d="M0 420 l0 -420 96 0 c110 0 105 -7 57 104 -59 137 -75 282 -48 438 9
54 13 108 10 119 -7 20 -5 22 27 16 20 -3 64 -19 99 -35 92 -42 165 -64 189
-57 11 4 38 34 60 68 58 93 119 120 173 77 23 -19 26 -27 24 -86 -1 -44 -6
-68 -14 -71 -22 -9 -14 -23 20 -38 19 -8 39 -21 46 -29 16 -19 96 -36 166 -36
l55 0 0 185 0 185 -480 0 -480 0 0 -420z"/>
<path d="M224 548 c-10 -33 -18 -102 -21 -178 -5 -119 -3 -130 26 -221 17 -53
31 -108 31 -123 0 -23 4 -26 34 -26 66 0 229 107 288 189 l32 44 -36 31 c-56
48 -62 68 -38 115 25 50 25 54 -2 66 -16 7 -24 20 -26 43 -2 20 -7 30 -14 26
-6 -4 -16 0 -22 8 -10 14 -195 78 -224 78 -6 0 -19 -24 -28 -52z"/>
<path d="M750 457 c0 -20 35 -97 43 -97 7 0 34 8 60 17 37 14 47 22 45 37 -2
15 -16 23 -58 32 -54 13 -90 17 -90 11z"/>
<path d="M581 346 c-9 -10 -8 -16 4 -26 13 -11 15 -8 15 14 0 30 -3 32 -19 12z"/>
<path d="M880 323 c-45 -24 -75 -33 -97 -31 -25 3 -34 0 -39 -14 -6 -20 16
-88 50 -155 14 -26 28 -65 31 -85 l6 -38 64 0 65 0 0 180 c0 99 -3 179 -7 179
-5 -1 -37 -17 -73 -36z"/>
</g>
</svg>
