<?xml version="1.0" standalone="no"?>
<!DOCTYPE svg PUBLIC "-//W3C//DTD SVG 20010904//EN"
 "http://www.w3.org/TR/2001/REC-SVG-20010904/DTD/svg10.dtd">
<svg version="1.0" xmlns="http://www.w3.org/2000/svg"
 width="96.000000pt" height="84.000000pt" viewBox="0 0 96.000000 84.000000"
 preserveAspectRatio="xMidYMid meet">
<metadata>
Created by potrace 1.16, written by Peter Selinger 2001-2019
</metadata>
<g transform="translate(0.000000,84.000000) scale(0.100000,-0.100000)"
fill="#000000" stroke="none">
<path d="M0 420 l0 -420 111 0 c126 0 122 -5 73 92 -14 26 -32 78 -41 115 -22
90 -22 294 0 383 10 43 12 69 6 77 -14 16 7 26 39 18 15 -3 61 -22 102 -40
107 -48 195 -71 213 -56 8 6 31 40 51 74 53 90 121 120 181 81 21 -14 24 -22
23 -90 0 -58 -3 -76 -16 -83 -15 -9 -15 -11 3 -25 11 -8 28 -16 37 -16 10 0
26 -9 37 -21 12 -13 44 -26 80 -34 l61 -13 0 189 0 189 -480 0 -480 0 0 -420z"/>
<path d="M264 548 c-11 -35 -19 -99 -21 -188 -5 -133 -4 -136 32 -247 l36
-113 93 0 93 0 64 67 c36 38 76 85 88 106 l24 39 -47 47 c-51 52 -55 71 -26
119 25 41 25 47 -1 73 -14 14 -19 29 -16 45 4 24 -6 33 -18 14 -10 -15 -22
-12 -27 8 -3 12 -36 27 -111 50 -143 43 -143 43 -163 -20z"/>
<path d="M835 438 c3 -13 13 -40 22 -61 17 -39 18 -39 81 -16 19 7 23 15 20
41 -3 29 -7 33 -43 40 -22 4 -50 10 -63 13 -21 5 -23 3 -17 -17z"/>
<path d="M637 336 c-6 -14 19 -44 28 -34 7 6 -6 48 -15 48 -4 0 -10 -6 -13
-14z"/>
<path d="M820 257 c0 -25 5 -49 10 -52 6 -3 10 -14 10 -24 0 -10 14 -44 30
-75 17 -31 28 -61 25 -66 -11 -18 8 -40 36 -40 l29 0 0 146 c0 135 -1 146 -17
139 -45 -17 -84 -17 -103 0 -20 18 -20 17 -20 -28z"/>
</g>
</svg>
