<?xml version="1.0" standalone="no"?>
<!DOCTYPE svg PUBLIC "-//W3C//DTD SVG 20010904//EN"
 "http://www.w3.org/TR/2001/REC-SVG-20010904/DTD/svg10.dtd">
<svg version="1.0" xmlns="http://www.w3.org/2000/svg"
 width="96.000000pt" height="84.000000pt" viewBox="0 0 96.000000 84.000000"
 preserveAspectRatio="xMidYMid meet">
<metadata>
Created by potrace 1.16, written by Peter Selinger 2001-2019
</metadata>
<g transform="translate(0.000000,84.000000) scale(0.100000,-0.100000)"
fill="#000000" stroke="none">
<path d="M0 420 l0 -420 125 0 c69 0 125 2 125 4 0 2 -13 32 -29 68 -16 35
-36 98 -45 141 -20 96 -20 270 -1 362 9 39 13 82 9 98 -5 24 -3 27 23 27 15 0
55 -12 88 -27 76 -33 215 -82 235 -82 8 0 40 33 70 73 78 105 149 138 219 101
32 -16 45 -49 31 -76 -6 -9 -8 -36 -6 -59 3 -29 0 -43 -10 -47 -27 -10 -13
-32 29 -45 23 -6 52 -22 64 -35 12 -13 25 -23 28 -23 3 0 5 81 5 180 l0 180
-480 0 -480 0 0 -420z"/>
<path d="M319 583 c-23 -60 -39 -163 -39 -258 0 -106 6 -138 46 -253 l26 -72
118 0 118 0 64 69 c35 37 69 80 77 94 14 26 12 29 -37 81 -29 30 -52 61 -52
68 0 7 11 33 25 57 30 52 31 67 5 74 -19 5 -26 26 -21 71 1 15 -4 18 -31 14
-20 -3 -37 0 -43 8 -11 13 -196 74 -227 74 -11 0 -23 -12 -29 -27z"/>
<path d="M645 570 c-3 -5 -1 -10 4 -10 6 0 11 5 11 10 0 6 -2 10 -4 10 -3 0
-8 -4 -11 -10z"/>
<path d="M935 443 c4 -10 8 -28 10 -41 4 -40 15 -37 15 5 0 28 -5 43 -16 47
-12 5 -15 2 -9 -11z"/>
<path d="M710 335 c-11 -14 -10 -19 8 -38 l22 -21 0 24 c0 39 -14 54 -30 35z"/>
<path d="M912 248 c-1 -23 3 -47 9 -55 7 -7 13 -23 15 -36 1 -12 7 -33 12 -47
9 -20 11 -8 11 60 0 77 -2 86 -23 102 -23 16 -23 16 -24 -24z"/>
</g>
</svg>
