<?xml version="1.0" standalone="no"?>
<!DOCTYPE svg PUBLIC "-//W3C//DTD SVG 20010904//EN"
 "http://www.w3.org/TR/2001/REC-SVG-20010904/DTD/svg10.dtd">
<svg version="1.0" xmlns="http://www.w3.org/2000/svg"
 width="96.000000pt" height="84.000000pt" viewBox="0 0 96.000000 84.000000"
 preserveAspectRatio="xMidYMid meet">
<metadata>
Created by potrace 1.16, written by Peter Selinger 2001-2019
</metadata>
<g transform="translate(0.000000,84.000000) scale(0.100000,-0.100000)"
fill="#000000" stroke="none">
<path d="M0 420 l0 -420 140 0 c77 0 140 2 140 4 0 2 -11 28 -25 57 -42 94
-58 182 -59 329 -1 97 4 157 17 213 14 57 16 82 8 91 -8 10 -8 16 2 25 16 13
95 -8 168 -44 47 -25 212 -76 239 -74 11 0 10 2 -3 8 -16 6 -6 20 70 97 102
104 141 123 202 98 20 -8 42 -22 49 -31 10 -14 12 -11 12 25 l0 42 -480 0
-480 0 0 -420z"/>
<path d="M946 694 c-9 -24 -7 -62 4 -69 6 -4 10 12 10 39 0 48 -4 56 -14 30z"/>
<path d="M369 603 c-28 -75 -42 -166 -43 -283 0 -125 2 -137 46 -262 l21 -58
139 0 139 0 74 75 c41 40 75 79 75 86 0 6 -23 36 -50 66 -58 64 -64 98 -25
149 28 37 32 63 10 66 -8 0 -21 1 -27 2 -20 2 -27 18 -24 56 3 40 -6 50 -51
50 -17 0 -33 4 -35 9 -3 8 -204 71 -227 71 -6 0 -16 -12 -22 -27z"/>
<path d="M940 600 c0 -5 -7 -10 -15 -10 -23 0 -18 -16 10 -28 24 -11 25 -10
25 18 0 17 -4 30 -10 30 -5 0 -10 -4 -10 -10z"/>
<path d="M716 591 c-4 -7 -5 -15 -2 -18 9 -9 19 4 14 18 -4 11 -6 11 -12 0z"/>
<path d="M792 330 c-10 -16 -10 -24 0 -40 19 -30 28 -24 28 20 0 44 -9 50 -28
20z"/>
</g>
</svg>
