<?xml version="1.0" standalone="no"?>
<!DOCTYPE svg PUBLIC "-//W3C//DTD SVG 20010904//EN"
 "http://www.w3.org/TR/2001/REC-SVG-20010904/DTD/svg10.dtd">
<svg version="1.0" xmlns="http://www.w3.org/2000/svg"
 width="96.000000pt" height="84.000000pt" viewBox="0 0 96.000000 84.000000"
 preserveAspectRatio="xMidYMid meet">
<metadata>
Created by potrace 1.16, written by Peter Selinger 2001-2019
</metadata>
<g transform="translate(0.000000,84.000000) scale(0.100000,-0.100000)"
fill="#000000" stroke="none">
<path d="M0 420 l0 -420 155 0 156 0 -15 28 c-73 143 -92 428 -41 622 9 35 11
58 5 64 -15 15 -12 33 5 40 17 6 158 -38 192 -60 12 -7 72 -28 132 -45 l111
-30 25 28 c13 15 25 34 25 41 0 7 32 44 71 82 l71 70 -446 0 -446 0 0 -420z"/>
<path d="M399 563 c-21 -75 -24 -111 -24 -243 0 -144 2 -161 28 -237 l29 -83
184 0 184 0 45 58 c72 90 72 81 5 157 -35 39 -60 77 -60 90 0 12 13 42 30 66
32 48 40 85 15 75 -8 -3 -15 -1 -15 5 0 6 -9 8 -19 4 -18 -5 -20 -1 -18 50 2
52 1 56 -18 50 -35 -11 -50 -10 -50 2 0 6 -3 14 -6 17 -9 9 -242 76 -265 76
-18 0 -25 -12 -45 -87z"/>
<path d="M876 331 c-19 -21 -12 -45 18 -71 14 -11 16 -6 16 39 0 55 -7 62 -34
32z"/>
</g>
</svg>
