<?xml version="1.0" standalone="no"?>
<!DOCTYPE svg PUBLIC "-//W3C//DTD SVG 20010904//EN"
 "http://www.w3.org/TR/2001/REC-SVG-20010904/DTD/svg10.dtd">
<svg version="1.0" xmlns="http://www.w3.org/2000/svg"
 width="96.000000pt" height="84.000000pt" viewBox="0 0 96.000000 84.000000"
 preserveAspectRatio="xMidYMid meet">
<metadata>
Created by potrace 1.16, written by Peter Selinger 2001-2019
</metadata>
<g transform="translate(0.000000,84.000000) scale(0.100000,-0.100000)"
fill="#000000" stroke="none">
<path d="M0 420 l0 -420 163 0 163 0 -27 83 c-15 45 -33 122 -40 172 -15 115
-6 306 19 408 11 42 15 80 11 83 -5 3 -9 14 -9 25 0 13 7 19 24 19 33 0 155
-38 191 -60 26 -16 283 -90 312 -90 6 0 13 16 16 34 9 55 38 107 66 119 26 12
41 26 41 40 0 4 -209 7 -465 7 l-465 0 0 -420z"/>
<path d="M465 668 c-35 -106 -48 -170 -54 -265 -9 -138 0 -240 30 -332 l23
-71 227 0 227 0 21 34 c14 22 21 50 21 84 0 47 -4 55 -51 109 -58 67 -60 91
-9 155 17 20 30 48 30 62 0 27 -14 34 -26 14 -5 -8 -10 -6 -15 8 -11 29 -10
79 2 91 7 7 7 13 1 17 -5 3 -17 -3 -27 -14 -25 -28 -43 -25 -47 7 -3 26 -10
29 -153 70 -160 45 -193 50 -200 31z"/>
<path d="M941 316 c-9 -10 -8 -16 4 -26 13 -11 15 -8 15 14 0 30 -3 32 -19 12z"/>
</g>
</svg>
