<?xml version="1.0" standalone="no"?>
<!DOCTYPE svg PUBLIC "-//W3C//DTD SVG 20010904//EN"
 "http://www.w3.org/TR/2001/REC-SVG-20010904/DTD/svg10.dtd">
<svg version="1.0" xmlns="http://www.w3.org/2000/svg"
 width="96.000000pt" height="84.000000pt" viewBox="0 0 96.000000 84.000000"
 preserveAspectRatio="xMidYMid meet">
<metadata>
Created by potrace 1.16, written by Peter Selinger 2001-2019
</metadata>
<g transform="translate(0.000000,84.000000) scale(0.100000,-0.100000)"
fill="#000000" stroke="none">
<path d="M0 420 l0 -420 168 0 168 0 -17 87 c-25 122 -42 342 -34 448 6 86 29
250 41 288 5 16 -7 17 -160 17 l-166 0 0 -420z"/>
<path d="M619 813 c-20 -54 -58 -210 -68 -287 -19 -134 -10 -429 15 -508 5
-16 22 -18 200 -18 l194 0 0 420 0 420 -165 0 -165 0 -11 -27z"/>
</g>
</svg>
