<?xml version="1.0" standalone="no"?>
<!DOCTYPE svg PUBLIC "-//W3C//DTD SVG 20010904//EN"
 "http://www.w3.org/TR/2001/REC-SVG-20010904/DTD/svg10.dtd">
<svg version="1.0" xmlns="http://www.w3.org/2000/svg"
 width="96.000000pt" height="84.000000pt" viewBox="0 0 96.000000 84.000000"
 preserveAspectRatio="xMidYMid meet">
<metadata>
Created by potrace 1.16, written by Peter Selinger 2001-2019
</metadata>
<g transform="translate(0.000000,84.000000) scale(0.100000,-0.100000)"
fill="#000000" stroke="none">
<path d="M600 795 c-7 -8 -10 -28 -8 -45 4 -26 0 -33 -28 -49 -43 -26 -62 -57
-70 -113 -6 -41 -3 -50 18 -71 18 -18 23 -29 16 -41 -5 -9 -5 -16 -1 -16 11 0
41 -68 48 -111 6 -41 -11 -89 -32 -89 -7 0 -13 -10 -13 -22 0 -13 -7 -31 -14
-41 -13 -17 -17 -17 -75 -1 -52 15 -62 22 -67 43 -13 58 -15 61 -43 61 -35 0
-71 -33 -71 -66 0 -42 27 -82 61 -89 20 -5 29 -12 25 -20 -3 -8 -8 -31 -12
-52 -4 -21 -11 -46 -16 -55 -8 -16 8 -18 246 -18 l255 0 -17 46 c-17 46 -17
47 6 61 29 20 28 35 -2 27 -21 -5 -23 -2 -29 48 -4 29 -7 68 -7 87 0 33 1 34
14 15 13 -17 14 -15 10 26 -5 45 -5 45 9 15 l14 -30 7 39 c16 84 -24 324 -62
376 -10 14 -31 26 -45 28 -15 2 -36 17 -52 38 -28 37 -46 42 -65 19z"/>
</g>
</svg>
