<?xml version="1.0" standalone="no"?>
<!DOCTYPE svg PUBLIC "-//W3C//DTD SVG 20010904//EN"
 "http://www.w3.org/TR/2001/REC-SVG-20010904/DTD/svg10.dtd">
<svg version="1.0" xmlns="http://www.w3.org/2000/svg"
 width="96.000000pt" height="84.000000pt" viewBox="0 0 96.000000 84.000000"
 preserveAspectRatio="xMidYMid meet">
<metadata>
Created by potrace 1.16, written by Peter Selinger 2001-2019
</metadata>
<g transform="translate(0.000000,84.000000) scale(0.100000,-0.100000)"
fill="#000000" stroke="none">
<path d="M0 420 l0 -420 185 0 c163 0 185 2 185 16 0 12 -6 15 -26 10 -37 -10
-27 14 12 28 16 6 40 21 52 33 12 12 33 25 47 29 l25 6 0 359 0 359 -240 0
-240 0 0 -420z"/>
<path d="M480 55 l0 -55 55 0 c44 0 53 3 49 15 -5 12 -1 13 26 4 43 -15 50 -4
10 18 -17 10 -48 30 -67 46 -20 15 -44 27 -54 27 -16 0 -19 -8 -19 -55z"/>
</g>
</svg>
