<?xml version="1.0" standalone="no"?>
<!DOCTYPE svg PUBLIC "-//W3C//DTD SVG 20010904//EN"
 "http://www.w3.org/TR/2001/REC-SVG-20010904/DTD/svg10.dtd">
<svg version="1.0" xmlns="http://www.w3.org/2000/svg"
 width="96.000000pt" height="84.000000pt" viewBox="0 0 96.000000 84.000000"
 preserveAspectRatio="xMidYMid meet">
<metadata>
Created by potrace 1.16, written by Peter Selinger 2001-2019
</metadata>
<g transform="translate(0.000000,84.000000) scale(0.100000,-0.100000)"
fill="#000000" stroke="none">
<path d="M0 420 l0 -420 174 0 c96 0 177 3 179 8 2 4 7 24 11 44 l7 38 -33 -7
c-29 -6 -32 -5 -20 10 7 8 27 19 43 22 17 4 33 13 36 21 7 19 60 47 73 39 6
-3 10 -44 10 -91 l0 -84 60 0 60 0 -6 40 -7 40 33 -7 c43 -8 33 10 -20 37 -21
11 -45 27 -54 36 -14 14 -31 20 -58 23 -5 1 -8 152 -8 336 l0 335 -240 0 -240
0 0 -420z"/>
</g>
</svg>
