<?xml version="1.0" standalone="no"?>
<!DOCTYPE svg PUBLIC "-//W3C//DTD SVG 20010904//EN"
 "http://www.w3.org/TR/2001/REC-SVG-20010904/DTD/svg10.dtd">
<svg version="1.0" xmlns="http://www.w3.org/2000/svg"
 width="96.000000pt" height="84.000000pt" viewBox="0 0 96.000000 84.000000"
 preserveAspectRatio="xMidYMid meet">
<metadata>
Created by potrace 1.16, written by Peter Selinger 2001-2019
</metadata>
<g transform="translate(0.000000,84.000000) scale(0.100000,-0.100000)"
fill="#000000" stroke="none">
<path d="M0 420 l0 -420 178 0 177 0 1 38 c0 20 3 50 7 66 8 27 6 28 -17 22
-45 -11 -39 14 8 35 25 11 46 24 46 29 0 13 59 42 70 35 6 -3 10 -55 10 -116
l0 -109 61 0 61 0 -7 65 -7 65 26 -11 c14 -7 29 -9 33 -5 8 7 -35 45 -51 46
-4 0 -24 13 -43 30 -18 16 -43 30 -53 30 -19 0 -20 8 -20 310 l0 310 -240 0
-240 0 0 -420z"/>
</g>
</svg>
