<?xml version="1.0" standalone="no"?>
<!DOCTYPE svg PUBLIC "-//W3C//DTD SVG 20010904//EN"
 "http://www.w3.org/TR/2001/REC-SVG-20010904/DTD/svg10.dtd">
<svg version="1.0" xmlns="http://www.w3.org/2000/svg"
 width="96.000000pt" height="84.000000pt" viewBox="0 0 96.000000 84.000000"
 preserveAspectRatio="xMidYMid meet">
<metadata>
Created by potrace 1.16, written by Peter Selinger 2001-2019
</metadata>
<g transform="translate(0.000000,84.000000) scale(0.100000,-0.100000)"
fill="#000000" stroke="none">
<path d="M579 779 c-6 -12 -8 -30 -5 -42 4 -15 -6 -30 -35 -56 -61 -55 -75
-158 -23 -178 11 -4 14 -13 10 -29 -4 -13 -2 -24 3 -24 11 0 27 -41 39 -96 10
-46 -3 -89 -28 -89 -9 0 -16 -11 -18 -27 -5 -45 -23 -51 -86 -31 -45 14 -58
23 -62 43 -13 57 -15 60 -42 60 -43 0 -72 -26 -72 -64 0 -39 33 -86 61 -86 12
0 19 -7 19 -18 0 -18 -20 -88 -35 -125 -7 -16 2 -17 108 -17 l115 0 10 28 10
27 1 -27 1 -28 131 0 c121 0 131 1 124 18 -20 45 -18 75 6 93 28 21 20 36 -10
20 -19 -11 -21 -8 -28 41 -7 52 -8 77 -4 148 l2 35 15 -30 c11 -23 13 -25 10
-7 -3 17 -1 20 7 13 20 -16 2 232 -22 308 -23 75 -44 101 -81 101 -16 0 -37
11 -55 30 -34 35 -50 38 -66 9z"/>
</g>
</svg>
