<?xml version="1.0" standalone="no"?>
<!DOCTYPE svg PUBLIC "-//W3C//DTD SVG 20010904//EN"
 "http://www.w3.org/TR/2001/REC-SVG-20010904/DTD/svg10.dtd">
<svg version="1.0" xmlns="http://www.w3.org/2000/svg"
 width="96.000000pt" height="84.000000pt" viewBox="0 0 96.000000 84.000000"
 preserveAspectRatio="xMidYMid meet">
<metadata>
Created by potrace 1.16, written by Peter Selinger 2001-2019
</metadata>
<g transform="translate(0.000000,84.000000) scale(0.100000,-0.100000)"
fill="#000000" stroke="none">
<path d="M0 420 l0 -420 195 0 c218 0 214 -1 179 69 -11 22 -14 45 -10 72 6
38 6 39 -19 33 -14 -3 -25 -2 -25 2 0 18 121 124 140 124 19 0 20 -7 20 -150
l0 -150 49 0 c48 0 49 0 56 38 4 20 7 60 8 89 0 46 2 51 18 42 24 -12 29 -11
29 4 0 17 -107 110 -134 117 -20 6 -21 13 -24 278 l-2 272 -240 0 -240 0 0
-420z"/>
</g>
</svg>
