<?xml version="1.0" standalone="no"?>
<!DOCTYPE svg PUBLIC "-//W3C//DTD SVG 20010904//EN"
 "http://www.w3.org/TR/2001/REC-SVG-20010904/DTD/svg10.dtd">
<svg version="1.0" xmlns="http://www.w3.org/2000/svg"
 width="96.000000pt" height="84.000000pt" viewBox="0 0 96.000000 84.000000"
 preserveAspectRatio="xMidYMid meet">
<metadata>
Created by potrace 1.16, written by Peter Selinger 2001-2019
</metadata>
<g transform="translate(0.000000,84.000000) scale(0.100000,-0.100000)"
fill="#000000" stroke="none">
<path d="M0 420 l0 -420 188 0 189 0 12 26 c6 14 8 31 4 37 -4 7 -9 23 -10 37
-1 14 -5 39 -7 55 -2 17 -5 44 -5 62 -1 26 -4 30 -21 26 -25 -7 -27 18 -4 38
9 7 29 32 46 56 20 30 39 46 59 50 l29 6 0 223 0 224 -240 0 -240 0 0 -420z"/>
<path d="M480 190 l0 -190 50 0 50 0 0 64 c0 36 5 68 11 71 6 4 8 14 4 22 -10
27 5 82 21 76 29 -11 13 27 -37 86 -36 44 -58 61 -75 61 l-24 0 0 -190z"/>
</g>
</svg>
