<?xml version="1.0" standalone="no"?>
<!DOCTYPE svg PUBLIC "-//W3C//DTD SVG 20010904//EN"
 "http://www.w3.org/TR/2001/REC-SVG-20010904/DTD/svg10.dtd">
<svg version="1.0" xmlns="http://www.w3.org/2000/svg"
 width="96.000000pt" height="84.000000pt" viewBox="0 0 96.000000 84.000000"
 preserveAspectRatio="xMidYMid meet">
<metadata>
Created by potrace 1.16, written by Peter Selinger 2001-2019
</metadata>
<g transform="translate(0.000000,84.000000) scale(0.100000,-0.100000)"
fill="#000000" stroke="none">
<path d="M0 420 l0 -420 184 0 183 0 16 54 c13 47 13 65 2 130 -7 42 -10 88
-6 103 8 28 -14 93 -31 93 -17 0 -7 41 14 58 12 9 33 29 47 45 14 15 36 27 48
27 l23 0 0 -255 0 -255 53 0 53 0 -4 101 c-3 68 -1 104 7 108 8 5 7 22 -4 63
-16 63 -11 94 16 101 33 9 22 43 -28 85 -27 22 -57 41 -68 43 -19 4 -20 13
-23 172 l-2 167 -240 0 -240 0 0 -420z m604 -22 c-4 -6 -10 -5 -15 3 -14 22
-10 33 6 19 8 -7 12 -17 9 -22z"/>
<path d="M360 415 c-10 -12 -10 -15 4 -15 9 0 16 7 16 15 0 8 -2 15 -4 15 -2
0 -9 -7 -16 -15z"/>
</g>
</svg>
