<?xml version="1.0" standalone="no"?>
<!DOCTYPE svg PUBLIC "-//W3C//DTD SVG 20010904//EN"
 "http://www.w3.org/TR/2001/REC-SVG-20010904/DTD/svg10.dtd">
<svg version="1.0" xmlns="http://www.w3.org/2000/svg"
 width="96.000000pt" height="84.000000pt" viewBox="0 0 96.000000 84.000000"
 preserveAspectRatio="xMidYMid meet">
<metadata>
Created by potrace 1.16, written by Peter Selinger 2001-2019
</metadata>
<g transform="translate(0.000000,84.000000) scale(0.100000,-0.100000)"
fill="#000000" stroke="none">
<path d="M0 420 l0 -420 181 2 182 3 13 45 c14 46 19 162 8 173 -13 13 -12 73
2 105 12 29 12 37 -3 60 -9 15 -25 35 -35 45 -24 24 -9 54 37 73 18 7 35 18
37 23 1 5 15 13 31 16 l27 7 0 -276 0 -276 59 0 60 0 -10 32 c-12 43 -12 191
0 203 11 11 -4 91 -20 111 -12 14 8 74 26 74 21 0 38 27 27 45 -9 17 -67 56
-114 77 l-28 12 0 143 0 143 -240 0 -240 0 0 -420z m610 29 c0 -18 -18 -9 -23
12 -4 16 -3 18 9 8 8 -6 14 -15 14 -20z"/>
<path d="M355 470 c-8 -13 4 -32 16 -25 12 8 12 35 0 35 -6 0 -13 -4 -16 -10z"/>
</g>
</svg>
