<?xml version="1.0" standalone="no"?>
<!DOCTYPE svg PUBLIC "-//W3C//DTD SVG 20010904//EN"
 "http://www.w3.org/TR/2001/REC-SVG-20010904/DTD/svg10.dtd">
<svg version="1.0" xmlns="http://www.w3.org/2000/svg"
 width="96.000000pt" height="84.000000pt" viewBox="0 0 96.000000 84.000000"
 preserveAspectRatio="xMidYMid meet">
<metadata>
Created by potrace 1.16, written by Peter Selinger 2001-2019
</metadata>
<g transform="translate(0.000000,84.000000) scale(0.100000,-0.100000)"
fill="#000000" stroke="none">
<path d="M0 420 l0 -420 180 0 180 0 6 28 c3 15 10 37 15 50 5 13 9 31 9 42 0
10 6 21 13 24 10 5 10 7 0 12 -7 3 -13 23 -13 43 0 21 -3 41 -6 44 -15 15 -11
75 7 115 18 43 18 44 -3 72 -11 16 -27 31 -35 34 -7 3 -13 16 -13 29 0 18 8
28 33 37 17 7 39 21 47 31 8 9 25 20 38 24 l22 6 0 -295 0 -296 61 0 c54 0 60
2 54 18 -13 30 -19 232 -7 232 15 0 3 67 -21 115 -13 26 -16 40 -8 43 6 2 11
10 11 17 0 7 12 20 26 29 33 22 28 55 -11 76 -16 8 -35 22 -42 31 -7 9 -24 20
-38 23 l-25 6 0 125 0 125 -240 0 -240 0 0 -420z m606 79 c3 -6 -1 -18 -10
-27 -15 -15 -16 -14 -16 11 0 27 13 36 26 16z"/>
<path d="M361 506 c-8 -9 -11 -19 -7 -23 9 -9 29 13 24 27 -2 8 -8 7 -17 -4z"/>
</g>
</svg>
