<?xml version="1.0" standalone="no"?>
<!DOCTYPE svg PUBLIC "-//W3C//DTD SVG 20010904//EN"
 "http://www.w3.org/TR/2001/REC-SVG-20010904/DTD/svg10.dtd">
<svg version="1.0" xmlns="http://www.w3.org/2000/svg"
 width="96.000000pt" height="84.000000pt" viewBox="0 0 96.000000 84.000000"
 preserveAspectRatio="xMidYMid meet">
<metadata>
Created by potrace 1.16, written by Peter Selinger 2001-2019
</metadata>
<g transform="translate(0.000000,84.000000) scale(0.100000,-0.100000)"
fill="#000000" stroke="none">
<path d="M0 420 l0 -420 178 2 177 3 17 50 c17 52 24 190 10 199 -15 9 -4 85
19 132 21 45 22 47 4 60 -10 8 -22 14 -26 14 -13 0 -39 49 -33 64 3 8 14 18
25 21 10 4 19 13 19 21 0 8 4 13 8 10 5 -3 16 4 25 15 9 10 26 19 37 19 20 0
20 -6 20 -305 l0 -305 64 0 63 0 -19 58 c-15 45 -17 72 -12 127 4 39 10 72 15
75 11 8 -9 89 -32 128 -22 39 -24 52 -6 52 16 0 67 52 67 68 0 6 -9 17 -20 24
-11 7 -20 21 -20 31 0 10 -4 16 -10 12 -5 -3 -18 3 -30 15 -11 11 -29 20 -40
20 -19 0 -20 7 -20 115 l0 115 -240 0 -240 0 0 -420z m604 75 c-11 -28 -30
-24 -26 6 3 23 7 27 18 19 7 -7 10 -18 8 -25z"/>
<path d="M356 521 c-3 -4 1 -17 8 -27 13 -17 14 -17 13 9 -2 27 -11 35 -21 18z"/>
</g>
</svg>
