<?xml version="1.0" standalone="no"?>
<!DOCTYPE svg PUBLIC "-//W3C//DTD SVG 20010904//EN"
 "http://www.w3.org/TR/2001/REC-SVG-20010904/DTD/svg10.dtd">
<svg version="1.0" xmlns="http://www.w3.org/2000/svg"
 width="96.000000pt" height="84.000000pt" viewBox="0 0 96.000000 84.000000"
 preserveAspectRatio="xMidYMid meet">
<metadata>
Created by potrace 1.16, written by Peter Selinger 2001-2019
</metadata>
<g transform="translate(0.000000,84.000000) scale(0.100000,-0.100000)"
fill="#000000" stroke="none">
<path d="M0 420 l0 -420 173 0 c196 0 181 -6 206 86 12 47 15 157 4 168 -14
13 -11 60 5 109 13 38 20 47 39 47 33 0 29 16 -6 23 -19 4 -37 19 -52 43 l-22
37 21 18 c16 12 22 28 22 54 0 31 2 35 14 26 10 -8 16 -9 21 -1 3 5 17 10 31
10 l24 0 0 -310 0 -310 65 0 c63 0 74 5 57 25 -5 6 -14 33 -21 61 -13 54 -6
174 10 174 11 0 4 35 -19 103 -13 38 -20 47 -39 47 -13 0 -23 4 -23 10 0 5 7
7 15 4 18 -7 85 56 85 79 0 9 -9 22 -20 30 -16 11 -19 21 -13 47 5 29 4 32
-11 27 -9 -4 -24 -3 -34 2 -9 5 -25 12 -34 15 -16 5 -18 19 -18 111 l0 105
-240 0 -240 0 0 -420z m600 81 c0 -4 -7 -16 -15 -27 -14 -18 -15 -17 -11 11 2
17 5 31 5 33 2 6 21 -9 21 -17z"/>
<path d="M371 516 c-9 -11 -6 -20 14 -41 14 -16 25 -23 25 -17 0 6 -7 17 -15
26 -8 8 -12 22 -9 30 8 20 0 21 -15 2z"/>
</g>
</svg>
