<?xml version="1.0" standalone="no"?>
<!DOCTYPE svg PUBLIC "-//W3C//DTD SVG 20010904//EN"
 "http://www.w3.org/TR/2001/REC-SVG-20010904/DTD/svg10.dtd">
<svg version="1.0" xmlns="http://www.w3.org/2000/svg"
 width="96.000000pt" height="84.000000pt" viewBox="0 0 96.000000 84.000000"
 preserveAspectRatio="xMidYMid meet">
<metadata>
Created by potrace 1.16, written by Peter Selinger 2001-2019
</metadata>
<g transform="translate(0.000000,84.000000) scale(0.100000,-0.100000)"
fill="#000000" stroke="none">
<path d="M0 420 l0 -420 178 2 177 3 17 50 c18 55 24 195 8 195 -14 0 -5 77
15 123 15 36 15 39 -5 67 -27 37 -26 50 1 16 12 -15 23 -25 25 -23 8 8 -28 67
-37 62 -5 -4 -9 -2 -9 4 0 5 5 13 10 16 8 5 7 11 -1 21 -9 11 -8 14 3 14 10 0
13 10 10 37 -4 31 -2 35 12 30 10 -4 30 0 47 8 l29 16 0 -321 0 -320 66 0 c40
0 63 4 59 10 -3 5 -13 36 -21 67 -15 58 -11 183 6 183 10 0 -4 67 -24 113 -16
36 -16 38 4 59 29 31 33 53 16 87 -9 17 -16 47 -16 67 0 29 -3 34 -13 26 -9
-8 -21 -4 -45 14 -32 25 -32 25 -32 120 l0 94 -240 0 -240 0 0 -420z m576 35
c-9 -14 -21 -25 -26 -25 -16 0 -11 17 6 24 9 4 14 9 11 13 -4 3 -1 13 5 21 19
23 22 -5 4 -33z m-51 -35 c3 -5 1 -10 -4 -10 -6 0 -11 5 -11 10 0 6 2 10 4 10
3 0 8 -4 11 -10z"/>
<path d="M430 420 c-13 -8 -12 -10 3 -10 9 0 17 5 17 10 0 12 -1 12 -20 0z"/>
</g>
</svg>
