<?xml version="1.0" standalone="no"?>
<!DOCTYPE svg PUBLIC "-//W3C//DTD SVG 20010904//EN"
 "http://www.w3.org/TR/2001/REC-SVG-20010904/DTD/svg10.dtd">
<svg version="1.0" xmlns="http://www.w3.org/2000/svg"
 width="96.000000pt" height="84.000000pt" viewBox="0 0 96.000000 84.000000"
 preserveAspectRatio="xMidYMid meet">
<metadata>
Created by potrace 1.16, written by Peter Selinger 2001-2019
</metadata>
<g transform="translate(0.000000,84.000000) scale(0.100000,-0.100000)"
fill="#000000" stroke="none">
<path d="M0 420 l0 -420 174 0 c187 0 187 0 201 55 14 55 18 185 5 185 -15 0
-7 73 15 123 15 35 15 41 1 63 -21 31 -21 45 0 16 8 -12 20 -22 26 -22 6 0 4
8 -5 18 -10 10 -17 27 -17 37 0 14 -3 15 -15 5 -14 -11 -14 -10 -6 13 7 17 7
28 0 32 -5 4 -7 11 -3 16 3 5 9 7 14 4 5 -3 6 11 3 31 -5 33 -4 37 11 31 11
-4 29 1 47 14 l29 20 0 -320 0 -321 64 0 63 0 -19 58 c-15 45 -17 72 -12 125
4 37 10 67 15 67 11 0 1 53 -22 111 -17 46 -17 47 2 65 19 17 25 54 12 68 -8
8 -9 14 -12 80 -1 30 -4 37 -17 32 -9 -3 -29 3 -45 15 -29 20 -29 21 -29 120
l0 99 -240 0 -240 0 0 -420z m580 41 c0 -21 -27 -47 -38 -37 -4 4 1 14 12 21
10 8 15 18 11 24 -3 6 -1 11 4 11 6 0 11 -8 11 -19z m-55 -51 c3 -5 1 -10 -4
-10 -6 0 -11 5 -11 10 0 6 2 10 4 10 3 0 8 -4 11 -10z"/>
</g>
</svg>
