<?xml version="1.0" standalone="no"?>
<!DOCTYPE svg PUBLIC "-//W3C//DTD SVG 20010904//EN"
 "http://www.w3.org/TR/2001/REC-SVG-20010904/DTD/svg10.dtd">
<svg version="1.0" xmlns="http://www.w3.org/2000/svg"
 width="96.000000pt" height="84.000000pt" viewBox="0 0 96.000000 84.000000"
 preserveAspectRatio="xMidYMid meet">
<metadata>
Created by potrace 1.16, written by Peter Selinger 2001-2019
</metadata>
<g transform="translate(0.000000,84.000000) scale(0.100000,-0.100000)"
fill="#000000" stroke="none">
<path d="M567 783 c-4 -3 -7 -24 -7 -45 0 -27 -6 -41 -21 -50 -32 -20 -59 -72
-61 -118 -1 -36 3 -47 26 -67 15 -12 24 -28 21 -33 -3 -6 2 -22 13 -38 20 -29
37 -119 26 -146 -3 -9 -15 -16 -25 -16 -13 0 -19 -7 -19 -22 0 -13 -7 -31 -14
-41 -13 -17 -16 -17 -72 6 -51 20 -59 27 -62 53 -7 55 -40 69 -87 38 -19 -12
-25 -25 -25 -53 0 -38 23 -81 43 -81 34 -1 38 -15 24 -76 -8 -32 -18 -67 -22
-76 -7 -17 2 -18 107 -18 l115 0 11 33 11 32 -5 -32 -6 -33 136 0 137 0 -16
30 c-21 40 -19 67 5 75 27 9 25 27 -2 23 -25 -3 -31 14 -43 126 -5 53 -4 63 9
63 9 0 16 -7 16 -16 0 -11 3 -12 11 -4 20 20 5 266 -20 343 -27 79 -45 100
-86 100 -21 0 -40 9 -55 25 -23 24 -50 32 -63 18z m48 -403 c3 -5 1 -10 -4
-10 -6 0 -11 5 -11 10 0 6 2 10 4 10 3 0 8 -4 11 -10z"/>
</g>
</svg>
