<?xml version="1.0" standalone="no"?>
<!DOCTYPE svg PUBLIC "-//W3C//DTD SVG 20010904//EN"
 "http://www.w3.org/TR/2001/REC-SVG-20010904/DTD/svg10.dtd">
<svg version="1.0" xmlns="http://www.w3.org/2000/svg"
 width="96.000000pt" height="84.000000pt" viewBox="0 0 96.000000 84.000000"
 preserveAspectRatio="xMidYMid meet">
<metadata>
Created by potrace 1.16, written by Peter Selinger 2001-2019
</metadata>
<g transform="translate(0.000000,84.000000) scale(0.100000,-0.100000)"
fill="#000000" stroke="none">
<path d="M0 420 l0 -420 182 2 182 3 9 35 c15 56 20 181 8 193 -17 17 -13 59
10 116 20 48 21 53 5 69 -9 10 -16 23 -16 28 0 4 7 -2 16 -14 8 -12 20 -22 26
-22 6 0 4 8 -5 18 -10 10 -17 24 -17 31 0 7 -5 9 -11 5 -7 -4 -10 2 -8 17 2
13 0 30 -4 37 -5 7 -3 12 6 12 12 0 14 9 9 43 -5 38 -4 41 11 29 14 -12 21
-11 47 8 l30 21 0 -315 0 -316 60 0 60 0 -6 27 c-4 16 -11 39 -16 52 -10 28 0
161 13 161 11 0 1 53 -21 110 -17 43 -17 45 4 73 20 27 20 30 4 57 -12 21 -13
30 -5 34 8 4 8 8 2 11 -6 3 -9 24 -6 47 3 38 2 41 -12 29 -14 -11 -21 -9 -47
9 l-30 21 0 105 0 104 -240 0 -240 0 0 -420z m580 38 c-1 -19 -29 -53 -37 -45
-3 4 1 15 10 25 10 10 14 22 10 25 -3 4 -1 7 5 7 7 0 12 -6 12 -12z"/>
</g>
</svg>
