<?xml version="1.0" standalone="no"?>
<!DOCTYPE svg PUBLIC "-//W3C//DTD SVG 20010904//EN"
 "http://www.w3.org/TR/2001/REC-SVG-20010904/DTD/svg10.dtd">
<svg version="1.0" xmlns="http://www.w3.org/2000/svg"
 width="96.000000pt" height="84.000000pt" viewBox="0 0 96.000000 84.000000"
 preserveAspectRatio="xMidYMid meet">
<metadata>
Created by potrace 1.16, written by Peter Selinger 2001-2019
</metadata>
<g transform="translate(0.000000,84.000000) scale(0.100000,-0.100000)"
fill="#000000" stroke="none">
<path d="M0 420 l0 -420 181 2 182 3 13 45 c17 56 18 116 2 176 -11 40 -10 52
9 106 21 56 21 62 6 86 l-15 27 20 -25 c11 -14 24 -21 28 -17 4 4 0 15 -9 25
-10 10 -17 25 -17 33 0 12 -2 11 -11 -1 -8 -11 -9 -7 -5 18 3 18 1 32 -4 32
-6 0 -10 5 -10 10 0 6 6 10 13 10 9 0 12 11 9 36 -4 32 -2 35 15 30 13 -4 30
1 46 15 l27 20 0 -315 0 -316 59 0 59 0 -11 43 c-13 48 -10 190 3 195 12 4 1
56 -21 106 -17 39 -17 41 3 68 15 22 18 36 12 56 -11 37 -12 41 -13 90 -1 37
-4 43 -19 37 -11 -3 -30 3 -45 16 -26 20 -27 24 -27 125 l0 104 -240 0 -240 0
0 -420z m580 26 c0 -16 -38 -51 -46 -43 -3 3 3 14 13 24 11 11 17 25 15 33 -3
7 0 10 7 6 6 -4 11 -13 11 -20z"/>
</g>
</svg>
