<?xml version="1.0" standalone="no"?>
<!DOCTYPE svg PUBLIC "-//W3C//DTD SVG 20010904//EN"
 "http://www.w3.org/TR/2001/REC-SVG-20010904/DTD/svg10.dtd">
<svg version="1.0" xmlns="http://www.w3.org/2000/svg"
 width="96.000000pt" height="84.000000pt" viewBox="0 0 96.000000 84.000000"
 preserveAspectRatio="xMidYMid meet">
<metadata>
Created by potrace 1.16, written by Peter Selinger 2001-2019
</metadata>
<g transform="translate(0.000000,84.000000) scale(0.100000,-0.100000)"
fill="#000000" stroke="none">
<path d="M0 420 l0 -420 183 0 183 0 13 50 c10 39 10 68 1 140 -11 83 -10 94
10 146 19 51 19 58 5 74 -8 9 -15 20 -15 24 0 5 9 -2 19 -15 11 -13 22 -21 26
-18 3 4 -1 14 -10 22 -8 9 -15 24 -15 34 0 15 -2 16 -11 3 -8 -11 -9 -7 -5 18
3 18 1 32 -4 32 -6 0 -10 5 -10 10 0 6 6 10 13 10 9 0 12 11 9 36 -4 32 -2 35
15 30 13 -4 30 1 46 15 l27 20 0 -315 0 -316 59 0 59 0 -9 38 c-13 55 -12 205
2 197 14 -9 1 58 -22 109 -17 38 -17 40 3 67 16 21 19 34 12 56 -11 39 -12 42
-13 91 -1 37 -4 43 -19 37 -11 -3 -30 3 -45 16 -26 20 -27 24 -27 125 l0 104
-240 0 -240 0 0 -420z m580 26 c0 -16 -38 -52 -46 -44 -3 3 4 15 16 26 13 12
19 25 15 33 -5 8 -4 10 3 5 7 -4 12 -13 12 -20z"/>
</g>
</svg>
