<?xml version="1.0" standalone="no"?>
<!DOCTYPE svg PUBLIC "-//W3C//DTD SVG 20010904//EN"
 "http://www.w3.org/TR/2001/REC-SVG-20010904/DTD/svg10.dtd">
<svg version="1.0" xmlns="http://www.w3.org/2000/svg"
 width="96.000000pt" height="84.000000pt" viewBox="0 0 96.000000 84.000000"
 preserveAspectRatio="xMidYMid meet">
<metadata>
Created by potrace 1.16, written by Peter Selinger 2001-2019
</metadata>
<g transform="translate(0.000000,84.000000) scale(0.100000,-0.100000)"
fill="#000000" stroke="none">
<path d="M0 420 l0 -420 183 0 183 0 13 50 c10 39 10 68 1 138 -11 84 -10 92
11 137 21 45 21 48 6 75 -24 40 -21 46 8 13 13 -15 25 -23 25 -16 0 6 -7 18
-15 27 -8 8 -15 23 -15 33 0 15 -2 16 -11 3 -8 -11 -9 -7 -5 18 3 18 1 32 -4
32 -6 0 -10 5 -10 10 0 6 6 10 13 10 9 0 12 11 9 36 -4 32 -2 35 14 30 11 -3
31 1 47 9 l27 14 0 -310 0 -309 61 0 c54 0 60 2 54 18 -14 30 -19 226 -6 218
16 -10 14 5 -11 80 -17 52 -19 70 -10 83 23 31 25 44 14 74 -9 24 -9 33 1 39
9 6 9 8 0 8 -8 0 -13 15 -13 41 0 35 -3 40 -18 34 -11 -3 -30 3 -45 16 -26 20
-27 24 -27 125 l0 104 -240 0 -240 0 0 -420z m580 21 c0 -21 -27 -47 -38 -37
-4 4 1 14 12 21 11 9 16 20 12 30 -3 9 -2 13 4 10 6 -3 10 -14 10 -24z"/>
</g>
</svg>
