<?xml version="1.0" standalone="no"?>
<!DOCTYPE svg PUBLIC "-//W3C//DTD SVG 20010904//EN"
 "http://www.w3.org/TR/2001/REC-SVG-20010904/DTD/svg10.dtd">
<svg version="1.0" xmlns="http://www.w3.org/2000/svg"
 width="96.000000pt" height="84.000000pt" viewBox="0 0 96.000000 84.000000"
 preserveAspectRatio="xMidYMid meet">
<metadata>
Created by potrace 1.16, written by Peter Selinger 2001-2019
</metadata>
<g transform="translate(0.000000,84.000000) scale(0.100000,-0.100000)"
fill="#000000" stroke="none">
<path d="M0 420 l0 -420 183 0 183 0 13 49 c9 38 10 67 1 131 -11 77 -10 86
11 138 22 53 22 56 6 84 -20 35 -23 88 -4 88 6 0 4 5 -6 11 -9 6 -15 15 -12
20 4 5 11 7 16 3 7 -4 8 8 3 32 -6 33 -5 36 10 31 11 -4 29 1 47 14 29 20 29
20 29 130 l0 109 -240 0 -240 0 0 -420z"/>
<path d="M480 310 l0 -310 61 0 c59 0 61 1 54 22 -13 40 -18 211 -6 204 17
-11 13 16 -10 89 -20 61 -21 66 -5 83 25 29 19 38 -9 12 -26 -25 -36 -12 -10
14 8 8 15 19 15 25 0 6 5 11 10 11 6 0 10 -5 10 -12 0 -6 3 -8 6 -5 4 4 -1 17
-9 31 -12 18 -13 26 -4 29 9 4 9 8 -2 15 -9 7 -12 20 -8 41 6 29 -6 51 -17 32
-7 -10 -56 9 -56 22 0 4 -4 7 -10 7 -6 0 -10 -110 -10 -310z m45 80 c3 -5 1
-10 -4 -10 -6 0 -11 5 -11 10 0 6 2 10 4 10 3 0 8 -4 11 -10z"/>
<path d="M391 444 c-1 -11 8 -29 19 -39 22 -20 28 -4 7 17 -8 7 -16 20 -20 28
-4 11 -6 9 -6 -6z"/>
<path d="M445 390 c-3 -5 -1 -10 4 -10 6 0 11 5 11 10 0 6 -2 10 -4 10 -3 0
-8 -4 -11 -10z"/>
</g>
</svg>
