<?xml version="1.0" standalone="no"?>
<!DOCTYPE svg PUBLIC "-//W3C//DTD SVG 20010904//EN"
 "http://www.w3.org/TR/2001/REC-SVG-20010904/DTD/svg10.dtd">
<svg version="1.0" xmlns="http://www.w3.org/2000/svg"
 width="96.000000pt" height="84.000000pt" viewBox="0 0 96.000000 84.000000"
 preserveAspectRatio="xMidYMid meet">
<metadata>
Created by potrace 1.16, written by Peter Selinger 2001-2019
</metadata>
<g transform="translate(0.000000,84.000000) scale(0.100000,-0.100000)"
fill="#000000" stroke="none">
<path d="M0 420 l0 -420 184 0 183 0 12 42 c9 32 9 65 2 128 -11 83 -10 87 19
158 27 67 30 102 9 102 -11 0 -12 -13 -1 -26 4 -5 -1 -1 -10 9 -20 21 -24 62
-7 72 6 5 4 12 -8 21 -17 13 -17 13 0 14 15 0 17 6 11 37 -6 32 -5 35 10 30
18 -7 56 8 68 27 4 6 8 59 8 119 l0 107 -240 0 -240 0 0 -420z"/>
<path d="M480 310 l0 -310 61 0 c59 0 61 1 54 22 -15 45 -18 190 -5 198 10 6
10 17 1 51 -29 104 -29 104 -10 128 24 29 24 67 2 81 -13 8 -14 13 -5 16 6 3
12 10 12 15 0 6 -5 7 -10 4 -7 -4 -8 8 -4 36 6 38 5 42 -11 35 -11 -4 -31 2
-51 13 l-34 20 0 -309z m110 132 c0 -11 -9 -27 -20 -37 -24 -22 -38 -14 -15 8
8 9 15 23 15 31 0 9 5 16 10 16 6 0 10 -8 10 -18z"/>
<path d="M390 445 c0 -8 2 -15 4 -15 2 0 6 7 10 15 3 8 1 15 -4 15 -6 0 -10
-7 -10 -15z"/>
</g>
</svg>
