<?xml version="1.0" standalone="no"?>
<!DOCTYPE svg PUBLIC "-//W3C//DTD SVG 20010904//EN"
 "http://www.w3.org/TR/2001/REC-SVG-20010904/DTD/svg10.dtd">
<svg version="1.0" xmlns="http://www.w3.org/2000/svg"
 width="96.000000pt" height="84.000000pt" viewBox="0 0 96.000000 84.000000"
 preserveAspectRatio="xMidYMid meet">
<metadata>
Created by potrace 1.16, written by Peter Selinger 2001-2019
</metadata>
<g transform="translate(0.000000,84.000000) scale(0.100000,-0.100000)"
fill="#000000" stroke="none">
<path d="M0 420 l0 -420 183 0 184 0 11 39 c14 46 15 78 3 85 -5 3 -7 24 -4
47 4 27 2 44 -6 49 -10 5 -8 18 8 51 11 24 27 64 35 89 14 41 14 46 0 60 -15
14 -15 13 -5 -10 11 -24 11 -24 -3 -6 -18 23 -20 36 -6 36 6 0 10 5 10 11 0 5
-4 8 -9 4 -16 -9 -25 16 -10 27 11 7 11 11 2 15 -7 2 -13 9 -13 14 0 6 5 7 10
4 6 -4 10 11 10 36 0 33 3 40 12 31 8 -8 18 -6 40 9 l28 20 0 -305 0 -306 61
0 c59 0 61 1 54 23 -12 35 -16 199 -5 192 16 -10 11 35 -9 94 l-19 53 24 36
c29 42 29 47 5 71 -14 14 -16 21 -8 25 8 4 8 8 2 11 -6 3 -9 22 -7 43 4 37 3
39 -27 39 -60 0 -71 23 -71 145 l0 108 -240 0 -240 0 0 -420z m600 21 c0 -17
-38 -56 -47 -48 -4 5 0 15 11 22 10 8 15 18 11 24 -3 6 1 11 9 11 9 0 16 -4
16 -9z m-65 -61 c3 -5 1 -10 -4 -10 -6 0 -11 5 -11 10 0 6 2 10 4 10 3 0 8 -4
11 -10z"/>
<path d="M450 379 c0 -5 5 -7 10 -4 6 3 10 8 10 11 0 2 -4 4 -10 4 -5 0 -10
-5 -10 -11z"/>
</g>
</svg>
