<?xml version="1.0" standalone="no"?>
<!DOCTYPE svg PUBLIC "-//W3C//DTD SVG 20010904//EN"
 "http://www.w3.org/TR/2001/REC-SVG-20010904/DTD/svg10.dtd">
<svg version="1.0" xmlns="http://www.w3.org/2000/svg"
 width="96.000000pt" height="84.000000pt" viewBox="0 0 96.000000 84.000000"
 preserveAspectRatio="xMidYMid meet">
<metadata>
Created by potrace 1.16, written by Peter Selinger 2001-2019
</metadata>
<g transform="translate(0.000000,84.000000) scale(0.100000,-0.100000)"
fill="#000000" stroke="none">
<path d="M0 420 l0 -420 185 0 184 0 13 41 c10 36 10 46 -4 70 -13 22 -15 36
-7 61 12 42 12 61 -1 53 -19 -12 -10 18 19 64 31 48 51 131 31 131 -5 0 -10 8
-11 18 0 11 -2 12 -6 4 -3 -7 1 -19 7 -28 7 -8 10 -17 7 -20 -12 -12 -29 40
-24 72 3 19 2 34 -4 34 -5 0 -9 5 -9 11 0 6 6 9 14 6 11 -4 13 3 9 34 -4 25
-2 39 6 39 6 0 11 -5 11 -10 0 -6 13 -4 30 5 l30 16 0 -301 0 -300 61 0 c59 0
61 1 54 23 -4 12 -9 50 -12 84 -5 56 -2 69 26 122 17 33 31 72 31 87 0 24 -2
26 -33 20 -28 -5 -34 -3 -34 11 0 10 8 29 19 42 23 30 23 67 1 81 -13 8 -14
13 -5 16 6 3 12 10 12 15 0 6 -5 7 -11 3 -8 -5 -9 6 -4 36 6 37 5 42 -9 37 -8
-3 -34 3 -56 15 l-40 22 0 113 0 113 -240 0 -240 0 0 -420z m600 12 c0 -20
-36 -59 -45 -50 -9 8 6 38 16 32 5 -3 9 4 9 15 0 12 5 21 10 21 6 0 10 -8 10
-18z"/>
<path d="M417 170 c-3 -11 -1 -20 4 -20 5 0 9 9 9 20 0 11 -2 20 -4 20 -2 0
-6 -9 -9 -20z"/>
</g>
</svg>
