<?xml version="1.0" standalone="no"?>
<!DOCTYPE svg PUBLIC "-//W3C//DTD SVG 20010904//EN"
 "http://www.w3.org/TR/2001/REC-SVG-20010904/DTD/svg10.dtd">
<svg version="1.0" xmlns="http://www.w3.org/2000/svg"
 width="96.000000pt" height="84.000000pt" viewBox="0 0 96.000000 84.000000"
 preserveAspectRatio="xMidYMid meet">
<metadata>
Created by potrace 1.16, written by Peter Selinger 2001-2019
</metadata>
<g transform="translate(0.000000,84.000000) scale(0.100000,-0.100000)"
fill="#000000" stroke="none">
<path d="M0 420 l0 -420 184 0 184 0 11 31 c15 45 14 74 -5 90 -16 13 -15 60
2 103 5 14 4 17 -4 12 -23 -14 -12 30 13 54 35 33 49 86 30 114 -22 30 -18 42
5 15 23 -28 26 -22 7 15 -8 14 -18 22 -22 18 -4 -4 -5 5 -1 21 4 16 2 27 -4
27 -5 0 -10 4 -10 10 0 5 6 7 13 4 9 -3 12 6 9 38 -4 36 -2 41 10 31 9 -8 19
-9 28 -3 8 6 18 10 23 10 13 0 8 -198 -6 -203 -9 -4 -9 -6 1 -6 9 -1 12 -46
12 -191 l0 -190 61 0 c59 0 61 1 55 23 -23 78 -21 86 31 140 59 60 77 107 41
107 -12 0 -32 -10 -45 -22 l-23 -21 0 24 c0 13 -7 45 -14 70 -14 45 -14 48 10
70 25 23 32 63 13 74 -6 4 -8 13 -5 21 3 8 1 14 -5 14 -7 0 -8 15 -4 42 6 36
5 40 -10 34 -10 -4 -32 2 -52 14 -19 11 -39 18 -44 15 -5 -4 -9 43 -9 114 l0
121 -240 0 -240 0 0 -420z m610 10 c0 -10 -9 -24 -21 -30 -26 -15 -35 -7 -14
13 8 9 15 20 15 26 0 6 5 11 10 11 6 0 10 -9 10 -20z"/>
<path d="M418 190 c-7 -24 -3 -38 8 -28 3 4 4 17 2 30 l-3 23 -7 -25z"/>
</g>
</svg>
