<?xml version="1.0" standalone="no"?>
<!DOCTYPE svg PUBLIC "-//W3C//DTD SVG 20010904//EN"
 "http://www.w3.org/TR/2001/REC-SVG-20010904/DTD/svg10.dtd">
<svg version="1.0" xmlns="http://www.w3.org/2000/svg"
 width="96.000000pt" height="84.000000pt" viewBox="0 0 96.000000 84.000000"
 preserveAspectRatio="xMidYMid meet">
<metadata>
Created by potrace 1.16, written by Peter Selinger 2001-2019
</metadata>
<g transform="translate(0.000000,84.000000) scale(0.100000,-0.100000)"
fill="#000000" stroke="none">
<path d="M0 420 l0 -420 183 0 184 0 13 43 c15 46 21 229 8 221 -19 -12 -6 33
23 77 l30 48 -22 30 c-19 26 -21 35 -11 55 8 19 8 26 -1 30 -7 2 -4 5 6 5 15
1 17 7 12 34 -6 32 -5 34 24 34 l31 0 0 -96 c1 -53 0 -183 0 -288 l-1 -193 58
0 58 0 -3 50 c-4 48 -2 51 42 91 29 26 46 51 46 65 0 31 -20 36 -48 11 -17
-16 -22 -17 -24 -6 0 8 -2 25 -4 39 -7 80 -20 115 -42 118 -13 2 -22 10 -21
20 0 11 3 12 6 5 7 -19 27 -16 57 8 27 21 34 57 14 77 -6 6 -10 33 -9 59 1 37
-1 45 -11 35 -9 -9 -16 -8 -29 4 -10 9 -34 16 -53 16 l-36 0 0 124 0 124 -240
0 -240 0 0 -420z m620 20 c0 -10 -9 -24 -21 -30 -26 -15 -35 -7 -14 13 8 9 15
20 15 26 0 6 5 11 10 11 6 0 10 -9 10 -20z"/>
<path d="M410 452 c0 -5 9 -17 20 -27 11 -10 20 -13 20 -7 0 7 -4 12 -10 12
-5 0 -10 7 -10 15 0 8 -4 15 -10 15 -5 0 -10 -4 -10 -8z"/>
</g>
</svg>
