<?xml version="1.0" standalone="no"?>
<!DOCTYPE svg PUBLIC "-//W3C//DTD SVG 20010904//EN"
 "http://www.w3.org/TR/2001/REC-SVG-20010904/DTD/svg10.dtd">
<svg version="1.0" xmlns="http://www.w3.org/2000/svg"
 width="96.000000pt" height="84.000000pt" viewBox="0 0 96.000000 84.000000"
 preserveAspectRatio="xMidYMid meet">
<metadata>
Created by potrace 1.16, written by Peter Selinger 2001-2019
</metadata>
<g transform="translate(0.000000,84.000000) scale(0.100000,-0.100000)"
fill="#000000" stroke="none">
<path d="M551 762 c-6 -10 -8 -28 -5 -38 4 -13 -6 -32 -29 -57 -55 -58 -59
-149 -8 -177 12 -6 18 -16 15 -25 -3 -8 3 -27 14 -42 20 -29 36 -112 26 -138
-4 -8 -15 -15 -25 -15 -13 0 -19 -7 -19 -22 0 -13 -7 -31 -15 -41 -13 -18 -15
-18 -67 1 -54 20 -59 26 -75 77 -10 34 -42 41 -80 17 -33 -21 -32 -84 2 -117
13 -14 31 -25 40 -25 14 0 15 -8 9 -48 -4 -26 -11 -57 -15 -70 -5 -13 -9 -27
-9 -32 0 -6 105 -10 246 -10 230 0 246 1 239 18 -19 44 -17 72 6 93 l24 20
-27 -5 c-24 -6 -28 -3 -33 26 -4 18 -8 49 -9 68 -2 19 -7 47 -11 61 -8 32 13
51 27 25 5 -9 14 -16 20 -16 18 0 2 242 -22 325 -26 90 -47 119 -91 123 -18 2
-45 12 -60 23 -34 24 -56 24 -68 1z m56 -394 c-3 -7 -5 -2 -5 12 0 14 2 19 5
13 2 -7 2 -19 0 -25z"/>
</g>
</svg>
