<?xml version="1.0" standalone="no"?>
<!DOCTYPE svg PUBLIC "-//W3C//DTD SVG 20010904//EN"
 "http://www.w3.org/TR/2001/REC-SVG-20010904/DTD/svg10.dtd">
<svg version="1.0" xmlns="http://www.w3.org/2000/svg"
 width="96.000000pt" height="84.000000pt" viewBox="0 0 96.000000 84.000000"
 preserveAspectRatio="xMidYMid meet">
<metadata>
Created by potrace 1.16, written by Peter Selinger 2001-2019
</metadata>
<g transform="translate(0.000000,84.000000) scale(0.100000,-0.100000)"
fill="#000000" stroke="none">
<path d="M0 420 l0 -420 183 0 183 0 17 64 c9 35 17 73 17 84 0 11 7 43 17 71
14 45 14 55 2 78 -16 31 -13 61 9 86 14 16 13 19 -6 40 -23 25 -28 52 -12 62
6 4 8 11 5 16 -4 5 -1 9 6 9 8 0 10 12 6 36 -5 30 -3 35 10 30 35 -14 43 12
43 140 l0 124 -240 0 -240 0 0 -420z"/>
<path d="M498 593 c-16 -4 -17 -30 -18 -299 l0 -294 62 0 c34 0 58 3 55 7 -4
3 1 15 10 25 16 18 16 22 -2 66 -21 53 -25 103 -10 109 6 2 21 -6 33 -17 15
-14 29 -19 46 -14 25 6 25 7 8 32 -21 34 -32 42 -58 42 -22 0 -34 31 -34 86 0
16 -8 28 -25 36 -26 12 -31 23 -15 33 6 3 10 1 10 -4 0 -19 21 -12 51 19 l30
29 -19 38 c-13 25 -18 50 -15 73 4 28 3 33 -8 23 -7 -7 -17 -9 -23 -4 -15 11
-57 19 -78 14z m125 -149 c-5 -15 -33 -27 -42 -19 -3 3 -1 9 5 13 6 4 14 16
18 27 6 15 9 17 16 6 4 -8 6 -20 3 -27z"/>
<path d="M410 455 c0 -15 38 -40 47 -31 3 3 -2 8 -11 12 -9 3 -14 10 -11 14 3
4 -2 10 -10 14 -9 3 -15 0 -15 -9z"/>
</g>
</svg>
