<?xml version="1.0" standalone="no"?>
<!DOCTYPE svg PUBLIC "-//W3C//DTD SVG 20010904//EN"
 "http://www.w3.org/TR/2001/REC-SVG-20010904/DTD/svg10.dtd">
<svg version="1.0" xmlns="http://www.w3.org/2000/svg"
 width="96.000000pt" height="84.000000pt" viewBox="0 0 96.000000 84.000000"
 preserveAspectRatio="xMidYMid meet">
<metadata>
Created by potrace 1.16, written by Peter Selinger 2001-2019
</metadata>
<g transform="translate(0.000000,84.000000) scale(0.100000,-0.100000)"
fill="#000000" stroke="none">
<path d="M0 420 l0 -420 186 2 186 3 25 65 c21 55 25 85 28 192 2 99 0 130
-11 139 -14 12 -15 79 -1 79 4 0 7 16 7 35 0 25 4 33 14 29 8 -3 17 -1 21 5
21 35 25 -10 25 -269 l0 -280 75 0 c41 0 75 3 75 8 0 4 -10 23 -21 42 -24 38
-41 169 -21 156 6 -3 13 -2 16 3 4 5 2 12 -4 16 -5 3 -10 17 -10 31 0 21 3 23
19 14 13 -7 22 -7 26 0 14 23 53 10 75 -25 19 -31 47 -55 64 -55 15 0 2 39
-24 74 -17 22 -30 45 -30 51 0 17 -44 55 -64 55 -13 0 -16 -5 -11 -20 7 -23 1
-24 -61 -9 -27 7 -44 17 -44 26 0 9 6 12 18 8 24 -7 72 30 72 55 0 23 -20 70
-30 70 -4 0 -4 14 -2 31 4 28 2 30 -16 25 -11 -4 -23 -2 -27 4 -3 5 -22 10
-41 10 l-34 0 0 135 0 135 -240 0 -240 0 0 -420z m620 17 c0 -14 -20 -37 -32
-37 -4 0 -8 5 -8 11 0 5 5 7 10 4 6 -3 10 3 10 14 0 12 5 21 10 21 6 0 10 -6
10 -13z"/>
<path d="M425 410 c10 -11 23 -20 28 -20 6 0 1 9 -11 20 -12 11 -24 20 -28 20
-4 0 1 -9 11 -20z"/>
</g>
</svg>
