<?xml version="1.0" standalone="no"?>
<!DOCTYPE svg PUBLIC "-//W3C//DTD SVG 20010904//EN"
 "http://www.w3.org/TR/2001/REC-SVG-20010904/DTD/svg10.dtd">
<svg version="1.0" xmlns="http://www.w3.org/2000/svg"
 width="96.000000pt" height="84.000000pt" viewBox="0 0 96.000000 84.000000"
 preserveAspectRatio="xMidYMid meet">
<metadata>
Created by potrace 1.16, written by Peter Selinger 2001-2019
</metadata>
<g transform="translate(0.000000,84.000000) scale(0.100000,-0.100000)"
fill="#000000" stroke="none">
<path d="M0 420 l0 -420 204 0 c185 0 205 2 211 18 4 9 11 75 15 147 7 105 6
133 -6 149 -15 22 -19 82 -6 90 5 3 7 19 4 36 -3 24 -1 29 11 24 8 -3 18 -1
22 5 20 34 25 -7 25 -229 l0 -240 64 0 65 0 -10 32 c-14 51 -12 101 5 95 24
-9 26 4 5 41 -10 20 -19 48 -19 63 0 18 -8 29 -25 37 -26 12 -32 26 -16 36 5
4 11 0 14 -6 3 -10 9 -11 28 -1 13 7 38 11 54 9 l30 -4 -3 -70 c-4 -73 8 -97
33 -71 12 13 21 127 17 217 -2 37 -29 45 -34 10 -4 -27 -30 -35 -49 -15 -36
37 -45 55 -45 81 1 26 -3 29 -39 34 -22 2 -48 5 -57 5 -16 1 -18 16 -18 174
l0 173 -240 0 -240 0 0 -420z"/>
<path d="M420 340 c0 -5 5 -10 10 -10 6 0 10 5 10 10 0 6 -4 10 -10 10 -5 0
-10 -4 -10 -10z"/>
</g>
</svg>
