<?xml version="1.0" standalone="no"?>
<!DOCTYPE svg PUBLIC "-//W3C//DTD SVG 20010904//EN"
 "http://www.w3.org/TR/2001/REC-SVG-20010904/DTD/svg10.dtd">
<svg version="1.0" xmlns="http://www.w3.org/2000/svg"
 width="96.000000pt" height="84.000000pt" viewBox="0 0 96.000000 84.000000"
 preserveAspectRatio="xMidYMid meet">
<metadata>
Created by potrace 1.16, written by Peter Selinger 2001-2019
</metadata>
<g transform="translate(0.000000,84.000000) scale(0.100000,-0.100000)"
fill="#000000" stroke="none">
<path d="M0 420 l0 -420 215 0 215 0 0 23 c-1 70 -22 262 -29 267 -5 3 -13 18
-16 33 -6 21 -4 27 9 27 12 0 16 10 16 41 0 33 3 40 16 35 8 -3 24 -1 35 4 18
10 19 5 19 -210 l0 -220 63 0 63 0 -4 41 c-3 27 -1 39 6 35 6 -3 13 -2 17 4 3
6 0 13 -9 16 -16 6 -24 23 -36 73 -7 27 -5 40 11 59 22 29 24 60 4 86 -11 14
-12 23 -4 33 8 9 8 13 0 13 -16 0 -13 27 4 34 9 3 23 -6 37 -24 32 -44 55 -40
55 10 0 31 -4 41 -21 46 -11 4 -33 16 -48 27 -26 19 -28 19 -53 3 -23 -15 -30
-15 -56 -4 l-29 13 0 187 0 188 -240 0 -240 0 0 -420z m600 -141 c0 -17 -20
-49 -30 -49 -6 0 -10 7 -10 15 0 8 5 15 10 15 6 0 10 7 10 15 0 8 5 15 10 15
6 0 10 -5 10 -11z"/>
</g>
</svg>
