<?xml version="1.0" standalone="no"?>
<!DOCTYPE svg PUBLIC "-//W3C//DTD SVG 20010904//EN"
 "http://www.w3.org/TR/2001/REC-SVG-20010904/DTD/svg10.dtd">
<svg version="1.0" xmlns="http://www.w3.org/2000/svg"
 width="96.000000pt" height="84.000000pt" viewBox="0 0 96.000000 84.000000"
 preserveAspectRatio="xMidYMid meet">
<metadata>
Created by potrace 1.16, written by Peter Selinger 2001-2019
</metadata>
<g transform="translate(0.000000,84.000000) scale(0.100000,-0.100000)"
fill="#000000" stroke="none">
<path d="M0 420 l0 -420 210 0 210 0 -4 22 c-3 13 -13 53 -21 90 -9 37 -15 78
-14 90 1 13 -4 36 -11 51 -19 38 6 110 38 115 15 2 22 11 22 25 0 12 8 49 18
82 15 49 17 76 11 150 -9 93 -4 145 12 145 5 0 9 16 9 35 l0 35 -240 0 -240 0
0 -420z"/>
<path d="M482 575 c-1 -112 2 -175 7 -170 13 13 14 95 3 235 l-9 115 -1 -180z"/>
<path d="M480 196 l0 -196 61 0 c57 0 60 1 54 22 -6 17 -4 20 9 15 9 -4 16 -1
16 6 0 14 -20 46 -20 33 0 -5 -9 -1 -20 9 -17 16 -20 26 -14 62 3 23 3 51 -2
60 -4 10 -8 46 -8 80 -1 65 -5 73 -29 77 -8 1 -22 8 -31 15 -15 12 -16 -4 -16
-183z m80 -21 c0 -22 -2 -24 -19 -13 -15 9 -17 15 -9 25 16 20 28 15 28 -12z"/>
</g>
</svg>
