<?xml version="1.0" standalone="no"?>
<!DOCTYPE svg PUBLIC "-//W3C//DTD SVG 20010904//EN"
 "http://www.w3.org/TR/2001/REC-SVG-20010904/DTD/svg10.dtd">
<svg version="1.0" xmlns="http://www.w3.org/2000/svg"
 width="96.000000pt" height="84.000000pt" viewBox="0 0 96.000000 84.000000"
 preserveAspectRatio="xMidYMid meet">
<metadata>
Created by potrace 1.16, written by Peter Selinger 2001-2019
</metadata>
<g transform="translate(0.000000,84.000000) scale(0.100000,-0.100000)"
fill="#000000" stroke="none">
<path d="M0 420 l0 -420 206 0 205 0 -7 22 c-3 12 -15 31 -26 42 -16 17 -18
29 -12 66 4 25 6 66 5 92 -1 27 5 63 12 80 8 18 22 72 31 119 16 82 15 90 -4
183 -21 105 -25 162 -12 170 16 9 30 -37 45 -139 30 -205 37 -201 37 23 l0
182 -240 0 -240 0 0 -420z"/>
<path d="M471 434 c0 -11 3 -14 6 -6 3 7 2 16 -1 19 -3 4 -6 -2 -5 -13z"/>
<path d="M460 370 c-8 -5 -12 -11 -9 -14 2 -3 11 -1 19 4 8 5 12 11 9 14 -2 3
-11 1 -19 -4z"/>
<path d="M480 176 l0 -176 70 0 c58 0 68 3 64 15 -4 8 -11 15 -18 15 -6 0 -17
10 -25 21 -16 26 -26 165 -12 173 9 6 4 35 -13 77 -4 8 -20 23 -36 33 l-30 17
0 -175z m70 -46 c0 -5 -4 -10 -9 -10 -6 0 -13 5 -16 10 -3 6 1 10 9 10 9 0 16
-4 16 -10z"/>
<path d="M370 111 c0 -10 7 -24 15 -31 12 -10 15 -10 15 3 0 23 -11 47 -21 47
-5 0 -9 -8 -9 -19z"/>
</g>
</svg>
