<?xml version="1.0" standalone="no"?>
<!DOCTYPE svg PUBLIC "-//W3C//DTD SVG 20010904//EN"
 "http://www.w3.org/TR/2001/REC-SVG-20010904/DTD/svg10.dtd">
<svg version="1.0" xmlns="http://www.w3.org/2000/svg"
 width="96.000000pt" height="84.000000pt" viewBox="0 0 96.000000 84.000000"
 preserveAspectRatio="xMidYMid meet">
<metadata>
Created by potrace 1.16, written by Peter Selinger 2001-2019
</metadata>
<g transform="translate(0.000000,84.000000) scale(0.100000,-0.100000)"
fill="#000000" stroke="none">
<path d="M0 420 l0 -420 200 0 c110 0 200 3 200 6 0 3 -11 15 -25 26 -14 11
-25 27 -25 36 1 15 2 15 11 0 12 -21 39 -24 39 -5 0 7 -7 22 -15 33 -13 17
-16 17 -26 4 -9 -12 -10 -11 -4 5 13 39 15 60 6 92 -7 25 -4 41 15 79 13 26
24 62 24 79 0 17 5 56 11 86 9 44 7 73 -8 159 -20 113 -18 175 5 148 6 -8 19
-66 27 -127 8 -62 17 -117 21 -122 3 -5 7 -39 9 -74 2 -52 0 -67 -13 -74 -21
-12 -11 -24 12 -15 14 5 16 33 16 255 l0 249 -240 0 -240 0 0 -420z"/>
<path d="M480 236 c0 -46 -3 -117 -6 -159 l-7 -77 57 0 c56 0 66 6 44 28 -16
16 -37 101 -27 108 5 3 9 15 9 27 -1 12 2 36 5 52 7 36 -23 89 -54 98 -20 5
-21 2 -21 -77z"/>
</g>
</svg>
