<?xml version="1.0" standalone="no"?>
<!DOCTYPE svg PUBLIC "-//W3C//DTD SVG 20010904//EN"
 "http://www.w3.org/TR/2001/REC-SVG-20010904/DTD/svg10.dtd">
<svg version="1.0" xmlns="http://www.w3.org/2000/svg"
 width="96.000000pt" height="84.000000pt" viewBox="0 0 96.000000 84.000000"
 preserveAspectRatio="xMidYMid meet">
<metadata>
Created by potrace 1.16, written by Peter Selinger 2001-2019
</metadata>
<g transform="translate(0.000000,84.000000) scale(0.100000,-0.100000)"
fill="#000000" stroke="none">
<path d="M0 420 l0 -420 185 0 185 0 -16 25 c-11 17 -14 33 -8 52 7 28 8 46 3
117 -1 24 2 41 9 44 7 2 12 12 12 22 0 10 4 21 9 24 4 3 11 35 14 71 3 36 11
73 16 83 6 12 5 55 -5 128 -16 119 -11 176 11 153 9 -9 17 -60 23 -137 14
-201 30 -174 31 57 l2 201 -236 0 -235 0 0 -420z"/>
<path d="M453 374 c4 -25 2 -37 -9 -41 -7 -3 -14 -12 -14 -19 0 -12 4 -12 20
-4 15 8 20 21 20 55 0 27 -5 45 -11 45 -8 0 -10 -12 -6 -36z"/>
<path d="M464 150 l1 -150 41 0 42 0 -9 40 c-9 41 -7 116 5 127 10 11 7 49 -8
78 -11 21 -55 55 -71 55 -1 0 -2 -67 -1 -150z"/>
<path d="M350 61 c0 -20 17 -37 27 -28 7 8 -7 47 -18 47 -5 0 -9 -9 -9 -19z"/>
</g>
</svg>
