<?xml version="1.0" standalone="no"?>
<!DOCTYPE svg PUBLIC "-//W3C//DTD SVG 20010904//EN"
 "http://www.w3.org/TR/2001/REC-SVG-20010904/DTD/svg10.dtd">
<svg version="1.0" xmlns="http://www.w3.org/2000/svg"
 width="96.000000pt" height="84.000000pt" viewBox="0 0 96.000000 84.000000"
 preserveAspectRatio="xMidYMid meet">
<metadata>
Created by potrace 1.16, written by Peter Selinger 2001-2019
</metadata>
<g transform="translate(0.000000,84.000000) scale(0.100000,-0.100000)"
fill="#000000" stroke="none">
<path d="M0 420 l0 -420 180 0 180 0 -12 25 c-7 17 -8 39 -1 74 6 31 6 55 0
66 -10 18 8 101 24 111 5 3 9 22 9 42 0 20 8 59 18 87 16 44 16 60 6 155 -12
103 -10 160 7 160 13 0 20 -35 28 -154 4 -64 11 -119 14 -123 4 -3 7 84 7 195
l0 202 -230 0 -230 0 0 -420z"/>
<path d="M452 370 c-1 -20 -7 -41 -14 -48 -14 -14 -7 -24 10 -13 9 5 12 23 9
52 -3 39 -4 40 -5 9z"/>
<path d="M460 149 l0 -149 38 0 38 0 -6 52 c-4 29 -3 68 2 88 20 77 8 121 -38
142 l-34 16 0 -149z m60 -69 c0 -5 -4 -10 -10 -10 -5 0 -10 5 -10 10 0 6 5 10
10 10 6 0 10 -4 10 -10z"/>
<path d="M350 62 c0 -11 7 -25 15 -32 12 -10 15 -9 15 8 0 11 -7 25 -15 32
-12 10 -15 9 -15 -8z"/>
</g>
</svg>
