<?xml version="1.0" standalone="no"?>
<!DOCTYPE svg PUBLIC "-//W3C//DTD SVG 20010904//EN"
 "http://www.w3.org/TR/2001/REC-SVG-20010904/DTD/svg10.dtd">
<svg version="1.0" xmlns="http://www.w3.org/2000/svg"
 width="96.000000pt" height="84.000000pt" viewBox="0 0 96.000000 84.000000"
 preserveAspectRatio="xMidYMid meet">
<metadata>
Created by potrace 1.16, written by Peter Selinger 2001-2019
</metadata>
<g transform="translate(0.000000,84.000000) scale(0.100000,-0.100000)"
fill="#000000" stroke="none">
<path d="M555 767 c-13 -10 -16 -22 -13 -42 5 -22 0 -33 -23 -52 -55 -47 -64
-156 -15 -183 14 -7 22 -18 19 -26 -2 -7 2 -26 11 -41 36 -65 37 -170 1 -157
-11 5 -15 0 -15 -18 0 -13 -6 -32 -13 -42 -13 -18 -16 -18 -73 1 -42 14 -60
25 -62 39 -9 58 -12 64 -40 64 -43 0 -72 -26 -72 -64 0 -40 33 -86 62 -86 19
0 20 -4 14 -57 -4 -31 -9 -67 -12 -80 l-6 -23 237 0 237 0 -7 22 c-18 61 -18
69 3 75 11 3 23 12 26 20 5 11 0 13 -22 8 -28 -6 -29 -5 -39 52 -6 32 -7 59
-2 61 4 2 4 15 -2 28 -19 51 -4 71 28 39 8 -9 16 -15 17 -13 1 2 -1 66 -5 143
-5 101 -13 158 -29 205 -26 80 -43 100 -87 100 -20 0 -46 9 -60 20 -30 24 -34
24 -58 7z m46 -400 c-10 -9 -11 -8 -5 6 3 10 9 15 12 12 3 -3 0 -11 -7 -18z"/>
</g>
</svg>
