<?xml version="1.0" standalone="no"?>
<!DOCTYPE svg PUBLIC "-//W3C//DTD SVG 20010904//EN"
 "http://www.w3.org/TR/2001/REC-SVG-20010904/DTD/svg10.dtd">
<svg version="1.0" xmlns="http://www.w3.org/2000/svg"
 width="96.000000pt" height="84.000000pt" viewBox="0 0 96.000000 84.000000"
 preserveAspectRatio="xMidYMid meet">
<metadata>
Created by potrace 1.16, written by Peter Selinger 2001-2019
</metadata>
<g transform="translate(0.000000,84.000000) scale(0.100000,-0.100000)"
fill="#000000" stroke="none">
<path d="M0 420 l0 -420 169 0 c168 0 199 6 172 33 -14 14 -15 30 -1 22 6 -3
10 3 10 14 0 12 -3 21 -8 21 -4 0 -8 32 -9 71 -1 54 3 79 18 105 10 19 19 54
19 78 0 23 3 46 7 50 21 21 28 77 21 171 -8 102 -4 155 13 155 13 0 19 -35 22
-145 2 -55 4 -18 5 83 l2 182 -220 0 -220 0 0 -420z"/>
<path d="M440 160 l0 -160 43 0 43 0 -4 40 c-3 26 -9 40 -18 40 -16 0 -19 16
-5 24 5 4 12 0 15 -6 4 -9 5 -8 4 2 -1 8 1 40 5 70 9 71 -2 114 -32 118 -12 2
-25 10 -28 18 -16 42 -23 -3 -23 -146z"/>
</g>
</svg>
