<?xml version="1.0" standalone="no"?>
<!DOCTYPE svg PUBLIC "-//W3C//DTD SVG 20010904//EN"
 "http://www.w3.org/TR/2001/REC-SVG-20010904/DTD/svg10.dtd">
<svg version="1.0" xmlns="http://www.w3.org/2000/svg"
 width="96.000000pt" height="84.000000pt" viewBox="0 0 96.000000 84.000000"
 preserveAspectRatio="xMidYMid meet">
<metadata>
Created by potrace 1.16, written by Peter Selinger 2001-2019
</metadata>
<g transform="translate(0.000000,84.000000) scale(0.100000,-0.100000)"
fill="#000000" stroke="none">
<path d="M0 420 l0 -420 165 0 165 0 0 34 c0 19 -4 38 -10 41 -5 3 -10 14 -9
23 0 11 2 12 6 4 2 -6 9 -10 13 -7 5 3 7 12 4 20 -4 8 -9 13 -13 11 -4 -3 -7
21 -8 52 -3 63 14 133 34 145 7 4 13 25 13 47 0 21 9 59 20 85 16 37 20 69 20
155 0 62 4 111 10 115 6 3 10 31 10 61 l0 54 -210 0 -210 0 0 -420z"/>
<path d="M423 645 c0 -38 2 -53 4 -32 2 20 2 52 0 70 -2 17 -4 1 -4 -38z"/>
<path d="M421 476 c-1 -26 2 -37 9 -30 6 6 6 21 1 39 -9 30 -9 30 -10 -9z"/>
<path d="M405 359 c-5 -8 -4 -10 3 -5 9 5 12 -39 12 -173 l0 -181 55 0 56 0
-16 30 c-11 22 -14 53 -11 127 5 120 -1 163 -22 163 -9 0 -28 12 -43 26 -20
19 -29 22 -34 13z m92 -245 c-9 -9 -28 6 -21 18 4 6 10 6 17 -1 6 -6 8 -13 4
-17z"/>
</g>
</svg>
