<?xml version="1.0" standalone="no"?>
<!DOCTYPE svg PUBLIC "-//W3C//DTD SVG 20010904//EN"
 "http://www.w3.org/TR/2001/REC-SVG-20010904/DTD/svg10.dtd">
<svg version="1.0" xmlns="http://www.w3.org/2000/svg"
 width="96.000000pt" height="84.000000pt" viewBox="0 0 96.000000 84.000000"
 preserveAspectRatio="xMidYMid meet">
<metadata>
Created by potrace 1.16, written by Peter Selinger 2001-2019
</metadata>
<g transform="translate(0.000000,84.000000) scale(0.100000,-0.100000)"
fill="#000000" stroke="none">
<path d="M0 420 l0 -421 158 3 157 3 3 49 c2 27 -2 54 -7 59 -14 14 -14 30 -1
22 6 -3 10 1 10 9 0 9 -4 16 -8 16 -13 0 -8 140 6 149 6 4 15 36 19 72 3 35
14 83 25 107 14 34 18 69 18 153 0 88 3 111 15 115 10 4 15 20 15 45 l0 39
-205 0 -205 0 0 -420z"/>
<path d="M400 495 c0 -8 5 -15 10 -15 6 0 10 7 10 15 0 8 -4 15 -10 15 -5 0
-10 -7 -10 -15z"/>
<path d="M394 384 c3 -9 6 -99 6 -200 l0 -184 55 0 c34 0 55 4 55 11 0 8 5 8
15 -1 12 -10 15 -10 15 3 0 9 -6 20 -12 24 -21 13 -38 51 -38 83 0 20 -5 30
-15 30 -8 0 -15 5 -15 11 0 6 7 9 15 5 12 -4 15 3 15 29 0 18 4 36 9 40 20 12
-5 115 -28 115 -10 0 -27 11 -39 25 -24 28 -47 34 -38 9z"/>
<path d="M330 15 c0 -8 4 -15 10 -15 5 0 7 7 4 15 -8 19 -14 19 -14 0z"/>
</g>
</svg>
