<?xml version="1.0" standalone="no"?>
<!DOCTYPE svg PUBLIC "-//W3C//DTD SVG 20010904//EN"
 "http://www.w3.org/TR/2001/REC-SVG-20010904/DTD/svg10.dtd">
<svg version="1.0" xmlns="http://www.w3.org/2000/svg"
 width="96.000000pt" height="84.000000pt" viewBox="0 0 96.000000 84.000000"
 preserveAspectRatio="xMidYMid meet">
<metadata>
Created by potrace 1.16, written by Peter Selinger 2001-2019
</metadata>
<g transform="translate(0.000000,84.000000) scale(0.100000,-0.100000)"
fill="#000000" stroke="none">
<path d="M0 420 l0 -420 145 0 c131 0 145 2 145 18 1 9 5 48 10 87 5 43 5 76
-1 87 -7 14 -6 16 6 12 10 -4 15 0 15 11 0 9 -4 13 -10 10 -6 -4 -8 5 -5 22 3
15 7 44 10 63 2 19 9 55 14 80 29 134 30 164 7 265 -24 108 -24 167 1 142 8
-8 20 -52 28 -98 l13 -84 1 113 1 112 -190 0 -190 0 0 -420z"/>
<path d="M380 275 l0 -275 67 0 c47 0 64 3 56 11 -5 5 -8 21 -5 35 3 19 7 22
18 13 11 -9 14 -7 14 10 0 11 -4 21 -9 21 -30 0 -45 169 -18 196 20 20 -6 114
-30 114 -29 0 -67 52 -69 95 -2 22 -3 43 -3 48 -1 4 -5 7 -11 7 -6 0 -10 -98
-10 -275z m100 -65 c0 -5 -4 -10 -10 -10 -5 0 -10 5 -10 10 0 6 5 10 10 10 6
0 10 -4 10 -10z"/>
<path d="M318 144 c-5 -4 -8 -38 -8 -76 0 -60 2 -68 19 -68 22 0 38 50 24 72
-4 7 -12 28 -18 46 -5 19 -13 30 -17 26z"/>
</g>
</svg>
