<?xml version="1.0" standalone="no"?>
<!DOCTYPE svg PUBLIC "-//W3C//DTD SVG 20010904//EN"
 "http://www.w3.org/TR/2001/REC-SVG-20010904/DTD/svg10.dtd">
<svg version="1.0" xmlns="http://www.w3.org/2000/svg"
 width="96.000000pt" height="84.000000pt" viewBox="0 0 96.000000 84.000000"
 preserveAspectRatio="xMidYMid meet">
<metadata>
Created by potrace 1.16, written by Peter Selinger 2001-2019
</metadata>
<g transform="translate(0.000000,84.000000) scale(0.100000,-0.100000)"
fill="#000000" stroke="none">
<path d="M0 420 l0 -420 160 0 c120 0 162 3 164 13 2 6 10 39 16 72 12 56 14
58 22 32 7 -18 6 -38 -1 -59 -21 -58 -21 -58 99 -57 61 0 110 4 110 8 0 4 -12
18 -26 32 -14 13 -30 32 -35 41 -12 22 -1 48 17 41 19 -7 18 6 -7 52 -17 33
-20 51 -15 104 3 36 9 67 13 70 11 8 15 92 4 105 -4 6 -11 23 -15 38 -3 15
-12 33 -19 40 -7 7 -35 55 -63 105 -27 51 -52 93 -56 93 -5 0 -8 -15 -8 -32
-1 -37 -12 -24 -24 26 -6 23 -4 27 8 23 13 -5 16 3 16 43 l0 50 -180 0 -180 0
0 -420z m418 139 c36 -64 38 -71 16 -62 -9 3 -21 -3 -30 -16 -8 -11 -22 -21
-30 -21 -11 0 -14 -15 -14 -62 0 -43 -5 -67 -16 -80 -14 -15 -15 -20 -3 -34
12 -15 14 -14 21 3 6 12 6 9 3 -11 -4 -16 -17 -43 -31 -61 -14 -18 -29 -58
-36 -91 -14 -77 -17 -88 -24 -81 -10 10 25 150 45 181 16 23 17 33 8 53 -8 17
-8 29 0 41 5 10 8 32 5 51 -3 21 0 36 9 41 9 6 14 44 17 125 5 128 2 127 60
24z m72 -289 c0 -5 -5 -10 -11 -10 -5 0 -7 5 -4 10 3 6 8 10 11 10 2 0 4 -4 4
-10z"/>
</g>
</svg>
