<?xml version="1.0" standalone="no"?>
<!DOCTYPE svg PUBLIC "-//W3C//DTD SVG 20010904//EN"
 "http://www.w3.org/TR/2001/REC-SVG-20010904/DTD/svg10.dtd">
<svg version="1.0" xmlns="http://www.w3.org/2000/svg"
 width="96.000000pt" height="84.000000pt" viewBox="0 0 96.000000 84.000000"
 preserveAspectRatio="xMidYMid meet">
<metadata>
Created by potrace 1.16, written by Peter Selinger 2001-2019
</metadata>
<g transform="translate(0.000000,84.000000) scale(0.100000,-0.100000)"
fill="#000000" stroke="none">
<path d="M0 420 l0 -420 266 0 266 0 -5 23 c-3 12 -9 36 -12 52 l-6 30 25 -28
c14 -15 29 -27 33 -27 5 0 20 -11 35 -25 59 -54 55 -10 -4 49 -51 51 -79 93
-72 110 3 9 10 13 15 10 20 -12 19 26 0 47 -12 13 -21 35 -21 51 0 22 8 32 40
50 22 13 40 29 40 36 0 6 6 11 12 10 23 -5 19 38 -7 85 -15 26 -28 47 -31 47
-2 0 -8 -8 -13 -18 -7 -13 -6 -27 5 -47 14 -27 14 -30 -8 -47 -33 -25 -37 -23
-33 21 2 27 -1 41 -11 45 -8 3 -14 19 -14 36 0 30 -1 31 -35 24 -22 -4 -41 -2
-50 6 -12 10 -18 7 -32 -19 -10 -17 -22 -29 -28 -28 -6 2 -11 72 -13 175 l-2
172 -170 0 -170 0 0 -420z m360 -50 c0 -10 5 -22 10 -25 17 -11 11 -50 -10
-63 -19 -12 -20 -10 -20 54 0 41 4 63 10 59 6 -3 10 -15 10 -25z m2 -130 c-15
-34 -18 -36 -22 -18 -5 21 -7 21 -26 -7 -12 -17 -26 -43 -32 -60 -7 -21 -11
-24 -11 -10 -1 31 44 110 62 110 9 0 22 6 29 13 18 18 18 16 0 -28z m29 -101
l-9 -34 -1 30 c0 17 2 41 6 55 7 23 8 24 11 4 2 -12 -1 -37 -7 -55z m-36 -31
c-8 -81 -11 -89 -30 -82 -18 7 -19 43 -4 99 10 34 13 37 20 20 7 -19 8 -19 8
3 1 12 3 22 6 22 4 0 3 -28 0 -62z"/>
</g>
</svg>
