<?xml version="1.0" standalone="no"?>
<!DOCTYPE svg PUBLIC "-//W3C//DTD SVG 20010904//EN"
 "http://www.w3.org/TR/2001/REC-SVG-20010904/DTD/svg10.dtd">
<svg version="1.0" xmlns="http://www.w3.org/2000/svg"
 width="96.000000pt" height="84.000000pt" viewBox="0 0 96.000000 84.000000"
 preserveAspectRatio="xMidYMid meet">
<metadata>
Created by potrace 1.16, written by Peter Selinger 2001-2019
</metadata>
<g transform="translate(0.000000,84.000000) scale(0.100000,-0.100000)"
fill="#000000" stroke="none">
<path d="M0 420 l0 -420 271 0 271 0 -6 33 c-3 17 -13 56 -22 85 -10 29 -14
56 -10 60 5 4 22 -10 39 -31 18 -20 36 -37 40 -37 11 0 53 -32 55 -42 1 -5 5
-7 10 -6 13 4 1 33 -24 55 -13 12 -24 25 -24 30 0 4 -13 21 -29 38 -30 31 -45
80 -24 80 22 0 26 15 7 29 -23 17 -20 20 31 32 38 9 40 11 41 49 1 22 -1 44
-3 48 -8 13 -42 -24 -36 -39 6 -17 -30 -19 -75 -3 -21 7 -29 15 -25 25 4 12 7
12 18 -2 11 -15 13 -15 28 7 23 33 21 64 -6 86 -12 10 -33 40 -45 66 -19 40
-25 47 -37 37 -8 -7 -30 -12 -50 -13 -28 -1 -37 -6 -41 -24 -4 -13 -11 -23
-16 -23 -6 0 -8 -12 -4 -30 3 -17 1 -30 -4 -30 -6 0 -10 70 -10 180 l0 180
-160 0 -160 0 0 -420z m540 30 c0 -10 -7 -23 -15 -30 -12 -10 -14 -5 -12 29 1
31 4 38 14 29 7 -6 13 -18 13 -28z m-204 5 c-4 -10 2 -19 18 -25 13 -4 26 -16
30 -26 10 -26 -4 -87 -27 -111 -11 -13 -18 -23 -14 -23 3 0 1 -14 -5 -32 -10
-28 -12 -29 -18 -12 -7 17 -9 17 -20 -8 -7 -16 -17 -28 -22 -28 -13 0 10 39
30 51 15 9 17 26 14 120 -2 78 0 109 8 109 7 0 9 -7 6 -15z m34 -223 c-10 -32
-21 -78 -24 -103 -3 -24 -10 -60 -15 -79 l-9 -35 -1 44 c-1 46 19 134 44 195
23 54 25 44 5 -22z m25 -22 c-9 -41 -17 -33 -9 9 4 17 9 30 11 27 3 -2 2 -19
-2 -36z m-79 -88 c-11 -10 -15 4 -8 28 l7 25 3 -23 c2 -13 1 -26 -2 -30z"/>
</g>
</svg>
