<?xml version="1.0" standalone="no"?>
<!DOCTYPE svg PUBLIC "-//W3C//DTD SVG 20010904//EN"
 "http://www.w3.org/TR/2001/REC-SVG-20010904/DTD/svg10.dtd">
<svg version="1.0" xmlns="http://www.w3.org/2000/svg"
 width="96.000000pt" height="84.000000pt" viewBox="0 0 96.000000 84.000000"
 preserveAspectRatio="xMidYMid meet">
<metadata>
Created by potrace 1.16, written by Peter Selinger 2001-2019
</metadata>
<g transform="translate(0.000000,84.000000) scale(0.100000,-0.100000)"
fill="#000000" stroke="none">
<path d="M0 420 l0 -420 144 0 144 0 8 33 8 32 3 -32 4 -33 114 0 c63 0 116 4
119 8 3 5 -7 37 -21 73 -39 94 -34 172 7 122 10 -13 21 -23 24 -23 12 0 46
-41 46 -55 0 -8 5 -15 10 -15 27 0 -6 72 -66 140 -28 32 -41 82 -19 74 20 -8
19 10 -1 27 -14 12 -13 14 12 21 16 4 36 5 46 2 9 -2 19 0 23 6 3 5 14 10 24
10 10 0 24 6 30 13 20 24 -26 38 -111 33 -61 -3 -78 -1 -82 11 -10 26 5 35 26
16 19 -17 20 -17 34 2 21 29 29 66 17 84 -6 9 -27 18 -48 21 -30 4 -41 12 -56
39 -27 51 -34 55 -62 36 -16 -10 -34 -14 -47 -10 -18 6 -20 14 -20 106 l0 99
-155 0 -155 0 0 -420z m310 108 c0 -65 -13 -55 -17 13 -2 31 1 48 7 44 6 -3
10 -29 10 -57z m225 13 c8 -14 -16 -61 -32 -61 -12 0 -33 38 -33 61 0 12 57
12 65 0z m-190 -81 c4 -6 8 -32 9 -58 2 -26 6 -54 10 -63 4 -9 -3 -30 -18 -51
-13 -20 -21 -40 -18 -44 4 -4 1 -4 -5 0 -20 11 -18 226 1 226 8 0 18 -5 21
-10z m25 -208 c0 -5 -7 -17 -16 -28 -8 -10 -14 -14 -11 -9 2 6 7 18 10 28 7
17 17 23 17 9z m121 -39 c-10 -17 -10 -16 -11 3 0 23 13 41 18 25 2 -6 -1 -18
-7 -28z m-176 6 c11 -16 1 -19 -13 -3 -7 8 -8 14 -3 14 5 0 13 -5 16 -11z m2
-86 c-3 -10 -5 -4 -5 12 0 17 2 24 5 18 2 -7 2 -21 0 -30z"/>
</g>
</svg>
