<?xml version="1.0" standalone="no"?>
<!DOCTYPE svg PUBLIC "-//W3C//DTD SVG 20010904//EN"
 "http://www.w3.org/TR/2001/REC-SVG-20010904/DTD/svg10.dtd">
<svg version="1.0" xmlns="http://www.w3.org/2000/svg"
 width="96.000000pt" height="84.000000pt" viewBox="0 0 96.000000 84.000000"
 preserveAspectRatio="xMidYMid meet">
<metadata>
Created by potrace 1.16, written by Peter Selinger 2001-2019
</metadata>
<g transform="translate(0.000000,84.000000) scale(0.100000,-0.100000)"
fill="#000000" stroke="none">
<path d="M550 765 c-7 -8 -10 -25 -6 -38 4 -18 -1 -30 -20 -48 -37 -34 -54
-72 -54 -118 0 -37 19 -71 41 -71 5 0 9 -10 9 -23 0 -12 7 -32 15 -44 8 -11
18 -51 21 -88 6 -62 5 -67 -15 -72 -11 -3 -21 -13 -21 -22 0 -9 -7 -26 -15
-38 l-15 -21 -52 21 c-29 12 -55 23 -57 24 -2 2 -7 20 -10 40 -5 32 -10 38
-34 41 -43 5 -77 -22 -77 -62 0 -40 33 -86 62 -86 20 0 21 -4 15 -80 l-6 -80
230 0 c216 0 231 1 224 18 -13 34 -17 72 -8 72 5 0 18 7 29 16 18 15 17 15
-13 10 -34 -6 -32 -10 -49 88 -4 25 -3 37 3 33 7 -4 9 9 6 37 -5 42 -4 43 20
41 l25 -3 -4 106 c-5 126 -29 242 -59 286 -16 24 -30 32 -63 37 -22 3 -50 13
-60 22 -23 21 -46 22 -62 2z m56 -402 c-10 -10 -19 5 -10 18 6 11 8 11 12 0 2
-7 1 -15 -2 -18z"/>
</g>
</svg>
