<?xml version="1.0" standalone="no"?>
<!DOCTYPE svg PUBLIC "-//W3C//DTD SVG 20010904//EN"
 "http://www.w3.org/TR/2001/REC-SVG-20010904/DTD/svg10.dtd">
<svg version="1.0" xmlns="http://www.w3.org/2000/svg"
 width="96.000000pt" height="84.000000pt" viewBox="0 0 96.000000 84.000000"
 preserveAspectRatio="xMidYMid meet">
<metadata>
Created by potrace 1.16, written by Peter Selinger 2001-2019
</metadata>
<g transform="translate(0.000000,84.000000) scale(0.100000,-0.100000)"
fill="#000000" stroke="none">
<path d="M0 420 l0 -420 136 0 136 0 -6 24 c-6 24 18 136 35 166 5 9 9 -25 9
-87 l0 -103 74 0 c59 0 78 4 100 21 30 24 32 38 10 80 -14 29 -14 34 7 85 21
50 25 54 36 38 7 -10 13 -26 13 -36 0 -10 5 -18 10 -18 17 0 11 51 -11 86 -11
19 -24 34 -29 34 -5 0 -12 9 -15 20 -4 11 -11 18 -16 15 -5 -4 -4 6 3 20 8 19
9 28 1 33 -6 4 -13 16 -15 27 -3 21 -4 20 84 30 33 4 65 14 78 25 l22 19 -27
7 c-15 4 -65 4 -111 0 -82 -7 -84 -7 -84 15 0 18 3 20 12 11 24 -24 47 -13 58
29 13 49 0 72 -39 67 -32 -3 -51 8 -51 30 0 33 -14 42 -49 32 -55 -16 -61 -7
-61 86 l0 84 -155 0 -155 0 0 -420z m310 170 c0 -60 -2 -70 -17 -70 -15 0 -18
10 -20 55 -1 31 2 53 7 50 5 -3 11 4 15 15 11 35 15 22 15 -50z m186 -5 c9
-23 -5 -65 -21 -65 -16 0 -20 5 -29 42 -5 20 -2 28 11 31 31 8 33 7 39 -8z
m-175 -141 c-1 -25 5 -65 14 -89 16 -41 16 -45 -3 -86 l-20 -44 -1 139 c-1 77
2 136 6 132 4 -3 6 -27 4 -52z m189 -206 c0 -13 -29 -68 -37 -68 -3 0 -3 17 0
38 4 22 3 32 -2 23 -7 -11 -10 -9 -16 8 -10 32 3 43 31 25 13 -9 24 -21 24
-26z"/>
</g>
</svg>
