<?xml version="1.0" standalone="no"?>
<!DOCTYPE svg PUBLIC "-//W3C//DTD SVG 20010904//EN"
 "http://www.w3.org/TR/2001/REC-SVG-20010904/DTD/svg10.dtd">
<svg version="1.0" xmlns="http://www.w3.org/2000/svg"
 width="96.000000pt" height="84.000000pt" viewBox="0 0 96.000000 84.000000"
 preserveAspectRatio="xMidYMid meet">
<metadata>
Created by potrace 1.16, written by Peter Selinger 2001-2019
</metadata>
<g transform="translate(0.000000,84.000000) scale(0.100000,-0.100000)"
fill="#000000" stroke="none">
<path d="M0 665 l0 -175 79 0 c84 0 115 6 105 21 -3 6 18 7 51 3 57 -7 57 -7
45 16 -6 12 -10 33 -7 46 2 13 0 24 -4 24 -5 0 -9 5 -9 10 0 6 7 10 15 10 9 0
18 12 22 30 3 17 10 33 14 36 5 3 9 39 9 80 l0 74 -160 0 -160 0 0 -175z"/>
<path d="M320 367 c0 -280 2 -326 15 -331 8 -3 15 -12 15 -21 0 -11 11 -15 39
-15 l39 0 -10 41 c-10 37 -9 42 16 67 l26 28 -34 52 c-32 48 -34 54 -23 89
l11 38 4 -32 c4 -37 21 -44 29 -13 6 23 19 26 27 8 3 -7 3 -3 0 10 -3 12 -3
22 0 22 13 0 36 -62 36 -95 0 -19 5 -35 11 -35 18 0 2 80 -22 114 -18 23 -19
32 -10 53 18 39 13 51 -41 105 -28 29 -46 54 -39 56 20 7 39 55 38 99 0 29 -4
40 -12 37 -7 -3 -15 3 -17 14 -4 14 -15 19 -42 20 -20 1 -41 4 -46 7 -6 4 -10
-116 -10 -318z m64 -63 l-8 -39 -7 35 c-10 42 -3 68 12 53 6 -6 7 -25 3 -49z"/>
<path d="M0 216 l0 -216 110 0 c81 0 110 3 111 13 0 6 4 34 8 61 5 28 4 65 -2
87 -7 30 -6 54 6 97 9 31 19 81 22 109 7 51 6 53 -17 54 -12 0 -71 3 -130 5
l-108 5 0 -215z"/>
<path d="M475 222 c-4 -24 -5 -46 -2 -49 8 -7 20 63 14 79 -2 7 -7 -6 -12 -30z"/>
<path d="M296 24 c-9 -22 -8 -24 9 -24 8 0 15 6 15 14 0 22 -17 28 -24 10z"/>
</g>
</svg>
