<?xml version="1.0" standalone="no"?>
<!DOCTYPE svg PUBLIC "-//W3C//DTD SVG 20010904//EN"
 "http://www.w3.org/TR/2001/REC-SVG-20010904/DTD/svg10.dtd">
<svg version="1.0" xmlns="http://www.w3.org/2000/svg"
 width="96.000000pt" height="84.000000pt" viewBox="0 0 96.000000 84.000000"
 preserveAspectRatio="xMidYMid meet">
<metadata>
Created by potrace 1.16, written by Peter Selinger 2001-2019
</metadata>
<g transform="translate(0.000000,84.000000) scale(0.100000,-0.100000)"
fill="#000000" stroke="none">
<path d="M0 674 l0 -166 23 6 c12 4 35 9 50 13 l28 6 -43 45 -43 46 57 -47
c44 -37 64 -47 92 -47 23 0 35 4 33 12 -1 6 6 14 16 16 10 2 17 -2 17 -12 0
-13 36 -33 45 -24 2 1 5 26 7 53 3 36 12 63 33 93 17 23 33 42 38 42 4 0 7
-72 7 -161 0 -96 4 -158 9 -154 5 3 13 0 16 -6 4 -5 13 -8 20 -5 24 9 37 -20
30 -68 -6 -39 -5 -46 9 -46 9 0 16 8 16 20 0 11 4 20 9 20 13 0 51 -50 51 -66
0 -8 5 -14 10 -14 14 0 13 6 -6 43 l-17 32 25 -23 c13 -12 28 -19 31 -15 4 4
-5 17 -20 28 -25 20 -27 28 -29 101 -2 78 -7 102 -25 136 -5 10 -9 24 -9 32 0
8 -5 16 -12 18 -6 2 -12 13 -13 24 -1 10 -5 36 -10 56 -6 34 -10 37 -31 32
-40 -10 -54 11 -54 82 l0 64 -180 0 -180 0 0 -166z m446 -159 c9 -14 14 -28
11 -31 -10 -10 -47 21 -47 38 0 26 17 22 36 -7z m44 -175 c0 -5 -4 -10 -9 -10
-6 0 -13 5 -16 10 -3 6 1 10 9 10 9 0 16 -4 16 -10z"/>
<path d="M70 461 c0 -5 -16 -12 -35 -15 l-35 -7 0 -219 0 -220 120 0 c116 0
120 1 120 22 0 12 -7 29 -16 39 -21 23 -21 114 -1 194 8 33 18 88 22 123 5 50
3 62 -8 62 -8 0 -20 7 -27 15 -14 17 -140 22 -140 6z"/>
<path d="M360 168 c0 -81 -4 -118 -10 -108 -11 18 -25 6 -34 -32 -6 -25 -3
-28 18 -28 13 0 27 6 29 13 4 9 6 9 6 0 1 -15 71 -18 71 -4 0 5 -7 27 -15 50
-14 41 -14 43 12 65 l26 22 -27 21 c-14 12 -26 26 -26 32 0 14 -38 91 -45 91
-3 0 -5 -55 -5 -122z"/>
</g>
</svg>
