<?xml version="1.0" standalone="no"?>
<!DOCTYPE svg PUBLIC "-//W3C//DTD SVG 20010904//EN"
 "http://www.w3.org/TR/2001/REC-SVG-20010904/DTD/svg10.dtd">
<svg version="1.0" xmlns="http://www.w3.org/2000/svg"
 width="96.000000pt" height="84.000000pt" viewBox="0 0 96.000000 84.000000"
 preserveAspectRatio="xMidYMid meet">
<metadata>
Created by potrace 1.16, written by Peter Selinger 2001-2019
</metadata>
<g transform="translate(0.000000,84.000000) scale(0.100000,-0.100000)"
fill="#000000" stroke="none">
<path d="M0 665 l0 -175 33 0 c18 0 38 5 45 12 7 7 52 14 113 16 69 3 99 8 96
16 -8 21 22 64 52 74 16 6 36 24 45 39 8 16 22 35 30 42 14 12 16 -4 17 -160
0 -130 3 -168 11 -152 9 19 13 20 32 10 32 -18 36 -27 36 -84 0 -40 4 -53 15
-53 8 0 15 7 15 15 0 15 20 22 20 8 1 -14 40 -56 47 -49 4 3 -4 17 -17 31 -26
28 -24 30 14 15 17 -6 26 -6 26 0 0 6 -4 10 -8 10 -19 0 -29 68 -20 126 9 57
7 67 -23 126 -5 10 -9 25 -9 33 0 8 -7 15 -16 15 -11 0 -14 5 -10 16 4 9 2 22
-3 28 -5 6 -11 25 -13 41 -2 23 -8 29 -21 27 -10 -2 -31 3 -48 10 -28 12 -29
16 -29 75 l0 63 -215 0 -215 0 0 -175z m531 -146 c11 -11 18 -26 16 -32 -4
-14 -57 -22 -57 -9 0 5 -10 13 -22 17 l-23 8 23 4 c12 2 22 11 22 19 0 20 17
17 41 -7z m34 -190 c8 -23 1 -34 -14 -24 -13 8 -15 45 -2 45 5 0 13 -9 16 -21z"/>
<path d="M325 586 c-17 -12 -18 -17 -7 -41 7 -14 18 -25 24 -23 22 8 30 78 9
78 -4 0 -16 -6 -26 -14z"/>
<path d="M204 456 c-4 -11 -26 -13 -105 -9 l-99 5 0 -226 0 -226 160 0 160 0
0 25 c0 17 -9 29 -30 40 -16 8 -38 27 -47 42 -17 25 -16 26 11 50 33 28 61
110 71 213 5 51 4 70 -5 70 -6 0 -18 7 -26 15 -19 19 -83 20 -90 1z"/>
<path d="M430 185 c0 -104 -2 -125 -15 -125 -10 0 -15 -10 -15 -30 0 -32 30
-45 30 -12 1 16 1 16 14 0 8 -11 27 -18 49 -18 l36 0 -14 41 c-10 28 -12 46
-5 54 13 16 -56 215 -75 215 -3 0 -5 -56 -5 -125z"/>
</g>
</svg>
