<?xml version="1.0" standalone="no"?>
<!DOCTYPE svg PUBLIC "-//W3C//DTD SVG 20010904//EN"
 "http://www.w3.org/TR/2001/REC-SVG-20010904/DTD/svg10.dtd">
<svg version="1.0" xmlns="http://www.w3.org/2000/svg"
 width="96.000000pt" height="84.000000pt" viewBox="0 0 96.000000 84.000000"
 preserveAspectRatio="xMidYMid meet">
<metadata>
Created by potrace 1.16, written by Peter Selinger 2001-2019
</metadata>
<g transform="translate(0.000000,84.000000) scale(0.100000,-0.100000)"
fill="#000000" stroke="none">
<path d="M0 671 l0 -168 85 -7 c66 -5 97 -2 136 10 35 12 70 15 114 12 69 -6
81 -2 64 19 -9 9 -8 13 0 13 6 0 11 15 11 34 0 37 12 46 61 46 18 0 29 5 29
13 0 8 9 22 20 32 20 18 20 17 20 -295 0 -364 3 -380 62 -380 42 0 43 2 27 49
-9 24 -9 35 0 44 15 15 14 43 -2 75 -45 90 -67 139 -68 157 -9 93 34 56 48
-42 6 -47 19 -64 29 -38 5 13 12 8 31 -20 13 -19 29 -35 35 -35 9 0 9 3 0 12
-18 18 -15 27 8 21 32 -8 23 7 -10 18 -16 6 -30 15 -30 21 0 5 4 7 9 3 18 -11
23 16 7 40 -22 34 -20 45 8 45 15 0 27 7 30 18 13 45 16 102 8 118 -5 11 -18
36 -28 56 -10 20 -21 35 -24 33 -3 -2 -12 0 -20 6 -12 7 -12 9 -1 9 10 0 11 4
3 13 -6 6 -12 28 -14 47 -2 29 -8 36 -28 38 -14 2 -31 8 -37 14 -7 6 -20 8
-28 4 -12 -4 -15 6 -15 64 l0 70 -270 0 -270 0 0 -169z m658 -151 c27 -34 22
-50 -16 -50 -31 0 -89 39 -60 40 10 0 22 9 28 20 14 26 20 25 48 -10z"/>
<path d="M430 588 c0 -36 15 -54 33 -40 21 18 14 56 -11 60 -17 3 -22 -2 -22
-20z"/>
<path d="M460 519 c0 -5 5 -7 10 -4 6 3 10 8 10 11 0 2 -4 4 -10 4 -5 0 -10
-5 -10 -11z"/>
<path d="M280 460 c0 -18 30 -70 40 -70 13 0 50 61 44 72 -8 12 -84 10 -84 -2z"/>
<path d="M376 442 c-10 -29 -51 -63 -69 -57 -8 4 -20 19 -27 34 l-11 28 -135
2 -134 2 0 -226 0 -225 220 0 220 0 0 25 c0 17 -9 29 -30 40 -33 17 -37 32
-15 61 8 10 15 35 15 55 0 19 6 58 14 85 16 56 26 164 16 164 -11 0 -26 -22
-38 -55 -6 -16 -11 -23 -11 -15 -1 8 6 28 14 43 15 30 11 57 -10 57 -8 0 -16
-8 -19 -18z"/>
<path d="M520 25 c0 -14 5 -25 10 -25 6 0 10 11 10 25 0 14 -4 25 -10 25 -5 0
-10 -11 -10 -25z"/>
</g>
</svg>
