<?xml version="1.0" standalone="no"?>
<!DOCTYPE svg PUBLIC "-//W3C//DTD SVG 20010904//EN"
 "http://www.w3.org/TR/2001/REC-SVG-20010904/DTD/svg10.dtd">
<svg version="1.0" xmlns="http://www.w3.org/2000/svg"
 width="96.000000pt" height="84.000000pt" viewBox="0 0 96.000000 84.000000"
 preserveAspectRatio="xMidYMid meet">
<metadata>
Created by potrace 1.16, written by Peter Selinger 2001-2019
</metadata>
<g transform="translate(0.000000,84.000000) scale(0.100000,-0.100000)"
fill="#000000" stroke="none">
<path d="M0 420 l0 -420 300 0 300 0 0 23 c0 13 -9 32 -20 42 -18 16 -20 27
-15 79 4 34 11 84 18 111 6 28 10 54 9 59 -2 5 2 31 8 59 9 43 8 51 -7 62 -23
17 -33 10 -33 -21 0 -48 -84 -107 -105 -74 -4 6 6 10 22 10 34 0 46 8 62 37
19 36 14 70 -11 77 -37 10 -76 7 -80 -6 -3 -9 -41 -12 -134 -11 -164 1 -199
10 -159 43 11 9 36 10 100 3 64 -7 90 -6 107 4 14 7 61 12 116 13 89 0 93 1
87 20 -4 14 -2 20 9 20 10 0 16 12 18 38 3 34 6 37 36 40 18 2 32 9 32 16 0 8
7 19 15 26 11 9 15 33 15 91 l0 79 -345 0 -345 0 0 -420z"/>
<path d="M720 697 l-25 -13 -5 -339 c-3 -187 -4 -342 -2 -344 1 -2 2 5 2 17 0
31 17 36 24 7 6 -22 12 -25 50 -25 l44 0 -14 47 c-14 46 -9 62 19 63 14 0 7
27 -13 53 -12 14 -22 42 -24 61 -2 34 -1 35 15 20 10 -9 21 -29 24 -44 6 -29
30 -46 40 -30 3 5 -2 21 -11 35 -13 19 -15 38 -11 76 8 61 12 69 42 69 25 0
27 5 50 101 4 17 1 30 -9 38 -9 8 -16 19 -16 25 -1 19 -35 57 -54 60 -13 2
-19 13 -22 40 -5 60 -13 76 -38 76 -12 0 -26 4 -32 10 -6 6 -18 5 -34 -3z
m100 -150 c0 -8 9 -22 20 -32 11 -10 20 -23 20 -29 0 -17 -58 -19 -91 -4 -29
13 -39 28 -18 28 6 0 20 11 31 25 21 27 38 32 38 12z m-34 -167 c12 0 27 -7
34 -15 15 -18 4 -75 -15 -75 -16 0 -75 66 -75 84 0 19 12 28 24 16 5 -5 20
-10 32 -10z"/>
<path d="M605 600 c-10 -15 4 -65 15 -54 13 14 16 57 3 61 -6 2 -14 -1 -18 -7z"/>
</g>
</svg>
