<?xml version="1.0" standalone="no"?>
<!DOCTYPE svg PUBLIC "-//W3C//DTD SVG 20010904//EN"
 "http://www.w3.org/TR/2001/REC-SVG-20010904/DTD/svg10.dtd">
<svg version="1.0" xmlns="http://www.w3.org/2000/svg"
 width="96.000000pt" height="84.000000pt" viewBox="0 0 96.000000 84.000000"
 preserveAspectRatio="xMidYMid meet">
<metadata>
Created by potrace 1.16, written by Peter Selinger 2001-2019
</metadata>
<g transform="translate(0.000000,84.000000) scale(0.100000,-0.100000)"
fill="#000000" stroke="none">
<path d="M0 420 l0 -420 404 0 403 0 -4 23 c-3 13 -18 32 -35 41 -34 21 -34
24 2 146 34 116 43 167 36 194 -8 32 -26 34 -26 4 -1 -43 -61 -151 -75 -136
-4 4 4 21 19 38 30 37 39 64 34 111 -3 31 -6 34 -47 42 -36 7 -46 6 -53 -7 -8
-13 -31 -16 -144 -16 -125 0 -174 8 -174 29 0 21 50 29 130 20 67 -6 87 -5
104 7 14 10 48 14 109 14 77 0 88 2 83 16 -4 11 1 18 14 21 11 3 18 9 15 13
-10 17 15 60 34 60 11 0 23 9 26 20 19 59 25 -18 26 -318 1 -180 4 -317 6
-304 5 27 23 29 30 2 3 -11 14 -20 24 -20 18 0 19 9 19 128 0 97 -4 133 -15
148 -19 25 -19 85 0 110 18 24 20 100 3 107 -10 4 -10 6 0 6 9 1 12 28 12 102
0 110 0 110 -62 84 -16 -6 -18 1 -18 74 l0 81 -440 0 -440 0 0 -420z"/>
<path d="M817 593 c-11 -10 -8 -43 3 -43 6 0 10 11 10 25 0 26 -2 29 -13 18z"/>
</g>
</svg>
