<?xml version="1.0" standalone="no"?>
<!DOCTYPE svg PUBLIC "-//W3C//DTD SVG 20010904//EN"
 "http://www.w3.org/TR/2001/REC-SVG-20010904/DTD/svg10.dtd">
<svg version="1.0" xmlns="http://www.w3.org/2000/svg"
 width="96.000000pt" height="84.000000pt" viewBox="0 0 96.000000 84.000000"
 preserveAspectRatio="xMidYMid meet">
<metadata>
Created by potrace 1.16, written by Peter Selinger 2001-2019
</metadata>
<g transform="translate(0.000000,84.000000) scale(0.100000,-0.100000)"
fill="#000000" stroke="none">
<path d="M0 420 l0 -420 480 0 480 0 0 32 c0 18 -9 41 -19 52 -19 21 -19 22
-1 61 11 22 19 60 19 85 0 25 -3 39 -6 33 -2 -7 -9 -13 -14 -13 -5 0 -2 16 6
36 21 50 20 160 -1 168 -25 10 -84 7 -84 -4 0 -13 -279 -13 -299 -1 -8 5 -11
16 -7 26 6 16 17 17 102 12 71 -4 101 -2 122 9 16 8 57 14 105 14 l77 0 0 165
0 165 -480 0 -480 0 0 -420z"/>
</g>
</svg>
