<?xml version="1.0" standalone="no"?>
<!DOCTYPE svg PUBLIC "-//W3C//DTD SVG 20010904//EN"
 "http://www.w3.org/TR/2001/REC-SVG-20010904/DTD/svg10.dtd">
<svg version="1.0" xmlns="http://www.w3.org/2000/svg"
 width="96.000000pt" height="84.000000pt" viewBox="0 0 96.000000 84.000000"
 preserveAspectRatio="xMidYMid meet">
<metadata>
Created by potrace 1.16, written by Peter Selinger 2001-2019
</metadata>
<g transform="translate(0.000000,84.000000) scale(0.100000,-0.100000)"
fill="#000000" stroke="none">
<path d="M556 775 c-10 -10 -13 -26 -10 -44 5 -22 2 -32 -14 -40 -67 -36 -89
-178 -30 -197 14 -4 18 -12 15 -26 -4 -12 2 -28 12 -40 19 -20 31 -68 31 -126
0 -25 -5 -35 -24 -42 -16 -6 -23 -15 -20 -27 2 -10 -2 -26 -10 -36 -13 -17
-16 -17 -62 5 -57 27 -64 34 -64 69 0 52 -54 66 -95 25 -20 -20 -24 -31 -19
-58 6 -34 45 -78 69 -78 9 0 12 -11 9 -40 -2 -22 -6 -58 -8 -80 l-4 -40 230 0
c206 0 230 2 224 16 -19 49 -18 65 2 71 11 3 23 11 26 19 6 16 -8 18 -34 4
-22 -12 -26 -3 -35 85 -5 46 -4 57 5 45 9 -12 10 -6 6 28 -4 29 -3 41 4 37 5
-3 10 2 11 12 0 16 1 16 9 -2 8 -18 9 -18 9 -2 1 10 4 16 9 14 4 -3 4 47 0
111 -6 109 -29 218 -57 270 -15 28 -47 45 -70 37 -12 -3 -30 4 -49 20 -35 29
-45 31 -66 10z m51 -407 c-3 -8 -6 -5 -6 6 -1 11 2 17 5 13 3 -3 4 -12 1 -19z"/>
</g>
</svg>
