<?xml version="1.0" standalone="no"?>
<!DOCTYPE svg PUBLIC "-//W3C//DTD SVG 20010904//EN"
 "http://www.w3.org/TR/2001/REC-SVG-20010904/DTD/svg10.dtd">
<svg version="1.0" xmlns="http://www.w3.org/2000/svg"
 width="96.000000pt" height="84.000000pt" viewBox="0 0 96.000000 84.000000"
 preserveAspectRatio="xMidYMid meet">
<metadata>
Created by potrace 1.16, written by Peter Selinger 2001-2019
</metadata>
<g transform="translate(0.000000,84.000000) scale(0.100000,-0.100000)"
fill="#000000" stroke="none">
<path d="M0 420 l0 -420 421 0 c231 0 419 3 417 8 -1 4 -50 65 -108 136 -58
70 -111 140 -119 153 -7 14 -16 61 -18 104 l-6 79 27 0 c15 0 50 -10 78 -22
47 -20 56 -31 150 -172 55 -83 104 -155 109 -160 5 -6 9 145 9 352 l0 362
-480 0 -480 0 0 -420z"/>
</g>
</svg>
