<?xml version="1.0" standalone="no"?>
<!DOCTYPE svg PUBLIC "-//W3C//DTD SVG 20010904//EN"
 "http://www.w3.org/TR/2001/REC-SVG-20010904/DTD/svg10.dtd">
<svg version="1.0" xmlns="http://www.w3.org/2000/svg"
 width="96.000000pt" height="84.000000pt" viewBox="0 0 96.000000 84.000000"
 preserveAspectRatio="xMidYMid meet">
<metadata>
Created by potrace 1.16, written by Peter Selinger 2001-2019
</metadata>
<g transform="translate(0.000000,84.000000) scale(0.100000,-0.100000)"
fill="#000000" stroke="none">
<path d="M0 420 l0 -420 366 0 c341 0 366 1 360 17 -4 9 -40 76 -80 148 -97
172 -108 203 -104 295 3 67 5 75 23 78 11 2 48 -15 82 -37 68 -44 78 -59 148
-226 105 -251 117 -275 142 -275 l23 0 0 420 0 420 -480 0 -480 0 0 -420z"/>
</g>
</svg>
