<?xml version="1.0" standalone="no"?>
<!DOCTYPE svg PUBLIC "-//W3C//DTD SVG 20010904//EN"
 "http://www.w3.org/TR/2001/REC-SVG-20010904/DTD/svg10.dtd">
<svg version="1.0" xmlns="http://www.w3.org/2000/svg"
 width="96.000000pt" height="84.000000pt" viewBox="0 0 96.000000 84.000000"
 preserveAspectRatio="xMidYMid meet">
<metadata>
Created by potrace 1.16, written by Peter Selinger 2001-2019
</metadata>
<g transform="translate(0.000000,84.000000) scale(0.100000,-0.100000)"
fill="#000000" stroke="none">
<path d="M0 420 l0 -420 320 0 c176 0 320 2 320 3 0 6 -86 257 -103 302 -43
111 -58 268 -29 297 17 17 76 -17 124 -73 55 -65 86 -138 98 -234 5 -38 25
-119 44 -180 l34 -110 76 -3 76 -3 0 421 0 420 -480 0 -480 0 0 -420z"/>
</g>
</svg>
