<?xml version="1.0" standalone="no"?>
<!DOCTYPE svg PUBLIC "-//W3C//DTD SVG 20010904//EN"
 "http://www.w3.org/TR/2001/REC-SVG-20010904/DTD/svg10.dtd">
<svg version="1.0" xmlns="http://www.w3.org/2000/svg"
 width="96.000000pt" height="84.000000pt" viewBox="0 0 96.000000 84.000000"
 preserveAspectRatio="xMidYMid meet">
<metadata>
Created by potrace 1.16, written by Peter Selinger 2001-2019
</metadata>
<g transform="translate(0.000000,84.000000) scale(0.100000,-0.100000)"
fill="#000000" stroke="none">
<path d="M0 420 l0 -420 228 0 227 0 -2 172 c-2 95 -8 203 -14 239 -9 51 -9
74 1 103 11 34 10 39 -15 72 -24 31 -25 38 -15 68 6 18 13 43 15 56 6 31 13
36 33 22 9 -7 26 -16 38 -21 13 -6 37 -46 67 -114 53 -118 63 -189 35 -244
-14 -28 -14 -47 -3 -190 8 -87 14 -159 14 -160 1 -2 80 -3 176 -3 l175 0 0
420 0 420 -480 0 -480 0 0 -420z"/>
</g>
</svg>
