<?xml version="1.0" standalone="no"?>
<!DOCTYPE svg PUBLIC "-//W3C//DTD SVG 20010904//EN"
 "http://www.w3.org/TR/2001/REC-SVG-20010904/DTD/svg10.dtd">
<svg version="1.0" xmlns="http://www.w3.org/2000/svg"
 width="96.000000pt" height="84.000000pt" viewBox="0 0 96.000000 84.000000"
 preserveAspectRatio="xMidYMid meet">
<metadata>
Created by potrace 1.16, written by Peter Selinger 2001-2019
</metadata>
<g transform="translate(0.000000,84.000000) scale(0.100000,-0.100000)"
fill="#000000" stroke="none">
<path d="M0 420 l0 -420 204 0 203 0 1 92 c1 51 6 132 11 180 5 47 7 108 4
135 -10 78 -7 131 10 156 13 20 13 25 -2 43 -9 11 -24 23 -33 27 -22 8 -22 19
-3 75 9 24 12 48 9 54 -4 7 -2 8 4 4 7 -4 12 -2 12 5 0 7 10 3 23 -9 13 -12
28 -22 35 -22 15 0 31 -30 58 -105 12 -33 29 -78 37 -100 9 -22 16 -56 17 -76
0 -37 -22 -103 -38 -113 -9 -5 -5 -279 4 -323 4 -23 5 -23 204 -23 l200 0 0
420 0 420 -480 0 -480 0 0 -420z"/>
</g>
</svg>
