<?xml version="1.0" standalone="no"?>
<!DOCTYPE svg PUBLIC "-//W3C//DTD SVG 20010904//EN"
 "http://www.w3.org/TR/2001/REC-SVG-20010904/DTD/svg10.dtd">
<svg version="1.0" xmlns="http://www.w3.org/2000/svg"
 width="96.000000pt" height="84.000000pt" viewBox="0 0 96.000000 84.000000"
 preserveAspectRatio="xMidYMid meet">
<metadata>
Created by potrace 1.16, written by Peter Selinger 2001-2019
</metadata>
<g transform="translate(0.000000,84.000000) scale(0.100000,-0.100000)"
fill="#000000" stroke="none">
<path d="M563 793 c-8 -2 -13 -22 -13 -45 0 -31 -6 -45 -25 -60 -65 -51 -80
-176 -23 -194 14 -4 18 -12 15 -26 -4 -12 2 -28 12 -40 21 -22 41 -126 29
-157 -4 -13 -13 -19 -23 -15 -8 3 -15 2 -16 -2 -7 -79 -16 -84 -76 -47 -40 25
-49 36 -56 71 -4 23 -14 43 -20 44 -7 0 -19 2 -27 3 -8 0 -27 -7 -42 -18 -21
-14 -28 -27 -28 -51 0 -36 30 -81 59 -91 18 -5 19 -14 14 -85 l-5 -80 225 0
225 0 -5 39 c-5 33 -2 40 16 46 11 3 21 13 21 21 0 13 -4 13 -29 -1 l-29 -15
-6 38 c-9 62 -16 138 -10 120 10 -32 20 -19 16 18 -3 25 -1 35 7 30 7 -5 9 3
5 26 l-5 33 15 -30 c12 -23 14 -25 10 -6 -5 17 -3 21 7 16 20 -13 4 192 -22
284 -31 105 -50 131 -98 131 -27 0 -44 7 -61 25 -23 25 -33 28 -57 18z m44
-425 c-3 -8 -6 -5 -6 6 -1 11 2 17 5 13 3 -3 4 -12 1 -19z"/>
</g>
</svg>
