<?xml version="1.0" standalone="no"?>
<!DOCTYPE svg PUBLIC "-//W3C//DTD SVG 20010904//EN"
 "http://www.w3.org/TR/2001/REC-SVG-20010904/DTD/svg10.dtd">
<svg version="1.0" xmlns="http://www.w3.org/2000/svg"
 width="96.000000pt" height="84.000000pt" viewBox="0 0 96.000000 84.000000"
 preserveAspectRatio="xMidYMid meet">
<metadata>
Created by potrace 1.16, written by Peter Selinger 2001-2019
</metadata>
<g transform="translate(0.000000,84.000000) scale(0.100000,-0.100000)"
fill="#000000" stroke="none">
<path d="M0 420 l0 -420 203 0 203 0 1 93 c1 50 6 131 12 178 5 47 7 106 4
130 -10 81 -6 137 11 164 15 22 15 26 1 31 -8 3 -15 13 -15 21 0 8 -4 12 -9 9
-5 -3 -14 1 -21 9 -10 13 -10 25 4 66 9 28 14 55 11 59 -12 20 18 20 39 1 12
-12 27 -21 33 -21 14 0 41 -41 49 -76 3 -16 22 -65 41 -108 32 -72 35 -85 29
-140 -3 -33 -11 -65 -16 -70 -7 -7 -10 -6 -10 3 0 7 -5 9 -10 6 -6 -3 -10 -1
-10 6 0 9 -3 10 -10 3 -8 -8 -8 -19 0 -38 5 -15 10 -87 10 -161 0 -73 3 -140
6 -149 5 -14 33 -16 205 -16 l199 0 0 420 0 420 -480 0 -480 0 0 -420z"/>
</g>
</svg>
