<?xml version="1.0" standalone="no"?>
<!DOCTYPE svg PUBLIC "-//W3C//DTD SVG 20010904//EN"
 "http://www.w3.org/TR/2001/REC-SVG-20010904/DTD/svg10.dtd">
<svg version="1.0" xmlns="http://www.w3.org/2000/svg"
 width="96.000000pt" height="84.000000pt" viewBox="0 0 96.000000 84.000000"
 preserveAspectRatio="xMidYMid meet">
<metadata>
Created by potrace 1.16, written by Peter Selinger 2001-2019
</metadata>
<g transform="translate(0.000000,84.000000) scale(0.100000,-0.100000)"
fill="#000000" stroke="none">
<path d="M0 420 l0 -420 206 0 c143 0 203 3 199 11 -4 6 -1 81 6 167 15 169
15 214 4 279 -5 30 -3 54 9 83 18 45 8 74 -27 84 -16 4 -18 11 -14 38 5 30 13
66 17 78 1 3 3 11 4 19 2 27 22 21 68 -21 33 -31 49 -56 58 -88 7 -25 25 -72
40 -105 19 -41 29 -79 30 -120 3 -88 2 -94 -15 -71 -9 11 -15 14 -15 7 0 -8
-7 -10 -22 -6 -18 6 -20 5 -12 -11 4 -11 11 -91 14 -179 l5 -160 203 -3 202
-2 0 420 0 420 -480 0 -480 0 0 -420z"/>
</g>
</svg>
