<?xml version="1.0" standalone="no"?>
<!DOCTYPE svg PUBLIC "-//W3C//DTD SVG 20010904//EN"
 "http://www.w3.org/TR/2001/REC-SVG-20010904/DTD/svg10.dtd">
<svg version="1.0" xmlns="http://www.w3.org/2000/svg"
 width="96.000000pt" height="84.000000pt" viewBox="0 0 96.000000 84.000000"
 preserveAspectRatio="xMidYMid meet">
<metadata>
Created by potrace 1.16, written by Peter Selinger 2001-2019
</metadata>
<g transform="translate(0.000000,84.000000) scale(0.100000,-0.100000)"
fill="#000000" stroke="none">
<path d="M0 420 l0 -420 198 0 198 0 13 168 c7 92 14 177 17 190 2 12 -1 32
-7 44 -16 30 -13 102 7 139 l16 32 -37 32 c-37 31 -37 33 -26 68 7 20 10 41 6
47 -3 6 0 13 9 16 8 3 12 12 10 19 -12 30 19 24 61 -12 39 -32 49 -49 67 -108
12 -38 29 -88 39 -110 21 -51 34 -191 18 -200 -6 -4 -15 -2 -19 5 -16 25 -29
-1 -25 -48 3 -26 7 -100 11 -164 l6 -118 199 0 199 0 0 420 0 420 -480 0 -480
0 0 -420z"/>
</g>
</svg>
