<?xml version="1.0" standalone="no"?>
<!DOCTYPE svg PUBLIC "-//W3C//DTD SVG 20010904//EN"
 "http://www.w3.org/TR/2001/REC-SVG-20010904/DTD/svg10.dtd">
<svg version="1.0" xmlns="http://www.w3.org/2000/svg"
 width="96.000000pt" height="84.000000pt" viewBox="0 0 96.000000 84.000000"
 preserveAspectRatio="xMidYMid meet">
<metadata>
Created by potrace 1.16, written by Peter Selinger 2001-2019
</metadata>
<g transform="translate(0.000000,84.000000) scale(0.100000,-0.100000)"
fill="#000000" stroke="none">
<path d="M0 420 l0 -420 199 0 198 0 6 88 c4 48 11 129 16 180 8 76 7 97 -6
123 -17 34 -12 96 12 142 13 25 12 30 -4 46 -9 9 -25 21 -35 24 -14 6 -16 17
-13 66 3 37 11 66 21 76 9 9 16 21 16 26 0 18 15 9 61 -36 37 -36 50 -57 63
-107 10 -35 26 -89 37 -122 22 -65 19 -156 -8 -211 -11 -24 -13 -56 -7 -163
l7 -132 198 0 199 0 0 420 0 420 -480 0 -480 0 0 -420z"/>
</g>
</svg>
