<?xml version="1.0" standalone="no"?>
<!DOCTYPE svg PUBLIC "-//W3C//DTD SVG 20010904//EN"
 "http://www.w3.org/TR/2001/REC-SVG-20010904/DTD/svg10.dtd">
<svg version="1.0" xmlns="http://www.w3.org/2000/svg"
 width="96.000000pt" height="84.000000pt" viewBox="0 0 96.000000 84.000000"
 preserveAspectRatio="xMidYMid meet">
<metadata>
Created by potrace 1.16, written by Peter Selinger 2001-2019
</metadata>
<g transform="translate(0.000000,84.000000) scale(0.100000,-0.100000)"
fill="#000000" stroke="none">
<path d="M0 420 l0 -420 198 2 197 3 11 140 c7 77 10 144 7 149 -3 4 0 12 7
16 11 7 10 16 -5 46 -21 44 -16 131 9 169 15 23 15 25 -5 35 -11 7 -18 14 -15
17 3 4 -4 11 -17 18 -17 8 -21 18 -19 45 1 19 2 47 3 63 0 17 5 27 14 27 8 0
15 6 15 13 0 6 5 19 10 27 8 12 19 5 59 -37 39 -41 54 -66 66 -110 9 -32 25
-90 36 -129 16 -58 18 -81 10 -135 -5 -35 -13 -75 -18 -89 -4 -14 -7 -80 -5
-148 l3 -122 200 0 199 0 0 420 0 420 -480 0 -480 0 0 -420z"/>
</g>
</svg>
