<?xml version="1.0" standalone="no"?>
<!DOCTYPE svg PUBLIC "-//W3C//DTD SVG 20010904//EN"
 "http://www.w3.org/TR/2001/REC-SVG-20010904/DTD/svg10.dtd">
<svg version="1.0" xmlns="http://www.w3.org/2000/svg"
 width="96.000000pt" height="84.000000pt" viewBox="0 0 96.000000 84.000000"
 preserveAspectRatio="xMidYMid meet">
<metadata>
Created by potrace 1.16, written by Peter Selinger 2001-2019
</metadata>
<g transform="translate(0.000000,84.000000) scale(0.100000,-0.100000)"
fill="#000000" stroke="none">
<path d="M0 420 l0 -420 198 2 197 3 3 59 c2 37 -1 62 -8 66 -18 11 -14 48 10
114 20 55 20 60 5 105 -13 39 -13 57 -5 98 6 28 17 59 24 68 11 15 9 21 -10
40 -12 12 -30 25 -39 28 -24 10 -16 140 10 145 9 2 14 9 12 15 -2 7 2 18 9 25
23 21 109 -73 127 -139 69 -243 67 -231 58 -299 -5 -36 -14 -78 -20 -93 -12
-30 -15 -194 -5 -221 5 -14 32 -16 200 -16 l194 0 0 420 0 420 -480 0 -480 0
0 -420z"/>
</g>
</svg>
