<?xml version="1.0" standalone="no"?>
<!DOCTYPE svg PUBLIC "-//W3C//DTD SVG 20010904//EN"
 "http://www.w3.org/TR/2001/REC-SVG-20010904/DTD/svg10.dtd">
<svg version="1.0" xmlns="http://www.w3.org/2000/svg"
 width="96.000000pt" height="84.000000pt" viewBox="0 0 96.000000 84.000000"
 preserveAspectRatio="xMidYMid meet">
<metadata>
Created by potrace 1.16, written by Peter Selinger 2001-2019
</metadata>
<g transform="translate(0.000000,84.000000) scale(0.100000,-0.100000)"
fill="#000000" stroke="none">
<path d="M0 420 l0 -420 194 0 c107 0 197 3 199 8 3 4 8 50 12 102 6 86 5 94
-9 80 -9 -9 -17 -31 -19 -50 -3 -29 -9 -36 -29 -38 -21 -3 -26 2 -31 24 -5 29
18 77 66 133 20 24 27 40 22 55 -17 56 -16 94 3 150 l20 59 -21 28 c-11 16
-23 26 -27 24 -4 -3 -14 2 -21 11 -10 12 -10 25 0 64 7 27 10 54 6 60 -4 7 2
14 14 17 11 3 18 9 15 14 -3 5 1 16 10 24 13 13 20 10 59 -29 53 -51 70 -81
87 -156 7 -30 23 -88 37 -128 17 -52 22 -83 17 -105 -4 -18 -8 -45 -10 -62 -1
-16 -10 -62 -19 -101 -13 -50 -16 -87 -11 -127 l7 -57 195 0 194 0 0 420 0
420 -480 0 -480 0 0 -420z"/>
</g>
</svg>
