<?xml version="1.0" standalone="no"?>
<!DOCTYPE svg PUBLIC "-//W3C//DTD SVG 20010904//EN"
 "http://www.w3.org/TR/2001/REC-SVG-20010904/DTD/svg10.dtd">
<svg version="1.0" xmlns="http://www.w3.org/2000/svg"
 width="96.000000pt" height="84.000000pt" viewBox="0 0 96.000000 84.000000"
 preserveAspectRatio="xMidYMid meet">
<metadata>
Created by potrace 1.16, written by Peter Selinger 2001-2019
</metadata>
<g transform="translate(0.000000,84.000000) scale(0.100000,-0.100000)"
fill="#000000" stroke="none">
<path d="M0 420 l0 -420 194 0 c107 0 197 4 200 9 3 5 9 55 13 112 l6 103 -31
-24 c-25 -20 -41 -51 -47 -90 -2 -17 -18 -27 -34 -23 -43 11 -3 118 66 177 32
26 33 31 27 71 -7 50 10 142 31 165 13 15 12 18 -9 30 -14 7 -22 18 -20 24 2
6 -6 16 -18 21 -19 8 -23 17 -20 50 5 84 9 100 25 103 10 2 17 9 17 15 0 7 5
19 10 27 8 12 20 4 64 -43 45 -49 57 -69 71 -125 9 -37 28 -100 42 -140 31
-89 32 -177 3 -259 -13 -37 -20 -83 -20 -130 l0 -73 195 0 195 0 0 420 0 420
-480 0 -480 0 0 -420z"/>
</g>
</svg>
