<?xml version="1.0" standalone="no"?>
<!DOCTYPE svg PUBLIC "-//W3C//DTD SVG 20010904//EN"
 "http://www.w3.org/TR/2001/REC-SVG-20010904/DTD/svg10.dtd">
<svg version="1.0" xmlns="http://www.w3.org/2000/svg"
 width="96.000000pt" height="84.000000pt" viewBox="0 0 96.000000 84.000000"
 preserveAspectRatio="xMidYMid meet">
<metadata>
Created by potrace 1.16, written by Peter Selinger 2001-2019
</metadata>
<g transform="translate(0.000000,84.000000) scale(0.100000,-0.100000)"
fill="#000000" stroke="none">
<path d="M0 420 l0 -420 199 0 198 0 6 68 c9 94 9 162 -1 162 -5 0 -17 -9 -27
-20 -10 -11 -23 -20 -30 -20 -6 0 -18 -18 -25 -41 -16 -46 -23 -53 -50 -44
-16 5 -18 10 -9 31 5 14 7 29 4 34 -3 5 8 23 25 41 16 19 30 37 30 41 0 5 6 8
13 8 6 0 23 9 36 19 22 17 25 27 26 87 0 48 6 81 20 110 l21 40 -24 18 c-13
10 -21 20 -18 24 3 3 -4 10 -17 16 -28 14 -33 47 -14 86 9 16 13 39 10 50 -4
15 0 20 16 20 12 0 19 4 16 10 -3 6 1 18 11 27 16 16 18 15 41 -12 13 -17 35
-42 48 -57 23 -26 55 -113 55 -148 0 -9 13 -54 30 -101 27 -79 29 -90 21 -168
-5 -46 -14 -87 -20 -90 -13 -8 -30 -132 -23 -167 l4 -24 194 0 194 0 0 420 0
420 -480 0 -480 0 0 -420z"/>
</g>
</svg>
