<?xml version="1.0" standalone="no"?>
<!DOCTYPE svg PUBLIC "-//W3C//DTD SVG 20010904//EN"
 "http://www.w3.org/TR/2001/REC-SVG-20010904/DTD/svg10.dtd">
<svg version="1.0" xmlns="http://www.w3.org/2000/svg"
 width="96.000000pt" height="84.000000pt" viewBox="0 0 96.000000 84.000000"
 preserveAspectRatio="xMidYMid meet">
<metadata>
Created by potrace 1.16, written by Peter Selinger 2001-2019
</metadata>
<g transform="translate(0.000000,84.000000) scale(0.100000,-0.100000)"
fill="#000000" stroke="none">
<path d="M0 420 l0 -420 199 0 198 0 7 61 c3 34 6 88 6 120 0 66 -10 73 -53
39 -14 -11 -29 -20 -34 -20 -5 0 -15 -16 -23 -35 -12 -30 -18 -35 -42 -33 -23
2 -27 6 -21 23 3 11 7 28 8 37 2 24 61 76 108 95 35 14 37 18 37 60 0 50 26
149 41 159 5 3 -2 15 -16 26 -14 11 -22 24 -19 29 3 6 -3 13 -14 16 -11 3 -23
11 -26 19 -7 18 4 73 15 80 5 3 9 16 9 30 0 15 6 24 15 24 8 0 15 9 15 19 0
10 8 22 17 26 18 6 23 2 79 -72 24 -32 54 -112 54 -147 0 -12 12 -56 26 -97
22 -64 25 -86 21 -164 -2 -54 -10 -102 -20 -120 -18 -36 -31 -126 -22 -154 6
-20 13 -21 201 -21 l194 0 0 420 0 420 -480 0 -480 0 0 -420z"/>
</g>
</svg>
