<?xml version="1.0" standalone="no"?>
<!DOCTYPE svg PUBLIC "-//W3C//DTD SVG 20010904//EN"
 "http://www.w3.org/TR/2001/REC-SVG-20010904/DTD/svg10.dtd">
<svg version="1.0" xmlns="http://www.w3.org/2000/svg"
 width="96.000000pt" height="84.000000pt" viewBox="0 0 96.000000 84.000000"
 preserveAspectRatio="xMidYMid meet">
<metadata>
Created by potrace 1.16, written by Peter Selinger 2001-2019
</metadata>
<g transform="translate(0.000000,84.000000) scale(0.100000,-0.100000)"
fill="#000000" stroke="none">
<path d="M561 801 c-9 -6 -12 -21 -9 -46 3 -30 0 -40 -19 -52 -36 -24 -64 -78
-66 -129 -2 -39 2 -49 26 -70 17 -15 27 -31 23 -40 -3 -8 2 -23 12 -34 22 -26
43 -127 32 -156 -5 -12 -18 -24 -29 -27 -13 -3 -21 -13 -21 -25 0 -50 -9 -52
-61 -15 -36 25 -49 41 -49 60 0 58 -37 78 -95 51 -51 -23 -31 -125 31 -148 18
-7 20 -13 13 -67 -4 -32 -8 -68 -8 -80 l-1 -23 228 0 229 0 -5 31 c-4 25 0 36
19 50 29 22 21 33 -14 20 -32 -12 -33 -11 -42 63 -4 33 -9 65 -12 73 -3 7 0
13 5 13 6 0 13 -8 15 -17 3 -12 5 -9 6 8 0 15 4 41 8 60 5 28 7 30 14 14 7
-20 8 -20 8 0 1 17 3 17 11 5 26 -40 1 216 -31 320 -25 83 -58 125 -91 117
-14 -4 -33 4 -57 24 -38 31 -48 34 -70 20z"/>
</g>
</svg>
