<?xml version="1.0" standalone="no"?>
<!DOCTYPE svg PUBLIC "-//W3C//DTD SVG 20010904//EN"
 "http://www.w3.org/TR/2001/REC-SVG-20010904/DTD/svg10.dtd">
<svg version="1.0" xmlns="http://www.w3.org/2000/svg"
 width="96.000000pt" height="84.000000pt" viewBox="0 0 96.000000 84.000000"
 preserveAspectRatio="xMidYMid meet">
<metadata>
Created by potrace 1.16, written by Peter Selinger 2001-2019
</metadata>
<g transform="translate(0.000000,84.000000) scale(0.100000,-0.100000)"
fill="#000000" stroke="none">
<path d="M0 420 l0 -420 199 0 198 0 7 61 c9 88 8 177 -3 183 -5 3 -29 -2 -55
-11 -32 -12 -49 -25 -57 -45 -9 -23 -16 -28 -38 -24 -14 2 -30 5 -34 5 -5 1 0
16 11 35 14 23 17 36 9 39 -15 5 48 37 103 51 l45 12 6 55 c7 66 26 136 40
144 5 4 -1 15 -15 26 -15 12 -23 26 -19 34 3 9 -1 15 -10 15 -35 0 -39 66 -7
105 6 7 8 20 4 29 -4 12 0 16 15 16 12 0 21 6 21 16 0 8 6 22 14 30 13 12 17
11 31 -8 54 -77 77 -123 86 -175 6 -32 22 -96 36 -143 28 -95 26 -154 -8 -289
-10 -41 -19 -94 -19 -118 l0 -43 200 0 200 0 0 420 0 420 -480 0 -480 0 0
-420z"/>
</g>
</svg>
