<?xml version="1.0" standalone="no"?>
<!DOCTYPE svg PUBLIC "-//W3C//DTD SVG 20010904//EN"
 "http://www.w3.org/TR/2001/REC-SVG-20010904/DTD/svg10.dtd">
<svg version="1.0" xmlns="http://www.w3.org/2000/svg"
 width="96.000000pt" height="84.000000pt" viewBox="0 0 96.000000 84.000000"
 preserveAspectRatio="xMidYMid meet">
<metadata>
Created by potrace 1.16, written by Peter Selinger 2001-2019
</metadata>
<g transform="translate(0.000000,84.000000) scale(0.100000,-0.100000)"
fill="#000000" stroke="none">
<path d="M0 420 l0 -420 199 0 198 0 7 53 c7 63 8 192 1 199 -3 3 -29 1 -57
-4 -34 -6 -57 -17 -70 -33 -10 -13 -26 -22 -36 -20 -9 2 -25 4 -35 4 -16 1
-15 5 8 35 24 31 24 35 8 39 -13 3 -10 6 12 11 17 4 38 11 47 17 10 5 35 9 57
9 42 0 51 11 51 58 0 28 15 83 34 122 11 22 10 28 -10 45 -12 10 -20 25 -17
32 3 7 -2 13 -10 13 -28 0 -37 62 -13 95 7 11 15 29 17 40 3 11 8 19 13 17 5
-2 17 11 28 29 l20 33 24 -29 c13 -17 24 -38 24 -47 0 -10 4 -18 9 -18 16 0
39 -63 55 -150 8 -47 22 -109 31 -139 17 -62 13 -128 -16 -238 -11 -40 -19
-95 -19 -123 l0 -50 200 0 200 0 0 420 0 420 -480 0 -480 0 0 -420z"/>
</g>
</svg>
