<?xml version="1.0" standalone="no"?>
<!DOCTYPE svg PUBLIC "-//W3C//DTD SVG 20010904//EN"
 "http://www.w3.org/TR/2001/REC-SVG-20010904/DTD/svg10.dtd">
<svg version="1.0" xmlns="http://www.w3.org/2000/svg"
 width="96.000000pt" height="84.000000pt" viewBox="0 0 96.000000 84.000000"
 preserveAspectRatio="xMidYMid meet">
<metadata>
Created by potrace 1.16, written by Peter Selinger 2001-2019
</metadata>
<g transform="translate(0.000000,84.000000) scale(0.100000,-0.100000)"
fill="#000000" stroke="none">
<path d="M0 420 l0 -420 199 0 198 0 7 53 c3 28 6 87 6 130 l0 78 -66 -3 c-37
-1 -70 -8 -76 -15 -12 -15 -88 -18 -88 -4 0 5 11 16 25 25 29 19 33 36 8 36
-9 0 -14 2 -12 5 8 7 91 17 136 16 l42 -2 7 51 c4 28 11 53 15 56 5 3 9 15 9
27 0 13 7 33 16 45 8 12 11 22 6 22 -5 0 -15 12 -23 28 -8 15 -22 33 -33 41
-14 10 -17 22 -13 48 4 19 12 42 19 50 7 9 13 23 13 32 0 9 8 15 18 15 10 -1
17 5 17 15 0 9 9 22 19 28 16 10 21 9 33 -10 39 -62 68 -139 78 -202 6 -38 20
-103 30 -143 21 -81 19 -133 -11 -249 -11 -40 -19 -95 -19 -123 l0 -50 200 0
200 0 0 420 0 420 -480 0 -480 0 0 -420z"/>
</g>
</svg>
