<?xml version="1.0" standalone="no"?>
<!DOCTYPE svg PUBLIC "-//W3C//DTD SVG 20010904//EN"
 "http://www.w3.org/TR/2001/REC-SVG-20010904/DTD/svg10.dtd">
<svg version="1.0" xmlns="http://www.w3.org/2000/svg"
 width="96.000000pt" height="84.000000pt" viewBox="0 0 96.000000 84.000000"
 preserveAspectRatio="xMidYMid meet">
<metadata>
Created by potrace 1.16, written by Peter Selinger 2001-2019
</metadata>
<g transform="translate(0.000000,84.000000) scale(0.100000,-0.100000)"
fill="#000000" stroke="none">
<path d="M0 420 l0 -420 199 0 198 0 7 46 c3 26 6 89 6 142 0 76 -3 92 -13 84
-8 -7 -33 -8 -70 -3 -32 4 -60 4 -63 -1 -6 -9 -94 -7 -94 3 0 3 11 11 25 17
27 13 32 27 13 35 -7 3 7 7 32 8 65 4 72 3 102 -4 25 -7 28 -4 38 35 19 70 41
132 52 146 9 10 6 17 -10 28 -12 8 -22 21 -22 27 0 7 -9 20 -20 30 -24 20 -25
43 -5 77 8 14 19 35 25 48 5 13 14 21 19 18 5 -3 12 6 15 19 4 14 11 23 16 20
6 -3 10 -1 10 4 0 23 18 9 35 -26 10 -21 26 -54 36 -74 10 -19 23 -69 30 -110
6 -41 20 -108 30 -150 21 -82 18 -132 -16 -262 -8 -32 -15 -80 -15 -107 l0
-50 200 0 200 0 0 420 0 420 -480 0 -480 0 0 -420z"/>
</g>
</svg>
