<?xml version="1.0" standalone="no"?>
<!DOCTYPE svg PUBLIC "-//W3C//DTD SVG 20010904//EN"
 "http://www.w3.org/TR/2001/REC-SVG-20010904/DTD/svg10.dtd">
<svg version="1.0" xmlns="http://www.w3.org/2000/svg"
 width="96.000000pt" height="84.000000pt" viewBox="0 0 96.000000 84.000000"
 preserveAspectRatio="xMidYMid meet">
<metadata>
Created by potrace 1.16, written by Peter Selinger 2001-2019
</metadata>
<g transform="translate(0.000000,84.000000) scale(0.100000,-0.100000)"
fill="#000000" stroke="none">
<path d="M0 420 l0 -420 199 0 198 0 7 46 c3 26 6 94 6 152 0 103 0 105 -19
88 -16 -14 -29 -16 -63 -10 -42 7 -84 11 -140 13 -31 1 -39 21 -9 21 11 0 23
4 26 10 3 6 1 10 -6 10 -7 0 -9 3 -5 7 11 12 89 13 125 1 29 -9 36 -8 48 8 7
10 13 30 13 45 0 14 7 32 15 39 8 7 15 20 15 30 0 9 9 29 20 43 20 25 20 25 0
30 -11 3 -23 13 -27 24 -3 10 -14 26 -25 36 -22 21 -23 43 -3 77 8 14 19 35
25 48 5 13 14 20 20 17 5 -3 12 5 16 19 3 13 15 26 25 29 16 4 24 -3 36 -31 9
-20 24 -53 34 -73 10 -19 23 -69 29 -110 6 -41 20 -107 31 -147 22 -80 21
-111 -12 -246 -10 -43 -19 -101 -19 -127 l0 -49 200 0 200 0 0 420 0 420 -480
0 -480 0 0 -420z"/>
</g>
</svg>
