<?xml version="1.0" standalone="no"?>
<!DOCTYPE svg PUBLIC "-//W3C//DTD SVG 20010904//EN"
 "http://www.w3.org/TR/2001/REC-SVG-20010904/DTD/svg10.dtd">
<svg version="1.0" xmlns="http://www.w3.org/2000/svg"
 width="96.000000pt" height="84.000000pt" viewBox="0 0 96.000000 84.000000"
 preserveAspectRatio="xMidYMid meet">
<metadata>
Created by potrace 1.16, written by Peter Selinger 2001-2019
</metadata>
<g transform="translate(0.000000,84.000000) scale(0.100000,-0.100000)"
fill="#000000" stroke="none">
<path d="M0 420 l0 -420 199 0 198 0 7 46 c3 26 6 96 6 157 l0 110 -22 -20
-23 -21 -108 22 c-97 19 -130 36 -73 36 15 0 17 3 8 9 -31 19 77 22 135 3 31
-10 32 -9 43 26 16 51 50 124 67 143 12 14 11 17 -7 22 -11 3 -23 13 -27 24
-3 10 -15 26 -25 36 -21 21 -17 69 8 98 8 8 14 23 14 33 0 11 6 16 18 14 11
-2 18 4 20 18 5 32 38 37 57 8 8 -13 15 -30 15 -38 0 -8 9 -30 20 -48 10 -18
24 -67 30 -108 6 -41 20 -108 31 -148 22 -80 21 -111 -12 -246 -10 -43 -19
-101 -19 -127 l0 -49 200 0 200 0 0 420 0 420 -480 0 -480 0 0 -420z"/>
</g>
</svg>
