<?xml version="1.0" standalone="no"?>
<!DOCTYPE svg PUBLIC "-//W3C//DTD SVG 20010904//EN"
 "http://www.w3.org/TR/2001/REC-SVG-20010904/DTD/svg10.dtd">
<svg version="1.0" xmlns="http://www.w3.org/2000/svg"
 width="96.000000pt" height="84.000000pt" viewBox="0 0 96.000000 84.000000"
 preserveAspectRatio="xMidYMid meet">
<metadata>
Created by potrace 1.16, written by Peter Selinger 2001-2019
</metadata>
<g transform="translate(0.000000,84.000000) scale(0.100000,-0.100000)"
fill="#000000" stroke="none">
<path d="M0 420 l0 -420 199 0 198 0 7 38 c9 57 7 272 -3 272 -5 0 -12 -7 -15
-16 -5 -14 -16 -15 -64 -9 -31 4 -63 12 -71 18 -15 13 -17 13 -76 16 l-40 1
25 20 c21 17 36 19 85 16 33 -3 72 -8 87 -12 25 -6 28 -3 39 37 7 24 18 51 26
60 7 8 13 20 13 26 0 6 9 22 20 36 20 25 20 25 0 30 -11 3 -23 13 -27 24 -3
10 -15 26 -25 36 -21 21 -17 69 8 98 8 8 14 23 14 32 0 10 8 17 20 17 13 0 20
7 20 19 0 10 9 21 20 24 24 6 50 -25 50 -60 0 -12 5 -25 11 -28 16 -10 28 -49
40 -128 6 -40 19 -105 30 -145 22 -80 21 -111 -12 -246 -10 -43 -19 -101 -19
-127 l0 -49 200 0 200 0 0 420 0 420 -480 0 -480 0 0 -420z"/>
</g>
</svg>
