<?xml version="1.0" standalone="no"?>
<!DOCTYPE svg PUBLIC "-//W3C//DTD SVG 20010904//EN"
 "http://www.w3.org/TR/2001/REC-SVG-20010904/DTD/svg10.dtd">
<svg version="1.0" xmlns="http://www.w3.org/2000/svg"
 width="96.000000pt" height="84.000000pt" viewBox="0 0 96.000000 84.000000"
 preserveAspectRatio="xMidYMid meet">
<metadata>
Created by potrace 1.16, written by Peter Selinger 2001-2019
</metadata>
<g transform="translate(0.000000,84.000000) scale(0.100000,-0.100000)"
fill="#000000" stroke="none">
<path d="M0 420 l0 -420 199 0 198 0 7 38 c8 53 7 282 -2 282 -4 0 -13 -9 -20
-20 -11 -18 -19 -20 -65 -14 -28 4 -59 12 -67 19 -8 7 -34 17 -58 22 -24 4
-43 11 -43 16 1 4 4 7 7 6 4 0 10 5 14 12 6 9 24 9 76 1 38 -5 77 -13 86 -17
13 -5 21 2 34 32 9 21 20 45 25 53 5 8 15 29 23 46 8 17 19 35 26 39 8 5 4 11
-12 19 -12 6 -24 22 -26 34 -2 12 -9 22 -17 22 -28 0 -28 77 1 101 8 6 14 20
14 30 0 12 7 19 20 19 13 0 20 7 20 19 0 10 9 21 20 24 22 6 47 -22 53 -60 1
-12 8 -27 14 -35 15 -19 31 -74 38 -138 4 -30 16 -87 26 -125 21 -76 18 -130
-16 -280 -8 -38 -15 -87 -15 -107 l0 -38 200 0 200 0 0 420 0 420 -480 0 -480
0 0 -420z"/>
</g>
</svg>
