<?xml version="1.0" standalone="no"?>
<!DOCTYPE svg PUBLIC "-//W3C//DTD SVG 20010904//EN"
 "http://www.w3.org/TR/2001/REC-SVG-20010904/DTD/svg10.dtd">
<svg version="1.0" xmlns="http://www.w3.org/2000/svg"
 width="96.000000pt" height="84.000000pt" viewBox="0 0 96.000000 84.000000"
 preserveAspectRatio="xMidYMid meet">
<metadata>
Created by potrace 1.16, written by Peter Selinger 2001-2019
</metadata>
<g transform="translate(0.000000,84.000000) scale(0.100000,-0.100000)"
fill="#000000" stroke="none">
<path d="M0 420 l0 -420 199 0 199 0 6 31 c9 48 7 289 -3 289 -5 0 -15 -10
-23 -21 -13 -21 -17 -21 -69 -9 -29 7 -60 18 -68 24 -7 6 -31 16 -53 21 -21 6
-38 15 -36 20 5 15 118 14 156 -2 41 -17 45 -14 62 37 7 22 19 45 27 51 7 6
13 17 13 24 0 7 9 24 20 38 20 25 20 25 0 30 -11 3 -23 13 -27 24 -3 10 -15
26 -25 36 -21 21 -17 69 8 98 8 8 14 23 14 32 0 10 8 17 20 17 11 0 20 7 20
15 0 12 28 35 43 35 2 0 12 -19 22 -42 10 -24 24 -58 33 -77 8 -19 21 -73 28
-120 7 -47 20 -110 28 -140 17 -63 14 -122 -14 -250 -11 -52 -20 -110 -20
-128 l0 -33 200 0 200 0 0 420 0 420 -480 0 -480 0 0 -420z"/>
</g>
</svg>
