<?xml version="1.0" standalone="no"?>
<!DOCTYPE svg PUBLIC "-//W3C//DTD SVG 20010904//EN"
 "http://www.w3.org/TR/2001/REC-SVG-20010904/DTD/svg10.dtd">
<svg version="1.0" xmlns="http://www.w3.org/2000/svg"
 width="96.000000pt" height="84.000000pt" viewBox="0 0 96.000000 84.000000"
 preserveAspectRatio="xMidYMid meet">
<metadata>
Created by potrace 1.16, written by Peter Selinger 2001-2019
</metadata>
<g transform="translate(0.000000,84.000000) scale(0.100000,-0.100000)"
fill="#000000" stroke="none">
<path d="M0 420 l0 -420 199 0 199 0 6 31 c8 43 8 289 -1 289 -4 0 -16 -9 -28
-20 -20 -19 -25 -20 -75 -7 -29 8 -58 20 -64 28 -6 8 -29 19 -51 24 -22 6 -38
15 -35 20 7 14 118 8 161 -10 l37 -14 21 47 c22 49 33 69 63 113 16 26 16 27
-2 32 -11 3 -23 13 -27 24 -3 10 -15 26 -25 36 -21 21 -17 69 9 98 7 9 13 23
11 30 -2 8 7 15 20 17 12 2 22 10 22 17 0 8 10 20 22 26 18 10 24 8 35 -7 8
-11 16 -30 19 -44 3 -14 12 -37 20 -52 8 -14 21 -68 29 -120 7 -51 21 -115 29
-143 19 -61 15 -128 -14 -263 -12 -56 -19 -114 -16 -127 l6 -25 195 0 195 0 0
420 0 420 -480 0 -480 0 0 -420z"/>
</g>
</svg>
