<?xml version="1.0" standalone="no"?>
<!DOCTYPE svg PUBLIC "-//W3C//DTD SVG 20010904//EN"
 "http://www.w3.org/TR/2001/REC-SVG-20010904/DTD/svg10.dtd">
<svg version="1.0" xmlns="http://www.w3.org/2000/svg"
 width="96.000000pt" height="84.000000pt" viewBox="0 0 96.000000 84.000000"
 preserveAspectRatio="xMidYMid meet">
<metadata>
Created by potrace 1.16, written by Peter Selinger 2001-2019
</metadata>
<g transform="translate(0.000000,84.000000) scale(0.100000,-0.100000)"
fill="#000000" stroke="none">
<path d="M560 805 c-7 -8 -10 -29 -8 -46 4 -26 -1 -37 -34 -68 -62 -57 -72
-150 -22 -190 16 -12 22 -25 18 -36 -4 -9 2 -25 15 -39 11 -12 23 -35 25 -52
2 -16 7 -40 10 -54 10 -36 -9 -80 -34 -80 -15 0 -20 -7 -20 -29 0 -17 -4 -32
-8 -35 -4 -2 -27 13 -50 35 -29 28 -42 49 -42 68 0 15 -6 34 -12 43 -14 17
-68 31 -68 17 0 -4 -9 -10 -19 -14 -44 -14 -33 -109 16 -140 22 -14 30 -26 28
-40 -2 -11 -7 -48 -10 -82 l-6 -63 100 0 c70 0 101 4 104 13 4 9 6 9 6 0 1
-10 33 -13 126 -13 l124 0 -6 31 c-5 25 -2 31 15 36 11 3 23 12 26 20 6 15 -5
15 -45 -1 -13 -6 -17 3 -22 54 -4 33 -10 73 -13 88 -6 26 -6 26 9 7 15 -19 15
-17 11 25 -4 34 -3 41 5 30 9 -13 11 -12 12 5 l0 20 9 -20 9 -20 0 20 c1 17 3
17 11 5 12 -19 12 -22 0 140 -10 131 -44 266 -76 301 -10 11 -31 19 -49 19
-22 0 -40 9 -60 30 -32 33 -56 38 -75 15z"/>
</g>
</svg>
