<?xml version="1.0" standalone="no"?>
<!DOCTYPE svg PUBLIC "-//W3C//DTD SVG 20010904//EN"
 "http://www.w3.org/TR/2001/REC-SVG-20010904/DTD/svg10.dtd">
<svg version="1.0" xmlns="http://www.w3.org/2000/svg"
 width="96.000000pt" height="84.000000pt" viewBox="0 0 96.000000 84.000000"
 preserveAspectRatio="xMidYMid meet">
<metadata>
Created by potrace 1.16, written by Peter Selinger 2001-2019
</metadata>
<g transform="translate(0.000000,84.000000) scale(0.100000,-0.100000)"
fill="#000000" stroke="none">
<path d="M0 420 l0 -420 199 0 199 0 6 34 c8 44 9 273 1 286 -3 6 -16 -1 -28
-15 l-22 -25 -55 16 c-30 9 -59 21 -65 28 -5 6 -28 19 -50 27 -43 16 -46 35
-5 32 53 -3 99 -12 118 -22 42 -22 66 -6 78 52 2 11 10 25 19 29 8 5 15 15 15
22 0 7 9 25 21 40 17 21 18 26 5 26 -8 0 -21 10 -27 23 -6 12 -20 30 -31 40
-15 15 -18 26 -12 50 3 18 11 38 18 46 6 8 10 22 8 33 -2 13 3 18 22 18 16 0
26 6 26 15 0 8 10 20 22 26 18 10 24 8 35 -7 8 -11 16 -30 19 -44 3 -14 12
-37 20 -52 8 -14 21 -68 29 -120 8 -51 23 -123 34 -160 10 -36 16 -69 13 -73
-4 -4 -7 -23 -8 -43 0 -21 -6 -59 -13 -87 -7 -27 -15 -83 -18 -123 l-5 -72
196 0 196 0 0 420 0 420 -480 0 -480 0 0 -420z"/>
</g>
</svg>
