<?xml version="1.0" standalone="no"?>
<!DOCTYPE svg PUBLIC "-//W3C//DTD SVG 20010904//EN"
 "http://www.w3.org/TR/2001/REC-SVG-20010904/DTD/svg10.dtd">
<svg version="1.0" xmlns="http://www.w3.org/2000/svg"
 width="96.000000pt" height="84.000000pt" viewBox="0 0 96.000000 84.000000"
 preserveAspectRatio="xMidYMid meet">
<metadata>
Created by potrace 1.16, written by Peter Selinger 2001-2019
</metadata>
<g transform="translate(0.000000,84.000000) scale(0.100000,-0.100000)"
fill="#000000" stroke="none">
<path d="M0 420 l0 -420 199 0 199 0 8 43 c8 48 7 264 -2 279 -3 5 -16 -2 -29
-16 -23 -25 -24 -25 -72 -10 -26 9 -55 25 -65 35 -9 10 -23 19 -31 19 -20 0
-68 40 -62 50 7 11 19 9 138 -31 17 -6 39 -13 48 -16 11 -3 22 9 37 46 11 28
26 51 31 51 6 0 11 6 11 14 0 7 9 25 21 40 17 21 18 26 5 26 -8 0 -21 10 -27
23 -6 12 -20 30 -31 40 -15 14 -18 26 -13 50 4 18 11 36 16 41 5 6 9 20 9 33
0 18 6 23 24 23 15 0 27 7 31 19 15 49 75 20 75 -35 0 -14 7 -35 15 -48 8 -12
21 -65 29 -117 8 -52 24 -123 35 -159 14 -45 17 -66 9 -71 -6 -4 -8 -17 -5
-30 7 -26 -9 -132 -24 -161 -5 -10 -9 -45 -9 -78 l0 -60 195 0 195 0 0 420 0
420 -480 0 -480 0 0 -420z"/>
</g>
</svg>
