<?xml version="1.0" standalone="no"?>
<!DOCTYPE svg PUBLIC "-//W3C//DTD SVG 20010904//EN"
 "http://www.w3.org/TR/2001/REC-SVG-20010904/DTD/svg10.dtd">
<svg version="1.0" xmlns="http://www.w3.org/2000/svg"
 width="96.000000pt" height="84.000000pt" viewBox="0 0 96.000000 84.000000"
 preserveAspectRatio="xMidYMid meet">
<metadata>
Created by potrace 1.16, written by Peter Selinger 2001-2019
</metadata>
<g transform="translate(0.000000,84.000000) scale(0.100000,-0.100000)"
fill="#000000" stroke="none">
<path d="M0 420 l0 -420 199 0 199 0 7 38 c8 44 8 269 -1 283 -3 6 -16 -1 -28
-14 l-23 -25 -52 18 c-29 9 -61 27 -72 39 -11 11 -26 21 -33 21 -17 0 -51 38
-42 48 12 11 30 9 44 -5 7 -7 25 -16 40 -19 15 -3 42 -12 60 -20 18 -8 36 -14
41 -14 5 0 18 21 30 48 24 53 41 83 60 105 10 13 9 19 -4 34 -64 73 -66 77
-59 107 3 17 10 35 15 40 5 6 9 20 9 33 0 18 6 23 24 23 16 0 27 7 31 20 3 11
10 20 15 20 5 0 15 2 23 6 14 5 38 -38 41 -74 1 -9 6 -26 12 -37 14 -25 34
-116 34 -155 0 -16 11 -64 25 -107 17 -54 21 -79 13 -84 -6 -4 -8 -15 -4 -25
8 -21 -12 -154 -26 -168 -4 -6 -8 -38 -8 -73 l0 -63 195 0 195 0 0 420 0 420
-480 0 -480 0 0 -420z"/>
</g>
</svg>
