<?xml version="1.0" standalone="no"?>
<!DOCTYPE svg PUBLIC "-//W3C//DTD SVG 20010904//EN"
 "http://www.w3.org/TR/2001/REC-SVG-20010904/DTD/svg10.dtd">
<svg version="1.0" xmlns="http://www.w3.org/2000/svg"
 width="96.000000pt" height="84.000000pt" viewBox="0 0 96.000000 84.000000"
 preserveAspectRatio="xMidYMid meet">
<metadata>
Created by potrace 1.16, written by Peter Selinger 2001-2019
</metadata>
<g transform="translate(0.000000,84.000000) scale(0.100000,-0.100000)"
fill="#000000" stroke="none">
<path d="M0 420 l0 -420 199 0 199 0 7 38 c8 44 8 269 -1 283 -3 6 -16 -1 -28
-14 l-23 -25 -54 18 c-29 10 -59 26 -66 36 -7 9 -22 22 -34 28 -31 15 -46 43
-33 56 8 8 20 4 42 -14 16 -14 40 -26 53 -26 13 0 33 -7 43 -15 31 -24 42 -18
65 33 24 53 41 83 60 105 10 13 9 19 -4 34 -64 73 -66 77 -59 107 3 17 10 35
15 40 5 6 9 20 9 33 0 18 6 23 24 23 16 0 27 7 31 20 3 11 10 20 15 20 5 0 15
2 22 5 15 6 52 -60 43 -75 -3 -5 1 -20 10 -33 8 -13 22 -69 30 -124 8 -55 24
-126 35 -159 13 -38 17 -60 10 -62 -6 -2 -8 -17 -5 -35 3 -18 -3 -74 -15 -126
-11 -52 -20 -112 -20 -133 l0 -38 195 0 195 0 0 420 0 420 -480 0 -480 0 0
-420z"/>
</g>
</svg>
