<?xml version="1.0" standalone="no"?>
<!DOCTYPE svg PUBLIC "-//W3C//DTD SVG 20010904//EN"
 "http://www.w3.org/TR/2001/REC-SVG-20010904/DTD/svg10.dtd">
<svg version="1.0" xmlns="http://www.w3.org/2000/svg"
 width="96.000000pt" height="84.000000pt" viewBox="0 0 96.000000 84.000000"
 preserveAspectRatio="xMidYMid meet">
<metadata>
Created by potrace 1.16, written by Peter Selinger 2001-2019
</metadata>
<g transform="translate(0.000000,84.000000) scale(0.100000,-0.100000)"
fill="#000000" stroke="none">
<path d="M0 420 l0 -420 199 0 199 0 6 44 c8 54 9 263 1 276 -3 6 -16 -2 -28
-16 -23 -26 -23 -26 -69 -11 -25 9 -62 27 -83 41 -21 15 -41 26 -46 26 -4 0
-11 10 -14 21 -11 34 15 42 44 13 15 -16 31 -22 42 -19 11 4 29 -1 41 -9 12
-9 30 -16 39 -16 15 0 39 38 39 64 0 7 9 21 20 31 11 10 20 23 20 28 0 6 7 18
16 28 14 16 14 19 0 36 -75 84 -76 88 -51 137 8 15 15 37 15 47 0 13 7 19 24
19 16 0 27 7 31 20 3 11 10 20 15 20 5 0 15 2 22 5 15 6 52 -60 43 -75 -3 -5
1 -20 10 -33 8 -13 20 -62 26 -108 7 -46 19 -111 29 -144 23 -77 23 -147 -1
-264 -10 -51 -19 -108 -19 -127 l0 -34 195 0 195 0 0 420 0 420 -480 0 -480 0
0 -420z"/>
</g>
</svg>
