<?xml version="1.0" standalone="no"?>
<!DOCTYPE svg PUBLIC "-//W3C//DTD SVG 20010904//EN"
 "http://www.w3.org/TR/2001/REC-SVG-20010904/DTD/svg10.dtd">
<svg version="1.0" xmlns="http://www.w3.org/2000/svg"
 width="96.000000pt" height="84.000000pt" viewBox="0 0 96.000000 84.000000"
 preserveAspectRatio="xMidYMid meet">
<metadata>
Created by potrace 1.16, written by Peter Selinger 2001-2019
</metadata>
<g transform="translate(0.000000,84.000000) scale(0.100000,-0.100000)"
fill="#000000" stroke="none">
<path d="M0 420 l0 -420 199 0 199 0 7 96 c4 52 5 117 2 142 -4 31 -3 40 3 27
8 -19 9 -19 9 3 1 12 -3 22 -9 22 -5 0 -10 9 -10 21 0 19 -2 18 -23 -6 l-23
-27 -57 17 c-32 9 -61 23 -64 31 -3 8 -13 14 -23 14 -31 0 -50 11 -50 29 0 27
9 30 38 15 15 -8 40 -14 55 -14 15 0 41 -7 58 -15 29 -16 29 -16 45 22 18 41
20 45 58 111 13 23 20 42 15 42 -5 0 -15 12 -22 28 -6 15 -20 33 -30 41 -20
15 -19 35 5 104 10 28 18 37 35 37 14 0 23 6 23 15 0 14 29 35 48 35 11 0 32
-45 32 -69 0 -10 7 -32 16 -50 9 -18 22 -74 29 -124 7 -51 19 -105 25 -122 21
-53 20 -154 -1 -268 -12 -60 -18 -119 -15 -133 l6 -24 190 0 190 0 0 420 0
420 -480 0 -480 0 0 -420z"/>
</g>
</svg>
