<?xml version="1.0" standalone="no"?>
<!DOCTYPE svg PUBLIC "-//W3C//DTD SVG 20010904//EN"
 "http://www.w3.org/TR/2001/REC-SVG-20010904/DTD/svg10.dtd">
<svg version="1.0" xmlns="http://www.w3.org/2000/svg"
 width="96.000000pt" height="84.000000pt" viewBox="0 0 96.000000 84.000000"
 preserveAspectRatio="xMidYMid meet">
<metadata>
Created by potrace 1.16, written by Peter Selinger 2001-2019
</metadata>
<g transform="translate(0.000000,84.000000) scale(0.100000,-0.100000)"
fill="#000000" stroke="none">
<path d="M0 420 l0 -420 198 0 198 0 4 93 c2 50 3 107 3 125 0 17 4 32 9 32
12 0 10 25 -4 55 l-12 26 -21 -27 c-20 -26 -23 -26 -61 -14 -21 7 -50 19 -64
28 -13 8 -37 16 -52 17 -31 3 -61 23 -53 35 9 15 129 5 163 -13 l32 -18 10 26
c6 15 10 33 10 41 0 8 18 40 41 70 l40 55 -25 20 c-15 11 -24 24 -22 28 3 4
-4 15 -15 24 -23 20 -24 42 -4 81 8 15 15 37 15 48 0 16 5 19 21 15 14 -4 23
1 31 18 22 49 78 27 78 -31 0 -11 7 -35 16 -53 9 -18 22 -76 29 -129 7 -53 20
-116 29 -140 8 -23 15 -58 14 -76 -1 -18 2 -37 5 -43 7 -12 -11 -119 -24 -145
-5 -10 -9 -47 -9 -83 l0 -65 190 0 190 0 0 420 0 420 -480 0 -480 0 0 -420z
m230 -11 c0 -5 -7 -9 -15 -9 -15 0 -20 12 -9 23 8 8 24 -1 24 -14z"/>
</g>
</svg>
