<?xml version="1.0" standalone="no"?>
<!DOCTYPE svg PUBLIC "-//W3C//DTD SVG 20010904//EN"
 "http://www.w3.org/TR/2001/REC-SVG-20010904/DTD/svg10.dtd">
<svg version="1.0" xmlns="http://www.w3.org/2000/svg"
 width="96.000000pt" height="84.000000pt" viewBox="0 0 96.000000 84.000000"
 preserveAspectRatio="xMidYMid meet">
<metadata>
Created by potrace 1.16, written by Peter Selinger 2001-2019
</metadata>
<g transform="translate(0.000000,84.000000) scale(0.100000,-0.100000)"
fill="#000000" stroke="none">
<path d="M0 420 l0 -420 193 0 194 0 6 122 c3 66 11 126 17 132 14 14 13 29
-4 51 -14 19 -15 19 -33 -4 l-20 -24 -49 18 c-27 10 -55 23 -63 29 -15 11 -18
12 -68 14 -43 2 -42 15 3 31 32 12 34 15 21 29 -18 21 -11 42 13 42 26 0 46
-28 32 -42 -18 -18 -14 -30 8 -23 11 4 29 0 42 -9 38 -27 56 -20 64 22 4 20
24 61 44 91 38 53 38 54 19 74 -10 12 -19 27 -19 34 0 7 -4 13 -10 13 -23 0
-31 39 -15 76 8 20 15 45 15 55 0 14 7 19 25 19 17 0 29 8 36 24 18 39 45 39
63 1 9 -18 16 -40 16 -48 0 -8 7 -31 15 -50 8 -20 19 -77 25 -127 6 -50 19
-117 30 -148 16 -45 19 -72 14 -145 -2 -49 -9 -97 -13 -106 -13 -25 -23 -109
-16 -131 6 -19 16 -20 191 -20 l184 0 0 420 0 420 -480 0 -480 0 0 -420z"/>
</g>
</svg>
