<?xml version="1.0" standalone="no"?>
<!DOCTYPE svg PUBLIC "-//W3C//DTD SVG 20010904//EN"
 "http://www.w3.org/TR/2001/REC-SVG-20010904/DTD/svg10.dtd">
<svg version="1.0" xmlns="http://www.w3.org/2000/svg"
 width="96.000000pt" height="84.000000pt" viewBox="0 0 96.000000 84.000000"
 preserveAspectRatio="xMidYMid meet">
<metadata>
Created by potrace 1.16, written by Peter Selinger 2001-2019
</metadata>
<g transform="translate(0.000000,84.000000) scale(0.100000,-0.100000)"
fill="#000000" stroke="none">
<path d="M0 420 l0 -420 184 0 183 0 14 93 c7 50 13 119 12 152 -1 43 1 53 7
35 8 -24 8 -23 9 8 1 37 -5 39 -33 13 -20 -19 -23 -19 -71 -4 -28 9 -57 22
-65 29 -17 14 -16 14 -65 14 -19 0 -35 5 -35 10 0 6 6 10 13 10 7 0 22 6 32
14 15 11 17 17 8 28 -17 20 -5 58 18 58 27 0 44 -41 30 -69 -11 -19 -9 -21 11
-17 13 2 35 -3 50 -10 40 -21 46 -18 54 24 3 20 23 62 44 92 41 60 40 66 -13
127 -15 17 -18 30 -13 55 4 18 10 48 13 66 4 27 9 33 28 30 15 -2 32 7 49 25
14 15 31 27 39 27 19 0 56 -82 39 -88 -9 -3 -8 -10 2 -30 16 -31 36 -130 36
-177 0 -17 11 -59 25 -93 29 -71 32 -90 12 -73 -11 9 -13 4 -11 -22 9 -100 5
-205 -9 -238 -8 -20 -13 -48 -10 -63 l5 -26 184 0 184 0 0 420 0 420 -480 0
-480 0 0 -420z"/>
</g>
</svg>
