<?xml version="1.0" standalone="no"?>
<!DOCTYPE svg PUBLIC "-//W3C//DTD SVG 20010904//EN"
 "http://www.w3.org/TR/2001/REC-SVG-20010904/DTD/svg10.dtd">
<svg version="1.0" xmlns="http://www.w3.org/2000/svg"
 width="96.000000pt" height="84.000000pt" viewBox="0 0 96.000000 84.000000"
 preserveAspectRatio="xMidYMid meet">
<metadata>
Created by potrace 1.16, written by Peter Selinger 2001-2019
</metadata>
<g transform="translate(0.000000,84.000000) scale(0.100000,-0.100000)"
fill="#000000" stroke="none">
<path d="M0 420 l0 -420 180 0 c178 0 180 0 184 23 17 76 30 180 29 227 -1 41
1 49 7 30 8 -24 8 -24 9 6 1 42 -7 47 -33 19 -20 -23 -24 -23 -67 -12 -25 7
-52 17 -60 24 -8 6 -28 14 -44 18 -55 13 -65 16 -65 25 0 5 10 10 23 12 18 2
22 9 19 33 -4 51 6 75 32 75 34 0 51 -42 31 -79 l-14 -28 37 -6 c20 -3 47 -9
59 -13 20 -5 23 -2 29 34 3 23 22 64 40 92 19 29 34 58 34 66 0 7 -13 28 -29
46 -27 31 -28 36 -24 105 l6 73 36 -6 c30 -5 40 -1 60 20 34 36 59 33 77 -9
19 -45 18 -55 -5 -55 -18 0 -19 -2 -4 -30 8 -17 21 -66 29 -110 7 -44 25 -106
39 -139 28 -66 33 -100 9 -61 -14 23 -14 21 -10 -45 3 -38 8 -97 12 -131 5
-50 3 -68 -15 -102 -12 -23 -21 -55 -21 -72 l0 -30 185 0 185 0 0 420 0 420
-480 0 -480 0 0 -420z"/>
<path d="M560 189 c0 -11 5 -17 10 -14 6 3 10 13 10 21 0 8 -4 14 -10 14 -5 0
-10 -9 -10 -21z"/>
</g>
</svg>
