<?xml version="1.0" standalone="no"?>
<!DOCTYPE svg PUBLIC "-//W3C//DTD SVG 20010904//EN"
 "http://www.w3.org/TR/2001/REC-SVG-20010904/DTD/svg10.dtd">
<svg version="1.0" xmlns="http://www.w3.org/2000/svg"
 width="96.000000pt" height="84.000000pt" viewBox="0 0 96.000000 84.000000"
 preserveAspectRatio="xMidYMid meet">
<metadata>
Created by potrace 1.16, written by Peter Selinger 2001-2019
</metadata>
<g transform="translate(0.000000,84.000000) scale(0.100000,-0.100000)"
fill="#000000" stroke="none">
<path d="M570 820 c-16 -16 -20 -28 -15 -50 6 -25 1 -35 -33 -67 -65 -62 -78
-165 -25 -200 16 -11 22 -22 18 -34 -4 -11 3 -30 15 -47 12 -16 23 -40 24 -53
2 -13 6 -38 10 -55 9 -39 -6 -79 -30 -79 -13 0 -20 -9 -24 -29 -6 -35 -14 -33
-57 15 -22 24 -33 47 -33 66 0 64 -57 87 -102 41 -16 -15 -28 -37 -28 -48 0
-38 28 -90 54 -100 22 -8 24 -13 16 -37 -4 -15 -11 -54 -14 -85 l-6 -58 100 0
c82 0 100 3 100 15 0 8 4 15 10 15 5 0 7 -7 4 -15 -5 -13 13 -15 125 -15 l131
0 -5 23 c-5 18 0 28 19 41 29 19 36 42 9 31 -49 -20 -49 -20 -61 61 -7 42 -10
79 -7 82 3 3 5 -2 5 -11 0 -10 4 -17 9 -17 5 0 7 18 4 40 -5 32 -3 40 8 38 8
-2 17 -7 21 -13 5 -6 8 -5 8 3 0 7 3 11 8 9 9 -7 4 184 -8 251 -16 89 -48 186
-70 210 -12 13 -33 22 -49 22 -16 0 -34 7 -41 15 -7 9 -26 25 -41 36 l-28 20
-21 -21z"/>
</g>
</svg>
