<?xml version="1.0" standalone="no"?>
<!DOCTYPE svg PUBLIC "-//W3C//DTD SVG 20010904//EN"
 "http://www.w3.org/TR/2001/REC-SVG-20010904/DTD/svg10.dtd">
<svg version="1.0" xmlns="http://www.w3.org/2000/svg"
 width="96.000000pt" height="84.000000pt" viewBox="0 0 96.000000 84.000000"
 preserveAspectRatio="xMidYMid meet">
<metadata>
Created by potrace 1.16, written by Peter Selinger 2001-2019
</metadata>
<g transform="translate(0.000000,84.000000) scale(0.100000,-0.100000)"
fill="#000000" stroke="none">
<path d="M0 420 l0 -420 179 0 179 0 18 88 c10 48 18 116 17 152 -1 50 1 59 8
41 14 -36 21 -20 10 25 -5 21 -9 33 -10 27 -2 -20 -34 -53 -51 -53 -20 0 -84
23 -101 36 -8 6 -33 16 -56 23 -49 14 -65 31 -29 31 28 0 33 17 17 48 -14 25
1 86 22 90 9 2 17 -1 17 -7 0 -6 6 -8 14 -5 8 3 16 -4 21 -18 9 -29 7 -46 -10
-80 -13 -27 -12 -28 13 -28 15 -1 38 -7 52 -15 36 -20 37 -19 45 28 4 23 14
51 21 62 8 11 14 27 14 37 0 10 5 18 11 18 7 0 9 17 5 53 -4 28 -8 70 -9 92
-1 22 -6 43 -10 46 -9 7 -23 89 -15 89 3 0 23 -6 44 -14 43 -15 69 -9 111 24
35 27 39 26 56 -17 16 -40 8 -63 -20 -63 -11 0 -14 -6 -9 -22 3 -13 13 -57 22
-98 9 -41 26 -101 39 -133 13 -31 19 -54 13 -51 -8 5 -9 -3 -5 -25 4 -18 2
-41 -3 -52 -8 -14 -5 -31 11 -69 28 -65 21 -134 -16 -167 -22 -20 -25 -27 -17
-55 l8 -33 177 -3 177 -2 0 420 0 420 -480 0 -480 0 0 -420z"/>
<path d="M564 216 c-3 -8 0 -33 6 -56 9 -33 14 -40 23 -30 9 10 9 14 0 17 -10
3 -10 10 -2 24 11 21 4 59 -12 59 -5 0 -12 -6 -15 -14z"/>
</g>
</svg>
