<?xml version="1.0" standalone="no"?>
<!DOCTYPE svg PUBLIC "-//W3C//DTD SVG 20010904//EN"
 "http://www.w3.org/TR/2001/REC-SVG-20010904/DTD/svg10.dtd">
<svg version="1.0" xmlns="http://www.w3.org/2000/svg"
 width="96.000000pt" height="84.000000pt" viewBox="0 0 96.000000 84.000000"
 preserveAspectRatio="xMidYMid meet">
<metadata>
Created by potrace 1.16, written by Peter Selinger 2001-2019
</metadata>
<g transform="translate(0.000000,84.000000) scale(0.100000,-0.100000)"
fill="#000000" stroke="none">
<path d="M0 420 l0 -420 178 0 178 0 24 93 c23 90 36 252 19 241 -5 -3 -9 -11
-9 -18 0 -7 -9 -21 -19 -30 -19 -17 -22 -17 -68 0 -26 10 -52 23 -58 29 -5 7
-29 17 -52 24 -49 14 -65 31 -29 31 23 0 25 3 19 33 -3 17 -10 40 -15 50 -6
12 -5 19 5 23 8 3 12 15 9 33 -5 35 16 51 34 27 7 -10 17 -15 22 -12 5 3 14
-5 21 -17 12 -22 8 -49 -14 -124 -6 -18 -4 -21 13 -16 12 3 31 -2 44 -11 34
-24 46 -20 53 23 3 22 13 47 20 58 19 25 18 34 -2 31 -11 -2 -18 3 -18 12 0 8
8 14 18 14 14 -2 17 7 17 45 0 26 6 70 14 99 13 52 13 52 -10 52 -22 0 -24 4
-24 45 0 40 2 45 23 45 12 -1 33 -7 47 -15 35 -20 64 -18 111 6 23 11 43 19
45 17 1 -2 6 -22 10 -45 6 -39 5 -42 -20 -49 -18 -4 -25 -11 -22 -23 3 -9 8
-53 11 -98 6 -72 10 -83 26 -83 13 0 19 -7 19 -21 0 -12 -4 -17 -11 -13 -7 4
-9 0 -6 -12 15 -54 19 -86 8 -80 -25 16 -11 -60 18 -94 56 -69 76 -131 49
-158 -22 -22 -33 -13 -34 26 -1 27 -10 47 -32 71 -29 32 -30 33 -37 11 -4 -13
4 -61 21 -121 l27 -99 169 0 168 0 0 420 0 420 -480 0 -480 0 0 -420z"/>
</g>
</svg>
