<?xml version="1.0" standalone="no"?>
<!DOCTYPE svg PUBLIC "-//W3C//DTD SVG 20010904//EN"
 "http://www.w3.org/TR/2001/REC-SVG-20010904/DTD/svg10.dtd">
<svg version="1.0" xmlns="http://www.w3.org/2000/svg"
 width="96.000000pt" height="84.000000pt" viewBox="0 0 96.000000 84.000000"
 preserveAspectRatio="xMidYMid meet">
<metadata>
Created by potrace 1.16, written by Peter Selinger 2001-2019
</metadata>
<g transform="translate(0.000000,84.000000) scale(0.100000,-0.100000)"
fill="#000000" stroke="none">
<path d="M0 420 l0 -420 178 0 178 0 26 97 c15 54 29 116 32 138 6 42 -6 76
-18 56 -4 -6 -4 -17 0 -23 6 -10 5 -10 -7 -1 -9 7 -20 8 -28 3 -14 -8 -96 24
-116 46 -5 6 -29 16 -52 23 -45 12 -58 31 -23 31 22 0 22 2 -1 89 -9 37 -4 55
13 45 8 -5 9 4 5 29 -4 27 -2 37 8 37 7 0 16 6 18 13 3 6 6 2 6 -10 1 -13 7
-23 16 -23 8 0 15 -9 15 -21 0 -12 4 -18 11 -13 16 9 2 -94 -16 -122 -15 -24
-11 -36 11 -27 7 3 29 -5 48 -16 37 -23 44 -20 51 26 3 16 8 41 11 57 6 24 4
28 -10 23 -11 -5 -16 -1 -16 13 0 12 7 20 18 20 14 0 20 16 33 83 9 45 19 90
24 100 5 13 2 17 -15 17 -21 0 -22 4 -17 45 2 26 7 48 10 51 3 3 27 -4 54 -17
63 -29 65 -29 110 -14 21 7 41 10 45 7 4 -4 2 -25 -4 -47 -5 -22 -11 -54 -13
-71 -2 -17 -6 -41 -10 -53 -10 -32 4 -101 21 -101 16 0 19 -27 3 -32 -7 -2 -7
-17 0 -48 6 -25 11 -60 11 -78 0 -20 6 -35 15 -38 8 -4 15 -10 15 -15 0 -14
39 -49 66 -59 14 -6 22 -14 19 -20 -3 -5 -1 -18 4 -28 7 -13 7 -22 -1 -30 -18
-18 -46 -14 -53 8 -7 21 -84 100 -99 100 -13 0 0 -73 27 -165 l25 -80 166 -3
166 -2 0 420 0 420 -480 0 -480 0 0 -420z"/>
<path d="M551 539 c0 -13 4 -33 9 -44 7 -14 8 -8 3 20 -7 46 -13 59 -12 24z"/>
<path d="M592 330 c0 -14 2 -19 5 -12 2 6 2 18 0 25 -3 6 -5 1 -5 -13z"/>
</g>
</svg>
