<?xml version="1.0" standalone="no"?>
<!DOCTYPE svg PUBLIC "-//W3C//DTD SVG 20010904//EN"
 "http://www.w3.org/TR/2001/REC-SVG-20010904/DTD/svg10.dtd">
<svg version="1.0" xmlns="http://www.w3.org/2000/svg"
 width="96.000000pt" height="84.000000pt" viewBox="0 0 96.000000 84.000000"
 preserveAspectRatio="xMidYMid meet">
<metadata>
Created by potrace 1.16, written by Peter Selinger 2001-2019
</metadata>
<g transform="translate(0.000000,84.000000) scale(0.100000,-0.100000)"
fill="#000000" stroke="none">
<path d="M0 420 l0 -420 178 0 178 0 27 97 c15 54 27 112 27 129 0 41 -21 59
-49 44 -12 -6 -21 -7 -21 -3 0 4 -5 1 -10 -7 -8 -13 -10 -12 -10 3 0 10 -4 16
-9 13 -5 -3 -14 1 -21 9 -7 8 -18 15 -25 15 -7 0 -15 6 -18 13 -2 7 -25 18
-51 25 -47 12 -63 32 -25 32 16 0 19 4 14 18 -23 58 -12 140 25 174 22 21 30
14 31 -26 0 -17 3 -25 6 -18 2 6 9 12 15 12 16 0 -1 -123 -19 -137 -20 -15 -8
-33 17 -26 12 3 29 -2 40 -12 25 -23 30 -18 51 50 13 43 14 55 4 55 -8 0 -11
8 -8 20 3 11 11 20 18 20 8 0 17 25 25 67 6 36 17 81 25 100 14 32 13 33 -11
33 -27 0 -27 3 -3 68 10 27 39 23 76 -11 20 -18 28 -19 69 -10 53 12 61 4 46
-50 -5 -19 -7 -46 -5 -61 3 -15 -1 -36 -11 -51 -20 -31 -22 -95 -2 -95 8 0 14
-10 14 -22 0 -24 10 -95 18 -136 2 -13 9 -20 14 -17 6 3 10 -3 10 -15 0 -12
10 -25 25 -32 14 -6 25 -15 25 -20 0 -4 13 -8 29 -8 17 0 33 -5 36 -10 3 -6 1
-10 -6 -10 -7 0 -5 -9 6 -26 19 -30 19 -30 -16 -39 -21 -5 -31 -1 -47 19 -11
14 -24 26 -30 26 -5 0 -15 7 -23 16 -7 8 -24 21 -39 29 l-26 14 7 -47 c4 -26
19 -83 32 -127 l25 -80 166 -3 166 -2 0 420 0 420 -480 0 -480 0 0 -420z"/>
<path d="M536 521 c-4 -7 -5 -15 -2 -18 9 -9 19 4 14 18 -4 11 -6 11 -12 0z"/>
</g>
</svg>
