<?xml version="1.0" standalone="no"?>
<!DOCTYPE svg PUBLIC "-//W3C//DTD SVG 20010904//EN"
 "http://www.w3.org/TR/2001/REC-SVG-20010904/DTD/svg10.dtd">
<svg version="1.0" xmlns="http://www.w3.org/2000/svg"
 width="96.000000pt" height="84.000000pt" viewBox="0 0 96.000000 84.000000"
 preserveAspectRatio="xMidYMid meet">
<metadata>
Created by potrace 1.16, written by Peter Selinger 2001-2019
</metadata>
<g transform="translate(0.000000,84.000000) scale(0.100000,-0.100000)"
fill="#000000" stroke="none">
<path d="M0 420 l0 -420 178 0 178 0 27 97 c15 54 27 103 27 108 0 6 -18 20
-41 33 -40 23 -41 23 -62 5 -16 -13 -18 -13 -9 -2 16 22 5 48 -23 55 -13 3
-26 12 -28 19 -3 7 -21 15 -40 19 -42 8 -72 36 -39 36 28 0 34 13 17 36 -8 10
-15 40 -15 66 0 55 19 106 32 86 6 -10 10 -10 18 2 8 12 11 11 16 -9 l7 -23
13 23 c12 21 13 16 11 -51 -2 -41 -8 -85 -15 -97 -18 -33 -15 -44 11 -38 15 4
28 1 36 -9 19 -23 28 -20 34 11 5 26 4 26 -9 8 -29 -39 -15 16 16 64 17 28 37
82 50 135 11 48 25 97 31 108 10 18 9 20 -5 15 -23 -9 -30 15 -16 58 14 42 25
43 75 10 32 -22 44 -25 83 -19 l45 7 -7 -39 c-4 -22 -7 -58 -6 -81 1 -33 -4
-45 -20 -55 -27 -17 -25 -52 9 -121 22 -46 27 -68 24 -105 l-5 -47 54 -28 c29
-15 67 -27 83 -27 23 0 27 -3 15 -10 -13 -9 -11 -13 9 -29 28 -21 22 -36 -15
-44 -19 -3 -34 2 -49 17 -19 18 -115 76 -127 76 -9 0 10 -97 31 -165 13 -38
24 -76 26 -82 3 -10 46 -13 170 -13 l165 0 0 420 0 420 -480 0 -480 0 0 -420z"/>
</g>
</svg>
