<?xml version="1.0" standalone="no"?>
<!DOCTYPE svg PUBLIC "-//W3C//DTD SVG 20010904//EN"
 "http://www.w3.org/TR/2001/REC-SVG-20010904/DTD/svg10.dtd">
<svg version="1.0" xmlns="http://www.w3.org/2000/svg"
 width="96.000000pt" height="84.000000pt" viewBox="0 0 96.000000 84.000000"
 preserveAspectRatio="xMidYMid meet">
<metadata>
Created by potrace 1.16, written by Peter Selinger 2001-2019
</metadata>
<g transform="translate(0.000000,84.000000) scale(0.100000,-0.100000)"
fill="#000000" stroke="none">
<path d="M0 420 l0 -420 179 0 179 0 6 35 c4 20 16 63 27 97 27 86 26 100 -7
87 -22 -8 -30 -6 -44 9 -10 10 -21 28 -24 40 -4 12 -13 22 -20 22 -7 0 -24 8
-37 18 -13 11 -37 22 -54 26 -16 4 -36 13 -44 19 -11 10 -9 13 10 17 20 5 23
11 21 35 -2 17 -8 32 -13 33 -14 6 -11 82 3 79 8 -1 11 11 10 38 -2 25 0 35 6
27 5 -7 16 -10 25 -6 13 4 17 1 17 -14 0 -23 19 -41 21 -20 1 7 5 -11 9 -41 7
-44 5 -59 -12 -87 -21 -35 -17 -57 7 -47 9 3 22 0 31 -7 17 -15 28 -7 39 30 7
23 7 24 -10 10 -22 -18 -18 -9 26 55 17 25 33 69 43 118 9 43 20 86 26 97 14
25 13 30 -5 24 -23 -9 -28 20 -11 61 13 31 19 35 38 30 13 -4 33 -17 45 -28
20 -18 28 -19 68 -10 24 6 46 8 49 6 2 -2 0 -21 -5 -41 -5 -20 -9 -54 -9 -74
0 -46 -8 -68 -25 -68 -27 0 -21 -54 13 -110 28 -48 31 -60 26 -102 -7 -53 -14
-45 81 -83 11 -4 36 -7 55 -6 27 1 32 -1 20 -9 -13 -9 -11 -14 14 -34 l28 -24
-35 -11 c-28 -10 -40 -9 -56 1 -12 7 -21 16 -21 20 0 5 -7 8 -15 8 -8 0 -37
11 -65 24 l-49 24 4 -42 c2 -22 16 -74 30 -115 14 -41 25 -83 25 -93 0 -17 12
-18 170 -18 l170 0 0 420 0 420 -480 0 -480 0 0 -420z"/>
</g>
</svg>
