<?xml version="1.0" standalone="no"?>
<!DOCTYPE svg PUBLIC "-//W3C//DTD SVG 20010904//EN"
 "http://www.w3.org/TR/2001/REC-SVG-20010904/DTD/svg10.dtd">
<svg version="1.0" xmlns="http://www.w3.org/2000/svg"
 width="96.000000pt" height="84.000000pt" viewBox="0 0 96.000000 84.000000"
 preserveAspectRatio="xMidYMid meet">
<metadata>
Created by potrace 1.16, written by Peter Selinger 2001-2019
</metadata>
<g transform="translate(0.000000,84.000000) scale(0.100000,-0.100000)"
fill="#000000" stroke="none">
<path d="M0 420 l0 -420 178 0 177 0 22 83 c12 45 25 90 29 100 5 15 2 18 -17
17 -44 -4 -51 -1 -44 20 4 14 2 20 -8 20 -10 0 -13 7 -10 19 4 15 -3 21 -30
30 -20 7 -40 18 -47 25 -6 8 -26 17 -44 20 -41 8 -71 36 -38 36 26 0 37 17 23
33 -5 7 -9 28 -8 47 1 19 -2 47 -6 62 -6 23 -4 25 13 21 19 -5 20 -2 16 58
l-4 64 13 -60 c7 -33 13 -62 14 -64 1 -3 8 4 16 15 11 15 15 16 16 4 3 -25 6
-34 13 -52 5 -10 0 -40 -10 -70 -18 -56 -18 -65 3 -60 7 1 24 -5 37 -13 31
-21 49 -11 43 24 -3 16 2 38 15 58 11 19 25 72 33 122 7 49 18 98 24 109 15
27 14 29 -8 35 -18 4 -19 8 -8 42 6 20 17 39 24 42 8 3 32 -7 54 -22 37 -24
46 -26 81 -17 l39 10 -6 -81 c-5 -63 -11 -86 -26 -99 -27 -23 -24 -60 12 -123
22 -38 29 -63 25 -79 -10 -42 9 -74 49 -82 19 -3 37 -10 40 -14 3 -5 24 -6 48
-4 23 2 34 1 25 -2 -26 -8 -22 -21 7 -28 34 -9 31 -20 -9 -34 -24 -9 -40 -10
-53 -3 -10 6 -46 20 -80 32 -35 12 -63 26 -63 31 0 5 -5 6 -10 3 -6 -4 -7 -13
-1 -23 4 -9 6 -22 4 -29 -2 -6 10 -53 26 -103 17 -50 31 -98 31 -106 0 -12 29
-14 170 -14 l170 0 0 420 0 420 -480 0 -480 0 0 -420z"/>
</g>
</svg>
