<?xml version="1.0" standalone="no"?>
<!DOCTYPE svg PUBLIC "-//W3C//DTD SVG 20010904//EN"
 "http://www.w3.org/TR/2001/REC-SVG-20010904/DTD/svg10.dtd">
<svg version="1.0" xmlns="http://www.w3.org/2000/svg"
 width="96.000000pt" height="84.000000pt" viewBox="0 0 96.000000 84.000000"
 preserveAspectRatio="xMidYMid meet">
<metadata>
Created by potrace 1.16, written by Peter Selinger 2001-2019
</metadata>
<g transform="translate(0.000000,84.000000) scale(0.100000,-0.100000)"
fill="#000000" stroke="none">
<path d="M0 420 l0 -420 179 0 178 0 7 38 c3 21 15 67 26 103 18 57 19 65 5
75 -8 6 -15 21 -15 33 0 14 -6 21 -19 21 -22 0 -108 37 -115 49 -3 5 -21 12
-40 15 -41 8 -71 36 -38 36 26 0 38 18 23 33 -13 13 -15 67 -2 67 6 0 7 15 4
34 -3 19 0 42 6 52 9 17 10 16 11 -8 0 -30 20 -40 20 -10 1 9 7 28 14 41 12
21 13 16 19 -55 7 -78 2 -118 -14 -140 -11 -13 -1 -24 16 -18 6 3 28 -4 48
-16 l36 -21 7 38 c4 21 10 45 14 53 5 8 15 67 24 130 9 63 20 118 26 124 14
14 12 26 -5 26 -18 0 -19 29 -3 65 14 31 26 31 72 0 30 -20 44 -24 76 -19 l40
7 -6 -79 c-5 -60 -11 -83 -25 -96 -27 -23 -24 -60 11 -121 21 -38 30 -67 30
-99 0 -48 9 -58 55 -58 13 0 26 -4 29 -9 3 -5 25 -7 49 -4 28 3 38 1 28 -5
-17 -12 1 -24 25 -15 28 10 7 -15 -27 -32 -26 -14 -36 -14 -102 1 -40 9 -79
25 -89 35 -9 11 -19 19 -23 19 -11 0 2 -65 38 -182 l32 -108 167 0 168 0 0
420 0 420 -480 0 -480 0 0 -420z"/>
</g>
</svg>
