<?xml version="1.0" standalone="no"?>
<!DOCTYPE svg PUBLIC "-//W3C//DTD SVG 20010904//EN"
 "http://www.w3.org/TR/2001/REC-SVG-20010904/DTD/svg10.dtd">
<svg version="1.0" xmlns="http://www.w3.org/2000/svg"
 width="96.000000pt" height="84.000000pt" viewBox="0 0 96.000000 84.000000"
 preserveAspectRatio="xMidYMid meet">
<metadata>
Created by potrace 1.16, written by Peter Selinger 2001-2019
</metadata>
<g transform="translate(0.000000,84.000000) scale(0.100000,-0.100000)"
fill="#000000" stroke="none">
<path d="M0 420 l0 -420 176 2 176 3 20 70 c10 39 21 95 25 126 l5 56 -68 22
c-38 13 -76 29 -84 36 -8 7 -26 15 -40 18 -14 3 -34 13 -45 21 -20 15 -20 15
2 16 21 0 22 4 18 56 -3 51 -1 61 31 106 25 37 34 45 34 30 0 -12 5 -24 10
-27 14 -9 13 -128 -2 -143 -7 -7 -21 -12 -32 -12 -33 0 -10 -11 25 -12 18 -1
48 -10 66 -20 l32 -20 6 26 c3 14 8 38 12 54 3 15 5 35 4 45 -1 10 2 24 7 30
5 7 12 44 16 82 4 39 14 83 22 99 17 36 17 36 -1 36 -18 0 -19 29 -3 65 14 32
38 32 76 0 26 -21 37 -24 71 -19 l40 6 -6 -78 c-4 -61 -9 -83 -24 -96 -27 -24
-23 -66 11 -118 23 -35 30 -56 30 -96 l0 -51 53 -10 c28 -6 71 -8 95 -6 50 6
58 -14 15 -42 -26 -17 -93 -17 -174 1 -43 9 -44 -33 -6 -153 l32 -103 167 0
168 0 0 420 0 420 -480 0 -480 0 0 -420z m197 118 c-3 -7 -5 -2 -5 12 0 14 2
19 5 13 2 -7 2 -19 0 -25z"/>
</g>
</svg>
