<?xml version="1.0" standalone="no"?>
<!DOCTYPE svg PUBLIC "-//W3C//DTD SVG 20010904//EN"
 "http://www.w3.org/TR/2001/REC-SVG-20010904/DTD/svg10.dtd">
<svg version="1.0" xmlns="http://www.w3.org/2000/svg"
 width="96.000000pt" height="84.000000pt" viewBox="0 0 96.000000 84.000000"
 preserveAspectRatio="xMidYMid meet">
<metadata>
Created by potrace 1.16, written by Peter Selinger 2001-2019
</metadata>
<g transform="translate(0.000000,84.000000) scale(0.100000,-0.100000)"
fill="#000000" stroke="none">
<path d="M0 420 l0 -420 175 0 174 0 11 43 c5 23 17 65 25 93 26 89 13 166
-21 120 -11 -16 -13 -16 -19 3 -3 11 -21 25 -43 31 -20 7 -41 18 -47 24 -5 6
-29 17 -52 24 -47 14 -66 32 -33 32 21 0 21 7 3 73 -2 9 0 17 6 17 6 0 8 12 5
28 -4 21 2 35 25 61 18 20 31 28 31 20 0 -12 2 -12 10 1 8 12 10 12 16 -3 3
-9 4 -32 2 -49 -3 -17 -1 -48 3 -67 8 -32 6 -38 -19 -58 -26 -22 -21 -29 16
-24 8 1 24 -5 37 -13 14 -9 28 -16 33 -16 9 0 32 80 32 115 0 13 4 26 9 29 4
3 11 37 14 76 3 39 13 85 21 102 19 38 19 38 1 38 -18 0 -19 16 -4 59 13 38
37 40 77 6 26 -21 37 -24 70 -19 l40 6 -4 -77 c-2 -62 -7 -82 -23 -99 -26 -28
-27 -66 -2 -97 33 -44 45 -73 45 -119 l1 -45 47 -5 c26 -3 50 -9 54 -13 4 -4
18 0 31 8 13 9 23 12 23 8 0 -5 4 -1 10 7 8 12 10 12 16 -4 8 -20 -24 -58 -53
-61 -10 -1 -25 -5 -34 -9 -9 -4 -37 -2 -63 4 -26 6 -52 8 -57 5 -5 -4 -9 -1
-9 5 0 7 -6 10 -12 7 -19 -6 -11 -57 24 -169 l31 -98 168 0 169 0 0 420 0 420
-480 0 -480 0 0 -420z"/>
<path d="M550 300 c0 -5 5 -10 11 -10 5 0 7 5 4 10 -3 6 -8 10 -11 10 -2 0 -4
-4 -4 -10z"/>
</g>
</svg>
