<?xml version="1.0" standalone="no"?>
<!DOCTYPE svg PUBLIC "-//W3C//DTD SVG 20010904//EN"
 "http://www.w3.org/TR/2001/REC-SVG-20010904/DTD/svg10.dtd">
<svg version="1.0" xmlns="http://www.w3.org/2000/svg"
 width="96.000000pt" height="84.000000pt" viewBox="0 0 96.000000 84.000000"
 preserveAspectRatio="xMidYMid meet">
<metadata>
Created by potrace 1.16, written by Peter Selinger 2001-2019
</metadata>
<g transform="translate(0.000000,84.000000) scale(0.100000,-0.100000)"
fill="#000000" stroke="none">
<path d="M563 825 c-3 -9 -3 -31 0 -49 4 -28 1 -35 -23 -50 -81 -47 -106 -200
-37 -222 13 -4 17 -12 13 -27 -3 -12 3 -35 15 -54 12 -18 22 -43 24 -56 1 -12
6 -38 9 -57 10 -49 -7 -90 -33 -83 -18 5 -21 1 -21 -28 l-1 -34 -19 25 c-10
14 -28 37 -40 52 -11 15 -20 41 -20 61 0 38 -13 53 -50 59 -35 4 -80 -37 -80
-75 0 -39 28 -95 51 -102 22 -7 22 -11 10 -51 -5 -16 -12 -53 -15 -82 l-5 -52
96 0 c79 0 98 3 109 18 13 16 13 16 14 0 0 -16 13 -18 131 -18 123 0 130 1
124 19 -4 13 2 23 20 35 29 19 34 42 8 31 -49 -20 -49 -20 -61 61 -7 42 -10
79 -7 82 3 3 5 -2 5 -12 0 -9 4 -15 9 -12 4 3 5 24 1 46 -4 21 -3 37 1 34 5
-3 9 3 9 13 1 12 5 8 15 -12 7 -16 14 -24 14 -17 1 7 4 11 9 9 23 -15 -11 333
-39 384 -5 10 -9 27 -9 37 0 11 -14 34 -30 52 -22 24 -36 31 -53 26 -17 -4
-29 3 -50 29 -30 38 -82 49 -94 20z"/>
</g>
</svg>
