<?xml version="1.0" standalone="no"?>
<!DOCTYPE svg PUBLIC "-//W3C//DTD SVG 20010904//EN"
 "http://www.w3.org/TR/2001/REC-SVG-20010904/DTD/svg10.dtd">
<svg version="1.0" xmlns="http://www.w3.org/2000/svg"
 width="96.000000pt" height="84.000000pt" viewBox="0 0 96.000000 84.000000"
 preserveAspectRatio="xMidYMid meet">
<metadata>
Created by potrace 1.16, written by Peter Selinger 2001-2019
</metadata>
<g transform="translate(0.000000,84.000000) scale(0.100000,-0.100000)"
fill="#000000" stroke="none">
<path d="M0 420 l0 -420 173 0 173 0 27 98 c15 53 27 107 27 118 0 30 -25 37
-42 13 -12 -19 -13 -18 -14 11 -1 34 -13 46 -54 56 -14 4 -29 12 -35 18 -5 7
-29 17 -52 24 -49 15 -65 32 -29 32 29 0 42 15 23 27 -8 4 -17 24 -21 43 -5
30 -3 37 16 45 14 6 24 20 26 37 3 27 4 27 23 9 18 -16 39 -69 39 -97 0 -5 -9
-20 -21 -33 -23 -25 -20 -34 14 -36 12 -1 30 -5 39 -10 13 -5 20 -2 24 11 4
11 15 38 26 62 10 23 23 79 29 125 6 45 17 95 25 111 17 36 17 36 -1 36 -19 0
-19 23 0 60 19 37 44 38 75 5 21 -22 30 -25 66 -19 l42 6 -4 -77 c-2 -59 -8
-83 -22 -99 -34 -38 -34 -54 3 -108 19 -27 36 -55 36 -62 1 -6 2 -29 3 -51 1
-39 2 -40 41 -43 22 -2 45 -8 52 -14 9 -7 21 -3 43 12 36 25 45 22 36 -14 -4
-17 -16 -28 -34 -32 -15 -4 -32 -11 -39 -16 -16 -13 -124 10 -139 30 -25 34
-13 -83 18 -180 l31 -98 169 0 168 0 0 420 0 420 -480 0 -480 0 0 -420z"/>
</g>
</svg>
