<?xml version="1.0" standalone="no"?>
<!DOCTYPE svg PUBLIC "-//W3C//DTD SVG 20010904//EN"
 "http://www.w3.org/TR/2001/REC-SVG-20010904/DTD/svg10.dtd">
<svg version="1.0" xmlns="http://www.w3.org/2000/svg"
 width="96.000000pt" height="84.000000pt" viewBox="0 0 96.000000 84.000000"
 preserveAspectRatio="xMidYMid meet">
<metadata>
Created by potrace 1.16, written by Peter Selinger 2001-2019
</metadata>
<g transform="translate(0.000000,84.000000) scale(0.100000,-0.100000)"
fill="#000000" stroke="none">
<path d="M0 420 l0 -420 173 0 174 0 22 83 c13 45 26 91 29 102 3 11 2 17 -3
13 -11 -10 -33 15 -41 46 -6 26 -48 56 -77 56 -8 0 -17 6 -20 14 -3 7 -26 18
-51 25 -56 14 -65 27 -24 35 29 6 30 7 16 24 -22 24 -34 102 -16 102 7 0 18
10 23 22 15 34 43 35 55 1 5 -15 15 -36 20 -46 11 -18 1 -46 -27 -79 -17 -19
-9 -40 11 -32 8 3 28 -2 45 -10 35 -19 41 -20 41 -5 0 5 -5 7 -10 4 -18 -11
-10 26 15 69 17 29 29 70 36 126 5 46 17 96 25 112 14 27 14 31 -1 42 -15 11
-16 15 -1 49 18 44 42 48 79 12 21 -22 31 -25 65 -19 l40 6 -4 -77 c-2 -59 -7
-83 -22 -99 -34 -38 -34 -54 3 -108 19 -27 36 -55 36 -62 1 -6 2 -29 3 -51 1
-39 1 -39 56 -52 38 -8 58 -9 67 -1 7 6 13 7 13 2 0 -5 5 -1 11 8 15 26 29 22
29 -7 0 -18 -8 -28 -27 -36 -16 -6 -36 -15 -46 -20 -11 -6 -39 -6 -77 2 -51
10 -60 15 -69 40 -5 16 -13 29 -17 29 -14 0 9 -140 38 -228 l31 -92 168 0 169
0 0 420 0 420 -480 0 -480 0 0 -420z"/>
</g>
</svg>
