<?xml version="1.0" standalone="no"?>
<!DOCTYPE svg PUBLIC "-//W3C//DTD SVG 20010904//EN"
 "http://www.w3.org/TR/2001/REC-SVG-20010904/DTD/svg10.dtd">
<svg version="1.0" xmlns="http://www.w3.org/2000/svg"
 width="96.000000pt" height="84.000000pt" viewBox="0 0 96.000000 84.000000"
 preserveAspectRatio="xMidYMid meet">
<metadata>
Created by potrace 1.16, written by Peter Selinger 2001-2019
</metadata>
<g transform="translate(0.000000,84.000000) scale(0.100000,-0.100000)"
fill="#000000" stroke="none">
<path d="M0 420 l0 -420 174 0 174 0 17 68 c27 110 28 120 12 136 -8 8 -17 12
-21 9 -3 -4 -7 3 -7 15 -1 12 -2 27 -3 33 -1 13 -45 38 -66 39 -9 0 -23 9 -33
20 -9 11 -26 20 -38 20 -26 0 -59 17 -59 31 0 6 4 8 9 5 5 -4 16 -3 25 0 12 5
13 10 6 25 -6 10 -13 45 -16 76 -5 54 -5 57 10 38 15 -19 15 -18 16 17 0 48
14 55 45 22 33 -35 38 -113 9 -145 -21 -23 -17 -39 9 -39 12 -1 33 -7 47 -15
32 -19 40 -18 40 1 0 8 -4 12 -10 9 -11 -7 0 26 25 75 9 17 20 67 26 112 5 44
16 95 23 113 12 27 11 33 -1 41 -13 8 -13 14 0 47 19 45 47 49 81 12 20 -22
30 -25 63 -19 l39 6 -2 -77 c-2 -68 -6 -81 -28 -104 -14 -15 -26 -32 -26 -39
0 -6 18 -39 39 -72 33 -51 38 -66 34 -99 -6 -44 0 -50 61 -63 45 -10 91 -11
119 -2 11 3 17 0 17 -9 0 -21 -21 -36 -61 -41 -19 -3 -41 -7 -49 -8 -8 -2 -38
3 -67 10 -43 11 -53 19 -62 43 -35 100 -21 -71 16 -186 13 -44 27 -86 29 -92
2 -10 46 -13 174 -13 l170 0 0 420 0 420 -480 0 -480 0 0 -420z"/>
</g>
</svg>
