<?xml version="1.0" standalone="no"?>
<!DOCTYPE svg PUBLIC "-//W3C//DTD SVG 20010904//EN"
 "http://www.w3.org/TR/2001/REC-SVG-20010904/DTD/svg10.dtd">
<svg version="1.0" xmlns="http://www.w3.org/2000/svg"
 width="96.000000pt" height="84.000000pt" viewBox="0 0 96.000000 84.000000"
 preserveAspectRatio="xMidYMid meet">
<metadata>
Created by potrace 1.16, written by Peter Selinger 2001-2019
</metadata>
<g transform="translate(0.000000,84.000000) scale(0.100000,-0.100000)"
fill="#000000" stroke="none">
<path d="M0 420 l0 -420 173 0 172 0 23 88 c25 99 27 123 10 120 -8 -2 -14 10
-16 28 -3 28 -10 35 -63 58 -32 14 -59 30 -59 36 0 5 -12 10 -26 10 -29 0 -64
16 -64 30 0 6 3 9 8 9 4 -1 15 -1 26 0 17 1 17 3 4 24 -18 27 -13 111 8 141 8
11 15 34 15 51 1 24 3 25 6 7 2 -12 9 -20 14 -17 5 4 9 -11 9 -31 0 -35 1 -37
15 -18 25 33 20 -82 -5 -124 -25 -41 -25 -42 8 -42 15 -1 38 -7 52 -15 32 -18
41 -19 34 -1 -3 8 4 36 15 63 11 26 25 85 30 130 6 45 17 98 25 117 13 31 13
36 0 36 -18 0 -18 21 2 64 19 38 33 38 75 -1 22 -20 32 -23 69 -17 41 7 42 6
35 -16 -4 -13 -7 -49 -6 -80 1 -48 -3 -60 -24 -80 -23 -22 -35 -70 -17 -70 17
0 57 -87 62 -135 l5 -50 50 -13 c28 -7 68 -15 90 -18 22 -2 46 -5 53 -6 41 -5
-17 -38 -66 -38 -15 0 -36 -1 -47 -1 -11 0 -41 5 -68 11 -37 9 -48 17 -53 36
-3 13 -11 24 -16 24 -16 0 1 -115 29 -205 14 -44 27 -86 29 -92 2 -10 46 -13
174 -13 l170 0 0 420 0 420 -480 0 -480 0 0 -420z"/>
</g>
</svg>
