<?xml version="1.0" standalone="no"?>
<!DOCTYPE svg PUBLIC "-//W3C//DTD SVG 20010904//EN"
 "http://www.w3.org/TR/2001/REC-SVG-20010904/DTD/svg10.dtd">
<svg version="1.0" xmlns="http://www.w3.org/2000/svg"
 width="96.000000pt" height="84.000000pt" viewBox="0 0 96.000000 84.000000"
 preserveAspectRatio="xMidYMid meet">
<metadata>
Created by potrace 1.16, written by Peter Selinger 2001-2019
</metadata>
<g transform="translate(0.000000,84.000000) scale(0.100000,-0.100000)"
fill="#000000" stroke="none">
<path d="M0 420 l0 -420 175 0 c143 0 175 3 175 14 0 7 10 50 23 93 22 76 22
82 7 127 -8 26 -18 45 -21 41 -5 -5 -88 30 -129 54 -8 5 -28 13 -44 17 -26 8
-52 37 -29 33 4 -1 16 -1 26 0 17 1 17 4 -5 43 -16 29 -19 42 -11 45 8 3 10
15 6 35 -3 16 -2 33 3 37 5 3 15 17 21 31 11 24 12 23 13 -15 1 -22 4 -32 7
-22 6 22 23 22 23 -1 0 -10 5 -23 11 -29 14 -14 1 -103 -17 -110 -21 -8 -6
-23 22 -23 14 0 36 -7 50 -16 13 -9 26 -15 27 -13 16 27 49 152 56 216 6 46
17 96 26 113 14 27 14 30 0 30 -19 0 -19 32 0 70 17 33 34 32 76 -7 22 -20 32
-23 69 -17 l42 7 -8 -34 c-4 -19 -7 -55 -5 -81 2 -41 -1 -49 -24 -64 -33 -22
-32 -43 7 -106 21 -34 35 -71 38 -103 l5 -50 50 -13 c28 -7 66 -14 85 -15 22
-1 34 -7 33 -14 -2 -7 0 -12 5 -12 21 4 35 -2 27 -10 -23 -22 -235 -5 -235 19
0 3 -6 15 -14 25 -23 31 -9 -96 21 -190 13 -44 27 -86 29 -92 2 -10 46 -13
174 -13 l170 0 0 420 0 420 -480 0 -480 0 0 -420z m779 -64 c6 -7 9 -20 5 -29
-8 -21 -34 -30 -34 -13 0 8 -6 16 -12 19 -10 3 -10 7 1 20 16 21 25 21 40 3z"/>
</g>
</svg>
