<?xml version="1.0" standalone="no"?>
<!DOCTYPE svg PUBLIC "-//W3C//DTD SVG 20010904//EN"
 "http://www.w3.org/TR/2001/REC-SVG-20010904/DTD/svg10.dtd">
<svg version="1.0" xmlns="http://www.w3.org/2000/svg"
 width="96.000000pt" height="84.000000pt" viewBox="0 0 96.000000 84.000000"
 preserveAspectRatio="xMidYMid meet">
<metadata>
Created by potrace 1.16, written by Peter Selinger 2001-2019
</metadata>
<g transform="translate(0.000000,84.000000) scale(0.100000,-0.100000)"
fill="#000000" stroke="none">
<path d="M0 420 l0 -420 175 0 c133 0 175 3 175 13 0 6 12 54 26 106 25 87 26
95 11 106 -10 7 -17 22 -17 34 0 12 -4 20 -9 17 -10 -7 -116 38 -125 52 -3 6
-21 13 -40 16 -19 4 -39 13 -46 21 -11 13 -8 15 19 15 17 0 31 3 31 6 0 3 -11
28 -25 56 -29 58 -29 59 -11 52 9 -4 16 6 20 30 4 21 13 36 21 36 7 0 15 6 18
13 10 27 19 -7 24 -87 5 -73 3 -86 -11 -92 -22 -9 -10 -24 20 -24 14 0 35 -7
48 -15 23 -15 23 -15 46 46 12 34 29 103 37 153 8 50 20 103 28 119 12 25 12
27 -6 27 -24 0 -24 24 -1 67 19 35 22 35 86 -11 21 -15 31 -16 57 -7 41 14 52
6 43 -32 -4 -18 -6 -53 -5 -79 1 -40 -2 -50 -24 -64 -33 -22 -32 -43 7 -106
21 -34 35 -71 38 -102 l5 -50 50 -14 c28 -7 67 -13 88 -12 36 1 50 -13 25 -24
-9 -4 -8 -5 2 -5 8 1 22 1 30 0 13 -1 13 -2 0 -11 -30 -20 -230 -2 -230 20 0
3 -6 15 -14 26 -13 17 -14 12 -10 -46 3 -36 17 -101 31 -145 13 -44 27 -86 29
-92 2 -10 46 -13 174 -13 l170 0 0 420 0 420 -480 0 -480 0 0 -420z m781 -56
c18 -16 15 -42 -5 -56 -17 -12 -26 -9 -26 6 0 8 -7 16 -15 20 -13 5 -13 9 -3
26 15 24 26 25 49 4z"/>
</g>
</svg>
