<?xml version="1.0" standalone="no"?>
<!DOCTYPE svg PUBLIC "-//W3C//DTD SVG 20010904//EN"
 "http://www.w3.org/TR/2001/REC-SVG-20010904/DTD/svg10.dtd">
<svg version="1.0" xmlns="http://www.w3.org/2000/svg"
 width="96.000000pt" height="84.000000pt" viewBox="0 0 96.000000 84.000000"
 preserveAspectRatio="xMidYMid meet">
<metadata>
Created by potrace 1.16, written by Peter Selinger 2001-2019
</metadata>
<g transform="translate(0.000000,84.000000) scale(0.100000,-0.100000)"
fill="#000000" stroke="none">
<path d="M0 420 l0 -420 173 0 172 0 26 101 c26 99 27 101 8 120 -10 10 -19
25 -19 33 0 7 -27 26 -61 40 -33 15 -63 34 -66 42 -3 8 -16 14 -30 14 -28 0
-63 16 -63 29 0 5 6 9 13 8 47 -1 47 -1 21 75 -28 84 -29 88 -9 62 14 -18 14
-18 15 6 2 57 49 88 61 40 11 -42 10 -170 -1 -170 -5 0 -10 -4 -10 -10 0 -5
10 -10 23 -10 12 0 31 -7 41 -15 11 -8 23 -15 26 -15 3 0 14 26 24 58 10 31
22 66 27 77 5 11 13 52 19 90 6 39 17 82 25 98 12 25 12 27 -6 27 -21 0 -25
23 -9 64 12 34 40 33 80 0 29 -25 34 -26 69 -15 54 16 54 16 46 -31 -4 -24 -7
-59 -6 -79 1 -22 -6 -45 -19 -61 -27 -35 -25 -64 10 -123 21 -36 30 -63 30
-95 l0 -46 58 -12 c32 -7 74 -12 93 -12 23 0 30 -3 20 -9 -16 -10 -3 -20 22
-16 31 5 18 -12 -14 -19 -87 -17 -206 5 -220 41 -30 80 -15 -78 18 -182 13
-44 27 -86 29 -92 2 -10 46 -13 174 -13 l170 0 0 420 0 420 -480 0 -480 0 0
-420z m800 -70 c0 -20 -25 -50 -42 -50 -5 0 -12 9 -15 20 -3 11 -9 20 -14 20
-5 0 -9 7 -9 15 0 8 5 15 10 15 6 0 10 6 10 14 0 8 6 17 13 19 15 6 47 -29 47
-53z"/>
<path d="M201 564 c0 -11 3 -14 6 -6 3 7 2 16 -1 19 -3 4 -6 -2 -5 -13z"/>
</g>
</svg>
