<?xml version="1.0" standalone="no"?>
<!DOCTYPE svg PUBLIC "-//W3C//DTD SVG 20010904//EN"
 "http://www.w3.org/TR/2001/REC-SVG-20010904/DTD/svg10.dtd">
<svg version="1.0" xmlns="http://www.w3.org/2000/svg"
 width="96.000000pt" height="84.000000pt" viewBox="0 0 96.000000 84.000000"
 preserveAspectRatio="xMidYMid meet">
<metadata>
Created by potrace 1.16, written by Peter Selinger 2001-2019
</metadata>
<g transform="translate(0.000000,84.000000) scale(0.100000,-0.100000)"
fill="#000000" stroke="none">
<path d="M0 420 l0 -420 173 0 172 0 22 78 c11 42 24 88 28 101 6 17 5 22 -3
17 -7 -4 -12 -1 -12 9 0 8 -7 18 -15 21 -8 4 -15 14 -15 23 0 18 -102 87 -163
111 -22 8 -38 20 -38 25 1 10 5 11 44 14 15 1 18 4 9 9 -23 15 -31 108 -13
147 18 41 33 44 55 10 22 -34 22 -141 0 -153 -9 -5 -14 -15 -10 -21 4 -6 12
-8 18 -5 5 4 23 -4 40 -16 16 -12 31 -20 32 -18 10 13 36 98 36 115 0 12 4 23
10 25 5 2 14 36 20 76 5 40 17 86 25 103 15 28 15 29 -10 29 -28 0 -31 11 -14
59 13 38 31 39 82 4 34 -24 41 -25 71 -15 55 20 59 17 51 -30 -4 -24 -6 -59
-6 -79 1 -22 -6 -46 -19 -62 -23 -29 -26 -69 -7 -89 17 -18 49 -92 47 -109 -8
-57 -2 -66 53 -75 28 -4 63 -7 76 -5 13 1 31 -1 39 -4 14 -5 14 -7 2 -15 -11
-7 -8 -10 15 -10 19 0 26 -3 19 -10 -16 -16 -113 -20 -177 -8 -46 9 -61 16
-72 37 -23 45 -8 -91 22 -184 13 -44 27 -86 29 -92 2 -10 46 -13 174 -13 l170
0 0 420 0 420 -480 0 -480 0 0 -420z m806 -28 c7 -13 0 -49 -14 -69 -10 -16
-49 -6 -56 15 -3 10 -10 27 -15 39 -8 18 -7 21 5 16 10 -4 14 2 14 20 0 16 6
27 18 29 15 3 27 -9 48 -50z"/>
</g>
</svg>
