<?xml version="1.0" standalone="no"?>
<!DOCTYPE svg PUBLIC "-//W3C//DTD SVG 20010904//EN"
 "http://www.w3.org/TR/2001/REC-SVG-20010904/DTD/svg10.dtd">
<svg version="1.0" xmlns="http://www.w3.org/2000/svg"
 width="96.000000pt" height="84.000000pt" viewBox="0 0 96.000000 84.000000"
 preserveAspectRatio="xMidYMid meet">
<metadata>
Created by potrace 1.16, written by Peter Selinger 2001-2019
</metadata>
<g transform="translate(0.000000,84.000000) scale(0.100000,-0.100000)"
fill="#000000" stroke="none">
<path d="M0 420 l0 -420 174 0 174 0 7 38 c4 20 15 62 26 92 19 55 26 107 11
83 -12 -18 -45 24 -39 49 4 15 1 18 -14 13 -14 -5 -31 7 -66 42 -26 26 -61 53
-77 58 -42 14 -45 35 -6 35 27 0 31 2 20 15 -20 24 -21 96 -3 168 20 76 33 87
33 27 0 -33 3 -40 18 -38 27 5 35 -96 11 -138 -23 -38 -23 -44 -4 -44 8 0 25
-12 39 -27 19 -20 26 -23 29 -12 2 8 9 30 16 50 6 19 11 45 11 57 0 12 4 22 9
22 6 0 13 21 16 48 7 52 21 120 31 146 4 11 0 16 -14 16 -28 0 -32 9 -18 50
13 40 39 43 85 11 14 -10 35 -17 46 -15 70 13 95 16 95 13 0 -2 -5 -20 -11
-39 -13 -43 -29 -128 -36 -192 -4 -41 -2 -48 12 -48 11 0 15 -5 11 -16 -3 -8
1 -29 9 -45 9 -16 15 -35 14 -42 -7 -57 -4 -59 81 -54 59 4 82 2 87 -7 5 -7
15 -15 23 -18 9 -3 -4 -11 -30 -18 -25 -6 -54 -15 -65 -19 -11 -4 -46 -4 -78
-1 -32 3 -60 3 -63 1 -11 -12 -1 -82 22 -155 14 -45 28 -87 30 -93 2 -10 46
-13 174 -13 l170 0 0 420 0 420 -480 0 -480 0 0 -420z m760 82 c0 -5 9 -19 20
-32 23 -26 25 -50 8 -97 -10 -27 -16 -32 -36 -28 -29 5 -26 2 -41 44 -14 42
-14 54 -1 46 6 -4 10 8 10 28 0 18 3 37 7 40 9 10 33 9 33 -1z"/>
<path d="M550 295 c0 -8 4 -15 10 -15 5 0 7 7 4 15 -4 8 -8 15 -10 15 -2 0 -4
-7 -4 -15z"/>
</g>
</svg>
