<?xml version="1.0" standalone="no"?>
<!DOCTYPE svg PUBLIC "-//W3C//DTD SVG 20010904//EN"
 "http://www.w3.org/TR/2001/REC-SVG-20010904/DTD/svg10.dtd">
<svg version="1.0" xmlns="http://www.w3.org/2000/svg"
 width="96.000000pt" height="84.000000pt" viewBox="0 0 96.000000 84.000000"
 preserveAspectRatio="xMidYMid meet">
<metadata>
Created by potrace 1.16, written by Peter Selinger 2001-2019
</metadata>
<g transform="translate(0.000000,84.000000) scale(0.100000,-0.100000)"
fill="#000000" stroke="none">
<path d="M0 420 l0 -420 174 0 174 0 6 35 c4 20 16 62 26 95 17 53 17 63 5 87
-8 16 -15 24 -15 18 0 -5 -6 -1 -12 9 -8 15 -8 21 0 24 7 2 12 13 12 25 l0 21
-16 -22 c-24 -35 -46 -27 -74 25 -14 26 -24 51 -23 55 2 4 -13 14 -32 22 -43
18 -45 35 -5 43 21 4 27 9 21 17 -8 10 -20 77 -21 120 -1 23 18 37 45 34 11
-1 26 1 33 5 15 10 14 13 17 -53 4 -55 -15 -120 -34 -120 -19 0 -12 -18 10
-23 11 -3 23 -15 26 -26 3 -12 8 -21 12 -21 8 0 31 73 31 99 0 11 4 21 10 23
5 2 15 39 21 83 17 115 17 120 -3 117 -21 -3 -24 30 -8 72 8 23 12 25 37 15
15 -6 35 -17 43 -24 16 -15 43 -13 100 4 19 6 36 11 37 11 2 0 3 -14 3 -31 0
-33 -17 -72 -28 -65 -4 2 -7 -30 -6 -73 1 -112 2 -121 20 -121 11 0 15 -6 11
-20 -3 -11 -1 -33 4 -48 4 -15 11 -40 14 -56 l6 -29 21 22 c11 12 26 20 34 17
7 -3 16 -1 19 4 8 13 65 13 65 1 0 -5 3 -16 6 -24 3 -10 -3 -17 -21 -21 -14
-4 -49 -23 -76 -42 -28 -20 -57 -33 -65 -30 -50 19 -56 -30 -18 -148 14 -45
28 -87 30 -93 2 -10 46 -13 174 -13 l170 0 0 420 0 420 -480 0 -480 0 0 -420z
m741 120 c31 -52 33 -61 18 -103 -11 -34 -19 -43 -41 -45 -24 -3 -28 1 -38 39
-10 37 -9 48 9 83 13 26 17 44 11 51 -6 7 -5 16 3 24 9 9 14 7 20 -11 5 -13
13 -30 18 -38z"/>
<path d="M560 290 c0 -5 5 -10 10 -10 6 0 10 5 10 10 0 6 -4 10 -10 10 -5 0
-10 -4 -10 -10z"/>
</g>
</svg>
