<?xml version="1.0" standalone="no"?>
<!DOCTYPE svg PUBLIC "-//W3C//DTD SVG 20010904//EN"
 "http://www.w3.org/TR/2001/REC-SVG-20010904/DTD/svg10.dtd">
<svg version="1.0" xmlns="http://www.w3.org/2000/svg"
 width="96.000000pt" height="84.000000pt" viewBox="0 0 96.000000 84.000000"
 preserveAspectRatio="xMidYMid meet">
<metadata>
Created by potrace 1.16, written by Peter Selinger 2001-2019
</metadata>
<g transform="translate(0.000000,84.000000) scale(0.100000,-0.100000)"
fill="#000000" stroke="none">
<path d="M564 825 c-3 -8 -1 -28 4 -45 7 -18 7 -30 2 -30 -22 0 -90 -74 -100
-108 -18 -66 -13 -98 20 -125 19 -16 28 -31 24 -41 -3 -9 4 -32 17 -52 12 -20
23 -47 25 -59 1 -13 5 -37 9 -54 4 -17 4 -45 0 -62 -6 -26 -10 -30 -31 -25
-21 6 -24 3 -24 -21 0 -24 -2 -23 -31 21 -18 26 -33 63 -35 83 -4 44 -18 61
-52 65 -41 5 -82 -36 -82 -81 0 -42 33 -101 56 -101 11 0 14 -5 9 -17 -6 -17
-17 -71 -29 -140 l-5 -33 104 0 c90 0 104 2 108 18 4 16 5 16 6 0 1 -16 15
-18 136 -18 127 0 135 1 135 19 0 11 9 23 20 26 11 3 20 13 20 21 0 16 -26 19
-35 3 -15 -24 -30 2 -45 79 -16 84 -16 100 0 59 8 -20 9 -19 9 9 1 17 4 46 7
64 l7 32 13 -28 c12 -26 13 -26 8 -4 -6 23 -5 24 8 7 12 -16 13 -5 11 85 -4
122 -17 209 -44 298 -26 85 -48 113 -88 113 -24 0 -37 8 -52 29 -17 23 -28 28
-60 28 -26 0 -42 -5 -45 -15z"/>
</g>
</svg>
