<?xml version="1.0" standalone="no"?>
<!DOCTYPE svg PUBLIC "-//W3C//DTD SVG 20010904//EN"
 "http://www.w3.org/TR/2001/REC-SVG-20010904/DTD/svg10.dtd">
<svg version="1.0" xmlns="http://www.w3.org/2000/svg"
 width="96.000000pt" height="84.000000pt" viewBox="0 0 96.000000 84.000000"
 preserveAspectRatio="xMidYMid meet">
<metadata>
Created by potrace 1.16, written by Peter Selinger 2001-2019
</metadata>
<g transform="translate(0.000000,84.000000) scale(0.100000,-0.100000)"
fill="#000000" stroke="none">
<path d="M0 420 l0 -420 174 0 174 0 7 38 c4 20 15 62 26 92 21 61 17 123 -7
113 -8 -3 -14 1 -14 11 0 9 7 16 16 16 11 0 14 5 10 16 -3 9 -6 20 -6 25 0 5
-9 0 -20 -11 -27 -27 -36 -20 -69 50 -15 32 -35 66 -44 75 -17 16 -23 45 -11
45 36 0 85 -27 98 -54 l15 -30 7 52 c4 34 11 52 20 52 10 0 14 14 15 48 0 26
4 68 8 95 7 44 6 48 -16 53 -25 7 -27 14 -17 63 8 37 13 38 70 9 43 -21 44
-21 99 -3 30 11 57 16 60 13 3 -3 3 -24 -1 -47 -5 -31 -11 -41 -25 -41 -13 0
-17 -5 -12 -16 6 -16 7 -34 11 -141 2 -35 5 -41 19 -36 14 5 15 1 10 -25 -4
-17 -2 -34 3 -37 6 -3 10 -15 10 -25 0 -16 3 -15 28 8 25 24 26 29 14 44 -29
34 -26 148 3 148 8 0 15 7 15 15 0 8 5 15 10 15 6 0 10 -11 10 -24 0 -15 7
-26 20 -29 13 -3 20 -14 20 -29 0 -35 -18 -91 -32 -100 -9 -5 -6 -8 10 -8 22
0 32 -20 10 -20 -10 0 -10 -2 0 -8 9 -6 6 -14 -11 -29 -13 -11 -34 -41 -46
-67 -15 -31 -29 -46 -42 -46 -10 0 -19 -5 -19 -11 0 -6 -10 -9 -23 -7 -23 4
-23 3 -16 -41 4 -25 17 -77 29 -116 12 -38 23 -76 25 -82 3 -10 47 -13 175
-13 l170 0 0 420 0 420 -480 0 -480 0 0 -420z m330 221 c0 -9 7 -26 15 -38 14
-20 14 -27 -1 -74 -19 -58 -36 -69 -65 -43 -18 16 -20 26 -14 70 4 33 2 55 -4
59 -6 3 -11 15 -11 26 0 11 4 18 9 15 4 -3 17 1 27 8 22 16 44 4 44 -23z"/>
<path d="M580 295 c0 -8 4 -15 10 -15 5 0 7 7 4 15 -4 8 -8 15 -10 15 -2 0 -4
-7 -4 -15z"/>
</g>
</svg>
