<?xml version="1.0" standalone="no"?>
<!DOCTYPE svg PUBLIC "-//W3C//DTD SVG 20010904//EN"
 "http://www.w3.org/TR/2001/REC-SVG-20010904/DTD/svg10.dtd">
<svg version="1.0" xmlns="http://www.w3.org/2000/svg"
 width="96.000000pt" height="84.000000pt" viewBox="0 0 96.000000 84.000000"
 preserveAspectRatio="xMidYMid meet">
<metadata>
Created by potrace 1.16, written by Peter Selinger 2001-2019
</metadata>
<g transform="translate(0.000000,84.000000) scale(0.100000,-0.100000)"
fill="#000000" stroke="none">
<path d="M0 420 l0 -420 174 0 173 0 7 33 c3 17 16 62 27 98 23 70 20 119 -6
119 -8 0 -15 7 -15 15 0 8 7 15 15 15 17 0 18 6 5 35 -5 11 -9 14 -9 8 -1 -7
-9 -13 -19 -13 -13 0 -25 17 -41 58 -43 106 -46 112 -55 112 -6 0 -5 5 1 11
12 12 70 -13 89 -39 9 -12 11 -11 10 9 -1 18 4 23 17 21 14 -2 17 6 17 55 1
32 5 77 9 100 7 38 6 42 -13 45 -17 2 -22 11 -24 46 -3 37 -1 42 17 42 11 0
36 -8 56 -17 33 -16 38 -16 83 0 68 25 72 23 72 -28 0 -39 -3 -45 -21 -45 -15
0 -19 -5 -15 -17 3 -10 8 -55 12 -100 5 -67 9 -80 22 -76 12 5 14 1 10 -21 -6
-32 8 -45 17 -16 3 11 13 20 21 20 8 0 14 5 14 10 0 6 -6 10 -12 10 -7 0 -21
13 -30 30 -14 24 -15 40 -8 91 9 61 19 85 27 62 2 -7 11 -9 19 -6 8 3 14 0 14
-6 0 -18 18 -13 23 7 3 9 5 -17 6 -58 1 -54 -4 -82 -15 -98 -14 -21 -14 -22
10 -22 24 0 24 0 8 -32 -9 -18 -26 -60 -38 -93 -19 -53 -24 -60 -47 -58 -19 1
-24 -2 -20 -13 3 -8 9 -14 14 -14 5 0 9 -6 9 -14 0 -10 -8 -13 -25 -10 -23 4
-25 1 -25 -32 0 -20 12 -73 26 -118 14 -45 28 -87 30 -93 2 -10 46 -13 174
-13 l170 0 0 420 0 420 -480 0 -480 0 0 -420z m367 232 c7 -12 8 -36 1 -77
-11 -71 -13 -75 -42 -75 -17 0 -27 9 -37 33 -17 40 -17 57 -2 82 7 11 13 32
13 47 0 25 2 26 28 17 15 -5 32 -17 39 -27z"/>
</g>
</svg>
