<?xml version="1.0" standalone="no"?>
<!DOCTYPE svg PUBLIC "-//W3C//DTD SVG 20010904//EN"
 "http://www.w3.org/TR/2001/REC-SVG-20010904/DTD/svg10.dtd">
<svg version="1.0" xmlns="http://www.w3.org/2000/svg"
 width="96.000000pt" height="84.000000pt" viewBox="0 0 96.000000 84.000000"
 preserveAspectRatio="xMidYMid meet">
<metadata>
Created by potrace 1.16, written by Peter Selinger 2001-2019
</metadata>
<g transform="translate(0.000000,84.000000) scale(0.100000,-0.100000)"
fill="#000000" stroke="none">
<path d="M0 420 l0 -420 173 0 172 0 24 83 c14 45 25 99 25 120 0 20 4 37 8
37 4 0 8 5 8 10 0 6 -11 8 -25 6 -17 -3 -25 0 -25 10 0 8 5 14 10 14 21 0 10
39 -11 42 -17 2 -27 17 -42 63 -31 93 -41 115 -51 115 -6 0 -5 5 1 11 9 9 19
8 39 -6 16 -10 41 -20 56 -21 l28 -4 0 68 c0 37 4 82 9 100 10 33 6 38 -17 24
-7 -5 -10 -16 -6 -25 3 -10 3 -42 -1 -72 -6 -52 -8 -55 -34 -55 -19 0 -32 8
-40 23 -14 27 -11 133 4 130 7 -1 9 12 7 33 -4 36 12 46 36 22 9 -9 12 -7 12
9 0 31 13 35 62 18 54 -19 69 -19 104 0 39 20 64 19 64 -3 0 -23 19 -42 42
-42 10 0 18 -5 18 -10 0 -6 6 -9 13 -8 8 2 12 -11 13 -40 0 -23 4 -45 7 -48 3
-4 0 -22 -8 -41 -20 -47 -19 -52 6 -46 l20 6 -20 -37 c-12 -20 -20 -40 -19
-44 4 -11 -24 -106 -35 -120 -5 -7 -18 -10 -28 -7 -14 5 -19 1 -19 -14 0 -12
7 -21 15 -21 21 0 19 -30 -2 -31 -10 -1 -22 -1 -27 0 -13 3 -1 -76 25 -166
l24 -83 173 0 172 0 0 420 0 420 -480 0 -480 0 0 -420z"/>
<path d="M554 663 c3 -10 8 -55 12 -100 6 -76 8 -83 28 -83 11 0 27 4 35 9 17
11 5 32 -14 24 -11 -4 -15 2 -15 24 0 16 -5 34 -12 41 -9 9 -9 21 0 50 16 52
16 52 -14 52 -19 0 -24 -4 -20 -17z"/>
<path d="M391 294 c0 -11 3 -14 6 -6 3 7 2 16 -1 19 -3 4 -6 -2 -5 -13z"/>
</g>
</svg>
