<?xml version="1.0" standalone="no"?>
<!DOCTYPE svg PUBLIC "-//W3C//DTD SVG 20010904//EN"
 "http://www.w3.org/TR/2001/REC-SVG-20010904/DTD/svg10.dtd">
<svg version="1.0" xmlns="http://www.w3.org/2000/svg"
 width="96.000000pt" height="84.000000pt" viewBox="0 0 96.000000 84.000000"
 preserveAspectRatio="xMidYMid meet">
<metadata>
Created by potrace 1.16, written by Peter Selinger 2001-2019
</metadata>
<g transform="translate(0.000000,84.000000) scale(0.100000,-0.100000)"
fill="#000000" stroke="none">
<path d="M0 420 l0 -420 173 0 173 0 27 88 c15 48 28 102 29 121 3 29 0 34
-19 36 -27 2 -43 16 -25 22 6 3 12 16 12 29 0 14 -4 23 -9 20 -17 -11 -48 54
-66 141 -3 17 -13 37 -21 43 -7 7 -11 16 -9 21 7 10 75 -21 75 -33 0 -5 4 -6
10 -3 5 3 10 1 10 -4 0 -6 7 -11 15 -11 10 0 15 10 15 29 0 28 -2 29 -35 24
-30 -5 -36 -2 -46 21 -7 14 -15 26 -19 26 -6 0 -7 144 -2 173 4 18 22 -6 22
-29 0 -13 5 -24 11 -24 16 0 38 31 39 53 0 21 13 21 72 0 44 -15 50 -15 85 0
21 9 47 18 58 19 11 2 25 12 32 23 l12 20 2 -20 c0 -11 0 -41 -1 -67 -1 -27 1
-48 4 -48 3 0 14 17 25 38 l20 37 1 -32 c0 -18 5 -33 10 -33 15 0 12 -51 -5
-100 -8 -23 -15 -44 -15 -46 0 -2 7 -4 15 -4 17 0 19 -12 5 -26 -5 -5 -14 -34
-20 -63 -21 -113 -29 -131 -55 -131 -21 0 -25 -5 -25 -31 0 -17 4 -28 10 -24
6 3 10 -3 10 -14 0 -15 -6 -19 -25 -17 -16 2 -22 -1 -17 -8 3 -6 5 -19 4 -28
-2 -9 9 -55 24 -102 l26 -86 174 0 174 0 0 420 0 420 -480 0 -480 0 0 -420z
m337 308 c-3 -7 -5 -2 -5 12 0 14 2 19 5 13 2 -7 2 -19 0 -25z"/>
<path d="M561 628 c4 -24 8 -71 9 -105 0 -35 3 -63 6 -63 3 0 18 13 34 29 29
28 31 44 4 34 -10 -4 -12 0 -8 11 4 11 2 16 -7 14 -10 -2 -14 10 -15 47 0 50
-8 75 -23 75 -5 0 -5 -19 0 -42z"/>
<path d="M381 564 c0 -11 3 -14 6 -6 3 7 2 16 -1 19 -3 4 -6 -2 -5 -13z"/>
<path d="M380 285 c0 -8 4 -15 10 -15 5 0 7 7 4 15 -4 8 -8 15 -10 15 -2 0 -4
-7 -4 -15z"/>
</g>
</svg>
