<?xml version="1.0" standalone="no"?>
<!DOCTYPE svg PUBLIC "-//W3C//DTD SVG 20010904//EN"
 "http://www.w3.org/TR/2001/REC-SVG-20010904/DTD/svg10.dtd">
<svg version="1.0" xmlns="http://www.w3.org/2000/svg"
 width="96.000000pt" height="84.000000pt" viewBox="0 0 96.000000 84.000000"
 preserveAspectRatio="xMidYMid meet">
<metadata>
Created by potrace 1.16, written by Peter Selinger 2001-2019
</metadata>
<g transform="translate(0.000000,84.000000) scale(0.100000,-0.100000)"
fill="#000000" stroke="none">
<path d="M0 420 l0 -420 177 2 176 3 18 50 c10 28 18 67 18 87 1 20 6 40 11
43 15 9 1 27 -16 21 -8 -3 -14 -1 -14 5 0 6 -5 7 -10 4 -6 -3 -10 1 -10 9 0 9
5 16 10 16 6 0 10 14 10 31 0 16 -4 28 -8 25 -16 -10 -35 13 -53 65 -10 30
-19 63 -19 74 0 11 -7 33 -15 49 -20 38 -19 39 12 31 26 -6 27 -6 10 13 -9 10
-17 27 -17 38 0 11 -7 29 -15 40 -17 22 -20 71 -4 76 6 2 11 36 12 81 l2 77
-137 0 -138 0 0 -420z"/>
<path d="M290 829 c0 -20 21 -49 35 -49 8 0 15 7 15 15 0 8 4 15 8 15 14 0 32
-23 32 -41 0 -27 30 -33 31 -6 1 18 3 17 15 -10 17 -39 45 -43 106 -16 30 13
39 24 44 50 7 35 24 36 24 2 0 -11 5 -30 11 -42 11 -20 13 -18 35 28 13 27 24
52 24 57 0 4 -85 8 -190 8 -128 0 -190 -3 -190 -11z"/>
<path d="M680 800 c0 -30 3 -38 15 -34 12 5 13 -5 11 -58 -4 -71 -22 -156 -37
-174 -8 -9 -5 -11 10 -7 25 6 25 5 4 -37 -9 -19 -17 -45 -19 -59 -1 -14 -8
-51 -16 -81 -10 -43 -18 -56 -35 -58 -20 -3 -33 -27 -33 -65 0 -10 5 -15 10
-12 6 3 10 -4 10 -15 0 -15 -5 -20 -14 -17 -24 9 -25 -52 -3 -120 l21 -63 178
0 178 0 0 420 0 420 -140 0 -140 0 0 -40z"/>
<path d="M588 513 c-19 -5 -22 -34 -8 -68 7 -18 9 -16 16 14 4 20 14 36 25 38
11 3 16 9 13 14 -5 9 -17 10 -46 2z"/>
<path d="M340 489 c0 -11 5 -17 10 -14 6 3 10 -3 10 -14 0 -31 17 -26 23 6 6
34 1 43 -24 43 -13 0 -19 -7 -19 -21z"/>
</g>
</svg>
