<?xml version="1.0" standalone="no"?>
<!DOCTYPE svg PUBLIC "-//W3C//DTD SVG 20010904//EN"
 "http://www.w3.org/TR/2001/REC-SVG-20010904/DTD/svg10.dtd">
<svg version="1.0" xmlns="http://www.w3.org/2000/svg"
 width="96.000000pt" height="84.000000pt" viewBox="0 0 96.000000 84.000000"
 preserveAspectRatio="xMidYMid meet">
<metadata>
Created by potrace 1.16, written by Peter Selinger 2001-2019
</metadata>
<g transform="translate(0.000000,84.000000) scale(0.100000,-0.100000)"
fill="#000000" stroke="none">
<path d="M0 420 l0 -420 184 0 c208 0 196 -5 196 86 0 22 5 45 10 50 7 7 4 10
-12 9 -22 -2 -38 10 -38 29 0 4 7 6 15 2 12 -4 15 4 15 39 0 38 -3 45 -19 45
-11 0 -23 6 -28 13 -14 22 -42 111 -43 134 0 12 -9 39 -21 60 -15 26 -20 49
-17 77 3 23 -1 58 -9 80 -21 62 -17 117 10 141 22 18 47 56 47 69 0 3 -65 6
-145 6 l-145 0 0 -420z"/>
<path d="M391 798 c6 -23 8 -47 5 -55 -7 -16 44 -43 82 -43 16 0 37 9 47 20
10 11 21 17 26 15 15 -10 20 35 8 70 l-13 35 -82 0 -82 0 9 -42z"/>
<path d="M714 809 c34 -40 37 -116 6 -144 -21 -19 -27 -45 -9 -45 12 0 10
-118 -3 -126 -12 -7 -31 -53 -34 -79 -4 -45 -28 -141 -37 -152 -5 -7 -18 -13
-28 -13 -14 0 -19 -7 -19 -27 0 -16 -3 -38 -6 -51 -5 -18 -3 -21 10 -16 12 4
16 0 16 -15 0 -15 -5 -21 -17 -19 -14 2 -19 -5 -21 -33 -2 -19 2 -47 7 -62
l11 -27 185 0 185 0 0 420 0 420 -136 0 -136 0 26 -31z"/>
<path d="M600 491 c0 -6 5 -13 10 -16 6 -3 10 1 10 9 0 9 -4 16 -10 16 -5 0
-10 -4 -10 -9z"/>
<path d="M580 440 c0 -22 5 -40 10 -40 6 0 10 18 10 40 0 22 -4 40 -10 40 -5
0 -10 -18 -10 -40z"/>
<path d="M350 458 c0 -25 12 -58 21 -58 5 0 9 16 9 35 0 24 -5 35 -15 35 -8 0
-15 -6 -15 -12z"/>
</g>
</svg>
