<?xml version="1.0" standalone="no"?>
<!DOCTYPE svg PUBLIC "-//W3C//DTD SVG 20010904//EN"
 "http://www.w3.org/TR/2001/REC-SVG-20010904/DTD/svg10.dtd">
<svg version="1.0" xmlns="http://www.w3.org/2000/svg"
 width="96.000000pt" height="84.000000pt" viewBox="0 0 96.000000 84.000000"
 preserveAspectRatio="xMidYMid meet">
<metadata>
Created by potrace 1.16, written by Peter Selinger 2001-2019
</metadata>
<g transform="translate(0.000000,84.000000) scale(0.100000,-0.100000)"
fill="#000000" stroke="none">
<path d="M0 420 l0 -420 189 0 188 0 -5 25 c-2 14 -11 25 -18 25 -8 0 -14 9
-14 20 0 11 5 20 10 20 11 0 13 62 4 97 -3 11 -14 23 -25 26 -10 3 -23 16 -27
29 -30 79 -35 96 -37 126 -1 18 -7 38 -14 45 -6 6 -11 15 -11 21 0 5 -15 22
-32 36 -28 24 -31 30 -19 44 7 9 11 27 9 41 -3 14 -1 28 4 31 11 7 3 51 -19
112 -11 28 -14 58 -10 92 l6 50 -89 0 -90 0 0 -420z"/>
<path d="M393 800 c6 -22 17 -40 24 -40 7 0 13 5 13 10 0 6 7 10 16 10 14 0
15 -8 9 -56 l-7 -55 34 3 33 3 1 83 c1 80 1 82 -22 82 -16 0 -24 -6 -24 -17
-1 -17 -1 -17 -14 0 -7 9 -26 17 -43 17 l-30 0 10 -40z"/>
<path d="M760 796 c0 -26 -6 -48 -15 -56 -10 -8 -15 -30 -15 -64 0 -50 1 -51
18 -29 17 22 17 21 19 -47 2 -59 -1 -71 -18 -83 -12 -9 -17 -20 -13 -31 4 -10
0 -18 -10 -22 -9 -3 -16 -12 -16 -19 0 -8 -6 -20 -13 -27 -6 -7 -13 -26 -13
-43 -1 -16 -7 -59 -15 -94 -11 -53 -18 -67 -41 -80 -24 -14 -28 -22 -28 -63 0
-36 4 -48 15 -48 16 0 19 -9 9 -34 -3 -8 -12 -12 -20 -9 -8 3 -14 1 -14 -5 0
-6 -3 -17 -6 -26 -5 -14 15 -16 185 -16 l191 0 0 420 0 420 -100 0 -100 0 0
-44z"/>
<path d="M591 794 c0 -11 3 -14 6 -6 3 7 2 16 -1 19 -3 4 -6 -2 -5 -13z"/>
<path d="M587 444 c-3 -11 -2 -37 2 -59 l7 -40 7 49 c7 49 -6 87 -16 50z"/>
<path d="M351 436 c-12 -14 -4 -76 10 -76 5 0 9 20 9 45 0 49 -2 52 -19 31z"/>
</g>
</svg>
