<?xml version="1.0" standalone="no"?>
<!DOCTYPE svg PUBLIC "-//W3C//DTD SVG 20010904//EN"
 "http://www.w3.org/TR/2001/REC-SVG-20010904/DTD/svg10.dtd">
<svg version="1.0" xmlns="http://www.w3.org/2000/svg"
 width="96.000000pt" height="84.000000pt" viewBox="0 0 96.000000 84.000000"
 preserveAspectRatio="xMidYMid meet">
<metadata>
Created by potrace 1.16, written by Peter Selinger 2001-2019
</metadata>
<g transform="translate(0.000000,84.000000) scale(0.100000,-0.100000)"
fill="#000000" stroke="none">
<path d="M0 420 l0 -420 174 0 174 0 -2 42 c-1 24 -3 58 -4 76 -1 18 -6 31
-11 28 -20 -12 -41 8 -51 48 -6 22 -18 58 -27 78 -9 22 -13 47 -9 62 4 16 2
26 -4 26 -6 0 -16 12 -22 28 -6 15 -31 46 -56 69 -46 45 -50 66 -13 71 15 3
20 9 17 20 -16 53 -17 76 -6 120 12 44 11 54 -11 110 l-24 62 -62 0 -63 0 0
-420z"/>
<path d="M170 806 c0 -61 32 -60 43 2 6 29 4 32 -18 32 -22 0 -25 -4 -25 -34z"/>
<path d="M305 830 c3 -5 12 -7 20 -3 21 7 19 13 -6 13 -11 0 -18 -4 -14 -10z"/>
<path d="M452 775 c-6 -35 -12 -83 -12 -105 0 -38 2 -40 30 -40 17 0 30 4 30
10 0 5 8 19 17 29 15 19 17 19 29 3 15 -21 20 -16 27 31 5 31 3 37 -13 37 -21
0 -30 19 -30 66 0 32 -2 34 -33 34 -32 0 -33 -1 -45 -65z"/>
<path d="M600 830 c0 -5 4 -10 9 -10 6 0 13 5 16 10 3 6 -1 10 -9 10 -9 0 -16
-4 -16 -10z"/>
<path d="M680 831 c0 -6 5 -13 10 -16 6 -3 10 1 10 9 0 9 -4 16 -10 16 -5 0
-10 -4 -10 -9z"/>
<path d="M758 740 l3 -100 26 6 c24 6 25 5 19 -19 -4 -18 -1 -29 10 -35 23
-13 13 -45 -16 -52 -16 -4 -31 -19 -42 -40 -14 -31 -14 -37 -1 -52 12 -13 12
-18 1 -25 -22 -13 -53 -66 -54 -93 -2 -31 -33 -159 -43 -180 -5 -8 -18 -16
-30 -18 -19 -3 -21 -10 -21 -66 l0 -64 175 -1 175 -2 0 420 0 421 -102 0 -103
0 3 -100z"/>
<path d="M590 768 c0 -16 5 -28 10 -28 13 0 13 20 0 40 -8 12 -10 9 -10 -12z"/>
<path d="M590 377 c0 -90 15 -103 23 -20 4 41 2 62 -9 77 -13 19 -14 13 -14
-57z"/>
<path d="M336 397 c-15 -11 -16 -17 -7 -35 6 -11 11 -30 11 -41 0 -12 5 -21
10 -21 6 0 10 25 10 55 0 30 -1 55 -3 55 -2 0 -11 -6 -21 -13z"/>
</g>
</svg>
