<?xml version="1.0" standalone="no"?>
<!DOCTYPE svg PUBLIC "-//W3C//DTD SVG 20010904//EN"
 "http://www.w3.org/TR/2001/REC-SVG-20010904/DTD/svg10.dtd">
<svg version="1.0" xmlns="http://www.w3.org/2000/svg"
 width="96.000000pt" height="84.000000pt" viewBox="0 0 96.000000 84.000000"
 preserveAspectRatio="xMidYMid meet">
<metadata>
Created by potrace 1.16, written by Peter Selinger 2001-2019
</metadata>
<g transform="translate(0.000000,84.000000) scale(0.100000,-0.100000)"
fill="#000000" stroke="none">
<path d="M0 420 l0 -420 165 0 165 0 0 34 c0 29 -4 34 -30 39 -22 5 -31 13
-35 34 -4 15 -15 54 -27 87 -11 32 -18 69 -15 82 3 16 -4 30 -19 45 -13 13
-24 28 -24 34 0 6 -11 22 -24 34 -20 19 -23 30 -19 57 5 30 3 34 -16 34 -11 0
-21 5 -21 10 0 6 -12 15 -26 20 -14 6 -22 14 -19 20 9 14 48 12 64 -3 10 -10
11 -7 7 13 -2 14 -8 71 -11 127 -4 78 -2 110 9 137 l15 36 -70 0 -69 0 0 -420z"/>
<path d="M390 810 c0 -20 5 -30 15 -30 8 0 15 6 15 14 0 8 3 21 6 30 4 12 0
16 -15 16 -17 0 -21 -6 -21 -30z"/>
<path d="M451 807 c2 -18 0 -37 -3 -43 -4 -5 -8 -48 -9 -94 l-2 -85 39 0 c38
0 39 1 37 35 0 19 -4 49 -9 65 -7 27 -6 29 9 16 15 -12 17 -10 17 14 0 27 1
28 19 11 11 -10 21 -32 23 -50 5 -51 23 -26 20 29 -2 35 3 61 17 90 12 21 21
41 21 42 0 2 -41 3 -91 3 l-91 0 3 -33z"/>
<path d="M710 833 c1 -5 7 -19 15 -33 l14 -25 1 33 c0 22 -5 32 -15 32 -8 0
-15 -3 -15 -7z"/>
<path d="M801 756 c4 -88 11 -108 31 -88 21 21 30 13 23 -19 -6 -28 -5 -30 14
-24 18 5 21 2 21 -25 0 -33 -26 -53 -40 -30 -5 8 -10 1 -15 -21 -4 -19 -18
-56 -32 -82 -17 -34 -21 -52 -14 -65 10 -18 10 -18 -46 -77 -15 -16 -26 -37
-24 -45 4 -19 -39 -201 -52 -217 -5 -7 -18 -13 -28 -13 -14 0 -19 -7 -19 -25
l0 -25 170 0 170 0 0 420 0 420 -81 0 -81 0 3 -84z"/>
<path d="M594 366 c3 -27 7 -70 7 -95 l2 -46 8 45 c12 70 10 105 -7 126 -14
18 -15 16 -10 -30z"/>
<path d="M351 382 c-1 -15 -9 -26 -22 -29 -16 -4 -19 -11 -14 -27 4 -11 9 -36
12 -53 3 -18 9 -33 13 -33 10 0 24 120 17 146 -4 16 -5 15 -6 -4z"/>
</g>
</svg>
