<?xml version="1.0" standalone="no"?>
<!DOCTYPE svg PUBLIC "-//W3C//DTD SVG 20010904//EN"
 "http://www.w3.org/TR/2001/REC-SVG-20010904/DTD/svg10.dtd">
<svg version="1.0" xmlns="http://www.w3.org/2000/svg"
 width="96.000000pt" height="84.000000pt" viewBox="0 0 96.000000 84.000000"
 preserveAspectRatio="xMidYMid meet">
<metadata>
Created by potrace 1.16, written by Peter Selinger 2001-2019
</metadata>
<g transform="translate(0.000000,84.000000) scale(0.100000,-0.100000)"
fill="#000000" stroke="none">
<path d="M0 420 l0 -420 136 0 c108 0 134 3 126 13 -5 6 -15 32 -21 57 -7 25
-19 62 -28 82 -8 20 -13 49 -10 64 4 21 -1 32 -18 46 -13 10 -27 28 -31 40 -4
12 -24 38 -45 58 -44 41 -48 55 -19 70 24 13 19 45 -10 70 -22 18 -41 101 -28
124 5 9 18 16 28 16 26 0 26 34 0 60 -21 21 -26 55 -10 65 6 3 10 22 10 41 0
33 -1 34 -40 34 l-40 0 0 -420z"/>
<path d="M260 830 c0 -13 34 -30 63 -30 16 0 26 7 30 20 5 18 0 20 -44 20 -27
0 -49 -4 -49 -10z"/>
<path d="M400 793 l0 -46 26 23 c21 21 27 22 35 10 5 -8 6 -24 3 -35 -4 -11
-8 -66 -9 -122 -2 -101 -1 -101 24 -106 34 -7 73 22 66 48 -3 11 -5 39 -5 62
0 33 -6 48 -27 67 -23 21 -27 32 -24 68 1 24 7 51 12 60 9 16 4 18 -46 18
l-55 0 0 -47z"/>
<path d="M538 817 c8 -28 46 -77 60 -77 11 0 22 34 22 73 0 25 -3 27 -44 27
-41 0 -44 -1 -38 -23z"/>
<path d="M845 808 c4 -18 13 -39 20 -47 11 -11 14 -6 20 30 5 29 10 38 15 28
12 -21 -14 -258 -33 -303 -9 -21 -17 -52 -17 -68 0 -20 -10 -38 -32 -58 -27
-25 -29 -30 -15 -36 27 -10 20 -28 -27 -79 -26 -27 -42 -53 -39 -62 3 -7 -2
-33 -10 -56 -13 -34 -37 -135 -37 -152 0 -3 61 -5 135 -5 l135 0 0 420 0 420
-61 0 -61 0 7 -32z"/>
<path d="M96 789 c-5 -28 -2 -47 11 -65 l17 -26 23 26 c13 15 23 40 23 55 0
23 -6 29 -34 38 l-34 10 -6 -38z"/>
<path d="M825 529 c-4 -6 0 -18 9 -27 15 -15 16 -15 16 5 0 25 -15 38 -25 22z"/>
<path d="M320 302 c-19 -15 -21 -22 -11 -40 6 -11 11 -37 11 -56 0 -34 16 -50
25 -23 7 24 11 137 4 137 -4 0 -17 -8 -29 -18z"/>
<path d="M602 270 c0 -30 4 -66 8 -80 6 -19 8 -9 8 35 0 33 -3 69 -8 80 -6 14
-9 4 -8 -35z"/>
</g>
</svg>
