<?xml version="1.0" standalone="no"?>
<!DOCTYPE svg PUBLIC "-//W3C//DTD SVG 20010904//EN"
 "http://www.w3.org/TR/2001/REC-SVG-20010904/DTD/svg10.dtd">
<svg version="1.0" xmlns="http://www.w3.org/2000/svg"
 width="96.000000pt" height="84.000000pt" viewBox="0 0 96.000000 84.000000"
 preserveAspectRatio="xMidYMid meet">
<metadata>
Created by potrace 1.16, written by Peter Selinger 2001-2019
</metadata>
<g transform="translate(0.000000,84.000000) scale(0.100000,-0.100000)"
fill="#000000" stroke="none">
<path d="M573 800 c5 -37 3 -42 -23 -55 -38 -20 -68 -59 -81 -109 -18 -61 -13
-88 22 -119 22 -20 28 -32 21 -39 -8 -8 -3 -23 17 -52 33 -47 51 -158 32 -193
-24 -46 -101 9 -101 71 0 71 -62 102 -112 57 -22 -19 -28 -33 -28 -63 0 -47
23 -94 49 -103 17 -5 17 -9 6 -43 -7 -20 -15 -63 -18 -94 l-6 -58 99 0 c69 0
100 4 103 13 4 9 6 9 6 0 1 -20 281 -18 281 1 0 8 9 17 19 21 10 3 21 15 24
25 6 24 4 24 -34 5 -34 -18 -30 -24 -53 84 -16 75 -15 104 3 60 9 -22 10 -20
12 16 2 22 2 56 2 75 l-2 35 15 -39 c18 -49 29 -61 20 -21 -6 26 -5 28 7 13
12 -15 13 -1 10 90 -5 134 -16 207 -47 300 -28 85 -49 112 -87 112 -19 0 -34
8 -45 25 -14 21 -24 25 -66 25 l-51 0 6 -40z"/>
</g>
</svg>
