<?xml version="1.0" standalone="no"?>
<!DOCTYPE svg PUBLIC "-//W3C//DTD SVG 20010904//EN"
 "http://www.w3.org/TR/2001/REC-SVG-20010904/DTD/svg10.dtd">
<svg version="1.0" xmlns="http://www.w3.org/2000/svg"
 width="96.000000pt" height="84.000000pt" viewBox="0 0 96.000000 84.000000"
 preserveAspectRatio="xMidYMid meet">
<metadata>
Created by potrace 1.16, written by Peter Selinger 2001-2019
</metadata>
<g transform="translate(0.000000,84.000000) scale(0.100000,-0.100000)"
fill="#000000" stroke="none">
<path d="M0 420 l0 -420 114 0 115 0 -9 28 c-4 15 -15 43 -23 63 -9 20 -13 46
-10 58 4 16 -1 27 -17 38 -12 9 -28 31 -36 49 -8 19 -19 34 -24 34 -6 0 -10 9
-10 19 0 11 -19 36 -42 55 l-42 36 22 23 c27 29 28 71 2 122 -14 28 -20 59
-20 106 0 68 8 84 44 90 11 2 23 16 27 31 4 15 17 41 29 58 l21 30 -70 0 -71
0 0 -420z"/>
<path d="M373 770 c6 -38 14 -70 18 -70 5 0 9 -9 9 -21 0 -12 5 -19 13 -17 8
3 13 33 15 91 l3 87 -34 0 -33 0 9 -70z"/>
<path d="M500 823 c0 -9 -4 -30 -9 -47 -17 -56 -34 -146 -29 -152 12 -12 58 9
58 26 0 11 4 21 9 25 6 3 9 27 9 53 -1 26 4 57 10 67 10 19 11 18 22 -9 13
-34 15 -33 24 17 l7 37 -51 0 c-40 0 -50 -3 -50 -17z"/>
<path d="M826 824 c-9 -23 -7 -54 2 -54 9 0 32 44 32 60 0 16 -27 11 -34 -6z"/>
<path d="M938 778 c-2 -35 -1 -94 0 -131 3 -74 -7 -98 -38 -90 -14 4 -20 14
-20 34 0 34 -15 38 -30 9 -15 -27 -3 -60 20 -60 31 0 35 -43 11 -118 -13 -37
-32 -77 -44 -90 -16 -17 -18 -25 -9 -34 7 -7 12 -19 12 -26 0 -20 -68 -102
-84 -102 -7 0 -12 -15 -12 -37 -1 -21 -8 -59 -17 -85 l-16 -48 124 0 125 0 0
420 c0 273 -3 420 -10 420 -5 0 -11 -28 -12 -62z"/>
<path d="M514 591 c-3 -15 -17 -41 -30 -57 -23 -28 -24 -28 -39 -10 -8 11 -16
18 -18 15 -2 -2 -11 -16 -20 -31 -17 -27 -17 -28 10 -41 24 -11 57 -14 103 -8
6 0 10 10 10 21 0 10 7 23 16 28 15 8 15 15 4 61 -13 57 -28 66 -36 22z"/>
<path d="M305 193 c2 -10 7 -35 10 -57 8 -48 20 -36 29 27 5 45 4 47 -18 47
-18 0 -23 -5 -21 -17z"/>
<path d="M613 160 c0 -30 2 -43 4 -28 2 16 2 40 0 56 -2 15 -4 2 -4 -28z"/>
</g>
</svg>
