<?xml version="1.0" standalone="no"?>
<!DOCTYPE svg PUBLIC "-//W3C//DTD SVG 20010904//EN"
 "http://www.w3.org/TR/2001/REC-SVG-20010904/DTD/svg10.dtd">
<svg version="1.0" xmlns="http://www.w3.org/2000/svg"
 width="96.000000pt" height="84.000000pt" viewBox="0 0 96.000000 84.000000"
 preserveAspectRatio="xMidYMid meet">
<metadata>
Created by potrace 1.16, written by Peter Selinger 2001-2019
</metadata>
<g transform="translate(0.000000,84.000000) scale(0.100000,-0.100000)"
fill="#000000" stroke="none">
<path d="M110 826 c0 -8 5 -18 10 -21 6 -3 10 -16 10 -28 0 -12 4 -29 10 -37
13 -21 29 25 23 68 -4 26 -10 32 -29 32 -14 0 -24 -6 -24 -14z"/>
<path d="M380 822 c0 -11 8 -27 19 -36 11 -10 21 -38 25 -69 4 -28 12 -57 18
-64 6 -8 9 -37 5 -73 -4 -52 -2 -62 13 -70 26 -14 30 -13 30 9 0 11 4 22 9 25
4 3 11 -22 14 -55 6 -70 18 -89 45 -73 18 12 19 34 7 120 -6 40 -13 54 -31 62
-20 10 -23 8 -27 -11 -2 -12 -5 1 -6 29 -1 34 -8 60 -21 76 -24 32 -40 97 -29
126 8 20 5 22 -31 22 -32 0 -40 -4 -40 -18z"/>
<path d="M820 821 c0 -11 5 -32 11 -48 8 -22 12 -25 20 -13 7 11 8 8 4 -11
-10 -42 18 -96 59 -113 20 -8 36 -22 36 -31 0 -8 -13 -41 -30 -72 -23 -42 -30
-69 -30 -112 -1 -31 -7 -67 -15 -81 -8 -14 -14 -33 -15 -43 0 -9 -13 -38 -30
-65 l-29 -47 29 -9 c22 -7 30 -15 30 -32 0 -13 -3 -24 -8 -24 -4 0 -12 -10
-17 -22 -6 -13 -24 -32 -42 -43 -18 -11 -32 -28 -33 -37 0 -16 11 -18 100 -18
l100 0 0 420 0 420 -70 0 c-63 0 -70 -2 -70 -19z"/>
<path d="M0 373 l0 -373 85 0 c80 0 85 1 85 21 0 12 -11 30 -25 41 -31 24 -70
102 -61 123 3 8 12 15 21 15 21 0 19 13 -10 56 -14 20 -25 47 -25 59 0 13 -11
43 -25 66 -21 37 -25 57 -25 130 0 74 3 88 20 104 27 25 24 83 -5 99 -11 6
-23 16 -27 21 -4 6 -8 -158 -8 -362z"/>
<path d="M420 479 c0 -11 4 -18 10 -14 5 3 7 12 3 20 -7 21 -13 19 -13 -6z"/>
<path d="M608 194 c-8 -16 4 -174 13 -168 5 3 9 14 9 24 0 10 8 33 18 50 13
25 14 34 5 37 -7 3 -13 10 -13 17 0 18 -26 51 -32 40z"/>
<path d="M310 180 c-8 -5 -32 -10 -52 -10 -28 0 -38 -4 -38 -16 0 -11 6 -15
20 -11 12 3 20 0 20 -7 0 -7 9 -23 20 -36 11 -13 20 -32 20 -44 0 -12 4 -27 9
-34 15 -25 29 11 32 87 4 75 -2 89 -31 71z"/>
</g>
</svg>
