<?xml version="1.0" standalone="no"?>
<!DOCTYPE svg PUBLIC "-//W3C//DTD SVG 20010904//EN"
 "http://www.w3.org/TR/2001/REC-SVG-20010904/DTD/svg10.dtd">
<svg version="1.0" xmlns="http://www.w3.org/2000/svg"
 width="96.000000pt" height="84.000000pt" viewBox="0 0 96.000000 84.000000"
 preserveAspectRatio="xMidYMid meet">
<metadata>
Created by potrace 1.16, written by Peter Selinger 2001-2019
</metadata>
<g transform="translate(0.000000,84.000000) scale(0.100000,-0.100000)"
fill="#000000" stroke="none">
<path d="M0 788 c1 -51 1 -52 15 -28 19 34 19 80 0 80 -11 0 -15 -12 -15 -52z"/>
<path d="M467 772 c-4 -57 -2 -72 20 -114 14 -26 28 -48 32 -48 19 0 31 29 31
72 0 55 -15 93 -51 130 l-26 27 -6 -67z"/>
<path d="M904 818 c9 -12 16 -41 16 -65 0 -23 3 -44 8 -47 4 -2 6 -64 5 -138
-5 -255 -25 -339 -92 -402 -17 -17 -31 -36 -31 -43 0 -11 -10 -13 -43 -8 -34
5 -47 3 -69 -14 -14 -12 -31 -21 -36 -21 -6 0 -18 23 -27 50 -9 28 -20 50 -23
50 -4 0 -6 -41 -4 -91 l3 -91 62 5 c34 3 87 10 117 15 43 8 60 7 77 -4 12 -8
38 -14 58 -14 l35 0 0 420 0 420 -36 0 c-34 0 -35 -1 -20 -22z"/>
<path d="M460 641 c0 -6 4 -13 10 -16 6 -3 7 1 4 9 -7 18 -14 21 -14 7z"/>
<path d="M0 283 l0 -283 30 0 c23 0 30 4 30 20 0 11 6 23 14 26 19 7 97 -14
117 -32 12 -11 35 -14 80 -12 l64 3 3 65 3 65 -64 0 c-38 0 -71 -6 -80 -13
-13 -11 -19 -10 -36 7 -12 12 -25 21 -29 21 -5 0 -14 11 -20 24 -6 14 -18 33
-28 44 -30 35 -51 117 -57 215 -3 53 -10 104 -16 114 -7 13 -10 -62 -11 -264z"/>
<path d="M490 535 c0 -8 5 -15 10 -15 6 0 10 7 10 15 0 8 -4 15 -10 15 -5 0
-10 -7 -10 -15z"/>
<path d="M505 320 c-3 -5 -2 -10 4 -10 5 0 13 5 16 10 3 6 2 10 -4 10 -5 0
-13 -4 -16 -10z"/>
</g>
</svg>
