<?xml version="1.0" standalone="no"?>
<!DOCTYPE svg PUBLIC "-//W3C//DTD SVG 20010904//EN"
 "http://www.w3.org/TR/2001/REC-SVG-20010904/DTD/svg10.dtd">
<svg version="1.0" xmlns="http://www.w3.org/2000/svg"
 width="96.000000pt" height="84.000000pt" viewBox="0 0 96.000000 84.000000"
 preserveAspectRatio="xMidYMid meet">
<metadata>
Created by potrace 1.16, written by Peter Selinger 2001-2019
</metadata>
<g transform="translate(0.000000,84.000000) scale(0.100000,-0.100000)"
fill="#000000" stroke="none">
<path d="M245 830 c-8 -12 13 -52 24 -45 5 2 11 16 13 30 4 19 1 25 -13 25
-10 0 -21 -4 -24 -10z"/>
<path d="M502 788 c-20 -99 -22 -123 -9 -147 18 -35 30 -35 51 0 16 26 17 43
11 115 -6 71 -10 84 -24 84 -13 0 -21 -13 -29 -52z"/>
<path d="M953 765 c0 -22 2 -30 4 -17 2 12 2 30 0 40 -3 9 -5 -1 -4 -23z"/>
<path d="M96 748 c-9 -34 -7 -78 3 -78 18 0 32 30 29 61 -4 39 -23 49 -32 17z"/>
<path d="M0 621 c0 -37 2 -42 15 -31 19 16 19 31 0 56 -13 18 -14 16 -15 -25z"/>
<path d="M2 340 c0 -14 2 -19 5 -12 2 6 2 18 0 25 -3 6 -5 1 -5 -13z"/>
<path d="M493 313 c-3 -10 -12 -33 -19 -50 -12 -30 -11 -34 6 -43 15 -8 28 -7
50 5 16 9 30 17 30 18 0 2 -9 22 -20 45 -22 45 -37 53 -47 25z"/>
<path d="M0 150 l0 -150 169 0 169 0 -6 23 c-8 31 -20 37 -80 37 -86 0 -148
53 -167 143 -3 15 -17 37 -30 49 -14 12 -25 28 -25 35 0 7 -7 13 -15 13 -13 0
-15 -23 -15 -150z"/>
<path d="M950 201 c0 -39 -14 -62 -50 -81 -10 -5 -21 -22 -25 -37 -10 -43 -24
-54 -59 -48 -17 3 -64 7 -104 9 -57 2 -75 6 -87 22 -13 18 -14 16 -15 -23 l0
-43 175 0 175 0 0 120 c0 66 -2 120 -5 120 -3 0 -5 -18 -5 -39z"/>
</g>
</svg>
