<?xml version="1.0" standalone="no"?>
<!DOCTYPE svg PUBLIC "-//W3C//DTD SVG 20010904//EN"
 "http://www.w3.org/TR/2001/REC-SVG-20010904/DTD/svg10.dtd">
<svg version="1.0" xmlns="http://www.w3.org/2000/svg"
 width="96.000000pt" height="84.000000pt" viewBox="0 0 96.000000 84.000000"
 preserveAspectRatio="xMidYMid meet">
<metadata>
Created by potrace 1.16, written by Peter Selinger 2001-2019
</metadata>
<g transform="translate(0.000000,84.000000) scale(0.100000,-0.100000)"
fill="#000000" stroke="none">
<path d="M0 783 c1 -54 2 -56 14 -33 7 14 16 40 19 58 6 27 4 32 -13 32 -18 0
-20 -7 -20 -57z"/>
<path d="M0 148 l0 -148 103 0 102 1 -50 25 c-79 41 -95 60 -95 116 0 36 -8
63 -30 101 l-30 52 0 -147z"/>
<path d="M478 164 c-16 -35 5 -48 44 -28 31 16 34 24 16 42 -20 20 -48 14 -60
-14z"/>
<path d="M924 78 c-11 -13 -28 -35 -37 -50 l-17 -28 45 0 45 0 0 50 c0 55 -7
61 -36 28z"/>
<path d="M263 3 c9 -2 25 -2 35 0 9 3 1 5 -18 5 -19 0 -27 -2 -17 -5z"/>
<path d="M653 3 c9 -2 25 -2 35 0 9 3 1 5 -18 5 -19 0 -27 -2 -17 -5z"/>
</g>
</svg>
