<?xml version="1.0" standalone="no"?>
<!DOCTYPE svg PUBLIC "-//W3C//DTD SVG 20010904//EN"
 "http://www.w3.org/TR/2001/REC-SVG-20010904/DTD/svg10.dtd">
<svg version="1.0" xmlns="http://www.w3.org/2000/svg"
 width="96.000000pt" height="84.000000pt" viewBox="0 0 96.000000 84.000000"
 preserveAspectRatio="xMidYMid meet">
<metadata>
Created by potrace 1.16, written by Peter Selinger 2001-2019
</metadata>
<g transform="translate(0.000000,84.000000) scale(0.100000,-0.100000)"
fill="#000000" stroke="none">
<path d="M573 828 c18 -49 16 -53 -24 -78 -46 -28 -65 -55 -83 -113 -16 -53
-5 -94 31 -123 22 -18 25 -25 16 -35 -9 -9 -6 -21 17 -54 36 -52 52 -176 28
-209 -14 -18 -16 -17 -50 17 -29 28 -36 44 -40 86 -6 60 -7 61 -49 70 -27 5
-38 2 -61 -19 -44 -40 -43 -107 3 -152 27 -27 29 -34 20 -60 -6 -17 -14 -59
-17 -94 l-7 -64 247 0 c145 0 246 4 246 9 0 5 9 12 19 16 19 6 37 45 20 45 -5
0 -21 -7 -35 -16 -13 -9 -26 -15 -27 -13 -4 6 -37 172 -37 184 1 6 7 -1 14
-14 13 -23 13 -22 19 20 3 24 4 57 1 74 -4 26 -3 25 11 -9 19 -50 30 -60 21
-21 -6 27 -5 28 8 12 13 -16 14 -4 9 100 -3 65 -11 147 -18 183 -33 167 -66
230 -119 230 -15 0 -31 9 -38 20 -11 16 -24 20 -71 20 -43 0 -58 -3 -54 -12z"/>
</g>
</svg>
