<?xml version="1.0" standalone="no"?>
<!DOCTYPE svg PUBLIC "-//W3C//DTD SVG 20010904//EN"
 "http://www.w3.org/TR/2001/REC-SVG-20010904/DTD/svg10.dtd">
<svg version="1.0" xmlns="http://www.w3.org/2000/svg"
 width="96.000000pt" height="84.000000pt" viewBox="0 0 96.000000 84.000000"
 preserveAspectRatio="xMidYMid meet">
<metadata>
Created by potrace 1.16, written by Peter Selinger 2001-2019
</metadata>
<g transform="translate(0.000000,84.000000) scale(0.100000,-0.100000)"
fill="#000000" stroke="none">
<path d="M23 451 c-23 -19 -23 -23 -23 -235 l0 -216 75 0 75 0 0 30 c0 26 -5
31 -30 37 -17 3 -35 14 -41 24 -5 10 -13 18 -17 18 -39 -6 -42 24 -8 97 13 28
27 70 31 93 4 22 11 43 16 47 10 6 12 48 3 80 -3 12 -17 27 -30 33 -30 13 -24
14 -51 -8z"/>
<path d="M190 43 c0 -6 -3 -18 -6 -27 -3 -9 -1 -16 5 -16 17 0 25 30 12 43 -8
8 -11 8 -11 0z"/>
<path d="M240 23 c0 -22 3 -23 96 -23 l96 0 -15 23 c-13 20 -23 22 -96 22 -77
0 -81 -1 -81 -22z"/>
</g>
</svg>
