<?xml version="1.0" standalone="no"?>
<!DOCTYPE svg PUBLIC "-//W3C//DTD SVG 20010904//EN"
 "http://www.w3.org/TR/2001/REC-SVG-20010904/DTD/svg10.dtd">
<svg version="1.0" xmlns="http://www.w3.org/2000/svg"
 width="96.000000pt" height="84.000000pt" viewBox="0 0 96.000000 84.000000"
 preserveAspectRatio="xMidYMid meet">
<metadata>
Created by potrace 1.16, written by Peter Selinger 2001-2019
</metadata>
<g transform="translate(0.000000,84.000000) scale(0.100000,-0.100000)"
fill="#000000" stroke="none">
<path d="M0 420 l0 -420 74 0 74 0 4 30 c5 33 -7 50 -34 50 -9 0 -21 7 -25 15
-5 8 -21 16 -36 17 -21 2 -26 7 -24 23 6 31 22 67 56 122 36 59 41 85 11 58
-19 -18 -20 -17 -20 7 0 14 7 31 16 38 12 11 15 33 13 107 -1 52 1 96 4 99 3
3 -4 26 -15 51 -13 29 -18 56 -14 74 4 19 1 29 -7 29 -7 0 -18 9 -24 19 -16
25 -1 38 47 42 26 3 35 0 34 -11 -1 -9 9 -16 24 -17 29 -1 42 -18 42 -55 0
-15 10 -39 23 -54 21 -24 25 -25 45 -13 18 11 24 11 41 -5 19 -17 19 -17 26
37 4 30 4 70 0 88 l-7 33 -19 -23 c-18 -22 -21 -23 -38 -7 -10 9 -25 14 -34
10 -15 -5 -39 24 -36 43 5 30 -3 33 -101 33 l-100 0 0 -420z"/>
<path d="M326 585 c-8 -21 4 -95 15 -95 7 0 1 99 -6 108 -1 2 -5 -4 -9 -13z"/>
<path d="M312 272 c3 -161 2 -172 -17 -186 -11 -9 -27 -16 -36 -16 -12 0 -18
-11 -21 -35 l-4 -35 97 0 c54 0 100 4 103 9 3 5 -1 22 -9 37 -11 23 -12 43 -5
94 13 91 12 137 -4 173 -7 18 -19 51 -25 75 -7 23 -17 42 -24 42 -7 0 -23 3
-35 7 l-24 6 4 -171z"/>
<path d="M186 34 c-8 -29 -3 -39 13 -29 13 8 15 55 2 55 -5 0 -12 -12 -15 -26z"/>
</g>
</svg>
