<?xml version="1.0" standalone="no"?>
<!DOCTYPE svg PUBLIC "-//W3C//DTD SVG 20010904//EN"
 "http://www.w3.org/TR/2001/REC-SVG-20010904/DTD/svg10.dtd">
<svg version="1.0" xmlns="http://www.w3.org/2000/svg"
 width="96.000000pt" height="84.000000pt" viewBox="0 0 96.000000 84.000000"
 preserveAspectRatio="xMidYMid meet">
<metadata>
Created by potrace 1.16, written by Peter Selinger 2001-2019
</metadata>
<g transform="translate(0.000000,84.000000) scale(0.100000,-0.100000)"
fill="#000000" stroke="none">
<path d="M580 829 c0 -6 5 -19 10 -29 9 -17 6 -22 -23 -33 -62 -27 -107 -103
-107 -184 0 -23 8 -38 32 -58 25 -22 30 -30 21 -43 -8 -13 -4 -26 18 -58 46
-68 55 -208 14 -220 -18 -6 -65 85 -65 125 0 47 -17 69 -55 73 -36 4 -85 -37
-87 -73 -4 -55 4 -79 32 -108 26 -25 29 -34 21 -50 -6 -11 -15 -54 -19 -95
l-8 -75 247 -1 246 0 29 27 c34 31 18 44 -22 18 -14 -9 -27 -15 -29 -13 -1 2
-11 45 -22 95 -19 90 -17 116 5 71 10 -22 11 -21 13 12 1 19 2 53 1 75 l-2 40
15 -39 c20 -52 29 -59 21 -16 -7 35 -7 35 8 10 14 -23 15 -15 10 90 -6 140
-18 223 -46 315 -23 76 -66 132 -95 121 -10 -4 -21 1 -30 14 -11 16 -25 20
-74 20 -35 0 -59 -4 -59 -11z"/>
</g>
</svg>
