<?xml version="1.0" standalone="no"?>
<!DOCTYPE svg PUBLIC "-//W3C//DTD SVG 20010904//EN"
 "http://www.w3.org/TR/2001/REC-SVG-20010904/DTD/svg10.dtd">
<svg version="1.0" xmlns="http://www.w3.org/2000/svg"
 width="96.000000pt" height="84.000000pt" viewBox="0 0 96.000000 84.000000"
 preserveAspectRatio="xMidYMid meet">
<metadata>
Created by potrace 1.16, written by Peter Selinger 2001-2019
</metadata>
<g transform="translate(0.000000,84.000000) scale(0.100000,-0.100000)"
fill="#000000" stroke="none">
<path d="M0 420 l0 -420 75 0 c67 0 75 2 75 19 0 11 3 26 6 35 5 12 -2 18 -25
22 -17 4 -31 10 -31 14 0 4 -16 11 -35 14 -19 4 -35 12 -35 19 0 15 29 72 75
152 19 33 34 69 33 80 -1 17 -1 17 -5 -3 -2 -12 -9 -20 -14 -16 -6 3 -16 -2
-23 -12 -8 -11 -15 -13 -20 -6 -8 13 3 42 16 42 6 0 7 13 2 33 -4 17 -9 82
-11 142 -1 61 -3 122 -3 138 -1 17 -6 27 -16 27 -12 0 -14 7 -9 31 4 18 3 29
-2 26 -5 -3 -15 -2 -23 4 -10 6 2 9 38 9 39 0 52 -4 52 -15 0 -8 6 -12 13 -9
26 10 49 -21 51 -69 2 -40 8 -54 40 -86 36 -37 38 -42 41 -117 2 -45 17 -131
34 -199 17 -66 31 -131 31 -145 0 -31 -31 -60 -65 -60 -18 0 -25 -5 -25 -19 0
-11 -3 -26 -6 -35 -5 -14 8 -16 105 -16 l111 0 -15 37 c-9 21 -27 54 -40 75
-45 68 -41 213 6 225 13 4 19 14 19 32 0 15 7 36 15 48 18 26 9 58 -25 88 -37
33 -48 78 -66 268 l-7 67 -168 0 -169 0 0 -420z"/>
<path d="M184 35 c-7 -29 -1 -41 15 -30 14 8 14 55 1 55 -5 0 -12 -11 -16 -25z"/>
</g>
</svg>
