<?xml version="1.0" standalone="no"?>
<!DOCTYPE svg PUBLIC "-//W3C//DTD SVG 20010904//EN"
 "http://www.w3.org/TR/2001/REC-SVG-20010904/DTD/svg10.dtd">
<svg version="1.0" xmlns="http://www.w3.org/2000/svg"
 width="96.000000pt" height="84.000000pt" viewBox="0 0 96.000000 84.000000"
 preserveAspectRatio="xMidYMid meet">
<metadata>
Created by potrace 1.16, written by Peter Selinger 2001-2019
</metadata>
<g transform="translate(0.000000,84.000000) scale(0.100000,-0.100000)"
fill="#000000" stroke="none">
<path d="M0 420 l0 -420 75 0 75 0 0 35 c0 28 -4 35 -19 35 -10 0 -21 6 -24
14 -3 7 -19 16 -36 19 -44 9 -40 31 20 143 28 52 48 98 45 102 -4 3 -11 0 -16
-8 -6 -8 -10 -10 -10 -5 0 6 -9 -1 -20 -15 l-20 -25 0 26 c0 14 5 30 11 36 15
15 1 37 -14 25 -7 -5 -20 -9 -29 -9 -27 0 -23 58 7 116 34 69 41 201 9 201
-12 0 -14 7 -9 30 5 22 3 32 -9 36 -9 3 -16 10 -16 15 0 6 9 5 21 -2 12 -6 30
-8 41 -6 11 3 21 0 25 -9 3 -8 16 -14 29 -14 18 0 27 -9 39 -37 8 -20 13 -43
10 -52 -3 -10 13 -35 39 -64 40 -44 43 -52 39 -91 -4 -29 6 -90 31 -190 20
-81 36 -162 36 -179 0 -36 -30 -63 -66 -58 -15 1 -23 -5 -28 -21 -12 -48 -12
-48 110 -48 133 0 127 -9 73 108 -16 34 -29 68 -29 75 0 6 -16 32 -35 56 -19
24 -40 62 -46 84 -9 36 -7 48 20 113 17 41 31 84 31 97 0 12 7 33 16 45 22 32
35 127 28 200 l-6 62 -199 0 -199 0 0 -420z"/>
<path d="M181 454 c0 -11 3 -14 6 -6 3 7 2 16 -1 19 -3 4 -6 -2 -5 -13z"/>
<path d="M140 415 c0 -8 4 -15 10 -15 5 0 7 7 4 15 -4 8 -8 15 -10 15 -2 0 -4
-7 -4 -15z"/>
<path d="M184 35 c-3 -14 -4 -28 -1 -31 10 -10 27 7 27 26 0 30 -19 33 -26 5z"/>
</g>
</svg>
