<?xml version="1.0" standalone="no"?>
<!DOCTYPE svg PUBLIC "-//W3C//DTD SVG 20010904//EN"
 "http://www.w3.org/TR/2001/REC-SVG-20010904/DTD/svg10.dtd">
<svg version="1.0" xmlns="http://www.w3.org/2000/svg"
 width="96.000000pt" height="84.000000pt" viewBox="0 0 96.000000 84.000000"
 preserveAspectRatio="xMidYMid meet">
<metadata>
Created by potrace 1.16, written by Peter Selinger 2001-2019
</metadata>
<g transform="translate(0.000000,84.000000) scale(0.100000,-0.100000)"
fill="#000000" stroke="none">
<path d="M0 805 c0 -41 26 -60 71 -50 21 5 29 3 29 -7 0 -8 11 -14 27 -13 31
0 56 -39 55 -85 0 -15 7 -31 18 -38 16 -10 20 -5 39 38 21 48 21 48 66 47 59
-3 86 24 95 93 l6 50 -203 0 -203 0 0 -35z"/>
<path d="M1 598 c0 -146 2 -159 13 -128 8 19 23 51 35 71 28 48 28 135 -1 142
-16 5 -18 9 -9 25 8 15 7 22 -2 29 -37 29 -37 29 -36 -139z"/>
<path d="M263 507 c-10 -17 8 -127 38 -230 36 -126 38 -176 7 -197 -13 -8 -34
-15 -48 -15 -21 0 -26 -5 -28 -32 l-3 -33 123 0 c68 0 129 4 137 9 16 10 8 41
-11 41 -8 0 -31 23 -53 50 -22 28 -43 50 -47 50 -4 0 -15 14 -24 31 -14 28
-14 38 -3 78 25 87 8 249 -26 252 -5 0 -20 2 -33 3 -13 2 -25 -1 -29 -7z"/>
<path d="M133 422 c-7 -30 -13 -62 -13 -73 0 -11 -4 -18 -9 -14 -6 3 -15 -4
-21 -15 -10 -19 -12 -19 -40 14 -16 18 -34 44 -39 57 -7 17 -10 -41 -10 -183
l-1 -208 75 0 75 0 0 35 c0 28 -4 35 -19 35 -10 0 -21 7 -25 15 -3 9 -18 15
-36 15 -28 0 -30 2 -24 27 4 16 29 73 56 129 45 91 49 105 46 160 l-3 59 -12
-53z"/>
<path d="M88 425 c-3 -11 -9 -33 -13 -50 -6 -28 -5 -29 10 -14 11 10 15 28 13
50 -3 27 -5 30 -10 14z"/>
<path d="M184 35 c-3 -14 -4 -28 -1 -31 10 -10 27 7 27 26 0 30 -19 33 -26 5z"/>
</g>
</svg>
