<?xml version="1.0" standalone="no"?>
<!DOCTYPE svg PUBLIC "-//W3C//DTD SVG 20010904//EN"
 "http://www.w3.org/TR/2001/REC-SVG-20010904/DTD/svg10.dtd">
<svg version="1.0" xmlns="http://www.w3.org/2000/svg"
 width="96.000000pt" height="84.000000pt" viewBox="0 0 96.000000 84.000000"
 preserveAspectRatio="xMidYMid meet">
<metadata>
Created by potrace 1.16, written by Peter Selinger 2001-2019
</metadata>
<g transform="translate(0.000000,84.000000) scale(0.100000,-0.100000)"
fill="#000000" stroke="none">
<path d="M0 659 l0 -182 35 44 c34 41 36 47 30 94 -4 28 -13 54 -21 58 -9 5
-12 16 -8 33 5 19 2 24 -12 24 -26 0 -13 7 29 14 28 5 37 4 37 -7 0 -9 9 -12
29 -9 27 4 32 0 46 -34 8 -21 14 -43 11 -50 -2 -6 16 -31 40 -55 42 -41 44
-46 44 -100 0 -31 16 -118 35 -195 19 -76 35 -153 35 -169 0 -34 -30 -60 -70
-60 -21 0 -26 -5 -28 -32 l-3 -33 111 0 111 0 -6 32 c-3 18 -7 54 -9 80 -1 26
-9 55 -18 65 -9 10 -19 29 -23 43 -4 14 -20 48 -35 76 l-28 50 19 148 c11 82
26 164 34 183 8 19 18 63 21 99 l7 64 -207 0 -206 0 0 -181z"/>
<path d="M131 430 c-8 -25 -14 -57 -14 -72 0 -17 -6 -28 -14 -28 -7 0 -16 -7
-19 -15 -4 -8 -10 -15 -15 -15 -16 0 -10 31 11 57 11 14 20 35 20 47 0 18 -3
17 -19 -10 -17 -29 -51 -43 -51 -21 0 5 -7 4 -15 -3 -12 -10 -15 -45 -15 -191
l0 -179 75 0 75 0 0 35 c0 28 -4 35 -19 35 -10 0 -21 6 -24 14 -4 9 -15 12
-32 8 -26 -4 -26 -4 -19 33 4 21 27 80 51 131 40 84 44 100 41 156 l-3 63 -14
-45z"/>
<path d="M178 447 c-3 -19 -2 -25 4 -19 6 6 8 18 6 28 -3 14 -5 12 -10 -9z"/>
<path d="M187 44 c-10 -11 -8 -44 2 -44 6 0 13 4 16 10 8 12 -9 43 -18 34z"/>
</g>
</svg>
