<?xml version="1.0" standalone="no"?>
<!DOCTYPE svg PUBLIC "-//W3C//DTD SVG 20010904//EN"
 "http://www.w3.org/TR/2001/REC-SVG-20010904/DTD/svg10.dtd">
<svg version="1.0" xmlns="http://www.w3.org/2000/svg"
 width="96.000000pt" height="84.000000pt" viewBox="0 0 96.000000 84.000000"
 preserveAspectRatio="xMidYMid meet">
<metadata>
Created by potrace 1.16, written by Peter Selinger 2001-2019
</metadata>
<g transform="translate(0.000000,84.000000) scale(0.100000,-0.100000)"
fill="#000000" stroke="none">
<path d="M0 791 c0 -44 2 -49 26 -55 15 -4 32 -2 37 3 15 15 27 14 27 -2 0 -9
9 -12 28 -9 25 3 30 -1 46 -36 10 -22 15 -45 11 -51 -4 -7 14 -30 41 -55 46
-43 47 -46 45 -98 -1 -33 12 -106 34 -196 19 -79 35 -155 35 -168 0 -32 -36
-63 -72 -64 -24 0 -28 -4 -28 -30 l0 -30 95 0 c52 0 95 3 95 6 0 3 -6 11 -13
19 -18 17 -42 101 -56 193 -14 95 -14 133 4 156 16 21 14 80 -6 181 -25 130
-29 154 -35 218 l-6 67 -154 0 -154 0 0 -49z"/>
<path d="M0 593 l0 -138 36 54 c34 50 36 57 29 107 -5 39 -11 54 -22 54 -11 0
-14 6 -9 24 5 21 -7 36 -30 36 -2 0 -4 -62 -4 -137z"/>
<path d="M177 441 c-4 -17 -3 -21 5 -13 5 5 8 16 6 23 -3 8 -7 3 -11 -10z"/>
<path d="M128 399 c-10 -17 -18 -37 -18 -44 0 -8 -12 -27 -26 -42 l-26 -28 3
50 c1 28 -1 51 -5 53 -3 2 -18 -6 -31 -16 -25 -20 -25 -21 -25 -196 l0 -176
75 0 75 0 0 35 c0 28 -4 35 -19 35 -11 0 -23 5 -26 10 -3 6 -15 10 -26 10 -31
0 -24 45 27 159 33 76 44 113 42 142 l-3 39 -17 -31z"/>
<path d="M187 44 c-13 -13 -7 -44 8 -44 16 0 17 5 6 33 -3 10 -10 15 -14 11z"/>
</g>
</svg>
