<?xml version="1.0" standalone="no"?>
<!DOCTYPE svg PUBLIC "-//W3C//DTD SVG 20010904//EN"
 "http://www.w3.org/TR/2001/REC-SVG-20010904/DTD/svg10.dtd">
<svg version="1.0" xmlns="http://www.w3.org/2000/svg"
 width="96.000000pt" height="84.000000pt" viewBox="0 0 96.000000 84.000000"
 preserveAspectRatio="xMidYMid meet">
<metadata>
Created by potrace 1.16, written by Peter Selinger 2001-2019
</metadata>
<g transform="translate(0.000000,84.000000) scale(0.100000,-0.100000)"
fill="#000000" stroke="none">
<path d="M0 791 c0 -55 15 -68 64 -55 17 4 26 2 26 -5 0 -7 9 -9 25 -5 20 5
28 0 45 -28 11 -18 18 -42 16 -53 -4 -13 8 -32 39 -62 44 -42 45 -44 45 -105
0 -53 36 -225 46 -216 1 2 7 46 13 98 5 53 19 125 31 160 30 88 37 162 17 178
-8 7 -23 42 -33 77 l-19 65 -157 0 -158 0 0 -49z"/>
<path d="M1 558 c0 -155 2 -169 13 -133 7 22 23 60 35 84 19 37 22 53 16 102
-6 47 -10 57 -22 52 -13 -5 -15 -1 -11 21 4 19 0 29 -13 37 -18 9 -19 3 -18
-163z"/>
<path d="M177 441 c-4 -17 -3 -21 5 -13 5 5 8 16 6 23 -3 8 -7 3 -11 -10z"/>
<path d="M120 381 c0 -38 -10 -62 -22 -55 -5 3 -12 -3 -15 -15 -11 -42 -25
-21 -19 27 5 36 4 43 -5 29 -6 -10 -22 -22 -35 -27 l-24 -10 0 -165 0 -165 76
0 75 0 -3 33 c-2 24 -7 31 -21 29 -9 -2 -20 4 -23 13 -3 8 -17 15 -30 15 -21
0 -23 3 -18 33 4 17 26 76 50 130 32 69 43 104 38 122 -9 37 -24 41 -24 6z"/>
<path d="M331 125 c-1 -38 -31 -65 -71 -65 -27 0 -30 -3 -30 -30 l0 -30 84 0
c83 0 84 0 89 26 4 20 -3 35 -27 61 -17 19 -34 42 -38 51 -4 12 -7 7 -7 -13z"/>
<path d="M187 44 c-13 -13 -7 -44 8 -44 16 0 17 5 6 33 -3 10 -10 15 -14 11z"/>
</g>
</svg>
