<?xml version="1.0" standalone="no"?>
<!DOCTYPE svg PUBLIC "-//W3C//DTD SVG 20010904//EN"
 "http://www.w3.org/TR/2001/REC-SVG-20010904/DTD/svg10.dtd">
<svg version="1.0" xmlns="http://www.w3.org/2000/svg"
 width="96.000000pt" height="84.000000pt" viewBox="0 0 96.000000 84.000000"
 preserveAspectRatio="xMidYMid meet">
<metadata>
Created by potrace 1.16, written by Peter Selinger 2001-2019
</metadata>
<g transform="translate(0.000000,84.000000) scale(0.100000,-0.100000)"
fill="#000000" stroke="none">
<path d="M0 784 l0 -57 45 6 c34 5 45 3 45 -6 0 -9 10 -12 29 -9 26 4 32 0 45
-32 8 -20 13 -42 10 -49 -2 -7 16 -32 41 -57 43 -43 45 -46 45 -105 0 -36 14
-115 35 -195 19 -74 35 -146 35 -160 0 -31 -36 -65 -70 -65 -20 0 -26 -6 -28
-27 l-3 -28 70 0 71 0 0 33 c0 19 3 37 7 41 4 4 8 32 9 62 2 40 -2 57 -12 61
-8 3 -14 15 -14 27 0 12 -5 27 -11 33 -13 13 -23 57 -43 178 -25 154 -26 184
-6 203 26 24 76 122 84 165 l7 37 -196 0 -195 0 0 -56z"/>
<path d="M0 361 l0 -361 75 0 75 0 0 30 c0 23 -4 30 -20 30 -11 0 -23 7 -26
15 -4 8 -17 15 -30 15 -36 0 -31 28 26 151 49 106 56 132 44 164 -5 13 -9 11
-20 -11 -8 -14 -14 -35 -14 -45 0 -17 -32 -59 -45 -59 -3 0 -5 7 -5 16 0 10
-6 14 -15 10 -35 -13 -32 104 5 188 18 39 21 59 15 102 -4 38 -11 54 -21 54
-11 0 -14 8 -12 27 2 20 -2 29 -14 31 -17 3 -18 -19 -18 -357z"/>
<path d="M176 433 c-6 -14 -5 -15 5 -6 7 7 10 15 7 18 -3 3 -9 -2 -12 -12z"/>
<path d="M185 27 c-4 -10 -5 -21 -1 -24 10 -10 18 4 13 24 -4 17 -4 17 -12 0z"/>
</g>
</svg>
