<?xml version="1.0" standalone="no"?>
<!DOCTYPE svg PUBLIC "-//W3C//DTD SVG 20010904//EN"
 "http://www.w3.org/TR/2001/REC-SVG-20010904/DTD/svg10.dtd">
<svg version="1.0" xmlns="http://www.w3.org/2000/svg"
 width="96.000000pt" height="84.000000pt" viewBox="0 0 96.000000 84.000000"
 preserveAspectRatio="xMidYMid meet">
<metadata>
Created by potrace 1.16, written by Peter Selinger 2001-2019
</metadata>
<g transform="translate(0.000000,84.000000) scale(0.100000,-0.100000)"
fill="#000000" stroke="none">
<path d="M0 786 c0 -47 3 -54 22 -60 13 -3 27 -1 32 4 14 14 36 12 36 -3 0 -9
9 -12 28 -9 25 3 30 -1 46 -36 10 -22 16 -44 13 -49 -3 -5 14 -30 39 -56 42
-45 44 -48 44 -109 0 -40 12 -104 31 -173 17 -60 33 -132 36 -158 5 -43 3 -50
-18 -65 -13 -9 -35 -17 -49 -17 -20 0 -26 -6 -28 -27 -3 -28 -3 -28 61 -28
l63 0 -1 58 c-1 31 -6 74 -10 95 -11 57 2 124 25 130 26 7 26 42 0 85 -11 18
-25 54 -31 80 -5 25 -15 49 -21 53 -5 3 -16 35 -23 70 -7 35 -20 96 -29 134
-9 39 -16 85 -16 103 l0 32 -125 0 -125 0 0 -54z"/>
<path d="M0 361 l0 -361 75 0 75 0 0 30 c0 25 -4 30 -24 30 -13 0 -26 7 -30
15 -3 8 -9 15 -13 14 -46 -8 -43 23 17 152 49 105 57 144 40 184 -7 17 -9 15
-9 -12 -1 -17 -6 -35 -12 -39 -6 -3 -8 -17 -5 -30 5 -17 2 -24 -8 -24 -8 0
-17 -9 -21 -20 -6 -19 -7 -18 -31 7 -32 34 -33 119 -3 195 24 62 20 158 -7
158 -10 0 -14 9 -12 27 2 19 -2 28 -14 31 -17 3 -18 -19 -18 -357z"/>
<path d="M187 33 c-12 -12 -7 -33 8 -33 17 0 19 9 7 28 -5 7 -11 9 -15 5z"/>
</g>
</svg>
