<?xml version="1.0" standalone="no"?>
<!DOCTYPE svg PUBLIC "-//W3C//DTD SVG 20010904//EN"
 "http://www.w3.org/TR/2001/REC-SVG-20010904/DTD/svg10.dtd">
<svg version="1.0" xmlns="http://www.w3.org/2000/svg"
 width="96.000000pt" height="84.000000pt" viewBox="0 0 96.000000 84.000000"
 preserveAspectRatio="xMidYMid meet">
<metadata>
Created by potrace 1.16, written by Peter Selinger 2001-2019
</metadata>
<g transform="translate(0.000000,84.000000) scale(0.100000,-0.100000)"
fill="#000000" stroke="none">
<path d="M0 786 c0 -50 2 -54 26 -60 14 -4 32 -2 40 4 14 13 38 4 29 -11 -4
-5 7 -6 24 -3 27 6 31 3 46 -32 8 -21 13 -44 11 -51 -3 -7 15 -34 39 -60 43
-46 45 -51 45 -107 0 -38 13 -104 34 -180 19 -67 36 -130 39 -141 3 -11 5 -3
6 17 0 21 -8 61 -19 89 l-19 52 27 46 c26 44 27 51 27 196 1 119 4 158 18 187
9 21 17 53 17 73 l0 35 -195 0 -195 0 0 -54z"/>
<path d="M0 361 l0 -361 75 0 c73 0 75 1 75 25 0 18 -5 25 -19 25 -10 0 -21 7
-25 15 -3 8 -17 15 -31 15 -38 0 -33 38 22 149 40 82 48 106 50 166 l3 70 -19
-58 c-10 -32 -16 -67 -13 -79 3 -14 1 -19 -6 -14 -8 4 -17 -4 -24 -21 l-11
-28 -6 25 c-3 14 -12 25 -20 25 -37 0 -37 112 0 188 18 37 20 54 15 101 -5 39
-12 56 -22 56 -10 0 -14 9 -12 27 2 19 -2 28 -14 31 -17 3 -18 -19 -18 -357z"/>
<path d="M314 66 c-11 -8 -33 -16 -49 -18 -22 -2 -31 -9 -33 -25 -3 -23 -1
-23 94 -23 l98 0 -39 40 c-44 45 -43 45 -71 26z"/>
<path d="M187 33 c-12 -12 -7 -33 8 -33 17 0 19 9 7 28 -5 7 -11 9 -15 5z"/>
</g>
</svg>
