<?xml version="1.0" standalone="no"?>
<!DOCTYPE svg PUBLIC "-//W3C//DTD SVG 20010904//EN"
 "http://www.w3.org/TR/2001/REC-SVG-20010904/DTD/svg10.dtd">
<svg version="1.0" xmlns="http://www.w3.org/2000/svg"
 width="96.000000pt" height="84.000000pt" viewBox="0 0 96.000000 84.000000"
 preserveAspectRatio="xMidYMid meet">
<metadata>
Created by potrace 1.16, written by Peter Selinger 2001-2019
</metadata>
<g transform="translate(0.000000,84.000000) scale(0.100000,-0.100000)"
fill="#000000" stroke="none">
<path d="M0 420 l0 -420 75 0 c73 0 75 1 75 25 0 18 -5 25 -19 25 -10 0 -22 7
-25 15 -3 9 -11 15 -18 14 -52 -6 -50 19 9 145 37 79 48 114 50 161 l3 60 -14
-35 c-8 -19 -15 -49 -15 -66 -1 -19 -7 -34 -16 -38 -8 -3 -15 -16 -15 -28 -1
-21 -1 -22 -11 -5 -6 10 -9 27 -6 38 6 22 -3 25 -21 7 -38 -38 -43 92 -7 170
33 72 36 172 5 172 -17 0 -19 5 -14 24 4 17 0 27 -13 36 -16 10 -15 11 6 6 14
-3 31 0 39 7 11 9 17 8 27 -6 6 -9 15 -14 18 -11 3 3 14 3 25 0 22 -7 42 -46
42 -82 0 -16 16 -41 43 -70 41 -42 43 -48 42 -97 -2 -29 -1 -38 2 -22 5 37 32
94 56 119 11 11 17 27 13 40 -2 11 -8 69 -12 129 l-7 107 -158 0 -159 0 0
-420z"/>
<path d="M271 380 c0 -14 7 -41 14 -60 13 -33 14 -33 14 -9 1 15 -6 42 -14 60
-13 31 -14 32 -14 9z"/>
<path d="M330 122 c0 -45 -21 -69 -65 -74 -22 -2 -31 -9 -33 -25 -3 -22 -1
-23 92 -23 l96 0 -15 36 c-8 19 -24 47 -35 61 -11 14 -20 32 -20 39 0 7 -4 16
-10 19 -6 4 -10 -9 -10 -33z"/>
<path d="M187 23 c-12 -11 -8 -23 8 -23 8 0 15 7 15 15 0 16 -12 20 -23 8z"/>
</g>
</svg>
