<?xml version="1.0" standalone="no"?>
<!DOCTYPE svg PUBLIC "-//W3C//DTD SVG 20010904//EN"
 "http://www.w3.org/TR/2001/REC-SVG-20010904/DTD/svg10.dtd">
<svg version="1.0" xmlns="http://www.w3.org/2000/svg"
 width="96.000000pt" height="84.000000pt" viewBox="0 0 96.000000 84.000000"
 preserveAspectRatio="xMidYMid meet">
<metadata>
Created by potrace 1.16, written by Peter Selinger 2001-2019
</metadata>
<g transform="translate(0.000000,84.000000) scale(0.100000,-0.100000)"
fill="#000000" stroke="none">
<path d="M595 811 c5 -25 3 -29 -19 -35 -34 -8 -99 -86 -112 -133 -13 -50 -1
-96 32 -122 20 -16 23 -24 16 -38 -8 -13 -3 -27 18 -58 45 -65 60 -215 21
-215 -16 0 -55 87 -57 127 -2 53 -16 71 -57 75 -84 8 -123 -112 -58 -181 27
-29 28 -33 16 -68 -7 -21 -15 -66 -17 -100 l-4 -62 242 -1 c252 0 288 5 297
41 6 24 2 24 -39 -1 -38 -24 -32 -33 -59 93 -18 85 -15 105 9 60 15 -27 15
-26 16 47 l1 75 14 -38 c18 -51 27 -58 19 -16 -5 33 -5 33 9 10 13 -21 14 -13
10 80 -5 143 -19 240 -48 333 -27 86 -56 126 -92 126 -13 0 -26 7 -29 15 -5
11 -23 15 -71 15 l-65 0 7 -29z"/>
</g>
</svg>
