<?xml version="1.0" standalone="no"?>
<!DOCTYPE svg PUBLIC "-//W3C//DTD SVG 20010904//EN"
 "http://www.w3.org/TR/2001/REC-SVG-20010904/DTD/svg10.dtd">
<svg version="1.0" xmlns="http://www.w3.org/2000/svg"
 width="96.000000pt" height="84.000000pt" viewBox="0 0 96.000000 84.000000"
 preserveAspectRatio="xMidYMid meet">
<metadata>
Created by potrace 1.16, written by Peter Selinger 2001-2019
</metadata>
<g transform="translate(0.000000,84.000000) scale(0.100000,-0.100000)"
fill="#000000" stroke="none">
<path d="M0 420 l0 -420 75 0 c73 0 75 1 75 25 0 18 -5 25 -19 25 -11 0 -23 5
-26 10 -3 6 -17 10 -31 10 -37 0 -31 40 21 148 52 107 77 192 57 192 -12 0
-32 -47 -32 -75 0 -14 -4 -25 -9 -25 -5 0 -14 -12 -19 -27 -9 -23 -11 -24 -12
-8 -1 11 -1 30 0 43 2 23 1 23 -22 8 -14 -9 -28 -13 -31 -9 -16 15 -6 108 17
166 28 70 29 76 27 133 -1 34 -5 43 -23 48 -18 4 -20 8 -10 18 18 18 15 27
-10 39 -21 8 -20 9 5 4 16 -3 35 -1 43 6 11 9 15 8 20 -5 3 -9 11 -16 18 -15
33 4 47 -4 60 -35 8 -19 12 -44 9 -55 -3 -13 2 -23 15 -30 18 -10 20 -6 25 48
5 63 23 105 69 164 l30 37 -161 0 -161 0 0 -420z"/>
<path d="M328 134 c3 -47 1 -57 -20 -74 -13 -11 -31 -17 -42 -14 -19 6 -36
-10 -36 -33 0 -10 28 -13 106 -13 l106 0 -24 33 c-14 17 -30 48 -37 67 -6 19
-22 47 -34 62 l-22 27 3 -55z"/>
<path d="M187 23 c-12 -11 -8 -23 8 -23 8 0 15 7 15 15 0 16 -12 20 -23 8z"/>
</g>
</svg>
