<?xml version="1.0" standalone="no"?>
<!DOCTYPE svg PUBLIC "-//W3C//DTD SVG 20010904//EN"
 "http://www.w3.org/TR/2001/REC-SVG-20010904/DTD/svg10.dtd">
<svg version="1.0" xmlns="http://www.w3.org/2000/svg"
 width="96.000000pt" height="84.000000pt" viewBox="0 0 96.000000 84.000000"
 preserveAspectRatio="xMidYMid meet">
<metadata>
Created by potrace 1.16, written by Peter Selinger 2001-2019
</metadata>
<g transform="translate(0.000000,84.000000) scale(0.100000,-0.100000)"
fill="#000000" stroke="none">
<path d="M0 790 c0 -47 1 -50 33 -58 21 -6 37 -5 46 2 10 7 16 6 25 -4 6 -9
20 -14 32 -12 19 3 21 9 20 62 l-1 60 -77 0 -78 0 0 -50z"/>
<path d="M276 738 c-3 -57 -5 -123 -4 -148 0 -25 0 -56 -1 -70 -7 -94 -1 -156
28 -265 17 -66 31 -128 31 -137 0 -13 8 -18 26 -18 30 0 84 -35 84 -55 0 -8
-10 -21 -22 -29 -21 -15 -16 -16 76 -16 l98 0 -18 28 c-9 15 -35 50 -56 77
-137 177 -148 198 -148 284 0 31 0 102 0 158 l0 102 45 47 c24 26 56 69 70 96
l26 48 -114 0 -115 0 -6 -102z"/>
<path d="M0 365 l0 -365 76 0 c72 0 75 1 72 22 -2 16 -9 22 -21 20 -9 -2 -20
4 -23 13 -3 8 -17 15 -30 15 -36 0 -31 36 20 144 47 99 71 170 61 186 -11 19
-24 0 -31 -45 -3 -25 -10 -48 -15 -51 -5 -3 -9 -14 -9 -25 0 -10 -5 -19 -11
-19 -8 0 -10 12 -6 34 7 43 1 49 -29 29 -22 -14 -24 -14 -30 2 -12 29 4 118
30 175 21 46 24 65 19 108 -4 36 -10 52 -20 52 -11 0 -13 7 -9 25 5 18 1 27
-13 35 -11 5 -22 10 -25 10 -3 0 -6 -164 -6 -365z"/>
<path d="M300 50 c0 -5 -13 -10 -30 -10 -23 0 -30 -4 -30 -20 0 -17 7 -20 39
-20 36 0 38 2 37 30 -1 26 -16 45 -16 20z"/>
<path d="M186 15 c-3 -9 0 -15 9 -15 8 0 15 7 15 15 0 19 -16 19 -24 0z"/>
</g>
</svg>
