<?xml version="1.0" standalone="no"?>
<!DOCTYPE svg PUBLIC "-//W3C//DTD SVG 20010904//EN"
 "http://www.w3.org/TR/2001/REC-SVG-20010904/DTD/svg10.dtd">
<svg version="1.0" xmlns="http://www.w3.org/2000/svg"
 width="96.000000pt" height="84.000000pt" viewBox="0 0 96.000000 84.000000"
 preserveAspectRatio="xMidYMid meet">
<metadata>
Created by potrace 1.16, written by Peter Selinger 2001-2019
</metadata>
<g transform="translate(0.000000,84.000000) scale(0.100000,-0.100000)"
fill="#000000" stroke="none">
<path d="M0 420 l0 -420 74 0 c54 0 75 4 79 14 7 17 -1 26 -24 26 -9 0 -19 7
-23 15 -3 8 -17 15 -31 15 -36 0 -33 30 13 126 55 112 74 176 64 204 -8 21
-10 20 -20 -19 -6 -24 -8 -50 -5 -58 4 -9 -1 -20 -10 -25 -10 -5 -17 -19 -18
-31 l0 -22 -9 23 c-6 13 -6 32 0 47 10 27 -3 31 -28 7 -7 -6 -17 -12 -22 -12
-29 0 -16 130 20 200 17 34 20 51 15 95 -4 32 -13 56 -22 59 -11 4 -11 10 -3
25 9 17 6 22 -14 33 -23 12 -22 13 25 13 34 0 49 -4 49 -13 0 -7 5 -10 10 -7
31 19 82 -50 66 -90 -4 -12 42 -82 65 -96 5 -3 11 -43 13 -90 2 -55 13 -116
30 -174 40 -131 44 -177 17 -204 -11 -11 -32 -21 -46 -21 -18 0 -25 -5 -25
-20 0 -19 7 -20 193 -20 183 0 191 1 171 18 -12 9 -25 34 -28 54 -11 61 -52
143 -90 180 -20 19 -36 40 -36 46 0 6 -11 19 -24 27 -29 19 -51 70 -62 145 -8
59 -7 346 2 361 3 5 -74 9 -180 9 l-186 0 0 -420z"/>
<path d="M952 210 c0 -14 2 -19 5 -12 2 6 2 18 0 25 -3 6 -5 1 -5 -13z"/>
<path d="M190 16 c0 -9 5 -16 10 -16 6 0 10 4 10 9 0 6 -4 13 -10 16 -5 3 -10
-1 -10 -9z"/>
</g>
</svg>
