<?xml version="1.0" standalone="no"?>
<!DOCTYPE svg PUBLIC "-//W3C//DTD SVG 20010904//EN"
 "http://www.w3.org/TR/2001/REC-SVG-20010904/DTD/svg10.dtd">
<svg version="1.0" xmlns="http://www.w3.org/2000/svg"
 width="96.000000pt" height="84.000000pt" viewBox="0 0 96.000000 84.000000"
 preserveAspectRatio="xMidYMid meet">
<metadata>
Created by potrace 1.16, written by Peter Selinger 2001-2019
</metadata>
<g transform="translate(0.000000,84.000000) scale(0.100000,-0.100000)"
fill="#000000" stroke="none">
<path d="M0 420 l0 -421 78 3 c60 2 77 6 77 18 0 8 -9 16 -20 19 -11 2 -23 7
-26 12 -3 5 -17 10 -32 11 -18 2 -27 8 -27 20 0 10 25 77 56 148 33 78 53 138
49 148 -5 14 -7 14 -15 2 -6 -8 -10 -30 -10 -47 0 -18 -4 -33 -10 -33 -5 0
-10 -11 -10 -25 0 -14 -4 -25 -10 -25 -5 0 -10 18 -10 40 0 41 -7 49 -27 29
-40 -40 -46 88 -8 169 30 64 35 185 8 175 -12 -5 -14 0 -9 24 6 25 3 31 -16
40 -19 9 -15 10 26 8 28 -1 52 -7 54 -13 2 -7 14 -12 27 -12 30 0 34 -6 42
-67 4 -34 16 -61 42 -92 33 -41 36 -48 33 -100 -2 -41 6 -88 32 -179 20 -68
36 -141 36 -161 0 -44 -24 -71 -63 -71 -20 0 -27 -5 -27 -20 0 -19 7 -20 125
-20 100 0 125 3 125 14 0 7 6 19 13 25 8 6 19 29 26 51 13 43 26 50 48 23 12
-16 13 -4 10 87 -3 84 -8 117 -29 166 -32 77 -124 192 -155 193 -30 1 -33 10
-43 109 -5 48 -12 106 -16 130 l-7 42 -168 0 -169 0 0 -420z"/>
<path d="M942 500 c-16 -51 -15 -89 3 -120 13 -23 14 -18 15 68 0 50 -1 92 -3
92 -1 0 -8 -18 -15 -40z"/>
<path d="M917 70 c-16 -5 -34 -13 -41 -19 -7 -6 -24 -10 -37 -9 -18 2 -25 -2
-27 -19 -3 -22 0 -23 72 -23 l76 0 0 40 c0 43 0 43 -43 30z"/>
<path d="M760 15 c0 -8 4 -15 10 -15 5 0 7 7 4 15 -4 8 -8 15 -10 15 -2 0 -4
-7 -4 -15z"/>
<path d="M190 10 c0 -5 5 -10 10 -10 6 0 10 5 10 10 0 6 -4 10 -10 10 -5 0
-10 -4 -10 -10z"/>
</g>
</svg>
