<?xml version="1.0" standalone="no"?>
<!DOCTYPE svg PUBLIC "-//W3C//DTD SVG 20010904//EN"
 "http://www.w3.org/TR/2001/REC-SVG-20010904/DTD/svg10.dtd">
<svg version="1.0" xmlns="http://www.w3.org/2000/svg"
 width="96.000000pt" height="84.000000pt" viewBox="0 0 96.000000 84.000000"
 preserveAspectRatio="xMidYMid meet">
<metadata>
Created by potrace 1.16, written by Peter Selinger 2001-2019
</metadata>
<g transform="translate(0.000000,84.000000) scale(0.100000,-0.100000)"
fill="#000000" stroke="none">
<path d="M0 420 l0 -420 81 0 c71 0 80 2 77 18 -2 9 -12 17 -22 17 -11 0 -21
6 -24 13 -2 6 -17 12 -34 12 -28 0 -29 2 -23 30 4 17 27 74 51 128 48 106 60
152 49 179 -7 16 -9 15 -15 -7 -5 -14 -8 -40 -9 -57 -1 -18 -5 -33 -11 -33 -5
0 -10 -15 -11 -32 0 -31 -1 -32 -10 -9 -5 13 -7 32 -4 42 9 28 -4 42 -21 24
-21 -21 -31 -19 -38 8 -9 36 2 110 23 158 21 46 30 186 12 174 -15 -9 -24 14
-11 30 8 10 6 16 -10 28 -19 13 -17 14 25 13 27 -1 45 -6 45 -13 0 -6 12 -13
26 -15 20 -2 29 -12 39 -42 8 -21 11 -44 8 -52 -3 -7 12 -34 33 -60 37 -44 39
-50 36 -108 -2 -47 5 -89 32 -181 43 -143 46 -197 14 -213 -13 -6 -32 -12 -43
-14 -11 -2 -21 -11 -23 -21 -3 -16 14 -17 237 -17 l241 0 0 26 c0 17 -6 28
-20 31 -11 3 -20 10 -20 15 0 5 -6 16 -14 23 -11 11 -14 49 -15 156 -1 170
-15 268 -40 289 -10 8 -25 29 -34 45 -21 39 -92 204 -101 233 -7 22 -7 22
-242 22 l-234 0 0 -420z"/>
<path d="M951 664 c0 -11 3 -14 6 -6 3 7 2 16 -1 19 -3 4 -6 -2 -5 -13z"/>
<path d="M840 531 c-13 -25 -6 -146 10 -156 4 -3 27 -38 49 -79 32 -58 41 -86
42 -129 2 -58 -4 -77 -26 -77 -8 0 -19 -9 -26 -21 -6 -13 -17 -19 -28 -16 -25
6 -51 -10 -51 -33 0 -18 7 -20 75 -20 l75 0 0 228 c-1 155 -4 222 -11 210 -14
-24 -39 -11 -39 21 0 15 -13 42 -29 61 l-28 34 -13 -23z"/>
<path d="M757 44 c-13 -13 -7 -44 8 -44 16 0 17 5 6 33 -3 10 -10 15 -14 11z"/>
<path d="M190 10 c0 -5 5 -10 10 -10 6 0 10 5 10 10 0 6 -4 10 -10 10 -5 0
-10 -4 -10 -10z"/>
</g>
</svg>
