<?xml version="1.0" standalone="no"?>
<!DOCTYPE svg PUBLIC "-//W3C//DTD SVG 20010904//EN"
 "http://www.w3.org/TR/2001/REC-SVG-20010904/DTD/svg10.dtd">
<svg version="1.0" xmlns="http://www.w3.org/2000/svg"
 width="96.000000pt" height="84.000000pt" viewBox="0 0 96.000000 84.000000"
 preserveAspectRatio="xMidYMid meet">
<metadata>
Created by potrace 1.16, written by Peter Selinger 2001-2019
</metadata>
<g transform="translate(0.000000,84.000000) scale(0.100000,-0.100000)"
fill="#000000" stroke="none">
<path d="M0 420 l0 -420 80 0 c64 0 80 3 80 15 0 8 -9 15 -20 15 -10 0 -23 6
-27 14 -4 8 -19 16 -33 18 -21 2 -24 8 -22 31 2 16 17 59 34 95 53 117 77 183
71 198 -10 27 -22 14 -29 -33 -3 -27 -10 -52 -14 -58 -5 -5 -10 -21 -13 -35
-2 -14 -5 -4 -6 24 -1 38 -4 47 -16 42 -8 -3 -22 -9 -30 -12 -26 -11 -21 126
7 179 26 50 33 177 9 177 -9 0 -11 8 -7 24 4 18 1 28 -11 35 -13 7 -6 9 27 7
28 -2 44 -8 42 -15 -1 -6 9 -11 22 -11 33 0 48 -23 50 -73 1 -33 9 -53 35 -86
32 -40 35 -49 36 -120 1 -52 11 -110 33 -186 39 -134 41 -174 10 -195 -13 -8
-32 -15 -43 -15 -11 0 -21 -8 -23 -17 -3 -17 13 -18 237 -18 l241 0 0 30 c0
17 -7 33 -17 39 -16 9 -18 29 -19 183 0 197 0 201 -14 193 -14 -8 -13 -2 7 47
9 24 30 59 46 80 22 28 29 48 31 89 3 53 25 85 53 75 7 -3 20 5 29 17 l16 22
-7 -25 c-6 -24 -5 -24 9 -6 9 11 16 26 16 33 0 7 5 13 10 13 13 0 13 -6 -5
-41 -11 -19 -14 -41 -9 -64 4 -24 0 -47 -14 -77 -26 -54 -29 -76 -18 -162 6
-53 15 -79 41 -115 45 -63 61 -99 69 -149 7 -46 -6 -82 -29 -82 -8 0 -19 -9
-25 -20 -7 -13 -21 -20 -38 -20 -32 0 -52 -16 -52 -42 0 -16 10 -18 80 -18
l80 0 0 420 0 420 -480 0 -480 0 0 -420z"/>
<path d="M796 421 c-4 -7 -5 -15 -2 -18 9 -9 19 4 14 18 -4 11 -6 11 -12 0z"/>
<path d="M750 25 c0 -14 5 -25 10 -25 6 0 10 11 10 25 0 14 -4 25 -10 25 -5 0
-10 -11 -10 -25z"/>
<path d="M190 10 c0 -5 5 -10 10 -10 6 0 10 5 10 10 0 6 -4 10 -10 10 -5 0
-10 -4 -10 -10z"/>
</g>
</svg>
