<?xml version="1.0" standalone="no"?>
<!DOCTYPE svg PUBLIC "-//W3C//DTD SVG 20010904//EN"
 "http://www.w3.org/TR/2001/REC-SVG-20010904/DTD/svg10.dtd">
<svg version="1.0" xmlns="http://www.w3.org/2000/svg"
 width="96.000000pt" height="84.000000pt" viewBox="0 0 96.000000 84.000000"
 preserveAspectRatio="xMidYMid meet">
<metadata>
Created by potrace 1.16, written by Peter Selinger 2001-2019
</metadata>
<g transform="translate(0.000000,84.000000) scale(0.100000,-0.100000)"
fill="#000000" stroke="none">
<path d="M0 420 l0 -420 80 0 c64 0 80 3 80 15 0 14 -11 19 -36 16 -7 -1 -14
5 -18 14 -3 8 -17 15 -31 15 -36 0 -33 30 16 131 60 124 82 186 71 204 -7 13
-11 8 -20 -22 -10 -36 -22 -81 -28 -111 -7 -38 -16 -20 -12 25 5 53 -3 59 -40
30 -18 -14 -24 -4 -30 51 -3 38 2 63 26 119 34 79 42 183 14 183 -10 0 -12 7
-8 24 4 18 1 28 -11 35 -14 7 -7 9 27 6 24 -1 46 -8 48 -14 2 -6 14 -11 27
-11 30 0 36 -11 41 -72 2 -39 10 -59 37 -92 31 -38 34 -46 30 -91 -3 -35 4
-86 26 -170 43 -172 45 -203 18 -231 -12 -13 -32 -24 -44 -24 -14 0 -23 -6
-23 -15 0 -13 33 -15 240 -15 l239 0 -6 33 c-3 17 -13 37 -22 43 -17 13 -20
101 -9 322 6 132 6 133 40 175 29 36 34 49 32 88 -3 55 7 73 40 74 13 1 32 8
42 16 16 13 16 12 5 -11 l-12 -25 20 24 c12 12 19 27 16 31 -7 11 12 23 25 15
6 -4 0 -20 -15 -39 -14 -18 -23 -40 -20 -49 4 -8 8 -50 10 -93 1 -44 6 -105
10 -136 5 -38 3 -68 -4 -87 -11 -26 -9 -34 27 -89 25 -39 42 -78 46 -109 6
-43 4 -50 -16 -65 -13 -9 -32 -25 -42 -34 -11 -9 -33 -20 -50 -23 -24 -5 -32
-13 -34 -34 l-3 -27 80 0 81 0 0 420 0 420 -480 0 -480 0 0 -420z"/>
<path d="M747 53 c-14 -13 -7 -53 8 -53 12 0 14 7 9 28 -8 33 -9 34 -17 25z"/>
<path d="M190 10 c0 -5 5 -10 10 -10 6 0 10 5 10 10 0 6 -4 10 -10 10 -5 0
-10 -4 -10 -10z"/>
</g>
</svg>
