<?xml version="1.0" standalone="no"?>
<!DOCTYPE svg PUBLIC "-//W3C//DTD SVG 20010904//EN"
 "http://www.w3.org/TR/2001/REC-SVG-20010904/DTD/svg10.dtd">
<svg version="1.0" xmlns="http://www.w3.org/2000/svg"
 width="96.000000pt" height="84.000000pt" viewBox="0 0 96.000000 84.000000"
 preserveAspectRatio="xMidYMid meet">
<metadata>
Created by potrace 1.16, written by Peter Selinger 2001-2019
</metadata>
<g transform="translate(0.000000,84.000000) scale(0.100000,-0.100000)"
fill="#000000" stroke="none">
<path d="M0 420 l0 -420 80 0 c62 0 80 3 80 14 0 15 -27 29 -40 21 -4 -3 -10
2 -14 10 -3 8 -17 15 -31 15 -38 0 -33 42 20 142 48 91 50 98 36 98 -5 0 -12
-15 -16 -32 -13 -52 -18 -3 -7 65 5 31 5 54 0 51 -4 -3 -8 -14 -8 -24 0 -18
-53 -53 -64 -42 -3 3 -6 30 -6 61 0 41 8 73 30 119 34 73 43 172 15 172 -18 0
-19 12 -3 29 11 10 8 16 -12 32 l-25 19 29 -10 c16 -6 37 -8 47 -5 13 4 19 1
19 -9 0 -8 11 -16 26 -18 22 -2 29 -11 39 -45 7 -25 9 -45 3 -51 -5 -5 8 -29
32 -59 37 -47 39 -54 34 -96 -5 -33 2 -78 26 -173 18 -71 32 -148 32 -171 -1
-48 -26 -83 -59 -83 -14 0 -23 -6 -23 -15 0 -13 33 -15 235 -15 l235 0 0 23
c0 13 -11 34 -25 47 -21 20 -25 32 -25 85 0 33 7 116 15 184 9 68 13 138 9
157 -5 28 -1 40 31 78 24 29 35 52 31 62 -10 27 12 92 34 99 11 3 25 3 30 0 6
-4 17 -1 25 5 8 7 15 9 15 4 0 -5 7 -1 15 10 7 10 18 15 24 11 17 -10 13 -19
-11 -30 -21 -9 -23 -15 -19 -75 4 -75 15 -102 65 -149 l36 -35 0 182 0 182
-480 0 -480 0 0 -420z"/>
<path d="M808 539 c-3 -8 1 -27 8 -44 13 -29 13 -29 13 -5 -1 36 -14 68 -21
49z"/>
<path d="M788 433 c-3 -13 -2 -26 4 -29 14 -9 16 -2 8 26 -6 25 -6 25 -12 3z"/>
<path d="M142 379 c-8 -33 -9 -56 -3 -62 14 -14 34 63 24 91 -8 21 -11 18 -21
-29z"/>
<path d="M900 417 c0 -8 -11 -24 -25 -37 -27 -26 -25 -36 26 -100 34 -44 57
-134 39 -155 -6 -8 -22 -17 -33 -21 -12 -3 -31 -14 -42 -24 -11 -10 -31 -20
-45 -22 -19 -2 -25 -9 -25 -28 0 -24 2 -25 83 -28 l82 -3 0 210 c0 176 -2 209
-14 205 -8 -3 -17 -1 -21 5 -9 15 -25 14 -25 -2z"/>
<path d="M740 31 c0 -20 5 -31 14 -31 9 0 12 8 8 25 -7 37 -22 41 -22 6z"/>
<path d="M190 10 c0 -5 5 -10 10 -10 6 0 10 5 10 10 0 6 -4 10 -10 10 -5 0
-10 -4 -10 -10z"/>
</g>
</svg>
