<?xml version="1.0" standalone="no"?>
<!DOCTYPE svg PUBLIC "-//W3C//DTD SVG 20010904//EN"
 "http://www.w3.org/TR/2001/REC-SVG-20010904/DTD/svg10.dtd">
<svg version="1.0" xmlns="http://www.w3.org/2000/svg"
 width="96.000000pt" height="84.000000pt" viewBox="0 0 96.000000 84.000000"
 preserveAspectRatio="xMidYMid meet">
<metadata>
Created by potrace 1.16, written by Peter Selinger 2001-2019
</metadata>
<g transform="translate(0.000000,84.000000) scale(0.100000,-0.100000)"
fill="#000000" stroke="none">
<path d="M0 420 l0 -420 81 0 c71 0 80 2 77 17 -2 10 -12 19 -23 21 -11 3 -24
10 -28 18 -4 8 -19 14 -32 14 -21 0 -25 5 -25 28 0 15 12 47 26 72 18 31 27
64 30 105 2 33 5 75 7 93 2 17 0 32 -5 32 -4 0 -8 -9 -8 -20 0 -26 -60 -65
-72 -47 -15 24 4 112 38 174 39 70 48 156 18 167 -14 5 -14 9 -3 22 11 14 9
19 -11 36 l-25 19 25 -7 c14 -4 36 -8 50 -9 14 0 24 -6 22 -13 -1 -7 9 -12 23
-12 14 0 29 -8 35 -20 6 -11 8 -20 5 -20 -3 0 -1 -9 5 -21 8 -14 8 -24 1 -33
-8 -10 -1 -26 29 -64 36 -45 40 -54 34 -90 -4 -26 4 -87 25 -185 17 -81 31
-161 31 -178 0 -33 -32 -68 -61 -69 -9 0 -19 -7 -23 -15 -5 -13 25 -15 229
-15 l235 0 0 25 c0 14 -6 25 -13 25 -8 0 -22 9 -33 21 -15 17 -19 34 -17 89 1
37 7 90 14 116 6 27 12 95 14 152 4 99 5 104 37 144 26 33 33 52 34 90 1 57
18 81 52 75 14 -3 38 3 55 14 40 23 54 14 22 -14 -24 -21 -25 -26 -19 -84 6
-59 9 -64 55 -103 l49 -41 0 165 0 166 -480 0 -480 0 0 -420z"/>
<path d="M815 481 c8 -24 15 -57 15 -73 0 -31 17 -70 60 -133 23 -35 50 -112
50 -144 0 -6 -7 -11 -15 -11 -8 0 -15 -4 -15 -10 0 -5 -11 -12 -25 -16 -13 -3
-29 -12 -36 -20 -6 -8 -22 -14 -35 -14 -20 0 -24 -5 -24 -30 l0 -30 85 0 85 0
0 191 0 190 -32 42 c-39 50 -47 57 -64 50 -6 -2 -24 8 -38 24 l-27 28 16 -44z"/>
<path d="M780 433 c0 -17 6 -33 14 -36 11 -5 13 0 5 25 -12 43 -19 47 -19 11z"/>
<path d="M166 439 c-24 -75 -29 -98 -28 -122 2 -16 -2 -26 -7 -23 -8 5 -23
-45 -16 -52 2 -2 12 13 23 35 21 43 48 160 39 170 -4 3 -9 0 -11 -8z"/>
<path d="M740 26 c0 -14 5 -26 10 -26 6 0 10 9 10 19 0 11 -4 23 -10 26 -6 4
-10 -5 -10 -19z"/>
<path d="M195 10 c-3 -5 1 -10 9 -10 9 0 16 5 16 10 0 6 -4 10 -9 10 -6 0 -13
-4 -16 -10z"/>
</g>
</svg>
