<?xml version="1.0" standalone="no"?>
<!DOCTYPE svg PUBLIC "-//W3C//DTD SVG 20010904//EN"
 "http://www.w3.org/TR/2001/REC-SVG-20010904/DTD/svg10.dtd">
<svg version="1.0" xmlns="http://www.w3.org/2000/svg"
 width="96.000000pt" height="84.000000pt" viewBox="0 0 96.000000 84.000000"
 preserveAspectRatio="xMidYMid meet">
<metadata>
Created by potrace 1.16, written by Peter Selinger 2001-2019
</metadata>
<g transform="translate(0.000000,84.000000) scale(0.100000,-0.100000)"
fill="#000000" stroke="none">
<path d="M0 420 l0 -420 85 0 c78 0 85 2 85 20 0 13 -7 20 -20 20 -11 0 -23 6
-26 14 -3 8 -21 17 -40 20 -19 4 -34 11 -34 17 0 20 29 76 73 142 32 47 46 78
46 100 0 18 4 47 10 66 16 52 6 48 -14 -6 -10 -27 -18 -61 -17 -76 2 -17 -2
-26 -7 -22 -6 3 -13 -6 -17 -20 -6 -26 -24 -35 -24 -12 0 7 7 34 15 58 11 31
13 53 7 69 l-9 24 -7 -27 c-4 -17 -17 -32 -32 -37 -44 -17 -47 -14 -41 46 4
41 17 74 46 123 33 53 41 77 41 114 0 36 -4 47 -15 47 -13 0 -14 4 -5 21 9 17
8 23 -7 35 -17 14 -16 15 7 8 14 -4 36 -7 49 -6 17 1 22 -2 17 -13 -4 -11 1
-15 18 -15 13 0 28 -6 34 -12 13 -16 19 -69 9 -85 -4 -6 10 -33 33 -62 36 -45
39 -54 34 -93 -4 -28 4 -88 20 -169 33 -162 34 -219 3 -239 -12 -8 -31 -17
-41 -20 -11 -3 -21 -11 -24 -18 -3 -9 50 -12 227 -12 l231 0 0 30 c0 25 -4 30
-24 30 -13 0 -29 7 -36 15 -22 27 -20 65 15 274 9 58 14 122 11 144 -6 35 -3
43 34 88 27 31 39 53 34 61 -10 15 -6 56 8 81 6 13 18 17 39 15 18 -2 34 3 40
12 9 12 10 11 5 -5 -5 -15 0 -13 18 9 15 18 26 24 31 17 4 -7 -4 -20 -18 -31
-21 -17 -24 -26 -20 -67 7 -80 10 -87 63 -126 l50 -37 0 165 0 165 -480 0
-480 0 0 -420z"/>
<path d="M773 463 c3 -10 8 -30 11 -45 4 -16 11 -28 17 -28 10 0 7 16 -12 68
-10 26 -23 30 -16 5z"/>
<path d="M830 433 c0 -32 31 -125 55 -168 13 -22 26 -64 30 -93 6 -45 4 -55
-11 -67 -11 -8 -26 -15 -35 -15 -9 0 -22 -7 -29 -15 -7 -8 -21 -15 -32 -15
-14 0 -18 -5 -14 -16 3 -9 6 -22 6 -30 0 -11 18 -14 80 -14 l80 0 0 214 c0
181 -2 215 -15 220 -10 3 -15 -1 -15 -14 0 -24 -36 -19 -56 7 -7 10 -14 14
-14 9 0 -5 -7 -3 -15 4 -12 10 -15 9 -15 -7z"/>
<path d="M131 404 c0 -11 3 -14 6 -6 3 7 2 16 -1 19 -3 4 -6 -2 -5 -13z"/>
<path d="M206 405 c-9 -26 -7 -32 5 -12 6 10 9 21 6 23 -2 3 -7 -2 -11 -11z"/>
<path d="M740 25 c0 -16 6 -25 16 -25 11 0 14 5 10 16 -3 9 -6 20 -6 25 0 5
-4 9 -10 9 -5 0 -10 -11 -10 -25z"/>
<path d="M200 10 c0 -5 7 -10 15 -10 8 0 15 5 15 10 0 6 -7 10 -15 10 -8 0
-15 -4 -15 -10z"/>
</g>
</svg>
