<?xml version="1.0" standalone="no"?>
<!DOCTYPE svg PUBLIC "-//W3C//DTD SVG 20010904//EN"
 "http://www.w3.org/TR/2001/REC-SVG-20010904/DTD/svg10.dtd">
<svg version="1.0" xmlns="http://www.w3.org/2000/svg"
 width="96.000000pt" height="84.000000pt" viewBox="0 0 96.000000 84.000000"
 preserveAspectRatio="xMidYMid meet">
<metadata>
Created by potrace 1.16, written by Peter Selinger 2001-2019
</metadata>
<g transform="translate(0.000000,84.000000) scale(0.100000,-0.100000)"
fill="#000000" stroke="none">
<path d="M600 816 c8 -21 5 -25 -32 -42 -101 -46 -143 -191 -73 -252 21 -17
24 -26 16 -36 -9 -11 -5 -25 19 -62 42 -69 61 -213 26 -201 -18 6 -56 81 -50
100 10 33 -15 87 -44 93 -15 3 -31 7 -37 8 -5 1 -25 -13 -43 -31 -32 -32 -34
-37 -27 -81 4 -30 16 -57 32 -74 24 -25 25 -30 15 -70 -6 -24 -13 -71 -16
-105 l-4 -63 68 0 c45 0 70 4 74 13 5 9 7 9 12 0 4 -10 48 -13 167 -13 181 0
203 4 210 31 6 23 -11 25 -41 3 -13 -9 -26 -14 -28 -11 -7 7 -44 190 -39 195
2 2 11 -10 20 -27 8 -17 17 -31 18 -31 2 0 2 35 1 78 l-2 77 14 -39 c19 -52
28 -59 20 -16 l-7 35 16 -25 c15 -23 16 -15 10 115 -7 154 -14 202 -46 305
-24 81 -51 120 -84 120 -12 0 -28 7 -35 15 -9 10 -32 15 -76 15 -63 0 -63 0
-54 -24z"/>
</g>
</svg>
