<?xml version="1.0" standalone="no"?>
<!DOCTYPE svg PUBLIC "-//W3C//DTD SVG 20010904//EN"
 "http://www.w3.org/TR/2001/REC-SVG-20010904/DTD/svg10.dtd">
<svg version="1.0" xmlns="http://www.w3.org/2000/svg"
 width="96.000000pt" height="84.000000pt" viewBox="0 0 96.000000 84.000000"
 preserveAspectRatio="xMidYMid meet">
<metadata>
Created by potrace 1.16, written by Peter Selinger 2001-2019
</metadata>
<g transform="translate(0.000000,84.000000) scale(0.100000,-0.100000)"
fill="#000000" stroke="none">
<path d="M0 420 l0 -420 90 0 c83 0 90 1 90 20 0 11 -6 20 -13 20 -7 0 -17 8
-24 19 -6 10 -28 22 -48 25 -31 6 -35 10 -29 29 3 12 23 45 44 72 63 85 90
129 81 135 -4 3 -11 12 -15 20 -3 8 -4 3 -2 -12 2 -17 -1 -28 -9 -28 -6 0 -18
-12 -25 -27 l-14 -28 -4 27 c-2 15 3 39 11 55 8 15 18 44 21 63 7 33 6 34 -9
16 -11 -15 -15 -16 -15 -5 -1 8 -7 3 -14 -10 -25 -45 -76 -54 -76 -13 0 50 20
100 59 147 31 38 39 57 44 103 4 37 2 59 -5 63 -9 6 -9 11 0 22 10 12 8 19
-15 36 l-28 22 38 -15 c21 -8 44 -13 52 -10 10 4 15 0 15 -15 0 -12 3 -20 8
-19 4 1 18 -2 30 -6 22 -7 23 -13 20 -60 -3 -48 0 -57 33 -100 33 -42 36 -50
27 -79 -8 -25 -4 -60 16 -158 32 -158 34 -231 5 -260 -11 -11 -30 -19 -42 -17
-14 2 -23 -3 -25 -14 -3 -17 13 -18 223 -18 203 0 226 2 221 16 -3 9 -6 22 -6
30 0 8 -10 14 -22 14 -13 0 -31 7 -42 15 -16 12 -18 24 -13 92 3 43 12 123 22
178 9 55 14 120 11 144 -5 38 -2 48 26 84 26 33 33 50 34 93 2 64 8 74 43 74
18 0 34 8 45 23 14 19 15 20 10 2 -5 -17 -3 -17 14 4 12 15 22 20 26 13 3 -6
-5 -22 -19 -36 -21 -21 -24 -30 -15 -45 5 -11 10 -36 10 -56 0 -43 12 -67 54
-115 17 -19 39 -46 48 -60 16 -24 17 -16 17 173 l1 197 -480 0 -480 0 0 -420z"/>
<path d="M740 443 c0 -12 5 -25 11 -28 17 -11 18 -2 4 25 -14 24 -14 24 -15 3z"/>
<path d="M863 406 c4 -25 3 -48 -2 -51 -11 -6 0 -59 21 -100 9 -16 19 -56 22
-88 6 -48 5 -57 -8 -57 -9 0 -16 -4 -16 -10 0 -5 -8 -10 -17 -10 -29 -1 -63
-36 -63 -64 0 -26 1 -26 80 -26 l80 0 0 205 c0 189 -1 205 -17 205 -10 0 -33
9 -52 21 l-34 20 6 -45z"/>
<path d="M221 404 c-13 -29 -6 -47 9 -24 9 14 14 50 7 50 -2 0 -9 -12 -16 -26z"/>
<path d="M740 26 c0 -17 5 -26 16 -26 10 0 14 7 12 22 -5 32 -28 35 -28 4z"/>
<path d="M215 10 c-3 -5 1 -10 9 -10 9 0 16 5 16 10 0 6 -4 10 -9 10 -6 0 -13
-4 -16 -10z"/>
</g>
</svg>
