<?xml version="1.0" standalone="no"?>
<!DOCTYPE svg PUBLIC "-//W3C//DTD SVG 20010904//EN"
 "http://www.w3.org/TR/2001/REC-SVG-20010904/DTD/svg10.dtd">
<svg version="1.0" xmlns="http://www.w3.org/2000/svg"
 width="96.000000pt" height="84.000000pt" viewBox="0 0 96.000000 84.000000"
 preserveAspectRatio="xMidYMid meet">
<metadata>
Created by potrace 1.16, written by Peter Selinger 2001-2019
</metadata>
<g transform="translate(0.000000,84.000000) scale(0.100000,-0.100000)"
fill="#000000" stroke="none">
<path d="M0 420 l0 -420 105 0 c98 0 105 1 105 20 0 11 -5 20 -11 20 -7 0 -17
8 -24 17 -7 9 -30 22 -51 28 -45 13 -47 32 -8 80 49 60 97 135 90 142 -3 4
-14 -3 -22 -16 -26 -37 -37 -10 -15 40 10 24 21 66 25 94 6 48 6 49 -10 27
-34 -49 -66 -75 -94 -79 -34 -3 -36 4 -19 73 7 28 28 63 56 94 30 33 46 61 50
87 3 21 10 46 15 56 6 12 5 17 -7 17 -18 0 -19 12 -3 28 9 9 7 16 -7 32 -21
23 -8 27 21 5 10 -8 27 -15 37 -15 10 0 17 -6 14 -12 -2 -7 9 -18 24 -25 24
-10 28 -17 27 -55 0 -24 -5 -46 -11 -50 -8 -5 -5 -14 9 -30 44 -49 54 -75 48
-120 -4 -27 2 -83 15 -148 11 -58 23 -135 27 -171 6 -60 4 -69 -15 -88 -12
-12 -30 -21 -39 -20 -32 3 -42 -1 -42 -16 0 -13 29 -15 205 -15 189 0 205 1
205 18 0 24 -12 39 -35 43 -46 9 -50 59 -25 300 8 82 9 123 2 136 -9 16 -4 30
28 76 22 31 35 59 30 62 -4 3 -8 25 -8 50 0 34 4 48 19 56 11 5 24 7 29 4 6
-3 15 6 22 20 7 16 14 21 19 14 4 -8 9 -4 14 10 5 17 10 20 20 11 11 -9 10
-15 -7 -32 -14 -14 -18 -26 -13 -41 4 -12 10 -43 14 -69 4 -26 22 -71 40 -100
31 -49 61 -126 61 -155 0 -19 -41 -16 -55 4 -11 15 -14 11 -20 -25 -6 -35 -2
-52 23 -104 27 -56 36 -97 33 -150 -1 -9 -11 -20 -23 -23 -13 -4 -33 -16 -45
-27 -12 -11 -27 -17 -33 -13 -8 5 -10 -3 -8 -26 l3 -34 88 -3 87 -3 0 421 0
420 -480 0 -480 0 0 -420z"/>
<path d="M720 438 c0 -9 5 -20 10 -23 13 -8 13 5 0 25 -8 13 -10 13 -10 -2z"/>
<path d="M252 405 c-7 -15 -11 -30 -8 -32 7 -7 28 36 24 49 -2 6 -9 -2 -16
-17z"/>
<path d="M730 33 c0 -12 5 -25 10 -28 13 -8 13 15 0 35 -8 12 -10 11 -10 -7z"/>
<path d="M240 10 c0 -5 5 -10 10 -10 6 0 10 5 10 10 0 6 -4 10 -10 10 -5 0
-10 -4 -10 -10z"/>
</g>
</svg>
