<?xml version="1.0" standalone="no"?>
<!DOCTYPE svg PUBLIC "-//W3C//DTD SVG 20010904//EN"
 "http://www.w3.org/TR/2001/REC-SVG-20010904/DTD/svg10.dtd">
<svg version="1.0" xmlns="http://www.w3.org/2000/svg"
 width="96.000000pt" height="84.000000pt" viewBox="0 0 96.000000 84.000000"
 preserveAspectRatio="xMidYMid meet">
<metadata>
Created by potrace 1.16, written by Peter Selinger 2001-2019
</metadata>
<g transform="translate(0.000000,84.000000) scale(0.100000,-0.100000)"
fill="#000000" stroke="none">
<path d="M0 420 l0 -420 85 0 c82 0 93 3 77 25 -7 10 -59 38 -74 39 -26 3 3
81 40 108 32 24 85 97 79 111 -3 8 2 28 10 45 12 25 13 38 4 63 -8 24 -7 37 5
61 26 51 -7 49 -41 -2 -11 -17 -24 -30 -29 -30 -5 0 -14 -8 -21 -17 -7 -9 -26
-17 -44 -18 -26 -1 -31 2 -31 22 0 48 41 121 91 163 27 23 52 53 55 68 4 15
13 37 21 50 11 18 12 27 3 37 -8 10 -7 16 7 24 17 10 17 12 1 21 -18 11 -25
30 -10 30 4 0 20 -11 36 -25 16 -14 33 -25 39 -25 5 0 4 -7 -3 -15 -8 -10 -9
-15 -2 -15 6 0 20 -9 30 -21 20 -21 17 -48 -10 -102 -7 -14 -5 -24 6 -36 9
-10 16 -22 16 -28 0 -6 7 -16 16 -24 12 -10 14 -23 9 -62 -4 -28 1 -128 11
-234 18 -182 18 -185 -1 -199 -16 -12 2 -14 144 -14 l163 0 -20 33 c-29 48
-32 70 -33 254 -1 92 -6 176 -11 187 -10 19 14 77 50 118 13 15 12 19 -2 34
-10 9 -15 23 -12 30 3 8 1 14 -4 14 -22 0 -8 41 20 62 17 12 30 31 30 42 0 10
3 16 7 12 4 -3 12 2 18 13 6 13 15 17 23 12 10 -6 10 -13 -2 -36 -14 -27 -14
-31 4 -50 10 -11 21 -32 25 -47 4 -14 27 -50 51 -78 24 -29 48 -60 53 -69 14
-27 22 -86 15 -118 -5 -25 -11 -31 -28 -29 -32 3 -46 15 -46 37 0 11 -4 18 -9
15 -9 -6 -21 16 -21 39 0 17 -51 95 -62 95 -14 0 -9 -15 14 -40 18 -20 22 -35
22 -92 0 -37 3 -68 7 -68 4 0 34 -32 68 -72 46 -55 63 -83 72 -123 12 -55 2
-95 -25 -95 -8 0 -21 -11 -30 -25 -9 -14 -23 -25 -30 -25 -8 0 -29 -7 -47 -15
-33 -14 -30 -14 74 -15 l107 0 0 420 0 420 -480 0 -480 0 0 -420z"/>
<path d="M242 529 c-7 -11 -11 -23 -9 -25 7 -7 29 24 25 36 -2 6 -9 1 -16 -11z"/>
<path d="M707 453 c-4 -3 -7 -13 -7 -22 1 -13 3 -13 11 2 11 19 8 33 -4 20z"/>
<path d="M272 415 c0 -16 2 -22 5 -12 2 9 2 23 0 30 -3 6 -5 -1 -5 -18z"/>
</g>
</svg>
