<?xml version="1.0" standalone="no"?>
<!DOCTYPE svg PUBLIC "-//W3C//DTD SVG 20010904//EN"
 "http://www.w3.org/TR/2001/REC-SVG-20010904/DTD/svg10.dtd">
<svg version="1.0" xmlns="http://www.w3.org/2000/svg"
 width="96.000000pt" height="84.000000pt" viewBox="0 0 96.000000 84.000000"
 preserveAspectRatio="xMidYMid meet">
<metadata>
Created by potrace 1.16, written by Peter Selinger 2001-2019
</metadata>
<g transform="translate(0.000000,84.000000) scale(0.100000,-0.100000)"
fill="#000000" stroke="none">
<path d="M0 418 l0 -423 26 45 c14 25 56 73 93 107 37 34 85 87 106 117 35 51
37 57 22 69 -22 16 -17 109 7 136 10 11 16 31 14 46 -3 26 -5 25 -72 -37 -38
-35 -72 -63 -76 -63 -4 0 -19 -13 -33 -30 -22 -25 -26 -27 -27 -11 0 14 -3 16
-13 8 -10 -8 -16 -6 -25 9 -29 46 28 141 114 189 29 17 64 45 76 61 13 17 34
41 47 55 13 13 21 30 18 38 -4 9 2 16 16 20 19 5 20 7 5 23 -8 10 -15 27 -15
37 0 16 5 14 28 -14 16 -18 26 -37 23 -41 -2 -4 5 -13 17 -20 20 -10 21 -12 5
-21 -17 -9 -17 -11 2 -31 28 -32 33 -54 17 -71 -8 -8 -15 -19 -15 -25 0 -5
-10 -17 -22 -25 -20 -14 -20 -17 -7 -33 9 -10 24 -40 33 -66 14 -38 16 -54 7
-70 -14 -28 -15 -48 -13 -239 l2 -158 133 0 132 0 -1 191 c-1 136 -5 198 -15
215 -11 21 -10 32 6 77 10 29 24 59 31 67 11 13 10 18 -6 28 -11 7 -20 17 -20
23 0 6 -7 17 -15 26 -18 18 -12 48 17 80 15 16 18 29 13 53 -5 23 -4 30 4 26
7 -4 11 1 11 12 0 15 5 19 20 15 17 -5 19 -11 14 -43 -5 -33 -3 -39 15 -45 12
-3 33 -22 48 -41 15 -21 53 -49 92 -68 92 -45 110 -58 104 -72 -2 -6 0 -15 6
-19 8 -4 11 43 11 154 l0 161 -480 0 -480 0 0 -422z"/>
<path d="M706 538 c3 -18 15 -45 25 -60 10 -15 19 -33 19 -40 0 -9 -3 -9 -11
2 -9 12 -10 12 -5 -3 17 -54 18 -69 2 -86 -19 -21 -15 -25 26 -35 15 -3 47
-23 72 -44 24 -20 63 -52 85 -70 l41 -33 0 126 c0 89 -3 124 -11 119 -6 -3
-28 10 -48 30 -37 36 -60 52 -153 101 l-48 25 6 -32z"/>
</g>
</svg>
