<?xml version="1.0" standalone="no"?>
<!DOCTYPE svg PUBLIC "-//W3C//DTD SVG 20010904//EN"
 "http://www.w3.org/TR/2001/REC-SVG-20010904/DTD/svg10.dtd">
<svg version="1.0" xmlns="http://www.w3.org/2000/svg"
 width="96.000000pt" height="84.000000pt" viewBox="0 0 96.000000 84.000000"
 preserveAspectRatio="xMidYMid meet">
<metadata>
Created by potrace 1.16, written by Peter Selinger 2001-2019
</metadata>
<g transform="translate(0.000000,84.000000) scale(0.100000,-0.100000)"
fill="#000000" stroke="none">
<path d="M0 668 c0 -169 0 -171 19 -151 10 11 55 34 99 52 60 24 90 44 121 77
22 24 47 44 55 44 22 0 30 19 15 36 -11 14 -10 16 6 14 42 -5 45 -1 45 50 l0
50 -180 0 -180 0 0 -172z"/>
<path d="M375 820 c4 -11 8 -41 10 -66 2 -28 10 -51 21 -58 16 -12 15 -13 -4
-18 l-21 -6 21 -41 c22 -45 18 -70 -12 -78 -11 -3 -20 -12 -20 -19 0 -8 -8
-19 -19 -25 -16 -11 -17 -15 -5 -38 8 -14 14 -37 14 -51 0 -14 4 -32 10 -40 9
-15 9 -16 25 35 2 8 9 15 14 15 13 0 5 -145 -10 -171 -6 -11 -20 -19 -36 -19
-25 0 -26 -1 -19 -52 3 -29 6 -83 6 -120 l0 -68 133 0 134 0 10 38 c6 21 8 73
4 122 -6 83 -7 85 -33 88 -33 4 -48 42 -48 125 0 52 2 58 15 47 8 -7 15 -19
15 -26 0 -34 19 -9 29 38 7 28 16 57 21 63 7 8 2 15 -16 23 -14 7 -22 17 -19
22 3 6 2 10 -4 10 -5 0 -17 7 -25 16 -18 17 -13 53 11 92 14 22 13 40 -4 96
-4 13 -2 16 8 11 9 -6 11 -3 6 8 -3 10 -2 17 3 17 6 0 10 -4 10 -10 0 -5 6 -9
13 -7 7 1 12 -9 13 -23 1 -46 4 -50 35 -50 23 0 39 -9 61 -35 17 -19 45 -39
62 -45 36 -11 144 -20 163 -13 10 4 13 35 13 119 l0 114 -296 0 c-292 0 -295
0 -289 -20z"/>
<path d="M704 493 c12 -40 26 -166 20 -189 -9 -36 18 -70 61 -78 20 -4 53 -22
73 -40 20 -18 52 -41 70 -50 l32 -17 0 165 c0 140 -2 165 -16 170 -24 9 -74 7
-74 -3 0 -5 -36 6 -81 25 -94 40 -92 39 -85 17z"/>
<path d="M200 450 c-36 -26 -68 -46 -71 -44 -8 5 -96 -44 -105 -57 -3 -5 -10
-7 -15 -4 -5 4 -9 -64 -9 -170 l0 -177 63 50 c34 27 87 82 118 121 l56 73 7
92 c3 50 10 107 16 126 5 18 8 35 7 36 -2 2 -32 -19 -67 -46z"/>
</g>
</svg>
