<?xml version="1.0" standalone="no"?>
<!DOCTYPE svg PUBLIC "-//W3C//DTD SVG 20010904//EN"
 "http://www.w3.org/TR/2001/REC-SVG-20010904/DTD/svg10.dtd">
<svg version="1.0" xmlns="http://www.w3.org/2000/svg"
 width="96.000000pt" height="84.000000pt" viewBox="0 0 96.000000 84.000000"
 preserveAspectRatio="xMidYMid meet">
<metadata>
Created by potrace 1.16, written by Peter Selinger 2001-2019
</metadata>
<g transform="translate(0.000000,84.000000) scale(0.100000,-0.100000)"
fill="#000000" stroke="none">
<path d="M0 660 l0 -180 38 16 c20 8 60 24 88 35 38 14 65 35 103 78 33 39 62
62 81 66 31 7 38 23 18 43 -8 8 -3 10 24 6 33 -6 36 -4 51 34 9 22 22 44 28
48 9 5 10 2 6 -9 -4 -10 -10 -24 -14 -34 -4 -11 -3 -14 5 -9 16 10 14 -5 -3
-28 -19 -26 -19 -32 5 -56 19 -19 19 -20 2 -20 -28 0 -33 -10 -17 -34 27 -42
17 -116 -16 -116 -4 0 -20 -11 -34 -25 -24 -25 -24 -27 -9 -57 9 -17 17 -49
18 -72 2 -44 2 -44 46 -26 20 8 30 20 30 34 0 36 12 66 26 66 17 0 34 -31 34
-63 0 -19 8 -28 31 -36 45 -15 45 -15 46 29 1 22 9 53 19 68 16 28 16 29 -8
53 -14 13 -34 29 -44 35 -29 17 -31 80 -4 116 22 30 22 30 2 51 -17 20 -24 79
-10 93 3 2 16 -17 31 -44 24 -44 29 -47 66 -48 35 -1 47 -8 93 -56 52 -55 54
-56 123 -61 39 -3 78 -9 88 -12 16 -7 17 4 17 144 l0 151 -480 0 -480 0 0
-180z"/>
<path d="M470 380 c0 -5 5 -10 10 -10 6 0 10 5 10 10 0 6 -4 10 -10 10 -5 0
-10 -4 -10 -10z"/>
<path d="M736 281 c4 -47 10 -93 15 -102 5 -10 30 -24 56 -33 31 -11 67 -35
100 -68 l53 -52 0 156 c0 173 6 158 -69 173 -22 5 -31 4 -27 -3 10 -17 -13
-25 -30 -11 -8 7 -35 15 -60 19 l-45 7 7 -86z"/>
<path d="M938 363 c7 -3 16 -2 19 1 4 3 -2 6 -13 5 -11 0 -14 -3 -6 -6z"/>
<path d="M187 340 c-16 -5 -34 -14 -42 -20 -9 -8 -15 -8 -20 0 -4 7 -27 -1
-66 -21 l-59 -32 0 -133 0 -134 44 0 44 0 65 93 c63 91 64 93 70 175 4 45 3
82 -1 81 -4 0 -20 -5 -35 -9z"/>
<path d="M470 299 c0 -11 5 -17 10 -14 6 3 10 13 10 21 0 8 -4 14 -10 14 -5 0
-10 -9 -10 -21z"/>
<path d="M10 300 c-8 -5 -12 -11 -10 -14 3 -2 14 2 24 10 22 15 10 19 -14 4z"/>
<path d="M392 258 c-18 -11 -31 -23 -28 -25 9 -10 76 19 76 33 0 18 -8 17 -48
-8z"/>
<path d="M520 267 c0 -13 67 -43 76 -34 5 5 -58 47 -70 47 -3 0 -6 -6 -6 -13z"/>
<path d="M465 231 c-5 -24 -17 -34 -71 -58 l-66 -28 7 -65 c4 -36 9 -68 12
-72 2 -5 67 -8 144 -8 l139 0 0 74 0 73 -61 27 c-47 20 -63 33 -72 56 -14 38
-24 38 -32 1z"/>
</g>
</svg>
