<?xml version="1.0" standalone="no"?>
<!DOCTYPE svg PUBLIC "-//W3C//DTD SVG 20010904//EN"
 "http://www.w3.org/TR/2001/REC-SVG-20010904/DTD/svg10.dtd">
<svg version="1.0" xmlns="http://www.w3.org/2000/svg"
 width="96.000000pt" height="84.000000pt" viewBox="0 0 96.000000 84.000000"
 preserveAspectRatio="xMidYMid meet">
<metadata>
Created by potrace 1.16, written by Peter Selinger 2001-2019
</metadata>
<g transform="translate(0.000000,84.000000) scale(0.100000,-0.100000)"
fill="#000000" stroke="none">
<path d="M0 625 c0 -118 3 -215 7 -215 3 0 15 8 26 18 10 9 49 33 85 52 54 29
72 45 97 87 43 74 71 103 99 103 29 0 43 17 27 33 -19 19 -12 27 18 21 24 -5
33 -1 56 30 15 20 34 36 43 36 12 0 10 -6 -8 -25 l-23 -25 24 -1 c24 -1 24 -1
-3 -12 -31 -12 -36 -38 -13 -57 19 -16 20 -31 1 -24 -22 9 -28 -13 -11 -40 23
-34 16 -88 -12 -100 -29 -13 -48 -74 -37 -123 4 -21 7 -48 6 -60 -2 -13 0 -23
3 -23 16 0 65 32 60 40 -3 5 -1 12 5 15 6 4 10 16 8 28 -2 18 3 23 25 25 25 3
28 1 22 -17 -10 -32 3 -60 35 -76 38 -20 43 -19 37 6 -3 12 -1 33 4 47 15 39
-6 125 -34 137 -18 8 -22 18 -21 52 0 25 8 51 17 61 23 25 21 49 -4 55 -17 5
-20 11 -15 29 3 13 6 31 6 41 0 26 17 12 40 -34 19 -35 24 -39 60 -39 44 0 77
-27 110 -91 25 -48 34 -54 115 -76 39 -11 78 -24 88 -28 16 -7 17 6 17 179 l0
186 -480 0 -480 0 0 -215z"/>
<path d="M730 325 c0 -8 4 -15 10 -15 5 0 7 7 4 15 -4 8 -8 15 -10 15 -2 0 -4
-7 -4 -15z"/>
<path d="M740 285 c0 -8 9 -15 20 -15 13 0 18 5 14 15 -4 8 -12 15 -20 15 -8
0 -14 -7 -14 -15z"/>
<path d="M814 282 c6 -10 -36 -32 -60 -32 -12 0 -14 -10 -12 -42 3 -41 6 -44
55 -68 62 -31 88 -53 119 -102 14 -21 29 -38 34 -38 6 0 10 50 10 128 l0 128
-47 17 -48 17 25 -21 c26 -22 19 -21 -43 6 -22 9 -36 12 -33 7z"/>
<path d="M150 270 c-9 -6 -10 -10 -3 -10 6 0 15 5 18 10 8 12 4 12 -15 0z"/>
<path d="M396 252 c-21 -14 -34 -28 -28 -30 19 -6 82 27 82 42 0 21 -8 19 -54
-12z"/>
<path d="M510 265 c0 -11 57 -45 76 -45 14 0 -1 18 -31 38 -41 26 -45 27 -45
7z"/>
<path d="M55 233 c-22 -15 -42 -25 -45 -23 -3 3 -6 -43 -8 -102 l-3 -108 59 0
59 0 19 42 c10 24 34 64 51 90 19 27 33 60 33 76 0 28 -3 30 -50 36 -43 6 -56
3 -83 -15 l-32 -23 24 27 c31 34 26 34 -24 0z"/>
<path d="M466 217 c-4 -16 -21 -30 -58 -45 -30 -12 -59 -22 -66 -22 -15 0 -15
-7 0 -86 l11 -64 132 0 132 0 7 52 c9 77 7 98 -6 98 -7 0 -37 10 -66 22 -35
16 -54 30 -58 46 -8 28 -20 28 -28 -1z"/>
</g>
</svg>
