<?xml version="1.0" standalone="no"?>
<!DOCTYPE svg PUBLIC "-//W3C//DTD SVG 20010904//EN"
 "http://www.w3.org/TR/2001/REC-SVG-20010904/DTD/svg10.dtd">
<svg version="1.0" xmlns="http://www.w3.org/2000/svg"
 width="96.000000pt" height="84.000000pt" viewBox="0 0 96.000000 84.000000"
 preserveAspectRatio="xMidYMid meet">
<metadata>
Created by potrace 1.16, written by Peter Selinger 2001-2019
</metadata>
<g transform="translate(0.000000,84.000000) scale(0.100000,-0.100000)"
fill="#000000" stroke="none">
<path d="M0 420 l0 -421 67 3 66 3 26 62 c15 34 34 70 44 81 21 23 22 33 2 25
-9 -3 -14 -8 -11 -10 5 -5 -31 -43 -40 -42 -3 0 -11 -7 -18 -16 -10 -14 -12
-11 -13 20 -1 21 5 52 13 71 20 47 18 48 -20 25 -27 -17 -39 -19 -61 -11 -15
6 -25 13 -23 18 43 90 69 132 118 188 45 52 62 81 75 128 21 76 57 126 91 126
29 0 42 24 24 45 -8 10 -9 15 -2 15 6 0 13 -4 16 -9 11 -16 45 1 71 35 14 19
31 34 37 34 6 0 1 -11 -12 -25 l-23 -25 24 -1 c23 0 23 0 3 -9 -32 -13 -38
-28 -20 -55 20 -30 20 -36 2 -29 -22 9 -28 -13 -11 -40 23 -35 16 -88 -12
-101 -22 -9 -23 -16 -23 -102 0 -93 5 -106 36 -85 19 12 34 50 28 66 -6 15 -3
17 39 20 7 1 11 -9 9 -24 -2 -16 6 -35 20 -50 l23 -24 12 64 c18 99 17 124 -9
135 -32 14 -36 69 -9 106 25 34 26 37 4 61 -16 18 -25 64 -15 82 2 4 18 -12
33 -38 27 -42 32 -46 69 -46 32 0 43 -5 63 -32 14 -18 32 -60 42 -93 15 -54
26 -70 116 -159 73 -74 98 -105 93 -118 -11 -36 -60 -33 -156 10 -4 2 4 -23
18 -55 15 -32 26 -68 26 -80 0 -12 14 -34 30 -50 16 -15 36 -43 43 -60 9 -22
21 -33 34 -33 21 0 21 3 21 420 l0 420 -480 0 -480 0 0 -420z"/>
<path d="M345 440 c3 -5 8 -10 11 -10 2 0 4 5 4 10 0 6 -5 10 -11 10 -5 0 -7
-4 -4 -10z"/>
<path d="M600 435 c0 -8 2 -15 4 -15 2 0 6 7 10 15 3 8 1 15 -4 15 -6 0 -10
-7 -10 -15z"/>
<path d="M405 255 c-31 -26 -24 -32 19 -15 14 5 26 16 26 25 0 21 -10 19 -45
-10z"/>
<path d="M510 266 c0 -14 29 -31 38 -21 6 6 -18 35 -29 35 -5 0 -9 -6 -9 -14z"/>
<path d="M467 221 c-3 -11 -31 -33 -66 -50 -56 -29 -61 -34 -61 -64 0 -17 5
-49 11 -70 l10 -38 127 3 127 3 6 70 c3 39 3 72 1 75 -9 11 -32 -35 -26 -53 4
-13 2 -17 -5 -13 -6 4 -16 25 -22 46 -8 28 -22 46 -46 60 -18 10 -33 26 -33
35 0 22 -17 19 -23 -4z"/>
</g>
</svg>
