<?xml version="1.0" standalone="no"?>
<!DOCTYPE svg PUBLIC "-//W3C//DTD SVG 20010904//EN"
 "http://www.w3.org/TR/2001/REC-SVG-20010904/DTD/svg10.dtd">
<svg version="1.0" xmlns="http://www.w3.org/2000/svg"
 width="96.000000pt" height="84.000000pt" viewBox="0 0 96.000000 84.000000"
 preserveAspectRatio="xMidYMid meet">
<metadata>
Created by potrace 1.16, written by Peter Selinger 2001-2019
</metadata>
<g transform="translate(0.000000,84.000000) scale(0.100000,-0.100000)"
fill="#000000" stroke="none">
<path d="M0 420 l0 -420 68 0 68 0 27 69 c32 82 32 80 8 74 -10 -3 -22 0 -25
5 -11 18 14 154 45 241 16 45 33 112 39 148 10 77 47 133 86 133 29 0 42 24
24 45 -13 16 0 21 15 6 17 -16 54 7 69 42 8 19 19 38 25 41 16 10 14 -1 -5
-29 -10 -16 -12 -25 -5 -25 8 0 6 -8 -3 -23 -15 -22 -12 -67 5 -67 5 0 9 -4 9
-10 0 -5 -9 -10 -20 -10 -24 0 -24 0 -5 -36 28 -53 15 -104 -27 -104 -24 0
-34 -61 -20 -129 6 -30 13 -56 15 -58 3 -2 16 2 31 8 20 10 26 19 26 45 0 24
5 34 21 39 26 9 31 3 34 -36 5 -52 46 -66 63 -21 30 75 26 152 -7 152 -10 0
-24 7 -31 15 -16 20 -7 81 16 107 17 17 17 21 2 46 -15 26 -22 52 -19 80 1 19
23 -4 45 -46 14 -28 22 -32 56 -32 56 0 88 -44 101 -140 6 -39 21 -99 34 -135
14 -35 29 -95 35 -132 5 -37 12 -78 15 -90 4 -15 0 -23 -12 -25 -13 -3 -6 -9
22 -23 28 -14 49 -36 70 -72 18 -31 37 -52 48 -53 16 0 17 27 17 420 l0 420
-480 0 -480 0 0 -420z"/>
<path d="M426 275 c-11 -8 -17 -18 -13 -21 10 -11 37 4 37 21 0 18 0 18 -24 0z"/>
<path d="M510 274 c0 -8 5 -12 10 -9 6 4 8 11 5 16 -9 14 -15 11 -15 -7z"/>
<path d="M365 230 c-3 -5 -1 -10 4 -10 6 0 11 5 11 10 0 6 -2 10 -4 10 -3 0
-8 -4 -11 -10z"/>
<path d="M470 225 c0 -9 -7 -18 -16 -22 -12 -4 -14 -14 -10 -35 4 -20 2 -27
-6 -22 -7 5 -9 2 -6 -7 3 -8 9 -25 13 -39 7 -22 6 -23 -8 -12 -9 8 -21 29 -27
47 -10 32 -12 33 -42 21 l-30 -11 5 -63 c4 -35 9 -67 12 -72 4 -6 63 -10 135
-10 l128 0 4 75 c2 61 0 75 -12 75 -8 0 -28 8 -45 18 l-29 18 -38 -40 c-21
-21 -41 -37 -44 -33 -3 3 8 21 25 39 33 35 43 62 13 35 -26 -24 -36 -21 -18 5
18 26 21 48 6 48 -5 0 -10 -7 -10 -15z"/>
<path d="M560 236 c0 -2 7 -6 15 -10 8 -3 15 -1 15 4 0 6 -7 10 -15 10 -8 0
-15 -2 -15 -4z"/>
</g>
</svg>
