<?xml version="1.0" standalone="no"?>
<!DOCTYPE svg PUBLIC "-//W3C//DTD SVG 20010904//EN"
 "http://www.w3.org/TR/2001/REC-SVG-20010904/DTD/svg10.dtd">
<svg version="1.0" xmlns="http://www.w3.org/2000/svg"
 width="96.000000pt" height="84.000000pt" viewBox="0 0 96.000000 84.000000"
 preserveAspectRatio="xMidYMid meet">
<metadata>
Created by potrace 1.16, written by Peter Selinger 2001-2019
</metadata>
<g transform="translate(0.000000,84.000000) scale(0.100000,-0.100000)"
fill="#000000" stroke="none">
<path d="M0 420 l0 -420 69 0 69 0 16 48 c9 26 27 63 40 83 23 34 24 38 11 98
-11 55 -10 79 10 214 12 84 27 162 33 172 16 30 45 54 72 58 28 5 37 22 20 42
-8 10 -9 15 -2 15 6 0 13 -4 16 -9 13 -20 48 4 68 46 11 24 23 42 25 39 3 -2
0 -14 -7 -25 -6 -12 -8 -25 -5 -30 3 -5 0 -21 -6 -35 -10 -20 -9 -30 5 -51 16
-24 16 -25 -5 -25 -16 0 -19 -4 -14 -17 25 -62 27 -75 16 -99 -6 -14 -19 -24
-31 -24 -11 0 -20 -5 -20 -11 0 -7 -8 -17 -17 -24 -17 -12 -17 -16 0 -62 9
-26 17 -61 17 -76 l0 -29 32 19 c23 13 35 30 41 56 12 51 43 52 53 1 5 -25 16
-41 38 -55 l31 -19 6 43 c4 23 13 57 20 75 13 30 12 35 -4 46 -9 7 -17 18 -17
24 0 6 -10 12 -22 14 -37 5 -45 47 -18 102 20 42 21 49 7 64 -17 20 -28 70
-16 78 5 2 20 -13 35 -35 22 -35 31 -40 60 -39 39 1 76 -27 92 -70 6 -15 18
-90 27 -168 15 -124 15 -147 2 -196 -18 -68 -11 -82 53 -103 52 -17 88 -51
109 -104 8 -19 21 -31 32 -31 18 0 19 16 19 420 l0 420 -480 0 -480 0 0 -420z"/>
<path d="M408 260 l-33 -31 38 18 c20 9 37 23 37 30 0 19 -6 17 -42 -17z"/>
<path d="M510 277 c0 -12 39 -37 57 -37 9 0 -19 30 -39 41 -13 7 -18 6 -18 -4z"/>
<path d="M470 235 c0 -8 -11 -22 -25 -31 -14 -9 -22 -20 -19 -25 3 -5 -1 -6
-9 -3 -26 10 -32 -18 -7 -38 26 -21 13 -25 -16 -3 -10 8 -26 15 -35 15 -17 0
-18 -16 -11 -122 l2 -28 135 0 135 0 0 50 c0 30 -4 50 -11 50 -8 0 -8 5 1 15
11 14 7 19 -13 16 -4 0 -6 5 -5 11 2 9 -10 13 -36 12 -30 -1 -35 1 -22 8 13 8
15 13 5 24 -6 8 -18 14 -25 14 -8 0 -16 11 -20 25 -7 27 -24 34 -24 10z"/>
</g>
</svg>
