<?xml version="1.0" standalone="no"?>
<!DOCTYPE svg PUBLIC "-//W3C//DTD SVG 20010904//EN"
 "http://www.w3.org/TR/2001/REC-SVG-20010904/DTD/svg10.dtd">
<svg version="1.0" xmlns="http://www.w3.org/2000/svg"
 width="96.000000pt" height="84.000000pt" viewBox="0 0 96.000000 84.000000"
 preserveAspectRatio="xMidYMid meet">
<metadata>
Created by potrace 1.16, written by Peter Selinger 2001-2019
</metadata>
<g transform="translate(0.000000,84.000000) scale(0.100000,-0.100000)"
fill="#000000" stroke="none">
<path d="M604 817 c5 -20 -1 -26 -32 -40 -51 -22 -79 -54 -100 -113 -22 -60
-14 -109 21 -140 18 -15 22 -25 15 -37 -6 -12 -1 -28 19 -58 29 -44 59 -177
43 -193 -21 -22 -60 51 -60 113 0 21 -6 44 -12 53 -14 17 -78 30 -78 16 0 -4
-6 -8 -13 -8 -54 0 -63 -117 -13 -169 22 -23 25 -32 17 -53 -5 -14 -13 -62
-16 -106 l-8 -82 66 0 c58 0 65 2 72 23 l8 22 4 -22 c4 -23 6 -23 176 -23 95
0 177 4 183 8 15 10 25 42 13 42 -5 0 -21 -7 -35 -16 -13 -9 -26 -15 -29 -13
-4 4 -45 188 -45 199 0 3 11 -12 24 -33 l24 -38 -3 83 c-3 82 -3 83 11 44 18
-49 29 -61 20 -21 l-7 30 19 -23 c18 -24 18 -24 15 40 -10 182 -24 290 -48
368 -30 99 -52 134 -89 138 -15 2 -30 10 -33 18 -4 10 -23 14 -70 14 -63 0
-65 -1 -59 -23z"/>
</g>
</svg>
