<?xml version="1.0" standalone="no"?>
<!DOCTYPE svg PUBLIC "-//W3C//DTD SVG 20010904//EN"
 "http://www.w3.org/TR/2001/REC-SVG-20010904/DTD/svg10.dtd">
<svg version="1.0" xmlns="http://www.w3.org/2000/svg"
 width="96.000000pt" height="84.000000pt" viewBox="0 0 96.000000 84.000000"
 preserveAspectRatio="xMidYMid meet">
<metadata>
Created by potrace 1.16, written by Peter Selinger 2001-2019
</metadata>
<g transform="translate(0.000000,84.000000) scale(0.100000,-0.100000)"
fill="#000000" stroke="none">
<path d="M0 420 l0 -420 69 0 68 0 18 48 c10 26 26 59 37 74 17 24 18 35 9
108 -8 61 -7 100 3 163 8 45 17 107 21 137 11 85 45 135 95 143 28 4 37 22 21
41 -9 11 -4 13 26 12 34 -1 39 3 61 42 13 24 27 41 29 38 3 -3 -2 -17 -11 -30
-18 -29 -21 -40 -6 -31 14 9 12 -7 -4 -28 -14 -18 -11 -57 5 -57 5 0 9 -4 9
-10 0 -5 -9 -10 -20 -10 -23 0 -24 -6 -5 -40 21 -37 19 -76 -7 -94 -12 -8 -25
-13 -30 -10 -4 3 -8 -1 -8 -8 0 -7 -9 -19 -20 -26 l-20 -12 20 -40 c11 -21 20
-53 20 -70 0 -51 55 -27 75 32 15 47 42 49 50 4 7 -33 39 -66 65 -66 5 0 10
14 10 30 0 17 9 49 20 70 l20 40 -20 12 c-11 7 -20 18 -20 25 0 7 -8 13 -18
13 -45 0 -53 41 -21 107 20 42 21 45 4 64 -18 19 -29 93 -13 83 5 -3 20 -24
34 -46 22 -35 29 -39 53 -33 34 7 82 -28 99 -72 22 -55 43 -263 37 -359 l-6
-92 51 -17 c51 -17 99 -66 115 -116 4 -10 15 -19 26 -19 18 0 19 12 19 420 l0
420 -480 0 -480 0 0 -420z"/>
<path d="M407 263 c-20 -14 -35 -28 -33 -30 8 -8 76 31 76 44 0 17 1 17 -43
-14z"/>
<path d="M510 277 c0 -12 59 -47 78 -47 8 0 -34 35 -60 51 -13 7 -18 6 -18 -4z"/>
<path d="M470 236 c0 -16 -98 -86 -120 -86 -10 0 -11 -15 -6 -61 11 -95 1 -89
147 -89 l129 0 0 81 c0 54 -3 78 -11 74 -14 -9 -119 61 -119 80 0 8 -4 15 -10
15 -5 0 -10 -7 -10 -14z"/>
</g>
</svg>
