<?xml version="1.0" standalone="no"?>
<!DOCTYPE svg PUBLIC "-//W3C//DTD SVG 20010904//EN"
 "http://www.w3.org/TR/2001/REC-SVG-20010904/DTD/svg10.dtd">
<svg version="1.0" xmlns="http://www.w3.org/2000/svg"
 width="96.000000pt" height="84.000000pt" viewBox="0 0 96.000000 84.000000"
 preserveAspectRatio="xMidYMid meet">
<metadata>
Created by potrace 1.16, written by Peter Selinger 2001-2019
</metadata>
<g transform="translate(0.000000,84.000000) scale(0.100000,-0.100000)"
fill="#000000" stroke="none">
<path d="M0 420 l0 -420 70 0 70 0 15 36 c8 20 15 66 16 103 1 102 13 206 38
321 13 58 25 115 27 127 6 33 51 81 84 88 30 7 38 19 20 30 -23 14 -9 27 25
21 32 -6 36 -4 60 35 15 22 29 38 32 35 3 -3 -2 -17 -12 -32 -15 -24 -16 -26
-1 -21 9 4 16 2 16 -2 0 -5 -7 -11 -15 -15 -19 -7 -19 -40 0 -56 20 -17 19
-30 -3 -30 -28 0 -33 -10 -17 -34 30 -43 8 -116 -35 -116 -7 0 -11 -3 -8 -6 4
-3 -2 -14 -13 -25 -18 -18 -18 -21 -3 -51 9 -17 16 -46 16 -64 0 -19 4 -34 9
-34 25 0 57 34 63 65 10 49 42 49 52 0 6 -31 38 -65 63 -65 5 0 9 15 9 34 0
18 7 47 16 64 15 30 15 33 -4 52 -11 11 -17 20 -12 20 4 0 -8 8 -25 16 -28 14
-33 22 -33 51 0 19 8 48 17 64 16 28 16 31 -5 74 -27 56 -28 75 -2 44 21 -26
26 -19 9 13 -19 36 9 10 37 -33 20 -32 29 -38 47 -34 27 7 71 -24 91 -63 7
-15 17 -49 20 -77 4 -27 16 -84 26 -125 17 -73 32 -172 34 -238 1 -25 8 -37
32 -51 37 -22 72 -65 80 -98 4 -16 13 -23 30 -23 l24 0 0 420 0 420 -480 0
-480 0 0 -420z"/>
<path d="M402 260 c-37 -35 -36 -36 13 -13 19 9 35 23 35 30 0 20 -12 15 -48
-17z"/>
<path d="M510 277 c0 -12 59 -47 77 -47 9 0 -60 59 -69 60 -5 0 -8 -6 -8 -13z"/>
<path d="M470 236 c0 -16 -98 -86 -120 -86 -8 0 -10 -10 -6 -32 3 -18 8 -52
12 -75 l7 -43 123 0 124 0 0 29 c0 15 3 49 6 75 5 34 3 46 -6 46 -22 0 -120
70 -120 86 0 7 -4 14 -10 14 -5 0 -10 -7 -10 -14z"/>
</g>
</svg>
