<?xml version="1.0" standalone="no"?>
<!DOCTYPE svg PUBLIC "-//W3C//DTD SVG 20010904//EN"
 "http://www.w3.org/TR/2001/REC-SVG-20010904/DTD/svg10.dtd">
<svg version="1.0" xmlns="http://www.w3.org/2000/svg"
 width="96.000000pt" height="84.000000pt" viewBox="0 0 96.000000 84.000000"
 preserveAspectRatio="xMidYMid meet">
<metadata>
Created by potrace 1.16, written by Peter Selinger 2001-2019
</metadata>
<g transform="translate(0.000000,84.000000) scale(0.100000,-0.100000)"
fill="#000000" stroke="none">
<path d="M0 420 l0 -420 73 0 73 0 17 48 c20 56 21 90 1 47 -13 -28 -13 -26
-9 40 7 108 23 210 44 278 10 34 22 88 25 119 9 68 39 117 85 139 21 10 30 19
23 23 -7 4 -12 14 -12 23 0 12 8 14 36 11 33 -4 37 -1 54 33 19 36 42 54 54
42 3 -4 -4 -17 -16 -30 -20 -22 -21 -23 -2 -24 17 0 17 -1 -3 -16 -28 -19 -29
-34 -3 -51 29 -18 26 -42 -5 -42 -25 0 -25 -1 -10 -30 8 -16 15 -42 15 -59 0
-28 -21 -61 -39 -61 -5 0 -15 -14 -24 -31 -13 -28 -13 -36 0 -66 7 -19 11 -43
8 -53 -3 -10 -1 -21 4 -25 16 -9 61 25 61 45 0 59 45 71 56 15 3 -20 16 -40
30 -50 29 -18 47 -11 39 15 -3 10 1 34 8 53 13 30 13 38 0 64 -8 17 -25 36
-39 43 -19 11 -24 21 -24 49 1 20 7 47 14 60 12 21 11 30 -4 65 -10 23 -21 52
-24 66 -6 22 -5 21 10 -5 9 -16 18 -31 19 -33 2 -2 13 1 24 8 17 9 19 15 11
30 -18 33 -2 23 24 -16 13 -19 39 -43 57 -52 46 -23 76 -72 84 -135 3 -28 15
-79 26 -112 19 -60 37 -161 45 -244 3 -34 12 -51 42 -80 21 -20 44 -51 51 -69
10 -23 20 -32 37 -32 l24 0 0 420 0 420 -480 0 -480 0 0 -420z"/>
<path d="M404 258 l-29 -32 35 22 c19 11 36 26 38 31 7 21 -15 11 -44 -21z"/>
<path d="M512 279 c2 -5 19 -20 38 -31 l35 -22 -29 32 c-29 32 -51 42 -44 21z"/>
<path d="M470 242 c0 -13 -21 -33 -60 -58 -65 -43 -70 -56 -49 -140 l11 -44
119 0 119 0 0 73 -1 72 -59 39 c-33 21 -60 44 -60 52 0 7 -4 16 -10 19 -5 3
-10 -3 -10 -13z"/>
</g>
</svg>
