<?xml version="1.0" standalone="no"?>
<!DOCTYPE svg PUBLIC "-//W3C//DTD SVG 20010904//EN"
 "http://www.w3.org/TR/2001/REC-SVG-20010904/DTD/svg10.dtd">
<svg version="1.0" xmlns="http://www.w3.org/2000/svg"
 width="96.000000pt" height="84.000000pt" viewBox="0 0 96.000000 84.000000"
 preserveAspectRatio="xMidYMid meet">
<metadata>
Created by potrace 1.16, written by Peter Selinger 2001-2019
</metadata>
<g transform="translate(0.000000,84.000000) scale(0.100000,-0.100000)"
fill="#000000" stroke="none">
<path d="M0 420 l0 -421 76 3 76 3 19 47 c21 54 16 95 -8 62 -11 -16 -12 -12
-7 31 18 157 26 204 39 245 8 25 19 80 24 123 13 90 32 133 66 149 25 11 34
28 15 28 -5 0 -10 9 -10 19 0 20 18 31 50 31 12 0 21 10 25 30 4 17 15 35 26
40 15 9 17 8 12 -6 -5 -15 -4 -15 20 1 16 10 27 13 27 6 0 -6 -3 -11 -7 -11
-5 0 -16 -12 -26 -25 l-18 -25 33 6 33 5 -34 -16 -34 -15 27 -29 c28 -30 28
-51 -1 -51 -11 0 -13 -5 -8 -17 4 -10 13 -35 18 -55 10 -33 8 -40 -11 -61 -19
-20 -24 -40 -29 -111 -5 -70 -3 -86 8 -86 23 1 49 26 49 48 0 23 27 55 40 47
5 -3 12 -20 15 -38 4 -18 18 -40 31 -50 22 -17 25 -17 31 -2 3 9 3 51 -1 93
-4 56 -11 81 -26 97 -23 24 -25 48 -6 90 11 25 11 35 0 56 -7 15 -16 46 -19
70 l-6 44 25 -60 c14 -33 26 -61 26 -62 0 -2 11 2 24 8 16 7 22 17 19 29 -3
12 2 20 16 25 17 5 20 12 15 33 -5 25 -4 25 7 7 7 -11 19 -26 27 -34 8 -8 11
-24 8 -36 -4 -15 -1 -25 9 -28 23 -10 44 -61 55 -139 6 -40 18 -94 26 -119 16
-51 34 -149 39 -222 3 -38 10 -52 34 -73 16 -14 38 -43 47 -64 15 -33 23 -40
46 -40 l28 0 0 420 0 420 -480 0 -480 0 0 -420z"/>
<path d="M364 459 c-3 -6 -1 -16 5 -22 8 -8 11 -5 11 11 0 24 -5 28 -16 11z"/>
<path d="M580 450 c0 -19 3 -21 12 -12 9 9 9 15 0 24 -9 9 -12 7 -12 -12z"/>
<path d="M409 263 l-24 -26 33 19 c17 10 32 22 32 26 0 15 -17 8 -41 -19z"/>
<path d="M510 280 c0 -5 15 -17 33 -26 l32 -17 -24 27 c-25 27 -41 33 -41 16z"/>
<path d="M470 245 c0 -14 -85 -88 -111 -97 -8 -3 -8 -22 2 -73 l14 -70 111 -3
111 -3 8 73 c4 50 3 74 -4 76 -26 9 -111 84 -111 97 0 8 -4 15 -10 15 -5 0
-10 -7 -10 -15z"/>
</g>
</svg>
