<?xml version="1.0" standalone="no"?>
<!DOCTYPE svg PUBLIC "-//W3C//DTD SVG 20010904//EN"
 "http://www.w3.org/TR/2001/REC-SVG-20010904/DTD/svg10.dtd">
<svg version="1.0" xmlns="http://www.w3.org/2000/svg"
 width="96.000000pt" height="84.000000pt" viewBox="0 0 96.000000 84.000000"
 preserveAspectRatio="xMidYMid meet">
<metadata>
Created by potrace 1.16, written by Peter Selinger 2001-2019
</metadata>
<g transform="translate(0.000000,84.000000) scale(0.100000,-0.100000)"
fill="#000000" stroke="none">
<path d="M0 420 l0 -421 82 3 81 3 18 50 c20 57 25 90 10 66 -14 -23 -25 49
-16 114 3 30 6 57 6 60 0 2 6 23 14 46 8 22 19 79 25 127 16 138 20 153 47
178 25 23 25 25 9 43 -21 23 -14 41 15 41 16 0 19 5 14 20 -4 12 -2 20 5 20 6
0 10 8 9 18 -5 49 13 58 27 13 l9 -29 16 34 16 34 -193 0 -194 0 0 -420z"/>
<path d="M391 799 c-23 -40 -23 -41 -3 -30 11 6 29 11 39 11 11 -1 3 -9 -22
-22 -35 -18 -37 -22 -19 -28 11 -4 26 -16 34 -25 13 -16 12 -19 -7 -32 l-22
-15 26 -39 c23 -36 25 -43 15 -77 -6 -20 -14 -80 -17 -132 -6 -90 -5 -94 11
-78 10 10 23 32 28 50 14 43 38 42 50 -2 9 -32 22 -49 37 -50 10 0 -2 194 -12
205 -13 13 -11 36 6 69 14 27 14 34 0 68 -8 21 -15 57 -14 81 l1 42 13 -50
c20 -80 25 -88 49 -80 11 4 33 8 49 9 30 1 33 6 15 24 -8 8 -5 14 16 21 22 9
26 15 21 38 -5 27 -5 27 6 6 7 -13 18 -23 25 -23 19 0 26 -18 15 -37 -6 -10
-11 -13 -12 -8 -1 6 -4 -3 -8 -20 -4 -17 -2 -43 5 -60 6 -16 17 -73 23 -126 6
-53 20 -125 32 -160 20 -62 39 -224 20 -169 l-9 25 -1 -27 c-1 -18 4 -28 13
-28 19 0 84 -74 92 -105 5 -21 12 -25 40 -25 l34 0 0 420 0 420 -273 0 -273 0
-23 -41z"/>
<path d="M387 483 c-10 -10 -8 -66 3 -83 7 -11 10 0 10 38 0 53 -1 57 -13 45z"/>
<path d="M560 438 c0 -38 3 -49 10 -38 13 20 13 77 0 85 -6 4 -10 -14 -10 -47z"/>
<path d="M419 274 c-23 -25 -23 -26 -2 -15 23 12 38 29 31 37 -3 2 -15 -8 -29
-22z"/>
<path d="M510 289 c0 -14 38 -44 46 -36 2 2 -7 14 -21 27 -17 16 -25 19 -25 9z"/>
<path d="M470 251 c0 -10 -24 -37 -55 -62 -60 -48 -62 -55 -43 -138 l11 -51
103 0 c114 0 114 0 114 73 0 64 -8 79 -61 121 -27 22 -49 48 -49 58 0 10 -4
18 -10 18 -5 0 -10 -8 -10 -19z"/>
</g>
</svg>
