<?xml version="1.0" standalone="no"?>
<!DOCTYPE svg PUBLIC "-//W3C//DTD SVG 20010904//EN"
 "http://www.w3.org/TR/2001/REC-SVG-20010904/DTD/svg10.dtd">
<svg version="1.0" xmlns="http://www.w3.org/2000/svg"
 width="96.000000pt" height="84.000000pt" viewBox="0 0 96.000000 84.000000"
 preserveAspectRatio="xMidYMid meet">
<metadata>
Created by potrace 1.16, written by Peter Selinger 2001-2019
</metadata>
<g transform="translate(0.000000,84.000000) scale(0.100000,-0.100000)"
fill="#000000" stroke="none">
<path d="M0 420 l0 -420 84 0 84 0 22 66 c17 51 20 68 10 74 -15 9 -6 137 15
215 8 28 18 99 23 158 8 93 12 111 33 133 l24 25 -25 20 c-21 16 -23 20 -10
29 8 5 24 10 35 10 17 0 16 3 -10 26 -28 24 -28 25 -7 20 19 -4 22 -1 17 12
-4 9 -10 25 -12 35 -5 15 -21 17 -144 17 l-139 0 0 -420z"/>
<path d="M315 809 c19 -35 20 -35 29 4 6 24 4 27 -19 27 -25 0 -25 0 -10 -31z"/>
<path d="M370 828 c0 -7 -3 -24 -7 -37 -6 -24 -6 -24 18 -8 39 28 46 18 10
-13 l-34 -29 25 -10 c34 -13 45 -31 24 -43 -22 -12 -20 -21 9 -64 27 -39 32
-73 14 -91 -13 -13 -2 -183 12 -183 4 0 11 16 15 35 4 24 12 35 24 35 12 0 20
-11 24 -35 12 -60 24 -39 31 54 5 65 4 94 -6 109 -11 18 -10 27 4 57 13 26 14
41 7 55 -5 10 -9 47 -9 82 l1 63 8 -50 c11 -76 20 -97 37 -91 42 17 65 17 88
2 29 -19 45 -3 21 23 -22 24 -20 41 4 41 15 0 20 7 21 28 2 23 2 24 6 5 3 -14
12 -23 23 -23 26 0 31 -12 14 -35 -8 -10 -14 -13 -14 -7 0 7 -4 12 -9 12 -26
0 -11 -265 22 -391 8 -31 18 -85 22 -120 6 -57 11 -66 38 -84 17 -11 41 -41
54 -67 22 -43 27 -48 58 -48 l35 0 0 420 0 420 -295 0 c-229 0 -295 -3 -295
-12z"/>
<path d="M400 397 c0 -31 4 -58 9 -62 6 -3 7 18 4 52 -8 76 -13 80 -13 10z"/>
<path d="M552 419 c-1 -15 -5 -42 -8 -60 -4 -28 -3 -31 6 -16 6 9 9 36 7 60
-2 23 -4 30 -5 16z"/>
<path d="M470 261 c0 -10 -7 -24 -15 -31 -8 -7 -15 -21 -15 -31 0 -11 -5 -16
-13 -13 -7 2 -21 -4 -31 -15 -16 -18 -16 -21 -1 -53 l16 -33 -21 24 -20 23 0
-28 c0 -16 5 -46 11 -66 l10 -38 99 0 98 0 4 60 c4 77 1 85 -23 58 l-20 -23
15 31 c14 30 14 32 -9 54 -14 13 -25 19 -25 14 0 -10 -22 26 -39 64 -13 27
-21 28 -21 3z"/>
<path d="M750 150 c0 -5 5 -10 11 -10 5 0 7 5 4 10 -3 6 -8 10 -11 10 -2 0 -4
-4 -4 -10z"/>
</g>
</svg>
