<?xml version="1.0" standalone="no"?>
<!DOCTYPE svg PUBLIC "-//W3C//DTD SVG 20010904//EN"
 "http://www.w3.org/TR/2001/REC-SVG-20010904/DTD/svg10.dtd">
<svg version="1.0" xmlns="http://www.w3.org/2000/svg"
 width="96.000000pt" height="84.000000pt" viewBox="0 0 96.000000 84.000000"
 preserveAspectRatio="xMidYMid meet">
<metadata>
Created by potrace 1.16, written by Peter Selinger 2001-2019
</metadata>
<g transform="translate(0.000000,84.000000) scale(0.100000,-0.100000)"
fill="#000000" stroke="none">
<path d="M0 420 l0 -420 88 0 88 0 18 53 c11 31 20 88 22 142 2 50 6 104 9
120 3 17 12 92 20 168 9 98 18 143 29 156 22 24 20 36 -6 54 l-23 15 35 14 35
15 -27 13 c-30 14 -40 44 -12 33 12 -4 15 -2 10 8 -3 8 -9 22 -12 32 -6 15
-22 17 -140 17 l-134 0 0 -420z"/>
<path d="M308 811 c9 -16 17 -29 18 -28 1 1 4 14 8 30 6 24 4 27 -18 27 -25 0
-25 0 -8 -29z"/>
<path d="M357 813 c-7 -36 -2 -40 23 -18 11 10 23 15 26 12 4 -3 -8 -19 -25
-35 -33 -30 -32 -42 6 -42 27 0 30 -17 7 -35 -15 -10 -13 -16 15 -56 27 -37
32 -50 26 -79 -6 -38 -6 -202 1 -209 7 -8 15 7 18 34 3 27 30 53 39 38 3 -5 8
-23 12 -40 3 -18 10 -33 15 -33 12 0 17 160 6 197 -6 22 -6 41 2 57 7 15 9 52
5 94 -4 45 -2 76 6 88 11 18 12 18 6 -2 -5 -19 8 -110 17 -119 2 -3 19 1 36 7
28 11 35 10 61 -10 29 -21 30 -21 36 -2 3 10 1 29 -5 40 -12 23 -6 40 16 40 8
0 14 10 15 23 1 20 1 21 7 2 4 -11 14 -20 22 -20 8 0 15 -9 15 -20 0 -13 -6
-20 -17 -19 -11 1 -18 -5 -18 -15 0 -9 -6 -28 -14 -43 -12 -23 -12 -46 0 -160
34 -332 36 -347 58 -354 32 -9 72 -51 91 -95 16 -36 21 -39 57 -39 l38 0 0
420 0 420 -299 0 -299 0 -5 -27z"/>
<path d="M470 261 c0 -11 -4 -22 -9 -26 -6 -3 -6 -18 0 -38 12 -44 11 -47 -7
-13 l-16 28 -29 -28 c-24 -23 -29 -36 -29 -75 0 -25 3 -61 6 -78 l7 -31 92 0
c84 0 93 2 98 20 8 29 -4 140 -14 134 -5 -3 -9 1 -9 9 0 14 -37 54 -43 46 -2
-2 -9 -15 -15 -29 l-12 -25 5 28 c7 34 -4 97 -16 97 -5 0 -9 -9 -9 -19z"/>
</g>
</svg>
