<?xml version="1.0" standalone="no"?>
<!DOCTYPE svg PUBLIC "-//W3C//DTD SVG 20010904//EN"
 "http://www.w3.org/TR/2001/REC-SVG-20010904/DTD/svg10.dtd">
<svg version="1.0" xmlns="http://www.w3.org/2000/svg"
 width="96.000000pt" height="84.000000pt" viewBox="0 0 96.000000 84.000000"
 preserveAspectRatio="xMidYMid meet">
<metadata>
Created by potrace 1.16, written by Peter Selinger 2001-2019
</metadata>
<g transform="translate(0.000000,84.000000) scale(0.100000,-0.100000)"
fill="#000000" stroke="none">
<path d="M0 420 l0 -420 90 0 89 0 12 42 c6 24 18 57 27 73 11 21 17 60 18
130 3 184 20 347 40 389 l19 39 -23 15 -24 16 33 17 33 17 -32 16 c-35 18 -44
41 -13 31 18 -5 19 -3 8 25 l-11 30 -133 0 -133 0 0 -420z"/>
<path d="M305 810 c9 -16 17 -30 19 -30 2 0 6 14 8 30 4 26 1 30 -19 30 -23 0
-23 -1 -8 -30z"/>
<path d="M356 818 c-9 -37 -7 -40 16 -24 39 28 43 17 8 -19 l-34 -35 32 -6
c37 -7 38 -11 16 -35 -15 -17 -14 -21 14 -55 l31 -38 -6 -130 c-4 -95 -3 -128
5 -121 6 6 13 21 15 35 4 25 31 49 43 37 4 -3 8 -17 9 -29 1 -13 3 -29 4 -35
0 -7 6 -13 12 -13 8 0 11 43 10 138 -2 259 -1 287 8 302 7 10 10 0 9 -35 -1
-28 2 -60 6 -71 6 -20 10 -21 42 -11 30 9 38 8 63 -11 l29 -21 9 22 c7 16 6
28 -5 45 -14 21 -14 23 6 29 13 3 22 14 23 27 1 15 3 16 6 5 2 -10 13 -19 24
-22 26 -7 22 -43 -4 -39 -10 2 -17 -4 -17 -13 0 -9 -6 -28 -14 -44 -15 -29
-16 -16 12 -410 7 -94 7 -94 37 -104 41 -13 70 -42 95 -93 19 -41 23 -44 60
-44 l40 0 0 420 0 420 -299 0 -299 0 -6 -22z"/>
<path d="M470 272 c0 -10 -5 -23 -11 -29 -8 -8 -8 -25 -1 -59 13 -61 7 -70 -9
-15 -14 46 -32 49 -37 8 -2 -15 -7 -27 -11 -27 -14 0 -20 -78 -10 -115 l10
-35 89 0 90 0 0 28 c0 15 3 45 5 67 4 30 3 35 -4 20 -9 -18 -10 -17 -10 8 -1
15 -5 27 -10 27 -5 0 -11 14 -14 30 -9 41 -22 38 -36 -11 -16 -52 -23 -47 -10
6 8 31 7 48 -6 78 -17 41 -25 47 -25 19z"/>
</g>
</svg>
