<?xml version="1.0" standalone="no"?>
<!DOCTYPE svg PUBLIC "-//W3C//DTD SVG 20010904//EN"
 "http://www.w3.org/TR/2001/REC-SVG-20010904/DTD/svg10.dtd">
<svg version="1.0" xmlns="http://www.w3.org/2000/svg"
 width="96.000000pt" height="84.000000pt" viewBox="0 0 96.000000 84.000000"
 preserveAspectRatio="xMidYMid meet">
<metadata>
Created by potrace 1.16, written by Peter Selinger 2001-2019
</metadata>
<g transform="translate(0.000000,84.000000) scale(0.100000,-0.100000)"
fill="#000000" stroke="none">
<path d="M0 420 l0 -421 91 3 92 3 12 40 c6 22 20 56 31 75 13 25 19 57 20
110 4 219 16 365 35 398 18 32 18 33 -1 52 -24 24 -25 30 -6 30 7 0 19 6 25
14 10 12 7 17 -15 28 -35 17 -46 43 -14 33 21 -7 21 -6 5 24 l-16 31 -129 0
-130 0 0 -420z"/>
<path d="M290 835 c0 -2 8 -18 19 -35 l19 -31 4 35 c4 32 1 36 -19 36 -13 0
-23 -2 -23 -5z"/>
<path d="M360 826 c0 -8 -3 -22 -7 -31 -6 -16 -4 -16 20 0 34 22 35 9 1 -26
l-26 -27 21 -12 c12 -6 26 -8 31 -5 6 3 10 1 10 -4 0 -6 -4 -11 -9 -11 -23 0
-17 -40 11 -67 27 -25 29 -33 28 -88 -3 -98 0 -199 6 -193 3 3 6 19 7 34 2 24
7 29 27 29 20 0 25 -5 25 -27 1 -15 4 -30 8 -34 4 -4 7 24 8 62 0 38 2 98 4
134 2 36 4 99 4 140 0 41 5 82 11 90 8 11 9 4 5 -25 -7 -50 7 -101 26 -96 33
9 70 3 88 -13 18 -16 20 -16 34 5 14 19 14 24 0 46 -15 23 -15 24 5 30 14 3
22 14 23 27 0 20 1 20 8 1 5 -11 14 -20 22 -20 8 0 14 -9 14 -20 0 -13 -6 -20
-17 -19 -10 1 -18 -4 -18 -10 0 -6 -8 -27 -18 -46 -15 -31 -16 -51 -8 -190 5
-85 9 -189 8 -230 l-1 -76 49 -17 c51 -18 82 -51 101 -107 10 -27 15 -30 55
-30 l44 0 0 420 0 420 -300 0 c-252 0 -300 -2 -300 -14z"/>
<path d="M470 271 c0 -10 -7 -24 -15 -31 -10 -8 -15 -32 -16 -69 -1 -50 -2
-52 -9 -21 l-7 35 -8 -45 c-6 -34 -10 -40 -15 -25 -14 39 -22 -20 -9 -69 l11
-46 89 0 89 0 0 49 c0 27 -3 57 -7 67 -6 16 -7 16 -14 -2 -6 -16 -8 -15 -8 8
-1 37 -19 45 -24 11 -2 -16 -5 0 -6 33 0 41 -6 66 -16 74 -8 7 -15 21 -15 31
0 11 -4 19 -10 19 -5 0 -10 -8 -10 -19z"/>
</g>
</svg>
