<?xml version="1.0" standalone="no"?>
<!DOCTYPE svg PUBLIC "-//W3C//DTD SVG 20010904//EN"
 "http://www.w3.org/TR/2001/REC-SVG-20010904/DTD/svg10.dtd">
<svg version="1.0" xmlns="http://www.w3.org/2000/svg"
 width="96.000000pt" height="84.000000pt" viewBox="0 0 96.000000 84.000000"
 preserveAspectRatio="xMidYMid meet">
<metadata>
Created by potrace 1.16, written by Peter Selinger 2001-2019
</metadata>
<g transform="translate(0.000000,84.000000) scale(0.100000,-0.100000)"
fill="#000000" stroke="none">
<path d="M0 420 l0 -420 93 0 93 0 13 47 c6 27 25 68 41 93 25 40 28 50 20 90
-4 25 -6 49 -3 53 3 4 6 77 7 160 1 123 5 158 19 184 17 31 17 33 -2 52 -19
19 -19 20 6 36 l25 17 -30 18 c-41 25 -51 43 -18 34 l25 -6 -15 31 -15 31
-130 0 -129 0 0 -420z"/>
<path d="M302 806 c13 -19 23 -34 24 -33 1 1 4 17 7 35 6 30 5 32 -23 32 l-30
0 22 -34z"/>
<path d="M358 810 c-5 -34 -2 -36 24 -13 27 25 22 -3 -6 -32 -27 -26 -24 -35
11 -35 12 0 23 -4 23 -10 0 -5 -4 -10 -10 -10 -20 0 -9 -45 18 -73 26 -27 27
-32 24 -121 l-3 -93 38 2 38 3 3 93 c1 51 7 98 12 104 5 6 5 26 1 47 -9 37 0
113 14 126 4 4 4 -8 0 -26 -4 -18 -4 -50 0 -71 6 -39 7 -39 45 -34 27 4 47 0
64 -11 24 -15 26 -15 40 6 14 20 14 24 0 39 -17 19 -11 39 11 39 7 0 16 10 18
23 4 21 4 21 6 1 0 -13 10 -24 22 -27 24 -7 20 -33 -5 -31 -9 1 -16 -4 -16
-10 0 -6 -8 -27 -18 -46 -17 -35 -19 -122 -9 -429 l2 -64 40 -14 c50 -17 93
-57 112 -106 14 -35 18 -37 59 -37 l44 0 0 420 0 420 -299 0 -299 0 -4 -30z"/>
<path d="M470 282 c0 -11 -9 -31 -20 -45 -12 -15 -20 -41 -21 -64 0 -21 -4
-47 -9 -58 -8 -18 -9 -18 -10 5 -2 24 -2 24 -11 -5 -5 -16 -7 -49 -4 -72 l6
-43 84 0 c82 0 85 1 91 26 4 14 0 46 -9 72 -12 36 -16 41 -17 22 l-2 -25 -8
25 c-4 14 -8 40 -9 58 -1 19 -10 45 -21 59 -11 14 -20 32 -20 39 0 7 -4 16
-10 19 -5 3 -10 -2 -10 -13z"/>
<path d="M571 134 c0 -11 3 -14 6 -6 3 7 2 16 -1 19 -3 4 -6 -2 -5 -13z"/>
</g>
</svg>
