<?xml version="1.0" standalone="no"?>
<!DOCTYPE svg PUBLIC "-//W3C//DTD SVG 20010904//EN"
 "http://www.w3.org/TR/2001/REC-SVG-20010904/DTD/svg10.dtd">
<svg version="1.0" xmlns="http://www.w3.org/2000/svg"
 width="96.000000pt" height="84.000000pt" viewBox="0 0 96.000000 84.000000"
 preserveAspectRatio="xMidYMid meet">
<metadata>
Created by potrace 1.16, written by Peter Selinger 2001-2019
</metadata>
<g transform="translate(0.000000,84.000000) scale(0.100000,-0.100000)"
fill="#000000" stroke="none">
<path d="M605 817 c5 -20 0 -26 -34 -41 -52 -24 -78 -52 -100 -111 -21 -56
-15 -104 19 -140 14 -15 20 -30 16 -41 -3 -9 -2 -22 3 -28 32 -40 53 -96 58
-158 4 -47 2 -68 -5 -68 -19 0 -52 81 -52 127 0 34 -5 46 -25 59 -14 9 -32 14
-40 10 -8 -3 -15 -1 -15 3 0 5 -16 -5 -35 -22 -27 -23 -35 -38 -35 -64 0 -42
23 -98 45 -111 15 -8 16 -14 7 -43 -6 -19 -14 -69 -18 -111 l-7 -78 60 0 c52
0 61 3 71 23 l11 22 0 -22 c1 -23 2 -23 169 -23 186 0 208 3 215 31 6 23 -11
25 -41 3 -27 -18 -42 -11 -42 21 0 13 -7 54 -15 91 -18 76 -15 90 9 39 9 -19
18 -35 19 -35 2 0 2 35 1 77 l-2 78 19 -40 c17 -36 19 -37 14 -10 l-6 30 18
-22 c18 -23 18 -22 15 35 -8 165 -24 295 -47 372 -31 103 -47 129 -86 137 -17
3 -33 12 -36 19 -4 10 -24 14 -69 14 -62 0 -64 -1 -59 -23z"/>
</g>
</svg>
