<?xml version="1.0" standalone="no"?>
<!DOCTYPE svg PUBLIC "-//W3C//DTD SVG 20010904//EN"
 "http://www.w3.org/TR/2001/REC-SVG-20010904/DTD/svg10.dtd">
<svg version="1.0" xmlns="http://www.w3.org/2000/svg"
 width="96.000000pt" height="84.000000pt" viewBox="0 0 96.000000 84.000000"
 preserveAspectRatio="xMidYMid meet">
<metadata>
Created by potrace 1.16, written by Peter Selinger 2001-2019
</metadata>
<g transform="translate(0.000000,84.000000) scale(0.100000,-0.100000)"
fill="#000000" stroke="none">
<path d="M0 420 l0 -420 93 0 93 0 12 47 c7 25 29 72 48 104 20 32 33 62 30
67 -3 5 -7 88 -10 184 -3 155 -2 180 15 217 18 40 18 41 -2 60 -20 18 -20 18
7 35 l26 18 -33 16 c-38 20 -51 43 -20 35 24 -6 25 -3 9 32 -11 25 -12 25
-140 25 l-128 0 0 -420z"/>
<path d="M280 833 c1 -5 12 -21 25 -38 23 -28 25 -28 25 -8 0 12 3 28 6 37 5
13 -1 16 -25 16 -17 0 -31 -3 -31 -7z"/>
<path d="M360 826 c0 -8 -3 -23 -7 -33 -7 -17 -6 -17 20 0 34 22 35 4 2 -29
-32 -32 -31 -34 5 -34 17 0 30 -4 30 -10 0 -5 -4 -10 -9 -10 -5 0 -12 -8 -15
-17 -4 -11 4 -28 25 -49 28 -29 32 -40 31 -81 -1 -26 1 -68 4 -93 5 -42 8 -46
32 -45 33 0 39 19 41 121 0 39 4 74 8 78 4 4 6 37 5 74 -1 38 2 74 9 82 8 12
10 8 5 -16 -3 -18 -3 -48 1 -67 5 -34 6 -35 44 -30 27 4 47 0 65 -12 14 -9 27
-15 28 -13 20 24 23 44 8 65 -14 23 -14 24 6 30 12 3 22 11 22 19 0 8 10 4 26
-11 26 -24 24 -51 -2 -41 -8 3 -14 -1 -14 -10 0 -8 -8 -29 -17 -47 -14 -26
-17 -69 -20 -245 -2 -128 1 -221 7 -232 5 -10 27 -24 47 -30 48 -16 86 -51
108 -101 17 -37 21 -39 62 -39 l43 0 0 420 0 420 -300 0 c-252 0 -300 -2 -300
-14z"/>
<path d="M463 260 c-12 -25 -25 -72 -29 -105 -4 -33 -9 -51 -12 -40 -4 17 -6
15 -18 -10 l-14 -30 5 33 c2 17 0 32 -5 32 -13 0 -13 -27 2 -89 l11 -51 83 0
c65 0 83 3 88 16 9 24 7 124 -2 124 -5 0 -7 -15 -5 -33 3 -24 2 -29 -6 -17 -6
8 -11 24 -12 35 -1 16 -2 16 -8 -5 -6 -20 -9 -13 -15 35 -4 33 -12 69 -18 80
-6 11 -14 31 -18 44 -6 24 -7 23 -27 -19z"/>
</g>
</svg>
