<?xml version="1.0" standalone="no"?>
<!DOCTYPE svg PUBLIC "-//W3C//DTD SVG 20010904//EN"
 "http://www.w3.org/TR/2001/REC-SVG-20010904/DTD/svg10.dtd">
<svg version="1.0" xmlns="http://www.w3.org/2000/svg"
 width="96.000000pt" height="84.000000pt" viewBox="0 0 96.000000 84.000000"
 preserveAspectRatio="xMidYMid meet">
<metadata>
Created by potrace 1.16, written by Peter Selinger 2001-2019
</metadata>
<g transform="translate(0.000000,84.000000) scale(0.100000,-0.100000)"
fill="#000000" stroke="none">
<path d="M0 420 l0 -420 94 0 94 0 6 33 c3 17 23 58 42 91 l37 58 -8 202 c-6
183 -5 205 11 240 18 38 18 38 -6 56 l-23 18 33 17 34 18 -36 14 c-43 17 -62
47 -23 37 24 -6 24 -6 9 25 l-15 31 -125 0 -124 0 0 -420z"/>
<path d="M293 806 c21 -31 22 -32 29 -12 12 39 9 46 -22 46 l-29 0 22 -34z"/>
<path d="M350 808 c0 -30 0 -31 20 -13 31 28 37 8 7 -23 -30 -31 -27 -42 11
-42 24 0 24 -1 9 -18 -23 -25 -22 -31 14 -68 29 -29 31 -38 30 -96 -1 -102 5
-123 40 -124 16 -1 29 2 30 5 7 46 19 209 19 250 -1 29 3 67 7 85 7 27 8 23
13 -34 l5 -64 46 2 c32 2 49 -1 58 -12 19 -22 30 -20 43 9 8 18 8 28 -1 39
-14 17 -7 36 14 36 7 0 16 10 18 23 4 21 4 21 6 1 0 -13 10 -24 22 -27 24 -6
21 -33 -4 -31 -9 1 -18 -9 -22 -23 -3 -14 -12 -35 -20 -47 -11 -16 -16 -77
-20 -243 -6 -216 -6 -222 15 -243 11 -11 34 -23 50 -27 35 -6 83 -52 100 -94
11 -26 17 -29 56 -29 l44 0 0 420 0 420 -305 0 -305 0 0 -32z"/>
<path d="M470 262 c0 -10 -4 -22 -10 -28 -5 -5 -12 -38 -14 -73 -5 -61 -15
-95 -17 -55 0 14 -4 11 -14 -11 l-14 -30 -1 40 c-1 37 -2 38 -11 15 -7 -16 -6
-40 2 -73 l11 -48 87 3 86 3 3 45 c2 25 -1 57 -7 70 -9 23 -10 22 -11 -15 l-1
-40 -14 30 c-10 22 -14 25 -14 11 -2 -36 -11 -9 -16 45 -6 62 -24 129 -37 129
-4 0 -8 -8 -8 -18z"/>
</g>
</svg>
