<?xml version="1.0" standalone="no"?>
<!DOCTYPE svg PUBLIC "-//W3C//DTD SVG 20010904//EN"
 "http://www.w3.org/TR/2001/REC-SVG-20010904/DTD/svg10.dtd">
<svg version="1.0" xmlns="http://www.w3.org/2000/svg"
 width="96.000000pt" height="84.000000pt" viewBox="0 0 96.000000 84.000000"
 preserveAspectRatio="xMidYMid meet">
<metadata>
Created by potrace 1.16, written by Peter Selinger 2001-2019
</metadata>
<g transform="translate(0.000000,84.000000) scale(0.100000,-0.100000)"
fill="#000000" stroke="none">
<path d="M0 420 l0 -420 95 0 c85 0 95 2 95 18 0 10 16 45 36 78 20 32 37 70
38 84 0 14 -3 108 -8 210 -7 161 -6 190 8 224 21 51 20 61 -6 73 -23 10 -23
10 10 30 l33 20 -30 13 c-17 7 -36 19 -43 28 -11 13 -9 15 15 10 18 -4 26 -2
22 6 -3 6 -8 19 -11 29 -6 15 -21 17 -130 17 l-124 0 0 -420z"/>
<path d="M290 810 c12 -16 23 -30 26 -30 2 0 4 14 4 30 0 26 -4 30 -26 30
l-25 0 21 -30z"/>
<path d="M347 818 c-8 -30 -1 -35 23 -13 33 30 34 10 1 -28 -25 -28 -28 -36
-16 -41 8 -3 22 -3 30 0 9 4 15 0 15 -10 0 -9 -4 -16 -10 -16 -19 0 -10 -33
20 -67 30 -34 35 -51 31 -112 -2 -18 0 -52 3 -75 6 -37 9 -41 36 -42 17 -1 30
-1 31 0 4 8 20 226 20 266 -1 31 5 73 13 95 l14 40 -5 -52 c-3 -28 -3 -63 1
-76 5 -23 10 -25 47 -20 31 5 47 1 68 -15 l28 -20 16 28 c15 24 15 29 2 40
-21 18 -19 40 5 40 11 0 20 7 20 15 0 8 5 15 10 15 6 0 10 -6 10 -14 0 -7 10
-16 22 -19 18 -5 19 -8 8 -22 -7 -9 -19 -14 -27 -11 -8 3 -13 -2 -13 -12 0 -9
-9 -31 -20 -49 -16 -27 -20 -56 -24 -180 -3 -81 -7 -182 -9 -223 -6 -97 5
-119 73 -143 38 -13 58 -28 78 -57 24 -35 32 -39 70 -40 l42 0 0 420 0 420
-304 0 -304 0 -5 -22z"/>
<path d="M462 229 c-7 -21 -13 -56 -13 -76 -1 -21 -4 -51 -8 -68 l-7 -30 -8
25 -8 25 -8 -30 -8 -30 -1 29 c-1 22 -4 27 -12 19 -7 -7 -8 -26 -4 -52 l7 -42
91 3 92 3 3 30 c2 17 -1 42 -7 55 -9 23 -10 22 -11 -15 l-2 -40 -13 35 c-10
25 -14 29 -15 15 -3 -35 -18 24 -19 77 -1 26 -5 50 -11 53 -5 3 -10 15 -10 25
0 35 -15 29 -28 -11z"/>
</g>
</svg>
