<?xml version="1.0" standalone="no"?>
<!DOCTYPE svg PUBLIC "-//W3C//DTD SVG 20010904//EN"
 "http://www.w3.org/TR/2001/REC-SVG-20010904/DTD/svg10.dtd">
<svg version="1.0" xmlns="http://www.w3.org/2000/svg"
 width="96.000000pt" height="84.000000pt" viewBox="0 0 96.000000 84.000000"
 preserveAspectRatio="xMidYMid meet">
<metadata>
Created by potrace 1.16, written by Peter Selinger 2001-2019
</metadata>
<g transform="translate(0.000000,84.000000) scale(0.100000,-0.100000)"
fill="#000000" stroke="none">
<path d="M0 420 l0 -420 280 0 280 0 -1 28 -1 27 -7 -25 -7 -25 -8 29 c-5 19
-10 26 -15 18 -14 -23 -34 33 -27 73 4 20 3 42 -2 48 -5 7 -12 26 -16 42 l-8
30 -19 -39 c-10 -22 -19 -60 -20 -85 0 -25 -4 -55 -8 -66 -7 -18 -8 -18 -18
-1 -9 16 -11 14 -16 -13 l-6 -31 -101 0 c-115 0 -117 2 -69 78 l30 49 2 234
c2 205 4 237 20 259 23 33 22 61 -3 67 -29 8 -25 20 13 39 l32 17 -31 13 c-17
7 -36 20 -43 28 -12 14 -10 16 9 16 13 0 20 5 18 13 -3 8 -41 13 -131 15
l-127 3 0 -421z"/>
<path d="M290 831 c0 -5 7 -14 15 -21 13 -10 15 -9 15 9 0 12 -6 21 -15 21 -8
0 -15 -4 -15 -9z"/>
<path d="M350 825 c0 -18 12 -19 27 -4 6 6 17 9 25 7 9 -3 3 -15 -20 -37 -17
-18 -32 -34 -32 -37 0 -2 13 -4 29 -4 33 0 51 -17 27 -26 -24 -9 -19 -37 9
-64 31 -29 47 -84 37 -130 -4 -19 -4 -57 -1 -85 3 -27 7 -47 7 -43 1 4 13 3
26 -2 29 -10 32 -1 46 122 5 43 13 84 17 91 4 7 8 44 8 84 0 43 5 77 12 84 10
10 11 4 6 -24 -3 -20 -3 -51 1 -69 6 -32 7 -33 47 -30 31 3 48 -1 71 -18 16
-12 31 -20 32 -18 18 21 25 50 16 67 -15 29 -12 41 10 41 12 0 20 7 20 18 1
16 1 16 14 0 7 -10 18 -18 24 -18 18 0 24 -20 12 -36 -10 -11 -16 -12 -26 -3
-11 9 -14 8 -14 -3 0 -8 -11 -36 -25 -62 -16 -31 -25 -63 -25 -94 0 -26 -5
-85 -10 -132 -21 -176 -30 -285 -24 -303 3 -10 34 -31 70 -48 35 -17 64 -35
64 -40 0 -5 29 -9 65 -9 l65 0 0 420 0 420 -305 0 c-264 0 -305 -2 -305 -15z"/>
</g>
</svg>
