<?xml version="1.0" standalone="no"?>
<!DOCTYPE svg PUBLIC "-//W3C//DTD SVG 20010904//EN"
 "http://www.w3.org/TR/2001/REC-SVG-20010904/DTD/svg10.dtd">
<svg version="1.0" xmlns="http://www.w3.org/2000/svg"
 width="96.000000pt" height="84.000000pt" viewBox="0 0 96.000000 84.000000"
 preserveAspectRatio="xMidYMid meet">
<metadata>
Created by potrace 1.16, written by Peter Selinger 2001-2019
</metadata>
<g transform="translate(0.000000,84.000000) scale(0.100000,-0.100000)"
fill="#000000" stroke="none">
<path d="M0 420 l0 -420 240 0 240 0 -6 58 c-4 31 -13 69 -20 84 -8 15 -14 34
-14 43 0 8 -3 15 -7 15 -11 -1 -43 -73 -43 -97 0 -11 -3 -35 -7 -53 l-6 -33
-89 7 c-49 3 -98 11 -109 16 -19 11 -19 11 -1 38 15 22 20 53 25 159 10 203
35 370 63 420 30 53 30 61 -2 73 -22 9 -24 13 -14 25 7 8 21 15 31 15 33 0 30
19 -4 34 -19 8 -38 19 -41 25 -5 7 -49 11 -122 11 l-114 0 0 -420z"/>
<path d="M397 810 c-25 -23 -26 -28 -12 -34 9 -3 25 -6 36 -6 22 0 26 -25 4
-34 -21 -8 -19 -30 6 -52 48 -43 59 -93 35 -160 -16 -47 -31 -142 -20 -131 4
4 18 0 31 -8 22 -15 23 -14 39 22 9 21 22 64 30 96 8 32 21 72 30 88 8 17 15
47 13 67 -3 63 1 102 11 102 5 0 10 -26 12 -57 l3 -58 42 -3 c31 -2 49 -11 71
-33 l29 -29 18 33 c14 27 15 38 6 55 -16 30 -14 42 7 42 10 0 23 5 30 12 10
10 17 8 34 -9 25 -26 18 -58 -11 -48 -14 4 -20 -1 -25 -22 -4 -15 -18 -45 -32
-65 -13 -21 -24 -51 -24 -68 0 -17 -12 -86 -26 -153 -14 -67 -30 -151 -35
-187 -5 -36 -12 -82 -15 -103 -10 -62 0 -67 147 -67 l129 0 0 420 0 420 -267
-1 -268 -1 -28 -28z"/>
</g>
</svg>
