<?xml version="1.0" standalone="no"?>
<!DOCTYPE svg PUBLIC "-//W3C//DTD SVG 20010904//EN"
 "http://www.w3.org/TR/2001/REC-SVG-20010904/DTD/svg10.dtd">
<svg version="1.0" xmlns="http://www.w3.org/2000/svg"
 width="96.000000pt" height="84.000000pt" viewBox="0 0 96.000000 84.000000"
 preserveAspectRatio="xMidYMid meet">
<metadata>
Created by potrace 1.16, written by Peter Selinger 2001-2019
</metadata>
<g transform="translate(0.000000,84.000000) scale(0.100000,-0.100000)"
fill="#000000" stroke="none">
<path d="M0 420 l0 -420 215 0 215 0 0 26 c0 14 -6 38 -14 52 -8 15 -17 39
-21 55 -3 15 -9 27 -13 27 -9 -1 -42 -71 -42 -91 -1 -37 -14 -41 -81 -24 -114
28 -109 22 -109 124 0 97 4 123 57 344 29 121 41 155 69 191 31 41 32 46 18
60 -8 9 -22 16 -31 16 -26 0 -8 24 25 34 65 18 28 26 -128 26 l-160 0 0 -420z"/>
<path d="M413 833 c-24 -9 -13 -22 23 -29 40 -7 56 -32 31 -46 -23 -13 -21
-22 13 -69 16 -23 32 -56 36 -75 6 -35 3 -44 -60 -152 -41 -73 -41 -72 -22
-72 8 0 21 -9 29 -21 15 -20 16 -20 56 31 23 28 41 56 41 62 0 5 16 37 35 69
28 49 35 70 35 114 0 30 4 56 9 59 10 7 21 -27 21 -66 0 -23 4 -28 25 -28 25
0 75 -19 75 -29 0 -3 9 -17 19 -30 l18 -23 22 36 c20 31 21 41 12 68 -16 45
-14 51 15 45 16 -3 28 0 31 9 7 20 30 6 44 -28 10 -25 10 -31 -2 -38 -8 -5
-19 -5 -26 1 -9 8 -16 1 -28 -27 -9 -21 -27 -53 -40 -71 -14 -17 -29 -54 -35
-80 -5 -26 -27 -100 -50 -163 -23 -63 -45 -137 -50 -165 -5 -27 -12 -65 -16
-82 l-6 -33 146 0 146 0 0 420 0 420 -267 -1 c-148 0 -274 -3 -280 -6z"/>
</g>
</svg>
