<?xml version="1.0" standalone="no"?>
<!DOCTYPE svg PUBLIC "-//W3C//DTD SVG 20010904//EN"
 "http://www.w3.org/TR/2001/REC-SVG-20010904/DTD/svg10.dtd">
<svg version="1.0" xmlns="http://www.w3.org/2000/svg"
 width="96.000000pt" height="84.000000pt" viewBox="0 0 96.000000 84.000000"
 preserveAspectRatio="xMidYMid meet">
<metadata>
Created by potrace 1.16, written by Peter Selinger 2001-2019
</metadata>
<g transform="translate(0.000000,84.000000) scale(0.100000,-0.100000)"
fill="#000000" stroke="none">
<path d="M0 421 l0 -421 185 0 186 0 -12 23 c-7 12 -15 37 -18 56 -8 45 -26
50 -39 11 -6 -16 -15 -30 -19 -30 -4 0 -45 16 -91 34 -101 41 -116 58 -106
124 13 91 57 238 111 372 45 111 61 141 94 170 37 32 39 36 25 55 -13 18 -28
20 -165 23 l-151 4 0 -421z"/>
<path d="M517 813 l27 -26 -22 -8 c-29 -11 -28 -25 8 -78 16 -24 32 -58 36
-76 8 -42 -17 -99 -53 -121 -15 -10 -47 -34 -70 -53 l-41 -34 21 -31 c12 -17
22 -32 23 -34 0 -1 21 7 46 18 28 12 72 48 116 95 60 63 72 82 72 109 0 47 11
96 21 96 5 0 9 -25 9 -55 0 -48 3 -55 20 -55 35 0 69 -22 85 -57 l17 -35 30
29 c28 26 30 32 25 81 -5 45 -3 52 12 52 9 0 23 -6 29 -12 23 -23 32 12 32
120 l0 102 -235 0 -234 0 26 -27z"/>
<path d="M895 495 c-27 -36 -53 -65 -56 -65 -4 0 -10 -17 -14 -37 -3 -20 -42
-106 -86 -191 -43 -85 -79 -165 -79 -178 l0 -24 150 0 150 0 0 280 c0 154 -3
280 -7 280 -5 -1 -30 -30 -58 -65z"/>
</g>
</svg>
