<?xml version="1.0" standalone="no"?>
<!DOCTYPE svg PUBLIC "-//W3C//DTD SVG 20010904//EN"
 "http://www.w3.org/TR/2001/REC-SVG-20010904/DTD/svg10.dtd">
<svg version="1.0" xmlns="http://www.w3.org/2000/svg"
 width="96.000000pt" height="84.000000pt" viewBox="0 0 96.000000 84.000000"
 preserveAspectRatio="xMidYMid meet">
<metadata>
Created by potrace 1.16, written by Peter Selinger 2001-2019
</metadata>
<g transform="translate(0.000000,84.000000) scale(0.100000,-0.100000)"
fill="#000000" stroke="none">
<path d="M0 420 l0 -420 169 0 169 0 -42 42 c-22 23 -49 47 -58 53 -9 5 -36
23 -60 38 -24 16 -64 42 -91 58 -59 36 -76 68 -58 112 8 18 26 67 42 109 57
154 179 370 228 404 l36 24 -168 0 -167 0 0 -420z"/>
<path d="M589 821 c12 -21 5 -31 -21 -31 -11 0 -18 -3 -16 -8 2 -4 16 -34 32
-66 20 -38 31 -80 34 -117 4 -54 2 -60 -26 -89 -24 -24 -39 -30 -74 -31 -24 0
-61 -6 -83 -13 -39 -11 -40 -13 -37 -51 2 -22 5 -41 6 -42 1 -1 31 -5 67 -9
58 -6 71 -3 120 20 105 51 129 87 154 231 5 30 9 36 16 23 5 -10 5 -37 -1 -68
-11 -59 -8 -70 23 -70 33 0 66 -27 75 -62 10 -42 20 -43 61 -9 l34 28 5 192 4
191 -191 0 c-184 0 -191 -1 -182 -19z"/>
<path d="M904 378 c-20 -17 -46 -55 -59 -82 -12 -28 -46 -82 -75 -121 -29 -38
-68 -94 -87 -122 l-34 -53 156 0 155 0 0 205 c0 125 -4 205 -10 205 -5 0 -26
-14 -46 -32z"/>
</g>
</svg>
