<?xml version="1.0" standalone="no"?>
<!DOCTYPE svg PUBLIC "-//W3C//DTD SVG 20010904//EN"
 "http://www.w3.org/TR/2001/REC-SVG-20010904/DTD/svg10.dtd">
<svg version="1.0" xmlns="http://www.w3.org/2000/svg"
 width="96.000000pt" height="84.000000pt" viewBox="0 0 96.000000 84.000000"
 preserveAspectRatio="xMidYMid meet">
<metadata>
Created by potrace 1.16, written by Peter Selinger 2001-2019
</metadata>
<g transform="translate(0.000000,84.000000) scale(0.100000,-0.100000)"
fill="#000000" stroke="none">
<path d="M0 644 c0 -127 3 -193 10 -189 5 3 10 11 10 16 0 19 77 142 154 248
42 57 76 107 76 112 0 5 -56 9 -125 9 l-125 0 0 -196z"/>
<path d="M660 825 c0 -9 -9 -15 -25 -15 -30 0 -31 -5 -6 -51 27 -50 51 -136
51 -181 0 -47 -27 -116 -51 -128 -29 -16 -52 -12 -115 19 -85 42 -106 43 -115
6 -3 -16 -10 -38 -14 -47 -4 -10 -3 -18 3 -18 6 0 29 -16 52 -35 79 -66 166
-70 254 -12 51 34 54 38 80 124 15 48 31 97 36 108 8 18 9 18 9 -5 0 -14 -6
-52 -13 -85 -8 -33 -13 -62 -11 -66 2 -3 17 -4 33 -1 38 5 68 -26 77 -79 6
-33 11 -39 31 -39 l24 0 0 260 0 260 -150 0 c-127 0 -150 -2 -150 -15z"/>
<path d="M250 379 c0 -17 4 -28 10 -24 6 3 10 17 10 31 0 13 -4 24 -10 24 -5
0 -10 -14 -10 -31z"/>
<path d="M0 168 l0 -168 150 0 149 0 -85 110 c-47 60 -105 124 -127 142 -23
18 -52 44 -64 58 l-22 25 -1 -167z"/>
<path d="M876 225 c-15 -24 -65 -85 -112 -135 l-86 -90 141 0 141 0 0 135 0
135 -29 0 c-24 0 -34 -8 -55 -45z"/>
</g>
</svg>
