<?xml version="1.0" standalone="no"?>
<!DOCTYPE svg PUBLIC "-//W3C//DTD SVG 20010904//EN"
 "http://www.w3.org/TR/2001/REC-SVG-20010904/DTD/svg10.dtd">
<svg version="1.0" xmlns="http://www.w3.org/2000/svg"
 width="96.000000pt" height="84.000000pt" viewBox="0 0 96.000000 84.000000"
 preserveAspectRatio="xMidYMid meet">
<metadata>
Created by potrace 1.16, written by Peter Selinger 2001-2019
</metadata>
<g transform="translate(0.000000,84.000000) scale(0.100000,-0.100000)"
fill="#000000" stroke="none">
<path d="M0 693 l1 -148 47 55 c61 72 168 179 212 213 l35 27 -147 0 -148 0 0
-147z"/>
<path d="M715 810 c22 -43 20 -63 -5 -50 -25 13 -26 0 -6 -56 38 -110 27 -239
-25 -299 -54 -61 -98 -58 -130 10 -11 23 -36 61 -55 83 l-34 41 -23 -23 c-13
-13 -29 -25 -37 -28 -11 -3 -10 -9 2 -29 9 -13 21 -42 28 -64 26 -82 89 -135
160 -135 106 0 153 36 216 165 49 102 60 90 14 -15 -16 -38 -30 -71 -30 -74 0
-3 15 -6 34 -6 41 0 66 -28 66 -76 0 -32 13 -44 51 -44 18 0 19 11 19 315 l0
315 -130 0 -131 0 16 -30z"/>
<path d="M255 495 c-15 -48 -15 -50 5 -26 11 13 20 27 20 32 0 15 -20 10 -25
-6z"/>
<path d="M0 217 l0 -217 131 0 131 0 -22 33 c-12 17 -50 91 -85 163 -35 72
-71 137 -81 145 -10 8 -30 32 -46 53 l-28 39 0 -216z"/>
<path d="M832 130 c-17 -21 -61 -58 -97 -81 -36 -23 -65 -43 -65 -45 0 -2 65
-4 145 -4 l145 0 0 85 0 85 -47 0 c-43 0 -51 -4 -81 -40z"/>
</g>
</svg>
