<?xml version="1.0" standalone="no"?>
<!DOCTYPE svg PUBLIC "-//W3C//DTD SVG 20010904//EN"
 "http://www.w3.org/TR/2001/REC-SVG-20010904/DTD/svg10.dtd">
<svg version="1.0" xmlns="http://www.w3.org/2000/svg"
 width="96.000000pt" height="84.000000pt" viewBox="0 0 96.000000 84.000000"
 preserveAspectRatio="xMidYMid meet">
<metadata>
Created by potrace 1.16, written by Peter Selinger 2001-2019
</metadata>
<g transform="translate(0.000000,84.000000) scale(0.100000,-0.100000)"
fill="#000000" stroke="none">
<path d="M600 833 c0 -5 4 -14 9 -22 7 -11 -2 -20 -37 -36 -58 -27 -78 -49
-101 -110 -21 -54 -15 -103 15 -136 10 -11 19 -36 20 -55 0 -19 8 -40 17 -47
33 -26 66 -197 37 -197 -18 0 -50 79 -50 124 0 37 -4 48 -25 62 -14 9 -32 14
-40 10 -8 -3 -15 -1 -15 3 0 5 -16 -5 -35 -22 -27 -23 -35 -38 -35 -64 0 -42
23 -98 45 -111 15 -8 16 -14 7 -42 -7 -18 -15 -68 -18 -111 l-7 -79 60 0 c55
0 60 2 70 28 l11 27 1 -27 1 -28 175 0 c167 0 176 1 197 22 27 27 8 37 -28 14
-30 -20 -44 -13 -44 21 0 14 -7 52 -16 85 -18 73 -14 94 10 45 9 -20 18 -37
19 -37 2 0 2 34 1 76 -2 42 -1 74 2 72 2 -3 11 -22 19 -44 15 -37 15 -38 10
-6 -6 39 2 42 16 6 5 -15 11 -25 13 -23 1 2 -3 78 -9 169 -17 224 -59 380
-108 397 -12 4 -25 6 -29 5 -4 -1 -12 7 -18 18 -9 17 -21 20 -75 20 -36 0 -65
-3 -65 -7z"/>
</g>
</svg>
