<?xml version="1.0" standalone="no"?>
<!DOCTYPE svg PUBLIC "-//W3C//DTD SVG 20010904//EN"
 "http://www.w3.org/TR/2001/REC-SVG-20010904/DTD/svg10.dtd">
<svg version="1.0" xmlns="http://www.w3.org/2000/svg"
 width="96.000000pt" height="84.000000pt" viewBox="0 0 96.000000 84.000000"
 preserveAspectRatio="xMidYMid meet">
<metadata>
Created by potrace 1.16, written by Peter Selinger 2001-2019
</metadata>
<g transform="translate(0.000000,84.000000) scale(0.100000,-0.100000)"
fill="#000000" stroke="none">
<path d="M0 736 l0 -104 23 18 c70 59 178 140 217 163 l45 27 -142 0 -143 0 0
-104z"/>
<path d="M770 778 c33 -68 39 -114 16 -105 -11 5 -15 -16 -17 -112 -4 -107 -7
-123 -34 -176 -45 -88 -122 -133 -174 -103 -25 14 -26 18 -27 109 0 143 3 134
-48 137 -39 1 -44 -1 -43 -21 0 -12 -7 -49 -17 -82 -14 -53 -15 -65 -1 -110
22 -78 73 -119 163 -131 44 -6 57 -3 95 19 51 30 105 88 149 158 16 27 32 48
35 45 7 -7 -25 -65 -66 -121 -54 -73 -54 -71 -15 -67 51 6 67 -12 60 -67 -3
-24 -3 -42 0 -38 3 3 25 -3 48 -13 41 -17 43 -17 54 1 9 13 12 121 12 379 l0
360 -110 0 -109 0 29 -62z"/>
<path d="M312 613 c-7 -2 -17 -14 -23 -24 -10 -20 -9 -20 20 -4 41 20 43 44 3
28z"/>
<path d="M0 285 l0 -285 110 0 109 0 -35 73 c-19 41 -46 123 -60 183 -39 169
-43 181 -68 211 -13 15 -29 45 -35 66 -7 20 -14 37 -17 37 -2 0 -4 -128 -4
-285z"/>
<path d="M761 40 l-54 -40 126 0 127 0 0 25 c0 21 -5 25 -29 25 -16 0 -48 7
-71 15 -23 8 -43 15 -44 15 0 -1 -25 -19 -55 -40z"/>
</g>
</svg>
