<?xml version="1.0" standalone="no"?>
<!DOCTYPE svg PUBLIC "-//W3C//DTD SVG 20010904//EN"
 "http://www.w3.org/TR/2001/REC-SVG-20010904/DTD/svg10.dtd">
<svg version="1.0" xmlns="http://www.w3.org/2000/svg"
 width="96.000000pt" height="84.000000pt" viewBox="0 0 96.000000 84.000000"
 preserveAspectRatio="xMidYMid meet">
<metadata>
Created by potrace 1.16, written by Peter Selinger 2001-2019
</metadata>
<g transform="translate(0.000000,84.000000) scale(0.100000,-0.100000)"
fill="#000000" stroke="none">
<path d="M0 420 l0 -420 80 0 c79 0 80 0 80 25 0 14 -6 40 -14 58 -35 85 -48
173 -50 330 -1 137 -3 160 -18 171 -26 19 -40 123 -22 159 8 15 22 27 32 27 9
1 46 16 82 35 l65 34 -117 1 -118 0 0 -420z"/>
<path d="M800 818 c0 -13 11 -58 25 -101 28 -87 34 -177 12 -158 -11 9 -16 -4
-25 -69 -20 -142 -89 -248 -185 -285 -61 -23 -110 -14 -154 30 -34 34 -42 67
-20 85 6 6 32 25 57 44 25 18 51 45 59 59 12 22 12 28 -2 41 -9 9 -19 25 -22
36 -7 23 -21 26 -28 6 -3 -8 -21 -17 -39 -21 -71 -16 -118 -80 -118 -161 0
-77 59 -158 141 -193 44 -20 57 -21 100 -12 72 16 125 46 192 110 33 31 55 47
49 36 -15 -29 -102 -109 -143 -131 l-34 -19 55 -3 c70 -4 84 -15 66 -50 -12
-24 -12 -28 9 -44 32 -25 83 -23 112 4 l23 21 0 -21 c0 -13 6 -22 15 -22 13 0
15 53 15 420 l0 420 -80 0 c-76 0 -80 -1 -80 -22z"/>
<path d="M390 680 c-11 -7 -3 -10 30 -10 33 0 41 3 30 10 -8 5 -22 10 -30 10
-8 0 -22 -5 -30 -10z"/>
</g>
</svg>
