<?xml version="1.0" standalone="no"?>
<!DOCTYPE svg PUBLIC "-//W3C//DTD SVG 20010904//EN"
 "http://www.w3.org/TR/2001/REC-SVG-20010904/DTD/svg10.dtd">
<svg version="1.0" xmlns="http://www.w3.org/2000/svg"
 width="96.000000pt" height="84.000000pt" viewBox="0 0 96.000000 84.000000"
 preserveAspectRatio="xMidYMid meet">
<metadata>
Created by potrace 1.16, written by Peter Selinger 2001-2019
</metadata>
<g transform="translate(0.000000,84.000000) scale(0.100000,-0.100000)"
fill="#000000" stroke="none">
<path d="M0 420 l0 -420 61 0 c53 0 60 2 49 15 -13 16 -31 204 -31 330 0 75
16 152 55 278 14 45 14 48 -5 66 -18 16 -20 29 -17 85 l3 66 -57 0 -58 0 0
-420z"/>
<path d="M748 833 c7 -3 16 -2 19 1 4 3 -2 6 -13 5 -11 0 -14 -3 -6 -6z"/>
<path d="M865 783 c1 -32 6 -110 10 -174 8 -125 2 -191 -18 -184 -7 3 -23 -24
-41 -73 -24 -63 -40 -87 -87 -134 -90 -88 -184 -108 -277 -60 -80 41 -129 167
-85 221 l19 23 59 -36 c75 -45 111 -47 118 -8 3 15 8 37 12 50 6 17 3 22 -9
22 -9 0 -34 18 -55 40 -31 33 -45 40 -75 40 -83 0 -136 -67 -136 -171 0 -247
241 -348 470 -198 20 13 30 17 23 8 -21 -27 -115 -73 -183 -90 l-65 -16 55 -7
c86 -11 110 -17 110 -27 0 -5 56 -9 125 -9 l125 0 0 420 0 420 -49 0 -49 0 3
-57z"/>
<path d="M570 655 c36 -37 40 -40 40 -27 0 12 -50 62 -62 62 -7 0 3 -16 22
-35z"/>
</g>
</svg>
