<?xml version="1.0" standalone="no"?>
<!DOCTYPE svg PUBLIC "-//W3C//DTD SVG 20010904//EN"
 "http://www.w3.org/TR/2001/REC-SVG-20010904/DTD/svg10.dtd">
<svg version="1.0" xmlns="http://www.w3.org/2000/svg"
 width="96.000000pt" height="84.000000pt" viewBox="0 0 96.000000 84.000000"
 preserveAspectRatio="xMidYMid meet">
<metadata>
Created by potrace 1.16, written by Peter Selinger 2001-2019
</metadata>
<g transform="translate(0.000000,84.000000) scale(0.100000,-0.100000)"
fill="#000000" stroke="none">
<path d="M0 420 l0 -420 147 0 147 0 -42 31 c-29 21 -50 29 -64 26 -25 -7
-133 47 -143 71 -6 16 8 192 24 307 12 84 43 159 101 245 27 41 50 81 50 87 0
7 -11 15 -23 19 -19 4 -23 11 -19 30 4 24 4 24 -87 24 l-91 0 0 -420z"/>
<path d="M683 829 c10 -6 25 -8 33 -5 9 4 34 -12 63 -39 26 -25 53 -45 60 -45
7 0 17 14 22 30 13 37 33 38 56 4 16 -25 16 -32 0 -128 -10 -55 -17 -126 -17
-156 0 -63 -23 -161 -45 -193 -9 -12 -17 -20 -19 -17 -2 3 -14 -8 -27 -25
-112 -149 -247 -200 -374 -141 -92 42 -145 129 -145 236 0 75 27 134 73 160
48 27 61 7 61 -92 1 -100 9 -115 63 -110 37 4 39 5 40 40 1 21 4 63 8 94 7 53
5 61 -19 93 -64 83 -184 55 -242 -57 -37 -71 -35 -195 3 -275 27 -59 105 -128
170 -153 47 -18 73 -21 138 -17 44 2 71 0 60 -4 -29 -11 -134 -11 -174 1 -45
13 -51 6 -12 -14 25 -13 71 -16 266 -16 l235 0 0 420 0 420 -147 0 c-109 -1
-143 -3 -130 -11z"/>
<path d="M680 549 c5 -19 11 -45 14 -59 3 -14 3 -3 2 23 -2 27 -9 54 -15 60
-7 7 -8 1 -1 -24z"/>
</g>
</svg>
