<?xml version="1.0" standalone="no"?>
<!DOCTYPE svg PUBLIC "-//W3C//DTD SVG 20010904//EN"
 "http://www.w3.org/TR/2001/REC-SVG-20010904/DTD/svg10.dtd">
<svg version="1.0" xmlns="http://www.w3.org/2000/svg"
 width="96.000000pt" height="84.000000pt" viewBox="0 0 96.000000 84.000000"
 preserveAspectRatio="xMidYMid meet">
<metadata>
Created by potrace 1.16, written by Peter Selinger 2001-2019
</metadata>
<g transform="translate(0.000000,84.000000) scale(0.100000,-0.100000)"
fill="#000000" stroke="none">
<path d="M1 558 c1 -312 5 -323 49 -128 12 52 35 123 52 158 31 67 127 177
184 213 19 11 34 25 34 30 0 5 -69 9 -160 9 l-160 0 1 -282z"/>
<path d="M724 790 c29 -27 60 -50 70 -50 9 0 30 -22 47 -50 34 -56 54 -62 71
-25 12 27 33 33 41 13 3 -7 6 26 6 75 l1 87 -144 0 -145 0 53 -50z"/>
<path d="M350 620 c-45 -24 -82 -64 -112 -120 -19 -38 -23 -60 -23 -140 0 -88
3 -101 33 -162 21 -43 51 -83 85 -114 29 -26 42 -42 30 -35 -12 6 -25 16 -28
21 -3 5 -16 15 -28 20 -12 6 2 -11 31 -39 l54 -49 284 -1 284 -2 -1 283 c-1
254 -2 280 -15 250 -8 -17 -19 -53 -25 -80 -36 -154 -99 -292 -134 -292 -6 0
-27 -12 -46 -26 -68 -52 -129 -74 -204 -74 -120 1 -210 60 -260 172 -55 120
-35 249 50 327 40 37 50 41 96 41 43 0 55 -5 80 -29 44 -44 39 -68 -17 -82
-52 -13 -104 -52 -104 -77 1 -10 9 -32 19 -51 14 -26 19 -30 24 -18 5 12 18
16 56 14 43 -2 55 2 78 25 21 22 27 39 31 85 3 49 0 64 -20 93 -52 77 -141
102 -218 60z m89 -606 c14 -12 -19 -1 -35 12 -18 14 -18 14 6 3 14 -6 27 -13
29 -15z"/>
<path d="M697 345 c-9 -19 -15 -35 -12 -35 7 0 37 61 33 66 -3 2 -12 -12 -21
-31z"/>
<path d="M1 133 l-1 -133 135 0 136 0 -67 80 c-65 80 -79 90 -86 69 -5 -14
-97 68 -109 96 -4 12 -8 -34 -8 -112z"/>
</g>
</svg>
