<?xml version="1.0" standalone="no"?>
<!DOCTYPE svg PUBLIC "-//W3C//DTD SVG 20010904//EN"
 "http://www.w3.org/TR/2001/REC-SVG-20010904/DTD/svg10.dtd">
<svg version="1.0" xmlns="http://www.w3.org/2000/svg"
 width="96.000000pt" height="84.000000pt" viewBox="0 0 96.000000 84.000000"
 preserveAspectRatio="xMidYMid meet">
<metadata>
Created by potrace 1.16, written by Peter Selinger 2001-2019
</metadata>
<g transform="translate(0.000000,84.000000) scale(0.100000,-0.100000)"
fill="#000000" stroke="none">
<path d="M0 630 c0 -115 2 -210 4 -210 7 0 41 64 65 125 51 127 130 218 234
270 l51 25 -177 0 -177 0 0 -210z"/>
<path d="M717 797 c21 -23 55 -68 73 -100 20 -32 40 -55 47 -53 7 3 20 -16 31
-47 22 -58 41 -68 71 -38 19 19 21 33 21 151 l0 130 -141 0 -142 0 40 -43z"/>
<path d="M281 624 c-78 -65 -119 -229 -88 -348 9 -33 13 -64 10 -69 -3 -6 -2
-7 4 -4 6 4 15 -6 22 -21 11 -25 10 -26 -4 -8 -8 11 -15 15 -15 10 0 -16 55
-98 95 -143 l36 -40 310 -1 309 0 0 227 0 228 -22 -35 c-12 -19 -36 -70 -55
-113 -78 -185 -161 -250 -334 -264 -91 -7 -154 15 -223 77 -131 121 -151 320
-46 473 21 31 37 57 35 57 -2 0 -17 -12 -34 -26z m19 -539 c13 -14 21 -25 18
-25 -2 0 -15 11 -28 25 -13 14 -21 25 -18 25 2 0 15 -11 28 -25z"/>
<path d="M0 170 l0 -170 136 0 136 0 -47 52 c-26 29 -65 91 -88 140 -35 74
-44 86 -53 73 -11 -14 -16 -10 -44 29 -17 25 -33 46 -35 46 -3 0 -5 -76 -5
-170z"/>
</g>
</svg>
