<?xml version="1.0" standalone="no"?>
<!DOCTYPE svg PUBLIC "-//W3C//DTD SVG 20010904//EN"
 "http://www.w3.org/TR/2001/REC-SVG-20010904/DTD/svg10.dtd">
<svg version="1.0" xmlns="http://www.w3.org/2000/svg"
 width="96.000000pt" height="84.000000pt" viewBox="0 0 96.000000 84.000000"
 preserveAspectRatio="xMidYMid meet">
<metadata>
Created by potrace 1.16, written by Peter Selinger 2001-2019
</metadata>
<g transform="translate(0.000000,84.000000) scale(0.100000,-0.100000)"
fill="#000000" stroke="none">
<path d="M0 693 l0 -146 21 19 c12 10 35 42 51 71 39 69 98 134 155 172 l46
31 -136 0 -137 0 0 -147z"/>
<path d="M693 793 c42 -58 69 -111 91 -181 10 -28 21 -50 26 -47 9 5 14 -7 25
-62 7 -34 22 -42 42 -22 18 18 33 1 33 -35 0 -21 -11 -47 -30 -72 -17 -21 -55
-76 -85 -121 -58 -87 -131 -154 -191 -173 -55 -19 -189 -8 -245 19 -62 29
-126 85 -161 140 -15 25 -28 38 -29 30 0 -8 -4 -6 -9 6 -6 13 -9 15 -9 5 -2
-28 56 -135 103 -193 25 -31 46 -64 46 -72 0 -13 42 -15 330 -15 l330 0 0 420
0 420 -151 0 -151 0 35 -47z m-483 -603 c6 -11 8 -20 6 -20 -3 0 -10 9 -16 20
-6 11 -8 20 -6 20 3 0 10 -9 16 -20z m46 -62 l29 -33 -32 29 c-31 28 -38 36
-30 36 2 0 16 -15 33 -32z"/>
<path d="M1 238 l-1 -238 130 0 c154 0 158 4 81 85 -62 66 -97 135 -126 249
-20 81 -24 88 -33 66 l-10 -25 -12 30 c-7 17 -16 39 -20 50 -5 12 -9 -80 -9
-217z"/>
</g>
</svg>
