<?xml version="1.0" standalone="no"?>
<!DOCTYPE svg PUBLIC "-//W3C//DTD SVG 20010904//EN"
 "http://www.w3.org/TR/2001/REC-SVG-20010904/DTD/svg10.dtd">
<svg version="1.0" xmlns="http://www.w3.org/2000/svg"
 width="96.000000pt" height="84.000000pt" viewBox="0 0 96.000000 84.000000"
 preserveAspectRatio="xMidYMid meet">
<metadata>
Created by potrace 1.16, written by Peter Selinger 2001-2019
</metadata>
<g transform="translate(0.000000,84.000000) scale(0.100000,-0.100000)"
fill="#000000" stroke="none">
<path d="M0 758 l0 -83 43 45 c23 25 57 62 75 83 l32 37 -75 0 -75 0 0 -82z"/>
<path d="M632 813 c64 -69 118 -207 118 -303 0 -29 5 -39 20 -43 15 -4 20 -14
20 -41 0 -32 -27 -76 -76 -121 -6 -5 -25 -34 -43 -62 -58 -92 -130 -142 -236
-163 -50 -10 -71 -9 -125 5 -36 9 -75 19 -88 22 -17 4 -22 1 -22 -15 0 -11 7
-25 15 -32 19 -16 19 -26 -1 -34 -27 -10 -61 36 -69 95 -5 36 -16 66 -35 89
-56 71 -85 147 -99 255 -6 54 -9 9 -10 -197 l-1 -268 480 0 480 0 0 420 0 420
-177 0 -177 0 26 -27z"/>
</g>
</svg>
