<?xml version="1.0" standalone="no"?>
<!DOCTYPE svg PUBLIC "-//W3C//DTD SVG 20010904//EN"
 "http://www.w3.org/TR/2001/REC-SVG-20010904/DTD/svg10.dtd">
<svg version="1.0" xmlns="http://www.w3.org/2000/svg"
 width="96.000000pt" height="84.000000pt" viewBox="0 0 96.000000 84.000000"
 preserveAspectRatio="xMidYMid meet">
<metadata>
Created by potrace 1.16, written by Peter Selinger 2001-2019
</metadata>
<g transform="translate(0.000000,84.000000) scale(0.100000,-0.100000)"
fill="#000000" stroke="none">
<path d="M650 827 c0 -7 4 -17 9 -22 16 -18 42 -110 51 -182 12 -95 -8 -212
-52 -293 -43 -80 -135 -180 -166 -180 -5 0 -15 -6 -21 -14 -20 -24 -135 -50
-191 -43 -74 9 -188 67 -238 121 l-42 46 0 -130 0 -130 480 0 480 0 0 420 0
420 -155 0 c-121 0 -155 -3 -155 -13z"/>
</g>
</svg>
