<?xml version="1.0" standalone="no"?>
<!DOCTYPE svg PUBLIC "-//W3C//DTD SVG 20010904//EN"
 "http://www.w3.org/TR/2001/REC-SVG-20010904/DTD/svg10.dtd">
<svg version="1.0" xmlns="http://www.w3.org/2000/svg"
 width="96.000000pt" height="84.000000pt" viewBox="0 0 96.000000 84.000000"
 preserveAspectRatio="xMidYMid meet">
<metadata>
Created by potrace 1.16, written by Peter Selinger 2001-2019
</metadata>
<g transform="translate(0.000000,84.000000) scale(0.100000,-0.100000)"
fill="#000000" stroke="none">
<path d="M585 823 c21 -55 36 -163 30 -222 -18 -168 -98 -296 -232 -369 -62
-33 -75 -36 -148 -37 -83 0 -120 10 -187 52 -21 13 -40 23 -43 23 -3 0 -5 -61
-5 -135 l0 -135 480 0 480 0 0 303 c0 205 -4 307 -11 314 -8 8 -8 13 0 17 7 5
11 46 11 107 l0 99 -191 0 c-178 0 -191 -1 -184 -17z"/>
</g>
</svg>
