<?xml version="1.0" standalone="no"?>
<!DOCTYPE svg PUBLIC "-//W3C//DTD SVG 20010904//EN"
 "http://www.w3.org/TR/2001/REC-SVG-20010904/DTD/svg10.dtd">
<svg version="1.0" xmlns="http://www.w3.org/2000/svg"
 width="96.000000pt" height="84.000000pt" viewBox="0 0 96.000000 84.000000"
 preserveAspectRatio="xMidYMid meet">
<metadata>
Created by potrace 1.16, written by Peter Selinger 2001-2019
</metadata>
<g transform="translate(0.000000,84.000000) scale(0.100000,-0.100000)"
fill="#000000" stroke="none">
<path d="M600 833 c0 -5 4 -14 9 -22 7 -11 -2 -20 -37 -36 -57 -27 -74 -46
-100 -106 -24 -55 -17 -107 19 -145 16 -17 20 -27 12 -35 -11 -11 11 -69 26
-69 12 0 32 -64 38 -127 4 -44 2 -63 -5 -63 -19 0 -52 76 -52 117 0 80 -53
106 -117 57 -26 -20 -33 -32 -33 -60 0 -42 22 -99 44 -111 12 -7 14 -16 7 -43
-28 -117 -32 -143 -27 -165 6 -23 11 -25 61 -25 49 0 56 3 69 28 l15 27 1 -27
0 -28 175 0 c167 0 176 1 197 22 28 28 8 37 -28 13 -14 -9 -28 -14 -31 -12 -8
9 -43 181 -39 192 2 5 5 2 5 -7 1 -10 5 -18 9 -18 5 0 13 -12 18 -27 9 -22 10
-10 8 57 -2 84 -2 85 12 46 19 -52 28 -59 21 -16 l-6 35 15 -28 c9 -16 17 -27
18 -25 1 1 -3 80 -10 173 -18 240 -64 384 -123 393 -12 2 -27 12 -34 23 -10
15 -23 19 -74 19 -35 0 -63 -3 -63 -7z"/>
</g>
</svg>
