<?xml version="1.0" standalone="no"?>
<!DOCTYPE svg PUBLIC "-//W3C//DTD SVG 20010904//EN"
 "http://www.w3.org/TR/2001/REC-SVG-20010904/DTD/svg10.dtd">
<svg version="1.0" xmlns="http://www.w3.org/2000/svg"
 width="96.000000pt" height="84.000000pt" viewBox="0 0 96.000000 84.000000"
 preserveAspectRatio="xMidYMid meet">
<metadata>
Created by potrace 1.16, written by Peter Selinger 2001-2019
</metadata>
<g transform="translate(0.000000,84.000000) scale(0.100000,-0.100000)"
fill="#000000" stroke="none">
<path d="M484 817 c24 -99 11 -218 -36 -311 -29 -57 -105 -134 -163 -164 -42
-23 -62 -27 -130 -26 -56 0 -90 5 -112 17 -18 9 -34 17 -38 17 -3 0 -5 -79 -5
-175 l0 -175 450 0 450 0 0 25 c0 13 12 59 26 102 23 68 27 98 31 240 3 155 3
163 -17 175 -12 8 -20 24 -20 38 0 14 -6 32 -12 38 -10 10 -10 15 2 22 8 5 23
10 33 10 15 0 17 11 17 95 l0 95 -241 0 -241 0 6 -23z"/>
</g>
</svg>
