<?xml version="1.0" standalone="no"?>
<!DOCTYPE svg PUBLIC "-//W3C//DTD SVG 20010904//EN"
 "http://www.w3.org/TR/2001/REC-SVG-20010904/DTD/svg10.dtd">
<svg version="1.0" xmlns="http://www.w3.org/2000/svg"
 width="96.000000pt" height="84.000000pt" viewBox="0 0 96.000000 84.000000"
 preserveAspectRatio="xMidYMid meet">
<metadata>
Created by potrace 1.16, written by Peter Selinger 2001-2019
</metadata>
<g transform="translate(0.000000,84.000000) scale(0.100000,-0.100000)"
fill="#000000" stroke="none">
<path d="M388 785 c5 -58 -8 -126 -35 -185 -58 -129 -218 -212 -327 -170 l-26
10 0 -220 0 -220 430 0 430 0 0 29 c0 16 4 41 10 55 15 42 50 225 50 267 0 21
-4 39 -10 39 -12 0 -13 42 -1 55 4 6 11 22 15 37 5 21 0 31 -24 51 -17 14 -30
34 -30 43 0 10 -8 26 -17 36 -15 17 -15 21 -3 29 8 5 36 8 63 7 l47 -3 0 98 0
97 -288 0 -289 0 5 -55z"/>
</g>
</svg>
