<?xml version="1.0" standalone="no"?>
<!DOCTYPE svg PUBLIC "-//W3C//DTD SVG 20010904//EN"
 "http://www.w3.org/TR/2001/REC-SVG-20010904/DTD/svg10.dtd">
<svg version="1.0" xmlns="http://www.w3.org/2000/svg"
 width="96.000000pt" height="84.000000pt" viewBox="0 0 96.000000 84.000000"
 preserveAspectRatio="xMidYMid meet">
<metadata>
Created by potrace 1.16, written by Peter Selinger 2001-2019
</metadata>
<g transform="translate(0.000000,84.000000) scale(0.100000,-0.100000)"
fill="#000000" stroke="none">
<path d="M323 773 c-2 -84 -45 -176 -106 -228 -49 -42 -131 -69 -181 -59 l-36
6 0 -246 0 -246 409 0 408 0 6 53 c4 28 13 95 22 147 18 114 19 182 3 198 -8
8 -6 23 9 60 l21 49 -34 28 c-19 16 -34 38 -34 50 0 11 -5 26 -12 33 -15 15
-8 22 35 29 56 9 84 -3 106 -45 l20 -37 1 138 0 137 -318 0 -317 0 -2 -67z"/>
</g>
</svg>
