<?xml version="1.0" standalone="no"?>
<!DOCTYPE svg PUBLIC "-//W3C//DTD SVG 20010904//EN"
 "http://www.w3.org/TR/2001/REC-SVG-20010904/DTD/svg10.dtd">
<svg version="1.0" xmlns="http://www.w3.org/2000/svg"
 width="96.000000pt" height="84.000000pt" viewBox="0 0 96.000000 84.000000"
 preserveAspectRatio="xMidYMid meet">
<metadata>
Created by potrace 1.16, written by Peter Selinger 2001-2019
</metadata>
<g transform="translate(0.000000,84.000000) scale(0.100000,-0.100000)"
fill="#000000" stroke="none">
<path d="M318 768 c-11 -164 -133 -288 -273 -276 l-45 3 0 -247 0 -248 388 0
388 0 14 153 c16 191 16 212 1 240 -10 19 -9 30 7 67 l19 45 -34 30 c-18 17
-33 39 -33 52 0 12 -4 25 -10 28 -21 13 -8 23 40 29 28 4 58 2 68 -3 19 -10
92 -121 92 -139 0 -6 5 -14 10 -17 7 -4 10 57 10 174 l0 181 -319 0 -318 0 -5
-72z"/>
<path d="M909 395 c-12 -12 2 -106 24 -165 25 -63 26 -64 26 -28 1 42 -26 179
-38 191 -4 4 -10 5 -12 2z"/>
</g>
</svg>
