<?xml version="1.0" standalone="no"?>
<!DOCTYPE svg PUBLIC "-//W3C//DTD SVG 20010904//EN"
 "http://www.w3.org/TR/2001/REC-SVG-20010904/DTD/svg10.dtd">
<svg version="1.0" xmlns="http://www.w3.org/2000/svg"
 width="96.000000pt" height="84.000000pt" viewBox="0 0 96.000000 84.000000"
 preserveAspectRatio="xMidYMid meet">
<metadata>
Created by potrace 1.16, written by Peter Selinger 2001-2019
</metadata>
<g transform="translate(0.000000,84.000000) scale(0.100000,-0.100000)"
fill="#000000" stroke="none">
<path d="M318 768 c-11 -164 -133 -288 -273 -276 l-45 3 0 -247 0 -248 373 0
374 0 6 96 c5 77 4 99 -8 110 -13 13 -12 21 5 65 24 60 25 97 5 119 -14 15
-13 22 6 65 l21 48 -31 26 c-17 15 -31 36 -31 48 0 11 -7 26 -15 33 -25 21
-17 27 38 33 65 7 83 -4 128 -78 19 -31 46 -72 62 -92 l27 -36 0 202 0 201
-319 0 -318 0 -5 -72z"/>
<path d="M887 325 c6 -88 24 -148 57 -190 14 -19 15 -14 16 68 0 91 -11 127
-59 187 l-20 25 6 -90z"/>
</g>
</svg>
