<?xml version="1.0" standalone="no"?>
<!DOCTYPE svg PUBLIC "-//W3C//DTD SVG 20010904//EN"
 "http://www.w3.org/TR/2001/REC-SVG-20010904/DTD/svg10.dtd">
<svg version="1.0" xmlns="http://www.w3.org/2000/svg"
 width="96.000000pt" height="84.000000pt" viewBox="0 0 96.000000 84.000000"
 preserveAspectRatio="xMidYMid meet">
<metadata>
Created by potrace 1.16, written by Peter Selinger 2001-2019
</metadata>
<g transform="translate(0.000000,84.000000) scale(0.100000,-0.100000)"
fill="#000000" stroke="none">
<path d="M318 768 c-11 -164 -133 -288 -273 -276 l-45 3 0 -247 0 -248 360 0
360 0 -3 48 c-1 26 2 74 6 106 8 52 7 58 -7 53 -29 -11 -29 19 -2 87 25 61 25
68 11 90 -14 21 -14 27 5 70 l20 47 -30 29 c-17 16 -30 38 -30 48 0 11 -7 25
-15 32 -25 21 -17 28 33 32 64 6 87 -4 112 -49 11 -21 34 -58 50 -83 17 -25
38 -62 46 -82 9 -20 23 -39 30 -42 12 -4 14 34 14 224 l0 230 -319 0 -318 0
-5 -72z"/>
<path d="M850 392 c0 -4 7 -39 15 -77 8 -39 15 -86 15 -105 0 -23 14 -57 40
-100 l40 -65 0 122 c0 67 -3 123 -7 125 -5 2 -29 26 -55 55 -27 29 -48 49 -48
45z"/>
<path d="M810 350 c0 -8 5 -22 10 -30 9 -13 10 -13 10 0 0 8 -5 22 -10 30 -9
13 -10 13 -10 0z"/>
</g>
</svg>
