<?xml version="1.0" standalone="no"?>
<!DOCTYPE svg PUBLIC "-//W3C//DTD SVG 20010904//EN"
 "http://www.w3.org/TR/2001/REC-SVG-20010904/DTD/svg10.dtd">
<svg version="1.0" xmlns="http://www.w3.org/2000/svg"
 width="96.000000pt" height="84.000000pt" viewBox="0 0 96.000000 84.000000"
 preserveAspectRatio="xMidYMid meet">
<metadata>
Created by potrace 1.16, written by Peter Selinger 2001-2019
</metadata>
<g transform="translate(0.000000,84.000000) scale(0.100000,-0.100000)"
fill="#000000" stroke="none">
<path d="M318 768 c-11 -164 -133 -288 -273 -276 l-45 3 0 -247 0 -248 339 0
339 0 5 67 c3 38 10 97 16 132 12 63 7 102 -5 43 -4 -18 -13 -32 -20 -32 -20
0 -17 20 12 86 23 51 25 63 15 91 -10 27 -9 38 8 73 l20 41 -35 33 c-21 20
-32 38 -29 48 3 8 -1 21 -10 28 -8 7 -15 16 -15 20 0 13 97 23 117 12 10 -6
33 -41 52 -79 19 -37 38 -75 43 -83 4 -8 12 -24 17 -35 5 -11 14 -31 20 -45 6
-14 19 -36 30 -50 11 -14 22 -34 25 -45 5 -16 1 -21 -18 -23 -18 -1 -36 11
-66 46 -23 26 -38 38 -32 27 5 -11 17 -48 26 -83 14 -51 15 -66 5 -78 -10 -12
-4 -31 33 -102 25 -47 50 -88 57 -90 8 -3 11 109 11 417 l0 421 -319 0 -318 0
-5 -72z"/>
<path d="M790 331 c0 -6 4 -13 10 -16 6 -3 7 1 4 9 -7 18 -14 21 -14 7z"/>
</g>
</svg>
