<?xml version="1.0" standalone="no"?>
<!DOCTYPE svg PUBLIC "-//W3C//DTD SVG 20010904//EN"
 "http://www.w3.org/TR/2001/REC-SVG-20010904/DTD/svg10.dtd">
<svg version="1.0" xmlns="http://www.w3.org/2000/svg"
 width="96.000000pt" height="84.000000pt" viewBox="0 0 96.000000 84.000000"
 preserveAspectRatio="xMidYMid meet">
<metadata>
Created by potrace 1.16, written by Peter Selinger 2001-2019
</metadata>
<g transform="translate(0.000000,84.000000) scale(0.100000,-0.100000)"
fill="#000000" stroke="none">
<path d="M318 768 c-11 -164 -133 -288 -273 -276 l-45 3 0 -247 0 -248 314 0
314 0 6 48 c4 26 14 68 22 94 9 27 13 61 9 76 -3 16 1 43 10 65 17 41 20 103
5 112 -12 8 -13 48 -1 61 4 5 11 21 15 35 4 20 -1 32 -24 55 -16 16 -30 39
-30 51 0 12 -4 25 -10 28 -21 13 -8 24 34 30 56 9 80 -4 107 -58 24 -47 29
-71 64 -316 6 -38 -3 -60 -16 -40 -20 32 -7 -36 20 -109 17 -42 33 -89 37
-104 5 -25 11 -28 45 -28 l39 0 0 420 0 420 -319 0 -318 0 -5 -72z"/>
</g>
</svg>
